  0
SECTION
  2
HEADER
  9
$ANGBASE
  50
0.0
  9
$ANGDIR
  70
1
  9
$MEASUREMENT
  70
0
  0
ENDSEC
  0
SECTION
  2
TABLES
  0
TABLE
  2
LTYPE
  70
4
  0
LTYPE
  5
40F
  2
CONTINUOUS
  70
0
  3
Solid line
  72
65
  73
0
  40
0.0
  0
LTYPE
  5
410
  2
DASHDOT
 70
0
  3
Dash Dot ____ _ ____ _
 72
65
 73
4
 40
2.0
 49
1.25
 49
-0.25
 49
0.25
 49
-0.25
  0
LTYPE
  5
411
  2
DASHED
 70
0
  3
Dashed __ __ __ __ __
 72
65
 73
2
 40
0.75
 49
0.5
 49
-0.25
  0
LTYPE
  5
43B
  2
DOTTED
 70
0
  3
Dotted .  .  .  .
 72
65
 73
2
 40
0.2
 49
0.0
 49
-0.2
  0
ENDTAB
  0
TABLE
  2
STYLE
  70
4
  0
STYLE
  2
KICAD
  70
0
  40
0
  41
1
  42
1
  50
0
  71
0
  3
isocp.shx
  0
STYLE
  2
KICADB
  70
0
  40
0
  41
1
  42
1
  50
0
  71
0
  3
isocp.shx
  0
STYLE
  2
KICADI
  70
0
  40
0
  41
1
  42
1
  50
15
  71
0
  3
isocp.shx
  0
STYLE
  2
KICADBI
  70
0
  40
0
  41
1
  42
1
  50
15
  71
0
  3
isocp.shx
  0
ENDTAB
  0
TABLE
  2
LAYER
  70
1
  0
LAYER
  2
BLACK
  70
0
  62
7
  6
CONTINUOUS
  0
ENDTAB
  0
ENDSEC
  0
SECTION
  2
ENTITIES
0
LINE
8
BLACK
6
CONTINUOUS
10
0.7481755905511811
20
0.1140612204724409
11
0.7531602755905512
21
0.1123170078740157
0
LINE
8
BLACK
6
CONTINUOUS
10
0.7531602755905512
20
0.1123170078740157
11
0.7574093700787401
21
0.1091810236220472
0
LINE
8
BLACK
6
CONTINUOUS
10
0.7574093700787401
20
0.1091810236220472
11
0.7605453543307087
21
0.1049319291338583
0
LINE
8
BLACK
6
CONTINUOUS
10
0.7605453543307087
20
0.1049319291338583
11
0.7622895669291339
21
0.0999472440944882
0
LINE
8
BLACK
6
CONTINUOUS
10
0.7622895669291339
20
0.0999472440944882
11
0.7625984251968504
21
0.0966535433070866
0
LINE
8
BLACK
6
CONTINUOUS
10
0.7625984251968504
20
0.0966535433070866
11
0.7625984251968504
21
0.0769685039370079
0
LINE
8
BLACK
6
CONTINUOUS
10
0.7625984251968504
20
0.0769685039370079
11
0.7622895669291339
21
0.0736748031496063
0
LINE
8
BLACK
6
CONTINUOUS
10
0.7622895669291339
20
0.0736748031496063
11
0.7605453543307087
21
0.0686901181102362
0
LINE
8
BLACK
6
CONTINUOUS
10
0.7605453543307087
20
0.0686901181102362
11
0.7574093700787401
21
0.0644410236220472
0
LINE
8
BLACK
6
CONTINUOUS
10
0.7574093700787401
20
0.0644410236220472
11
0.7531602755905512
21
0.0613050393700787
0
LINE
8
BLACK
6
CONTINUOUS
10
0.7531602755905512
20
0.0613050393700787
11
0.7481755905511811
21
0.0595608267716535
0
LINE
8
BLACK
6
CONTINUOUS
10
0.7481755905511811
20
0.0595608267716535
11
0.7448818897637796
21
0.059251968503937
0
LINE
8
BLACK
6
CONTINUOUS
10
0.7448818897637796
20
0.059251968503937
11
0.658267716535433
21
0.059251968503937
0
LINE
8
BLACK
6
CONTINUOUS
10
0.658267716535433
20
0.059251968503937
11
0.6549740157480315
21
0.0595608267716535
0
LINE
8
BLACK
6
CONTINUOUS
10
0.6549740157480315
20
0.0595608267716535
11
0.6499893307086614
21
0.0613050393700787
0
LINE
8
BLACK
6
CONTINUOUS
10
0.6499893307086614
20
0.0613050393700787
11
0.6457402362204724
21
0.0644410236220472
0
LINE
8
BLACK
6
CONTINUOUS
10
0.6457402362204724
20
0.0644410236220472
11
0.6426042519685039
21
0.0686901181102362
0
LINE
8
BLACK
6
CONTINUOUS
10
0.6426042519685039
20
0.0686901181102362
11
0.6408600393700787
21
0.0736748031496063
0
LINE
8
BLACK
6
CONTINUOUS
10
0.6408600393700787
20
0.0736748031496063
11
0.6405511811023622
21
0.0769685039370079
0
LINE
8
BLACK
6
CONTINUOUS
10
0.6405511811023622
20
0.0769685039370079
11
0.6405511811023622
21
0.0966535433070866
0
LINE
8
BLACK
6
CONTINUOUS
10
0.6405511811023622
20
0.0966535433070866
11
0.6408600393700787
21
0.0999472440944882
0
LINE
8
BLACK
6
CONTINUOUS
10
0.6408600393700787
20
0.0999472440944882
11
0.6426042519685039
21
0.1049319291338583
0
LINE
8
BLACK
6
CONTINUOUS
10
0.6426042519685039
20
0.1049319291338583
11
0.6457402362204724
21
0.1091810236220472
0
LINE
8
BLACK
6
CONTINUOUS
10
0.6457402362204724
20
0.1091810236220472
11
0.6499893307086614
21
0.1123170078740157
0
LINE
8
BLACK
6
CONTINUOUS
10
0.6499893307086614
20
0.1123170078740157
11
0.6549740157480315
21
0.1140612204724409
0
LINE
8
BLACK
6
CONTINUOUS
10
0.6549740157480315
20
0.1140612204724409
11
0.658267716535433
21
0.1143700787401575
0
LINE
8
BLACK
6
CONTINUOUS
10
0.658267716535433
20
0.1143700787401575
11
0.7448818897637796
21
0.1143700787401575
0
LINE
8
BLACK
6
CONTINUOUS
10
0.7448818897637796
20
0.1143700787401575
11
0.7481755905511811
21
0.1140612204724409
0
LINE
8
BLACK
6
CONTINUOUS
10
0.6070814173228346
20
0.178757874015748
11
0.6111565748031496
21
0.1767656299212598
0
LINE
8
BLACK
6
CONTINUOUS
10
0.6111565748031496
20
0.1767656299212598
11
0.6143640551181102
21
0.1735581496062992
0
LINE
8
BLACK
6
CONTINUOUS
10
0.6143640551181102
20
0.1735581496062992
11
0.6163562992125984
21
0.1694829921259842
0
LINE
8
BLACK
6
CONTINUOUS
10
0.6163562992125984
20
0.1694829921259842
11
0.6169291338582678
21
0.1655511811023622
0
LINE
8
BLACK
6
CONTINUOUS
10
0.6169291338582678
20
0.1655511811023622
11
0.6169291338582678
21
0.153740157480315
0
LINE
8
BLACK
6
CONTINUOUS
10
0.6169291338582678
20
0.153740157480315
11
0.6163562992125984
21
0.1498083464566929
0
LINE
8
BLACK
6
CONTINUOUS
10
0.6163562992125984
20
0.1498083464566929
11
0.6143640551181102
21
0.1457331889763779
0
LINE
8
BLACK
6
CONTINUOUS
10
0.6143640551181102
20
0.1457331889763779
11
0.6111565748031496
21
0.1425257086614173
0
LINE
8
BLACK
6
CONTINUOUS
10
0.6111565748031496
20
0.1425257086614173
11
0.6070814173228346
21
0.1405334645669291
0
LINE
8
BLACK
6
CONTINUOUS
10
0.6070814173228346
20
0.1405334645669291
11
0.6031496062992125
21
0.1399606299212598
0
LINE
8
BLACK
6
CONTINUOUS
10
0.6031496062992125
20
0.1399606299212598
11
0.5480314960629921
21
0.1399606299212598
0
LINE
8
BLACK
6
CONTINUOUS
10
0.5480314960629921
20
0.1399606299212598
11
0.5440996850393701
21
0.1405334645669291
0
LINE
8
BLACK
6
CONTINUOUS
10
0.5440996850393701
20
0.1405334645669291
11
0.5400245275590551
21
0.1425257086614173
0
LINE
8
BLACK
6
CONTINUOUS
10
0.5400245275590551
20
0.1425257086614173
11
0.5368170472440945
21
0.1457331889763779
0
LINE
8
BLACK
6
CONTINUOUS
10
0.5368170472440945
20
0.1457331889763779
11
0.5348248031496062
21
0.1498083464566929
0
LINE
8
BLACK
6
CONTINUOUS
10
0.5348248031496062
20
0.1498083464566929
11
0.534251968503937
21
0.153740157480315
0
LINE
8
BLACK
6
CONTINUOUS
10
0.534251968503937
20
0.153740157480315
11
0.534251968503937
21
0.1655511811023622
0
LINE
8
BLACK
6
CONTINUOUS
10
0.534251968503937
20
0.1655511811023622
11
0.5348248031496062
21
0.1694829921259842
0
LINE
8
BLACK
6
CONTINUOUS
10
0.5348248031496062
20
0.1694829921259842
11
0.5368170472440945
21
0.1735581496062992
0
LINE
8
BLACK
6
CONTINUOUS
10
0.5368170472440945
20
0.1735581496062992
11
0.5400245275590551
21
0.1767656299212598
0
LINE
8
BLACK
6
CONTINUOUS
10
0.5400245275590551
20
0.1767656299212598
11
0.5440996850393701
21
0.178757874015748
0
LINE
8
BLACK
6
CONTINUOUS
10
0.5440996850393701
20
0.178757874015748
11
0.5480314960629921
21
0.1793307086614173
0
LINE
8
BLACK
6
CONTINUOUS
10
0.5480314960629921
20
0.1793307086614173
11
0.6031496062992125
21
0.1793307086614173
0
LINE
8
BLACK
6
CONTINUOUS
10
0.6031496062992125
20
0.1793307086614173
11
0.6070814173228346
21
0.178757874015748
0
LINE
8
BLACK
6
CONTINUOUS
10
0.3694780708661417
20
0.2862095275590551
11
0.3713095669291339
21
0.2862095275590551
0
LINE
8
BLACK
6
CONTINUOUS
10
0.3713095669291339
20
0.2862095275590551
11
0.3733474803149606
21
0.2859412204724409
0
LINE
8
BLACK
6
CONTINUOUS
10
0.3733474803149606
20
0.2859412204724409
11
0.3783112204724409
21
0.2846112204724409
0
LINE
8
BLACK
6
CONTINUOUS
10
0.3783112204724409
20
0.2846112204724409
11
0.3802103149606299
21
0.2838246062992126
0
LINE
8
BLACK
6
CONTINUOUS
10
0.3802103149606299
20
0.2838246062992126
11
0.3846606692913386
21
0.2812551968503937
0
LINE
8
BLACK
6
CONTINUOUS
10
0.3846606692913386
20
0.2812551968503937
11
0.3862914173228346
21
0.2800038582677165
0
LINE
8
BLACK
6
CONTINUOUS
10
0.3862914173228346
20
0.2800038582677165
11
0.3899251181102362
21
0.276370157480315
0
LINE
8
BLACK
6
CONTINUOUS
10
0.3899251181102362
20
0.276370157480315
11
0.3911764566929134
21
0.2747394094488189
0
LINE
8
BLACK
6
CONTINUOUS
10
0.3911764566929134
20
0.2747394094488189
11
0.3937458661417323
21
0.2702890551181102
0
LINE
8
BLACK
6
CONTINUOUS
10
0.3937458661417323
20
0.2702890551181102
11
0.3945324803149606
21
0.2683899606299213
0
LINE
8
BLACK
6
CONTINUOUS
10
0.3945324803149606
20
0.2683899606299213
11
0.3958624803149606
21
0.263426220472441
0
LINE
8
BLACK
6
CONTINUOUS
10
0.3958624803149606
20
0.263426220472441
11
0.3961307874015748
21
0.2613883070866141
0
LINE
8
BLACK
6
CONTINUOUS
10
0.3961307874015748
20
0.2613883070866141
11
0.3961307874015748
21
0.2603138582677165
0
LINE
8
BLACK
6
CONTINUOUS
10
0.3961307874015748
20
0.2603138582677165
11
0.3962992125984252
21
0.2588188976377953
0
LINE
8
BLACK
6
CONTINUOUS
10
0.3962992125984252
20
0.2588188976377953
11
0.3962992125984252
21
0.2391338582677165
0
LINE
8
BLACK
6
CONTINUOUS
10
0.3962992125984252
20
0.2391338582677165
11
0.3955194488188976
21
0.2357174409448819
0
LINE
8
BLACK
6
CONTINUOUS
10
0.3955194488188976
20
0.2357174409448819
11
0.3934558267716535
21
0.2331298031496063
0
LINE
8
BLACK
6
CONTINUOUS
10
0.3934558267716535
20
0.2331298031496063
11
0.3945813385826771
21
0.2322322047244094
0
LINE
8
BLACK
6
CONTINUOUS
10
0.3945813385826771
20
0.2322322047244094
11
0.396101811023622
21
0.2290749606299212
0
LINE
8
BLACK
6
CONTINUOUS
10
0.396101811023622
20
0.2290749606299212
11
0.3962992125984252
21
0.2273228346456693
0
LINE
8
BLACK
6
CONTINUOUS
10
0.3962992125984252
20
0.2273228346456693
11
0.3962992125984252
21
0.2076377952755905
0
LINE
8
BLACK
6
CONTINUOUS
10
0.3962992125984252
20
0.2076377952755905
11
0.3961307874015748
21
0.2068998818897638
0
LINE
8
BLACK
6
CONTINUOUS
10
0.3961307874015748
20
0.2068998818897638
11
0.3961307874015748
21
0.2050683858267716
0
LINE
8
BLACK
6
CONTINUOUS
10
0.3961307874015748
20
0.2050683858267716
11
0.3958624803149606
21
0.2030304724409449
0
LINE
8
BLACK
6
CONTINUOUS
10
0.3958624803149606
20
0.2030304724409449
11
0.3945324803149606
21
0.1980667322834646
0
LINE
8
BLACK
6
CONTINUOUS
10
0.3945324803149606
20
0.1980667322834646
11
0.3937458661417323
21
0.1961676377952756
0
LINE
8
BLACK
6
CONTINUOUS
10
0.3937458661417323
20
0.1961676377952756
11
0.3911764566929134
21
0.1917172834645669
0
LINE
8
BLACK
6
CONTINUOUS
10
0.3911764566929134
20
0.1917172834645669
11
0.3899251181102362
21
0.1900865354330709
0
LINE
8
BLACK
6
CONTINUOUS
10
0.3899251181102362
20
0.1900865354330709
11
0.3862914173228346
21
0.1864528346456693
0
LINE
8
BLACK
6
CONTINUOUS
10
0.3862914173228346
20
0.1864528346456693
11
0.3846606692913386
21
0.1852014960629921
0
LINE
8
BLACK
6
CONTINUOUS
10
0.3846606692913386
20
0.1852014960629921
11
0.3802103149606299
21
0.1826320866141732
0
LINE
8
BLACK
6
CONTINUOUS
10
0.3802103149606299
20
0.1826320866141732
11
0.3783112204724409
21
0.1818454724409449
0
LINE
8
BLACK
6
CONTINUOUS
10
0.3783112204724409
20
0.1818454724409449
11
0.3733474803149606
21
0.1805154724409449
0
LINE
8
BLACK
6
CONTINUOUS
10
0.3733474803149606
20
0.1805154724409449
11
0.3713095669291339
21
0.1802471653543307
0
LINE
8
BLACK
6
CONTINUOUS
10
0.3713095669291339
20
0.1802471653543307
11
0.3702350787401575
21
0.1802471653543307
0
LINE
8
BLACK
6
CONTINUOUS
10
0.3702350787401575
20
0.1802471653543307
11
0.368740157480315
21
0.1800787401574803
0
LINE
8
BLACK
6
CONTINUOUS
10
0.368740157480315
20
0.1800787401574803
11
0.3490551181102362
21
0.1800787401574803
0
LINE
8
BLACK
6
CONTINUOUS
10
0.3490551181102362
20
0.1800787401574803
11
0.3483172047244095
21
0.1802471653543307
0
LINE
8
BLACK
6
CONTINUOUS
10
0.3483172047244095
20
0.1802471653543307
11
0.3464857086614173
21
0.1802471653543307
0
LINE
8
BLACK
6
CONTINUOUS
10
0.3464857086614173
20
0.1802471653543307
11
0.3444477952755906
21
0.1805154724409449
0
LINE
8
BLACK
6
CONTINUOUS
10
0.3444477952755906
20
0.1805154724409449
11
0.3394840551181103
21
0.1818454724409449
0
LINE
8
BLACK
6
CONTINUOUS
10
0.3394840551181103
20
0.1818454724409449
11
0.3375849606299213
21
0.1826320866141732
0
LINE
8
BLACK
6
CONTINUOUS
10
0.3375849606299213
20
0.1826320866141732
11
0.3331346062992126
21
0.1852014960629921
0
LINE
8
BLACK
6
CONTINUOUS
10
0.3331346062992126
20
0.1852014960629921
11
0.3315038582677165
21
0.1864528346456693
0
LINE
8
BLACK
6
CONTINUOUS
10
0.3315038582677165
20
0.1864528346456693
11
0.3278701574803149
21
0.1900865354330709
0
LINE
8
BLACK
6
CONTINUOUS
10
0.3278701574803149
20
0.1900865354330709
11
0.3266188188976378
21
0.1917172834645669
0
LINE
8
BLACK
6
CONTINUOUS
10
0.3266188188976378
20
0.1917172834645669
11
0.3240494094488189
21
0.1961676377952756
0
LINE
8
BLACK
6
CONTINUOUS
10
0.3240494094488189
20
0.1961676377952756
11
0.3232627952755905
21
0.1980667322834646
0
LINE
8
BLACK
6
CONTINUOUS
10
0.3232627952755905
20
0.1980667322834646
11
0.3219327952755905
21
0.2030304724409449
0
LINE
8
BLACK
6
CONTINUOUS
10
0.3219327952755905
20
0.2030304724409449
11
0.3216644881889764
21
0.2050683858267716
0
LINE
8
BLACK
6
CONTINUOUS
10
0.3216644881889764
20
0.2050683858267716
11
0.3216644881889764
21
0.206142874015748
0
LINE
8
BLACK
6
CONTINUOUS
10
0.3216644881889764
20
0.206142874015748
11
0.321496062992126
21
0.2076377952755905
0
LINE
8
BLACK
6
CONTINUOUS
10
0.321496062992126
20
0.2076377952755905
11
0.321496062992126
21
0.2273228346456693
0
LINE
8
BLACK
6
CONTINUOUS
10
0.321496062992126
20
0.2273228346456693
11
0.3222758267716536
21
0.2307392519685039
0
LINE
8
BLACK
6
CONTINUOUS
10
0.3222758267716536
20
0.2307392519685039
11
0.3243394094488189
21
0.2333269291338583
0
LINE
8
BLACK
6
CONTINUOUS
10
0.3243394094488189
20
0.2333269291338583
11
0.323213937007874
21
0.2342244881889764
0
LINE
8
BLACK
6
CONTINUOUS
10
0.323213937007874
20
0.2342244881889764
11
0.3216934645669291
21
0.2373817322834646
0
LINE
8
BLACK
6
CONTINUOUS
10
0.3216934645669291
20
0.2373817322834646
11
0.321496062992126
21
0.2391338582677165
0
LINE
8
BLACK
6
CONTINUOUS
10
0.321496062992126
20
0.2391338582677165
11
0.321496062992126
21
0.2588188976377953
0
LINE
8
BLACK
6
CONTINUOUS
10
0.321496062992126
20
0.2588188976377953
11
0.3216644881889764
21
0.2595568503937008
0
LINE
8
BLACK
6
CONTINUOUS
10
0.3216644881889764
20
0.2595568503937008
11
0.3216644881889764
21
0.2613883070866141
0
LINE
8
BLACK
6
CONTINUOUS
10
0.3216644881889764
20
0.2613883070866141
11
0.3219327952755905
21
0.263426220472441
0
LINE
8
BLACK
6
CONTINUOUS
10
0.3219327952755905
20
0.263426220472441
11
0.3232627952755905
21
0.2683899606299213
0
LINE
8
BLACK
6
CONTINUOUS
10
0.3232627952755905
20
0.2683899606299213
11
0.3240494094488189
21
0.2702890551181102
0
LINE
8
BLACK
6
CONTINUOUS
10
0.3240494094488189
20
0.2702890551181102
11
0.3266188188976378
21
0.2747394094488189
0
LINE
8
BLACK
6
CONTINUOUS
10
0.3266188188976378
20
0.2747394094488189
11
0.3278701574803149
21
0.276370157480315
0
LINE
8
BLACK
6
CONTINUOUS
10
0.3278701574803149
20
0.276370157480315
11
0.3315038582677165
21
0.2800038582677165
0
LINE
8
BLACK
6
CONTINUOUS
10
0.3315038582677165
20
0.2800038582677165
11
0.3331346062992126
21
0.2812551968503937
0
LINE
8
BLACK
6
CONTINUOUS
10
0.3331346062992126
20
0.2812551968503937
11
0.3375849606299213
21
0.2838246062992126
0
LINE
8
BLACK
6
CONTINUOUS
10
0.3375849606299213
20
0.2838246062992126
11
0.3394840551181103
21
0.2846112204724409
0
LINE
8
BLACK
6
CONTINUOUS
10
0.3394840551181103
20
0.2846112204724409
11
0.3444477952755906
21
0.2859412204724409
0
LINE
8
BLACK
6
CONTINUOUS
10
0.3444477952755906
20
0.2859412204724409
11
0.3464857086614173
21
0.2862095275590551
0
LINE
8
BLACK
6
CONTINUOUS
10
0.3464857086614173
20
0.2862095275590551
11
0.3475601968503937
21
0.2862095275590551
0
LINE
8
BLACK
6
CONTINUOUS
10
0.3475601968503937
20
0.2862095275590551
11
0.3490551181102362
21
0.2863779527559055
0
LINE
8
BLACK
6
CONTINUOUS
10
0.3490551181102362
20
0.2863779527559055
11
0.368740157480315
21
0.2863779527559055
0
LINE
8
BLACK
6
CONTINUOUS
10
0.368740157480315
20
0.2863779527559055
11
0.3694780708661417
21
0.2862095275590551
0
LINE
8
BLACK
6
CONTINUOUS
10
0.6070814173228346
20
0.2279704724409449
11
0.6111565748031496
21
0.2259782283464567
0
LINE
8
BLACK
6
CONTINUOUS
10
0.6111565748031496
20
0.2259782283464567
11
0.6143640551181102
21
0.222770748031496
0
LINE
8
BLACK
6
CONTINUOUS
10
0.6143640551181102
20
0.222770748031496
11
0.6163562992125984
21
0.2186955905511811
0
LINE
8
BLACK
6
CONTINUOUS
10
0.6163562992125984
20
0.2186955905511811
11
0.6169291338582678
21
0.214763779527559
0
LINE
8
BLACK
6
CONTINUOUS
10
0.6169291338582678
20
0.214763779527559
11
0.6169291338582678
21
0.2029527559055118
0
LINE
8
BLACK
6
CONTINUOUS
10
0.6169291338582678
20
0.2029527559055118
11
0.6163562992125984
21
0.1990209448818898
0
LINE
8
BLACK
6
CONTINUOUS
10
0.6163562992125984
20
0.1990209448818898
11
0.6143640551181102
21
0.1949457874015748
0
LINE
8
BLACK
6
CONTINUOUS
10
0.6143640551181102
20
0.1949457874015748
11
0.6111565748031496
21
0.1917383070866142
0
LINE
8
BLACK
6
CONTINUOUS
10
0.6111565748031496
20
0.1917383070866142
11
0.6070814173228346
21
0.189746062992126
0
LINE
8
BLACK
6
CONTINUOUS
10
0.6070814173228346
20
0.189746062992126
11
0.6031496062992125
21
0.1891732283464567
0
LINE
8
BLACK
6
CONTINUOUS
10
0.6031496062992125
20
0.1891732283464567
11
0.5480314960629921
21
0.1891732283464567
0
LINE
8
BLACK
6
CONTINUOUS
10
0.5480314960629921
20
0.1891732283464567
11
0.5440996850393701
21
0.189746062992126
0
LINE
8
BLACK
6
CONTINUOUS
10
0.5440996850393701
20
0.189746062992126
11
0.5400245275590551
21
0.1917383070866142
0
LINE
8
BLACK
6
CONTINUOUS
10
0.5400245275590551
20
0.1917383070866142
11
0.5368170472440945
21
0.1949457874015748
0
LINE
8
BLACK
6
CONTINUOUS
10
0.5368170472440945
20
0.1949457874015748
11
0.5348248031496062
21
0.1990209448818898
0
LINE
8
BLACK
6
CONTINUOUS
10
0.5348248031496062
20
0.1990209448818898
11
0.534251968503937
21
0.2029527559055118
0
LINE
8
BLACK
6
CONTINUOUS
10
0.534251968503937
20
0.2029527559055118
11
0.534251968503937
21
0.214763779527559
0
LINE
8
BLACK
6
CONTINUOUS
10
0.534251968503937
20
0.214763779527559
11
0.5348248031496062
21
0.2186955905511811
0
LINE
8
BLACK
6
CONTINUOUS
10
0.5348248031496062
20
0.2186955905511811
11
0.5368170472440945
21
0.222770748031496
0
LINE
8
BLACK
6
CONTINUOUS
10
0.5368170472440945
20
0.222770748031496
11
0.5400245275590551
21
0.2259782283464567
0
LINE
8
BLACK
6
CONTINUOUS
10
0.5400245275590551
20
0.2259782283464567
11
0.5440996850393701
21
0.2279704724409449
0
LINE
8
BLACK
6
CONTINUOUS
10
0.5440996850393701
20
0.2279704724409449
11
0.5480314960629921
21
0.2285433070866142
0
LINE
8
BLACK
6
CONTINUOUS
10
0.5480314960629921
20
0.2285433070866142
11
0.6031496062992125
21
0.2285433070866142
0
LINE
8
BLACK
6
CONTINUOUS
10
0.6031496062992125
20
0.2285433070866142
11
0.6070814173228346
21
0.2279704724409449
0
LINE
8
BLACK
6
CONTINUOUS
10
0.6070814173228346
20
0.2771830708661417
11
0.6111565748031496
21
0.2751908267716535
0
LINE
8
BLACK
6
CONTINUOUS
10
0.6111565748031496
20
0.2751908267716535
11
0.6143640551181102
21
0.2719833464566929
0
LINE
8
BLACK
6
CONTINUOUS
10
0.6143640551181102
20
0.2719833464566929
11
0.6163562992125984
21
0.267908188976378
0
LINE
8
BLACK
6
CONTINUOUS
10
0.6163562992125984
20
0.267908188976378
11
0.6169291338582678
21
0.2639763779527559
0
LINE
8
BLACK
6
CONTINUOUS
10
0.6169291338582678
20
0.2639763779527559
11
0.6169291338582678
21
0.2521653543307086
0
LINE
8
BLACK
6
CONTINUOUS
10
0.6169291338582678
20
0.2521653543307086
11
0.6163562992125984
21
0.2482335433070866
0
LINE
8
BLACK
6
CONTINUOUS
10
0.6163562992125984
20
0.2482335433070866
11
0.6143640551181102
21
0.2441583858267717
0
LINE
8
BLACK
6
CONTINUOUS
10
0.6143640551181102
20
0.2441583858267717
11
0.6111565748031496
21
0.240950905511811
0
LINE
8
BLACK
6
CONTINUOUS
10
0.6111565748031496
20
0.240950905511811
11
0.6070814173228346
21
0.2389586614173228
0
LINE
8
BLACK
6
CONTINUOUS
10
0.6070814173228346
20
0.2389586614173228
11
0.6031496062992125
21
0.2383858267716535
0
LINE
8
BLACK
6
CONTINUOUS
10
0.6031496062992125
20
0.2383858267716535
11
0.5480314960629921
21
0.2383858267716535
0
LINE
8
BLACK
6
CONTINUOUS
10
0.5480314960629921
20
0.2383858267716535
11
0.5440996850393701
21
0.2389586614173228
0
LINE
8
BLACK
6
CONTINUOUS
10
0.5440996850393701
20
0.2389586614173228
11
0.5400245275590551
21
0.240950905511811
0
LINE
8
BLACK
6
CONTINUOUS
10
0.5400245275590551
20
0.240950905511811
11
0.5368170472440945
21
0.2441583858267717
0
LINE
8
BLACK
6
CONTINUOUS
10
0.5368170472440945
20
0.2441583858267717
11
0.5348248031496062
21
0.2482335433070866
0
LINE
8
BLACK
6
CONTINUOUS
10
0.5348248031496062
20
0.2482335433070866
11
0.534251968503937
21
0.2521653543307086
0
LINE
8
BLACK
6
CONTINUOUS
10
0.534251968503937
20
0.2521653543307086
11
0.534251968503937
21
0.2639763779527559
0
LINE
8
BLACK
6
CONTINUOUS
10
0.534251968503937
20
0.2639763779527559
11
0.5348248031496062
21
0.267908188976378
0
LINE
8
BLACK
6
CONTINUOUS
10
0.5348248031496062
20
0.267908188976378
11
0.5368170472440945
21
0.2719833464566929
0
LINE
8
BLACK
6
CONTINUOUS
10
0.5368170472440945
20
0.2719833464566929
11
0.5400245275590551
21
0.2751908267716535
0
LINE
8
BLACK
6
CONTINUOUS
10
0.5400245275590551
20
0.2751908267716535
11
0.5440996850393701
21
0.2771830708661417
0
LINE
8
BLACK
6
CONTINUOUS
10
0.5440996850393701
20
0.2771830708661417
11
0.5480314960629921
21
0.277755905511811
0
LINE
8
BLACK
6
CONTINUOUS
10
0.5480314960629921
20
0.277755905511811
11
0.6031496062992125
21
0.277755905511811
0
LINE
8
BLACK
6
CONTINUOUS
10
0.6031496062992125
20
0.277755905511811
11
0.6070814173228346
21
0.2771830708661417
0
LINE
8
BLACK
6
CONTINUOUS
10
0.6070814173228346
20
0.3263956692913386
11
0.6111565748031496
21
0.3244034251968504
0
LINE
8
BLACK
6
CONTINUOUS
10
0.6111565748031496
20
0.3244034251968504
11
0.6143640551181102
21
0.3211959448818897
0
LINE
8
BLACK
6
CONTINUOUS
10
0.6143640551181102
20
0.3211959448818897
11
0.6163562992125984
21
0.3171207874015748
0
LINE
8
BLACK
6
CONTINUOUS
10
0.6163562992125984
20
0.3171207874015748
11
0.6169291338582678
21
0.3131889763779527
0
LINE
8
BLACK
6
CONTINUOUS
10
0.6169291338582678
20
0.3131889763779527
11
0.6169291338582678
21
0.3013779527559055
0
LINE
8
BLACK
6
CONTINUOUS
10
0.6169291338582678
20
0.3013779527559055
11
0.6163562992125984
21
0.2974461417322835
0
LINE
8
BLACK
6
CONTINUOUS
10
0.6163562992125984
20
0.2974461417322835
11
0.6143640551181102
21
0.2933709842519685
0
LINE
8
BLACK
6
CONTINUOUS
10
0.6143640551181102
20
0.2933709842519685
11
0.6111565748031496
21
0.2901635039370078
0
LINE
8
BLACK
6
CONTINUOUS
10
0.6111565748031496
20
0.2901635039370078
11
0.6070814173228346
21
0.2881712598425197
0
LINE
8
BLACK
6
CONTINUOUS
10
0.6070814173228346
20
0.2881712598425197
11
0.6031496062992125
21
0.2875984251968504
0
LINE
8
BLACK
6
CONTINUOUS
10
0.6031496062992125
20
0.2875984251968504
11
0.5480314960629921
21
0.2875984251968504
0
LINE
8
BLACK
6
CONTINUOUS
10
0.5480314960629921
20
0.2875984251968504
11
0.5440996850393701
21
0.2881712598425197
0
LINE
8
BLACK
6
CONTINUOUS
10
0.5440996850393701
20
0.2881712598425197
11
0.5400245275590551
21
0.2901635039370078
0
LINE
8
BLACK
6
CONTINUOUS
10
0.5400245275590551
20
0.2901635039370078
11
0.5368170472440945
21
0.2933709842519685
0
LINE
8
BLACK
6
CONTINUOUS
10
0.5368170472440945
20
0.2933709842519685
11
0.5348248031496062
21
0.2974461417322835
0
LINE
8
BLACK
6
CONTINUOUS
10
0.5348248031496062
20
0.2974461417322835
11
0.534251968503937
21
0.3013779527559055
0
LINE
8
BLACK
6
CONTINUOUS
10
0.534251968503937
20
0.3013779527559055
11
0.534251968503937
21
0.3131889763779527
0
LINE
8
BLACK
6
CONTINUOUS
10
0.534251968503937
20
0.3131889763779527
11
0.5348248031496062
21
0.3171207874015748
0
LINE
8
BLACK
6
CONTINUOUS
10
0.5348248031496062
20
0.3171207874015748
11
0.5368170472440945
21
0.3211959448818897
0
LINE
8
BLACK
6
CONTINUOUS
10
0.5368170472440945
20
0.3211959448818897
11
0.5400245275590551
21
0.3244034251968504
0
LINE
8
BLACK
6
CONTINUOUS
10
0.5400245275590551
20
0.3244034251968504
11
0.5440996850393701
21
0.3263956692913386
0
LINE
8
BLACK
6
CONTINUOUS
10
0.5440996850393701
20
0.3263956692913386
11
0.5480314960629921
21
0.3269685039370079
0
LINE
8
BLACK
6
CONTINUOUS
10
0.5480314960629921
20
0.3269685039370079
11
0.6031496062992125
21
0.3269685039370079
0
LINE
8
BLACK
6
CONTINUOUS
10
0.6031496062992125
20
0.3269685039370079
11
0.6070814173228346
21
0.3263956692913386
0
LINE
8
BLACK
6
CONTINUOUS
10
0.7481755905511811
20
0.4073683070866141
11
0.7531602755905512
21
0.405624094488189
0
LINE
8
BLACK
6
CONTINUOUS
10
0.7531602755905512
20
0.405624094488189
11
0.7574093700787401
21
0.4024881102362204
0
LINE
8
BLACK
6
CONTINUOUS
10
0.7574093700787401
20
0.4024881102362204
11
0.7605453543307087
21
0.3982390157480315
0
LINE
8
BLACK
6
CONTINUOUS
10
0.7605453543307087
20
0.3982390157480315
11
0.7622895669291339
21
0.3932543307086614
0
LINE
8
BLACK
6
CONTINUOUS
10
0.7622895669291339
20
0.3932543307086614
11
0.7625984251968504
21
0.3899606299212598
0
LINE
8
BLACK
6
CONTINUOUS
10
0.7625984251968504
20
0.3899606299212598
11
0.7625984251968504
21
0.3702755905511811
0
LINE
8
BLACK
6
CONTINUOUS
10
0.7625984251968504
20
0.3702755905511811
11
0.7622895669291339
21
0.3669818897637795
0
LINE
8
BLACK
6
CONTINUOUS
10
0.7622895669291339
20
0.3669818897637795
11
0.7605453543307087
21
0.3619972047244094
0
LINE
8
BLACK
6
CONTINUOUS
10
0.7605453543307087
20
0.3619972047244094
11
0.7574093700787401
21
0.3577481102362204
0
LINE
8
BLACK
6
CONTINUOUS
10
0.7574093700787401
20
0.3577481102362204
11
0.7531602755905512
21
0.354612125984252
0
LINE
8
BLACK
6
CONTINUOUS
10
0.7531602755905512
20
0.354612125984252
11
0.7481755905511811
21
0.3528679133858267
0
LINE
8
BLACK
6
CONTINUOUS
10
0.7481755905511811
20
0.3528679133858267
11
0.7448818897637796
21
0.3525590551181103
0
LINE
8
BLACK
6
CONTINUOUS
10
0.7448818897637796
20
0.3525590551181103
11
0.658267716535433
21
0.3525590551181103
0
LINE
8
BLACK
6
CONTINUOUS
10
0.658267716535433
20
0.3525590551181103
11
0.6549740157480315
21
0.3528679133858267
0
LINE
8
BLACK
6
CONTINUOUS
10
0.6549740157480315
20
0.3528679133858267
11
0.6499893307086614
21
0.354612125984252
0
LINE
8
BLACK
6
CONTINUOUS
10
0.6499893307086614
20
0.354612125984252
11
0.6457402362204724
21
0.3577481102362204
0
LINE
8
BLACK
6
CONTINUOUS
10
0.6457402362204724
20
0.3577481102362204
11
0.6426042519685039
21
0.3619972047244094
0
LINE
8
BLACK
6
CONTINUOUS
10
0.6426042519685039
20
0.3619972047244094
11
0.6408600393700787
21
0.3669818897637795
0
LINE
8
BLACK
6
CONTINUOUS
10
0.6408600393700787
20
0.3669818897637795
11
0.6405511811023622
21
0.3702755905511811
0
LINE
8
BLACK
6
CONTINUOUS
10
0.6405511811023622
20
0.3702755905511811
11
0.6405511811023622
21
0.3899606299212598
0
LINE
8
BLACK
6
CONTINUOUS
10
0.6405511811023622
20
0.3899606299212598
11
0.6408600393700787
21
0.3932543307086614
0
LINE
8
BLACK
6
CONTINUOUS
10
0.6408600393700787
20
0.3932543307086614
11
0.6426042519685039
21
0.3982390157480315
0
LINE
8
BLACK
6
CONTINUOUS
10
0.6426042519685039
20
0.3982390157480315
11
0.6457402362204724
21
0.4024881102362204
0
LINE
8
BLACK
6
CONTINUOUS
10
0.6457402362204724
20
0.4024881102362204
11
0.6499893307086614
21
0.405624094488189
0
LINE
8
BLACK
6
CONTINUOUS
10
0.6499893307086614
20
0.405624094488189
11
0.6549740157480315
21
0.4073683070866141
0
LINE
8
BLACK
6
CONTINUOUS
10
0.6549740157480315
20
0.4073683070866141
11
0.658267716535433
21
0.4076771653543307
0
LINE
8
BLACK
6
CONTINUOUS
10
0.658267716535433
20
0.4076771653543307
11
0.7448818897637796
21
0.4076771653543307
0
LINE
8
BLACK
6
CONTINUOUS
10
0.7448818897637796
20
0.4076771653543307
11
0.7481755905511811
21
0.4073683070866141
0
LINE
8
BLACK
6
CONTINUOUS
10
0.7481755905511811
20
0.5077620078740157
11
0.7531602755905512
21
0.5060177952755905
0
LINE
8
BLACK
6
CONTINUOUS
10
0.7531602755905512
20
0.5060177952755905
11
0.7574093700787401
21
0.5028818110236221
0
LINE
8
BLACK
6
CONTINUOUS
10
0.7574093700787401
20
0.5028818110236221
11
0.7605453543307087
21
0.4986327165354331
0
LINE
8
BLACK
6
CONTINUOUS
10
0.7605453543307087
20
0.4986327165354331
11
0.7622895669291339
21
0.493648031496063
0
LINE
8
BLACK
6
CONTINUOUS
10
0.7622895669291339
20
0.493648031496063
11
0.7625984251968504
21
0.4903543307086614
0
LINE
8
BLACK
6
CONTINUOUS
10
0.7625984251968504
20
0.4903543307086614
11
0.7625984251968504
21
0.4706692913385827
0
LINE
8
BLACK
6
CONTINUOUS
10
0.7625984251968504
20
0.4706692913385827
11
0.7622895669291339
21
0.4673755905511811
0
LINE
8
BLACK
6
CONTINUOUS
10
0.7622895669291339
20
0.4673755905511811
11
0.7605453543307087
21
0.462390905511811
0
LINE
8
BLACK
6
CONTINUOUS
10
0.7605453543307087
20
0.462390905511811
11
0.7574093700787401
21
0.4581418110236221
0
LINE
8
BLACK
6
CONTINUOUS
10
0.7574093700787401
20
0.4581418110236221
11
0.7531602755905512
21
0.4550058267716535
0
LINE
8
BLACK
6
CONTINUOUS
10
0.7531602755905512
20
0.4550058267716535
11
0.7481755905511811
21
0.4532616141732284
0
LINE
8
BLACK
6
CONTINUOUS
10
0.7481755905511811
20
0.4532616141732284
11
0.7448818897637796
21
0.4529527559055118
0
LINE
8
BLACK
6
CONTINUOUS
10
0.7448818897637796
20
0.4529527559055118
11
0.658267716535433
21
0.4529527559055118
0
LINE
8
BLACK
6
CONTINUOUS
10
0.658267716535433
20
0.4529527559055118
11
0.6549740157480315
21
0.4532616141732284
0
LINE
8
BLACK
6
CONTINUOUS
10
0.6549740157480315
20
0.4532616141732284
11
0.6499893307086614
21
0.4550058267716535
0
LINE
8
BLACK
6
CONTINUOUS
10
0.6499893307086614
20
0.4550058267716535
11
0.6457402362204724
21
0.4581418110236221
0
LINE
8
BLACK
6
CONTINUOUS
10
0.6457402362204724
20
0.4581418110236221
11
0.6426042519685039
21
0.462390905511811
0
LINE
8
BLACK
6
CONTINUOUS
10
0.6426042519685039
20
0.462390905511811
11
0.6408600393700787
21
0.4673755905511811
0
LINE
8
BLACK
6
CONTINUOUS
10
0.6408600393700787
20
0.4673755905511811
11
0.6405511811023622
21
0.4706692913385827
0
LINE
8
BLACK
6
CONTINUOUS
10
0.6405511811023622
20
0.4706692913385827
11
0.6405511811023622
21
0.4903543307086614
0
LINE
8
BLACK
6
CONTINUOUS
10
0.6405511811023622
20
0.4903543307086614
11
0.6408600393700787
21
0.493648031496063
0
LINE
8
BLACK
6
CONTINUOUS
10
0.6408600393700787
20
0.493648031496063
11
0.6426042519685039
21
0.4986327165354331
0
LINE
8
BLACK
6
CONTINUOUS
10
0.6426042519685039
20
0.4986327165354331
11
0.6457402362204724
21
0.5028818110236221
0
LINE
8
BLACK
6
CONTINUOUS
10
0.6457402362204724
20
0.5028818110236221
11
0.6499893307086614
21
0.5060177952755905
0
LINE
8
BLACK
6
CONTINUOUS
10
0.6499893307086614
20
0.5060177952755905
11
0.6549740157480315
21
0.5077620078740157
0
LINE
8
BLACK
6
CONTINUOUS
10
0.6549740157480315
20
0.5077620078740157
11
0.658267716535433
21
0.5080708661417322
0
LINE
8
BLACK
6
CONTINUOUS
10
0.658267716535433
20
0.5080708661417322
11
0.7448818897637796
21
0.5080708661417322
0
LINE
8
BLACK
6
CONTINUOUS
10
0.7448818897637796
20
0.5080708661417322
11
0.7481755905511811
21
0.5077620078740157
0
LINE
8
BLACK
6
CONTINUOUS
10
0.6070814173228346
20
0.5724586614173228
11
0.6111565748031496
21
0.5704664173228347
0
LINE
8
BLACK
6
CONTINUOUS
10
0.6111565748031496
20
0.5704664173228347
11
0.6143640551181102
21
0.567258937007874
0
LINE
8
BLACK
6
CONTINUOUS
10
0.6143640551181102
20
0.567258937007874
11
0.6163562992125984
21
0.563183779527559
0
LINE
8
BLACK
6
CONTINUOUS
10
0.6163562992125984
20
0.563183779527559
11
0.6169291338582678
21
0.559251968503937
0
LINE
8
BLACK
6
CONTINUOUS
10
0.6169291338582678
20
0.559251968503937
11
0.6169291338582678
21
0.5474409448818898
0
LINE
8
BLACK
6
CONTINUOUS
10
0.6169291338582678
20
0.5474409448818898
11
0.6163562992125984
21
0.5435091338582677
0
LINE
8
BLACK
6
CONTINUOUS
10
0.6163562992125984
20
0.5435091338582677
11
0.6143640551181102
21
0.5394339763779528
0
LINE
8
BLACK
6
CONTINUOUS
10
0.6143640551181102
20
0.5394339763779528
11
0.6111565748031496
21
0.5362264960629921
0
LINE
8
BLACK
6
CONTINUOUS
10
0.6111565748031496
20
0.5362264960629921
11
0.6070814173228346
21
0.5342342519685039
0
LINE
8
BLACK
6
CONTINUOUS
10
0.6070814173228346
20
0.5342342519685039
11
0.6031496062992125
21
0.5336614173228347
0
LINE
8
BLACK
6
CONTINUOUS
10
0.6031496062992125
20
0.5336614173228347
11
0.5480314960629921
21
0.5336614173228347
0
LINE
8
BLACK
6
CONTINUOUS
10
0.5480314960629921
20
0.5336614173228347
11
0.5440996850393701
21
0.5342342519685039
0
LINE
8
BLACK
6
CONTINUOUS
10
0.5440996850393701
20
0.5342342519685039
11
0.5400245275590551
21
0.5362264960629921
0
LINE
8
BLACK
6
CONTINUOUS
10
0.5400245275590551
20
0.5362264960629921
11
0.5368170472440945
21
0.5394339763779528
0
LINE
8
BLACK
6
CONTINUOUS
10
0.5368170472440945
20
0.5394339763779528
11
0.5348248031496062
21
0.5435091338582677
0
LINE
8
BLACK
6
CONTINUOUS
10
0.5348248031496062
20
0.5435091338582677
11
0.534251968503937
21
0.5474409448818898
0
LINE
8
BLACK
6
CONTINUOUS
10
0.534251968503937
20
0.5474409448818898
11
0.534251968503937
21
0.559251968503937
0
LINE
8
BLACK
6
CONTINUOUS
10
0.534251968503937
20
0.559251968503937
11
0.5348248031496062
21
0.563183779527559
0
LINE
8
BLACK
6
CONTINUOUS
10
0.5348248031496062
20
0.563183779527559
11
0.5368170472440945
21
0.567258937007874
0
LINE
8
BLACK
6
CONTINUOUS
10
0.5368170472440945
20
0.567258937007874
11
0.5400245275590551
21
0.5704664173228347
0
LINE
8
BLACK
6
CONTINUOUS
10
0.5400245275590551
20
0.5704664173228347
11
0.5440996850393701
21
0.5724586614173228
0
LINE
8
BLACK
6
CONTINUOUS
10
0.5440996850393701
20
0.5724586614173228
11
0.5480314960629921
21
0.5730314960629921
0
LINE
8
BLACK
6
CONTINUOUS
10
0.5480314960629921
20
0.5730314960629921
11
0.6031496062992125
21
0.5730314960629921
0
LINE
8
BLACK
6
CONTINUOUS
10
0.6031496062992125
20
0.5730314960629921
11
0.6070814173228346
21
0.5724586614173228
0
LINE
8
BLACK
6
CONTINUOUS
10
0.3694780708661417
20
0.6799103149606299
11
0.3713095669291339
21
0.6799103149606299
0
LINE
8
BLACK
6
CONTINUOUS
10
0.3713095669291339
20
0.6799103149606299
11
0.3733474803149606
21
0.6796420078740157
0
LINE
8
BLACK
6
CONTINUOUS
10
0.3733474803149606
20
0.6796420078740157
11
0.3783112204724409
21
0.6783120078740157
0
LINE
8
BLACK
6
CONTINUOUS
10
0.3783112204724409
20
0.6783120078740157
11
0.3802103149606299
21
0.6775253937007873
0
LINE
8
BLACK
6
CONTINUOUS
10
0.3802103149606299
20
0.6775253937007873
11
0.3846606692913386
21
0.6749559842519685
0
LINE
8
BLACK
6
CONTINUOUS
10
0.3846606692913386
20
0.6749559842519685
11
0.3862914173228346
21
0.6737046456692913
0
LINE
8
BLACK
6
CONTINUOUS
10
0.3862914173228346
20
0.6737046456692913
11
0.3899251181102362
21
0.6700709448818898
0
LINE
8
BLACK
6
CONTINUOUS
10
0.3899251181102362
20
0.6700709448818898
11
0.3911764566929134
21
0.6684401968503937
0
LINE
8
BLACK
6
CONTINUOUS
10
0.3911764566929134
20
0.6684401968503937
11
0.3937458661417323
21
0.6639898425196851
0
LINE
8
BLACK
6
CONTINUOUS
10
0.3937458661417323
20
0.6639898425196851
11
0.3945324803149606
21
0.662090748031496
0
LINE
8
BLACK
6
CONTINUOUS
10
0.3945324803149606
20
0.662090748031496
11
0.3958624803149606
21
0.6571270078740157
0
LINE
8
BLACK
6
CONTINUOUS
10
0.3958624803149606
20
0.6571270078740157
11
0.3961307874015748
21
0.655089094488189
0
LINE
8
BLACK
6
CONTINUOUS
10
0.3961307874015748
20
0.655089094488189
11
0.3961307874015748
21
0.6540146456692914
0
LINE
8
BLACK
6
CONTINUOUS
10
0.3961307874015748
20
0.6540146456692914
11
0.3962992125984252
21
0.6525196850393701
0
LINE
8
BLACK
6
CONTINUOUS
10
0.3962992125984252
20
0.6525196850393701
11
0.3962992125984252
21
0.6328346456692914
0
LINE
8
BLACK
6
CONTINUOUS
10
0.3962992125984252
20
0.6328346456692914
11
0.3955194488188976
21
0.6294182283464567
0
LINE
8
BLACK
6
CONTINUOUS
10
0.3955194488188976
20
0.6294182283464567
11
0.3934558267716535
21
0.6268305905511811
0
LINE
8
BLACK
6
CONTINUOUS
10
0.3934558267716535
20
0.6268305905511811
11
0.3945813385826771
21
0.6259329921259842
0
LINE
8
BLACK
6
CONTINUOUS
10
0.3945813385826771
20
0.6259329921259842
11
0.396101811023622
21
0.622775748031496
0
LINE
8
BLACK
6
CONTINUOUS
10
0.396101811023622
20
0.622775748031496
11
0.3962992125984252
21
0.621023622047244
0
LINE
8
BLACK
6
CONTINUOUS
10
0.3962992125984252
20
0.621023622047244
11
0.3962992125984252
21
0.6013385826771653
0
LINE
8
BLACK
6
CONTINUOUS
10
0.3962992125984252
20
0.6013385826771653
11
0.3961307874015748
21
0.6006006692913386
0
LINE
8
BLACK
6
CONTINUOUS
10
0.3961307874015748
20
0.6006006692913386
11
0.3961307874015748
21
0.5987691732283464
0
LINE
8
BLACK
6
CONTINUOUS
10
0.3961307874015748
20
0.5987691732283464
11
0.3958624803149606
21
0.5967312598425196
0
LINE
8
BLACK
6
CONTINUOUS
10
0.3958624803149606
20
0.5967312598425196
11
0.3945324803149606
21
0.5917675196850394
0
LINE
8
BLACK
6
CONTINUOUS
10
0.3945324803149606
20
0.5917675196850394
11
0.3937458661417323
21
0.5898684251968503
0
LINE
8
BLACK
6
CONTINUOUS
10
0.3937458661417323
20
0.5898684251968503
11
0.3911764566929134
21
0.5854180708661417
0
LINE
8
BLACK
6
CONTINUOUS
10
0.3911764566929134
20
0.5854180708661417
11
0.3899251181102362
21
0.5837873228346456
0
LINE
8
BLACK
6
CONTINUOUS
10
0.3899251181102362
20
0.5837873228346456
11
0.3862914173228346
21
0.5801536220472441
0
LINE
8
BLACK
6
CONTINUOUS
10
0.3862914173228346
20
0.5801536220472441
11
0.3846606692913386
21
0.578902283464567
0
LINE
8
BLACK
6
CONTINUOUS
10
0.3846606692913386
20
0.578902283464567
11
0.3802103149606299
21
0.5763328740157481
0
LINE
8
BLACK
6
CONTINUOUS
10
0.3802103149606299
20
0.5763328740157481
11
0.3783112204724409
21
0.5755462598425197
0
LINE
8
BLACK
6
CONTINUOUS
10
0.3783112204724409
20
0.5755462598425197
11
0.3733474803149606
21
0.5742162598425197
0
LINE
8
BLACK
6
CONTINUOUS
10
0.3733474803149606
20
0.5742162598425197
11
0.3713095669291339
21
0.5739479527559055
0
LINE
8
BLACK
6
CONTINUOUS
10
0.3713095669291339
20
0.5739479527559055
11
0.3702350787401575
21
0.5739479527559055
0
LINE
8
BLACK
6
CONTINUOUS
10
0.3702350787401575
20
0.5739479527559055
11
0.368740157480315
21
0.5737795275590551
0
LINE
8
BLACK
6
CONTINUOUS
10
0.368740157480315
20
0.5737795275590551
11
0.3490551181102362
21
0.5737795275590551
0
LINE
8
BLACK
6
CONTINUOUS
10
0.3490551181102362
20
0.5737795275590551
11
0.3483172047244095
21
0.5739479527559055
0
LINE
8
BLACK
6
CONTINUOUS
10
0.3483172047244095
20
0.5739479527559055
11
0.3464857086614173
21
0.5739479527559055
0
LINE
8
BLACK
6
CONTINUOUS
10
0.3464857086614173
20
0.5739479527559055
11
0.3444477952755906
21
0.5742162598425197
0
LINE
8
BLACK
6
CONTINUOUS
10
0.3444477952755906
20
0.5742162598425197
11
0.3394840551181103
21
0.5755462598425197
0
LINE
8
BLACK
6
CONTINUOUS
10
0.3394840551181103
20
0.5755462598425197
11
0.3375849606299213
21
0.5763328740157481
0
LINE
8
BLACK
6
CONTINUOUS
10
0.3375849606299213
20
0.5763328740157481
11
0.3331346062992126
21
0.578902283464567
0
LINE
8
BLACK
6
CONTINUOUS
10
0.3331346062992126
20
0.578902283464567
11
0.3315038582677165
21
0.5801536220472441
0
LINE
8
BLACK
6
CONTINUOUS
10
0.3315038582677165
20
0.5801536220472441
11
0.3278701574803149
21
0.5837873228346456
0
LINE
8
BLACK
6
CONTINUOUS
10
0.3278701574803149
20
0.5837873228346456
11
0.3266188188976378
21
0.5854180708661417
0
LINE
8
BLACK
6
CONTINUOUS
10
0.3266188188976378
20
0.5854180708661417
11
0.3240494094488189
21
0.5898684251968503
0
LINE
8
BLACK
6
CONTINUOUS
10
0.3240494094488189
20
0.5898684251968503
11
0.3232627952755905
21
0.5917675196850394
0
LINE
8
BLACK
6
CONTINUOUS
10
0.3232627952755905
20
0.5917675196850394
11
0.3219327952755905
21
0.5967312598425196
0
LINE
8
BLACK
6
CONTINUOUS
10
0.3219327952755905
20
0.5967312598425196
11
0.3216644881889764
21
0.5987691732283464
0
LINE
8
BLACK
6
CONTINUOUS
10
0.3216644881889764
20
0.5987691732283464
11
0.3216644881889764
21
0.5998436614173228
0
LINE
8
BLACK
6
CONTINUOUS
10
0.3216644881889764
20
0.5998436614173228
11
0.321496062992126
21
0.6013385826771653
0
LINE
8
BLACK
6
CONTINUOUS
10
0.321496062992126
20
0.6013385826771653
11
0.321496062992126
21
0.621023622047244
0
LINE
8
BLACK
6
CONTINUOUS
10
0.321496062992126
20
0.621023622047244
11
0.3222758267716536
21
0.6244400393700787
0
LINE
8
BLACK
6
CONTINUOUS
10
0.3222758267716536
20
0.6244400393700787
11
0.3243394094488189
21
0.6270277165354331
0
LINE
8
BLACK
6
CONTINUOUS
10
0.3243394094488189
20
0.6270277165354331
11
0.323213937007874
21
0.6279252755905511
0
LINE
8
BLACK
6
CONTINUOUS
10
0.323213937007874
20
0.6279252755905511
11
0.3216934645669291
21
0.6310825196850394
0
LINE
8
BLACK
6
CONTINUOUS
10
0.3216934645669291
20
0.6310825196850394
11
0.321496062992126
21
0.6328346456692914
0
LINE
8
BLACK
6
CONTINUOUS
10
0.321496062992126
20
0.6328346456692914
11
0.321496062992126
21
0.6525196850393701
0
LINE
8
BLACK
6
CONTINUOUS
10
0.321496062992126
20
0.6525196850393701
11
0.3216644881889764
21
0.6532576377952756
0
LINE
8
BLACK
6
CONTINUOUS
10
0.3216644881889764
20
0.6532576377952756
11
0.3216644881889764
21
0.655089094488189
0
LINE
8
BLACK
6
CONTINUOUS
10
0.3216644881889764
20
0.655089094488189
11
0.3219327952755905
21
0.6571270078740157
0
LINE
8
BLACK
6
CONTINUOUS
10
0.3219327952755905
20
0.6571270078740157
11
0.3232627952755905
21
0.662090748031496
0
LINE
8
BLACK
6
CONTINUOUS
10
0.3232627952755905
20
0.662090748031496
11
0.3240494094488189
21
0.6639898425196851
0
LINE
8
BLACK
6
CONTINUOUS
10
0.3240494094488189
20
0.6639898425196851
11
0.3266188188976378
21
0.6684401968503937
0
LINE
8
BLACK
6
CONTINUOUS
10
0.3266188188976378
20
0.6684401968503937
11
0.3278701574803149
21
0.6700709448818898
0
LINE
8
BLACK
6
CONTINUOUS
10
0.3278701574803149
20
0.6700709448818898
11
0.3315038582677165
21
0.6737046456692913
0
LINE
8
BLACK
6
CONTINUOUS
10
0.3315038582677165
20
0.6737046456692913
11
0.3331346062992126
21
0.6749559842519685
0
LINE
8
BLACK
6
CONTINUOUS
10
0.3331346062992126
20
0.6749559842519685
11
0.3375849606299213
21
0.6775253937007873
0
LINE
8
BLACK
6
CONTINUOUS
10
0.3375849606299213
20
0.6775253937007873
11
0.3394840551181103
21
0.6783120078740157
0
LINE
8
BLACK
6
CONTINUOUS
10
0.3394840551181103
20
0.6783120078740157
11
0.3444477952755906
21
0.6796420078740157
0
LINE
8
BLACK
6
CONTINUOUS
10
0.3444477952755906
20
0.6796420078740157
11
0.3464857086614173
21
0.6799103149606299
0
LINE
8
BLACK
6
CONTINUOUS
10
0.3464857086614173
20
0.6799103149606299
11
0.3475601968503937
21
0.6799103149606299
0
LINE
8
BLACK
6
CONTINUOUS
10
0.3475601968503937
20
0.6799103149606299
11
0.3490551181102362
21
0.6800787401574803
0
LINE
8
BLACK
6
CONTINUOUS
10
0.3490551181102362
20
0.6800787401574803
11
0.368740157480315
21
0.6800787401574803
0
LINE
8
BLACK
6
CONTINUOUS
10
0.368740157480315
20
0.6800787401574803
11
0.3694780708661417
21
0.6799103149606299
0
LINE
8
BLACK
6
CONTINUOUS
10
0.6070814173228346
20
0.6216712598425197
11
0.6111565748031496
21
0.6196790157480315
0
LINE
8
BLACK
6
CONTINUOUS
10
0.6111565748031496
20
0.6196790157480315
11
0.6143640551181102
21
0.6164715354330709
0
LINE
8
BLACK
6
CONTINUOUS
10
0.6143640551181102
20
0.6164715354330709
11
0.6163562992125984
21
0.6123963779527559
0
LINE
8
BLACK
6
CONTINUOUS
10
0.6163562992125984
20
0.6123963779527559
11
0.6169291338582678
21
0.6084645669291339
0
LINE
8
BLACK
6
CONTINUOUS
10
0.6169291338582678
20
0.6084645669291339
11
0.6169291338582678
21
0.5966535433070866
0
LINE
8
BLACK
6
CONTINUOUS
10
0.6169291338582678
20
0.5966535433070866
11
0.6163562992125984
21
0.5927217322834646
0
LINE
8
BLACK
6
CONTINUOUS
10
0.6163562992125984
20
0.5927217322834646
11
0.6143640551181102
21
0.5886465748031496
0
LINE
8
BLACK
6
CONTINUOUS
10
0.6143640551181102
20
0.5886465748031496
11
0.6111565748031496
21
0.585439094488189
0
LINE
8
BLACK
6
CONTINUOUS
10
0.6111565748031496
20
0.585439094488189
11
0.6070814173228346
21
0.5834468503937008
0
LINE
8
BLACK
6
CONTINUOUS
10
0.6070814173228346
20
0.5834468503937008
11
0.6031496062992125
21
0.5828740157480314
0
LINE
8
BLACK
6
CONTINUOUS
10
0.6031496062992125
20
0.5828740157480314
11
0.5480314960629921
21
0.5828740157480314
0
LINE
8
BLACK
6
CONTINUOUS
10
0.5480314960629921
20
0.5828740157480314
11
0.5440996850393701
21
0.5834468503937008
0
LINE
8
BLACK
6
CONTINUOUS
10
0.5440996850393701
20
0.5834468503937008
11
0.5400245275590551
21
0.585439094488189
0
LINE
8
BLACK
6
CONTINUOUS
10
0.5400245275590551
20
0.585439094488189
11
0.5368170472440945
21
0.5886465748031496
0
LINE
8
BLACK
6
CONTINUOUS
10
0.5368170472440945
20
0.5886465748031496
11
0.5348248031496062
21
0.5927217322834646
0
LINE
8
BLACK
6
CONTINUOUS
10
0.5348248031496062
20
0.5927217322834646
11
0.534251968503937
21
0.5966535433070866
0
LINE
8
BLACK
6
CONTINUOUS
10
0.534251968503937
20
0.5966535433070866
11
0.534251968503937
21
0.6084645669291339
0
LINE
8
BLACK
6
CONTINUOUS
10
0.534251968503937
20
0.6084645669291339
11
0.5348248031496062
21
0.6123963779527559
0
LINE
8
BLACK
6
CONTINUOUS
10
0.5348248031496062
20
0.6123963779527559
11
0.5368170472440945
21
0.6164715354330709
0
LINE
8
BLACK
6
CONTINUOUS
10
0.5368170472440945
20
0.6164715354330709
11
0.5400245275590551
21
0.6196790157480315
0
LINE
8
BLACK
6
CONTINUOUS
10
0.5400245275590551
20
0.6196790157480315
11
0.5440996850393701
21
0.6216712598425197
0
LINE
8
BLACK
6
CONTINUOUS
10
0.5440996850393701
20
0.6216712598425197
11
0.5480314960629921
21
0.622244094488189
0
LINE
8
BLACK
6
CONTINUOUS
10
0.5480314960629921
20
0.622244094488189
11
0.6031496062992125
21
0.622244094488189
0
LINE
8
BLACK
6
CONTINUOUS
10
0.6031496062992125
20
0.622244094488189
11
0.6070814173228346
21
0.6216712598425197
0
LINE
8
BLACK
6
CONTINUOUS
10
0.6070814173228346
20
0.6708838582677166
11
0.6111565748031496
21
0.6688916141732283
0
LINE
8
BLACK
6
CONTINUOUS
10
0.6111565748031496
20
0.6688916141732283
11
0.6143640551181102
21
0.6656841338582677
0
LINE
8
BLACK
6
CONTINUOUS
10
0.6143640551181102
20
0.6656841338582677
11
0.6163562992125984
21
0.6616089763779528
0
LINE
8
BLACK
6
CONTINUOUS
10
0.6163562992125984
20
0.6616089763779528
11
0.6169291338582678
21
0.6576771653543307
0
LINE
8
BLACK
6
CONTINUOUS
10
0.6169291338582678
20
0.6576771653543307
11
0.6169291338582678
21
0.6458661417322834
0
LINE
8
BLACK
6
CONTINUOUS
10
0.6169291338582678
20
0.6458661417322834
11
0.6163562992125984
21
0.6419343307086613
0
LINE
8
BLACK
6
CONTINUOUS
10
0.6163562992125984
20
0.6419343307086613
11
0.6143640551181102
21
0.6378591732283464
0
LINE
8
BLACK
6
CONTINUOUS
10
0.6143640551181102
20
0.6378591732283464
11
0.6111565748031496
21
0.6346516929133859
0
LINE
8
BLACK
6
CONTINUOUS
10
0.6111565748031496
20
0.6346516929133859
11
0.6070814173228346
21
0.6326594488188976
0
LINE
8
BLACK
6
CONTINUOUS
10
0.6070814173228346
20
0.6326594488188976
11
0.6031496062992125
21
0.6320866141732283
0
LINE
8
BLACK
6
CONTINUOUS
10
0.6031496062992125
20
0.6320866141732283
11
0.5480314960629921
21
0.6320866141732283
0
LINE
8
BLACK
6
CONTINUOUS
10
0.5480314960629921
20
0.6320866141732283
11
0.5440996850393701
21
0.6326594488188976
0
LINE
8
BLACK
6
CONTINUOUS
10
0.5440996850393701
20
0.6326594488188976
11
0.5400245275590551
21
0.6346516929133859
0
LINE
8
BLACK
6
CONTINUOUS
10
0.5400245275590551
20
0.6346516929133859
11
0.5368170472440945
21
0.6378591732283464
0
LINE
8
BLACK
6
CONTINUOUS
10
0.5368170472440945
20
0.6378591732283464
11
0.5348248031496062
21
0.6419343307086613
0
LINE
8
BLACK
6
CONTINUOUS
10
0.5348248031496062
20
0.6419343307086613
11
0.534251968503937
21
0.6458661417322834
0
LINE
8
BLACK
6
CONTINUOUS
10
0.534251968503937
20
0.6458661417322834
11
0.534251968503937
21
0.6576771653543307
0
LINE
8
BLACK
6
CONTINUOUS
10
0.534251968503937
20
0.6576771653543307
11
0.5348248031496062
21
0.6616089763779528
0
LINE
8
BLACK
6
CONTINUOUS
10
0.5348248031496062
20
0.6616089763779528
11
0.5368170472440945
21
0.6656841338582677
0
LINE
8
BLACK
6
CONTINUOUS
10
0.5368170472440945
20
0.6656841338582677
11
0.5400245275590551
21
0.6688916141732283
0
LINE
8
BLACK
6
CONTINUOUS
10
0.5400245275590551
20
0.6688916141732283
11
0.5440996850393701
21
0.6708838582677166
0
LINE
8
BLACK
6
CONTINUOUS
10
0.5440996850393701
20
0.6708838582677166
11
0.5480314960629921
21
0.6714566929133858
0
LINE
8
BLACK
6
CONTINUOUS
10
0.5480314960629921
20
0.6714566929133858
11
0.6031496062992125
21
0.6714566929133858
0
LINE
8
BLACK
6
CONTINUOUS
10
0.6031496062992125
20
0.6714566929133858
11
0.6070814173228346
21
0.6708838582677166
0
LINE
8
BLACK
6
CONTINUOUS
10
0.6070814173228346
20
0.7200964566929133
11
0.6111565748031496
21
0.7181042125984252
0
LINE
8
BLACK
6
CONTINUOUS
10
0.6111565748031496
20
0.7181042125984252
11
0.6143640551181102
21
0.7148967322834645
0
LINE
8
BLACK
6
CONTINUOUS
10
0.6143640551181102
20
0.7148967322834645
11
0.6163562992125984
21
0.7108215748031496
0
LINE
8
BLACK
6
CONTINUOUS
10
0.6163562992125984
20
0.7108215748031496
11
0.6169291338582678
21
0.7068897637795275
0
LINE
8
BLACK
6
CONTINUOUS
10
0.6169291338582678
20
0.7068897637795275
11
0.6169291338582678
21
0.6950787401574803
0
LINE
8
BLACK
6
CONTINUOUS
10
0.6169291338582678
20
0.6950787401574803
11
0.6163562992125984
21
0.6911469291338582
0
LINE
8
BLACK
6
CONTINUOUS
10
0.6163562992125984
20
0.6911469291338582
11
0.6143640551181102
21
0.6870717716535433
0
LINE
8
BLACK
6
CONTINUOUS
10
0.6143640551181102
20
0.6870717716535433
11
0.6111565748031496
21
0.6838642913385826
0
LINE
8
BLACK
6
CONTINUOUS
10
0.6111565748031496
20
0.6838642913385826
11
0.6070814173228346
21
0.6818720472440944
0
LINE
8
BLACK
6
CONTINUOUS
10
0.6070814173228346
20
0.6818720472440944
11
0.6031496062992125
21
0.6812992125984252
0
LINE
8
BLACK
6
CONTINUOUS
10
0.6031496062992125
20
0.6812992125984252
11
0.5480314960629921
21
0.6812992125984252
0
LINE
8
BLACK
6
CONTINUOUS
10
0.5480314960629921
20
0.6812992125984252
11
0.5440996850393701
21
0.6818720472440944
0
LINE
8
BLACK
6
CONTINUOUS
10
0.5440996850393701
20
0.6818720472440944
11
0.5400245275590551
21
0.6838642913385826
0
LINE
8
BLACK
6
CONTINUOUS
10
0.5400245275590551
20
0.6838642913385826
11
0.5368170472440945
21
0.6870717716535433
0
LINE
8
BLACK
6
CONTINUOUS
10
0.5368170472440945
20
0.6870717716535433
11
0.5348248031496062
21
0.6911469291338582
0
LINE
8
BLACK
6
CONTINUOUS
10
0.5348248031496062
20
0.6911469291338582
11
0.534251968503937
21
0.6950787401574803
0
LINE
8
BLACK
6
CONTINUOUS
10
0.534251968503937
20
0.6950787401574803
11
0.534251968503937
21
0.7068897637795275
0
LINE
8
BLACK
6
CONTINUOUS
10
0.534251968503937
20
0.7068897637795275
11
0.5348248031496062
21
0.7108215748031496
0
LINE
8
BLACK
6
CONTINUOUS
10
0.5348248031496062
20
0.7108215748031496
11
0.5368170472440945
21
0.7148967322834645
0
LINE
8
BLACK
6
CONTINUOUS
10
0.5368170472440945
20
0.7148967322834645
11
0.5400245275590551
21
0.7181042125984252
0
LINE
8
BLACK
6
CONTINUOUS
10
0.5400245275590551
20
0.7181042125984252
11
0.5440996850393701
21
0.7200964566929133
0
LINE
8
BLACK
6
CONTINUOUS
10
0.5440996850393701
20
0.7200964566929133
11
0.5480314960629921
21
0.7206692913385827
0
LINE
8
BLACK
6
CONTINUOUS
10
0.5480314960629921
20
0.7206692913385827
11
0.6031496062992125
21
0.7206692913385827
0
LINE
8
BLACK
6
CONTINUOUS
10
0.6031496062992125
20
0.7206692913385827
11
0.6070814173228346
21
0.7200964566929133
0
LINE
8
BLACK
6
CONTINUOUS
10
0.7481755905511811
20
0.801069094488189
11
0.7531602755905512
21
0.7993248818897638
0
LINE
8
BLACK
6
CONTINUOUS
10
0.7531602755905512
20
0.7993248818897638
11
0.7574093700787401
21
0.7961888976377952
0
LINE
8
BLACK
6
CONTINUOUS
10
0.7574093700787401
20
0.7961888976377952
11
0.7605453543307087
21
0.7919398031496063
0
LINE
8
BLACK
6
CONTINUOUS
10
0.7605453543307087
20
0.7919398031496063
11
0.7622895669291339
21
0.7869551181102362
0
LINE
8
BLACK
6
CONTINUOUS
10
0.7622895669291339
20
0.7869551181102362
11
0.7625984251968504
21
0.7836614173228347
0
LINE
8
BLACK
6
CONTINUOUS
10
0.7625984251968504
20
0.7836614173228347
11
0.7625984251968504
21
0.7639763779527559
0
LINE
8
BLACK
6
CONTINUOUS
10
0.7625984251968504
20
0.7639763779527559
11
0.7622895669291339
21
0.7606826771653543
0
LINE
8
BLACK
6
CONTINUOUS
10
0.7622895669291339
20
0.7606826771653543
11
0.7605453543307087
21
0.7556979921259842
0
LINE
8
BLACK
6
CONTINUOUS
10
0.7605453543307087
20
0.7556979921259842
11
0.7574093700787401
21
0.7514488976377952
0
LINE
8
BLACK
6
CONTINUOUS
10
0.7574093700787401
20
0.7514488976377952
11
0.7531602755905512
21
0.7483129133858267
0
LINE
8
BLACK
6
CONTINUOUS
10
0.7531602755905512
20
0.7483129133858267
11
0.7481755905511811
21
0.7465687007874016
0
LINE
8
BLACK
6
CONTINUOUS
10
0.7481755905511811
20
0.7465687007874016
11
0.7448818897637796
21
0.746259842519685
0
LINE
8
BLACK
6
CONTINUOUS
10
0.7448818897637796
20
0.746259842519685
11
0.658267716535433
21
0.746259842519685
0
LINE
8
BLACK
6
CONTINUOUS
10
0.658267716535433
20
0.746259842519685
11
0.6549740157480315
21
0.7465687007874016
0
LINE
8
BLACK
6
CONTINUOUS
10
0.6549740157480315
20
0.7465687007874016
11
0.6499893307086614
21
0.7483129133858267
0
LINE
8
BLACK
6
CONTINUOUS
10
0.6499893307086614
20
0.7483129133858267
11
0.6457402362204724
21
0.7514488976377952
0
LINE
8
BLACK
6
CONTINUOUS
10
0.6457402362204724
20
0.7514488976377952
11
0.6426042519685039
21
0.7556979921259842
0
LINE
8
BLACK
6
CONTINUOUS
10
0.6426042519685039
20
0.7556979921259842
11
0.6408600393700787
21
0.7606826771653543
0
LINE
8
BLACK
6
CONTINUOUS
10
0.6408600393700787
20
0.7606826771653543
11
0.6405511811023622
21
0.7639763779527559
0
LINE
8
BLACK
6
CONTINUOUS
10
0.6405511811023622
20
0.7639763779527559
11
0.6405511811023622
21
0.7836614173228347
0
LINE
8
BLACK
6
CONTINUOUS
10
0.6405511811023622
20
0.7836614173228347
11
0.6408600393700787
21
0.7869551181102362
0
LINE
8
BLACK
6
CONTINUOUS
10
0.6408600393700787
20
0.7869551181102362
11
0.6426042519685039
21
0.7919398031496063
0
LINE
8
BLACK
6
CONTINUOUS
10
0.6426042519685039
20
0.7919398031496063
11
0.6457402362204724
21
0.7961888976377952
0
LINE
8
BLACK
6
CONTINUOUS
10
0.6457402362204724
20
0.7961888976377952
11
0.6499893307086614
21
0.7993248818897638
0
LINE
8
BLACK
6
CONTINUOUS
10
0.6499893307086614
20
0.7993248818897638
11
0.6549740157480315
21
0.801069094488189
0
LINE
8
BLACK
6
CONTINUOUS
10
0.6549740157480315
20
0.801069094488189
11
0.658267716535433
21
0.8013779527559055
0
LINE
8
BLACK
6
CONTINUOUS
10
0.658267716535433
20
0.8013779527559055
11
0.7448818897637796
21
0.8013779527559055
0
LINE
8
BLACK
6
CONTINUOUS
10
0.7448818897637796
20
0.8013779527559055
11
0.7481755905511811
21
0.801069094488189
  0
ENDSEC
  0
EOF
