  0
SECTION
  2
HEADER
  9
$ANGBASE
  50
0.0
  9
$ANGDIR
  70
1
  9
$MEASUREMENT
  70
0
  0
ENDSEC
  0
SECTION
  2
TABLES
  0
TABLE
  2
LTYPE
  70
4
  0
LTYPE
  5
40F
  2
CONTINUOUS
  70
0
  3
Solid line
  72
65
  73
0
  40
0.0
  0
LTYPE
  5
410
  2
DASHDOT
 70
0
  3
Dash Dot ____ _ ____ _
 72
65
 73
4
 40
2.0
 49
1.25
 49
-0.25
 49
0.25
 49
-0.25
  0
LTYPE
  5
411
  2
DASHED
 70
0
  3
Dashed __ __ __ __ __
 72
65
 73
2
 40
0.75
 49
0.5
 49
-0.25
  0
LTYPE
  5
43B
  2
DOTTED
 70
0
  3
Dotted .  .  .  .
 72
65
 73
2
 40
0.2
 49
0.0
 49
-0.2
  0
ENDTAB
  0
TABLE
  2
STYLE
  70
4
  0
STYLE
  2
KICAD
  70
0
  40
0
  41
1
  42
1
  50
0
  71
0
  3
isocp.shx
  0
STYLE
  2
KICADB
  70
0
  40
0
  41
1
  42
1
  50
0
  71
0
  3
isocp.shx
  0
STYLE
  2
KICADI
  70
0
  40
0
  41
1
  42
1
  50
15
  71
0
  3
isocp.shx
  0
STYLE
  2
KICADBI
  70
0
  40
0
  41
1
  42
1
  50
15
  71
0
  3
isocp.shx
  0
ENDTAB
  0
TABLE
  2
LAYER
  70
1
  0
LAYER
  2
BLACK
  70
0
  62
7
  6
CONTINUOUS
  0
ENDTAB
  0
ENDSEC
  0
SECTION
  2
ENTITIES
0
LINE
8
BLACK
6
CONTINUOUS
10
0.1361182283464567
20
-1.2858825984251969
11
0.138034094488189
21
-1.2871627559055119
0
LINE
8
BLACK
6
CONTINUOUS
10
0.138034094488189
20
-1.2871627559055119
11
0.1393142519685039
21
-1.2890786220472441
0
LINE
8
BLACK
6
CONTINUOUS
10
0.1393142519685039
20
-1.2890786220472441
11
0.1397637795275591
21
-1.2913385826771653
0
LINE
8
BLACK
6
CONTINUOUS
10
0.1397637795275591
20
-1.2913385826771653
11
0.1397637795275591
21
-1.3031496062992125
0
LINE
8
BLACK
6
CONTINUOUS
10
0.1397637795275591
20
-1.3031496062992125
11
0.1393142519685039
21
-1.3054095669291339
0
LINE
8
BLACK
6
CONTINUOUS
10
0.1393142519685039
20
-1.3054095669291339
11
0.138034094488189
21
-1.3073254330708661
0
LINE
8
BLACK
6
CONTINUOUS
10
0.138034094488189
20
-1.3073254330708661
11
0.1361182283464567
21
-1.3086055905511811
0
LINE
8
BLACK
6
CONTINUOUS
10
0.1361182283464567
20
-1.3086055905511811
11
0.1338582677165354
21
-1.3090551181102361
0
LINE
8
BLACK
6
CONTINUOUS
10
0.1338582677165354
20
-1.3090551181102361
11
0.0875984251968504
21
-1.3090551181102361
0
LINE
8
BLACK
6
CONTINUOUS
10
0.0875984251968504
20
-1.3090551181102361
11
0.0853384645669291
21
-1.3086055905511811
0
LINE
8
BLACK
6
CONTINUOUS
10
0.0853384645669291
20
-1.3086055905511811
11
0.0834225984251969
21
-1.3073254330708661
0
LINE
8
BLACK
6
CONTINUOUS
10
0.0834225984251969
20
-1.3073254330708661
11
0.0821424409448819
21
-1.3054095669291339
0
LINE
8
BLACK
6
CONTINUOUS
10
0.0821424409448819
20
-1.3054095669291339
11
0.0816929133858268
21
-1.3031496062992125
0
LINE
8
BLACK
6
CONTINUOUS
10
0.0816929133858268
20
-1.3031496062992125
11
0.0816929133858268
21
-1.2913385826771653
0
LINE
8
BLACK
6
CONTINUOUS
10
0.0816929133858268
20
-1.2913385826771653
11
0.0821424409448819
21
-1.2890786220472441
0
LINE
8
BLACK
6
CONTINUOUS
10
0.0821424409448819
20
-1.2890786220472441
11
0.0834225984251969
21
-1.2871627559055119
0
LINE
8
BLACK
6
CONTINUOUS
10
0.0834225984251969
20
-1.2871627559055119
11
0.0853384645669291
21
-1.2858825984251969
0
LINE
8
BLACK
6
CONTINUOUS
10
0.0853384645669291
20
-1.2858825984251969
11
0.0875984251968504
21
-1.2854330708661417
0
LINE
8
BLACK
6
CONTINUOUS
10
0.0875984251968504
20
-1.2854330708661417
11
0.1338582677165354
21
-1.2854330708661417
0
LINE
8
BLACK
6
CONTINUOUS
10
0.1338582677165354
20
-1.2854330708661417
11
0.1361182283464567
21
-1.2858825984251969
0
LINE
8
BLACK
6
CONTINUOUS
10
0.3532328346456693
20
-1.2504994881889764
11
0.3553615748031496
21
-1.2519218897637796
0
LINE
8
BLACK
6
CONTINUOUS
10
0.3553615748031496
20
-1.2519218897637796
11
0.3567839763779527
21
-1.2540506299212597
0
LINE
8
BLACK
6
CONTINUOUS
10
0.3567839763779527
20
-1.2540506299212597
11
0.3572834251968504
21
-1.2565617322834646
0
LINE
8
BLACK
6
CONTINUOUS
10
0.3572834251968504
20
-1.2565617322834646
11
0.3572834645669291
21
-1.3024934251968503
0
LINE
8
BLACK
6
CONTINUOUS
10
0.3572834645669291
20
-1.3024934251968503
11
0.3567839763779527
21
-1.3050044881889764
0
LINE
8
BLACK
6
CONTINUOUS
10
0.3567839763779527
20
-1.3050044881889764
11
0.3553615748031496
21
-1.3071332283464567
0
LINE
8
BLACK
6
CONTINUOUS
10
0.3553615748031496
20
-1.3071332283464567
11
0.3532328346456693
21
-1.3085556299212597
0
LINE
8
BLACK
6
CONTINUOUS
10
0.3532328346456693
20
-1.3085556299212597
11
0.3507217322834645
21
-1.3090550787401574
0
LINE
8
BLACK
6
CONTINUOUS
10
0.3507217322834645
20
-1.3090550787401574
11
0.3146325590551181
21
-1.3090551181102361
0
LINE
8
BLACK
6
CONTINUOUS
10
0.3146325590551181
20
-1.3090551181102361
11
0.3121214960629921
21
-1.3085556299212597
0
LINE
8
BLACK
6
CONTINUOUS
10
0.3121214960629921
20
-1.3085556299212597
11
0.3099927559055118
21
-1.3071332283464567
0
LINE
8
BLACK
6
CONTINUOUS
10
0.3099927559055118
20
-1.3071332283464567
11
0.3085703543307087
21
-1.3050044881889764
0
LINE
8
BLACK
6
CONTINUOUS
10
0.3085703543307087
20
-1.3050044881889764
11
0.308070905511811
21
-1.3024933858267715
0
LINE
8
BLACK
6
CONTINUOUS
10
0.308070905511811
20
-1.3024933858267715
11
0.3080708661417323
21
-1.2565616929133858
0
LINE
8
BLACK
6
CONTINUOUS
10
0.3080708661417323
20
-1.2565616929133858
11
0.3085703543307087
21
-1.2540506299212597
0
LINE
8
BLACK
6
CONTINUOUS
10
0.3085703543307087
20
-1.2540506299212597
11
0.3099927559055118
21
-1.2519218897637796
0
LINE
8
BLACK
6
CONTINUOUS
10
0.3099927559055118
20
-1.2519218897637796
11
0.3121214960629921
21
-1.2504994881889764
0
LINE
8
BLACK
6
CONTINUOUS
10
0.3121214960629921
20
-1.2504994881889764
11
0.3146325984251969
21
-1.2500000393700788
0
LINE
8
BLACK
6
CONTINUOUS
10
0.3146325984251969
20
-1.2500000393700788
11
0.3507217716535433
21
-1.25
0
LINE
8
BLACK
6
CONTINUOUS
10
0.3507217716535433
20
-1.25
11
0.3532328346456693
21
-1.2504994881889764
0
LINE
8
BLACK
6
CONTINUOUS
10
0.4949651181102362
20
-1.2504994881889764
11
0.4970938582677165
21
-1.2519218897637796
0
LINE
8
BLACK
6
CONTINUOUS
10
0.4970938582677165
20
-1.2519218897637796
11
0.4985162598425197
21
-1.2540506299212597
0
LINE
8
BLACK
6
CONTINUOUS
10
0.4985162598425197
20
-1.2540506299212597
11
0.4990157086614173
21
-1.2565617322834646
0
LINE
8
BLACK
6
CONTINUOUS
10
0.4990157086614173
20
-1.2565617322834646
11
0.4990157480314961
21
-1.3024934251968503
0
LINE
8
BLACK
6
CONTINUOUS
10
0.4990157480314961
20
-1.3024934251968503
11
0.4985162598425197
21
-1.3050044881889764
0
LINE
8
BLACK
6
CONTINUOUS
10
0.4985162598425197
20
-1.3050044881889764
11
0.4970938582677165
21
-1.3071332283464567
0
LINE
8
BLACK
6
CONTINUOUS
10
0.4970938582677165
20
-1.3071332283464567
11
0.4949651181102362
21
-1.3085556299212597
0
LINE
8
BLACK
6
CONTINUOUS
10
0.4949651181102362
20
-1.3085556299212597
11
0.4924540157480315
21
-1.3090550787401574
0
LINE
8
BLACK
6
CONTINUOUS
10
0.4924540157480315
20
-1.3090550787401574
11
0.456364842519685
21
-1.3090551181102361
0
LINE
8
BLACK
6
CONTINUOUS
10
0.456364842519685
20
-1.3090551181102361
11
0.4538537795275591
21
-1.3085556299212597
0
LINE
8
BLACK
6
CONTINUOUS
10
0.4538537795275591
20
-1.3085556299212597
11
0.4517250393700787
21
-1.3071332283464567
0
LINE
8
BLACK
6
CONTINUOUS
10
0.4517250393700787
20
-1.3071332283464567
11
0.4503026377952756
21
-1.3050044881889764
0
LINE
8
BLACK
6
CONTINUOUS
10
0.4503026377952756
20
-1.3050044881889764
11
0.4498031889763779
21
-1.3024933858267715
0
LINE
8
BLACK
6
CONTINUOUS
10
0.4498031889763779
20
-1.3024933858267715
11
0.4498031496062992
21
-1.2565616929133858
0
LINE
8
BLACK
6
CONTINUOUS
10
0.4498031496062992
20
-1.2565616929133858
11
0.4503026377952756
21
-1.2540506299212597
0
LINE
8
BLACK
6
CONTINUOUS
10
0.4503026377952756
20
-1.2540506299212597
11
0.4517250393700787
21
-1.2519218897637796
0
LINE
8
BLACK
6
CONTINUOUS
10
0.4517250393700787
20
-1.2519218897637796
11
0.4538537795275591
21
-1.2504994881889764
0
LINE
8
BLACK
6
CONTINUOUS
10
0.4538537795275591
20
-1.2504994881889764
11
0.4563648818897638
21
-1.2500000393700788
0
LINE
8
BLACK
6
CONTINUOUS
10
0.4563648818897638
20
-1.2500000393700788
11
0.4924540551181102
21
-1.25
0
LINE
8
BLACK
6
CONTINUOUS
10
0.4924540551181102
20
-1.25
11
0.4949651181102362
21
-1.2504994881889764
0
LINE
8
BLACK
6
CONTINUOUS
10
0.209937125984252
20
-1.2484810236220472
11
0.2118529921259842
21
-1.2497611811023621
0
LINE
8
BLACK
6
CONTINUOUS
10
0.2118529921259842
20
-1.2497611811023621
11
0.2131331496062992
21
-1.2516770472440946
0
LINE
8
BLACK
6
CONTINUOUS
10
0.2131331496062992
20
-1.2516770472440946
11
0.2135826771653543
21
-1.2539370078740157
0
LINE
8
BLACK
6
CONTINUOUS
10
0.2135826771653543
20
-1.2539370078740157
11
0.2135826771653543
21
-1.265748031496063
0
LINE
8
BLACK
6
CONTINUOUS
10
0.2135826771653543
20
-1.265748031496063
11
0.2131331496062992
21
-1.2680079921259841
0
LINE
8
BLACK
6
CONTINUOUS
10
0.2131331496062992
20
-1.2680079921259841
11
0.2118529921259842
21
-1.2699238582677166
0
LINE
8
BLACK
6
CONTINUOUS
10
0.2118529921259842
20
-1.2699238582677166
11
0.209937125984252
21
-1.2712040157480315
0
LINE
8
BLACK
6
CONTINUOUS
10
0.209937125984252
20
-1.2712040157480315
11
0.2076771653543307
21
-1.2716535433070866
0
LINE
8
BLACK
6
CONTINUOUS
10
0.2076771653543307
20
-1.2716535433070866
11
0.1614173228346457
21
-1.2716535433070866
0
LINE
8
BLACK
6
CONTINUOUS
10
0.1614173228346457
20
-1.2716535433070866
11
0.1591573622047244
21
-1.2712040157480315
0
LINE
8
BLACK
6
CONTINUOUS
10
0.1591573622047244
20
-1.2712040157480315
11
0.1572414960629921
21
-1.2699238582677166
0
LINE
8
BLACK
6
CONTINUOUS
10
0.1572414960629921
20
-1.2699238582677166
11
0.1559613385826772
21
-1.2680079921259841
0
LINE
8
BLACK
6
CONTINUOUS
10
0.1559613385826772
20
-1.2680079921259841
11
0.155511811023622
21
-1.265748031496063
0
LINE
8
BLACK
6
CONTINUOUS
10
0.155511811023622
20
-1.265748031496063
11
0.155511811023622
21
-1.2539370078740157
0
LINE
8
BLACK
6
CONTINUOUS
10
0.155511811023622
20
-1.2539370078740157
11
0.1559613385826772
21
-1.2516770472440946
0
LINE
8
BLACK
6
CONTINUOUS
10
0.1559613385826772
20
-1.2516770472440946
11
0.1572414960629921
21
-1.2497611811023621
0
LINE
8
BLACK
6
CONTINUOUS
10
0.1572414960629921
20
-1.2497611811023621
11
0.1591573622047244
21
-1.2484810236220472
0
LINE
8
BLACK
6
CONTINUOUS
10
0.1591573622047244
20
-1.2484810236220472
11
0.1614173228346457
21
-1.2480314960629921
0
LINE
8
BLACK
6
CONTINUOUS
10
0.1614173228346457
20
-1.2480314960629921
11
0.2076771653543307
21
-1.2480314960629921
0
LINE
8
BLACK
6
CONTINUOUS
10
0.2076771653543307
20
-1.2480314960629921
11
0.209937125984252
21
-1.2484810236220472
0
LINE
8
BLACK
6
CONTINUOUS
10
0.1361182283464567
20
-1.2110794488188976
11
0.138034094488189
21
-1.2123596062992126
0
LINE
8
BLACK
6
CONTINUOUS
10
0.138034094488189
20
-1.2123596062992126
11
0.1393142519685039
21
-1.2142754724409448
0
LINE
8
BLACK
6
CONTINUOUS
10
0.1393142519685039
20
-1.2142754724409448
11
0.1397637795275591
21
-1.2165354330708662
0
LINE
8
BLACK
6
CONTINUOUS
10
0.1397637795275591
20
-1.2165354330708662
11
0.1397637795275591
21
-1.2283464566929134
0
LINE
8
BLACK
6
CONTINUOUS
10
0.1397637795275591
20
-1.2283464566929134
11
0.1393142519685039
21
-1.2306064173228346
0
LINE
8
BLACK
6
CONTINUOUS
10
0.1393142519685039
20
-1.2306064173228346
11
0.138034094488189
21
-1.2325222834645668
0
LINE
8
BLACK
6
CONTINUOUS
10
0.138034094488189
20
-1.2325222834645668
11
0.1361182283464567
21
-1.2338024409448818
0
LINE
8
BLACK
6
CONTINUOUS
10
0.1361182283464567
20
-1.2338024409448818
11
0.1338582677165354
21
-1.234251968503937
0
LINE
8
BLACK
6
CONTINUOUS
10
0.1338582677165354
20
-1.234251968503937
11
0.0875984251968504
21
-1.234251968503937
0
LINE
8
BLACK
6
CONTINUOUS
10
0.0875984251968504
20
-1.234251968503937
11
0.0853384645669291
21
-1.2338024409448818
0
LINE
8
BLACK
6
CONTINUOUS
10
0.0853384645669291
20
-1.2338024409448818
11
0.0834225984251969
21
-1.2325222834645668
0
LINE
8
BLACK
6
CONTINUOUS
10
0.0834225984251969
20
-1.2325222834645668
11
0.0821424409448819
21
-1.2306064173228346
0
LINE
8
BLACK
6
CONTINUOUS
10
0.0821424409448819
20
-1.2306064173228346
11
0.0816929133858268
21
-1.2283464566929134
0
LINE
8
BLACK
6
CONTINUOUS
10
0.0816929133858268
20
-1.2283464566929134
11
0.0816929133858268
21
-1.2165354330708662
0
LINE
8
BLACK
6
CONTINUOUS
10
0.0816929133858268
20
-1.2165354330708662
11
0.0821424409448819
21
-1.2142754724409448
0
LINE
8
BLACK
6
CONTINUOUS
10
0.0821424409448819
20
-1.2142754724409448
11
0.0834225984251969
21
-1.2123596062992126
0
LINE
8
BLACK
6
CONTINUOUS
10
0.0834225984251969
20
-1.2123596062992126
11
0.0853384645669291
21
-1.2110794488188976
0
LINE
8
BLACK
6
CONTINUOUS
10
0.0853384645669291
20
-1.2110794488188976
11
0.0875984251968504
21
-1.2106299212598426
0
LINE
8
BLACK
6
CONTINUOUS
10
0.0875984251968504
20
-1.2106299212598426
11
0.1338582677165354
21
-1.2106299212598426
0
LINE
8
BLACK
6
CONTINUOUS
10
0.1338582677165354
20
-1.2106299212598426
11
0.1361182283464567
21
-1.2110794488188976
0
LINE
8
BLACK
6
CONTINUOUS
10
0.3814945669291339
20
-1.0941594881889765
11
0.3842885826771654
21
-1.0960263779527559
0
LINE
8
BLACK
6
CONTINUOUS
10
0.3842885826771654
20
-1.0960263779527559
11
0.3861554724409449
21
-1.0988203937007874
0
LINE
8
BLACK
6
CONTINUOUS
10
0.3861554724409449
20
-1.0988203937007874
11
0.3868110236220472
21
-1.1021161417322833
0
LINE
8
BLACK
6
CONTINUOUS
10
0.3868110236220472
20
-1.1021161417322833
11
0.3868110236220472
21
-1.1222933070866141
0
LINE
8
BLACK
6
CONTINUOUS
10
0.3868110236220472
20
-1.1222933070866141
11
0.3861554724409449
21
-1.1255890551181102
0
LINE
8
BLACK
6
CONTINUOUS
10
0.3861554724409449
20
-1.1255890551181102
11
0.3842885826771654
21
-1.1283830708661418
0
LINE
8
BLACK
6
CONTINUOUS
10
0.3842885826771654
20
-1.1283830708661418
11
0.3814945669291339
21
-1.1302499606299212
0
LINE
8
BLACK
6
CONTINUOUS
10
0.3814945669291339
20
-1.1302499606299212
11
0.3781988188976378
21
-1.1309055118110236
0
LINE
8
BLACK
6
CONTINUOUS
10
0.3781988188976378
20
-1.1309055118110236
11
0.3609744094488189
21
-1.1309055118110236
0
LINE
8
BLACK
6
CONTINUOUS
10
0.3609744094488189
20
-1.1309055118110236
11
0.3576786614173229
21
-1.1302499606299212
0
LINE
8
BLACK
6
CONTINUOUS
10
0.3576786614173229
20
-1.1302499606299212
11
0.3548846456692913
21
-1.1283830708661418
0
LINE
8
BLACK
6
CONTINUOUS
10
0.3548846456692913
20
-1.1283830708661418
11
0.3530177559055118
21
-1.1255890551181102
0
LINE
8
BLACK
6
CONTINUOUS
10
0.3530177559055118
20
-1.1255890551181102
11
0.3523622047244094
21
-1.1222933070866141
0
LINE
8
BLACK
6
CONTINUOUS
10
0.3523622047244094
20
-1.1222933070866141
11
0.3523622047244094
21
-1.1021161417322833
0
LINE
8
BLACK
6
CONTINUOUS
10
0.3523622047244094
20
-1.1021161417322833
11
0.3530177559055118
21
-1.0988203937007874
0
LINE
8
BLACK
6
CONTINUOUS
10
0.3530177559055118
20
-1.0988203937007874
11
0.3548846456692913
21
-1.0960263779527559
0
LINE
8
BLACK
6
CONTINUOUS
10
0.3548846456692913
20
-1.0960263779527559
11
0.3576786614173229
21
-1.0941594881889765
0
LINE
8
BLACK
6
CONTINUOUS
10
0.3576786614173229
20
-1.0941594881889765
11
0.3609744094488189
21
-1.0935039370078741
0
LINE
8
BLACK
6
CONTINUOUS
10
0.3609744094488189
20
-1.0935039370078741
11
0.3781988188976378
21
-1.0935039370078741
0
LINE
8
BLACK
6
CONTINUOUS
10
0.3781988188976378
20
-1.0935039370078741
11
0.3814945669291339
21
-1.0941594881889765
0
LINE
8
BLACK
6
CONTINUOUS
10
0.4435024409448819
20
-1.0941594881889765
11
0.4462964566929134
21
-1.0960263779527559
0
LINE
8
BLACK
6
CONTINUOUS
10
0.4462964566929134
20
-1.0960263779527559
11
0.4481633464566929
21
-1.0988203937007874
0
LINE
8
BLACK
6
CONTINUOUS
10
0.4481633464566929
20
-1.0988203937007874
11
0.4488188976377953
21
-1.1021161417322833
0
LINE
8
BLACK
6
CONTINUOUS
10
0.4488188976377953
20
-1.1021161417322833
11
0.4488188976377953
21
-1.1222933070866141
0
LINE
8
BLACK
6
CONTINUOUS
10
0.4488188976377953
20
-1.1222933070866141
11
0.4481633464566929
21
-1.1255890551181102
0
LINE
8
BLACK
6
CONTINUOUS
10
0.4481633464566929
20
-1.1255890551181102
11
0.4462964566929134
21
-1.1283830708661418
0
LINE
8
BLACK
6
CONTINUOUS
10
0.4462964566929134
20
-1.1283830708661418
11
0.4435024409448819
21
-1.1302499606299212
0
LINE
8
BLACK
6
CONTINUOUS
10
0.4435024409448819
20
-1.1302499606299212
11
0.4402066929133858
21
-1.1309055118110236
0
LINE
8
BLACK
6
CONTINUOUS
10
0.4402066929133858
20
-1.1309055118110236
11
0.4229822834645669
21
-1.1309055118110236
0
LINE
8
BLACK
6
CONTINUOUS
10
0.4229822834645669
20
-1.1309055118110236
11
0.4196865354330709
21
-1.1302499606299212
0
LINE
8
BLACK
6
CONTINUOUS
10
0.4196865354330709
20
-1.1302499606299212
11
0.4168925196850394
21
-1.1283830708661418
0
LINE
8
BLACK
6
CONTINUOUS
10
0.4168925196850394
20
-1.1283830708661418
11
0.4150256299212599
21
-1.1255890551181102
0
LINE
8
BLACK
6
CONTINUOUS
10
0.4150256299212599
20
-1.1255890551181102
11
0.4143700787401575
21
-1.1222933070866141
0
LINE
8
BLACK
6
CONTINUOUS
10
0.4143700787401575
20
-1.1222933070866141
11
0.4143700787401575
21
-1.1021161417322833
0
LINE
8
BLACK
6
CONTINUOUS
10
0.4143700787401575
20
-1.1021161417322833
11
0.4150256299212599
21
-1.0988203937007874
0
LINE
8
BLACK
6
CONTINUOUS
10
0.4150256299212599
20
-1.0988203937007874
11
0.4168925196850394
21
-1.0960263779527559
0
LINE
8
BLACK
6
CONTINUOUS
10
0.4168925196850394
20
-1.0960263779527559
11
0.4196865354330709
21
-1.0941594881889765
0
LINE
8
BLACK
6
CONTINUOUS
10
0.4196865354330709
20
-1.0941594881889765
11
0.4229822834645669
21
-1.0935039370078741
0
LINE
8
BLACK
6
CONTINUOUS
10
0.4229822834645669
20
-1.0935039370078741
11
0.4402066929133858
21
-1.0935039370078741
0
LINE
8
BLACK
6
CONTINUOUS
10
0.4402066929133858
20
-1.0935039370078741
11
0.4435024409448819
21
-1.0941594881889765
0
LINE
8
BLACK
6
CONTINUOUS
10
0.1059040157480315
20
-1.0449468897637795
11
0.108698031496063
21
-1.0468137795275589
0
LINE
8
BLACK
6
CONTINUOUS
10
0.108698031496063
20
-1.0468137795275589
11
0.1105649212598425
21
-1.0496077952755904
0
LINE
8
BLACK
6
CONTINUOUS
10
0.1105649212598425
20
-1.0496077952755904
11
0.1112204724409449
21
-1.0529035433070866
0
LINE
8
BLACK
6
CONTINUOUS
10
0.1112204724409449
20
-1.0529035433070866
11
0.1112204724409449
21
-1.0730807086614174
0
LINE
8
BLACK
6
CONTINUOUS
10
0.1112204724409449
20
-1.0730807086614174
11
0.1105649212598425
21
-1.0763764566929133
0
LINE
8
BLACK
6
CONTINUOUS
10
0.1105649212598425
20
-1.0763764566929133
11
0.108698031496063
21
-1.0791704724409448
0
LINE
8
BLACK
6
CONTINUOUS
10
0.108698031496063
20
-1.0791704724409448
11
0.1059040157480315
21
-1.0810373622047245
0
LINE
8
BLACK
6
CONTINUOUS
10
0.1059040157480315
20
-1.0810373622047245
11
0.1026082677165354
21
-1.0816929133858268
0
LINE
8
BLACK
6
CONTINUOUS
10
0.1026082677165354
20
-1.0816929133858268
11
0.0853838582677165
21
-1.0816929133858268
0
LINE
8
BLACK
6
CONTINUOUS
10
0.0853838582677165
20
-1.0816929133858268
11
0.0820881102362205
21
-1.0810373622047245
0
LINE
8
BLACK
6
CONTINUOUS
10
0.0820881102362205
20
-1.0810373622047245
11
0.079294094488189
21
-1.0791704724409448
0
LINE
8
BLACK
6
CONTINUOUS
10
0.079294094488189
20
-1.0791704724409448
11
0.0774272047244094
21
-1.0763764566929133
0
LINE
8
BLACK
6
CONTINUOUS
10
0.0774272047244094
20
-1.0763764566929133
11
0.0767716535433071
21
-1.0730807086614174
0
LINE
8
BLACK
6
CONTINUOUS
10
0.0767716535433071
20
-1.0730807086614174
11
0.0767716535433071
21
-1.0529035433070866
0
LINE
8
BLACK
6
CONTINUOUS
10
0.0767716535433071
20
-1.0529035433070866
11
0.0774272047244094
21
-1.0496077952755904
0
LINE
8
BLACK
6
CONTINUOUS
10
0.0774272047244094
20
-1.0496077952755904
11
0.079294094488189
21
-1.0468137795275589
0
LINE
8
BLACK
6
CONTINUOUS
10
0.079294094488189
20
-1.0468137795275589
11
0.0820881102362205
21
-1.0449468897637795
0
LINE
8
BLACK
6
CONTINUOUS
10
0.0820881102362205
20
-1.0449468897637795
11
0.0853838582677165
21
-1.0442913385826771
0
LINE
8
BLACK
6
CONTINUOUS
10
0.0853838582677165
20
-1.0442913385826771
11
0.1026082677165354
21
-1.0442913385826771
0
LINE
8
BLACK
6
CONTINUOUS
10
0.1026082677165354
20
-1.0442913385826771
11
0.1059040157480315
21
-1.0449468897637795
0
LINE
8
BLACK
6
CONTINUOUS
10
0.1679118897637795
20
-1.0449468897637795
11
0.170705905511811
21
-1.0468137795275589
0
LINE
8
BLACK
6
CONTINUOUS
10
0.170705905511811
20
-1.0468137795275589
11
0.1725727952755906
21
-1.0496077952755904
0
LINE
8
BLACK
6
CONTINUOUS
10
0.1725727952755906
20
-1.0496077952755904
11
0.1732283464566929
21
-1.0529035433070866
0
LINE
8
BLACK
6
CONTINUOUS
10
0.1732283464566929
20
-1.0529035433070866
11
0.1732283464566929
21
-1.0730807086614174
0
LINE
8
BLACK
6
CONTINUOUS
10
0.1732283464566929
20
-1.0730807086614174
11
0.1725727952755906
21
-1.0763764566929133
0
LINE
8
BLACK
6
CONTINUOUS
10
0.1725727952755906
20
-1.0763764566929133
11
0.170705905511811
21
-1.0791704724409448
0
LINE
8
BLACK
6
CONTINUOUS
10
0.170705905511811
20
-1.0791704724409448
11
0.1679118897637795
21
-1.0810373622047245
0
LINE
8
BLACK
6
CONTINUOUS
10
0.1679118897637795
20
-1.0810373622047245
11
0.1646161417322834
21
-1.0816929133858268
0
LINE
8
BLACK
6
CONTINUOUS
10
0.1646161417322834
20
-1.0816929133858268
11
0.1473917322834646
21
-1.0816929133858268
0
LINE
8
BLACK
6
CONTINUOUS
10
0.1473917322834646
20
-1.0816929133858268
11
0.1440959842519685
21
-1.0810373622047245
0
LINE
8
BLACK
6
CONTINUOUS
10
0.1440959842519685
20
-1.0810373622047245
11
0.141301968503937
21
-1.0791704724409448
0
LINE
8
BLACK
6
CONTINUOUS
10
0.141301968503937
20
-1.0791704724409448
11
0.1394350787401575
21
-1.0763764566929133
0
LINE
8
BLACK
6
CONTINUOUS
10
0.1394350787401575
20
-1.0763764566929133
11
0.1387795275590551
21
-1.0730807086614174
0
LINE
8
BLACK
6
CONTINUOUS
10
0.1387795275590551
20
-1.0730807086614174
11
0.1387795275590551
21
-1.0529035433070866
0
LINE
8
BLACK
6
CONTINUOUS
10
0.1387795275590551
20
-1.0529035433070866
11
0.1394350787401575
21
-1.0496077952755904
0
LINE
8
BLACK
6
CONTINUOUS
10
0.1394350787401575
20
-1.0496077952755904
11
0.141301968503937
21
-1.0468137795275589
0
LINE
8
BLACK
6
CONTINUOUS
10
0.141301968503937
20
-1.0468137795275589
11
0.1440959842519685
21
-1.0449468897637795
0
LINE
8
BLACK
6
CONTINUOUS
10
0.1440959842519685
20
-1.0449468897637795
11
0.1473917322834646
21
-1.0442913385826771
0
LINE
8
BLACK
6
CONTINUOUS
10
0.1473917322834646
20
-1.0442913385826771
11
0.1646161417322834
21
-1.0442913385826771
0
LINE
8
BLACK
6
CONTINUOUS
10
0.1646161417322834
20
-1.0442913385826771
11
0.1679118897637795
21
-1.0449468897637795
0
LINE
8
BLACK
6
CONTINUOUS
10
-0.9421298031496063
20
-0.8843077952755906
11
-0.940213937007874
21
-0.8855879527559055
0
LINE
8
BLACK
6
CONTINUOUS
10
-0.940213937007874
20
-0.8855879527559055
11
-0.9389337795275591
21
-0.8875038188976377
0
LINE
8
BLACK
6
CONTINUOUS
10
-0.9389337795275591
20
-0.8875038188976377
11
-0.9384842519685039
21
-0.889763779527559
0
LINE
8
BLACK
6
CONTINUOUS
10
-0.9384842519685039
20
-0.889763779527559
11
-0.9384842519685039
21
-0.9015748031496063
0
LINE
8
BLACK
6
CONTINUOUS
10
-0.9384842519685039
20
-0.9015748031496063
11
-0.9389337795275591
21
-0.9038347637795275
0
LINE
8
BLACK
6
CONTINUOUS
10
-0.9389337795275591
20
-0.9038347637795275
11
-0.940213937007874
21
-0.9057506299212599
0
LINE
8
BLACK
6
CONTINUOUS
10
-0.940213937007874
20
-0.9057506299212599
11
-0.9421298031496063
21
-0.9070307874015748
0
LINE
8
BLACK
6
CONTINUOUS
10
-0.9421298031496063
20
-0.9070307874015748
11
-0.9443897637795275
21
-0.9074803149606299
0
LINE
8
BLACK
6
CONTINUOUS
10
-0.9443897637795275
20
-0.9074803149606299
11
-0.984744094488189
21
-0.9074803149606299
0
LINE
8
BLACK
6
CONTINUOUS
10
-0.984744094488189
20
-0.9074803149606299
11
-0.9870040551181102
21
-0.9070307874015748
0
LINE
8
BLACK
6
CONTINUOUS
10
-0.9870040551181102
20
-0.9070307874015748
11
-0.9889199212598425
21
-0.9057506299212599
0
LINE
8
BLACK
6
CONTINUOUS
10
-0.9889199212598425
20
-0.9057506299212599
11
-0.9902000787401575
21
-0.9038347637795275
0
LINE
8
BLACK
6
CONTINUOUS
10
-0.9902000787401575
20
-0.9038347637795275
11
-0.9906496062992126
21
-0.9015748031496063
0
LINE
8
BLACK
6
CONTINUOUS
10
-0.9906496062992126
20
-0.9015748031496063
11
-0.9906496062992126
21
-0.889763779527559
0
LINE
8
BLACK
6
CONTINUOUS
10
-0.9906496062992126
20
-0.889763779527559
11
-0.9902000787401575
21
-0.8875038188976377
0
LINE
8
BLACK
6
CONTINUOUS
10
-0.9902000787401575
20
-0.8875038188976377
11
-0.9889199212598425
21
-0.8855879527559055
0
LINE
8
BLACK
6
CONTINUOUS
10
-0.9889199212598425
20
-0.8855879527559055
11
-0.9870040551181102
21
-0.8843077952755906
0
LINE
8
BLACK
6
CONTINUOUS
10
-0.9870040551181102
20
-0.8843077952755906
11
-0.984744094488189
21
-0.8838582677165354
0
LINE
8
BLACK
6
CONTINUOUS
10
-0.984744094488189
20
-0.8838582677165354
11
-0.9443897637795275
21
-0.8838582677165354
0
LINE
8
BLACK
6
CONTINUOUS
10
-0.9443897637795275
20
-0.8838582677165354
11
-0.9421298031496063
21
-0.8843077952755906
0
LINE
8
BLACK
6
CONTINUOUS
10
-0.852562874015748
20
-0.8843077952755906
11
-0.8506470078740157
21
-0.8855879527559055
0
LINE
8
BLACK
6
CONTINUOUS
10
-0.8506470078740157
20
-0.8855879527559055
11
-0.8493668503937007
21
-0.8875038188976377
0
LINE
8
BLACK
6
CONTINUOUS
10
-0.8493668503937007
20
-0.8875038188976377
11
-0.8489173228346456
21
-0.889763779527559
0
LINE
8
BLACK
6
CONTINUOUS
10
-0.8489173228346456
20
-0.889763779527559
11
-0.8489173228346456
21
-0.9015748031496063
0
LINE
8
BLACK
6
CONTINUOUS
10
-0.8489173228346456
20
-0.9015748031496063
11
-0.8493668503937007
21
-0.9038347637795275
0
LINE
8
BLACK
6
CONTINUOUS
10
-0.8493668503937007
20
-0.9038347637795275
11
-0.8506470078740157
21
-0.9057506299212599
0
LINE
8
BLACK
6
CONTINUOUS
10
-0.8506470078740157
20
-0.9057506299212599
11
-0.852562874015748
21
-0.9070307874015748
0
LINE
8
BLACK
6
CONTINUOUS
10
-0.852562874015748
20
-0.9070307874015748
11
-0.8548228346456693
21
-0.9074803149606299
0
LINE
8
BLACK
6
CONTINUOUS
10
-0.8548228346456693
20
-0.9074803149606299
11
-0.8951771653543307
21
-0.9074803149606299
0
LINE
8
BLACK
6
CONTINUOUS
10
-0.8951771653543307
20
-0.9074803149606299
11
-0.897437125984252
21
-0.9070307874015748
0
LINE
8
BLACK
6
CONTINUOUS
10
-0.897437125984252
20
-0.9070307874015748
11
-0.8993529921259842
21
-0.9057506299212599
0
LINE
8
BLACK
6
CONTINUOUS
10
-0.8993529921259842
20
-0.9057506299212599
11
-0.9006331496062991
21
-0.9038347637795275
0
LINE
8
BLACK
6
CONTINUOUS
10
-0.9006331496062991
20
-0.9038347637795275
11
-0.9010826771653543
21
-0.9015748031496063
0
LINE
8
BLACK
6
CONTINUOUS
10
-0.9010826771653543
20
-0.9015748031496063
11
-0.9010826771653543
21
-0.889763779527559
0
LINE
8
BLACK
6
CONTINUOUS
10
-0.9010826771653543
20
-0.889763779527559
11
-0.9006331496062991
21
-0.8875038188976377
0
LINE
8
BLACK
6
CONTINUOUS
10
-0.9006331496062991
20
-0.8875038188976377
11
-0.8993529921259842
21
-0.8855879527559055
0
LINE
8
BLACK
6
CONTINUOUS
10
-0.8993529921259842
20
-0.8855879527559055
11
-0.897437125984252
21
-0.8843077952755906
0
LINE
8
BLACK
6
CONTINUOUS
10
-0.897437125984252
20
-0.8843077952755906
11
-0.8951771653543307
21
-0.8838582677165354
0
LINE
8
BLACK
6
CONTINUOUS
10
-0.8951771653543307
20
-0.8838582677165354
11
-0.8548228346456693
21
-0.8838582677165354
0
LINE
8
BLACK
6
CONTINUOUS
10
-0.8548228346456693
20
-0.8838582677165354
11
-0.852562874015748
21
-0.8843077952755906
0
LINE
8
BLACK
6
CONTINUOUS
10
-0.6406511023622047
20
-0.8727027952755906
11
-0.6378570866141732
21
-0.87456968503937
0
LINE
8
BLACK
6
CONTINUOUS
10
-0.6378570866141732
20
-0.87456968503937
11
-0.6359901968503937
21
-0.8773637007874016
0
LINE
8
BLACK
6
CONTINUOUS
10
-0.6359901968503937
20
-0.8773637007874016
11
-0.6353346456692913
21
-0.8806594488188976
0
LINE
8
BLACK
6
CONTINUOUS
10
-0.6353346456692913
20
-0.8806594488188976
11
-0.6353346456692913
21
-0.8978838582677166
0
LINE
8
BLACK
6
CONTINUOUS
10
-0.6353346456692913
20
-0.8978838582677166
11
-0.6359901968503937
21
-0.9011796062992126
0
LINE
8
BLACK
6
CONTINUOUS
10
-0.6359901968503937
20
-0.9011796062992126
11
-0.6378570866141732
21
-0.9039736220472441
0
LINE
8
BLACK
6
CONTINUOUS
10
-0.6378570866141732
20
-0.9039736220472441
11
-0.6406511023622047
21
-0.9058405118110237
0
LINE
8
BLACK
6
CONTINUOUS
10
-0.6406511023622047
20
-0.9058405118110237
11
-0.6439468503937008
21
-0.9064960629921259
0
LINE
8
BLACK
6
CONTINUOUS
10
-0.6439468503937008
20
-0.9064960629921259
11
-0.6641240157480315
21
-0.9064960629921259
0
LINE
8
BLACK
6
CONTINUOUS
10
-0.6641240157480315
20
-0.9064960629921259
11
-0.6674197637795275
21
-0.9058405118110237
0
LINE
8
BLACK
6
CONTINUOUS
10
-0.6674197637795275
20
-0.9058405118110237
11
-0.670213779527559
21
-0.9039736220472441
0
LINE
8
BLACK
6
CONTINUOUS
10
-0.670213779527559
20
-0.9039736220472441
11
-0.6720806692913386
21
-0.9011796062992126
0
LINE
8
BLACK
6
CONTINUOUS
10
-0.6720806692913386
20
-0.9011796062992126
11
-0.672736220472441
21
-0.8978838582677166
0
LINE
8
BLACK
6
CONTINUOUS
10
-0.672736220472441
20
-0.8978838582677166
11
-0.672736220472441
21
-0.8806594488188976
0
LINE
8
BLACK
6
CONTINUOUS
10
-0.672736220472441
20
-0.8806594488188976
11
-0.6720806692913386
21
-0.8773637007874016
0
LINE
8
BLACK
6
CONTINUOUS
10
-0.6720806692913386
20
-0.8773637007874016
11
-0.670213779527559
21
-0.87456968503937
0
LINE
8
BLACK
6
CONTINUOUS
10
-0.670213779527559
20
-0.87456968503937
11
-0.6674197637795275
21
-0.8727027952755906
0
LINE
8
BLACK
6
CONTINUOUS
10
-0.6674197637795275
20
-0.8727027952755906
11
-0.6641240157480315
21
-0.8720472440944882
0
LINE
8
BLACK
6
CONTINUOUS
10
-0.6641240157480315
20
-0.8720472440944882
11
-0.6439468503937008
21
-0.8720472440944882
0
LINE
8
BLACK
6
CONTINUOUS
10
-0.6439468503937008
20
-0.8720472440944882
11
-0.6406511023622047
21
-0.8727027952755906
0
LINE
8
BLACK
6
CONTINUOUS
10
-2.2156648031496062
20
-0.8469561811023621
11
-2.2135360629921261
21
-0.8483785826771654
0
LINE
8
BLACK
6
CONTINUOUS
10
-2.2135360629921261
20
-0.8483785826771654
11
-2.2121136614173227
21
-0.8505073228346457
0
LINE
8
BLACK
6
CONTINUOUS
10
-2.2121136614173227
20
-0.8505073228346457
11
-2.2116142125984251
21
-0.8530184251968503
0
LINE
8
BLACK
6
CONTINUOUS
10
-2.2116142125984251
20
-0.8530184251968503
11
-2.2116141732283463
21
-0.8989501181102362
0
LINE
8
BLACK
6
CONTINUOUS
10
-2.2116141732283463
20
-0.8989501181102362
11
-2.2121136614173227
21
-0.9014611811023622
0
LINE
8
BLACK
6
CONTINUOUS
10
-2.2121136614173227
20
-0.9014611811023622
11
-2.2135360629921261
21
-0.9035899212598425
0
LINE
8
BLACK
6
CONTINUOUS
10
-2.2135360629921261
20
-0.9035899212598425
11
-2.2156648031496062
21
-0.9050123228346456
0
LINE
8
BLACK
6
CONTINUOUS
10
-2.2156648031496062
20
-0.9050123228346456
11
-2.2181759055118109
21
-0.9055117716535432
0
LINE
8
BLACK
6
CONTINUOUS
10
-2.2181759055118109
20
-0.9055117716535432
11
-2.2542650787401572
21
-0.905511811023622
0
LINE
8
BLACK
6
CONTINUOUS
10
-2.2542650787401572
20
-0.905511811023622
11
-2.2567761417322836
21
-0.9050123228346456
0
LINE
8
BLACK
6
CONTINUOUS
10
-2.2567761417322836
20
-0.9050123228346456
11
-2.2589048818897637
21
-0.9035899212598425
0
LINE
8
BLACK
6
CONTINUOUS
10
-2.2589048818897637
20
-0.9035899212598425
11
-2.2603272834645667
21
-0.9014611811023622
0
LINE
8
BLACK
6
CONTINUOUS
10
-2.2603272834645667
20
-0.9014611811023622
11
-2.2608267322834643
21
-0.8989500787401574
0
LINE
8
BLACK
6
CONTINUOUS
10
-2.2608267322834643
20
-0.8989500787401574
11
-2.2608267716535431
21
-0.8530183858267716
0
LINE
8
BLACK
6
CONTINUOUS
10
-2.2608267716535431
20
-0.8530183858267716
11
-2.2603272834645667
21
-0.8505073228346457
0
LINE
8
BLACK
6
CONTINUOUS
10
-2.2603272834645667
20
-0.8505073228346457
11
-2.2589048818897637
21
-0.8483785826771654
0
LINE
8
BLACK
6
CONTINUOUS
10
-2.2589048818897637
20
-0.8483785826771654
11
-2.2567761417322836
21
-0.8469561811023621
0
LINE
8
BLACK
6
CONTINUOUS
10
-2.2567761417322836
20
-0.8469561811023621
11
-2.2542650393700785
21
-0.8464567322834645
0
LINE
8
BLACK
6
CONTINUOUS
10
-2.2542650393700785
20
-0.8464567322834645
11
-2.2181758661417321
21
-0.8464566929133858
0
LINE
8
BLACK
6
CONTINUOUS
10
-2.2181758661417321
20
-0.8464566929133858
11
-2.2156648031496062
21
-0.8469561811023621
0
LINE
8
BLACK
6
CONTINUOUS
10
-2.0739325196850391
20
-0.8469561811023621
11
-2.071803779527559
21
-0.8483785826771654
0
LINE
8
BLACK
6
CONTINUOUS
10
-2.071803779527559
20
-0.8483785826771654
11
-2.070381377952756
21
-0.8505073228346457
0
LINE
8
BLACK
6
CONTINUOUS
10
-2.070381377952756
20
-0.8505073228346457
11
-2.0698819291338584
21
-0.8530184251968503
0
LINE
8
BLACK
6
CONTINUOUS
10
-2.0698819291338584
20
-0.8530184251968503
11
-2.0698818897637796
21
-0.8989501181102362
0
LINE
8
BLACK
6
CONTINUOUS
10
-2.0698818897637796
20
-0.8989501181102362
11
-2.070381377952756
21
-0.9014611811023622
0
LINE
8
BLACK
6
CONTINUOUS
10
-2.070381377952756
20
-0.9014611811023622
11
-2.071803779527559
21
-0.9035899212598425
0
LINE
8
BLACK
6
CONTINUOUS
10
-2.071803779527559
20
-0.9035899212598425
11
-2.0739325196850391
21
-0.9050123228346456
0
LINE
8
BLACK
6
CONTINUOUS
10
-2.0739325196850391
20
-0.9050123228346456
11
-2.0764436220472442
21
-0.9055117716535432
0
LINE
8
BLACK
6
CONTINUOUS
10
-2.0764436220472442
20
-0.9055117716535432
11
-2.1125327952755906
21
-0.905511811023622
0
LINE
8
BLACK
6
CONTINUOUS
10
-2.1125327952755906
20
-0.905511811023622
11
-2.1150438582677165
21
-0.9050123228346456
0
LINE
8
BLACK
6
CONTINUOUS
10
-2.1150438582677165
20
-0.9050123228346456
11
-2.117172598425197
21
-0.9035899212598425
0
LINE
8
BLACK
6
CONTINUOUS
10
-2.117172598425197
20
-0.9035899212598425
11
-2.118595
21
-0.9014611811023622
0
LINE
8
BLACK
6
CONTINUOUS
10
-2.118595
20
-0.9014611811023622
11
-2.1190944488188976
21
-0.8989500787401574
0
LINE
8
BLACK
6
CONTINUOUS
10
-2.1190944488188976
20
-0.8989500787401574
11
-2.1190944881889764
21
-0.8530183858267716
0
LINE
8
BLACK
6
CONTINUOUS
10
-2.1190944881889764
20
-0.8530183858267716
11
-2.118595
21
-0.8505073228346457
0
LINE
8
BLACK
6
CONTINUOUS
10
-2.118595
20
-0.8505073228346457
11
-2.117172598425197
21
-0.8483785826771654
0
LINE
8
BLACK
6
CONTINUOUS
10
-2.117172598425197
20
-0.8483785826771654
11
-2.1150438582677165
21
-0.8469561811023621
0
LINE
8
BLACK
6
CONTINUOUS
10
-2.1150438582677165
20
-0.8469561811023621
11
-2.1125327559055118
21
-0.8464567322834645
0
LINE
8
BLACK
6
CONTINUOUS
10
-2.1125327559055118
20
-0.8464567322834645
11
-2.0764435826771654
21
-0.8464566929133858
0
LINE
8
BLACK
6
CONTINUOUS
10
-2.0764435826771654
20
-0.8464566929133858
11
-2.0739325196850391
21
-0.8469561811023621
0
LINE
8
BLACK
6
CONTINUOUS
10
-1.5658479527559055
20
-0.8530177559055118
11
-1.563053937007874
21
-0.8548846456692913
0
LINE
8
BLACK
6
CONTINUOUS
10
-1.563053937007874
20
-0.8548846456692913
11
-1.5611870472440945
21
-0.8576786614173229
0
LINE
8
BLACK
6
CONTINUOUS
10
-1.5611870472440945
20
-0.8576786614173229
11
-1.5605314960629921
21
-0.8609744094488189
0
LINE
8
BLACK
6
CONTINUOUS
10
-1.5605314960629921
20
-0.8609744094488189
11
-1.5605314960629921
21
-0.8781988188976377
0
LINE
8
BLACK
6
CONTINUOUS
10
-1.5605314960629921
20
-0.8781988188976377
11
-1.5611870472440945
21
-0.8814945669291339
0
LINE
8
BLACK
6
CONTINUOUS
10
-1.5611870472440945
20
-0.8814945669291339
11
-1.563053937007874
21
-0.8842885826771654
0
LINE
8
BLACK
6
CONTINUOUS
10
-1.563053937007874
20
-0.8842885826771654
11
-1.5658479527559055
21
-0.8861554724409448
0
LINE
8
BLACK
6
CONTINUOUS
10
-1.5658479527559055
20
-0.8861554724409448
11
-1.5691437007874016
21
-0.8868110236220472
0
LINE
8
BLACK
6
CONTINUOUS
10
-1.5691437007874016
20
-0.8868110236220472
11
-1.5893208661417322
21
-0.8868110236220472
0
LINE
8
BLACK
6
CONTINUOUS
10
-1.5893208661417322
20
-0.8868110236220472
11
-1.5926166141732283
21
-0.8861554724409448
0
LINE
8
BLACK
6
CONTINUOUS
10
-1.5926166141732283
20
-0.8861554724409448
11
-1.5954106299212598
21
-0.8842885826771654
0
LINE
8
BLACK
6
CONTINUOUS
10
-1.5954106299212598
20
-0.8842885826771654
11
-1.5972775196850393
21
-0.8814945669291339
0
LINE
8
BLACK
6
CONTINUOUS
10
-1.5972775196850393
20
-0.8814945669291339
11
-1.5979330708661417
21
-0.8781988188976377
0
LINE
8
BLACK
6
CONTINUOUS
10
-1.5979330708661417
20
-0.8781988188976377
11
-1.5979330708661417
21
-0.8609744094488189
0
LINE
8
BLACK
6
CONTINUOUS
10
-1.5979330708661417
20
-0.8609744094488189
11
-1.5972775196850393
21
-0.8576786614173229
0
LINE
8
BLACK
6
CONTINUOUS
10
-1.5972775196850393
20
-0.8576786614173229
11
-1.5954106299212598
21
-0.8548846456692913
0
LINE
8
BLACK
6
CONTINUOUS
10
-1.5954106299212598
20
-0.8548846456692913
11
-1.5926166141732283
21
-0.8530177559055118
0
LINE
8
BLACK
6
CONTINUOUS
10
-1.5926166141732283
20
-0.8530177559055118
11
-1.5893208661417322
21
-0.8523622047244094
0
LINE
8
BLACK
6
CONTINUOUS
10
-1.5893208661417322
20
-0.8523622047244094
11
-1.5691437007874016
21
-0.8523622047244094
0
LINE
8
BLACK
6
CONTINUOUS
10
-1.5691437007874016
20
-0.8523622047244094
11
-1.5658479527559055
21
-0.8530177559055118
0
LINE
8
BLACK
6
CONTINUOUS
10
-1.368997559055118
20
-0.8520335039370078
11
-1.3662035433070865
21
-0.8539003937007874
0
LINE
8
BLACK
6
CONTINUOUS
10
-1.3662035433070865
20
-0.8539003937007874
11
-1.364336653543307
21
-0.8566944094488189
0
LINE
8
BLACK
6
CONTINUOUS
10
-1.364336653543307
20
-0.8566944094488189
11
-1.3636811023622046
21
-0.8599901574803149
0
LINE
8
BLACK
6
CONTINUOUS
10
-1.3636811023622046
20
-0.8599901574803149
11
-1.3636811023622046
21
-0.8772145669291338
0
LINE
8
BLACK
6
CONTINUOUS
10
-1.3636811023622046
20
-0.8772145669291338
11
-1.364336653543307
21
-0.8805103149606299
0
LINE
8
BLACK
6
CONTINUOUS
10
-1.364336653543307
20
-0.8805103149606299
11
-1.3662035433070865
21
-0.8833043307086614
0
LINE
8
BLACK
6
CONTINUOUS
10
-1.3662035433070865
20
-0.8833043307086614
11
-1.368997559055118
21
-0.8851712204724409
0
LINE
8
BLACK
6
CONTINUOUS
10
-1.368997559055118
20
-0.8851712204724409
11
-1.3722933070866141
21
-0.8858267716535433
0
LINE
8
BLACK
6
CONTINUOUS
10
-1.3722933070866141
20
-0.8858267716535433
11
-1.3924704724409449
21
-0.8858267716535433
0
LINE
8
BLACK
6
CONTINUOUS
10
-1.3924704724409449
20
-0.8858267716535433
11
-1.3957662204724408
21
-0.8851712204724409
0
LINE
8
BLACK
6
CONTINUOUS
10
-1.3957662204724408
20
-0.8851712204724409
11
-1.3985602362204723
21
-0.8833043307086614
0
LINE
8
BLACK
6
CONTINUOUS
10
-1.3985602362204723
20
-0.8833043307086614
11
-1.400427125984252
21
-0.8805103149606299
0
LINE
8
BLACK
6
CONTINUOUS
10
-1.400427125984252
20
-0.8805103149606299
11
-1.4010826771653544
21
-0.8772145669291338
0
LINE
8
BLACK
6
CONTINUOUS
10
-1.4010826771653544
20
-0.8772145669291338
11
-1.4010826771653544
21
-0.8599901574803149
0
LINE
8
BLACK
6
CONTINUOUS
10
-1.4010826771653544
20
-0.8599901574803149
11
-1.400427125984252
21
-0.8566944094488189
0
LINE
8
BLACK
6
CONTINUOUS
10
-1.400427125984252
20
-0.8566944094488189
11
-1.3985602362204723
21
-0.8539003937007874
0
LINE
8
BLACK
6
CONTINUOUS
10
-1.3985602362204723
20
-0.8539003937007874
11
-1.3957662204724408
21
-0.8520335039370078
0
LINE
8
BLACK
6
CONTINUOUS
10
-1.3957662204724408
20
-0.8520335039370078
11
-1.3924704724409449
21
-0.8513779527559054
0
LINE
8
BLACK
6
CONTINUOUS
10
-1.3924704724409449
20
-0.8513779527559054
11
-1.3722933070866141
21
-0.8513779527559054
0
LINE
8
BLACK
6
CONTINUOUS
10
-1.3722933070866141
20
-0.8513779527559054
11
-1.368997559055118
21
-0.8520335039370078
0
LINE
8
BLACK
6
CONTINUOUS
10
-0.9421298031496063
20
-0.8469062204724409
11
-0.940213937007874
21
-0.8481863779527559
0
LINE
8
BLACK
6
CONTINUOUS
10
-0.940213937007874
20
-0.8481863779527559
11
-0.9389337795275591
21
-0.8501022440944882
0
LINE
8
BLACK
6
CONTINUOUS
10
-0.9389337795275591
20
-0.8501022440944882
11
-0.9384842519685039
21
-0.8523622047244094
0
LINE
8
BLACK
6
CONTINUOUS
10
-0.9384842519685039
20
-0.8523622047244094
11
-0.9384842519685039
21
-0.8641732283464567
0
LINE
8
BLACK
6
CONTINUOUS
10
-0.9384842519685039
20
-0.8641732283464567
11
-0.9389337795275591
21
-0.8664331889763779
0
LINE
8
BLACK
6
CONTINUOUS
10
-0.9389337795275591
20
-0.8664331889763779
11
-0.940213937007874
21
-0.8683490551181102
0
LINE
8
BLACK
6
CONTINUOUS
10
-0.940213937007874
20
-0.8683490551181102
11
-0.9421298031496063
21
-0.8696292125984252
0
LINE
8
BLACK
6
CONTINUOUS
10
-0.9421298031496063
20
-0.8696292125984252
11
-0.9443897637795275
21
-0.8700787401574803
0
LINE
8
BLACK
6
CONTINUOUS
10
-0.9443897637795275
20
-0.8700787401574803
11
-0.984744094488189
21
-0.8700787401574803
0
LINE
8
BLACK
6
CONTINUOUS
10
-0.984744094488189
20
-0.8700787401574803
11
-0.9870040551181102
21
-0.8696292125984252
0
LINE
8
BLACK
6
CONTINUOUS
10
-0.9870040551181102
20
-0.8696292125984252
11
-0.9889199212598425
21
-0.8683490551181102
0
LINE
8
BLACK
6
CONTINUOUS
10
-0.9889199212598425
20
-0.8683490551181102
11
-0.9902000787401575
21
-0.8664331889763779
0
LINE
8
BLACK
6
CONTINUOUS
10
-0.9902000787401575
20
-0.8664331889763779
11
-0.9906496062992126
21
-0.8641732283464567
0
LINE
8
BLACK
6
CONTINUOUS
10
-0.9906496062992126
20
-0.8641732283464567
11
-0.9906496062992126
21
-0.8523622047244094
0
LINE
8
BLACK
6
CONTINUOUS
10
-0.9906496062992126
20
-0.8523622047244094
11
-0.9902000787401575
21
-0.8501022440944882
0
LINE
8
BLACK
6
CONTINUOUS
10
-0.9902000787401575
20
-0.8501022440944882
11
-0.9889199212598425
21
-0.8481863779527559
0
LINE
8
BLACK
6
CONTINUOUS
10
-0.9889199212598425
20
-0.8481863779527559
11
-0.9870040551181102
21
-0.8469062204724409
0
LINE
8
BLACK
6
CONTINUOUS
10
-0.9870040551181102
20
-0.8469062204724409
11
-0.984744094488189
21
-0.8464566929133858
0
LINE
8
BLACK
6
CONTINUOUS
10
-0.984744094488189
20
-0.8464566929133858
11
-0.9443897637795275
21
-0.8464566929133858
0
LINE
8
BLACK
6
CONTINUOUS
10
-0.9443897637795275
20
-0.8464566929133858
11
-0.9421298031496063
21
-0.8469062204724409
0
LINE
8
BLACK
6
CONTINUOUS
10
-1.102070748031496
20
-0.8429692125984252
11
-1.1001548818897637
21
-0.8442493700787401
0
LINE
8
BLACK
6
CONTINUOUS
10
-1.1001548818897637
20
-0.8442493700787401
11
-1.0988747244094488
21
-0.8461652362204725
0
LINE
8
BLACK
6
CONTINUOUS
10
-1.0988747244094488
20
-0.8461652362204725
11
-1.0984251968503937
21
-0.8484251968503936
0
LINE
8
BLACK
6
CONTINUOUS
10
-1.0984251968503937
20
-0.8484251968503936
11
-1.0984251968503937
21
-0.860236220472441
0
LINE
8
BLACK
6
CONTINUOUS
10
-1.0984251968503937
20
-0.860236220472441
11
-1.0988747244094488
21
-0.8624961811023621
0
LINE
8
BLACK
6
CONTINUOUS
10
-1.0988747244094488
20
-0.8624961811023621
11
-1.1001548818897637
21
-0.8644120472440945
0
LINE
8
BLACK
6
CONTINUOUS
10
-1.1001548818897637
20
-0.8644120472440945
11
-1.102070748031496
21
-0.8656922047244094
0
LINE
8
BLACK
6
CONTINUOUS
10
-1.102070748031496
20
-0.8656922047244094
11
-1.1043307086614174
21
-0.8661417322834646
0
LINE
8
BLACK
6
CONTINUOUS
10
-1.1043307086614174
20
-0.8661417322834646
11
-1.1200787401574803
21
-0.8661417322834646
0
LINE
8
BLACK
6
CONTINUOUS
10
-1.1200787401574803
20
-0.8661417322834646
11
-1.1223387007874015
21
-0.8656922047244094
0
LINE
8
BLACK
6
CONTINUOUS
10
-1.1223387007874015
20
-0.8656922047244094
11
-1.1242545669291337
21
-0.8644120472440945
0
LINE
8
BLACK
6
CONTINUOUS
10
-1.1242545669291337
20
-0.8644120472440945
11
-1.1255347244094487
21
-0.8624961811023621
0
LINE
8
BLACK
6
CONTINUOUS
10
-1.1255347244094487
20
-0.8624961811023621
11
-1.1259842519685039
21
-0.860236220472441
0
LINE
8
BLACK
6
CONTINUOUS
10
-1.1259842519685039
20
-0.860236220472441
11
-1.1259842519685039
21
-0.8484251968503936
0
LINE
8
BLACK
6
CONTINUOUS
10
-1.1259842519685039
20
-0.8484251968503936
11
-1.1255347244094487
21
-0.8461652362204725
0
LINE
8
BLACK
6
CONTINUOUS
10
-1.1255347244094487
20
-0.8461652362204725
11
-1.1242545669291337
21
-0.8442493700787401
0
LINE
8
BLACK
6
CONTINUOUS
10
-1.1242545669291337
20
-0.8442493700787401
11
-1.1223387007874015
21
-0.8429692125984252
0
LINE
8
BLACK
6
CONTINUOUS
10
-1.1223387007874015
20
-0.8429692125984252
11
-1.1200787401574803
21
-0.84251968503937
0
LINE
8
BLACK
6
CONTINUOUS
10
-1.1200787401574803
20
-0.84251968503937
11
-1.1043307086614174
21
-0.84251968503937
0
LINE
8
BLACK
6
CONTINUOUS
10
-1.1043307086614174
20
-0.84251968503937
11
-1.102070748031496
21
-0.8429692125984252
0
LINE
8
BLACK
6
CONTINUOUS
10
-0.6406511023622047
20
-0.8106949212598425
11
-0.6378570866141732
21
-0.812561811023622
0
LINE
8
BLACK
6
CONTINUOUS
10
-0.6378570866141732
20
-0.812561811023622
11
-0.6359901968503937
21
-0.8153558267716535
0
LINE
8
BLACK
6
CONTINUOUS
10
-0.6359901968503937
20
-0.8153558267716535
11
-0.6353346456692913
21
-0.8186515748031495
0
LINE
8
BLACK
6
CONTINUOUS
10
-0.6353346456692913
20
-0.8186515748031495
11
-0.6353346456692913
21
-0.8358759842519685
0
LINE
8
BLACK
6
CONTINUOUS
10
-0.6353346456692913
20
-0.8358759842519685
11
-0.6359901968503937
21
-0.8391717322834645
0
LINE
8
BLACK
6
CONTINUOUS
10
-0.6359901968503937
20
-0.8391717322834645
11
-0.6378570866141732
21
-0.841965748031496
0
LINE
8
BLACK
6
CONTINUOUS
10
-0.6378570866141732
20
-0.841965748031496
11
-0.6406511023622047
21
-0.8438326377952756
0
LINE
8
BLACK
6
CONTINUOUS
10
-0.6406511023622047
20
-0.8438326377952756
11
-0.6439468503937008
21
-0.8444881889763779
0
LINE
8
BLACK
6
CONTINUOUS
10
-0.6439468503937008
20
-0.8444881889763779
11
-0.6641240157480315
21
-0.8444881889763779
0
LINE
8
BLACK
6
CONTINUOUS
10
-0.6641240157480315
20
-0.8444881889763779
11
-0.6674197637795275
21
-0.8438326377952756
0
LINE
8
BLACK
6
CONTINUOUS
10
-0.6674197637795275
20
-0.8438326377952756
11
-0.670213779527559
21
-0.841965748031496
0
LINE
8
BLACK
6
CONTINUOUS
10
-0.670213779527559
20
-0.841965748031496
11
-0.6720806692913386
21
-0.8391717322834645
0
LINE
8
BLACK
6
CONTINUOUS
10
-0.6720806692913386
20
-0.8391717322834645
11
-0.672736220472441
21
-0.8358759842519685
0
LINE
8
BLACK
6
CONTINUOUS
10
-0.672736220472441
20
-0.8358759842519685
11
-0.672736220472441
21
-0.8186515748031495
0
LINE
8
BLACK
6
CONTINUOUS
10
-0.672736220472441
20
-0.8186515748031495
11
-0.6720806692913386
21
-0.8153558267716535
0
LINE
8
BLACK
6
CONTINUOUS
10
-0.6720806692913386
20
-0.8153558267716535
11
-0.670213779527559
21
-0.812561811023622
0
LINE
8
BLACK
6
CONTINUOUS
10
-0.670213779527559
20
-0.812561811023622
11
-0.6674197637795275
21
-0.8106949212598425
0
LINE
8
BLACK
6
CONTINUOUS
10
-0.6674197637795275
20
-0.8106949212598425
11
-0.6641240157480315
21
-0.8100393700787402
0
LINE
8
BLACK
6
CONTINUOUS
10
-0.6641240157480315
20
-0.8100393700787402
11
-0.6439468503937008
21
-0.8100393700787402
0
LINE
8
BLACK
6
CONTINUOUS
10
-0.6439468503937008
20
-0.8100393700787402
11
-0.6406511023622047
21
-0.8106949212598425
0
LINE
8
BLACK
6
CONTINUOUS
10
-0.9421298031496063
20
-0.8095046456692914
11
-0.940213937007874
21
-0.8107848031496063
0
LINE
8
BLACK
6
CONTINUOUS
10
-0.940213937007874
20
-0.8107848031496063
11
-0.9389337795275591
21
-0.8127006692913386
0
LINE
8
BLACK
6
CONTINUOUS
10
-0.9389337795275591
20
-0.8127006692913386
11
-0.9384842519685039
21
-0.8149606299212598
0
LINE
8
BLACK
6
CONTINUOUS
10
-0.9384842519685039
20
-0.8149606299212598
11
-0.9384842519685039
21
-0.8267716535433071
0
LINE
8
BLACK
6
CONTINUOUS
10
-0.9384842519685039
20
-0.8267716535433071
11
-0.9389337795275591
21
-0.8290316141732283
0
LINE
8
BLACK
6
CONTINUOUS
10
-0.9389337795275591
20
-0.8290316141732283
11
-0.940213937007874
21
-0.8309474803149606
0
LINE
8
BLACK
6
CONTINUOUS
10
-0.940213937007874
20
-0.8309474803149606
11
-0.9421298031496063
21
-0.8322276377952755
0
LINE
8
BLACK
6
CONTINUOUS
10
-0.9421298031496063
20
-0.8322276377952755
11
-0.9443897637795275
21
-0.8326771653543307
0
LINE
8
BLACK
6
CONTINUOUS
10
-0.9443897637795275
20
-0.8326771653543307
11
-0.984744094488189
21
-0.8326771653543307
0
LINE
8
BLACK
6
CONTINUOUS
10
-0.984744094488189
20
-0.8326771653543307
11
-0.9870040551181102
21
-0.8322276377952755
0
LINE
8
BLACK
6
CONTINUOUS
10
-0.9870040551181102
20
-0.8322276377952755
11
-0.9889199212598425
21
-0.8309474803149606
0
LINE
8
BLACK
6
CONTINUOUS
10
-0.9889199212598425
20
-0.8309474803149606
11
-0.9902000787401575
21
-0.8290316141732283
0
LINE
8
BLACK
6
CONTINUOUS
10
-0.9902000787401575
20
-0.8290316141732283
11
-0.9906496062992126
21
-0.8267716535433071
0
LINE
8
BLACK
6
CONTINUOUS
10
-0.9906496062992126
20
-0.8267716535433071
11
-0.9906496062992126
21
-0.8149606299212598
0
LINE
8
BLACK
6
CONTINUOUS
10
-0.9906496062992126
20
-0.8149606299212598
11
-0.9902000787401575
21
-0.8127006692913386
0
LINE
8
BLACK
6
CONTINUOUS
10
-0.9902000787401575
20
-0.8127006692913386
11
-0.9889199212598425
21
-0.8107848031496063
0
LINE
8
BLACK
6
CONTINUOUS
10
-0.9889199212598425
20
-0.8107848031496063
11
-0.9870040551181102
21
-0.8095046456692914
0
LINE
8
BLACK
6
CONTINUOUS
10
-0.9870040551181102
20
-0.8095046456692914
11
-0.984744094488189
21
-0.8090551181102362
0
LINE
8
BLACK
6
CONTINUOUS
10
-0.984744094488189
20
-0.8090551181102362
11
-0.9443897637795275
21
-0.8090551181102362
0
LINE
8
BLACK
6
CONTINUOUS
10
-0.9443897637795275
20
-0.8090551181102362
11
-0.9421298031496063
21
-0.8095046456692914
0
LINE
8
BLACK
6
CONTINUOUS
10
-0.852562874015748
20
-0.8095046456692914
11
-0.8506470078740157
21
-0.8107848031496063
0
LINE
8
BLACK
6
CONTINUOUS
10
-0.8506470078740157
20
-0.8107848031496063
11
-0.8493668503937007
21
-0.8127006692913386
0
LINE
8
BLACK
6
CONTINUOUS
10
-0.8493668503937007
20
-0.8127006692913386
11
-0.8489173228346456
21
-0.8149606299212598
0
LINE
8
BLACK
6
CONTINUOUS
10
-0.8489173228346456
20
-0.8149606299212598
11
-0.8489173228346456
21
-0.8267716535433071
0
LINE
8
BLACK
6
CONTINUOUS
10
-0.8489173228346456
20
-0.8267716535433071
11
-0.8493668503937007
21
-0.8290316141732283
0
LINE
8
BLACK
6
CONTINUOUS
10
-0.8493668503937007
20
-0.8290316141732283
11
-0.8506470078740157
21
-0.8309474803149606
0
LINE
8
BLACK
6
CONTINUOUS
10
-0.8506470078740157
20
-0.8309474803149606
11
-0.852562874015748
21
-0.8322276377952755
0
LINE
8
BLACK
6
CONTINUOUS
10
-0.852562874015748
20
-0.8322276377952755
11
-0.8548228346456693
21
-0.8326771653543307
0
LINE
8
BLACK
6
CONTINUOUS
10
-0.8548228346456693
20
-0.8326771653543307
11
-0.8951771653543307
21
-0.8326771653543307
0
LINE
8
BLACK
6
CONTINUOUS
10
-0.8951771653543307
20
-0.8326771653543307
11
-0.897437125984252
21
-0.8322276377952755
0
LINE
8
BLACK
6
CONTINUOUS
10
-0.897437125984252
20
-0.8322276377952755
11
-0.8993529921259842
21
-0.8309474803149606
0
LINE
8
BLACK
6
CONTINUOUS
10
-0.8993529921259842
20
-0.8309474803149606
11
-0.9006331496062991
21
-0.8290316141732283
0
LINE
8
BLACK
6
CONTINUOUS
10
-0.9006331496062991
20
-0.8290316141732283
11
-0.9010826771653543
21
-0.8267716535433071
0
LINE
8
BLACK
6
CONTINUOUS
10
-0.9010826771653543
20
-0.8267716535433071
11
-0.9010826771653543
21
-0.8149606299212598
0
LINE
8
BLACK
6
CONTINUOUS
10
-0.9010826771653543
20
-0.8149606299212598
11
-0.9006331496062991
21
-0.8127006692913386
0
LINE
8
BLACK
6
CONTINUOUS
10
-0.9006331496062991
20
-0.8127006692913386
11
-0.8993529921259842
21
-0.8107848031496063
0
LINE
8
BLACK
6
CONTINUOUS
10
-0.8993529921259842
20
-0.8107848031496063
11
-0.897437125984252
21
-0.8095046456692914
0
LINE
8
BLACK
6
CONTINUOUS
10
-0.897437125984252
20
-0.8095046456692914
11
-0.8951771653543307
21
-0.8090551181102362
0
LINE
8
BLACK
6
CONTINUOUS
10
-0.8951771653543307
20
-0.8090551181102362
11
-0.8548228346456693
21
-0.8090551181102362
0
LINE
8
BLACK
6
CONTINUOUS
10
-0.8548228346456693
20
-0.8090551181102362
11
-0.852562874015748
21
-0.8095046456692914
0
LINE
8
BLACK
6
CONTINUOUS
10
-1.5658479527559055
20
-0.7910098818897637
11
-1.563053937007874
21
-0.7928767716535433
0
LINE
8
BLACK
6
CONTINUOUS
10
-1.563053937007874
20
-0.7928767716535433
11
-1.5611870472440945
21
-0.7956707874015748
0
LINE
8
BLACK
6
CONTINUOUS
10
-1.5611870472440945
20
-0.7956707874015748
11
-1.5605314960629921
21
-0.7989665354330708
0
LINE
8
BLACK
6
CONTINUOUS
10
-1.5605314960629921
20
-0.7989665354330708
11
-1.5605314960629921
21
-0.8161909448818897
0
LINE
8
BLACK
6
CONTINUOUS
10
-1.5605314960629921
20
-0.8161909448818897
11
-1.5611870472440945
21
-0.8194866929133858
0
LINE
8
BLACK
6
CONTINUOUS
10
-1.5611870472440945
20
-0.8194866929133858
11
-1.563053937007874
21
-0.8222807086614173
0
LINE
8
BLACK
6
CONTINUOUS
10
-1.563053937007874
20
-0.8222807086614173
11
-1.5658479527559055
21
-0.8241475984251968
0
LINE
8
BLACK
6
CONTINUOUS
10
-1.5658479527559055
20
-0.8241475984251968
11
-1.5691437007874016
21
-0.8248031496062992
0
LINE
8
BLACK
6
CONTINUOUS
10
-1.5691437007874016
20
-0.8248031496062992
11
-1.5893208661417322
21
-0.8248031496062992
0
LINE
8
BLACK
6
CONTINUOUS
10
-1.5893208661417322
20
-0.8248031496062992
11
-1.5926166141732283
21
-0.8241475984251968
0
LINE
8
BLACK
6
CONTINUOUS
10
-1.5926166141732283
20
-0.8241475984251968
11
-1.5954106299212598
21
-0.8222807086614173
0
LINE
8
BLACK
6
CONTINUOUS
10
-1.5954106299212598
20
-0.8222807086614173
11
-1.5972775196850393
21
-0.8194866929133858
0
LINE
8
BLACK
6
CONTINUOUS
10
-1.5972775196850393
20
-0.8194866929133858
11
-1.5979330708661417
21
-0.8161909448818897
0
LINE
8
BLACK
6
CONTINUOUS
10
-1.5979330708661417
20
-0.8161909448818897
11
-1.5979330708661417
21
-0.7989665354330708
0
LINE
8
BLACK
6
CONTINUOUS
10
-1.5979330708661417
20
-0.7989665354330708
11
-1.5972775196850393
21
-0.7956707874015748
0
LINE
8
BLACK
6
CONTINUOUS
10
-1.5972775196850393
20
-0.7956707874015748
11
-1.5954106299212598
21
-0.7928767716535433
0
LINE
8
BLACK
6
CONTINUOUS
10
-1.5954106299212598
20
-0.7928767716535433
11
-1.5926166141732283
21
-0.7910098818897637
0
LINE
8
BLACK
6
CONTINUOUS
10
-1.5926166141732283
20
-0.7910098818897637
11
-1.5893208661417322
21
-0.7903543307086613
0
LINE
8
BLACK
6
CONTINUOUS
10
-1.5893208661417322
20
-0.7903543307086613
11
-1.5691437007874016
21
-0.7903543307086613
0
LINE
8
BLACK
6
CONTINUOUS
10
-1.5691437007874016
20
-0.7903543307086613
11
-1.5658479527559055
21
-0.7910098818897637
0
LINE
8
BLACK
6
CONTINUOUS
10
-1.368997559055118
20
-0.7900256299212598
11
-1.3662035433070865
21
-0.7918925196850394
0
LINE
8
BLACK
6
CONTINUOUS
10
-1.3662035433070865
20
-0.7918925196850394
11
-1.364336653543307
21
-0.7946865354330709
0
LINE
8
BLACK
6
CONTINUOUS
10
-1.364336653543307
20
-0.7946865354330709
11
-1.3636811023622046
21
-0.7979822834645669
0
LINE
8
BLACK
6
CONTINUOUS
10
-1.3636811023622046
20
-0.7979822834645669
11
-1.3636811023622046
21
-0.8152066929133858
0
LINE
8
BLACK
6
CONTINUOUS
10
-1.3636811023622046
20
-0.8152066929133858
11
-1.364336653543307
21
-0.8185024409448819
0
LINE
8
BLACK
6
CONTINUOUS
10
-1.364336653543307
20
-0.8185024409448819
11
-1.3662035433070865
21
-0.8212964566929134
0
LINE
8
BLACK
6
CONTINUOUS
10
-1.3662035433070865
20
-0.8212964566929134
11
-1.368997559055118
21
-0.8231633464566929
0
LINE
8
BLACK
6
CONTINUOUS
10
-1.368997559055118
20
-0.8231633464566929
11
-1.3722933070866141
21
-0.8238188976377953
0
LINE
8
BLACK
6
CONTINUOUS
10
-1.3722933070866141
20
-0.8238188976377953
11
-1.3924704724409449
21
-0.8238188976377953
0
LINE
8
BLACK
6
CONTINUOUS
10
-1.3924704724409449
20
-0.8238188976377953
11
-1.3957662204724408
21
-0.8231633464566929
0
LINE
8
BLACK
6
CONTINUOUS
10
-1.3957662204724408
20
-0.8231633464566929
11
-1.3985602362204723
21
-0.8212964566929134
0
LINE
8
BLACK
6
CONTINUOUS
10
-1.3985602362204723
20
-0.8212964566929134
11
-1.400427125984252
21
-0.8185024409448819
0
LINE
8
BLACK
6
CONTINUOUS
10
-1.400427125984252
20
-0.8185024409448819
11
-1.4010826771653544
21
-0.8152066929133858
0
LINE
8
BLACK
6
CONTINUOUS
10
-1.4010826771653544
20
-0.8152066929133858
11
-1.4010826771653544
21
-0.7979822834645669
0
LINE
8
BLACK
6
CONTINUOUS
10
-1.4010826771653544
20
-0.7979822834645669
11
-1.400427125984252
21
-0.7946865354330709
0
LINE
8
BLACK
6
CONTINUOUS
10
-1.400427125984252
20
-0.7946865354330709
11
-1.3985602362204723
21
-0.7918925196850394
0
LINE
8
BLACK
6
CONTINUOUS
10
-1.3985602362204723
20
-0.7918925196850394
11
-1.3957662204724408
21
-0.7900256299212598
0
LINE
8
BLACK
6
CONTINUOUS
10
-1.3957662204724408
20
-0.7900256299212598
11
-1.3924704724409449
21
-0.7893700787401574
0
LINE
8
BLACK
6
CONTINUOUS
10
-1.3924704724409449
20
-0.7893700787401574
11
-1.3722933070866141
21
-0.7893700787401574
0
LINE
8
BLACK
6
CONTINUOUS
10
-1.3722933070866141
20
-0.7893700787401574
11
-1.368997559055118
21
-0.7900256299212598
0
LINE
8
BLACK
6
CONTINUOUS
10
-1.102070748031496
20
-0.7878511023622047
11
-1.1001548818897637
21
-0.7891312598425196
0
LINE
8
BLACK
6
CONTINUOUS
10
-1.1001548818897637
20
-0.7891312598425196
11
-1.0988747244094488
21
-0.791047125984252
0
LINE
8
BLACK
6
CONTINUOUS
10
-1.0988747244094488
20
-0.791047125984252
11
-1.0984251968503937
21
-0.7933070866141733
0
LINE
8
BLACK
6
CONTINUOUS
10
-1.0984251968503937
20
-0.7933070866141733
11
-1.0984251968503937
21
-0.8051181102362205
0
LINE
8
BLACK
6
CONTINUOUS
10
-1.0984251968503937
20
-0.8051181102362205
11
-1.0988747244094488
21
-0.8073780708661417
0
LINE
8
BLACK
6
CONTINUOUS
10
-1.0988747244094488
20
-0.8073780708661417
11
-1.1001548818897637
21
-0.809293937007874
0
LINE
8
BLACK
6
CONTINUOUS
10
-1.1001548818897637
20
-0.809293937007874
11
-1.102070748031496
21
-0.810574094488189
0
LINE
8
BLACK
6
CONTINUOUS
10
-1.102070748031496
20
-0.810574094488189
11
-1.1043307086614174
21
-0.8110236220472441
0
LINE
8
BLACK
6
CONTINUOUS
10
-1.1043307086614174
20
-0.8110236220472441
11
-1.1200787401574803
21
-0.8110236220472441
0
LINE
8
BLACK
6
CONTINUOUS
10
-1.1200787401574803
20
-0.8110236220472441
11
-1.1223387007874015
21
-0.810574094488189
0
LINE
8
BLACK
6
CONTINUOUS
10
-1.1223387007874015
20
-0.810574094488189
11
-1.1242545669291337
21
-0.809293937007874
0
LINE
8
BLACK
6
CONTINUOUS
10
-1.1242545669291337
20
-0.809293937007874
11
-1.1255347244094487
21
-0.8073780708661417
0
LINE
8
BLACK
6
CONTINUOUS
10
-1.1255347244094487
20
-0.8073780708661417
11
-1.1259842519685039
21
-0.8051181102362205
0
LINE
8
BLACK
6
CONTINUOUS
10
-1.1259842519685039
20
-0.8051181102362205
11
-1.1259842519685039
21
-0.7933070866141733
0
LINE
8
BLACK
6
CONTINUOUS
10
-1.1259842519685039
20
-0.7933070866141733
11
-1.1255347244094487
21
-0.791047125984252
0
LINE
8
BLACK
6
CONTINUOUS
10
-1.1255347244094487
20
-0.791047125984252
11
-1.1242545669291337
21
-0.7891312598425196
0
LINE
8
BLACK
6
CONTINUOUS
10
-1.1242545669291337
20
-0.7891312598425196
11
-1.1223387007874015
21
-0.7878511023622047
0
LINE
8
BLACK
6
CONTINUOUS
10
-1.1223387007874015
20
-0.7878511023622047
11
-1.1200787401574803
21
-0.7874015748031495
0
LINE
8
BLACK
6
CONTINUOUS
10
-1.1200787401574803
20
-0.7874015748031495
11
-1.1043307086614174
21
-0.7874015748031495
0
LINE
8
BLACK
6
CONTINUOUS
10
-1.1043307086614174
20
-0.7874015748031495
11
-1.102070748031496
21
-0.7878511023622047
0
LINE
8
BLACK
6
CONTINUOUS
10
0.5812977165354331
20
-0.7595138188976378
11
0.5840917322834646
21
-0.7613807086614173
0
LINE
8
BLACK
6
CONTINUOUS
10
0.5840917322834646
20
-0.7613807086614173
11
0.585958622047244
21
-0.7641747244094488
0
LINE
8
BLACK
6
CONTINUOUS
10
0.585958622047244
20
-0.7641747244094488
11
0.5866141732283464
21
-0.7674704724409449
0
LINE
8
BLACK
6
CONTINUOUS
10
0.5866141732283464
20
-0.7674704724409449
11
0.5866141732283464
21
-0.7876476377952756
0
LINE
8
BLACK
6
CONTINUOUS
10
0.5866141732283464
20
-0.7876476377952756
11
0.585958622047244
21
-0.7909433858267716
0
LINE
8
BLACK
6
CONTINUOUS
10
0.585958622047244
20
-0.7909433858267716
11
0.5840917322834646
21
-0.7937374015748031
0
LINE
8
BLACK
6
CONTINUOUS
10
0.5840917322834646
20
-0.7937374015748031
11
0.5812977165354331
21
-0.7956042913385827
0
LINE
8
BLACK
6
CONTINUOUS
10
0.5812977165354331
20
-0.7956042913385827
11
0.578001968503937
21
-0.7962598425196851
0
LINE
8
BLACK
6
CONTINUOUS
10
0.578001968503937
20
-0.7962598425196851
11
0.5607775590551181
21
-0.7962598425196851
0
LINE
8
BLACK
6
CONTINUOUS
10
0.5607775590551181
20
-0.7962598425196851
11
0.557481811023622
21
-0.7956042913385827
0
LINE
8
BLACK
6
CONTINUOUS
10
0.557481811023622
20
-0.7956042913385827
11
0.5546877952755905
21
-0.7937374015748031
0
LINE
8
BLACK
6
CONTINUOUS
10
0.5546877952755905
20
-0.7937374015748031
11
0.552820905511811
21
-0.7909433858267716
0
LINE
8
BLACK
6
CONTINUOUS
10
0.552820905511811
20
-0.7909433858267716
11
0.5521653543307087
21
-0.7876476377952756
0
LINE
8
BLACK
6
CONTINUOUS
10
0.5521653543307087
20
-0.7876476377952756
11
0.5521653543307087
21
-0.7674704724409449
0
LINE
8
BLACK
6
CONTINUOUS
10
0.5521653543307087
20
-0.7674704724409449
11
0.552820905511811
21
-0.7641747244094488
0
LINE
8
BLACK
6
CONTINUOUS
10
0.552820905511811
20
-0.7641747244094488
11
0.5546877952755905
21
-0.7613807086614173
0
LINE
8
BLACK
6
CONTINUOUS
10
0.5546877952755905
20
-0.7613807086614173
11
0.557481811023622
21
-0.7595138188976378
0
LINE
8
BLACK
6
CONTINUOUS
10
0.557481811023622
20
-0.7595138188976378
11
0.5607775590551181
21
-0.7588582677165354
0
LINE
8
BLACK
6
CONTINUOUS
10
0.5607775590551181
20
-0.7588582677165354
11
0.578001968503937
21
-0.7588582677165354
0
LINE
8
BLACK
6
CONTINUOUS
10
0.578001968503937
20
-0.7588582677165354
11
0.5812977165354331
21
-0.7595138188976378
0
LINE
8
BLACK
6
CONTINUOUS
10
0.6433055905511811
20
-0.7595138188976378
11
0.6460996062992126
21
-0.7613807086614173
0
LINE
8
BLACK
6
CONTINUOUS
10
0.6460996062992126
20
-0.7613807086614173
11
0.6479664960629921
21
-0.7641747244094488
0
LINE
8
BLACK
6
CONTINUOUS
10
0.6479664960629921
20
-0.7641747244094488
11
0.6486220472440944
21
-0.7674704724409449
0
LINE
8
BLACK
6
CONTINUOUS
10
0.6486220472440944
20
-0.7674704724409449
11
0.6486220472440944
21
-0.7876476377952756
0
LINE
8
BLACK
6
CONTINUOUS
10
0.6486220472440944
20
-0.7876476377952756
11
0.6479664960629921
21
-0.7909433858267716
0
LINE
8
BLACK
6
CONTINUOUS
10
0.6479664960629921
20
-0.7909433858267716
11
0.6460996062992126
21
-0.7937374015748031
0
LINE
8
BLACK
6
CONTINUOUS
10
0.6460996062992126
20
-0.7937374015748031
11
0.6433055905511811
21
-0.7956042913385827
0
LINE
8
BLACK
6
CONTINUOUS
10
0.6433055905511811
20
-0.7956042913385827
11
0.6400098425196851
21
-0.7962598425196851
0
LINE
8
BLACK
6
CONTINUOUS
10
0.6400098425196851
20
-0.7962598425196851
11
0.6227854330708661
21
-0.7962598425196851
0
LINE
8
BLACK
6
CONTINUOUS
10
0.6227854330708661
20
-0.7962598425196851
11
0.6194896850393701
21
-0.7956042913385827
0
LINE
8
BLACK
6
CONTINUOUS
10
0.6194896850393701
20
-0.7956042913385827
11
0.6166956692913386
21
-0.7937374015748031
0
LINE
8
BLACK
6
CONTINUOUS
10
0.6166956692913386
20
-0.7937374015748031
11
0.614828779527559
21
-0.7909433858267716
0
LINE
8
BLACK
6
CONTINUOUS
10
0.614828779527559
20
-0.7909433858267716
11
0.6141732283464567
21
-0.7876476377952756
0
LINE
8
BLACK
6
CONTINUOUS
10
0.6141732283464567
20
-0.7876476377952756
11
0.6141732283464567
21
-0.7674704724409449
0
LINE
8
BLACK
6
CONTINUOUS
10
0.6141732283464567
20
-0.7674704724409449
11
0.614828779527559
21
-0.7641747244094488
0
LINE
8
BLACK
6
CONTINUOUS
10
0.614828779527559
20
-0.7641747244094488
11
0.6166956692913386
21
-0.7613807086614173
0
LINE
8
BLACK
6
CONTINUOUS
10
0.6166956692913386
20
-0.7613807086614173
11
0.6194896850393701
21
-0.7595138188976378
0
LINE
8
BLACK
6
CONTINUOUS
10
0.6194896850393701
20
-0.7595138188976378
11
0.6227854330708661
21
-0.7588582677165354
0
LINE
8
BLACK
6
CONTINUOUS
10
0.6227854330708661
20
-0.7588582677165354
11
0.6400098425196851
21
-0.7588582677165354
0
LINE
8
BLACK
6
CONTINUOUS
10
0.6400098425196851
20
-0.7588582677165354
11
0.6433055905511811
21
-0.7595138188976378
0
LINE
8
BLACK
6
CONTINUOUS
10
-2.1785812204724411
20
-0.6511899212598425
11
-2.1760267322834643
21
-0.6528968110236221
0
LINE
8
BLACK
6
CONTINUOUS
10
-2.1760267322834643
20
-0.6528968110236221
11
-2.1743198425196848
21
-0.6554512992125984
0
LINE
8
BLACK
6
CONTINUOUS
10
-2.1743198425196848
20
-0.6554512992125984
11
-2.1737204724409449
21
-0.6584645669291338
0
LINE
8
BLACK
6
CONTINUOUS
10
-2.1737204724409449
20
-0.6584645669291338
11
-2.1737204724409449
21
-0.6801181102362205
0
LINE
8
BLACK
6
CONTINUOUS
10
-2.1737204724409449
20
-0.6801181102362205
11
-2.1743198425196848
21
-0.6831313779527559
0
LINE
8
BLACK
6
CONTINUOUS
10
-2.1743198425196848
20
-0.6831313779527559
11
-2.1760267322834643
21
-0.6856858661417322
0
LINE
8
BLACK
6
CONTINUOUS
10
-2.1760267322834643
20
-0.6856858661417322
11
-2.1785812204724411
21
-0.6873927559055117
0
LINE
8
BLACK
6
CONTINUOUS
10
-2.1785812204724411
20
-0.6873927559055117
11
-2.1815944881889764
21
-0.687992125984252
0
LINE
8
BLACK
6
CONTINUOUS
10
-2.1815944881889764
20
-0.687992125984252
11
-2.1973425196850394
21
-0.687992125984252
0
LINE
8
BLACK
6
CONTINUOUS
10
-2.1973425196850394
20
-0.687992125984252
11
-2.2003557874015747
21
-0.6873927559055117
0
LINE
8
BLACK
6
CONTINUOUS
10
-2.2003557874015747
20
-0.6873927559055117
11
-2.202910275590551
21
-0.6856858661417322
0
LINE
8
BLACK
6
CONTINUOUS
10
-2.202910275590551
20
-0.6856858661417322
11
-2.2046171653543305
21
-0.6831313779527559
0
LINE
8
BLACK
6
CONTINUOUS
10
-2.2046171653543305
20
-0.6831313779527559
11
-2.2052165354330708
21
-0.6801181102362205
0
LINE
8
BLACK
6
CONTINUOUS
10
-2.2052165354330708
20
-0.6801181102362205
11
-2.2052165354330708
21
-0.6584645669291338
0
LINE
8
BLACK
6
CONTINUOUS
10
-2.2052165354330708
20
-0.6584645669291338
11
-2.2046171653543305
21
-0.6554512992125984
0
LINE
8
BLACK
6
CONTINUOUS
10
-2.2046171653543305
20
-0.6554512992125984
11
-2.202910275590551
21
-0.6528968110236221
0
LINE
8
BLACK
6
CONTINUOUS
10
-2.202910275590551
20
-0.6528968110236221
11
-2.2003557874015747
21
-0.6511899212598425
0
LINE
8
BLACK
6
CONTINUOUS
10
-2.2003557874015747
20
-0.6511899212598425
11
-2.1973425196850394
21
-0.6505905511811023
0
LINE
8
BLACK
6
CONTINUOUS
10
-2.1973425196850394
20
-0.6505905511811023
11
-2.1815944881889764
21
-0.6505905511811023
0
LINE
8
BLACK
6
CONTINUOUS
10
-2.1815944881889764
20
-0.6505905511811023
11
-2.1785812204724411
21
-0.6511899212598425
0
LINE
8
BLACK
6
CONTINUOUS
10
-2.1136205905511809
20
-0.6511899212598425
11
-2.1110661023622046
21
-0.6528968110236221
0
LINE
8
BLACK
6
CONTINUOUS
10
-2.1110661023622046
20
-0.6528968110236221
11
-2.1093592125984251
21
-0.6554512992125984
0
LINE
8
BLACK
6
CONTINUOUS
10
-2.1093592125984251
20
-0.6554512992125984
11
-2.1087598425196852
21
-0.6584645669291338
0
LINE
8
BLACK
6
CONTINUOUS
10
-2.1087598425196852
20
-0.6584645669291338
11
-2.1087598425196852
21
-0.6801181102362205
0
LINE
8
BLACK
6
CONTINUOUS
10
-2.1087598425196852
20
-0.6801181102362205
11
-2.1093592125984251
21
-0.6831313779527559
0
LINE
8
BLACK
6
CONTINUOUS
10
-2.1093592125984251
20
-0.6831313779527559
11
-2.1110661023622046
21
-0.6856858661417322
0
LINE
8
BLACK
6
CONTINUOUS
10
-2.1110661023622046
20
-0.6856858661417322
11
-2.1136205905511809
21
-0.6873927559055117
0
LINE
8
BLACK
6
CONTINUOUS
10
-2.1136205905511809
20
-0.6873927559055117
11
-2.1166338582677167
21
-0.687992125984252
0
LINE
8
BLACK
6
CONTINUOUS
10
-2.1166338582677167
20
-0.687992125984252
11
-2.1323818897637796
21
-0.687992125984252
0
LINE
8
BLACK
6
CONTINUOUS
10
-2.1323818897637796
20
-0.687992125984252
11
-2.1353951574803149
21
-0.6873927559055117
0
LINE
8
BLACK
6
CONTINUOUS
10
-2.1353951574803149
20
-0.6873927559055117
11
-2.1379496456692912
21
-0.6856858661417322
0
LINE
8
BLACK
6
CONTINUOUS
10
-2.1379496456692912
20
-0.6856858661417322
11
-2.1396565354330708
21
-0.6831313779527559
0
LINE
8
BLACK
6
CONTINUOUS
10
-2.1396565354330708
20
-0.6831313779527559
11
-2.1402559055118111
21
-0.6801181102362205
0
LINE
8
BLACK
6
CONTINUOUS
10
-2.1402559055118111
20
-0.6801181102362205
11
-2.1402559055118111
21
-0.6584645669291338
0
LINE
8
BLACK
6
CONTINUOUS
10
-2.1402559055118111
20
-0.6584645669291338
11
-2.1396565354330708
21
-0.6554512992125984
0
LINE
8
BLACK
6
CONTINUOUS
10
-2.1396565354330708
20
-0.6554512992125984
11
-2.1379496456692912
21
-0.6528968110236221
0
LINE
8
BLACK
6
CONTINUOUS
10
-2.1379496456692912
20
-0.6528968110236221
11
-2.1353951574803149
21
-0.6511899212598425
0
LINE
8
BLACK
6
CONTINUOUS
10
-2.1353951574803149
20
-0.6511899212598425
11
-2.1323818897637796
21
-0.6505905511811023
0
LINE
8
BLACK
6
CONTINUOUS
10
-2.1323818897637796
20
-0.6505905511811023
11
-2.1166338582677167
21
-0.6505905511811023
0
LINE
8
BLACK
6
CONTINUOUS
10
-2.1166338582677167
20
-0.6505905511811023
11
-2.1136205905511809
21
-0.6511899212598425
0
LINE
8
BLACK
6
CONTINUOUS
10
0.187007874015748
20
-0.6446850393700787
11
0.1437007874015748
21
-0.6446850393700787
0
LINE
8
BLACK
6
CONTINUOUS
10
0.1437007874015748
20
-0.6446850393700787
11
0.1437007874015748
21
-0.6348425196850394
0
LINE
8
BLACK
6
CONTINUOUS
10
0.1437007874015748
20
-0.6348425196850394
11
0.187007874015748
21
-0.6348425196850394
0
LINE
8
BLACK
6
CONTINUOUS
10
0.187007874015748
20
-0.6348425196850394
11
0.187007874015748
21
-0.6446850393700787
0
LINE
8
BLACK
6
CONTINUOUS
10
0.3562992125984252
20
-0.6446850393700787
11
0.312992125984252
21
-0.6446850393700787
0
LINE
8
BLACK
6
CONTINUOUS
10
0.312992125984252
20
-0.6446850393700787
11
0.312992125984252
21
-0.6348425196850394
0
LINE
8
BLACK
6
CONTINUOUS
10
0.312992125984252
20
-0.6348425196850394
11
0.3562992125984252
21
-0.6348425196850394
0
LINE
8
BLACK
6
CONTINUOUS
10
0.3562992125984252
20
-0.6348425196850394
11
0.3562992125984252
21
-0.6446850393700787
0
LINE
8
BLACK
6
CONTINUOUS
10
0.187007874015748
20
-0.625
11
0.1437007874015748
21
-0.625
0
LINE
8
BLACK
6
CONTINUOUS
10
0.1437007874015748
20
-0.625
11
0.1437007874015748
21
-0.6151574803149606
0
LINE
8
BLACK
6
CONTINUOUS
10
0.1437007874015748
20
-0.6151574803149606
11
0.187007874015748
21
-0.6151574803149606
0
LINE
8
BLACK
6
CONTINUOUS
10
0.187007874015748
20
-0.6151574803149606
11
0.187007874015748
21
-0.625
0
LINE
8
BLACK
6
CONTINUOUS
10
0.3562992125984252
20
-0.625
11
0.312992125984252
21
-0.625
0
LINE
8
BLACK
6
CONTINUOUS
10
0.312992125984252
20
-0.625
11
0.312992125984252
21
-0.6151574803149606
0
LINE
8
BLACK
6
CONTINUOUS
10
0.312992125984252
20
-0.6151574803149606
11
0.3562992125984252
21
-0.6151574803149606
0
LINE
8
BLACK
6
CONTINUOUS
10
0.3562992125984252
20
-0.6151574803149606
11
0.3562992125984252
21
-0.625
0
LINE
8
BLACK
6
CONTINUOUS
10
0.4562977165354331
20
-0.5853012204724409
11
0.4590917322834646
21
-0.5871681102362205
0
LINE
8
BLACK
6
CONTINUOUS
10
0.4590917322834646
20
-0.5871681102362205
11
0.4609586220472441
21
-0.5899621259842519
0
LINE
8
BLACK
6
CONTINUOUS
10
0.4609586220472441
20
-0.5899621259842519
11
0.4616141732283465
21
-0.593257874015748
0
LINE
8
BLACK
6
CONTINUOUS
10
0.4616141732283465
20
-0.593257874015748
11
0.4616141732283465
21
-0.6104822834645669
0
LINE
8
BLACK
6
CONTINUOUS
10
0.4616141732283465
20
-0.6104822834645669
11
0.4609586220472441
21
-0.613778031496063
0
LINE
8
BLACK
6
CONTINUOUS
10
0.4609586220472441
20
-0.613778031496063
11
0.4590917322834646
21
-0.6165720472440944
0
LINE
8
BLACK
6
CONTINUOUS
10
0.4590917322834646
20
-0.6165720472440944
11
0.4562977165354331
21
-0.618438937007874
0
LINE
8
BLACK
6
CONTINUOUS
10
0.4562977165354331
20
-0.618438937007874
11
0.453001968503937
21
-0.6190944881889764
0
LINE
8
BLACK
6
CONTINUOUS
10
0.453001968503937
20
-0.6190944881889764
11
0.4328248031496063
21
-0.6190944881889764
0
LINE
8
BLACK
6
CONTINUOUS
10
0.4328248031496063
20
-0.6190944881889764
11
0.4295290551181102
21
-0.618438937007874
0
LINE
8
BLACK
6
CONTINUOUS
10
0.4295290551181102
20
-0.618438937007874
11
0.4267350393700787
21
-0.6165720472440944
0
LINE
8
BLACK
6
CONTINUOUS
10
0.4267350393700787
20
-0.6165720472440944
11
0.4248681496062992
21
-0.613778031496063
0
LINE
8
BLACK
6
CONTINUOUS
10
0.4248681496062992
20
-0.613778031496063
11
0.4242125984251968
21
-0.6104822834645669
0
LINE
8
BLACK
6
CONTINUOUS
10
0.4242125984251968
20
-0.6104822834645669
11
0.4242125984251968
21
-0.593257874015748
0
LINE
8
BLACK
6
CONTINUOUS
10
0.4242125984251968
20
-0.593257874015748
11
0.4248681496062992
21
-0.5899621259842519
0
LINE
8
BLACK
6
CONTINUOUS
10
0.4248681496062992
20
-0.5899621259842519
11
0.4267350393700787
21
-0.5871681102362205
0
LINE
8
BLACK
6
CONTINUOUS
10
0.4267350393700787
20
-0.5871681102362205
11
0.4295290551181102
21
-0.5853012204724409
0
LINE
8
BLACK
6
CONTINUOUS
10
0.4295290551181102
20
-0.5853012204724409
11
0.4328248031496063
21
-0.5846456692913385
0
LINE
8
BLACK
6
CONTINUOUS
10
0.4328248031496063
20
-0.5846456692913385
11
0.453001968503937
21
-0.5846456692913385
0
LINE
8
BLACK
6
CONTINUOUS
10
0.453001968503937
20
-0.5846456692913385
11
0.4562977165354331
21
-0.5853012204724409
0
LINE
8
BLACK
6
CONTINUOUS
10
0.6433055905511811
20
-0.5853012204724409
11
0.6460996062992126
21
-0.5871681102362205
0
LINE
8
BLACK
6
CONTINUOUS
10
0.6460996062992126
20
-0.5871681102362205
11
0.6479664960629921
21
-0.5899621259842519
0
LINE
8
BLACK
6
CONTINUOUS
10
0.6479664960629921
20
-0.5899621259842519
11
0.6486220472440944
21
-0.593257874015748
0
LINE
8
BLACK
6
CONTINUOUS
10
0.6486220472440944
20
-0.593257874015748
11
0.6486220472440944
21
-0.6104822834645669
0
LINE
8
BLACK
6
CONTINUOUS
10
0.6486220472440944
20
-0.6104822834645669
11
0.6479664960629921
21
-0.613778031496063
0
LINE
8
BLACK
6
CONTINUOUS
10
0.6479664960629921
20
-0.613778031496063
11
0.6460996062992126
21
-0.6165720472440944
0
LINE
8
BLACK
6
CONTINUOUS
10
0.6460996062992126
20
-0.6165720472440944
11
0.6433055905511811
21
-0.618438937007874
0
LINE
8
BLACK
6
CONTINUOUS
10
0.6433055905511811
20
-0.618438937007874
11
0.6400098425196851
21
-0.6190944881889764
0
LINE
8
BLACK
6
CONTINUOUS
10
0.6400098425196851
20
-0.6190944881889764
11
0.6198326771653543
21
-0.6190944881889764
0
LINE
8
BLACK
6
CONTINUOUS
10
0.6198326771653543
20
-0.6190944881889764
11
0.6165369291338583
21
-0.618438937007874
0
LINE
8
BLACK
6
CONTINUOUS
10
0.6165369291338583
20
-0.618438937007874
11
0.6137429133858268
21
-0.6165720472440944
0
LINE
8
BLACK
6
CONTINUOUS
10
0.6137429133858268
20
-0.6165720472440944
11
0.6118760236220472
21
-0.613778031496063
0
LINE
8
BLACK
6
CONTINUOUS
10
0.6118760236220472
20
-0.613778031496063
11
0.6112204724409449
21
-0.6104822834645669
0
LINE
8
BLACK
6
CONTINUOUS
10
0.6112204724409449
20
-0.6104822834645669
11
0.6112204724409449
21
-0.593257874015748
0
LINE
8
BLACK
6
CONTINUOUS
10
0.6112204724409449
20
-0.593257874015748
11
0.6118760236220472
21
-0.5899621259842519
0
LINE
8
BLACK
6
CONTINUOUS
10
0.6118760236220472
20
-0.5899621259842519
11
0.6137429133858268
21
-0.5871681102362205
0
LINE
8
BLACK
6
CONTINUOUS
10
0.6137429133858268
20
-0.5871681102362205
11
0.6165369291338583
21
-0.5853012204724409
0
LINE
8
BLACK
6
CONTINUOUS
10
0.6165369291338583
20
-0.5853012204724409
11
0.6198326771653543
21
-0.5846456692913385
0
LINE
8
BLACK
6
CONTINUOUS
10
0.6198326771653543
20
-0.5846456692913385
11
0.6400098425196851
21
-0.5846456692913385
0
LINE
8
BLACK
6
CONTINUOUS
10
0.6400098425196851
20
-0.5846456692913385
11
0.6433055905511811
21
-0.5853012204724409
0
LINE
8
BLACK
6
CONTINUOUS
10
0.187007874015748
20
-0.6053149606299213
11
0.1437007874015748
21
-0.6053149606299213
0
LINE
8
BLACK
6
CONTINUOUS
10
0.1437007874015748
20
-0.6053149606299213
11
0.1437007874015748
21
-0.5954724409448818
0
LINE
8
BLACK
6
CONTINUOUS
10
0.1437007874015748
20
-0.5954724409448818
11
0.187007874015748
21
-0.5954724409448818
0
LINE
8
BLACK
6
CONTINUOUS
10
0.187007874015748
20
-0.5954724409448818
11
0.187007874015748
21
-0.6053149606299213
0
LINE
8
BLACK
6
CONTINUOUS
10
0.3562992125984252
20
-0.6053149606299213
11
0.312992125984252
21
-0.6053149606299213
0
LINE
8
BLACK
6
CONTINUOUS
10
0.312992125984252
20
-0.6053149606299213
11
0.312992125984252
21
-0.5954724409448818
0
LINE
8
BLACK
6
CONTINUOUS
10
0.312992125984252
20
-0.5954724409448818
11
0.3562992125984252
21
-0.5954724409448818
0
LINE
8
BLACK
6
CONTINUOUS
10
0.3562992125984252
20
-0.5954724409448818
11
0.3562992125984252
21
-0.6053149606299213
0
LINE
8
BLACK
6
CONTINUOUS
10
0.187007874015748
20
-0.5856299212598425
11
0.1437007874015748
21
-0.5856299212598425
0
LINE
8
BLACK
6
CONTINUOUS
10
0.1437007874015748
20
-0.5856299212598425
11
0.1437007874015748
21
-0.5757874015748031
0
LINE
8
BLACK
6
CONTINUOUS
10
0.1437007874015748
20
-0.5757874015748031
11
0.187007874015748
21
-0.5757874015748031
0
LINE
8
BLACK
6
CONTINUOUS
10
0.187007874015748
20
-0.5757874015748031
11
0.187007874015748
21
-0.5856299212598425
0
LINE
8
BLACK
6
CONTINUOUS
10
0.3562992125984252
20
-0.5856299212598425
11
0.312992125984252
21
-0.5856299212598425
0
LINE
8
BLACK
6
CONTINUOUS
10
0.312992125984252
20
-0.5856299212598425
11
0.312992125984252
21
-0.5757874015748031
0
LINE
8
BLACK
6
CONTINUOUS
10
0.312992125984252
20
-0.5757874015748031
11
0.3562992125984252
21
-0.5757874015748031
0
LINE
8
BLACK
6
CONTINUOUS
10
0.3562992125984252
20
-0.5757874015748031
11
0.3562992125984252
21
-0.5856299212598425
0
LINE
8
BLACK
6
CONTINUOUS
10
0.187007874015748
20
-0.5659448818897638
11
0.1437007874015748
21
-0.5659448818897638
0
LINE
8
BLACK
6
CONTINUOUS
10
0.1437007874015748
20
-0.5659448818897638
11
0.1437007874015748
21
-0.5561023622047244
0
LINE
8
BLACK
6
CONTINUOUS
10
0.1437007874015748
20
-0.5561023622047244
11
0.187007874015748
21
-0.5561023622047244
0
LINE
8
BLACK
6
CONTINUOUS
10
0.187007874015748
20
-0.5561023622047244
11
0.187007874015748
21
-0.5659448818897638
0
LINE
8
BLACK
6
CONTINUOUS
10
0.3562992125984252
20
-0.5659448818897638
11
0.312992125984252
21
-0.5659448818897638
0
LINE
8
BLACK
6
CONTINUOUS
10
0.312992125984252
20
-0.5659448818897638
11
0.312992125984252
21
-0.5561023622047244
0
LINE
8
BLACK
6
CONTINUOUS
10
0.312992125984252
20
-0.5561023622047244
11
0.3562992125984252
21
-0.5561023622047244
0
LINE
8
BLACK
6
CONTINUOUS
10
0.3562992125984252
20
-0.5561023622047244
11
0.3562992125984252
21
-0.5659448818897638
0
LINE
8
BLACK
6
CONTINUOUS
10
0.4562977165354331
20
-0.5232933464566929
11
0.4590917322834646
21
-0.5251602362204725
0
LINE
8
BLACK
6
CONTINUOUS
10
0.4590917322834646
20
-0.5251602362204725
11
0.4609586220472441
21
-0.5279542519685039
0
LINE
8
BLACK
6
CONTINUOUS
10
0.4609586220472441
20
-0.5279542519685039
11
0.4616141732283465
21
-0.53125
0
LINE
8
BLACK
6
CONTINUOUS
10
0.4616141732283465
20
-0.53125
11
0.4616141732283465
21
-0.5484744094488189
0
LINE
8
BLACK
6
CONTINUOUS
10
0.4616141732283465
20
-0.5484744094488189
11
0.4609586220472441
21
-0.551770157480315
0
LINE
8
BLACK
6
CONTINUOUS
10
0.4609586220472441
20
-0.551770157480315
11
0.4590917322834646
21
-0.5545641732283464
0
LINE
8
BLACK
6
CONTINUOUS
10
0.4590917322834646
20
-0.5545641732283464
11
0.4562977165354331
21
-0.556431062992126
0
LINE
8
BLACK
6
CONTINUOUS
10
0.4562977165354331
20
-0.556431062992126
11
0.453001968503937
21
-0.5570866141732284
0
LINE
8
BLACK
6
CONTINUOUS
10
0.453001968503937
20
-0.5570866141732284
11
0.4328248031496063
21
-0.5570866141732284
0
LINE
8
BLACK
6
CONTINUOUS
10
0.4328248031496063
20
-0.5570866141732284
11
0.4295290551181102
21
-0.556431062992126
0
LINE
8
BLACK
6
CONTINUOUS
10
0.4295290551181102
20
-0.556431062992126
11
0.4267350393700787
21
-0.5545641732283464
0
LINE
8
BLACK
6
CONTINUOUS
10
0.4267350393700787
20
-0.5545641732283464
11
0.4248681496062992
21
-0.551770157480315
0
LINE
8
BLACK
6
CONTINUOUS
10
0.4248681496062992
20
-0.551770157480315
11
0.4242125984251968
21
-0.5484744094488189
0
LINE
8
BLACK
6
CONTINUOUS
10
0.4242125984251968
20
-0.5484744094488189
11
0.4242125984251968
21
-0.53125
0
LINE
8
BLACK
6
CONTINUOUS
10
0.4242125984251968
20
-0.53125
11
0.4248681496062992
21
-0.5279542519685039
0
LINE
8
BLACK
6
CONTINUOUS
10
0.4248681496062992
20
-0.5279542519685039
11
0.4267350393700787
21
-0.5251602362204725
0
LINE
8
BLACK
6
CONTINUOUS
10
0.4267350393700787
20
-0.5251602362204725
11
0.4295290551181102
21
-0.5232933464566929
0
LINE
8
BLACK
6
CONTINUOUS
10
0.4295290551181102
20
-0.5232933464566929
11
0.4328248031496063
21
-0.5226377952755905
0
LINE
8
BLACK
6
CONTINUOUS
10
0.4328248031496063
20
-0.5226377952755905
11
0.453001968503937
21
-0.5226377952755905
0
LINE
8
BLACK
6
CONTINUOUS
10
0.453001968503937
20
-0.5226377952755905
11
0.4562977165354331
21
-0.5232933464566929
0
LINE
8
BLACK
6
CONTINUOUS
10
0.6433055905511811
20
-0.5232933464566929
11
0.6460996062992126
21
-0.5251602362204725
0
LINE
8
BLACK
6
CONTINUOUS
10
0.6460996062992126
20
-0.5251602362204725
11
0.6479664960629921
21
-0.5279542519685039
0
LINE
8
BLACK
6
CONTINUOUS
10
0.6479664960629921
20
-0.5279542519685039
11
0.6486220472440944
21
-0.53125
0
LINE
8
BLACK
6
CONTINUOUS
10
0.6486220472440944
20
-0.53125
11
0.6486220472440944
21
-0.5484744094488189
0
LINE
8
BLACK
6
CONTINUOUS
10
0.6486220472440944
20
-0.5484744094488189
11
0.6479664960629921
21
-0.551770157480315
0
LINE
8
BLACK
6
CONTINUOUS
10
0.6479664960629921
20
-0.551770157480315
11
0.6460996062992126
21
-0.5545641732283464
0
LINE
8
BLACK
6
CONTINUOUS
10
0.6460996062992126
20
-0.5545641732283464
11
0.6433055905511811
21
-0.556431062992126
0
LINE
8
BLACK
6
CONTINUOUS
10
0.6433055905511811
20
-0.556431062992126
11
0.6400098425196851
21
-0.5570866141732284
0
LINE
8
BLACK
6
CONTINUOUS
10
0.6400098425196851
20
-0.5570866141732284
11
0.6198326771653543
21
-0.5570866141732284
0
LINE
8
BLACK
6
CONTINUOUS
10
0.6198326771653543
20
-0.5570866141732284
11
0.6165369291338583
21
-0.556431062992126
0
LINE
8
BLACK
6
CONTINUOUS
10
0.6165369291338583
20
-0.556431062992126
11
0.6137429133858268
21
-0.5545641732283464
0
LINE
8
BLACK
6
CONTINUOUS
10
0.6137429133858268
20
-0.5545641732283464
11
0.6118760236220472
21
-0.551770157480315
0
LINE
8
BLACK
6
CONTINUOUS
10
0.6118760236220472
20
-0.551770157480315
11
0.6112204724409449
21
-0.5484744094488189
0
LINE
8
BLACK
6
CONTINUOUS
10
0.6112204724409449
20
-0.5484744094488189
11
0.6112204724409449
21
-0.53125
0
LINE
8
BLACK
6
CONTINUOUS
10
0.6112204724409449
20
-0.53125
11
0.6118760236220472
21
-0.5279542519685039
0
LINE
8
BLACK
6
CONTINUOUS
10
0.6118760236220472
20
-0.5279542519685039
11
0.6137429133858268
21
-0.5251602362204725
0
LINE
8
BLACK
6
CONTINUOUS
10
0.6137429133858268
20
-0.5251602362204725
11
0.6165369291338583
21
-0.5232933464566929
0
LINE
8
BLACK
6
CONTINUOUS
10
0.6165369291338583
20
-0.5232933464566929
11
0.6198326771653543
21
-0.5226377952755905
0
LINE
8
BLACK
6
CONTINUOUS
10
0.6198326771653543
20
-0.5226377952755905
11
0.6400098425196851
21
-0.5226377952755905
0
LINE
8
BLACK
6
CONTINUOUS
10
0.6400098425196851
20
-0.5226377952755905
11
0.6433055905511811
21
-0.5232933464566929
0
LINE
8
BLACK
6
CONTINUOUS
10
-0.2422964173228346
20
0.4923610236220473
11
-0.2391032677165354
21
0.4902274409448819
0
LINE
8
BLACK
6
CONTINUOUS
10
-0.2391032677165354
20
0.4902274409448819
11
-0.2369696850393701
21
0.4870342913385827
0
LINE
8
BLACK
6
CONTINUOUS
10
-0.2369696850393701
20
0.4870342913385827
11
-0.2362204724409449
21
0.483267716535433
0
LINE
8
BLACK
6
CONTINUOUS
10
-0.2362204724409449
20
0.483267716535433
11
-0.2362204724409449
21
0.4635826771653543
0
LINE
8
BLACK
6
CONTINUOUS
10
-0.2362204724409449
20
0.4635826771653543
11
-0.2369696850393701
21
0.4598161023622047
0
LINE
8
BLACK
6
CONTINUOUS
10
-0.2369696850393701
20
0.4598161023622047
11
-0.2391032677165354
21
0.4566229527559055
0
LINE
8
BLACK
6
CONTINUOUS
10
-0.2391032677165354
20
0.4566229527559055
11
-0.2422964173228346
21
0.4544893700787401
0
LINE
8
BLACK
6
CONTINUOUS
10
-0.2422964173228346
20
0.4544893700787401
11
-0.2460629921259843
21
0.4537401574803149
0
LINE
8
BLACK
6
CONTINUOUS
10
-0.2460629921259843
20
0.4537401574803149
11
-0.3326771653543307
21
0.4537401574803149
0
LINE
8
BLACK
6
CONTINUOUS
10
-0.3326771653543307
20
0.4537401574803149
11
-0.3364437401574803
21
0.4544893700787401
0
LINE
8
BLACK
6
CONTINUOUS
10
-0.3364437401574803
20
0.4544893700787401
11
-0.3396368897637795
21
0.4566229527559055
0
LINE
8
BLACK
6
CONTINUOUS
10
-0.3396368897637795
20
0.4566229527559055
11
-0.3417704724409449
21
0.4598161023622047
0
LINE
8
BLACK
6
CONTINUOUS
10
-0.3417704724409449
20
0.4598161023622047
11
-0.3425196850393701
21
0.4635826771653543
0
LINE
8
BLACK
6
CONTINUOUS
10
-0.3425196850393701
20
0.4635826771653543
11
-0.3425196850393701
21
0.483267716535433
0
LINE
8
BLACK
6
CONTINUOUS
10
-0.3425196850393701
20
0.483267716535433
11
-0.3417704724409449
21
0.4870342913385827
0
LINE
8
BLACK
6
CONTINUOUS
10
-0.3417704724409449
20
0.4870342913385827
11
-0.3396368897637795
21
0.4902274409448819
0
LINE
8
BLACK
6
CONTINUOUS
10
-0.3396368897637795
20
0.4902274409448819
11
-0.3364437401574803
21
0.4923610236220473
0
LINE
8
BLACK
6
CONTINUOUS
10
-0.3364437401574803
20
0.4923610236220473
11
-0.3326771653543307
21
0.4931102362204725
0
LINE
8
BLACK
6
CONTINUOUS
10
-0.3326771653543307
20
0.4931102362204725
11
-0.2460629921259843
21
0.4931102362204725
0
LINE
8
BLACK
6
CONTINUOUS
10
-0.2460629921259843
20
0.4931102362204725
11
-0.2422964173228346
21
0.4923610236220473
0
LINE
8
BLACK
6
CONTINUOUS
10
-0.1335668110236221
20
0.5576213385826772
11
-0.1316509448818897
21
0.5563411811023622
0
LINE
8
BLACK
6
CONTINUOUS
10
-0.1316509448818897
20
0.5563411811023622
11
-0.1303707874015748
21
0.5544253149606299
0
LINE
8
BLACK
6
CONTINUOUS
10
-0.1303707874015748
20
0.5544253149606299
11
-0.1299212598425197
21
0.5521653543307087
0
LINE
8
BLACK
6
CONTINUOUS
10
-0.1299212598425197
20
0.5521653543307087
11
-0.1299212598425197
21
0.5403543307086615
0
LINE
8
BLACK
6
CONTINUOUS
10
-0.1299212598425197
20
0.5403543307086615
11
-0.1303707874015748
21
0.5380943700787402
0
LINE
8
BLACK
6
CONTINUOUS
10
-0.1303707874015748
20
0.5380943700787402
11
-0.1316509448818897
21
0.5361785039370078
0
LINE
8
BLACK
6
CONTINUOUS
10
-0.1316509448818897
20
0.5361785039370078
11
-0.1335668110236221
21
0.5348983464566929
0
LINE
8
BLACK
6
CONTINUOUS
10
-0.1335668110236221
20
0.5348983464566929
11
-0.1358267716535433
21
0.5344488188976377
0
LINE
8
BLACK
6
CONTINUOUS
10
-0.1358267716535433
20
0.5344488188976377
11
-0.1909448818897638
21
0.5344488188976377
0
LINE
8
BLACK
6
CONTINUOUS
10
-0.1909448818897638
20
0.5344488188976377
11
-0.193204842519685
21
0.5348983464566929
0
LINE
8
BLACK
6
CONTINUOUS
10
-0.193204842519685
20
0.5348983464566929
11
-0.1951207086614173
21
0.5361785039370078
0
LINE
8
BLACK
6
CONTINUOUS
10
-0.1951207086614173
20
0.5361785039370078
11
-0.1964008661417323
21
0.5380943700787402
0
LINE
8
BLACK
6
CONTINUOUS
10
-0.1964008661417323
20
0.5380943700787402
11
-0.1968503937007874
21
0.5403543307086615
0
LINE
8
BLACK
6
CONTINUOUS
10
-0.1968503937007874
20
0.5403543307086615
11
-0.1968503937007874
21
0.5521653543307087
0
LINE
8
BLACK
6
CONTINUOUS
10
-0.1968503937007874
20
0.5521653543307087
11
-0.1964008661417323
21
0.5544253149606299
0
LINE
8
BLACK
6
CONTINUOUS
10
-0.1964008661417323
20
0.5544253149606299
11
-0.1951207086614173
21
0.5563411811023622
0
LINE
8
BLACK
6
CONTINUOUS
10
-0.1951207086614173
20
0.5563411811023622
11
-0.193204842519685
21
0.5576213385826772
0
LINE
8
BLACK
6
CONTINUOUS
10
-0.193204842519685
20
0.5576213385826772
11
-0.1909448818897638
21
0.5580708661417323
0
LINE
8
BLACK
6
CONTINUOUS
10
-0.1909448818897638
20
0.5580708661417323
11
-0.1358267716535433
21
0.5580708661417323
0
LINE
8
BLACK
6
CONTINUOUS
10
-0.1358267716535433
20
0.5580708661417323
11
-0.1335668110236221
21
0.5576213385826772
0
LINE
8
BLACK
6
CONTINUOUS
10
-0.1335668110236221
20
0.606833937007874
11
-0.1316509448818897
21
0.6055537795275591
0
LINE
8
BLACK
6
CONTINUOUS
10
-0.1316509448818897
20
0.6055537795275591
11
-0.1303707874015748
21
0.6036379133858267
0
LINE
8
BLACK
6
CONTINUOUS
10
-0.1303707874015748
20
0.6036379133858267
11
-0.1299212598425197
21
0.6013779527559054
0
LINE
8
BLACK
6
CONTINUOUS
10
-0.1299212598425197
20
0.6013779527559054
11
-0.1299212598425197
21
0.5895669291338582
0
LINE
8
BLACK
6
CONTINUOUS
10
-0.1299212598425197
20
0.5895669291338582
11
-0.1303707874015748
21
0.587306968503937
0
LINE
8
BLACK
6
CONTINUOUS
10
-0.1303707874015748
20
0.587306968503937
11
-0.1316509448818897
21
0.5853911023622047
0
LINE
8
BLACK
6
CONTINUOUS
10
-0.1316509448818897
20
0.5853911023622047
11
-0.1335668110236221
21
0.5841109448818897
0
LINE
8
BLACK
6
CONTINUOUS
10
-0.1335668110236221
20
0.5841109448818897
11
-0.1358267716535433
21
0.5836614173228346
0
LINE
8
BLACK
6
CONTINUOUS
10
-0.1358267716535433
20
0.5836614173228346
11
-0.1909448818897638
21
0.5836614173228346
0
LINE
8
BLACK
6
CONTINUOUS
10
-0.1909448818897638
20
0.5836614173228346
11
-0.193204842519685
21
0.5841109448818897
0
LINE
8
BLACK
6
CONTINUOUS
10
-0.193204842519685
20
0.5841109448818897
11
-0.1951207086614173
21
0.5853911023622047
0
LINE
8
BLACK
6
CONTINUOUS
10
-0.1951207086614173
20
0.5853911023622047
11
-0.1964008661417323
21
0.587306968503937
0
LINE
8
BLACK
6
CONTINUOUS
10
-0.1964008661417323
20
0.587306968503937
11
-0.1968503937007874
21
0.5895669291338582
0
LINE
8
BLACK
6
CONTINUOUS
10
-0.1968503937007874
20
0.5895669291338582
11
-0.1968503937007874
21
0.6013779527559054
0
LINE
8
BLACK
6
CONTINUOUS
10
-0.1968503937007874
20
0.6013779527559054
11
-0.1964008661417323
21
0.6036379133858267
0
LINE
8
BLACK
6
CONTINUOUS
10
-0.1964008661417323
20
0.6036379133858267
11
-0.1951207086614173
21
0.6055537795275591
0
LINE
8
BLACK
6
CONTINUOUS
10
-0.1951207086614173
20
0.6055537795275591
11
-0.193204842519685
21
0.606833937007874
0
LINE
8
BLACK
6
CONTINUOUS
10
-0.193204842519685
20
0.606833937007874
11
-0.1909448818897638
21
0.6072834645669292
0
LINE
8
BLACK
6
CONTINUOUS
10
-0.1909448818897638
20
0.6072834645669292
11
-0.1358267716535433
21
0.6072834645669292
0
LINE
8
BLACK
6
CONTINUOUS
10
-0.1358267716535433
20
0.6072834645669292
11
-0.1335668110236221
21
0.606833937007874
0
LINE
8
BLACK
6
CONTINUOUS
10
-0.5001704330708662
20
0.6547625984251968
11
-0.4969772834645669
21
0.6526290157480314
0
LINE
8
BLACK
6
CONTINUOUS
10
-0.4969772834645669
20
0.6526290157480314
11
-0.4948437007874016
21
0.6494358661417323
0
LINE
8
BLACK
6
CONTINUOUS
10
-0.4948437007874016
20
0.6494358661417323
11
-0.4940944881889764
21
0.6456692913385826
0
LINE
8
BLACK
6
CONTINUOUS
10
-0.4940944881889764
20
0.6456692913385826
11
-0.4940944881889764
21
0.5944881889763779
0
LINE
8
BLACK
6
CONTINUOUS
10
-0.4940944881889764
20
0.5944881889763779
11
-0.4948437007874016
21
0.5907216141732283
0
LINE
8
BLACK
6
CONTINUOUS
10
-0.4948437007874016
20
0.5907216141732283
11
-0.4969772834645669
21
0.5875284645669291
0
LINE
8
BLACK
6
CONTINUOUS
10
-0.4969772834645669
20
0.5875284645669291
11
-0.5001704330708662
21
0.5853948818897637
0
LINE
8
BLACK
6
CONTINUOUS
10
-0.5001704330708662
20
0.5853948818897637
11
-0.5039370078740157
21
0.5846456692913385
0
LINE
8
BLACK
6
CONTINUOUS
10
-0.5039370078740157
20
0.5846456692913385
11
-0.6181102362204725
21
0.5846456692913385
0
LINE
8
BLACK
6
CONTINUOUS
10
-0.6181102362204725
20
0.5846456692913385
11
-0.621876811023622
21
0.5853948818897637
0
LINE
8
BLACK
6
CONTINUOUS
10
-0.621876811023622
20
0.5853948818897637
11
-0.6250699606299213
21
0.5875284645669291
0
LINE
8
BLACK
6
CONTINUOUS
10
-0.6250699606299213
20
0.5875284645669291
11
-0.6272035433070866
21
0.5907216141732283
0
LINE
8
BLACK
6
CONTINUOUS
10
-0.6272035433070866
20
0.5907216141732283
11
-0.6279527559055118
21
0.5944881889763779
0
LINE
8
BLACK
6
CONTINUOUS
10
-0.6279527559055118
20
0.5944881889763779
11
-0.6279527559055118
21
0.6456692913385826
0
LINE
8
BLACK
6
CONTINUOUS
10
-0.6279527559055118
20
0.6456692913385826
11
-0.6272035433070866
21
0.6494358661417323
0
LINE
8
BLACK
6
CONTINUOUS
10
-0.6272035433070866
20
0.6494358661417323
11
-0.6250699606299213
21
0.6526290157480314
0
LINE
8
BLACK
6
CONTINUOUS
10
-0.6250699606299213
20
0.6526290157480314
11
-0.621876811023622
21
0.6547625984251968
0
LINE
8
BLACK
6
CONTINUOUS
10
-0.621876811023622
20
0.6547625984251968
11
-0.6181102362204725
21
0.655511811023622
0
LINE
8
BLACK
6
CONTINUOUS
10
-0.6181102362204725
20
0.655511811023622
11
-0.5039370078740157
21
0.655511811023622
0
LINE
8
BLACK
6
CONTINUOUS
10
-0.5039370078740157
20
0.655511811023622
11
-0.5001704330708662
21
0.6547625984251968
0
LINE
8
BLACK
6
CONTINUOUS
10
-0.1335668110236221
20
0.6560465354330709
11
-0.1316509448818897
21
0.6547663779527559
0
LINE
8
BLACK
6
CONTINUOUS
10
-0.1316509448818897
20
0.6547663779527559
11
-0.1303707874015748
21
0.6528505118110236
0
LINE
8
BLACK
6
CONTINUOUS
10
-0.1303707874015748
20
0.6528505118110236
11
-0.1299212598425197
21
0.6505905511811023
0
LINE
8
BLACK
6
CONTINUOUS
10
-0.1299212598425197
20
0.6505905511811023
11
-0.1299212598425197
21
0.6387795275590551
0
LINE
8
BLACK
6
CONTINUOUS
10
-0.1299212598425197
20
0.6387795275590551
11
-0.1303707874015748
21
0.6365195669291338
0
LINE
8
BLACK
6
CONTINUOUS
10
-0.1303707874015748
20
0.6365195669291338
11
-0.1316509448818897
21
0.6346037007874016
0
LINE
8
BLACK
6
CONTINUOUS
10
-0.1316509448818897
20
0.6346037007874016
11
-0.1335668110236221
21
0.6333235433070866
0
LINE
8
BLACK
6
CONTINUOUS
10
-0.1335668110236221
20
0.6333235433070866
11
-0.1358267716535433
21
0.6328740157480315
0
LINE
8
BLACK
6
CONTINUOUS
10
-0.1358267716535433
20
0.6328740157480315
11
-0.1909448818897638
21
0.6328740157480315
0
LINE
8
BLACK
6
CONTINUOUS
10
-0.1909448818897638
20
0.6328740157480315
11
-0.193204842519685
21
0.6333235433070866
0
LINE
8
BLACK
6
CONTINUOUS
10
-0.193204842519685
20
0.6333235433070866
11
-0.1951207086614173
21
0.6346037007874016
0
LINE
8
BLACK
6
CONTINUOUS
10
-0.1951207086614173
20
0.6346037007874016
11
-0.1964008661417323
21
0.6365195669291338
0
LINE
8
BLACK
6
CONTINUOUS
10
-0.1964008661417323
20
0.6365195669291338
11
-0.1968503937007874
21
0.6387795275590551
0
LINE
8
BLACK
6
CONTINUOUS
10
-0.1968503937007874
20
0.6387795275590551
11
-0.1968503937007874
21
0.6505905511811023
0
LINE
8
BLACK
6
CONTINUOUS
10
-0.1968503937007874
20
0.6505905511811023
11
-0.1964008661417323
21
0.6528505118110236
0
LINE
8
BLACK
6
CONTINUOUS
10
-0.1964008661417323
20
0.6528505118110236
11
-0.1951207086614173
21
0.6547663779527559
0
LINE
8
BLACK
6
CONTINUOUS
10
-0.1951207086614173
20
0.6547663779527559
11
-0.193204842519685
21
0.6560465354330709
0
LINE
8
BLACK
6
CONTINUOUS
10
-0.193204842519685
20
0.6560465354330709
11
-0.1909448818897638
21
0.6564960629921259
0
LINE
8
BLACK
6
CONTINUOUS
10
-0.1909448818897638
20
0.6564960629921259
11
-0.1358267716535433
21
0.6564960629921259
0
LINE
8
BLACK
6
CONTINUOUS
10
-0.1358267716535433
20
0.6564960629921259
11
-0.1335668110236221
21
0.6560465354330709
0
LINE
8
BLACK
6
CONTINUOUS
10
-0.1335668110236221
20
0.7052591338582677
11
-0.1316509448818897
21
0.7039789763779527
0
LINE
8
BLACK
6
CONTINUOUS
10
-0.1316509448818897
20
0.7039789763779527
11
-0.1303707874015748
21
0.7020631102362205
0
LINE
8
BLACK
6
CONTINUOUS
10
-0.1303707874015748
20
0.7020631102362205
11
-0.1299212598425197
21
0.6998031496062992
0
LINE
8
BLACK
6
CONTINUOUS
10
-0.1299212598425197
20
0.6998031496062992
11
-0.1299212598425197
21
0.687992125984252
0
LINE
8
BLACK
6
CONTINUOUS
10
-0.1299212598425197
20
0.687992125984252
11
-0.1303707874015748
21
0.6857321653543307
0
LINE
8
BLACK
6
CONTINUOUS
10
-0.1303707874015748
20
0.6857321653543307
11
-0.1316509448818897
21
0.6838162992125985
0
LINE
8
BLACK
6
CONTINUOUS
10
-0.1316509448818897
20
0.6838162992125985
11
-0.1335668110236221
21
0.6825361417322835
0
LINE
8
BLACK
6
CONTINUOUS
10
-0.1335668110236221
20
0.6825361417322835
11
-0.1358267716535433
21
0.6820866141732284
0
LINE
8
BLACK
6
CONTINUOUS
10
-0.1358267716535433
20
0.6820866141732284
11
-0.1909448818897638
21
0.6820866141732284
0
LINE
8
BLACK
6
CONTINUOUS
10
-0.1909448818897638
20
0.6820866141732284
11
-0.193204842519685
21
0.6825361417322835
0
LINE
8
BLACK
6
CONTINUOUS
10
-0.193204842519685
20
0.6825361417322835
11
-0.1951207086614173
21
0.6838162992125985
0
LINE
8
BLACK
6
CONTINUOUS
10
-0.1951207086614173
20
0.6838162992125985
11
-0.1964008661417323
21
0.6857321653543307
0
LINE
8
BLACK
6
CONTINUOUS
10
-0.1964008661417323
20
0.6857321653543307
11
-0.1968503937007874
21
0.687992125984252
0
LINE
8
BLACK
6
CONTINUOUS
10
-0.1968503937007874
20
0.687992125984252
11
-0.1968503937007874
21
0.6998031496062992
0
LINE
8
BLACK
6
CONTINUOUS
10
-0.1968503937007874
20
0.6998031496062992
11
-0.1964008661417323
21
0.7020631102362205
0
LINE
8
BLACK
6
CONTINUOUS
10
-0.1964008661417323
20
0.7020631102362205
11
-0.1951207086614173
21
0.7039789763779527
0
LINE
8
BLACK
6
CONTINUOUS
10
-0.1951207086614173
20
0.7039789763779527
11
-0.193204842519685
21
0.7052591338582677
0
LINE
8
BLACK
6
CONTINUOUS
10
-0.193204842519685
20
0.7052591338582677
11
-0.1909448818897638
21
0.7057086614173228
0
LINE
8
BLACK
6
CONTINUOUS
10
-0.1909448818897638
20
0.7057086614173228
11
-0.1358267716535433
21
0.7057086614173228
0
LINE
8
BLACK
6
CONTINUOUS
10
-0.1358267716535433
20
0.7057086614173228
11
-0.1335668110236221
21
0.7052591338582677
0
LINE
8
BLACK
6
CONTINUOUS
10
-0.2422964173228346
20
0.7856681102362204
11
-0.2391032677165354
21
0.7835345275590551
0
LINE
8
BLACK
6
CONTINUOUS
10
-0.2391032677165354
20
0.7835345275590551
11
-0.2369696850393701
21
0.7803413779527559
0
LINE
8
BLACK
6
CONTINUOUS
10
-0.2369696850393701
20
0.7803413779527559
11
-0.2362204724409449
21
0.7765748031496063
0
LINE
8
BLACK
6
CONTINUOUS
10
-0.2362204724409449
20
0.7765748031496063
11
-0.2362204724409449
21
0.7568897637795275
0
LINE
8
BLACK
6
CONTINUOUS
10
-0.2362204724409449
20
0.7568897637795275
11
-0.2369696850393701
21
0.753123188976378
0
LINE
8
BLACK
6
CONTINUOUS
10
-0.2369696850393701
20
0.753123188976378
11
-0.2391032677165354
21
0.7499300393700787
0
LINE
8
BLACK
6
CONTINUOUS
10
-0.2391032677165354
20
0.7499300393700787
11
-0.2422964173228346
21
0.7477964566929134
0
LINE
8
BLACK
6
CONTINUOUS
10
-0.2422964173228346
20
0.7477964566929134
11
-0.2460629921259843
21
0.7470472440944882
0
LINE
8
BLACK
6
CONTINUOUS
10
-0.2460629921259843
20
0.7470472440944882
11
-0.3326771653543307
21
0.7470472440944882
0
LINE
8
BLACK
6
CONTINUOUS
10
-0.3326771653543307
20
0.7470472440944882
11
-0.3364437401574803
21
0.7477964566929134
0
LINE
8
BLACK
6
CONTINUOUS
10
-0.3364437401574803
20
0.7477964566929134
11
-0.3396368897637795
21
0.7499300393700787
0
LINE
8
BLACK
6
CONTINUOUS
10
-0.3396368897637795
20
0.7499300393700787
11
-0.3417704724409449
21
0.753123188976378
0
LINE
8
BLACK
6
CONTINUOUS
10
-0.3417704724409449
20
0.753123188976378
11
-0.3425196850393701
21
0.7568897637795275
0
LINE
8
BLACK
6
CONTINUOUS
10
-0.3425196850393701
20
0.7568897637795275
11
-0.3425196850393701
21
0.7765748031496063
0
LINE
8
BLACK
6
CONTINUOUS
10
-0.3425196850393701
20
0.7765748031496063
11
-0.3417704724409449
21
0.7803413779527559
0
LINE
8
BLACK
6
CONTINUOUS
10
-0.3417704724409449
20
0.7803413779527559
11
-0.3396368897637795
21
0.7835345275590551
0
LINE
8
BLACK
6
CONTINUOUS
10
-0.3396368897637795
20
0.7835345275590551
11
-0.3364437401574803
21
0.7856681102362204
0
LINE
8
BLACK
6
CONTINUOUS
10
-0.3364437401574803
20
0.7856681102362204
11
-0.3326771653543307
21
0.7864173228346456
0
LINE
8
BLACK
6
CONTINUOUS
10
-0.3326771653543307
20
0.7864173228346456
11
-0.2460629921259843
21
0.7864173228346456
0
LINE
8
BLACK
6
CONTINUOUS
10
-0.2460629921259843
20
0.7864173228346456
11
-0.2422964173228346
21
0.7856681102362204
0
LINE
8
BLACK
6
CONTINUOUS
10
-0.2619814566929134
20
0.9254318897637795
11
-0.2587883070866142
21
0.9232983070866142
0
LINE
8
BLACK
6
CONTINUOUS
10
-0.2587883070866142
20
0.9232983070866142
11
-0.2566547244094488
21
0.920105157480315
0
LINE
8
BLACK
6
CONTINUOUS
10
-0.2566547244094488
20
0.920105157480315
11
-0.2559055118110236
21
0.9163385826771653
0
LINE
8
BLACK
6
CONTINUOUS
10
-0.2559055118110236
20
0.9163385826771653
11
-0.2559055118110236
21
0.8966535433070866
0
LINE
8
BLACK
6
CONTINUOUS
10
-0.2559055118110236
20
0.8966535433070866
11
-0.2566547244094488
21
0.892886968503937
0
LINE
8
BLACK
6
CONTINUOUS
10
-0.2566547244094488
20
0.892886968503937
11
-0.2587883070866142
21
0.8896938188976378
0
LINE
8
BLACK
6
CONTINUOUS
10
-0.2587883070866142
20
0.8896938188976378
11
-0.2619814566929134
21
0.8875602362204724
0
LINE
8
BLACK
6
CONTINUOUS
10
-0.2619814566929134
20
0.8875602362204724
11
-0.265748031496063
21
0.8868110236220472
0
LINE
8
BLACK
6
CONTINUOUS
10
-0.265748031496063
20
0.8868110236220472
11
-0.3523622047244094
21
0.8868110236220472
0
LINE
8
BLACK
6
CONTINUOUS
10
-0.3523622047244094
20
0.8868110236220472
11
-0.3561287795275591
21
0.8875602362204724
0
LINE
8
BLACK
6
CONTINUOUS
10
-0.3561287795275591
20
0.8875602362204724
11
-0.3593219291338582
21
0.8896938188976378
0
LINE
8
BLACK
6
CONTINUOUS
10
-0.3593219291338582
20
0.8896938188976378
11
-0.3614555118110236
21
0.892886968503937
0
LINE
8
BLACK
6
CONTINUOUS
10
-0.3614555118110236
20
0.892886968503937
11
-0.3622047244094488
21
0.8966535433070866
0
LINE
8
BLACK
6
CONTINUOUS
10
-0.3622047244094488
20
0.8966535433070866
11
-0.3622047244094488
21
0.9163385826771653
0
LINE
8
BLACK
6
CONTINUOUS
10
-0.3622047244094488
20
0.9163385826771653
11
-0.3614555118110236
21
0.920105157480315
0
LINE
8
BLACK
6
CONTINUOUS
10
-0.3614555118110236
20
0.920105157480315
11
-0.3593219291338582
21
0.9232983070866142
0
LINE
8
BLACK
6
CONTINUOUS
10
-0.3593219291338582
20
0.9232983070866142
11
-0.3561287795275591
21
0.9254318897637795
0
LINE
8
BLACK
6
CONTINUOUS
10
-0.3561287795275591
20
0.9254318897637795
11
-0.3523622047244094
21
0.9261811023622047
0
LINE
8
BLACK
6
CONTINUOUS
10
-0.3523622047244094
20
0.9261811023622047
11
-0.265748031496063
21
0.9261811023622047
0
LINE
8
BLACK
6
CONTINUOUS
10
-0.265748031496063
20
0.9261811023622047
11
-0.2619814566929134
21
0.9254318897637795
0
LINE
8
BLACK
6
CONTINUOUS
10
-0.1532518503937008
20
0.9906922047244094
11
-0.1513359842519685
21
0.9894120472440945
0
LINE
8
BLACK
6
CONTINUOUS
10
-0.1513359842519685
20
0.9894120472440945
11
-0.1500558267716535
21
0.9874961811023621
0
LINE
8
BLACK
6
CONTINUOUS
10
-0.1500558267716535
20
0.9874961811023621
11
-0.1496062992125984
21
0.985236220472441
0
LINE
8
BLACK
6
CONTINUOUS
10
-0.1496062992125984
20
0.985236220472441
11
-0.1496062992125984
21
0.9734251968503936
0
LINE
8
BLACK
6
CONTINUOUS
10
-0.1496062992125984
20
0.9734251968503936
11
-0.1500558267716535
21
0.9711652362204725
0
LINE
8
BLACK
6
CONTINUOUS
10
-0.1500558267716535
20
0.9711652362204725
11
-0.1513359842519685
21
0.9692493700787401
0
LINE
8
BLACK
6
CONTINUOUS
10
-0.1513359842519685
20
0.9692493700787401
11
-0.1532518503937008
21
0.9679692125984252
0
LINE
8
BLACK
6
CONTINUOUS
10
-0.1532518503937008
20
0.9679692125984252
11
-0.155511811023622
21
0.96751968503937
0
LINE
8
BLACK
6
CONTINUOUS
10
-0.155511811023622
20
0.96751968503937
11
-0.2106299212598425
21
0.96751968503937
0
LINE
8
BLACK
6
CONTINUOUS
10
-0.2106299212598425
20
0.96751968503937
11
-0.2128898818897638
21
0.9679692125984252
0
LINE
8
BLACK
6
CONTINUOUS
10
-0.2128898818897638
20
0.9679692125984252
11
-0.214805748031496
21
0.9692493700787401
0
LINE
8
BLACK
6
CONTINUOUS
10
-0.214805748031496
20
0.9692493700787401
11
-0.216085905511811
21
0.9711652362204725
0
LINE
8
BLACK
6
CONTINUOUS
10
-0.216085905511811
20
0.9711652362204725
11
-0.2165354330708661
21
0.9734251968503936
0
LINE
8
BLACK
6
CONTINUOUS
10
-0.2165354330708661
20
0.9734251968503936
11
-0.2165354330708661
21
0.985236220472441
0
LINE
8
BLACK
6
CONTINUOUS
10
-0.2165354330708661
20
0.985236220472441
11
-0.216085905511811
21
0.9874961811023621
0
LINE
8
BLACK
6
CONTINUOUS
10
-0.216085905511811
20
0.9874961811023621
11
-0.214805748031496
21
0.9894120472440945
0
LINE
8
BLACK
6
CONTINUOUS
10
-0.214805748031496
20
0.9894120472440945
11
-0.2128898818897638
21
0.9906922047244094
0
LINE
8
BLACK
6
CONTINUOUS
10
-0.2128898818897638
20
0.9906922047244094
11
-0.2106299212598425
21
0.9911417322834646
0
LINE
8
BLACK
6
CONTINUOUS
10
-0.2106299212598425
20
0.9911417322834646
11
-0.155511811023622
21
0.9911417322834646
0
LINE
8
BLACK
6
CONTINUOUS
10
-0.155511811023622
20
0.9911417322834646
11
-0.1532518503937008
21
0.9906922047244094
0
LINE
8
BLACK
6
CONTINUOUS
10
-0.1532518503937008
20
1.0399048031496063
11
-0.1513359842519685
21
1.0386246456692914
0
LINE
8
BLACK
6
CONTINUOUS
10
-0.1513359842519685
20
1.0386246456692914
11
-0.1500558267716535
21
1.0367087795275591
0
LINE
8
BLACK
6
CONTINUOUS
10
-0.1500558267716535
20
1.0367087795275591
11
-0.1496062992125984
21
1.0344488188976377
0
LINE
8
BLACK
6
CONTINUOUS
10
-0.1496062992125984
20
1.0344488188976377
11
-0.1496062992125984
21
1.0226377952755905
0
LINE
8
BLACK
6
CONTINUOUS
10
-0.1496062992125984
20
1.0226377952755905
11
-0.1500558267716535
21
1.0203778346456693
0
LINE
8
BLACK
6
CONTINUOUS
10
-0.1500558267716535
20
1.0203778346456693
11
-0.1513359842519685
21
1.0184619685039369
0
LINE
8
BLACK
6
CONTINUOUS
10
-0.1513359842519685
20
1.0184619685039369
11
-0.1532518503937008
21
1.0171818110236219
0
LINE
8
BLACK
6
CONTINUOUS
10
-0.1532518503937008
20
1.0171818110236219
11
-0.155511811023622
21
1.0167322834645669
0
LINE
8
BLACK
6
CONTINUOUS
10
-0.155511811023622
20
1.0167322834645669
11
-0.2106299212598425
21
1.0167322834645669
0
LINE
8
BLACK
6
CONTINUOUS
10
-0.2106299212598425
20
1.0167322834645669
11
-0.2128898818897638
21
1.0171818110236219
0
LINE
8
BLACK
6
CONTINUOUS
10
-0.2128898818897638
20
1.0171818110236219
11
-0.214805748031496
21
1.0184619685039369
0
LINE
8
BLACK
6
CONTINUOUS
10
-0.214805748031496
20
1.0184619685039369
11
-0.216085905511811
21
1.0203778346456693
0
LINE
8
BLACK
6
CONTINUOUS
10
-0.216085905511811
20
1.0203778346456693
11
-0.2165354330708661
21
1.0226377952755905
0
LINE
8
BLACK
6
CONTINUOUS
10
-0.2165354330708661
20
1.0226377952755905
11
-0.2165354330708661
21
1.0344488188976377
0
LINE
8
BLACK
6
CONTINUOUS
10
-0.2165354330708661
20
1.0344488188976377
11
-0.216085905511811
21
1.0367087795275591
0
LINE
8
BLACK
6
CONTINUOUS
10
-0.216085905511811
20
1.0367087795275591
11
-0.214805748031496
21
1.0386246456692914
0
LINE
8
BLACK
6
CONTINUOUS
10
-0.214805748031496
20
1.0386246456692914
11
-0.2128898818897638
21
1.0399048031496063
0
LINE
8
BLACK
6
CONTINUOUS
10
-0.2128898818897638
20
1.0399048031496063
11
-0.2106299212598425
21
1.0403543307086613
0
LINE
8
BLACK
6
CONTINUOUS
10
-0.2106299212598425
20
1.0403543307086613
11
-0.155511811023622
21
1.0403543307086613
0
LINE
8
BLACK
6
CONTINUOUS
10
-0.155511811023622
20
1.0403543307086613
11
-0.1532518503937008
21
1.0399048031496063
0
LINE
8
BLACK
6
CONTINUOUS
10
-0.1532518503937008
20
1.0891174015748031
11
-0.1513359842519685
21
1.0878372440944881
0
LINE
8
BLACK
6
CONTINUOUS
10
-0.1513359842519685
20
1.0878372440944881
11
-0.1500558267716535
21
1.0859213779527559
0
LINE
8
BLACK
6
CONTINUOUS
10
-0.1500558267716535
20
1.0859213779527559
11
-0.1496062992125984
21
1.0836614173228347
0
LINE
8
BLACK
6
CONTINUOUS
10
-0.1496062992125984
20
1.0836614173228347
11
-0.1496062992125984
21
1.0718503937007873
0
LINE
8
BLACK
6
CONTINUOUS
10
-0.1496062992125984
20
1.0718503937007873
11
-0.1500558267716535
21
1.0695904330708661
0
LINE
8
BLACK
6
CONTINUOUS
10
-0.1500558267716535
20
1.0695904330708661
11
-0.1513359842519685
21
1.0676745669291339
0
LINE
8
BLACK
6
CONTINUOUS
10
-0.1513359842519685
20
1.0676745669291339
11
-0.1532518503937008
21
1.0663944094488189
0
LINE
8
BLACK
6
CONTINUOUS
10
-0.1532518503937008
20
1.0663944094488189
11
-0.155511811023622
21
1.0659448818897637
0
LINE
8
BLACK
6
CONTINUOUS
10
-0.155511811023622
20
1.0659448818897637
11
-0.2106299212598425
21
1.0659448818897637
0
LINE
8
BLACK
6
CONTINUOUS
10
-0.2106299212598425
20
1.0659448818897637
11
-0.2128898818897638
21
1.0663944094488189
0
LINE
8
BLACK
6
CONTINUOUS
10
-0.2128898818897638
20
1.0663944094488189
11
-0.214805748031496
21
1.0676745669291339
0
LINE
8
BLACK
6
CONTINUOUS
10
-0.214805748031496
20
1.0676745669291339
11
-0.216085905511811
21
1.0695904330708661
0
LINE
8
BLACK
6
CONTINUOUS
10
-0.216085905511811
20
1.0695904330708661
11
-0.2165354330708661
21
1.0718503937007873
0
LINE
8
BLACK
6
CONTINUOUS
10
-0.2165354330708661
20
1.0718503937007873
11
-0.2165354330708661
21
1.0836614173228347
0
LINE
8
BLACK
6
CONTINUOUS
10
-0.2165354330708661
20
1.0836614173228347
11
-0.216085905511811
21
1.0859213779527559
0
LINE
8
BLACK
6
CONTINUOUS
10
-0.216085905511811
20
1.0859213779527559
11
-0.214805748031496
21
1.0878372440944881
0
LINE
8
BLACK
6
CONTINUOUS
10
-0.214805748031496
20
1.0878372440944881
11
-0.2128898818897638
21
1.0891174015748031
0
LINE
8
BLACK
6
CONTINUOUS
10
-0.2128898818897638
20
1.0891174015748031
11
-0.2106299212598425
21
1.0895669291338583
0
LINE
8
BLACK
6
CONTINUOUS
10
-0.2106299212598425
20
1.0895669291338583
11
-0.155511811023622
21
1.0895669291338583
0
LINE
8
BLACK
6
CONTINUOUS
10
-0.155511811023622
20
1.0895669291338583
11
-0.1532518503937008
21
1.0891174015748031
0
LINE
8
BLACK
6
CONTINUOUS
10
-0.1532518503937008
20
1.1383300000000001
11
-0.1513359842519685
21
1.1370498425196851
0
LINE
8
BLACK
6
CONTINUOUS
10
-0.1513359842519685
20
1.1370498425196851
11
-0.1500558267716535
21
1.1351339763779527
0
LINE
8
BLACK
6
CONTINUOUS
10
-0.1500558267716535
20
1.1351339763779527
11
-0.1496062992125984
21
1.1328740157480315
0
LINE
8
BLACK
6
CONTINUOUS
10
-0.1496062992125984
20
1.1328740157480315
11
-0.1496062992125984
21
1.1210629921259843
0
LINE
8
BLACK
6
CONTINUOUS
10
-0.1496062992125984
20
1.1210629921259843
11
-0.1500558267716535
21
1.1188030314960629
0
LINE
8
BLACK
6
CONTINUOUS
10
-0.1500558267716535
20
1.1188030314960629
11
-0.1513359842519685
21
1.1168871653543306
0
LINE
8
BLACK
6
CONTINUOUS
10
-0.1513359842519685
20
1.1168871653543306
11
-0.1532518503937008
21
1.1156070078740157
0
LINE
8
BLACK
6
CONTINUOUS
10
-0.1532518503937008
20
1.1156070078740157
11
-0.155511811023622
21
1.1151574803149606
0
LINE
8
BLACK
6
CONTINUOUS
10
-0.155511811023622
20
1.1151574803149606
11
-0.2106299212598425
21
1.1151574803149606
0
LINE
8
BLACK
6
CONTINUOUS
10
-0.2106299212598425
20
1.1151574803149606
11
-0.2128898818897638
21
1.1156070078740157
0
LINE
8
BLACK
6
CONTINUOUS
10
-0.2128898818897638
20
1.1156070078740157
11
-0.214805748031496
21
1.1168871653543306
0
LINE
8
BLACK
6
CONTINUOUS
10
-0.214805748031496
20
1.1168871653543306
11
-0.216085905511811
21
1.1188030314960629
0
LINE
8
BLACK
6
CONTINUOUS
10
-0.216085905511811
20
1.1188030314960629
11
-0.2165354330708661
21
1.1210629921259843
0
LINE
8
BLACK
6
CONTINUOUS
10
-0.2165354330708661
20
1.1210629921259843
11
-0.2165354330708661
21
1.1328740157480315
0
LINE
8
BLACK
6
CONTINUOUS
10
-0.2165354330708661
20
1.1328740157480315
11
-0.216085905511811
21
1.1351339763779527
0
LINE
8
BLACK
6
CONTINUOUS
10
-0.216085905511811
20
1.1351339763779527
11
-0.214805748031496
21
1.1370498425196851
0
LINE
8
BLACK
6
CONTINUOUS
10
-0.214805748031496
20
1.1370498425196851
11
-0.2128898818897638
21
1.1383300000000001
0
LINE
8
BLACK
6
CONTINUOUS
10
-0.2128898818897638
20
1.1383300000000001
11
-0.2106299212598425
21
1.1387795275590551
0
LINE
8
BLACK
6
CONTINUOUS
10
-0.2106299212598425
20
1.1387795275590551
11
-0.155511811023622
21
1.1387795275590551
0
LINE
8
BLACK
6
CONTINUOUS
10
-0.155511811023622
20
1.1387795275590551
11
-0.1532518503937008
21
1.1383300000000001
0
LINE
8
BLACK
6
CONTINUOUS
10
-0.2619814566929134
20
1.2187389763779528
11
-0.2587883070866142
21
1.2166053937007875
0
LINE
8
BLACK
6
CONTINUOUS
10
-0.2587883070866142
20
1.2166053937007875
11
-0.2566547244094488
21
1.2134122440944881
0
LINE
8
BLACK
6
CONTINUOUS
10
-0.2566547244094488
20
1.2134122440944881
11
-0.2559055118110236
21
1.2096456692913387
0
LINE
8
BLACK
6
CONTINUOUS
10
-0.2559055118110236
20
1.2096456692913387
11
-0.2559055118110236
21
1.1899606299212597
0
LINE
8
BLACK
6
CONTINUOUS
10
-0.2559055118110236
20
1.1899606299212597
11
-0.2566547244094488
21
1.1861940551181103
0
LINE
8
BLACK
6
CONTINUOUS
10
-0.2566547244094488
20
1.1861940551181103
11
-0.2587883070866142
21
1.1830009055118109
0
LINE
8
BLACK
6
CONTINUOUS
10
-0.2587883070866142
20
1.1830009055118109
11
-0.2619814566929134
21
1.1808673228346456
0
LINE
8
BLACK
6
CONTINUOUS
10
-0.2619814566929134
20
1.1808673228346456
11
-0.265748031496063
21
1.1801181102362204
0
LINE
8
BLACK
6
CONTINUOUS
10
-0.265748031496063
20
1.1801181102362204
11
-0.3523622047244094
21
1.1801181102362204
0
LINE
8
BLACK
6
CONTINUOUS
10
-0.3523622047244094
20
1.1801181102362204
11
-0.3561287795275591
21
1.1808673228346456
0
LINE
8
BLACK
6
CONTINUOUS
10
-0.3561287795275591
20
1.1808673228346456
11
-0.3593219291338582
21
1.1830009055118109
0
LINE
8
BLACK
6
CONTINUOUS
10
-0.3593219291338582
20
1.1830009055118109
11
-0.3614555118110236
21
1.1861940551181103
0
LINE
8
BLACK
6
CONTINUOUS
10
-0.3614555118110236
20
1.1861940551181103
11
-0.3622047244094488
21
1.1899606299212597
0
LINE
8
BLACK
6
CONTINUOUS
10
-0.3622047244094488
20
1.1899606299212597
11
-0.3622047244094488
21
1.2096456692913387
0
LINE
8
BLACK
6
CONTINUOUS
10
-0.3622047244094488
20
1.2096456692913387
11
-0.3614555118110236
21
1.2134122440944881
0
LINE
8
BLACK
6
CONTINUOUS
10
-0.3614555118110236
20
1.2134122440944881
11
-0.3593219291338582
21
1.2166053937007875
0
LINE
8
BLACK
6
CONTINUOUS
10
-0.3593219291338582
20
1.2166053937007875
11
-0.3561287795275591
21
1.2187389763779528
0
LINE
8
BLACK
6
CONTINUOUS
10
-0.3561287795275591
20
1.2187389763779528
11
-0.3523622047244094
21
1.219488188976378
0
LINE
8
BLACK
6
CONTINUOUS
10
-0.3523622047244094
20
1.219488188976378
11
-0.265748031496063
21
1.219488188976378
0
LINE
8
BLACK
6
CONTINUOUS
10
-0.265748031496063
20
1.219488188976378
11
-0.2619814566929134
21
1.2187389763779528
0
LINE
8
BLACK
6
CONTINUOUS
10
-0.2385841732283465
20
1.3861554724409448
11
-0.235790157480315
21
1.3842885826771654
0
LINE
8
BLACK
6
CONTINUOUS
10
-0.235790157480315
20
1.3842885826771654
11
-0.2339232677165354
21
1.3814945669291339
0
LINE
8
BLACK
6
CONTINUOUS
10
-0.2339232677165354
20
1.3814945669291339
11
-0.2332677165354331
21
1.3781988188976377
0
LINE
8
BLACK
6
CONTINUOUS
10
-0.2332677165354331
20
1.3781988188976377
11
-0.2332677165354331
21
1.358021653543307
0
LINE
8
BLACK
6
CONTINUOUS
10
-0.2332677165354331
20
1.358021653543307
11
-0.2339232677165354
21
1.354725905511811
0
LINE
8
BLACK
6
CONTINUOUS
10
-0.2339232677165354
20
1.354725905511811
11
-0.235790157480315
21
1.3519318897637795
0
LINE
8
BLACK
6
CONTINUOUS
10
-0.235790157480315
20
1.3519318897637795
11
-0.2385841732283465
21
1.3500650000000001
0
LINE
8
BLACK
6
CONTINUOUS
10
-0.2385841732283465
20
1.3500650000000001
11
-0.2418799212598425
21
1.3494094488188977
0
LINE
8
BLACK
6
CONTINUOUS
10
-0.2418799212598425
20
1.3494094488188977
11
-0.2591043307086614
21
1.3494094488188977
0
LINE
8
BLACK
6
CONTINUOUS
10
-0.2591043307086614
20
1.3494094488188977
11
-0.2624000787401575
21
1.3500650000000001
0
LINE
8
BLACK
6
CONTINUOUS
10
-0.2624000787401575
20
1.3500650000000001
11
-0.265194094488189
21
1.3519318897637795
0
LINE
8
BLACK
6
CONTINUOUS
10
-0.265194094488189
20
1.3519318897637795
11
-0.2670609842519685
21
1.354725905511811
0
LINE
8
BLACK
6
CONTINUOUS
10
-0.2670609842519685
20
1.354725905511811
11
-0.2677165354330708
21
1.358021653543307
0
LINE
8
BLACK
6
CONTINUOUS
10
-0.2677165354330708
20
1.358021653543307
11
-0.2677165354330708
21
1.3781988188976377
0
LINE
8
BLACK
6
CONTINUOUS
10
-0.2677165354330708
20
1.3781988188976377
11
-0.2670609842519685
21
1.3814945669291339
0
LINE
8
BLACK
6
CONTINUOUS
10
-0.2670609842519685
20
1.3814945669291339
11
-0.265194094488189
21
1.3842885826771654
0
LINE
8
BLACK
6
CONTINUOUS
10
-0.265194094488189
20
1.3842885826771654
11
-0.2624000787401575
21
1.3861554724409448
0
LINE
8
BLACK
6
CONTINUOUS
10
-0.2624000787401575
20
1.3861554724409448
11
-0.2591043307086614
21
1.3868110236220472
0
LINE
8
BLACK
6
CONTINUOUS
10
-0.2591043307086614
20
1.3868110236220472
11
-0.2418799212598425
21
1.3868110236220472
0
LINE
8
BLACK
6
CONTINUOUS
10
-0.2418799212598425
20
1.3868110236220472
11
-0.2385841732283465
21
1.3861554724409448
0
LINE
8
BLACK
6
CONTINUOUS
10
-0.1765762992125984
20
1.3861554724409448
11
-0.1737822834645669
21
1.3842885826771654
0
LINE
8
BLACK
6
CONTINUOUS
10
-0.1737822834645669
20
1.3842885826771654
11
-0.1719153937007874
21
1.3814945669291339
0
LINE
8
BLACK
6
CONTINUOUS
10
-0.1719153937007874
20
1.3814945669291339
11
-0.171259842519685
21
1.3781988188976377
0
LINE
8
BLACK
6
CONTINUOUS
10
-0.171259842519685
20
1.3781988188976377
11
-0.171259842519685
21
1.358021653543307
0
LINE
8
BLACK
6
CONTINUOUS
10
-0.171259842519685
20
1.358021653543307
11
-0.1719153937007874
21
1.354725905511811
0
LINE
8
BLACK
6
CONTINUOUS
10
-0.1719153937007874
20
1.354725905511811
11
-0.1737822834645669
21
1.3519318897637795
0
LINE
8
BLACK
6
CONTINUOUS
10
-0.1737822834645669
20
1.3519318897637795
11
-0.1765762992125984
21
1.3500650000000001
0
LINE
8
BLACK
6
CONTINUOUS
10
-0.1765762992125984
20
1.3500650000000001
11
-0.1798720472440945
21
1.3494094488188977
0
LINE
8
BLACK
6
CONTINUOUS
10
-0.1798720472440945
20
1.3494094488188977
11
-0.1970964566929134
21
1.3494094488188977
0
LINE
8
BLACK
6
CONTINUOUS
10
-0.1970964566929134
20
1.3494094488188977
11
-0.2003922047244094
21
1.3500650000000001
0
LINE
8
BLACK
6
CONTINUOUS
10
-0.2003922047244094
20
1.3500650000000001
11
-0.2031862204724409
21
1.3519318897637795
0
LINE
8
BLACK
6
CONTINUOUS
10
-0.2031862204724409
20
1.3519318897637795
11
-0.2050531102362205
21
1.354725905511811
0
LINE
8
BLACK
6
CONTINUOUS
10
-0.2050531102362205
20
1.354725905511811
11
-0.2057086614173228
21
1.358021653543307
0
LINE
8
BLACK
6
CONTINUOUS
10
-0.2057086614173228
20
1.358021653543307
11
-0.2057086614173228
21
1.3781988188976377
0
LINE
8
BLACK
6
CONTINUOUS
10
-0.2057086614173228
20
1.3781988188976377
11
-0.2050531102362205
21
1.3814945669291339
0
LINE
8
BLACK
6
CONTINUOUS
10
-0.2050531102362205
20
1.3814945669291339
11
-0.2031862204724409
21
1.3842885826771654
0
LINE
8
BLACK
6
CONTINUOUS
10
-0.2031862204724409
20
1.3842885826771654
11
-0.2003922047244094
21
1.3861554724409448
0
LINE
8
BLACK
6
CONTINUOUS
10
-0.2003922047244094
20
1.3861554724409448
11
-0.1970964566929134
21
1.3868110236220472
0
LINE
8
BLACK
6
CONTINUOUS
10
-0.1970964566929134
20
1.3868110236220472
11
-0.1798720472440945
21
1.3868110236220472
0
LINE
8
BLACK
6
CONTINUOUS
10
-0.1798720472440945
20
1.3868110236220472
11
-0.1765762992125984
21
1.3861554724409448
0
LINE
8
BLACK
6
CONTINUOUS
10
-0.2385841732283465
20
1.4849743700787401
11
-0.235790157480315
21
1.4831074803149606
0
LINE
8
BLACK
6
CONTINUOUS
10
-0.235790157480315
20
1.4831074803149606
11
-0.2339232677165354
21
1.4803134645669291
0
LINE
8
BLACK
6
CONTINUOUS
10
-0.2339232677165354
20
1.4803134645669291
11
-0.2332677165354331
21
1.477017716535433
0
LINE
8
BLACK
6
CONTINUOUS
10
-0.2332677165354331
20
1.477017716535433
11
-0.2332677165354331
21
1.4568405511811022
0
LINE
8
BLACK
6
CONTINUOUS
10
-0.2332677165354331
20
1.4568405511811022
11
-0.2339232677165354
21
1.4535448031496063
0
LINE
8
BLACK
6
CONTINUOUS
10
-0.2339232677165354
20
1.4535448031496063
11
-0.235790157480315
21
1.4507507874015748
0
LINE
8
BLACK
6
CONTINUOUS
10
-0.235790157480315
20
1.4507507874015748
11
-0.2385841732283465
21
1.4488838976377953
0
LINE
8
BLACK
6
CONTINUOUS
10
-0.2385841732283465
20
1.4488838976377953
11
-0.2418799212598425
21
1.448228346456693
0
LINE
8
BLACK
6
CONTINUOUS
10
-0.2418799212598425
20
1.448228346456693
11
-0.2591043307086614
21
1.448228346456693
0
LINE
8
BLACK
6
CONTINUOUS
10
-0.2591043307086614
20
1.448228346456693
11
-0.2624000787401575
21
1.4488838976377953
0
LINE
8
BLACK
6
CONTINUOUS
10
-0.2624000787401575
20
1.4488838976377953
11
-0.265194094488189
21
1.4507507874015748
0
LINE
8
BLACK
6
CONTINUOUS
10
-0.265194094488189
20
1.4507507874015748
11
-0.2670609842519685
21
1.4535448031496063
0
LINE
8
BLACK
6
CONTINUOUS
10
-0.2670609842519685
20
1.4535448031496063
11
-0.2677165354330708
21
1.4568405511811022
0
LINE
8
BLACK
6
CONTINUOUS
10
-0.2677165354330708
20
1.4568405511811022
11
-0.2677165354330708
21
1.477017716535433
0
LINE
8
BLACK
6
CONTINUOUS
10
-0.2677165354330708
20
1.477017716535433
11
-0.2670609842519685
21
1.4803134645669291
0
LINE
8
BLACK
6
CONTINUOUS
10
-0.2670609842519685
20
1.4803134645669291
11
-0.265194094488189
21
1.4831074803149606
0
LINE
8
BLACK
6
CONTINUOUS
10
-0.265194094488189
20
1.4831074803149606
11
-0.2624000787401575
21
1.4849743700787401
0
LINE
8
BLACK
6
CONTINUOUS
10
-0.2624000787401575
20
1.4849743700787401
11
-0.2591043307086614
21
1.4856299212598425
0
LINE
8
BLACK
6
CONTINUOUS
10
-0.2591043307086614
20
1.4856299212598425
11
-0.2418799212598425
21
1.4856299212598425
0
LINE
8
BLACK
6
CONTINUOUS
10
-0.2418799212598425
20
1.4856299212598425
11
-0.2385841732283465
21
1.4849743700787401
0
LINE
8
BLACK
6
CONTINUOUS
10
-0.1765762992125984
20
1.4849743700787401
11
-0.1737822834645669
21
1.4831074803149606
0
LINE
8
BLACK
6
CONTINUOUS
10
-0.1737822834645669
20
1.4831074803149606
11
-0.1719153937007874
21
1.4803134645669291
0
LINE
8
BLACK
6
CONTINUOUS
10
-0.1719153937007874
20
1.4803134645669291
11
-0.171259842519685
21
1.477017716535433
0
LINE
8
BLACK
6
CONTINUOUS
10
-0.171259842519685
20
1.477017716535433
11
-0.171259842519685
21
1.4568405511811022
0
LINE
8
BLACK
6
CONTINUOUS
10
-0.171259842519685
20
1.4568405511811022
11
-0.1719153937007874
21
1.4535448031496063
0
LINE
8
BLACK
6
CONTINUOUS
10
-0.1719153937007874
20
1.4535448031496063
11
-0.1737822834645669
21
1.4507507874015748
0
LINE
8
BLACK
6
CONTINUOUS
10
-0.1737822834645669
20
1.4507507874015748
11
-0.1765762992125984
21
1.4488838976377953
0
LINE
8
BLACK
6
CONTINUOUS
10
-0.1765762992125984
20
1.4488838976377953
11
-0.1798720472440945
21
1.448228346456693
0
LINE
8
BLACK
6
CONTINUOUS
10
-0.1798720472440945
20
1.448228346456693
11
-0.1970964566929134
21
1.448228346456693
0
LINE
8
BLACK
6
CONTINUOUS
10
-0.1970964566929134
20
1.448228346456693
11
-0.2003922047244094
21
1.4488838976377953
0
LINE
8
BLACK
6
CONTINUOUS
10
-0.2003922047244094
20
1.4488838976377953
11
-0.2031862204724409
21
1.4507507874015748
0
LINE
8
BLACK
6
CONTINUOUS
10
-0.2031862204724409
20
1.4507507874015748
11
-0.2050531102362205
21
1.4535448031496063
0
LINE
8
BLACK
6
CONTINUOUS
10
-0.2050531102362205
20
1.4535448031496063
11
-0.2057086614173228
21
1.4568405511811022
0
LINE
8
BLACK
6
CONTINUOUS
10
-0.2057086614173228
20
1.4568405511811022
11
-0.2057086614173228
21
1.477017716535433
0
LINE
8
BLACK
6
CONTINUOUS
10
-0.2057086614173228
20
1.477017716535433
11
-0.2050531102362205
21
1.4803134645669291
0
LINE
8
BLACK
6
CONTINUOUS
10
-0.2050531102362205
20
1.4803134645669291
11
-0.2031862204724409
21
1.4831074803149606
0
LINE
8
BLACK
6
CONTINUOUS
10
-0.2031862204724409
20
1.4831074803149606
11
-0.2003922047244094
21
1.4849743700787401
0
LINE
8
BLACK
6
CONTINUOUS
10
-0.2003922047244094
20
1.4849743700787401
11
-0.1970964566929134
21
1.4856299212598425
0
LINE
8
BLACK
6
CONTINUOUS
10
-0.1970964566929134
20
1.4856299212598425
11
-0.1798720472440945
21
1.4856299212598425
0
LINE
8
BLACK
6
CONTINUOUS
10
-0.1798720472440945
20
1.4856299212598425
11
-0.1765762992125984
21
1.4849743700787401
  0
ENDSEC
  0
EOF
