  0
SECTION
  2
HEADER
  9
$ANGBASE
  50
0.0
  9
$ANGDIR
  70
1
  9
$MEASUREMENT
  70
0
  0
ENDSEC
  0
SECTION
  2
TABLES
  0
TABLE
  2
LTYPE
  70
4
  0
LTYPE
  5
40F
  2
CONTINUOUS
  70
0
  3
Solid line
  72
65
  73
0
  40
0.0
  0
LTYPE
  5
410
  2
DASHDOT
 70
0
  3
Dash Dot ____ _ ____ _
 72
65
 73
4
 40
2.0
 49
1.25
 49
-0.25
 49
0.25
 49
-0.25
  0
LTYPE
  5
411
  2
DASHED
 70
0
  3
Dashed __ __ __ __ __
 72
65
 73
2
 40
0.75
 49
0.5
 49
-0.25
  0
LTYPE
  5
43B
  2
DOTTED
 70
0
  3
Dotted .  .  .  .
 72
65
 73
2
 40
0.2
 49
0.0
 49
-0.2
  0
ENDTAB
  0
TABLE
  2
STYLE
  70
4
  0
STYLE
  2
KICAD
  70
0
  40
0
  41
1
  42
1
  50
0
  71
0
  3
isocp.shx
  0
STYLE
  2
KICADB
  70
0
  40
0
  41
1
  42
1
  50
0
  71
0
  3
isocp.shx
  0
STYLE
  2
KICADI
  70
0
  40
0
  41
1
  42
1
  50
15
  71
0
  3
isocp.shx
  0
STYLE
  2
KICADBI
  70
0
  40
0
  41
1
  42
1
  50
15
  71
0
  3
isocp.shx
  0
ENDTAB
  0
TABLE
  2
LAYER
  70
1
  0
LAYER
  2
BLACK
  70
0
  62
7
  6
CONTINUOUS
  0
ENDTAB
  0
ENDSEC
  0
SECTION
  2
ENTITIES
0
LINE
8
BLACK
6
CONTINUOUS
10
0.2486205511811024
20
0.1381239763779528
11
0.2514145669291338
21
0.1362570866141732
0
LINE
8
BLACK
6
CONTINUOUS
10
0.2514145669291338
20
0.1362570866141732
11
0.2532814566929134
21
0.1334630708661417
0
LINE
8
BLACK
6
CONTINUOUS
10
0.2532814566929134
20
0.1334630708661417
11
0.2539370078740157
21
0.1301673228346457
0
LINE
8
BLACK
6
CONTINUOUS
10
0.2539370078740157
20
0.1301673228346457
11
0.2539370078740157
21
0.109990157480315
0
LINE
8
BLACK
6
CONTINUOUS
10
0.2539370078740157
20
0.109990157480315
11
0.2532814566929134
21
0.1066944094488189
0
LINE
8
BLACK
6
CONTINUOUS
10
0.2532814566929134
20
0.1066944094488189
11
0.2514145669291338
21
0.1039003937007874
0
LINE
8
BLACK
6
CONTINUOUS
10
0.2514145669291338
20
0.1039003937007874
11
0.2486205511811024
21
0.1020335039370079
0
LINE
8
BLACK
6
CONTINUOUS
10
0.2486205511811024
20
0.1020335039370079
11
0.2453248031496063
21
0.1013779527559055
0
LINE
8
BLACK
6
CONTINUOUS
10
0.2453248031496063
20
0.1013779527559055
11
0.2281003937007874
21
0.1013779527559055
0
LINE
8
BLACK
6
CONTINUOUS
10
0.2281003937007874
20
0.1013779527559055
11
0.2248046456692913
21
0.1020335039370079
0
LINE
8
BLACK
6
CONTINUOUS
10
0.2248046456692913
20
0.1020335039370079
11
0.2220106299212598
21
0.1039003937007874
0
LINE
8
BLACK
6
CONTINUOUS
10
0.2220106299212598
20
0.1039003937007874
11
0.2201437401574803
21
0.1066944094488189
0
LINE
8
BLACK
6
CONTINUOUS
10
0.2201437401574803
20
0.1066944094488189
11
0.219488188976378
21
0.109990157480315
0
LINE
8
BLACK
6
CONTINUOUS
10
0.219488188976378
20
0.109990157480315
11
0.219488188976378
21
0.1301673228346457
0
LINE
8
BLACK
6
CONTINUOUS
10
0.219488188976378
20
0.1301673228346457
11
0.2201437401574803
21
0.1334630708661417
0
LINE
8
BLACK
6
CONTINUOUS
10
0.2201437401574803
20
0.1334630708661417
11
0.2220106299212598
21
0.1362570866141732
0
LINE
8
BLACK
6
CONTINUOUS
10
0.2220106299212598
20
0.1362570866141732
11
0.2248046456692913
21
0.1381239763779528
0
LINE
8
BLACK
6
CONTINUOUS
10
0.2248046456692913
20
0.1381239763779528
11
0.2281003937007874
21
0.1387795275590551
0
LINE
8
BLACK
6
CONTINUOUS
10
0.2281003937007874
20
0.1387795275590551
11
0.2453248031496063
21
0.1387795275590551
0
LINE
8
BLACK
6
CONTINUOUS
10
0.2453248031496063
20
0.1387795275590551
11
0.2486205511811024
21
0.1381239763779528
0
LINE
8
BLACK
6
CONTINUOUS
10
0.3106284251968504
20
0.1381239763779528
11
0.3134224409448819
21
0.1362570866141732
0
LINE
8
BLACK
6
CONTINUOUS
10
0.3134224409448819
20
0.1362570866141732
11
0.3152893307086614
21
0.1334630708661417
0
LINE
8
BLACK
6
CONTINUOUS
10
0.3152893307086614
20
0.1334630708661417
11
0.3159448818897638
21
0.1301673228346457
0
LINE
8
BLACK
6
CONTINUOUS
10
0.3159448818897638
20
0.1301673228346457
11
0.3159448818897638
21
0.109990157480315
0
LINE
8
BLACK
6
CONTINUOUS
10
0.3159448818897638
20
0.109990157480315
11
0.3152893307086614
21
0.1066944094488189
0
LINE
8
BLACK
6
CONTINUOUS
10
0.3152893307086614
20
0.1066944094488189
11
0.3134224409448819
21
0.1039003937007874
0
LINE
8
BLACK
6
CONTINUOUS
10
0.3134224409448819
20
0.1039003937007874
11
0.3106284251968504
21
0.1020335039370079
0
LINE
8
BLACK
6
CONTINUOUS
10
0.3106284251968504
20
0.1020335039370079
11
0.3073326771653543
21
0.1013779527559055
0
LINE
8
BLACK
6
CONTINUOUS
10
0.3073326771653543
20
0.1013779527559055
11
0.2901082677165354
21
0.1013779527559055
0
LINE
8
BLACK
6
CONTINUOUS
10
0.2901082677165354
20
0.1013779527559055
11
0.2868125196850393
21
0.1020335039370079
0
LINE
8
BLACK
6
CONTINUOUS
10
0.2868125196850393
20
0.1020335039370079
11
0.2840185039370079
21
0.1039003937007874
0
LINE
8
BLACK
6
CONTINUOUS
10
0.2840185039370079
20
0.1039003937007874
11
0.2821516141732283
21
0.1066944094488189
0
LINE
8
BLACK
6
CONTINUOUS
10
0.2821516141732283
20
0.1066944094488189
11
0.281496062992126
21
0.109990157480315
0
LINE
8
BLACK
6
CONTINUOUS
10
0.281496062992126
20
0.109990157480315
11
0.281496062992126
21
0.1301673228346457
0
LINE
8
BLACK
6
CONTINUOUS
10
0.281496062992126
20
0.1301673228346457
11
0.2821516141732283
21
0.1334630708661417
0
LINE
8
BLACK
6
CONTINUOUS
10
0.2821516141732283
20
0.1334630708661417
11
0.2840185039370079
21
0.1362570866141732
0
LINE
8
BLACK
6
CONTINUOUS
10
0.2840185039370079
20
0.1362570866141732
11
0.2868125196850393
21
0.1381239763779528
0
LINE
8
BLACK
6
CONTINUOUS
10
0.2868125196850393
20
0.1381239763779528
11
0.2901082677165354
21
0.1387795275590551
0
LINE
8
BLACK
6
CONTINUOUS
10
0.2901082677165354
20
0.1387795275590551
11
0.3073326771653543
21
0.1387795275590551
0
LINE
8
BLACK
6
CONTINUOUS
10
0.3073326771653543
20
0.1387795275590551
11
0.3106284251968504
21
0.1381239763779528
0
LINE
8
BLACK
6
CONTINUOUS
10
0.3740762598425197
20
0.1391014173228347
11
0.376630748031496
21
0.1373945275590551
0
LINE
8
BLACK
6
CONTINUOUS
10
0.376630748031496
20
0.1373945275590551
11
0.3783376377952756
21
0.1348400393700787
0
LINE
8
BLACK
6
CONTINUOUS
10
0.3783376377952756
20
0.1348400393700787
11
0.3789370078740157
21
0.1318267716535433
0
LINE
8
BLACK
6
CONTINUOUS
10
0.3789370078740157
20
0.1318267716535433
11
0.3789370078740157
21
0.1101732283464567
0
LINE
8
BLACK
6
CONTINUOUS
10
0.3789370078740157
20
0.1101732283464567
11
0.3783376377952756
21
0.1071599606299213
0
LINE
8
BLACK
6
CONTINUOUS
10
0.3783376377952756
20
0.1071599606299213
11
0.376630748031496
21
0.1046054724409449
0
LINE
8
BLACK
6
CONTINUOUS
10
0.376630748031496
20
0.1046054724409449
11
0.3740762598425197
21
0.1028985826771654
0
LINE
8
BLACK
6
CONTINUOUS
10
0.3740762598425197
20
0.1028985826771654
11
0.3710629921259843
21
0.1022992125984252
0
LINE
8
BLACK
6
CONTINUOUS
10
0.3710629921259843
20
0.1022992125984252
11
0.3553149606299212
21
0.1022992125984252
0
LINE
8
BLACK
6
CONTINUOUS
10
0.3553149606299212
20
0.1022992125984252
11
0.3523016929133858
21
0.1028985826771654
0
LINE
8
BLACK
6
CONTINUOUS
10
0.3523016929133858
20
0.1028985826771654
11
0.3497472047244095
21
0.1046054724409449
0
LINE
8
BLACK
6
CONTINUOUS
10
0.3497472047244095
20
0.1046054724409449
11
0.3480403149606299
21
0.1071599606299213
0
LINE
8
BLACK
6
CONTINUOUS
10
0.3480403149606299
20
0.1071599606299213
11
0.3474409448818898
21
0.1101732283464567
0
LINE
8
BLACK
6
CONTINUOUS
10
0.3474409448818898
20
0.1101732283464567
11
0.3474409448818898
21
0.1318267716535433
0
LINE
8
BLACK
6
CONTINUOUS
10
0.3474409448818898
20
0.1318267716535433
11
0.3480403149606299
21
0.1348400393700787
0
LINE
8
BLACK
6
CONTINUOUS
10
0.3480403149606299
20
0.1348400393700787
11
0.3497472047244095
21
0.1373945275590551
0
LINE
8
BLACK
6
CONTINUOUS
10
0.3497472047244095
20
0.1373945275590551
11
0.3523016929133858
21
0.1391014173228347
0
LINE
8
BLACK
6
CONTINUOUS
10
0.3523016929133858
20
0.1391014173228347
11
0.3553149606299212
21
0.1397007874015748
0
LINE
8
BLACK
6
CONTINUOUS
10
0.3553149606299212
20
0.1397007874015748
11
0.3710629921259843
21
0.1397007874015748
0
LINE
8
BLACK
6
CONTINUOUS
10
0.3710629921259843
20
0.1397007874015748
11
0.3740762598425197
21
0.1391014173228347
0
LINE
8
BLACK
6
CONTINUOUS
10
0.4390368897637795
20
0.1391014173228347
11
0.4415913779527559
21
0.1373945275590551
0
LINE
8
BLACK
6
CONTINUOUS
10
0.4415913779527559
20
0.1373945275590551
11
0.4432982677165354
21
0.1348400393700787
0
LINE
8
BLACK
6
CONTINUOUS
10
0.4432982677165354
20
0.1348400393700787
11
0.4438976377952756
21
0.1318267716535433
0
LINE
8
BLACK
6
CONTINUOUS
10
0.4438976377952756
20
0.1318267716535433
11
0.4438976377952756
21
0.1101732283464567
0
LINE
8
BLACK
6
CONTINUOUS
10
0.4438976377952756
20
0.1101732283464567
11
0.4432982677165354
21
0.1071599606299213
0
LINE
8
BLACK
6
CONTINUOUS
10
0.4432982677165354
20
0.1071599606299213
11
0.4415913779527559
21
0.1046054724409449
0
LINE
8
BLACK
6
CONTINUOUS
10
0.4415913779527559
20
0.1046054724409449
11
0.4390368897637795
21
0.1028985826771654
0
LINE
8
BLACK
6
CONTINUOUS
10
0.4390368897637795
20
0.1028985826771654
11
0.4360236220472441
21
0.1022992125984252
0
LINE
8
BLACK
6
CONTINUOUS
10
0.4360236220472441
20
0.1022992125984252
11
0.4202755905511811
21
0.1022992125984252
0
LINE
8
BLACK
6
CONTINUOUS
10
0.4202755905511811
20
0.1022992125984252
11
0.4172623228346456
21
0.1028985826771654
0
LINE
8
BLACK
6
CONTINUOUS
10
0.4172623228346456
20
0.1028985826771654
11
0.4147078346456693
21
0.1046054724409449
0
LINE
8
BLACK
6
CONTINUOUS
10
0.4147078346456693
20
0.1046054724409449
11
0.4130009448818898
21
0.1071599606299213
0
LINE
8
BLACK
6
CONTINUOUS
10
0.4130009448818898
20
0.1071599606299213
11
0.4124015748031496
21
0.1101732283464567
0
LINE
8
BLACK
6
CONTINUOUS
10
0.4124015748031496
20
0.1101732283464567
11
0.4124015748031496
21
0.1318267716535433
0
LINE
8
BLACK
6
CONTINUOUS
10
0.4124015748031496
20
0.1318267716535433
11
0.4130009448818898
21
0.1348400393700787
0
LINE
8
BLACK
6
CONTINUOUS
10
0.4130009448818898
20
0.1348400393700787
11
0.4147078346456693
21
0.1373945275590551
0
LINE
8
BLACK
6
CONTINUOUS
10
0.4147078346456693
20
0.1373945275590551
11
0.4172623228346456
21
0.1391014173228347
0
LINE
8
BLACK
6
CONTINUOUS
10
0.4172623228346456
20
0.1391014173228347
11
0.4202755905511811
21
0.1397007874015748
0
LINE
8
BLACK
6
CONTINUOUS
10
0.4202755905511811
20
0.1397007874015748
11
0.4360236220472441
21
0.1397007874015748
0
LINE
8
BLACK
6
CONTINUOUS
10
0.4360236220472441
20
0.1397007874015748
11
0.4390368897637795
21
0.1391014173228347
0
LINE
8
BLACK
6
CONTINUOUS
10
0.1110500393700787
20
0.167557874015748
11
0.1142431889763779
21
0.1654242913385827
0
LINE
8
BLACK
6
CONTINUOUS
10
0.1142431889763779
20
0.1654242913385827
11
0.1163767716535433
21
0.1622311417322835
0
LINE
8
BLACK
6
CONTINUOUS
10
0.1163767716535433
20
0.1622311417322835
11
0.1171259842519685
21
0.1584645669291339
0
LINE
8
BLACK
6
CONTINUOUS
10
0.1171259842519685
20
0.1584645669291339
11
0.1171259842519685
21
0.1387795275590551
0
LINE
8
BLACK
6
CONTINUOUS
10
0.1171259842519685
20
0.1387795275590551
11
0.1163767716535433
21
0.1350129527559055
0
LINE
8
BLACK
6
CONTINUOUS
10
0.1163767716535433
20
0.1350129527559055
11
0.1142431889763779
21
0.1318198031496063
0
LINE
8
BLACK
6
CONTINUOUS
10
0.1142431889763779
20
0.1318198031496063
11
0.1110500393700787
21
0.1296862204724409
0
LINE
8
BLACK
6
CONTINUOUS
10
0.1110500393700787
20
0.1296862204724409
11
0.1072834645669291
21
0.1289370078740157
0
LINE
8
BLACK
6
CONTINUOUS
10
0.1072834645669291
20
0.1289370078740157
11
0.0206692913385827
21
0.1289370078740157
0
LINE
8
BLACK
6
CONTINUOUS
10
0.0206692913385827
20
0.1289370078740157
11
0.0169027165354331
21
0.1296862204724409
0
LINE
8
BLACK
6
CONTINUOUS
10
0.0169027165354331
20
0.1296862204724409
11
0.0137095669291339
21
0.1318198031496063
0
LINE
8
BLACK
6
CONTINUOUS
10
0.0137095669291339
20
0.1318198031496063
11
0.0115759842519685
21
0.1350129527559055
0
LINE
8
BLACK
6
CONTINUOUS
10
0.0115759842519685
20
0.1350129527559055
11
0.0108267716535433
21
0.1387795275590551
0
LINE
8
BLACK
6
CONTINUOUS
10
0.0108267716535433
20
0.1387795275590551
11
0.0108267716535433
21
0.1584645669291339
0
LINE
8
BLACK
6
CONTINUOUS
10
0.0108267716535433
20
0.1584645669291339
11
0.0115759842519685
21
0.1622311417322835
0
LINE
8
BLACK
6
CONTINUOUS
10
0.0115759842519685
20
0.1622311417322835
11
0.0137095669291339
21
0.1654242913385827
0
LINE
8
BLACK
6
CONTINUOUS
10
0.0137095669291339
20
0.1654242913385827
11
0.0169027165354331
21
0.167557874015748
0
LINE
8
BLACK
6
CONTINUOUS
10
0.0169027165354331
20
0.167557874015748
11
0.0206692913385827
21
0.1683070866141732
0
LINE
8
BLACK
6
CONTINUOUS
10
0.0206692913385827
20
0.1683070866141732
11
0.1072834645669291
21
0.1683070866141732
0
LINE
8
BLACK
6
CONTINUOUS
10
0.1072834645669291
20
0.1683070866141732
11
0.1110500393700787
21
0.167557874015748
0
LINE
8
BLACK
6
CONTINUOUS
10
0.3664331889763779
20
0.2136252755905512
11
0.3683490551181102
21
0.2123451181102362
0
LINE
8
BLACK
6
CONTINUOUS
10
0.3683490551181102
20
0.2123451181102362
11
0.3696292125984252
21
0.2104292519685039
0
LINE
8
BLACK
6
CONTINUOUS
10
0.3696292125984252
20
0.2104292519685039
11
0.3700787401574803
21
0.2081692913385827
0
LINE
8
BLACK
6
CONTINUOUS
10
0.3700787401574803
20
0.2081692913385827
11
0.3700787401574803
21
0.1678149606299213
0
LINE
8
BLACK
6
CONTINUOUS
10
0.3700787401574803
20
0.1678149606299213
11
0.3696292125984252
21
0.165555
0
LINE
8
BLACK
6
CONTINUOUS
10
0.3696292125984252
20
0.165555
11
0.3683490551181102
21
0.1636391338582677
0
LINE
8
BLACK
6
CONTINUOUS
10
0.3683490551181102
20
0.1636391338582677
11
0.3664331889763779
21
0.1623589763779527
0
LINE
8
BLACK
6
CONTINUOUS
10
0.3664331889763779
20
0.1623589763779527
11
0.3641732283464567
21
0.1619094488188976
0
LINE
8
BLACK
6
CONTINUOUS
10
0.3641732283464567
20
0.1619094488188976
11
0.3523622047244094
21
0.1619094488188976
0
LINE
8
BLACK
6
CONTINUOUS
10
0.3523622047244094
20
0.1619094488188976
11
0.3501022440944882
21
0.1623589763779527
0
LINE
8
BLACK
6
CONTINUOUS
10
0.3501022440944882
20
0.1623589763779527
11
0.3481863779527559
21
0.1636391338582677
0
LINE
8
BLACK
6
CONTINUOUS
10
0.3481863779527559
20
0.1636391338582677
11
0.346906220472441
21
0.165555
0
LINE
8
BLACK
6
CONTINUOUS
10
0.346906220472441
20
0.165555
11
0.3464566929133858
21
0.1678149606299213
0
LINE
8
BLACK
6
CONTINUOUS
10
0.3464566929133858
20
0.1678149606299213
11
0.3464566929133858
21
0.2081692913385827
0
LINE
8
BLACK
6
CONTINUOUS
10
0.3464566929133858
20
0.2081692913385827
11
0.346906220472441
21
0.2104292519685039
0
LINE
8
BLACK
6
CONTINUOUS
10
0.346906220472441
20
0.2104292519685039
11
0.3481863779527559
21
0.2123451181102362
0
LINE
8
BLACK
6
CONTINUOUS
10
0.3481863779527559
20
0.2123451181102362
11
0.3501022440944882
21
0.2136252755905512
0
LINE
8
BLACK
6
CONTINUOUS
10
0.3501022440944882
20
0.2136252755905512
11
0.3523622047244094
21
0.2140748031496063
0
LINE
8
BLACK
6
CONTINUOUS
10
0.3523622047244094
20
0.2140748031496063
11
0.3641732283464567
21
0.2140748031496063
0
LINE
8
BLACK
6
CONTINUOUS
10
0.3641732283464567
20
0.2140748031496063
11
0.3664331889763779
21
0.2136252755905512
0
LINE
8
BLACK
6
CONTINUOUS
10
0.4412363385826771
20
0.2136252755905512
11
0.4431522047244094
21
0.2123451181102362
0
LINE
8
BLACK
6
CONTINUOUS
10
0.4431522047244094
20
0.2123451181102362
11
0.4444323622047244
21
0.2104292519685039
0
LINE
8
BLACK
6
CONTINUOUS
10
0.4444323622047244
20
0.2104292519685039
11
0.4448818897637795
21
0.2081692913385827
0
LINE
8
BLACK
6
CONTINUOUS
10
0.4448818897637795
20
0.2081692913385827
11
0.4448818897637795
21
0.1678149606299213
0
LINE
8
BLACK
6
CONTINUOUS
10
0.4448818897637795
20
0.1678149606299213
11
0.4444323622047244
21
0.165555
0
LINE
8
BLACK
6
CONTINUOUS
10
0.4444323622047244
20
0.165555
11
0.4431522047244094
21
0.1636391338582677
0
LINE
8
BLACK
6
CONTINUOUS
10
0.4431522047244094
20
0.1636391338582677
11
0.4412363385826771
21
0.1623589763779527
0
LINE
8
BLACK
6
CONTINUOUS
10
0.4412363385826771
20
0.1623589763779527
11
0.4389763779527559
21
0.1619094488188976
0
LINE
8
BLACK
6
CONTINUOUS
10
0.4389763779527559
20
0.1619094488188976
11
0.4271653543307086
21
0.1619094488188976
0
LINE
8
BLACK
6
CONTINUOUS
10
0.4271653543307086
20
0.1619094488188976
11
0.4249053937007874
21
0.1623589763779527
0
LINE
8
BLACK
6
CONTINUOUS
10
0.4249053937007874
20
0.1623589763779527
11
0.4229895275590551
21
0.1636391338582677
0
LINE
8
BLACK
6
CONTINUOUS
10
0.4229895275590551
20
0.1636391338582677
11
0.4217093700787402
21
0.165555
0
LINE
8
BLACK
6
CONTINUOUS
10
0.4217093700787402
20
0.165555
11
0.421259842519685
21
0.1678149606299213
0
LINE
8
BLACK
6
CONTINUOUS
10
0.421259842519685
20
0.1678149606299213
11
0.421259842519685
21
0.2081692913385827
0
LINE
8
BLACK
6
CONTINUOUS
10
0.421259842519685
20
0.2081692913385827
11
0.4217093700787402
21
0.2104292519685039
0
LINE
8
BLACK
6
CONTINUOUS
10
0.4217093700787402
20
0.2104292519685039
11
0.4229895275590551
21
0.2123451181102362
0
LINE
8
BLACK
6
CONTINUOUS
10
0.4229895275590551
20
0.2123451181102362
11
0.4249053937007874
21
0.2136252755905512
0
LINE
8
BLACK
6
CONTINUOUS
10
0.4249053937007874
20
0.2136252755905512
11
0.4271653543307086
21
0.2140748031496063
0
LINE
8
BLACK
6
CONTINUOUS
10
0.4271653543307086
20
0.2140748031496063
11
0.4389763779527559
21
0.2140748031496063
0
LINE
8
BLACK
6
CONTINUOUS
10
0.4389763779527559
20
0.2140748031496063
11
0.4412363385826771
21
0.2136252755905512
0
LINE
8
BLACK
6
CONTINUOUS
10
0.5199253543307086
20
0.2226524803149606
11
0.5227991732283465
21
0.2207322440944882
0
LINE
8
BLACK
6
CONTINUOUS
10
0.5227991732283465
20
0.2207322440944882
11
0.5247194094488189
21
0.2178584251968504
0
LINE
8
BLACK
6
CONTINUOUS
10
0.5247194094488189
20
0.2178584251968504
11
0.5253937007874016
21
0.2144685039370079
0
LINE
8
BLACK
6
CONTINUOUS
10
0.5253937007874016
20
0.2144685039370079
11
0.5253937007874016
21
0.196751968503937
0
LINE
8
BLACK
6
CONTINUOUS
10
0.5253937007874016
20
0.196751968503937
11
0.5247194094488189
21
0.1933620472440945
0
LINE
8
BLACK
6
CONTINUOUS
10
0.5247194094488189
20
0.1933620472440945
11
0.5227991732283465
21
0.1904882283464567
0
LINE
8
BLACK
6
CONTINUOUS
10
0.5227991732283465
20
0.1904882283464567
11
0.5199253543307086
21
0.1885679921259842
0
LINE
8
BLACK
6
CONTINUOUS
10
0.5199253543307086
20
0.1885679921259842
11
0.5165354330708661
21
0.1878937007874016
0
LINE
8
BLACK
6
CONTINUOUS
10
0.5165354330708661
20
0.1878937007874016
11
0.4968503937007874
21
0.1878937007874016
0
LINE
8
BLACK
6
CONTINUOUS
10
0.4968503937007874
20
0.1878937007874016
11
0.4934604724409449
21
0.1885679921259842
0
LINE
8
BLACK
6
CONTINUOUS
10
0.4934604724409449
20
0.1885679921259842
11
0.490586653543307
21
0.1904882283464567
0
LINE
8
BLACK
6
CONTINUOUS
10
0.490586653543307
20
0.1904882283464567
11
0.4886664173228346
21
0.1933620472440945
0
LINE
8
BLACK
6
CONTINUOUS
10
0.4886664173228346
20
0.1933620472440945
11
0.487992125984252
21
0.196751968503937
0
LINE
8
BLACK
6
CONTINUOUS
10
0.487992125984252
20
0.196751968503937
11
0.487992125984252
21
0.2144685039370079
0
LINE
8
BLACK
6
CONTINUOUS
10
0.487992125984252
20
0.2144685039370079
11
0.4886664173228346
21
0.2178584251968504
0
LINE
8
BLACK
6
CONTINUOUS
10
0.4886664173228346
20
0.2178584251968504
11
0.490586653543307
21
0.2207322440944882
0
LINE
8
BLACK
6
CONTINUOUS
10
0.490586653543307
20
0.2207322440944882
11
0.4934604724409449
21
0.2226524803149606
0
LINE
8
BLACK
6
CONTINUOUS
10
0.4934604724409449
20
0.2226524803149606
11
0.4968503937007874
21
0.2233267716535433
0
LINE
8
BLACK
6
CONTINUOUS
10
0.4968503937007874
20
0.2233267716535433
11
0.5165354330708661
21
0.2233267716535433
0
LINE
8
BLACK
6
CONTINUOUS
10
0.5165354330708661
20
0.2233267716535433
11
0.5199253543307086
21
0.2226524803149606
0
LINE
8
BLACK
6
CONTINUOUS
10
0.5858702362204724
20
0.2226524803149606
11
0.5887440551181102
21
0.2207322440944882
0
LINE
8
BLACK
6
CONTINUOUS
10
0.5887440551181102
20
0.2207322440944882
11
0.5906642913385827
21
0.2178584251968504
0
LINE
8
BLACK
6
CONTINUOUS
10
0.5906642913385827
20
0.2178584251968504
11
0.5913385826771653
21
0.2144685039370079
0
LINE
8
BLACK
6
CONTINUOUS
10
0.5913385826771653
20
0.2144685039370079
11
0.5913385826771653
21
0.196751968503937
0
LINE
8
BLACK
6
CONTINUOUS
10
0.5913385826771653
20
0.196751968503937
11
0.5906642913385827
21
0.1933620472440945
0
LINE
8
BLACK
6
CONTINUOUS
10
0.5906642913385827
20
0.1933620472440945
11
0.5887440551181102
21
0.1904882283464567
0
LINE
8
BLACK
6
CONTINUOUS
10
0.5887440551181102
20
0.1904882283464567
11
0.5858702362204724
21
0.1885679921259842
0
LINE
8
BLACK
6
CONTINUOUS
10
0.5858702362204724
20
0.1885679921259842
11
0.5824803149606299
21
0.1878937007874016
0
LINE
8
BLACK
6
CONTINUOUS
10
0.5824803149606299
20
0.1878937007874016
11
0.5627952755905512
21
0.1878937007874016
0
LINE
8
BLACK
6
CONTINUOUS
10
0.5627952755905512
20
0.1878937007874016
11
0.5594053543307087
21
0.1885679921259842
0
LINE
8
BLACK
6
CONTINUOUS
10
0.5594053543307087
20
0.1885679921259842
11
0.5565315354330709
21
0.1904882283464567
0
LINE
8
BLACK
6
CONTINUOUS
10
0.5565315354330709
20
0.1904882283464567
11
0.5546112992125984
21
0.1933620472440945
0
LINE
8
BLACK
6
CONTINUOUS
10
0.5546112992125984
20
0.1933620472440945
11
0.5539370078740158
21
0.196751968503937
0
LINE
8
BLACK
6
CONTINUOUS
10
0.5539370078740158
20
0.196751968503937
11
0.5539370078740158
21
0.2144685039370079
0
LINE
8
BLACK
6
CONTINUOUS
10
0.5539370078740158
20
0.2144685039370079
11
0.5546112992125984
21
0.2178584251968504
0
LINE
8
BLACK
6
CONTINUOUS
10
0.5546112992125984
20
0.2178584251968504
11
0.5565315354330709
21
0.2207322440944882
0
LINE
8
BLACK
6
CONTINUOUS
10
0.5565315354330709
20
0.2207322440944882
11
0.5594053543307087
21
0.2226524803149606
0
LINE
8
BLACK
6
CONTINUOUS
10
0.5594053543307087
20
0.2226524803149606
11
0.5627952755905512
21
0.2233267716535433
0
LINE
8
BLACK
6
CONTINUOUS
10
0.5627952755905512
20
0.2233267716535433
11
0.5824803149606299
21
0.2233267716535433
0
LINE
8
BLACK
6
CONTINUOUS
10
0.5824803149606299
20
0.2233267716535433
11
0.5858702362204724
21
0.2226524803149606
0
LINE
8
BLACK
6
CONTINUOUS
10
0.2197796456692913
20
0.232818188976378
11
0.2216955118110236
21
0.231538031496063
0
LINE
8
BLACK
6
CONTINUOUS
10
0.2216955118110236
20
0.231538031496063
11
0.2229756692913386
21
0.2296221653543307
0
LINE
8
BLACK
6
CONTINUOUS
10
0.2229756692913386
20
0.2296221653543307
11
0.2234251968503937
21
0.2273622047244094
0
LINE
8
BLACK
6
CONTINUOUS
10
0.2234251968503937
20
0.2273622047244094
11
0.2234251968503937
21
0.2155511811023622
0
LINE
8
BLACK
6
CONTINUOUS
10
0.2234251968503937
20
0.2155511811023622
11
0.2229756692913386
21
0.213291220472441
0
LINE
8
BLACK
6
CONTINUOUS
10
0.2229756692913386
20
0.213291220472441
11
0.2216955118110236
21
0.2113753543307087
0
LINE
8
BLACK
6
CONTINUOUS
10
0.2216955118110236
20
0.2113753543307087
11
0.2197796456692913
21
0.2100951968503937
0
LINE
8
BLACK
6
CONTINUOUS
10
0.2197796456692913
20
0.2100951968503937
11
0.2175196850393701
21
0.2096456692913386
0
LINE
8
BLACK
6
CONTINUOUS
10
0.2175196850393701
20
0.2096456692913386
11
0.1624015748031496
21
0.2096456692913386
0
LINE
8
BLACK
6
CONTINUOUS
10
0.1624015748031496
20
0.2096456692913386
11
0.1601416141732283
21
0.2100951968503937
0
LINE
8
BLACK
6
CONTINUOUS
10
0.1601416141732283
20
0.2100951968503937
11
0.1582257480314961
21
0.2113753543307087
0
LINE
8
BLACK
6
CONTINUOUS
10
0.1582257480314961
20
0.2113753543307087
11
0.1569455905511811
21
0.213291220472441
0
LINE
8
BLACK
6
CONTINUOUS
10
0.1569455905511811
20
0.213291220472441
11
0.156496062992126
21
0.2155511811023622
0
LINE
8
BLACK
6
CONTINUOUS
10
0.156496062992126
20
0.2155511811023622
11
0.156496062992126
21
0.2273622047244094
0
LINE
8
BLACK
6
CONTINUOUS
10
0.156496062992126
20
0.2273622047244094
11
0.1569455905511811
21
0.2296221653543307
0
LINE
8
BLACK
6
CONTINUOUS
10
0.1569455905511811
20
0.2296221653543307
11
0.1582257480314961
21
0.231538031496063
0
LINE
8
BLACK
6
CONTINUOUS
10
0.1582257480314961
20
0.231538031496063
11
0.1601416141732283
21
0.232818188976378
0
LINE
8
BLACK
6
CONTINUOUS
10
0.1601416141732283
20
0.232818188976378
11
0.1624015748031496
21
0.2332677165354331
0
LINE
8
BLACK
6
CONTINUOUS
10
0.1624015748031496
20
0.2332677165354331
11
0.2175196850393701
21
0.2332677165354331
0
LINE
8
BLACK
6
CONTINUOUS
10
0.2175196850393701
20
0.2332677165354331
11
0.2197796456692913
21
0.232818188976378
0
LINE
8
BLACK
6
CONTINUOUS
10
0.6651574803149606
20
0.2228346456692913
11
0.6218503937007874
21
0.2228346456692913
0
LINE
8
BLACK
6
CONTINUOUS
10
0.6218503937007874
20
0.2228346456692913
11
0.6218503937007874
21
0.2326771653543307
0
LINE
8
BLACK
6
CONTINUOUS
10
0.6218503937007874
20
0.2326771653543307
11
0.6651574803149606
21
0.2326771653543307
0
LINE
8
BLACK
6
CONTINUOUS
10
0.6651574803149606
20
0.2326771653543307
11
0.6651574803149606
21
0.2228346456692913
0
LINE
8
BLACK
6
CONTINUOUS
10
0.8344488188976378
20
0.2228346456692913
11
0.7911417322834645
21
0.2228346456692913
0
LINE
8
BLACK
6
CONTINUOUS
10
0.7911417322834645
20
0.2228346456692913
11
0.7911417322834645
21
0.2326771653543307
0
LINE
8
BLACK
6
CONTINUOUS
10
0.7911417322834645
20
0.2326771653543307
11
0.8344488188976378
21
0.2326771653543307
0
LINE
8
BLACK
6
CONTINUOUS
10
0.8344488188976378
20
0.2326771653543307
11
0.8344488188976378
21
0.2228346456692913
0
LINE
8
BLACK
6
CONTINUOUS
10
0.6651574803149606
20
0.2425196850393701
11
0.6218503937007874
21
0.2425196850393701
0
LINE
8
BLACK
6
CONTINUOUS
10
0.6218503937007874
20
0.2425196850393701
11
0.6218503937007874
21
0.2523622047244095
0
LINE
8
BLACK
6
CONTINUOUS
10
0.6218503937007874
20
0.2523622047244095
11
0.6651574803149606
21
0.2523622047244095
0
LINE
8
BLACK
6
CONTINUOUS
10
0.6651574803149606
20
0.2523622047244095
11
0.6651574803149606
21
0.2425196850393701
0
LINE
8
BLACK
6
CONTINUOUS
10
0.8344488188976378
20
0.2425196850393701
11
0.7911417322834645
21
0.2425196850393701
0
LINE
8
BLACK
6
CONTINUOUS
10
0.7911417322834645
20
0.2425196850393701
11
0.7911417322834645
21
0.2523622047244095
0
LINE
8
BLACK
6
CONTINUOUS
10
0.7911417322834645
20
0.2523622047244095
11
0.8344488188976378
21
0.2523622047244095
0
LINE
8
BLACK
6
CONTINUOUS
10
0.8344488188976378
20
0.2523622047244095
11
0.8344488188976378
21
0.2425196850393701
0
LINE
8
BLACK
6
CONTINUOUS
10
0.5199253543307086
20
0.2836761023622047
11
0.5227991732283465
21
0.2817558661417323
0
LINE
8
BLACK
6
CONTINUOUS
10
0.5227991732283465
20
0.2817558661417323
11
0.5247194094488189
21
0.2788820472440945
0
LINE
8
BLACK
6
CONTINUOUS
10
0.5247194094488189
20
0.2788820472440945
11
0.5253937007874016
21
0.275492125984252
0
LINE
8
BLACK
6
CONTINUOUS
10
0.5253937007874016
20
0.275492125984252
11
0.5253937007874016
21
0.2577755905511811
0
LINE
8
BLACK
6
CONTINUOUS
10
0.5253937007874016
20
0.2577755905511811
11
0.5247194094488189
21
0.2543856692913386
0
LINE
8
BLACK
6
CONTINUOUS
10
0.5247194094488189
20
0.2543856692913386
11
0.5227991732283465
21
0.2515118503937008
0
LINE
8
BLACK
6
CONTINUOUS
10
0.5227991732283465
20
0.2515118503937008
11
0.5199253543307086
21
0.2495916141732283
0
LINE
8
BLACK
6
CONTINUOUS
10
0.5199253543307086
20
0.2495916141732283
11
0.5165354330708661
21
0.2489173228346457
0
LINE
8
BLACK
6
CONTINUOUS
10
0.5165354330708661
20
0.2489173228346457
11
0.4968503937007874
21
0.2489173228346457
0
LINE
8
BLACK
6
CONTINUOUS
10
0.4968503937007874
20
0.2489173228346457
11
0.4934604724409449
21
0.2495916141732283
0
LINE
8
BLACK
6
CONTINUOUS
10
0.4934604724409449
20
0.2495916141732283
11
0.490586653543307
21
0.2515118503937008
0
LINE
8
BLACK
6
CONTINUOUS
10
0.490586653543307
20
0.2515118503937008
11
0.4886664173228346
21
0.2543856692913386
0
LINE
8
BLACK
6
CONTINUOUS
10
0.4886664173228346
20
0.2543856692913386
11
0.487992125984252
21
0.2577755905511811
0
LINE
8
BLACK
6
CONTINUOUS
10
0.487992125984252
20
0.2577755905511811
11
0.487992125984252
21
0.275492125984252
0
LINE
8
BLACK
6
CONTINUOUS
10
0.487992125984252
20
0.275492125984252
11
0.4886664173228346
21
0.2788820472440945
0
LINE
8
BLACK
6
CONTINUOUS
10
0.4886664173228346
20
0.2788820472440945
11
0.490586653543307
21
0.2817558661417323
0
LINE
8
BLACK
6
CONTINUOUS
10
0.490586653543307
20
0.2817558661417323
11
0.4934604724409449
21
0.2836761023622047
0
LINE
8
BLACK
6
CONTINUOUS
10
0.4934604724409449
20
0.2836761023622047
11
0.4968503937007874
21
0.2843503937007874
0
LINE
8
BLACK
6
CONTINUOUS
10
0.4968503937007874
20
0.2843503937007874
11
0.5165354330708661
21
0.2843503937007874
0
LINE
8
BLACK
6
CONTINUOUS
10
0.5165354330708661
20
0.2843503937007874
11
0.5199253543307086
21
0.2836761023622047
0
LINE
8
BLACK
6
CONTINUOUS
10
0.5858702362204724
20
0.2836761023622047
11
0.5887440551181102
21
0.2817558661417323
0
LINE
8
BLACK
6
CONTINUOUS
10
0.5887440551181102
20
0.2817558661417323
11
0.5906642913385827
21
0.2788820472440945
0
LINE
8
BLACK
6
CONTINUOUS
10
0.5906642913385827
20
0.2788820472440945
11
0.5913385826771653
21
0.275492125984252
0
LINE
8
BLACK
6
CONTINUOUS
10
0.5913385826771653
20
0.275492125984252
11
0.5913385826771653
21
0.2577755905511811
0
LINE
8
BLACK
6
CONTINUOUS
10
0.5913385826771653
20
0.2577755905511811
11
0.5906642913385827
21
0.2543856692913386
0
LINE
8
BLACK
6
CONTINUOUS
10
0.5906642913385827
20
0.2543856692913386
11
0.5887440551181102
21
0.2515118503937008
0
LINE
8
BLACK
6
CONTINUOUS
10
0.5887440551181102
20
0.2515118503937008
11
0.5858702362204724
21
0.2495916141732283
0
LINE
8
BLACK
6
CONTINUOUS
10
0.5858702362204724
20
0.2495916141732283
11
0.5824803149606299
21
0.2489173228346457
0
LINE
8
BLACK
6
CONTINUOUS
10
0.5824803149606299
20
0.2489173228346457
11
0.5627952755905512
21
0.2489173228346457
0
LINE
8
BLACK
6
CONTINUOUS
10
0.5627952755905512
20
0.2489173228346457
11
0.5594053543307087
21
0.2495916141732283
0
LINE
8
BLACK
6
CONTINUOUS
10
0.5594053543307087
20
0.2495916141732283
11
0.5565315354330709
21
0.2515118503937008
0
LINE
8
BLACK
6
CONTINUOUS
10
0.5565315354330709
20
0.2515118503937008
11
0.5546112992125984
21
0.2543856692913386
0
LINE
8
BLACK
6
CONTINUOUS
10
0.5546112992125984
20
0.2543856692913386
11
0.5539370078740158
21
0.2577755905511811
0
LINE
8
BLACK
6
CONTINUOUS
10
0.5539370078740158
20
0.2577755905511811
11
0.5539370078740158
21
0.275492125984252
0
LINE
8
BLACK
6
CONTINUOUS
10
0.5539370078740158
20
0.275492125984252
11
0.5546112992125984
21
0.2788820472440945
0
LINE
8
BLACK
6
CONTINUOUS
10
0.5546112992125984
20
0.2788820472440945
11
0.5565315354330709
21
0.2817558661417323
0
LINE
8
BLACK
6
CONTINUOUS
10
0.5565315354330709
20
0.2817558661417323
11
0.5594053543307087
21
0.2836761023622047
0
LINE
8
BLACK
6
CONTINUOUS
10
0.5594053543307087
20
0.2836761023622047
11
0.5627952755905512
21
0.2843503937007874
0
LINE
8
BLACK
6
CONTINUOUS
10
0.5627952755905512
20
0.2843503937007874
11
0.5824803149606299
21
0.2843503937007874
0
LINE
8
BLACK
6
CONTINUOUS
10
0.5824803149606299
20
0.2843503937007874
11
0.5858702362204724
21
0.2836761023622047
0
LINE
8
BLACK
6
CONTINUOUS
10
0.3664331889763779
20
0.3031922047244094
11
0.3683490551181102
21
0.3019120472440945
0
LINE
8
BLACK
6
CONTINUOUS
10
0.3683490551181102
20
0.3019120472440945
11
0.3696292125984252
21
0.2999961811023622
0
LINE
8
BLACK
6
CONTINUOUS
10
0.3696292125984252
20
0.2999961811023622
11
0.3700787401574803
21
0.2977362204724409
0
LINE
8
BLACK
6
CONTINUOUS
10
0.3700787401574803
20
0.2977362204724409
11
0.3700787401574803
21
0.2573818897637795
0
LINE
8
BLACK
6
CONTINUOUS
10
0.3700787401574803
20
0.2573818897637795
11
0.3696292125984252
21
0.2551219291338583
0
LINE
8
BLACK
6
CONTINUOUS
10
0.3696292125984252
20
0.2551219291338583
11
0.3683490551181102
21
0.253206062992126
0
LINE
8
BLACK
6
CONTINUOUS
10
0.3683490551181102
20
0.253206062992126
11
0.3664331889763779
21
0.251925905511811
0
LINE
8
BLACK
6
CONTINUOUS
10
0.3664331889763779
20
0.251925905511811
11
0.3641732283464567
21
0.2514763779527559
0
LINE
8
BLACK
6
CONTINUOUS
10
0.3641732283464567
20
0.2514763779527559
11
0.3523622047244094
21
0.2514763779527559
0
LINE
8
BLACK
6
CONTINUOUS
10
0.3523622047244094
20
0.2514763779527559
11
0.3501022440944882
21
0.251925905511811
0
LINE
8
BLACK
6
CONTINUOUS
10
0.3501022440944882
20
0.251925905511811
11
0.3481863779527559
21
0.253206062992126
0
LINE
8
BLACK
6
CONTINUOUS
10
0.3481863779527559
20
0.253206062992126
11
0.346906220472441
21
0.2551219291338583
0
LINE
8
BLACK
6
CONTINUOUS
10
0.346906220472441
20
0.2551219291338583
11
0.3464566929133858
21
0.2573818897637795
0
LINE
8
BLACK
6
CONTINUOUS
10
0.3464566929133858
20
0.2573818897637795
11
0.3464566929133858
21
0.2977362204724409
0
LINE
8
BLACK
6
CONTINUOUS
10
0.3464566929133858
20
0.2977362204724409
11
0.346906220472441
21
0.2999961811023622
0
LINE
8
BLACK
6
CONTINUOUS
10
0.346906220472441
20
0.2999961811023622
11
0.3481863779527559
21
0.3019120472440945
0
LINE
8
BLACK
6
CONTINUOUS
10
0.3481863779527559
20
0.3019120472440945
11
0.3501022440944882
21
0.3031922047244094
0
LINE
8
BLACK
6
CONTINUOUS
10
0.3501022440944882
20
0.3031922047244094
11
0.3523622047244094
21
0.3036417322834646
0
LINE
8
BLACK
6
CONTINUOUS
10
0.3523622047244094
20
0.3036417322834646
11
0.3641732283464567
21
0.3036417322834646
0
LINE
8
BLACK
6
CONTINUOUS
10
0.3641732283464567
20
0.3036417322834646
11
0.3664331889763779
21
0.3031922047244094
0
LINE
8
BLACK
6
CONTINUOUS
10
0.4038347637795275
20
0.3031922047244094
11
0.4057506299212598
21
0.3019120472440945
0
LINE
8
BLACK
6
CONTINUOUS
10
0.4057506299212598
20
0.3019120472440945
11
0.4070307874015748
21
0.2999961811023622
0
LINE
8
BLACK
6
CONTINUOUS
10
0.4070307874015748
20
0.2999961811023622
11
0.4074803149606299
21
0.2977362204724409
0
LINE
8
BLACK
6
CONTINUOUS
10
0.4074803149606299
20
0.2977362204724409
11
0.4074803149606299
21
0.2573818897637795
0
LINE
8
BLACK
6
CONTINUOUS
10
0.4074803149606299
20
0.2573818897637795
11
0.4070307874015748
21
0.2551219291338583
0
LINE
8
BLACK
6
CONTINUOUS
10
0.4070307874015748
20
0.2551219291338583
11
0.4057506299212598
21
0.253206062992126
0
LINE
8
BLACK
6
CONTINUOUS
10
0.4057506299212598
20
0.253206062992126
11
0.4038347637795275
21
0.251925905511811
0
LINE
8
BLACK
6
CONTINUOUS
10
0.4038347637795275
20
0.251925905511811
11
0.4015748031496063
21
0.2514763779527559
0
LINE
8
BLACK
6
CONTINUOUS
10
0.4015748031496063
20
0.2514763779527559
11
0.389763779527559
21
0.2514763779527559
0
LINE
8
BLACK
6
CONTINUOUS
10
0.389763779527559
20
0.2514763779527559
11
0.3875038188976378
21
0.251925905511811
0
LINE
8
BLACK
6
CONTINUOUS
10
0.3875038188976378
20
0.251925905511811
11
0.3855879527559055
21
0.253206062992126
0
LINE
8
BLACK
6
CONTINUOUS
10
0.3855879527559055
20
0.253206062992126
11
0.3843077952755906
21
0.2551219291338583
0
LINE
8
BLACK
6
CONTINUOUS
10
0.3843077952755906
20
0.2551219291338583
11
0.3838582677165354
21
0.2573818897637795
0
LINE
8
BLACK
6
CONTINUOUS
10
0.3838582677165354
20
0.2573818897637795
11
0.3838582677165354
21
0.2977362204724409
0
LINE
8
BLACK
6
CONTINUOUS
10
0.3838582677165354
20
0.2977362204724409
11
0.3843077952755906
21
0.2999961811023622
0
LINE
8
BLACK
6
CONTINUOUS
10
0.3843077952755906
20
0.2999961811023622
11
0.3855879527559055
21
0.3019120472440945
0
LINE
8
BLACK
6
CONTINUOUS
10
0.3855879527559055
20
0.3019120472440945
11
0.3875038188976378
21
0.3031922047244094
0
LINE
8
BLACK
6
CONTINUOUS
10
0.3875038188976378
20
0.3031922047244094
11
0.389763779527559
21
0.3036417322834646
0
LINE
8
BLACK
6
CONTINUOUS
10
0.389763779527559
20
0.3036417322834646
11
0.4015748031496063
21
0.3036417322834646
0
LINE
8
BLACK
6
CONTINUOUS
10
0.4015748031496063
20
0.3036417322834646
11
0.4038347637795275
21
0.3031922047244094
0
LINE
8
BLACK
6
CONTINUOUS
10
0.4412363385826771
20
0.3031922047244094
11
0.4431522047244094
21
0.3019120472440945
0
LINE
8
BLACK
6
CONTINUOUS
10
0.4431522047244094
20
0.3019120472440945
11
0.4444323622047244
21
0.2999961811023622
0
LINE
8
BLACK
6
CONTINUOUS
10
0.4444323622047244
20
0.2999961811023622
11
0.4448818897637795
21
0.2977362204724409
0
LINE
8
BLACK
6
CONTINUOUS
10
0.4448818897637795
20
0.2977362204724409
11
0.4448818897637795
21
0.2573818897637795
0
LINE
8
BLACK
6
CONTINUOUS
10
0.4448818897637795
20
0.2573818897637795
11
0.4444323622047244
21
0.2551219291338583
0
LINE
8
BLACK
6
CONTINUOUS
10
0.4444323622047244
20
0.2551219291338583
11
0.4431522047244094
21
0.253206062992126
0
LINE
8
BLACK
6
CONTINUOUS
10
0.4431522047244094
20
0.253206062992126
11
0.4412363385826771
21
0.251925905511811
0
LINE
8
BLACK
6
CONTINUOUS
10
0.4412363385826771
20
0.251925905511811
11
0.4389763779527559
21
0.2514763779527559
0
LINE
8
BLACK
6
CONTINUOUS
10
0.4389763779527559
20
0.2514763779527559
11
0.4271653543307086
21
0.2514763779527559
0
LINE
8
BLACK
6
CONTINUOUS
10
0.4271653543307086
20
0.2514763779527559
11
0.4249053937007874
21
0.251925905511811
0
LINE
8
BLACK
6
CONTINUOUS
10
0.4249053937007874
20
0.251925905511811
11
0.4229895275590551
21
0.253206062992126
0
LINE
8
BLACK
6
CONTINUOUS
10
0.4229895275590551
20
0.253206062992126
11
0.4217093700787402
21
0.2551219291338583
0
LINE
8
BLACK
6
CONTINUOUS
10
0.4217093700787402
20
0.2551219291338583
11
0.421259842519685
21
0.2573818897637795
0
LINE
8
BLACK
6
CONTINUOUS
10
0.421259842519685
20
0.2573818897637795
11
0.421259842519685
21
0.2977362204724409
0
LINE
8
BLACK
6
CONTINUOUS
10
0.421259842519685
20
0.2977362204724409
11
0.4217093700787402
21
0.2999961811023622
0
LINE
8
BLACK
6
CONTINUOUS
10
0.4217093700787402
20
0.2999961811023622
11
0.4229895275590551
21
0.3019120472440945
0
LINE
8
BLACK
6
CONTINUOUS
10
0.4229895275590551
20
0.3019120472440945
11
0.4249053937007874
21
0.3031922047244094
0
LINE
8
BLACK
6
CONTINUOUS
10
0.4249053937007874
20
0.3031922047244094
11
0.4271653543307086
21
0.3036417322834646
0
LINE
8
BLACK
6
CONTINUOUS
10
0.4271653543307086
20
0.3036417322834646
11
0.4389763779527559
21
0.3036417322834646
0
LINE
8
BLACK
6
CONTINUOUS
10
0.4389763779527559
20
0.3036417322834646
11
0.4412363385826771
21
0.3031922047244094
0
LINE
8
BLACK
6
CONTINUOUS
10
0.2197796456692913
20
0.2820307874015748
11
0.2216955118110236
21
0.2807506299212598
0
LINE
8
BLACK
6
CONTINUOUS
10
0.2216955118110236
20
0.2807506299212598
11
0.2229756692913386
21
0.2788347637795275
0
LINE
8
BLACK
6
CONTINUOUS
10
0.2229756692913386
20
0.2788347637795275
11
0.2234251968503937
21
0.2765748031496063
0
LINE
8
BLACK
6
CONTINUOUS
10
0.2234251968503937
20
0.2765748031496063
11
0.2234251968503937
21
0.264763779527559
0
LINE
8
BLACK
6
CONTINUOUS
10
0.2234251968503937
20
0.264763779527559
11
0.2229756692913386
21
0.2625038188976378
0
LINE
8
BLACK
6
CONTINUOUS
10
0.2229756692913386
20
0.2625038188976378
11
0.2216955118110236
21
0.2605879527559055
0
LINE
8
BLACK
6
CONTINUOUS
10
0.2216955118110236
20
0.2605879527559055
11
0.2197796456692913
21
0.2593077952755906
0
LINE
8
BLACK
6
CONTINUOUS
10
0.2197796456692913
20
0.2593077952755906
11
0.2175196850393701
21
0.2588582677165354
0
LINE
8
BLACK
6
CONTINUOUS
10
0.2175196850393701
20
0.2588582677165354
11
0.1624015748031496
21
0.2588582677165354
0
LINE
8
BLACK
6
CONTINUOUS
10
0.1624015748031496
20
0.2588582677165354
11
0.1601416141732283
21
0.2593077952755906
0
LINE
8
BLACK
6
CONTINUOUS
10
0.1601416141732283
20
0.2593077952755906
11
0.1582257480314961
21
0.2605879527559055
0
LINE
8
BLACK
6
CONTINUOUS
10
0.1582257480314961
20
0.2605879527559055
11
0.1569455905511811
21
0.2625038188976378
0
LINE
8
BLACK
6
CONTINUOUS
10
0.1569455905511811
20
0.2625038188976378
11
0.156496062992126
21
0.264763779527559
0
LINE
8
BLACK
6
CONTINUOUS
10
0.156496062992126
20
0.264763779527559
11
0.156496062992126
21
0.2765748031496063
0
LINE
8
BLACK
6
CONTINUOUS
10
0.156496062992126
20
0.2765748031496063
11
0.1569455905511811
21
0.2788347637795275
0
LINE
8
BLACK
6
CONTINUOUS
10
0.1569455905511811
20
0.2788347637795275
11
0.1582257480314961
21
0.2807506299212598
0
LINE
8
BLACK
6
CONTINUOUS
10
0.1582257480314961
20
0.2807506299212598
11
0.1601416141732283
21
0.2820307874015748
0
LINE
8
BLACK
6
CONTINUOUS
10
0.1601416141732283
20
0.2820307874015748
11
0.1624015748031496
21
0.2824803149606299
0
LINE
8
BLACK
6
CONTINUOUS
10
0.1624015748031496
20
0.2824803149606299
11
0.2175196850393701
21
0.2824803149606299
0
LINE
8
BLACK
6
CONTINUOUS
10
0.2175196850393701
20
0.2824803149606299
11
0.2197796456692913
21
0.2820307874015748
0
LINE
8
BLACK
6
CONTINUOUS
10
0.6651574803149606
20
0.2622047244094488
11
0.6218503937007874
21
0.2622047244094488
0
LINE
8
BLACK
6
CONTINUOUS
10
0.6218503937007874
20
0.2622047244094488
11
0.6218503937007874
21
0.2720472440944882
0
LINE
8
BLACK
6
CONTINUOUS
10
0.6218503937007874
20
0.2720472440944882
11
0.6651574803149606
21
0.2720472440944882
0
LINE
8
BLACK
6
CONTINUOUS
10
0.6651574803149606
20
0.2720472440944882
11
0.6651574803149606
21
0.2622047244094488
0
LINE
8
BLACK
6
CONTINUOUS
10
0.8344488188976378
20
0.2622047244094488
11
0.7911417322834645
21
0.2622047244094488
0
LINE
8
BLACK
6
CONTINUOUS
10
0.7911417322834645
20
0.2622047244094488
11
0.7911417322834645
21
0.2720472440944882
0
LINE
8
BLACK
6
CONTINUOUS
10
0.7911417322834645
20
0.2720472440944882
11
0.8344488188976378
21
0.2720472440944882
0
LINE
8
BLACK
6
CONTINUOUS
10
0.8344488188976378
20
0.2720472440944882
11
0.8344488188976378
21
0.2622047244094488
0
LINE
8
BLACK
6
CONTINUOUS
10
0.6651574803149606
20
0.2818897637795276
11
0.6218503937007874
21
0.2818897637795276
0
LINE
8
BLACK
6
CONTINUOUS
10
0.6218503937007874
20
0.2818897637795276
11
0.6218503937007874
21
0.2917322834645669
0
LINE
8
BLACK
6
CONTINUOUS
10
0.6218503937007874
20
0.2917322834645669
11
0.6651574803149606
21
0.2917322834645669
0
LINE
8
BLACK
6
CONTINUOUS
10
0.6651574803149606
20
0.2917322834645669
11
0.6651574803149606
21
0.2818897637795276
0
LINE
8
BLACK
6
CONTINUOUS
10
0.8344488188976378
20
0.2818897637795276
11
0.7911417322834645
21
0.2818897637795276
0
LINE
8
BLACK
6
CONTINUOUS
10
0.7911417322834645
20
0.2818897637795276
11
0.7911417322834645
21
0.2917322834645669
0
LINE
8
BLACK
6
CONTINUOUS
10
0.7911417322834645
20
0.2917322834645669
11
0.8344488188976378
21
0.2917322834645669
0
LINE
8
BLACK
6
CONTINUOUS
10
0.8344488188976378
20
0.2917322834645669
11
0.8344488188976378
21
0.2818897637795276
0
LINE
8
BLACK
6
CONTINUOUS
10
0.6651574803149606
20
0.3015748031496063
11
0.6218503937007874
21
0.3015748031496063
0
LINE
8
BLACK
6
CONTINUOUS
10
0.6218503937007874
20
0.3015748031496063
11
0.6218503937007874
21
0.3114173228346457
0
LINE
8
BLACK
6
CONTINUOUS
10
0.6218503937007874
20
0.3114173228346457
11
0.6651574803149606
21
0.3114173228346457
0
LINE
8
BLACK
6
CONTINUOUS
10
0.6651574803149606
20
0.3114173228346457
11
0.6651574803149606
21
0.3015748031496063
0
LINE
8
BLACK
6
CONTINUOUS
10
0.8344488188976378
20
0.3015748031496063
11
0.7911417322834645
21
0.3015748031496063
0
LINE
8
BLACK
6
CONTINUOUS
10
0.7911417322834645
20
0.3015748031496063
11
0.7911417322834645
21
0.3114173228346457
0
LINE
8
BLACK
6
CONTINUOUS
10
0.7911417322834645
20
0.3114173228346457
11
0.8344488188976378
21
0.3114173228346457
0
LINE
8
BLACK
6
CONTINUOUS
10
0.8344488188976378
20
0.3114173228346457
11
0.8344488188976378
21
0.3015748031496063
0
LINE
8
BLACK
6
CONTINUOUS
10
0.2197796456692913
20
0.3312433858267717
11
0.2216955118110236
21
0.3299632283464567
0
LINE
8
BLACK
6
CONTINUOUS
10
0.2216955118110236
20
0.3299632283464567
11
0.2229756692913386
21
0.3280473622047244
0
LINE
8
BLACK
6
CONTINUOUS
10
0.2229756692913386
20
0.3280473622047244
11
0.2234251968503937
21
0.3257874015748031
0
LINE
8
BLACK
6
CONTINUOUS
10
0.2234251968503937
20
0.3257874015748031
11
0.2234251968503937
21
0.3139763779527559
0
LINE
8
BLACK
6
CONTINUOUS
10
0.2234251968503937
20
0.3139763779527559
11
0.2229756692913386
21
0.3117164173228346
0
LINE
8
BLACK
6
CONTINUOUS
10
0.2229756692913386
20
0.3117164173228346
11
0.2216955118110236
21
0.3098005511811023
0
LINE
8
BLACK
6
CONTINUOUS
10
0.2216955118110236
20
0.3098005511811023
11
0.2197796456692913
21
0.3085203937007874
0
LINE
8
BLACK
6
CONTINUOUS
10
0.2197796456692913
20
0.3085203937007874
11
0.2175196850393701
21
0.3080708661417323
0
LINE
8
BLACK
6
CONTINUOUS
10
0.2175196850393701
20
0.3080708661417323
11
0.1624015748031496
21
0.3080708661417323
0
LINE
8
BLACK
6
CONTINUOUS
10
0.1624015748031496
20
0.3080708661417323
11
0.1601416141732283
21
0.3085203937007874
0
LINE
8
BLACK
6
CONTINUOUS
10
0.1601416141732283
20
0.3085203937007874
11
0.1582257480314961
21
0.3098005511811023
0
LINE
8
BLACK
6
CONTINUOUS
10
0.1582257480314961
20
0.3098005511811023
11
0.1569455905511811
21
0.3117164173228346
0
LINE
8
BLACK
6
CONTINUOUS
10
0.1569455905511811
20
0.3117164173228346
11
0.156496062992126
21
0.3139763779527559
0
LINE
8
BLACK
6
CONTINUOUS
10
0.156496062992126
20
0.3139763779527559
11
0.156496062992126
21
0.3257874015748031
0
LINE
8
BLACK
6
CONTINUOUS
10
0.156496062992126
20
0.3257874015748031
11
0.1569455905511811
21
0.3280473622047244
0
LINE
8
BLACK
6
CONTINUOUS
10
0.1569455905511811
20
0.3280473622047244
11
0.1582257480314961
21
0.3299632283464567
0
LINE
8
BLACK
6
CONTINUOUS
10
0.1582257480314961
20
0.3299632283464567
11
0.1601416141732283
21
0.3312433858267717
0
LINE
8
BLACK
6
CONTINUOUS
10
0.1601416141732283
20
0.3312433858267717
11
0.1624015748031496
21
0.3316929133858267
0
LINE
8
BLACK
6
CONTINUOUS
10
0.1624015748031496
20
0.3316929133858267
11
0.2175196850393701
21
0.3316929133858267
0
LINE
8
BLACK
6
CONTINUOUS
10
0.2175196850393701
20
0.3316929133858267
11
0.2197796456692913
21
0.3312433858267717
0
LINE
8
BLACK
6
CONTINUOUS
10
0.3012416141732284
20
0.3625896062992126
11
0.3037961023622047
21
0.3608827165354331
0
LINE
8
BLACK
6
CONTINUOUS
10
0.3037961023622047
20
0.3608827165354331
11
0.3055029921259843
21
0.3583282283464567
0
LINE
8
BLACK
6
CONTINUOUS
10
0.3055029921259843
20
0.3583282283464567
11
0.3061023622047244
21
0.3553149606299212
0
LINE
8
BLACK
6
CONTINUOUS
10
0.3061023622047244
20
0.3553149606299212
11
0.3061023622047244
21
0.3395669291338583
0
LINE
8
BLACK
6
CONTINUOUS
10
0.3061023622047244
20
0.3395669291338583
11
0.3055029921259843
21
0.3365536614173228
0
LINE
8
BLACK
6
CONTINUOUS
10
0.3055029921259843
20
0.3365536614173228
11
0.3037961023622047
21
0.3339991732283464
0
LINE
8
BLACK
6
CONTINUOUS
10
0.3037961023622047
20
0.3339991732283464
11
0.3012416141732284
21
0.3322922834645669
0
LINE
8
BLACK
6
CONTINUOUS
10
0.3012416141732284
20
0.3322922834645669
11
0.2982283464566929
21
0.3316929133858267
0
LINE
8
BLACK
6
CONTINUOUS
10
0.2982283464566929
20
0.3316929133858267
11
0.2765748031496063
21
0.3316929133858267
0
LINE
8
BLACK
6
CONTINUOUS
10
0.2765748031496063
20
0.3316929133858267
11
0.2735615354330709
21
0.3322922834645669
0
LINE
8
BLACK
6
CONTINUOUS
10
0.2735615354330709
20
0.3322922834645669
11
0.2710070472440945
21
0.3339991732283464
0
LINE
8
BLACK
6
CONTINUOUS
10
0.2710070472440945
20
0.3339991732283464
11
0.2693001574803149
21
0.3365536614173228
0
LINE
8
BLACK
6
CONTINUOUS
10
0.2693001574803149
20
0.3365536614173228
11
0.2687007874015748
21
0.3395669291338583
0
LINE
8
BLACK
6
CONTINUOUS
10
0.2687007874015748
20
0.3395669291338583
11
0.2687007874015748
21
0.3553149606299212
0
LINE
8
BLACK
6
CONTINUOUS
10
0.2687007874015748
20
0.3553149606299212
11
0.2693001574803149
21
0.3583282283464567
0
LINE
8
BLACK
6
CONTINUOUS
10
0.2693001574803149
20
0.3583282283464567
11
0.2710070472440945
21
0.3608827165354331
0
LINE
8
BLACK
6
CONTINUOUS
10
0.2710070472440945
20
0.3608827165354331
11
0.2735615354330709
21
0.3625896062992126
0
LINE
8
BLACK
6
CONTINUOUS
10
0.2735615354330709
20
0.3625896062992126
11
0.2765748031496063
21
0.3631889763779527
0
LINE
8
BLACK
6
CONTINUOUS
10
0.2765748031496063
20
0.3631889763779527
11
0.2982283464566929
21
0.3631889763779527
0
LINE
8
BLACK
6
CONTINUOUS
10
0.2982283464566929
20
0.3631889763779527
11
0.3012416141732284
21
0.3625896062992126
0
LINE
8
BLACK
6
CONTINUOUS
10
0.4568374409448819
20
0.3801562992125984
11
0.4600305905511811
21
0.3780227165354331
0
LINE
8
BLACK
6
CONTINUOUS
10
0.4600305905511811
20
0.3780227165354331
11
0.4621641732283465
21
0.3748295669291338
0
LINE
8
BLACK
6
CONTINUOUS
10
0.4621641732283465
20
0.3748295669291338
11
0.4629133858267717
21
0.3710629921259843
0
LINE
8
BLACK
6
CONTINUOUS
10
0.4629133858267717
20
0.3710629921259843
11
0.4629133858267717
21
0.3513779527559055
0
LINE
8
BLACK
6
CONTINUOUS
10
0.4629133858267717
20
0.3513779527559055
11
0.4621641732283465
21
0.3476113779527559
0
LINE
8
BLACK
6
CONTINUOUS
10
0.4621641732283465
20
0.3476113779527559
11
0.4600305905511811
21
0.3444182283464567
0
LINE
8
BLACK
6
CONTINUOUS
10
0.4600305905511811
20
0.3444182283464567
11
0.4568374409448819
21
0.3422846456692913
0
LINE
8
BLACK
6
CONTINUOUS
10
0.4568374409448819
20
0.3422846456692913
11
0.4530708661417323
21
0.3415354330708661
0
LINE
8
BLACK
6
CONTINUOUS
10
0.4530708661417323
20
0.3415354330708661
11
0.4156692913385827
21
0.3415354330708661
0
LINE
8
BLACK
6
CONTINUOUS
10
0.4156692913385827
20
0.3415354330708661
11
0.4119027165354331
21
0.3422846456692913
0
LINE
8
BLACK
6
CONTINUOUS
10
0.4119027165354331
20
0.3422846456692913
11
0.4087095669291338
21
0.3444182283464567
0
LINE
8
BLACK
6
CONTINUOUS
10
0.4087095669291338
20
0.3444182283464567
11
0.4065759842519685
21
0.3476113779527559
0
LINE
8
BLACK
6
CONTINUOUS
10
0.4065759842519685
20
0.3476113779527559
11
0.4058267716535433
21
0.3513779527559055
0
LINE
8
BLACK
6
CONTINUOUS
10
0.4058267716535433
20
0.3513779527559055
11
0.4058267716535433
21
0.3710629921259843
0
LINE
8
BLACK
6
CONTINUOUS
10
0.4058267716535433
20
0.3710629921259843
11
0.4065759842519685
21
0.3748295669291338
0
LINE
8
BLACK
6
CONTINUOUS
10
0.4065759842519685
20
0.3748295669291338
11
0.4087095669291338
21
0.3780227165354331
0
LINE
8
BLACK
6
CONTINUOUS
10
0.4087095669291338
20
0.3780227165354331
11
0.4119027165354331
21
0.3801562992125984
0
LINE
8
BLACK
6
CONTINUOUS
10
0.4119027165354331
20
0.3801562992125984
11
0.4156692913385827
21
0.3809055118110236
0
LINE
8
BLACK
6
CONTINUOUS
10
0.4156692913385827
20
0.3809055118110236
11
0.4530708661417323
21
0.3809055118110236
0
LINE
8
BLACK
6
CONTINUOUS
10
0.4530708661417323
20
0.3809055118110236
11
0.4568374409448819
21
0.3801562992125984
0
LINE
8
BLACK
6
CONTINUOUS
10
0.5263426771653543
20
0.3784595669291339
11
0.5292164960629921
21
0.3765393307086614
0
LINE
8
BLACK
6
CONTINUOUS
10
0.5292164960629921
20
0.3765393307086614
11
0.5311367322834646
21
0.3736655118110236
0
LINE
8
BLACK
6
CONTINUOUS
10
0.5311367322834646
20
0.3736655118110236
11
0.5318110236220472
21
0.3702755905511811
0
LINE
8
BLACK
6
CONTINUOUS
10
0.5318110236220472
20
0.3702755905511811
11
0.5318110236220472
21
0.3525590551181103
0
LINE
8
BLACK
6
CONTINUOUS
10
0.5318110236220472
20
0.3525590551181103
11
0.5311367322834646
21
0.3491691338582677
0
LINE
8
BLACK
6
CONTINUOUS
10
0.5311367322834646
20
0.3491691338582677
11
0.5292164960629921
21
0.3462953149606299
0
LINE
8
BLACK
6
CONTINUOUS
10
0.5292164960629921
20
0.3462953149606299
11
0.5263426771653543
21
0.3443750787401575
0
LINE
8
BLACK
6
CONTINUOUS
10
0.5263426771653543
20
0.3443750787401575
11
0.5229527559055118
21
0.3437007874015748
0
LINE
8
BLACK
6
CONTINUOUS
10
0.5229527559055118
20
0.3437007874015748
11
0.503267716535433
21
0.3437007874015748
0
LINE
8
BLACK
6
CONTINUOUS
10
0.503267716535433
20
0.3437007874015748
11
0.4998777952755906
21
0.3443750787401575
0
LINE
8
BLACK
6
CONTINUOUS
10
0.4998777952755906
20
0.3443750787401575
11
0.4970039763779527
21
0.3462953149606299
0
LINE
8
BLACK
6
CONTINUOUS
10
0.4970039763779527
20
0.3462953149606299
11
0.4950837401574803
21
0.3491691338582677
0
LINE
8
BLACK
6
CONTINUOUS
10
0.4950837401574803
20
0.3491691338582677
11
0.4944094488188976
21
0.3525590551181103
0
LINE
8
BLACK
6
CONTINUOUS
10
0.4944094488188976
20
0.3525590551181103
11
0.4944094488188976
21
0.3702755905511811
0
LINE
8
BLACK
6
CONTINUOUS
10
0.4944094488188976
20
0.3702755905511811
11
0.4950837401574803
21
0.3736655118110236
0
LINE
8
BLACK
6
CONTINUOUS
10
0.4950837401574803
20
0.3736655118110236
11
0.4970039763779527
21
0.3765393307086614
0
LINE
8
BLACK
6
CONTINUOUS
10
0.4970039763779527
20
0.3765393307086614
11
0.4998777952755906
21
0.3784595669291339
0
LINE
8
BLACK
6
CONTINUOUS
10
0.4998777952755906
20
0.3784595669291339
11
0.503267716535433
21
0.3791338582677165
0
LINE
8
BLACK
6
CONTINUOUS
10
0.503267716535433
20
0.3791338582677165
11
0.5229527559055118
21
0.3791338582677165
0
LINE
8
BLACK
6
CONTINUOUS
10
0.5229527559055118
20
0.3791338582677165
11
0.5263426771653543
21
0.3784595669291339
0
LINE
8
BLACK
6
CONTINUOUS
10
0.366945
20
0.3726410236220473
11
0.3688608661417323
21
0.3713608661417322
0
LINE
8
BLACK
6
CONTINUOUS
10
0.3688608661417323
20
0.3713608661417322
11
0.3701410236220473
21
0.369445
0
LINE
8
BLACK
6
CONTINUOUS
10
0.3701410236220473
20
0.369445
11
0.3705905511811023
21
0.3671850393700787
0
LINE
8
BLACK
6
CONTINUOUS
10
0.3705905511811023
20
0.3671850393700787
11
0.3705905511811023
21
0.3553740157480315
0
LINE
8
BLACK
6
CONTINUOUS
10
0.3705905511811023
20
0.3553740157480315
11
0.3701410236220473
21
0.3531140551181102
0
LINE
8
BLACK
6
CONTINUOUS
10
0.3701410236220473
20
0.3531140551181102
11
0.3688608661417323
21
0.3511981889763779
0
LINE
8
BLACK
6
CONTINUOUS
10
0.3688608661417323
20
0.3511981889763779
11
0.366945
21
0.349918031496063
0
LINE
8
BLACK
6
CONTINUOUS
10
0.366945
20
0.349918031496063
11
0.3646850393700787
21
0.3494685039370078
0
LINE
8
BLACK
6
CONTINUOUS
10
0.3646850393700787
20
0.3494685039370078
11
0.3489370078740157
21
0.3494685039370078
0
LINE
8
BLACK
6
CONTINUOUS
10
0.3489370078740157
20
0.3494685039370078
11
0.3466770472440945
21
0.349918031496063
0
LINE
8
BLACK
6
CONTINUOUS
10
0.3466770472440945
20
0.349918031496063
11
0.3447611811023622
21
0.3511981889763779
0
LINE
8
BLACK
6
CONTINUOUS
10
0.3447611811023622
20
0.3511981889763779
11
0.3434810236220472
21
0.3531140551181102
0
LINE
8
BLACK
6
CONTINUOUS
10
0.3434810236220472
20
0.3531140551181102
11
0.3430314960629921
21
0.3553740157480315
0
LINE
8
BLACK
6
CONTINUOUS
10
0.3430314960629921
20
0.3553740157480315
11
0.3430314960629921
21
0.3671850393700787
0
LINE
8
BLACK
6
CONTINUOUS
10
0.3430314960629921
20
0.3671850393700787
11
0.3434810236220472
21
0.369445
0
LINE
8
BLACK
6
CONTINUOUS
10
0.3434810236220472
20
0.369445
11
0.3447611811023622
21
0.3713608661417322
0
LINE
8
BLACK
6
CONTINUOUS
10
0.3447611811023622
20
0.3713608661417322
11
0.3466770472440945
21
0.3726410236220473
0
LINE
8
BLACK
6
CONTINUOUS
10
0.3466770472440945
20
0.3726410236220473
11
0.3489370078740157
21
0.3730905511811023
0
LINE
8
BLACK
6
CONTINUOUS
10
0.3489370078740157
20
0.3730905511811023
11
0.3646850393700787
21
0.3730905511811023
0
LINE
8
BLACK
6
CONTINUOUS
10
0.3646850393700787
20
0.3730905511811023
11
0.366945
21
0.3726410236220473
0
LINE
8
BLACK
6
CONTINUOUS
10
0.2197796456692913
20
0.3804559842519685
11
0.2216955118110236
21
0.3791758267716535
0
LINE
8
BLACK
6
CONTINUOUS
10
0.2216955118110236
20
0.3791758267716535
11
0.2229756692913386
21
0.3772599606299212
0
LINE
8
BLACK
6
CONTINUOUS
10
0.2229756692913386
20
0.3772599606299212
11
0.2234251968503937
21
0.375
0
LINE
8
BLACK
6
CONTINUOUS
10
0.2234251968503937
20
0.375
11
0.2234251968503937
21
0.3631889763779527
0
LINE
8
BLACK
6
CONTINUOUS
10
0.2234251968503937
20
0.3631889763779527
11
0.2229756692913386
21
0.3609290157480315
0
LINE
8
BLACK
6
CONTINUOUS
10
0.2229756692913386
20
0.3609290157480315
11
0.2216955118110236
21
0.3590131496062992
0
LINE
8
BLACK
6
CONTINUOUS
10
0.2216955118110236
20
0.3590131496062992
11
0.2197796456692913
21
0.3577329921259843
0
LINE
8
BLACK
6
CONTINUOUS
10
0.2197796456692913
20
0.3577329921259843
11
0.2175196850393701
21
0.3572834645669291
0
LINE
8
BLACK
6
CONTINUOUS
10
0.2175196850393701
20
0.3572834645669291
11
0.1624015748031496
21
0.3572834645669291
0
LINE
8
BLACK
6
CONTINUOUS
10
0.1624015748031496
20
0.3572834645669291
11
0.1601416141732283
21
0.3577329921259843
0
LINE
8
BLACK
6
CONTINUOUS
10
0.1601416141732283
20
0.3577329921259843
11
0.1582257480314961
21
0.3590131496062992
0
LINE
8
BLACK
6
CONTINUOUS
10
0.1582257480314961
20
0.3590131496062992
11
0.1569455905511811
21
0.3609290157480315
0
LINE
8
BLACK
6
CONTINUOUS
10
0.1569455905511811
20
0.3609290157480315
11
0.156496062992126
21
0.3631889763779527
0
LINE
8
BLACK
6
CONTINUOUS
10
0.156496062992126
20
0.3631889763779527
11
0.156496062992126
21
0.375
0
LINE
8
BLACK
6
CONTINUOUS
10
0.156496062992126
20
0.375
11
0.1569455905511811
21
0.3772599606299212
0
LINE
8
BLACK
6
CONTINUOUS
10
0.1569455905511811
20
0.3772599606299212
11
0.1582257480314961
21
0.3791758267716535
0
LINE
8
BLACK
6
CONTINUOUS
10
0.1582257480314961
20
0.3791758267716535
11
0.1601416141732283
21
0.3804559842519685
0
LINE
8
BLACK
6
CONTINUOUS
10
0.1601416141732283
20
0.3804559842519685
11
0.1624015748031496
21
0.3809055118110236
0
LINE
8
BLACK
6
CONTINUOUS
10
0.1624015748031496
20
0.3809055118110236
11
0.2175196850393701
21
0.3809055118110236
0
LINE
8
BLACK
6
CONTINUOUS
10
0.2175196850393701
20
0.3809055118110236
11
0.2197796456692913
21
0.3804559842519685
0
LINE
8
BLACK
6
CONTINUOUS
10
0.3012416141732284
20
0.4275502362204724
11
0.3037961023622047
21
0.4258433464566929
0
LINE
8
BLACK
6
CONTINUOUS
10
0.3037961023622047
20
0.4258433464566929
11
0.3055029921259843
21
0.4232888582677165
0
LINE
8
BLACK
6
CONTINUOUS
10
0.3055029921259843
20
0.4232888582677165
11
0.3061023622047244
21
0.4202755905511811
0
LINE
8
BLACK
6
CONTINUOUS
10
0.3061023622047244
20
0.4202755905511811
11
0.3061023622047244
21
0.4045275590551181
0
LINE
8
BLACK
6
CONTINUOUS
10
0.3061023622047244
20
0.4045275590551181
11
0.3055029921259843
21
0.4015142913385827
0
LINE
8
BLACK
6
CONTINUOUS
10
0.3055029921259843
20
0.4015142913385827
11
0.3037961023622047
21
0.3989598031496063
0
LINE
8
BLACK
6
CONTINUOUS
10
0.3037961023622047
20
0.3989598031496063
11
0.3012416141732284
21
0.3972529133858267
0
LINE
8
BLACK
6
CONTINUOUS
10
0.3012416141732284
20
0.3972529133858267
11
0.2982283464566929
21
0.3966535433070866
0
LINE
8
BLACK
6
CONTINUOUS
10
0.2982283464566929
20
0.3966535433070866
11
0.2765748031496063
21
0.3966535433070866
0
LINE
8
BLACK
6
CONTINUOUS
10
0.2765748031496063
20
0.3966535433070866
11
0.2735615354330709
21
0.3972529133858267
0
LINE
8
BLACK
6
CONTINUOUS
10
0.2735615354330709
20
0.3972529133858267
11
0.2710070472440945
21
0.3989598031496063
0
LINE
8
BLACK
6
CONTINUOUS
10
0.2710070472440945
20
0.3989598031496063
11
0.2693001574803149
21
0.4015142913385827
0
LINE
8
BLACK
6
CONTINUOUS
10
0.2693001574803149
20
0.4015142913385827
11
0.2687007874015748
21
0.4045275590551181
0
LINE
8
BLACK
6
CONTINUOUS
10
0.2687007874015748
20
0.4045275590551181
11
0.2687007874015748
21
0.4202755905511811
0
LINE
8
BLACK
6
CONTINUOUS
10
0.2687007874015748
20
0.4202755905511811
11
0.2693001574803149
21
0.4232888582677165
0
LINE
8
BLACK
6
CONTINUOUS
10
0.2693001574803149
20
0.4232888582677165
11
0.2710070472440945
21
0.4258433464566929
0
LINE
8
BLACK
6
CONTINUOUS
10
0.2710070472440945
20
0.4258433464566929
11
0.2735615354330709
21
0.4275502362204724
0
LINE
8
BLACK
6
CONTINUOUS
10
0.2735615354330709
20
0.4275502362204724
11
0.2765748031496063
21
0.4281496062992126
0
LINE
8
BLACK
6
CONTINUOUS
10
0.2765748031496063
20
0.4281496062992126
11
0.2982283464566929
21
0.4281496062992126
0
LINE
8
BLACK
6
CONTINUOUS
10
0.2982283464566929
20
0.4281496062992126
11
0.3012416141732284
21
0.4275502362204724
0
LINE
8
BLACK
6
CONTINUOUS
10
0.366945
20
0.4277591338582677
11
0.3688608661417323
21
0.4264789763779527
0
LINE
8
BLACK
6
CONTINUOUS
10
0.3688608661417323
20
0.4264789763779527
11
0.3701410236220473
21
0.4245631102362205
0
LINE
8
BLACK
6
CONTINUOUS
10
0.3701410236220473
20
0.4245631102362205
11
0.3705905511811023
21
0.4223031496062992
0
LINE
8
BLACK
6
CONTINUOUS
10
0.3705905511811023
20
0.4223031496062992
11
0.3705905511811023
21
0.4104921259842519
0
LINE
8
BLACK
6
CONTINUOUS
10
0.3705905511811023
20
0.4104921259842519
11
0.3701410236220473
21
0.4082321653543307
0
LINE
8
BLACK
6
CONTINUOUS
10
0.3701410236220473
20
0.4082321653543307
11
0.3688608661417323
21
0.4063162992125984
0
LINE
8
BLACK
6
CONTINUOUS
10
0.3688608661417323
20
0.4063162992125984
11
0.366945
21
0.4050361417322835
0
LINE
8
BLACK
6
CONTINUOUS
10
0.366945
20
0.4050361417322835
11
0.3646850393700787
21
0.4045866141732283
0
LINE
8
BLACK
6
CONTINUOUS
10
0.3646850393700787
20
0.4045866141732283
11
0.3489370078740157
21
0.4045866141732283
0
LINE
8
BLACK
6
CONTINUOUS
10
0.3489370078740157
20
0.4045866141732283
11
0.3466770472440945
21
0.4050361417322835
0
LINE
8
BLACK
6
CONTINUOUS
10
0.3466770472440945
20
0.4050361417322835
11
0.3447611811023622
21
0.4063162992125984
0
LINE
8
BLACK
6
CONTINUOUS
10
0.3447611811023622
20
0.4063162992125984
11
0.3434810236220472
21
0.4082321653543307
0
LINE
8
BLACK
6
CONTINUOUS
10
0.3434810236220472
20
0.4082321653543307
11
0.3430314960629921
21
0.4104921259842519
0
LINE
8
BLACK
6
CONTINUOUS
10
0.3430314960629921
20
0.4104921259842519
11
0.3430314960629921
21
0.4223031496062992
0
LINE
8
BLACK
6
CONTINUOUS
10
0.3430314960629921
20
0.4223031496062992
11
0.3434810236220472
21
0.4245631102362205
0
LINE
8
BLACK
6
CONTINUOUS
10
0.3434810236220472
20
0.4245631102362205
11
0.3447611811023622
21
0.4264789763779527
0
LINE
8
BLACK
6
CONTINUOUS
10
0.3447611811023622
20
0.4264789763779527
11
0.3466770472440945
21
0.4277591338582677
0
LINE
8
BLACK
6
CONTINUOUS
10
0.3466770472440945
20
0.4277591338582677
11
0.3489370078740157
21
0.4282086614173228
0
LINE
8
BLACK
6
CONTINUOUS
10
0.3489370078740157
20
0.4282086614173228
11
0.3646850393700787
21
0.4282086614173228
0
LINE
8
BLACK
6
CONTINUOUS
10
0.3646850393700787
20
0.4282086614173228
11
0.366945
21
0.4277591338582677
0
LINE
8
BLACK
6
CONTINUOUS
10
0.5263426771653543
20
0.4394831889763779
11
0.5292164960629921
21
0.4375629527559055
0
LINE
8
BLACK
6
CONTINUOUS
10
0.5292164960629921
20
0.4375629527559055
11
0.5311367322834646
21
0.4346891338582677
0
LINE
8
BLACK
6
CONTINUOUS
10
0.5311367322834646
20
0.4346891338582677
11
0.5318110236220472
21
0.4312992125984252
0
LINE
8
BLACK
6
CONTINUOUS
10
0.5318110236220472
20
0.4312992125984252
11
0.5318110236220472
21
0.4135826771653543
0
LINE
8
BLACK
6
CONTINUOUS
10
0.5318110236220472
20
0.4135826771653543
11
0.5311367322834646
21
0.4101927559055118
0
LINE
8
BLACK
6
CONTINUOUS
10
0.5311367322834646
20
0.4101927559055118
11
0.5292164960629921
21
0.407318937007874
0
LINE
8
BLACK
6
CONTINUOUS
10
0.5292164960629921
20
0.407318937007874
11
0.5263426771653543
21
0.4053987007874016
0
LINE
8
BLACK
6
CONTINUOUS
10
0.5263426771653543
20
0.4053987007874016
11
0.5229527559055118
21
0.4047244094488189
0
LINE
8
BLACK
6
CONTINUOUS
10
0.5229527559055118
20
0.4047244094488189
11
0.503267716535433
21
0.4047244094488189
0
LINE
8
BLACK
6
CONTINUOUS
10
0.503267716535433
20
0.4047244094488189
11
0.4998777952755906
21
0.4053987007874016
0
LINE
8
BLACK
6
CONTINUOUS
10
0.4998777952755906
20
0.4053987007874016
11
0.4970039763779527
21
0.407318937007874
0
LINE
8
BLACK
6
CONTINUOUS
10
0.4970039763779527
20
0.407318937007874
11
0.4950837401574803
21
0.4101927559055118
0
LINE
8
BLACK
6
CONTINUOUS
10
0.4950837401574803
20
0.4101927559055118
11
0.4944094488188976
21
0.4135826771653543
0
LINE
8
BLACK
6
CONTINUOUS
10
0.4944094488188976
20
0.4135826771653543
11
0.4944094488188976
21
0.4312992125984252
0
LINE
8
BLACK
6
CONTINUOUS
10
0.4944094488188976
20
0.4312992125984252
11
0.4950837401574803
21
0.4346891338582677
0
LINE
8
BLACK
6
CONTINUOUS
10
0.4950837401574803
20
0.4346891338582677
11
0.4970039763779527
21
0.4375629527559055
0
LINE
8
BLACK
6
CONTINUOUS
10
0.4970039763779527
20
0.4375629527559055
11
0.4998777952755906
21
0.4394831889763779
0
LINE
8
BLACK
6
CONTINUOUS
10
0.4998777952755906
20
0.4394831889763779
11
0.503267716535433
21
0.4401574803149606
0
LINE
8
BLACK
6
CONTINUOUS
10
0.503267716535433
20
0.4401574803149606
11
0.5229527559055118
21
0.4401574803149606
0
LINE
8
BLACK
6
CONTINUOUS
10
0.5229527559055118
20
0.4401574803149606
11
0.5263426771653543
21
0.4394831889763779
0
LINE
8
BLACK
6
CONTINUOUS
10
0.7850998818897638
20
0.4365069291338582
11
0.7876543700787402
21
0.4348000393700787
0
LINE
8
BLACK
6
CONTINUOUS
10
0.7876543700787402
20
0.4348000393700787
11
0.7893612598425197
21
0.4322455511811024
0
LINE
8
BLACK
6
CONTINUOUS
10
0.7893612598425197
20
0.4322455511811024
11
0.7899606299212598
21
0.4292322834645669
0
LINE
8
BLACK
6
CONTINUOUS
10
0.7899606299212598
20
0.4292322834645669
11
0.7899606299212598
21
0.4134842519685039
0
LINE
8
BLACK
6
CONTINUOUS
10
0.7899606299212598
20
0.4134842519685039
11
0.7893612598425197
21
0.4104709842519685
0
LINE
8
BLACK
6
CONTINUOUS
10
0.7893612598425197
20
0.4104709842519685
11
0.7876543700787402
21
0.4079164960629921
0
LINE
8
BLACK
6
CONTINUOUS
10
0.7876543700787402
20
0.4079164960629921
11
0.7850998818897638
21
0.4062096062992126
0
LINE
8
BLACK
6
CONTINUOUS
10
0.7850998818897638
20
0.4062096062992126
11
0.7820866141732283
21
0.4056102362204724
0
LINE
8
BLACK
6
CONTINUOUS
10
0.7820866141732283
20
0.4056102362204724
11
0.7604330708661418
21
0.4056102362204724
0
LINE
8
BLACK
6
CONTINUOUS
10
0.7604330708661418
20
0.4056102362204724
11
0.7574198031496063
21
0.4062096062992126
0
LINE
8
BLACK
6
CONTINUOUS
10
0.7574198031496063
20
0.4062096062992126
11
0.7548653149606299
21
0.4079164960629921
0
LINE
8
BLACK
6
CONTINUOUS
10
0.7548653149606299
20
0.4079164960629921
11
0.7531584251968504
21
0.4104709842519685
0
LINE
8
BLACK
6
CONTINUOUS
10
0.7531584251968504
20
0.4104709842519685
11
0.7525590551181102
21
0.4134842519685039
0
LINE
8
BLACK
6
CONTINUOUS
10
0.7525590551181102
20
0.4134842519685039
11
0.7525590551181102
21
0.4292322834645669
0
LINE
8
BLACK
6
CONTINUOUS
10
0.7525590551181102
20
0.4292322834645669
11
0.7531584251968504
21
0.4322455511811024
0
LINE
8
BLACK
6
CONTINUOUS
10
0.7531584251968504
20
0.4322455511811024
11
0.7548653149606299
21
0.4348000393700787
0
LINE
8
BLACK
6
CONTINUOUS
10
0.7548653149606299
20
0.4348000393700787
11
0.7574198031496063
21
0.4365069291338582
0
LINE
8
BLACK
6
CONTINUOUS
10
0.7574198031496063
20
0.4365069291338582
11
0.7604330708661418
21
0.4371062992125984
0
LINE
8
BLACK
6
CONTINUOUS
10
0.7604330708661418
20
0.4371062992125984
11
0.7820866141732283
21
0.4371062992125984
0
LINE
8
BLACK
6
CONTINUOUS
10
0.7820866141732283
20
0.4371062992125984
11
0.7850998818897638
21
0.4365069291338582
0
LINE
8
BLACK
6
CONTINUOUS
10
0.7169896456692914
20
0.4369006299212598
11
0.7195441338582677
21
0.4351937401574803
0
LINE
8
BLACK
6
CONTINUOUS
10
0.7195441338582677
20
0.4351937401574803
11
0.7212510236220472
21
0.4326392519685039
0
LINE
8
BLACK
6
CONTINUOUS
10
0.7212510236220472
20
0.4326392519685039
11
0.7218503937007874
21
0.4296259842519685
0
LINE
8
BLACK
6
CONTINUOUS
10
0.7218503937007874
20
0.4296259842519685
11
0.7218503937007874
21
0.4138779527559055
0
LINE
8
BLACK
6
CONTINUOUS
10
0.7218503937007874
20
0.4138779527559055
11
0.7212510236220472
21
0.4108646850393701
0
LINE
8
BLACK
6
CONTINUOUS
10
0.7212510236220472
20
0.4108646850393701
11
0.7195441338582677
21
0.4083101968503937
0
LINE
8
BLACK
6
CONTINUOUS
10
0.7195441338582677
20
0.4083101968503937
11
0.7169896456692914
21
0.4066033070866142
0
LINE
8
BLACK
6
CONTINUOUS
10
0.7169896456692914
20
0.4066033070866142
11
0.7139763779527559
21
0.406003937007874
0
LINE
8
BLACK
6
CONTINUOUS
10
0.7139763779527559
20
0.406003937007874
11
0.6923228346456692
21
0.406003937007874
0
LINE
8
BLACK
6
CONTINUOUS
10
0.6923228346456692
20
0.406003937007874
11
0.6893095669291338
21
0.4066033070866142
0
LINE
8
BLACK
6
CONTINUOUS
10
0.6893095669291338
20
0.4066033070866142
11
0.6867550787401575
21
0.4083101968503937
0
LINE
8
BLACK
6
CONTINUOUS
10
0.6867550787401575
20
0.4083101968503937
11
0.685048188976378
21
0.4108646850393701
0
LINE
8
BLACK
6
CONTINUOUS
10
0.685048188976378
20
0.4108646850393701
11
0.6844488188976378
21
0.4138779527559055
0
LINE
8
BLACK
6
CONTINUOUS
10
0.6844488188976378
20
0.4138779527559055
11
0.6844488188976378
21
0.4296259842519685
0
LINE
8
BLACK
6
CONTINUOUS
10
0.6844488188976378
20
0.4296259842519685
11
0.685048188976378
21
0.4326392519685039
0
LINE
8
BLACK
6
CONTINUOUS
10
0.685048188976378
20
0.4326392519685039
11
0.6867550787401575
21
0.4351937401574803
0
LINE
8
BLACK
6
CONTINUOUS
10
0.6867550787401575
20
0.4351937401574803
11
0.6893095669291338
21
0.4369006299212598
0
LINE
8
BLACK
6
CONTINUOUS
10
0.6893095669291338
20
0.4369006299212598
11
0.6923228346456692
21
0.4375
0
LINE
8
BLACK
6
CONTINUOUS
10
0.6923228346456692
20
0.4375
11
0.7139763779527559
21
0.4375
0
LINE
8
BLACK
6
CONTINUOUS
10
0.7139763779527559
20
0.4375
11
0.7169896456692914
21
0.4369006299212598
0
LINE
8
BLACK
6
CONTINUOUS
10
0.4568374409448819
20
0.4549594488188976
11
0.4600305905511811
21
0.4528258661417323
0
LINE
8
BLACK
6
CONTINUOUS
10
0.4600305905511811
20
0.4528258661417323
11
0.4621641732283465
21
0.4496327165354331
0
LINE
8
BLACK
6
CONTINUOUS
10
0.4621641732283465
20
0.4496327165354331
11
0.4629133858267717
21
0.4458661417322834
0
LINE
8
BLACK
6
CONTINUOUS
10
0.4629133858267717
20
0.4458661417322834
11
0.4629133858267717
21
0.4261811023622047
0
LINE
8
BLACK
6
CONTINUOUS
10
0.4629133858267717
20
0.4261811023622047
11
0.4621641732283465
21
0.4224145275590551
0
LINE
8
BLACK
6
CONTINUOUS
10
0.4621641732283465
20
0.4224145275590551
11
0.4600305905511811
21
0.4192213779527559
0
LINE
8
BLACK
6
CONTINUOUS
10
0.4600305905511811
20
0.4192213779527559
11
0.4568374409448819
21
0.4170877952755905
0
LINE
8
BLACK
6
CONTINUOUS
10
0.4568374409448819
20
0.4170877952755905
11
0.4530708661417323
21
0.4163385826771653
0
LINE
8
BLACK
6
CONTINUOUS
10
0.4530708661417323
20
0.4163385826771653
11
0.4156692913385827
21
0.4163385826771653
0
LINE
8
BLACK
6
CONTINUOUS
10
0.4156692913385827
20
0.4163385826771653
11
0.4119027165354331
21
0.4170877952755905
0
LINE
8
BLACK
6
CONTINUOUS
10
0.4119027165354331
20
0.4170877952755905
11
0.4087095669291338
21
0.4192213779527559
0
LINE
8
BLACK
6
CONTINUOUS
10
0.4087095669291338
20
0.4192213779527559
11
0.4065759842519685
21
0.4224145275590551
0
LINE
8
BLACK
6
CONTINUOUS
10
0.4065759842519685
20
0.4224145275590551
11
0.4058267716535433
21
0.4261811023622047
0
LINE
8
BLACK
6
CONTINUOUS
10
0.4058267716535433
20
0.4261811023622047
11
0.4058267716535433
21
0.4458661417322834
0
LINE
8
BLACK
6
CONTINUOUS
10
0.4058267716535433
20
0.4458661417322834
11
0.4065759842519685
21
0.4496327165354331
0
LINE
8
BLACK
6
CONTINUOUS
10
0.4065759842519685
20
0.4496327165354331
11
0.4087095669291338
21
0.4528258661417323
0
LINE
8
BLACK
6
CONTINUOUS
10
0.4087095669291338
20
0.4528258661417323
11
0.4119027165354331
21
0.4549594488188976
0
LINE
8
BLACK
6
CONTINUOUS
10
0.4119027165354331
20
0.4549594488188976
11
0.4156692913385827
21
0.4557086614173228
0
LINE
8
BLACK
6
CONTINUOUS
10
0.4156692913385827
20
0.4557086614173228
11
0.4530708661417323
21
0.4557086614173228
0
LINE
8
BLACK
6
CONTINUOUS
10
0.4530708661417323
20
0.4557086614173228
11
0.4568374409448819
21
0.4549594488188976
0
LINE
8
BLACK
6
CONTINUOUS
10
0.1110500393700787
20
0.4608649606299213
11
0.1142431889763779
21
0.4587313779527559
0
LINE
8
BLACK
6
CONTINUOUS
10
0.1142431889763779
20
0.4587313779527559
11
0.1163767716535433
21
0.4555382283464567
0
LINE
8
BLACK
6
CONTINUOUS
10
0.1163767716535433
20
0.4555382283464567
11
0.1171259842519685
21
0.4517716535433071
0
LINE
8
BLACK
6
CONTINUOUS
10
0.1171259842519685
20
0.4517716535433071
11
0.1171259842519685
21
0.4320866141732284
0
LINE
8
BLACK
6
CONTINUOUS
10
0.1171259842519685
20
0.4320866141732284
11
0.1163767716535433
21
0.4283200393700787
0
LINE
8
BLACK
6
CONTINUOUS
10
0.1163767716535433
20
0.4283200393700787
11
0.1142431889763779
21
0.4251268897637795
0
LINE
8
BLACK
6
CONTINUOUS
10
0.1142431889763779
20
0.4251268897637795
11
0.1110500393700787
21
0.4229933070866141
0
LINE
8
BLACK
6
CONTINUOUS
10
0.1110500393700787
20
0.4229933070866141
11
0.1072834645669291
21
0.4222440944881889
0
LINE
8
BLACK
6
CONTINUOUS
10
0.1072834645669291
20
0.4222440944881889
11
0.0206692913385827
21
0.4222440944881889
0
LINE
8
BLACK
6
CONTINUOUS
10
0.0206692913385827
20
0.4222440944881889
11
0.0169027165354331
21
0.4229933070866141
0
LINE
8
BLACK
6
CONTINUOUS
10
0.0169027165354331
20
0.4229933070866141
11
0.0137095669291339
21
0.4251268897637795
0
LINE
8
BLACK
6
CONTINUOUS
10
0.0137095669291339
20
0.4251268897637795
11
0.0115759842519685
21
0.4283200393700787
0
LINE
8
BLACK
6
CONTINUOUS
10
0.0115759842519685
20
0.4283200393700787
11
0.0108267716535433
21
0.4320866141732284
0
LINE
8
BLACK
6
CONTINUOUS
10
0.0108267716535433
20
0.4320866141732284
11
0.0108267716535433
21
0.4517716535433071
0
LINE
8
BLACK
6
CONTINUOUS
10
0.0108267716535433
20
0.4517716535433071
11
0.0115759842519685
21
0.4555382283464567
0
LINE
8
BLACK
6
CONTINUOUS
10
0.0115759842519685
20
0.4555382283464567
11
0.0137095669291339
21
0.4587313779527559
0
LINE
8
BLACK
6
CONTINUOUS
10
0.0137095669291339
20
0.4587313779527559
11
0.0169027165354331
21
0.4608649606299213
0
LINE
8
BLACK
6
CONTINUOUS
10
0.0169027165354331
20
0.4608649606299213
11
0.0206692913385827
21
0.4616141732283465
0
LINE
8
BLACK
6
CONTINUOUS
10
0.0206692913385827
20
0.4616141732283465
11
0.1072834645669291
21
0.4616141732283465
0
LINE
8
BLACK
6
CONTINUOUS
10
0.1072834645669291
20
0.4616141732283465
11
0.1110500393700787
21
0.4608649606299213
0
LINE
8
BLACK
6
CONTINUOUS
10
0.2486205511811024
20
0.4944231889763779
11
0.2514145669291338
21
0.4925562992125984
0
LINE
8
BLACK
6
CONTINUOUS
10
0.2514145669291338
20
0.4925562992125984
11
0.2532814566929134
21
0.4897622834645669
0
LINE
8
BLACK
6
CONTINUOUS
10
0.2532814566929134
20
0.4897622834645669
11
0.2539370078740157
21
0.4864665354330708
0
LINE
8
BLACK
6
CONTINUOUS
10
0.2539370078740157
20
0.4864665354330708
11
0.2539370078740157
21
0.4662893700787402
0
LINE
8
BLACK
6
CONTINUOUS
10
0.2539370078740157
20
0.4662893700787402
11
0.2532814566929134
21
0.4629936220472441
0
LINE
8
BLACK
6
CONTINUOUS
10
0.2532814566929134
20
0.4629936220472441
11
0.2514145669291338
21
0.4601996062992126
0
LINE
8
BLACK
6
CONTINUOUS
10
0.2514145669291338
20
0.4601996062992126
11
0.2486205511811024
21
0.4583327165354331
0
LINE
8
BLACK
6
CONTINUOUS
10
0.2486205511811024
20
0.4583327165354331
11
0.2453248031496063
21
0.4576771653543307
0
LINE
8
BLACK
6
CONTINUOUS
10
0.2453248031496063
20
0.4576771653543307
11
0.2281003937007874
21
0.4576771653543307
0
LINE
8
BLACK
6
CONTINUOUS
10
0.2281003937007874
20
0.4576771653543307
11
0.2248046456692913
21
0.4583327165354331
0
LINE
8
BLACK
6
CONTINUOUS
10
0.2248046456692913
20
0.4583327165354331
11
0.2220106299212598
21
0.4601996062992126
0
LINE
8
BLACK
6
CONTINUOUS
10
0.2220106299212598
20
0.4601996062992126
11
0.2201437401574803
21
0.4629936220472441
0
LINE
8
BLACK
6
CONTINUOUS
10
0.2201437401574803
20
0.4629936220472441
11
0.219488188976378
21
0.4662893700787402
0
LINE
8
BLACK
6
CONTINUOUS
10
0.219488188976378
20
0.4662893700787402
11
0.219488188976378
21
0.4864665354330708
0
LINE
8
BLACK
6
CONTINUOUS
10
0.219488188976378
20
0.4864665354330708
11
0.2201437401574803
21
0.4897622834645669
0
LINE
8
BLACK
6
CONTINUOUS
10
0.2201437401574803
20
0.4897622834645669
11
0.2220106299212598
21
0.4925562992125984
0
LINE
8
BLACK
6
CONTINUOUS
10
0.2220106299212598
20
0.4925562992125984
11
0.2248046456692913
21
0.4944231889763779
0
LINE
8
BLACK
6
CONTINUOUS
10
0.2248046456692913
20
0.4944231889763779
11
0.2281003937007874
21
0.4950787401574803
0
LINE
8
BLACK
6
CONTINUOUS
10
0.2281003937007874
20
0.4950787401574803
11
0.2453248031496063
21
0.4950787401574803
0
LINE
8
BLACK
6
CONTINUOUS
10
0.2453248031496063
20
0.4950787401574803
11
0.2486205511811024
21
0.4944231889763779
0
LINE
8
BLACK
6
CONTINUOUS
10
0.3106284251968504
20
0.4944231889763779
11
0.3134224409448819
21
0.4925562992125984
0
LINE
8
BLACK
6
CONTINUOUS
10
0.3134224409448819
20
0.4925562992125984
11
0.3152893307086614
21
0.4897622834645669
0
LINE
8
BLACK
6
CONTINUOUS
10
0.3152893307086614
20
0.4897622834645669
11
0.3159448818897638
21
0.4864665354330708
0
LINE
8
BLACK
6
CONTINUOUS
10
0.3159448818897638
20
0.4864665354330708
11
0.3159448818897638
21
0.4662893700787402
0
LINE
8
BLACK
6
CONTINUOUS
10
0.3159448818897638
20
0.4662893700787402
11
0.3152893307086614
21
0.4629936220472441
0
LINE
8
BLACK
6
CONTINUOUS
10
0.3152893307086614
20
0.4629936220472441
11
0.3134224409448819
21
0.4601996062992126
0
LINE
8
BLACK
6
CONTINUOUS
10
0.3134224409448819
20
0.4601996062992126
11
0.3106284251968504
21
0.4583327165354331
0
LINE
8
BLACK
6
CONTINUOUS
10
0.3106284251968504
20
0.4583327165354331
11
0.3073326771653543
21
0.4576771653543307
0
LINE
8
BLACK
6
CONTINUOUS
10
0.3073326771653543
20
0.4576771653543307
11
0.2901082677165354
21
0.4576771653543307
0
LINE
8
BLACK
6
CONTINUOUS
10
0.2901082677165354
20
0.4576771653543307
11
0.2868125196850393
21
0.4583327165354331
0
LINE
8
BLACK
6
CONTINUOUS
10
0.2868125196850393
20
0.4583327165354331
11
0.2840185039370079
21
0.4601996062992126
0
LINE
8
BLACK
6
CONTINUOUS
10
0.2840185039370079
20
0.4601996062992126
11
0.2821516141732283
21
0.4629936220472441
0
LINE
8
BLACK
6
CONTINUOUS
10
0.2821516141732283
20
0.4629936220472441
11
0.281496062992126
21
0.4662893700787402
0
LINE
8
BLACK
6
CONTINUOUS
10
0.281496062992126
20
0.4662893700787402
11
0.281496062992126
21
0.4864665354330708
0
LINE
8
BLACK
6
CONTINUOUS
10
0.281496062992126
20
0.4864665354330708
11
0.2821516141732283
21
0.4897622834645669
0
LINE
8
BLACK
6
CONTINUOUS
10
0.2821516141732283
20
0.4897622834645669
11
0.2840185039370079
21
0.4925562992125984
0
LINE
8
BLACK
6
CONTINUOUS
10
0.2840185039370079
20
0.4925562992125984
11
0.2868125196850393
21
0.4944231889763779
0
LINE
8
BLACK
6
CONTINUOUS
10
0.2868125196850393
20
0.4944231889763779
11
0.2901082677165354
21
0.4950787401574803
0
LINE
8
BLACK
6
CONTINUOUS
10
0.2901082677165354
20
0.4950787401574803
11
0.3073326771653543
21
0.4950787401574803
0
LINE
8
BLACK
6
CONTINUOUS
10
0.3073326771653543
20
0.4950787401574803
11
0.3106284251968504
21
0.4944231889763779
0
LINE
8
BLACK
6
CONTINUOUS
10
0.7850998818897638
20
0.5014675590551181
11
0.7876543700787402
21
0.4997606692913386
0
LINE
8
BLACK
6
CONTINUOUS
10
0.7876543700787402
20
0.4997606692913386
11
0.7893612598425197
21
0.4972061811023622
0
LINE
8
BLACK
6
CONTINUOUS
10
0.7893612598425197
20
0.4972061811023622
11
0.7899606299212598
21
0.4941929133858268
0
LINE
8
BLACK
6
CONTINUOUS
10
0.7899606299212598
20
0.4941929133858268
11
0.7899606299212598
21
0.4784448818897638
0
LINE
8
BLACK
6
CONTINUOUS
10
0.7899606299212598
20
0.4784448818897638
11
0.7893612598425197
21
0.4754316141732283
0
LINE
8
BLACK
6
CONTINUOUS
10
0.7893612598425197
20
0.4754316141732283
11
0.7876543700787402
21
0.472877125984252
0
LINE
8
BLACK
6
CONTINUOUS
10
0.7876543700787402
20
0.472877125984252
11
0.7850998818897638
21
0.4711702362204724
0
LINE
8
BLACK
6
CONTINUOUS
10
0.7850998818897638
20
0.4711702362204724
11
0.7820866141732283
21
0.4705708661417323
0
LINE
8
BLACK
6
CONTINUOUS
10
0.7820866141732283
20
0.4705708661417323
11
0.7604330708661418
21
0.4705708661417323
0
LINE
8
BLACK
6
CONTINUOUS
10
0.7604330708661418
20
0.4705708661417323
11
0.7574198031496063
21
0.4711702362204724
0
LINE
8
BLACK
6
CONTINUOUS
10
0.7574198031496063
20
0.4711702362204724
11
0.7548653149606299
21
0.472877125984252
0
LINE
8
BLACK
6
CONTINUOUS
10
0.7548653149606299
20
0.472877125984252
11
0.7531584251968504
21
0.4754316141732283
0
LINE
8
BLACK
6
CONTINUOUS
10
0.7531584251968504
20
0.4754316141732283
11
0.7525590551181102
21
0.4784448818897638
0
LINE
8
BLACK
6
CONTINUOUS
10
0.7525590551181102
20
0.4784448818897638
11
0.7525590551181102
21
0.4941929133858268
0
LINE
8
BLACK
6
CONTINUOUS
10
0.7525590551181102
20
0.4941929133858268
11
0.7531584251968504
21
0.4972061811023622
0
LINE
8
BLACK
6
CONTINUOUS
10
0.7531584251968504
20
0.4972061811023622
11
0.7548653149606299
21
0.4997606692913386
0
LINE
8
BLACK
6
CONTINUOUS
10
0.7548653149606299
20
0.4997606692913386
11
0.7574198031496063
21
0.5014675590551181
0
LINE
8
BLACK
6
CONTINUOUS
10
0.7574198031496063
20
0.5014675590551181
11
0.7604330708661418
21
0.5020669291338583
0
LINE
8
BLACK
6
CONTINUOUS
10
0.7604330708661418
20
0.5020669291338583
11
0.7820866141732283
21
0.5020669291338583
0
LINE
8
BLACK
6
CONTINUOUS
10
0.7820866141732283
20
0.5020669291338583
11
0.7850998818897638
21
0.5014675590551181
0
LINE
8
BLACK
6
CONTINUOUS
10
0.7169896456692914
20
0.5018612598425197
11
0.7195441338582677
21
0.5001543700787402
0
LINE
8
BLACK
6
CONTINUOUS
10
0.7195441338582677
20
0.5001543700787402
11
0.7212510236220472
21
0.4975998818897638
0
LINE
8
BLACK
6
CONTINUOUS
10
0.7212510236220472
20
0.4975998818897638
11
0.7218503937007874
21
0.4945866141732284
0
LINE
8
BLACK
6
CONTINUOUS
10
0.7218503937007874
20
0.4945866141732284
11
0.7218503937007874
21
0.4788385826771653
0
LINE
8
BLACK
6
CONTINUOUS
10
0.7218503937007874
20
0.4788385826771653
11
0.7212510236220472
21
0.4758253149606299
0
LINE
8
BLACK
6
CONTINUOUS
10
0.7212510236220472
20
0.4758253149606299
11
0.7195441338582677
21
0.4732708267716536
0
LINE
8
BLACK
6
CONTINUOUS
10
0.7195441338582677
20
0.4732708267716536
11
0.7169896456692914
21
0.471563937007874
0
LINE
8
BLACK
6
CONTINUOUS
10
0.7169896456692914
20
0.471563937007874
11
0.7139763779527559
21
0.4709645669291339
0
LINE
8
BLACK
6
CONTINUOUS
10
0.7139763779527559
20
0.4709645669291339
11
0.6923228346456692
21
0.4709645669291339
0
LINE
8
BLACK
6
CONTINUOUS
10
0.6923228346456692
20
0.4709645669291339
11
0.6893095669291338
21
0.471563937007874
0
LINE
8
BLACK
6
CONTINUOUS
10
0.6893095669291338
20
0.471563937007874
11
0.6867550787401575
21
0.4732708267716536
0
LINE
8
BLACK
6
CONTINUOUS
10
0.6867550787401575
20
0.4732708267716536
11
0.685048188976378
21
0.4758253149606299
0
LINE
8
BLACK
6
CONTINUOUS
10
0.685048188976378
20
0.4758253149606299
11
0.6844488188976378
21
0.4788385826771653
0
LINE
8
BLACK
6
CONTINUOUS
10
0.6844488188976378
20
0.4788385826771653
11
0.6844488188976378
21
0.4945866141732284
0
LINE
8
BLACK
6
CONTINUOUS
10
0.6844488188976378
20
0.4945866141732284
11
0.685048188976378
21
0.4975998818897638
0
LINE
8
BLACK
6
CONTINUOUS
10
0.685048188976378
20
0.4975998818897638
11
0.6867550787401575
21
0.5001543700787402
0
LINE
8
BLACK
6
CONTINUOUS
10
0.6867550787401575
20
0.5001543700787402
11
0.6893095669291338
21
0.5018612598425197
0
LINE
8
BLACK
6
CONTINUOUS
10
0.6893095669291338
20
0.5018612598425197
11
0.6923228346456692
21
0.5024606299212598
0
LINE
8
BLACK
6
CONTINUOUS
10
0.6923228346456692
20
0.5024606299212598
11
0.7139763779527559
21
0.5024606299212598
0
LINE
8
BLACK
6
CONTINUOUS
10
0.7139763779527559
20
0.5024606299212598
11
0.7169896456692914
21
0.5018612598425197
  0
ENDSEC
  0
EOF
