  0
SECTION
  2
HEADER
  9
$ANGBASE
  50
0.0
  9
$ANGDIR
  70
1
  9
$MEASUREMENT
  70
0
  0
ENDSEC
  0
SECTION
  2
TABLES
  0
TABLE
  2
LTYPE
  70
4
  0
LTYPE
  5
40F
  2
CONTINUOUS
  70
0
  3
Solid line
  72
65
  73
0
  40
0.0
  0
LTYPE
  5
410
  2
DASHDOT
 70
0
  3
Dash Dot ____ _ ____ _
 72
65
 73
4
 40
2.0
 49
1.25
 49
-0.25
 49
0.25
 49
-0.25
  0
LTYPE
  5
411
  2
DASHED
 70
0
  3
Dashed __ __ __ __ __
 72
65
 73
2
 40
0.75
 49
0.5
 49
-0.25
  0
LTYPE
  5
43B
  2
DOTTED
 70
0
  3
Dotted .  .  .  .
 72
65
 73
2
 40
0.2
 49
0.0
 49
-0.2
  0
ENDTAB
  0
TABLE
  2
STYLE
  70
4
  0
STYLE
  2
KICAD
  70
0
  40
0
  41
1
  42
1
  50
0
  71
0
  3
isocp.shx
  0
STYLE
  2
KICADB
  70
0
  40
0
  41
1
  42
1
  50
0
  71
0
  3
isocp.shx
  0
STYLE
  2
KICADI
  70
0
  40
0
  41
1
  42
1
  50
15
  71
0
  3
isocp.shx
  0
STYLE
  2
KICADBI
  70
0
  40
0
  41
1
  42
1
  50
15
  71
0
  3
isocp.shx
  0
ENDTAB
  0
TABLE
  2
LAYER
  70
1
  0
LAYER
  2
BLACK
  70
0
  62
7
  6
CONTINUOUS
  0
ENDTAB
  0
ENDSEC
  0
SECTION
  2
ENTITIES
0
LINE
8
BLACK
6
CONTINUOUS
10
-0.2040868503937008
20
-0.0413726771653543
11
-0.2039370078740158
21
-0.0421259842519685
0
LINE
8
BLACK
6
CONTINUOUS
10
-0.2039370078740158
20
-0.0421259842519685
11
-0.2039370078740158
21
-0.2113622834645669
0
LINE
8
BLACK
6
CONTINUOUS
10
-0.2039370078740158
20
-0.2113622834645669
11
-0.162463937007874
21
-0.1897727952755905
0
LINE
8
BLACK
6
CONTINUOUS
10
-0.162463937007874
20
-0.1897727952755905
11
-0.1617265354330709
21
-0.1895578346456693
0
LINE
8
BLACK
6
CONTINUOUS
10
-0.1617265354330709
20
-0.1895578346456693
11
-0.1602896456692913
21
-0.190010905511811
0
LINE
8
BLACK
6
CONTINUOUS
10
-0.1602896456692913
20
-0.190010905511811
11
-0.1595939763779528
21
-0.1913472834645669
0
LINE
8
BLACK
6
CONTINUOUS
10
-0.1595939763779528
20
-0.1913472834645669
11
-0.1600470078740157
21
-0.1927842125984252
0
LINE
8
BLACK
6
CONTINUOUS
10
-0.1600470078740157
20
-0.1927842125984252
11
-0.1606460236220472
21
-0.1932649606299213
0
LINE
8
BLACK
6
CONTINUOUS
10
-0.1606460236220472
20
-0.1932649606299213
11
-0.1978608661417323
21
-0.2126377952755905
0
LINE
8
BLACK
6
CONTINUOUS
10
-0.1978608661417323
20
-0.2126377952755905
11
0.7703018503937008
21
-0.2126377952755905
0
LINE
8
BLACK
6
CONTINUOUS
10
0.7703018503937008
20
-0.2126377952755905
11
0.733086968503937
21
-0.1932649606299213
0
LINE
8
BLACK
6
CONTINUOUS
10
0.733086968503937
20
-0.1932649606299213
11
0.7324879527559055
21
-0.1927841732283465
0
LINE
8
BLACK
6
CONTINUOUS
10
0.7324879527559055
20
-0.1927841732283465
11
0.7320348818897637
21
-0.1913472834645669
0
LINE
8
BLACK
6
CONTINUOUS
10
0.7320348818897637
20
-0.1913472834645669
11
0.7327305905511811
21
-0.190010905511811
0
LINE
8
BLACK
6
CONTINUOUS
10
0.7327305905511811
20
-0.190010905511811
11
0.7341674803149606
21
-0.1895578346456693
0
LINE
8
BLACK
6
CONTINUOUS
10
0.7341674803149606
20
-0.1895578346456693
11
0.734904842519685
21
-0.1897727559055118
0
LINE
8
BLACK
6
CONTINUOUS
10
0.734904842519685
20
-0.1897727559055118
11
0.7763779527559055
21
-0.2113622834645669
0
LINE
8
BLACK
6
CONTINUOUS
10
0.7763779527559055
20
-0.2113622834645669
11
0.7763779527559055
21
-0.0421259842519685
0
LINE
8
BLACK
6
CONTINUOUS
10
0.7763779527559055
20
-0.0421259842519685
11
0.7765277952755906
21
-0.0413726771653543
0
LINE
8
BLACK
6
CONTINUOUS
10
0.7765277952755906
20
-0.0413726771653543
11
0.7775931496062992
21
-0.0403073228346457
0
LINE
8
BLACK
6
CONTINUOUS
10
0.7775931496062992
20
-0.0403073228346457
11
0.7790997637795275
21
-0.0403073228346457
0
LINE
8
BLACK
6
CONTINUOUS
10
0.7790997637795275
20
-0.0403073228346457
11
0.7801651181102363
21
-0.0413726771653543
0
LINE
8
BLACK
6
CONTINUOUS
10
0.7801651181102363
20
-0.0413726771653543
11
0.7803149606299212
21
-0.0421259842519685
0
LINE
8
BLACK
6
CONTINUOUS
10
0.7803149606299212
20
-0.0421259842519685
11
0.7803149606299212
21
-0.2376937007874016
0
LINE
8
BLACK
6
CONTINUOUS
10
0.7803149606299212
20
-0.2376937007874016
11
0.7801651181102363
21
-0.2384470078740157
0
LINE
8
BLACK
6
CONTINUOUS
10
0.7801651181102363
20
-0.2384470078740157
11
0.7790997637795275
21
-0.2395123622047244
0
LINE
8
BLACK
6
CONTINUOUS
10
0.7790997637795275
20
-0.2395123622047244
11
0.7775931496062992
21
-0.2395123622047244
0
LINE
8
BLACK
6
CONTINUOUS
10
0.7775931496062992
20
-0.2395123622047244
11
0.7765277952755906
21
-0.2384470078740157
0
LINE
8
BLACK
6
CONTINUOUS
10
0.7765277952755906
20
-0.2384470078740157
11
0.7763779527559055
21
-0.2376937007874016
0
LINE
8
BLACK
6
CONTINUOUS
10
0.7763779527559055
20
-0.2376937007874016
11
0.7763779527559055
21
-0.2178502755905512
0
LINE
8
BLACK
6
CONTINUOUS
10
0.7763779527559055
20
-0.2178502755905512
11
0.734904842519685
21
-0.239439842519685
0
LINE
8
BLACK
6
CONTINUOUS
10
0.734904842519685
20
-0.239439842519685
11
0.7341674803149606
21
-0.2396547637795275
0
LINE
8
BLACK
6
CONTINUOUS
10
0.7341674803149606
20
-0.2396547637795275
11
0.7327305905511811
21
-0.2392016929133858
0
LINE
8
BLACK
6
CONTINUOUS
10
0.7327305905511811
20
-0.2392016929133858
11
0.7320348818897637
21
-0.2378653149606299
0
LINE
8
BLACK
6
CONTINUOUS
10
0.7320348818897637
20
-0.2378653149606299
11
0.7324879527559055
21
-0.2364284251968504
0
LINE
8
BLACK
6
CONTINUOUS
10
0.7324879527559055
20
-0.2364284251968504
11
0.733086968503937
21
-0.2359476377952756
0
LINE
8
BLACK
6
CONTINUOUS
10
0.733086968503937
20
-0.2359476377952756
11
0.7703018503937008
21
-0.2165748031496063
0
LINE
8
BLACK
6
CONTINUOUS
10
0.7703018503937008
20
-0.2165748031496063
11
-0.1978608661417323
21
-0.2165748031496063
0
LINE
8
BLACK
6
CONTINUOUS
10
-0.1978608661417323
20
-0.2165748031496063
11
-0.1606460236220472
21
-0.2359476377952756
0
LINE
8
BLACK
6
CONTINUOUS
10
-0.1606460236220472
20
-0.2359476377952756
11
-0.1600470078740157
21
-0.2364283858267716
0
LINE
8
BLACK
6
CONTINUOUS
10
-0.1600470078740157
20
-0.2364283858267716
11
-0.1595939763779528
21
-0.2378653149606299
0
LINE
8
BLACK
6
CONTINUOUS
10
-0.1595939763779528
20
-0.2378653149606299
11
-0.1602896456692913
21
-0.2392016929133858
0
LINE
8
BLACK
6
CONTINUOUS
10
-0.1602896456692913
20
-0.2392016929133858
11
-0.1617265354330709
21
-0.2396547637795275
0
LINE
8
BLACK
6
CONTINUOUS
10
-0.1617265354330709
20
-0.2396547637795275
11
-0.162463937007874
21
-0.2394398031496063
0
LINE
8
BLACK
6
CONTINUOUS
10
-0.162463937007874
20
-0.2394398031496063
11
-0.2039370078740158
21
-0.2178502755905512
0
LINE
8
BLACK
6
CONTINUOUS
10
-0.2039370078740158
20
-0.2178502755905512
11
-0.2039370078740158
21
-0.2376937007874016
0
LINE
8
BLACK
6
CONTINUOUS
10
-0.2039370078740158
20
-0.2376937007874016
11
-0.2040868503937008
21
-0.2384470078740157
0
LINE
8
BLACK
6
CONTINUOUS
10
-0.2040868503937008
20
-0.2384470078740157
11
-0.2051522047244095
21
-0.2395123622047244
0
LINE
8
BLACK
6
CONTINUOUS
10
-0.2051522047244095
20
-0.2395123622047244
11
-0.2066588188976378
21
-0.2395123622047244
0
LINE
8
BLACK
6
CONTINUOUS
10
-0.2066588188976378
20
-0.2395123622047244
11
-0.2077241732283465
21
-0.2384470078740157
0
LINE
8
BLACK
6
CONTINUOUS
10
-0.2077241732283465
20
-0.2384470078740157
11
-0.2078740157480315
21
-0.2376937007874016
0
LINE
8
BLACK
6
CONTINUOUS
10
-0.2078740157480315
20
-0.2376937007874016
11
-0.2078740157480315
21
-0.0421259842519685
0
LINE
8
BLACK
6
CONTINUOUS
10
-0.2078740157480315
20
-0.0421259842519685
11
-0.2077241732283465
21
-0.0413726771653543
0
LINE
8
BLACK
6
CONTINUOUS
10
-0.2077241732283465
20
-0.0413726771653543
11
-0.2066588188976378
21
-0.0403073228346457
0
LINE
8
BLACK
6
CONTINUOUS
10
-0.2066588188976378
20
-0.0403073228346457
11
-0.2051522047244095
21
-0.0403073228346457
0
LINE
8
BLACK
6
CONTINUOUS
10
-0.2051522047244095
20
-0.0403073228346457
11
-0.2040868503937008
21
-0.0413726771653543
0
LINE
8
BLACK
6
CONTINUOUS
10
0.2043068503937008
20
-0.1449708661417323
11
0.204404842519685
21
-0.1450114566929134
0
LINE
8
BLACK
6
CONTINUOUS
10
0.204404842519685
20
-0.1450114566929134
11
0.2045106692913386
21
-0.1450189763779527
0
LINE
8
BLACK
6
CONTINUOUS
10
0.2045106692913386
20
-0.1450189763779527
11
0.2050512992125984
21
-0.1452258661417323
0
LINE
8
BLACK
6
CONTINUOUS
10
0.2050512992125984
20
-0.1452258661417323
11
0.2088008267716535
21
-0.1471006299212598
0
LINE
8
BLACK
6
CONTINUOUS
10
0.2088008267716535
20
-0.1471006299212598
11
0.2090488188976378
21
-0.1472566929133858
0
LINE
8
BLACK
6
CONTINUOUS
10
0.2090488188976378
20
-0.1472566929133858
11
0.2091207874015748
21
-0.1472865354330709
0
LINE
8
BLACK
6
CONTINUOUS
10
0.2091207874015748
20
-0.1472865354330709
11
0.2092017322834646
21
-0.1473529921259842
0
LINE
8
BLACK
6
CONTINUOUS
10
0.2092017322834646
20
-0.1473529921259842
11
0.2092907086614173
21
-0.1474089763779527
0
LINE
8
BLACK
6
CONTINUOUS
10
0.2092907086614173
20
-0.1474089763779527
11
0.2093418503937008
21
-0.1474679527559055
0
LINE
8
BLACK
6
CONTINUOUS
10
0.2093418503937008
20
-0.1474679527559055
11
0.2095682283464567
21
-0.1476537401574803
0
LINE
8
BLACK
6
CONTINUOUS
10
0.2095682283464567
20
-0.1476537401574803
11
0.2114429921259842
21
-0.1495285039370079
0
LINE
8
BLACK
6
CONTINUOUS
10
0.2114429921259842
20
-0.1495285039370079
11
0.2116287401574803
21
-0.149754842519685
0
LINE
8
BLACK
6
CONTINUOUS
10
0.2116287401574803
20
-0.149754842519685
11
0.2116877559055118
21
-0.1498060236220472
0
LINE
8
BLACK
6
CONTINUOUS
10
0.2116877559055118
20
-0.1498060236220472
11
0.2117437007874016
21
-0.1498949606299212
0
LINE
8
BLACK
6
CONTINUOUS
10
0.2117437007874016
20
-0.1498949606299212
11
0.2118101968503937
21
-0.1499759448818898
0
LINE
8
BLACK
6
CONTINUOUS
10
0.2118101968503937
20
-0.1499759448818898
11
0.21184
21
-0.150047874015748
0
LINE
8
BLACK
6
CONTINUOUS
10
0.21184
20
-0.150047874015748
11
0.2119961023622047
21
-0.150295905511811
0
LINE
8
BLACK
6
CONTINUOUS
10
0.2119961023622047
20
-0.150295905511811
11
0.2138708661417323
21
-0.1540454330708661
0
LINE
8
BLACK
6
CONTINUOUS
10
0.2138708661417323
20
-0.1540454330708661
11
0.2140777559055118
21
-0.1545860236220472
0
LINE
8
BLACK
6
CONTINUOUS
10
0.2140777559055118
20
-0.1545860236220472
11
0.2140852755905512
21
-0.1546918897637795
0
LINE
8
BLACK
6
CONTINUOUS
10
0.2140852755905512
20
-0.1546918897637795
11
0.2141258661417323
21
-0.1547898818897638
0
LINE
8
BLACK
6
CONTINUOUS
10
0.2141258661417323
20
-0.1547898818897638
11
0.2141825984251969
21
-0.1553659448818898
0
LINE
8
BLACK
6
CONTINUOUS
10
0.2141825984251969
20
-0.1553659448818898
11
0.2141825984251969
21
-0.1591154724409449
0
LINE
8
BLACK
6
CONTINUOUS
10
0.2141825984251969
20
-0.1591154724409449
11
0.2141538582677165
21
-0.1594070472440945
0
LINE
8
BLACK
6
CONTINUOUS
10
0.2141538582677165
20
-0.1594070472440945
11
0.2141594094488189
21
-0.1594848031496063
0
LINE
8
BLACK
6
CONTINUOUS
10
0.2141594094488189
20
-0.1594848031496063
11
0.2141361417322835
21
-0.1595870472440945
0
LINE
8
BLACK
6
CONTINUOUS
10
0.2141361417322835
20
-0.1595870472440945
11
0.2141258661417323
21
-0.1596915354330709
0
LINE
8
BLACK
6
CONTINUOUS
10
0.2141258661417323
20
-0.1596915354330709
11
0.2140959842519685
21
-0.1597635826771653
0
LINE
8
BLACK
6
CONTINUOUS
10
0.2140959842519685
20
-0.1597635826771653
11
0.214031062992126
21
-0.1600492519685039
0
LINE
8
BLACK
6
CONTINUOUS
10
0.214031062992126
20
-0.1600492519685039
11
0.2121562992125984
21
-0.1656735039370079
0
LINE
8
BLACK
6
CONTINUOUS
10
0.2121562992125984
20
-0.1656735039370079
11
0.2119203149606299
21
-0.1662020866141732
0
LINE
8
BLACK
6
CONTINUOUS
10
0.2119203149606299
20
-0.1662020866141732
11
0.2118508267716535
21
-0.1662821653543307
0
LINE
8
BLACK
6
CONTINUOUS
10
0.2118508267716535
20
-0.1662821653543307
11
0.2118102362204724
21
-0.1663802362204724
0
LINE
8
BLACK
6
CONTINUOUS
10
0.2118102362204724
20
-0.1663802362204724
11
0.2114429921259842
21
-0.1668276771653543
0
LINE
8
BLACK
6
CONTINUOUS
10
0.2114429921259842
20
-0.1668276771653543
11
0.1939864960629921
21
-0.1842842125984252
0
LINE
8
BLACK
6
CONTINUOUS
10
0.1939864960629921
20
-0.1842842125984252
11
0.211229842519685
21
-0.1842842125984252
0
LINE
8
BLACK
6
CONTINUOUS
10
0.211229842519685
20
-0.1842842125984252
11
0.211805905511811
21
-0.1843409448818898
0
LINE
8
BLACK
6
CONTINUOUS
10
0.211805905511811
20
-0.1843409448818898
11
0.2128703149606299
21
-0.1847818503937008
0
LINE
8
BLACK
6
CONTINUOUS
10
0.2128703149606299
20
-0.1847818503937008
11
0.2136849606299213
21
-0.1855964960629921
0
LINE
8
BLACK
6
CONTINUOUS
10
0.2136849606299213
20
-0.1855964960629921
11
0.2141258661417323
21
-0.186660905511811
0
LINE
8
BLACK
6
CONTINUOUS
10
0.2141258661417323
20
-0.186660905511811
11
0.2141258661417323
21
-0.187813031496063
0
LINE
8
BLACK
6
CONTINUOUS
10
0.2141258661417323
20
-0.187813031496063
11
0.2136849606299213
21
-0.1888774409448819
0
LINE
8
BLACK
6
CONTINUOUS
10
0.2136849606299213
20
-0.1888774409448819
11
0.2128703149606299
21
-0.1896920866141732
0
LINE
8
BLACK
6
CONTINUOUS
10
0.2128703149606299
20
-0.1896920866141732
11
0.211805905511811
21
-0.1901329921259843
0
LINE
8
BLACK
6
CONTINUOUS
10
0.211805905511811
20
-0.1901329921259843
11
0.211229842519685
21
-0.1901897244094488
0
LINE
8
BLACK
6
CONTINUOUS
10
0.211229842519685
20
-0.1901897244094488
11
0.1868579133858268
21
-0.1901897244094488
0
LINE
8
BLACK
6
CONTINUOUS
10
0.1868579133858268
20
-0.1901897244094488
11
0.1862818503937008
21
-0.1901329921259843
0
LINE
8
BLACK
6
CONTINUOUS
10
0.1862818503937008
20
-0.1901329921259843
11
0.1852174409448819
21
-0.1896920866141732
0
LINE
8
BLACK
6
CONTINUOUS
10
0.1852174409448819
20
-0.1896920866141732
11
0.1844027952755906
21
-0.1888774409448819
0
LINE
8
BLACK
6
CONTINUOUS
10
0.1844027952755906
20
-0.1888774409448819
11
0.1839618897637795
21
-0.187813031496063
0
LINE
8
BLACK
6
CONTINUOUS
10
0.1839618897637795
20
-0.187813031496063
11
0.1839618897637795
21
-0.186660905511811
0
LINE
8
BLACK
6
CONTINUOUS
10
0.1839618897637795
20
-0.186660905511811
11
0.1844027952755906
21
-0.1855964960629921
0
LINE
8
BLACK
6
CONTINUOUS
10
0.1844027952755906
20
-0.1855964960629921
11
0.18477
21
-0.1851490551181102
0
LINE
8
BLACK
6
CONTINUOUS
10
0.18477
20
-0.1851490551181102
11
0.2067742519685039
21
-0.1631447244094488
0
LINE
8
BLACK
6
CONTINUOUS
10
0.2067742519685039
20
-0.1631447244094488
11
0.2082770866141732
21
-0.1586363385826772
0
LINE
8
BLACK
6
CONTINUOUS
10
0.2082770866141732
20
-0.1586363385826772
11
0.2082770866141732
21
-0.1560629921259843
0
LINE
8
BLACK
6
CONTINUOUS
10
0.2082770866141732
20
-0.1560629921259843
11
0.2069283464566929
21
-0.1533655118110236
0
LINE
8
BLACK
6
CONTINUOUS
10
0.2069283464566929
20
-0.1533655118110236
11
0.2057312204724409
21
-0.1521683858267716
0
LINE
8
BLACK
6
CONTINUOUS
10
0.2057312204724409
20
-0.1521683858267716
11
0.2030337401574803
21
-0.1508196456692913
0
LINE
8
BLACK
6
CONTINUOUS
10
0.2030337401574803
20
-0.1508196456692913
11
0.1950540157480315
21
-0.1508196456692913
0
LINE
8
BLACK
6
CONTINUOUS
10
0.1950540157480315
20
-0.1508196456692913
11
0.1923565354330709
21
-0.1521683858267716
0
LINE
8
BLACK
6
CONTINUOUS
10
0.1923565354330709
20
-0.1521683858267716
11
0.1908205905511811
21
-0.1537043307086614
0
LINE
8
BLACK
6
CONTINUOUS
10
0.1908205905511811
20
-0.1537043307086614
11
0.1903731496062992
21
-0.1540715354330709
0
LINE
8
BLACK
6
CONTINUOUS
10
0.1903731496062992
20
-0.1540715354330709
11
0.1893087007874016
21
-0.1545124409448819
0
LINE
8
BLACK
6
CONTINUOUS
10
0.1893087007874016
20
-0.1545124409448819
11
0.1881566535433071
21
-0.1545124409448819
0
LINE
8
BLACK
6
CONTINUOUS
10
0.1881566535433071
20
-0.1545124409448819
11
0.1870922047244094
21
-0.1540715354330709
0
LINE
8
BLACK
6
CONTINUOUS
10
0.1870922047244094
20
-0.1540715354330709
11
0.1862775590551181
21
-0.1532568897637795
0
LINE
8
BLACK
6
CONTINUOUS
10
0.1862775590551181
20
-0.1532568897637795
11
0.1858366535433071
21
-0.1521924409448819
0
LINE
8
BLACK
6
CONTINUOUS
10
0.1858366535433071
20
-0.1521924409448819
11
0.1858366535433071
21
-0.1510403937007874
0
LINE
8
BLACK
6
CONTINUOUS
10
0.1858366535433071
20
-0.1510403937007874
11
0.1862775590551181
21
-0.1499759448818898
0
LINE
8
BLACK
6
CONTINUOUS
10
0.1862775590551181
20
-0.1499759448818898
11
0.1866447637795275
21
-0.1495285039370079
0
LINE
8
BLACK
6
CONTINUOUS
10
0.1866447637795275
20
-0.1495285039370079
11
0.1885195275590551
21
-0.1476537401574803
0
LINE
8
BLACK
6
CONTINUOUS
10
0.1885195275590551
20
-0.1476537401574803
11
0.1887458661417323
21
-0.1474679527559055
0
LINE
8
BLACK
6
CONTINUOUS
10
0.1887458661417323
20
-0.1474679527559055
11
0.1887970472440945
21
-0.1474089763779527
0
LINE
8
BLACK
6
CONTINUOUS
10
0.1887970472440945
20
-0.1474089763779527
11
0.1888859842519685
21
-0.1473529921259842
0
LINE
8
BLACK
6
CONTINUOUS
10
0.1888859842519685
20
-0.1473529921259842
11
0.188966968503937
21
-0.1472865354330709
0
LINE
8
BLACK
6
CONTINUOUS
10
0.188966968503937
20
-0.1472865354330709
11
0.1890388976377953
21
-0.1472566929133858
0
LINE
8
BLACK
6
CONTINUOUS
10
0.1890388976377953
20
-0.1472566929133858
11
0.1892869291338583
21
-0.1471006299212598
0
LINE
8
BLACK
6
CONTINUOUS
10
0.1892869291338583
20
-0.1471006299212598
11
0.1930364566929134
21
-0.1452258661417323
0
LINE
8
BLACK
6
CONTINUOUS
10
0.1930364566929134
20
-0.1452258661417323
11
0.1935770472440945
21
-0.1450189763779527
0
LINE
8
BLACK
6
CONTINUOUS
10
0.1935770472440945
20
-0.1450189763779527
11
0.1936829133858268
21
-0.1450114173228347
0
LINE
8
BLACK
6
CONTINUOUS
10
0.1936829133858268
20
-0.1450114173228347
11
0.193780905511811
21
-0.1449708661417323
0
LINE
8
BLACK
6
CONTINUOUS
10
0.193780905511811
20
-0.1449708661417323
11
0.194356968503937
21
-0.1449141338582677
0
LINE
8
BLACK
6
CONTINUOUS
10
0.194356968503937
20
-0.1449141338582677
11
0.2037307874015748
21
-0.1449141338582677
0
LINE
8
BLACK
6
CONTINUOUS
10
0.2037307874015748
20
-0.1449141338582677
11
0.2043068503937008
21
-0.1449708661417323
0
LINE
8
BLACK
6
CONTINUOUS
10
0.2474264566929134
20
-0.1449708661417323
11
0.2484908661417323
21
-0.1454117716535433
0
LINE
8
BLACK
6
CONTINUOUS
10
0.2484908661417323
20
-0.1454117716535433
11
0.2493055118110236
21
-0.1462264173228346
0
LINE
8
BLACK
6
CONTINUOUS
10
0.2493055118110236
20
-0.1462264173228346
11
0.2497464173228346
21
-0.1472908267716535
0
LINE
8
BLACK
6
CONTINUOUS
10
0.2497464173228346
20
-0.1472908267716535
11
0.2497464173228346
21
-0.1484429527559055
0
LINE
8
BLACK
6
CONTINUOUS
10
0.2497464173228346
20
-0.1484429527559055
11
0.2493055118110236
21
-0.1495073622047244
0
LINE
8
BLACK
6
CONTINUOUS
10
0.2493055118110236
20
-0.1495073622047244
11
0.2484908661417323
21
-0.1503220078740158
0
LINE
8
BLACK
6
CONTINUOUS
10
0.2484908661417323
20
-0.1503220078740158
11
0.2474264566929134
21
-0.1507629133858268
0
LINE
8
BLACK
6
CONTINUOUS
10
0.2474264566929134
20
-0.1507629133858268
11
0.2468503937007874
21
-0.1508196456692913
0
LINE
8
BLACK
6
CONTINUOUS
10
0.2468503937007874
20
-0.1508196456692913
11
0.2307749606299213
21
-0.1508196456692913
0
LINE
8
BLACK
6
CONTINUOUS
10
0.2307749606299213
20
-0.1508196456692913
11
0.2297978346456693
21
-0.160590905511811
0
LINE
8
BLACK
6
CONTINUOUS
10
0.2297978346456693
20
-0.160590905511811
11
0.2305317716535433
21
-0.1602239763779527
0
LINE
8
BLACK
6
CONTINUOUS
10
0.2305317716535433
20
-0.1602239763779527
11
0.2310723622047244
21
-0.1600170866141732
0
LINE
8
BLACK
6
CONTINUOUS
10
0.2310723622047244
20
-0.1600170866141732
11
0.2311782283464567
21
-0.1600095275590551
0
LINE
8
BLACK
6
CONTINUOUS
10
0.2311782283464567
20
-0.1600095275590551
11
0.231276220472441
21
-0.1599689763779528
0
LINE
8
BLACK
6
CONTINUOUS
10
0.231276220472441
20
-0.1599689763779528
11
0.2318522834645669
21
-0.1599122440944882
0
LINE
8
BLACK
6
CONTINUOUS
10
0.2318522834645669
20
-0.1599122440944882
11
0.2412261023622047
21
-0.1599122440944882
0
LINE
8
BLACK
6
CONTINUOUS
10
0.2412261023622047
20
-0.1599122440944882
11
0.2418021653543307
21
-0.1599689763779528
0
LINE
8
BLACK
6
CONTINUOUS
10
0.2418021653543307
20
-0.1599689763779528
11
0.241900157480315
21
-0.1600095669291338
0
LINE
8
BLACK
6
CONTINUOUS
10
0.241900157480315
20
-0.1600095669291338
11
0.2420059842519685
21
-0.1600170866141732
0
LINE
8
BLACK
6
CONTINUOUS
10
0.2420059842519685
20
-0.1600170866141732
11
0.2425466141732283
21
-0.1602239763779527
0
LINE
8
BLACK
6
CONTINUOUS
10
0.2425466141732283
20
-0.1602239763779527
11
0.2462961417322835
21
-0.1620987401574803
0
LINE
8
BLACK
6
CONTINUOUS
10
0.2462961417322835
20
-0.1620987401574803
11
0.2465441338582677
21
-0.1622548031496063
0
LINE
8
BLACK
6
CONTINUOUS
10
0.2465441338582677
20
-0.1622548031496063
11
0.2466161023622047
21
-0.1622846456692913
0
LINE
8
BLACK
6
CONTINUOUS
10
0.2466161023622047
20
-0.1622846456692913
11
0.2466970472440945
21
-0.1623511023622047
0
LINE
8
BLACK
6
CONTINUOUS
10
0.2466970472440945
20
-0.1623511023622047
11
0.2467860236220472
21
-0.1624070866141732
0
LINE
8
BLACK
6
CONTINUOUS
10
0.2467860236220472
20
-0.1624070866141732
11
0.2468371653543307
21
-0.162466062992126
0
LINE
8
BLACK
6
CONTINUOUS
10
0.2468371653543307
20
-0.162466062992126
11
0.2470635433070866
21
-0.1626518503937008
0
LINE
8
BLACK
6
CONTINUOUS
10
0.2470635433070866
20
-0.1626518503937008
11
0.2489383070866142
21
-0.1645266141732283
0
LINE
8
BLACK
6
CONTINUOUS
10
0.2489383070866142
20
-0.1645266141732283
11
0.2491240551181102
21
-0.1647529527559055
0
LINE
8
BLACK
6
CONTINUOUS
10
0.2491240551181102
20
-0.1647529527559055
11
0.2491830708661417
21
-0.1648041338582677
0
LINE
8
BLACK
6
CONTINUOUS
10
0.2491830708661417
20
-0.1648041338582677
11
0.2492390157480315
21
-0.1648930708661417
0
LINE
8
BLACK
6
CONTINUOUS
10
0.2492390157480315
20
-0.1648930708661417
11
0.2493055118110236
21
-0.1649740551181102
0
LINE
8
BLACK
6
CONTINUOUS
10
0.2493055118110236
20
-0.1649740551181102
11
0.2493353149606299
21
-0.1650459842519685
0
LINE
8
BLACK
6
CONTINUOUS
10
0.2493353149606299
20
-0.1650459842519685
11
0.2494914173228346
21
-0.1652940157480315
0
LINE
8
BLACK
6
CONTINUOUS
10
0.2494914173228346
20
-0.1652940157480315
11
0.2513661811023622
21
-0.1690435433070866
0
LINE
8
BLACK
6
CONTINUOUS
10
0.2513661811023622
20
-0.1690435433070866
11
0.2515730708661417
21
-0.1695841338582677
0
LINE
8
BLACK
6
CONTINUOUS
10
0.2515730708661417
20
-0.1695841338582677
11
0.2515805905511811
21
-0.16969
0
LINE
8
BLACK
6
CONTINUOUS
10
0.2515805905511811
20
-0.16969
11
0.2516211811023622
21
-0.1697879921259842
0
LINE
8
BLACK
6
CONTINUOUS
10
0.2516211811023622
20
-0.1697879921259842
11
0.2516779133858268
21
-0.1703640551181102
0
LINE
8
BLACK
6
CONTINUOUS
10
0.2516779133858268
20
-0.1703640551181102
11
0.2516779133858268
21
-0.179737874015748
0
LINE
8
BLACK
6
CONTINUOUS
10
0.2516779133858268
20
-0.179737874015748
11
0.2516211811023622
21
-0.180313937007874
0
LINE
8
BLACK
6
CONTINUOUS
10
0.2516211811023622
20
-0.180313937007874
11
0.2515805905511811
21
-0.1804118897637795
0
LINE
8
BLACK
6
CONTINUOUS
10
0.2515805905511811
20
-0.1804118897637795
11
0.2515730708661417
21
-0.1805177952755906
0
LINE
8
BLACK
6
CONTINUOUS
10
0.2515730708661417
20
-0.1805177952755906
11
0.2513661811023622
21
-0.1810583858267716
0
LINE
8
BLACK
6
CONTINUOUS
10
0.2513661811023622
20
-0.1810583858267716
11
0.2494914173228346
21
-0.1848079133858268
0
LINE
8
BLACK
6
CONTINUOUS
10
0.2494914173228346
20
-0.1848079133858268
11
0.2493353543307087
21
-0.1850557874015748
0
LINE
8
BLACK
6
CONTINUOUS
10
0.2493353543307087
20
-0.1850557874015748
11
0.2493055511811024
21
-0.1851278346456693
0
LINE
8
BLACK
6
CONTINUOUS
10
0.2493055511811024
20
-0.1851278346456693
11
0.2492390157480315
21
-0.1852088582677165
0
LINE
8
BLACK
6
CONTINUOUS
10
0.2492390157480315
20
-0.1852088582677165
11
0.2491830708661417
21
-0.1852977952755905
0
LINE
8
BLACK
6
CONTINUOUS
10
0.2491830708661417
20
-0.1852977952755905
11
0.2491240551181102
21
-0.185348937007874
0
LINE
8
BLACK
6
CONTINUOUS
10
0.2491240551181102
20
-0.185348937007874
11
0.2489383070866142
21
-0.1855753149606299
0
LINE
8
BLACK
6
CONTINUOUS
10
0.2489383070866142
20
-0.1855753149606299
11
0.2470635826771654
21
-0.1874500787401575
0
LINE
8
BLACK
6
CONTINUOUS
10
0.2470635826771654
20
-0.1874500787401575
11
0.2468372047244095
21
-0.1876358267716536
0
LINE
8
BLACK
6
CONTINUOUS
10
0.2468372047244095
20
-0.1876358267716536
11
0.2467860236220472
21
-0.1876948818897638
0
LINE
8
BLACK
6
CONTINUOUS
10
0.2467860236220472
20
-0.1876948818897638
11
0.2466970472440945
21
-0.1877508661417323
0
LINE
8
BLACK
6
CONTINUOUS
10
0.2466970472440945
20
-0.1877508661417323
11
0.2466161023622047
21
-0.1878173228346457
0
LINE
8
BLACK
6
CONTINUOUS
10
0.2466161023622047
20
-0.1878173228346457
11
0.2465441338582677
21
-0.187847125984252
0
LINE
8
BLACK
6
CONTINUOUS
10
0.2465441338582677
20
-0.187847125984252
11
0.2462961417322835
21
-0.1880032283464567
0
LINE
8
BLACK
6
CONTINUOUS
10
0.2462961417322835
20
-0.1880032283464567
11
0.2425466141732283
21
-0.1898779921259842
0
LINE
8
BLACK
6
CONTINUOUS
10
0.2425466141732283
20
-0.1898779921259842
11
0.2420059842519685
21
-0.1900848818897638
0
LINE
8
BLACK
6
CONTINUOUS
10
0.2420059842519685
20
-0.1900848818897638
11
0.241900157480315
21
-0.1900923622047244
0
LINE
8
BLACK
6
CONTINUOUS
10
0.241900157480315
20
-0.1900923622047244
11
0.2418021653543307
21
-0.1901329921259843
0
LINE
8
BLACK
6
CONTINUOUS
10
0.2418021653543307
20
-0.1901329921259843
11
0.2412261023622047
21
-0.1901897244094488
0
LINE
8
BLACK
6
CONTINUOUS
10
0.2412261023622047
20
-0.1901897244094488
11
0.2318522834645669
21
-0.1901897244094488
0
LINE
8
BLACK
6
CONTINUOUS
10
0.2318522834645669
20
-0.1901897244094488
11
0.231276220472441
21
-0.1901329921259843
0
LINE
8
BLACK
6
CONTINUOUS
10
0.231276220472441
20
-0.1901329921259843
11
0.2311782283464567
21
-0.1900924015748031
0
LINE
8
BLACK
6
CONTINUOUS
10
0.2311782283464567
20
-0.1900924015748031
11
0.2310723622047244
21
-0.1900848818897638
0
LINE
8
BLACK
6
CONTINUOUS
10
0.2310723622047244
20
-0.1900848818897638
11
0.2305317716535433
21
-0.1898779921259842
0
LINE
8
BLACK
6
CONTINUOUS
10
0.2305317716535433
20
-0.1898779921259842
11
0.2267822440944882
21
-0.1880032283464567
0
LINE
8
BLACK
6
CONTINUOUS
10
0.2267822440944882
20
-0.1880032283464567
11
0.2265342125984252
21
-0.187847125984252
0
LINE
8
BLACK
6
CONTINUOUS
10
0.2265342125984252
20
-0.187847125984252
11
0.2264622834645669
21
-0.1878173228346457
0
LINE
8
BLACK
6
CONTINUOUS
10
0.2264622834645669
20
-0.1878173228346457
11
0.2263812992125984
21
-0.1877508661417323
0
LINE
8
BLACK
6
CONTINUOUS
10
0.2263812992125984
20
-0.1877508661417323
11
0.2262923622047244
21
-0.1876948818897638
0
LINE
8
BLACK
6
CONTINUOUS
10
0.2262923622047244
20
-0.1876948818897638
11
0.2262411417322835
21
-0.1876358267716536
0
LINE
8
BLACK
6
CONTINUOUS
10
0.2262411417322835
20
-0.1876358267716536
11
0.2260148031496063
21
-0.1874500787401575
0
LINE
8
BLACK
6
CONTINUOUS
10
0.2260148031496063
20
-0.1874500787401575
11
0.2241400393700787
21
-0.1855752755905512
0
LINE
8
BLACK
6
CONTINUOUS
10
0.2241400393700787
20
-0.1855752755905512
11
0.2237728346456693
21
-0.1851278346456693
0
LINE
8
BLACK
6
CONTINUOUS
10
0.2237728346456693
20
-0.1851278346456693
11
0.223331968503937
21
-0.1840634251968504
0
LINE
8
BLACK
6
CONTINUOUS
10
0.223331968503937
20
-0.1840634251968504
11
0.223331968503937
21
-0.1829113385826772
0
LINE
8
BLACK
6
CONTINUOUS
10
0.223331968503937
20
-0.1829113385826772
11
0.223772874015748
21
-0.1818469291338583
0
LINE
8
BLACK
6
CONTINUOUS
10
0.223772874015748
20
-0.1818469291338583
11
0.2245875590551181
21
-0.1810322440944882
0
LINE
8
BLACK
6
CONTINUOUS
10
0.2245875590551181
20
-0.1810322440944882
11
0.225651968503937
21
-0.1805913779527559
0
LINE
8
BLACK
6
CONTINUOUS
10
0.225651968503937
20
-0.1805913779527559
11
0.2268040551181102
21
-0.1805913779527559
0
LINE
8
BLACK
6
CONTINUOUS
10
0.2268040551181102
20
-0.1805913779527559
11
0.2278684645669291
21
-0.1810322834645669
0
LINE
8
BLACK
6
CONTINUOUS
10
0.2278684645669291
20
-0.1810322834645669
11
0.2283159448818897
21
-0.1813995275590551
0
LINE
8
BLACK
6
CONTINUOUS
10
0.2283159448818897
20
-0.1813995275590551
11
0.2298518503937008
21
-0.1829354724409449
0
LINE
8
BLACK
6
CONTINUOUS
10
0.2298518503937008
20
-0.1829354724409449
11
0.2325493307086614
21
-0.1842842125984252
0
LINE
8
BLACK
6
CONTINUOUS
10
0.2325493307086614
20
-0.1842842125984252
11
0.2405290551181102
21
-0.1842842125984252
0
LINE
8
BLACK
6
CONTINUOUS
10
0.2405290551181102
20
-0.1842842125984252
11
0.2432264960629921
21
-0.1829354724409449
0
LINE
8
BLACK
6
CONTINUOUS
10
0.2432264960629921
20
-0.1829354724409449
11
0.2444236220472441
21
-0.1817383070866142
0
LINE
8
BLACK
6
CONTINUOUS
10
0.2444236220472441
20
-0.1817383070866142
11
0.2457724015748032
21
-0.1790408267716535
0
LINE
8
BLACK
6
CONTINUOUS
10
0.2457724015748032
20
-0.1790408267716535
11
0.2457724015748032
21
-0.1710611023622047
0
LINE
8
BLACK
6
CONTINUOUS
10
0.2457724015748032
20
-0.1710611023622047
11
0.2444236614173228
21
-0.1683636220472441
0
LINE
8
BLACK
6
CONTINUOUS
10
0.2444236614173228
20
-0.1683636220472441
11
0.2432265354330709
21
-0.1671664960629921
0
LINE
8
BLACK
6
CONTINUOUS
10
0.2432265354330709
20
-0.1671664960629921
11
0.2405290551181102
21
-0.1658177559055118
0
LINE
8
BLACK
6
CONTINUOUS
10
0.2405290551181102
20
-0.1658177559055118
11
0.2325493307086614
21
-0.1658177559055118
0
LINE
8
BLACK
6
CONTINUOUS
10
0.2325493307086614
20
-0.1658177559055118
11
0.2298518503937008
21
-0.1671664960629921
0
LINE
8
BLACK
6
CONTINUOUS
10
0.2298518503937008
20
-0.1671664960629921
11
0.228315905511811
21
-0.1687024409448819
0
LINE
8
BLACK
6
CONTINUOUS
10
0.228315905511811
20
-0.1687024409448819
11
0.2278684645669291
21
-0.1690696456692913
0
LINE
8
BLACK
6
CONTINUOUS
10
0.2278684645669291
20
-0.1690696456692913
11
0.2277311023622047
21
-0.1691265354330709
0
LINE
8
BLACK
6
CONTINUOUS
10
0.2277311023622047
20
-0.1691265354330709
11
0.2276160236220472
21
-0.1692207086614173
0
LINE
8
BLACK
6
CONTINUOUS
10
0.2276160236220472
20
-0.1692207086614173
11
0.2272026377952756
21
-0.1693453937007874
0
LINE
8
BLACK
6
CONTINUOUS
10
0.2272026377952756
20
-0.1693453937007874
11
0.2268040157480315
21
-0.1695105511811024
0
LINE
8
BLACK
6
CONTINUOUS
10
0.2268040157480315
20
-0.1695105511811024
11
0.2266553937007874
21
-0.1695105511811024
0
LINE
8
BLACK
6
CONTINUOUS
10
0.2266553937007874
20
-0.1695105511811024
11
0.226513031496063
21
-0.1695535039370079
0
LINE
8
BLACK
6
CONTINUOUS
10
0.226513031496063
20
-0.1695535039370079
11
0.2260835039370079
21
-0.1695105511811024
0
LINE
8
BLACK
6
CONTINUOUS
10
0.2260835039370079
20
-0.1695105511811024
11
0.225651968503937
21
-0.1695105511811024
0
LINE
8
BLACK
6
CONTINUOUS
10
0.225651968503937
20
-0.1695105511811024
11
0.2255146062992126
21
-0.1694536220472441
0
LINE
8
BLACK
6
CONTINUOUS
10
0.2255146062992126
20
-0.1694536220472441
11
0.2253666141732283
21
-0.1694388582677165
0
LINE
8
BLACK
6
CONTINUOUS
10
0.2253666141732283
20
-0.1694388582677165
11
0.2249862204724409
21
-0.1692348031496063
0
LINE
8
BLACK
6
CONTINUOUS
10
0.2249862204724409
20
-0.1692348031496063
11
0.2245875196850394
21
-0.1690696456692913
0
LINE
8
BLACK
6
CONTINUOUS
10
0.2245875196850394
20
-0.1690696456692913
11
0.2244823228346457
21
-0.1689644488188976
0
LINE
8
BLACK
6
CONTINUOUS
10
0.2244823228346457
20
-0.1689644488188976
11
0.2243513779527559
21
-0.1688942125984252
0
LINE
8
BLACK
6
CONTINUOUS
10
0.2243513779527559
20
-0.1688942125984252
11
0.2240781102362205
21
-0.1685602362204724
0
LINE
8
BLACK
6
CONTINUOUS
10
0.2240781102362205
20
-0.1685602362204724
11
0.223772874015748
21
-0.168255
0
LINE
8
BLACK
6
CONTINUOUS
10
0.223772874015748
20
-0.168255
11
0.2237159448818898
21
-0.1681176377952756
0
LINE
8
BLACK
6
CONTINUOUS
10
0.2237159448818898
20
-0.1681176377952756
11
0.2236218110236221
21
-0.1680025590551181
0
LINE
8
BLACK
6
CONTINUOUS
10
0.2236218110236221
20
-0.1680025590551181
11
0.2234970866141732
21
-0.1675891732283465
0
LINE
8
BLACK
6
CONTINUOUS
10
0.2234970866141732
20
-0.1675891732283465
11
0.223331968503937
21
-0.1671905511811023
0
LINE
8
BLACK
6
CONTINUOUS
10
0.223331968503937
20
-0.1671905511811023
11
0.223331968503937
21
-0.1670418897637795
0
LINE
8
BLACK
6
CONTINUOUS
10
0.223331968503937
20
-0.1670418897637795
11
0.2232890157480315
21
-0.1668995669291339
0
LINE
8
BLACK
6
CONTINUOUS
10
0.2232890157480315
20
-0.1668995669291339
11
0.2232898818897638
21
-0.1663207086614173
0
LINE
8
BLACK
6
CONTINUOUS
10
0.2232898818897638
20
-0.1663207086614173
11
0.2251646456692913
21
-0.1475730708661417
0
LINE
8
BLACK
6
CONTINUOUS
10
0.2251646456692913
20
-0.1475730708661417
11
0.2252067322834646
21
-0.1473631102362205
0
LINE
8
BLACK
6
CONTINUOUS
10
0.2252067322834646
20
-0.1473631102362205
11
0.2252067322834646
21
-0.1472908267716535
0
LINE
8
BLACK
6
CONTINUOUS
10
0.2252067322834646
20
-0.1472908267716535
11
0.2252348031496063
21
-0.1472229921259842
0
LINE
8
BLACK
6
CONTINUOUS
10
0.2252348031496063
20
-0.1472229921259842
11
0.2252784251968504
21
-0.1470055118110236
0
LINE
8
BLACK
6
CONTINUOUS
10
0.2252784251968504
20
-0.1470055118110236
11
0.2254824409448819
21
-0.1466251968503937
0
LINE
8
BLACK
6
CONTINUOUS
10
0.2254824409448819
20
-0.1466251968503937
11
0.2256476377952756
21
-0.1462264173228346
0
LINE
8
BLACK
6
CONTINUOUS
10
0.2256476377952756
20
-0.1462264173228346
11
0.2257527952755906
21
-0.1461212204724409
0
LINE
8
BLACK
6
CONTINUOUS
10
0.2257527952755906
20
-0.1461212204724409
11
0.2258230708661417
21
-0.1459902755905512
0
LINE
8
BLACK
6
CONTINUOUS
10
0.2258230708661417
20
-0.1459902755905512
11
0.2261570078740157
21
-0.1457170078740158
0
LINE
8
BLACK
6
CONTINUOUS
10
0.2261570078740157
20
-0.1457170078740158
11
0.2264622834645669
21
-0.1454117716535433
0
LINE
8
BLACK
6
CONTINUOUS
10
0.2264622834645669
20
-0.1454117716535433
11
0.2265996062992126
21
-0.145354842519685
0
LINE
8
BLACK
6
CONTINUOUS
10
0.2265996062992126
20
-0.145354842519685
11
0.2267147244094488
21
-0.1452607086614173
0
LINE
8
BLACK
6
CONTINUOUS
10
0.2267147244094488
20
-0.1452607086614173
11
0.2271279921259843
21
-0.1451359842519685
0
LINE
8
BLACK
6
CONTINUOUS
10
0.2271279921259843
20
-0.1451359842519685
11
0.2275266929133858
21
-0.1449708661417323
0
LINE
8
BLACK
6
CONTINUOUS
10
0.2275266929133858
20
-0.1449708661417323
11
0.2277473622047244
21
-0.144949094488189
0
LINE
8
BLACK
6
CONTINUOUS
10
0.2277473622047244
20
-0.144949094488189
11
0.2278177165354331
21
-0.1449279133858268
0
LINE
8
BLACK
6
CONTINUOUS
10
0.2278177165354331
20
-0.1449279133858268
11
0.2278896850393701
21
-0.1449350787401575
0
LINE
8
BLACK
6
CONTINUOUS
10
0.2278896850393701
20
-0.1449350787401575
11
0.2281027559055118
21
-0.1449141338582677
0
LINE
8
BLACK
6
CONTINUOUS
10
0.2281027559055118
20
-0.1449141338582677
11
0.2468503937007874
21
-0.1449141338582677
0
LINE
8
BLACK
6
CONTINUOUS
10
0.2468503937007874
20
-0.1449141338582677
11
0.2474264566929134
21
-0.1449708661417323
0
LINE
8
BLACK
6
CONTINUOUS
10
0.3074189763779527
20
-0.1580942125984252
11
0.307516968503937
21
-0.1581348031496063
0
LINE
8
BLACK
6
CONTINUOUS
10
0.307516968503937
20
-0.1581348031496063
11
0.3076227952755906
21
-0.1581423228346457
0
LINE
8
BLACK
6
CONTINUOUS
10
0.3076227952755906
20
-0.1581423228346457
11
0.3081634251968504
21
-0.1583492125984252
0
LINE
8
BLACK
6
CONTINUOUS
10
0.3081634251968504
20
-0.1583492125984252
11
0.3119129527559055
21
-0.1602239763779527
0
LINE
8
BLACK
6
CONTINUOUS
10
0.3119129527559055
20
-0.1602239763779527
11
0.3120092913385827
21
-0.1602846062992126
0
LINE
8
BLACK
6
CONTINUOUS
10
0.3120092913385827
20
-0.1602846062992126
11
0.3120547244094488
21
-0.1602997637795276
0
LINE
8
BLACK
6
CONTINUOUS
10
0.3120547244094488
20
-0.1602997637795276
11
0.3121112598425197
21
-0.160348779527559
0
LINE
8
BLACK
6
CONTINUOUS
10
0.3121112598425197
20
-0.160348779527559
11
0.3124028346456693
21
-0.1605323228346457
0
LINE
8
BLACK
6
CONTINUOUS
10
0.3124028346456693
20
-0.1605323228346457
11
0.3124672047244094
21
-0.1606065354330709
0
LINE
8
BLACK
6
CONTINUOUS
10
0.3124672047244094
20
-0.1606065354330709
11
0.3125315748031496
21
-0.1605323228346457
0
LINE
8
BLACK
6
CONTINUOUS
10
0.3125315748031496
20
-0.1605323228346457
11
0.3128231102362204
21
-0.160348779527559
0
LINE
8
BLACK
6
CONTINUOUS
10
0.3128231102362204
20
-0.160348779527559
11
0.3128796850393701
21
-0.1602997637795276
0
LINE
8
BLACK
6
CONTINUOUS
10
0.3128796850393701
20
-0.1602997637795276
11
0.3129250787401575
21
-0.1602846062992126
0
LINE
8
BLACK
6
CONTINUOUS
10
0.3129250787401575
20
-0.1602846062992126
11
0.3130214566929134
21
-0.1602239763779527
0
LINE
8
BLACK
6
CONTINUOUS
10
0.3130214566929134
20
-0.1602239763779527
11
0.3167709842519685
21
-0.1583492125984252
0
LINE
8
BLACK
6
CONTINUOUS
10
0.3167709842519685
20
-0.1583492125984252
11
0.3173115748031496
21
-0.1581423228346457
0
LINE
8
BLACK
6
CONTINUOUS
10
0.3173115748031496
20
-0.1581423228346457
11
0.3174174409448819
21
-0.1581347637795276
0
LINE
8
BLACK
6
CONTINUOUS
10
0.3174174409448819
20
-0.1581347637795276
11
0.3175154330708662
21
-0.1580942125984252
0
LINE
8
BLACK
6
CONTINUOUS
10
0.3175154330708662
20
-0.1580942125984252
11
0.3180914960629921
21
-0.1580374803149606
0
LINE
8
BLACK
6
CONTINUOUS
10
0.3180914960629921
20
-0.1580374803149606
11
0.3237157874015748
21
-0.1580374803149606
0
LINE
8
BLACK
6
CONTINUOUS
10
0.3237157874015748
20
-0.1580374803149606
11
0.3242918503937008
21
-0.1580942125984252
0
LINE
8
BLACK
6
CONTINUOUS
10
0.3242918503937008
20
-0.1580942125984252
11
0.3243898425196851
21
-0.1581348031496063
0
LINE
8
BLACK
6
CONTINUOUS
10
0.3243898425196851
20
-0.1581348031496063
11
0.3244956692913386
21
-0.1581423228346457
0
LINE
8
BLACK
6
CONTINUOUS
10
0.3244956692913386
20
-0.1581423228346457
11
0.3250362992125984
21
-0.1583492125984252
0
LINE
8
BLACK
6
CONTINUOUS
10
0.3250362992125984
20
-0.1583492125984252
11
0.3287858661417323
21
-0.1602239763779527
0
LINE
8
BLACK
6
CONTINUOUS
10
0.3287858661417323
20
-0.1602239763779527
11
0.3288821653543307
21
-0.1602846062992126
0
LINE
8
BLACK
6
CONTINUOUS
10
0.3288821653543307
20
-0.1602846062992126
11
0.3289276377952756
21
-0.1602997637795276
0
LINE
8
BLACK
6
CONTINUOUS
10
0.3289276377952756
20
-0.1602997637795276
11
0.3289842125984252
21
-0.1603488188976378
0
LINE
8
BLACK
6
CONTINUOUS
10
0.3289842125984252
20
-0.1603488188976378
11
0.3292757086614173
21
-0.1605323228346457
0
LINE
8
BLACK
6
CONTINUOUS
10
0.3292757086614173
20
-0.1605323228346457
11
0.329518188976378
21
-0.1608119291338583
0
LINE
8
BLACK
6
CONTINUOUS
10
0.329518188976378
20
-0.1608119291338583
11
0.329798031496063
21
-0.1610546062992126
0
LINE
8
BLACK
6
CONTINUOUS
10
0.329798031496063
20
-0.1610546062992126
11
0.3299815354330708
21
-0.1613461417322835
0
LINE
8
BLACK
6
CONTINUOUS
10
0.3299815354330708
20
-0.1613461417322835
11
0.3300305905511811
21
-0.1614027165354331
0
LINE
8
BLACK
6
CONTINUOUS
10
0.3300305905511811
20
-0.1614027165354331
11
0.3300457086614173
21
-0.1614481102362205
0
LINE
8
BLACK
6
CONTINUOUS
10
0.3300457086614173
20
-0.1614481102362205
11
0.3301063779527559
21
-0.1615444881889764
0
LINE
8
BLACK
6
CONTINUOUS
10
0.3301063779527559
20
-0.1615444881889764
11
0.3319811417322834
21
-0.1652940157480315
0
LINE
8
BLACK
6
CONTINUOUS
10
0.3319811417322834
20
-0.1652940157480315
11
0.332188031496063
21
-0.1658346062992126
0
LINE
8
BLACK
6
CONTINUOUS
10
0.332188031496063
20
-0.1658346062992126
11
0.3321955511811023
21
-0.1659404724409449
0
LINE
8
BLACK
6
CONTINUOUS
10
0.3321955511811023
20
-0.1659404724409449
11
0.3322361417322834
21
-0.1660384645669291
0
LINE
8
BLACK
6
CONTINUOUS
10
0.3322361417322834
20
-0.1660384645669291
11
0.332292874015748
21
-0.1666145275590551
0
LINE
8
BLACK
6
CONTINUOUS
10
0.332292874015748
20
-0.1666145275590551
11
0.332292874015748
21
-0.187236968503937
0
LINE
8
BLACK
6
CONTINUOUS
10
0.332292874015748
20
-0.187236968503937
11
0.3322361417322834
21
-0.187813031496063
0
LINE
8
BLACK
6
CONTINUOUS
10
0.3322361417322834
20
-0.187813031496063
11
0.3317952362204724
21
-0.1888774409448819
0
LINE
8
BLACK
6
CONTINUOUS
10
0.3317952362204724
20
-0.1888774409448819
11
0.3309805905511811
21
-0.1896920866141732
0
LINE
8
BLACK
6
CONTINUOUS
10
0.3309805905511811
20
-0.1896920866141732
11
0.3299161811023622
21
-0.1901329921259843
0
LINE
8
BLACK
6
CONTINUOUS
10
0.3299161811023622
20
-0.1901329921259843
11
0.3287640551181102
21
-0.1901329921259843
0
LINE
8
BLACK
6
CONTINUOUS
10
0.3287640551181102
20
-0.1901329921259843
11
0.3276996456692913
21
-0.1896920866141732
0
LINE
8
BLACK
6
CONTINUOUS
10
0.3276996456692913
20
-0.1896920866141732
11
0.326885
21
-0.1888774409448819
0
LINE
8
BLACK
6
CONTINUOUS
10
0.326885
20
-0.1888774409448819
11
0.326444094488189
21
-0.187813031496063
0
LINE
8
BLACK
6
CONTINUOUS
10
0.326444094488189
20
-0.187813031496063
11
0.3263873622047244
21
-0.187236968503937
0
LINE
8
BLACK
6
CONTINUOUS
10
0.3263873622047244
20
-0.187236968503937
11
0.3263873622047244
21
-0.1673115748031496
0
LINE
8
BLACK
6
CONTINUOUS
10
0.3263873622047244
20
-0.1673115748031496
11
0.3252644881889764
21
-0.1650658267716535
0
LINE
8
BLACK
6
CONTINUOUS
10
0.3252644881889764
20
-0.1650658267716535
11
0.3230187401574803
21
-0.1639429921259843
0
LINE
8
BLACK
6
CONTINUOUS
10
0.3230187401574803
20
-0.1639429921259843
11
0.3187885433070866
21
-0.1639429921259843
0
LINE
8
BLACK
6
CONTINUOUS
10
0.3187885433070866
20
-0.1639429921259843
11
0.3165427952755905
21
-0.1650658267716535
0
LINE
8
BLACK
6
CONTINUOUS
10
0.3165427952755905
20
-0.1650658267716535
11
0.3154199606299212
21
-0.1673115748031496
0
LINE
8
BLACK
6
CONTINUOUS
10
0.3154199606299212
20
-0.1673115748031496
11
0.3154199606299212
21
-0.187236968503937
0
LINE
8
BLACK
6
CONTINUOUS
10
0.3154199606299212
20
-0.187236968503937
11
0.3153632283464567
21
-0.187813031496063
0
LINE
8
BLACK
6
CONTINUOUS
10
0.3153632283464567
20
-0.187813031496063
11
0.3149223228346457
21
-0.1888774409448819
0
LINE
8
BLACK
6
CONTINUOUS
10
0.3149223228346457
20
-0.1888774409448819
11
0.3141076771653543
21
-0.1896920866141732
0
LINE
8
BLACK
6
CONTINUOUS
10
0.3141076771653543
20
-0.1896920866141732
11
0.3130432677165354
21
-0.1901329921259843
0
LINE
8
BLACK
6
CONTINUOUS
10
0.3130432677165354
20
-0.1901329921259843
11
0.3118911417322834
21
-0.1901329921259843
0
LINE
8
BLACK
6
CONTINUOUS
10
0.3118911417322834
20
-0.1901329921259843
11
0.3108267322834646
21
-0.1896920866141732
0
LINE
8
BLACK
6
CONTINUOUS
10
0.3108267322834646
20
-0.1896920866141732
11
0.3100120866141732
21
-0.1888774409448819
0
LINE
8
BLACK
6
CONTINUOUS
10
0.3100120866141732
20
-0.1888774409448819
11
0.3095711811023622
21
-0.187813031496063
0
LINE
8
BLACK
6
CONTINUOUS
10
0.3095711811023622
20
-0.187813031496063
11
0.3095144488188976
21
-0.187236968503937
0
LINE
8
BLACK
6
CONTINUOUS
10
0.3095144488188976
20
-0.187236968503937
11
0.3095144488188976
21
-0.1673115748031496
0
LINE
8
BLACK
6
CONTINUOUS
10
0.3095144488188976
20
-0.1673115748031496
11
0.3083915748031496
21
-0.1650658267716535
0
LINE
8
BLACK
6
CONTINUOUS
10
0.3083915748031496
20
-0.1650658267716535
11
0.3061458661417323
21
-0.1639429921259843
0
LINE
8
BLACK
6
CONTINUOUS
10
0.3061458661417323
20
-0.1639429921259843
11
0.3019156692913386
21
-0.1639429921259843
0
LINE
8
BLACK
6
CONTINUOUS
10
0.3019156692913386
20
-0.1639429921259843
11
0.2992181889763779
21
-0.1652917322834646
0
LINE
8
BLACK
6
CONTINUOUS
10
0.2992181889763779
20
-0.1652917322834646
11
0.2985470866141732
21
-0.1659628346456693
0
LINE
8
BLACK
6
CONTINUOUS
10
0.2985470866141732
20
-0.1659628346456693
11
0.2985470866141732
21
-0.187236968503937
0
LINE
8
BLACK
6
CONTINUOUS
10
0.2985470866141732
20
-0.187236968503937
11
0.2984903543307086
21
-0.187813031496063
0
LINE
8
BLACK
6
CONTINUOUS
10
0.2984903543307086
20
-0.187813031496063
11
0.2980494488188976
21
-0.1888774409448819
0
LINE
8
BLACK
6
CONTINUOUS
10
0.2980494488188976
20
-0.1888774409448819
11
0.2972348031496063
21
-0.1896920866141732
0
LINE
8
BLACK
6
CONTINUOUS
10
0.2972348031496063
20
-0.1896920866141732
11
0.2961703937007874
21
-0.1901329921259843
0
LINE
8
BLACK
6
CONTINUOUS
10
0.2961703937007874
20
-0.1901329921259843
11
0.2950182677165354
21
-0.1901329921259843
0
LINE
8
BLACK
6
CONTINUOUS
10
0.2950182677165354
20
-0.1901329921259843
11
0.2939538582677165
21
-0.1896920866141732
0
LINE
8
BLACK
6
CONTINUOUS
10
0.2939538582677165
20
-0.1896920866141732
11
0.2931392125984252
21
-0.1888774409448819
0
LINE
8
BLACK
6
CONTINUOUS
10
0.2931392125984252
20
-0.1888774409448819
11
0.2926983070866142
21
-0.187813031496063
0
LINE
8
BLACK
6
CONTINUOUS
10
0.2926983070866142
20
-0.187813031496063
11
0.2926415748031496
21
-0.187236968503937
0
LINE
8
BLACK
6
CONTINUOUS
10
0.2926415748031496
20
-0.187236968503937
11
0.2926415748031496
21
-0.1609902362204724
0
LINE
8
BLACK
6
CONTINUOUS
10
0.2926415748031496
20
-0.1609902362204724
11
0.2926983070866142
21
-0.1604141732283464
0
LINE
8
BLACK
6
CONTINUOUS
10
0.2926983070866142
20
-0.1604141732283464
11
0.2931392125984252
21
-0.1593497637795276
0
LINE
8
BLACK
6
CONTINUOUS
10
0.2931392125984252
20
-0.1593497637795276
11
0.2939538582677165
21
-0.1585351181102362
0
LINE
8
BLACK
6
CONTINUOUS
10
0.2939538582677165
20
-0.1585351181102362
11
0.2950182677165354
21
-0.1580942125984252
0
LINE
8
BLACK
6
CONTINUOUS
10
0.2950182677165354
20
-0.1580942125984252
11
0.2961703937007874
21
-0.1580942125984252
0
LINE
8
BLACK
6
CONTINUOUS
10
0.2961703937007874
20
-0.1580942125984252
11
0.2972348031496063
21
-0.1585351181102362
0
LINE
8
BLACK
6
CONTINUOUS
10
0.2972348031496063
20
-0.1585351181102362
11
0.2979986220472441
21
-0.159298937007874
0
LINE
8
BLACK
6
CONTINUOUS
10
0.2979986220472441
20
-0.159298937007874
11
0.2998981102362205
21
-0.1583492125984252
0
LINE
8
BLACK
6
CONTINUOUS
10
0.2998981102362205
20
-0.1583492125984252
11
0.3004387007874016
21
-0.1581423228346457
0
LINE
8
BLACK
6
CONTINUOUS
10
0.3004387007874016
20
-0.1581423228346457
11
0.3005445669291338
21
-0.1581347637795276
0
LINE
8
BLACK
6
CONTINUOUS
10
0.3005445669291338
20
-0.1581347637795276
11
0.3006425590551181
21
-0.1580942125984252
0
LINE
8
BLACK
6
CONTINUOUS
10
0.3006425590551181
20
-0.1580942125984252
11
0.3012186220472441
21
-0.1580374803149606
0
LINE
8
BLACK
6
CONTINUOUS
10
0.3012186220472441
20
-0.1580374803149606
11
0.3068429133858268
21
-0.1580374803149606
0
LINE
8
BLACK
6
CONTINUOUS
10
0.3068429133858268
20
-0.1580374803149606
11
0.3074189763779527
21
-0.1580942125984252
0
LINE
8
BLACK
6
CONTINUOUS
10
0.3599124015748031
20
-0.1580942125984252
11
0.3600103937007874
21
-0.1581348031496063
0
LINE
8
BLACK
6
CONTINUOUS
10
0.3600103937007874
20
-0.1581348031496063
11
0.360116220472441
21
-0.1581423228346457
0
LINE
8
BLACK
6
CONTINUOUS
10
0.360116220472441
20
-0.1581423228346457
11
0.3606568503937008
21
-0.1583492125984252
0
LINE
8
BLACK
6
CONTINUOUS
10
0.3606568503937008
20
-0.1583492125984252
11
0.3644063779527559
21
-0.1602239763779527
0
LINE
8
BLACK
6
CONTINUOUS
10
0.3644063779527559
20
-0.1602239763779527
11
0.364502716535433
21
-0.1602846062992126
0
LINE
8
BLACK
6
CONTINUOUS
10
0.364502716535433
20
-0.1602846062992126
11
0.3645481496062992
21
-0.1602997637795276
0
LINE
8
BLACK
6
CONTINUOUS
10
0.3645481496062992
20
-0.1602997637795276
11
0.36460468503937
21
-0.160348779527559
0
LINE
8
BLACK
6
CONTINUOUS
10
0.36460468503937
20
-0.160348779527559
11
0.3648962598425197
21
-0.1605323228346457
0
LINE
8
BLACK
6
CONTINUOUS
10
0.3648962598425197
20
-0.1605323228346457
11
0.3649606299212598
21
-0.1606065354330709
0
LINE
8
BLACK
6
CONTINUOUS
10
0.3649606299212598
20
-0.1606065354330709
11
0.365025
21
-0.1605323228346457
0
LINE
8
BLACK
6
CONTINUOUS
10
0.365025
20
-0.1605323228346457
11
0.3653165354330709
21
-0.160348779527559
0
LINE
8
BLACK
6
CONTINUOUS
10
0.3653165354330709
20
-0.160348779527559
11
0.3653731102362205
21
-0.1602997637795276
0
LINE
8
BLACK
6
CONTINUOUS
10
0.3653731102362205
20
-0.1602997637795276
11
0.3654185039370079
21
-0.1602846062992126
0
LINE
8
BLACK
6
CONTINUOUS
10
0.3654185039370079
20
-0.1602846062992126
11
0.3655148818897638
21
-0.1602239763779527
0
LINE
8
BLACK
6
CONTINUOUS
10
0.3655148818897638
20
-0.1602239763779527
11
0.3692644094488189
21
-0.1583492125984252
0
LINE
8
BLACK
6
CONTINUOUS
10
0.3692644094488189
20
-0.1583492125984252
11
0.369805
21
-0.1581423228346457
0
LINE
8
BLACK
6
CONTINUOUS
10
0.369805
20
-0.1581423228346457
11
0.3699108661417323
21
-0.1581347637795276
0
LINE
8
BLACK
6
CONTINUOUS
10
0.3699108661417323
20
-0.1581347637795276
11
0.3700088582677165
21
-0.1580942125984252
0
LINE
8
BLACK
6
CONTINUOUS
10
0.3700088582677165
20
-0.1580942125984252
11
0.3705849212598425
21
-0.1580374803149606
0
LINE
8
BLACK
6
CONTINUOUS
10
0.3705849212598425
20
-0.1580374803149606
11
0.3762092125984252
21
-0.1580374803149606
0
LINE
8
BLACK
6
CONTINUOUS
10
0.3762092125984252
20
-0.1580374803149606
11
0.3767852755905512
21
-0.1580942125984252
0
LINE
8
BLACK
6
CONTINUOUS
10
0.3767852755905512
20
-0.1580942125984252
11
0.3768832677165354
21
-0.1581348031496063
0
LINE
8
BLACK
6
CONTINUOUS
10
0.3768832677165354
20
-0.1581348031496063
11
0.376989094488189
21
-0.1581423228346457
0
LINE
8
BLACK
6
CONTINUOUS
10
0.376989094488189
20
-0.1581423228346457
11
0.3775297244094488
21
-0.1583492125984252
0
LINE
8
BLACK
6
CONTINUOUS
10
0.3775297244094488
20
-0.1583492125984252
11
0.3812792913385827
21
-0.1602239763779527
0
LINE
8
BLACK
6
CONTINUOUS
10
0.3812792913385827
20
-0.1602239763779527
11
0.3813755905511811
21
-0.1602846062992126
0
LINE
8
BLACK
6
CONTINUOUS
10
0.3813755905511811
20
-0.1602846062992126
11
0.381421062992126
21
-0.1602997637795276
0
LINE
8
BLACK
6
CONTINUOUS
10
0.381421062992126
20
-0.1602997637795276
11
0.3814776377952756
21
-0.1603488188976378
0
LINE
8
BLACK
6
CONTINUOUS
10
0.3814776377952756
20
-0.1603488188976378
11
0.3817691338582677
21
-0.1605323228346457
0
LINE
8
BLACK
6
CONTINUOUS
10
0.3817691338582677
20
-0.1605323228346457
11
0.3820116141732283
21
-0.1608119291338583
0
LINE
8
BLACK
6
CONTINUOUS
10
0.3820116141732283
20
-0.1608119291338583
11
0.3822914566929134
21
-0.1610546062992126
0
LINE
8
BLACK
6
CONTINUOUS
10
0.3822914566929134
20
-0.1610546062992126
11
0.3824749606299213
21
-0.1613461417322835
0
LINE
8
BLACK
6
CONTINUOUS
10
0.3824749606299213
20
-0.1613461417322835
11
0.3825240157480315
21
-0.1614027165354331
0
LINE
8
BLACK
6
CONTINUOUS
10
0.3825240157480315
20
-0.1614027165354331
11
0.3825391338582677
21
-0.1614481102362205
0
LINE
8
BLACK
6
CONTINUOUS
10
0.3825391338582677
20
-0.1614481102362205
11
0.3825998031496063
21
-0.1615444881889764
0
LINE
8
BLACK
6
CONTINUOUS
10
0.3825998031496063
20
-0.1615444881889764
11
0.3844745669291338
21
-0.1652940157480315
0
LINE
8
BLACK
6
CONTINUOUS
10
0.3844745669291338
20
-0.1652940157480315
11
0.3846814566929134
21
-0.1658346062992126
0
LINE
8
BLACK
6
CONTINUOUS
10
0.3846814566929134
20
-0.1658346062992126
11
0.3846889763779527
21
-0.1659404724409449
0
LINE
8
BLACK
6
CONTINUOUS
10
0.3846889763779527
20
-0.1659404724409449
11
0.3847295669291338
21
-0.1660384645669291
0
LINE
8
BLACK
6
CONTINUOUS
10
0.3847295669291338
20
-0.1660384645669291
11
0.3847862992125984
21
-0.1666145275590551
0
LINE
8
BLACK
6
CONTINUOUS
10
0.3847862992125984
20
-0.1666145275590551
11
0.3847862992125984
21
-0.187236968503937
0
LINE
8
BLACK
6
CONTINUOUS
10
0.3847862992125984
20
-0.187236968503937
11
0.3847295669291338
21
-0.187813031496063
0
LINE
8
BLACK
6
CONTINUOUS
10
0.3847295669291338
20
-0.187813031496063
11
0.3842886614173228
21
-0.1888774409448819
0
LINE
8
BLACK
6
CONTINUOUS
10
0.3842886614173228
20
-0.1888774409448819
11
0.3834740157480315
21
-0.1896920866141732
0
LINE
8
BLACK
6
CONTINUOUS
10
0.3834740157480315
20
-0.1896920866141732
11
0.3824096062992126
21
-0.1901329921259843
0
LINE
8
BLACK
6
CONTINUOUS
10
0.3824096062992126
20
-0.1901329921259843
11
0.3812574803149606
21
-0.1901329921259843
0
LINE
8
BLACK
6
CONTINUOUS
10
0.3812574803149606
20
-0.1901329921259843
11
0.3801930708661417
21
-0.1896920866141732
0
LINE
8
BLACK
6
CONTINUOUS
10
0.3801930708661417
20
-0.1896920866141732
11
0.3793784251968504
21
-0.1888774409448819
0
LINE
8
BLACK
6
CONTINUOUS
10
0.3793784251968504
20
-0.1888774409448819
11
0.3789375196850394
21
-0.187813031496063
0
LINE
8
BLACK
6
CONTINUOUS
10
0.3789375196850394
20
-0.187813031496063
11
0.3788807874015748
21
-0.187236968503937
0
LINE
8
BLACK
6
CONTINUOUS
10
0.3788807874015748
20
-0.187236968503937
11
0.3788807874015748
21
-0.1673115748031496
0
LINE
8
BLACK
6
CONTINUOUS
10
0.3788807874015748
20
-0.1673115748031496
11
0.3777579133858268
21
-0.1650658267716535
0
LINE
8
BLACK
6
CONTINUOUS
10
0.3777579133858268
20
-0.1650658267716535
11
0.3755121653543307
21
-0.1639429921259843
0
LINE
8
BLACK
6
CONTINUOUS
10
0.3755121653543307
20
-0.1639429921259843
11
0.371281968503937
21
-0.1639429921259843
0
LINE
8
BLACK
6
CONTINUOUS
10
0.371281968503937
20
-0.1639429921259843
11
0.3690362204724409
21
-0.1650658267716535
0
LINE
8
BLACK
6
CONTINUOUS
10
0.3690362204724409
20
-0.1650658267716535
11
0.3679133858267716
21
-0.1673115748031496
0
LINE
8
BLACK
6
CONTINUOUS
10
0.3679133858267716
20
-0.1673115748031496
11
0.3679133858267716
21
-0.187236968503937
0
LINE
8
BLACK
6
CONTINUOUS
10
0.3679133858267716
20
-0.187236968503937
11
0.3678566535433071
21
-0.187813031496063
0
LINE
8
BLACK
6
CONTINUOUS
10
0.3678566535433071
20
-0.187813031496063
11
0.3674157480314961
21
-0.1888774409448819
0
LINE
8
BLACK
6
CONTINUOUS
10
0.3674157480314961
20
-0.1888774409448819
11
0.3666011023622047
21
-0.1896920866141732
0
LINE
8
BLACK
6
CONTINUOUS
10
0.3666011023622047
20
-0.1896920866141732
11
0.3655366929133858
21
-0.1901329921259843
0
LINE
8
BLACK
6
CONTINUOUS
10
0.3655366929133858
20
-0.1901329921259843
11
0.3643845669291338
21
-0.1901329921259843
0
LINE
8
BLACK
6
CONTINUOUS
10
0.3643845669291338
20
-0.1901329921259843
11
0.3633201574803149
21
-0.1896920866141732
0
LINE
8
BLACK
6
CONTINUOUS
10
0.3633201574803149
20
-0.1896920866141732
11
0.3625055118110236
21
-0.1888774409448819
0
LINE
8
BLACK
6
CONTINUOUS
10
0.3625055118110236
20
-0.1888774409448819
11
0.3620646062992126
21
-0.187813031496063
0
LINE
8
BLACK
6
CONTINUOUS
10
0.3620646062992126
20
-0.187813031496063
11
0.362007874015748
21
-0.187236968503937
0
LINE
8
BLACK
6
CONTINUOUS
10
0.362007874015748
20
-0.187236968503937
11
0.362007874015748
21
-0.1673115748031496
0
LINE
8
BLACK
6
CONTINUOUS
10
0.362007874015748
20
-0.1673115748031496
11
0.360885
21
-0.1650658267716535
0
LINE
8
BLACK
6
CONTINUOUS
10
0.360885
20
-0.1650658267716535
11
0.3586392913385827
21
-0.1639429921259843
0
LINE
8
BLACK
6
CONTINUOUS
10
0.3586392913385827
20
-0.1639429921259843
11
0.354409094488189
21
-0.1639429921259843
0
LINE
8
BLACK
6
CONTINUOUS
10
0.354409094488189
20
-0.1639429921259843
11
0.3517116141732283
21
-0.1652917322834646
0
LINE
8
BLACK
6
CONTINUOUS
10
0.3517116141732283
20
-0.1652917322834646
11
0.3510405118110236
21
-0.1659628346456693
0
LINE
8
BLACK
6
CONTINUOUS
10
0.3510405118110236
20
-0.1659628346456693
11
0.3510405118110236
21
-0.187236968503937
0
LINE
8
BLACK
6
CONTINUOUS
10
0.3510405118110236
20
-0.187236968503937
11
0.350983779527559
21
-0.187813031496063
0
LINE
8
BLACK
6
CONTINUOUS
10
0.350983779527559
20
-0.187813031496063
11
0.350542874015748
21
-0.1888774409448819
0
LINE
8
BLACK
6
CONTINUOUS
10
0.350542874015748
20
-0.1888774409448819
11
0.3497282283464567
21
-0.1896920866141732
0
LINE
8
BLACK
6
CONTINUOUS
10
0.3497282283464567
20
-0.1896920866141732
11
0.3486638188976378
21
-0.1901329921259843
0
LINE
8
BLACK
6
CONTINUOUS
10
0.3486638188976378
20
-0.1901329921259843
11
0.3475116929133858
21
-0.1901329921259843
0
LINE
8
BLACK
6
CONTINUOUS
10
0.3475116929133858
20
-0.1901329921259843
11
0.3464472834645669
21
-0.1896920866141732
0
LINE
8
BLACK
6
CONTINUOUS
10
0.3464472834645669
20
-0.1896920866141732
11
0.3456326377952756
21
-0.1888774409448819
0
LINE
8
BLACK
6
CONTINUOUS
10
0.3456326377952756
20
-0.1888774409448819
11
0.3451917322834646
21
-0.187813031496063
0
LINE
8
BLACK
6
CONTINUOUS
10
0.3451917322834646
20
-0.187813031496063
11
0.345135
21
-0.187236968503937
0
LINE
8
BLACK
6
CONTINUOUS
10
0.345135
20
-0.187236968503937
11
0.345135
21
-0.1609902362204724
0
LINE
8
BLACK
6
CONTINUOUS
10
0.345135
20
-0.1609902362204724
11
0.3451917322834646
21
-0.1604141732283464
0
LINE
8
BLACK
6
CONTINUOUS
10
0.3451917322834646
20
-0.1604141732283464
11
0.3456326377952756
21
-0.1593497637795276
0
LINE
8
BLACK
6
CONTINUOUS
10
0.3456326377952756
20
-0.1593497637795276
11
0.3464472834645669
21
-0.1585351181102362
0
LINE
8
BLACK
6
CONTINUOUS
10
0.3464472834645669
20
-0.1585351181102362
11
0.3475116929133858
21
-0.1580942125984252
0
LINE
8
BLACK
6
CONTINUOUS
10
0.3475116929133858
20
-0.1580942125984252
11
0.3486638188976378
21
-0.1580942125984252
0
LINE
8
BLACK
6
CONTINUOUS
10
0.3486638188976378
20
-0.1580942125984252
11
0.3497282283464567
21
-0.1585351181102362
0
LINE
8
BLACK
6
CONTINUOUS
10
0.3497282283464567
20
-0.1585351181102362
11
0.3504920472440945
21
-0.159298937007874
0
LINE
8
BLACK
6
CONTINUOUS
10
0.3504920472440945
20
-0.159298937007874
11
0.3523915354330708
21
-0.1583492125984252
0
LINE
8
BLACK
6
CONTINUOUS
10
0.3523915354330708
20
-0.1583492125984252
11
0.3529321259842519
21
-0.1581423228346457
0
LINE
8
BLACK
6
CONTINUOUS
10
0.3529321259842519
20
-0.1581423228346457
11
0.3530379921259842
21
-0.1581347637795276
0
LINE
8
BLACK
6
CONTINUOUS
10
0.3530379921259842
20
-0.1581347637795276
11
0.3531359842519685
21
-0.1580942125984252
0
LINE
8
BLACK
6
CONTINUOUS
10
0.3531359842519685
20
-0.1580942125984252
11
0.3537120472440945
21
-0.1580374803149606
0
LINE
8
BLACK
6
CONTINUOUS
10
0.3537120472440945
20
-0.1580374803149606
11
0.3593363385826772
21
-0.1580374803149606
0
LINE
8
BLACK
6
CONTINUOUS
10
0.3593363385826772
20
-0.1580374803149606
11
0.3599124015748031
21
-0.1580942125984252
0
LINE
8
BLACK
6
CONTINUOUS
10
0.9053761417322834
20
0.8848895275590551
11
0.9064414960629921
21
0.8838241732283464
0
LINE
8
BLACK
6
CONTINUOUS
10
0.9064414960629921
20
0.8838241732283464
11
0.9064414960629921
21
0.8823175590551181
0
LINE
8
BLACK
6
CONTINUOUS
10
0.9064414960629921
20
0.8823175590551181
11
0.9053761417322834
21
0.8812522047244095
0
LINE
8
BLACK
6
CONTINUOUS
10
0.9053761417322834
20
0.8812522047244095
11
0.9046228346456693
21
0.8811023622047244
0
LINE
8
BLACK
6
CONTINUOUS
10
0.9046228346456693
20
0.8811023622047244
11
0.8847794488188976
21
0.8811023622047244
0
LINE
8
BLACK
6
CONTINUOUS
10
0.8847794488188976
20
0.8811023622047244
11
0.906368937007874
21
0.8396292913385827
0
LINE
8
BLACK
6
CONTINUOUS
10
0.906368937007874
20
0.8396292913385827
11
0.9065838976377952
21
0.8388918897637795
0
LINE
8
BLACK
6
CONTINUOUS
10
0.9065838976377952
20
0.8388918897637795
11
0.9061308267716536
21
0.8374549999999999
0
LINE
8
BLACK
6
CONTINUOUS
10
0.9061308267716536
20
0.8374549999999999
11
0.9047944488188976
21
0.8367593307086614
0
LINE
8
BLACK
6
CONTINUOUS
10
0.9047944488188976
20
0.8367593307086614
11
0.9033575196850393
21
0.8372123622047244
0
LINE
8
BLACK
6
CONTINUOUS
10
0.9033575196850393
20
0.8372123622047244
11
0.9028767716535433
21
0.8378113779527558
0
LINE
8
BLACK
6
CONTINUOUS
10
0.9028767716535433
20
0.8378113779527558
11
0.883503937007874
21
0.8750262598425197
0
LINE
8
BLACK
6
CONTINUOUS
10
0.883503937007874
20
0.8750262598425197
11
0.883503937007874
21
-0.0143962992125984
0
LINE
8
BLACK
6
CONTINUOUS
10
0.883503937007874
20
-0.0143962992125984
11
0.9028767716535433
21
0.0228185433070866
0
LINE
8
BLACK
6
CONTINUOUS
10
0.9028767716535433
20
0.0228185433070866
11
0.9033575196850393
21
0.0234175590551181
0
LINE
8
BLACK
6
CONTINUOUS
10
0.9033575196850393
20
0.0234175590551181
11
0.9047944488188976
21
0.0238705905511811
0
LINE
8
BLACK
6
CONTINUOUS
10
0.9047944488188976
20
0.0238705905511811
11
0.9061308267716536
21
0.0231749212598425
0
LINE
8
BLACK
6
CONTINUOUS
10
0.9061308267716536
20
0.0231749212598425
11
0.9065838976377952
21
0.021738031496063
0
LINE
8
BLACK
6
CONTINUOUS
10
0.9065838976377952
20
0.021738031496063
11
0.906368937007874
21
0.0210006299212598
0
LINE
8
BLACK
6
CONTINUOUS
10
0.906368937007874
20
0.0210006299212598
11
0.8847794488188976
21
-0.0204724409448819
0
LINE
8
BLACK
6
CONTINUOUS
10
0.8847794488188976
20
-0.0204724409448819
11
0.9046228346456693
21
-0.0204724409448819
0
LINE
8
BLACK
6
CONTINUOUS
10
0.9046228346456693
20
-0.0204724409448819
11
0.9053761417322834
21
-0.0206222834645669
0
LINE
8
BLACK
6
CONTINUOUS
10
0.9053761417322834
20
-0.0206222834645669
11
0.9064414960629921
21
-0.0216876377952756
0
LINE
8
BLACK
6
CONTINUOUS
10
0.9064414960629921
20
-0.0216876377952756
11
0.9064414960629921
21
-0.0231942519685039
0
LINE
8
BLACK
6
CONTINUOUS
10
0.9064414960629921
20
-0.0231942519685039
11
0.9053761417322834
21
-0.0242596062992126
0
LINE
8
BLACK
6
CONTINUOUS
10
0.9053761417322834
20
-0.0242596062992126
11
0.9046228346456693
21
-0.0244094488188976
0
LINE
8
BLACK
6
CONTINUOUS
10
0.9046228346456693
20
-0.0244094488188976
11
0.7980314960629921
21
-0.0244094488188976
0
LINE
8
BLACK
6
CONTINUOUS
10
0.7980314960629921
20
-0.0244094488188976
11
0.7972781889763779
21
-0.0242596062992126
0
LINE
8
BLACK
6
CONTINUOUS
10
0.7972781889763779
20
-0.0242596062992126
11
0.7962128346456693
21
-0.0231942519685039
0
LINE
8
BLACK
6
CONTINUOUS
10
0.7962128346456693
20
-0.0231942519685039
11
0.7962128346456693
21
-0.0216876377952756
0
LINE
8
BLACK
6
CONTINUOUS
10
0.7962128346456693
20
-0.0216876377952756
11
0.7972781889763779
21
-0.0206222834645669
0
LINE
8
BLACK
6
CONTINUOUS
10
0.7972781889763779
20
-0.0206222834645669
11
0.7980314960629921
21
-0.0204724409448819
0
LINE
8
BLACK
6
CONTINUOUS
10
0.7980314960629921
20
-0.0204724409448819
11
0.8782914173228347
21
-0.0204724409448819
0
LINE
8
BLACK
6
CONTINUOUS
10
0.8782914173228347
20
-0.0204724409448819
11
0.8567018897637795
21
0.0210006692913386
0
LINE
8
BLACK
6
CONTINUOUS
10
0.8567018897637795
20
0.0210006692913386
11
0.856486968503937
21
0.021738031496063
0
LINE
8
BLACK
6
CONTINUOUS
10
0.856486968503937
20
0.021738031496063
11
0.8569400393700787
21
0.0231749212598425
0
LINE
8
BLACK
6
CONTINUOUS
10
0.8569400393700787
20
0.0231749212598425
11
0.8582764173228347
21
0.0238706299212598
0
LINE
8
BLACK
6
CONTINUOUS
10
0.8582764173228347
20
0.0238706299212598
11
0.8597133070866142
21
0.0234175590551181
0
LINE
8
BLACK
6
CONTINUOUS
10
0.8597133070866142
20
0.0234175590551181
11
0.860194094488189
21
0.0228185433070866
0
LINE
8
BLACK
6
CONTINUOUS
10
0.860194094488189
20
0.0228185433070866
11
0.8795669291338583
21
-0.0143963385826772
0
LINE
8
BLACK
6
CONTINUOUS
10
0.8795669291338583
20
-0.0143963385826772
11
0.8795669291338583
21
0.8750262992125984
0
LINE
8
BLACK
6
CONTINUOUS
10
0.8795669291338583
20
0.8750262992125984
11
0.860194094488189
21
0.8378113779527558
0
LINE
8
BLACK
6
CONTINUOUS
10
0.860194094488189
20
0.8378113779527558
11
0.8597133070866142
21
0.8372123622047244
0
LINE
8
BLACK
6
CONTINUOUS
10
0.8597133070866142
20
0.8372123622047244
11
0.8582764173228347
21
0.8367592913385826
0
LINE
8
BLACK
6
CONTINUOUS
10
0.8582764173228347
20
0.8367592913385826
11
0.8569400393700787
21
0.8374549999999999
0
LINE
8
BLACK
6
CONTINUOUS
10
0.8569400393700787
20
0.8374549999999999
11
0.856486968503937
21
0.8388918897637795
0
LINE
8
BLACK
6
CONTINUOUS
10
0.856486968503937
20
0.8388918897637795
11
0.8567018897637795
21
0.8396292519685039
0
LINE
8
BLACK
6
CONTINUOUS
10
0.8567018897637795
20
0.8396292519685039
11
0.8782914173228347
21
0.8811023622047244
0
LINE
8
BLACK
6
CONTINUOUS
10
0.8782914173228347
20
0.8811023622047244
11
0.7980314960629921
21
0.8811023622047244
0
LINE
8
BLACK
6
CONTINUOUS
10
0.7980314960629921
20
0.8811023622047244
11
0.7972781889763779
21
0.8812522047244095
0
LINE
8
BLACK
6
CONTINUOUS
10
0.7972781889763779
20
0.8812522047244095
11
0.7962128346456693
21
0.8823175590551181
0
LINE
8
BLACK
6
CONTINUOUS
10
0.7962128346456693
20
0.8823175590551181
11
0.7962128346456693
21
0.8838241732283464
0
LINE
8
BLACK
6
CONTINUOUS
10
0.7962128346456693
20
0.8838241732283464
11
0.7972781889763779
21
0.8848895275590551
0
LINE
8
BLACK
6
CONTINUOUS
10
0.7972781889763779
20
0.8848895275590551
11
0.7980314960629921
21
0.8850393700787401
0
LINE
8
BLACK
6
CONTINUOUS
10
0.7980314960629921
20
0.8850393700787401
11
0.9046228346456693
21
0.8850393700787401
0
LINE
8
BLACK
6
CONTINUOUS
10
0.9046228346456693
20
0.8850393700787401
11
0.9053761417322834
21
0.8848895275590551
0
LINE
8
BLACK
6
CONTINUOUS
10
0.8263361417322834
20
0.3582484251968504
11
0.8264138976377953
21
0.358253937007874
0
LINE
8
BLACK
6
CONTINUOUS
10
0.8264138976377953
20
0.358253937007874
11
0.8265161417322835
21
0.3582307086614173
0
LINE
8
BLACK
6
CONTINUOUS
10
0.8265161417322835
20
0.3582307086614173
11
0.8266206692913386
21
0.3582203937007874
0
LINE
8
BLACK
6
CONTINUOUS
10
0.8266206692913386
20
0.3582203937007874
11
0.8266927559055118
21
0.3581905511811024
0
LINE
8
BLACK
6
CONTINUOUS
10
0.8266927559055118
20
0.3581905511811024
11
0.8269783464566929
21
0.3581255905511811
0
LINE
8
BLACK
6
CONTINUOUS
10
0.8269783464566929
20
0.3581255905511811
11
0.8326026377952755
21
0.3562508267716535
0
LINE
8
BLACK
6
CONTINUOUS
10
0.8326026377952755
20
0.3562508267716535
11
0.8331311811023622
21
0.356014842519685
0
LINE
8
BLACK
6
CONTINUOUS
10
0.8331311811023622
20
0.356014842519685
11
0.8332112992125984
21
0.3559453543307087
0
LINE
8
BLACK
6
CONTINUOUS
10
0.8332112992125984
20
0.3559453543307087
11
0.8333093700787402
21
0.3559047244094488
0
LINE
8
BLACK
6
CONTINUOUS
10
0.8333093700787402
20
0.3559047244094488
11
0.833756811023622
21
0.3555375196850394
0
LINE
8
BLACK
6
CONTINUOUS
10
0.833756811023622
20
0.3555375196850394
11
0.8512133464566929
21
0.3380810236220472
0
LINE
8
BLACK
6
CONTINUOUS
10
0.8512133464566929
20
0.3380810236220472
11
0.8512133464566929
21
0.3553243700787401
0
LINE
8
BLACK
6
CONTINUOUS
10
0.8512133464566929
20
0.3553243700787401
11
0.8512700787401575
21
0.3559004330708661
0
LINE
8
BLACK
6
CONTINUOUS
10
0.8512700787401575
20
0.3559004330708661
11
0.8517109842519685
21
0.356964842519685
0
LINE
8
BLACK
6
CONTINUOUS
10
0.8517109842519685
20
0.356964842519685
11
0.8525256299212598
21
0.3577794881889764
0
LINE
8
BLACK
6
CONTINUOUS
10
0.8525256299212598
20
0.3577794881889764
11
0.8535900393700787
21
0.3582203937007874
0
LINE
8
BLACK
6
CONTINUOUS
10
0.8535900393700787
20
0.3582203937007874
11
0.8547421653543307
21
0.3582203937007874
0
LINE
8
BLACK
6
CONTINUOUS
10
0.8547421653543307
20
0.3582203937007874
11
0.8558065748031496
21
0.3577794881889764
0
LINE
8
BLACK
6
CONTINUOUS
10
0.8558065748031496
20
0.3577794881889764
11
0.8566212204724409
21
0.356964842519685
0
LINE
8
BLACK
6
CONTINUOUS
10
0.8566212204724409
20
0.356964842519685
11
0.8570621259842519
21
0.3559004330708661
0
LINE
8
BLACK
6
CONTINUOUS
10
0.8570621259842519
20
0.3559004330708661
11
0.8571188582677165
21
0.3553243700787401
0
LINE
8
BLACK
6
CONTINUOUS
10
0.8571188582677165
20
0.3553243700787401
11
0.8571188582677165
21
0.3309524409448819
0
LINE
8
BLACK
6
CONTINUOUS
10
0.8571188582677165
20
0.3309524409448819
11
0.8570621259842519
21
0.3303763779527559
0
LINE
8
BLACK
6
CONTINUOUS
10
0.8570621259842519
20
0.3303763779527559
11
0.8569329921259843
21
0.3300646456692913
0
LINE
8
BLACK
6
CONTINUOUS
10
0.8569329921259843
20
0.3300646456692913
11
0.8566212598425197
21
0.329311968503937
0
LINE
8
BLACK
6
CONTINUOUS
10
0.8566212598425197
20
0.329311968503937
11
0.8558065748031496
21
0.3284973228346457
0
LINE
8
BLACK
6
CONTINUOUS
10
0.8558065748031496
20
0.3284973228346457
11
0.8547421653543307
21
0.3280564173228346
0
LINE
8
BLACK
6
CONTINUOUS
10
0.8547421653543307
20
0.3280564173228346
11
0.8535900787401575
21
0.3280564173228346
0
LINE
8
BLACK
6
CONTINUOUS
10
0.8535900787401575
20
0.3280564173228346
11
0.8535900393700787
21
0.3280564173228346
0
LINE
8
BLACK
6
CONTINUOUS
10
0.8535900393700787
20
0.3280564173228346
11
0.8532782677165354
21
0.3281855511811024
0
LINE
8
BLACK
6
CONTINUOUS
10
0.8532782677165354
20
0.3281855511811024
11
0.8525256299212598
21
0.3284972834645669
0
LINE
8
BLACK
6
CONTINUOUS
10
0.8525256299212598
20
0.3284972834645669
11
0.8520781889763779
21
0.3288645275590551
0
LINE
8
BLACK
6
CONTINUOUS
10
0.8520781889763779
20
0.3288645275590551
11
0.8300738582677165
21
0.3508688188976378
0
LINE
8
BLACK
6
CONTINUOUS
10
0.8300738582677165
20
0.3508688188976378
11
0.8255654724409449
21
0.3523716141732283
0
LINE
8
BLACK
6
CONTINUOUS
10
0.8255654724409449
20
0.3523716141732283
11
0.822992125984252
21
0.3523716141732283
0
LINE
8
BLACK
6
CONTINUOUS
10
0.822992125984252
20
0.3523716141732283
11
0.8202946456692913
21
0.351022874015748
0
LINE
8
BLACK
6
CONTINUOUS
10
0.8202946456692913
20
0.351022874015748
11
0.8190975196850393
21
0.3498257480314961
0
LINE
8
BLACK
6
CONTINUOUS
10
0.8190975196850393
20
0.3498257480314961
11
0.8177487795275591
21
0.3471282677165354
0
LINE
8
BLACK
6
CONTINUOUS
10
0.8177487795275591
20
0.3471282677165354
11
0.8177487795275591
21
0.3391485433070866
0
LINE
8
BLACK
6
CONTINUOUS
10
0.8177487795275591
20
0.3391485433070866
11
0.8190975196850393
21
0.336451062992126
0
LINE
8
BLACK
6
CONTINUOUS
10
0.8190975196850393
20
0.336451062992126
11
0.8206334645669291
21
0.3349151181102362
0
LINE
8
BLACK
6
CONTINUOUS
10
0.8206334645669291
20
0.3349151181102362
11
0.8210006692913385
21
0.3344676771653543
0
LINE
8
BLACK
6
CONTINUOUS
10
0.8210006692913385
20
0.3344676771653543
11
0.8214415748031496
21
0.3334032677165354
0
LINE
8
BLACK
6
CONTINUOUS
10
0.8214415748031496
20
0.3334032677165354
11
0.8214415748031496
21
0.3322511811023622
0
LINE
8
BLACK
6
CONTINUOUS
10
0.8214415748031496
20
0.3322511811023622
11
0.8210006692913385
21
0.3311867716535433
0
LINE
8
BLACK
6
CONTINUOUS
10
0.8210006692913385
20
0.3311867716535433
11
0.8201859842519685
21
0.3303720866141732
0
LINE
8
BLACK
6
CONTINUOUS
10
0.8201859842519685
20
0.3303720866141732
11
0.8191215748031496
21
0.3299311811023622
0
LINE
8
BLACK
6
CONTINUOUS
10
0.8191215748031496
20
0.3299311811023622
11
0.8179694881889764
21
0.3299311811023622
0
LINE
8
BLACK
6
CONTINUOUS
10
0.8179694881889764
20
0.3299311811023622
11
0.8169050787401575
21
0.3303720866141732
0
LINE
8
BLACK
6
CONTINUOUS
10
0.8169050787401575
20
0.3303720866141732
11
0.8164576377952756
21
0.3307392913385827
0
LINE
8
BLACK
6
CONTINUOUS
10
0.8164576377952756
20
0.3307392913385827
11
0.814582874015748
21
0.3326140551181102
0
LINE
8
BLACK
6
CONTINUOUS
10
0.814582874015748
20
0.3326140551181102
11
0.8143970866141732
21
0.3328404330708661
0
LINE
8
BLACK
6
CONTINUOUS
10
0.8143970866141732
20
0.3328404330708661
11
0.8143381102362205
21
0.3328915748031496
0
LINE
8
BLACK
6
CONTINUOUS
10
0.8143381102362205
20
0.3328915748031496
11
0.814282125984252
21
0.3329805511811024
0
LINE
8
BLACK
6
CONTINUOUS
10
0.814282125984252
20
0.3329805511811024
11
0.8142156692913386
21
0.3330614960629921
0
LINE
8
BLACK
6
CONTINUOUS
10
0.8142156692913386
20
0.3330614960629921
11
0.8141858267716535
21
0.3331334645669291
0
LINE
8
BLACK
6
CONTINUOUS
10
0.8141858267716535
20
0.3331334645669291
11
0.8140297637795275
21
0.3333814566929134
0
LINE
8
BLACK
6
CONTINUOUS
10
0.8140297637795275
20
0.3333814566929134
11
0.812155
21
0.3371309842519685
0
LINE
8
BLACK
6
CONTINUOUS
10
0.812155
20
0.3371309842519685
11
0.8119481102362205
21
0.3376716141732283
0
LINE
8
BLACK
6
CONTINUOUS
10
0.8119481102362205
20
0.3376716141732283
11
0.8119405905511811
21
0.3377774409448819
0
LINE
8
BLACK
6
CONTINUOUS
10
0.8119405905511811
20
0.3377774409448819
11
0.8119
21
0.3378754330708661
0
LINE
8
BLACK
6
CONTINUOUS
10
0.8119
20
0.3378754330708661
11
0.8118432677165354
21
0.3384514960629921
0
LINE
8
BLACK
6
CONTINUOUS
10
0.8118432677165354
20
0.3384514960629921
11
0.8118432677165354
21
0.3478253149606299
0
LINE
8
BLACK
6
CONTINUOUS
10
0.8118432677165354
20
0.3478253149606299
11
0.8119
21
0.3484013779527559
0
LINE
8
BLACK
6
CONTINUOUS
10
0.8119
20
0.3484013779527559
11
0.8119405905511811
21
0.3484994094488189
0
LINE
8
BLACK
6
CONTINUOUS
10
0.8119405905511811
20
0.3484994094488189
11
0.8119481102362205
21
0.3486051968503937
0
LINE
8
BLACK
6
CONTINUOUS
10
0.8119481102362205
20
0.3486051968503937
11
0.812155
21
0.3491458267716535
0
LINE
8
BLACK
6
CONTINUOUS
10
0.812155
20
0.3491458267716535
11
0.8140297637795275
21
0.3528953543307087
0
LINE
8
BLACK
6
CONTINUOUS
10
0.8140297637795275
20
0.3528953543307087
11
0.8141858267716535
21
0.3531433858267716
0
LINE
8
BLACK
6
CONTINUOUS
10
0.8141858267716535
20
0.3531433858267716
11
0.8142156692913386
21
0.3532153149606299
0
LINE
8
BLACK
6
CONTINUOUS
10
0.8142156692913386
20
0.3532153149606299
11
0.814282125984252
21
0.3532962992125984
0
LINE
8
BLACK
6
CONTINUOUS
10
0.814282125984252
20
0.3532962992125984
11
0.8143381102362205
21
0.3533852362204724
0
LINE
8
BLACK
6
CONTINUOUS
10
0.8143381102362205
20
0.3533852362204724
11
0.8143970866141732
21
0.3534364173228347
0
LINE
8
BLACK
6
CONTINUOUS
10
0.8143970866141732
20
0.3534364173228347
11
0.814582874015748
21
0.3536627559055118
0
LINE
8
BLACK
6
CONTINUOUS
10
0.814582874015748
20
0.3536627559055118
11
0.8164576377952756
21
0.3555375196850394
0
LINE
8
BLACK
6
CONTINUOUS
10
0.8164576377952756
20
0.3555375196850394
11
0.8166839763779528
21
0.3557233070866141
0
LINE
8
BLACK
6
CONTINUOUS
10
0.8166839763779528
20
0.3557233070866141
11
0.8167351574803149
21
0.3557822834645669
0
LINE
8
BLACK
6
CONTINUOUS
10
0.8167351574803149
20
0.3557822834645669
11
0.8168240944881889
21
0.3558382677165354
0
LINE
8
BLACK
6
CONTINUOUS
10
0.8168240944881889
20
0.3558382677165354
11
0.8169050787401575
21
0.3559047244094488
0
LINE
8
BLACK
6
CONTINUOUS
10
0.8169050787401575
20
0.3559047244094488
11
0.8169770078740157
21
0.3559345669291338
0
LINE
8
BLACK
6
CONTINUOUS
10
0.8169770078740157
20
0.3559345669291338
11
0.8172250393700787
21
0.3560906299212598
0
LINE
8
BLACK
6
CONTINUOUS
10
0.8172250393700787
20
0.3560906299212598
11
0.8209745669291338
21
0.3579653937007874
0
LINE
8
BLACK
6
CONTINUOUS
10
0.8209745669291338
20
0.3579653937007874
11
0.8215151574803149
21
0.3581722834645669
0
LINE
8
BLACK
6
CONTINUOUS
10
0.8215151574803149
20
0.3581722834645669
11
0.8216210236220473
21
0.358179842519685
0
LINE
8
BLACK
6
CONTINUOUS
10
0.8216210236220473
20
0.358179842519685
11
0.8217190157480315
21
0.3582203937007874
0
LINE
8
BLACK
6
CONTINUOUS
10
0.8217190157480315
20
0.3582203937007874
11
0.8222950787401575
21
0.358277125984252
0
LINE
8
BLACK
6
CONTINUOUS
10
0.8222950787401575
20
0.358277125984252
11
0.8260446062992126
21
0.358277125984252
0
LINE
8
BLACK
6
CONTINUOUS
10
0.8260446062992126
20
0.358277125984252
11
0.8263361417322834
21
0.3582484251968504
0
LINE
8
BLACK
6
CONTINUOUS
10
0.8472430708661417
20
0.3957157086614173
11
0.847341062992126
21
0.3956751181102362
0
LINE
8
BLACK
6
CONTINUOUS
10
0.847341062992126
20
0.3956751181102362
11
0.8474468897637795
21
0.3956675984251968
0
LINE
8
BLACK
6
CONTINUOUS
10
0.8474468897637795
20
0.3956675984251968
11
0.8479875196850394
21
0.3954607086614173
0
LINE
8
BLACK
6
CONTINUOUS
10
0.8479875196850394
20
0.3954607086614173
11
0.8517370472440945
21
0.3935859448818897
0
LINE
8
BLACK
6
CONTINUOUS
10
0.8517370472440945
20
0.3935859448818897
11
0.8519849212598425
21
0.3934299212598425
0
LINE
8
BLACK
6
CONTINUOUS
10
0.8519849212598425
20
0.3934299212598425
11
0.852056968503937
21
0.3934000787401575
0
LINE
8
BLACK
6
CONTINUOUS
10
0.852056968503937
20
0.3934000787401575
11
0.8521379921259842
21
0.3933335826771653
0
LINE
8
BLACK
6
CONTINUOUS
10
0.8521379921259842
20
0.3933335826771653
11
0.8522269291338582
21
0.3932775984251968
0
LINE
8
BLACK
6
CONTINUOUS
10
0.8522269291338582
20
0.3932775984251968
11
0.8522780708661417
21
0.3932186220472441
0
LINE
8
BLACK
6
CONTINUOUS
10
0.8522780708661417
20
0.3932186220472441
11
0.8525044094488189
21
0.393032874015748
0
LINE
8
BLACK
6
CONTINUOUS
10
0.8525044094488189
20
0.393032874015748
11
0.8543792125984252
21
0.3911581102362205
0
LINE
8
BLACK
6
CONTINUOUS
10
0.8543792125984252
20
0.3911581102362205
11
0.8545649606299213
21
0.3909317716535433
0
LINE
8
BLACK
6
CONTINUOUS
10
0.8545649606299213
20
0.3909317716535433
11
0.8546240157480315
21
0.3908805511811024
0
LINE
8
BLACK
6
CONTINUOUS
10
0.8546240157480315
20
0.3908805511811024
11
0.85468
21
0.3907916141732283
0
LINE
8
BLACK
6
CONTINUOUS
10
0.85468
20
0.3907916141732283
11
0.8547464566929134
21
0.3907106299212598
0
LINE
8
BLACK
6
CONTINUOUS
10
0.8547464566929134
20
0.3907106299212598
11
0.8547762598425197
21
0.3906387007874015
0
LINE
8
BLACK
6
CONTINUOUS
10
0.8547762598425197
20
0.3906387007874015
11
0.8549323622047243
21
0.3903906692913386
0
LINE
8
BLACK
6
CONTINUOUS
10
0.8549323622047243
20
0.3903906692913386
11
0.8568071259842519
21
0.3866411417322835
0
LINE
8
BLACK
6
CONTINUOUS
10
0.8568071259842519
20
0.3866411417322835
11
0.8570140157480315
21
0.3861005511811024
0
LINE
8
BLACK
6
CONTINUOUS
10
0.8570140157480315
20
0.3861005511811024
11
0.8570215354330708
21
0.3859946850393701
0
LINE
8
BLACK
6
CONTINUOUS
10
0.8570215354330708
20
0.3859946850393701
11
0.8570621259842519
21
0.3858966929133858
0
LINE
8
BLACK
6
CONTINUOUS
10
0.8570621259842519
20
0.3858966929133858
11
0.8571188582677165
21
0.3853206299212598
0
LINE
8
BLACK
6
CONTINUOUS
10
0.8571188582677165
20
0.3853206299212598
11
0.8571188582677165
21
0.3740720472440945
0
LINE
8
BLACK
6
CONTINUOUS
10
0.8571188582677165
20
0.3740720472440945
11
0.8570621259842519
21
0.3734959842519685
0
LINE
8
BLACK
6
CONTINUOUS
10
0.8570621259842519
20
0.3734959842519685
11
0.8570215354330708
21
0.373398031496063
0
LINE
8
BLACK
6
CONTINUOUS
10
0.8570215354330708
20
0.373398031496063
11
0.8570140157480315
21
0.3732921259842519
0
LINE
8
BLACK
6
CONTINUOUS
10
0.8570140157480315
20
0.3732921259842519
11
0.8568071259842519
21
0.3727515354330709
0
LINE
8
BLACK
6
CONTINUOUS
10
0.8568071259842519
20
0.3727515354330709
11
0.8549323622047243
21
0.3690020078740157
0
LINE
8
BLACK
6
CONTINUOUS
10
0.8549323622047243
20
0.3690020078740157
11
0.8547762598425197
21
0.3687540157480315
0
LINE
8
BLACK
6
CONTINUOUS
10
0.8547762598425197
20
0.3687540157480315
11
0.8547464566929134
21
0.3686820472440945
0
LINE
8
BLACK
6
CONTINUOUS
10
0.8547464566929134
20
0.3686820472440945
11
0.85468
21
0.3686011023622047
0
LINE
8
BLACK
6
CONTINUOUS
10
0.85468
20
0.3686011023622047
11
0.8546240157480315
21
0.368512125984252
0
LINE
8
BLACK
6
CONTINUOUS
10
0.8546240157480315
20
0.368512125984252
11
0.8545649606299213
21
0.3684609448818897
0
LINE
8
BLACK
6
CONTINUOUS
10
0.8545649606299213
20
0.3684609448818897
11
0.8543792125984252
21
0.3682345669291339
0
LINE
8
BLACK
6
CONTINUOUS
10
0.8543792125984252
20
0.3682345669291339
11
0.8525044094488189
21
0.3663598031496063
0
LINE
8
BLACK
6
CONTINUOUS
10
0.8525044094488189
20
0.3663598031496063
11
0.852056968503937
21
0.3659925984251968
0
LINE
8
BLACK
6
CONTINUOUS
10
0.852056968503937
20
0.3659925984251968
11
0.8509925590551181
21
0.3655517322834645
0
LINE
8
BLACK
6
CONTINUOUS
10
0.8509925590551181
20
0.3655517322834645
11
0.8498404724409448
21
0.3655517322834645
0
LINE
8
BLACK
6
CONTINUOUS
10
0.8498404724409448
20
0.3655517322834645
11
0.8487760629921259
21
0.3659926377952756
0
LINE
8
BLACK
6
CONTINUOUS
10
0.8487760629921259
20
0.3659926377952756
11
0.8479613779527558
21
0.3668073228346457
0
LINE
8
BLACK
6
CONTINUOUS
10
0.8479613779527558
20
0.3668073228346457
11
0.8475205118110236
21
0.3678717322834645
0
LINE
8
BLACK
6
CONTINUOUS
10
0.8475205118110236
20
0.3678717322834645
11
0.8475205118110236
21
0.3690238188976378
0
LINE
8
BLACK
6
CONTINUOUS
10
0.8475205118110236
20
0.3690238188976378
11
0.8479614173228346
21
0.3700882283464567
0
LINE
8
BLACK
6
CONTINUOUS
10
0.8479614173228346
20
0.3700882283464567
11
0.8483286614173228
21
0.3705357086614173
0
LINE
8
BLACK
6
CONTINUOUS
10
0.8483286614173228
20
0.3705357086614173
11
0.8498646062992126
21
0.3720716535433071
0
LINE
8
BLACK
6
CONTINUOUS
10
0.8498646062992126
20
0.3720716535433071
11
0.8512133464566929
21
0.374769094488189
0
LINE
8
BLACK
6
CONTINUOUS
10
0.8512133464566929
20
0.374769094488189
11
0.8512133464566929
21
0.3846235826771653
0
LINE
8
BLACK
6
CONTINUOUS
10
0.8512133464566929
20
0.3846235826771653
11
0.8498646062992126
21
0.387321062992126
0
LINE
8
BLACK
6
CONTINUOUS
10
0.8498646062992126
20
0.387321062992126
11
0.8486674409448819
21
0.388518188976378
0
LINE
8
BLACK
6
CONTINUOUS
10
0.8486674409448819
20
0.388518188976378
11
0.8459699606299212
21
0.3898669291338583
0
LINE
8
BLACK
6
CONTINUOUS
10
0.8459699606299212
20
0.3898669291338583
11
0.8379902362204724
21
0.3898669291338583
0
LINE
8
BLACK
6
CONTINUOUS
10
0.8379902362204724
20
0.3898669291338583
11
0.8352927559055118
21
0.388518188976378
0
LINE
8
BLACK
6
CONTINUOUS
10
0.8352927559055118
20
0.388518188976378
11
0.8340956299212599
21
0.387321062992126
0
LINE
8
BLACK
6
CONTINUOUS
10
0.8340956299212599
20
0.387321062992126
11
0.8327468897637795
21
0.3846235826771653
0
LINE
8
BLACK
6
CONTINUOUS
10
0.8327468897637795
20
0.3846235826771653
11
0.8327468897637795
21
0.3796963385826772
0
LINE
8
BLACK
6
CONTINUOUS
10
0.8327468897637795
20
0.3796963385826772
11
0.8327168503937008
21
0.3793916929133858
0
LINE
8
BLACK
6
CONTINUOUS
10
0.8327168503937008
20
0.3793916929133858
11
0.8327220472440945
21
0.3793142125984252
0
LINE
8
BLACK
6
CONTINUOUS
10
0.8327220472440945
20
0.3793142125984252
11
0.8327039763779527
21
0.3792608661417323
0
LINE
8
BLACK
6
CONTINUOUS
10
0.8327039763779527
20
0.3792608661417323
11
0.8326901574803149
21
0.3791202755905512
0
LINE
8
BLACK
6
CONTINUOUS
10
0.8326901574803149
20
0.3791202755905512
11
0.8325065354330708
21
0.3786770866141732
0
LINE
8
BLACK
6
CONTINUOUS
10
0.8325065354330708
20
0.3786770866141732
11
0.8323529527559055
21
0.3782228346456693
0
LINE
8
BLACK
6
CONTINUOUS
10
0.8323529527559055
20
0.3782228346456693
11
0.8322873622047244
21
0.378147874015748
0
LINE
8
BLACK
6
CONTINUOUS
10
0.8322873622047244
20
0.378147874015748
11
0.832249251968504
21
0.3780558661417323
0
LINE
8
BLACK
6
CONTINUOUS
10
0.832249251968504
20
0.3780558661417323
11
0.8319102362204724
21
0.3777168897637795
0
LINE
8
BLACK
6
CONTINUOUS
10
0.8319102362204724
20
0.3777168897637795
11
0.8315942913385826
21
0.3773557480314961
0
LINE
8
BLACK
6
CONTINUOUS
10
0.8315942913385826
20
0.3773557480314961
11
0.8315049212598425
21
0.3773115748031496
0
LINE
8
BLACK
6
CONTINUOUS
10
0.8315049212598425
20
0.3773115748031496
11
0.8314346062992126
21
0.377241220472441
0
LINE
8
BLACK
6
CONTINUOUS
10
0.8314346062992126
20
0.377241220472441
11
0.8309916535433071
21
0.3770577559055118
0
LINE
8
BLACK
6
CONTINUOUS
10
0.8309916535433071
20
0.3770577559055118
11
0.8305615354330709
21
0.3768450393700787
0
LINE
8
BLACK
6
CONTINUOUS
10
0.8305615354330709
20
0.3768450393700787
11
0.8304621653543307
21
0.3768384251968504
0
LINE
8
BLACK
6
CONTINUOUS
10
0.8304621653543307
20
0.3768384251968504
11
0.8303701968503937
21
0.3768003149606299
0
LINE
8
BLACK
6
CONTINUOUS
10
0.8303701968503937
20
0.3768003149606299
11
0.8298904724409448
21
0.3768003149606299
0
LINE
8
BLACK
6
CONTINUOUS
10
0.8298904724409448
20
0.3768003149606299
11
0.8294120078740157
21
0.3767684251968504
0
LINE
8
BLACK
6
CONTINUOUS
10
0.8294120078740157
20
0.3767684251968504
11
0.8293177165354331
21
0.3768003149606299
0
LINE
8
BLACK
6
CONTINUOUS
10
0.8293177165354331
20
0.3768003149606299
11
0.8292180708661417
21
0.3768003149606299
0
LINE
8
BLACK
6
CONTINUOUS
10
0.8292180708661417
20
0.3768003149606299
11
0.828774842519685
21
0.376983937007874
0
LINE
8
BLACK
6
CONTINUOUS
10
0.828774842519685
20
0.376983937007874
11
0.8283206299212599
21
0.3771375196850393
0
LINE
8
BLACK
6
CONTINUOUS
10
0.8283206299212599
20
0.3771375196850393
11
0.828205748031496
21
0.3772196456692913
0
LINE
8
BLACK
6
CONTINUOUS
10
0.828205748031496
20
0.3772196456692913
11
0.8281536614173228
21
0.377241220472441
0
LINE
8
BLACK
6
CONTINUOUS
10
0.8281536614173228
20
0.377241220472441
11
0.8280987007874016
21
0.3772961811023622
0
LINE
8
BLACK
6
CONTINUOUS
10
0.8280987007874016
20
0.3772961811023622
11
0.8278497244094488
21
0.3774741732283464
0
LINE
8
BLACK
6
CONTINUOUS
10
0.8278497244094488
20
0.3774741732283464
11
0.8177487795275591
21
0.3863125196850394
0
LINE
8
BLACK
6
CONTINUOUS
10
0.8177487795275591
20
0.3863125196850394
11
0.8177487795275591
21
0.3684477559055118
0
LINE
8
BLACK
6
CONTINUOUS
10
0.8177487795275591
20
0.3684477559055118
11
0.8176920472440945
21
0.3678716929133858
0
LINE
8
BLACK
6
CONTINUOUS
10
0.8176920472440945
20
0.3678716929133858
11
0.8172511417322834
21
0.3668072834645669
0
LINE
8
BLACK
6
CONTINUOUS
10
0.8172511417322834
20
0.3668072834645669
11
0.8164364960629921
21
0.3659926377952756
0
LINE
8
BLACK
6
CONTINUOUS
10
0.8164364960629921
20
0.3659926377952756
11
0.8153720866141733
21
0.3655517322834645
0
LINE
8
BLACK
6
CONTINUOUS
10
0.8153720866141733
20
0.3655517322834645
11
0.8142199606299212
21
0.3655517322834645
0
LINE
8
BLACK
6
CONTINUOUS
10
0.8142199606299212
20
0.3655517322834645
11
0.8131555511811024
21
0.3659926377952756
0
LINE
8
BLACK
6
CONTINUOUS
10
0.8131555511811024
20
0.3659926377952756
11
0.812340905511811
21
0.3668072834645669
0
LINE
8
BLACK
6
CONTINUOUS
10
0.812340905511811
20
0.3668072834645669
11
0.8119
21
0.3678716929133858
0
LINE
8
BLACK
6
CONTINUOUS
10
0.8119
20
0.3678716929133858
11
0.8118432677165354
21
0.3684477559055118
0
LINE
8
BLACK
6
CONTINUOUS
10
0.8118432677165354
20
0.3684477559055118
11
0.8118432677165354
21
0.3928196850393701
0
LINE
8
BLACK
6
CONTINUOUS
10
0.8118432677165354
20
0.3928196850393701
11
0.8118732677165355
21
0.3931243700787401
0
LINE
8
BLACK
6
CONTINUOUS
10
0.8118732677165355
20
0.3931243700787401
11
0.8118681102362204
21
0.3932018110236221
0
LINE
8
BLACK
6
CONTINUOUS
10
0.8118681102362204
20
0.3932018110236221
11
0.8118861417322835
21
0.3932551968503937
0
LINE
8
BLACK
6
CONTINUOUS
10
0.8118861417322835
20
0.3932551968503937
11
0.8119
21
0.3933957480314961
0
LINE
8
BLACK
6
CONTINUOUS
10
0.8119
20
0.3933957480314961
11
0.8120835826771653
21
0.3938389763779527
0
LINE
8
BLACK
6
CONTINUOUS
10
0.8120835826771653
20
0.3938389763779527
11
0.8122372047244094
21
0.3942931889763779
0
LINE
8
BLACK
6
CONTINUOUS
10
0.8122372047244094
20
0.3942931889763779
11
0.8123027559055118
21
0.3943681889763779
0
LINE
8
BLACK
6
CONTINUOUS
10
0.8123027559055118
20
0.3943681889763779
11
0.812340905511811
21
0.3944601574803149
0
LINE
8
BLACK
6
CONTINUOUS
10
0.812340905511811
20
0.3944601574803149
11
0.8126798818897638
21
0.3947991732283465
0
LINE
8
BLACK
6
CONTINUOUS
10
0.8126798818897638
20
0.3947991732283465
11
0.8129958661417322
21
0.3951602755905512
0
LINE
8
BLACK
6
CONTINUOUS
10
0.8129958661417322
20
0.3951602755905512
11
0.8130851968503937
21
0.3952044881889764
0
LINE
8
BLACK
6
CONTINUOUS
10
0.8130851968503937
20
0.3952044881889764
11
0.8131555511811024
21
0.3952748031496063
0
LINE
8
BLACK
6
CONTINUOUS
10
0.8131555511811024
20
0.3952748031496063
11
0.8135984645669291
21
0.3954583070866142
0
LINE
8
BLACK
6
CONTINUOUS
10
0.8135984645669291
20
0.3954583070866142
11
0.814028622047244
21
0.3956709842519685
0
LINE
8
BLACK
6
CONTINUOUS
10
0.814028622047244
20
0.3956709842519685
11
0.8141279527559055
21
0.3956776377952756
0
LINE
8
BLACK
6
CONTINUOUS
10
0.8141279527559055
20
0.3956776377952756
11
0.8142199606299212
21
0.3957157086614173
0
LINE
8
BLACK
6
CONTINUOUS
10
0.8142199606299212
20
0.3957157086614173
11
0.8146996850393701
21
0.3957157086614173
0
LINE
8
BLACK
6
CONTINUOUS
10
0.8146996850393701
20
0.3957157086614173
11
0.8151781496062992
21
0.3957475984251969
0
LINE
8
BLACK
6
CONTINUOUS
10
0.8151781496062992
20
0.3957475984251969
11
0.8152724409448818
21
0.3957157086614173
0
LINE
8
BLACK
6
CONTINUOUS
10
0.8152724409448818
20
0.3957157086614173
11
0.8153720866141733
21
0.3957157086614173
0
LINE
8
BLACK
6
CONTINUOUS
10
0.8153720866141733
20
0.3957157086614173
11
0.8158152755905511
21
0.395532125984252
0
LINE
8
BLACK
6
CONTINUOUS
10
0.8158152755905511
20
0.395532125984252
11
0.8162695275590551
21
0.3953785039370079
0
LINE
8
BLACK
6
CONTINUOUS
10
0.8162695275590551
20
0.3953785039370079
11
0.8163843700787401
21
0.3952964173228347
0
LINE
8
BLACK
6
CONTINUOUS
10
0.8163843700787401
20
0.3952964173228347
11
0.8164364960629921
21
0.3952748031496063
0
LINE
8
BLACK
6
CONTINUOUS
10
0.8164364960629921
20
0.3952748031496063
11
0.8164914173228346
21
0.3952198818897638
0
LINE
8
BLACK
6
CONTINUOUS
10
0.8164914173228346
20
0.3952198818897638
11
0.8167404330708661
21
0.3950418503937008
0
LINE
8
BLACK
6
CONTINUOUS
10
0.8167404330708661
20
0.3950418503937008
11
0.8269494488188976
21
0.3861089763779528
0
LINE
8
BLACK
6
CONTINUOUS
10
0.8269494488188976
20
0.3861089763779528
11
0.8271531102362204
21
0.3866411417322835
0
LINE
8
BLACK
6
CONTINUOUS
10
0.8271531102362204
20
0.3866411417322835
11
0.8290278740157481
21
0.3903906692913386
0
LINE
8
BLACK
6
CONTINUOUS
10
0.8290278740157481
20
0.3903906692913386
11
0.829183937007874
21
0.3906387007874015
0
LINE
8
BLACK
6
CONTINUOUS
10
0.829183937007874
20
0.3906387007874015
11
0.829213779527559
21
0.3907106299212598
0
LINE
8
BLACK
6
CONTINUOUS
10
0.829213779527559
20
0.3907106299212598
11
0.8292802362204724
21
0.3907916141732283
0
LINE
8
BLACK
6
CONTINUOUS
10
0.8292802362204724
20
0.3907916141732283
11
0.8293362204724409
21
0.3908805511811024
0
LINE
8
BLACK
6
CONTINUOUS
10
0.8293362204724409
20
0.3908805511811024
11
0.8293951968503936
21
0.3909317322834646
0
LINE
8
BLACK
6
CONTINUOUS
10
0.8293951968503936
20
0.3909317322834646
11
0.8295809842519685
21
0.3911580708661417
0
LINE
8
BLACK
6
CONTINUOUS
10
0.8295809842519685
20
0.3911580708661417
11
0.831455748031496
21
0.3930328346456693
0
LINE
8
BLACK
6
CONTINUOUS
10
0.831455748031496
20
0.3930328346456693
11
0.8316820866141732
21
0.3932186220472441
0
LINE
8
BLACK
6
CONTINUOUS
10
0.8316820866141732
20
0.3932186220472441
11
0.8317332677165354
21
0.3932775984251968
0
LINE
8
BLACK
6
CONTINUOUS
10
0.8317332677165354
20
0.3932775984251968
11
0.8318222047244094
21
0.3933335826771653
0
LINE
8
BLACK
6
CONTINUOUS
10
0.8318222047244094
20
0.3933335826771653
11
0.8319031889763779
21
0.3934000393700787
0
LINE
8
BLACK
6
CONTINUOUS
10
0.8319031889763779
20
0.3934000393700787
11
0.8319751181102362
21
0.3934298818897637
0
LINE
8
BLACK
6
CONTINUOUS
10
0.8319751181102362
20
0.3934298818897637
11
0.8322231496062992
21
0.3935859448818897
0
LINE
8
BLACK
6
CONTINUOUS
10
0.8322231496062992
20
0.3935859448818897
11
0.8359726771653543
21
0.3954607086614173
0
LINE
8
BLACK
6
CONTINUOUS
10
0.8359726771653543
20
0.3954607086614173
11
0.8365132677165354
21
0.3956675984251968
0
LINE
8
BLACK
6
CONTINUOUS
10
0.8365132677165354
20
0.3956675984251968
11
0.8366191338582677
21
0.395675157480315
0
LINE
8
BLACK
6
CONTINUOUS
10
0.8366191338582677
20
0.395675157480315
11
0.836717125984252
21
0.3957157086614173
0
LINE
8
BLACK
6
CONTINUOUS
10
0.836717125984252
20
0.3957157086614173
11
0.8372931889763779
21
0.3957724409448819
0
LINE
8
BLACK
6
CONTINUOUS
10
0.8372931889763779
20
0.3957724409448819
11
0.8466670078740157
21
0.3957724409448819
0
LINE
8
BLACK
6
CONTINUOUS
10
0.8466670078740157
20
0.3957724409448819
11
0.8472430708661417
21
0.3957157086614173
0
LINE
8
BLACK
6
CONTINUOUS
10
0.8547421653543307
20
0.4763306692913385
11
0.8558065748031496
21
0.4758897637795276
0
LINE
8
BLACK
6
CONTINUOUS
10
0.8558065748031496
20
0.4758897637795276
11
0.8566212204724409
21
0.4750751181102362
0
LINE
8
BLACK
6
CONTINUOUS
10
0.8566212204724409
20
0.4750751181102362
11
0.8570621259842519
21
0.4740107086614173
0
LINE
8
BLACK
6
CONTINUOUS
10
0.8570621259842519
20
0.4740107086614173
11
0.8570621259842519
21
0.4728585826771654
0
LINE
8
BLACK
6
CONTINUOUS
10
0.8570621259842519
20
0.4728585826771654
11
0.8566212204724409
21
0.4717941732283464
0
LINE
8
BLACK
6
CONTINUOUS
10
0.8566212204724409
20
0.4717941732283464
11
0.8558065748031496
21
0.4709795275590551
0
LINE
8
BLACK
6
CONTINUOUS
10
0.8558065748031496
20
0.4709795275590551
11
0.8547421653543307
21
0.4705386220472441
0
LINE
8
BLACK
6
CONTINUOUS
10
0.8547421653543307
20
0.4705386220472441
11
0.8541661023622047
21
0.4704818897637795
0
LINE
8
BLACK
6
CONTINUOUS
10
0.8541661023622047
20
0.4704818897637795
11
0.8342407086614173
21
0.4704818897637795
0
LINE
8
BLACK
6
CONTINUOUS
10
0.8342407086614173
20
0.4704818897637795
11
0.8319949606299213
21
0.4693590551181102
0
LINE
8
BLACK
6
CONTINUOUS
10
0.8319949606299213
20
0.4693590551181102
11
0.830872125984252
21
0.4671133070866141
0
LINE
8
BLACK
6
CONTINUOUS
10
0.830872125984252
20
0.4671133070866141
11
0.830872125984252
21
0.4628830708661417
0
LINE
8
BLACK
6
CONTINUOUS
10
0.830872125984252
20
0.4628830708661417
11
0.8319949606299213
21
0.4606373622047244
0
LINE
8
BLACK
6
CONTINUOUS
10
0.8319949606299213
20
0.4606373622047244
11
0.8342407086614173
21
0.4595144881889764
0
LINE
8
BLACK
6
CONTINUOUS
10
0.8342407086614173
20
0.4595144881889764
11
0.8541661023622047
21
0.4595144881889764
0
LINE
8
BLACK
6
CONTINUOUS
10
0.8541661023622047
20
0.4595144881889764
11
0.8547421653543307
21
0.4594577559055118
0
LINE
8
BLACK
6
CONTINUOUS
10
0.8547421653543307
20
0.4594577559055118
11
0.8558065748031496
21
0.4590168503937008
0
LINE
8
BLACK
6
CONTINUOUS
10
0.8558065748031496
20
0.4590168503937008
11
0.8566212204724409
21
0.4582022047244094
0
LINE
8
BLACK
6
CONTINUOUS
10
0.8566212204724409
20
0.4582022047244094
11
0.8570621259842519
21
0.4571377952755906
0
LINE
8
BLACK
6
CONTINUOUS
10
0.8570621259842519
20
0.4571377952755906
11
0.8570621259842519
21
0.4559856692913385
0
LINE
8
BLACK
6
CONTINUOUS
10
0.8570621259842519
20
0.4559856692913385
11
0.8566212204724409
21
0.4549212598425197
0
LINE
8
BLACK
6
CONTINUOUS
10
0.8566212204724409
20
0.4549212598425197
11
0.8558065748031496
21
0.4541066141732283
0
LINE
8
BLACK
6
CONTINUOUS
10
0.8558065748031496
20
0.4541066141732283
11
0.8547421653543307
21
0.4536657086614173
0
LINE
8
BLACK
6
CONTINUOUS
10
0.8547421653543307
20
0.4536657086614173
11
0.8541661023622047
21
0.4536089763779527
0
LINE
8
BLACK
6
CONTINUOUS
10
0.8541661023622047
20
0.4536089763779527
11
0.8342407086614173
21
0.4536089763779527
0
LINE
8
BLACK
6
CONTINUOUS
10
0.8342407086614173
20
0.4536089763779527
11
0.8319949606299213
21
0.4524861417322835
0
LINE
8
BLACK
6
CONTINUOUS
10
0.8319949606299213
20
0.4524861417322835
11
0.830872125984252
21
0.4502403937007874
0
LINE
8
BLACK
6
CONTINUOUS
10
0.830872125984252
20
0.4502403937007874
11
0.830872125984252
21
0.4460101968503937
0
LINE
8
BLACK
6
CONTINUOUS
10
0.830872125984252
20
0.4460101968503937
11
0.8322208661417323
21
0.4433127165354331
0
LINE
8
BLACK
6
CONTINUOUS
10
0.8322208661417323
20
0.4433127165354331
11
0.832891968503937
21
0.4426416141732283
0
LINE
8
BLACK
6
CONTINUOUS
10
0.832891968503937
20
0.4426416141732283
11
0.8541661023622047
21
0.4426416141732283
0
LINE
8
BLACK
6
CONTINUOUS
10
0.8541661023622047
20
0.4426416141732283
11
0.8547421653543307
21
0.4425848818897637
0
LINE
8
BLACK
6
CONTINUOUS
10
0.8547421653543307
20
0.4425848818897637
11
0.8558065748031496
21
0.4421439763779527
0
LINE
8
BLACK
6
CONTINUOUS
10
0.8558065748031496
20
0.4421439763779527
11
0.8566212204724409
21
0.4413293307086614
0
LINE
8
BLACK
6
CONTINUOUS
10
0.8566212204724409
20
0.4413293307086614
11
0.8570621259842519
21
0.4402649212598425
0
LINE
8
BLACK
6
CONTINUOUS
10
0.8570621259842519
20
0.4402649212598425
11
0.8570621259842519
21
0.4391127952755906
0
LINE
8
BLACK
6
CONTINUOUS
10
0.8570621259842519
20
0.4391127952755906
11
0.8566212204724409
21
0.4380483858267716
0
LINE
8
BLACK
6
CONTINUOUS
10
0.8566212204724409
20
0.4380483858267716
11
0.8558065748031496
21
0.4372337401574803
0
LINE
8
BLACK
6
CONTINUOUS
10
0.8558065748031496
20
0.4372337401574803
11
0.8547421653543307
21
0.4367928346456693
0
LINE
8
BLACK
6
CONTINUOUS
10
0.8547421653543307
20
0.4367928346456693
11
0.8541661023622047
21
0.4367361023622047
0
LINE
8
BLACK
6
CONTINUOUS
10
0.8541661023622047
20
0.4367361023622047
11
0.8279193700787402
21
0.4367361023622047
0
LINE
8
BLACK
6
CONTINUOUS
10
0.8279193700787402
20
0.4367361023622047
11
0.8273433070866142
21
0.4367928346456693
0
LINE
8
BLACK
6
CONTINUOUS
10
0.8273433070866142
20
0.4367928346456693
11
0.8262788976377953
21
0.4372337401574803
0
LINE
8
BLACK
6
CONTINUOUS
10
0.8262788976377953
20
0.4372337401574803
11
0.8254642519685039
21
0.4380483858267716
0
LINE
8
BLACK
6
CONTINUOUS
10
0.8254642519685039
20
0.4380483858267716
11
0.8250233464566928
21
0.4391127952755906
0
LINE
8
BLACK
6
CONTINUOUS
10
0.8250233464566928
20
0.4391127952755906
11
0.8250233464566928
21
0.4402649212598425
0
LINE
8
BLACK
6
CONTINUOUS
10
0.8250233464566928
20
0.4402649212598425
11
0.8254642519685039
21
0.4413293307086614
0
LINE
8
BLACK
6
CONTINUOUS
10
0.8254642519685039
20
0.4413293307086614
11
0.8262280708661417
21
0.4420931889763779
0
LINE
8
BLACK
6
CONTINUOUS
10
0.8262280708661417
20
0.4420931889763779
11
0.8252783464566928
21
0.4439926377952756
0
LINE
8
BLACK
6
CONTINUOUS
10
0.8252783464566928
20
0.4439926377952756
11
0.8250714566929134
21
0.4445332677165354
0
LINE
8
BLACK
6
CONTINUOUS
10
0.8250714566929134
20
0.4445332677165354
11
0.8250639370078739
21
0.4446390944881889
0
LINE
8
BLACK
6
CONTINUOUS
10
0.8250639370078739
20
0.4446390944881889
11
0.8250233464566928
21
0.4447370866141732
0
LINE
8
BLACK
6
CONTINUOUS
10
0.8250233464566928
20
0.4447370866141732
11
0.8249666141732284
21
0.4453131496062992
0
LINE
8
BLACK
6
CONTINUOUS
10
0.8249666141732284
20
0.4453131496062992
11
0.8249666141732284
21
0.4509374409448819
0
LINE
8
BLACK
6
CONTINUOUS
10
0.8249666141732284
20
0.4509374409448819
11
0.8250233464566928
21
0.4515135039370078
0
LINE
8
BLACK
6
CONTINUOUS
10
0.8250233464566928
20
0.4515135039370078
11
0.8250639370078739
21
0.4516115354330709
0
LINE
8
BLACK
6
CONTINUOUS
10
0.8250639370078739
20
0.4516115354330709
11
0.8250714566929134
21
0.4517173228346457
0
LINE
8
BLACK
6
CONTINUOUS
10
0.8250714566929134
20
0.4517173228346457
11
0.8252783464566928
21
0.4522579527559055
0
LINE
8
BLACK
6
CONTINUOUS
10
0.8252783464566928
20
0.4522579527559055
11
0.8271531102362204
21
0.4560074803149606
0
LINE
8
BLACK
6
CONTINUOUS
10
0.8271531102362204
20
0.4560074803149606
11
0.8272137401574803
21
0.4561038582677165
0
LINE
8
BLACK
6
CONTINUOUS
10
0.8272137401574803
20
0.4561038582677165
11
0.8272288976377953
21
0.4561492519685039
0
LINE
8
BLACK
6
CONTINUOUS
10
0.8272288976377953
20
0.4561492519685039
11
0.8272779133858268
21
0.4562058267716536
0
LINE
8
BLACK
6
CONTINUOUS
10
0.8272779133858268
20
0.4562058267716536
11
0.8274614566929134
21
0.4564973622047244
0
LINE
8
BLACK
6
CONTINUOUS
10
0.8274614566929134
20
0.4564973622047244
11
0.8275356692913386
21
0.4565617322834646
0
LINE
8
BLACK
6
CONTINUOUS
10
0.8275356692913386
20
0.4565617322834646
11
0.8274614566929134
21
0.4566261023622047
0
LINE
8
BLACK
6
CONTINUOUS
10
0.8274614566929134
20
0.4566261023622047
11
0.8272779133858268
21
0.4569176771653543
0
LINE
8
BLACK
6
CONTINUOUS
10
0.8272779133858268
20
0.4569176771653543
11
0.8272288976377953
21
0.4569742125984252
0
LINE
8
BLACK
6
CONTINUOUS
10
0.8272288976377953
20
0.4569742125984252
11
0.8272137401574803
21
0.4570196456692913
0
LINE
8
BLACK
6
CONTINUOUS
10
0.8272137401574803
20
0.4570196456692913
11
0.8271531102362204
21
0.4571159842519685
0
LINE
8
BLACK
6
CONTINUOUS
10
0.8271531102362204
20
0.4571159842519685
11
0.8252783464566928
21
0.4608655118110236
0
LINE
8
BLACK
6
CONTINUOUS
10
0.8252783464566928
20
0.4608655118110236
11
0.8250714566929134
21
0.4614061417322834
0
LINE
8
BLACK
6
CONTINUOUS
10
0.8250714566929134
20
0.4614061417322834
11
0.8250639370078739
21
0.461511968503937
0
LINE
8
BLACK
6
CONTINUOUS
10
0.8250639370078739
20
0.461511968503937
11
0.8250233464566928
21
0.4616099606299213
0
LINE
8
BLACK
6
CONTINUOUS
10
0.8250233464566928
20
0.4616099606299213
11
0.8249666141732284
21
0.4621860236220472
0
LINE
8
BLACK
6
CONTINUOUS
10
0.8249666141732284
20
0.4621860236220472
11
0.8249666141732284
21
0.4678103149606299
0
LINE
8
BLACK
6
CONTINUOUS
10
0.8249666141732284
20
0.4678103149606299
11
0.8250233464566928
21
0.4683863779527559
0
LINE
8
BLACK
6
CONTINUOUS
10
0.8250233464566928
20
0.4683863779527559
11
0.8250639370078739
21
0.4684844094488189
0
LINE
8
BLACK
6
CONTINUOUS
10
0.8250639370078739
20
0.4684844094488189
11
0.8250714566929134
21
0.4685901968503937
0
LINE
8
BLACK
6
CONTINUOUS
10
0.8250714566929134
20
0.4685901968503937
11
0.8252783464566928
21
0.4691308267716535
0
LINE
8
BLACK
6
CONTINUOUS
10
0.8252783464566928
20
0.4691308267716535
11
0.8271531102362204
21
0.4728803937007874
0
LINE
8
BLACK
6
CONTINUOUS
10
0.8271531102362204
20
0.4728803937007874
11
0.8272137401574803
21
0.4729767322834645
0
LINE
8
BLACK
6
CONTINUOUS
10
0.8272137401574803
20
0.4729767322834645
11
0.8272288976377953
21
0.4730221653543307
0
LINE
8
BLACK
6
CONTINUOUS
10
0.8272288976377953
20
0.4730221653543307
11
0.8272779527559055
21
0.4730787795275591
0
LINE
8
BLACK
6
CONTINUOUS
10
0.8272779527559055
20
0.4730787795275591
11
0.8274614566929134
21
0.4733702362204724
0
LINE
8
BLACK
6
CONTINUOUS
10
0.8274614566929134
20
0.4733702362204724
11
0.827741062992126
21
0.4736127559055118
0
LINE
8
BLACK
6
CONTINUOUS
10
0.827741062992126
20
0.4736127559055118
11
0.8279837401574803
21
0.4738925590551181
0
LINE
8
BLACK
6
CONTINUOUS
10
0.8279837401574803
20
0.4738925590551181
11
0.8282752755905511
21
0.4740761023622047
0
LINE
8
BLACK
6
CONTINUOUS
10
0.8282752755905511
20
0.4740761023622047
11
0.8283318503937007
21
0.4741251181102362
0
LINE
8
BLACK
6
CONTINUOUS
10
0.8283318503937007
20
0.4741251181102362
11
0.8283772440944882
21
0.4741402755905512
0
LINE
8
BLACK
6
CONTINUOUS
10
0.8283772440944882
20
0.4741402755905512
11
0.8284736220472441
21
0.474200905511811
0
LINE
8
BLACK
6
CONTINUOUS
10
0.8284736220472441
20
0.474200905511811
11
0.8322231496062992
21
0.4760756692913386
0
LINE
8
BLACK
6
CONTINUOUS
10
0.8322231496062992
20
0.4760756692913386
11
0.8327637401574803
21
0.4762825590551181
0
LINE
8
BLACK
6
CONTINUOUS
10
0.8327637401574803
20
0.4762825590551181
11
0.8328696062992126
21
0.4762901181102362
0
LINE
8
BLACK
6
CONTINUOUS
10
0.8328696062992126
20
0.4762901181102362
11
0.8329675984251969
21
0.4763306692913385
0
LINE
8
BLACK
6
CONTINUOUS
10
0.8329675984251969
20
0.4763306692913385
11
0.8335436614173228
21
0.4763874015748031
0
LINE
8
BLACK
6
CONTINUOUS
10
0.8335436614173228
20
0.4763874015748031
11
0.8541661023622047
21
0.4763874015748031
0
LINE
8
BLACK
6
CONTINUOUS
10
0.8541661023622047
20
0.4763874015748031
11
0.8547421653543307
21
0.4763306692913385
0
LINE
8
BLACK
6
CONTINUOUS
10
0.8547421653543307
20
0.528824094488189
11
0.8558065748031496
21
0.5283831889763779
0
LINE
8
BLACK
6
CONTINUOUS
10
0.8558065748031496
20
0.5283831889763779
11
0.8566212204724409
21
0.5275685433070866
0
LINE
8
BLACK
6
CONTINUOUS
10
0.8566212204724409
20
0.5275685433070866
11
0.8570621259842519
21
0.5265041338582677
0
LINE
8
BLACK
6
CONTINUOUS
10
0.8570621259842519
20
0.5265041338582677
11
0.8570621259842519
21
0.5253520078740157
0
LINE
8
BLACK
6
CONTINUOUS
10
0.8570621259842519
20
0.5253520078740157
11
0.8566212204724409
21
0.5242875984251968
0
LINE
8
BLACK
6
CONTINUOUS
10
0.8566212204724409
20
0.5242875984251968
11
0.8558065748031496
21
0.5234729527559056
0
LINE
8
BLACK
6
CONTINUOUS
10
0.8558065748031496
20
0.5234729527559056
11
0.8547421653543307
21
0.5230320472440945
0
LINE
8
BLACK
6
CONTINUOUS
10
0.8547421653543307
20
0.5230320472440945
11
0.8541661023622047
21
0.5229753149606299
0
LINE
8
BLACK
6
CONTINUOUS
10
0.8541661023622047
20
0.5229753149606299
11
0.8342407086614173
21
0.5229753149606299
0
LINE
8
BLACK
6
CONTINUOUS
10
0.8342407086614173
20
0.5229753149606299
11
0.8319949606299213
21
0.5218524803149606
0
LINE
8
BLACK
6
CONTINUOUS
10
0.8319949606299213
20
0.5218524803149606
11
0.830872125984252
21
0.5196067322834645
0
LINE
8
BLACK
6
CONTINUOUS
10
0.830872125984252
20
0.5196067322834645
11
0.830872125984252
21
0.5153764960629921
0
LINE
8
BLACK
6
CONTINUOUS
10
0.830872125984252
20
0.5153764960629921
11
0.8319949606299213
21
0.5131307874015748
0
LINE
8
BLACK
6
CONTINUOUS
10
0.8319949606299213
20
0.5131307874015748
11
0.8342407086614173
21
0.5120079133858267
0
LINE
8
BLACK
6
CONTINUOUS
10
0.8342407086614173
20
0.5120079133858267
11
0.8541661023622047
21
0.5120079133858267
0
LINE
8
BLACK
6
CONTINUOUS
10
0.8541661023622047
20
0.5120079133858267
11
0.8547421653543307
21
0.5119511811023622
0
LINE
8
BLACK
6
CONTINUOUS
10
0.8547421653543307
20
0.5119511811023622
11
0.8558065748031496
21
0.5115102755905512
0
LINE
8
BLACK
6
CONTINUOUS
10
0.8558065748031496
20
0.5115102755905512
11
0.8566212204724409
21
0.5106956299212598
0
LINE
8
BLACK
6
CONTINUOUS
10
0.8566212204724409
20
0.5106956299212598
11
0.8570621259842519
21
0.5096312204724409
0
LINE
8
BLACK
6
CONTINUOUS
10
0.8570621259842519
20
0.5096312204724409
11
0.8570621259842519
21
0.508479094488189
0
LINE
8
BLACK
6
CONTINUOUS
10
0.8570621259842519
20
0.508479094488189
11
0.8566212204724409
21
0.50741468503937
0
LINE
8
BLACK
6
CONTINUOUS
10
0.8566212204724409
20
0.50741468503937
11
0.8558065748031496
21
0.5066000393700787
0
LINE
8
BLACK
6
CONTINUOUS
10
0.8558065748031496
20
0.5066000393700787
11
0.8547421653543307
21
0.5061591338582677
0
LINE
8
BLACK
6
CONTINUOUS
10
0.8547421653543307
20
0.5061591338582677
11
0.8541661023622047
21
0.5061024015748031
0
LINE
8
BLACK
6
CONTINUOUS
10
0.8541661023622047
20
0.5061024015748031
11
0.8342407086614173
21
0.5061024015748031
0
LINE
8
BLACK
6
CONTINUOUS
10
0.8342407086614173
20
0.5061024015748031
11
0.8319949606299213
21
0.5049795669291338
0
LINE
8
BLACK
6
CONTINUOUS
10
0.8319949606299213
20
0.5049795669291338
11
0.830872125984252
21
0.5027338188976378
0
LINE
8
BLACK
6
CONTINUOUS
10
0.830872125984252
20
0.5027338188976378
11
0.830872125984252
21
0.4985036220472441
0
LINE
8
BLACK
6
CONTINUOUS
10
0.830872125984252
20
0.4985036220472441
11
0.8322208661417323
21
0.4958061417322834
0
LINE
8
BLACK
6
CONTINUOUS
10
0.8322208661417323
20
0.4958061417322834
11
0.832891968503937
21
0.4951350393700787
0
LINE
8
BLACK
6
CONTINUOUS
10
0.832891968503937
20
0.4951350393700787
11
0.8541661023622047
21
0.4951350393700787
0
LINE
8
BLACK
6
CONTINUOUS
10
0.8541661023622047
20
0.4951350393700787
11
0.8547421653543307
21
0.4950783070866142
0
LINE
8
BLACK
6
CONTINUOUS
10
0.8547421653543307
20
0.4950783070866142
11
0.8558065748031496
21
0.4946374015748031
0
LINE
8
BLACK
6
CONTINUOUS
10
0.8558065748031496
20
0.4946374015748031
11
0.8566212204724409
21
0.4938227559055118
0
LINE
8
BLACK
6
CONTINUOUS
10
0.8566212204724409
20
0.4938227559055118
11
0.8570621259842519
21
0.4927583464566929
0
LINE
8
BLACK
6
CONTINUOUS
10
0.8570621259842519
20
0.4927583464566929
11
0.8570621259842519
21
0.491606220472441
0
LINE
8
BLACK
6
CONTINUOUS
10
0.8570621259842519
20
0.491606220472441
11
0.8566212204724409
21
0.490541811023622
0
LINE
8
BLACK
6
CONTINUOUS
10
0.8566212204724409
20
0.490541811023622
11
0.8558065748031496
21
0.4897271653543307
0
LINE
8
BLACK
6
CONTINUOUS
10
0.8558065748031496
20
0.4897271653543307
11
0.8547421653543307
21
0.4892862598425197
0
LINE
8
BLACK
6
CONTINUOUS
10
0.8547421653543307
20
0.4892862598425197
11
0.8541661023622047
21
0.4892295275590551
0
LINE
8
BLACK
6
CONTINUOUS
10
0.8541661023622047
20
0.4892295275590551
11
0.8279193700787402
21
0.4892295275590551
0
LINE
8
BLACK
6
CONTINUOUS
10
0.8279193700787402
20
0.4892295275590551
11
0.8273433070866142
21
0.4892862598425197
0
LINE
8
BLACK
6
CONTINUOUS
10
0.8273433070866142
20
0.4892862598425197
11
0.8262788976377953
21
0.4897271653543307
0
LINE
8
BLACK
6
CONTINUOUS
10
0.8262788976377953
20
0.4897271653543307
11
0.8254642519685039
21
0.490541811023622
0
LINE
8
BLACK
6
CONTINUOUS
10
0.8254642519685039
20
0.490541811023622
11
0.8250233464566928
21
0.491606220472441
0
LINE
8
BLACK
6
CONTINUOUS
10
0.8250233464566928
20
0.491606220472441
11
0.8250233464566928
21
0.4927583464566929
0
LINE
8
BLACK
6
CONTINUOUS
10
0.8250233464566928
20
0.4927583464566929
11
0.8254642519685039
21
0.4938227559055118
0
LINE
8
BLACK
6
CONTINUOUS
10
0.8254642519685039
20
0.4938227559055118
11
0.8262280708661417
21
0.4945866141732284
0
LINE
8
BLACK
6
CONTINUOUS
10
0.8262280708661417
20
0.4945866141732284
11
0.8252783464566928
21
0.496486062992126
0
LINE
8
BLACK
6
CONTINUOUS
10
0.8252783464566928
20
0.496486062992126
11
0.8250714566929134
21
0.4970266929133858
0
LINE
8
BLACK
6
CONTINUOUS
10
0.8250714566929134
20
0.4970266929133858
11
0.8250639370078739
21
0.4971325196850394
0
LINE
8
BLACK
6
CONTINUOUS
10
0.8250639370078739
20
0.4971325196850394
11
0.8250233464566928
21
0.4972305118110236
0
LINE
8
BLACK
6
CONTINUOUS
10
0.8250233464566928
20
0.4972305118110236
11
0.8249666141732284
21
0.4978065748031496
0
LINE
8
BLACK
6
CONTINUOUS
10
0.8249666141732284
20
0.4978065748031496
11
0.8249666141732284
21
0.5034308661417323
0
LINE
8
BLACK
6
CONTINUOUS
10
0.8249666141732284
20
0.5034308661417323
11
0.8250233464566928
21
0.5040069291338583
0
LINE
8
BLACK
6
CONTINUOUS
10
0.8250233464566928
20
0.5040069291338583
11
0.8250639370078739
21
0.5041049606299213
0
LINE
8
BLACK
6
CONTINUOUS
10
0.8250639370078739
20
0.5041049606299213
11
0.8250714566929134
21
0.504210748031496
0
LINE
8
BLACK
6
CONTINUOUS
10
0.8250714566929134
20
0.504210748031496
11
0.8252783464566928
21
0.5047513779527559
0
LINE
8
BLACK
6
CONTINUOUS
10
0.8252783464566928
20
0.5047513779527559
11
0.8271531102362204
21
0.508500905511811
0
LINE
8
BLACK
6
CONTINUOUS
10
0.8271531102362204
20
0.508500905511811
11
0.8272137401574803
21
0.5085972834645669
0
LINE
8
BLACK
6
CONTINUOUS
10
0.8272137401574803
20
0.5085972834645669
11
0.8272288976377953
21
0.5086426771653543
0
LINE
8
BLACK
6
CONTINUOUS
10
0.8272288976377953
20
0.5086426771653543
11
0.8272779133858268
21
0.508699251968504
0
LINE
8
BLACK
6
CONTINUOUS
10
0.8272779133858268
20
0.508699251968504
11
0.8274614566929134
21
0.5089907874015748
0
LINE
8
BLACK
6
CONTINUOUS
10
0.8274614566929134
20
0.5089907874015748
11
0.8275356692913386
21
0.5090551574803149
0
LINE
8
BLACK
6
CONTINUOUS
10
0.8275356692913386
20
0.5090551574803149
11
0.8274614566929134
21
0.5091195275590551
0
LINE
8
BLACK
6
CONTINUOUS
10
0.8274614566929134
20
0.5091195275590551
11
0.8272779133858268
21
0.5094111023622047
0
LINE
8
BLACK
6
CONTINUOUS
10
0.8272779133858268
20
0.5094111023622047
11
0.8272288976377953
21
0.5094676377952756
0
LINE
8
BLACK
6
CONTINUOUS
10
0.8272288976377953
20
0.5094676377952756
11
0.8272137401574803
21
0.5095130708661417
0
LINE
8
BLACK
6
CONTINUOUS
10
0.8272137401574803
20
0.5095130708661417
11
0.8271531102362204
21
0.5096094094488189
0
LINE
8
BLACK
6
CONTINUOUS
10
0.8271531102362204
20
0.5096094094488189
11
0.8252783464566928
21
0.513358937007874
0
LINE
8
BLACK
6
CONTINUOUS
10
0.8252783464566928
20
0.513358937007874
11
0.8250714566929134
21
0.5138995669291339
0
LINE
8
BLACK
6
CONTINUOUS
10
0.8250714566929134
20
0.5138995669291339
11
0.8250639370078739
21
0.5140053937007873
0
LINE
8
BLACK
6
CONTINUOUS
10
0.8250639370078739
20
0.5140053937007873
11
0.8250233464566928
21
0.5141033858267716
0
LINE
8
BLACK
6
CONTINUOUS
10
0.8250233464566928
20
0.5141033858267716
11
0.8249666141732284
21
0.5146794488188976
0
LINE
8
BLACK
6
CONTINUOUS
10
0.8249666141732284
20
0.5146794488188976
11
0.8249666141732284
21
0.5203037401574803
0
LINE
8
BLACK
6
CONTINUOUS
10
0.8249666141732284
20
0.5203037401574803
11
0.8250233464566928
21
0.5208798031496062
0
LINE
8
BLACK
6
CONTINUOUS
10
0.8250233464566928
20
0.5208798031496062
11
0.8250639370078739
21
0.5209778346456693
0
LINE
8
BLACK
6
CONTINUOUS
10
0.8250639370078739
20
0.5209778346456693
11
0.8250714566929134
21
0.5210836220472441
0
LINE
8
BLACK
6
CONTINUOUS
10
0.8250714566929134
20
0.5210836220472441
11
0.8252783464566928
21
0.5216242519685039
0
LINE
8
BLACK
6
CONTINUOUS
10
0.8252783464566928
20
0.5216242519685039
11
0.8271531102362204
21
0.5253738188976378
0
LINE
8
BLACK
6
CONTINUOUS
10
0.8271531102362204
20
0.5253738188976378
11
0.8272137401574803
21
0.525470157480315
0
LINE
8
BLACK
6
CONTINUOUS
10
0.8272137401574803
20
0.525470157480315
11
0.8272288976377953
21
0.5255155905511811
0
LINE
8
BLACK
6
CONTINUOUS
10
0.8272288976377953
20
0.5255155905511811
11
0.8272779527559055
21
0.5255722047244095
0
LINE
8
BLACK
6
CONTINUOUS
10
0.8272779527559055
20
0.5255722047244095
11
0.8274614566929134
21
0.5258636614173228
0
LINE
8
BLACK
6
CONTINUOUS
10
0.8274614566929134
20
0.5258636614173228
11
0.827741062992126
21
0.5261061811023622
0
LINE
8
BLACK
6
CONTINUOUS
10
0.827741062992126
20
0.5261061811023622
11
0.8279837401574803
21
0.5263859842519685
0
LINE
8
BLACK
6
CONTINUOUS
10
0.8279837401574803
20
0.5263859842519685
11
0.8282752755905511
21
0.5265695275590551
0
LINE
8
BLACK
6
CONTINUOUS
10
0.8282752755905511
20
0.5265695275590551
11
0.8283318503937007
21
0.5266185433070866
0
LINE
8
BLACK
6
CONTINUOUS
10
0.8283318503937007
20
0.5266185433070866
11
0.8283772440944882
21
0.5266337007874016
0
LINE
8
BLACK
6
CONTINUOUS
10
0.8283772440944882
20
0.5266337007874016
11
0.8284736220472441
21
0.5266943307086615
0
LINE
8
BLACK
6
CONTINUOUS
10
0.8284736220472441
20
0.5266943307086615
11
0.8322231496062992
21
0.528569094488189
0
LINE
8
BLACK
6
CONTINUOUS
10
0.8322231496062992
20
0.528569094488189
11
0.8327637401574803
21
0.5287759842519685
0
LINE
8
BLACK
6
CONTINUOUS
10
0.8327637401574803
20
0.5287759842519685
11
0.8328696062992126
21
0.5287835433070867
0
LINE
8
BLACK
6
CONTINUOUS
10
0.8328696062992126
20
0.5287835433070867
11
0.8329675984251969
21
0.528824094488189
0
LINE
8
BLACK
6
CONTINUOUS
10
0.8329675984251969
20
0.528824094488189
11
0.8335436614173228
21
0.5288808267716535
0
LINE
8
BLACK
6
CONTINUOUS
10
0.8335436614173228
20
0.5288808267716535
11
0.8541661023622047
21
0.5288808267716535
0
LINE
8
BLACK
6
CONTINUOUS
10
0.8541661023622047
20
0.5288808267716535
11
0.8547421653543307
21
0.528824094488189
  0
ENDSEC
  0
EOF
