  0
SECTION
  2
HEADER
  9
$ANGBASE
  50
0.0
  9
$ANGDIR
  70
1
  9
$MEASUREMENT
  70
0
  0
ENDSEC
  0
SECTION
  2
TABLES
  0
TABLE
  2
LTYPE
  70
4
  0
LTYPE
  5
40F
  2
CONTINUOUS
  70
0
  3
Solid line
  72
65
  73
0
  40
0.0
  0
LTYPE
  5
410
  2
DASHDOT
 70
0
  3
Dash Dot ____ _ ____ _
 72
65
 73
4
 40
2.0
 49
1.25
 49
-0.25
 49
0.25
 49
-0.25
  0
LTYPE
  5
411
  2
DASHED
 70
0
  3
Dashed __ __ __ __ __
 72
65
 73
2
 40
0.75
 49
0.5
 49
-0.25
  0
LTYPE
  5
43B
  2
DOTTED
 70
0
  3
Dotted .  .  .  .
 72
65
 73
2
 40
0.2
 49
0.0
 49
-0.2
  0
ENDTAB
  0
TABLE
  2
STYLE
  70
4
  0
STYLE
  2
KICAD
  70
0
  40
0
  41
1
  42
1
  50
0
  71
0
  3
isocp.shx
  0
STYLE
  2
KICADB
  70
0
  40
0
  41
1
  42
1
  50
0
  71
0
  3
isocp.shx
  0
STYLE
  2
KICADI
  70
0
  40
0
  41
1
  42
1
  50
15
  71
0
  3
isocp.shx
  0
STYLE
  2
KICADBI
  70
0
  40
0
  41
1
  42
1
  50
15
  71
0
  3
isocp.shx
  0
ENDTAB
  0
TABLE
  2
LAYER
  70
1
  0
LAYER
  2
BLACK
  70
0
  62
7
  6
CONTINUOUS
  0
ENDTAB
  0
ENDSEC
  0
SECTION
  2
ENTITIES
0
LINE
8
BLACK
6
CONTINUOUS
10
0.2920683858267716
20
0.148947874015748
11
0.294622874015748
21
0.1472409842519685
0
LINE
8
BLACK
6
CONTINUOUS
10
0.294622874015748
20
0.1472409842519685
11
0.2963297637795276
21
0.1446864960629921
0
LINE
8
BLACK
6
CONTINUOUS
10
0.2963297637795276
20
0.1446864960629921
11
0.2969291338582677
21
0.1416732283464567
0
LINE
8
BLACK
6
CONTINUOUS
10
0.2969291338582677
20
0.1416732283464567
11
0.2969291338582677
21
0.0866732283464567
0
LINE
8
BLACK
6
CONTINUOUS
10
0.2969291338582677
20
0.0866732283464567
11
0.2963297637795276
21
0.0836599606299213
0
LINE
8
BLACK
6
CONTINUOUS
10
0.2963297637795276
20
0.0836599606299213
11
0.294622874015748
21
0.0811054724409449
0
LINE
8
BLACK
6
CONTINUOUS
10
0.294622874015748
20
0.0811054724409449
11
0.2920683858267716
21
0.0793985826771653
0
LINE
8
BLACK
6
CONTINUOUS
10
0.2920683858267716
20
0.0793985826771653
11
0.2890551181102362
21
0.0787992125984252
0
LINE
8
BLACK
6
CONTINUOUS
10
0.2890551181102362
20
0.0787992125984252
11
0.2540551181102362
21
0.0787992125984252
0
LINE
8
BLACK
6
CONTINUOUS
10
0.2540551181102362
20
0.0787992125984252
11
0.2510418503937008
21
0.0793985826771653
0
LINE
8
BLACK
6
CONTINUOUS
10
0.2510418503937008
20
0.0793985826771653
11
0.2484873622047244
21
0.0811054724409449
0
LINE
8
BLACK
6
CONTINUOUS
10
0.2484873622047244
20
0.0811054724409449
11
0.2467804724409449
21
0.0836599606299213
0
LINE
8
BLACK
6
CONTINUOUS
10
0.2467804724409449
20
0.0836599606299213
11
0.2461811023622047
21
0.0866732283464567
0
LINE
8
BLACK
6
CONTINUOUS
10
0.2461811023622047
20
0.0866732283464567
11
0.2461811023622047
21
0.1416732283464567
0
LINE
8
BLACK
6
CONTINUOUS
10
0.2461811023622047
20
0.1416732283464567
11
0.2467804724409449
21
0.1446864960629921
0
LINE
8
BLACK
6
CONTINUOUS
10
0.2467804724409449
20
0.1446864960629921
11
0.2484873622047244
21
0.1472409842519685
0
LINE
8
BLACK
6
CONTINUOUS
10
0.2484873622047244
20
0.1472409842519685
11
0.2510418503937008
21
0.148947874015748
0
LINE
8
BLACK
6
CONTINUOUS
10
0.2510418503937008
20
0.148947874015748
11
0.2540551181102362
21
0.1495472440944882
0
LINE
8
BLACK
6
CONTINUOUS
10
0.2540551181102362
20
0.1495472440944882
11
0.2890551181102362
21
0.1495472440944882
0
LINE
8
BLACK
6
CONTINUOUS
10
0.2890551181102362
20
0.1495472440944882
11
0.2920683858267716
21
0.148947874015748
0
LINE
8
BLACK
6
CONTINUOUS
10
0.3670683858267716
20
0.148947874015748
11
0.369622874015748
21
0.1472409842519685
0
LINE
8
BLACK
6
CONTINUOUS
10
0.369622874015748
20
0.1472409842519685
11
0.3713297637795275
21
0.1446864960629921
0
LINE
8
BLACK
6
CONTINUOUS
10
0.3713297637795275
20
0.1446864960629921
11
0.3719291338582677
21
0.1416732283464567
0
LINE
8
BLACK
6
CONTINUOUS
10
0.3719291338582677
20
0.1416732283464567
11
0.3719291338582677
21
0.0866732283464567
0
LINE
8
BLACK
6
CONTINUOUS
10
0.3719291338582677
20
0.0866732283464567
11
0.3713297637795275
21
0.0836599606299213
0
LINE
8
BLACK
6
CONTINUOUS
10
0.3713297637795275
20
0.0836599606299213
11
0.369622874015748
21
0.0811054724409449
0
LINE
8
BLACK
6
CONTINUOUS
10
0.369622874015748
20
0.0811054724409449
11
0.3670683858267716
21
0.0793985826771653
0
LINE
8
BLACK
6
CONTINUOUS
10
0.3670683858267716
20
0.0793985826771653
11
0.3640551181102362
21
0.0787992125984252
0
LINE
8
BLACK
6
CONTINUOUS
10
0.3640551181102362
20
0.0787992125984252
11
0.3290551181102362
21
0.0787992125984252
0
LINE
8
BLACK
6
CONTINUOUS
10
0.3290551181102362
20
0.0787992125984252
11
0.3260418503937008
21
0.0793985826771653
0
LINE
8
BLACK
6
CONTINUOUS
10
0.3260418503937008
20
0.0793985826771653
11
0.3234873622047244
21
0.0811054724409449
0
LINE
8
BLACK
6
CONTINUOUS
10
0.3234873622047244
20
0.0811054724409449
11
0.3217804724409449
21
0.0836599606299213
0
LINE
8
BLACK
6
CONTINUOUS
10
0.3217804724409449
20
0.0836599606299213
11
0.3211811023622047
21
0.0866732283464567
0
LINE
8
BLACK
6
CONTINUOUS
10
0.3211811023622047
20
0.0866732283464567
11
0.3211811023622047
21
0.1416732283464567
0
LINE
8
BLACK
6
CONTINUOUS
10
0.3211811023622047
20
0.1416732283464567
11
0.3217804724409449
21
0.1446864960629921
0
LINE
8
BLACK
6
CONTINUOUS
10
0.3217804724409449
20
0.1446864960629921
11
0.3234873622047244
21
0.1472409842519685
0
LINE
8
BLACK
6
CONTINUOUS
10
0.3234873622047244
20
0.1472409842519685
11
0.3260418503937008
21
0.148947874015748
0
LINE
8
BLACK
6
CONTINUOUS
10
0.3260418503937008
20
0.148947874015748
11
0.3290551181102362
21
0.1495472440944882
0
LINE
8
BLACK
6
CONTINUOUS
10
0.3290551181102362
20
0.1495472440944882
11
0.3640551181102362
21
0.1495472440944882
0
LINE
8
BLACK
6
CONTINUOUS
10
0.3640551181102362
20
0.1495472440944882
11
0.3670683858267716
21
0.148947874015748
0
LINE
8
BLACK
6
CONTINUOUS
10
0.8233724409448818
20
0.173313188976378
11
0.8283571259842519
21
0.1715689763779528
0
LINE
8
BLACK
6
CONTINUOUS
10
0.8283571259842519
20
0.1715689763779528
11
0.8326062204724409
21
0.1684329921259843
0
LINE
8
BLACK
6
CONTINUOUS
10
0.8326062204724409
20
0.1684329921259843
11
0.8357422047244094
21
0.1641838976377953
0
LINE
8
BLACK
6
CONTINUOUS
10
0.8357422047244094
20
0.1641838976377953
11
0.8374864173228346
21
0.1591992125984252
0
LINE
8
BLACK
6
CONTINUOUS
10
0.8374864173228346
20
0.1591992125984252
11
0.8377952755905511
21
0.1559055118110236
0
LINE
8
BLACK
6
CONTINUOUS
10
0.8377952755905511
20
0.1559055118110236
11
0.8377952755905511
21
0.1047244094488189
0
LINE
8
BLACK
6
CONTINUOUS
10
0.8377952755905511
20
0.1047244094488189
11
0.8374864173228346
21
0.1014307086614173
0
LINE
8
BLACK
6
CONTINUOUS
10
0.8374864173228346
20
0.1014307086614173
11
0.8357422047244094
21
0.0964460236220472
0
LINE
8
BLACK
6
CONTINUOUS
10
0.8357422047244094
20
0.0964460236220472
11
0.8326062204724409
21
0.0921969291338583
0
LINE
8
BLACK
6
CONTINUOUS
10
0.8326062204724409
20
0.0921969291338583
11
0.8283571259842519
21
0.0890609448818898
0
LINE
8
BLACK
6
CONTINUOUS
10
0.8283571259842519
20
0.0890609448818898
11
0.8233724409448818
21
0.0873167322834646
0
LINE
8
BLACK
6
CONTINUOUS
10
0.8233724409448818
20
0.0873167322834646
11
0.8200787401574803
21
0.087007874015748
0
LINE
8
BLACK
6
CONTINUOUS
10
0.8200787401574803
20
0.087007874015748
11
0.7059055118110236
21
0.087007874015748
0
LINE
8
BLACK
6
CONTINUOUS
10
0.7059055118110236
20
0.087007874015748
11
0.702611811023622
21
0.0873167322834646
0
LINE
8
BLACK
6
CONTINUOUS
10
0.702611811023622
20
0.0873167322834646
11
0.6976271259842519
21
0.0890609448818898
0
LINE
8
BLACK
6
CONTINUOUS
10
0.6976271259842519
20
0.0890609448818898
11
0.693378031496063
21
0.0921969291338583
0
LINE
8
BLACK
6
CONTINUOUS
10
0.693378031496063
20
0.0921969291338583
11
0.6902420472440944
21
0.0964460236220472
0
LINE
8
BLACK
6
CONTINUOUS
10
0.6902420472440944
20
0.0964460236220472
11
0.6884978346456693
21
0.1014307086614173
0
LINE
8
BLACK
6
CONTINUOUS
10
0.6884978346456693
20
0.1014307086614173
11
0.6881889763779527
21
0.1047244094488189
0
LINE
8
BLACK
6
CONTINUOUS
10
0.6881889763779527
20
0.1047244094488189
11
0.6881889763779527
21
0.1559055118110236
0
LINE
8
BLACK
6
CONTINUOUS
10
0.6881889763779527
20
0.1559055118110236
11
0.6884978346456693
21
0.1591992125984252
0
LINE
8
BLACK
6
CONTINUOUS
10
0.6884978346456693
20
0.1591992125984252
11
0.6902420472440944
21
0.1641838976377953
0
LINE
8
BLACK
6
CONTINUOUS
10
0.6902420472440944
20
0.1641838976377953
11
0.693378031496063
21
0.1684329921259843
0
LINE
8
BLACK
6
CONTINUOUS
10
0.693378031496063
20
0.1684329921259843
11
0.6976271259842519
21
0.1715689763779528
0
LINE
8
BLACK
6
CONTINUOUS
10
0.6976271259842519
20
0.1715689763779528
11
0.702611811023622
21
0.173313188976378
0
LINE
8
BLACK
6
CONTINUOUS
10
0.702611811023622
20
0.173313188976378
11
0.7059055118110236
21
0.1736220472440945
0
LINE
8
BLACK
6
CONTINUOUS
10
0.7059055118110236
20
0.1736220472440945
11
0.8200787401574803
21
0.1736220472440945
0
LINE
8
BLACK
6
CONTINUOUS
10
0.8200787401574803
20
0.1736220472440945
11
0.8233724409448818
21
0.173313188976378
0
LINE
8
BLACK
6
CONTINUOUS
10
0.9736825590551181
20
0.1738100787401575
11
0.9762370472440944
21
0.1721031889763779
0
LINE
8
BLACK
6
CONTINUOUS
10
0.9762370472440944
20
0.1721031889763779
11
0.977943937007874
21
0.1695487007874016
0
LINE
8
BLACK
6
CONTINUOUS
10
0.977943937007874
20
0.1695487007874016
11
0.9785433070866142
21
0.1665354330708661
0
LINE
8
BLACK
6
CONTINUOUS
10
0.9785433070866142
20
0.1665354330708661
11
0.9785433070866142
21
0.1271653543307087
0
LINE
8
BLACK
6
CONTINUOUS
10
0.9785433070866142
20
0.1271653543307087
11
0.977943937007874
21
0.1241520866141732
0
LINE
8
BLACK
6
CONTINUOUS
10
0.977943937007874
20
0.1241520866141732
11
0.9762370472440944
21
0.1215975984251969
0
LINE
8
BLACK
6
CONTINUOUS
10
0.9762370472440944
20
0.1215975984251969
11
0.9736825590551181
21
0.1198907086614173
0
LINE
8
BLACK
6
CONTINUOUS
10
0.9736825590551181
20
0.1198907086614173
11
0.9706692913385827
21
0.1192913385826772
0
LINE
8
BLACK
6
CONTINUOUS
10
0.9706692913385827
20
0.1192913385826772
11
0.8718503937007874
21
0.1192913385826772
0
LINE
8
BLACK
6
CONTINUOUS
10
0.8718503937007874
20
0.1192913385826772
11
0.868837125984252
21
0.1198907086614173
0
LINE
8
BLACK
6
CONTINUOUS
10
0.868837125984252
20
0.1198907086614173
11
0.8662826377952756
21
0.1215975984251969
0
LINE
8
BLACK
6
CONTINUOUS
10
0.8662826377952756
20
0.1215975984251969
11
0.8645757480314961
21
0.1241520866141732
0
LINE
8
BLACK
6
CONTINUOUS
10
0.8645757480314961
20
0.1241520866141732
11
0.8639763779527558
21
0.1271653543307087
0
LINE
8
BLACK
6
CONTINUOUS
10
0.8639763779527558
20
0.1271653543307087
11
0.8639763779527558
21
0.1665354330708661
0
LINE
8
BLACK
6
CONTINUOUS
10
0.8639763779527558
20
0.1665354330708661
11
0.8645757480314961
21
0.1695487007874016
0
LINE
8
BLACK
6
CONTINUOUS
10
0.8645757480314961
20
0.1695487007874016
11
0.8662826377952756
21
0.1721031889763779
0
LINE
8
BLACK
6
CONTINUOUS
10
0.8662826377952756
20
0.1721031889763779
11
0.868837125984252
21
0.1738100787401575
0
LINE
8
BLACK
6
CONTINUOUS
10
0.868837125984252
20
0.1738100787401575
11
0.8718503937007874
21
0.1744094488188976
0
LINE
8
BLACK
6
CONTINUOUS
10
0.8718503937007874
20
0.1744094488188976
11
0.9706692913385827
21
0.1744094488188976
0
LINE
8
BLACK
6
CONTINUOUS
10
0.9706692913385827
20
0.1744094488188976
11
0.9736825590551181
21
0.1738100787401575
0
LINE
8
BLACK
6
CONTINUOUS
10
0.1105771653543307
20
0.1758722440944882
11
0.1155618503937008
21
0.174128031496063
0
LINE
8
BLACK
6
CONTINUOUS
10
0.1155618503937008
20
0.174128031496063
11
0.1198109448818898
21
0.1709920472440945
0
LINE
8
BLACK
6
CONTINUOUS
10
0.1198109448818898
20
0.1709920472440945
11
0.1229469291338583
21
0.1667429527559055
0
LINE
8
BLACK
6
CONTINUOUS
10
0.1229469291338583
20
0.1667429527559055
11
0.1246911417322835
21
0.1617582677165354
0
LINE
8
BLACK
6
CONTINUOUS
10
0.1246911417322835
20
0.1617582677165354
11
0.125
21
0.1584645669291339
0
LINE
8
BLACK
6
CONTINUOUS
10
0.125
20
0.1584645669291339
11
0.125
21
0.1387795275590551
0
LINE
8
BLACK
6
CONTINUOUS
10
0.125
20
0.1387795275590551
11
0.1246911417322835
21
0.1354858267716536
0
LINE
8
BLACK
6
CONTINUOUS
10
0.1246911417322835
20
0.1354858267716536
11
0.1229469291338583
21
0.1305011417322835
0
LINE
8
BLACK
6
CONTINUOUS
10
0.1229469291338583
20
0.1305011417322835
11
0.1198109448818898
21
0.1262520472440945
0
LINE
8
BLACK
6
CONTINUOUS
10
0.1198109448818898
20
0.1262520472440945
11
0.1155618503937008
21
0.123116062992126
0
LINE
8
BLACK
6
CONTINUOUS
10
0.1155618503937008
20
0.123116062992126
11
0.1105771653543307
21
0.1213718503937008
0
LINE
8
BLACK
6
CONTINUOUS
10
0.1105771653543307
20
0.1213718503937008
11
0.1072834645669291
21
0.1210629921259842
0
LINE
8
BLACK
6
CONTINUOUS
10
0.1072834645669291
20
0.1210629921259842
11
0.0206692913385827
21
0.1210629921259842
0
LINE
8
BLACK
6
CONTINUOUS
10
0.0206692913385827
20
0.1210629921259842
11
0.0173755905511811
21
0.1213718503937008
0
LINE
8
BLACK
6
CONTINUOUS
10
0.0173755905511811
20
0.1213718503937008
11
0.012390905511811
21
0.123116062992126
0
LINE
8
BLACK
6
CONTINUOUS
10
0.012390905511811
20
0.123116062992126
11
0.008141811023622
21
0.1262520472440945
0
LINE
8
BLACK
6
CONTINUOUS
10
0.008141811023622
20
0.1262520472440945
11
0.0050058267716535
21
0.1305011417322835
0
LINE
8
BLACK
6
CONTINUOUS
10
0.0050058267716535
20
0.1305011417322835
11
0.0032616141732283
21
0.1354858267716536
0
LINE
8
BLACK
6
CONTINUOUS
10
0.0032616141732283
20
0.1354858267716536
11
0.0029527559055118
21
0.1387795275590551
0
LINE
8
BLACK
6
CONTINUOUS
10
0.0029527559055118
20
0.1387795275590551
11
0.0029527559055118
21
0.1584645669291339
0
LINE
8
BLACK
6
CONTINUOUS
10
0.0029527559055118
20
0.1584645669291339
11
0.0032616141732283
21
0.1617582677165354
0
LINE
8
BLACK
6
CONTINUOUS
10
0.0032616141732283
20
0.1617582677165354
11
0.0050058267716535
21
0.1667429527559055
0
LINE
8
BLACK
6
CONTINUOUS
10
0.0050058267716535
20
0.1667429527559055
11
0.008141811023622
21
0.1709920472440945
0
LINE
8
BLACK
6
CONTINUOUS
10
0.008141811023622
20
0.1709920472440945
11
0.012390905511811
21
0.174128031496063
0
LINE
8
BLACK
6
CONTINUOUS
10
0.012390905511811
20
0.174128031496063
11
0.0173755905511811
21
0.1758722440944882
0
LINE
8
BLACK
6
CONTINUOUS
10
0.0173755905511811
20
0.1758722440944882
11
0.0206692913385827
21
0.1761811023622047
0
LINE
8
BLACK
6
CONTINUOUS
10
0.0206692913385827
20
0.1761811023622047
11
0.1072834645669291
21
0.1761811023622047
0
LINE
8
BLACK
6
CONTINUOUS
10
0.1072834645669291
20
0.1761811023622047
11
0.1105771653543307
21
0.1758722440944882
0
LINE
8
BLACK
6
CONTINUOUS
10
0.5758479133858267
20
0.3482195275590551
11
0.5784024015748032
21
0.3465126377952756
0
LINE
8
BLACK
6
CONTINUOUS
10
0.5784024015748032
20
0.3465126377952756
11
0.5801092913385827
21
0.3439581496062992
0
LINE
8
BLACK
6
CONTINUOUS
10
0.5801092913385827
20
0.3439581496062992
11
0.5807086614173228
21
0.3409448818897638
0
LINE
8
BLACK
6
CONTINUOUS
10
0.5807086614173228
20
0.3409448818897638
11
0.5807086614173228
21
0.3015748031496063
0
LINE
8
BLACK
6
CONTINUOUS
10
0.5807086614173228
20
0.3015748031496063
11
0.5801092913385827
21
0.2985615354330708
0
LINE
8
BLACK
6
CONTINUOUS
10
0.5801092913385827
20
0.2985615354330708
11
0.5784024015748032
21
0.2960070472440945
0
LINE
8
BLACK
6
CONTINUOUS
10
0.5784024015748032
20
0.2960070472440945
11
0.5778968897637795
21
0.2956692913385827
0
LINE
8
BLACK
6
CONTINUOUS
10
0.5778968897637795
20
0.2956692913385827
11
0.5784024015748032
21
0.2953315354330708
0
LINE
8
BLACK
6
CONTINUOUS
10
0.5784024015748032
20
0.2953315354330708
11
0.5801092913385827
21
0.2927770472440945
0
LINE
8
BLACK
6
CONTINUOUS
10
0.5801092913385827
20
0.2927770472440945
11
0.5807086614173228
21
0.2897637795275591
0
LINE
8
BLACK
6
CONTINUOUS
10
0.5807086614173228
20
0.2897637795275591
11
0.5807086614173228
21
0.2503937007874016
0
LINE
8
BLACK
6
CONTINUOUS
10
0.5807086614173228
20
0.2503937007874016
11
0.5801092913385827
21
0.2473804330708661
0
LINE
8
BLACK
6
CONTINUOUS
10
0.5801092913385827
20
0.2473804330708661
11
0.5784024015748032
21
0.2448259448818897
0
LINE
8
BLACK
6
CONTINUOUS
10
0.5784024015748032
20
0.2448259448818897
11
0.5778968897637795
21
0.2444881889763779
0
LINE
8
BLACK
6
CONTINUOUS
10
0.5778968897637795
20
0.2444881889763779
11
0.5784024015748032
21
0.2441504330708661
0
LINE
8
BLACK
6
CONTINUOUS
10
0.5784024015748032
20
0.2441504330708661
11
0.5801092913385827
21
0.2415959448818898
0
LINE
8
BLACK
6
CONTINUOUS
10
0.5801092913385827
20
0.2415959448818898
11
0.5807086614173228
21
0.2385826771653543
0
LINE
8
BLACK
6
CONTINUOUS
10
0.5807086614173228
20
0.2385826771653543
11
0.5807086614173228
21
0.1992125984251968
0
LINE
8
BLACK
6
CONTINUOUS
10
0.5807086614173228
20
0.1992125984251968
11
0.5801092913385827
21
0.1961993307086614
0
LINE
8
BLACK
6
CONTINUOUS
10
0.5801092913385827
20
0.1961993307086614
11
0.5784024015748032
21
0.193644842519685
0
LINE
8
BLACK
6
CONTINUOUS
10
0.5784024015748032
20
0.193644842519685
11
0.5758479133858267
21
0.1919379527559055
0
LINE
8
BLACK
6
CONTINUOUS
10
0.5758479133858267
20
0.1919379527559055
11
0.5728346456692913
21
0.1913385826771654
0
LINE
8
BLACK
6
CONTINUOUS
10
0.5728346456692913
20
0.1913385826771654
11
0.5137795275590551
21
0.1913385826771654
0
LINE
8
BLACK
6
CONTINUOUS
10
0.5137795275590551
20
0.1913385826771654
11
0.5107662598425197
21
0.1919379527559055
0
LINE
8
BLACK
6
CONTINUOUS
10
0.5107662598425197
20
0.1919379527559055
11
0.5082117716535433
21
0.193644842519685
0
LINE
8
BLACK
6
CONTINUOUS
10
0.5082117716535433
20
0.193644842519685
11
0.5065048818897637
21
0.1961993307086614
0
LINE
8
BLACK
6
CONTINUOUS
10
0.5065048818897637
20
0.1961993307086614
11
0.5059055118110236
21
0.1992125984251968
0
LINE
8
BLACK
6
CONTINUOUS
10
0.5059055118110236
20
0.1992125984251968
11
0.5059055118110236
21
0.2385826771653543
0
LINE
8
BLACK
6
CONTINUOUS
10
0.5059055118110236
20
0.2385826771653543
11
0.5065048818897637
21
0.2415959448818898
0
LINE
8
BLACK
6
CONTINUOUS
10
0.5065048818897637
20
0.2415959448818898
11
0.5082117716535433
21
0.2441504330708661
0
LINE
8
BLACK
6
CONTINUOUS
10
0.5082117716535433
20
0.2441504330708661
11
0.5087172440944882
21
0.2444881889763779
0
LINE
8
BLACK
6
CONTINUOUS
10
0.5087172440944882
20
0.2444881889763779
11
0.5082117716535433
21
0.2448259448818897
0
LINE
8
BLACK
6
CONTINUOUS
10
0.5082117716535433
20
0.2448259448818897
11
0.5065048818897637
21
0.2473804330708661
0
LINE
8
BLACK
6
CONTINUOUS
10
0.5065048818897637
20
0.2473804330708661
11
0.5059055118110236
21
0.2503937007874016
0
LINE
8
BLACK
6
CONTINUOUS
10
0.5059055118110236
20
0.2503937007874016
11
0.5059055118110236
21
0.2897637795275591
0
LINE
8
BLACK
6
CONTINUOUS
10
0.5059055118110236
20
0.2897637795275591
11
0.5065048818897637
21
0.2927770472440945
0
LINE
8
BLACK
6
CONTINUOUS
10
0.5065048818897637
20
0.2927770472440945
11
0.5082117716535433
21
0.2953315354330708
0
LINE
8
BLACK
6
CONTINUOUS
10
0.5082117716535433
20
0.2953315354330708
11
0.5087172440944882
21
0.2956692913385827
0
LINE
8
BLACK
6
CONTINUOUS
10
0.5087172440944882
20
0.2956692913385827
11
0.5082117716535433
21
0.2960070472440945
0
LINE
8
BLACK
6
CONTINUOUS
10
0.5082117716535433
20
0.2960070472440945
11
0.5065048818897637
21
0.2985615354330708
0
LINE
8
BLACK
6
CONTINUOUS
10
0.5065048818897637
20
0.2985615354330708
11
0.5059055118110236
21
0.3015748031496063
0
LINE
8
BLACK
6
CONTINUOUS
10
0.5059055118110236
20
0.3015748031496063
11
0.5059055118110236
21
0.3409448818897638
0
LINE
8
BLACK
6
CONTINUOUS
10
0.5059055118110236
20
0.3409448818897638
11
0.5065048818897637
21
0.3439581496062992
0
LINE
8
BLACK
6
CONTINUOUS
10
0.5065048818897637
20
0.3439581496062992
11
0.5082117716535433
21
0.3465126377952756
0
LINE
8
BLACK
6
CONTINUOUS
10
0.5082117716535433
20
0.3465126377952756
11
0.5107662598425197
21
0.3482195275590551
0
LINE
8
BLACK
6
CONTINUOUS
10
0.5107662598425197
20
0.3482195275590551
11
0.5137795275590551
21
0.3488188976377953
0
LINE
8
BLACK
6
CONTINUOUS
10
0.5137795275590551
20
0.3488188976377953
11
0.5728346456692913
21
0.3488188976377953
0
LINE
8
BLACK
6
CONTINUOUS
10
0.5728346456692913
20
0.3488188976377953
11
0.5758479133858267
21
0.3482195275590551
0
LINE
8
BLACK
6
CONTINUOUS
10
0.2214514960629921
20
0.2405688976377953
11
0.2255266535433071
21
0.2385766535433071
0
LINE
8
BLACK
6
CONTINUOUS
10
0.2255266535433071
20
0.2385766535433071
11
0.2287341338582677
21
0.2353691732283464
0
LINE
8
BLACK
6
CONTINUOUS
10
0.2287341338582677
20
0.2353691732283464
11
0.2307263779527559
21
0.2312940157480315
0
LINE
8
BLACK
6
CONTINUOUS
10
0.2307263779527559
20
0.2312940157480315
11
0.2312992125984252
21
0.2273622047244094
0
LINE
8
BLACK
6
CONTINUOUS
10
0.2312992125984252
20
0.2273622047244094
11
0.2312992125984252
21
0.2155511811023622
0
LINE
8
BLACK
6
CONTINUOUS
10
0.2312992125984252
20
0.2155511811023622
11
0.2307263779527559
21
0.2116193700787402
0
LINE
8
BLACK
6
CONTINUOUS
10
0.2307263779527559
20
0.2116193700787402
11
0.2287341338582677
21
0.2075442125984252
0
LINE
8
BLACK
6
CONTINUOUS
10
0.2287341338582677
20
0.2075442125984252
11
0.2255266535433071
21
0.2043367322834646
0
LINE
8
BLACK
6
CONTINUOUS
10
0.2255266535433071
20
0.2043367322834646
11
0.2214514960629921
21
0.2023444881889764
0
LINE
8
BLACK
6
CONTINUOUS
10
0.2214514960629921
20
0.2023444881889764
11
0.2175196850393701
21
0.2017716535433071
0
LINE
8
BLACK
6
CONTINUOUS
10
0.2175196850393701
20
0.2017716535433071
11
0.1624015748031496
21
0.2017716535433071
0
LINE
8
BLACK
6
CONTINUOUS
10
0.1624015748031496
20
0.2017716535433071
11
0.1584697637795276
21
0.2023444881889764
0
LINE
8
BLACK
6
CONTINUOUS
10
0.1584697637795276
20
0.2023444881889764
11
0.1543946062992126
21
0.2043367322834646
0
LINE
8
BLACK
6
CONTINUOUS
10
0.1543946062992126
20
0.2043367322834646
11
0.151187125984252
21
0.2075442125984252
0
LINE
8
BLACK
6
CONTINUOUS
10
0.151187125984252
20
0.2075442125984252
11
0.1491948818897638
21
0.2116193700787402
0
LINE
8
BLACK
6
CONTINUOUS
10
0.1491948818897638
20
0.2116193700787402
11
0.1486220472440945
21
0.2155511811023622
0
LINE
8
BLACK
6
CONTINUOUS
10
0.1486220472440945
20
0.2155511811023622
11
0.1486220472440945
21
0.2273622047244094
0
LINE
8
BLACK
6
CONTINUOUS
10
0.1486220472440945
20
0.2273622047244094
11
0.1491948818897638
21
0.2312940157480315
0
LINE
8
BLACK
6
CONTINUOUS
10
0.1491948818897638
20
0.2312940157480315
11
0.151187125984252
21
0.2353691732283464
0
LINE
8
BLACK
6
CONTINUOUS
10
0.151187125984252
20
0.2353691732283464
11
0.1543946062992126
21
0.2385766535433071
0
LINE
8
BLACK
6
CONTINUOUS
10
0.1543946062992126
20
0.2385766535433071
11
0.1584697637795276
21
0.2405688976377953
0
LINE
8
BLACK
6
CONTINUOUS
10
0.1584697637795276
20
0.2405688976377953
11
0.1624015748031496
21
0.2411417322834646
0
LINE
8
BLACK
6
CONTINUOUS
10
0.1624015748031496
20
0.2411417322834646
11
0.2175196850393701
21
0.2411417322834646
0
LINE
8
BLACK
6
CONTINUOUS
10
0.2175196850393701
20
0.2411417322834646
11
0.2214514960629921
21
0.2405688976377953
0
LINE
8
BLACK
6
CONTINUOUS
10
0.9736825590551181
20
0.2738100787401574
11
0.9762370472440944
21
0.272103188976378
0
LINE
8
BLACK
6
CONTINUOUS
10
0.9762370472440944
20
0.272103188976378
11
0.977943937007874
21
0.2695487007874016
0
LINE
8
BLACK
6
CONTINUOUS
10
0.977943937007874
20
0.2695487007874016
11
0.9785433070866142
21
0.2665354330708661
0
LINE
8
BLACK
6
CONTINUOUS
10
0.9785433070866142
20
0.2665354330708661
11
0.9785433070866142
21
0.2271653543307087
0
LINE
8
BLACK
6
CONTINUOUS
10
0.9785433070866142
20
0.2271653543307087
11
0.977943937007874
21
0.2241520866141732
0
LINE
8
BLACK
6
CONTINUOUS
10
0.977943937007874
20
0.2241520866141732
11
0.9762370472440944
21
0.2215975984251969
0
LINE
8
BLACK
6
CONTINUOUS
10
0.9762370472440944
20
0.2215975984251969
11
0.9736825590551181
21
0.2198907086614173
0
LINE
8
BLACK
6
CONTINUOUS
10
0.9736825590551181
20
0.2198907086614173
11
0.9706692913385827
21
0.2192913385826772
0
LINE
8
BLACK
6
CONTINUOUS
10
0.9706692913385827
20
0.2192913385826772
11
0.8718503937007874
21
0.2192913385826772
0
LINE
8
BLACK
6
CONTINUOUS
10
0.8718503937007874
20
0.2192913385826772
11
0.868837125984252
21
0.2198907086614173
0
LINE
8
BLACK
6
CONTINUOUS
10
0.868837125984252
20
0.2198907086614173
11
0.8662826377952756
21
0.2215975984251969
0
LINE
8
BLACK
6
CONTINUOUS
10
0.8662826377952756
20
0.2215975984251969
11
0.8645757480314961
21
0.2241520866141732
0
LINE
8
BLACK
6
CONTINUOUS
10
0.8645757480314961
20
0.2241520866141732
11
0.8639763779527558
21
0.2271653543307087
0
LINE
8
BLACK
6
CONTINUOUS
10
0.8639763779527558
20
0.2271653543307087
11
0.8639763779527558
21
0.2665354330708661
0
LINE
8
BLACK
6
CONTINUOUS
10
0.8639763779527558
20
0.2665354330708661
11
0.8645757480314961
21
0.2695487007874016
0
LINE
8
BLACK
6
CONTINUOUS
10
0.8645757480314961
20
0.2695487007874016
11
0.8662826377952756
21
0.272103188976378
0
LINE
8
BLACK
6
CONTINUOUS
10
0.8662826377952756
20
0.272103188976378
11
0.868837125984252
21
0.2738100787401574
0
LINE
8
BLACK
6
CONTINUOUS
10
0.868837125984252
20
0.2738100787401574
11
0.8718503937007874
21
0.2744094488188976
0
LINE
8
BLACK
6
CONTINUOUS
10
0.8718503937007874
20
0.2744094488188976
11
0.9706692913385827
21
0.2744094488188976
0
LINE
8
BLACK
6
CONTINUOUS
10
0.9706692913385827
20
0.2744094488188976
11
0.9736825590551181
21
0.2738100787401574
0
LINE
8
BLACK
6
CONTINUOUS
10
0.4734857086614173
20
0.3482195275590551
11
0.4760401968503937
21
0.3465126377952756
0
LINE
8
BLACK
6
CONTINUOUS
10
0.4760401968503937
20
0.3465126377952756
11
0.4777470866141732
21
0.3439581496062992
0
LINE
8
BLACK
6
CONTINUOUS
10
0.4777470866141732
20
0.3439581496062992
11
0.4783464566929134
21
0.3409448818897638
0
LINE
8
BLACK
6
CONTINUOUS
10
0.4783464566929134
20
0.3409448818897638
11
0.4783464566929134
21
0.3015748031496063
0
LINE
8
BLACK
6
CONTINUOUS
10
0.4783464566929134
20
0.3015748031496063
11
0.4777470866141732
21
0.2985615354330708
0
LINE
8
BLACK
6
CONTINUOUS
10
0.4777470866141732
20
0.2985615354330708
11
0.4760401968503937
21
0.2960070472440945
0
LINE
8
BLACK
6
CONTINUOUS
10
0.4760401968503937
20
0.2960070472440945
11
0.4755346850393701
21
0.2956692913385827
0
LINE
8
BLACK
6
CONTINUOUS
10
0.4755346850393701
20
0.2956692913385827
11
0.4760401968503937
21
0.2953315354330708
0
LINE
8
BLACK
6
CONTINUOUS
10
0.4760401968503937
20
0.2953315354330708
11
0.4777470866141732
21
0.2927770472440945
0
LINE
8
BLACK
6
CONTINUOUS
10
0.4777470866141732
20
0.2927770472440945
11
0.4783464566929134
21
0.2897637795275591
0
LINE
8
BLACK
6
CONTINUOUS
10
0.4783464566929134
20
0.2897637795275591
11
0.4783464566929134
21
0.2503937007874016
0
LINE
8
BLACK
6
CONTINUOUS
10
0.4783464566929134
20
0.2503937007874016
11
0.4777470866141732
21
0.2473804330708661
0
LINE
8
BLACK
6
CONTINUOUS
10
0.4777470866141732
20
0.2473804330708661
11
0.4760401968503937
21
0.2448259448818897
0
LINE
8
BLACK
6
CONTINUOUS
10
0.4760401968503937
20
0.2448259448818897
11
0.4734857086614173
21
0.2431190551181102
0
LINE
8
BLACK
6
CONTINUOUS
10
0.4734857086614173
20
0.2431190551181102
11
0.4704724409448819
21
0.2425196850393701
0
LINE
8
BLACK
6
CONTINUOUS
10
0.4704724409448819
20
0.2425196850393701
11
0.4114173228346457
21
0.2425196850393701
0
LINE
8
BLACK
6
CONTINUOUS
10
0.4114173228346457
20
0.2425196850393701
11
0.4084040551181102
21
0.2431190551181102
0
LINE
8
BLACK
6
CONTINUOUS
10
0.4084040551181102
20
0.2431190551181102
11
0.4058495669291339
21
0.2448259448818897
0
LINE
8
BLACK
6
CONTINUOUS
10
0.4058495669291339
20
0.2448259448818897
11
0.4041426771653543
21
0.2473804330708661
0
LINE
8
BLACK
6
CONTINUOUS
10
0.4041426771653543
20
0.2473804330708661
11
0.4035433070866142
21
0.2503937007874016
0
LINE
8
BLACK
6
CONTINUOUS
10
0.4035433070866142
20
0.2503937007874016
11
0.4035433070866142
21
0.2897637795275591
0
LINE
8
BLACK
6
CONTINUOUS
10
0.4035433070866142
20
0.2897637795275591
11
0.4041426771653543
21
0.2927770472440945
0
LINE
8
BLACK
6
CONTINUOUS
10
0.4041426771653543
20
0.2927770472440945
11
0.4058495669291339
21
0.2953315354330708
0
LINE
8
BLACK
6
CONTINUOUS
10
0.4058495669291339
20
0.2953315354330708
11
0.4063550393700787
21
0.2956692913385827
0
LINE
8
BLACK
6
CONTINUOUS
10
0.4063550393700787
20
0.2956692913385827
11
0.4058495669291339
21
0.2960070472440945
0
LINE
8
BLACK
6
CONTINUOUS
10
0.4058495669291339
20
0.2960070472440945
11
0.4041426771653543
21
0.2985615354330708
0
LINE
8
BLACK
6
CONTINUOUS
10
0.4041426771653543
20
0.2985615354330708
11
0.4035433070866142
21
0.3015748031496063
0
LINE
8
BLACK
6
CONTINUOUS
10
0.4035433070866142
20
0.3015748031496063
11
0.4035433070866142
21
0.3409448818897638
0
LINE
8
BLACK
6
CONTINUOUS
10
0.4035433070866142
20
0.3409448818897638
11
0.4041426771653543
21
0.3439581496062992
0
LINE
8
BLACK
6
CONTINUOUS
10
0.4041426771653543
20
0.3439581496062992
11
0.4058495669291339
21
0.3465126377952756
0
LINE
8
BLACK
6
CONTINUOUS
10
0.4058495669291339
20
0.3465126377952756
11
0.4084040551181102
21
0.3482195275590551
0
LINE
8
BLACK
6
CONTINUOUS
10
0.4084040551181102
20
0.3482195275590551
11
0.4114173228346457
21
0.3488188976377953
0
LINE
8
BLACK
6
CONTINUOUS
10
0.4114173228346457
20
0.3488188976377953
11
0.4704724409448819
21
0.3488188976377953
0
LINE
8
BLACK
6
CONTINUOUS
10
0.4704724409448819
20
0.3488188976377953
11
0.4734857086614173
21
0.3482195275590551
0
LINE
8
BLACK
6
CONTINUOUS
10
0.2214514960629921
20
0.2897814960629921
11
0.2255266535433071
21
0.2877892519685039
0
LINE
8
BLACK
6
CONTINUOUS
10
0.2255266535433071
20
0.2877892519685039
11
0.2287341338582677
21
0.2845817716535433
0
LINE
8
BLACK
6
CONTINUOUS
10
0.2287341338582677
20
0.2845817716535433
11
0.2307263779527559
21
0.2805066141732284
0
LINE
8
BLACK
6
CONTINUOUS
10
0.2307263779527559
20
0.2805066141732284
11
0.2312992125984252
21
0.2765748031496063
0
LINE
8
BLACK
6
CONTINUOUS
10
0.2312992125984252
20
0.2765748031496063
11
0.2312992125984252
21
0.264763779527559
0
LINE
8
BLACK
6
CONTINUOUS
10
0.2312992125984252
20
0.264763779527559
11
0.2307263779527559
21
0.260831968503937
0
LINE
8
BLACK
6
CONTINUOUS
10
0.2307263779527559
20
0.260831968503937
11
0.2287341338582677
21
0.256756811023622
0
LINE
8
BLACK
6
CONTINUOUS
10
0.2287341338582677
20
0.256756811023622
11
0.2255266535433071
21
0.2535493307086614
0
LINE
8
BLACK
6
CONTINUOUS
10
0.2255266535433071
20
0.2535493307086614
11
0.2214514960629921
21
0.2515570866141732
0
LINE
8
BLACK
6
CONTINUOUS
10
0.2214514960629921
20
0.2515570866141732
11
0.2175196850393701
21
0.2509842519685039
0
LINE
8
BLACK
6
CONTINUOUS
10
0.2175196850393701
20
0.2509842519685039
11
0.1624015748031496
21
0.2509842519685039
0
LINE
8
BLACK
6
CONTINUOUS
10
0.1624015748031496
20
0.2509842519685039
11
0.1584697637795276
21
0.2515570866141732
0
LINE
8
BLACK
6
CONTINUOUS
10
0.1584697637795276
20
0.2515570866141732
11
0.1543946062992126
21
0.2535493307086614
0
LINE
8
BLACK
6
CONTINUOUS
10
0.1543946062992126
20
0.2535493307086614
11
0.151187125984252
21
0.256756811023622
0
LINE
8
BLACK
6
CONTINUOUS
10
0.151187125984252
20
0.256756811023622
11
0.1491948818897638
21
0.260831968503937
0
LINE
8
BLACK
6
CONTINUOUS
10
0.1491948818897638
20
0.260831968503937
11
0.1486220472440945
21
0.264763779527559
0
LINE
8
BLACK
6
CONTINUOUS
10
0.1486220472440945
20
0.264763779527559
11
0.1486220472440945
21
0.2765748031496063
0
LINE
8
BLACK
6
CONTINUOUS
10
0.1486220472440945
20
0.2765748031496063
11
0.1491948818897638
21
0.2805066141732284
0
LINE
8
BLACK
6
CONTINUOUS
10
0.1491948818897638
20
0.2805066141732284
11
0.151187125984252
21
0.2845817716535433
0
LINE
8
BLACK
6
CONTINUOUS
10
0.151187125984252
20
0.2845817716535433
11
0.1543946062992126
21
0.2877892519685039
0
LINE
8
BLACK
6
CONTINUOUS
10
0.1543946062992126
20
0.2877892519685039
11
0.1584697637795276
21
0.2897814960629921
0
LINE
8
BLACK
6
CONTINUOUS
10
0.1584697637795276
20
0.2897814960629921
11
0.1624015748031496
21
0.2903543307086614
0
LINE
8
BLACK
6
CONTINUOUS
10
0.1624015748031496
20
0.2903543307086614
11
0.2175196850393701
21
0.2903543307086614
0
LINE
8
BLACK
6
CONTINUOUS
10
0.2175196850393701
20
0.2903543307086614
11
0.2214514960629921
21
0.2897814960629921
0
LINE
8
BLACK
6
CONTINUOUS
10
0.2214514960629921
20
0.338994094488189
11
0.2255266535433071
21
0.3370018503937008
0
LINE
8
BLACK
6
CONTINUOUS
10
0.2255266535433071
20
0.3370018503937008
11
0.2287341338582677
21
0.3337943700787401
0
LINE
8
BLACK
6
CONTINUOUS
10
0.2287341338582677
20
0.3337943700787401
11
0.2307263779527559
21
0.3297192125984252
0
LINE
8
BLACK
6
CONTINUOUS
10
0.2307263779527559
20
0.3297192125984252
11
0.2312992125984252
21
0.3257874015748031
0
LINE
8
BLACK
6
CONTINUOUS
10
0.2312992125984252
20
0.3257874015748031
11
0.2312992125984252
21
0.3139763779527559
0
LINE
8
BLACK
6
CONTINUOUS
10
0.2312992125984252
20
0.3139763779527559
11
0.2307263779527559
21
0.3100445669291338
0
LINE
8
BLACK
6
CONTINUOUS
10
0.2307263779527559
20
0.3100445669291338
11
0.2287341338582677
21
0.3059694094488189
0
LINE
8
BLACK
6
CONTINUOUS
10
0.2287341338582677
20
0.3059694094488189
11
0.2255266535433071
21
0.3027619291338582
0
LINE
8
BLACK
6
CONTINUOUS
10
0.2255266535433071
20
0.3027619291338582
11
0.2214514960629921
21
0.3007696850393701
0
LINE
8
BLACK
6
CONTINUOUS
10
0.2214514960629921
20
0.3007696850393701
11
0.2175196850393701
21
0.3001968503937008
0
LINE
8
BLACK
6
CONTINUOUS
10
0.2175196850393701
20
0.3001968503937008
11
0.1624015748031496
21
0.3001968503937008
0
LINE
8
BLACK
6
CONTINUOUS
10
0.1624015748031496
20
0.3001968503937008
11
0.1584697637795276
21
0.3007696850393701
0
LINE
8
BLACK
6
CONTINUOUS
10
0.1584697637795276
20
0.3007696850393701
11
0.1543946062992126
21
0.3027619291338582
0
LINE
8
BLACK
6
CONTINUOUS
10
0.1543946062992126
20
0.3027619291338582
11
0.151187125984252
21
0.3059694094488189
0
LINE
8
BLACK
6
CONTINUOUS
10
0.151187125984252
20
0.3059694094488189
11
0.1491948818897638
21
0.3100445669291338
0
LINE
8
BLACK
6
CONTINUOUS
10
0.1491948818897638
20
0.3100445669291338
11
0.1486220472440945
21
0.3139763779527559
0
LINE
8
BLACK
6
CONTINUOUS
10
0.1486220472440945
20
0.3139763779527559
11
0.1486220472440945
21
0.3257874015748031
0
LINE
8
BLACK
6
CONTINUOUS
10
0.1486220472440945
20
0.3257874015748031
11
0.1491948818897638
21
0.3297192125984252
0
LINE
8
BLACK
6
CONTINUOUS
10
0.1491948818897638
20
0.3297192125984252
11
0.151187125984252
21
0.3337943700787401
0
LINE
8
BLACK
6
CONTINUOUS
10
0.151187125984252
20
0.3337943700787401
11
0.1543946062992126
21
0.3370018503937008
0
LINE
8
BLACK
6
CONTINUOUS
10
0.1543946062992126
20
0.3370018503937008
11
0.1584697637795276
21
0.338994094488189
0
LINE
8
BLACK
6
CONTINUOUS
10
0.1584697637795276
20
0.338994094488189
11
0.1624015748031496
21
0.3395669291338583
0
LINE
8
BLACK
6
CONTINUOUS
10
0.1624015748031496
20
0.3395669291338583
11
0.2175196850393701
21
0.3395669291338583
0
LINE
8
BLACK
6
CONTINUOUS
10
0.2175196850393701
20
0.3395669291338583
11
0.2214514960629921
21
0.338994094488189
0
LINE
8
BLACK
6
CONTINUOUS
10
0.9736825590551181
20
0.3738100787401575
11
0.9762370472440944
21
0.372103188976378
0
LINE
8
BLACK
6
CONTINUOUS
10
0.9762370472440944
20
0.372103188976378
11
0.977943937007874
21
0.3695487007874015
0
LINE
8
BLACK
6
CONTINUOUS
10
0.977943937007874
20
0.3695487007874015
11
0.9785433070866142
21
0.3665354330708661
0
LINE
8
BLACK
6
CONTINUOUS
10
0.9785433070866142
20
0.3665354330708661
11
0.9785433070866142
21
0.3271653543307086
0
LINE
8
BLACK
6
CONTINUOUS
10
0.9785433070866142
20
0.3271653543307086
11
0.977943937007874
21
0.3241520866141732
0
LINE
8
BLACK
6
CONTINUOUS
10
0.977943937007874
20
0.3241520866141732
11
0.9762370472440944
21
0.3215975984251969
0
LINE
8
BLACK
6
CONTINUOUS
10
0.9762370472440944
20
0.3215975984251969
11
0.9736825590551181
21
0.3198907086614173
0
LINE
8
BLACK
6
CONTINUOUS
10
0.9736825590551181
20
0.3198907086614173
11
0.9706692913385827
21
0.3192913385826772
0
LINE
8
BLACK
6
CONTINUOUS
10
0.9706692913385827
20
0.3192913385826772
11
0.8718503937007874
21
0.3192913385826772
0
LINE
8
BLACK
6
CONTINUOUS
10
0.8718503937007874
20
0.3192913385826772
11
0.868837125984252
21
0.3198907086614173
0
LINE
8
BLACK
6
CONTINUOUS
10
0.868837125984252
20
0.3198907086614173
11
0.8662826377952756
21
0.3215975984251969
0
LINE
8
BLACK
6
CONTINUOUS
10
0.8662826377952756
20
0.3215975984251969
11
0.8645757480314961
21
0.3241520866141732
0
LINE
8
BLACK
6
CONTINUOUS
10
0.8645757480314961
20
0.3241520866141732
11
0.8639763779527558
21
0.3271653543307086
0
LINE
8
BLACK
6
CONTINUOUS
10
0.8639763779527558
20
0.3271653543307086
11
0.8639763779527558
21
0.3665354330708661
0
LINE
8
BLACK
6
CONTINUOUS
10
0.8639763779527558
20
0.3665354330708661
11
0.8645757480314961
21
0.3695487007874015
0
LINE
8
BLACK
6
CONTINUOUS
10
0.8645757480314961
20
0.3695487007874015
11
0.8662826377952756
21
0.372103188976378
0
LINE
8
BLACK
6
CONTINUOUS
10
0.8662826377952756
20
0.372103188976378
11
0.868837125984252
21
0.3738100787401575
0
LINE
8
BLACK
6
CONTINUOUS
10
0.868837125984252
20
0.3738100787401575
11
0.8718503937007874
21
0.3744094488188976
0
LINE
8
BLACK
6
CONTINUOUS
10
0.8718503937007874
20
0.3744094488188976
11
0.9706692913385827
21
0.3744094488188976
0
LINE
8
BLACK
6
CONTINUOUS
10
0.9706692913385827
20
0.3744094488188976
11
0.9736825590551181
21
0.3738100787401575
0
LINE
8
BLACK
6
CONTINUOUS
10
0.2214514960629921
20
0.3882066929133858
11
0.2255266535433071
21
0.3862144488188976
0
LINE
8
BLACK
6
CONTINUOUS
10
0.2255266535433071
20
0.3862144488188976
11
0.2287341338582677
21
0.383006968503937
0
LINE
8
BLACK
6
CONTINUOUS
10
0.2287341338582677
20
0.383006968503937
11
0.2307263779527559
21
0.3789318110236221
0
LINE
8
BLACK
6
CONTINUOUS
10
0.2307263779527559
20
0.3789318110236221
11
0.2312992125984252
21
0.375
0
LINE
8
BLACK
6
CONTINUOUS
10
0.2312992125984252
20
0.375
11
0.2312992125984252
21
0.3631889763779527
0
LINE
8
BLACK
6
CONTINUOUS
10
0.2312992125984252
20
0.3631889763779527
11
0.2307263779527559
21
0.3592571653543307
0
LINE
8
BLACK
6
CONTINUOUS
10
0.2307263779527559
20
0.3592571653543307
11
0.2287341338582677
21
0.3551820078740157
0
LINE
8
BLACK
6
CONTINUOUS
10
0.2287341338582677
20
0.3551820078740157
11
0.2255266535433071
21
0.3519745275590551
0
LINE
8
BLACK
6
CONTINUOUS
10
0.2255266535433071
20
0.3519745275590551
11
0.2214514960629921
21
0.3499822834645669
0
LINE
8
BLACK
6
CONTINUOUS
10
0.2214514960629921
20
0.3499822834645669
11
0.2175196850393701
21
0.3494094488188976
0
LINE
8
BLACK
6
CONTINUOUS
10
0.2175196850393701
20
0.3494094488188976
11
0.1624015748031496
21
0.3494094488188976
0
LINE
8
BLACK
6
CONTINUOUS
10
0.1624015748031496
20
0.3494094488188976
11
0.1584697637795276
21
0.3499822834645669
0
LINE
8
BLACK
6
CONTINUOUS
10
0.1584697637795276
20
0.3499822834645669
11
0.1543946062992126
21
0.3519745275590551
0
LINE
8
BLACK
6
CONTINUOUS
10
0.1543946062992126
20
0.3519745275590551
11
0.151187125984252
21
0.3551820078740157
0
LINE
8
BLACK
6
CONTINUOUS
10
0.151187125984252
20
0.3551820078740157
11
0.1491948818897638
21
0.3592571653543307
0
LINE
8
BLACK
6
CONTINUOUS
10
0.1491948818897638
20
0.3592571653543307
11
0.1486220472440945
21
0.3631889763779527
0
LINE
8
BLACK
6
CONTINUOUS
10
0.1486220472440945
20
0.3631889763779527
11
0.1486220472440945
21
0.375
0
LINE
8
BLACK
6
CONTINUOUS
10
0.1486220472440945
20
0.375
11
0.1491948818897638
21
0.3789318110236221
0
LINE
8
BLACK
6
CONTINUOUS
10
0.1491948818897638
20
0.3789318110236221
11
0.151187125984252
21
0.383006968503937
0
LINE
8
BLACK
6
CONTINUOUS
10
0.151187125984252
20
0.383006968503937
11
0.1543946062992126
21
0.3862144488188976
0
LINE
8
BLACK
6
CONTINUOUS
10
0.1543946062992126
20
0.3862144488188976
11
0.1584697637795276
21
0.3882066929133858
0
LINE
8
BLACK
6
CONTINUOUS
10
0.1584697637795276
20
0.3882066929133858
11
0.1624015748031496
21
0.3887795275590551
0
LINE
8
BLACK
6
CONTINUOUS
10
0.1624015748031496
20
0.3887795275590551
11
0.2175196850393701
21
0.3887795275590551
0
LINE
8
BLACK
6
CONTINUOUS
10
0.2175196850393701
20
0.3887795275590551
11
0.2214514960629921
21
0.3882066929133858
0
LINE
8
BLACK
6
CONTINUOUS
10
0.1105771653543307
20
0.4691793307086614
11
0.1155618503937008
21
0.4674351181102362
0
LINE
8
BLACK
6
CONTINUOUS
10
0.1155618503937008
20
0.4674351181102362
11
0.1198109448818898
21
0.4642991338582677
0
LINE
8
BLACK
6
CONTINUOUS
10
0.1198109448818898
20
0.4642991338582677
11
0.1229469291338583
21
0.4600500393700787
0
LINE
8
BLACK
6
CONTINUOUS
10
0.1229469291338583
20
0.4600500393700787
11
0.1246911417322835
21
0.4550653543307087
0
LINE
8
BLACK
6
CONTINUOUS
10
0.1246911417322835
20
0.4550653543307087
11
0.125
21
0.4517716535433071
0
LINE
8
BLACK
6
CONTINUOUS
10
0.125
20
0.4517716535433071
11
0.125
21
0.4320866141732284
0
LINE
8
BLACK
6
CONTINUOUS
10
0.125
20
0.4320866141732284
11
0.1246911417322835
21
0.4287929133858268
0
LINE
8
BLACK
6
CONTINUOUS
10
0.1246911417322835
20
0.4287929133858268
11
0.1229469291338583
21
0.4238082283464567
0
LINE
8
BLACK
6
CONTINUOUS
10
0.1229469291338583
20
0.4238082283464567
11
0.1198109448818898
21
0.4195591338582677
0
LINE
8
BLACK
6
CONTINUOUS
10
0.1198109448818898
20
0.4195591338582677
11
0.1155618503937008
21
0.4164231496062992
0
LINE
8
BLACK
6
CONTINUOUS
10
0.1155618503937008
20
0.4164231496062992
11
0.1105771653543307
21
0.414678937007874
0
LINE
8
BLACK
6
CONTINUOUS
10
0.1105771653543307
20
0.414678937007874
11
0.1072834645669291
21
0.4143700787401575
0
LINE
8
BLACK
6
CONTINUOUS
10
0.1072834645669291
20
0.4143700787401575
11
0.0206692913385827
21
0.4143700787401575
0
LINE
8
BLACK
6
CONTINUOUS
10
0.0206692913385827
20
0.4143700787401575
11
0.0173755905511811
21
0.414678937007874
0
LINE
8
BLACK
6
CONTINUOUS
10
0.0173755905511811
20
0.414678937007874
11
0.012390905511811
21
0.4164231496062992
0
LINE
8
BLACK
6
CONTINUOUS
10
0.012390905511811
20
0.4164231496062992
11
0.008141811023622
21
0.4195591338582677
0
LINE
8
BLACK
6
CONTINUOUS
10
0.008141811023622
20
0.4195591338582677
11
0.0050058267716535
21
0.4238082283464567
0
LINE
8
BLACK
6
CONTINUOUS
10
0.0050058267716535
20
0.4238082283464567
11
0.0032616141732283
21
0.4287929133858268
0
LINE
8
BLACK
6
CONTINUOUS
10
0.0032616141732283
20
0.4287929133858268
11
0.0029527559055118
21
0.4320866141732284
0
LINE
8
BLACK
6
CONTINUOUS
10
0.0029527559055118
20
0.4320866141732284
11
0.0029527559055118
21
0.4517716535433071
0
LINE
8
BLACK
6
CONTINUOUS
10
0.0029527559055118
20
0.4517716535433071
11
0.0032616141732283
21
0.4550653543307087
0
LINE
8
BLACK
6
CONTINUOUS
10
0.0032616141732283
20
0.4550653543307087
11
0.0050058267716535
21
0.4600500393700787
0
LINE
8
BLACK
6
CONTINUOUS
10
0.0050058267716535
20
0.4600500393700787
11
0.008141811023622
21
0.4642991338582677
0
LINE
8
BLACK
6
CONTINUOUS
10
0.008141811023622
20
0.4642991338582677
11
0.012390905511811
21
0.4674351181102362
0
LINE
8
BLACK
6
CONTINUOUS
10
0.012390905511811
20
0.4674351181102362
11
0.0173755905511811
21
0.4691793307086614
0
LINE
8
BLACK
6
CONTINUOUS
10
0.0173755905511811
20
0.4691793307086614
11
0.0206692913385827
21
0.469488188976378
0
LINE
8
BLACK
6
CONTINUOUS
10
0.0206692913385827
20
0.469488188976378
11
0.1072834645669291
21
0.469488188976378
0
LINE
8
BLACK
6
CONTINUOUS
10
0.1072834645669291
20
0.469488188976378
11
0.1105771653543307
21
0.4691793307086614
0
LINE
8
BLACK
6
CONTINUOUS
10
0.9736825590551181
20
0.4738100787401575
11
0.9762370472440944
21
0.4721031889763779
0
LINE
8
BLACK
6
CONTINUOUS
10
0.9762370472440944
20
0.4721031889763779
11
0.977943937007874
21
0.4695487007874016
0
LINE
8
BLACK
6
CONTINUOUS
10
0.977943937007874
20
0.4695487007874016
11
0.9785433070866142
21
0.4665354330708661
0
LINE
8
BLACK
6
CONTINUOUS
10
0.9785433070866142
20
0.4665354330708661
11
0.9785433070866142
21
0.4271653543307086
0
LINE
8
BLACK
6
CONTINUOUS
10
0.9785433070866142
20
0.4271653543307086
11
0.977943937007874
21
0.4241520866141732
0
LINE
8
BLACK
6
CONTINUOUS
10
0.977943937007874
20
0.4241520866141732
11
0.9762370472440944
21
0.4215975984251968
0
LINE
8
BLACK
6
CONTINUOUS
10
0.9762370472440944
20
0.4215975984251968
11
0.9736825590551181
21
0.4198907086614173
0
LINE
8
BLACK
6
CONTINUOUS
10
0.9736825590551181
20
0.4198907086614173
11
0.9706692913385827
21
0.4192913385826771
0
LINE
8
BLACK
6
CONTINUOUS
10
0.9706692913385827
20
0.4192913385826771
11
0.8718503937007874
21
0.4192913385826771
0
LINE
8
BLACK
6
CONTINUOUS
10
0.8718503937007874
20
0.4192913385826771
11
0.868837125984252
21
0.4198907086614173
0
LINE
8
BLACK
6
CONTINUOUS
10
0.868837125984252
20
0.4198907086614173
11
0.8662826377952756
21
0.4215975984251968
0
LINE
8
BLACK
6
CONTINUOUS
10
0.8662826377952756
20
0.4215975984251968
11
0.8645757480314961
21
0.4241520866141732
0
LINE
8
BLACK
6
CONTINUOUS
10
0.8645757480314961
20
0.4241520866141732
11
0.8639763779527558
21
0.4271653543307086
0
LINE
8
BLACK
6
CONTINUOUS
10
0.8639763779527558
20
0.4271653543307086
11
0.8639763779527558
21
0.4665354330708661
0
LINE
8
BLACK
6
CONTINUOUS
10
0.8639763779527558
20
0.4665354330708661
11
0.8645757480314961
21
0.4695487007874016
0
LINE
8
BLACK
6
CONTINUOUS
10
0.8645757480314961
20
0.4695487007874016
11
0.8662826377952756
21
0.4721031889763779
0
LINE
8
BLACK
6
CONTINUOUS
10
0.8662826377952756
20
0.4721031889763779
11
0.868837125984252
21
0.4738100787401575
0
LINE
8
BLACK
6
CONTINUOUS
10
0.868837125984252
20
0.4738100787401575
11
0.8718503937007874
21
0.4744094488188976
0
LINE
8
BLACK
6
CONTINUOUS
10
0.8718503937007874
20
0.4744094488188976
11
0.9706692913385827
21
0.4744094488188976
0
LINE
8
BLACK
6
CONTINUOUS
10
0.9706692913385827
20
0.4744094488188976
11
0.9736825590551181
21
0.4738100787401575
0
LINE
8
BLACK
6
CONTINUOUS
10
0.2919699606299213
20
0.5111525984251969
11
0.2945244488188976
21
0.5094457086614174
0
LINE
8
BLACK
6
CONTINUOUS
10
0.2945244488188976
20
0.5094457086614174
11
0.2962313385826771
21
0.506891220472441
0
LINE
8
BLACK
6
CONTINUOUS
10
0.2962313385826771
20
0.506891220472441
11
0.2968307086614173
21
0.5038779527559055
0
LINE
8
BLACK
6
CONTINUOUS
10
0.2968307086614173
20
0.5038779527559055
11
0.2968307086614173
21
0.4488779527559055
0
LINE
8
BLACK
6
CONTINUOUS
10
0.2968307086614173
20
0.4488779527559055
11
0.2962313385826771
21
0.44586468503937
0
LINE
8
BLACK
6
CONTINUOUS
10
0.2962313385826771
20
0.44586468503937
11
0.2945244488188976
21
0.4433101968503937
0
LINE
8
BLACK
6
CONTINUOUS
10
0.2945244488188976
20
0.4433101968503937
11
0.2919699606299213
21
0.4416033070866142
0
LINE
8
BLACK
6
CONTINUOUS
10
0.2919699606299213
20
0.4416033070866142
11
0.2889566929133858
21
0.441003937007874
0
LINE
8
BLACK
6
CONTINUOUS
10
0.2889566929133858
20
0.441003937007874
11
0.2539566929133858
21
0.441003937007874
0
LINE
8
BLACK
6
CONTINUOUS
10
0.2539566929133858
20
0.441003937007874
11
0.2509434251968504
21
0.4416033070866142
0
LINE
8
BLACK
6
CONTINUOUS
10
0.2509434251968504
20
0.4416033070866142
11
0.248388937007874
21
0.4433101968503937
0
LINE
8
BLACK
6
CONTINUOUS
10
0.248388937007874
20
0.4433101968503937
11
0.2466820472440945
21
0.44586468503937
0
LINE
8
BLACK
6
CONTINUOUS
10
0.2466820472440945
20
0.44586468503937
11
0.2460826771653543
21
0.4488779527559055
0
LINE
8
BLACK
6
CONTINUOUS
10
0.2460826771653543
20
0.4488779527559055
11
0.2460826771653543
21
0.5038779527559055
0
LINE
8
BLACK
6
CONTINUOUS
10
0.2460826771653543
20
0.5038779527559055
11
0.2466820472440945
21
0.506891220472441
0
LINE
8
BLACK
6
CONTINUOUS
10
0.2466820472440945
20
0.506891220472441
11
0.248388937007874
21
0.5094457086614174
0
LINE
8
BLACK
6
CONTINUOUS
10
0.248388937007874
20
0.5094457086614174
11
0.2509434251968504
21
0.5111525984251969
0
LINE
8
BLACK
6
CONTINUOUS
10
0.2509434251968504
20
0.5111525984251969
11
0.2539566929133858
21
0.511751968503937
0
LINE
8
BLACK
6
CONTINUOUS
10
0.2539566929133858
20
0.511751968503937
11
0.2889566929133858
21
0.511751968503937
0
LINE
8
BLACK
6
CONTINUOUS
10
0.2889566929133858
20
0.511751968503937
11
0.2919699606299213
21
0.5111525984251969
0
LINE
8
BLACK
6
CONTINUOUS
10
0.3669699606299213
20
0.5111525984251969
11
0.3695244488188976
21
0.5094457086614174
0
LINE
8
BLACK
6
CONTINUOUS
10
0.3695244488188976
20
0.5094457086614174
11
0.3712313385826772
21
0.506891220472441
0
LINE
8
BLACK
6
CONTINUOUS
10
0.3712313385826772
20
0.506891220472441
11
0.3718307086614173
21
0.5038779527559055
0
LINE
8
BLACK
6
CONTINUOUS
10
0.3718307086614173
20
0.5038779527559055
11
0.3718307086614173
21
0.4488779527559055
0
LINE
8
BLACK
6
CONTINUOUS
10
0.3718307086614173
20
0.4488779527559055
11
0.3712313385826772
21
0.44586468503937
0
LINE
8
BLACK
6
CONTINUOUS
10
0.3712313385826772
20
0.44586468503937
11
0.3695244488188976
21
0.4433101968503937
0
LINE
8
BLACK
6
CONTINUOUS
10
0.3695244488188976
20
0.4433101968503937
11
0.3669699606299213
21
0.4416033070866142
0
LINE
8
BLACK
6
CONTINUOUS
10
0.3669699606299213
20
0.4416033070866142
11
0.3639566929133858
21
0.441003937007874
0
LINE
8
BLACK
6
CONTINUOUS
10
0.3639566929133858
20
0.441003937007874
11
0.3289566929133858
21
0.441003937007874
0
LINE
8
BLACK
6
CONTINUOUS
10
0.3289566929133858
20
0.441003937007874
11
0.3259434251968504
21
0.4416033070866142
0
LINE
8
BLACK
6
CONTINUOUS
10
0.3259434251968504
20
0.4416033070866142
11
0.323388937007874
21
0.4433101968503937
0
LINE
8
BLACK
6
CONTINUOUS
10
0.323388937007874
20
0.4433101968503937
11
0.3216820472440945
21
0.44586468503937
0
LINE
8
BLACK
6
CONTINUOUS
10
0.3216820472440945
20
0.44586468503937
11
0.3210826771653543
21
0.4488779527559055
0
LINE
8
BLACK
6
CONTINUOUS
10
0.3210826771653543
20
0.4488779527559055
11
0.3210826771653543
21
0.5038779527559055
0
LINE
8
BLACK
6
CONTINUOUS
10
0.3210826771653543
20
0.5038779527559055
11
0.3216820472440945
21
0.506891220472441
0
LINE
8
BLACK
6
CONTINUOUS
10
0.3216820472440945
20
0.506891220472441
11
0.323388937007874
21
0.5094457086614174
0
LINE
8
BLACK
6
CONTINUOUS
10
0.323388937007874
20
0.5094457086614174
11
0.3259434251968504
21
0.5111525984251969
0
LINE
8
BLACK
6
CONTINUOUS
10
0.3259434251968504
20
0.5111525984251969
11
0.3289566929133858
21
0.511751968503937
0
LINE
8
BLACK
6
CONTINUOUS
10
0.3289566929133858
20
0.511751968503937
11
0.3639566929133858
21
0.511751968503937
0
LINE
8
BLACK
6
CONTINUOUS
10
0.3639566929133858
20
0.511751968503937
11
0.3669699606299213
21
0.5111525984251969
  0
ENDSEC
  0
EOF
