  0
SECTION
  2
HEADER
  9
$ANGBASE
  50
0.0
  9
$ANGDIR
  70
1
  9
$MEASUREMENT
  70
0
  0
ENDSEC
  0
SECTION
  2
TABLES
  0
TABLE
  2
LTYPE
  70
4
  0
LTYPE
  5
40F
  2
CONTINUOUS
  70
0
  3
Solid line
  72
65
  73
0
  40
0.0
  0
LTYPE
  5
410
  2
DASHDOT
 70
0
  3
Dash Dot ____ _ ____ _
 72
65
 73
4
 40
2.0
 49
1.25
 49
-0.25
 49
0.25
 49
-0.25
  0
LTYPE
  5
411
  2
DASHED
 70
0
  3
Dashed __ __ __ __ __
 72
65
 73
2
 40
0.75
 49
0.5
 49
-0.25
  0
LTYPE
  5
43B
  2
DOTTED
 70
0
  3
Dotted .  .  .  .
 72
65
 73
2
 40
0.2
 49
0.0
 49
-0.2
  0
ENDTAB
  0
TABLE
  2
STYLE
  70
4
  0
STYLE
  2
KICAD
  70
0
  40
0
  41
1
  42
1
  50
0
  71
0
  3
isocp.shx
  0
STYLE
  2
KICADB
  70
0
  40
0
  41
1
  42
1
  50
0
  71
0
  3
isocp.shx
  0
STYLE
  2
KICADI
  70
0
  40
0
  41
1
  42
1
  50
15
  71
0
  3
isocp.shx
  0
STYLE
  2
KICADBI
  70
0
  40
0
  41
1
  42
1
  50
15
  71
0
  3
isocp.shx
  0
ENDTAB
  0
TABLE
  2
LAYER
  70
1
  0
LAYER
  2
BLACK
  70
0
  62
7
  6
CONTINUOUS
  0
ENDTAB
  0
ENDSEC
  0
SECTION
  2
ENTITIES
0
LINE
8
BLACK
6
CONTINUOUS
10
0.8386992519685039
20
0.1758044488188976
11
0.8399776771653543
21
0.1745260236220472
0
LINE
8
BLACK
6
CONTINUOUS
10
0.8399776771653543
20
0.1745260236220472
11
0.8401574803149606
21
0.1736220472440945
0
LINE
8
BLACK
6
CONTINUOUS
10
0.8401574803149606
20
0.1736220472440945
11
0.8401574803149606
21
0.087007874015748
0
LINE
8
BLACK
6
CONTINUOUS
10
0.8401574803149606
20
0.087007874015748
11
0.8399776771653543
21
0.0861038976377953
0
LINE
8
BLACK
6
CONTINUOUS
10
0.8399776771653543
20
0.0861038976377953
11
0.8386992519685039
21
0.0848254724409449
0
LINE
8
BLACK
6
CONTINUOUS
10
0.8386992519685039
20
0.0848254724409449
11
0.8377952755905511
21
0.0846456692913386
0
LINE
8
BLACK
6
CONTINUOUS
10
0.8377952755905511
20
0.0846456692913386
11
0.6881889763779527
21
0.0846456692913386
0
LINE
8
BLACK
6
CONTINUOUS
10
0.6881889763779527
20
0.0846456692913386
11
0.687285
21
0.0848254724409449
0
LINE
8
BLACK
6
CONTINUOUS
10
0.687285
20
0.0848254724409449
11
0.6860065748031496
21
0.0861038976377953
0
LINE
8
BLACK
6
CONTINUOUS
10
0.6860065748031496
20
0.0861038976377953
11
0.6858267716535433
21
0.087007874015748
0
LINE
8
BLACK
6
CONTINUOUS
10
0.6858267716535433
20
0.087007874015748
11
0.6858267716535433
21
0.1736220472440945
0
LINE
8
BLACK
6
CONTINUOUS
10
0.6858267716535433
20
0.1736220472440945
11
0.6860065748031496
21
0.1745260236220472
0
LINE
8
BLACK
6
CONTINUOUS
10
0.6860065748031496
20
0.1745260236220472
11
0.687285
21
0.1758044488188976
0
LINE
8
BLACK
6
CONTINUOUS
10
0.687285
20
0.1758044488188976
11
0.6881889763779527
21
0.1759842519685039
0
LINE
8
BLACK
6
CONTINUOUS
10
0.6881889763779527
20
0.1759842519685039
11
0.8377952755905511
21
0.1759842519685039
0
LINE
8
BLACK
6
CONTINUOUS
10
0.8377952755905511
20
0.1759842519685039
11
0.8386992519685039
21
0.1758044488188976
0
LINE
8
BLACK
6
CONTINUOUS
10
0.6905511811023622
20
0.171259842519685
11
0.6905511811023622
21
0.0893700787401575
0
LINE
8
BLACK
6
CONTINUOUS
10
0.6905511811023622
20
0.0893700787401575
11
0.8354330708661417
21
0.0893700787401575
0
LINE
8
BLACK
6
CONTINUOUS
10
0.8354330708661417
20
0.0893700787401575
11
0.8354330708661417
21
0.171259842519685
0
LINE
8
BLACK
6
CONTINUOUS
10
0.8354330708661417
20
0.171259842519685
11
0.6905511811023622
21
0.171259842519685
0
LINE
8
BLACK
6
CONTINUOUS
10
0.2243291732283464
20
0.2015918503937008
11
0.2256075984251968
21
0.2003134251968504
0
LINE
8
BLACK
6
CONTINUOUS
10
0.2256075984251968
20
0.2003134251968504
11
0.2256075984251968
21
0.1985054724409449
0
LINE
8
BLACK
6
CONTINUOUS
10
0.2256075984251968
20
0.1985054724409449
11
0.2243291732283464
21
0.1972270472440945
0
LINE
8
BLACK
6
CONTINUOUS
10
0.2243291732283464
20
0.1972270472440945
11
0.2234251968503937
21
0.1970472440944882
0
LINE
8
BLACK
6
CONTINUOUS
10
0.2234251968503937
20
0.1970472440944882
11
0.1868110236220472
21
0.1970472440944882
0
LINE
8
BLACK
6
CONTINUOUS
10
0.1868110236220472
20
0.1970472440944882
11
0.1868110236220472
21
0.1285433070866142
0
LINE
8
BLACK
6
CONTINUOUS
10
0.1868110236220472
20
0.1285433070866142
11
0.1866312204724409
21
0.1276393307086614
0
LINE
8
BLACK
6
CONTINUOUS
10
0.1866312204724409
20
0.1276393307086614
11
0.1853527952755905
21
0.126360905511811
0
LINE
8
BLACK
6
CONTINUOUS
10
0.1853527952755905
20
0.126360905511811
11
0.1844488188976378
21
0.1261811023622047
0
LINE
8
BLACK
6
CONTINUOUS
10
0.1844488188976378
20
0.1261811023622047
11
0.1273622047244095
21
0.1261811023622047
0
LINE
8
BLACK
6
CONTINUOUS
10
0.1273622047244095
20
0.1261811023622047
11
0.1264582283464567
21
0.126360905511811
0
LINE
8
BLACK
6
CONTINUOUS
10
0.1264582283464567
20
0.126360905511811
11
0.1251798031496063
21
0.1276393307086614
0
LINE
8
BLACK
6
CONTINUOUS
10
0.1251798031496063
20
0.1276393307086614
11
0.1251798031496063
21
0.1294472834645669
0
LINE
8
BLACK
6
CONTINUOUS
10
0.1251798031496063
20
0.1294472834645669
11
0.1264582283464567
21
0.1307257086614173
0
LINE
8
BLACK
6
CONTINUOUS
10
0.1264582283464567
20
0.1307257086614173
11
0.1273622047244095
21
0.1309055118110236
0
LINE
8
BLACK
6
CONTINUOUS
10
0.1273622047244095
20
0.1309055118110236
11
0.1820866141732284
21
0.1309055118110236
0
LINE
8
BLACK
6
CONTINUOUS
10
0.1820866141732284
20
0.1309055118110236
11
0.1820866141732284
21
0.1994094488188976
0
LINE
8
BLACK
6
CONTINUOUS
10
0.1820866141732284
20
0.1994094488188976
11
0.1822664173228346
21
0.2003134251968504
0
LINE
8
BLACK
6
CONTINUOUS
10
0.1822664173228346
20
0.2003134251968504
11
0.183544842519685
21
0.2015918503937008
0
LINE
8
BLACK
6
CONTINUOUS
10
0.183544842519685
20
0.2015918503937008
11
0.1844488188976378
21
0.2017716535433071
0
LINE
8
BLACK
6
CONTINUOUS
10
0.1844488188976378
20
0.2017716535433071
11
0.2234251968503937
21
0.2017716535433071
0
LINE
8
BLACK
6
CONTINUOUS
10
0.2234251968503937
20
0.2017716535433071
11
0.2243291732283464
21
0.2015918503937008
0
LINE
8
BLACK
6
CONTINUOUS
10
0.0185209842519685
20
0.4129118503937008
11
0.0187007874015748
21
0.412007874015748
0
LINE
8
BLACK
6
CONTINUOUS
10
0.0187007874015748
20
0.412007874015748
11
0.0187007874015748
21
0.1785433070866142
0
LINE
8
BLACK
6
CONTINUOUS
10
0.0187007874015748
20
0.1785433070866142
11
0.0185209842519685
21
0.1776393307086614
0
LINE
8
BLACK
6
CONTINUOUS
10
0.0185209842519685
20
0.1776393307086614
11
0.0172425590551181
21
0.176360905511811
0
LINE
8
BLACK
6
CONTINUOUS
10
0.0172425590551181
20
0.176360905511811
11
0.0154346062992126
21
0.176360905511811
0
LINE
8
BLACK
6
CONTINUOUS
10
0.0154346062992126
20
0.176360905511811
11
0.0141561811023622
21
0.1776393307086614
0
LINE
8
BLACK
6
CONTINUOUS
10
0.0141561811023622
20
0.1776393307086614
11
0.0139763779527559
21
0.1785433070866142
0
LINE
8
BLACK
6
CONTINUOUS
10
0.0139763779527559
20
0.1785433070866142
11
0.0139763779527559
21
0.412007874015748
0
LINE
8
BLACK
6
CONTINUOUS
10
0.0139763779527559
20
0.412007874015748
11
0.0141561811023622
21
0.4129118503937008
0
LINE
8
BLACK
6
CONTINUOUS
10
0.0141561811023622
20
0.4129118503937008
11
0.0154346062992126
21
0.4141902755905512
0
LINE
8
BLACK
6
CONTINUOUS
10
0.0154346062992126
20
0.4141902755905512
11
0.0172425590551181
21
0.4141902755905512
0
LINE
8
BLACK
6
CONTINUOUS
10
0.0172425590551181
20
0.4141902755905512
11
0.0185209842519685
21
0.4129118503937008
0
LINE
8
BLACK
6
CONTINUOUS
10
0.5835811417322835
20
0.3529698031496063
11
0.5848595669291339
21
0.3516913779527559
0
LINE
8
BLACK
6
CONTINUOUS
10
0.5848595669291339
20
0.3516913779527559
11
0.5850393700787402
21
0.3507874015748031
0
LINE
8
BLACK
6
CONTINUOUS
10
0.5850393700787402
20
0.3507874015748031
11
0.5850393700787402
21
0.1893700787401575
0
LINE
8
BLACK
6
CONTINUOUS
10
0.5850393700787402
20
0.1893700787401575
11
0.5848595669291339
21
0.1884661023622047
0
LINE
8
BLACK
6
CONTINUOUS
10
0.5848595669291339
20
0.1884661023622047
11
0.5835811417322835
21
0.1871876771653543
0
LINE
8
BLACK
6
CONTINUOUS
10
0.5835811417322835
20
0.1871876771653543
11
0.5826771653543307
21
0.187007874015748
0
LINE
8
BLACK
6
CONTINUOUS
10
0.5826771653543307
20
0.187007874015748
11
0.5039370078740157
21
0.187007874015748
0
LINE
8
BLACK
6
CONTINUOUS
10
0.5039370078740157
20
0.187007874015748
11
0.5030330314960629
21
0.1871876771653543
0
LINE
8
BLACK
6
CONTINUOUS
10
0.5030330314960629
20
0.1871876771653543
11
0.5017546062992125
21
0.1884661023622047
0
LINE
8
BLACK
6
CONTINUOUS
10
0.5017546062992125
20
0.1884661023622047
11
0.5015748031496063
21
0.1893700787401575
0
LINE
8
BLACK
6
CONTINUOUS
10
0.5015748031496063
20
0.1893700787401575
11
0.5015748031496063
21
0.3507874015748031
0
LINE
8
BLACK
6
CONTINUOUS
10
0.5015748031496063
20
0.3507874015748031
11
0.5017546062992125
21
0.3516913779527559
0
LINE
8
BLACK
6
CONTINUOUS
10
0.5017546062992125
20
0.3516913779527559
11
0.5030330314960629
21
0.3529698031496063
0
LINE
8
BLACK
6
CONTINUOUS
10
0.5030330314960629
20
0.3529698031496063
11
0.5039370078740157
21
0.3531496062992126
0
LINE
8
BLACK
6
CONTINUOUS
10
0.5039370078740157
20
0.3531496062992126
11
0.5826771653543307
21
0.3531496062992126
0
LINE
8
BLACK
6
CONTINUOUS
10
0.5826771653543307
20
0.3531496062992126
11
0.5835811417322835
21
0.3529698031496063
0
LINE
8
BLACK
6
CONTINUOUS
10
0.5062992125984251
20
0.3484251968503937
11
0.5062992125984251
21
0.1917322834645669
0
LINE
8
BLACK
6
CONTINUOUS
10
0.5062992125984251
20
0.1917322834645669
11
0.5803149606299213
21
0.1917322834645669
0
LINE
8
BLACK
6
CONTINUOUS
10
0.5803149606299213
20
0.1917322834645669
11
0.5803149606299213
21
0.3484251968503937
0
LINE
8
BLACK
6
CONTINUOUS
10
0.5803149606299213
20
0.3484251968503937
11
0.5062992125984251
21
0.3484251968503937
0
LINE
8
BLACK
6
CONTINUOUS
10
0.7429908267716535
20
0.2229437401574803
11
0.743507283464567
21
0.2226823622047244
0
LINE
8
BLACK
6
CONTINUOUS
10
0.743507283464567
20
0.2226823622047244
11
0.7634042913385827
21
0.2100206299212598
0
LINE
8
BLACK
6
CONTINUOUS
10
0.7634042913385827
20
0.2100206299212598
11
0.7812920866141733
21
0.2100206299212598
0
LINE
8
BLACK
6
CONTINUOUS
10
0.7812920866141733
20
0.2100206299212598
11
0.7818681496062992
21
0.2099638976377953
0
LINE
8
BLACK
6
CONTINUOUS
10
0.7818681496062992
20
0.2099638976377953
11
0.782932559055118
21
0.2095229921259842
0
LINE
8
BLACK
6
CONTINUOUS
10
0.782932559055118
20
0.2095229921259842
11
0.7837472047244094
21
0.2087083464566929
0
LINE
8
BLACK
6
CONTINUOUS
10
0.7837472047244094
20
0.2087083464566929
11
0.7841881102362205
21
0.207643937007874
0
LINE
8
BLACK
6
CONTINUOUS
10
0.7841881102362205
20
0.207643937007874
11
0.7841881102362205
21
0.206491811023622
0
LINE
8
BLACK
6
CONTINUOUS
10
0.7841881102362205
20
0.206491811023622
11
0.7837472047244094
21
0.2054274015748031
0
LINE
8
BLACK
6
CONTINUOUS
10
0.7837472047244094
20
0.2054274015748031
11
0.782932559055118
21
0.2046127559055118
0
LINE
8
BLACK
6
CONTINUOUS
10
0.782932559055118
20
0.2046127559055118
11
0.7818681496062992
21
0.2041718503937008
0
LINE
8
BLACK
6
CONTINUOUS
10
0.7818681496062992
20
0.2041718503937008
11
0.7812920866141733
21
0.2041151181102362
0
LINE
8
BLACK
6
CONTINUOUS
10
0.7812920866141733
20
0.2041151181102362
11
0.7634042913385827
21
0.2041151181102362
0
LINE
8
BLACK
6
CONTINUOUS
10
0.7634042913385827
20
0.2041151181102362
11
0.743507283464567
21
0.1914533858267717
0
LINE
8
BLACK
6
CONTINUOUS
10
0.743507283464567
20
0.1914533858267717
11
0.7429908267716535
21
0.1911920078740157
0
LINE
8
BLACK
6
CONTINUOUS
10
0.7429908267716535
20
0.1911920078740157
11
0.7418561023622047
21
0.1909925196850394
0
LINE
8
BLACK
6
CONTINUOUS
10
0.7418561023622047
20
0.1909925196850394
11
0.7407314566929134
21
0.1912424409448819
0
LINE
8
BLACK
6
CONTINUOUS
10
0.7407314566929134
20
0.1912424409448819
11
0.739788031496063
21
0.1919037401574803
0
LINE
8
BLACK
6
CONTINUOUS
10
0.739788031496063
20
0.1919037401574803
11
0.7391694881889763
21
0.1928757086614173
0
LINE
8
BLACK
6
CONTINUOUS
10
0.7391694881889763
20
0.1928757086614173
11
0.73897
21
0.1940104330708661
0
LINE
8
BLACK
6
CONTINUOUS
10
0.73897
20
0.1940104330708661
11
0.7392199212598425
21
0.1951350787401575
0
LINE
8
BLACK
6
CONTINUOUS
10
0.7392199212598425
20
0.1951350787401575
11
0.739881220472441
21
0.1960785039370079
0
LINE
8
BLACK
6
CONTINUOUS
10
0.739881220472441
20
0.1960785039370079
11
0.7403367322834645
21
0.1964356692913386
0
LINE
8
BLACK
6
CONTINUOUS
10
0.7403367322834645
20
0.1964356692913386
11
0.7570444881889764
21
0.207067874015748
0
LINE
8
BLACK
6
CONTINUOUS
10
0.7570444881889764
20
0.207067874015748
11
0.7403367322834645
21
0.2177000787401575
0
LINE
8
BLACK
6
CONTINUOUS
10
0.7403367322834645
20
0.2177000787401575
11
0.739881220472441
21
0.2180572440944882
0
LINE
8
BLACK
6
CONTINUOUS
10
0.739881220472441
20
0.2180572440944882
11
0.7392199212598425
21
0.2190006692913386
0
LINE
8
BLACK
6
CONTINUOUS
10
0.7392199212598425
20
0.2190006692913386
11
0.73897
21
0.2201253149606299
0
LINE
8
BLACK
6
CONTINUOUS
10
0.73897
20
0.2201253149606299
11
0.7391694881889763
21
0.2212600393700787
0
LINE
8
BLACK
6
CONTINUOUS
10
0.7391694881889763
20
0.2212600393700787
11
0.739788031496063
21
0.2222320078740157
0
LINE
8
BLACK
6
CONTINUOUS
10
0.739788031496063
20
0.2222320078740157
11
0.7407314566929134
21
0.2228933070866142
0
LINE
8
BLACK
6
CONTINUOUS
10
0.7407314566929134
20
0.2228933070866142
11
0.7418561023622047
21
0.2231432283464567
0
LINE
8
BLACK
6
CONTINUOUS
10
0.7418561023622047
20
0.2231432283464567
11
0.7429908267716535
21
0.2229437401574803
0
LINE
8
BLACK
6
CONTINUOUS
10
0.7818681496062992
20
0.256833031496063
11
0.782932559055118
21
0.256392125984252
0
LINE
8
BLACK
6
CONTINUOUS
10
0.782932559055118
20
0.256392125984252
11
0.7837472047244094
21
0.2555774803149606
0
LINE
8
BLACK
6
CONTINUOUS
10
0.7837472047244094
20
0.2555774803149606
11
0.7841881102362205
21
0.2545130708661417
0
LINE
8
BLACK
6
CONTINUOUS
10
0.7841881102362205
20
0.2545130708661417
11
0.7842448425196851
21
0.2539370078740157
0
LINE
8
BLACK
6
CONTINUOUS
10
0.7842448425196851
20
0.2539370078740157
11
0.7842448425196851
21
0.2445631889763779
0
LINE
8
BLACK
6
CONTINUOUS
10
0.7842448425196851
20
0.2445631889763779
11
0.7842161023622047
21
0.2442716141732283
0
LINE
8
BLACK
6
CONTINUOUS
10
0.7842161023622047
20
0.2442716141732283
11
0.7842216535433071
21
0.2441938582677165
0
LINE
8
BLACK
6
CONTINUOUS
10
0.7842216535433071
20
0.2441938582677165
11
0.7841983858267716
21
0.2440916141732283
0
LINE
8
BLACK
6
CONTINUOUS
10
0.7841983858267716
20
0.2440916141732283
11
0.7841881102362205
21
0.243987125984252
0
LINE
8
BLACK
6
CONTINUOUS
10
0.7841881102362205
20
0.243987125984252
11
0.7841582283464567
21
0.2439150787401575
0
LINE
8
BLACK
6
CONTINUOUS
10
0.7841582283464567
20
0.2439150787401575
11
0.7840933070866142
21
0.2436294094488189
0
LINE
8
BLACK
6
CONTINUOUS
10
0.7840933070866142
20
0.2436294094488189
11
0.7822185433070866
21
0.2380051574803149
0
LINE
8
BLACK
6
CONTINUOUS
10
0.7822185433070866
20
0.2380051574803149
11
0.781982559055118
21
0.2374765748031496
0
LINE
8
BLACK
6
CONTINUOUS
10
0.781982559055118
20
0.2374765748031496
11
0.7819130708661417
21
0.2373964960629921
0
LINE
8
BLACK
6
CONTINUOUS
10
0.7819130708661417
20
0.2373964960629921
11
0.7818724803149606
21
0.2372984251968504
0
LINE
8
BLACK
6
CONTINUOUS
10
0.7818724803149606
20
0.2372984251968504
11
0.7815052362204724
21
0.2368509842519685
0
LINE
8
BLACK
6
CONTINUOUS
10
0.7815052362204724
20
0.2368509842519685
11
0.7777556692913385
21
0.2331014566929134
0
LINE
8
BLACK
6
CONTINUOUS
10
0.7777556692913385
20
0.2331014566929134
11
0.7775292913385826
21
0.2329157086614173
0
LINE
8
BLACK
6
CONTINUOUS
10
0.7775292913385826
20
0.2329157086614173
11
0.7774781496062992
21
0.2328566929133858
0
LINE
8
BLACK
6
CONTINUOUS
10
0.7774781496062992
20
0.2328566929133858
11
0.7773892125984252
21
0.2328007480314961
0
LINE
8
BLACK
6
CONTINUOUS
10
0.7773892125984252
20
0.2328007480314961
11
0.777308188976378
21
0.2327342125984252
0
LINE
8
BLACK
6
CONTINUOUS
10
0.777308188976378
20
0.2327342125984252
11
0.7772361417322834
21
0.2327044094488189
0
LINE
8
BLACK
6
CONTINUOUS
10
0.7772361417322834
20
0.2327044094488189
11
0.7769882677165354
21
0.2325483464566929
0
LINE
8
BLACK
6
CONTINUOUS
10
0.7769882677165354
20
0.2325483464566929
11
0.7732387401574803
21
0.2306735826771653
0
LINE
8
BLACK
6
CONTINUOUS
10
0.7732387401574803
20
0.2306735826771653
11
0.7731966141732284
21
0.2306574803149606
0
LINE
8
BLACK
6
CONTINUOUS
10
0.7731966141732284
20
0.2306574803149606
11
0.7731794881889763
21
0.2306447637795276
0
LINE
8
BLACK
6
CONTINUOUS
10
0.7731794881889763
20
0.2306447637795276
11
0.7729375196850393
21
0.2305583464566929
0
LINE
8
BLACK
6
CONTINUOUS
10
0.7729375196850393
20
0.2305583464566929
11
0.7726981102362205
21
0.2304666929133858
0
LINE
8
BLACK
6
CONTINUOUS
10
0.7726981102362205
20
0.2304666929133858
11
0.7726768503937008
21
0.2304651968503937
0
LINE
8
BLACK
6
CONTINUOUS
10
0.7726768503937008
20
0.2304651968503937
11
0.7726343700787401
21
0.23045
0
LINE
8
BLACK
6
CONTINUOUS
10
0.7726343700787401
20
0.23045
11
0.7651353149606299
21
0.2285752362204724
0
LINE
8
BLACK
6
CONTINUOUS
10
0.7651353149606299
20
0.2285752362204724
11
0.7650354330708661
21
0.2285604724409449
0
LINE
8
BLACK
6
CONTINUOUS
10
0.7650354330708661
20
0.2285604724409449
11
0.7649952362204724
21
0.2285438188976378
0
LINE
8
BLACK
6
CONTINUOUS
10
0.7649952362204724
20
0.2285438188976378
11
0.7647781889763779
21
0.2285224803149606
0
LINE
8
BLACK
6
CONTINUOUS
10
0.7647781889763779
20
0.2285224803149606
11
0.7645627165354331
21
0.2284905905511811
0
LINE
8
BLACK
6
CONTINUOUS
10
0.7645627165354331
20
0.2284905905511811
11
0.7645196850393701
21
0.2284970078740158
0
LINE
8
BLACK
6
CONTINUOUS
10
0.7645196850393701
20
0.2284970078740158
11
0.7644191732283464
21
0.2284870866141732
0
LINE
8
BLACK
6
CONTINUOUS
10
0.7644191732283464
20
0.2284870866141732
11
0.7587948818897637
21
0.2284870866141732
0
LINE
8
BLACK
6
CONTINUOUS
10
0.7587948818897637
20
0.2284870866141732
11
0.7586943307086614
21
0.2284970078740158
0
LINE
8
BLACK
6
CONTINUOUS
10
0.7586943307086614
20
0.2284970078740158
11
0.7586513385826772
21
0.2284905905511811
0
LINE
8
BLACK
6
CONTINUOUS
10
0.7586513385826772
20
0.2284905905511811
11
0.7584358267716536
21
0.2285224803149606
0
LINE
8
BLACK
6
CONTINUOUS
10
0.7584358267716536
20
0.2285224803149606
11
0.7582188188976378
21
0.2285438188976378
0
LINE
8
BLACK
6
CONTINUOUS
10
0.7582188188976378
20
0.2285438188976378
11
0.7581785826771653
21
0.2285604724409449
0
LINE
8
BLACK
6
CONTINUOUS
10
0.7581785826771653
20
0.2285604724409449
11
0.7580787401574803
21
0.2285752362204724
0
LINE
8
BLACK
6
CONTINUOUS
10
0.7580787401574803
20
0.2285752362204724
11
0.7505796850393701
21
0.23045
0
LINE
8
BLACK
6
CONTINUOUS
10
0.7505796850393701
20
0.23045
11
0.7505371653543307
21
0.2304651968503937
0
LINE
8
BLACK
6
CONTINUOUS
10
0.7505371653543307
20
0.2304651968503937
11
0.750515905511811
21
0.2304666929133858
0
LINE
8
BLACK
6
CONTINUOUS
10
0.750515905511811
20
0.2304666929133858
11
0.7502761417322834
21
0.2305584645669291
0
LINE
8
BLACK
6
CONTINUOUS
10
0.7502761417322834
20
0.2305584645669291
11
0.7500345669291338
21
0.2306447637795276
0
LINE
8
BLACK
6
CONTINUOUS
10
0.7500345669291338
20
0.2306447637795276
11
0.7500174015748031
21
0.2306574803149606
0
LINE
8
BLACK
6
CONTINUOUS
10
0.7500174015748031
20
0.2306574803149606
11
0.7499753149606299
21
0.2306735826771653
0
LINE
8
BLACK
6
CONTINUOUS
10
0.7499753149606299
20
0.2306735826771653
11
0.7462257874015747
21
0.2325483464566929
0
LINE
8
BLACK
6
CONTINUOUS
10
0.7462257874015747
20
0.2325483464566929
11
0.7459779527559055
21
0.2327043700787401
0
LINE
8
BLACK
6
CONTINUOUS
10
0.7459779527559055
20
0.2327043700787401
11
0.7459058267716535
21
0.2327342125984252
0
LINE
8
BLACK
6
CONTINUOUS
10
0.7459058267716535
20
0.2327342125984252
11
0.7458246456692913
21
0.2328008267716535
0
LINE
8
BLACK
6
CONTINUOUS
10
0.7458246456692913
20
0.2328008267716535
11
0.745735905511811
21
0.2328566929133858
0
LINE
8
BLACK
6
CONTINUOUS
10
0.745735905511811
20
0.2328566929133858
11
0.7456847637795275
21
0.2329156299212598
0
LINE
8
BLACK
6
CONTINUOUS
10
0.7456847637795275
20
0.2329156299212598
11
0.7454583858267716
21
0.2331014566929134
0
LINE
8
BLACK
6
CONTINUOUS
10
0.7454583858267716
20
0.2331014566929134
11
0.7417088582677165
21
0.2368509842519685
0
LINE
8
BLACK
6
CONTINUOUS
10
0.7417088582677165
20
0.2368509842519685
11
0.7413416535433071
21
0.2372984251968504
0
LINE
8
BLACK
6
CONTINUOUS
10
0.7413416535433071
20
0.2372984251968504
11
0.7413010236220472
21
0.2373964960629921
0
LINE
8
BLACK
6
CONTINUOUS
10
0.7413010236220472
20
0.2373964960629921
11
0.7412315354330709
21
0.2374766141732284
0
LINE
8
BLACK
6
CONTINUOUS
10
0.7412315354330709
20
0.2374766141732284
11
0.7409955511811024
21
0.2380051574803149
0
LINE
8
BLACK
6
CONTINUOUS
10
0.7409955511811024
20
0.2380051574803149
11
0.7391207874015748
21
0.2436294488188976
0
LINE
8
BLACK
6
CONTINUOUS
10
0.7391207874015748
20
0.2436294488188976
11
0.7390558267716535
21
0.2439150393700787
0
LINE
8
BLACK
6
CONTINUOUS
10
0.7390558267716535
20
0.2439150393700787
11
0.7390259842519685
21
0.243987125984252
0
LINE
8
BLACK
6
CONTINUOUS
10
0.7390259842519685
20
0.243987125984252
11
0.7390156692913386
21
0.2440916535433071
0
LINE
8
BLACK
6
CONTINUOUS
10
0.7390156692913386
20
0.2440916535433071
11
0.7389924409448819
21
0.2441938976377953
0
LINE
8
BLACK
6
CONTINUOUS
10
0.7389924409448819
20
0.2441938976377953
11
0.7389979527559055
21
0.2442716535433071
0
LINE
8
BLACK
6
CONTINUOUS
10
0.7389979527559055
20
0.2442716535433071
11
0.7389692519685039
21
0.2445631889763779
0
LINE
8
BLACK
6
CONTINUOUS
10
0.7389692519685039
20
0.2445631889763779
11
0.7389692519685039
21
0.2539370078740157
0
LINE
8
BLACK
6
CONTINUOUS
10
0.7389692519685039
20
0.2539370078740157
11
0.7390259842519685
21
0.2545130708661417
0
LINE
8
BLACK
6
CONTINUOUS
10
0.7390259842519685
20
0.2545130708661417
11
0.7394668897637795
21
0.2555774803149606
0
LINE
8
BLACK
6
CONTINUOUS
10
0.7394668897637795
20
0.2555774803149606
11
0.7402815354330708
21
0.256392125984252
0
LINE
8
BLACK
6
CONTINUOUS
10
0.7402815354330708
20
0.256392125984252
11
0.7413459448818898
21
0.256833031496063
0
LINE
8
BLACK
6
CONTINUOUS
10
0.7413459448818898
20
0.256833031496063
11
0.7419220078740157
21
0.2568897637795275
0
LINE
8
BLACK
6
CONTINUOUS
10
0.7419220078740157
20
0.2568897637795275
11
0.7812920866141733
21
0.2568897637795275
0
LINE
8
BLACK
6
CONTINUOUS
10
0.7812920866141733
20
0.2568897637795275
11
0.7818681496062992
21
0.256833031496063
0
LINE
8
BLACK
6
CONTINUOUS
10
0.7448747637795275
20
0.2450423622047244
11
0.746377559055118
21
0.240533937007874
0
LINE
8
BLACK
6
CONTINUOUS
10
0.746377559055118
20
0.240533937007874
11
0.7492953937007873
21
0.2376161023622047
0
LINE
8
BLACK
6
CONTINUOUS
10
0.7492953937007873
20
0.2376161023622047
11
0.7523263779527559
21
0.2361006299212598
0
LINE
8
BLACK
6
CONTINUOUS
10
0.7523263779527559
20
0.2361006299212598
11
0.7591584251968504
21
0.2343925984251969
0
LINE
8
BLACK
6
CONTINUOUS
10
0.7591584251968504
20
0.2343925984251969
11
0.7640556299212599
21
0.2343925984251969
0
LINE
8
BLACK
6
CONTINUOUS
10
0.7640556299212599
20
0.2343925984251969
11
0.7708876771653543
21
0.2361006299212598
0
LINE
8
BLACK
6
CONTINUOUS
10
0.7708876771653543
20
0.2361006299212598
11
0.7739186614173228
21
0.2376161417322835
0
LINE
8
BLACK
6
CONTINUOUS
10
0.7739186614173228
20
0.2376161417322835
11
0.7768365354330709
21
0.2405339763779528
0
LINE
8
BLACK
6
CONTINUOUS
10
0.7768365354330709
20
0.2405339763779528
11
0.7783393307086613
21
0.2450423228346457
0
LINE
8
BLACK
6
CONTINUOUS
10
0.7783393307086613
20
0.2450423228346457
11
0.7783393307086613
21
0.2509842519685039
0
LINE
8
BLACK
6
CONTINUOUS
10
0.7783393307086613
20
0.2509842519685039
11
0.7448747637795275
21
0.2509842519685039
0
LINE
8
BLACK
6
CONTINUOUS
10
0.7448747637795275
20
0.2509842519685039
11
0.7448747637795275
21
0.2450423622047244
0
LINE
8
BLACK
6
CONTINUOUS
10
0.481218937007874
20
0.3529698031496063
11
0.4824973622047244
21
0.3516913779527559
0
LINE
8
BLACK
6
CONTINUOUS
10
0.4824973622047244
20
0.3516913779527559
11
0.4826771653543307
21
0.3507874015748031
0
LINE
8
BLACK
6
CONTINUOUS
10
0.4826771653543307
20
0.3507874015748031
11
0.4826771653543307
21
0.2405511811023622
0
LINE
8
BLACK
6
CONTINUOUS
10
0.4826771653543307
20
0.2405511811023622
11
0.4824973622047244
21
0.2396472047244095
0
LINE
8
BLACK
6
CONTINUOUS
10
0.4824973622047244
20
0.2396472047244095
11
0.481218937007874
21
0.2383687795275591
0
LINE
8
BLACK
6
CONTINUOUS
10
0.481218937007874
20
0.2383687795275591
11
0.4803149606299212
21
0.2381889763779527
0
LINE
8
BLACK
6
CONTINUOUS
10
0.4803149606299212
20
0.2381889763779527
11
0.4015748031496063
21
0.2381889763779527
0
LINE
8
BLACK
6
CONTINUOUS
10
0.4015748031496063
20
0.2381889763779527
11
0.4006708267716536
21
0.2383687795275591
0
LINE
8
BLACK
6
CONTINUOUS
10
0.4006708267716536
20
0.2383687795275591
11
0.3993924015748032
21
0.2396472047244095
0
LINE
8
BLACK
6
CONTINUOUS
10
0.3993924015748032
20
0.2396472047244095
11
0.3992125984251969
21
0.2405511811023622
0
LINE
8
BLACK
6
CONTINUOUS
10
0.3992125984251969
20
0.2405511811023622
11
0.3992125984251969
21
0.3507874015748031
0
LINE
8
BLACK
6
CONTINUOUS
10
0.3992125984251969
20
0.3507874015748031
11
0.3993924015748032
21
0.3516913779527559
0
LINE
8
BLACK
6
CONTINUOUS
10
0.3993924015748032
20
0.3516913779527559
11
0.4006708267716536
21
0.3529698031496063
0
LINE
8
BLACK
6
CONTINUOUS
10
0.4006708267716536
20
0.3529698031496063
11
0.4015748031496063
21
0.3531496062992126
0
LINE
8
BLACK
6
CONTINUOUS
10
0.4015748031496063
20
0.3531496062992126
11
0.4803149606299212
21
0.3531496062992126
0
LINE
8
BLACK
6
CONTINUOUS
10
0.4803149606299212
20
0.3531496062992126
11
0.481218937007874
21
0.3529698031496063
0
LINE
8
BLACK
6
CONTINUOUS
10
0.4039370078740158
20
0.3484251968503937
11
0.4039370078740158
21
0.2429133858267717
0
LINE
8
BLACK
6
CONTINUOUS
10
0.4039370078740158
20
0.2429133858267717
11
0.4779527559055118
21
0.2429133858267717
0
LINE
8
BLACK
6
CONTINUOUS
10
0.4779527559055118
20
0.2429133858267717
11
0.4779527559055118
21
0.3484251968503937
0
LINE
8
BLACK
6
CONTINUOUS
10
0.4779527559055118
20
0.3484251968503937
11
0.4039370078740158
21
0.3484251968503937
0
LINE
8
BLACK
6
CONTINUOUS
10
0.3856884645669291
20
0.2765646062992126
11
0.3865031496062992
21
0.2757499606299212
0
LINE
8
BLACK
6
CONTINUOUS
10
0.3865031496062992
20
0.2757499606299212
11
0.3867596062992126
21
0.2751307480314961
0
LINE
8
BLACK
6
CONTINUOUS
10
0.3867596062992126
20
0.2751307480314961
11
0.3869440157480315
21
0.2746855511811024
0
LINE
8
BLACK
6
CONTINUOUS
10
0.3869440157480315
20
0.2746855511811024
11
0.387000748031496
21
0.2741094881889763
0
LINE
8
BLACK
6
CONTINUOUS
10
0.387000748031496
20
0.2741094881889763
11
0.387000748031496
21
0.2497375590551181
0
LINE
8
BLACK
6
CONTINUOUS
10
0.387000748031496
20
0.2497375590551181
11
0.3869440157480315
21
0.2491614960629921
0
LINE
8
BLACK
6
CONTINUOUS
10
0.3869440157480315
20
0.2491614960629921
11
0.3865031102362205
21
0.2480970866141732
0
LINE
8
BLACK
6
CONTINUOUS
10
0.3865031102362205
20
0.2480970866141732
11
0.3856884645669291
21
0.2472824409448819
0
LINE
8
BLACK
6
CONTINUOUS
10
0.3856884645669291
20
0.2472824409448819
11
0.3846240551181102
21
0.2468415354330709
0
LINE
8
BLACK
6
CONTINUOUS
10
0.3846240551181102
20
0.2468415354330709
11
0.3834719291338582
21
0.2468415354330709
0
LINE
8
BLACK
6
CONTINUOUS
10
0.3834719291338582
20
0.2468415354330709
11
0.3824075196850394
21
0.2472824409448819
0
LINE
8
BLACK
6
CONTINUOUS
10
0.3824075196850394
20
0.2472824409448819
11
0.381592874015748
21
0.2480970866141732
0
LINE
8
BLACK
6
CONTINUOUS
10
0.381592874015748
20
0.2480970866141732
11
0.381151968503937
21
0.2491614960629921
0
LINE
8
BLACK
6
CONTINUOUS
10
0.381151968503937
20
0.2491614960629921
11
0.3810952362204724
21
0.2497375590551181
0
LINE
8
BLACK
6
CONTINUOUS
10
0.3810952362204724
20
0.2497375590551181
11
0.3810952362204724
21
0.2669809448818898
0
LINE
8
BLACK
6
CONTINUOUS
10
0.3810952362204724
20
0.2669809448818898
11
0.3636387007874016
21
0.2495244094488189
0
LINE
8
BLACK
6
CONTINUOUS
10
0.3636387007874016
20
0.2495244094488189
11
0.3631912598425197
21
0.2491572047244094
0
LINE
8
BLACK
6
CONTINUOUS
10
0.3631912598425197
20
0.2491572047244094
11
0.3630931889763779
21
0.2491166141732283
0
LINE
8
BLACK
6
CONTINUOUS
10
0.3630931889763779
20
0.2491166141732283
11
0.3630130708661417
21
0.2490470866141732
0
LINE
8
BLACK
6
CONTINUOUS
10
0.3630130708661417
20
0.2490470866141732
11
0.3624845275590551
21
0.2488111023622047
0
LINE
8
BLACK
6
CONTINUOUS
10
0.3624845275590551
20
0.2488111023622047
11
0.3568602362204724
21
0.2469363385826772
0
LINE
8
BLACK
6
CONTINUOUS
10
0.3568602362204724
20
0.2469363385826772
11
0.3565746456692913
21
0.2468714173228346
0
LINE
8
BLACK
6
CONTINUOUS
10
0.3565746456692913
20
0.2468714173228346
11
0.3565025590551181
21
0.2468415354330709
0
LINE
8
BLACK
6
CONTINUOUS
10
0.3565025590551181
20
0.2468415354330709
11
0.356398031496063
21
0.2468312598425197
0
LINE
8
BLACK
6
CONTINUOUS
10
0.356398031496063
20
0.2468312598425197
11
0.3562957874015748
21
0.2468079921259843
0
LINE
8
BLACK
6
CONTINUOUS
10
0.3562957874015748
20
0.2468079921259843
11
0.356218031496063
21
0.2468135433070866
0
LINE
8
BLACK
6
CONTINUOUS
10
0.356218031496063
20
0.2468135433070866
11
0.3559264960629921
21
0.2467848031496063
0
LINE
8
BLACK
6
CONTINUOUS
10
0.3559264960629921
20
0.2467848031496063
11
0.352176968503937
21
0.2467848031496063
0
LINE
8
BLACK
6
CONTINUOUS
10
0.352176968503937
20
0.2467848031496063
11
0.351600905511811
21
0.2468415354330709
0
LINE
8
BLACK
6
CONTINUOUS
10
0.351600905511811
20
0.2468415354330709
11
0.3515029133858268
21
0.246882125984252
0
LINE
8
BLACK
6
CONTINUOUS
10
0.3515029133858268
20
0.246882125984252
11
0.3513970472440945
21
0.2468896456692913
0
LINE
8
BLACK
6
CONTINUOUS
10
0.3513970472440945
20
0.2468896456692913
11
0.3508564566929134
21
0.2470965354330709
0
LINE
8
BLACK
6
CONTINUOUS
10
0.3508564566929134
20
0.2470965354330709
11
0.3471069291338583
21
0.2489712992125984
0
LINE
8
BLACK
6
CONTINUOUS
10
0.3471069291338583
20
0.2489712992125984
11
0.3468588976377953
21
0.2491274015748031
0
LINE
8
BLACK
6
CONTINUOUS
10
0.3468588976377953
20
0.2491274015748031
11
0.346786968503937
21
0.2491572047244094
0
LINE
8
BLACK
6
CONTINUOUS
10
0.346786968503937
20
0.2491572047244094
11
0.3467059842519685
21
0.2492237007874016
0
LINE
8
BLACK
6
CONTINUOUS
10
0.3467059842519685
20
0.2492237007874016
11
0.3466170472440945
21
0.2492796456692913
0
LINE
8
BLACK
6
CONTINUOUS
10
0.3466170472440945
20
0.2492796456692913
11
0.3465658661417323
21
0.2493386614173228
0
LINE
8
BLACK
6
CONTINUOUS
10
0.3465658661417323
20
0.2493386614173228
11
0.3463395275590551
21
0.2495244094488189
0
LINE
8
BLACK
6
CONTINUOUS
10
0.3463395275590551
20
0.2495244094488189
11
0.3444647637795276
21
0.2513991732283464
0
LINE
8
BLACK
6
CONTINUOUS
10
0.3444647637795276
20
0.2513991732283464
11
0.3442789763779527
21
0.2516255511811024
0
LINE
8
BLACK
6
CONTINUOUS
10
0.3442789763779527
20
0.2516255511811024
11
0.34422
21
0.2516766929133858
0
LINE
8
BLACK
6
CONTINUOUS
10
0.34422
20
0.2516766929133858
11
0.3441640157480315
21
0.2517656692913386
0
LINE
8
BLACK
6
CONTINUOUS
10
0.3441640157480315
20
0.2517656692913386
11
0.3440975590551181
21
0.2518466141732283
0
LINE
8
BLACK
6
CONTINUOUS
10
0.3440975590551181
20
0.2518466141732283
11
0.3440677165354331
21
0.2519185826771653
0
LINE
8
BLACK
6
CONTINUOUS
10
0.3440677165354331
20
0.2519185826771653
11
0.3439116535433071
21
0.2521665748031496
0
LINE
8
BLACK
6
CONTINUOUS
10
0.3439116535433071
20
0.2521665748031496
11
0.3420368897637795
21
0.2559161023622047
0
LINE
8
BLACK
6
CONTINUOUS
10
0.3420368897637795
20
0.2559161023622047
11
0.34183
21
0.2564567322834646
0
LINE
8
BLACK
6
CONTINUOUS
10
0.34183
20
0.2564567322834646
11
0.3418224803149606
21
0.2565625590551181
0
LINE
8
BLACK
6
CONTINUOUS
10
0.3418224803149606
20
0.2565625590551181
11
0.3417818897637795
21
0.2566605511811024
0
LINE
8
BLACK
6
CONTINUOUS
10
0.3417818897637795
20
0.2566605511811024
11
0.341725157480315
21
0.2572366141732284
0
LINE
8
BLACK
6
CONTINUOUS
10
0.341725157480315
20
0.2572366141732284
11
0.341725157480315
21
0.2666104330708661
0
LINE
8
BLACK
6
CONTINUOUS
10
0.341725157480315
20
0.2666104330708661
11
0.3417818897637795
21
0.2671864960629921
0
LINE
8
BLACK
6
CONTINUOUS
10
0.3417818897637795
20
0.2671864960629921
11
0.3418224803149606
21
0.2672845275590551
0
LINE
8
BLACK
6
CONTINUOUS
10
0.3418224803149606
20
0.2672845275590551
11
0.34183
21
0.2673903149606299
0
LINE
8
BLACK
6
CONTINUOUS
10
0.34183
20
0.2673903149606299
11
0.3420368897637795
21
0.2679309448818897
0
LINE
8
BLACK
6
CONTINUOUS
10
0.3420368897637795
20
0.2679309448818897
11
0.3439116535433071
21
0.2716804724409449
0
LINE
8
BLACK
6
CONTINUOUS
10
0.3439116535433071
20
0.2716804724409449
11
0.3440677165354331
21
0.2719285039370078
0
LINE
8
BLACK
6
CONTINUOUS
10
0.3440677165354331
20
0.2719285039370078
11
0.3440975590551181
21
0.2720004330708661
0
LINE
8
BLACK
6
CONTINUOUS
10
0.3440975590551181
20
0.2720004330708661
11
0.3441640157480315
21
0.2720814173228346
0
LINE
8
BLACK
6
CONTINUOUS
10
0.3441640157480315
20
0.2720814173228346
11
0.34422
21
0.2721703543307086
0
LINE
8
BLACK
6
CONTINUOUS
10
0.34422
20
0.2721703543307086
11
0.3442789763779527
21
0.2722215354330709
0
LINE
8
BLACK
6
CONTINUOUS
10
0.3442789763779527
20
0.2722215354330709
11
0.3444647637795276
21
0.272447874015748
0
LINE
8
BLACK
6
CONTINUOUS
10
0.3444647637795276
20
0.272447874015748
11
0.3463395275590551
21
0.2743226377952756
0
LINE
8
BLACK
6
CONTINUOUS
10
0.3463395275590551
20
0.2743226377952756
11
0.346786968503937
21
0.274689842519685
0
LINE
8
BLACK
6
CONTINUOUS
10
0.346786968503937
20
0.274689842519685
11
0.3478513779527559
21
0.2751307480314961
0
LINE
8
BLACK
6
CONTINUOUS
10
0.3478513779527559
20
0.2751307480314961
11
0.3490034645669291
21
0.2751307480314961
0
LINE
8
BLACK
6
CONTINUOUS
10
0.3490034645669291
20
0.2751307480314961
11
0.350067874015748
21
0.274689842519685
0
LINE
8
BLACK
6
CONTINUOUS
10
0.350067874015748
20
0.274689842519685
11
0.3508825590551181
21
0.2738751574803149
0
LINE
8
BLACK
6
CONTINUOUS
10
0.3508825590551181
20
0.2738751574803149
11
0.3513234645669291
21
0.2728107480314961
0
LINE
8
BLACK
6
CONTINUOUS
10
0.3513234645669291
20
0.2728107480314961
11
0.3513234645669291
21
0.2716586614173228
0
LINE
8
BLACK
6
CONTINUOUS
10
0.3513234645669291
20
0.2716586614173228
11
0.3508825590551181
21
0.270594251968504
0
LINE
8
BLACK
6
CONTINUOUS
10
0.3508825590551181
20
0.270594251968504
11
0.3505153543307086
21
0.270146811023622
0
LINE
8
BLACK
6
CONTINUOUS
10
0.3505153543307086
20
0.270146811023622
11
0.3489794094488189
21
0.2686108661417323
0
LINE
8
BLACK
6
CONTINUOUS
10
0.3489794094488189
20
0.2686108661417323
11
0.3476306692913386
21
0.2659133858267717
0
LINE
8
BLACK
6
CONTINUOUS
10
0.3476306692913386
20
0.2659133858267717
11
0.3476306692913386
21
0.2579336614173228
0
LINE
8
BLACK
6
CONTINUOUS
10
0.3476306692913386
20
0.2579336614173228
11
0.3489794094488189
21
0.2552361811023622
0
LINE
8
BLACK
6
CONTINUOUS
10
0.3489794094488189
20
0.2552361811023622
11
0.3501765354330709
21
0.2540390551181103
0
LINE
8
BLACK
6
CONTINUOUS
10
0.3501765354330709
20
0.2540390551181103
11
0.3528740157480315
21
0.2526903149606299
0
LINE
8
BLACK
6
CONTINUOUS
10
0.3528740157480315
20
0.2526903149606299
11
0.3554473622047244
21
0.2526903149606299
0
LINE
8
BLACK
6
CONTINUOUS
10
0.3554473622047244
20
0.2526903149606299
11
0.359955748031496
21
0.2541931496062992
0
LINE
8
BLACK
6
CONTINUOUS
10
0.359955748031496
20
0.2541931496062992
11
0.3819600787401575
21
0.2761974015748032
0
LINE
8
BLACK
6
CONTINUOUS
10
0.3819600787401575
20
0.2761974015748032
11
0.3824075196850394
21
0.2765646456692913
0
LINE
8
BLACK
6
CONTINUOUS
10
0.3824075196850394
20
0.2765646456692913
11
0.383160157480315
21
0.2768764173228346
0
LINE
8
BLACK
6
CONTINUOUS
10
0.383160157480315
20
0.2768764173228346
11
0.3834719291338582
21
0.2770055118110236
0
LINE
8
BLACK
6
CONTINUOUS
10
0.3834719291338582
20
0.2770055118110236
11
0.3846240551181102
21
0.2770055118110236
0
LINE
8
BLACK
6
CONTINUOUS
10
0.3846240551181102
20
0.2770055118110236
11
0.3856884645669291
21
0.2765646062992126
0
LINE
8
BLACK
6
CONTINUOUS
10
0.7818681496062992
20
0.2962031102362205
11
0.782932559055118
21
0.2957622047244094
0
LINE
8
BLACK
6
CONTINUOUS
10
0.782932559055118
20
0.2957622047244094
11
0.7837472047244094
21
0.2949475590551181
0
LINE
8
BLACK
6
CONTINUOUS
10
0.7837472047244094
20
0.2949475590551181
11
0.7841881102362205
21
0.2938831496062992
0
LINE
8
BLACK
6
CONTINUOUS
10
0.7841881102362205
20
0.2938831496062992
11
0.7841881102362205
21
0.2927310236220472
0
LINE
8
BLACK
6
CONTINUOUS
10
0.7841881102362205
20
0.2927310236220472
11
0.7837472047244094
21
0.2916666141732284
0
LINE
8
BLACK
6
CONTINUOUS
10
0.7837472047244094
20
0.2916666141732284
11
0.782932559055118
21
0.290851968503937
0
LINE
8
BLACK
6
CONTINUOUS
10
0.782932559055118
20
0.290851968503937
11
0.7818681496062992
21
0.290411062992126
0
LINE
8
BLACK
6
CONTINUOUS
10
0.7818681496062992
20
0.290411062992126
11
0.7812920866141733
21
0.2903543307086614
0
LINE
8
BLACK
6
CONTINUOUS
10
0.7812920866141733
20
0.2903543307086614
11
0.7654971653543307
21
0.2903543307086614
0
LINE
8
BLACK
6
CONTINUOUS
10
0.7654971653543307
20
0.2903543307086614
11
0.7654971653543307
21
0.2854706692913386
0
LINE
8
BLACK
6
CONTINUOUS
10
0.7654971653543307
20
0.2854706692913386
11
0.7829853937007873
21
0.2732288976377953
0
LINE
8
BLACK
6
CONTINUOUS
10
0.7829853937007873
20
0.2732288976377953
11
0.7834247637795275
21
0.2728520866141732
0
LINE
8
BLACK
6
CONTINUOUS
10
0.7834247637795275
20
0.2728520866141732
11
0.784043937007874
21
0.2718804724409449
0
LINE
8
BLACK
6
CONTINUOUS
10
0.784043937007874
20
0.2718804724409449
11
0.7842441732283464
21
0.2707459448818897
0
LINE
8
BLACK
6
CONTINUOUS
10
0.7842441732283464
20
0.2707459448818897
11
0.7839949606299212
21
0.2696211023622047
0
LINE
8
BLACK
6
CONTINUOUS
10
0.7839949606299212
20
0.2696211023622047
11
0.7833342519685039
21
0.2686772440944882
0
LINE
8
BLACK
6
CONTINUOUS
10
0.7833342519685039
20
0.2686772440944882
11
0.7823626771653543
21
0.2680580708661418
0
LINE
8
BLACK
6
CONTINUOUS
10
0.7823626771653543
20
0.2680580708661418
11
0.7812281102362204
21
0.267857874015748
0
LINE
8
BLACK
6
CONTINUOUS
10
0.7812281102362204
20
0.267857874015748
11
0.7801032677165354
21
0.2681070472440945
0
LINE
8
BLACK
6
CONTINUOUS
10
0.7801032677165354
20
0.2681070472440945
11
0.7795988188976378
21
0.268390905511811
0
LINE
8
BLACK
6
CONTINUOUS
10
0.7795988188976378
20
0.268390905511811
11
0.7654928346456693
21
0.2782650787401575
0
LINE
8
BLACK
6
CONTINUOUS
10
0.7654928346456693
20
0.2782650787401575
11
0.7654404330708662
21
0.2777329133858268
0
LINE
8
BLACK
6
CONTINUOUS
10
0.7654404330708662
20
0.2777329133858268
11
0.7653998425196851
21
0.2776349606299213
0
LINE
8
BLACK
6
CONTINUOUS
10
0.7653998425196851
20
0.2776349606299213
11
0.7653923228346456
21
0.2775290551181102
0
LINE
8
BLACK
6
CONTINUOUS
10
0.7653923228346456
20
0.2775290551181102
11
0.7651854330708662
21
0.2769884645669291
0
LINE
8
BLACK
6
CONTINUOUS
10
0.7651854330708662
20
0.2769884645669291
11
0.7633106692913386
21
0.273238937007874
0
LINE
8
BLACK
6
CONTINUOUS
10
0.7633106692913386
20
0.273238937007874
11
0.7631545669291339
21
0.2729909448818897
0
LINE
8
BLACK
6
CONTINUOUS
10
0.7631545669291339
20
0.2729909448818897
11
0.7631247637795275
21
0.2729189763779528
0
LINE
8
BLACK
6
CONTINUOUS
10
0.7631247637795275
20
0.2729189763779528
11
0.7630582677165354
21
0.272838031496063
0
LINE
8
BLACK
6
CONTINUOUS
10
0.7630582677165354
20
0.272838031496063
11
0.7630023228346456
21
0.2727490551181102
0
LINE
8
BLACK
6
CONTINUOUS
10
0.7630023228346456
20
0.2727490551181102
11
0.7629433070866142
21
0.2726979133858268
0
LINE
8
BLACK
6
CONTINUOUS
10
0.7629433070866142
20
0.2726979133858268
11
0.7627575590551181
21
0.2724715354330708
0
LINE
8
BLACK
6
CONTINUOUS
10
0.7627575590551181
20
0.2724715354330708
11
0.7608827952755906
21
0.2705967716535433
0
LINE
8
BLACK
6
CONTINUOUS
10
0.7608827952755906
20
0.2705967716535433
11
0.7606564173228346
21
0.2704110236220472
0
LINE
8
BLACK
6
CONTINUOUS
10
0.7606564173228346
20
0.2704110236220472
11
0.7606052755905511
21
0.2703520078740158
0
LINE
8
BLACK
6
CONTINUOUS
10
0.7606052755905511
20
0.2703520078740158
11
0.7605162992125984
21
0.270296062992126
0
LINE
8
BLACK
6
CONTINUOUS
10
0.7605162992125984
20
0.270296062992126
11
0.7604353543307086
21
0.2702295669291339
0
LINE
8
BLACK
6
CONTINUOUS
10
0.7604353543307086
20
0.2702295669291339
11
0.7603633858267717
21
0.2701997637795275
0
LINE
8
BLACK
6
CONTINUOUS
10
0.7603633858267717
20
0.2701997637795275
11
0.7601153937007874
21
0.2700436614173228
0
LINE
8
BLACK
6
CONTINUOUS
10
0.7601153937007874
20
0.2700436614173228
11
0.7563658661417323
21
0.2681688976377953
0
LINE
8
BLACK
6
CONTINUOUS
10
0.7563658661417323
20
0.2681688976377953
11
0.7558252362204724
21
0.2679620078740158
0
LINE
8
BLACK
6
CONTINUOUS
10
0.7558252362204724
20
0.2679620078740158
11
0.7557194094488189
21
0.2679545275590551
0
LINE
8
BLACK
6
CONTINUOUS
10
0.7557194094488189
20
0.2679545275590551
11
0.7556214173228346
21
0.2679138976377953
0
LINE
8
BLACK
6
CONTINUOUS
10
0.7556214173228346
20
0.2679138976377953
11
0.7550453543307086
21
0.2678571653543307
0
LINE
8
BLACK
6
CONTINUOUS
10
0.7550453543307086
20
0.2678571653543307
11
0.749421062992126
21
0.2678571653543307
0
LINE
8
BLACK
6
CONTINUOUS
10
0.749421062992126
20
0.2678571653543307
11
0.748845
21
0.2679138976377953
0
LINE
8
BLACK
6
CONTINUOUS
10
0.748845
20
0.2679138976377953
11
0.7487470078740157
21
0.2679544881889764
0
LINE
8
BLACK
6
CONTINUOUS
10
0.7487470078740157
20
0.2679544881889764
11
0.7486411417322835
21
0.2679620078740158
0
LINE
8
BLACK
6
CONTINUOUS
10
0.7486411417322835
20
0.2679620078740158
11
0.7481005511811023
21
0.2681688976377953
0
LINE
8
BLACK
6
CONTINUOUS
10
0.7481005511811023
20
0.2681688976377953
11
0.7443510236220472
21
0.2700436614173228
0
LINE
8
BLACK
6
CONTINUOUS
10
0.7443510236220472
20
0.2700436614173228
11
0.7441029921259842
21
0.2701997637795275
0
LINE
8
BLACK
6
CONTINUOUS
10
0.7441029921259842
20
0.2701997637795275
11
0.744031062992126
21
0.2702295669291339
0
LINE
8
BLACK
6
CONTINUOUS
10
0.744031062992126
20
0.2702295669291339
11
0.7439500787401575
21
0.270296062992126
0
LINE
8
BLACK
6
CONTINUOUS
10
0.7439500787401575
20
0.270296062992126
11
0.7438611417322835
21
0.2703520078740158
0
LINE
8
BLACK
6
CONTINUOUS
10
0.7438611417322835
20
0.2703520078740158
11
0.7438099606299212
21
0.2704110236220472
0
LINE
8
BLACK
6
CONTINUOUS
10
0.7438099606299212
20
0.2704110236220472
11
0.743583622047244
21
0.2705967716535433
0
LINE
8
BLACK
6
CONTINUOUS
10
0.743583622047244
20
0.2705967716535433
11
0.7417088582677165
21
0.2724715354330708
0
LINE
8
BLACK
6
CONTINUOUS
10
0.7417088582677165
20
0.2724715354330708
11
0.7415230708661417
21
0.2726979133858268
0
LINE
8
BLACK
6
CONTINUOUS
10
0.7415230708661417
20
0.2726979133858268
11
0.741464094488189
21
0.2727490551181102
0
LINE
8
BLACK
6
CONTINUOUS
10
0.741464094488189
20
0.2727490551181102
11
0.7414081102362204
21
0.272838031496063
0
LINE
8
BLACK
6
CONTINUOUS
10
0.7414081102362204
20
0.272838031496063
11
0.7413416535433071
21
0.2729189763779528
0
LINE
8
BLACK
6
CONTINUOUS
10
0.7413416535433071
20
0.2729189763779528
11
0.741311811023622
21
0.2729909448818897
0
LINE
8
BLACK
6
CONTINUOUS
10
0.741311811023622
20
0.2729909448818897
11
0.7411557480314961
21
0.273238937007874
0
LINE
8
BLACK
6
CONTINUOUS
10
0.7411557480314961
20
0.273238937007874
11
0.7392809842519685
21
0.2769884645669291
0
LINE
8
BLACK
6
CONTINUOUS
10
0.7392809842519685
20
0.2769884645669291
11
0.7390740944881889
21
0.277529094488189
0
LINE
8
BLACK
6
CONTINUOUS
10
0.7390740944881889
20
0.277529094488189
11
0.7390665748031496
21
0.2776349212598425
0
LINE
8
BLACK
6
CONTINUOUS
10
0.7390665748031496
20
0.2776349212598425
11
0.7390259842519685
21
0.2777329133858268
0
LINE
8
BLACK
6
CONTINUOUS
10
0.7390259842519685
20
0.2777329133858268
11
0.7389692519685039
21
0.2783089763779528
0
LINE
8
BLACK
6
CONTINUOUS
10
0.7389692519685039
20
0.2783089763779528
11
0.7389692519685039
21
0.2933070866141732
0
LINE
8
BLACK
6
CONTINUOUS
10
0.7389692519685039
20
0.2933070866141732
11
0.7390259842519685
21
0.2938831496062992
0
LINE
8
BLACK
6
CONTINUOUS
10
0.7390259842519685
20
0.2938831496062992
11
0.7394668897637795
21
0.2949475590551181
0
LINE
8
BLACK
6
CONTINUOUS
10
0.7394668897637795
20
0.2949475590551181
11
0.7402815354330708
21
0.2957622047244094
0
LINE
8
BLACK
6
CONTINUOUS
10
0.7402815354330708
20
0.2957622047244094
11
0.7413459448818898
21
0.2962031102362205
0
LINE
8
BLACK
6
CONTINUOUS
10
0.7413459448818898
20
0.2962031102362205
11
0.7419220078740157
21
0.296259842519685
0
LINE
8
BLACK
6
CONTINUOUS
10
0.7419220078740157
20
0.296259842519685
11
0.7812920866141733
21
0.296259842519685
0
LINE
8
BLACK
6
CONTINUOUS
10
0.7812920866141733
20
0.296259842519685
11
0.7818681496062992
21
0.2962031102362205
0
LINE
8
BLACK
6
CONTINUOUS
10
0.7448747637795275
20
0.2790060236220472
11
0.7462235039370079
21
0.2763085433070866
0
LINE
8
BLACK
6
CONTINUOUS
10
0.7462235039370079
20
0.2763085433070866
11
0.7474206299212598
21
0.2751114173228346
0
LINE
8
BLACK
6
CONTINUOUS
10
0.7474206299212598
20
0.2751114173228346
11
0.7501181102362204
21
0.2737626771653544
0
LINE
8
BLACK
6
CONTINUOUS
10
0.7501181102362204
20
0.2737626771653544
11
0.7543483070866142
21
0.2737626771653544
0
LINE
8
BLACK
6
CONTINUOUS
10
0.7543483070866142
20
0.2737626771653544
11
0.7570457874015748
21
0.2751114173228346
0
LINE
8
BLACK
6
CONTINUOUS
10
0.7570457874015748
20
0.2751114173228346
11
0.7582429133858267
21
0.2763085433070866
0
LINE
8
BLACK
6
CONTINUOUS
10
0.7582429133858267
20
0.2763085433070866
11
0.759591653543307
21
0.2790060236220472
0
LINE
8
BLACK
6
CONTINUOUS
10
0.759591653543307
20
0.2790060236220472
11
0.759591653543307
21
0.2903543307086614
0
LINE
8
BLACK
6
CONTINUOUS
10
0.759591653543307
20
0.2903543307086614
11
0.7448747637795275
21
0.2903543307086614
0
LINE
8
BLACK
6
CONTINUOUS
10
0.7448747637795275
20
0.2903543307086614
11
0.7448747637795275
21
0.2790060236220472
0
LINE
8
BLACK
6
CONTINUOUS
10
0.3846240551181102
20
0.312626062992126
11
0.3856884645669291
21
0.3121851574803149
0
LINE
8
BLACK
6
CONTINUOUS
10
0.3856884645669291
20
0.3121851574803149
11
0.3865031102362205
21
0.3113705118110236
0
LINE
8
BLACK
6
CONTINUOUS
10
0.3865031102362205
20
0.3113705118110236
11
0.3869440157480315
21
0.3103061023622047
0
LINE
8
BLACK
6
CONTINUOUS
10
0.3869440157480315
20
0.3103061023622047
11
0.3869440157480315
21
0.3091539763779527
0
LINE
8
BLACK
6
CONTINUOUS
10
0.3869440157480315
20
0.3091539763779527
11
0.3865031102362205
21
0.3080895669291339
0
LINE
8
BLACK
6
CONTINUOUS
10
0.3865031102362205
20
0.3080895669291339
11
0.3856884645669291
21
0.3072749212598425
0
LINE
8
BLACK
6
CONTINUOUS
10
0.3856884645669291
20
0.3072749212598425
11
0.3846240551181102
21
0.3068340157480315
0
LINE
8
BLACK
6
CONTINUOUS
10
0.3846240551181102
20
0.3068340157480315
11
0.3840479921259842
21
0.3067772834645669
0
LINE
8
BLACK
6
CONTINUOUS
10
0.3840479921259842
20
0.3067772834645669
11
0.3682530708661417
21
0.3067772834645669
0
LINE
8
BLACK
6
CONTINUOUS
10
0.3682530708661417
20
0.3067772834645669
11
0.3682530708661417
21
0.2947319291338583
0
LINE
8
BLACK
6
CONTINUOUS
10
0.3682530708661417
20
0.2947319291338583
11
0.3681963385826771
21
0.2941558661417323
0
LINE
8
BLACK
6
CONTINUOUS
10
0.3681963385826771
20
0.2941558661417323
11
0.368155748031496
21
0.2940579133858268
0
LINE
8
BLACK
6
CONTINUOUS
10
0.368155748031496
20
0.2940579133858268
11
0.3681482283464567
21
0.2939520078740158
0
LINE
8
BLACK
6
CONTINUOUS
10
0.3681482283464567
20
0.2939520078740158
11
0.3679413385826771
21
0.2934114173228347
0
LINE
8
BLACK
6
CONTINUOUS
10
0.3679413385826771
20
0.2934114173228347
11
0.3660665748031496
21
0.2896618897637795
0
LINE
8
BLACK
6
CONTINUOUS
10
0.3660665748031496
20
0.2896618897637795
11
0.3659104724409449
21
0.2894138976377953
0
LINE
8
BLACK
6
CONTINUOUS
10
0.3659104724409449
20
0.2894138976377953
11
0.3658806692913386
21
0.2893419291338583
0
LINE
8
BLACK
6
CONTINUOUS
10
0.3658806692913386
20
0.2893419291338583
11
0.3658141732283465
21
0.2892609842519685
0
LINE
8
BLACK
6
CONTINUOUS
10
0.3658141732283465
20
0.2892609842519685
11
0.3657582283464567
21
0.2891720078740158
0
LINE
8
BLACK
6
CONTINUOUS
10
0.3657582283464567
20
0.2891720078740158
11
0.3656992125984252
21
0.2891208661417323
0
LINE
8
BLACK
6
CONTINUOUS
10
0.3656992125984252
20
0.2891208661417323
11
0.3655134645669291
21
0.2888944881889764
0
LINE
8
BLACK
6
CONTINUOUS
10
0.3655134645669291
20
0.2888944881889764
11
0.3636387007874016
21
0.2870197244094488
0
LINE
8
BLACK
6
CONTINUOUS
10
0.3636387007874016
20
0.2870197244094488
11
0.3634123228346456
21
0.2868339763779528
0
LINE
8
BLACK
6
CONTINUOUS
10
0.3634123228346456
20
0.2868339763779528
11
0.3633611811023622
21
0.2867749606299212
0
LINE
8
BLACK
6
CONTINUOUS
10
0.3633611811023622
20
0.2867749606299212
11
0.3632722047244095
21
0.2867190157480315
0
LINE
8
BLACK
6
CONTINUOUS
10
0.3632722047244095
20
0.2867190157480315
11
0.3631912598425197
21
0.2866525196850394
0
LINE
8
BLACK
6
CONTINUOUS
10
0.3631912598425197
20
0.2866525196850394
11
0.3631192913385827
21
0.2866227165354331
0
LINE
8
BLACK
6
CONTINUOUS
10
0.3631192913385827
20
0.2866227165354331
11
0.3628712992125984
21
0.2864666141732283
0
LINE
8
BLACK
6
CONTINUOUS
10
0.3628712992125984
20
0.2864666141732283
11
0.3591217716535433
21
0.2845918503937008
0
LINE
8
BLACK
6
CONTINUOUS
10
0.3591217716535433
20
0.2845918503937008
11
0.3585811417322834
21
0.2843849606299212
0
LINE
8
BLACK
6
CONTINUOUS
10
0.3585811417322834
20
0.2843849606299212
11
0.3584753149606299
21
0.2843774803149606
0
LINE
8
BLACK
6
CONTINUOUS
10
0.3584753149606299
20
0.2843774803149606
11
0.3583773228346457
21
0.2843368503937008
0
LINE
8
BLACK
6
CONTINUOUS
10
0.3583773228346457
20
0.2843368503937008
11
0.3578012598425197
21
0.2842801181102362
0
LINE
8
BLACK
6
CONTINUOUS
10
0.3578012598425197
20
0.2842801181102362
11
0.352176968503937
21
0.2842801181102362
0
LINE
8
BLACK
6
CONTINUOUS
10
0.352176968503937
20
0.2842801181102362
11
0.351600905511811
21
0.2843368503937008
0
LINE
8
BLACK
6
CONTINUOUS
10
0.351600905511811
20
0.2843368503937008
11
0.3515029133858268
21
0.2843774409448819
0
LINE
8
BLACK
6
CONTINUOUS
10
0.3515029133858268
20
0.2843774409448819
11
0.3513970472440945
21
0.2843849606299212
0
LINE
8
BLACK
6
CONTINUOUS
10
0.3513970472440945
20
0.2843849606299212
11
0.3508564566929134
21
0.2845918503937008
0
LINE
8
BLACK
6
CONTINUOUS
10
0.3508564566929134
20
0.2845918503937008
11
0.3471069291338583
21
0.2864666141732283
0
LINE
8
BLACK
6
CONTINUOUS
10
0.3471069291338583
20
0.2864666141732283
11
0.3468588976377953
21
0.2866227165354331
0
LINE
8
BLACK
6
CONTINUOUS
10
0.3468588976377953
20
0.2866227165354331
11
0.346786968503937
21
0.2866525196850394
0
LINE
8
BLACK
6
CONTINUOUS
10
0.346786968503937
20
0.2866525196850394
11
0.3467059842519685
21
0.2867190157480315
0
LINE
8
BLACK
6
CONTINUOUS
10
0.3467059842519685
20
0.2867190157480315
11
0.3466170472440945
21
0.2867749606299212
0
LINE
8
BLACK
6
CONTINUOUS
10
0.3466170472440945
20
0.2867749606299212
11
0.3465658661417323
21
0.2868339763779528
0
LINE
8
BLACK
6
CONTINUOUS
10
0.3465658661417323
20
0.2868339763779528
11
0.3463395275590551
21
0.2870197244094488
0
LINE
8
BLACK
6
CONTINUOUS
10
0.3463395275590551
20
0.2870197244094488
11
0.3444647637795276
21
0.2888944881889764
0
LINE
8
BLACK
6
CONTINUOUS
10
0.3444647637795276
20
0.2888944881889764
11
0.3442789763779527
21
0.2891208661417323
0
LINE
8
BLACK
6
CONTINUOUS
10
0.3442789763779527
20
0.2891208661417323
11
0.34422
21
0.2891720078740158
0
LINE
8
BLACK
6
CONTINUOUS
10
0.34422
20
0.2891720078740158
11
0.3441640157480315
21
0.2892609842519685
0
LINE
8
BLACK
6
CONTINUOUS
10
0.3441640157480315
20
0.2892609842519685
11
0.3440975590551181
21
0.2893419291338583
0
LINE
8
BLACK
6
CONTINUOUS
10
0.3440975590551181
20
0.2893419291338583
11
0.3440677165354331
21
0.2894138976377953
0
LINE
8
BLACK
6
CONTINUOUS
10
0.3440677165354331
20
0.2894138976377953
11
0.3439116535433071
21
0.2896618897637795
0
LINE
8
BLACK
6
CONTINUOUS
10
0.3439116535433071
20
0.2896618897637795
11
0.3420368897637795
21
0.2934114173228347
0
LINE
8
BLACK
6
CONTINUOUS
10
0.3420368897637795
20
0.2934114173228347
11
0.34183
21
0.2939520472440945
0
LINE
8
BLACK
6
CONTINUOUS
10
0.34183
20
0.2939520472440945
11
0.3418224803149606
21
0.294057874015748
0
LINE
8
BLACK
6
CONTINUOUS
10
0.3418224803149606
20
0.294057874015748
11
0.3417818897637795
21
0.2941558661417323
0
LINE
8
BLACK
6
CONTINUOUS
10
0.3417818897637795
20
0.2941558661417323
11
0.341725157480315
21
0.2947319291338583
0
LINE
8
BLACK
6
CONTINUOUS
10
0.341725157480315
20
0.2947319291338583
11
0.341725157480315
21
0.3097300393700788
0
LINE
8
BLACK
6
CONTINUOUS
10
0.341725157480315
20
0.3097300393700788
11
0.3417818897637795
21
0.3103061023622047
0
LINE
8
BLACK
6
CONTINUOUS
10
0.3417818897637795
20
0.3103061023622047
11
0.3422227952755905
21
0.3113705118110236
0
LINE
8
BLACK
6
CONTINUOUS
10
0.3422227952755905
20
0.3113705118110236
11
0.3430374409448819
21
0.3121851574803149
0
LINE
8
BLACK
6
CONTINUOUS
10
0.3430374409448819
20
0.3121851574803149
11
0.3441018503937008
21
0.312626062992126
0
LINE
8
BLACK
6
CONTINUOUS
10
0.3441018503937008
20
0.312626062992126
11
0.3446779133858268
21
0.3126827952755906
0
LINE
8
BLACK
6
CONTINUOUS
10
0.3446779133858268
20
0.3126827952755906
11
0.3840479921259842
21
0.3126827952755906
0
LINE
8
BLACK
6
CONTINUOUS
10
0.3840479921259842
20
0.3126827952755906
11
0.3846240551181102
21
0.312626062992126
0
LINE
8
BLACK
6
CONTINUOUS
10
0.3476306692913386
20
0.2954289763779527
11
0.3489794094488189
21
0.2927314960629921
0
LINE
8
BLACK
6
CONTINUOUS
10
0.3489794094488189
20
0.2927314960629921
11
0.3501765354330709
21
0.2915343700787402
0
LINE
8
BLACK
6
CONTINUOUS
10
0.3501765354330709
20
0.2915343700787402
11
0.3528740157480315
21
0.2901856299212598
0
LINE
8
BLACK
6
CONTINUOUS
10
0.3528740157480315
20
0.2901856299212598
11
0.3571042125984252
21
0.2901856299212598
0
LINE
8
BLACK
6
CONTINUOUS
10
0.3571042125984252
20
0.2901856299212598
11
0.3598016929133858
21
0.2915343700787402
0
LINE
8
BLACK
6
CONTINUOUS
10
0.3598016929133858
20
0.2915343700787402
11
0.3609988188976378
21
0.2927314960629921
0
LINE
8
BLACK
6
CONTINUOUS
10
0.3609988188976378
20
0.2927314960629921
11
0.3623475590551181
21
0.2954289763779527
0
LINE
8
BLACK
6
CONTINUOUS
10
0.3623475590551181
20
0.2954289763779527
11
0.3623475590551181
21
0.3067772834645669
0
LINE
8
BLACK
6
CONTINUOUS
10
0.3623475590551181
20
0.3067772834645669
11
0.3476306692913386
21
0.3067772834645669
0
LINE
8
BLACK
6
CONTINUOUS
10
0.3476306692913386
20
0.3067772834645669
11
0.3476306692913386
21
0.2954289763779527
0
LINE
8
BLACK
6
CONTINUOUS
10
0.7917987401574803
20
0.342903031496063
11
0.7927560236220472
21
0.342261968503937
0
LINE
8
BLACK
6
CONTINUOUS
10
0.7927560236220472
20
0.342261968503937
11
0.7933951181102362
21
0.3413033464566929
0
LINE
8
BLACK
6
CONTINUOUS
10
0.7933951181102362
20
0.3413033464566929
11
0.7936186614173228
21
0.3401731102362205
0
LINE
8
BLACK
6
CONTINUOUS
10
0.7936186614173228
20
0.3401731102362205
11
0.7933927165354331
21
0.3390434251968504
0
LINE
8
BLACK
6
CONTINUOUS
10
0.7933927165354331
20
0.3390434251968504
11
0.7927516535433071
21
0.3380861417322835
0
LINE
8
BLACK
6
CONTINUOUS
10
0.7927516535433071
20
0.3380861417322835
11
0.7923038188976378
21
0.3377193700787401
0
LINE
8
BLACK
6
CONTINUOUS
10
0.7923038188976378
20
0.3377193700787401
11
0.7416851181102362
21
0.3039736220472441
0
LINE
8
BLACK
6
CONTINUOUS
10
0.7416851181102362
20
0.3039736220472441
11
0.7411743700787401
21
0.3037012992125984
0
LINE
8
BLACK
6
CONTINUOUS
10
0.7411743700787401
20
0.3037012992125984
11
0.7400441338582677
21
0.303477716535433
0
LINE
8
BLACK
6
CONTINUOUS
10
0.7400441338582677
20
0.303477716535433
11
0.7389144488188977
21
0.3037036614173228
0
LINE
8
BLACK
6
CONTINUOUS
10
0.7389144488188977
20
0.3037036614173228
11
0.7379571653543306
21
0.3043447244094488
0
LINE
8
BLACK
6
CONTINUOUS
10
0.7379571653543306
20
0.3043447244094488
11
0.7373180708661418
21
0.3053033464566929
0
LINE
8
BLACK
6
CONTINUOUS
10
0.7373180708661418
20
0.3053033464566929
11
0.7370944881889764
21
0.3064335826771654
0
LINE
8
BLACK
6
CONTINUOUS
10
0.7370944881889764
20
0.3064335826771654
11
0.7373204330708661
21
0.3075632677165354
0
LINE
8
BLACK
6
CONTINUOUS
10
0.7373204330708661
20
0.3075632677165354
11
0.7379614960629921
21
0.3085205511811023
0
LINE
8
BLACK
6
CONTINUOUS
10
0.7379614960629921
20
0.3085205511811023
11
0.7384093700787402
21
0.3088873228346457
0
LINE
8
BLACK
6
CONTINUOUS
10
0.7384093700787402
20
0.3088873228346457
11
0.7890280314960629
21
0.3426330708661417
0
LINE
8
BLACK
6
CONTINUOUS
10
0.7890280314960629
20
0.3426330708661417
11
0.7895388188976378
21
0.3429053937007874
0
LINE
8
BLACK
6
CONTINUOUS
10
0.7895388188976378
20
0.3429053937007874
11
0.7906690157480315
21
0.3431289763779528
0
LINE
8
BLACK
6
CONTINUOUS
10
0.7906690157480315
20
0.3431289763779528
11
0.7917987401574803
21
0.342903031496063
0
LINE
8
BLACK
6
CONTINUOUS
10
0.3856884645669291
20
0.3459309448818897
11
0.3865031102362205
21
0.3451162992125984
0
LINE
8
BLACK
6
CONTINUOUS
10
0.3865031102362205
20
0.3451162992125984
11
0.3869440157480315
21
0.3440518897637795
0
LINE
8
BLACK
6
CONTINUOUS
10
0.3869440157480315
20
0.3440518897637795
11
0.387000748031496
21
0.3434758267716536
0
LINE
8
BLACK
6
CONTINUOUS
10
0.387000748031496
20
0.3434758267716536
11
0.387000748031496
21
0.3397262992125984
0
LINE
8
BLACK
6
CONTINUOUS
10
0.387000748031496
20
0.3397262992125984
11
0.3869720078740158
21
0.3394347244094488
0
LINE
8
BLACK
6
CONTINUOUS
10
0.3869720078740158
20
0.3394347244094488
11
0.3869775590551181
21
0.339356968503937
0
LINE
8
BLACK
6
CONTINUOUS
10
0.3869775590551181
20
0.339356968503937
11
0.3869542913385827
21
0.3392547244094488
0
LINE
8
BLACK
6
CONTINUOUS
10
0.3869542913385827
20
0.3392547244094488
11
0.3869440157480315
21
0.3391502362204724
0
LINE
8
BLACK
6
CONTINUOUS
10
0.3869440157480315
20
0.3391502362204724
11
0.3869141338582677
21
0.3390781889763779
0
LINE
8
BLACK
6
CONTINUOUS
10
0.3869141338582677
20
0.3390781889763779
11
0.3868492125984252
21
0.3387925196850394
0
LINE
8
BLACK
6
CONTINUOUS
10
0.3868492125984252
20
0.3387925196850394
11
0.3849744488188976
21
0.3331682677165354
0
LINE
8
BLACK
6
CONTINUOUS
10
0.3849744488188976
20
0.3331682677165354
11
0.3847384645669291
21
0.3326396850393701
0
LINE
8
BLACK
6
CONTINUOUS
10
0.3847384645669291
20
0.3326396850393701
11
0.3846689763779527
21
0.3325596062992126
0
LINE
8
BLACK
6
CONTINUOUS
10
0.3846689763779527
20
0.3325596062992126
11
0.3846283858267717
21
0.3324615354330708
0
LINE
8
BLACK
6
CONTINUOUS
10
0.3846283858267717
20
0.3324615354330708
11
0.3842611417322834
21
0.332014094488189
0
LINE
8
BLACK
6
CONTINUOUS
10
0.3842611417322834
20
0.332014094488189
11
0.3805115748031496
21
0.3282645669291339
0
LINE
8
BLACK
6
CONTINUOUS
10
0.3805115748031496
20
0.3282645669291339
11
0.380064094488189
21
0.3278973228346457
0
LINE
8
BLACK
6
CONTINUOUS
10
0.380064094488189
20
0.3278973228346457
11
0.3799660236220472
21
0.3278567322834646
0
LINE
8
BLACK
6
CONTINUOUS
10
0.3799660236220472
20
0.3278567322834646
11
0.3798859448818898
21
0.3277872440944882
0
LINE
8
BLACK
6
CONTINUOUS
10
0.3798859448818898
20
0.3277872440944882
11
0.3793574015748031
21
0.3275512598425197
0
LINE
8
BLACK
6
CONTINUOUS
10
0.3793574015748031
20
0.3275512598425197
11
0.3737331102362205
21
0.3256764960629921
0
LINE
8
BLACK
6
CONTINUOUS
10
0.3737331102362205
20
0.3256764960629921
11
0.3734475196850394
21
0.3256115748031496
0
LINE
8
BLACK
6
CONTINUOUS
10
0.3734475196850394
20
0.3256115748031496
11
0.3733754330708661
21
0.3255816929133858
0
LINE
8
BLACK
6
CONTINUOUS
10
0.3733754330708661
20
0.3255816929133858
11
0.373270905511811
21
0.3255714173228346
0
LINE
8
BLACK
6
CONTINUOUS
10
0.373270905511811
20
0.3255714173228346
11
0.3731686614173228
21
0.3255481496062992
0
LINE
8
BLACK
6
CONTINUOUS
10
0.3731686614173228
20
0.3255481496062992
11
0.373090905511811
21
0.3255537007874016
0
LINE
8
BLACK
6
CONTINUOUS
10
0.373090905511811
20
0.3255537007874016
11
0.3727993700787401
21
0.3255249606299213
0
LINE
8
BLACK
6
CONTINUOUS
10
0.3727993700787401
20
0.3255249606299213
11
0.3446779133858268
21
0.3255249606299213
0
LINE
8
BLACK
6
CONTINUOUS
10
0.3446779133858268
20
0.3255249606299213
11
0.3441018503937008
21
0.3255816929133858
0
LINE
8
BLACK
6
CONTINUOUS
10
0.3441018503937008
20
0.3255816929133858
11
0.3430374409448819
21
0.3260225984251968
0
LINE
8
BLACK
6
CONTINUOUS
10
0.3430374409448819
20
0.3260225984251968
11
0.3422227952755905
21
0.3268372440944882
0
LINE
8
BLACK
6
CONTINUOUS
10
0.3422227952755905
20
0.3268372440944882
11
0.3417818897637795
21
0.3279016535433071
0
LINE
8
BLACK
6
CONTINUOUS
10
0.3417818897637795
20
0.3279016535433071
11
0.3417818897637795
21
0.329053779527559
0
LINE
8
BLACK
6
CONTINUOUS
10
0.3417818897637795
20
0.329053779527559
11
0.3422227952755905
21
0.330118188976378
0
LINE
8
BLACK
6
CONTINUOUS
10
0.3422227952755905
20
0.330118188976378
11
0.3430374409448819
21
0.3309328346456693
0
LINE
8
BLACK
6
CONTINUOUS
10
0.3430374409448819
20
0.3309328346456693
11
0.3441018503937008
21
0.3313737401574803
0
LINE
8
BLACK
6
CONTINUOUS
10
0.3441018503937008
20
0.3313737401574803
11
0.3446779133858268
21
0.3314304724409449
0
LINE
8
BLACK
6
CONTINUOUS
10
0.3446779133858268
20
0.3314304724409449
11
0.3723202362204724
21
0.3314304724409449
0
LINE
8
BLACK
6
CONTINUOUS
10
0.3723202362204724
20
0.3314304724409449
11
0.3768286220472441
21
0.3329333070866142
0
LINE
8
BLACK
6
CONTINUOUS
10
0.3768286220472441
20
0.3329333070866142
11
0.3795924409448819
21
0.3356970866141732
0
LINE
8
BLACK
6
CONTINUOUS
10
0.3795924409448819
20
0.3356970866141732
11
0.3810952362204724
21
0.3402054330708661
0
LINE
8
BLACK
6
CONTINUOUS
10
0.3810952362204724
20
0.3402054330708661
11
0.3810952362204724
21
0.3434758267716536
0
LINE
8
BLACK
6
CONTINUOUS
10
0.3810952362204724
20
0.3434758267716536
11
0.381151968503937
21
0.3440518897637795
0
LINE
8
BLACK
6
CONTINUOUS
10
0.381151968503937
20
0.3440518897637795
11
0.381592874015748
21
0.3451162992125984
0
LINE
8
BLACK
6
CONTINUOUS
10
0.381592874015748
20
0.3451162992125984
11
0.3824075196850394
21
0.3459309448818897
0
LINE
8
BLACK
6
CONTINUOUS
10
0.3824075196850394
20
0.3459309448818897
11
0.3834719291338582
21
0.3463718503937008
0
LINE
8
BLACK
6
CONTINUOUS
10
0.3834719291338582
20
0.3463718503937008
11
0.3846240551181102
21
0.3463718503937008
0
LINE
8
BLACK
6
CONTINUOUS
10
0.3846240551181102
20
0.3463718503937008
11
0.3856884645669291
21
0.3459309448818897
0
LINE
8
BLACK
6
CONTINUOUS
10
0.7435624803149606
20
0.3726275984251968
11
0.744377125984252
21
0.3718129527559055
0
LINE
8
BLACK
6
CONTINUOUS
10
0.744377125984252
20
0.3718129527559055
11
0.744818031496063
21
0.3707485433070866
0
LINE
8
BLACK
6
CONTINUOUS
10
0.744818031496063
20
0.3707485433070866
11
0.7448747637795275
21
0.3701724803149606
0
LINE
8
BLACK
6
CONTINUOUS
10
0.7448747637795275
20
0.3701724803149606
11
0.7448747637795275
21
0.3618766535433071
0
LINE
8
BLACK
6
CONTINUOUS
10
0.7448747637795275
20
0.3618766535433071
11
0.7812920866141733
21
0.3618766535433071
0
LINE
8
BLACK
6
CONTINUOUS
10
0.7812920866141733
20
0.3618766535433071
11
0.7818681496062992
21
0.3618199212598425
0
LINE
8
BLACK
6
CONTINUOUS
10
0.7818681496062992
20
0.3618199212598425
11
0.782932559055118
21
0.3613790157480315
0
LINE
8
BLACK
6
CONTINUOUS
10
0.782932559055118
20
0.3613790157480315
11
0.7837472047244094
21
0.3605643700787401
0
LINE
8
BLACK
6
CONTINUOUS
10
0.7837472047244094
20
0.3605643700787401
11
0.7841881102362205
21
0.3594999606299212
0
LINE
8
BLACK
6
CONTINUOUS
10
0.7841881102362205
20
0.3594999606299212
11
0.7841881102362205
21
0.3583478346456693
0
LINE
8
BLACK
6
CONTINUOUS
10
0.7841881102362205
20
0.3583478346456693
11
0.7837472047244094
21
0.3572834251968504
0
LINE
8
BLACK
6
CONTINUOUS
10
0.7837472047244094
20
0.3572834251968504
11
0.782932559055118
21
0.3564687795275591
0
LINE
8
BLACK
6
CONTINUOUS
10
0.782932559055118
20
0.3564687795275591
11
0.7818681496062992
21
0.356027874015748
0
LINE
8
BLACK
6
CONTINUOUS
10
0.7818681496062992
20
0.356027874015748
11
0.7812920866141733
21
0.3559711417322834
0
LINE
8
BLACK
6
CONTINUOUS
10
0.7812920866141733
20
0.3559711417322834
11
0.7448747637795275
21
0.3559711417322834
0
LINE
8
BLACK
6
CONTINUOUS
10
0.7448747637795275
20
0.3559711417322834
11
0.7448747637795275
21
0.3476753149606299
0
LINE
8
BLACK
6
CONTINUOUS
10
0.7448747637795275
20
0.3476753149606299
11
0.744818031496063
21
0.3470992519685039
0
LINE
8
BLACK
6
CONTINUOUS
10
0.744818031496063
20
0.3470992519685039
11
0.744377125984252
21
0.346034842519685
0
LINE
8
BLACK
6
CONTINUOUS
10
0.744377125984252
20
0.346034842519685
11
0.7435624803149606
21
0.3452201968503937
0
LINE
8
BLACK
6
CONTINUOUS
10
0.7435624803149606
20
0.3452201968503937
11
0.7424980708661417
21
0.3447792913385826
0
LINE
8
BLACK
6
CONTINUOUS
10
0.7424980708661417
20
0.3447792913385826
11
0.7413459448818898
21
0.3447792913385826
0
LINE
8
BLACK
6
CONTINUOUS
10
0.7413459448818898
20
0.3447792913385826
11
0.7402815354330708
21
0.3452201968503937
0
LINE
8
BLACK
6
CONTINUOUS
10
0.7402815354330708
20
0.3452201968503937
11
0.7394668897637795
21
0.346034842519685
0
LINE
8
BLACK
6
CONTINUOUS
10
0.7394668897637795
20
0.346034842519685
11
0.7390259842519685
21
0.3470992519685039
0
LINE
8
BLACK
6
CONTINUOUS
10
0.7390259842519685
20
0.3470992519685039
11
0.7389692519685039
21
0.3476753149606299
0
LINE
8
BLACK
6
CONTINUOUS
10
0.7389692519685039
20
0.3476753149606299
11
0.7389692519685039
21
0.3701724803149606
0
LINE
8
BLACK
6
CONTINUOUS
10
0.7389692519685039
20
0.3701724803149606
11
0.7390259842519685
21
0.3707485433070866
0
LINE
8
BLACK
6
CONTINUOUS
10
0.7390259842519685
20
0.3707485433070866
11
0.7394668897637795
21
0.3718129527559055
0
LINE
8
BLACK
6
CONTINUOUS
10
0.7394668897637795
20
0.3718129527559055
11
0.7402815354330708
21
0.3726275984251968
0
LINE
8
BLACK
6
CONTINUOUS
10
0.7402815354330708
20
0.3726275984251968
11
0.7413459448818898
21
0.3730685039370079
0
LINE
8
BLACK
6
CONTINUOUS
10
0.7413459448818898
20
0.3730685039370079
11
0.7424980708661417
21
0.3730685039370079
0
LINE
8
BLACK
6
CONTINUOUS
10
0.7424980708661417
20
0.3730685039370079
11
0.7435624803149606
21
0.3726275984251968
0
LINE
8
BLACK
6
CONTINUOUS
10
0.5346591338582677
20
0.3951613779527559
11
0.5356896456692913
21
0.3946461023622047
0
LINE
8
BLACK
6
CONTINUOUS
10
0.5356896456692913
20
0.3946461023622047
11
0.5364444881889764
21
0.3937757480314961
0
LINE
8
BLACK
6
CONTINUOUS
10
0.5364444881889764
20
0.3937757480314961
11
0.5368088188976378
21
0.3926827559055118
0
LINE
8
BLACK
6
CONTINUOUS
10
0.5368088188976378
20
0.3926827559055118
11
0.5367271653543307
21
0.3915335433070866
0
LINE
8
BLACK
6
CONTINUOUS
10
0.5367271653543307
20
0.3915335433070866
11
0.5365202755905512
21
0.3909929527559055
0
LINE
8
BLACK
6
CONTINUOUS
10
0.5365202755905512
20
0.3909929527559055
11
0.5346455118110236
21
0.3872434251968504
0
LINE
8
BLACK
6
CONTINUOUS
10
0.5346455118110236
20
0.3872434251968504
11
0.5344894881889763
21
0.3869956299212599
0
LINE
8
BLACK
6
CONTINUOUS
10
0.5344894881889763
20
0.3869956299212599
11
0.5344596456692913
21
0.3869234645669291
0
LINE
8
BLACK
6
CONTINUOUS
10
0.5344596456692913
20
0.3869234645669291
11
0.534393031496063
21
0.3868423228346456
0
LINE
8
BLACK
6
CONTINUOUS
10
0.534393031496063
20
0.3868423228346456
11
0.5343371653543307
21
0.3867535433070866
0
LINE
8
BLACK
6
CONTINUOUS
10
0.5343371653543307
20
0.3867535433070866
11
0.5342782283464567
21
0.3867024409448819
0
LINE
8
BLACK
6
CONTINUOUS
10
0.5342782283464567
20
0.3867024409448819
11
0.5340924015748031
21
0.3864760236220472
0
LINE
8
BLACK
6
CONTINUOUS
10
0.5340924015748031
20
0.3864760236220472
11
0.5316340157480315
21
0.3840176377952756
0
LINE
8
BLACK
6
CONTINUOUS
10
0.5316340157480315
20
0.3840176377952756
11
0.5590479921259842
21
0.3840176377952756
0
LINE
8
BLACK
6
CONTINUOUS
10
0.5590479921259842
20
0.3840176377952756
11
0.5590479921259842
21
0.3923134645669291
0
LINE
8
BLACK
6
CONTINUOUS
10
0.5590479921259842
20
0.3923134645669291
11
0.5591047244094488
21
0.3928895275590551
0
LINE
8
BLACK
6
CONTINUOUS
10
0.5591047244094488
20
0.3928895275590551
11
0.5595456299212598
21
0.393953937007874
0
LINE
8
BLACK
6
CONTINUOUS
10
0.5595456299212598
20
0.393953937007874
11
0.5603602755905511
21
0.3947685826771654
0
LINE
8
BLACK
6
CONTINUOUS
10
0.5603602755905511
20
0.3947685826771654
11
0.56142468503937
21
0.3952094881889764
0
LINE
8
BLACK
6
CONTINUOUS
10
0.56142468503937
20
0.3952094881889764
11
0.562576811023622
21
0.3952094881889764
0
LINE
8
BLACK
6
CONTINUOUS
10
0.562576811023622
20
0.3952094881889764
11
0.5636412204724409
21
0.3947685826771654
0
LINE
8
BLACK
6
CONTINUOUS
10
0.5636412204724409
20
0.3947685826771654
11
0.5644558661417323
21
0.393953937007874
0
LINE
8
BLACK
6
CONTINUOUS
10
0.5644558661417323
20
0.393953937007874
11
0.5648967716535432
21
0.3928895275590551
0
LINE
8
BLACK
6
CONTINUOUS
10
0.5648967716535432
20
0.3928895275590551
11
0.5649535039370078
21
0.3923134645669291
0
LINE
8
BLACK
6
CONTINUOUS
10
0.5649535039370078
20
0.3923134645669291
11
0.5649535039370078
21
0.3698162992125984
0
LINE
8
BLACK
6
CONTINUOUS
10
0.5649535039370078
20
0.3698162992125984
11
0.5648967716535432
21
0.3692402362204724
0
LINE
8
BLACK
6
CONTINUOUS
10
0.5648967716535432
20
0.3692402362204724
11
0.5644558661417323
21
0.3681758267716536
0
LINE
8
BLACK
6
CONTINUOUS
10
0.5644558661417323
20
0.3681758267716536
11
0.5636412204724409
21
0.3673611811023622
0
LINE
8
BLACK
6
CONTINUOUS
10
0.5636412204724409
20
0.3673611811023622
11
0.562576811023622
21
0.3669202755905512
0
LINE
8
BLACK
6
CONTINUOUS
10
0.562576811023622
20
0.3669202755905512
11
0.56142468503937
21
0.3669202755905512
0
LINE
8
BLACK
6
CONTINUOUS
10
0.56142468503937
20
0.3669202755905512
11
0.5603602755905511
21
0.3673611811023622
0
LINE
8
BLACK
6
CONTINUOUS
10
0.5603602755905511
20
0.3673611811023622
11
0.5595456299212598
21
0.3681758267716536
0
LINE
8
BLACK
6
CONTINUOUS
10
0.5595456299212598
20
0.3681758267716536
11
0.5591047244094488
21
0.3692402362204724
0
LINE
8
BLACK
6
CONTINUOUS
10
0.5591047244094488
20
0.3692402362204724
11
0.5590479921259842
21
0.3698162992125984
0
LINE
8
BLACK
6
CONTINUOUS
10
0.5590479921259842
20
0.3698162992125984
11
0.5590479921259842
21
0.378112125984252
0
LINE
8
BLACK
6
CONTINUOUS
10
0.5590479921259842
20
0.378112125984252
11
0.5226306692913386
21
0.378112125984252
0
LINE
8
BLACK
6
CONTINUOUS
10
0.5226306692913386
20
0.378112125984252
11
0.5226285826771654
21
0.3781123622047244
0
LINE
8
BLACK
6
CONTINUOUS
10
0.5226285826771654
20
0.3781123622047244
11
0.5226275590551182
21
0.378112125984252
0
LINE
8
BLACK
6
CONTINUOUS
10
0.5226275590551182
20
0.378112125984252
11
0.5226245275590551
21
0.3781127559055118
0
LINE
8
BLACK
6
CONTINUOUS
10
0.5226245275590551
20
0.3781127559055118
11
0.5220546062992126
21
0.3781688582677165
0
LINE
8
BLACK
6
CONTINUOUS
10
0.5220546062992126
20
0.3781688582677165
11
0.5217844881889764
21
0.378280748031496
0
LINE
8
BLACK
6
CONTINUOUS
10
0.5217844881889764
20
0.378280748031496
11
0.521497874015748
21
0.3783380708661417
0
LINE
8
BLACK
6
CONTINUOUS
10
0.521497874015748
20
0.3783380708661417
11
0.5212574803149607
21
0.3784990551181102
0
LINE
8
BLACK
6
CONTINUOUS
10
0.5212574803149607
20
0.3784990551181102
11
0.5209901968503937
21
0.3786097637795275
0
LINE
8
BLACK
6
CONTINUOUS
10
0.5209901968503937
20
0.3786097637795275
11
0.5207834645669291
21
0.3788164960629921
0
LINE
8
BLACK
6
CONTINUOUS
10
0.5207834645669291
20
0.3788164960629921
11
0.5205405905511811
21
0.3789791338582677
0
LINE
8
BLACK
6
CONTINUOUS
10
0.5205405905511811
20
0.3789791338582677
11
0.5203800787401575
21
0.3792198818897637
0
LINE
8
BLACK
6
CONTINUOUS
10
0.5203800787401575
20
0.3792198818897637
11
0.5201755511811024
21
0.3794244094488189
0
LINE
8
BLACK
6
CONTINUOUS
10
0.5201755511811024
20
0.3794244094488189
11
0.5200636614173229
21
0.3796945275590551
0
LINE
8
BLACK
6
CONTINUOUS
10
0.5200636614173229
20
0.3796945275590551
11
0.5199014960629921
21
0.3799377559055118
0
LINE
8
BLACK
6
CONTINUOUS
10
0.5199014960629921
20
0.3799377559055118
11
0.5198453543307087
21
0.3802215748031496
0
LINE
8
BLACK
6
CONTINUOUS
10
0.5198453543307087
20
0.3802215748031496
11
0.5197346456692913
21
0.3804888188976378
0
LINE
8
BLACK
6
CONTINUOUS
10
0.5197346456692913
20
0.3804888188976378
11
0.5197346456692913
21
0.380781220472441
0
LINE
8
BLACK
6
CONTINUOUS
10
0.5197346456692913
20
0.380781220472441
11
0.5196779133858268
21
0.3810679921259842
0
LINE
8
BLACK
6
CONTINUOUS
10
0.5196779133858268
20
0.3810679921259842
11
0.5197346456692913
21
0.3813516535433071
0
LINE
8
BLACK
6
CONTINUOUS
10
0.5197346456692913
20
0.3813516535433071
11
0.5197346456692913
21
0.3816409448818898
0
LINE
8
BLACK
6
CONTINUOUS
10
0.5197346456692913
20
0.3816409448818898
11
0.5198464960629922
21
0.381911062992126
0
LINE
8
BLACK
6
CONTINUOUS
10
0.5198464960629922
20
0.381911062992126
11
0.5199038582677166
21
0.3821976771653543
0
LINE
8
BLACK
6
CONTINUOUS
10
0.5199038582677166
20
0.3821976771653543
11
0.5200648031496062
21
0.3824380708661417
0
LINE
8
BLACK
6
CONTINUOUS
10
0.5200648031496062
20
0.3824380708661417
11
0.5201755511811024
21
0.3827053543307087
0
LINE
8
BLACK
6
CONTINUOUS
10
0.5201755511811024
20
0.3827053543307087
11
0.5203822440944882
21
0.3829120866141732
0
LINE
8
BLACK
6
CONTINUOUS
10
0.5203822440944882
20
0.3829120866141732
11
0.5205449212598425
21
0.3831549606299213
0
LINE
8
BLACK
6
CONTINUOUS
10
0.5205449212598425
20
0.3831549606299213
11
0.5209881496062992
21
0.3835179921259843
0
LINE
8
BLACK
6
CONTINUOUS
10
0.5209881496062992
20
0.3835179921259843
11
0.5209901968503937
21
0.38352
0
LINE
8
BLACK
6
CONTINUOUS
10
0.5209901968503937
20
0.38352
11
0.5209910629921259
21
0.3835203937007874
0
LINE
8
BLACK
6
CONTINUOUS
10
0.5209910629921259
20
0.3835203937007874
11
0.5209927559055118
21
0.3835217322834645
0
LINE
8
BLACK
6
CONTINUOUS
10
0.5209927559055118
20
0.3835217322834645
11
0.526373779527559
21
0.387109094488189
0
LINE
8
BLACK
6
CONTINUOUS
10
0.526373779527559
20
0.387109094488189
11
0.5295777559055118
21
0.390313031496063
0
LINE
8
BLACK
6
CONTINUOUS
10
0.5295777559055118
20
0.390313031496063
11
0.5312382283464567
21
0.3936339763779527
0
LINE
8
BLACK
6
CONTINUOUS
10
0.5312382283464567
20
0.3936339763779527
11
0.5315465748031496
21
0.3941238582677165
0
LINE
8
BLACK
6
CONTINUOUS
10
0.5315465748031496
20
0.3941238582677165
11
0.532416968503937
21
0.3948787007874016
0
LINE
8
BLACK
6
CONTINUOUS
10
0.532416968503937
20
0.3948787007874016
11
0.5335099212598425
21
0.395243031496063
0
LINE
8
BLACK
6
CONTINUOUS
10
0.5335099212598425
20
0.395243031496063
11
0.5346591338582677
21
0.3951613779527559
0
LINE
8
BLACK
6
CONTINUOUS
10
0.7818681496062992
20
0.4068142913385827
11
0.782932559055118
21
0.4063733858267716
0
LINE
8
BLACK
6
CONTINUOUS
10
0.782932559055118
20
0.4063733858267716
11
0.7837472047244094
21
0.4055587401574803
0
LINE
8
BLACK
6
CONTINUOUS
10
0.7837472047244094
20
0.4055587401574803
11
0.7841881102362205
21
0.4044943307086614
0
LINE
8
BLACK
6
CONTINUOUS
10
0.7841881102362205
20
0.4044943307086614
11
0.7841881102362205
21
0.4033422047244095
0
LINE
8
BLACK
6
CONTINUOUS
10
0.7841881102362205
20
0.4033422047244095
11
0.7837472047244094
21
0.4022777952755905
0
LINE
8
BLACK
6
CONTINUOUS
10
0.7837472047244094
20
0.4022777952755905
11
0.782932559055118
21
0.4014631496062992
0
LINE
8
BLACK
6
CONTINUOUS
10
0.782932559055118
20
0.4014631496062992
11
0.7818681496062992
21
0.4010222440944882
0
LINE
8
BLACK
6
CONTINUOUS
10
0.7818681496062992
20
0.4010222440944882
11
0.7812920866141733
21
0.4009655118110236
0
LINE
8
BLACK
6
CONTINUOUS
10
0.7812920866141733
20
0.4009655118110236
11
0.7654971653543307
21
0.4009655118110236
0
LINE
8
BLACK
6
CONTINUOUS
10
0.7654971653543307
20
0.4009655118110236
11
0.7654971653543307
21
0.3960818503937008
0
LINE
8
BLACK
6
CONTINUOUS
10
0.7654971653543307
20
0.3960818503937008
11
0.7829853937007873
21
0.3838400787401575
0
LINE
8
BLACK
6
CONTINUOUS
10
0.7829853937007873
20
0.3838400787401575
11
0.7834247637795275
21
0.3834632677165354
0
LINE
8
BLACK
6
CONTINUOUS
10
0.7834247637795275
20
0.3834632677165354
11
0.784043937007874
21
0.3824916535433071
0
LINE
8
BLACK
6
CONTINUOUS
10
0.784043937007874
20
0.3824916535433071
11
0.7842441732283464
21
0.381357125984252
0
LINE
8
BLACK
6
CONTINUOUS
10
0.7842441732283464
20
0.381357125984252
11
0.7839949606299212
21
0.3802322834645669
0
LINE
8
BLACK
6
CONTINUOUS
10
0.7839949606299212
20
0.3802322834645669
11
0.7833342519685039
21
0.3792884251968504
0
LINE
8
BLACK
6
CONTINUOUS
10
0.7833342519685039
20
0.3792884251968504
11
0.7823626771653543
21
0.3786692519685039
0
LINE
8
BLACK
6
CONTINUOUS
10
0.7823626771653543
20
0.3786692519685039
11
0.7812281102362204
21
0.3784690551181102
0
LINE
8
BLACK
6
CONTINUOUS
10
0.7812281102362204
20
0.3784690551181102
11
0.7801032677165354
21
0.3787182283464567
0
LINE
8
BLACK
6
CONTINUOUS
10
0.7801032677165354
20
0.3787182283464567
11
0.7795988188976378
21
0.3790020866141732
0
LINE
8
BLACK
6
CONTINUOUS
10
0.7795988188976378
20
0.3790020866141732
11
0.7654928346456693
21
0.3888762598425197
0
LINE
8
BLACK
6
CONTINUOUS
10
0.7654928346456693
20
0.3888762598425197
11
0.7654404330708662
21
0.388344094488189
0
LINE
8
BLACK
6
CONTINUOUS
10
0.7654404330708662
20
0.388344094488189
11
0.7653998425196851
21
0.3882461417322834
0
LINE
8
BLACK
6
CONTINUOUS
10
0.7653998425196851
20
0.3882461417322834
11
0.7653923228346456
21
0.3881402362204724
0
LINE
8
BLACK
6
CONTINUOUS
10
0.7653923228346456
20
0.3881402362204724
11
0.7651854330708662
21
0.3875996456692913
0
LINE
8
BLACK
6
CONTINUOUS
10
0.7651854330708662
20
0.3875996456692913
11
0.7633106692913386
21
0.3838501181102362
0
LINE
8
BLACK
6
CONTINUOUS
10
0.7633106692913386
20
0.3838501181102362
11
0.7631545669291339
21
0.383602125984252
0
LINE
8
BLACK
6
CONTINUOUS
10
0.7631545669291339
20
0.383602125984252
11
0.7631247637795275
21
0.3835301574803149
0
LINE
8
BLACK
6
CONTINUOUS
10
0.7631247637795275
20
0.3835301574803149
11
0.7630582677165354
21
0.3834492125984252
0
LINE
8
BLACK
6
CONTINUOUS
10
0.7630582677165354
20
0.3834492125984252
11
0.7630023228346456
21
0.3833602362204724
0
LINE
8
BLACK
6
CONTINUOUS
10
0.7630023228346456
20
0.3833602362204724
11
0.7629433070866142
21
0.383309094488189
0
LINE
8
BLACK
6
CONTINUOUS
10
0.7629433070866142
20
0.383309094488189
11
0.7627575590551181
21
0.3830827165354331
0
LINE
8
BLACK
6
CONTINUOUS
10
0.7627575590551181
20
0.3830827165354331
11
0.7608827952755906
21
0.3812079527559055
0
LINE
8
BLACK
6
CONTINUOUS
10
0.7608827952755906
20
0.3812079527559055
11
0.7606564173228346
21
0.3810222047244095
0
LINE
8
BLACK
6
CONTINUOUS
10
0.7606564173228346
20
0.3810222047244095
11
0.7606052755905511
21
0.3809631889763779
0
LINE
8
BLACK
6
CONTINUOUS
10
0.7606052755905511
20
0.3809631889763779
11
0.7605162992125984
21
0.3809072440944882
0
LINE
8
BLACK
6
CONTINUOUS
10
0.7605162992125984
20
0.3809072440944882
11
0.7604353543307086
21
0.380840748031496
0
LINE
8
BLACK
6
CONTINUOUS
10
0.7604353543307086
20
0.380840748031496
11
0.7603633858267717
21
0.3808109448818898
0
LINE
8
BLACK
6
CONTINUOUS
10
0.7603633858267717
20
0.3808109448818898
11
0.7601153937007874
21
0.380654842519685
0
LINE
8
BLACK
6
CONTINUOUS
10
0.7601153937007874
20
0.380654842519685
11
0.7563658661417323
21
0.3787800787401575
0
LINE
8
BLACK
6
CONTINUOUS
10
0.7563658661417323
20
0.3787800787401575
11
0.7558252362204724
21
0.3785731889763779
0
LINE
8
BLACK
6
CONTINUOUS
10
0.7558252362204724
20
0.3785731889763779
11
0.7557194094488189
21
0.3785657086614173
0
LINE
8
BLACK
6
CONTINUOUS
10
0.7557194094488189
20
0.3785657086614173
11
0.7556214173228346
21
0.3785250787401575
0
LINE
8
BLACK
6
CONTINUOUS
10
0.7556214173228346
20
0.3785250787401575
11
0.7550453543307086
21
0.3784683464566929
0
LINE
8
BLACK
6
CONTINUOUS
10
0.7550453543307086
20
0.3784683464566929
11
0.749421062992126
21
0.3784683464566929
0
LINE
8
BLACK
6
CONTINUOUS
10
0.749421062992126
20
0.3784683464566929
11
0.748845
21
0.3785250787401575
0
LINE
8
BLACK
6
CONTINUOUS
10
0.748845
20
0.3785250787401575
11
0.7487470078740157
21
0.3785656692913386
0
LINE
8
BLACK
6
CONTINUOUS
10
0.7487470078740157
20
0.3785656692913386
11
0.7486411417322835
21
0.3785731889763779
0
LINE
8
BLACK
6
CONTINUOUS
10
0.7486411417322835
20
0.3785731889763779
11
0.7481005511811023
21
0.3787800787401575
0
LINE
8
BLACK
6
CONTINUOUS
10
0.7481005511811023
20
0.3787800787401575
11
0.7443510236220472
21
0.380654842519685
0
LINE
8
BLACK
6
CONTINUOUS
10
0.7443510236220472
20
0.380654842519685
11
0.7441029921259842
21
0.3808109448818898
0
LINE
8
BLACK
6
CONTINUOUS
10
0.7441029921259842
20
0.3808109448818898
11
0.744031062992126
21
0.380840748031496
0
LINE
8
BLACK
6
CONTINUOUS
10
0.744031062992126
20
0.380840748031496
11
0.7439500787401575
21
0.3809072440944882
0
LINE
8
BLACK
6
CONTINUOUS
10
0.7439500787401575
20
0.3809072440944882
11
0.7438611417322835
21
0.3809631889763779
0
LINE
8
BLACK
6
CONTINUOUS
10
0.7438611417322835
20
0.3809631889763779
11
0.7438099606299212
21
0.3810222047244095
0
LINE
8
BLACK
6
CONTINUOUS
10
0.7438099606299212
20
0.3810222047244095
11
0.743583622047244
21
0.3812079527559055
0
LINE
8
BLACK
6
CONTINUOUS
10
0.743583622047244
20
0.3812079527559055
11
0.7417088582677165
21
0.3830827165354331
0
LINE
8
BLACK
6
CONTINUOUS
10
0.7417088582677165
20
0.3830827165354331
11
0.7415230708661417
21
0.383309094488189
0
LINE
8
BLACK
6
CONTINUOUS
10
0.7415230708661417
20
0.383309094488189
11
0.741464094488189
21
0.3833602362204724
0
LINE
8
BLACK
6
CONTINUOUS
10
0.741464094488189
20
0.3833602362204724
11
0.7414081102362204
21
0.3834492125984252
0
LINE
8
BLACK
6
CONTINUOUS
10
0.7414081102362204
20
0.3834492125984252
11
0.7413416535433071
21
0.3835301574803149
0
LINE
8
BLACK
6
CONTINUOUS
10
0.7413416535433071
20
0.3835301574803149
11
0.741311811023622
21
0.383602125984252
0
LINE
8
BLACK
6
CONTINUOUS
10
0.741311811023622
20
0.383602125984252
11
0.7411557480314961
21
0.3838501181102362
0
LINE
8
BLACK
6
CONTINUOUS
10
0.7411557480314961
20
0.3838501181102362
11
0.7392809842519685
21
0.3875996456692913
0
LINE
8
BLACK
6
CONTINUOUS
10
0.7392809842519685
20
0.3875996456692913
11
0.7390740944881889
21
0.3881402755905512
0
LINE
8
BLACK
6
CONTINUOUS
10
0.7390740944881889
20
0.3881402755905512
11
0.7390665748031496
21
0.3882461023622047
0
LINE
8
BLACK
6
CONTINUOUS
10
0.7390665748031496
20
0.3882461023622047
11
0.7390259842519685
21
0.388344094488189
0
LINE
8
BLACK
6
CONTINUOUS
10
0.7390259842519685
20
0.388344094488189
11
0.7389692519685039
21
0.3889201574803149
0
LINE
8
BLACK
6
CONTINUOUS
10
0.7389692519685039
20
0.3889201574803149
11
0.7389692519685039
21
0.4039182677165354
0
LINE
8
BLACK
6
CONTINUOUS
10
0.7389692519685039
20
0.4039182677165354
11
0.7390259842519685
21
0.4044943307086614
0
LINE
8
BLACK
6
CONTINUOUS
10
0.7390259842519685
20
0.4044943307086614
11
0.7394668897637795
21
0.4055587401574803
0
LINE
8
BLACK
6
CONTINUOUS
10
0.7394668897637795
20
0.4055587401574803
11
0.7402815354330708
21
0.4063733858267716
0
LINE
8
BLACK
6
CONTINUOUS
10
0.7402815354330708
20
0.4063733858267716
11
0.7413459448818898
21
0.4068142913385827
0
LINE
8
BLACK
6
CONTINUOUS
10
0.7413459448818898
20
0.4068142913385827
11
0.7419220078740157
21
0.4068710236220472
0
LINE
8
BLACK
6
CONTINUOUS
10
0.7419220078740157
20
0.4068710236220472
11
0.7812920866141733
21
0.4068710236220472
0
LINE
8
BLACK
6
CONTINUOUS
10
0.7812920866141733
20
0.4068710236220472
11
0.7818681496062992
21
0.4068142913385827
0
LINE
8
BLACK
6
CONTINUOUS
10
0.7448747637795275
20
0.3896172047244094
11
0.7462235039370079
21
0.3869197244094488
0
LINE
8
BLACK
6
CONTINUOUS
10
0.7462235039370079
20
0.3869197244094488
11
0.7474206299212598
21
0.3857225984251968
0
LINE
8
BLACK
6
CONTINUOUS
10
0.7474206299212598
20
0.3857225984251968
11
0.7501181102362204
21
0.3843738582677165
0
LINE
8
BLACK
6
CONTINUOUS
10
0.7501181102362204
20
0.3843738582677165
11
0.7543483070866142
21
0.3843738582677165
0
LINE
8
BLACK
6
CONTINUOUS
10
0.7543483070866142
20
0.3843738582677165
11
0.7570457874015748
21
0.3857225984251968
0
LINE
8
BLACK
6
CONTINUOUS
10
0.7570457874015748
20
0.3857225984251968
11
0.7582429133858267
21
0.3869197244094488
0
LINE
8
BLACK
6
CONTINUOUS
10
0.7582429133858267
20
0.3869197244094488
11
0.759591653543307
21
0.3896172047244094
0
LINE
8
BLACK
6
CONTINUOUS
10
0.759591653543307
20
0.3896172047244094
11
0.759591653543307
21
0.4009655118110236
0
LINE
8
BLACK
6
CONTINUOUS
10
0.759591653543307
20
0.4009655118110236
11
0.7448747637795275
21
0.4009655118110236
0
LINE
8
BLACK
6
CONTINUOUS
10
0.7448747637795275
20
0.4009655118110236
11
0.7448747637795275
21
0.3896172047244094
0
LINE
8
BLACK
6
CONTINUOUS
10
0.2797286220472441
20
0.4298716535433071
11
0.280793031496063
21
0.4294307480314961
0
LINE
8
BLACK
6
CONTINUOUS
10
0.280793031496063
20
0.4294307480314961
11
0.2816076771653543
21
0.4286161023622047
0
LINE
8
BLACK
6
CONTINUOUS
10
0.2816076771653543
20
0.4286161023622047
11
0.2820485826771654
21
0.4275516929133858
0
LINE
8
BLACK
6
CONTINUOUS
10
0.2820485826771654
20
0.4275516929133858
11
0.2821053149606299
21
0.4269756299212598
0
LINE
8
BLACK
6
CONTINUOUS
10
0.2821053149606299
20
0.4269756299212598
11
0.2821053149606299
21
0.3876055511811023
0
LINE
8
BLACK
6
CONTINUOUS
10
0.2821053149606299
20
0.3876055511811023
11
0.2820485826771654
21
0.3870294881889764
0
LINE
8
BLACK
6
CONTINUOUS
10
0.2820485826771654
20
0.3870294881889764
11
0.2816076771653543
21
0.3859650787401575
0
LINE
8
BLACK
6
CONTINUOUS
10
0.2816076771653543
20
0.3859650787401575
11
0.280793031496063
21
0.3851504330708662
0
LINE
8
BLACK
6
CONTINUOUS
10
0.280793031496063
20
0.3851504330708662
11
0.2797286220472441
21
0.3847095275590551
0
LINE
8
BLACK
6
CONTINUOUS
10
0.2797286220472441
20
0.3847095275590551
11
0.2785764960629921
21
0.3847095275590551
0
LINE
8
BLACK
6
CONTINUOUS
10
0.2785764960629921
20
0.3847095275590551
11
0.2775120866141732
21
0.3851504330708662
0
LINE
8
BLACK
6
CONTINUOUS
10
0.2775120866141732
20
0.3851504330708662
11
0.2766974409448819
21
0.3859650787401575
0
LINE
8
BLACK
6
CONTINUOUS
10
0.2766974409448819
20
0.3859650787401575
11
0.2762565354330709
21
0.3870294881889764
0
LINE
8
BLACK
6
CONTINUOUS
10
0.2762565354330709
20
0.3870294881889764
11
0.2761998031496063
21
0.3876055511811023
0
LINE
8
BLACK
6
CONTINUOUS
10
0.2761998031496063
20
0.3876055511811023
11
0.2761998031496063
21
0.4034004724409448
0
LINE
8
BLACK
6
CONTINUOUS
10
0.2761998031496063
20
0.4034004724409448
11
0.2713161023622047
21
0.4034004724409448
0
LINE
8
BLACK
6
CONTINUOUS
10
0.2713161023622047
20
0.4034004724409448
11
0.2590743700787402
21
0.3859122440944882
0
LINE
8
BLACK
6
CONTINUOUS
10
0.2590743700787402
20
0.3859122440944882
11
0.2586975590551181
21
0.385472874015748
0
LINE
8
BLACK
6
CONTINUOUS
10
0.2586975590551181
20
0.385472874015748
11
0.2577259448818898
21
0.3848537007874016
0
LINE
8
BLACK
6
CONTINUOUS
10
0.2577259448818898
20
0.3848537007874016
11
0.2565914173228346
21
0.3846535039370079
0
LINE
8
BLACK
6
CONTINUOUS
10
0.2565914173228346
20
0.3846535039370079
11
0.2554665748031496
21
0.3849026771653543
0
LINE
8
BLACK
6
CONTINUOUS
10
0.2554665748031496
20
0.3849026771653543
11
0.2545227165354331
21
0.3855633858267716
0
LINE
8
BLACK
6
CONTINUOUS
10
0.2545227165354331
20
0.3855633858267716
11
0.2539035433070866
21
0.386535
0
LINE
8
BLACK
6
CONTINUOUS
10
0.2539035433070866
20
0.386535
11
0.2537033464566929
21
0.3876695275590551
0
LINE
8
BLACK
6
CONTINUOUS
10
0.2537033464566929
20
0.3876695275590551
11
0.2539525196850393
21
0.3887943700787401
0
LINE
8
BLACK
6
CONTINUOUS
10
0.2539525196850393
20
0.3887943700787401
11
0.2542364173228346
21
0.3892988582677165
0
LINE
8
BLACK
6
CONTINUOUS
10
0.2542364173228346
20
0.3892988582677165
11
0.2641105511811024
21
0.4034048031496063
0
LINE
8
BLACK
6
CONTINUOUS
10
0.2641105511811024
20
0.4034048031496063
11
0.2635783858267716
21
0.4034572047244094
0
LINE
8
BLACK
6
CONTINUOUS
10
0.2635783858267716
20
0.4034572047244094
11
0.2634803937007874
21
0.4034977952755905
0
LINE
8
BLACK
6
CONTINUOUS
10
0.2634803937007874
20
0.4034977952755905
11
0.2633745275590551
21
0.4035053149606299
0
LINE
8
BLACK
6
CONTINUOUS
10
0.2633745275590551
20
0.4035053149606299
11
0.262833937007874
21
0.4037122047244094
0
LINE
8
BLACK
6
CONTINUOUS
10
0.262833937007874
20
0.4037122047244094
11
0.2590844094488189
21
0.405586968503937
0
LINE
8
BLACK
6
CONTINUOUS
10
0.2590844094488189
20
0.405586968503937
11
0.2588363779527559
21
0.4057430708661417
0
LINE
8
BLACK
6
CONTINUOUS
10
0.2588363779527559
20
0.4057430708661417
11
0.2587644488188977
21
0.405772874015748
0
LINE
8
BLACK
6
CONTINUOUS
10
0.2587644488188977
20
0.405772874015748
11
0.2586834645669291
21
0.4058393700787402
0
LINE
8
BLACK
6
CONTINUOUS
10
0.2586834645669291
20
0.4058393700787402
11
0.2585945275590551
21
0.4058953149606299
0
LINE
8
BLACK
6
CONTINUOUS
10
0.2585945275590551
20
0.4058953149606299
11
0.2585433464566929
21
0.4059543307086614
0
LINE
8
BLACK
6
CONTINUOUS
10
0.2585433464566929
20
0.4059543307086614
11
0.2583170078740157
21
0.4061400787401575
0
LINE
8
BLACK
6
CONTINUOUS
10
0.2583170078740157
20
0.4061400787401575
11
0.2564422440944882
21
0.408014842519685
0
LINE
8
BLACK
6
CONTINUOUS
10
0.2564422440944882
20
0.408014842519685
11
0.2562564566929134
21
0.4082412204724409
0
LINE
8
BLACK
6
CONTINUOUS
10
0.2562564566929134
20
0.4082412204724409
11
0.2561974803149606
21
0.4082923622047244
0
LINE
8
BLACK
6
CONTINUOUS
10
0.2561974803149606
20
0.4082923622047244
11
0.2561414960629921
21
0.4083813385826772
0
LINE
8
BLACK
6
CONTINUOUS
10
0.2561414960629921
20
0.4083813385826772
11
0.2560750393700787
21
0.4084622834645669
0
LINE
8
BLACK
6
CONTINUOUS
10
0.2560750393700787
20
0.4084622834645669
11
0.2560451968503937
21
0.4085342519685039
0
LINE
8
BLACK
6
CONTINUOUS
10
0.2560451968503937
20
0.4085342519685039
11
0.2558891338582677
21
0.4087822440944882
0
LINE
8
BLACK
6
CONTINUOUS
10
0.2558891338582677
20
0.4087822440944882
11
0.2540143700787402
21
0.4125317716535433
0
LINE
8
BLACK
6
CONTINUOUS
10
0.2540143700787402
20
0.4125317716535433
11
0.2538074803149606
21
0.4130724015748031
0
LINE
8
BLACK
6
CONTINUOUS
10
0.2538074803149606
20
0.4130724015748031
11
0.2537999606299213
21
0.4131782283464567
0
LINE
8
BLACK
6
CONTINUOUS
10
0.2537999606299213
20
0.4131782283464567
11
0.2537593700787402
21
0.4132762204724409
0
LINE
8
BLACK
6
CONTINUOUS
10
0.2537593700787402
20
0.4132762204724409
11
0.2537026377952756
21
0.4138522834645669
0
LINE
8
BLACK
6
CONTINUOUS
10
0.2537026377952756
20
0.4138522834645669
11
0.2537026377952756
21
0.4194765748031496
0
LINE
8
BLACK
6
CONTINUOUS
10
0.2537026377952756
20
0.4194765748031496
11
0.2537593700787402
21
0.4200526377952756
0
LINE
8
BLACK
6
CONTINUOUS
10
0.2537593700787402
20
0.4200526377952756
11
0.2537999606299213
21
0.4201506692913386
0
LINE
8
BLACK
6
CONTINUOUS
10
0.2537999606299213
20
0.4201506692913386
11
0.2538074803149606
21
0.4202564566929134
0
LINE
8
BLACK
6
CONTINUOUS
10
0.2538074803149606
20
0.4202564566929134
11
0.2540143700787402
21
0.4207970866141732
0
LINE
8
BLACK
6
CONTINUOUS
10
0.2540143700787402
20
0.4207970866141732
11
0.2558891338582677
21
0.4245466141732283
0
LINE
8
BLACK
6
CONTINUOUS
10
0.2558891338582677
20
0.4245466141732283
11
0.2560451968503937
21
0.4247946456692913
0
LINE
8
BLACK
6
CONTINUOUS
10
0.2560451968503937
20
0.4247946456692913
11
0.2560750393700787
21
0.4248665748031496
0
LINE
8
BLACK
6
CONTINUOUS
10
0.2560750393700787
20
0.4248665748031496
11
0.2561414960629921
21
0.4249475590551181
0
LINE
8
BLACK
6
CONTINUOUS
10
0.2561414960629921
20
0.4249475590551181
11
0.2561974803149606
21
0.4250364960629921
0
LINE
8
BLACK
6
CONTINUOUS
10
0.2561974803149606
20
0.4250364960629921
11
0.2562564566929134
21
0.4250876771653543
0
LINE
8
BLACK
6
CONTINUOUS
10
0.2562564566929134
20
0.4250876771653543
11
0.2564422440944882
21
0.4253140157480315
0
LINE
8
BLACK
6
CONTINUOUS
10
0.2564422440944882
20
0.4253140157480315
11
0.2583170078740157
21
0.4271887795275591
0
LINE
8
BLACK
6
CONTINUOUS
10
0.2583170078740157
20
0.4271887795275591
11
0.2585433464566929
21
0.4273745669291338
0
LINE
8
BLACK
6
CONTINUOUS
10
0.2585433464566929
20
0.4273745669291338
11
0.2585945275590551
21
0.4274335433070866
0
LINE
8
BLACK
6
CONTINUOUS
10
0.2585945275590551
20
0.4274335433070866
11
0.2586834645669291
21
0.4274895275590551
0
LINE
8
BLACK
6
CONTINUOUS
10
0.2586834645669291
20
0.4274895275590551
11
0.2587644488188977
21
0.4275559842519685
0
LINE
8
BLACK
6
CONTINUOUS
10
0.2587644488188977
20
0.4275559842519685
11
0.2588363779527559
21
0.4275858267716535
0
LINE
8
BLACK
6
CONTINUOUS
10
0.2588363779527559
20
0.4275858267716535
11
0.2590844094488189
21
0.4277418897637795
0
LINE
8
BLACK
6
CONTINUOUS
10
0.2590844094488189
20
0.4277418897637795
11
0.262833937007874
21
0.4296166535433071
0
LINE
8
BLACK
6
CONTINUOUS
10
0.262833937007874
20
0.4296166535433071
11
0.2633745275590551
21
0.4298235433070866
0
LINE
8
BLACK
6
CONTINUOUS
10
0.2633745275590551
20
0.4298235433070866
11
0.2634803937007874
21
0.4298311023622047
0
LINE
8
BLACK
6
CONTINUOUS
10
0.2634803937007874
20
0.4298311023622047
11
0.2635783858267716
21
0.4298716535433071
0
LINE
8
BLACK
6
CONTINUOUS
10
0.2635783858267716
20
0.4298716535433071
11
0.2641544488188977
21
0.4299283858267716
0
LINE
8
BLACK
6
CONTINUOUS
10
0.2641544488188977
20
0.4299283858267716
11
0.2791525590551181
21
0.4299283858267716
0
LINE
8
BLACK
6
CONTINUOUS
10
0.2791525590551181
20
0.4299283858267716
11
0.2797286220472441
21
0.4298716535433071
0
LINE
8
BLACK
6
CONTINUOUS
10
0.2621540157480315
20
0.4226741338582677
11
0.2609568897637795
21
0.4214770078740158
0
LINE
8
BLACK
6
CONTINUOUS
10
0.2609568897637795
20
0.4214770078740158
11
0.2596081496062992
21
0.4187795275590551
0
LINE
8
BLACK
6
CONTINUOUS
10
0.2596081496062992
20
0.4187795275590551
11
0.2596081496062992
21
0.4145493307086614
0
LINE
8
BLACK
6
CONTINUOUS
10
0.2596081496062992
20
0.4145493307086614
11
0.2609568897637795
21
0.4118518503937008
0
LINE
8
BLACK
6
CONTINUOUS
10
0.2609568897637795
20
0.4118518503937008
11
0.2621540157480315
21
0.4106547244094488
0
LINE
8
BLACK
6
CONTINUOUS
10
0.2621540157480315
20
0.4106547244094488
11
0.2648514960629921
21
0.4093059842519685
0
LINE
8
BLACK
6
CONTINUOUS
10
0.2648514960629921
20
0.4093059842519685
11
0.2761998031496063
21
0.4093059842519685
0
LINE
8
BLACK
6
CONTINUOUS
10
0.2761998031496063
20
0.4093059842519685
11
0.2761998031496063
21
0.424022874015748
0
LINE
8
BLACK
6
CONTINUOUS
10
0.2761998031496063
20
0.424022874015748
11
0.2648514960629921
21
0.424022874015748
0
LINE
8
BLACK
6
CONTINUOUS
10
0.2648514960629921
20
0.424022874015748
11
0.2621540157480315
21
0.4226741338582677
0
LINE
8
BLACK
6
CONTINUOUS
10
0.3291276377952756
20
0.4296594881889764
11
0.3300609842519685
21
0.4289840157480315
0
LINE
8
BLACK
6
CONTINUOUS
10
0.3300609842519685
20
0.4289840157480315
11
0.3306647637795275
21
0.4280028346456693
0
LINE
8
BLACK
6
CONTINUOUS
10
0.3306647637795275
20
0.4280028346456693
11
0.3308471653543307
21
0.4268652362204725
0
LINE
8
BLACK
6
CONTINUOUS
10
0.3308471653543307
20
0.4268652362204725
11
0.3307688976377953
21
0.4262917322834646
0
LINE
8
BLACK
6
CONTINUOUS
10
0.3307688976377953
20
0.4262917322834646
11
0.3213950787401575
21
0.3869216141732283
0
LINE
8
BLACK
6
CONTINUOUS
10
0.3213950787401575
20
0.3869216141732283
11
0.321326968503937
21
0.3867240551181103
0
LINE
8
BLACK
6
CONTINUOUS
10
0.321326968503937
20
0.3867240551181103
11
0.3213175590551181
21
0.386653031496063
0
LINE
8
BLACK
6
CONTINUOUS
10
0.3213175590551181
20
0.386653031496063
11
0.3212803937007874
21
0.3865888976377952
0
LINE
8
BLACK
6
CONTINUOUS
10
0.3212803937007874
20
0.3865888976377952
11
0.3212064960629921
21
0.3863743700787401
0
LINE
8
BLACK
6
CONTINUOUS
10
0.3212064960629921
20
0.3863743700787401
11
0.3209550787401575
21
0.3860270078740157
0
LINE
8
BLACK
6
CONTINUOUS
10
0.3209550787401575
20
0.3860270078740157
11
0.3207403149606299
21
0.3856560236220473
0
LINE
8
BLACK
6
CONTINUOUS
10
0.3207403149606299
20
0.3856560236220473
11
0.3206199212598425
21
0.3855638976377952
0
LINE
8
BLACK
6
CONTINUOUS
10
0.3206199212598425
20
0.3855638976377952
11
0.3205310236220472
21
0.3854410236220472
0
LINE
8
BLACK
6
CONTINUOUS
10
0.3205310236220472
20
0.3854410236220472
11
0.3201659842519685
21
0.3852164173228346
0
LINE
8
BLACK
6
CONTINUOUS
10
0.3201659842519685
20
0.3852164173228346
11
0.3198254330708661
21
0.3849557086614173
0
LINE
8
BLACK
6
CONTINUOUS
10
0.3198254330708661
20
0.3849557086614173
11
0.3196788188976378
21
0.3849166141732283
0
LINE
8
BLACK
6
CONTINUOUS
10
0.3196788188976378
20
0.3849166141732283
11
0.319549842519685
21
0.3848372440944882
0
LINE
8
BLACK
6
CONTINUOUS
10
0.319549842519685
20
0.3848372440944882
11
0.3191268503937008
21
0.3847694488188976
0
LINE
8
BLACK
6
CONTINUOUS
10
0.3191268503937008
20
0.3847694488188976
11
0.3187122440944882
21
0.3846588582677165
0
LINE
8
BLACK
6
CONTINUOUS
10
0.3187122440944882
20
0.3846588582677165
11
0.3185618897637795
21
0.3846788582677165
0
LINE
8
BLACK
6
CONTINUOUS
10
0.3185618897637795
20
0.3846788582677165
11
0.3184122440944882
21
0.384654842519685
0
LINE
8
BLACK
6
CONTINUOUS
10
0.3184122440944882
20
0.384654842519685
11
0.3179950787401575
21
0.3847541732283464
0
LINE
8
BLACK
6
CONTINUOUS
10
0.3179950787401575
20
0.3847541732283464
11
0.317570157480315
21
0.3848106299212599
0
LINE
8
BLACK
6
CONTINUOUS
10
0.317570157480315
20
0.3848106299212599
11
0.3174389763779528
21
0.3848865748031496
0
LINE
8
BLACK
6
CONTINUOUS
10
0.3174389763779528
20
0.3848865748031496
11
0.3172914566929134
21
0.3849216929133858
0
LINE
8
BLACK
6
CONTINUOUS
10
0.3172914566929134
20
0.3849216929133858
11
0.3169440157480315
21
0.3851731496062992
0
LINE
8
BLACK
6
CONTINUOUS
10
0.3169440157480315
20
0.3851731496062992
11
0.3165731102362205
21
0.385387874015748
0
LINE
8
BLACK
6
CONTINUOUS
10
0.3165731102362205
20
0.385387874015748
11
0.3164809448818898
21
0.3855082677165354
0
LINE
8
BLACK
6
CONTINUOUS
10
0.3164809448818898
20
0.3855082677165354
11
0.3163581102362205
21
0.3855971653543307
0
LINE
8
BLACK
6
CONTINUOUS
10
0.3163581102362205
20
0.3855971653543307
11
0.3161334645669291
21
0.3859622440944882
0
LINE
8
BLACK
6
CONTINUOUS
10
0.3161334645669291
20
0.3859622440944882
11
0.3158728346456693
21
0.3863027165354331
0
LINE
8
BLACK
6
CONTINUOUS
10
0.3158728346456693
20
0.3863027165354331
11
0.3157930708661417
21
0.3865153937007874
0
LINE
8
BLACK
6
CONTINUOUS
10
0.3157930708661417
20
0.3865153937007874
11
0.3157543307086614
21
0.3865783464566929
0
LINE
8
BLACK
6
CONTINUOUS
10
0.3157543307086614
20
0.3865783464566929
11
0.3157429921259842
21
0.3866488582677165
0
LINE
8
BLACK
6
CONTINUOUS
10
0.3157429921259842
20
0.3866488582677165
11
0.3156695669291338
21
0.3868447244094488
0
LINE
8
BLACK
6
CONTINUOUS
10
0.3156695669291338
20
0.3868447244094488
11
0.3110235433070866
21
0.4042672047244094
0
LINE
8
BLACK
6
CONTINUOUS
10
0.3110235433070866
20
0.4042672047244094
11
0.3063775984251969
21
0.3868447244094488
0
LINE
8
BLACK
6
CONTINUOUS
10
0.3063775984251969
20
0.3868447244094488
11
0.3063041338582677
21
0.3866488976377953
0
LINE
8
BLACK
6
CONTINUOUS
10
0.3063041338582677
20
0.3866488976377953
11
0.3062928346456693
21
0.3865783464566929
0
LINE
8
BLACK
6
CONTINUOUS
10
0.3062928346456693
20
0.3865783464566929
11
0.3062540551181102
21
0.3865153543307087
0
LINE
8
BLACK
6
CONTINUOUS
10
0.3062540551181102
20
0.3865153543307087
11
0.3061743307086614
21
0.3863027559055118
0
LINE
8
BLACK
6
CONTINUOUS
10
0.3061743307086614
20
0.3863027559055118
11
0.3059137401574803
21
0.3859623622047244
0
LINE
8
BLACK
6
CONTINUOUS
10
0.3059137401574803
20
0.3859623622047244
11
0.3056890551181102
21
0.3855971653543307
0
LINE
8
BLACK
6
CONTINUOUS
10
0.3056890551181102
20
0.3855971653543307
11
0.3055661811023622
21
0.3855082677165354
0
LINE
8
BLACK
6
CONTINUOUS
10
0.3055661811023622
20
0.3855082677165354
11
0.3054740551181102
21
0.385387874015748
0
LINE
8
BLACK
6
CONTINUOUS
10
0.3054740551181102
20
0.385387874015748
11
0.3051031102362204
21
0.3851731496062992
0
LINE
8
BLACK
6
CONTINUOUS
10
0.3051031102362204
20
0.3851731496062992
11
0.3047557086614173
21
0.3849216929133858
0
LINE
8
BLACK
6
CONTINUOUS
10
0.3047557086614173
20
0.3849216929133858
11
0.3046081496062992
21
0.3848865748031496
0
LINE
8
BLACK
6
CONTINUOUS
10
0.3046081496062992
20
0.3848865748031496
11
0.3044770078740157
21
0.3848106299212599
0
LINE
8
BLACK
6
CONTINUOUS
10
0.3044770078740157
20
0.3848106299212599
11
0.3040521653543307
21
0.3847542125984252
0
LINE
8
BLACK
6
CONTINUOUS
10
0.3040521653543307
20
0.3847542125984252
11
0.3036349212598425
21
0.384654842519685
0
LINE
8
BLACK
6
CONTINUOUS
10
0.3036349212598425
20
0.384654842519685
11
0.303485157480315
21
0.3846788582677165
0
LINE
8
BLACK
6
CONTINUOUS
10
0.303485157480315
20
0.3846788582677165
11
0.3033349606299213
21
0.3846588976377953
0
LINE
8
BLACK
6
CONTINUOUS
10
0.3033349606299213
20
0.3846588976377953
11
0.3029207086614173
21
0.3847693700787401
0
LINE
8
BLACK
6
CONTINUOUS
10
0.3029207086614173
20
0.3847693700787401
11
0.3024973228346456
21
0.3848372440944882
0
LINE
8
BLACK
6
CONTINUOUS
10
0.3024973228346456
20
0.3848372440944882
11
0.302368188976378
21
0.3849166929133858
0
LINE
8
BLACK
6
CONTINUOUS
10
0.302368188976378
20
0.3849166929133858
11
0.3022217322834646
21
0.3849557480314961
0
LINE
8
BLACK
6
CONTINUOUS
10
0.3022217322834646
20
0.3849557480314961
11
0.3018812992125984
21
0.3852163385826772
0
LINE
8
BLACK
6
CONTINUOUS
10
0.3018812992125984
20
0.3852163385826772
11
0.3015161417322835
21
0.3854410236220472
0
LINE
8
BLACK
6
CONTINUOUS
10
0.3015161417322835
20
0.3854410236220472
11
0.3014272047244094
21
0.3855638976377952
0
LINE
8
BLACK
6
CONTINUOUS
10
0.3014272047244094
20
0.3855638976377952
11
0.3013068503937008
21
0.3856560236220473
0
LINE
8
BLACK
6
CONTINUOUS
10
0.3013068503937008
20
0.3856560236220473
11
0.3010920866141732
21
0.386026968503937
0
LINE
8
BLACK
6
CONTINUOUS
10
0.3010920866141732
20
0.386026968503937
11
0.3008406692913386
21
0.3863743700787401
0
LINE
8
BLACK
6
CONTINUOUS
10
0.3008406692913386
20
0.3863743700787401
11
0.3007666929133858
21
0.3865889763779528
0
LINE
8
BLACK
6
CONTINUOUS
10
0.3007666929133858
20
0.3865889763779528
11
0.3007296062992126
21
0.3866530708661417
0
LINE
8
BLACK
6
CONTINUOUS
10
0.3007296062992126
20
0.3866530708661417
11
0.3007201574803149
21
0.3867240157480315
0
LINE
8
BLACK
6
CONTINUOUS
10
0.3007201574803149
20
0.3867240157480315
11
0.3006520866141732
21
0.3869216141732283
0
LINE
8
BLACK
6
CONTINUOUS
10
0.3006520866141732
20
0.3869216141732283
11
0.2912782677165354
21
0.4262916929133858
0
LINE
8
BLACK
6
CONTINUOUS
10
0.2912782677165354
20
0.4262916929133858
11
0.2912
21
0.4268652362204725
0
LINE
8
BLACK
6
CONTINUOUS
10
0.2912
20
0.4268652362204725
11
0.2913824015748032
21
0.4280028346456693
0
LINE
8
BLACK
6
CONTINUOUS
10
0.2913824015748032
20
0.4280028346456693
11
0.2919861811023622
21
0.4289840157480315
0
LINE
8
BLACK
6
CONTINUOUS
10
0.2919861811023622
20
0.4289840157480315
11
0.2929195275590551
21
0.4296594881889764
0
LINE
8
BLACK
6
CONTINUOUS
10
0.2929195275590551
20
0.4296594881889764
11
0.2940403149606299
21
0.4299263385826771
0
LINE
8
BLACK
6
CONTINUOUS
10
0.2940403149606299
20
0.4299263385826771
11
0.2951779133858268
21
0.429743937007874
0
LINE
8
BLACK
6
CONTINUOUS
10
0.2951779133858268
20
0.429743937007874
11
0.2961590944881889
21
0.429140157480315
0
LINE
8
BLACK
6
CONTINUOUS
10
0.2961590944881889
20
0.429140157480315
11
0.2968345669291338
21
0.428206811023622
0
LINE
8
BLACK
6
CONTINUOUS
10
0.2968345669291338
20
0.428206811023622
11
0.2970231496062992
21
0.4276595669291339
0
LINE
8
BLACK
6
CONTINUOUS
10
0.2970231496062992
20
0.4276595669291339
11
0.3036865748031496
21
0.3996731102362205
0
LINE
8
BLACK
6
CONTINUOUS
10
0.3036865748031496
20
0.3996731102362205
11
0.3081705118110236
21
0.416487874015748
0
LINE
8
BLACK
6
CONTINUOUS
10
0.3081705118110236
20
0.416487874015748
11
0.3082211023622047
21
0.416622874015748
0
LINE
8
BLACK
6
CONTINUOUS
10
0.3082211023622047
20
0.416622874015748
11
0.3082286614173228
21
0.4166795275590551
0
LINE
8
BLACK
6
CONTINUOUS
10
0.3082286614173228
20
0.4166795275590551
11
0.3082675984251969
21
0.4167468503937008
0
LINE
8
BLACK
6
CONTINUOUS
10
0.3082675984251969
20
0.4167468503937008
11
0.3083737795275591
21
0.4170298818897638
0
LINE
8
BLACK
6
CONTINUOUS
10
0.3083737795275591
20
0.4170298818897638
11
0.3086106692913386
21
0.4173393700787402
0
LINE
8
BLACK
6
CONTINUOUS
10
0.3086106692913386
20
0.4173393700787402
11
0.308805905511811
21
0.4176765748031496
0
LINE
8
BLACK
6
CONTINUOUS
10
0.308805905511811
20
0.4176765748031496
11
0.3089577559055118
21
0.4177928346456693
0
LINE
8
BLACK
6
CONTINUOUS
10
0.3089577559055118
20
0.4177928346456693
11
0.3090740551181102
21
0.4179447244094488
0
LINE
8
BLACK
6
CONTINUOUS
10
0.3090740551181102
20
0.4179447244094488
11
0.3094113385826772
21
0.4181400393700787
0
LINE
8
BLACK
6
CONTINUOUS
10
0.3094113385826772
20
0.4181400393700787
11
0.3097207874015748
21
0.4183768503937008
0
LINE
8
BLACK
6
CONTINUOUS
10
0.3097207874015748
20
0.4183768503937008
11
0.3099055118110236
21
0.4184261417322834
0
LINE
8
BLACK
6
CONTINUOUS
10
0.3099055118110236
20
0.4184261417322834
11
0.3100711023622047
21
0.418521968503937
0
LINE
8
BLACK
6
CONTINUOUS
10
0.3100711023622047
20
0.418521968503937
11
0.3104575984251968
21
0.4185733464566929
0
LINE
8
BLACK
6
CONTINUOUS
10
0.3104575984251968
20
0.4185733464566929
11
0.3108340157480315
21
0.4186737007874016
0
LINE
8
BLACK
6
CONTINUOUS
10
0.3108340157480315
20
0.4186737007874016
11
0.3110234645669291
21
0.4186485433070866
0
LINE
8
BLACK
6
CONTINUOUS
10
0.3110234645669291
20
0.4186485433070866
11
0.311213188976378
21
0.4186737401574803
0
LINE
8
BLACK
6
CONTINUOUS
10
0.311213188976378
20
0.4186737401574803
11
0.3115899606299212
21
0.4185732677165354
0
LINE
8
BLACK
6
CONTINUOUS
10
0.3115899606299212
20
0.4185732677165354
11
0.311976062992126
21
0.418521968503937
0
LINE
8
BLACK
6
CONTINUOUS
10
0.311976062992126
20
0.418521968503937
11
0.3121414566929134
21
0.4184262204724409
0
LINE
8
BLACK
6
CONTINUOUS
10
0.3121414566929134
20
0.4184262204724409
11
0.3123263779527559
21
0.4183768897637795
0
LINE
8
BLACK
6
CONTINUOUS
10
0.3123263779527559
20
0.4183768897637795
11
0.312635905511811
21
0.4181399606299213
0
LINE
8
BLACK
6
CONTINUOUS
10
0.312635905511811
20
0.4181399606299213
11
0.3129731102362205
21
0.4179447244094488
0
LINE
8
BLACK
6
CONTINUOUS
10
0.3129731102362205
20
0.4179447244094488
11
0.3130893307086614
21
0.417792874015748
0
LINE
8
BLACK
6
CONTINUOUS
10
0.3130893307086614
20
0.417792874015748
11
0.3132412598425197
21
0.4176765748031496
0
LINE
8
BLACK
6
CONTINUOUS
10
0.3132412598425197
20
0.4176765748031496
11
0.3134365748031496
21
0.4173392519685039
0
LINE
8
BLACK
6
CONTINUOUS
10
0.3134365748031496
20
0.4173392519685039
11
0.3136733858267716
21
0.4170298425196851
0
LINE
8
BLACK
6
CONTINUOUS
10
0.3136733858267716
20
0.4170298425196851
11
0.3137794488188976
21
0.4167470078740158
0
LINE
8
BLACK
6
CONTINUOUS
10
0.3137794488188976
20
0.4167470078740158
11
0.3138185039370079
21
0.4166795669291338
0
LINE
8
BLACK
6
CONTINUOUS
10
0.3138185039370079
20
0.4166795669291338
11
0.3138260236220473
21
0.4166228346456693
0
LINE
8
BLACK
6
CONTINUOUS
10
0.3138260236220473
20
0.4166228346456693
11
0.3138766535433071
21
0.416487874015748
0
LINE
8
BLACK
6
CONTINUOUS
10
0.3138766535433071
20
0.416487874015748
11
0.3183605511811023
21
0.3996731102362205
0
LINE
8
BLACK
6
CONTINUOUS
10
0.3183605511811023
20
0.3996731102362205
11
0.3250240157480315
21
0.4276595669291339
0
LINE
8
BLACK
6
CONTINUOUS
10
0.3250240157480315
20
0.4276595669291339
11
0.3252125984251968
21
0.428206811023622
0
LINE
8
BLACK
6
CONTINUOUS
10
0.3252125984251968
20
0.428206811023622
11
0.3258880708661417
21
0.429140157480315
0
LINE
8
BLACK
6
CONTINUOUS
10
0.3258880708661417
20
0.429140157480315
11
0.3268692519685039
21
0.429743937007874
0
LINE
8
BLACK
6
CONTINUOUS
10
0.3268692519685039
20
0.429743937007874
11
0.3280068503937008
21
0.4299263385826771
0
LINE
8
BLACK
6
CONTINUOUS
10
0.3280068503937008
20
0.4299263385826771
11
0.3291276377952756
21
0.4296594881889764
0
LINE
8
BLACK
6
CONTINUOUS
10
0.3640930708661417
20
0.4298716535433071
11
0.3651574803149606
21
0.4294307480314961
0
LINE
8
BLACK
6
CONTINUOUS
10
0.3651574803149606
20
0.4294307480314961
11
0.3659721259842519
21
0.4286161023622047
0
LINE
8
BLACK
6
CONTINUOUS
10
0.3659721259842519
20
0.4286161023622047
11
0.366413031496063
21
0.4275516929133858
0
LINE
8
BLACK
6
CONTINUOUS
10
0.366413031496063
20
0.4275516929133858
11
0.3664697637795276
21
0.4269756299212598
0
LINE
8
BLACK
6
CONTINUOUS
10
0.3664697637795276
20
0.4269756299212598
11
0.3664697637795276
21
0.3876055511811023
0
LINE
8
BLACK
6
CONTINUOUS
10
0.3664697637795276
20
0.3876055511811023
11
0.366413031496063
21
0.3870294881889764
0
LINE
8
BLACK
6
CONTINUOUS
10
0.366413031496063
20
0.3870294881889764
11
0.3659721259842519
21
0.3859650787401575
0
LINE
8
BLACK
6
CONTINUOUS
10
0.3659721259842519
20
0.3859650787401575
11
0.3651574803149606
21
0.3851504330708662
0
LINE
8
BLACK
6
CONTINUOUS
10
0.3651574803149606
20
0.3851504330708662
11
0.3640930708661417
21
0.3847095275590551
0
LINE
8
BLACK
6
CONTINUOUS
10
0.3640930708661417
20
0.3847095275590551
11
0.3629409448818898
21
0.3847095275590551
0
LINE
8
BLACK
6
CONTINUOUS
10
0.3629409448818898
20
0.3847095275590551
11
0.3618765354330709
21
0.3851504330708662
0
LINE
8
BLACK
6
CONTINUOUS
10
0.3618765354330709
20
0.3851504330708662
11
0.3610618897637795
21
0.3859650787401575
0
LINE
8
BLACK
6
CONTINUOUS
10
0.3610618897637795
20
0.3859650787401575
11
0.3606209842519685
21
0.3870294881889764
0
LINE
8
BLACK
6
CONTINUOUS
10
0.3606209842519685
20
0.3870294881889764
11
0.3605642519685039
21
0.3876055511811023
0
LINE
8
BLACK
6
CONTINUOUS
10
0.3605642519685039
20
0.3876055511811023
11
0.3605642519685039
21
0.4034004724409448
0
LINE
8
BLACK
6
CONTINUOUS
10
0.3605642519685039
20
0.4034004724409448
11
0.3485188976377953
21
0.4034004724409448
0
LINE
8
BLACK
6
CONTINUOUS
10
0.3485188976377953
20
0.4034004724409448
11
0.3479428346456693
21
0.4034572047244094
0
LINE
8
BLACK
6
CONTINUOUS
10
0.3479428346456693
20
0.4034572047244094
11
0.347844842519685
21
0.4034977952755905
0
LINE
8
BLACK
6
CONTINUOUS
10
0.347844842519685
20
0.4034977952755905
11
0.3477389763779528
21
0.4035053149606299
0
LINE
8
BLACK
6
CONTINUOUS
10
0.3477389763779528
20
0.4035053149606299
11
0.3471983858267716
21
0.4037122047244094
0
LINE
8
BLACK
6
CONTINUOUS
10
0.3471983858267716
20
0.4037122047244094
11
0.3434488582677165
21
0.405586968503937
0
LINE
8
BLACK
6
CONTINUOUS
10
0.3434488582677165
20
0.405586968503937
11
0.3432008267716535
21
0.4057430708661417
0
LINE
8
BLACK
6
CONTINUOUS
10
0.3432008267716535
20
0.4057430708661417
11
0.3431288976377952
21
0.405772874015748
0
LINE
8
BLACK
6
CONTINUOUS
10
0.3431288976377952
20
0.405772874015748
11
0.3430479133858267
21
0.4058393700787402
0
LINE
8
BLACK
6
CONTINUOUS
10
0.3430479133858267
20
0.4058393700787402
11
0.3429589763779528
21
0.4058953149606299
0
LINE
8
BLACK
6
CONTINUOUS
10
0.3429589763779528
20
0.4058953149606299
11
0.3429077952755906
21
0.4059543307086614
0
LINE
8
BLACK
6
CONTINUOUS
10
0.3429077952755906
20
0.4059543307086614
11
0.3426814566929134
21
0.4061400787401575
0
LINE
8
BLACK
6
CONTINUOUS
10
0.3426814566929134
20
0.4061400787401575
11
0.3408066929133858
21
0.408014842519685
0
LINE
8
BLACK
6
CONTINUOUS
10
0.3408066929133858
20
0.408014842519685
11
0.340620905511811
21
0.4082412204724409
0
LINE
8
BLACK
6
CONTINUOUS
10
0.340620905511811
20
0.4082412204724409
11
0.3405619291338582
21
0.4082923622047244
0
LINE
8
BLACK
6
CONTINUOUS
10
0.3405619291338582
20
0.4082923622047244
11
0.3405059448818897
21
0.4083813385826772
0
LINE
8
BLACK
6
CONTINUOUS
10
0.3405059448818897
20
0.4083813385826772
11
0.3404394881889763
21
0.4084622834645669
0
LINE
8
BLACK
6
CONTINUOUS
10
0.3404394881889763
20
0.4084622834645669
11
0.3404096456692913
21
0.4085342519685039
0
LINE
8
BLACK
6
CONTINUOUS
10
0.3404096456692913
20
0.4085342519685039
11
0.3402535826771653
21
0.4087822440944882
0
LINE
8
BLACK
6
CONTINUOUS
10
0.3402535826771653
20
0.4087822440944882
11
0.3383788188976378
21
0.4125317716535433
0
LINE
8
BLACK
6
CONTINUOUS
10
0.3383788188976378
20
0.4125317716535433
11
0.3381719291338582
21
0.4130724015748031
0
LINE
8
BLACK
6
CONTINUOUS
10
0.3381719291338582
20
0.4130724015748031
11
0.3381644094488189
21
0.4131782283464567
0
LINE
8
BLACK
6
CONTINUOUS
10
0.3381644094488189
20
0.4131782283464567
11
0.3381238188976378
21
0.4132762204724409
0
LINE
8
BLACK
6
CONTINUOUS
10
0.3381238188976378
20
0.4132762204724409
11
0.3380670866141732
21
0.4138522834645669
0
LINE
8
BLACK
6
CONTINUOUS
10
0.3380670866141732
20
0.4138522834645669
11
0.3380670866141732
21
0.4194765748031496
0
LINE
8
BLACK
6
CONTINUOUS
10
0.3380670866141732
20
0.4194765748031496
11
0.3381238188976378
21
0.4200526377952756
0
LINE
8
BLACK
6
CONTINUOUS
10
0.3381238188976378
20
0.4200526377952756
11
0.3381644094488189
21
0.4201506692913386
0
LINE
8
BLACK
6
CONTINUOUS
10
0.3381644094488189
20
0.4201506692913386
11
0.3381719291338582
21
0.4202564566929134
0
LINE
8
BLACK
6
CONTINUOUS
10
0.3381719291338582
20
0.4202564566929134
11
0.3383788188976378
21
0.4207970866141732
0
LINE
8
BLACK
6
CONTINUOUS
10
0.3383788188976378
20
0.4207970866141732
11
0.3402535826771653
21
0.4245466141732283
0
LINE
8
BLACK
6
CONTINUOUS
10
0.3402535826771653
20
0.4245466141732283
11
0.3404096456692913
21
0.4247946456692913
0
LINE
8
BLACK
6
CONTINUOUS
10
0.3404096456692913
20
0.4247946456692913
11
0.3404394881889763
21
0.4248665748031496
0
LINE
8
BLACK
6
CONTINUOUS
10
0.3404394881889763
20
0.4248665748031496
11
0.3405059448818897
21
0.4249475590551181
0
LINE
8
BLACK
6
CONTINUOUS
10
0.3405059448818897
20
0.4249475590551181
11
0.3405619291338582
21
0.4250364960629921
0
LINE
8
BLACK
6
CONTINUOUS
10
0.3405619291338582
20
0.4250364960629921
11
0.340620905511811
21
0.4250876771653543
0
LINE
8
BLACK
6
CONTINUOUS
10
0.340620905511811
20
0.4250876771653543
11
0.3408066929133858
21
0.4253140157480315
0
LINE
8
BLACK
6
CONTINUOUS
10
0.3408066929133858
20
0.4253140157480315
11
0.3426814566929134
21
0.4271887795275591
0
LINE
8
BLACK
6
CONTINUOUS
10
0.3426814566929134
20
0.4271887795275591
11
0.3429077952755906
21
0.4273745669291338
0
LINE
8
BLACK
6
CONTINUOUS
10
0.3429077952755906
20
0.4273745669291338
11
0.3429589763779528
21
0.4274335433070866
0
LINE
8
BLACK
6
CONTINUOUS
10
0.3429589763779528
20
0.4274335433070866
11
0.3430479133858267
21
0.4274895275590551
0
LINE
8
BLACK
6
CONTINUOUS
10
0.3430479133858267
20
0.4274895275590551
11
0.3431288976377952
21
0.4275559842519685
0
LINE
8
BLACK
6
CONTINUOUS
10
0.3431288976377952
20
0.4275559842519685
11
0.3432008267716535
21
0.4275858267716535
0
LINE
8
BLACK
6
CONTINUOUS
10
0.3432008267716535
20
0.4275858267716535
11
0.3434488582677165
21
0.4277418897637795
0
LINE
8
BLACK
6
CONTINUOUS
10
0.3434488582677165
20
0.4277418897637795
11
0.3471983858267716
21
0.4296166535433071
0
LINE
8
BLACK
6
CONTINUOUS
10
0.3471983858267716
20
0.4296166535433071
11
0.3477389763779528
21
0.4298235433070866
0
LINE
8
BLACK
6
CONTINUOUS
10
0.3477389763779528
20
0.4298235433070866
11
0.347844842519685
21
0.4298311023622047
0
LINE
8
BLACK
6
CONTINUOUS
10
0.347844842519685
20
0.4298311023622047
11
0.3479428346456693
21
0.4298716535433071
0
LINE
8
BLACK
6
CONTINUOUS
10
0.3479428346456693
20
0.4298716535433071
11
0.3485188976377953
21
0.4299283858267716
0
LINE
8
BLACK
6
CONTINUOUS
10
0.3485188976377953
20
0.4299283858267716
11
0.3635170078740158
21
0.4299283858267716
0
LINE
8
BLACK
6
CONTINUOUS
10
0.3635170078740158
20
0.4299283858267716
11
0.3640930708661417
21
0.4298716535433071
0
LINE
8
BLACK
6
CONTINUOUS
10
0.3465184645669291
20
0.4226741338582677
11
0.3453213385826772
21
0.4214770078740158
0
LINE
8
BLACK
6
CONTINUOUS
10
0.3453213385826772
20
0.4214770078740158
11
0.3439725984251968
21
0.4187795275590551
0
LINE
8
BLACK
6
CONTINUOUS
10
0.3439725984251968
20
0.4187795275590551
11
0.3439725984251968
21
0.4145493307086614
0
LINE
8
BLACK
6
CONTINUOUS
10
0.3439725984251968
20
0.4145493307086614
11
0.3453213385826772
21
0.4118518503937008
0
LINE
8
BLACK
6
CONTINUOUS
10
0.3453213385826772
20
0.4118518503937008
11
0.3465184645669291
21
0.4106547244094488
0
LINE
8
BLACK
6
CONTINUOUS
10
0.3465184645669291
20
0.4106547244094488
11
0.3492159448818897
21
0.4093059842519685
0
LINE
8
BLACK
6
CONTINUOUS
10
0.3492159448818897
20
0.4093059842519685
11
0.3605642519685039
21
0.4093059842519685
0
LINE
8
BLACK
6
CONTINUOUS
10
0.3605642519685039
20
0.4093059842519685
11
0.3605642519685039
21
0.424022874015748
0
LINE
8
BLACK
6
CONTINUOUS
10
0.3605642519685039
20
0.424022874015748
11
0.3492159448818897
21
0.424022874015748
0
LINE
8
BLACK
6
CONTINUOUS
10
0.3492159448818897
20
0.424022874015748
11
0.3465184645669291
21
0.4226741338582677
0
LINE
8
BLACK
6
CONTINUOUS
10
0.1853527952755905
20
0.4641902755905511
11
0.1866312204724409
21
0.4629118503937008
0
LINE
8
BLACK
6
CONTINUOUS
10
0.1866312204724409
20
0.4629118503937008
11
0.1868110236220472
21
0.462007874015748
0
LINE
8
BLACK
6
CONTINUOUS
10
0.1868110236220472
20
0.462007874015748
11
0.1868110236220472
21
0.3911417322834645
0
LINE
8
BLACK
6
CONTINUOUS
10
0.1868110236220472
20
0.3911417322834645
11
0.1866312204724409
21
0.3902377559055118
0
LINE
8
BLACK
6
CONTINUOUS
10
0.1866312204724409
20
0.3902377559055118
11
0.1853527952755905
21
0.3889593307086614
0
LINE
8
BLACK
6
CONTINUOUS
10
0.1853527952755905
20
0.3889593307086614
11
0.183544842519685
21
0.3889593307086614
0
LINE
8
BLACK
6
CONTINUOUS
10
0.183544842519685
20
0.3889593307086614
11
0.1822664173228346
21
0.3902377559055118
0
LINE
8
BLACK
6
CONTINUOUS
10
0.1822664173228346
20
0.3902377559055118
11
0.1820866141732284
21
0.3911417322834645
0
LINE
8
BLACK
6
CONTINUOUS
10
0.1820866141732284
20
0.3911417322834645
11
0.1820866141732284
21
0.4596456692913386
0
LINE
8
BLACK
6
CONTINUOUS
10
0.1820866141732284
20
0.4596456692913386
11
0.1273622047244095
21
0.4596456692913386
0
LINE
8
BLACK
6
CONTINUOUS
10
0.1273622047244095
20
0.4596456692913386
11
0.1264582283464567
21
0.4598254724409448
0
LINE
8
BLACK
6
CONTINUOUS
10
0.1264582283464567
20
0.4598254724409448
11
0.1251798031496063
21
0.4611038976377952
0
LINE
8
BLACK
6
CONTINUOUS
10
0.1251798031496063
20
0.4611038976377952
11
0.1251798031496063
21
0.4629118503937008
0
LINE
8
BLACK
6
CONTINUOUS
10
0.1251798031496063
20
0.4629118503937008
11
0.1264582283464567
21
0.4641902755905511
0
LINE
8
BLACK
6
CONTINUOUS
10
0.1264582283464567
20
0.4641902755905511
11
0.1273622047244095
21
0.4643700787401575
0
LINE
8
BLACK
6
CONTINUOUS
10
0.1273622047244095
20
0.4643700787401575
11
0.1844488188976378
21
0.4643700787401575
0
LINE
8
BLACK
6
CONTINUOUS
10
0.1844488188976378
20
0.4643700787401575
11
0.1853527952755905
21
0.4641902755905511
0
LINE
8
BLACK
6
CONTINUOUS
10
0.562576811023622
20
0.4327048031496063
11
0.5636412204724409
21
0.4322638976377953
0
LINE
8
BLACK
6
CONTINUOUS
10
0.5636412204724409
20
0.4322638976377953
11
0.5644558661417323
21
0.4314492519685039
0
LINE
8
BLACK
6
CONTINUOUS
10
0.5644558661417323
20
0.4314492519685039
11
0.5648967716535432
21
0.430384842519685
0
LINE
8
BLACK
6
CONTINUOUS
10
0.5648967716535432
20
0.430384842519685
11
0.5648967716535432
21
0.429232716535433
0
LINE
8
BLACK
6
CONTINUOUS
10
0.5648967716535432
20
0.429232716535433
11
0.5644558661417323
21
0.4281683070866142
0
LINE
8
BLACK
6
CONTINUOUS
10
0.5644558661417323
20
0.4281683070866142
11
0.5636412204724409
21
0.4273536614173228
0
LINE
8
BLACK
6
CONTINUOUS
10
0.5636412204724409
20
0.4273536614173228
11
0.562576811023622
21
0.4269127559055118
0
LINE
8
BLACK
6
CONTINUOUS
10
0.562576811023622
20
0.4269127559055118
11
0.562000748031496
21
0.4268560236220472
0
LINE
8
BLACK
6
CONTINUOUS
10
0.562000748031496
20
0.4268560236220472
11
0.5462058267716535
21
0.4268560236220472
0
LINE
8
BLACK
6
CONTINUOUS
10
0.5462058267716535
20
0.4268560236220472
11
0.5462058267716535
21
0.4148106692913386
0
LINE
8
BLACK
6
CONTINUOUS
10
0.5462058267716535
20
0.4148106692913386
11
0.5461490944881889
21
0.4142346062992126
0
LINE
8
BLACK
6
CONTINUOUS
10
0.5461490944881889
20
0.4142346062992126
11
0.5461085039370078
21
0.4141366535433071
0
LINE
8
BLACK
6
CONTINUOUS
10
0.5461085039370078
20
0.4141366535433071
11
0.5461009842519685
21
0.414030748031496
0
LINE
8
BLACK
6
CONTINUOUS
10
0.5461009842519685
20
0.414030748031496
11
0.5458940944881889
21
0.4134901574803149
0
LINE
8
BLACK
6
CONTINUOUS
10
0.5458940944881889
20
0.4134901574803149
11
0.5440193307086614
21
0.4097406299212598
0
LINE
8
BLACK
6
CONTINUOUS
10
0.5440193307086614
20
0.4097406299212598
11
0.5438632283464567
21
0.4094926377952756
0
LINE
8
BLACK
6
CONTINUOUS
10
0.5438632283464567
20
0.4094926377952756
11
0.5438334251968504
21
0.4094206692913386
0
LINE
8
BLACK
6
CONTINUOUS
10
0.5438334251968504
20
0.4094206692913386
11
0.5437669291338583
21
0.4093397244094488
0
LINE
8
BLACK
6
CONTINUOUS
10
0.5437669291338583
20
0.4093397244094488
11
0.5437109842519685
21
0.4092507480314961
0
LINE
8
BLACK
6
CONTINUOUS
10
0.5437109842519685
20
0.4092507480314961
11
0.543651968503937
21
0.4091996062992126
0
LINE
8
BLACK
6
CONTINUOUS
10
0.543651968503937
20
0.4091996062992126
11
0.543466220472441
21
0.4089732283464567
0
LINE
8
BLACK
6
CONTINUOUS
10
0.543466220472441
20
0.4089732283464567
11
0.5415914566929134
21
0.4070984645669291
0
LINE
8
BLACK
6
CONTINUOUS
10
0.5415914566929134
20
0.4070984645669291
11
0.5413650787401575
21
0.406912716535433
0
LINE
8
BLACK
6
CONTINUOUS
10
0.5413650787401575
20
0.406912716535433
11
0.541313937007874
21
0.4068537007874016
0
LINE
8
BLACK
6
CONTINUOUS
10
0.541313937007874
20
0.4068537007874016
11
0.5412249606299212
21
0.4067977559055118
0
LINE
8
BLACK
6
CONTINUOUS
10
0.5412249606299212
20
0.4067977559055118
11
0.5411440157480315
21
0.4067312598425197
0
LINE
8
BLACK
6
CONTINUOUS
10
0.5411440157480315
20
0.4067312598425197
11
0.5410720472440945
21
0.4067014566929134
0
LINE
8
BLACK
6
CONTINUOUS
10
0.5410720472440945
20
0.4067014566929134
11
0.5408240551181103
21
0.4065453543307087
0
LINE
8
BLACK
6
CONTINUOUS
10
0.5408240551181103
20
0.4065453543307087
11
0.5370745275590552
21
0.4046705905511811
0
LINE
8
BLACK
6
CONTINUOUS
10
0.5370745275590552
20
0.4046705905511811
11
0.5365338976377952
21
0.4044637007874016
0
LINE
8
BLACK
6
CONTINUOUS
10
0.5365338976377952
20
0.4044637007874016
11
0.5364280708661417
21
0.404456220472441
0
LINE
8
BLACK
6
CONTINUOUS
10
0.5364280708661417
20
0.404456220472441
11
0.5363300787401575
21
0.4044155905511811
0
LINE
8
BLACK
6
CONTINUOUS
10
0.5363300787401575
20
0.4044155905511811
11
0.5357540157480315
21
0.4043588582677165
0
LINE
8
BLACK
6
CONTINUOUS
10
0.5357540157480315
20
0.4043588582677165
11
0.5301297244094488
21
0.4043588582677165
0
LINE
8
BLACK
6
CONTINUOUS
10
0.5301297244094488
20
0.4043588582677165
11
0.5295536614173229
21
0.4044155905511811
0
LINE
8
BLACK
6
CONTINUOUS
10
0.5295536614173229
20
0.4044155905511811
11
0.5294556692913386
21
0.4044561811023622
0
LINE
8
BLACK
6
CONTINUOUS
10
0.5294556692913386
20
0.4044561811023622
11
0.5293498031496063
21
0.4044637007874016
0
LINE
8
BLACK
6
CONTINUOUS
10
0.5293498031496063
20
0.4044637007874016
11
0.5288092125984252
21
0.4046705905511811
0
LINE
8
BLACK
6
CONTINUOUS
10
0.5288092125984252
20
0.4046705905511811
11
0.5250596850393701
21
0.4065453543307087
0
LINE
8
BLACK
6
CONTINUOUS
10
0.5250596850393701
20
0.4065453543307087
11
0.5248116535433071
21
0.4067014566929134
0
LINE
8
BLACK
6
CONTINUOUS
10
0.5248116535433071
20
0.4067014566929134
11
0.5247397244094488
21
0.4067312598425197
0
LINE
8
BLACK
6
CONTINUOUS
10
0.5247397244094488
20
0.4067312598425197
11
0.5246587401574803
21
0.4067977559055118
0
LINE
8
BLACK
6
CONTINUOUS
10
0.5246587401574803
20
0.4067977559055118
11
0.5245698031496063
21
0.4068537007874016
0
LINE
8
BLACK
6
CONTINUOUS
10
0.5245698031496063
20
0.4068537007874016
11
0.5245186220472441
21
0.406912716535433
0
LINE
8
BLACK
6
CONTINUOUS
10
0.5245186220472441
20
0.406912716535433
11
0.5242922834645669
21
0.4070984645669291
0
LINE
8
BLACK
6
CONTINUOUS
10
0.5242922834645669
20
0.4070984645669291
11
0.5224175196850394
21
0.4089732283464567
0
LINE
8
BLACK
6
CONTINUOUS
10
0.5224175196850394
20
0.4089732283464567
11
0.5222317322834645
21
0.4091996062992126
0
LINE
8
BLACK
6
CONTINUOUS
10
0.5222317322834645
20
0.4091996062992126
11
0.5221727559055118
21
0.4092507480314961
0
LINE
8
BLACK
6
CONTINUOUS
10
0.5221727559055118
20
0.4092507480314961
11
0.5221167716535433
21
0.4093397244094488
0
LINE
8
BLACK
6
CONTINUOUS
10
0.5221167716535433
20
0.4093397244094488
11
0.5220503149606299
21
0.4094206692913386
0
LINE
8
BLACK
6
CONTINUOUS
10
0.5220503149606299
20
0.4094206692913386
11
0.5220204724409448
21
0.4094926377952756
0
LINE
8
BLACK
6
CONTINUOUS
10
0.5220204724409448
20
0.4094926377952756
11
0.5218644094488188
21
0.4097406299212598
0
LINE
8
BLACK
6
CONTINUOUS
10
0.5218644094488188
20
0.4097406299212598
11
0.5199896456692913
21
0.4134901574803149
0
LINE
8
BLACK
6
CONTINUOUS
10
0.5199896456692913
20
0.4134901574803149
11
0.5197827559055118
21
0.4140307874015748
0
LINE
8
BLACK
6
CONTINUOUS
10
0.5197827559055118
20
0.4140307874015748
11
0.5197752362204724
21
0.4141366141732283
0
LINE
8
BLACK
6
CONTINUOUS
10
0.5197752362204724
20
0.4141366141732283
11
0.5197346456692913
21
0.4142346062992126
0
LINE
8
BLACK
6
CONTINUOUS
10
0.5197346456692913
20
0.4142346062992126
11
0.5196779133858268
21
0.4148106692913386
0
LINE
8
BLACK
6
CONTINUOUS
10
0.5196779133858268
20
0.4148106692913386
11
0.5196779133858268
21
0.429808779527559
0
LINE
8
BLACK
6
CONTINUOUS
10
0.5196779133858268
20
0.429808779527559
11
0.5197346456692913
21
0.430384842519685
0
LINE
8
BLACK
6
CONTINUOUS
10
0.5197346456692913
20
0.430384842519685
11
0.5201755511811024
21
0.4314492519685039
0
LINE
8
BLACK
6
CONTINUOUS
10
0.5201755511811024
20
0.4314492519685039
11
0.5209901968503937
21
0.4322638976377953
0
LINE
8
BLACK
6
CONTINUOUS
10
0.5209901968503937
20
0.4322638976377953
11
0.5220546062992126
21
0.4327048031496063
0
LINE
8
BLACK
6
CONTINUOUS
10
0.5220546062992126
20
0.4327048031496063
11
0.5226306692913386
21
0.4327615354330708
0
LINE
8
BLACK
6
CONTINUOUS
10
0.5226306692913386
20
0.4327615354330708
11
0.562000748031496
21
0.4327615354330708
0
LINE
8
BLACK
6
CONTINUOUS
10
0.562000748031496
20
0.4327615354330708
11
0.562576811023622
21
0.4327048031496063
0
LINE
8
BLACK
6
CONTINUOUS
10
0.5255834251968504
20
0.4155077165354331
11
0.5269321653543307
21
0.4128102362204724
0
LINE
8
BLACK
6
CONTINUOUS
10
0.5269321653543307
20
0.4128102362204724
11
0.5281292913385827
21
0.4116131102362204
0
LINE
8
BLACK
6
CONTINUOUS
10
0.5281292913385827
20
0.4116131102362204
11
0.5308267716535433
21
0.4102643700787402
0
LINE
8
BLACK
6
CONTINUOUS
10
0.5308267716535433
20
0.4102643700787402
11
0.535056968503937
21
0.4102643700787402
0
LINE
8
BLACK
6
CONTINUOUS
10
0.535056968503937
20
0.4102643700787402
11
0.5377544488188977
21
0.4116131102362204
0
LINE
8
BLACK
6
CONTINUOUS
10
0.5377544488188977
20
0.4116131102362204
11
0.5389515748031496
21
0.4128102362204724
0
LINE
8
BLACK
6
CONTINUOUS
10
0.5389515748031496
20
0.4128102362204724
11
0.5403003149606299
21
0.4155077165354331
0
LINE
8
BLACK
6
CONTINUOUS
10
0.5403003149606299
20
0.4155077165354331
11
0.5403003149606299
21
0.4268560236220472
0
LINE
8
BLACK
6
CONTINUOUS
10
0.5403003149606299
20
0.4268560236220472
11
0.5255834251968504
21
0.4268560236220472
0
LINE
8
BLACK
6
CONTINUOUS
10
0.5255834251968504
20
0.4268560236220472
11
0.5255834251968504
21
0.4155077165354331
0
LINE
8
BLACK
6
CONTINUOUS
10
0.7818681496062992
20
0.442434842519685
11
0.782932559055118
21
0.441993937007874
0
LINE
8
BLACK
6
CONTINUOUS
10
0.782932559055118
20
0.441993937007874
11
0.7837472047244094
21
0.4411792913385827
0
LINE
8
BLACK
6
CONTINUOUS
10
0.7837472047244094
20
0.4411792913385827
11
0.7841881102362205
21
0.4401148818897638
0
LINE
8
BLACK
6
CONTINUOUS
10
0.7841881102362205
20
0.4401148818897638
11
0.7842448425196851
21
0.4395388188976378
0
LINE
8
BLACK
6
CONTINUOUS
10
0.7842448425196851
20
0.4395388188976378
11
0.7842448425196851
21
0.4207911811023622
0
LINE
8
BLACK
6
CONTINUOUS
10
0.7842448425196851
20
0.4207911811023622
11
0.7841881102362205
21
0.4202151181102362
0
LINE
8
BLACK
6
CONTINUOUS
10
0.7841881102362205
20
0.4202151181102362
11
0.7837472047244094
21
0.4191507086614173
0
LINE
8
BLACK
6
CONTINUOUS
10
0.7837472047244094
20
0.4191507086614173
11
0.782932559055118
21
0.418336062992126
0
LINE
8
BLACK
6
CONTINUOUS
10
0.782932559055118
20
0.418336062992126
11
0.7818681496062992
21
0.417895157480315
0
LINE
8
BLACK
6
CONTINUOUS
10
0.7818681496062992
20
0.417895157480315
11
0.7807160236220472
21
0.417895157480315
0
LINE
8
BLACK
6
CONTINUOUS
10
0.7807160236220472
20
0.417895157480315
11
0.7796516141732284
21
0.418336062992126
0
LINE
8
BLACK
6
CONTINUOUS
10
0.7796516141732284
20
0.418336062992126
11
0.778836968503937
21
0.4191507086614173
0
LINE
8
BLACK
6
CONTINUOUS
10
0.778836968503937
20
0.4191507086614173
11
0.7783960629921259
21
0.4202151181102362
0
LINE
8
BLACK
6
CONTINUOUS
10
0.7783960629921259
20
0.4202151181102362
11
0.7783393307086613
21
0.4207911811023622
0
LINE
8
BLACK
6
CONTINUOUS
10
0.7783393307086613
20
0.4207911811023622
11
0.7783393307086613
21
0.436586062992126
0
LINE
8
BLACK
6
CONTINUOUS
10
0.7783393307086613
20
0.436586062992126
11
0.7636224015748031
21
0.436586062992126
0
LINE
8
BLACK
6
CONTINUOUS
10
0.7636224015748031
20
0.436586062992126
11
0.7636224015748031
21
0.4264154724409449
0
LINE
8
BLACK
6
CONTINUOUS
10
0.7636224015748031
20
0.4264154724409449
11
0.7635656692913385
21
0.4258394094488189
0
LINE
8
BLACK
6
CONTINUOUS
10
0.7635656692913385
20
0.4258394094488189
11
0.7631247637795275
21
0.424775
0
LINE
8
BLACK
6
CONTINUOUS
10
0.7631247637795275
20
0.424775
11
0.7623101181102362
21
0.4239603543307087
0
LINE
8
BLACK
6
CONTINUOUS
10
0.7623101181102362
20
0.4239603543307087
11
0.7612457086614173
21
0.4235194488188976
0
LINE
8
BLACK
6
CONTINUOUS
10
0.7612457086614173
20
0.4235194488188976
11
0.7600935826771653
21
0.4235194488188976
0
LINE
8
BLACK
6
CONTINUOUS
10
0.7600935826771653
20
0.4235194488188976
11
0.7590291732283464
21
0.4239603543307087
0
LINE
8
BLACK
6
CONTINUOUS
10
0.7590291732283464
20
0.4239603543307087
11
0.7582145275590551
21
0.424775
0
LINE
8
BLACK
6
CONTINUOUS
10
0.7582145275590551
20
0.424775
11
0.7577736220472441
21
0.4258394094488189
0
LINE
8
BLACK
6
CONTINUOUS
10
0.7577736220472441
20
0.4258394094488189
11
0.7577168897637795
21
0.4264154724409449
0
LINE
8
BLACK
6
CONTINUOUS
10
0.7577168897637795
20
0.4264154724409449
11
0.7577168897637795
21
0.436586062992126
0
LINE
8
BLACK
6
CONTINUOUS
10
0.7577168897637795
20
0.436586062992126
11
0.7448747637795275
21
0.436586062992126
0
LINE
8
BLACK
6
CONTINUOUS
10
0.7448747637795275
20
0.436586062992126
11
0.7448747637795275
21
0.4207911811023622
0
LINE
8
BLACK
6
CONTINUOUS
10
0.7448747637795275
20
0.4207911811023622
11
0.744818031496063
21
0.4202151181102362
0
LINE
8
BLACK
6
CONTINUOUS
10
0.744818031496063
20
0.4202151181102362
11
0.744377125984252
21
0.4191507086614173
0
LINE
8
BLACK
6
CONTINUOUS
10
0.744377125984252
20
0.4191507086614173
11
0.7435624803149606
21
0.418336062992126
0
LINE
8
BLACK
6
CONTINUOUS
10
0.7435624803149606
20
0.418336062992126
11
0.7424980708661417
21
0.417895157480315
0
LINE
8
BLACK
6
CONTINUOUS
10
0.7424980708661417
20
0.417895157480315
11
0.7413459448818898
21
0.417895157480315
0
LINE
8
BLACK
6
CONTINUOUS
10
0.7413459448818898
20
0.417895157480315
11
0.7402815354330708
21
0.418336062992126
0
LINE
8
BLACK
6
CONTINUOUS
10
0.7402815354330708
20
0.418336062992126
11
0.7394668897637795
21
0.4191507086614173
0
LINE
8
BLACK
6
CONTINUOUS
10
0.7394668897637795
20
0.4191507086614173
11
0.7390259842519685
21
0.4202151181102362
0
LINE
8
BLACK
6
CONTINUOUS
10
0.7390259842519685
20
0.4202151181102362
11
0.7389692519685039
21
0.4207911811023622
0
LINE
8
BLACK
6
CONTINUOUS
10
0.7389692519685039
20
0.4207911811023622
11
0.7389692519685039
21
0.4395388188976378
0
LINE
8
BLACK
6
CONTINUOUS
10
0.7389692519685039
20
0.4395388188976378
11
0.7390259842519685
21
0.4401148818897638
0
LINE
8
BLACK
6
CONTINUOUS
10
0.7390259842519685
20
0.4401148818897638
11
0.7394668897637795
21
0.4411792913385827
0
LINE
8
BLACK
6
CONTINUOUS
10
0.7394668897637795
20
0.4411792913385827
11
0.7402815354330708
21
0.441993937007874
0
LINE
8
BLACK
6
CONTINUOUS
10
0.7402815354330708
20
0.441993937007874
11
0.7413459448818898
21
0.442434842519685
0
LINE
8
BLACK
6
CONTINUOUS
10
0.7413459448818898
20
0.442434842519685
11
0.7419220078740157
21
0.4424915748031496
0
LINE
8
BLACK
6
CONTINUOUS
10
0.7419220078740157
20
0.4424915748031496
11
0.7812920866141733
21
0.4424915748031496
0
LINE
8
BLACK
6
CONTINUOUS
10
0.7812920866141733
20
0.4424915748031496
11
0.7818681496062992
21
0.442434842519685
0
LINE
8
BLACK
6
CONTINUOUS
10
0.3695327559055118
20
0.5092739763779528
11
0.3705971653543307
21
0.5088330708661417
0
LINE
8
BLACK
6
CONTINUOUS
10
0.3705971653543307
20
0.5088330708661417
11
0.371411811023622
21
0.5080184251968504
0
LINE
8
BLACK
6
CONTINUOUS
10
0.371411811023622
20
0.5080184251968504
11
0.3718527165354331
21
0.5069540157480315
0
LINE
8
BLACK
6
CONTINUOUS
10
0.3718527165354331
20
0.5069540157480315
11
0.3719094488188976
21
0.5063779527559055
0
LINE
8
BLACK
6
CONTINUOUS
10
0.3719094488188976
20
0.5063779527559055
11
0.3719094488188976
21
0.4539725984251968
0
LINE
8
BLACK
6
CONTINUOUS
10
0.3719094488188976
20
0.4539725984251968
11
0.3724051968503937
21
0.4541779133858267
0
LINE
8
BLACK
6
CONTINUOUS
10
0.3724051968503937
20
0.4541779133858267
11
0.3755081889763779
21
0.4541779133858267
0
LINE
8
BLACK
6
CONTINUOUS
10
0.3755081889763779
20
0.4541779133858267
11
0.378375
21
0.4529904330708661
0
LINE
8
BLACK
6
CONTINUOUS
10
0.378375
20
0.4529904330708661
11
0.3805691732283464
21
0.4507962598425197
0
LINE
8
BLACK
6
CONTINUOUS
10
0.3805691732283464
20
0.4507962598425197
11
0.3817566535433071
21
0.4479294488188976
0
LINE
8
BLACK
6
CONTINUOUS
10
0.3817566535433071
20
0.4479294488188976
11
0.3817566535433071
21
0.4448264566929134
0
LINE
8
BLACK
6
CONTINUOUS
10
0.3817566535433071
20
0.4448264566929134
11
0.3805691732283464
21
0.4419596456692913
0
LINE
8
BLACK
6
CONTINUOUS
10
0.3805691732283464
20
0.4419596456692913
11
0.378375
21
0.4397654724409449
0
LINE
8
BLACK
6
CONTINUOUS
10
0.378375
20
0.4397654724409449
11
0.3755081889763779
21
0.4385779921259843
0
LINE
8
BLACK
6
CONTINUOUS
10
0.3755081889763779
20
0.4385779921259843
11
0.3724051968503937
21
0.4385779921259843
0
LINE
8
BLACK
6
CONTINUOUS
10
0.3724051968503937
20
0.4385779921259843
11
0.3695383858267716
21
0.4397654724409449
0
LINE
8
BLACK
6
CONTINUOUS
10
0.3695383858267716
20
0.4397654724409449
11
0.3673442125984252
21
0.4419596456692913
0
LINE
8
BLACK
6
CONTINUOUS
10
0.3673442125984252
20
0.4419596456692913
11
0.3667371653543307
21
0.4434251968503937
0
LINE
8
BLACK
6
CONTINUOUS
10
0.3667371653543307
20
0.4434251968503937
11
0.3289566929133858
21
0.4434251968503937
0
LINE
8
BLACK
6
CONTINUOUS
10
0.3289566929133858
20
0.4434251968503937
11
0.3283806299212598
21
0.4434819291338583
0
LINE
8
BLACK
6
CONTINUOUS
10
0.3283806299212598
20
0.4434819291338583
11
0.3273162204724409
21
0.4439228346456693
0
LINE
8
BLACK
6
CONTINUOUS
10
0.3273162204724409
20
0.4439228346456693
11
0.3265015748031496
21
0.4447374803149606
0
LINE
8
BLACK
6
CONTINUOUS
10
0.3265015748031496
20
0.4447374803149606
11
0.3260606692913386
21
0.4458018897637795
0
LINE
8
BLACK
6
CONTINUOUS
10
0.3260606692913386
20
0.4458018897637795
11
0.3260606692913386
21
0.4469540157480315
0
LINE
8
BLACK
6
CONTINUOUS
10
0.3260606692913386
20
0.4469540157480315
11
0.3265015748031496
21
0.4480184251968504
0
LINE
8
BLACK
6
CONTINUOUS
10
0.3265015748031496
20
0.4480184251968504
11
0.3273162204724409
21
0.4488330708661417
0
LINE
8
BLACK
6
CONTINUOUS
10
0.3273162204724409
20
0.4488330708661417
11
0.3283806299212598
21
0.4492739763779527
0
LINE
8
BLACK
6
CONTINUOUS
10
0.3283806299212598
20
0.4492739763779527
11
0.3289566929133858
21
0.4493307086614173
0
LINE
8
BLACK
6
CONTINUOUS
10
0.3289566929133858
20
0.4493307086614173
11
0.366003937007874
21
0.4493307086614173
0
LINE
8
BLACK
6
CONTINUOUS
10
0.366003937007874
20
0.4493307086614173
11
0.366003937007874
21
0.5034251968503937
0
LINE
8
BLACK
6
CONTINUOUS
10
0.366003937007874
20
0.5034251968503937
11
0.3289566929133858
21
0.5034251968503937
0
LINE
8
BLACK
6
CONTINUOUS
10
0.3289566929133858
20
0.5034251968503937
11
0.3283806299212598
21
0.5034819291338583
0
LINE
8
BLACK
6
CONTINUOUS
10
0.3283806299212598
20
0.5034819291338583
11
0.3273162204724409
21
0.5039228346456692
0
LINE
8
BLACK
6
CONTINUOUS
10
0.3273162204724409
20
0.5039228346456692
11
0.3265015748031496
21
0.5047374803149606
0
LINE
8
BLACK
6
CONTINUOUS
10
0.3265015748031496
20
0.5047374803149606
11
0.3260606692913386
21
0.5058018897637795
0
LINE
8
BLACK
6
CONTINUOUS
10
0.3260606692913386
20
0.5058018897637795
11
0.3260606692913386
21
0.5069540157480315
0
LINE
8
BLACK
6
CONTINUOUS
10
0.3260606692913386
20
0.5069540157480315
11
0.3265015748031496
21
0.5080184251968504
0
LINE
8
BLACK
6
CONTINUOUS
10
0.3265015748031496
20
0.5080184251968504
11
0.3273162204724409
21
0.5088330708661417
0
LINE
8
BLACK
6
CONTINUOUS
10
0.3273162204724409
20
0.5088330708661417
11
0.3283806299212598
21
0.5092739763779528
0
LINE
8
BLACK
6
CONTINUOUS
10
0.3283806299212598
20
0.5092739763779528
11
0.3289566929133858
21
0.5093307086614173
0
LINE
8
BLACK
6
CONTINUOUS
10
0.3289566929133858
20
0.5093307086614173
11
0.3689566929133858
21
0.5093307086614173
0
LINE
8
BLACK
6
CONTINUOUS
10
0.3689566929133858
20
0.5093307086614173
11
0.3695327559055118
21
0.5092739763779528
0
LINE
8
BLACK
6
CONTINUOUS
10
0.3719094488188976
20
0.4472259448818898
11
0.3719094488188976
21
0.4455299606299212
0
LINE
8
BLACK
6
CONTINUOUS
10
0.3719094488188976
20
0.4455299606299212
11
0.3731087007874015
21
0.4443307086614173
0
LINE
8
BLACK
6
CONTINUOUS
10
0.3731087007874015
20
0.4443307086614173
11
0.3748046850393701
21
0.4443307086614173
0
LINE
8
BLACK
6
CONTINUOUS
10
0.3748046850393701
20
0.4443307086614173
11
0.376003937007874
21
0.4455299606299212
0
LINE
8
BLACK
6
CONTINUOUS
10
0.376003937007874
20
0.4455299606299212
11
0.376003937007874
21
0.4472259448818898
0
LINE
8
BLACK
6
CONTINUOUS
10
0.376003937007874
20
0.4472259448818898
11
0.3748046850393701
21
0.4484251968503937
0
LINE
8
BLACK
6
CONTINUOUS
10
0.3748046850393701
20
0.4484251968503937
11
0.3731087007874015
21
0.4484251968503937
0
LINE
8
BLACK
6
CONTINUOUS
10
0.3731087007874015
20
0.4484251968503937
11
0.3719094488188976
21
0.4472259448818898
0
LINE
8
BLACK
6
CONTINUOUS
10
0.2895327559055118
20
0.5092739763779528
11
0.2905971653543307
21
0.5088330708661417
0
LINE
8
BLACK
6
CONTINUOUS
10
0.2905971653543307
20
0.5088330708661417
11
0.291411811023622
21
0.5080184251968504
0
LINE
8
BLACK
6
CONTINUOUS
10
0.291411811023622
20
0.5080184251968504
11
0.291852716535433
21
0.5069540157480315
0
LINE
8
BLACK
6
CONTINUOUS
10
0.291852716535433
20
0.5069540157480315
11
0.291852716535433
21
0.5058018897637795
0
LINE
8
BLACK
6
CONTINUOUS
10
0.291852716535433
20
0.5058018897637795
11
0.291411811023622
21
0.5047374803149606
0
LINE
8
BLACK
6
CONTINUOUS
10
0.291411811023622
20
0.5047374803149606
11
0.2905971653543307
21
0.5039228346456692
0
LINE
8
BLACK
6
CONTINUOUS
10
0.2905971653543307
20
0.5039228346456692
11
0.2895327559055118
21
0.5034819291338583
0
LINE
8
BLACK
6
CONTINUOUS
10
0.2895327559055118
20
0.5034819291338583
11
0.2889566929133858
21
0.5034251968503937
0
LINE
8
BLACK
6
CONTINUOUS
10
0.2889566929133858
20
0.5034251968503937
11
0.2519094488188977
21
0.5034251968503937
0
LINE
8
BLACK
6
CONTINUOUS
10
0.2519094488188977
20
0.5034251968503937
11
0.2519094488188977
21
0.4493307086614173
0
LINE
8
BLACK
6
CONTINUOUS
10
0.2519094488188977
20
0.4493307086614173
11
0.2889566929133858
21
0.4493307086614173
0
LINE
8
BLACK
6
CONTINUOUS
10
0.2889566929133858
20
0.4493307086614173
11
0.2895327559055118
21
0.4492739763779527
0
LINE
8
BLACK
6
CONTINUOUS
10
0.2895327559055118
20
0.4492739763779527
11
0.2905971653543307
21
0.4488330708661417
0
LINE
8
BLACK
6
CONTINUOUS
10
0.2905971653543307
20
0.4488330708661417
11
0.291411811023622
21
0.4480184251968504
0
LINE
8
BLACK
6
CONTINUOUS
10
0.291411811023622
20
0.4480184251968504
11
0.291852716535433
21
0.4469540157480315
0
LINE
8
BLACK
6
CONTINUOUS
10
0.291852716535433
20
0.4469540157480315
11
0.291852716535433
21
0.4458018897637795
0
LINE
8
BLACK
6
CONTINUOUS
10
0.291852716535433
20
0.4458018897637795
11
0.291411811023622
21
0.4447374803149606
0
LINE
8
BLACK
6
CONTINUOUS
10
0.291411811023622
20
0.4447374803149606
11
0.2905971653543307
21
0.4439228346456693
0
LINE
8
BLACK
6
CONTINUOUS
10
0.2905971653543307
20
0.4439228346456693
11
0.2895327559055118
21
0.4434819291338583
0
LINE
8
BLACK
6
CONTINUOUS
10
0.2895327559055118
20
0.4434819291338583
11
0.2889566929133858
21
0.4434251968503937
0
LINE
8
BLACK
6
CONTINUOUS
10
0.2889566929133858
20
0.4434251968503937
11
0.2489566929133858
21
0.4434251968503937
0
LINE
8
BLACK
6
CONTINUOUS
10
0.2489566929133858
20
0.4434251968503937
11
0.2483806299212598
21
0.4434819291338583
0
LINE
8
BLACK
6
CONTINUOUS
10
0.2483806299212598
20
0.4434819291338583
11
0.247316220472441
21
0.4439228346456693
0
LINE
8
BLACK
6
CONTINUOUS
10
0.247316220472441
20
0.4439228346456693
11
0.2465015748031496
21
0.4447374803149606
0
LINE
8
BLACK
6
CONTINUOUS
10
0.2465015748031496
20
0.4447374803149606
11
0.2460606692913386
21
0.4458018897637795
0
LINE
8
BLACK
6
CONTINUOUS
10
0.2460606692913386
20
0.4458018897637795
11
0.246003937007874
21
0.4463779527559055
0
LINE
8
BLACK
6
CONTINUOUS
10
0.246003937007874
20
0.4463779527559055
11
0.246003937007874
21
0.5063779527559055
0
LINE
8
BLACK
6
CONTINUOUS
10
0.246003937007874
20
0.5063779527559055
11
0.2460606692913386
21
0.5069540157480315
0
LINE
8
BLACK
6
CONTINUOUS
10
0.2460606692913386
20
0.5069540157480315
11
0.2465015748031496
21
0.5080184251968504
0
LINE
8
BLACK
6
CONTINUOUS
10
0.2465015748031496
20
0.5080184251968504
11
0.247316220472441
21
0.5088330708661417
0
LINE
8
BLACK
6
CONTINUOUS
10
0.247316220472441
20
0.5088330708661417
11
0.2483806299212598
21
0.5092739763779528
0
LINE
8
BLACK
6
CONTINUOUS
10
0.2483806299212598
20
0.5092739763779528
11
0.2489566929133858
21
0.5093307086614173
0
LINE
8
BLACK
6
CONTINUOUS
10
0.2489566929133858
20
0.5093307086614173
11
0.2889566929133858
21
0.5093307086614173
0
LINE
8
BLACK
6
CONTINUOUS
10
0.2889566929133858
20
0.5093307086614173
11
0.2895327559055118
21
0.5092739763779528
0
LINE
8
BLACK
6
CONTINUOUS
10
0.5636412204724409
20
0.4660096850393701
11
0.5644558661417323
21
0.4651950393700787
0
LINE
8
BLACK
6
CONTINUOUS
10
0.5644558661417323
20
0.4651950393700787
11
0.5648967716535432
21
0.4641306299212598
0
LINE
8
BLACK
6
CONTINUOUS
10
0.5648967716535432
20
0.4641306299212598
11
0.5649535039370078
21
0.4635545669291338
0
LINE
8
BLACK
6
CONTINUOUS
10
0.5649535039370078
20
0.4635545669291338
11
0.5649535039370078
21
0.4598050393700787
0
LINE
8
BLACK
6
CONTINUOUS
10
0.5649535039370078
20
0.4598050393700787
11
0.5649247637795275
21
0.4595134645669291
0
LINE
8
BLACK
6
CONTINUOUS
10
0.5649247637795275
20
0.4595134645669291
11
0.56493031496063
21
0.4594357086614173
0
LINE
8
BLACK
6
CONTINUOUS
10
0.56493031496063
20
0.4594357086614173
11
0.5649070472440945
21
0.4593334645669291
0
LINE
8
BLACK
6
CONTINUOUS
10
0.5649070472440945
20
0.4593334645669291
11
0.5648967716535432
21
0.4592289763779527
0
LINE
8
BLACK
6
CONTINUOUS
10
0.5648967716535432
20
0.4592289763779527
11
0.5648668897637795
21
0.4591569291338582
0
LINE
8
BLACK
6
CONTINUOUS
10
0.5648668897637795
20
0.4591569291338582
11
0.564801968503937
21
0.4588712598425197
0
LINE
8
BLACK
6
CONTINUOUS
10
0.564801968503937
20
0.4588712598425197
11
0.5629272047244095
21
0.4532470078740157
0
LINE
8
BLACK
6
CONTINUOUS
10
0.5629272047244095
20
0.4532470078740157
11
0.5626912204724409
21
0.4527184251968504
0
LINE
8
BLACK
6
CONTINUOUS
10
0.5626912204724409
20
0.4527184251968504
11
0.5626217322834646
21
0.4526383464566929
0
LINE
8
BLACK
6
CONTINUOUS
10
0.5626217322834646
20
0.4526383464566929
11
0.5625811417322835
21
0.4525402755905512
0
LINE
8
BLACK
6
CONTINUOUS
10
0.5625811417322835
20
0.4525402755905512
11
0.5622138976377953
21
0.4520928346456693
0
LINE
8
BLACK
6
CONTINUOUS
10
0.5622138976377953
20
0.4520928346456693
11
0.5584643307086614
21
0.4483433070866142
0
LINE
8
BLACK
6
CONTINUOUS
10
0.5584643307086614
20
0.4483433070866142
11
0.5580168503937007
21
0.447976062992126
0
LINE
8
BLACK
6
CONTINUOUS
10
0.5580168503937007
20
0.447976062992126
11
0.5579187795275591
21
0.4479354724409449
0
LINE
8
BLACK
6
CONTINUOUS
10
0.5579187795275591
20
0.4479354724409449
11
0.5578387007874016
21
0.4478659842519685
0
LINE
8
BLACK
6
CONTINUOUS
10
0.5578387007874016
20
0.4478659842519685
11
0.557310157480315
21
0.44763
0
LINE
8
BLACK
6
CONTINUOUS
10
0.557310157480315
20
0.44763
11
0.5516858661417323
21
0.4457552362204724
0
LINE
8
BLACK
6
CONTINUOUS
10
0.5516858661417323
20
0.4457552362204724
11
0.5514002755905512
21
0.4456903149606299
0
LINE
8
BLACK
6
CONTINUOUS
10
0.5514002755905512
20
0.4456903149606299
11
0.5513281889763779
21
0.4456604330708661
0
LINE
8
BLACK
6
CONTINUOUS
10
0.5513281889763779
20
0.4456604330708661
11
0.5512236614173228
21
0.4456501574803149
0
LINE
8
BLACK
6
CONTINUOUS
10
0.5512236614173228
20
0.4456501574803149
11
0.5511214173228346
21
0.4456268897637795
0
LINE
8
BLACK
6
CONTINUOUS
10
0.5511214173228346
20
0.4456268897637795
11
0.5510436614173229
21
0.4456324409448819
0
LINE
8
BLACK
6
CONTINUOUS
10
0.5510436614173229
20
0.4456324409448819
11
0.5507521259842519
21
0.4456037007874016
0
LINE
8
BLACK
6
CONTINUOUS
10
0.5507521259842519
20
0.4456037007874016
11
0.5226306692913386
21
0.4456037007874016
0
LINE
8
BLACK
6
CONTINUOUS
10
0.5226306692913386
20
0.4456037007874016
11
0.5220546062992126
21
0.4456604330708661
0
LINE
8
BLACK
6
CONTINUOUS
10
0.5220546062992126
20
0.4456604330708661
11
0.5209901968503937
21
0.4461013385826771
0
LINE
8
BLACK
6
CONTINUOUS
10
0.5209901968503937
20
0.4461013385826771
11
0.5201755511811024
21
0.4469159842519685
0
LINE
8
BLACK
6
CONTINUOUS
10
0.5201755511811024
20
0.4469159842519685
11
0.5197346456692913
21
0.4479803937007874
0
LINE
8
BLACK
6
CONTINUOUS
10
0.5197346456692913
20
0.4479803937007874
11
0.5197346456692913
21
0.4491325196850394
0
LINE
8
BLACK
6
CONTINUOUS
10
0.5197346456692913
20
0.4491325196850394
11
0.5201755511811024
21
0.4501969291338583
0
LINE
8
BLACK
6
CONTINUOUS
10
0.5201755511811024
20
0.4501969291338583
11
0.5209901968503937
21
0.4510115748031496
0
LINE
8
BLACK
6
CONTINUOUS
10
0.5209901968503937
20
0.4510115748031496
11
0.5220546062992126
21
0.4514524803149606
0
LINE
8
BLACK
6
CONTINUOUS
10
0.5220546062992126
20
0.4514524803149606
11
0.5226306692913386
21
0.4515092125984252
0
LINE
8
BLACK
6
CONTINUOUS
10
0.5226306692913386
20
0.4515092125984252
11
0.5502729921259842
21
0.4515092125984252
0
LINE
8
BLACK
6
CONTINUOUS
10
0.5502729921259842
20
0.4515092125984252
11
0.5547813779527558
21
0.4530120472440945
0
LINE
8
BLACK
6
CONTINUOUS
10
0.5547813779527558
20
0.4530120472440945
11
0.5575451968503937
21
0.4557758267716535
0
LINE
8
BLACK
6
CONTINUOUS
10
0.5575451968503937
20
0.4557758267716535
11
0.5590479921259842
21
0.4602841732283465
0
LINE
8
BLACK
6
CONTINUOUS
10
0.5590479921259842
20
0.4602841732283465
11
0.5590479921259842
21
0.4635545669291338
0
LINE
8
BLACK
6
CONTINUOUS
10
0.5590479921259842
20
0.4635545669291338
11
0.5591047244094488
21
0.4641306299212598
0
LINE
8
BLACK
6
CONTINUOUS
10
0.5591047244094488
20
0.4641306299212598
11
0.5595456299212598
21
0.4651950393700787
0
LINE
8
BLACK
6
CONTINUOUS
10
0.5595456299212598
20
0.4651950393700787
11
0.5603602755905511
21
0.4660096850393701
0
LINE
8
BLACK
6
CONTINUOUS
10
0.5603602755905511
20
0.4660096850393701
11
0.56142468503937
21
0.4664505905511811
0
LINE
8
BLACK
6
CONTINUOUS
10
0.56142468503937
20
0.4664505905511811
11
0.562576811023622
21
0.4664505905511811
0
LINE
8
BLACK
6
CONTINUOUS
10
0.562576811023622
20
0.4664505905511811
11
0.5636412204724409
21
0.4660096850393701
0
LINE
8
BLACK
6
CONTINUOUS
10
0.7818681496062992
20
0.4743058661417323
11
0.782932559055118
21
0.4738649606299212
0
LINE
8
BLACK
6
CONTINUOUS
10
0.782932559055118
20
0.4738649606299212
11
0.7837472047244094
21
0.4730503149606299
0
LINE
8
BLACK
6
CONTINUOUS
10
0.7837472047244094
20
0.4730503149606299
11
0.7841881102362205
21
0.471985905511811
0
LINE
8
BLACK
6
CONTINUOUS
10
0.7841881102362205
20
0.471985905511811
11
0.7842448425196851
21
0.471409842519685
0
LINE
8
BLACK
6
CONTINUOUS
10
0.7842448425196851
20
0.471409842519685
11
0.7842448425196851
21
0.4526622047244094
0
LINE
8
BLACK
6
CONTINUOUS
10
0.7842448425196851
20
0.4526622047244094
11
0.7841881102362205
21
0.4520861417322835
0
LINE
8
BLACK
6
CONTINUOUS
10
0.7841881102362205
20
0.4520861417322835
11
0.7837472047244094
21
0.4510217322834645
0
LINE
8
BLACK
6
CONTINUOUS
10
0.7837472047244094
20
0.4510217322834645
11
0.782932559055118
21
0.4502070866141732
0
LINE
8
BLACK
6
CONTINUOUS
10
0.782932559055118
20
0.4502070866141732
11
0.7818681496062992
21
0.4497661811023622
0
LINE
8
BLACK
6
CONTINUOUS
10
0.7818681496062992
20
0.4497661811023622
11
0.7807160236220472
21
0.4497661811023622
0
LINE
8
BLACK
6
CONTINUOUS
10
0.7807160236220472
20
0.4497661811023622
11
0.7796516141732284
21
0.4502070866141732
0
LINE
8
BLACK
6
CONTINUOUS
10
0.7796516141732284
20
0.4502070866141732
11
0.778836968503937
21
0.4510217322834645
0
LINE
8
BLACK
6
CONTINUOUS
10
0.778836968503937
20
0.4510217322834645
11
0.7783960629921259
21
0.4520861417322835
0
LINE
8
BLACK
6
CONTINUOUS
10
0.7783960629921259
20
0.4520861417322835
11
0.7783393307086613
21
0.4526622047244094
0
LINE
8
BLACK
6
CONTINUOUS
10
0.7783393307086613
20
0.4526622047244094
11
0.7783393307086613
21
0.4684570866141732
0
LINE
8
BLACK
6
CONTINUOUS
10
0.7783393307086613
20
0.4684570866141732
11
0.7419220078740157
21
0.4684570866141732
0
LINE
8
BLACK
6
CONTINUOUS
10
0.7419220078740157
20
0.4684570866141732
11
0.7413459448818898
21
0.4685138188976378
0
LINE
8
BLACK
6
CONTINUOUS
10
0.7413459448818898
20
0.4685138188976378
11
0.7402815354330708
21
0.4689547244094488
0
LINE
8
BLACK
6
CONTINUOUS
10
0.7402815354330708
20
0.4689547244094488
11
0.7394668897637795
21
0.4697693700787401
0
LINE
8
BLACK
6
CONTINUOUS
10
0.7394668897637795
20
0.4697693700787401
11
0.7390259842519685
21
0.4708337795275591
0
LINE
8
BLACK
6
CONTINUOUS
10
0.7390259842519685
20
0.4708337795275591
11
0.7390259842519685
21
0.471985905511811
0
LINE
8
BLACK
6
CONTINUOUS
10
0.7390259842519685
20
0.471985905511811
11
0.7394668897637795
21
0.4730503149606299
0
LINE
8
BLACK
6
CONTINUOUS
10
0.7394668897637795
20
0.4730503149606299
11
0.7402815354330708
21
0.4738649606299212
0
LINE
8
BLACK
6
CONTINUOUS
10
0.7402815354330708
20
0.4738649606299212
11
0.7413459448818898
21
0.4743058661417323
0
LINE
8
BLACK
6
CONTINUOUS
10
0.7413459448818898
20
0.4743058661417323
11
0.7419220078740157
21
0.4743625984251968
0
LINE
8
BLACK
6
CONTINUOUS
10
0.7419220078740157
20
0.4743625984251968
11
0.7812920866141733
21
0.4743625984251968
0
LINE
8
BLACK
6
CONTINUOUS
10
0.7812920866141733
20
0.4743625984251968
11
0.7818681496062992
21
0.4743058661417323
0
LINE
8
BLACK
6
CONTINUOUS
10
0.3245842913385827
20
0.4989590157480315
11
0.3255327559055118
21
0.4989590157480315
0
LINE
8
BLACK
6
CONTINUOUS
10
0.3255327559055118
20
0.4989590157480315
11
0.3265971653543307
21
0.4985181102362204
0
LINE
8
BLACK
6
CONTINUOUS
10
0.3265971653543307
20
0.4985181102362204
11
0.327411811023622
21
0.4977034645669291
0
LINE
8
BLACK
6
CONTINUOUS
10
0.327411811023622
20
0.4977034645669291
11
0.3278527165354331
21
0.4966390551181102
0
LINE
8
BLACK
6
CONTINUOUS
10
0.3278527165354331
20
0.4966390551181102
11
0.3279094488188976
21
0.4960629921259843
0
LINE
8
BLACK
6
CONTINUOUS
10
0.3279094488188976
20
0.4960629921259843
11
0.3279094488188976
21
0.4566929133858267
0
LINE
8
BLACK
6
CONTINUOUS
10
0.3279094488188976
20
0.4566929133858267
11
0.3278881496062992
21
0.4564767716535433
0
LINE
8
BLACK
6
CONTINUOUS
10
0.3278881496062992
20
0.4564767716535433
11
0.3278953149606299
21
0.4564043307086614
0
LINE
8
BLACK
6
CONTINUOUS
10
0.3278953149606299
20
0.4564043307086614
11
0.3278741338582677
21
0.4563345275590551
0
LINE
8
BLACK
6
CONTINUOUS
10
0.3278741338582677
20
0.4563345275590551
11
0.3278527165354331
21
0.4561168503937008
0
LINE
8
BLACK
6
CONTINUOUS
10
0.3278527165354331
20
0.4561168503937008
11
0.3276868503937008
21
0.4557164566929134
0
LINE
8
BLACK
6
CONTINUOUS
10
0.3276868503937008
20
0.4557164566929134
11
0.3275611811023622
21
0.4553017322834645
0
LINE
8
BLACK
6
CONTINUOUS
10
0.3275611811023622
20
0.4553017322834645
11
0.3274679921259843
21
0.4551881889763779
0
LINE
8
BLACK
6
CONTINUOUS
10
0.3274679921259843
20
0.4551881889763779
11
0.327411811023622
21
0.4550524409448819
0
LINE
8
BLACK
6
CONTINUOUS
10
0.327411811023622
20
0.4550524409448819
11
0.3271054330708661
21
0.4547461023622047
0
LINE
8
BLACK
6
CONTINUOUS
10
0.3271054330708661
20
0.4547461023622047
11
0.3268305511811024
21
0.454410905511811
0
LINE
8
BLACK
6
CONTINUOUS
10
0.3268305511811024
20
0.454410905511811
11
0.3267009448818898
21
0.4543416141732283
0
LINE
8
BLACK
6
CONTINUOUS
10
0.3267009448818898
20
0.4543416141732283
11
0.3265971653543307
21
0.4542377952755906
0
LINE
8
BLACK
6
CONTINUOUS
10
0.3265971653543307
20
0.4542377952755906
11
0.3261968897637795
21
0.4540720078740157
0
LINE
8
BLACK
6
CONTINUOUS
10
0.3261968897637795
20
0.4540720078740157
11
0.3258146062992126
21
0.4538675196850394
0
LINE
8
BLACK
6
CONTINUOUS
10
0.3258146062992126
20
0.4538675196850394
11
0.3256683858267717
21
0.4538531102362204
0
LINE
8
BLACK
6
CONTINUOUS
10
0.3256683858267717
20
0.4538531102362204
11
0.3255327559055118
21
0.4537968897637795
0
LINE
8
BLACK
6
CONTINUOUS
10
0.3255327559055118
20
0.4537968897637795
11
0.3250994488188976
21
0.4537968897637795
0
LINE
8
BLACK
6
CONTINUOUS
10
0.3250994488188976
20
0.4537968897637795
11
0.3246681102362204
21
0.4537542913385827
0
LINE
8
BLACK
6
CONTINUOUS
10
0.3246681102362204
20
0.4537542913385827
11
0.3245275590551181
21
0.4537968897637795
0
LINE
8
BLACK
6
CONTINUOUS
10
0.3245275590551181
20
0.4537968897637795
11
0.3243806299212598
21
0.4537968897637795
0
LINE
8
BLACK
6
CONTINUOUS
10
0.3243806299212598
20
0.4537968897637795
11
0.3239801968503937
21
0.4539627559055118
0
LINE
8
BLACK
6
CONTINUOUS
10
0.3239801968503937
20
0.4539627559055118
11
0.3235655118110236
21
0.4540884251968504
0
LINE
8
BLACK
6
CONTINUOUS
10
0.3235655118110236
20
0.4540884251968504
11
0.3233836614173228
21
0.4542098818897637
0
LINE
8
BLACK
6
CONTINUOUS
10
0.3233836614173228
20
0.4542098818897637
11
0.323316220472441
21
0.4542377952755906
0
LINE
8
BLACK
6
CONTINUOUS
10
0.323316220472441
20
0.4542377952755906
11
0.3232647244094488
21
0.4542892913385826
0
LINE
8
BLACK
6
CONTINUOUS
10
0.3232647244094488
20
0.4542892913385826
11
0.3230841338582677
21
0.4544098818897638
0
LINE
8
BLACK
6
CONTINUOUS
10
0.3230841338582677
20
0.4544098818897638
11
0.2999094488188976
21
0.4734179921259842
0
LINE
8
BLACK
6
CONTINUOUS
10
0.2999094488188976
20
0.4734179921259842
11
0.2999094488188976
21
0.4566929133858267
0
LINE
8
BLACK
6
CONTINUOUS
10
0.2999094488188976
20
0.4566929133858267
11
0.2998527165354331
21
0.4561168503937008
0
LINE
8
BLACK
6
CONTINUOUS
10
0.2998527165354331
20
0.4561168503937008
11
0.299411811023622
21
0.4550524409448819
0
LINE
8
BLACK
6
CONTINUOUS
10
0.299411811023622
20
0.4550524409448819
11
0.2985971653543307
21
0.4542377952755906
0
LINE
8
BLACK
6
CONTINUOUS
10
0.2985971653543307
20
0.4542377952755906
11
0.2975327559055118
21
0.4537968897637795
0
LINE
8
BLACK
6
CONTINUOUS
10
0.2975327559055118
20
0.4537968897637795
11
0.2963806299212599
21
0.4537968897637795
0
LINE
8
BLACK
6
CONTINUOUS
10
0.2963806299212599
20
0.4537968897637795
11
0.2953162204724409
21
0.4542377952755906
0
LINE
8
BLACK
6
CONTINUOUS
10
0.2953162204724409
20
0.4542377952755906
11
0.2945015748031496
21
0.4550524409448819
0
LINE
8
BLACK
6
CONTINUOUS
10
0.2945015748031496
20
0.4550524409448819
11
0.2940606692913386
21
0.4561168503937008
0
LINE
8
BLACK
6
CONTINUOUS
10
0.2940606692913386
20
0.4561168503937008
11
0.294003937007874
21
0.4566929133858267
0
LINE
8
BLACK
6
CONTINUOUS
10
0.294003937007874
20
0.4566929133858267
11
0.294003937007874
21
0.4960629921259843
0
LINE
8
BLACK
6
CONTINUOUS
10
0.294003937007874
20
0.4960629921259843
11
0.2940606692913386
21
0.4966390551181102
0
LINE
8
BLACK
6
CONTINUOUS
10
0.2940606692913386
20
0.4966390551181102
11
0.2945015748031496
21
0.4977034645669291
0
LINE
8
BLACK
6
CONTINUOUS
10
0.2945015748031496
20
0.4977034645669291
11
0.2953162204724409
21
0.4985181102362204
0
LINE
8
BLACK
6
CONTINUOUS
10
0.2953162204724409
20
0.4985181102362204
11
0.2963806299212599
21
0.4989590157480315
0
LINE
8
BLACK
6
CONTINUOUS
10
0.2963806299212599
20
0.4989590157480315
11
0.2975327559055118
21
0.4989590157480315
0
LINE
8
BLACK
6
CONTINUOUS
10
0.2975327559055118
20
0.4989590157480315
11
0.2985971653543307
21
0.4985181102362204
0
LINE
8
BLACK
6
CONTINUOUS
10
0.2985971653543307
20
0.4985181102362204
11
0.299411811023622
21
0.4977034645669291
0
LINE
8
BLACK
6
CONTINUOUS
10
0.299411811023622
20
0.4977034645669291
11
0.2998527165354331
21
0.4966390551181102
0
LINE
8
BLACK
6
CONTINUOUS
10
0.2998527165354331
20
0.4966390551181102
11
0.2999094488188976
21
0.4960629921259843
0
LINE
8
BLACK
6
CONTINUOUS
10
0.2999094488188976
20
0.4960629921259843
11
0.2999094488188976
21
0.4793525590551181
0
LINE
8
BLACK
6
CONTINUOUS
10
0.2999094488188976
20
0.4793525590551181
11
0.3225605905511811
21
0.4983265354330709
0
LINE
8
BLACK
6
CONTINUOUS
10
0.3225605905511811
20
0.4983265354330709
11
0.3230386220472441
21
0.4986529527559055
0
LINE
8
BLACK
6
CONTINUOUS
10
0.3230386220472441
20
0.4986529527559055
11
0.3241377165354331
21
0.4989984645669291
0
LINE
8
BLACK
6
CONTINUOUS
10
0.3241377165354331
20
0.4989984645669291
11
0.3245842913385827
21
0.4989590157480315
0
LINE
8
BLACK
6
CONTINUOUS
10
0.3055835433070866
20
0.4764018897637795
11
0.322003937007874
21
0.4629337401574803
0
LINE
8
BLACK
6
CONTINUOUS
10
0.322003937007874
20
0.4629337401574803
11
0.322003937007874
21
0.4901566141732283
0
LINE
8
BLACK
6
CONTINUOUS
10
0.322003937007874
20
0.4901566141732283
11
0.3055835433070866
21
0.4764018897637795
0
LINE
8
BLACK
6
CONTINUOUS
10
0.782071968503937
20
0.5136277952755905
11
0.7831024409448819
21
0.5131125984251969
0
LINE
8
BLACK
6
CONTINUOUS
10
0.7831024409448819
20
0.5131125984251969
11
0.7838573228346456
21
0.5122422047244094
0
LINE
8
BLACK
6
CONTINUOUS
10
0.7838573228346456
20
0.5122422047244094
11
0.7842216535433071
21
0.5111492125984252
0
LINE
8
BLACK
6
CONTINUOUS
10
0.7842216535433071
20
0.5111492125984252
11
0.7841399606299212
21
0.51
0
LINE
8
BLACK
6
CONTINUOUS
10
0.7841399606299212
20
0.51
11
0.7836247244094487
21
0.5089695669291339
0
LINE
8
BLACK
6
CONTINUOUS
10
0.7836247244094487
20
0.5089695669291339
11
0.7827543700787402
21
0.5082146850393701
0
LINE
8
BLACK
6
CONTINUOUS
10
0.7827543700787402
20
0.5082146850393701
11
0.7822258267716535
21
0.5079787007874016
0
LINE
8
BLACK
6
CONTINUOUS
10
0.7822258267716535
20
0.5079787007874016
11
0.7729962204724409
21
0.5049022047244094
0
LINE
8
BLACK
6
CONTINUOUS
10
0.7729962204724409
20
0.5049022047244094
11
0.7729962204724409
21
0.4904109842519685
0
LINE
8
BLACK
6
CONTINUOUS
10
0.7729962204724409
20
0.4904109842519685
11
0.7822258267716535
21
0.4873344488188976
0
LINE
8
BLACK
6
CONTINUOUS
10
0.7822258267716535
20
0.4873344488188976
11
0.7827543700787402
21
0.4870984645669291
0
LINE
8
BLACK
6
CONTINUOUS
10
0.7827543700787402
20
0.4870984645669291
11
0.7836247244094487
21
0.4863435826771653
0
LINE
8
BLACK
6
CONTINUOUS
10
0.7836247244094487
20
0.4863435826771653
11
0.7841399606299212
21
0.4853131496062992
0
LINE
8
BLACK
6
CONTINUOUS
10
0.7841399606299212
20
0.4853131496062992
11
0.7842216535433071
21
0.484163937007874
0
LINE
8
BLACK
6
CONTINUOUS
10
0.7842216535433071
20
0.484163937007874
11
0.7838573228346456
21
0.4830709448818897
0
LINE
8
BLACK
6
CONTINUOUS
10
0.7838573228346456
20
0.4830709448818897
11
0.7831024409448819
21
0.4822005511811023
0
LINE
8
BLACK
6
CONTINUOUS
10
0.7831024409448819
20
0.4822005511811023
11
0.782071968503937
21
0.4816853543307086
0
LINE
8
BLACK
6
CONTINUOUS
10
0.782071968503937
20
0.4816853543307086
11
0.7809227559055117
21
0.4816036614173228
0
LINE
8
BLACK
6
CONTINUOUS
10
0.7809227559055117
20
0.4816036614173228
11
0.7803583464566929
21
0.4817320078740157
0
LINE
8
BLACK
6
CONTINUOUS
10
0.7803583464566929
20
0.4817320078740157
11
0.7409882677165354
21
0.4948553543307087
0
LINE
8
BLACK
6
CONTINUOUS
10
0.7409882677165354
20
0.4948553543307087
11
0.7404596850393701
21
0.4950913385826772
0
LINE
8
BLACK
6
CONTINUOUS
10
0.7404596850393701
20
0.4950913385826772
11
0.7403002755905511
21
0.4952296062992126
0
LINE
8
BLACK
6
CONTINUOUS
10
0.7403002755905511
20
0.4952296062992126
11
0.7401116535433071
21
0.4953238976377953
0
LINE
8
BLACK
6
CONTINUOUS
10
0.7401116535433071
20
0.4953238976377953
11
0.7398690157480314
21
0.4956036220472441
0
LINE
8
BLACK
6
CONTINUOUS
10
0.7398690157480314
20
0.4956036220472441
11
0.7395893307086614
21
0.4958462204724409
0
LINE
8
BLACK
6
CONTINUOUS
10
0.7395893307086614
20
0.4958462204724409
11
0.739495
21
0.4960348818897637
0
LINE
8
BLACK
6
CONTINUOUS
10
0.739495
20
0.4960348818897637
11
0.7393567716535433
21
0.4961942519685039
0
LINE
8
BLACK
6
CONTINUOUS
10
0.7393567716535433
20
0.4961942519685039
11
0.7392396456692913
21
0.4965455905511811
0
LINE
8
BLACK
6
CONTINUOUS
10
0.7392396456692913
20
0.4965455905511811
11
0.7390741338582677
21
0.4968766535433071
0
LINE
8
BLACK
6
CONTINUOUS
10
0.7390741338582677
20
0.4968766535433071
11
0.7390591732283465
21
0.4970870866141732
0
LINE
8
BLACK
6
CONTINUOUS
10
0.7390591732283465
20
0.4970870866141732
11
0.7389924409448819
21
0.4972872834645669
0
LINE
8
BLACK
6
CONTINUOUS
10
0.7389924409448819
20
0.4972872834645669
11
0.7390186614173229
21
0.4976565748031496
0
LINE
8
BLACK
6
CONTINUOUS
10
0.7390186614173229
20
0.4976565748031496
11
0.7389924409448819
21
0.4980258661417323
0
LINE
8
BLACK
6
CONTINUOUS
10
0.7389924409448819
20
0.4980258661417323
11
0.7390591732283465
21
0.4982261023622047
0
LINE
8
BLACK
6
CONTINUOUS
10
0.7390591732283465
20
0.4982261023622047
11
0.7390741338582677
21
0.4984364960629921
0
LINE
8
BLACK
6
CONTINUOUS
10
0.7390741338582677
20
0.4984364960629921
11
0.7392396456692913
21
0.4987675984251969
0
LINE
8
BLACK
6
CONTINUOUS
10
0.7392396456692913
20
0.4987675984251969
11
0.7393567716535433
21
0.4991188976377953
0
LINE
8
BLACK
6
CONTINUOUS
10
0.7393567716535433
20
0.4991188976377953
11
0.739495
21
0.4992783070866141
0
LINE
8
BLACK
6
CONTINUOUS
10
0.739495
20
0.4992783070866141
11
0.7395893307086614
21
0.4994669291338583
0
LINE
8
BLACK
6
CONTINUOUS
10
0.7395893307086614
20
0.4994669291338583
11
0.7398690157480314
21
0.4997095669291338
0
LINE
8
BLACK
6
CONTINUOUS
10
0.7398690157480314
20
0.4997095669291338
11
0.7401116535433071
21
0.4999892519685039
0
LINE
8
BLACK
6
CONTINUOUS
10
0.7401116535433071
20
0.4999892519685039
11
0.7403002755905511
21
0.5000835826771654
0
LINE
8
BLACK
6
CONTINUOUS
10
0.7403002755905511
20
0.5000835826771654
11
0.7404596850393701
21
0.5002218110236221
0
LINE
8
BLACK
6
CONTINUOUS
10
0.7404596850393701
20
0.5002218110236221
11
0.7409882677165354
21
0.5004577952755905
0
LINE
8
BLACK
6
CONTINUOUS
10
0.7409882677165354
20
0.5004577952755905
11
0.7803583464566929
21
0.5135811417322834
0
LINE
8
BLACK
6
CONTINUOUS
10
0.7803583464566929
20
0.5135811417322834
11
0.7809227559055117
21
0.5137094881889763
0
LINE
8
BLACK
6
CONTINUOUS
10
0.7809227559055117
20
0.5137094881889763
11
0.782071968503937
21
0.5136277952755905
0
LINE
8
BLACK
6
CONTINUOUS
10
0.7512594094488189
20
0.4976565748031496
11
0.7670907086614173
21
0.4923794881889764
0
LINE
8
BLACK
6
CONTINUOUS
10
0.7670907086614173
20
0.4923794881889764
11
0.7670907086614173
21
0.5029337007874015
0
LINE
8
BLACK
6
CONTINUOUS
10
0.7670907086614173
20
0.5029337007874015
11
0.7512594094488189
21
0.4976565748031496
0
LINE
8
BLACK
6
CONTINUOUS
10
0.3492974015748032
20
0.5404988582677165
11
0.3500373622047244
21
0.5402522047244095
0
LINE
8
BLACK
6
CONTINUOUS
10
0.3500373622047244
20
0.5402522047244095
11
0.3501195669291339
21
0.5400877952755906
0
LINE
8
BLACK
6
CONTINUOUS
10
0.3501195669291339
20
0.5400877952755906
11
0.3502840157480315
21
0.5400055511811024
0
LINE
8
BLACK
6
CONTINUOUS
10
0.3502840157480315
20
0.5400055511811024
11
0.3507595275590551
21
0.5391714566929133
0
LINE
8
BLACK
6
CONTINUOUS
10
0.3507595275590551
20
0.5391714566929133
11
0.3573211811023622
21
0.5194864173228346
0
LINE
8
BLACK
6
CONTINUOUS
10
0.3573211811023622
20
0.5194864173228346
11
0.3574412204724409
21
0.5185338582677165
0
LINE
8
BLACK
6
CONTINUOUS
10
0.3574412204724409
20
0.5185338582677165
11
0.3565990157480315
21
0.5168494488188976
0
LINE
8
BLACK
6
CONTINUOUS
10
0.3565990157480315
20
0.5168494488188976
11
0.3548123622047244
21
0.5162538976377953
0
LINE
8
BLACK
6
CONTINUOUS
10
0.3548123622047244
20
0.5162538976377953
11
0.3531279527559055
21
0.5170961023622047
0
LINE
8
BLACK
6
CONTINUOUS
10
0.3531279527559055
20
0.5170961023622047
11
0.3526524409448819
21
0.5179301968503937
0
LINE
8
BLACK
6
CONTINUOUS
10
0.3526524409448819
20
0.5179301968503937
11
0.3513385039370079
21
0.521871968503937
0
LINE
8
BLACK
6
CONTINUOUS
10
0.3513385039370079
20
0.521871968503937
11
0.3455117716535433
21
0.521871968503937
0
LINE
8
BLACK
6
CONTINUOUS
10
0.3455117716535433
20
0.521871968503937
11
0.3441978346456693
21
0.5179301968503937
0
LINE
8
BLACK
6
CONTINUOUS
10
0.3441978346456693
20
0.5179301968503937
11
0.3437223228346457
21
0.5170961023622047
0
LINE
8
BLACK
6
CONTINUOUS
10
0.3437223228346457
20
0.5170961023622047
11
0.3420379133858268
21
0.5162538976377953
0
LINE
8
BLACK
6
CONTINUOUS
10
0.3420379133858268
20
0.5162538976377953
11
0.3402512598425197
21
0.5168494488188976
0
LINE
8
BLACK
6
CONTINUOUS
10
0.3402512598425197
20
0.5168494488188976
11
0.3394090551181102
21
0.5185338582677165
0
LINE
8
BLACK
6
CONTINUOUS
10
0.3394090551181102
20
0.5185338582677165
11
0.339529094488189
21
0.5194864173228346
0
LINE
8
BLACK
6
CONTINUOUS
10
0.339529094488189
20
0.5194864173228346
11
0.3460907874015748
21
0.5391714566929133
0
LINE
8
BLACK
6
CONTINUOUS
10
0.3460907874015748
20
0.5391714566929133
11
0.3465662992125984
21
0.5400055511811024
0
LINE
8
BLACK
6
CONTINUOUS
10
0.3465662992125984
20
0.5400055511811024
11
0.3467307086614173
21
0.5400877952755906
0
LINE
8
BLACK
6
CONTINUOUS
10
0.3467307086614173
20
0.5400877952755906
11
0.3468129527559055
21
0.5402522047244095
0
LINE
8
BLACK
6
CONTINUOUS
10
0.3468129527559055
20
0.5402522047244095
11
0.3475529133858268
21
0.5404988582677165
0
LINE
8
BLACK
6
CONTINUOUS
10
0.3475529133858268
20
0.5404988582677165
11
0.3482507086614173
21
0.5408477559055118
0
LINE
8
BLACK
6
CONTINUOUS
10
0.3482507086614173
20
0.5408477559055118
11
0.3484251574803149
21
0.5407896062992126
0
LINE
8
BLACK
6
CONTINUOUS
10
0.3484251574803149
20
0.5407896062992126
11
0.3485996062992126
21
0.5408477559055118
0
LINE
8
BLACK
6
CONTINUOUS
10
0.3485996062992126
20
0.5408477559055118
11
0.3492974015748032
21
0.5404988582677165
0
LINE
8
BLACK
6
CONTINUOUS
10
0.3471522047244094
20
0.5267932283464567
11
0.3496981102362204
21
0.5267932283464567
0
LINE
8
BLACK
6
CONTINUOUS
10
0.3496981102362204
20
0.5267932283464567
11
0.3484251181102362
21
0.530612125984252
0
LINE
8
BLACK
6
CONTINUOUS
10
0.3484251181102362
20
0.530612125984252
11
0.3471522047244094
21
0.5267932283464567
0
LINE
8
BLACK
6
CONTINUOUS
10
0.2673004724409449
20
0.5401332677165355
11
0.2743485039370079
21
0.5330852362204724
0
LINE
8
BLACK
6
CONTINUOUS
10
0.2743485039370079
20
0.5330852362204724
11
0.2743485039370079
21
0.5383933464566929
0
LINE
8
BLACK
6
CONTINUOUS
10
0.2743485039370079
20
0.5383933464566929
11
0.2745358267716536
21
0.539335
0
LINE
8
BLACK
6
CONTINUOUS
10
0.2745358267716536
20
0.539335
11
0.2758674803149606
21
0.5406666535433071
0
LINE
8
BLACK
6
CONTINUOUS
10
0.2758674803149606
20
0.5406666535433071
11
0.2777507874015748
21
0.5406666535433071
0
LINE
8
BLACK
6
CONTINUOUS
10
0.2777507874015748
20
0.5406666535433071
11
0.2790824409448819
21
0.539335
0
LINE
8
BLACK
6
CONTINUOUS
10
0.2790824409448819
20
0.539335
11
0.2792697637795276
21
0.5383933464566929
0
LINE
8
BLACK
6
CONTINUOUS
10
0.2792697637795276
20
0.5383933464566929
11
0.2792697637795276
21
0.5187083070866142
0
LINE
8
BLACK
6
CONTINUOUS
10
0.2792697637795276
20
0.5187083070866142
11
0.2790824409448819
21
0.5177666535433071
0
LINE
8
BLACK
6
CONTINUOUS
10
0.2790824409448819
20
0.5177666535433071
11
0.2777507874015748
21
0.516435
0
LINE
8
BLACK
6
CONTINUOUS
10
0.2777507874015748
20
0.516435
11
0.2758674803149606
21
0.516435
0
LINE
8
BLACK
6
CONTINUOUS
10
0.2758674803149606
20
0.516435
11
0.2745358267716536
21
0.5177666535433071
0
LINE
8
BLACK
6
CONTINUOUS
10
0.2745358267716536
20
0.5177666535433071
11
0.2743485039370079
21
0.5187083070866142
0
LINE
8
BLACK
6
CONTINUOUS
10
0.2743485039370079
20
0.5187083070866142
11
0.2743485039370079
21
0.5261255511811024
0
LINE
8
BLACK
6
CONTINUOUS
10
0.2743485039370079
20
0.5261255511811024
11
0.274263188976378
21
0.5262108661417323
0
LINE
8
BLACK
6
CONTINUOUS
10
0.274263188976378
20
0.5262108661417323
11
0.2675290551181102
21
0.5172319291338583
0
LINE
8
BLACK
6
CONTINUOUS
10
0.2675290551181102
20
0.5172319291338583
11
0.2668142125984252
21
0.5165909842519685
0
LINE
8
BLACK
6
CONTINUOUS
10
0.2668142125984252
20
0.5165909842519685
11
0.2649498818897638
21
0.51632468503937
0
LINE
8
BLACK
6
CONTINUOUS
10
0.2649498818897638
20
0.51632468503937
11
0.2634432283464567
21
0.5174546456692913
0
LINE
8
BLACK
6
CONTINUOUS
10
0.2634432283464567
20
0.5174546456692913
11
0.2631769291338583
21
0.5193189763779528
0
LINE
8
BLACK
6
CONTINUOUS
10
0.2631769291338583
20
0.5193189763779528
11
0.2635920472440945
21
0.5201846850393701
0
LINE
8
BLACK
6
CONTINUOUS
10
0.2635920472440945
20
0.5201846850393701
11
0.270748031496063
21
0.5297260236220472
0
LINE
8
BLACK
6
CONTINUOUS
10
0.270748031496063
20
0.5297260236220472
11
0.2638206299212598
21
0.5366534251968503
0
LINE
8
BLACK
6
CONTINUOUS
10
0.2638206299212598
20
0.5366534251968503
11
0.2632872440944882
21
0.5374517322834645
0
LINE
8
BLACK
6
CONTINUOUS
10
0.2632872440944882
20
0.5374517322834645
11
0.2632872440944882
21
0.5393349606299213
0
LINE
8
BLACK
6
CONTINUOUS
10
0.2632872440944882
20
0.5393349606299213
11
0.264618937007874
21
0.5406666535433071
0
LINE
8
BLACK
6
CONTINUOUS
10
0.264618937007874
20
0.5406666535433071
11
0.2665021653543307
21
0.5406666535433071
0
LINE
8
BLACK
6
CONTINUOUS
10
0.2665021653543307
20
0.5406666535433071
11
0.2673004724409449
21
0.5401332677165355
  0
ENDSEC
  0
EOF
