  0
SECTION
  2
HEADER
  9
$ANGBASE
  50
0.0
  9
$ANGDIR
  70
1
  9
$MEASUREMENT
  70
0
  0
ENDSEC
  0
SECTION
  2
TABLES
  0
TABLE
  2
LTYPE
  70
4
  0
LTYPE
  5
40F
  2
CONTINUOUS
  70
0
  3
Solid line
  72
65
  73
0
  40
0.0
  0
LTYPE
  5
410
  2
DASHDOT
 70
0
  3
Dash Dot ____ _ ____ _
 72
65
 73
4
 40
2.0
 49
1.25
 49
-0.25
 49
0.25
 49
-0.25
  0
LTYPE
  5
411
  2
DASHED
 70
0
  3
Dashed __ __ __ __ __
 72
65
 73
2
 40
0.75
 49
0.5
 49
-0.25
  0
LTYPE
  5
43B
  2
DOTTED
 70
0
  3
Dotted .  .  .  .
 72
65
 73
2
 40
0.2
 49
0.0
 49
-0.2
  0
ENDTAB
  0
TABLE
  2
STYLE
  70
4
  0
STYLE
  2
KICAD
  70
0
  40
0
  41
1
  42
1
  50
0
  71
0
  3
isocp.shx
  0
STYLE
  2
KICADB
  70
0
  40
0
  41
1
  42
1
  50
0
  71
0
  3
isocp.shx
  0
STYLE
  2
KICADI
  70
0
  40
0
  41
1
  42
1
  50
15
  71
0
  3
isocp.shx
  0
STYLE
  2
KICADBI
  70
0
  40
0
  41
1
  42
1
  50
15
  71
0
  3
isocp.shx
  0
ENDTAB
  0
TABLE
  2
LAYER
  70
1
  0
LAYER
  2
BLACK
  70
0
  62
7
  6
CONTINUOUS
  0
ENDTAB
  0
ENDSEC
  0
SECTION
  2
ENTITIES
0
LINE
8
BLACK
6
CONTINUOUS
10
0.4147912992125984
20
0.5700714566929134
11
0.4165926771653543
21
0.5679925590551181
0
LINE
8
BLACK
6
CONTINUOUS
10
0.4165926771653543
20
0.5679925590551181
11
0.4168528346456693
21
0.5672816929133858
0
LINE
8
BLACK
6
CONTINUOUS
10
0.4168528346456693
20
0.5672816929133858
11
0.4177402755905512
21
0.5641143307086613
0
LINE
8
BLACK
6
CONTINUOUS
10
0.4177402755905512
20
0.5641143307086613
11
0.4220328346456693
21
0.5542319291338582
0
LINE
8
BLACK
6
CONTINUOUS
10
0.4220328346456693
20
0.5542319291338582
11
0.4220327952755906
21
0.5542319291338582
0
LINE
8
BLACK
6
CONTINUOUS
10
0.4220327952755906
20
0.5542319291338582
11
0.427631062992126
21
0.5450259448818897
0
LINE
8
BLACK
6
CONTINUOUS
10
0.427631062992126
20
0.5450259448818897
11
0.4344307874015748
21
0.5366679527559055
0
LINE
8
BLACK
6
CONTINUOUS
10
0.4344307874015748
20
0.5366679527559055
11
0.4423055118110236
21
0.5293134251968504
0
LINE
8
BLACK
6
CONTINUOUS
10
0.4423055118110236
20
0.5293134251968504
11
0.4511076771653543
21
0.5231001968503937
0
LINE
8
BLACK
6
CONTINUOUS
10
0.4511076771653543
20
0.5231001968503937
11
0.4511079133858268
21
0.5231000393700788
0
LINE
8
BLACK
6
CONTINUOUS
10
0.4511079133858268
20
0.5231000393700788
11
0.4511079921259842
21
0.5231
0
LINE
8
BLACK
6
CONTINUOUS
10
0.4511079921259842
20
0.5231
11
0.4606746456692913
21
0.5181429527559055
0
LINE
8
BLACK
6
CONTINUOUS
10
0.4606746456692913
20
0.5181429527559055
11
0.4606747637795275
21
0.5181429133858267
0
LINE
8
BLACK
6
CONTINUOUS
10
0.4606747637795275
20
0.5181429133858267
11
0.4708269291338583
21
0.5145348031496063
0
LINE
8
BLACK
6
CONTINUOUS
10
0.4708269291338583
20
0.5145348031496063
11
0.4708275590551181
21
0.5145346062992125
0
LINE
8
BLACK
6
CONTINUOUS
10
0.4708275590551181
20
0.5145346062992125
11
0.478317125984252
21
0.5129783070866142
0
LINE
8
BLACK
6
CONTINUOUS
10
0.478317125984252
20
0.5129783070866142
11
0.4813763779527559
21
0.5123425984251968
0
LINE
8
BLACK
6
CONTINUOUS
10
0.4813763779527559
20
0.5123425984251968
11
0.4813764173228346
21
0.5123425590551181
0
LINE
8
BLACK
6
CONTINUOUS
10
0.4813764173228346
20
0.5123425590551181
11
0.4820646062992126
21
0.5122955118110236
0
LINE
8
BLACK
6
CONTINUOUS
10
0.4820646062992126
20
0.5122955118110236
11
0.4921259842519685
21
0.511607283464567
0
LINE
8
BLACK
6
CONTINUOUS
10
0.4921259842519685
20
0.511607283464567
11
0.5028755118110236
21
0.5123425590551181
0
LINE
8
BLACK
6
CONTINUOUS
10
0.5028755118110236
20
0.5123425590551181
11
0.5076228346456693
21
0.513329094488189
0
LINE
8
BLACK
6
CONTINUOUS
10
0.5076228346456693
20
0.513329094488189
11
0.5134243700787402
21
0.5145346062992125
0
LINE
8
BLACK
6
CONTINUOUS
10
0.5134243700787402
20
0.5145346062992125
11
0.5134246062992126
21
0.5145347244094488
0
LINE
8
BLACK
6
CONTINUOUS
10
0.5134246062992126
20
0.5145347244094488
11
0.5134248031496063
21
0.5145347244094488
0
LINE
8
BLACK
6
CONTINUOUS
10
0.5134248031496063
20
0.5145347244094488
11
0.5235773228346456
21
0.5181429527559055
0
LINE
8
BLACK
6
CONTINUOUS
10
0.5235773228346456
20
0.5181429527559055
11
0.5331439763779527
21
0.5231
0
LINE
8
BLACK
6
CONTINUOUS
10
0.5331439763779527
20
0.5231
11
0.5419465354330708
21
0.5293135039370078
0
LINE
8
BLACK
6
CONTINUOUS
10
0.5419465354330708
20
0.5293135039370078
11
0.5498210236220472
21
0.5366677952755905
0
LINE
8
BLACK
6
CONTINUOUS
10
0.5498210236220472
20
0.5366677952755905
11
0.5566207874015748
21
0.5450257874015748
0
LINE
8
BLACK
6
CONTINUOUS
10
0.5566207874015748
20
0.5450257874015748
11
0.562219094488189
21
0.5542318503937008
0
LINE
8
BLACK
6
CONTINUOUS
10
0.562219094488189
20
0.5542318503937008
11
0.562449842519685
21
0.554763031496063
0
LINE
8
BLACK
6
CONTINUOUS
10
0.562449842519685
20
0.554763031496063
11
0.5665116535433071
21
0.5641143307086613
0
LINE
8
BLACK
6
CONTINUOUS
10
0.5665116535433071
20
0.5641143307086613
11
0.5665117322834645
21
0.5641144881889764
0
LINE
8
BLACK
6
CONTINUOUS
10
0.5665117322834645
20
0.5641144881889764
11
0.5673991338582677
21
0.5672817322834646
0
LINE
8
BLACK
6
CONTINUOUS
10
0.5673991338582677
20
0.5672817322834646
11
0.5688574803149606
21
0.5696140551181103
0
LINE
8
BLACK
6
CONTINUOUS
10
0.5688574803149606
20
0.5696140551181103
11
0.5713452755905511
21
0.5707877559055118
0
LINE
8
BLACK
6
CONTINUOUS
10
0.5713452755905511
20
0.5707877559055118
11
0.5720999999999999
21
0.5708464566929133
0
LINE
8
BLACK
6
CONTINUOUS
10
0.5720999999999999
20
0.5708464566929133
11
0.8058527559055118
21
0.5708464566929133
0
LINE
8
BLACK
6
CONTINUOUS
10
0.8058527559055118
20
0.5708464566929133
11
0.8084920866141732
21
0.5700714566929134
0
LINE
8
BLACK
6
CONTINUOUS
10
0.8084920866141732
20
0.5700714566929134
11
0.8102934645669291
21
0.5679925590551181
0
LINE
8
BLACK
6
CONTINUOUS
10
0.8102934645669291
20
0.5679925590551181
11
0.8105536220472441
21
0.5672816929133858
0
LINE
8
BLACK
6
CONTINUOUS
10
0.8105536220472441
20
0.5672816929133858
11
0.8114410629921259
21
0.5641143307086613
0
LINE
8
BLACK
6
CONTINUOUS
10
0.8114410629921259
20
0.5641143307086613
11
0.8157336220472441
21
0.5542319291338582
0
LINE
8
BLACK
6
CONTINUOUS
10
0.8157336220472441
20
0.5542319291338582
11
0.8157335826771653
21
0.5542319291338582
0
LINE
8
BLACK
6
CONTINUOUS
10
0.8157335826771653
20
0.5542319291338582
11
0.8213318503937008
21
0.5450259448818897
0
LINE
8
BLACK
6
CONTINUOUS
10
0.8213318503937008
20
0.5450259448818897
11
0.8281315748031496
21
0.5366679527559055
0
LINE
8
BLACK
6
CONTINUOUS
10
0.8281315748031496
20
0.5366679527559055
11
0.8360062992125984
21
0.5293134251968504
0
LINE
8
BLACK
6
CONTINUOUS
10
0.8360062992125984
20
0.5293134251968504
11
0.8448084645669292
21
0.5231001968503937
0
LINE
8
BLACK
6
CONTINUOUS
10
0.8448084645669292
20
0.5231001968503937
11
0.8448087007874016
21
0.5231000393700788
0
LINE
8
BLACK
6
CONTINUOUS
10
0.8448087007874016
20
0.5231000393700788
11
0.8448087795275591
21
0.5231
0
LINE
8
BLACK
6
CONTINUOUS
10
0.8448087795275591
20
0.5231
11
0.8543754330708662
21
0.5181429527559055
0
LINE
8
BLACK
6
CONTINUOUS
10
0.8543754330708662
20
0.5181429527559055
11
0.8543755511811023
21
0.5181429133858267
0
LINE
8
BLACK
6
CONTINUOUS
10
0.8543755511811023
20
0.5181429133858267
11
0.864527716535433
21
0.5145348031496063
0
LINE
8
BLACK
6
CONTINUOUS
10
0.864527716535433
20
0.5145348031496063
11
0.8645283464566929
21
0.5145346062992125
0
LINE
8
BLACK
6
CONTINUOUS
10
0.8645283464566929
20
0.5145346062992125
11
0.8720179133858268
21
0.5129783070866142
0
LINE
8
BLACK
6
CONTINUOUS
10
0.8720179133858268
20
0.5129783070866142
11
0.8750771653543307
21
0.5123425984251968
0
LINE
8
BLACK
6
CONTINUOUS
10
0.8750771653543307
20
0.5123425984251968
11
0.8750772047244094
21
0.5123425590551181
0
LINE
8
BLACK
6
CONTINUOUS
10
0.8750772047244094
20
0.5123425590551181
11
0.8757653937007874
21
0.5122955118110236
0
LINE
8
BLACK
6
CONTINUOUS
10
0.8757653937007874
20
0.5122955118110236
11
0.8858267716535433
21
0.511607283464567
0
LINE
8
BLACK
6
CONTINUOUS
10
0.8858267716535433
20
0.511607283464567
11
0.8965762992125984
21
0.5123425590551181
0
LINE
8
BLACK
6
CONTINUOUS
10
0.8965762992125984
20
0.5123425590551181
11
0.901323622047244
21
0.513329094488189
0
LINE
8
BLACK
6
CONTINUOUS
10
0.901323622047244
20
0.513329094488189
11
0.907125157480315
21
0.5145346062992125
0
LINE
8
BLACK
6
CONTINUOUS
10
0.907125157480315
20
0.5145346062992125
11
0.9071253937007874
21
0.5145347244094488
0
LINE
8
BLACK
6
CONTINUOUS
10
0.9071253937007874
20
0.5145347244094488
11
0.907125590551181
21
0.5145347244094488
0
LINE
8
BLACK
6
CONTINUOUS
10
0.907125590551181
20
0.5145347244094488
11
0.9172781102362204
21
0.5181429527559055
0
LINE
8
BLACK
6
CONTINUOUS
10
0.9172781102362204
20
0.5181429527559055
11
0.9268447637795275
21
0.5231
0
LINE
8
BLACK
6
CONTINUOUS
10
0.9268447637795275
20
0.5231
11
0.9356473228346457
21
0.5293135039370078
0
LINE
8
BLACK
6
CONTINUOUS
10
0.9356473228346457
20
0.5293135039370078
11
0.943521811023622
21
0.5366677952755905
0
LINE
8
BLACK
6
CONTINUOUS
10
0.943521811023622
20
0.5366677952755905
11
0.9503215748031496
21
0.5450257874015748
0
LINE
8
BLACK
6
CONTINUOUS
10
0.9503215748031496
20
0.5450257874015748
11
0.9554941732283464
21
0.5535318503937008
0
LINE
8
BLACK
6
CONTINUOUS
10
0.9554941732283464
20
0.5535318503937008
11
0.9575276771653544
21
0.5553842519685039
0
LINE
8
BLACK
6
CONTINUOUS
10
0.9575276771653544
20
0.5553842519685039
11
0.9602398818897637
21
0.5558432283464567
0
LINE
8
BLACK
6
CONTINUOUS
10
0.9602398818897637
20
0.5558432283464567
11
0.9627696850393701
21
0.554763031496063
0
LINE
8
BLACK
6
CONTINUOUS
10
0.9627696850393701
20
0.554763031496063
11
0.9643138976377953
21
0.5524865748031496
0
LINE
8
BLACK
6
CONTINUOUS
10
0.9643138976377953
20
0.5524865748031496
11
0.9645472440944882
21
0.5509952755905512
0
LINE
8
BLACK
6
CONTINUOUS
10
0.9645472440944882
20
0.5509952755905512
11
0.9645472440944882
21
0.4649606299212598
0
LINE
8
BLACK
6
CONTINUOUS
10
0.9645472440944882
20
0.4649606299212598
11
0.9706692913385827
21
0.4649606299212598
0
LINE
8
BLACK
6
CONTINUOUS
10
0.9706692913385827
20
0.4649606299212598
11
0.9706692913385827
21
0.4255905511811023
0
LINE
8
BLACK
6
CONTINUOUS
10
0.9706692913385827
20
0.4255905511811023
11
0.9645472440944882
21
0.4255905511811023
0
LINE
8
BLACK
6
CONTINUOUS
10
0.9645472440944882
20
0.4255905511811023
11
0.9645472440944882
21
0.3816732283464567
0
LINE
8
BLACK
6
CONTINUOUS
10
0.9645472440944882
20
0.3816732283464567
11
0.9637722440944881
21
0.3790338976377953
0
LINE
8
BLACK
6
CONTINUOUS
10
0.9637722440944881
20
0.3790338976377953
11
0.9616933464566929
21
0.3772325196850393
0
LINE
8
BLACK
6
CONTINUOUS
10
0.9616933464566929
20
0.3772325196850393
11
0.9596653543307087
21
0.3767913385826772
0
LINE
8
BLACK
6
CONTINUOUS
10
0.9596653543307087
20
0.3767913385826772
11
0.8700843700787402
21
0.3767913385826772
0
LINE
8
BLACK
6
CONTINUOUS
10
0.8700843700787402
20
0.3767913385826772
11
0.8700833464566929
21
0.3767912598425197
0
LINE
8
BLACK
6
CONTINUOUS
10
0.8700833464566929
20
0.3767912598425197
11
0.8690949606299212
21
0.3766766535433071
0
LINE
8
BLACK
6
CONTINUOUS
10
0.8690949606299212
20
0.3766766535433071
11
0.8690948031496063
21
0.3766765748031496
0
LINE
8
BLACK
6
CONTINUOUS
10
0.8690948031496063
20
0.3766765748031496
11
0.8650486220472441
21
0.3748900393700788
0
LINE
8
BLACK
6
CONTINUOUS
10
0.8650486220472441
20
0.3748900393700788
11
0.8619210236220473
21
0.3717624409448819
0
LINE
8
BLACK
6
CONTINUOUS
10
0.8619210236220473
20
0.3717624409448819
11
0.8619209842519685
21
0.3717623622047244
0
LINE
8
BLACK
6
CONTINUOUS
10
0.8619209842519685
20
0.3717623622047244
11
0.8600374803149606
21
0.3674966141732283
0
LINE
8
BLACK
6
CONTINUOUS
10
0.8600374803149606
20
0.3674966141732283
11
0.8582624409448819
21
0.3653951574803149
0
LINE
8
BLACK
6
CONTINUOUS
10
0.8582624409448819
20
0.3653951574803149
11
0.8556330708661417
21
0.3645870078740158
0
LINE
8
BLACK
6
CONTINUOUS
10
0.8556330708661417
20
0.3645870078740158
11
0.8555715748031496
21
0.3645866141732284
0
LINE
8
BLACK
6
CONTINUOUS
10
0.8555715748031496
20
0.3645866141732284
11
0.8029841732283465
21
0.3645866141732284
0
LINE
8
BLACK
6
CONTINUOUS
10
0.8029841732283465
20
0.3645866141732284
11
0.8003448425196851
21
0.3653616141732283
0
LINE
8
BLACK
6
CONTINUOUS
10
0.8003448425196851
20
0.3653616141732283
11
0.7985434645669292
21
0.3674405118110236
0
LINE
8
BLACK
6
CONTINUOUS
10
0.7985434645669292
20
0.3674405118110236
11
0.798151968503937
21
0.3701632677165354
0
LINE
8
BLACK
6
CONTINUOUS
10
0.798151968503937
20
0.3701632677165354
11
0.7981961023622047
21
0.3704209448818898
0
LINE
8
BLACK
6
CONTINUOUS
10
0.7981961023622047
20
0.3704209448818898
11
0.7992322834645669
21
0.3756301181102362
0
LINE
8
BLACK
6
CONTINUOUS
10
0.7992322834645669
20
0.3756301181102362
11
0.7992322834645669
21
0.3810628346456693
0
LINE
8
BLACK
6
CONTINUOUS
10
0.7992322834645669
20
0.3810628346456693
11
0.7981724803149606
21
0.3863906692913386
0
LINE
8
BLACK
6
CONTINUOUS
10
0.7981724803149606
20
0.3863906692913386
11
0.7981724409448818
21
0.3863907086614173
0
LINE
8
BLACK
6
CONTINUOUS
10
0.7981724409448818
20
0.3863907086614173
11
0.7981724409448818
21
0.3863908661417323
0
LINE
8
BLACK
6
CONTINUOUS
10
0.7981724409448818
20
0.3863908661417323
11
0.7980547244094488
21
0.3866750393700787
0
LINE
8
BLACK
6
CONTINUOUS
10
0.7980547244094488
20
0.3866750393700787
11
0.7960936220472441
21
0.3914096456692913
0
LINE
8
BLACK
6
CONTINUOUS
10
0.7960936220472441
20
0.3914096456692913
11
0.7960933464566929
21
0.3914101574803149
0
LINE
8
BLACK
6
CONTINUOUS
10
0.7960933464566929
20
0.3914101574803149
11
0.7930753543307086
21
0.3959268503937008
0
LINE
8
BLACK
6
CONTINUOUS
10
0.7930753543307086
20
0.3959268503937008
11
0.7930752362204724
21
0.3959270078740157
0
LINE
8
BLACK
6
CONTINUOUS
10
0.7930752362204724
20
0.3959270078740157
11
0.7892340551181102
21
0.3997681889763779
0
LINE
8
BLACK
6
CONTINUOUS
10
0.7892340551181102
20
0.3997681889763779
11
0.7892338976377953
21
0.3997683070866141
0
LINE
8
BLACK
6
CONTINUOUS
10
0.7892338976377953
20
0.3997683070866141
11
0.7847172047244094
21
0.4027862992125984
0
LINE
8
BLACK
6
CONTINUOUS
10
0.7847172047244094
20
0.4027862992125984
11
0.7847166929133859
21
0.4027865748031496
0
LINE
8
BLACK
6
CONTINUOUS
10
0.7847166929133859
20
0.4027865748031496
11
0.7796981102362205
21
0.4048653149606299
0
LINE
8
BLACK
6
CONTINUOUS
10
0.7796981102362205
20
0.4048653149606299
11
0.7796977165354331
21
0.4048654330708661
0
LINE
8
BLACK
6
CONTINUOUS
10
0.7796977165354331
20
0.4048654330708661
11
0.7743698818897637
21
0.4059251968503937
0
LINE
8
BLACK
6
CONTINUOUS
10
0.7743698818897637
20
0.4059251968503937
11
0.7743698031496062
21
0.4059251968503937
0
LINE
8
BLACK
6
CONTINUOUS
10
0.7743698031496062
20
0.4059251968503937
11
0.7689372834645669
21
0.4059251968503937
0
LINE
8
BLACK
6
CONTINUOUS
10
0.7689372834645669
20
0.4059251968503937
11
0.7689372047244094
21
0.4059251968503937
0
LINE
8
BLACK
6
CONTINUOUS
10
0.7689372047244094
20
0.4059251968503937
11
0.7636093307086614
21
0.4048654330708661
0
LINE
8
BLACK
6
CONTINUOUS
10
0.7636093307086614
20
0.4048654330708661
11
0.763608937007874
21
0.4048653149606299
0
LINE
8
BLACK
6
CONTINUOUS
10
0.763608937007874
20
0.4048653149606299
11
0.7585903543307086
21
0.4027865748031496
0
LINE
8
BLACK
6
CONTINUOUS
10
0.7585903543307086
20
0.4027865748031496
11
0.758589842519685
21
0.4027862992125984
0
LINE
8
BLACK
6
CONTINUOUS
10
0.758589842519685
20
0.4027862992125984
11
0.7540731496062992
21
0.3997683070866141
0
LINE
8
BLACK
6
CONTINUOUS
10
0.7540731496062992
20
0.3997683070866141
11
0.7540729921259842
21
0.3997681889763779
0
LINE
8
BLACK
6
CONTINUOUS
10
0.7540729921259842
20
0.3997681889763779
11
0.753785905511811
21
0.399481062992126
0
LINE
8
BLACK
6
CONTINUOUS
10
0.753785905511811
20
0.399481062992126
11
0.7513716141732283
21
0.3981627559055118
0
LINE
8
BLACK
6
CONTINUOUS
10
0.7513716141732283
20
0.3981627559055118
11
0.7503338976377952
21
0.3980511811023622
0
LINE
8
BLACK
6
CONTINUOUS
10
0.7503338976377952
20
0.3980511811023622
11
0.4954373228346456
21
0.3980511811023622
0
LINE
8
BLACK
6
CONTINUOUS
10
0.4954373228346456
20
0.3980511811023622
11
0.4904256692913386
21
0.3967083464566929
0
LINE
8
BLACK
6
CONTINUOUS
10
0.4904256692913386
20
0.3967083464566929
11
0.4859325196850394
21
0.3941141732283465
0
LINE
8
BLACK
6
CONTINUOUS
10
0.4859325196850394
20
0.3941141732283465
11
0.4859324015748032
21
0.394114094488189
0
LINE
8
BLACK
6
CONTINUOUS
10
0.4859324015748032
20
0.394114094488189
11
0.4462206692913386
21
0.3544023228346457
0
LINE
8
BLACK
6
CONTINUOUS
10
0.4462206692913386
20
0.3544023228346457
11
0.4438063779527559
21
0.3530840157480315
0
LINE
8
BLACK
6
CONTINUOUS
10
0.4438063779527559
20
0.3530840157480315
11
0.4427686614173229
21
0.3529724409448819
0
LINE
8
BLACK
6
CONTINUOUS
10
0.4427686614173229
20
0.3529724409448819
11
0.4285104724409449
21
0.3529724409448819
0
LINE
8
BLACK
6
CONTINUOUS
10
0.4285104724409449
20
0.3529724409448819
11
0.425397874015748
21
0.3525626377952756
0
LINE
8
BLACK
6
CONTINUOUS
10
0.425397874015748
20
0.3525626377952756
11
0.4203910236220472
21
0.3512210236220472
0
LINE
8
BLACK
6
CONTINUOUS
10
0.4203910236220472
20
0.3512210236220472
11
0.4174907480314961
21
0.3500197244094488
0
LINE
8
BLACK
6
CONTINUOUS
10
0.4174907480314961
20
0.3500197244094488
11
0.4174901181102362
21
0.3500194094488189
0
LINE
8
BLACK
6
CONTINUOUS
10
0.4174901181102362
20
0.3500194094488189
11
0.413001968503937
21
0.3474281496062992
0
LINE
8
BLACK
6
CONTINUOUS
10
0.413001968503937
20
0.3474281496062992
11
0.4130012598425197
21
0.3474276771653543
0
LINE
8
BLACK
6
CONTINUOUS
10
0.4130012598425197
20
0.3474276771653543
11
0.4105106692913386
21
0.3455165354330709
0
LINE
8
BLACK
6
CONTINUOUS
10
0.4105106692913386
20
0.3455165354330709
11
0.4096487007874016
21
0.3446545275590551
0
LINE
8
BLACK
6
CONTINUOUS
10
0.4096487007874016
20
0.3446545275590551
11
0.4073885433070866
21
0.3423944094488189
0
LINE
8
BLACK
6
CONTINUOUS
10
0.4073885433070866
20
0.3423944094488189
11
0.4049743700787402
21
0.3410761417322835
0
LINE
8
BLACK
6
CONTINUOUS
10
0.4049743700787402
20
0.3410761417322835
11
0.4039366141732283
21
0.3409645669291338
0
LINE
8
BLACK
6
CONTINUOUS
10
0.4039366141732283
20
0.3409645669291338
11
0.3996656299212598
21
0.3409645669291338
0
LINE
8
BLACK
6
CONTINUOUS
10
0.3996656299212598
20
0.3409645669291338
11
0.3946540157480315
21
0.3396217322834645
0
LINE
8
BLACK
6
CONTINUOUS
10
0.3946540157480315
20
0.3396217322834645
11
0.3901608661417323
21
0.3370275590551181
0
LINE
8
BLACK
6
CONTINUOUS
10
0.3901608661417323
20
0.3370275590551181
11
0.390160748031496
21
0.3370274803149606
0
LINE
8
BLACK
6
CONTINUOUS
10
0.390160748031496
20
0.3370274803149606
11
0.3459214566929134
21
0.2927881496062992
0
LINE
8
BLACK
6
CONTINUOUS
10
0.3459214566929134
20
0.2927881496062992
11
0.3435071653543307
21
0.2914698425196851
0
LINE
8
BLACK
6
CONTINUOUS
10
0.3435071653543307
20
0.2914698425196851
11
0.3424694488188976
21
0.2913582677165354
0
LINE
8
BLACK
6
CONTINUOUS
10
0.3424694488188976
20
0.2913582677165354
11
0.282736968503937
21
0.2913582677165354
0
LINE
8
BLACK
6
CONTINUOUS
10
0.282736968503937
20
0.2913582677165354
11
0.2800976377952756
21
0.2921332677165354
0
LINE
8
BLACK
6
CONTINUOUS
10
0.2800976377952756
20
0.2921332677165354
11
0.2792849606299213
21
0.2927881496062992
0
LINE
8
BLACK
6
CONTINUOUS
10
0.2792849606299213
20
0.2927881496062992
11
0.2789978346456693
21
0.2930752755905512
0
LINE
8
BLACK
6
CONTINUOUS
10
0.2789978346456693
20
0.2930752755905512
11
0.2789976771653543
21
0.2930753937007874
0
LINE
8
BLACK
6
CONTINUOUS
10
0.2789976771653543
20
0.2930753937007874
11
0.2744809842519685
21
0.2960933858267716
0
LINE
8
BLACK
6
CONTINUOUS
10
0.2744809842519685
20
0.2960933858267716
11
0.2744804724409449
21
0.2960936614173229
0
LINE
8
BLACK
6
CONTINUOUS
10
0.2744804724409449
20
0.2960936614173229
11
0.2694618897637795
21
0.2981724015748031
0
LINE
8
BLACK
6
CONTINUOUS
10
0.2694618897637795
20
0.2981724015748031
11
0.2694615354330709
21
0.2981724803149606
0
LINE
8
BLACK
6
CONTINUOUS
10
0.2694615354330709
20
0.2981724803149606
11
0.2655557086614173
21
0.2989494488188976
0
LINE
8
BLACK
6
CONTINUOUS
10
0.2655557086614173
20
0.2989494488188976
11
0.2631183070866142
21
0.3002244881889763
0
LINE
8
BLACK
6
CONTINUOUS
10
0.2631183070866142
20
0.3002244881889763
11
0.2617571259842519
21
0.3026148818897638
0
LINE
8
BLACK
6
CONTINUOUS
10
0.2617571259842519
20
0.3026148818897638
11
0.2619044094488189
21
0.3053616929133858
0
LINE
8
BLACK
6
CONTINUOUS
10
0.2619044094488189
20
0.3053616929133858
11
0.2630561023622047
21
0.3071894488188976
0
LINE
8
BLACK
6
CONTINUOUS
10
0.2630561023622047
20
0.3071894488188976
11
0.3767320866141732
21
0.4208653937007874
0
LINE
8
BLACK
6
CONTINUOUS
10
0.3767320866141732
20
0.4208653937007874
11
0.3791463779527559
21
0.4221837007874016
0
LINE
8
BLACK
6
CONTINUOUS
10
0.3791463779527559
20
0.4221837007874016
11
0.380184094488189
21
0.4222952755905512
0
LINE
8
BLACK
6
CONTINUOUS
10
0.380184094488189
20
0.4222952755905512
11
0.6311685433070866
21
0.4222952755905512
0
LINE
8
BLACK
6
CONTINUOUS
10
0.6311685433070866
20
0.4222952755905512
11
0.633807874015748
21
0.4215202755905512
0
LINE
8
BLACK
6
CONTINUOUS
10
0.633807874015748
20
0.4215202755905512
11
0.6346205511811024
21
0.4208653937007874
0
LINE
8
BLACK
6
CONTINUOUS
10
0.6346205511811024
20
0.4208653937007874
11
0.6356635433070866
21
0.4198224015748032
0
LINE
8
BLACK
6
CONTINUOUS
10
0.6356635433070866
20
0.4198224015748032
11
0.6356637007874015
21
0.4198222834645669
0
LINE
8
BLACK
6
CONTINUOUS
10
0.6356637007874015
20
0.4198222834645669
11
0.6401803937007874
21
0.4168042913385827
0
LINE
8
BLACK
6
CONTINUOUS
10
0.6401803937007874
20
0.4168042913385827
11
0.6401809055118111
21
0.4168040157480315
0
LINE
8
BLACK
6
CONTINUOUS
10
0.6401809055118111
20
0.4168040157480315
11
0.6451994881889763
21
0.4147252755905512
0
LINE
8
BLACK
6
CONTINUOUS
10
0.6451994881889763
20
0.4147252755905512
11
0.6451996850393701
21
0.4147251968503937
0
LINE
8
BLACK
6
CONTINUOUS
10
0.6451996850393701
20
0.4147251968503937
11
0.645199842519685
21
0.4147251968503937
0
LINE
8
BLACK
6
CONTINUOUS
10
0.645199842519685
20
0.4147251968503937
11
0.6451998818897637
21
0.414725157480315
0
LINE
8
BLACK
6
CONTINUOUS
10
0.6451998818897637
20
0.414725157480315
11
0.6505277165354331
21
0.4136653543307087
0
LINE
8
BLACK
6
CONTINUOUS
10
0.6505277165354331
20
0.4136653543307087
11
0.6505278346456693
21
0.4136653543307087
0
LINE
8
BLACK
6
CONTINUOUS
10
0.6505278346456693
20
0.4136653543307087
11
0.6559604330708662
21
0.4136653543307087
0
LINE
8
BLACK
6
CONTINUOUS
10
0.6559604330708662
20
0.4136653543307087
11
0.6595449212598425
21
0.4143783858267717
0
LINE
8
BLACK
6
CONTINUOUS
10
0.6595449212598425
20
0.4143783858267717
11
0.6612885039370079
21
0.4147251968503937
0
LINE
8
BLACK
6
CONTINUOUS
10
0.6612885039370079
20
0.4147251968503937
11
0.6663075196850393
21
0.4168041338582677
0
LINE
8
BLACK
6
CONTINUOUS
10
0.6663075196850393
20
0.4168041338582677
11
0.6708244881889763
21
0.4198222834645669
0
LINE
8
BLACK
6
CONTINUOUS
10
0.6708244881889763
20
0.4198222834645669
11
0.674665905511811
21
0.4236637007874016
0
LINE
8
BLACK
6
CONTINUOUS
10
0.674665905511811
20
0.4236637007874016
11
0.6776840551181103
21
0.4281806692913386
0
LINE
8
BLACK
6
CONTINUOUS
10
0.6776840551181103
20
0.4281806692913386
11
0.6797629921259842
21
0.4331996850393701
0
LINE
8
BLACK
6
CONTINUOUS
10
0.6797629921259842
20
0.4331996850393701
11
0.6808228346456693
21
0.4385278346456693
0
LINE
8
BLACK
6
CONTINUOUS
10
0.6808228346456693
20
0.4385278346456693
11
0.6808228346456693
21
0.4439603543307086
0
LINE
8
BLACK
6
CONTINUOUS
10
0.6808228346456693
20
0.4439603543307086
11
0.6808228346456693
21
0.4439604724409449
0
LINE
8
BLACK
6
CONTINUOUS
10
0.6808228346456693
20
0.4439604724409449
11
0.679763031496063
21
0.4492883070866142
0
LINE
8
BLACK
6
CONTINUOUS
10
0.679763031496063
20
0.4492883070866142
11
0.6797629921259842
21
0.4492883464566929
0
LINE
8
BLACK
6
CONTINUOUS
10
0.6797629921259842
20
0.4492883464566929
11
0.6797629921259842
21
0.4492885039370079
0
LINE
8
BLACK
6
CONTINUOUS
10
0.6797629921259842
20
0.4492885039370079
11
0.6797629133858267
21
0.4492887007874016
0
LINE
8
BLACK
6
CONTINUOUS
10
0.6797629133858267
20
0.4492887007874016
11
0.6776841732283464
21
0.4543072834645669
0
LINE
8
BLACK
6
CONTINUOUS
10
0.6776841732283464
20
0.4543072834645669
11
0.6776838976377952
21
0.4543077952755906
0
LINE
8
BLACK
6
CONTINUOUS
10
0.6776838976377952
20
0.4543077952755906
11
0.674665905511811
21
0.4588244881889764
0
LINE
8
BLACK
6
CONTINUOUS
10
0.674665905511811
20
0.4588244881889764
11
0.6746657874015748
21
0.4588246456692913
0
LINE
8
BLACK
6
CONTINUOUS
10
0.6746657874015748
20
0.4588246456692913
11
0.6708246062992126
21
0.4626658267716535
0
LINE
8
BLACK
6
CONTINUOUS
10
0.6708246062992126
20
0.4626658267716535
11
0.6708244488188976
21
0.4626659448818898
0
LINE
8
BLACK
6
CONTINUOUS
10
0.6708244488188976
20
0.4626659448818898
11
0.6663077559055118
21
0.465683937007874
0
LINE
8
BLACK
6
CONTINUOUS
10
0.6663077559055118
20
0.465683937007874
11
0.6663072440944882
21
0.4656842125984252
0
LINE
8
BLACK
6
CONTINUOUS
10
0.6663072440944882
20
0.4656842125984252
11
0.6612886614173228
21
0.4677629527559055
0
LINE
8
BLACK
6
CONTINUOUS
10
0.6612886614173228
20
0.4677629527559055
11
0.6612882677165354
21
0.4677630708661417
0
LINE
8
BLACK
6
CONTINUOUS
10
0.6612882677165354
20
0.4677630708661417
11
0.6559604330708662
21
0.4688228346456693
0
LINE
8
BLACK
6
CONTINUOUS
10
0.6559604330708662
20
0.4688228346456693
11
0.6559603543307087
21
0.4688228346456693
0
LINE
8
BLACK
6
CONTINUOUS
10
0.6559603543307087
20
0.4688228346456693
11
0.6505278346456693
21
0.4688228346456693
0
LINE
8
BLACK
6
CONTINUOUS
10
0.6505278346456693
20
0.4688228346456693
11
0.6505277559055118
21
0.4688228346456693
0
LINE
8
BLACK
6
CONTINUOUS
10
0.6505277559055118
20
0.4688228346456693
11
0.6451998818897637
21
0.4677630708661417
0
LINE
8
BLACK
6
CONTINUOUS
10
0.6451998818897637
20
0.4677630708661417
11
0.6451994881889763
21
0.4677629527559055
0
LINE
8
BLACK
6
CONTINUOUS
10
0.6451994881889763
20
0.4677629527559055
11
0.6401809055118111
21
0.4656842125984252
0
LINE
8
BLACK
6
CONTINUOUS
10
0.6401809055118111
20
0.4656842125984252
11
0.6401803937007874
21
0.465683937007874
0
LINE
8
BLACK
6
CONTINUOUS
10
0.6401803937007874
20
0.465683937007874
11
0.6354642913385826
21
0.4625326771653543
0
LINE
8
BLACK
6
CONTINUOUS
10
0.6354642913385826
20
0.4625326771653543
11
0.6354023622047243
21
0.4626253937007874
0
LINE
8
BLACK
6
CONTINUOUS
10
0.6354023622047243
20
0.4626253937007874
11
0.6333085433070866
21
0.4617372834645669
0
LINE
8
BLACK
6
CONTINUOUS
10
0.6333085433070866
20
0.4617372834645669
11
0.6327457086614173
21
0.4617047244094488
0
LINE
8
BLACK
6
CONTINUOUS
10
0.6327457086614173
20
0.4617047244094488
11
0.3674058267716535
21
0.4617047244094488
0
LINE
8
BLACK
6
CONTINUOUS
10
0.3674058267716535
20
0.4617047244094488
11
0.3623941732283464
21
0.4603618897637795
0
LINE
8
BLACK
6
CONTINUOUS
10
0.3623941732283464
20
0.4603618897637795
11
0.3579010236220472
21
0.4577677165354331
0
LINE
8
BLACK
6
CONTINUOUS
10
0.3579010236220472
20
0.4577677165354331
11
0.357900905511811
21
0.4577676377952756
0
LINE
8
BLACK
6
CONTINUOUS
10
0.357900905511811
20
0.4577676377952756
11
0.2411498031496063
21
0.3410164960629921
0
LINE
8
BLACK
6
CONTINUOUS
10
0.2411498031496063
20
0.3410164960629921
11
0.2400896456692913
21
0.3404376377952756
0
LINE
8
BLACK
6
CONTINUOUS
10
0.2400896456692913
20
0.3404376377952756
11
0.2390731889763779
21
0.3397843700787401
0
LINE
8
BLACK
6
CONTINUOUS
10
0.2390731889763779
20
0.3397843700787401
11
0.2388290551181102
21
0.3397492913385827
0
LINE
8
BLACK
6
CONTINUOUS
10
0.2388290551181102
20
0.3397492913385827
11
0.2387355118110236
21
0.3396981889763779
0
LINE
8
BLACK
6
CONTINUOUS
10
0.2387355118110236
20
0.3396981889763779
11
0.2376977952755905
21
0.3395866141732283
0
LINE
8
BLACK
6
CONTINUOUS
10
0.2376977952755905
20
0.3395866141732283
11
0.2302968503937008
21
0.3395866141732283
0
LINE
8
BLACK
6
CONTINUOUS
10
0.2302968503937008
20
0.3395866141732283
11
0.2276575196850394
21
0.3403616141732284
0
LINE
8
BLACK
6
CONTINUOUS
10
0.2276575196850394
20
0.3403616141732284
11
0.2273979133858268
21
0.3405405511811024
0
LINE
8
BLACK
6
CONTINUOUS
10
0.2273979133858268
20
0.3405405511811024
11
0.2259010236220472
21
0.3416453149606299
0
LINE
8
BLACK
6
CONTINUOUS
10
0.2259010236220472
20
0.3416453149606299
11
0.2259007874015748
21
0.3416454330708661
0
LINE
8
BLACK
6
CONTINUOUS
10
0.2259007874015748
20
0.3416454330708661
11
0.2208543307086614
21
0.3434112992125984
0
LINE
8
BLACK
6
CONTINUOUS
10
0.2208543307086614
20
0.3434112992125984
11
0.2196562992125984
21
0.3435236220472441
0
LINE
8
BLACK
6
CONTINUOUS
10
0.2196562992125984
20
0.3435236220472441
11
0.2196561417322835
21
0.3435236220472441
0
LINE
8
BLACK
6
CONTINUOUS
10
0.2196561417322835
20
0.3435236220472441
11
0.1602651181102362
21
0.3435236220472441
0
LINE
8
BLACK
6
CONTINUOUS
10
0.1602651181102362
20
0.3435236220472441
11
0.1602649606299213
21
0.3435236220472441
0
LINE
8
BLACK
6
CONTINUOUS
10
0.1602649606299213
20
0.3435236220472441
11
0.1590669291338583
21
0.3434112992125984
0
LINE
8
BLACK
6
CONTINUOUS
10
0.1590669291338583
20
0.3434112992125984
11
0.1590668503937008
21
0.3434112992125984
0
LINE
8
BLACK
6
CONTINUOUS
10
0.1590668503937008
20
0.3434112992125984
11
0.1540204330708661
21
0.3416454330708661
0
LINE
8
BLACK
6
CONTINUOUS
10
0.1540204330708661
20
0.3416454330708661
11
0.1540201968503937
21
0.3416453149606299
0
LINE
8
BLACK
6
CONTINUOUS
10
0.1540201968503937
20
0.3416453149606299
11
0.1525233464566929
21
0.3405405511811024
0
LINE
8
BLACK
6
CONTINUOUS
10
0.1525233464566929
20
0.3405405511811024
11
0.1517196850393701
21
0.3402470472440945
0
LINE
8
BLACK
6
CONTINUOUS
10
0.1517196850393701
20
0.3402470472440945
11
0.1509998031496063
21
0.3397843700787401
0
LINE
8
BLACK
6
CONTINUOUS
10
0.1509998031496063
20
0.3397843700787401
11
0.150098031496063
21
0.3396547244094488
0
LINE
8
BLACK
6
CONTINUOUS
10
0.150098031496063
20
0.3396547244094488
11
0.1499395275590551
21
0.339596811023622
0
LINE
8
BLACK
6
CONTINUOUS
10
0.1499395275590551
20
0.339596811023622
11
0.1496244094488189
21
0.3395866141732283
0
LINE
8
BLACK
6
CONTINUOUS
10
0.1496244094488189
20
0.3395866141732283
11
0.1443117716535433
21
0.3395866141732283
0
LINE
8
BLACK
6
CONTINUOUS
10
0.1443117716535433
20
0.3395866141732283
11
0.1416724409448819
21
0.3403616141732284
0
LINE
8
BLACK
6
CONTINUOUS
10
0.1416724409448819
20
0.3403616141732284
11
0.139871062992126
21
0.3424405118110236
0
LINE
8
BLACK
6
CONTINUOUS
10
0.139871062992126
20
0.3424405118110236
11
0.1394795669291339
21
0.3451632677165354
0
LINE
8
BLACK
6
CONTINUOUS
10
0.1394795669291339
20
0.3451632677165354
11
0.1406222834645669
21
0.3476654724409449
0
LINE
8
BLACK
6
CONTINUOUS
10
0.1406222834645669
20
0.3476654724409449
11
0.1408597637795276
21
0.3479205118110236
0
LINE
8
BLACK
6
CONTINUOUS
10
0.1408597637795276
20
0.3479205118110236
11
0.144453188976378
21
0.3515139763779527
0
LINE
8
BLACK
6
CONTINUOUS
10
0.144453188976378
20
0.3515139763779527
11
0.1444533070866142
21
0.351514094488189
0
LINE
8
BLACK
6
CONTINUOUS
10
0.1444533070866142
20
0.351514094488189
11
0.1474714566929134
21
0.356031062992126
0
LINE
8
BLACK
6
CONTINUOUS
10
0.1474714566929134
20
0.356031062992126
11
0.1495503937007874
21
0.3610500787401575
0
LINE
8
BLACK
6
CONTINUOUS
10
0.1495503937007874
20
0.3610500787401575
11
0.1506102362204724
21
0.3663782283464567
0
LINE
8
BLACK
6
CONTINUOUS
10
0.1506102362204724
20
0.3663782283464567
11
0.1506102362204724
21
0.3718107480314961
0
LINE
8
BLACK
6
CONTINUOUS
10
0.1506102362204724
20
0.3718107480314961
11
0.1506102362204724
21
0.3718108661417323
0
LINE
8
BLACK
6
CONTINUOUS
10
0.1506102362204724
20
0.3718108661417323
11
0.1495504330708661
21
0.3771387007874016
0
LINE
8
BLACK
6
CONTINUOUS
10
0.1495504330708661
20
0.3771387007874016
11
0.1495503937007874
21
0.3771387401574803
0
LINE
8
BLACK
6
CONTINUOUS
10
0.1495503937007874
20
0.3771387401574803
11
0.1495503937007874
21
0.3771388976377953
0
LINE
8
BLACK
6
CONTINUOUS
10
0.1495503937007874
20
0.3771388976377953
11
0.1479251181102362
21
0.3810627165354331
0
LINE
8
BLACK
6
CONTINUOUS
10
0.1479251181102362
20
0.3810627165354331
11
0.1474715748031496
21
0.3821576771653543
0
LINE
8
BLACK
6
CONTINUOUS
10
0.1474715748031496
20
0.3821576771653543
11
0.1474712992125984
21
0.3821581889763779
0
LINE
8
BLACK
6
CONTINUOUS
10
0.1474712992125984
20
0.3821581889763779
11
0.1444533070866142
21
0.3866748818897638
0
LINE
8
BLACK
6
CONTINUOUS
10
0.1444533070866142
20
0.3866748818897638
11
0.144453188976378
21
0.3866750393700787
0
LINE
8
BLACK
6
CONTINUOUS
10
0.144453188976378
20
0.3866750393700787
11
0.1406120078740157
21
0.3905162204724409
0
LINE
8
BLACK
6
CONTINUOUS
10
0.1406120078740157
20
0.3905162204724409
11
0.1406118503937008
21
0.3905163385826771
0
LINE
8
BLACK
6
CONTINUOUS
10
0.1406118503937008
20
0.3905163385826771
11
0.1360951574803149
21
0.3935343307086614
0
LINE
8
BLACK
6
CONTINUOUS
10
0.1360951574803149
20
0.3935343307086614
11
0.1360946456692913
21
0.3935346062992126
0
LINE
8
BLACK
6
CONTINUOUS
10
0.1360946456692913
20
0.3935346062992126
11
0.131076062992126
21
0.3956133464566929
0
LINE
8
BLACK
6
CONTINUOUS
10
0.131076062992126
20
0.3956133464566929
11
0.1310756692913386
21
0.3956134645669291
0
LINE
8
BLACK
6
CONTINUOUS
10
0.1310756692913386
20
0.3956134645669291
11
0.1257478346456693
21
0.3966732283464567
0
LINE
8
BLACK
6
CONTINUOUS
10
0.1257478346456693
20
0.3966732283464567
11
0.1257477559055118
21
0.3966732283464567
0
LINE
8
BLACK
6
CONTINUOUS
10
0.1257477559055118
20
0.3966732283464567
11
0.1203152362204724
21
0.3966732283464567
0
LINE
8
BLACK
6
CONTINUOUS
10
0.1203152362204724
20
0.3966732283464567
11
0.120315157480315
21
0.3966732283464567
0
LINE
8
BLACK
6
CONTINUOUS
10
0.120315157480315
20
0.3966732283464567
11
0.1149872834645669
21
0.3956134645669291
0
LINE
8
BLACK
6
CONTINUOUS
10
0.1149872834645669
20
0.3956134645669291
11
0.1149868897637795
21
0.3956133464566929
0
LINE
8
BLACK
6
CONTINUOUS
10
0.1149868897637795
20
0.3956133464566929
11
0.1099683070866142
21
0.3935346062992126
0
LINE
8
BLACK
6
CONTINUOUS
10
0.1099683070866142
20
0.3935346062992126
11
0.1099677952755905
21
0.3935343307086614
0
LINE
8
BLACK
6
CONTINUOUS
10
0.1099677952755905
20
0.3935343307086614
11
0.1054511023622047
21
0.3905163385826771
0
LINE
8
BLACK
6
CONTINUOUS
10
0.1054511023622047
20
0.3905163385826771
11
0.1054509448818898
21
0.3905162204724409
0
LINE
8
BLACK
6
CONTINUOUS
10
0.1054509448818898
20
0.3905162204724409
11
0.1016097637795276
21
0.3866750393700787
0
LINE
8
BLACK
6
CONTINUOUS
10
0.1016097637795276
20
0.3866750393700787
11
0.1016095275590551
21
0.3866747244094488
0
LINE
8
BLACK
6
CONTINUOUS
10
0.1016095275590551
20
0.3866747244094488
11
0.0985915748031496
21
0.382158031496063
0
LINE
8
BLACK
6
CONTINUOUS
10
0.0985915748031496
20
0.382158031496063
11
0.0985915354330709
21
0.3821579921259842
0
LINE
8
BLACK
6
CONTINUOUS
10
0.0985915354330709
20
0.3821579921259842
11
0.0969012992125984
21
0.3780774409448819
0
LINE
8
BLACK
6
CONTINUOUS
10
0.0969012992125984
20
0.3780774409448819
11
0.095843031496063
21
0.3764937007874016
0
LINE
8
BLACK
6
CONTINUOUS
10
0.095843031496063
20
0.3764937007874016
11
0.0643500393700787
21
0.3450006692913386
0
LINE
8
BLACK
6
CONTINUOUS
10
0.0643500393700787
20
0.3450006692913386
11
0.0643499606299213
21
0.3450005511811023
0
LINE
8
BLACK
6
CONTINUOUS
10
0.0643499606299213
20
0.3450005511811023
11
0.0620198818897638
21
0.3409646456692914
0
LINE
8
BLACK
6
CONTINUOUS
10
0.0620198818897638
20
0.3409646456692914
11
0.062019842519685
21
0.3409646850393701
0
LINE
8
BLACK
6
CONTINUOUS
10
0.062019842519685
20
0.3409646850393701
11
0.0614967322834646
21
0.3400585433070866
0
LINE
8
BLACK
6
CONTINUOUS
10
0.0614967322834646
20
0.3400585433070866
11
0.0614966929133858
21
0.3400584645669291
0
LINE
8
BLACK
6
CONTINUOUS
10
0.0614966929133858
20
0.3400584645669291
11
0.0600196850393701
21
0.3345462598425197
0
LINE
8
BLACK
6
CONTINUOUS
10
0.0600196850393701
20
0.3345462598425197
11
0.0600196850393701
21
0.2597430708661417
0
LINE
8
BLACK
6
CONTINUOUS
10
0.0600196850393701
20
0.2597430708661417
11
0.0600196850393701
21
0.2540364566929134
0
LINE
8
BLACK
6
CONTINUOUS
10
0.0600196850393701
20
0.2540364566929134
11
0.0614966929133858
21
0.2485242125984252
0
LINE
8
BLACK
6
CONTINUOUS
10
0.0614966929133858
20
0.2485242125984252
11
0.06435
21
0.2435820866141732
0
LINE
8
BLACK
6
CONTINUOUS
10
0.06435
20
0.2435820866141732
11
0.1038183070866142
21
0.204113779527559
0
LINE
8
BLACK
6
CONTINUOUS
10
0.1038183070866142
20
0.204113779527559
11
0.1075983858267717
21
0.2019313779527559
0
LINE
8
BLACK
6
CONTINUOUS
10
0.1075983858267717
20
0.2019313779527559
11
0.1087604330708661
21
0.2012604724409449
0
LINE
8
BLACK
6
CONTINUOUS
10
0.1087604330708661
20
0.2012604724409449
11
0.1142726377952756
21
0.1997834645669291
0
LINE
8
BLACK
6
CONTINUOUS
10
0.1142726377952756
20
0.1997834645669291
11
0.1529329133858268
21
0.1997834645669291
0
LINE
8
BLACK
6
CONTINUOUS
10
0.1529329133858268
20
0.1997834645669291
11
0.1545453149606299
21
0.1995094881889764
0
LINE
8
BLACK
6
CONTINUOUS
10
0.1545453149606299
20
0.1995094881889764
11
0.1590668503937008
21
0.1979273622047244
0
LINE
8
BLACK
6
CONTINUOUS
10
0.1590668503937008
20
0.1979273622047244
11
0.1590669291338583
21
0.1979273228346457
0
LINE
8
BLACK
6
CONTINUOUS
10
0.1590669291338583
20
0.1979273228346457
11
0.1602649606299213
21
0.1978149606299213
0
LINE
8
BLACK
6
CONTINUOUS
10
0.1602649606299213
20
0.1978149606299213
11
0.1602651181102362
21
0.1978149606299213
0
LINE
8
BLACK
6
CONTINUOUS
10
0.1602651181102362
20
0.1978149606299213
11
0.2196562992125984
21
0.1978149606299213
0
LINE
8
BLACK
6
CONTINUOUS
10
0.2196562992125984
20
0.1978149606299213
11
0.2208542913385827
21
0.1979273228346457
0
LINE
8
BLACK
6
CONTINUOUS
10
0.2208542913385827
20
0.1979273228346457
11
0.2208543700787401
21
0.1979273228346457
0
LINE
8
BLACK
6
CONTINUOUS
10
0.2208543700787401
20
0.1979273228346457
11
0.2233775590551181
21
0.1988102755905512
0
LINE
8
BLACK
6
CONTINUOUS
10
0.2233775590551181
20
0.1988102755905512
11
0.2259008661417323
21
0.1996931889763779
0
LINE
8
BLACK
6
CONTINUOUS
10
0.2259008661417323
20
0.1996931889763779
11
0.2302027559055118
21
0.2028681102362205
0
LINE
8
BLACK
6
CONTINUOUS
10
0.2302027559055118
20
0.2028681102362205
11
0.2333776771653543
21
0.20717
0
LINE
8
BLACK
6
CONTINUOUS
10
0.2333776771653543
20
0.20717
11
0.2346849606299213
21
0.2109060236220472
0
LINE
8
BLACK
6
CONTINUOUS
10
0.2346849606299213
20
0.2109060236220472
11
0.2351435433070866
21
0.2122164960629921
0
LINE
8
BLACK
6
CONTINUOUS
10
0.2351435433070866
20
0.2122164960629921
11
0.2351435433070866
21
0.2122165748031496
0
LINE
8
BLACK
6
CONTINUOUS
10
0.2351435433070866
20
0.2122165748031496
11
0.235255905511811
21
0.2134146062992126
0
LINE
8
BLACK
6
CONTINUOUS
10
0.235255905511811
20
0.2134146062992126
11
0.235255905511811
21
0.2294988188976378
0
LINE
8
BLACK
6
CONTINUOUS
10
0.235255905511811
20
0.2294988188976378
11
0.2351435433070866
21
0.2306968503937008
0
LINE
8
BLACK
6
CONTINUOUS
10
0.2351435433070866
20
0.2306968503937008
11
0.2351435433070866
21
0.2306969291338583
0
LINE
8
BLACK
6
CONTINUOUS
10
0.2351435433070866
20
0.2306969291338583
11
0.2333776771653543
21
0.2357433464566929
0
LINE
8
BLACK
6
CONTINUOUS
10
0.2333776771653543
20
0.2357433464566929
11
0.2333776377952756
21
0.2357434251968504
0
LINE
8
BLACK
6
CONTINUOUS
10
0.2333776377952756
20
0.2357434251968504
11
0.2302027559055118
21
0.2400452755905512
0
LINE
8
BLACK
6
CONTINUOUS
10
0.2302027559055118
20
0.2400452755905512
11
0.2284394881889764
21
0.2413466141732283
0
LINE
8
BLACK
6
CONTINUOUS
10
0.2284394881889764
20
0.2413466141732283
11
0.2273711811023622
21
0.2421350787401575
0
LINE
8
BLACK
6
CONTINUOUS
10
0.2273711811023622
20
0.2421350787401575
11
0.2267207874015748
21
0.2429916929133858
0
LINE
8
BLACK
6
CONTINUOUS
10
0.2267207874015748
20
0.2429916929133858
11
0.2259665748031496
21
0.2437582677165354
0
LINE
8
BLACK
6
CONTINUOUS
10
0.2259665748031496
20
0.2437582677165354
11
0.2259011417322835
21
0.2440712598425197
0
LINE
8
BLACK
6
CONTINUOUS
10
0.2259011417322835
20
0.2440712598425197
11
0.2257077559055118
21
0.2443259448818897
0
LINE
8
BLACK
6
CONTINUOUS
10
0.2257077559055118
20
0.2443259448818897
11
0.2256237007874016
21
0.2453983464566929
0
LINE
8
BLACK
6
CONTINUOUS
10
0.2256237007874016
20
0.2453983464566929
11
0.2254037007874016
21
0.2464508661417323
0
LINE
8
BLACK
6
CONTINUOUS
10
0.2254037007874016
20
0.2464508661417323
11
0.2255178346456693
21
0.2467495275590551
0
LINE
8
BLACK
6
CONTINUOUS
10
0.2255178346456693
20
0.2467495275590551
11
0.225492874015748
21
0.2470683070866142
0
LINE
8
BLACK
6
CONTINUOUS
10
0.225492874015748
20
0.2470683070866142
11
0.2260018897637795
21
0.2480157480314961
0
LINE
8
BLACK
6
CONTINUOUS
10
0.2260018897637795
20
0.2480157480314961
11
0.226385905511811
21
0.2490203149606299
0
LINE
8
BLACK
6
CONTINUOUS
10
0.226385905511811
20
0.2490203149606299
11
0.2267161811023622
21
0.2493453149606299
0
LINE
8
BLACK
6
CONTINUOUS
10
0.2267161811023622
20
0.2493453149606299
11
0.2267947637795276
21
0.2494914960629921
0
LINE
8
BLACK
6
CONTINUOUS
10
0.2267947637795276
20
0.2494914960629921
11
0.2273759448818898
21
0.2499944881889764
0
LINE
8
BLACK
6
CONTINUOUS
10
0.2273759448818898
20
0.2499944881889764
11
0.2274031102362205
21
0.2500145275590551
0
LINE
8
BLACK
6
CONTINUOUS
10
0.2274031102362205
20
0.2500145275590551
11
0.2299881496062992
21
0.2509548031496063
0
LINE
8
BLACK
6
CONTINUOUS
10
0.2299881496062992
20
0.2509548031496063
11
0.2302968503937008
21
0.2509645669291338
0
LINE
8
BLACK
6
CONTINUOUS
10
0.2302968503937008
20
0.2509645669291338
11
0.2412592519685039
21
0.2509645669291338
0
LINE
8
BLACK
6
CONTINUOUS
10
0.2412592519685039
20
0.2509645669291338
11
0.2438985826771654
21
0.2501895669291339
0
LINE
8
BLACK
6
CONTINUOUS
10
0.2438985826771654
20
0.2501895669291339
11
0.2439714960629921
21
0.250141811023622
0
LINE
8
BLACK
6
CONTINUOUS
10
0.2439714960629921
20
0.250141811023622
11
0.2483536220472441
21
0.2472137401574803
0
LINE
8
BLACK
6
CONTINUOUS
10
0.2483536220472441
20
0.2472137401574803
11
0.2483541338582677
21
0.2472134645669291
0
LINE
8
BLACK
6
CONTINUOUS
10
0.2483541338582677
20
0.2472134645669291
11
0.2533727165354331
21
0.2451347244094488
0
LINE
8
BLACK
6
CONTINUOUS
10
0.2533727165354331
20
0.2451347244094488
11
0.2533729133858268
21
0.2451346456692913
0
LINE
8
BLACK
6
CONTINUOUS
10
0.2533729133858268
20
0.2451346456692913
11
0.2533730708661417
21
0.2451346456692913
0
LINE
8
BLACK
6
CONTINUOUS
10
0.2533730708661417
20
0.2451346456692913
11
0.2533731102362204
21
0.2451346062992126
0
LINE
8
BLACK
6
CONTINUOUS
10
0.2533731102362204
20
0.2451346062992126
11
0.2587009448818898
21
0.2440748031496063
0
LINE
8
BLACK
6
CONTINUOUS
10
0.2587009448818898
20
0.2440748031496063
11
0.258701062992126
21
0.2440748031496063
0
LINE
8
BLACK
6
CONTINUOUS
10
0.258701062992126
20
0.2440748031496063
11
0.2641336614173228
21
0.2440748031496063
0
LINE
8
BLACK
6
CONTINUOUS
10
0.2641336614173228
20
0.2440748031496063
11
0.2677181496062992
21
0.2447878346456693
0
LINE
8
BLACK
6
CONTINUOUS
10
0.2677181496062992
20
0.2447878346456693
11
0.2694617322834645
21
0.2451346456692913
0
LINE
8
BLACK
6
CONTINUOUS
10
0.2694617322834645
20
0.2451346456692913
11
0.2744807480314961
21
0.2472135826771653
0
LINE
8
BLACK
6
CONTINUOUS
10
0.2744807480314961
20
0.2472135826771653
11
0.278997716535433
21
0.2502317322834646
0
LINE
8
BLACK
6
CONTINUOUS
10
0.278997716535433
20
0.2502317322834646
11
0.27914
21
0.2503740157480315
0
LINE
8
BLACK
6
CONTINUOUS
10
0.27914
20
0.2503740157480315
11
0.2792849606299213
21
0.250518937007874
0
LINE
8
BLACK
6
CONTINUOUS
10
0.2792849606299213
20
0.250518937007874
11
0.2816992519685039
21
0.2518372440944882
0
LINE
8
BLACK
6
CONTINUOUS
10
0.2816992519685039
20
0.2518372440944882
11
0.282736968503937
21
0.2519488188976378
0
LINE
8
BLACK
6
CONTINUOUS
10
0.282736968503937
20
0.2519488188976378
11
0.3552476377952756
21
0.2519488188976378
0
LINE
8
BLACK
6
CONTINUOUS
10
0.3552476377952756
20
0.2519488188976378
11
0.3552477165354331
21
0.2519488188976378
0
LINE
8
BLACK
6
CONTINUOUS
10
0.3552477165354331
20
0.2519488188976378
11
0.3602592913385826
21
0.2532916535433071
0
LINE
8
BLACK
6
CONTINUOUS
10
0.3602592913385826
20
0.2532916535433071
11
0.3647525196850394
21
0.2558858267716536
0
LINE
8
BLACK
6
CONTINUOUS
10
0.3647525196850394
20
0.2558858267716536
11
0.3910558661417323
21
0.2821892519685039
0
LINE
8
BLACK
6
CONTINUOUS
10
0.3910558661417323
20
0.2821892519685039
11
0.3934701574803149
21
0.2835075196850393
0
LINE
8
BLACK
6
CONTINUOUS
10
0.3934701574803149
20
0.2835075196850393
11
0.3962138976377952
21
0.2833112992125984
0
LINE
8
BLACK
6
CONTINUOUS
10
0.3962138976377952
20
0.2833112992125984
11
0.3984160236220473
21
0.2816628346456693
0
LINE
8
BLACK
6
CONTINUOUS
10
0.3984160236220473
20
0.2816628346456693
11
0.3993773228346457
21
0.2790854724409449
0
LINE
8
BLACK
6
CONTINUOUS
10
0.3993773228346457
20
0.2790854724409449
11
0.3993897637795276
21
0.2787372047244094
0
LINE
8
BLACK
6
CONTINUOUS
10
0.3993897637795276
20
0.2787372047244094
11
0.3993897637795276
21
0.2674868897637795
0
LINE
8
BLACK
6
CONTINUOUS
10
0.3993897637795276
20
0.2674868897637795
11
0.3997995669291339
21
0.2643742913385826
0
LINE
8
BLACK
6
CONTINUOUS
10
0.3997995669291339
20
0.2643742913385826
11
0.4011411811023622
21
0.2593674409448819
0
LINE
8
BLACK
6
CONTINUOUS
10
0.4011411811023622
20
0.2593674409448819
11
0.4023424803149606
21
0.2564671653543307
0
LINE
8
BLACK
6
CONTINUOUS
10
0.4023424803149606
20
0.2564671653543307
11
0.4023427952755905
21
0.2564665354330709
0
LINE
8
BLACK
6
CONTINUOUS
10
0.4023427952755905
20
0.2564665354330709
11
0.4049340551181102
21
0.2519783858267716
0
LINE
8
BLACK
6
CONTINUOUS
10
0.4049340551181102
20
0.2519783858267716
11
0.4049345275590551
21
0.2519776771653544
0
LINE
8
BLACK
6
CONTINUOUS
10
0.4049345275590551
20
0.2519776771653544
11
0.4068456692913386
21
0.2494870866141732
0
LINE
8
BLACK
6
CONTINUOUS
10
0.4068456692913386
20
0.2494870866141732
11
0.4068459842519685
21
0.2494867322834646
0
LINE
8
BLACK
6
CONTINUOUS
10
0.4068459842519685
20
0.2494867322834646
11
0.4105103543307086
21
0.2458223622047244
0
LINE
8
BLACK
6
CONTINUOUS
10
0.4105103543307086
20
0.2458223622047244
11
0.4105106692913386
21
0.2458220866141732
0
LINE
8
BLACK
6
CONTINUOUS
10
0.4105106692913386
20
0.2458220866141732
11
0.4105107086614173
21
0.2458220472440945
0
LINE
8
BLACK
6
CONTINUOUS
10
0.4105107086614173
20
0.2458220472440945
11
0.411062874015748
21
0.2453983464566929
0
LINE
8
BLACK
6
CONTINUOUS
10
0.411062874015748
20
0.2453983464566929
11
0.4130012598425197
21
0.2439109448818897
0
LINE
8
BLACK
6
CONTINUOUS
10
0.4130012598425197
20
0.2439109448818897
11
0.4130014173228346
21
0.2439108661417323
0
LINE
8
BLACK
6
CONTINUOUS
10
0.4130014173228346
20
0.2439108661417323
11
0.4130016929133858
21
0.2439106299212598
0
LINE
8
BLACK
6
CONTINUOUS
10
0.4130016929133858
20
0.2439106299212598
11
0.413001968503937
21
0.2439104724409449
0
LINE
8
BLACK
6
CONTINUOUS
10
0.413001968503937
20
0.2439104724409449
11
0.4174901181102362
21
0.2413192125984252
0
LINE
8
BLACK
6
CONTINUOUS
10
0.4174901181102362
20
0.2413192125984252
11
0.4174907480314961
21
0.2413188976377953
0
LINE
8
BLACK
6
CONTINUOUS
10
0.4174907480314961
20
0.2413188976377953
11
0.4193442519685039
21
0.2405511811023622
0
LINE
8
BLACK
6
CONTINUOUS
10
0.4193442519685039
20
0.2405511811023622
11
0.4203911811023622
21
0.2401175196850394
0
LINE
8
BLACK
6
CONTINUOUS
10
0.4203911811023622
20
0.2401175196850394
11
0.4253977559055118
21
0.2387759842519685
0
LINE
8
BLACK
6
CONTINUOUS
10
0.4253977559055118
20
0.2387759842519685
11
0.4285107874015748
21
0.2383661417322835
0
LINE
8
BLACK
6
CONTINUOUS
10
0.4285107874015748
20
0.2383661417322835
11
0.428511062992126
21
0.2383661417322835
0
LINE
8
BLACK
6
CONTINUOUS
10
0.428511062992126
20
0.2383661417322835
11
0.4533787007874016
21
0.2383661417322835
0
LINE
8
BLACK
6
CONTINUOUS
10
0.4533787007874016
20
0.2383661417322835
11
0.4533789763779528
21
0.2383661417322835
0
LINE
8
BLACK
6
CONTINUOUS
10
0.4533789763779528
20
0.2383661417322835
11
0.4564920078740157
21
0.2387759842519685
0
LINE
8
BLACK
6
CONTINUOUS
10
0.4564920078740157
20
0.2387759842519685
11
0.4614985826771654
21
0.2401175196850394
0
LINE
8
BLACK
6
CONTINUOUS
10
0.4614985826771654
20
0.2401175196850394
11
0.4636324409448819
21
0.2410014173228346
0
LINE
8
BLACK
6
CONTINUOUS
10
0.4636324409448819
20
0.2410014173228346
11
0.4643989763779527
21
0.2413188976377953
0
LINE
8
BLACK
6
CONTINUOUS
10
0.4643989763779527
20
0.2413188976377953
11
0.4643990944881889
21
0.2413189763779527
0
LINE
8
BLACK
6
CONTINUOUS
10
0.4643990944881889
20
0.2413189763779527
11
0.4643993307086614
21
0.2413190551181102
0
LINE
8
BLACK
6
CONTINUOUS
10
0.4643993307086614
20
0.2413190551181102
11
0.4688880708661417
21
0.2439106299212598
0
LINE
8
BLACK
6
CONTINUOUS
10
0.4688880708661417
20
0.2439106299212598
11
0.4713790551181102
21
0.2458220472440945
0
LINE
8
BLACK
6
CONTINUOUS
10
0.4713790551181102
20
0.2458220472440945
11
0.4745011811023622
21
0.2489442125984252
0
LINE
8
BLACK
6
CONTINUOUS
10
0.4745011811023622
20
0.2489442125984252
11
0.4769153937007874
21
0.2502624409448819
0
LINE
8
BLACK
6
CONTINUOUS
10
0.4769153937007874
20
0.2502624409448819
11
0.4779531496062992
21
0.2503740157480315
0
LINE
8
BLACK
6
CONTINUOUS
10
0.4779531496062992
20
0.2503740157480315
11
0.4976745275590551
21
0.2503740157480315
0
LINE
8
BLACK
6
CONTINUOUS
10
0.4976745275590551
20
0.2503740157480315
11
0.4983764173228346
21
0.2501679133858268
0
LINE
8
BLACK
6
CONTINUOUS
10
0.4983764173228346
20
0.2501679133858268
11
0.499108031496063
21
0.2501588188976378
0
LINE
8
BLACK
6
CONTINUOUS
10
0.499108031496063
20
0.2501588188976378
11
0.4996689763779528
21
0.2497883858267717
0
LINE
8
BLACK
6
CONTINUOUS
10
0.4996689763779528
20
0.2497883858267717
11
0.5003138582677166
21
0.2495990157480315
0
LINE
8
BLACK
6
CONTINUOUS
10
0.5003138582677166
20
0.2495990157480315
11
0.5007929133858268
21
0.2490461417322835
0
LINE
8
BLACK
6
CONTINUOUS
10
0.5007929133858268
20
0.2490461417322835
11
0.5014034645669291
21
0.2486429527559055
0
LINE
8
BLACK
6
CONTINUOUS
10
0.5014034645669291
20
0.2486429527559055
11
0.5020802755905511
21
0.2475604724409449
0
LINE
8
BLACK
6
CONTINUOUS
10
0.5020802755905511
20
0.2475604724409449
11
0.5021152362204724
21
0.2475201181102362
0
LINE
8
BLACK
6
CONTINUOUS
10
0.5021152362204724
20
0.2475201181102362
11
0.5021401181102362
21
0.2474647637795276
0
LINE
8
BLACK
6
CONTINUOUS
10
0.5021401181102362
20
0.2474647637795276
11
0.5021644488188977
21
0.2474096850393701
0
LINE
8
BLACK
6
CONTINUOUS
10
0.5021644488188977
20
0.2474096850393701
11
0.5025220472440944
21
0.2446822834645669
0
LINE
8
BLACK
6
CONTINUOUS
10
0.5025220472440944
20
0.2446822834645669
11
0.5024978346456693
21
0.2445411811023622
0
LINE
8
BLACK
6
CONTINUOUS
10
0.5024978346456693
20
0.2445411811023622
11
0.5018090551181102
21
0.2408565354330709
0
LINE
8
BLACK
6
CONTINUOUS
10
0.5018090551181102
20
0.2408565354330709
11
0.501751968503937
21
0.2405511023622047
0
LINE
8
BLACK
6
CONTINUOUS
10
0.501751968503937
20
0.2405511023622047
11
0.501751968503937
21
0.2163057874015748
0
LINE
8
BLACK
6
CONTINUOUS
10
0.501751968503937
20
0.2163057874015748
11
0.5021326377952756
21
0.2134146062992126
0
LINE
8
BLACK
6
CONTINUOUS
10
0.5021326377952756
20
0.2134146062992126
11
0.502161811023622
21
0.213193031496063
0
LINE
8
BLACK
6
CONTINUOUS
10
0.502161811023622
20
0.213193031496063
11
0.503318031496063
21
0.2088779921259842
0
LINE
8
BLACK
6
CONTINUOUS
10
0.503318031496063
20
0.2088779921259842
11
0.5035033858267717
21
0.2081863385826772
0
LINE
8
BLACK
6
CONTINUOUS
10
0.5035033858267717
20
0.2081863385826772
11
0.50470468503937
21
0.205286062992126
0
LINE
8
BLACK
6
CONTINUOUS
10
0.50470468503937
20
0.205286062992126
11
0.504705
21
0.2052854330708661
0
LINE
8
BLACK
6
CONTINUOUS
10
0.504705
20
0.2052854330708661
11
0.5072962598425197
21
0.2007972834645669
0
LINE
8
BLACK
6
CONTINUOUS
10
0.5072962598425197
20
0.2007972834645669
11
0.5072967322834645
21
0.2007965748031496
0
LINE
8
BLACK
6
CONTINUOUS
10
0.5072967322834645
20
0.2007965748031496
11
0.5092078740157481
21
0.1983059842519685
0
LINE
8
BLACK
6
CONTINUOUS
10
0.5092078740157481
20
0.1983059842519685
11
0.509208188976378
21
0.1983056299212598
0
LINE
8
BLACK
6
CONTINUOUS
10
0.509208188976378
20
0.1983056299212598
11
0.5128725590551181
21
0.1946412598425197
0
LINE
8
BLACK
6
CONTINUOUS
10
0.5128725590551181
20
0.1946412598425197
11
0.512872874015748
21
0.1946409842519685
0
LINE
8
BLACK
6
CONTINUOUS
10
0.512872874015748
20
0.1946409842519685
11
0.5153634645669292
21
0.192729842519685
0
LINE
8
BLACK
6
CONTINUOUS
10
0.5153634645669292
20
0.192729842519685
11
0.5153636220472441
21
0.1927297637795276
0
LINE
8
BLACK
6
CONTINUOUS
10
0.5153636220472441
20
0.1927297637795276
11
0.5153638976377952
21
0.1927295275590551
0
LINE
8
BLACK
6
CONTINUOUS
10
0.5153638976377952
20
0.1927295275590551
11
0.5153641732283465
21
0.1927293700787402
0
LINE
8
BLACK
6
CONTINUOUS
10
0.5153641732283465
20
0.1927293700787402
11
0.5198523228346457
21
0.1901381102362205
0
LINE
8
BLACK
6
CONTINUOUS
10
0.5198523228346457
20
0.1901381102362205
11
0.5198525196850393
21
0.190138031496063
0
LINE
8
BLACK
6
CONTINUOUS
10
0.5198525196850393
20
0.190138031496063
11
0.5198526377952756
21
0.1901379527559055
0
LINE
8
BLACK
6
CONTINUOUS
10
0.5198526377952756
20
0.1901379527559055
11
0.5198528346456692
21
0.190137874015748
0
LINE
8
BLACK
6
CONTINUOUS
10
0.5198528346456692
20
0.190137874015748
11
0.5201948818897638
21
0.1899961811023622
0
LINE
8
BLACK
6
CONTINUOUS
10
0.5201948818897638
20
0.1899961811023622
11
0.520807716535433
21
0.1895023622047244
0
LINE
8
BLACK
6
CONTINUOUS
10
0.520807716535433
20
0.1895023622047244
11
0.5215237401574803
21
0.1891753543307086
0
LINE
8
BLACK
6
CONTINUOUS
10
0.5215237401574803
20
0.1891753543307086
11
0.5218569291338583
21
0.1886568897637795
0
LINE
8
BLACK
6
CONTINUOUS
10
0.5218569291338583
20
0.1886568897637795
11
0.5223368110236221
21
0.1882701968503937
0
LINE
8
BLACK
6
CONTINUOUS
10
0.5223368110236221
20
0.1882701968503937
11
0.5225853543307086
21
0.1875233858267716
0
LINE
8
BLACK
6
CONTINUOUS
10
0.5225853543307086
20
0.1875233858267716
11
0.5230109055118111
21
0.1868612598425197
0
LINE
8
BLACK
6
CONTINUOUS
10
0.5230109055118111
20
0.1868612598425197
11
0.5231668897637796
21
0.1857763385826772
0
LINE
8
BLACK
6
CONTINUOUS
10
0.5231668897637796
20
0.1857763385826772
11
0.5232055511811023
21
0.1856601968503937
0
LINE
8
BLACK
6
CONTINUOUS
10
0.5232055511811023
20
0.1856601968503937
11
0.5232086614173228
21
0.1854858661417323
0
LINE
8
BLACK
6
CONTINUOUS
10
0.5232086614173228
20
0.1854858661417323
11
0.5232086614173228
21
0.1756503543307087
0
LINE
8
BLACK
6
CONTINUOUS
10
0.5232086614173228
20
0.1756503543307087
11
0.5224336614173228
21
0.1730110236220472
0
LINE
8
BLACK
6
CONTINUOUS
10
0.5224336614173228
20
0.1730110236220472
11
0.521778779527559
21
0.1721983464566929
0
LINE
8
BLACK
6
CONTINUOUS
10
0.521778779527559
20
0.1721983464566929
11
0.5214916535433071
21
0.1719112598425197
0
LINE
8
BLACK
6
CONTINUOUS
10
0.5214916535433071
20
0.1719112598425197
11
0.5214915354330708
21
0.1719111023622047
0
LINE
8
BLACK
6
CONTINUOUS
10
0.5214915354330708
20
0.1719111023622047
11
0.5184735433070866
21
0.1673944094488189
0
LINE
8
BLACK
6
CONTINUOUS
10
0.5184735433070866
20
0.1673944094488189
11
0.5184732677165355
21
0.1673938976377953
0
LINE
8
BLACK
6
CONTINUOUS
10
0.5184732677165355
20
0.1673938976377953
11
0.5163945275590551
21
0.1623753149606299
0
LINE
8
BLACK
6
CONTINUOUS
10
0.5163945275590551
20
0.1623753149606299
11
0.5163944094488189
21
0.1623749212598425
0
LINE
8
BLACK
6
CONTINUOUS
10
0.5163944094488189
20
0.1623749212598425
11
0.5153346456692913
21
0.1570470866141732
0
LINE
8
BLACK
6
CONTINUOUS
10
0.5153346456692913
20
0.1570470866141732
11
0.5153346456692913
21
0.157046968503937
0
LINE
8
BLACK
6
CONTINUOUS
10
0.5153346456692913
20
0.157046968503937
11
0.5153346456692913
21
0.1516144488188976
0
LINE
8
BLACK
6
CONTINUOUS
10
0.5153346456692913
20
0.1516144488188976
11
0.5153346456692913
21
0.1516143700787402
0
LINE
8
BLACK
6
CONTINUOUS
10
0.5153346456692913
20
0.1516143700787402
11
0.5153346062992126
21
0.1516143700787402
0
LINE
8
BLACK
6
CONTINUOUS
10
0.5153346062992126
20
0.1516143700787402
11
0.5163944094488189
21
0.1462865354330709
0
LINE
8
BLACK
6
CONTINUOUS
10
0.5163944094488189
20
0.1462865354330709
11
0.5163945275590551
21
0.1462861417322835
0
LINE
8
BLACK
6
CONTINUOUS
10
0.5163945275590551
20
0.1462861417322835
11
0.5184732677165355
21
0.1412675590551181
0
LINE
8
BLACK
6
CONTINUOUS
10
0.5184732677165355
20
0.1412675590551181
11
0.5184735433070866
21
0.1412670472440945
0
LINE
8
BLACK
6
CONTINUOUS
10
0.5184735433070866
20
0.1412670472440945
11
0.5214915354330708
21
0.1367503543307086
0
LINE
8
BLACK
6
CONTINUOUS
10
0.5214915354330708
20
0.1367503543307086
11
0.5214916535433071
21
0.1367501968503937
0
LINE
8
BLACK
6
CONTINUOUS
10
0.5214916535433071
20
0.1367501968503937
11
0.5253328346456693
21
0.1329090157480315
0
LINE
8
BLACK
6
CONTINUOUS
10
0.5253328346456693
20
0.1329090157480315
11
0.5253329921259843
21
0.1329088976377953
0
LINE
8
BLACK
6
CONTINUOUS
10
0.5253329921259843
20
0.1329088976377953
11
0.52984968503937
21
0.129890905511811
0
LINE
8
BLACK
6
CONTINUOUS
10
0.52984968503937
20
0.129890905511811
11
0.5298501968503937
21
0.1298906299212598
0
LINE
8
BLACK
6
CONTINUOUS
10
0.5298501968503937
20
0.1298906299212598
11
0.5348687795275591
21
0.1278118897637795
0
LINE
8
BLACK
6
CONTINUOUS
10
0.5348687795275591
20
0.1278118897637795
11
0.5348689763779527
21
0.127811811023622
0
LINE
8
BLACK
6
CONTINUOUS
10
0.5348689763779527
20
0.127811811023622
11
0.5348691338582677
21
0.127811811023622
0
LINE
8
BLACK
6
CONTINUOUS
10
0.5348691338582677
20
0.127811811023622
11
0.5348691732283465
21
0.1278117716535433
0
LINE
8
BLACK
6
CONTINUOUS
10
0.5348691732283465
20
0.1278117716535433
11
0.5401970078740157
21
0.126751968503937
0
LINE
8
BLACK
6
CONTINUOUS
10
0.5401970078740157
20
0.126751968503937
11
0.540197125984252
21
0.126751968503937
0
LINE
8
BLACK
6
CONTINUOUS
10
0.540197125984252
20
0.126751968503937
11
0.5456297244094488
21
0.126751968503937
0
LINE
8
BLACK
6
CONTINUOUS
10
0.5456297244094488
20
0.126751968503937
11
0.5492142125984252
21
0.127465
0
LINE
8
BLACK
6
CONTINUOUS
10
0.5492142125984252
20
0.127465
11
0.5509577952755905
21
0.127811811023622
0
LINE
8
BLACK
6
CONTINUOUS
10
0.5509577952755905
20
0.127811811023622
11
0.5559768110236221
21
0.1298907480314961
0
LINE
8
BLACK
6
CONTINUOUS
10
0.5559768110236221
20
0.1298907480314961
11
0.5604937795275591
21
0.1329088976377953
0
LINE
8
BLACK
6
CONTINUOUS
10
0.5604937795275591
20
0.1329088976377953
11
0.5643351968503937
21
0.1367503149606299
0
LINE
8
BLACK
6
CONTINUOUS
10
0.5643351968503937
20
0.1367503149606299
11
0.5673533464566929
21
0.1412672834645669
0
LINE
8
BLACK
6
CONTINUOUS
10
0.5673533464566929
20
0.1412672834645669
11
0.5694322834645669
21
0.1462862992125984
0
LINE
8
BLACK
6
CONTINUOUS
10
0.5694322834645669
20
0.1462862992125984
11
0.5704921259842519
21
0.1516144488188976
0
LINE
8
BLACK
6
CONTINUOUS
10
0.5704921259842519
20
0.1516144488188976
11
0.5704921259842519
21
0.157046968503937
0
LINE
8
BLACK
6
CONTINUOUS
10
0.5704921259842519
20
0.157046968503937
11
0.5704921259842519
21
0.1570470866141732
0
LINE
8
BLACK
6
CONTINUOUS
10
0.5704921259842519
20
0.1570470866141732
11
0.5694323228346456
21
0.1623749212598425
0
LINE
8
BLACK
6
CONTINUOUS
10
0.5694323228346456
20
0.1623749212598425
11
0.5694322834645669
21
0.1623749606299213
0
LINE
8
BLACK
6
CONTINUOUS
10
0.5694322834645669
20
0.1623749606299213
11
0.5694322834645669
21
0.1623751181102362
0
LINE
8
BLACK
6
CONTINUOUS
10
0.5694322834645669
20
0.1623751181102362
11
0.568895905511811
21
0.1636700393700787
0
LINE
8
BLACK
6
CONTINUOUS
10
0.568895905511811
20
0.1636700393700787
11
0.5673534645669291
21
0.1673938976377953
0
LINE
8
BLACK
6
CONTINUOUS
10
0.5673534645669291
20
0.1673938976377953
11
0.567353188976378
21
0.1673944094488189
0
LINE
8
BLACK
6
CONTINUOUS
10
0.567353188976378
20
0.1673944094488189
11
0.5643351968503937
21
0.1719111023622047
0
LINE
8
BLACK
6
CONTINUOUS
10
0.5643351968503937
20
0.1719111023622047
11
0.5643350787401574
21
0.1719112598425197
0
LINE
8
BLACK
6
CONTINUOUS
10
0.5643350787401574
20
0.1719112598425197
11
0.5640479921259842
21
0.1721983464566929
0
LINE
8
BLACK
6
CONTINUOUS
10
0.5640479921259842
20
0.1721983464566929
11
0.5634690944881889
21
0.1732585039370079
0
LINE
8
BLACK
6
CONTINUOUS
10
0.5634690944881889
20
0.1732585039370079
11
0.5628158661417323
21
0.1742749606299213
0
LINE
8
BLACK
6
CONTINUOUS
10
0.5628158661417323
20
0.1742749606299213
11
0.562780748031496
21
0.174519094488189
0
LINE
8
BLACK
6
CONTINUOUS
10
0.562780748031496
20
0.174519094488189
11
0.56272968503937
21
0.1746126377952756
0
LINE
8
BLACK
6
CONTINUOUS
10
0.56272968503937
20
0.1746126377952756
11
0.5626181102362204
21
0.1756503543307087
0
LINE
8
BLACK
6
CONTINUOUS
10
0.5626181102362204
20
0.1756503543307087
11
0.5626181102362204
21
0.1851597244094488
0
LINE
8
BLACK
6
CONTINUOUS
10
0.5626181102362204
20
0.1851597244094488
11
0.5633931102362204
21
0.1877990551181102
0
LINE
8
BLACK
6
CONTINUOUS
10
0.5633931102362204
20
0.1877990551181102
11
0.5654720078740157
21
0.1896004330708661
0
LINE
8
BLACK
6
CONTINUOUS
10
0.5654720078740157
20
0.1896004330708661
11
0.5656309055118111
21
0.1896696456692913
0
LINE
8
BLACK
6
CONTINUOUS
10
0.5656309055118111
20
0.1896696456692913
11
0.5667615354330708
21
0.1901379527559055
0
LINE
8
BLACK
6
CONTINUOUS
10
0.5667615354330708
20
0.1901379527559055
11
0.5712502755905512
21
0.1927295275590551
0
LINE
8
BLACK
6
CONTINUOUS
10
0.5712502755905512
20
0.1927295275590551
11
0.5737412598425197
21
0.1946409448818898
0
LINE
8
BLACK
6
CONTINUOUS
10
0.5737412598425197
20
0.1946409448818898
11
0.5737414173228347
21
0.1946411417322835
0
LINE
8
BLACK
6
CONTINUOUS
10
0.5737414173228347
20
0.1946411417322835
11
0.5737416141732283
21
0.1946412598425197
0
LINE
8
BLACK
6
CONTINUOUS
10
0.5737416141732283
20
0.1946412598425197
11
0.5774059842519685
21
0.1983056299212598
0
LINE
8
BLACK
6
CONTINUOUS
10
0.5774059842519685
20
0.1983056299212598
11
0.5774061023622047
21
0.1983058267716535
0
LINE
8
BLACK
6
CONTINUOUS
10
0.5774061023622047
20
0.1983058267716535
11
0.5774062992125985
21
0.1983059842519685
0
LINE
8
BLACK
6
CONTINUOUS
10
0.5774062992125985
20
0.1983059842519685
11
0.5793177165354331
21
0.200796968503937
0
LINE
8
BLACK
6
CONTINUOUS
10
0.5793177165354331
20
0.200796968503937
11
0.5819092913385827
21
0.2052857086614173
0
LINE
8
BLACK
6
CONTINUOUS
10
0.5819092913385827
20
0.2052857086614173
11
0.5831108267716535
21
0.2081864566929134
0
LINE
8
BLACK
6
CONTINUOUS
10
0.5831108267716535
20
0.2081864566929134
11
0.5844523622047244
21
0.213193031496063
0
LINE
8
BLACK
6
CONTINUOUS
10
0.5844523622047244
20
0.213193031496063
11
0.5848622047244094
21
0.216306062992126
0
LINE
8
BLACK
6
CONTINUOUS
10
0.5848622047244094
20
0.216306062992126
11
0.5848622047244094
21
0.2290564960629921
0
LINE
8
BLACK
6
CONTINUOUS
10
0.5848622047244094
20
0.2290564960629921
11
0.5856372047244094
21
0.2316958267716535
0
LINE
8
BLACK
6
CONTINUOUS
10
0.5856372047244094
20
0.2316958267716535
11
0.5877161023622047
21
0.2334972047244094
0
LINE
8
BLACK
6
CONTINUOUS
10
0.5877161023622047
20
0.2334972047244094
11
0.5904388582677165
21
0.2338887007874016
0
LINE
8
BLACK
6
CONTINUOUS
10
0.5904388582677165
20
0.2338887007874016
11
0.592941062992126
21
0.2327459842519685
0
LINE
8
BLACK
6
CONTINUOUS
10
0.592941062992126
20
0.2327459842519685
11
0.5931961023622047
21
0.2325085039370079
0
LINE
8
BLACK
6
CONTINUOUS
10
0.5931961023622047
20
0.2325085039370079
11
0.6410782283464567
21
0.1846263779527559
0
LINE
8
BLACK
6
CONTINUOUS
10
0.6410782283464567
20
0.1846263779527559
11
0.6410783070866142
21
0.1846263385826772
0
LINE
8
BLACK
6
CONTINUOUS
10
0.6410783070866142
20
0.1846263385826772
11
0.6410784645669291
21
0.1846262204724409
0
LINE
8
BLACK
6
CONTINUOUS
10
0.6410784645669291
20
0.1846262204724409
11
0.6451223228346457
21
0.1822915354330709
0
LINE
8
BLACK
6
CONTINUOUS
10
0.6451223228346457
20
0.1822915354330709
11
0.6451225984251968
21
0.1822913779527559
0
LINE
8
BLACK
6
CONTINUOUS
10
0.6451225984251968
20
0.1822913779527559
11
0.6496335039370078
21
0.1810826771653543
0
LINE
8
BLACK
6
CONTINUOUS
10
0.6496335039370078
20
0.1810826771653543
11
0.730735
21
0.1810826771653543
0
LINE
8
BLACK
6
CONTINUOUS
10
0.730735
20
0.1810826771653543
11
0.7333743307086614
21
0.1803076771653543
0
LINE
8
BLACK
6
CONTINUOUS
10
0.7333743307086614
20
0.1803076771653543
11
0.7351757086614173
21
0.1782287795275591
0
LINE
8
BLACK
6
CONTINUOUS
10
0.7351757086614173
20
0.1782287795275591
11
0.7355672047244094
21
0.1755060236220472
0
LINE
8
BLACK
6
CONTINUOUS
10
0.7355672047244094
20
0.1755060236220472
11
0.7344244881889763
21
0.1730038188976378
0
LINE
8
BLACK
6
CONTINUOUS
10
0.7344244881889763
20
0.1730038188976378
11
0.7336045275590551
21
0.1722512992125984
0
LINE
8
BLACK
6
CONTINUOUS
10
0.7336045275590551
20
0.1722512992125984
11
0.7331363385826771
21
0.1719111023622047
0
LINE
8
BLACK
6
CONTINUOUS
10
0.7331363385826771
20
0.1719111023622047
11
0.7296370078740158
21
0.1693687401574803
0
LINE
8
BLACK
6
CONTINUOUS
10
0.7296370078740158
20
0.1693687401574803
11
0.7239381102362205
21
0.163669842519685
0
LINE
8
BLACK
6
CONTINUOUS
10
0.7239381102362205
20
0.163669842519685
11
0.7192013779527558
21
0.157150157480315
0
LINE
8
BLACK
6
CONTINUOUS
10
0.7192013779527558
20
0.157150157480315
11
0.7155425590551181
21
0.1499694488188976
0
LINE
8
BLACK
6
CONTINUOUS
10
0.7155425590551181
20
0.1499694488188976
11
0.7130520472440944
21
0.1423045275590551
0
LINE
8
BLACK
6
CONTINUOUS
10
0.7130520472440944
20
0.1423045275590551
11
0.7117913385826772
21
0.1343445669291339
0
LINE
8
BLACK
6
CONTINUOUS
10
0.7117913385826772
20
0.1343445669291339
11
0.7117913385826772
21
0.1262853937007874
0
LINE
8
BLACK
6
CONTINUOUS
10
0.7117913385826772
20
0.1262853937007874
11
0.7130520472440944
21
0.1183254330708661
0
LINE
8
BLACK
6
CONTINUOUS
10
0.7130520472440944
20
0.1183254330708661
11
0.7155425590551181
21
0.1106605118110236
0
LINE
8
BLACK
6
CONTINUOUS
10
0.7155425590551181
20
0.1106605118110236
11
0.7192013779527558
21
0.1034798031496063
0
LINE
8
BLACK
6
CONTINUOUS
10
0.7192013779527558
20
0.1034798031496063
11
0.7239381102362205
21
0.0969601181102362
0
LINE
8
BLACK
6
CONTINUOUS
10
0.7239381102362205
20
0.0969601181102362
11
0.7296372440944882
21
0.0912609842519685
0
LINE
8
BLACK
6
CONTINUOUS
10
0.7296372440944882
20
0.0912609842519685
11
0.7357381496062992
21
0.0868285039370079
0
LINE
8
BLACK
6
CONTINUOUS
10
0.7357381496062992
20
0.0868285039370079
11
0.7361570866141732
21
0.0865241338582677
0
LINE
8
BLACK
6
CONTINUOUS
10
0.7361570866141732
20
0.0865241338582677
11
0.7407325590551181
21
0.0841927952755906
0
LINE
8
BLACK
6
CONTINUOUS
10
0.7407325590551181
20
0.0841927952755906
11
0.7433376377952756
21
0.0828654330708661
0
LINE
8
BLACK
6
CONTINUOUS
10
0.7433376377952756
20
0.0828654330708661
11
0.743337716535433
21
0.0828654330708661
0
LINE
8
BLACK
6
CONTINUOUS
10
0.743337716535433
20
0.0828654330708661
11
0.7433378346456693
21
0.0828653543307087
0
LINE
8
BLACK
6
CONTINUOUS
10
0.7433378346456693
20
0.0828653543307087
11
0.7474463385826772
21
0.0815304330708661
0
LINE
8
BLACK
6
CONTINUOUS
10
0.7474463385826772
20
0.0815304330708661
11
0.7510025590551181
21
0.0803749212598425
0
LINE
8
BLACK
6
CONTINUOUS
10
0.7510025590551181
20
0.0803749212598425
11
0.7549825590551181
21
0.0797445669291339
0
LINE
8
BLACK
6
CONTINUOUS
10
0.7549825590551181
20
0.0797445669291339
11
0.7589625196850394
21
0.0791141732283464
0
LINE
8
BLACK
6
CONTINUOUS
10
0.7589625196850394
20
0.0791141732283464
11
0.7589625590551181
21
0.0791141732283464
0
LINE
8
BLACK
6
CONTINUOUS
10
0.7589625590551181
20
0.0791141732283464
11
0.7670216929133858
21
0.0791141732283464
0
LINE
8
BLACK
6
CONTINUOUS
10
0.7670216929133858
20
0.0791141732283464
11
0.7670217322834646
21
0.0791141732283464
0
LINE
8
BLACK
6
CONTINUOUS
10
0.7670217322834646
20
0.0791141732283464
11
0.7749816535433071
21
0.0803749212598425
0
LINE
8
BLACK
6
CONTINUOUS
10
0.7749816535433071
20
0.0803749212598425
11
0.7826464173228346
21
0.0828653543307087
0
LINE
8
BLACK
6
CONTINUOUS
10
0.7826464173228346
20
0.0828653543307087
11
0.7898271653543307
21
0.0865241338582677
0
LINE
8
BLACK
6
CONTINUOUS
10
0.7898271653543307
20
0.0865241338582677
11
0.7934877952755905
21
0.0891837795275591
0
LINE
8
BLACK
6
CONTINUOUS
10
0.7934877952755905
20
0.0891837795275591
11
0.7963469685039369
21
0.0912609842519685
0
LINE
8
BLACK
6
CONTINUOUS
10
0.7963469685039369
20
0.0912609842519685
11
0.7963470472440944
21
0.0912611023622047
0
LINE
8
BLACK
6
CONTINUOUS
10
0.7963470472440944
20
0.0912611023622047
11
0.7963472047244095
21
0.0912611811023622
0
LINE
8
BLACK
6
CONTINUOUS
10
0.7963472047244095
20
0.0912611811023622
11
0.802045905511811
21
0.0969598818897638
0
LINE
8
BLACK
6
CONTINUOUS
10
0.802045905511811
20
0.0969598818897638
11
0.8020459842519685
21
0.0969600393700787
0
LINE
8
BLACK
6
CONTINUOUS
10
0.8020459842519685
20
0.0969600393700787
11
0.8020461023622047
21
0.0969601181102362
0
LINE
8
BLACK
6
CONTINUOUS
10
0.8020461023622047
20
0.0969601181102362
11
0.8041233070866142
21
0.0998192913385827
0
LINE
8
BLACK
6
CONTINUOUS
10
0.8041233070866142
20
0.0998192913385827
11
0.8067829527559055
21
0.1034799212598425
0
LINE
8
BLACK
6
CONTINUOUS
10
0.8067829527559055
20
0.1034799212598425
11
0.8104417322834645
21
0.1106606692913386
0
LINE
8
BLACK
6
CONTINUOUS
10
0.8104417322834645
20
0.1106606692913386
11
0.8129321653543307
21
0.1183254330708661
0
LINE
8
BLACK
6
CONTINUOUS
10
0.8129321653543307
20
0.1183254330708661
11
0.8141929133858268
21
0.1262853543307087
0
LINE
8
BLACK
6
CONTINUOUS
10
0.8141929133858268
20
0.1262853543307087
11
0.8141929133858268
21
0.1343445669291339
0
LINE
8
BLACK
6
CONTINUOUS
10
0.8141929133858268
20
0.1343445669291339
11
0.8129321653543307
21
0.1423044881889764
0
LINE
8
BLACK
6
CONTINUOUS
10
0.8129321653543307
20
0.1423044881889764
11
0.8104417322834645
21
0.1499692519685039
0
LINE
8
BLACK
6
CONTINUOUS
10
0.8104417322834645
20
0.1499692519685039
11
0.8104416535433071
21
0.1499693700787401
0
LINE
8
BLACK
6
CONTINUOUS
10
0.8104416535433071
20
0.1499693700787401
11
0.8104416535433071
21
0.1499694488188976
0
LINE
8
BLACK
6
CONTINUOUS
10
0.8104416535433071
20
0.1499694488188976
11
0.8091142913385827
21
0.1525745275590551
0
LINE
8
BLACK
6
CONTINUOUS
10
0.8091142913385827
20
0.1525745275590551
11
0.8067829527559055
21
0.15715
0
LINE
8
BLACK
6
CONTINUOUS
10
0.8067829527559055
20
0.15715
11
0.8064785826771653
21
0.157568937007874
0
LINE
8
BLACK
6
CONTINUOUS
10
0.8064785826771653
20
0.157568937007874
11
0.8020461023622047
21
0.163669842519685
0
LINE
8
BLACK
6
CONTINUOUS
10
0.8020461023622047
20
0.163669842519685
11
0.7963469685039369
21
0.1693689763779528
0
LINE
8
BLACK
6
CONTINUOUS
10
0.7963469685039369
20
0.1693689763779528
11
0.7959248818897637
21
0.1696756299212598
0
LINE
8
BLACK
6
CONTINUOUS
10
0.7959248818897637
20
0.1696756299212598
11
0.7942451968503936
21
0.1718540157480315
0
LINE
8
BLACK
6
CONTINUOUS
10
0.7942451968503936
20
0.1718540157480315
11
0.794009842519685
21
0.1745946850393701
0
LINE
8
BLACK
6
CONTINUOUS
10
0.794009842519685
20
0.1745946850393701
11
0.7952936220472441
21
0.1770275196850394
0
LINE
8
BLACK
6
CONTINUOUS
10
0.7952936220472441
20
0.1770275196850394
11
0.7976888582677165
21
0.1783801181102362
0
LINE
8
BLACK
6
CONTINUOUS
10
0.7976888582677165
20
0.1783801181102362
11
0.8004351574803149
21
0.178223031496063
0
LINE
8
BLACK
6
CONTINUOUS
10
0.8004351574803149
20
0.178223031496063
11
0.8012352362204724
21
0.1778529921259842
0
LINE
8
BLACK
6
CONTINUOUS
10
0.8012352362204724
20
0.1778529921259842
11
0.8030793700787401
21
0.1767883070866142
0
LINE
8
BLACK
6
CONTINUOUS
10
0.8030793700787401
20
0.1767883070866142
11
0.8090922440944882
21
0.1751771653543307
0
LINE
8
BLACK
6
CONTINUOUS
10
0.8090922440944882
20
0.1751771653543307
11
0.8090923228346456
21
0.1751771653543307
0
LINE
8
BLACK
6
CONTINUOUS
10
0.8090923228346456
20
0.1751771653543307
11
0.815317125984252
21
0.1751771653543307
0
LINE
8
BLACK
6
CONTINUOUS
10
0.815317125984252
20
0.1751771653543307
11
0.8153172047244094
21
0.1751771653543307
0
LINE
8
BLACK
6
CONTINUOUS
10
0.8153172047244094
20
0.1751771653543307
11
0.8213300787401575
21
0.1767883070866142
0
LINE
8
BLACK
6
CONTINUOUS
10
0.8213300787401575
20
0.1767883070866142
11
0.8267211023622048
21
0.1799007874015748
0
LINE
8
BLACK
6
CONTINUOUS
10
0.8267211023622048
20
0.1799007874015748
11
0.8311228346456693
21
0.1843025196850394
0
LINE
8
BLACK
6
CONTINUOUS
10
0.8311228346456693
20
0.1843025196850394
11
0.8342353149606299
21
0.1896935433070866
0
LINE
8
BLACK
6
CONTINUOUS
10
0.8342353149606299
20
0.1896935433070866
11
0.8358464566929134
21
0.1957064173228346
0
LINE
8
BLACK
6
CONTINUOUS
10
0.8358464566929134
20
0.1957064173228346
11
0.8358464566929134
21
0.2019313779527559
0
LINE
8
BLACK
6
CONTINUOUS
10
0.8358464566929134
20
0.2019313779527559
11
0.8342353149606299
21
0.2079442519685039
0
LINE
8
BLACK
6
CONTINUOUS
10
0.8342353149606299
20
0.2079442519685039
11
0.8325253543307086
21
0.2109060236220472
0
LINE
8
BLACK
6
CONTINUOUS
10
0.8325253543307086
20
0.2109060236220472
11
0.8311229921259843
21
0.2133350393700787
0
LINE
8
BLACK
6
CONTINUOUS
10
0.8311229921259843
20
0.2133350393700787
11
0.8311227559055118
21
0.2133353543307087
0
LINE
8
BLACK
6
CONTINUOUS
10
0.8311227559055118
20
0.2133353543307087
11
0.8267211417322834
21
0.217736968503937
0
LINE
8
BLACK
6
CONTINUOUS
10
0.8267211417322834
20
0.217736968503937
11
0.8267208267716535
21
0.2177372047244094
0
LINE
8
BLACK
6
CONTINUOUS
10
0.8267208267716535
20
0.2177372047244094
11
0.8213303149606299
21
0.2208493700787401
0
LINE
8
BLACK
6
CONTINUOUS
10
0.8213303149606299
20
0.2208493700787401
11
0.8213301574803149
21
0.2208494488188976
0
LINE
8
BLACK
6
CONTINUOUS
10
0.8213301574803149
20
0.2208494488188976
11
0.8213300787401575
21
0.2208494881889764
0
LINE
8
BLACK
6
CONTINUOUS
10
0.8213300787401575
20
0.2208494881889764
11
0.8153172047244094
21
0.2224606299212598
0
LINE
8
BLACK
6
CONTINUOUS
10
0.8153172047244094
20
0.2224606299212598
11
0.8090922440944882
21
0.2224606299212598
0
LINE
8
BLACK
6
CONTINUOUS
10
0.8090922440944882
20
0.2224606299212598
11
0.8030793700787401
21
0.2208494881889764
0
LINE
8
BLACK
6
CONTINUOUS
10
0.8030793700787401
20
0.2208494881889764
11
0.8030790944881889
21
0.2208493700787401
0
LINE
8
BLACK
6
CONTINUOUS
10
0.8030790944881889
20
0.2208493700787401
11
0.7976885826771654
21
0.2177372047244094
0
LINE
8
BLACK
6
CONTINUOUS
10
0.7976885826771654
20
0.2177372047244094
11
0.797462874015748
21
0.2175639763779527
0
LINE
8
BLACK
6
CONTINUOUS
10
0.797462874015748
20
0.2175639763779527
11
0.7948971653543306
21
0.2165720472440945
0
LINE
8
BLACK
6
CONTINUOUS
10
0.7948971653543306
20
0.2165720472440945
11
0.794490905511811
21
0.2165551181102362
0
LINE
8
BLACK
6
CONTINUOUS
10
0.794490905511811
20
0.2165551181102362
11
0.6613372047244095
21
0.2165551181102362
0
LINE
8
BLACK
6
CONTINUOUS
10
0.6613372047244095
20
0.2165551181102362
11
0.658697874015748
21
0.2173301181102362
0
LINE
8
BLACK
6
CONTINUOUS
10
0.658697874015748
20
0.2173301181102362
11
0.6578851968503937
21
0.217985
0
LINE
8
BLACK
6
CONTINUOUS
10
0.6578851968503937
20
0.217985
11
0.5915990551181102
21
0.2842711417322835
0
LINE
8
BLACK
6
CONTINUOUS
10
0.5915990551181102
20
0.2842711417322835
11
0.5915989763779528
21
0.2842712204724409
0
LINE
8
BLACK
6
CONTINUOUS
10
0.5915989763779528
20
0.2842712204724409
11
0.5875546062992126
21
0.2866062598425197
0
LINE
8
BLACK
6
CONTINUOUS
10
0.5875546062992126
20
0.2866062598425197
11
0.5875545669291339
21
0.2866062992125984
0
LINE
8
BLACK
6
CONTINUOUS
10
0.5875545669291339
20
0.2866062992125984
11
0.5872774803149606
21
0.2867662598425197
0
LINE
8
BLACK
6
CONTINUOUS
10
0.5872774803149606
20
0.2867662598425197
11
0.5873216141732284
21
0.2868427165354331
0
LINE
8
BLACK
6
CONTINUOUS
10
0.5873216141732284
20
0.2868427165354331
11
0.5855370078740157
21
0.288280905511811
0
LINE
8
BLACK
6
CONTINUOUS
10
0.5855370078740157
20
0.288280905511811
11
0.5846684251968504
21
0.2908909448818898
0
LINE
8
BLACK
6
CONTINUOUS
10
0.5846684251968504
20
0.2908909448818898
11
0.5846653149606299
21
0.2910650393700787
0
LINE
8
BLACK
6
CONTINUOUS
10
0.5846653149606299
20
0.2910650393700787
11
0.5846653149606299
21
0.2915298031496063
0
LINE
8
BLACK
6
CONTINUOUS
10
0.5846653149606299
20
0.2915298031496063
11
0.5846653149606299
21
0.2915300787401575
0
LINE
8
BLACK
6
CONTINUOUS
10
0.5846653149606299
20
0.2915300787401575
11
0.5846652362204724
21
0.2915308267716535
0
LINE
8
BLACK
6
CONTINUOUS
10
0.5846652362204724
20
0.2915308267716535
11
0.5845506299212598
21
0.2925192125984252
0
LINE
8
BLACK
6
CONTINUOUS
10
0.5845506299212598
20
0.2925192125984252
11
0.5845505905511811
21
0.2925192913385827
0
LINE
8
BLACK
6
CONTINUOUS
10
0.5845505905511811
20
0.2925192913385827
11
0.5845505905511811
21
0.2925193307086614
0
LINE
8
BLACK
6
CONTINUOUS
10
0.5845505905511811
20
0.2925193307086614
11
0.5827640157480315
21
0.2965655511811023
0
LINE
8
BLACK
6
CONTINUOUS
10
0.5827640157480315
20
0.2965655511811023
11
0.5796364173228347
21
0.2996931496062992
0
LINE
8
BLACK
6
CONTINUOUS
10
0.5796364173228347
20
0.2996931496062992
11
0.5785402362204725
21
0.3001771653543307
0
LINE
8
BLACK
6
CONTINUOUS
10
0.5785402362204725
20
0.3001771653543307
11
0.5755902362204725
21
0.3014797244094488
0
LINE
8
BLACK
6
CONTINUOUS
10
0.5755902362204725
20
0.3014797244094488
11
0.5746009842519685
21
0.3015944881889764
0
LINE
8
BLACK
6
CONTINUOUS
10
0.5746009842519685
20
0.3015944881889764
11
0.5728346456692913
21
0.3015944881889764
0
LINE
8
BLACK
6
CONTINUOUS
10
0.5728346456692913
20
0.3015944881889764
11
0.5728346456692913
21
0.2996062992125984
0
LINE
8
BLACK
6
CONTINUOUS
10
0.5728346456692913
20
0.2996062992125984
11
0.5551181102362205
21
0.2996062992125984
0
LINE
8
BLACK
6
CONTINUOUS
10
0.5551181102362205
20
0.2996062992125984
11
0.5551181102362205
21
0.2897637795275591
0
LINE
8
BLACK
6
CONTINUOUS
10
0.5551181102362205
20
0.2897637795275591
11
0.5728346456692913
21
0.2897637795275591
0
LINE
8
BLACK
6
CONTINUOUS
10
0.5728346456692913
20
0.2897637795275591
11
0.5728346456692913
21
0.275984251968504
0
LINE
8
BLACK
6
CONTINUOUS
10
0.5728346456692913
20
0.275984251968504
11
0.5807086614173228
21
0.275984251968504
0
LINE
8
BLACK
6
CONTINUOUS
10
0.5807086614173228
20
0.275984251968504
11
0.5818607874015748
21
0.2758707874015748
0
LINE
8
BLACK
6
CONTINUOUS
10
0.5818607874015748
20
0.2758707874015748
11
0.5827425590551181
21
0.2755055511811024
0
LINE
8
BLACK
6
CONTINUOUS
10
0.5827425590551181
20
0.2755055511811024
11
0.5839895669291338
21
0.2749890157480315
0
LINE
8
BLACK
6
CONTINUOUS
10
0.5839895669291338
20
0.2749890157480315
11
0.5848844881889763
21
0.2742545669291339
0
LINE
8
BLACK
6
CONTINUOUS
10
0.5848844881889763
20
0.2742545669291339
11
0.6544146456692913
21
0.2047244094488189
0
LINE
8
BLACK
6
CONTINUOUS
10
0.6544146456692913
20
0.2047244094488189
11
0.8020927559055118
21
0.2047244094488189
0
LINE
8
BLACK
6
CONTINUOUS
10
0.8020927559055118
20
0.2047244094488189
11
0.8028344094488189
21
0.2060089763779528
0
LINE
8
BLACK
6
CONTINUOUS
10
0.8028344094488189
20
0.2060089763779528
11
0.8050146456692914
21
0.2081892125984252
0
LINE
8
BLACK
6
CONTINUOUS
10
0.8050146456692914
20
0.2081892125984252
11
0.807684842519685
21
0.2097308661417323
0
LINE
8
BLACK
6
CONTINUOUS
10
0.807684842519685
20
0.2097308661417323
11
0.8106630708661418
21
0.2105288582677165
0
LINE
8
BLACK
6
CONTINUOUS
10
0.8106630708661418
20
0.2105288582677165
11
0.8137463779527558
21
0.2105288582677165
0
LINE
8
BLACK
6
CONTINUOUS
10
0.8137463779527558
20
0.2105288582677165
11
0.8167246062992126
21
0.2097308661417323
0
LINE
8
BLACK
6
CONTINUOUS
10
0.8167246062992126
20
0.2097308661417323
11
0.8193948031496063
21
0.2081892125984252
0
LINE
8
BLACK
6
CONTINUOUS
10
0.8193948031496063
20
0.2081892125984252
11
0.8215750393700787
21
0.2060089763779528
0
LINE
8
BLACK
6
CONTINUOUS
10
0.8215750393700787
20
0.2060089763779528
11
0.8231166929133859
21
0.203338779527559
0
LINE
8
BLACK
6
CONTINUOUS
10
0.8231166929133859
20
0.203338779527559
11
0.82391468503937
21
0.2003605511811024
0
LINE
8
BLACK
6
CONTINUOUS
10
0.82391468503937
20
0.2003605511811024
11
0.82391468503937
21
0.1972772440944882
0
LINE
8
BLACK
6
CONTINUOUS
10
0.82391468503937
20
0.1972772440944882
11
0.8231166929133859
21
0.1942990157480315
0
LINE
8
BLACK
6
CONTINUOUS
10
0.8231166929133859
20
0.1942990157480315
11
0.8215750393700787
21
0.1916288188976378
0
LINE
8
BLACK
6
CONTINUOUS
10
0.8215750393700787
20
0.1916288188976378
11
0.8193948031496063
21
0.1894485826771654
0
LINE
8
BLACK
6
CONTINUOUS
10
0.8193948031496063
20
0.1894485826771654
11
0.8167246062992126
21
0.1879069291338583
0
LINE
8
BLACK
6
CONTINUOUS
10
0.8167246062992126
20
0.1879069291338583
11
0.8137463779527558
21
0.187108937007874
0
LINE
8
BLACK
6
CONTINUOUS
10
0.8137463779527558
20
0.187108937007874
11
0.8106630708661418
21
0.187108937007874
0
LINE
8
BLACK
6
CONTINUOUS
10
0.8106630708661418
20
0.187108937007874
11
0.807684842519685
21
0.1879069291338583
0
LINE
8
BLACK
6
CONTINUOUS
10
0.807684842519685
20
0.1879069291338583
11
0.8050146456692914
21
0.1894485826771654
0
LINE
8
BLACK
6
CONTINUOUS
10
0.8050146456692914
20
0.1894485826771654
11
0.8028344094488189
21
0.1916288188976378
0
LINE
8
BLACK
6
CONTINUOUS
10
0.8028344094488189
20
0.1916288188976378
11
0.8020927559055118
21
0.1929133858267716
0
LINE
8
BLACK
6
CONTINUOUS
10
0.8020927559055118
20
0.1929133858267716
11
0.6519685039370079
21
0.1929133858267716
0
LINE
8
BLACK
6
CONTINUOUS
10
0.6519685039370079
20
0.1929133858267716
11
0.6508163779527559
21
0.1930268503937008
0
LINE
8
BLACK
6
CONTINUOUS
10
0.6508163779527559
20
0.1930268503937008
11
0.6497221259842519
21
0.1934801181102362
0
LINE
8
BLACK
6
CONTINUOUS
10
0.6497221259842519
20
0.1934801181102362
11
0.6486875984251969
21
0.1939086220472441
0
LINE
8
BLACK
6
CONTINUOUS
10
0.6486875984251969
20
0.1939086220472441
11
0.6477926771653543
21
0.1946430708661417
0
LINE
8
BLACK
6
CONTINUOUS
10
0.6477926771653543
20
0.1946430708661417
11
0.5782625196850394
21
0.2641732283464567
0
LINE
8
BLACK
6
CONTINUOUS
10
0.5782625196850394
20
0.2641732283464567
11
0.5728346456692913
21
0.2641732283464567
0
LINE
8
BLACK
6
CONTINUOUS
10
0.5728346456692913
20
0.2641732283464567
11
0.5728346456692913
21
0.2503937007874016
0
LINE
8
BLACK
6
CONTINUOUS
10
0.5728346456692913
20
0.2503937007874016
11
0.5137795275590551
21
0.2503937007874016
0
LINE
8
BLACK
6
CONTINUOUS
10
0.5137795275590551
20
0.2503937007874016
11
0.5137795275590551
21
0.2622047244094488
0
LINE
8
BLACK
6
CONTINUOUS
10
0.5137795275590551
20
0.2622047244094488
11
0.4687772047244094
21
0.2622047244094488
0
LINE
8
BLACK
6
CONTINUOUS
10
0.4687772047244094
20
0.2622047244094488
11
0.4664046062992126
21
0.2580952362204724
0
LINE
8
BLACK
6
CONTINUOUS
10
0.4664046062992126
20
0.2580952362204724
11
0.462770905511811
21
0.2544615354330709
0
LINE
8
BLACK
6
CONTINUOUS
10
0.462770905511811
20
0.2544615354330709
11
0.4583205511811024
21
0.251892125984252
0
LINE
8
BLACK
6
CONTINUOUS
10
0.4583205511811024
20
0.251892125984252
11
0.453356811023622
21
0.250562125984252
0
LINE
8
BLACK
6
CONTINUOUS
10
0.453356811023622
20
0.250562125984252
11
0.4507874015748031
21
0.250562125984252
0
LINE
8
BLACK
6
CONTINUOUS
10
0.4507874015748031
20
0.250562125984252
11
0.4507874015748031
21
0.2503937007874016
0
LINE
8
BLACK
6
CONTINUOUS
10
0.4507874015748031
20
0.2503937007874016
11
0.4311023622047244
21
0.2503937007874016
0
LINE
8
BLACK
6
CONTINUOUS
10
0.4311023622047244
20
0.2503937007874016
11
0.4311023622047244
21
0.250562125984252
0
LINE
8
BLACK
6
CONTINUOUS
10
0.4311023622047244
20
0.250562125984252
11
0.4285329527559055
21
0.250562125984252
0
LINE
8
BLACK
6
CONTINUOUS
10
0.4285329527559055
20
0.250562125984252
11
0.4235692125984252
21
0.251892125984252
0
LINE
8
BLACK
6
CONTINUOUS
10
0.4235692125984252
20
0.251892125984252
11
0.4191188582677165
21
0.2544615354330709
0
LINE
8
BLACK
6
CONTINUOUS
10
0.4191188582677165
20
0.2544615354330709
11
0.4154851574803149
21
0.2580952362204724
0
LINE
8
BLACK
6
CONTINUOUS
10
0.4154851574803149
20
0.2580952362204724
11
0.4129157480314961
21
0.2625455905511811
0
LINE
8
BLACK
6
CONTINUOUS
10
0.4129157480314961
20
0.2625455905511811
11
0.4115857480314961
21
0.2675093307086614
0
LINE
8
BLACK
6
CONTINUOUS
10
0.4115857480314961
20
0.2675093307086614
11
0.4115857480314961
21
0.2700787401574803
0
LINE
8
BLACK
6
CONTINUOUS
10
0.4115857480314961
20
0.2700787401574803
11
0.4114173228346457
21
0.2700787401574803
0
LINE
8
BLACK
6
CONTINUOUS
10
0.4114173228346457
20
0.2700787401574803
11
0.4114173228346457
21
0.2897637795275591
0
LINE
8
BLACK
6
CONTINUOUS
10
0.4114173228346457
20
0.2897637795275591
11
0.4704724409448819
21
0.2897637795275591
0
LINE
8
BLACK
6
CONTINUOUS
10
0.4704724409448819
20
0.2897637795275591
11
0.4704724409448819
21
0.2779527559055118
0
LINE
8
BLACK
6
CONTINUOUS
10
0.4704724409448819
20
0.2779527559055118
11
0.5137795275590551
21
0.2779527559055118
0
LINE
8
BLACK
6
CONTINUOUS
10
0.5137795275590551
20
0.2779527559055118
11
0.5137795275590551
21
0.2897637795275591
0
LINE
8
BLACK
6
CONTINUOUS
10
0.5137795275590551
20
0.2897637795275591
11
0.5314960629921259
21
0.2897637795275591
0
LINE
8
BLACK
6
CONTINUOUS
10
0.5314960629921259
20
0.2897637795275591
11
0.5314960629921259
21
0.2996062992125984
0
LINE
8
BLACK
6
CONTINUOUS
10
0.5314960629921259
20
0.2996062992125984
11
0.5137795275590551
21
0.2996062992125984
0
LINE
8
BLACK
6
CONTINUOUS
10
0.5137795275590551
20
0.2996062992125984
11
0.5137795275590551
21
0.3015944881889764
0
LINE
8
BLACK
6
CONTINUOUS
10
0.5137795275590551
20
0.3015944881889764
11
0.5120135039370078
21
0.3015944881889764
0
LINE
8
BLACK
6
CONTINUOUS
10
0.5120135039370078
20
0.3015944881889764
11
0.5120124803149606
21
0.3015944094488189
0
LINE
8
BLACK
6
CONTINUOUS
10
0.5120124803149606
20
0.3015944094488189
11
0.511024094488189
21
0.3014798031496063
0
LINE
8
BLACK
6
CONTINUOUS
10
0.511024094488189
20
0.3014798031496063
11
0.511023937007874
21
0.3014797244094488
0
LINE
8
BLACK
6
CONTINUOUS
10
0.511023937007874
20
0.3014797244094488
11
0.5069777559055118
21
0.2996931889763779
0
LINE
8
BLACK
6
CONTINUOUS
10
0.5069777559055118
20
0.2996931889763779
11
0.5038501574803149
21
0.2965655905511811
0
LINE
8
BLACK
6
CONTINUOUS
10
0.5038501574803149
20
0.2965655905511811
11
0.5021404330708661
21
0.2926934251968504
0
LINE
8
BLACK
6
CONTINUOUS
10
0.5021404330708661
20
0.2926934251968504
11
0.5003653937007874
21
0.2905920078740157
0
LINE
8
BLACK
6
CONTINUOUS
10
0.5003653937007874
20
0.2905920078740157
11
0.4977360236220472
21
0.2897838582677165
0
LINE
8
BLACK
6
CONTINUOUS
10
0.4977360236220472
20
0.2897838582677165
11
0.4976745275590551
21
0.2897834645669291
0
LINE
8
BLACK
6
CONTINUOUS
10
0.4976745275590551
20
0.2897834645669291
11
0.4864454724409449
21
0.2897834645669291
0
LINE
8
BLACK
6
CONTINUOUS
10
0.4864454724409449
20
0.2897834645669291
11
0.4854283858267717
21
0.290082125984252
0
LINE
8
BLACK
6
CONTINUOUS
10
0.4854283858267717
20
0.290082125984252
11
0.4843802362204724
21
0.2902418110236221
0
LINE
8
BLACK
6
CONTINUOUS
10
0.4843802362204724
20
0.2902418110236221
11
0.4841282283464567
21
0.2904638976377953
0
LINE
8
BLACK
6
CONTINUOUS
10
0.4841282283464567
20
0.2904638976377953
11
0.4838061417322835
21
0.2905584645669291
0
LINE
8
BLACK
6
CONTINUOUS
10
0.4838061417322835
20
0.2905584645669291
11
0.4831120472440945
21
0.2913595275590551
0
LINE
8
BLACK
6
CONTINUOUS
10
0.4831120472440945
20
0.2913595275590551
11
0.4823165354330708
21
0.2920605905511811
0
LINE
8
BLACK
6
CONTINUOUS
10
0.4823165354330708
20
0.2920605905511811
11
0.4821165748031496
21
0.2925083070866142
0
LINE
8
BLACK
6
CONTINUOUS
10
0.4821165748031496
20
0.2925083070866142
11
0.4820047637795276
21
0.2926373622047244
0
LINE
8
BLACK
6
CONTINUOUS
10
0.4820047637795276
20
0.2926373622047244
11
0.4817499606299213
21
0.2933293307086614
0
LINE
8
BLACK
6
CONTINUOUS
10
0.4817499606299213
20
0.2933293307086614
11
0.4815315354330709
21
0.2940970078740157
0
LINE
8
BLACK
6
CONTINUOUS
10
0.4815315354330709
20
0.2940970078740157
11
0.4815546062992126
21
0.2968477165354331
0
LINE
8
BLACK
6
CONTINUOUS
10
0.4815546062992126
20
0.2968477165354331
11
0.4816749212598425
21
0.2971968503937008
0
LINE
8
BLACK
6
CONTINUOUS
10
0.4816749212598425
20
0.2971968503937008
11
0.4816875590551181
21
0.2972296062992126
0
LINE
8
BLACK
6
CONTINUOUS
10
0.4816875590551181
20
0.2972296062992126
11
0.4816877952755905
21
0.2972299606299212
0
LINE
8
BLACK
6
CONTINUOUS
10
0.4816877952755905
20
0.2972299606299212
11
0.4825
21
0.3015748031496063
0
LINE
8
BLACK
6
CONTINUOUS
10
0.4825
20
0.3015748031496063
11
0.4825
21
0.3238514173228346
0
LINE
8
BLACK
6
CONTINUOUS
10
0.4825
20
0.3238514173228346
11
0.482090157480315
21
0.3269644488188976
0
LINE
8
BLACK
6
CONTINUOUS
10
0.482090157480315
20
0.3269644488188976
11
0.4812190551181103
21
0.3302153937007874
0
LINE
8
BLACK
6
CONTINUOUS
10
0.4812190551181103
20
0.3302153937007874
11
0.4812844881889763
21
0.3329653149606299
0
LINE
8
BLACK
6
CONTINUOUS
10
0.4812844881889763
20
0.3329653149606299
11
0.4824824803149606
21
0.3349308267716535
0
LINE
8
BLACK
6
CONTINUOUS
10
0.4824824803149606
20
0.3349308267716535
11
0.5047635826771654
21
0.3572118503937008
0
LINE
8
BLACK
6
CONTINUOUS
10
0.5047635826771654
20
0.3572118503937008
11
0.507177874015748
21
0.358530157480315
0
LINE
8
BLACK
6
CONTINUOUS
10
0.507177874015748
20
0.358530157480315
11
0.508215590551181
21
0.3586417322834646
0
LINE
8
BLACK
6
CONTINUOUS
10
0.508215590551181
20
0.3586417322834646
11
0.6361011023622047
21
0.3586417322834646
0
LINE
8
BLACK
6
CONTINUOUS
10
0.6361011023622047
20
0.3586417322834646
11
0.6387404330708661
21
0.3578667322834646
0
LINE
8
BLACK
6
CONTINUOUS
10
0.6387404330708661
20
0.3578667322834646
11
0.6405418110236221
21
0.3557878346456693
0
LINE
8
BLACK
6
CONTINUOUS
10
0.6405418110236221
20
0.3557878346456693
11
0.6409333070866141
21
0.3530650787401575
0
LINE
8
BLACK
6
CONTINUOUS
10
0.6409333070866141
20
0.3530650787401575
11
0.6408167322834646
21
0.352496811023622
0
LINE
8
BLACK
6
CONTINUOUS
10
0.6408167322834646
20
0.352496811023622
11
0.6401377952755906
21
0.349962874015748
0
LINE
8
BLACK
6
CONTINUOUS
10
0.6401377952755906
20
0.349962874015748
11
0.6401377952755906
21
0.3437379133858268
0
LINE
8
BLACK
6
CONTINUOUS
10
0.6401377952755906
20
0.3437379133858268
11
0.641250157480315
21
0.3395866141732283
0
LINE
8
BLACK
6
CONTINUOUS
10
0.641250157480315
20
0.3395866141732283
11
0.6417489370078741
21
0.3377250787401574
0
LINE
8
BLACK
6
CONTINUOUS
10
0.6417489370078741
20
0.3377250787401574
11
0.6417490551181102
21
0.3377248031496063
0
LINE
8
BLACK
6
CONTINUOUS
10
0.6417490551181102
20
0.3377248031496063
11
0.6448612204724409
21
0.3323342913385827
0
LINE
8
BLACK
6
CONTINUOUS
10
0.6448612204724409
20
0.3323342913385827
11
0.6448613779527559
21
0.332334094488189
0
LINE
8
BLACK
6
CONTINUOUS
10
0.6448613779527559
20
0.332334094488189
11
0.6448614173228346
21
0.3323340157480315
0
LINE
8
BLACK
6
CONTINUOUS
10
0.6448614173228346
20
0.3323340157480315
11
0.6492631496062992
21
0.3279322834645669
0
LINE
8
BLACK
6
CONTINUOUS
10
0.6492631496062992
20
0.3279322834645669
11
0.6492632283464567
21
0.3279322440944882
0
LINE
8
BLACK
6
CONTINUOUS
10
0.6492632283464567
20
0.3279322440944882
11
0.6492633858267717
21
0.327932125984252
0
LINE
8
BLACK
6
CONTINUOUS
10
0.6492633858267717
20
0.327932125984252
11
0.6509394881889764
21
0.3269644488188976
0
LINE
8
BLACK
6
CONTINUOUS
10
0.6509394881889764
20
0.3269644488188976
11
0.6546541732283464
21
0.3248198031496063
0
LINE
8
BLACK
6
CONTINUOUS
10
0.6546541732283464
20
0.3248198031496063
11
0.6606670472440944
21
0.3232086614173229
0
LINE
8
BLACK
6
CONTINUOUS
10
0.6606670472440944
20
0.3232086614173229
11
0.6606671259842519
21
0.3232086614173229
0
LINE
8
BLACK
6
CONTINUOUS
10
0.6606671259842519
20
0.3232086614173229
11
0.6668919291338583
21
0.3232086614173229
0
LINE
8
BLACK
6
CONTINUOUS
10
0.6668919291338583
20
0.3232086614173229
11
0.6668920078740157
21
0.3232086614173229
0
LINE
8
BLACK
6
CONTINUOUS
10
0.6668920078740157
20
0.3232086614173229
11
0.6729048818897637
21
0.3248198031496063
0
LINE
8
BLACK
6
CONTINUOUS
10
0.6729048818897637
20
0.3248198031496063
11
0.678295905511811
21
0.3279322834645669
0
LINE
8
BLACK
6
CONTINUOUS
10
0.678295905511811
20
0.3279322834645669
11
0.6782961023622047
21
0.3279325196850393
0
LINE
8
BLACK
6
CONTINUOUS
10
0.6782961023622047
20
0.3279325196850393
11
0.6785213779527559
21
0.3281053149606299
0
LINE
8
BLACK
6
CONTINUOUS
10
0.6785213779527559
20
0.3281053149606299
11
0.6793608267716535
21
0.3284298818897638
0
LINE
8
BLACK
6
CONTINUOUS
10
0.6793608267716535
20
0.3284298818897638
11
0.6801179527559055
21
0.3289164173228347
0
LINE
8
BLACK
6
CONTINUOUS
10
0.6801179527559055
20
0.3289164173228347
11
0.6809162204724409
21
0.3290312204724409
0
LINE
8
BLACK
6
CONTINUOUS
10
0.6809162204724409
20
0.3290312204724409
11
0.6810870866141732
21
0.3290972440944882
0
LINE
8
BLACK
6
CONTINUOUS
10
0.6810870866141732
20
0.3290972440944882
11
0.6814933464566929
21
0.3291141732283465
0
LINE
8
BLACK
6
CONTINUOUS
10
0.6814933464566929
20
0.3291141732283465
11
0.6834080708661417
21
0.3291141732283465
0
LINE
8
BLACK
6
CONTINUOUS
10
0.6834080708661417
20
0.3291141732283465
11
0.6860474015748032
21
0.3283391732283464
0
LINE
8
BLACK
6
CONTINUOUS
10
0.6860474015748032
20
0.3283391732283464
11
0.6878487795275591
21
0.3262602755905512
0
LINE
8
BLACK
6
CONTINUOUS
10
0.6878487795275591
20
0.3262602755905512
11
0.6882402755905511
21
0.3235375196850394
0
LINE
8
BLACK
6
CONTINUOUS
10
0.6882402755905511
20
0.3235375196850394
11
0.6881236614173228
21
0.3229690157480315
0
LINE
8
BLACK
6
CONTINUOUS
10
0.6881236614173228
20
0.3229690157480315
11
0.6873582677165354
21
0.3201124803149606
0
LINE
8
BLACK
6
CONTINUOUS
10
0.6873582677165354
20
0.3201124803149606
11
0.6873582677165354
21
0.3138875196850394
0
LINE
8
BLACK
6
CONTINUOUS
10
0.6873582677165354
20
0.3138875196850394
11
0.688700590551181
21
0.3088779921259843
0
LINE
8
BLACK
6
CONTINUOUS
10
0.688700590551181
20
0.3088779921259843
11
0.6889694094488189
21
0.30787468503937
0
LINE
8
BLACK
6
CONTINUOUS
10
0.6889694094488189
20
0.30787468503937
11
0.6889695275590551
21
0.3078744094488189
0
LINE
8
BLACK
6
CONTINUOUS
10
0.6889695275590551
20
0.3078744094488189
11
0.6920816929133858
21
0.3024838976377953
0
LINE
8
BLACK
6
CONTINUOUS
10
0.6920816929133858
20
0.3024838976377953
11
0.6920818503937007
21
0.3024837007874016
0
LINE
8
BLACK
6
CONTINUOUS
10
0.6920818503937007
20
0.3024837007874016
11
0.6920818897637795
21
0.3024836220472441
0
LINE
8
BLACK
6
CONTINUOUS
10
0.6920818897637795
20
0.3024836220472441
11
0.6964836220472441
21
0.2980818897637795
0
LINE
8
BLACK
6
CONTINUOUS
10
0.6964836220472441
20
0.2980818897637795
11
0.6964837007874015
21
0.2980818503937008
0
LINE
8
BLACK
6
CONTINUOUS
10
0.6964837007874015
20
0.2980818503937008
11
0.6964838582677165
21
0.2980817322834646
0
LINE
8
BLACK
6
CONTINUOUS
10
0.6964838582677165
20
0.2980817322834646
11
0.7016052755905512
21
0.2951249212598425
0
LINE
8
BLACK
6
CONTINUOUS
10
0.7016052755905512
20
0.2951249212598425
11
0.7018746456692914
21
0.2949694094488189
0
LINE
8
BLACK
6
CONTINUOUS
10
0.7018746456692914
20
0.2949694094488189
11
0.7078875196850394
21
0.2933582677165354
0
LINE
8
BLACK
6
CONTINUOUS
10
0.7078875196850394
20
0.2933582677165354
11
0.7078875984251969
21
0.2933582677165354
0
LINE
8
BLACK
6
CONTINUOUS
10
0.7078875984251969
20
0.2933582677165354
11
0.7141124015748032
21
0.2933582677165354
0
LINE
8
BLACK
6
CONTINUOUS
10
0.7141124015748032
20
0.2933582677165354
11
0.7141124803149607
21
0.2933582677165354
0
LINE
8
BLACK
6
CONTINUOUS
10
0.7141124803149607
20
0.2933582677165354
11
0.7201253543307087
21
0.2949694094488189
0
LINE
8
BLACK
6
CONTINUOUS
10
0.7201253543307087
20
0.2949694094488189
11
0.7255163779527559
21
0.2980818897637795
0
LINE
8
BLACK
6
CONTINUOUS
10
0.7255163779527559
20
0.2980818897637795
11
0.7255165748031496
21
0.298082125984252
0
LINE
8
BLACK
6
CONTINUOUS
10
0.7255165748031496
20
0.298082125984252
11
0.7257418503937008
21
0.2982549212598425
0
LINE
8
BLACK
6
CONTINUOUS
10
0.7257418503937008
20
0.2982549212598425
11
0.7283075590551181
21
0.2992468503937008
0
LINE
8
BLACK
6
CONTINUOUS
10
0.7283075590551181
20
0.2992468503937008
11
0.7287138188976378
21
0.2992637795275591
0
LINE
8
BLACK
6
CONTINUOUS
10
0.7287138188976378
20
0.2992637795275591
11
0.8096312992125984
21
0.2992637795275591
0
LINE
8
BLACK
6
CONTINUOUS
10
0.8096312992125984
20
0.2992637795275591
11
0.8122706299212599
21
0.298488779527559
0
LINE
8
BLACK
6
CONTINUOUS
10
0.8122706299212599
20
0.298488779527559
11
0.8130833070866141
21
0.2978338976377953
0
LINE
8
BLACK
6
CONTINUOUS
10
0.8130833070866141
20
0.2978338976377953
11
0.8585898031496063
21
0.2523273622047244
0
LINE
8
BLACK
6
CONTINUOUS
10
0.8585898031496063
20
0.2523273622047244
11
0.8599081102362205
21
0.2499130708661417
0
LINE
8
BLACK
6
CONTINUOUS
10
0.8599081102362205
20
0.2499130708661417
11
0.8600196850393701
21
0.2488753543307086
0
LINE
8
BLACK
6
CONTINUOUS
10
0.8600196850393701
20
0.2488753543307086
11
0.8600196850393701
21
0.2238245669291339
0
LINE
8
BLACK
6
CONTINUOUS
10
0.8600196850393701
20
0.2238245669291339
11
0.8600197637795275
21
0.2238235433070866
0
LINE
8
BLACK
6
CONTINUOUS
10
0.8600197637795275
20
0.2238235433070866
11
0.8601343700787402
21
0.222835157480315
0
LINE
8
BLACK
6
CONTINUOUS
10
0.8601343700787402
20
0.222835157480315
11
0.8601344488188977
21
0.222835
0
LINE
8
BLACK
6
CONTINUOUS
10
0.8601344488188977
20
0.222835
11
0.8619209842519685
21
0.2187888188976378
0
LINE
8
BLACK
6
CONTINUOUS
10
0.8619209842519685
20
0.2187888188976378
11
0.8619210236220473
21
0.218788779527559
0
LINE
8
BLACK
6
CONTINUOUS
10
0.8619210236220473
20
0.218788779527559
11
0.8650486220472441
21
0.2156611811023622
0
LINE
8
BLACK
6
CONTINUOUS
10
0.8650486220472441
20
0.2156611811023622
11
0.8690948425196851
21
0.2138746062992126
0
LINE
8
BLACK
6
CONTINUOUS
10
0.8690948425196851
20
0.2138746062992126
11
0.8700840551181103
21
0.213759842519685
0
LINE
8
BLACK
6
CONTINUOUS
10
0.8700840551181103
20
0.213759842519685
11
0.9596653543307087
21
0.2137598818897638
0
LINE
8
BLACK
6
CONTINUOUS
10
0.9596653543307087
20
0.2137598818897638
11
0.9623046850393701
21
0.2129848818897638
0
LINE
8
BLACK
6
CONTINUOUS
10
0.9623046850393701
20
0.2129848818897638
11
0.964106062992126
21
0.2109060236220472
0
LINE
8
BLACK
6
CONTINUOUS
10
0.964106062992126
20
0.2109060236220472
11
0.9645472440944882
21
0.2088779921259842
0
LINE
8
BLACK
6
CONTINUOUS
10
0.9645472440944882
20
0.2088779921259842
11
0.9645472440944882
21
0.1649606299212598
0
LINE
8
BLACK
6
CONTINUOUS
10
0.9645472440944882
20
0.1649606299212598
11
0.9706692913385827
21
0.1649606299212598
0
LINE
8
BLACK
6
CONTINUOUS
10
0.9706692913385827
20
0.1649606299212598
11
0.9706692913385827
21
0.1255905511811024
0
LINE
8
BLACK
6
CONTINUOUS
10
0.9706692913385827
20
0.1255905511811024
11
0.9645472440944882
21
0.1255905511811024
0
LINE
8
BLACK
6
CONTINUOUS
10
0.9645472440944882
20
0.1255905511811024
11
0.9645472440944882
21
0.0395559448818898
0
LINE
8
BLACK
6
CONTINUOUS
10
0.9645472440944882
20
0.0395559448818898
11
0.9637722440944881
21
0.0369166141732283
0
LINE
8
BLACK
6
CONTINUOUS
10
0.9637722440944881
20
0.0369166141732283
11
0.9616933464566929
21
0.0351152362204724
0
LINE
8
BLACK
6
CONTINUOUS
10
0.9616933464566929
20
0.0351152362204724
11
0.9589705905511811
21
0.0347237401574803
0
LINE
8
BLACK
6
CONTINUOUS
10
0.9589705905511811
20
0.0347237401574803
11
0.9564683858267716
21
0.0358664566929134
0
LINE
8
BLACK
6
CONTINUOUS
10
0.9564683858267716
20
0.0358664566929134
11
0.9554941732283464
21
0.0370194094488189
0
LINE
8
BLACK
6
CONTINUOUS
10
0.9554941732283464
20
0.0370194094488189
11
0.9503216535433071
21
0.0455252755905512
0
LINE
8
BLACK
6
CONTINUOUS
10
0.9503216535433071
20
0.0455252755905512
11
0.9435219291338582
21
0.0538832677165354
0
LINE
8
BLACK
6
CONTINUOUS
10
0.9435219291338582
20
0.0538832677165354
11
0.9356472047244094
21
0.0612377952755905
0
LINE
8
BLACK
6
CONTINUOUS
10
0.9356472047244094
20
0.0612377952755905
11
0.9268450393700787
21
0.0674510236220472
0
LINE
8
BLACK
6
CONTINUOUS
10
0.9268450393700787
20
0.0674510236220472
11
0.9268448031496063
21
0.0674511811023622
0
LINE
8
BLACK
6
CONTINUOUS
10
0.9268448031496063
20
0.0674511811023622
11
0.9172779527559055
21
0.0724083070866142
0
LINE
8
BLACK
6
CONTINUOUS
10
0.9172779527559055
20
0.0724083070866142
11
0.9071257874015748
21
0.0760164173228347
0
LINE
8
BLACK
6
CONTINUOUS
10
0.9071257874015748
20
0.0760164173228347
11
0.907125157480315
21
0.0760166141732283
0
LINE
8
BLACK
6
CONTINUOUS
10
0.907125157480315
20
0.0760166141732283
11
0.8965763779527559
21
0.0782086220472441
0
LINE
8
BLACK
6
CONTINUOUS
10
0.8965763779527559
20
0.0782086220472441
11
0.8965762992125984
21
0.0782086614173228
0
LINE
8
BLACK
6
CONTINUOUS
10
0.8965762992125984
20
0.0782086614173228
11
0.8858267716535433
21
0.0789438976377953
0
LINE
8
BLACK
6
CONTINUOUS
10
0.8858267716535433
20
0.0789438976377953
11
0.8750772047244094
21
0.0782086614173228
0
LINE
8
BLACK
6
CONTINUOUS
10
0.8750772047244094
20
0.0782086614173228
11
0.8750771259842519
21
0.0782086220472441
0
LINE
8
BLACK
6
CONTINUOUS
10
0.8750771259842519
20
0.0782086220472441
11
0.8645283464566929
21
0.0760166141732283
0
LINE
8
BLACK
6
CONTINUOUS
10
0.8645283464566929
20
0.0760166141732283
11
0.864527716535433
21
0.0760164173228347
0
LINE
8
BLACK
6
CONTINUOUS
10
0.864527716535433
20
0.0760164173228347
11
0.8543755511811023
21
0.0724083070866142
0
LINE
8
BLACK
6
CONTINUOUS
10
0.8543755511811023
20
0.0724083070866142
11
0.8448087007874016
21
0.0674511811023622
0
LINE
8
BLACK
6
CONTINUOUS
10
0.8448087007874016
20
0.0674511811023622
11
0.8448084645669292
21
0.0674510236220472
0
LINE
8
BLACK
6
CONTINUOUS
10
0.8448084645669292
20
0.0674510236220472
11
0.8360062992125984
21
0.0612377952755905
0
LINE
8
BLACK
6
CONTINUOUS
10
0.8360062992125984
20
0.0612377952755905
11
0.8281315748031496
21
0.0538832677165354
0
LINE
8
BLACK
6
CONTINUOUS
10
0.8281315748031496
20
0.0538832677165354
11
0.8213318503937008
21
0.0455252755905512
0
LINE
8
BLACK
6
CONTINUOUS
10
0.8213318503937008
20
0.0455252755905512
11
0.8157335826771653
21
0.0363192913385827
0
LINE
8
BLACK
6
CONTINUOUS
10
0.8157335826771653
20
0.0363192913385827
11
0.8114410629921259
21
0.0264368897637795
0
LINE
8
BLACK
6
CONTINUOUS
10
0.8114410629921259
20
0.0264368897637795
11
0.8105536220472441
21
0.0232694881889764
0
LINE
8
BLACK
6
CONTINUOUS
10
0.8105536220472441
20
0.0232694881889764
11
0.8090952755905512
21
0.020937125984252
0
LINE
8
BLACK
6
CONTINUOUS
10
0.8090952755905512
20
0.020937125984252
11
0.8066074803149607
21
0.0197634251968504
0
LINE
8
BLACK
6
CONTINUOUS
10
0.8066074803149607
20
0.0197634251968504
11
0.8058527559055118
21
0.0197047244094488
0
LINE
8
BLACK
6
CONTINUOUS
10
0.8058527559055118
20
0.0197047244094488
11
0.5720999999999999
21
0.0197047244094488
0
LINE
8
BLACK
6
CONTINUOUS
10
0.5720999999999999
20
0.0197047244094488
11
0.5694606692913385
21
0.0204797244094488
0
LINE
8
BLACK
6
CONTINUOUS
10
0.5694606692913385
20
0.0204797244094488
11
0.5676592913385826
21
0.0225586220472441
0
LINE
8
BLACK
6
CONTINUOUS
10
0.5676592913385826
20
0.0225586220472441
11
0.5673991338582677
21
0.0232694881889764
0
LINE
8
BLACK
6
CONTINUOUS
10
0.5673991338582677
20
0.0232694881889764
11
0.5665117322834645
21
0.0264366929133858
0
LINE
8
BLACK
6
CONTINUOUS
10
0.5665117322834645
20
0.0264366929133858
11
0.562219094488189
21
0.0363192913385827
0
LINE
8
BLACK
6
CONTINUOUS
10
0.562219094488189
20
0.0363192913385827
11
0.5622191338582677
21
0.0363192913385827
0
LINE
8
BLACK
6
CONTINUOUS
10
0.5622191338582677
20
0.0363192913385827
11
0.5566208661417322
21
0.0455252755905512
0
LINE
8
BLACK
6
CONTINUOUS
10
0.5566208661417322
20
0.0455252755905512
11
0.5498211417322835
21
0.0538832677165354
0
LINE
8
BLACK
6
CONTINUOUS
10
0.5498211417322835
20
0.0538832677165354
11
0.5419464173228347
21
0.0612377952755905
0
LINE
8
BLACK
6
CONTINUOUS
10
0.5419464173228347
20
0.0612377952755905
11
0.5331442519685039
21
0.0674510236220472
0
LINE
8
BLACK
6
CONTINUOUS
10
0.5331442519685039
20
0.0674510236220472
11
0.5331440157480315
21
0.0674511811023622
0
LINE
8
BLACK
6
CONTINUOUS
10
0.5331440157480315
20
0.0674511811023622
11
0.5235771653543307
21
0.0724083070866142
0
LINE
8
BLACK
6
CONTINUOUS
10
0.5235771653543307
20
0.0724083070866142
11
0.513425
21
0.0760164173228347
0
LINE
8
BLACK
6
CONTINUOUS
10
0.513425
20
0.0760164173228347
11
0.5134243700787402
21
0.0760166141732283
0
LINE
8
BLACK
6
CONTINUOUS
10
0.5134243700787402
20
0.0760166141732283
11
0.5028755905511811
21
0.0782086220472441
0
LINE
8
BLACK
6
CONTINUOUS
10
0.5028755905511811
20
0.0782086220472441
11
0.5028755118110236
21
0.0782086614173228
0
LINE
8
BLACK
6
CONTINUOUS
10
0.5028755118110236
20
0.0782086614173228
11
0.4921259842519685
21
0.0789438976377953
0
LINE
8
BLACK
6
CONTINUOUS
10
0.4921259842519685
20
0.0789438976377953
11
0.4813764173228346
21
0.0782086614173228
0
LINE
8
BLACK
6
CONTINUOUS
10
0.4813764173228346
20
0.0782086614173228
11
0.4813763385826771
21
0.0782086220472441
0
LINE
8
BLACK
6
CONTINUOUS
10
0.4813763385826771
20
0.0782086220472441
11
0.4708275590551181
21
0.0760166141732283
0
LINE
8
BLACK
6
CONTINUOUS
10
0.4708275590551181
20
0.0760166141732283
11
0.4708269291338583
21
0.0760164173228347
0
LINE
8
BLACK
6
CONTINUOUS
10
0.4708269291338583
20
0.0760164173228347
11
0.4606747637795275
21
0.0724083070866142
0
LINE
8
BLACK
6
CONTINUOUS
10
0.4606747637795275
20
0.0724083070866142
11
0.4511079133858268
21
0.0674511811023622
0
LINE
8
BLACK
6
CONTINUOUS
10
0.4511079133858268
20
0.0674511811023622
11
0.4511076771653543
21
0.0674510236220472
0
LINE
8
BLACK
6
CONTINUOUS
10
0.4511076771653543
20
0.0674510236220472
11
0.4423055118110236
21
0.0612377952755905
0
LINE
8
BLACK
6
CONTINUOUS
10
0.4423055118110236
20
0.0612377952755905
11
0.4344307874015748
21
0.0538832677165354
0
LINE
8
BLACK
6
CONTINUOUS
10
0.4344307874015748
20
0.0538832677165354
11
0.427631062992126
21
0.0455252755905512
0
LINE
8
BLACK
6
CONTINUOUS
10
0.427631062992126
20
0.0455252755905512
11
0.4220327952755906
21
0.0363192913385827
0
LINE
8
BLACK
6
CONTINUOUS
10
0.4220327952755906
20
0.0363192913385827
11
0.4177402755905512
21
0.0264368897637795
0
LINE
8
BLACK
6
CONTINUOUS
10
0.4177402755905512
20
0.0264368897637795
11
0.4168528346456693
21
0.0232694881889764
0
LINE
8
BLACK
6
CONTINUOUS
10
0.4168528346456693
20
0.0232694881889764
11
0.4153944881889763
21
0.020937125984252
0
LINE
8
BLACK
6
CONTINUOUS
10
0.4153944881889763
20
0.020937125984252
11
0.4129066929133858
21
0.0197634251968504
0
LINE
8
BLACK
6
CONTINUOUS
10
0.4129066929133858
20
0.0197634251968504
11
0.412151968503937
21
0.0197047244094488
0
LINE
8
BLACK
6
CONTINUOUS
10
0.412151968503937
20
0.0197047244094488
11
0.1783992125984252
21
0.0197047244094488
0
LINE
8
BLACK
6
CONTINUOUS
10
0.1783992125984252
20
0.0197047244094488
11
0.1757598818897638
21
0.0204797244094488
0
LINE
8
BLACK
6
CONTINUOUS
10
0.1757598818897638
20
0.0204797244094488
11
0.1739585039370079
21
0.0225586220472441
0
LINE
8
BLACK
6
CONTINUOUS
10
0.1739585039370079
20
0.0225586220472441
11
0.1736983464566929
21
0.0232694881889764
0
LINE
8
BLACK
6
CONTINUOUS
10
0.1736983464566929
20
0.0232694881889764
11
0.1728109448818897
21
0.0264366929133858
0
LINE
8
BLACK
6
CONTINUOUS
10
0.1728109448818897
20
0.0264366929133858
11
0.1685183070866142
21
0.0363192913385827
0
LINE
8
BLACK
6
CONTINUOUS
10
0.1685183070866142
20
0.0363192913385827
11
0.1685183464566929
21
0.0363192913385827
0
LINE
8
BLACK
6
CONTINUOUS
10
0.1685183464566929
20
0.0363192913385827
11
0.1629200787401575
21
0.0455252755905512
0
LINE
8
BLACK
6
CONTINUOUS
10
0.1629200787401575
20
0.0455252755905512
11
0.1561203543307087
21
0.0538832677165354
0
LINE
8
BLACK
6
CONTINUOUS
10
0.1561203543307087
20
0.0538832677165354
11
0.1482456299212598
21
0.0612377952755905
0
LINE
8
BLACK
6
CONTINUOUS
10
0.1482456299212598
20
0.0612377952755905
11
0.1394434645669291
21
0.0674510236220472
0
LINE
8
BLACK
6
CONTINUOUS
10
0.1394434645669291
20
0.0674510236220472
11
0.1394432283464567
21
0.0674511811023622
0
LINE
8
BLACK
6
CONTINUOUS
10
0.1394432283464567
20
0.0674511811023622
11
0.1298763779527559
21
0.0724083070866142
0
LINE
8
BLACK
6
CONTINUOUS
10
0.1298763779527559
20
0.0724083070866142
11
0.1197242125984252
21
0.0760164173228347
0
LINE
8
BLACK
6
CONTINUOUS
10
0.1197242125984252
20
0.0760164173228347
11
0.1197235826771653
21
0.0760166141732283
0
LINE
8
BLACK
6
CONTINUOUS
10
0.1197235826771653
20
0.0760166141732283
11
0.1091748031496063
21
0.0782086220472441
0
LINE
8
BLACK
6
CONTINUOUS
10
0.1091748031496063
20
0.0782086220472441
11
0.1091747244094488
21
0.0782086614173228
0
LINE
8
BLACK
6
CONTINUOUS
10
0.1091747244094488
20
0.0782086614173228
11
0.0984251968503937
21
0.0789438976377953
0
LINE
8
BLACK
6
CONTINUOUS
10
0.0984251968503937
20
0.0789438976377953
11
0.0876756299212598
21
0.0782086614173228
0
LINE
8
BLACK
6
CONTINUOUS
10
0.0876756299212598
20
0.0782086614173228
11
0.0876755511811024
21
0.0782086220472441
0
LINE
8
BLACK
6
CONTINUOUS
10
0.0876755511811024
20
0.0782086220472441
11
0.0771267716535433
21
0.0760166141732283
0
LINE
8
BLACK
6
CONTINUOUS
10
0.0771267716535433
20
0.0760166141732283
11
0.0771261417322835
21
0.0760164173228347
0
LINE
8
BLACK
6
CONTINUOUS
10
0.0771261417322835
20
0.0760164173228347
11
0.0669739763779528
21
0.0724083070866142
0
LINE
8
BLACK
6
CONTINUOUS
10
0.0669739763779528
20
0.0724083070866142
11
0.057407125984252
21
0.0674511811023622
0
LINE
8
BLACK
6
CONTINUOUS
10
0.057407125984252
20
0.0674511811023622
11
0.0574068897637795
21
0.0674510236220472
0
LINE
8
BLACK
6
CONTINUOUS
10
0.0574068897637795
20
0.0674510236220472
11
0.0486047244094488
21
0.0612377952755905
0
LINE
8
BLACK
6
CONTINUOUS
10
0.0486047244094488
20
0.0612377952755905
11
0.04073
21
0.0538832677165354
0
LINE
8
BLACK
6
CONTINUOUS
10
0.04073
20
0.0538832677165354
11
0.0339302755905512
21
0.0455252755905512
0
LINE
8
BLACK
6
CONTINUOUS
10
0.0339302755905512
20
0.0455252755905512
11
0.0287577952755905
21
0.0370194094488189
0
LINE
8
BLACK
6
CONTINUOUS
10
0.0287577952755905
20
0.0370194094488189
11
0.0267242913385827
21
0.035166968503937
0
LINE
8
BLACK
6
CONTINUOUS
10
0.0267242913385827
20
0.035166968503937
11
0.0240120472440945
21
0.0347079921259843
0
LINE
8
BLACK
6
CONTINUOUS
10
0.0240120472440945
20
0.0347079921259843
11
0.0214822834645669
21
0.0357881889763779
0
LINE
8
BLACK
6
CONTINUOUS
10
0.0214822834645669
20
0.0357881889763779
11
0.0199380708661417
21
0.0380646456692913
0
LINE
8
BLACK
6
CONTINUOUS
10
0.0199380708661417
20
0.0380646456692913
11
0.0197047244094488
21
0.0395559448818898
0
LINE
8
BLACK
6
CONTINUOUS
10
0.0197047244094488
20
0.0395559448818898
11
0.0197047244094488
21
0.1291288976377953
0
LINE
8
BLACK
6
CONTINUOUS
10
0.0197047244094488
20
0.1291288976377953
11
0.0169027165354331
21
0.1296862204724409
0
LINE
8
BLACK
6
CONTINUOUS
10
0.0169027165354331
20
0.1296862204724409
11
0.0137095669291339
21
0.1318198031496063
0
LINE
8
BLACK
6
CONTINUOUS
10
0.0137095669291339
20
0.1318198031496063
11
0.0115759842519685
21
0.1350129527559055
0
LINE
8
BLACK
6
CONTINUOUS
10
0.0115759842519685
20
0.1350129527559055
11
0.0108267716535433
21
0.1387795275590551
0
LINE
8
BLACK
6
CONTINUOUS
10
0.0108267716535433
20
0.1387795275590551
11
0.0108267716535433
21
0.1584645669291339
0
LINE
8
BLACK
6
CONTINUOUS
10
0.0108267716535433
20
0.1584645669291339
11
0.0115759842519685
21
0.1622311417322835
0
LINE
8
BLACK
6
CONTINUOUS
10
0.0115759842519685
20
0.1622311417322835
11
0.0137095669291339
21
0.1654242913385827
0
LINE
8
BLACK
6
CONTINUOUS
10
0.0137095669291339
20
0.1654242913385827
11
0.0169027165354331
21
0.167557874015748
0
LINE
8
BLACK
6
CONTINUOUS
10
0.0169027165354331
20
0.167557874015748
11
0.0197047244094488
21
0.1681152362204724
0
LINE
8
BLACK
6
CONTINUOUS
10
0.0197047244094488
20
0.1681152362204724
11
0.0197047244094488
21
0.4224359842519685
0
LINE
8
BLACK
6
CONTINUOUS
10
0.0197047244094488
20
0.4224359842519685
11
0.0169027165354331
21
0.4229933070866141
0
LINE
8
BLACK
6
CONTINUOUS
10
0.0169027165354331
20
0.4229933070866141
11
0.0137095669291339
21
0.4251268897637795
0
LINE
8
BLACK
6
CONTINUOUS
10
0.0137095669291339
20
0.4251268897637795
11
0.0115759842519685
21
0.4283200393700787
0
LINE
8
BLACK
6
CONTINUOUS
10
0.0115759842519685
20
0.4283200393700787
11
0.0108267716535433
21
0.4320866141732284
0
LINE
8
BLACK
6
CONTINUOUS
10
0.0108267716535433
20
0.4320866141732284
11
0.0108267716535433
21
0.4517716535433071
0
LINE
8
BLACK
6
CONTINUOUS
10
0.0108267716535433
20
0.4517716535433071
11
0.0115759842519685
21
0.4555382283464567
0
LINE
8
BLACK
6
CONTINUOUS
10
0.0115759842519685
20
0.4555382283464567
11
0.0137095669291339
21
0.4587313779527559
0
LINE
8
BLACK
6
CONTINUOUS
10
0.0137095669291339
20
0.4587313779527559
11
0.0169027165354331
21
0.4608649606299213
0
LINE
8
BLACK
6
CONTINUOUS
10
0.0169027165354331
20
0.4608649606299213
11
0.0197047244094488
21
0.4614223228346457
0
LINE
8
BLACK
6
CONTINUOUS
10
0.0197047244094488
20
0.4614223228346457
11
0.0197047244094488
21
0.5509952755905512
0
LINE
8
BLACK
6
CONTINUOUS
10
0.0197047244094488
20
0.5509952755905512
11
0.0204797244094488
21
0.5536346062992126
0
LINE
8
BLACK
6
CONTINUOUS
10
0.0204797244094488
20
0.5536346062992126
11
0.0225586220472441
21
0.5554359842519685
0
LINE
8
BLACK
6
CONTINUOUS
10
0.0225586220472441
20
0.5554359842519685
11
0.0252813779527559
21
0.5558274803149607
0
LINE
8
BLACK
6
CONTINUOUS
10
0.0252813779527559
20
0.5558274803149607
11
0.0277835826771654
21
0.5546847637795276
0
LINE
8
BLACK
6
CONTINUOUS
10
0.0277835826771654
20
0.5546847637795276
11
0.0287577952755905
21
0.553531811023622
0
LINE
8
BLACK
6
CONTINUOUS
10
0.0287577952755905
20
0.553531811023622
11
0.0339302755905512
21
0.5450259448818897
0
LINE
8
BLACK
6
CONTINUOUS
10
0.0339302755905512
20
0.5450259448818897
11
0.04073
21
0.5366679527559055
0
LINE
8
BLACK
6
CONTINUOUS
10
0.04073
20
0.5366679527559055
11
0.0486047244094488
21
0.5293134251968504
0
LINE
8
BLACK
6
CONTINUOUS
10
0.0486047244094488
20
0.5293134251968504
11
0.0574068897637795
21
0.5231001968503937
0
LINE
8
BLACK
6
CONTINUOUS
10
0.0574068897637795
20
0.5231001968503937
11
0.057407125984252
21
0.5231000393700788
0
LINE
8
BLACK
6
CONTINUOUS
10
0.057407125984252
20
0.5231000393700788
11
0.0574072047244094
21
0.5231
0
LINE
8
BLACK
6
CONTINUOUS
10
0.0574072047244094
20
0.5231
11
0.0669738582677165
21
0.5181429527559055
0
LINE
8
BLACK
6
CONTINUOUS
10
0.0669738582677165
20
0.5181429527559055
11
0.0669739763779528
21
0.5181429133858267
0
LINE
8
BLACK
6
CONTINUOUS
10
0.0669739763779528
20
0.5181429133858267
11
0.0771261417322835
21
0.5145348031496063
0
LINE
8
BLACK
6
CONTINUOUS
10
0.0771261417322835
20
0.5145348031496063
11
0.0771267716535433
21
0.5145346062992125
0
LINE
8
BLACK
6
CONTINUOUS
10
0.0771267716535433
20
0.5145346062992125
11
0.0846163385826772
21
0.5129783070866142
0
LINE
8
BLACK
6
CONTINUOUS
10
0.0846163385826772
20
0.5129783070866142
11
0.0876755905511811
21
0.5123425984251968
0
LINE
8
BLACK
6
CONTINUOUS
10
0.0876755905511811
20
0.5123425984251968
11
0.0876756299212598
21
0.5123425590551181
0
LINE
8
BLACK
6
CONTINUOUS
10
0.0876756299212598
20
0.5123425590551181
11
0.0883638188976378
21
0.5122955118110236
0
LINE
8
BLACK
6
CONTINUOUS
10
0.0883638188976378
20
0.5122955118110236
11
0.0984251968503937
21
0.511607283464567
0
LINE
8
BLACK
6
CONTINUOUS
10
0.0984251968503937
20
0.511607283464567
11
0.1091747244094488
21
0.5123425590551181
0
LINE
8
BLACK
6
CONTINUOUS
10
0.1091747244094488
20
0.5123425590551181
11
0.1139220472440945
21
0.513329094488189
0
LINE
8
BLACK
6
CONTINUOUS
10
0.1139220472440945
20
0.513329094488189
11
0.1197235826771653
21
0.5145346062992125
0
LINE
8
BLACK
6
CONTINUOUS
10
0.1197235826771653
20
0.5145346062992125
11
0.1197238188976378
21
0.5145347244094488
0
LINE
8
BLACK
6
CONTINUOUS
10
0.1197238188976378
20
0.5145347244094488
11
0.1197240157480315
21
0.5145347244094488
0
LINE
8
BLACK
6
CONTINUOUS
10
0.1197240157480315
20
0.5145347244094488
11
0.1298765354330709
21
0.5181429527559055
0
LINE
8
BLACK
6
CONTINUOUS
10
0.1298765354330709
20
0.5181429527559055
11
0.1394431889763779
21
0.5231
0
LINE
8
BLACK
6
CONTINUOUS
10
0.1394431889763779
20
0.5231
11
0.1482457480314961
21
0.5293135039370078
0
LINE
8
BLACK
6
CONTINUOUS
10
0.1482457480314961
20
0.5293135039370078
11
0.1561202362204724
21
0.5366677952755905
0
LINE
8
BLACK
6
CONTINUOUS
10
0.1561202362204724
20
0.5366677952755905
11
0.16292
21
0.5450257874015748
0
LINE
8
BLACK
6
CONTINUOUS
10
0.16292
20
0.5450257874015748
11
0.1685183070866142
21
0.5542318503937008
0
LINE
8
BLACK
6
CONTINUOUS
10
0.1685183070866142
20
0.5542318503937008
11
0.1687490551181102
21
0.554763031496063
0
LINE
8
BLACK
6
CONTINUOUS
10
0.1687490551181102
20
0.554763031496063
11
0.1728108661417323
21
0.5641143307086613
0
LINE
8
BLACK
6
CONTINUOUS
10
0.1728108661417323
20
0.5641143307086613
11
0.1728109448818897
21
0.5641144881889764
0
LINE
8
BLACK
6
CONTINUOUS
10
0.1728109448818897
20
0.5641144881889764
11
0.1736983464566929
21
0.5672817322834646
0
LINE
8
BLACK
6
CONTINUOUS
10
0.1736983464566929
20
0.5672817322834646
11
0.1751566929133858
21
0.5696140551181103
0
LINE
8
BLACK
6
CONTINUOUS
10
0.1751566929133858
20
0.5696140551181103
11
0.1776444881889764
21
0.5707877559055118
0
LINE
8
BLACK
6
CONTINUOUS
10
0.1776444881889764
20
0.5707877559055118
11
0.1783992125984252
21
0.5708464566929133
0
LINE
8
BLACK
6
CONTINUOUS
10
0.1783992125984252
20
0.5708464566929133
11
0.412151968503937
21
0.5708464566929133
0
LINE
8
BLACK
6
CONTINUOUS
10
0.412151968503937
20
0.5708464566929133
11
0.4147912992125984
21
0.5700714566929134
0
LINE
8
BLACK
6
CONTINUOUS
10
0.7744206692913386
20
0.1679897637795276
11
0.781551062992126
21
0.1650362598425197
0
LINE
8
BLACK
6
CONTINUOUS
10
0.781551062992126
20
0.1650362598425197
11
0.7879682283464566
21
0.1607484251968504
0
LINE
8
BLACK
6
CONTINUOUS
10
0.7879682283464566
20
0.1607484251968504
11
0.7934255905511811
21
0.155291062992126
0
LINE
8
BLACK
6
CONTINUOUS
10
0.7934255905511811
20
0.155291062992126
11
0.7977134251968504
21
0.1488738976377953
0
LINE
8
BLACK
6
CONTINUOUS
10
0.7977134251968504
20
0.1488738976377953
11
0.8006669291338583
21
0.1417435039370079
0
LINE
8
BLACK
6
CONTINUOUS
10
0.8006669291338583
20
0.1417435039370079
11
0.8021726377952756
21
0.1341738976377953
0
LINE
8
BLACK
6
CONTINUOUS
10
0.8021726377952756
20
0.1341738976377953
11
0.8021726377952756
21
0.1264560236220472
0
LINE
8
BLACK
6
CONTINUOUS
10
0.8021726377952756
20
0.1264560236220472
11
0.8006669291338583
21
0.1188864173228346
0
LINE
8
BLACK
6
CONTINUOUS
10
0.8006669291338583
20
0.1188864173228346
11
0.7977134251968504
21
0.1117560236220472
0
LINE
8
BLACK
6
CONTINUOUS
10
0.7977134251968504
20
0.1117560236220472
11
0.7934255905511811
21
0.1053388582677165
0
LINE
8
BLACK
6
CONTINUOUS
10
0.7934255905511811
20
0.1053388582677165
11
0.7879682283464566
21
0.0998814960629921
0
LINE
8
BLACK
6
CONTINUOUS
10
0.7879682283464566
20
0.0998814960629921
11
0.781551062992126
21
0.0955936614173228
0
LINE
8
BLACK
6
CONTINUOUS
10
0.781551062992126
20
0.0955936614173228
11
0.7744206692913386
21
0.092640157480315
0
LINE
8
BLACK
6
CONTINUOUS
10
0.7744206692913386
20
0.092640157480315
11
0.766851062992126
21
0.0911344488188976
0
LINE
8
BLACK
6
CONTINUOUS
10
0.766851062992126
20
0.0911344488188976
11
0.7591331889763779
21
0.0911344488188976
0
LINE
8
BLACK
6
CONTINUOUS
10
0.7591331889763779
20
0.0911344488188976
11
0.7515635826771654
21
0.092640157480315
0
LINE
8
BLACK
6
CONTINUOUS
10
0.7515635826771654
20
0.092640157480315
11
0.7444331889763779
21
0.0955936614173228
0
LINE
8
BLACK
6
CONTINUOUS
10
0.7444331889763779
20
0.0955936614173228
11
0.7380160236220472
21
0.0998814960629921
0
LINE
8
BLACK
6
CONTINUOUS
10
0.7380160236220472
20
0.0998814960629921
11
0.7325586614173228
21
0.1053388582677165
0
LINE
8
BLACK
6
CONTINUOUS
10
0.7325586614173228
20
0.1053388582677165
11
0.7282708267716536
21
0.1117560236220472
0
LINE
8
BLACK
6
CONTINUOUS
10
0.7282708267716536
20
0.1117560236220472
11
0.7253173228346457
21
0.1188864173228346
0
LINE
8
BLACK
6
CONTINUOUS
10
0.7253173228346457
20
0.1188864173228346
11
0.7238116141732284
21
0.1264560236220472
0
LINE
8
BLACK
6
CONTINUOUS
10
0.7238116141732284
20
0.1264560236220472
11
0.7238116141732284
21
0.1341738976377953
0
LINE
8
BLACK
6
CONTINUOUS
10
0.7238116141732284
20
0.1341738976377953
11
0.7253173228346457
21
0.1417435039370079
0
LINE
8
BLACK
6
CONTINUOUS
10
0.7253173228346457
20
0.1417435039370079
11
0.7282708267716536
21
0.1488738976377953
0
LINE
8
BLACK
6
CONTINUOUS
10
0.7282708267716536
20
0.1488738976377953
11
0.7325586614173228
21
0.155291062992126
0
LINE
8
BLACK
6
CONTINUOUS
10
0.7325586614173228
20
0.155291062992126
11
0.7380160236220472
21
0.1607484251968504
0
LINE
8
BLACK
6
CONTINUOUS
10
0.7380160236220472
20
0.1607484251968504
11
0.7444331889763779
21
0.1650362598425197
0
LINE
8
BLACK
6
CONTINUOUS
10
0.7444331889763779
20
0.1650362598425197
11
0.7515635826771654
21
0.1679897637795276
0
LINE
8
BLACK
6
CONTINUOUS
10
0.7515635826771654
20
0.1679897637795276
11
0.7591331889763779
21
0.1694954724409449
0
LINE
8
BLACK
6
CONTINUOUS
10
0.7591331889763779
20
0.1694954724409449
11
0.766851062992126
21
0.1694954724409449
0
LINE
8
BLACK
6
CONTINUOUS
10
0.766851062992126
20
0.1694954724409449
11
0.7744206692913386
21
0.1679897637795276
0
LINE
8
BLACK
6
CONTINUOUS
10
0.5728346456692913
20
0.2188976377952756
11
0.572666220472441
21
0.2188976377952756
0
LINE
8
BLACK
6
CONTINUOUS
10
0.572666220472441
20
0.2188976377952756
11
0.572666220472441
21
0.2163282283464567
0
LINE
8
BLACK
6
CONTINUOUS
10
0.572666220472441
20
0.2163282283464567
11
0.5713362204724409
21
0.2113644881889764
0
LINE
8
BLACK
6
CONTINUOUS
10
0.5713362204724409
20
0.2113644881889764
11
0.568766811023622
21
0.2069141338582677
0
LINE
8
BLACK
6
CONTINUOUS
10
0.568766811023622
20
0.2069141338582677
11
0.5651331102362205
21
0.2032804330708661
0
LINE
8
BLACK
6
CONTINUOUS
10
0.5651331102362205
20
0.2032804330708661
11
0.5606827559055118
21
0.2007110236220472
0
LINE
8
BLACK
6
CONTINUOUS
10
0.5606827559055118
20
0.2007110236220472
11
0.5557190157480315
21
0.1993810236220472
0
LINE
8
BLACK
6
CONTINUOUS
10
0.5557190157480315
20
0.1993810236220472
11
0.5531496062992126
21
0.1993810236220472
0
LINE
8
BLACK
6
CONTINUOUS
10
0.5531496062992126
20
0.1993810236220472
11
0.5531496062992126
21
0.1992125984251968
0
LINE
8
BLACK
6
CONTINUOUS
10
0.5531496062992126
20
0.1992125984251968
11
0.5507874015748031
21
0.1992125984251968
0
LINE
8
BLACK
6
CONTINUOUS
10
0.5507874015748031
20
0.1992125984251968
11
0.5507874015748031
21
0.1678133464566929
0
LINE
8
BLACK
6
CONTINUOUS
10
0.5507874015748031
20
0.1678133464566929
11
0.5525001968503936
21
0.1668244488188976
0
LINE
8
BLACK
6
CONTINUOUS
10
0.5525001968503936
20
0.1668244488188976
11
0.5554071259842519
21
0.1639175196850394
0
LINE
8
BLACK
6
CONTINUOUS
10
0.5554071259842519
20
0.1639175196850394
11
0.5574626771653544
21
0.1603572047244095
0
LINE
8
BLACK
6
CONTINUOUS
10
0.5574626771653544
20
0.1603572047244095
11
0.5585266929133859
21
0.1563862204724409
0
LINE
8
BLACK
6
CONTINUOUS
10
0.5585266929133859
20
0.1563862204724409
11
0.5585266929133859
21
0.1522751968503937
0
LINE
8
BLACK
6
CONTINUOUS
10
0.5585266929133859
20
0.1522751968503937
11
0.5574626771653544
21
0.1483042125984252
0
LINE
8
BLACK
6
CONTINUOUS
10
0.5574626771653544
20
0.1483042125984252
11
0.5554071259842519
21
0.1447438976377953
0
LINE
8
BLACK
6
CONTINUOUS
10
0.5554071259842519
20
0.1447438976377953
11
0.5525001968503936
21
0.141836968503937
0
LINE
8
BLACK
6
CONTINUOUS
10
0.5525001968503936
20
0.141836968503937
11
0.5489398818897637
21
0.1397814173228346
0
LINE
8
BLACK
6
CONTINUOUS
10
0.5489398818897637
20
0.1397814173228346
11
0.5449688976377952
21
0.1387174015748031
0
LINE
8
BLACK
6
CONTINUOUS
10
0.5449688976377952
20
0.1387174015748031
11
0.540857874015748
21
0.1387174015748031
0
LINE
8
BLACK
6
CONTINUOUS
10
0.540857874015748
20
0.1387174015748031
11
0.5368868897637795
21
0.1397814173228346
0
LINE
8
BLACK
6
CONTINUOUS
10
0.5368868897637795
20
0.1397814173228346
11
0.5333265748031496
21
0.141836968503937
0
LINE
8
BLACK
6
CONTINUOUS
10
0.5333265748031496
20
0.141836968503937
11
0.5304196456692913
21
0.1447438976377953
0
LINE
8
BLACK
6
CONTINUOUS
10
0.5304196456692913
20
0.1447438976377953
11
0.528364094488189
21
0.1483042125984252
0
LINE
8
BLACK
6
CONTINUOUS
10
0.528364094488189
20
0.1483042125984252
11
0.5273000787401575
21
0.1522751968503937
0
LINE
8
BLACK
6
CONTINUOUS
10
0.5273000787401575
20
0.1522751968503937
11
0.5273000787401575
21
0.1563862204724409
0
LINE
8
BLACK
6
CONTINUOUS
10
0.5273000787401575
20
0.1563862204724409
11
0.528364094488189
21
0.1603572047244095
0
LINE
8
BLACK
6
CONTINUOUS
10
0.528364094488189
20
0.1603572047244095
11
0.5304196456692913
21
0.1639175196850394
0
LINE
8
BLACK
6
CONTINUOUS
10
0.5304196456692913
20
0.1639175196850394
11
0.5333265748031496
21
0.1668244488188976
0
LINE
8
BLACK
6
CONTINUOUS
10
0.5333265748031496
20
0.1668244488188976
11
0.5350393700787401
21
0.1678133464566929
0
LINE
8
BLACK
6
CONTINUOUS
10
0.5350393700787401
20
0.1678133464566929
11
0.5350393700787401
21
0.1992125984251968
0
LINE
8
BLACK
6
CONTINUOUS
10
0.5350393700787401
20
0.1992125984251968
11
0.5334645669291338
21
0.1992125984251968
0
LINE
8
BLACK
6
CONTINUOUS
10
0.5334645669291338
20
0.1992125984251968
11
0.5334645669291338
21
0.1993810236220472
0
LINE
8
BLACK
6
CONTINUOUS
10
0.5334645669291338
20
0.1993810236220472
11
0.5308951574803149
21
0.1993810236220472
0
LINE
8
BLACK
6
CONTINUOUS
10
0.5308951574803149
20
0.1993810236220472
11
0.5259314173228347
21
0.2007110236220472
0
LINE
8
BLACK
6
CONTINUOUS
10
0.5259314173228347
20
0.2007110236220472
11
0.5214810629921259
21
0.2032804330708661
0
LINE
8
BLACK
6
CONTINUOUS
10
0.5214810629921259
20
0.2032804330708661
11
0.5178473622047244
21
0.2069141338582677
0
LINE
8
BLACK
6
CONTINUOUS
10
0.5178473622047244
20
0.2069141338582677
11
0.5152779527559055
21
0.2113644881889764
0
LINE
8
BLACK
6
CONTINUOUS
10
0.5152779527559055
20
0.2113644881889764
11
0.5139479527559055
21
0.2163282283464567
0
LINE
8
BLACK
6
CONTINUOUS
10
0.5139479527559055
20
0.2163282283464567
11
0.5139479527559055
21
0.2188976377952756
0
LINE
8
BLACK
6
CONTINUOUS
10
0.5139479527559055
20
0.2188976377952756
11
0.5137795275590551
21
0.2188976377952756
0
LINE
8
BLACK
6
CONTINUOUS
10
0.5137795275590551
20
0.2188976377952756
11
0.5137795275590551
21
0.2405511811023622
0
LINE
8
BLACK
6
CONTINUOUS
10
0.5137795275590551
20
0.2405511811023622
11
0.5728346456692913
21
0.2405511811023622
0
LINE
8
BLACK
6
CONTINUOUS
10
0.5728346456692913
20
0.2405511811023622
11
0.5728346456692913
21
0.2188976377952756
0
LINE
8
BLACK
6
CONTINUOUS
10
0.1290579921259843
20
0.3836437795275591
11
0.1326183070866142
21
0.3815882283464567
0
LINE
8
BLACK
6
CONTINUOUS
10
0.1326183070866142
20
0.3815882283464567
11
0.1355252362204724
21
0.3786812992125984
0
LINE
8
BLACK
6
CONTINUOUS
10
0.1355252362204724
20
0.3786812992125984
11
0.1375807874015748
21
0.3751209842519685
0
LINE
8
BLACK
6
CONTINUOUS
10
0.1375807874015748
20
0.3751209842519685
11
0.1386448031496063
21
0.37115
0
LINE
8
BLACK
6
CONTINUOUS
10
0.1386448031496063
20
0.37115
11
0.1386448031496063
21
0.3670389763779527
0
LINE
8
BLACK
6
CONTINUOUS
10
0.1386448031496063
20
0.3670389763779527
11
0.1375807874015748
21
0.3630679921259842
0
LINE
8
BLACK
6
CONTINUOUS
10
0.1375807874015748
20
0.3630679921259842
11
0.1355252362204724
21
0.3595076771653543
0
LINE
8
BLACK
6
CONTINUOUS
10
0.1355252362204724
20
0.3595076771653543
11
0.1326183070866142
21
0.3566007480314961
0
LINE
8
BLACK
6
CONTINUOUS
10
0.1326183070866142
20
0.3566007480314961
11
0.1290579921259843
21
0.3545451968503937
0
LINE
8
BLACK
6
CONTINUOUS
10
0.1290579921259843
20
0.3545451968503937
11
0.1250870078740157
21
0.3534811811023622
0
LINE
8
BLACK
6
CONTINUOUS
10
0.1250870078740157
20
0.3534811811023622
11
0.1209759842519685
21
0.3534811811023622
0
LINE
8
BLACK
6
CONTINUOUS
10
0.1209759842519685
20
0.3534811811023622
11
0.1181561417322835
21
0.3542367716535433
0
LINE
8
BLACK
6
CONTINUOUS
10
0.1181561417322835
20
0.3542367716535433
11
0.0915354330708661
21
0.3276160236220472
0
LINE
8
BLACK
6
CONTINUOUS
10
0.0915354330708661
20
0.3276160236220472
11
0.0915354330708661
21
0.2609666929133858
0
LINE
8
BLACK
6
CONTINUOUS
10
0.0915354330708661
20
0.2609666929133858
11
0.1212029133858268
21
0.2312992125984252
0
LINE
8
BLACK
6
CONTINUOUS
10
0.1212029133858268
20
0.2312992125984252
11
0.1580661811023622
21
0.2312992125984252
0
LINE
8
BLACK
6
CONTINUOUS
10
0.1580661811023622
20
0.2312992125984252
11
0.1582257480314961
21
0.231538031496063
0
LINE
8
BLACK
6
CONTINUOUS
10
0.1582257480314961
20
0.231538031496063
11
0.1601416141732283
21
0.232818188976378
0
LINE
8
BLACK
6
CONTINUOUS
10
0.1601416141732283
20
0.232818188976378
11
0.1624015748031496
21
0.2332677165354331
0
LINE
8
BLACK
6
CONTINUOUS
10
0.1624015748031496
20
0.2332677165354331
11
0.2175196850393701
21
0.2332677165354331
0
LINE
8
BLACK
6
CONTINUOUS
10
0.2175196850393701
20
0.2332677165354331
11
0.2197796456692913
21
0.232818188976378
0
LINE
8
BLACK
6
CONTINUOUS
10
0.2197796456692913
20
0.232818188976378
11
0.2216955118110236
21
0.231538031496063
0
LINE
8
BLACK
6
CONTINUOUS
10
0.2216955118110236
20
0.231538031496063
11
0.2229756692913386
21
0.2296221653543307
0
LINE
8
BLACK
6
CONTINUOUS
10
0.2229756692913386
20
0.2296221653543307
11
0.2234251968503937
21
0.2273622047244094
0
LINE
8
BLACK
6
CONTINUOUS
10
0.2234251968503937
20
0.2273622047244094
11
0.2234251968503937
21
0.2155511811023622
0
LINE
8
BLACK
6
CONTINUOUS
10
0.2234251968503937
20
0.2155511811023622
11
0.2229756692913386
21
0.213291220472441
0
LINE
8
BLACK
6
CONTINUOUS
10
0.2229756692913386
20
0.213291220472441
11
0.2216955118110236
21
0.2113753543307087
0
LINE
8
BLACK
6
CONTINUOUS
10
0.2216955118110236
20
0.2113753543307087
11
0.2197796456692913
21
0.2100951968503937
0
LINE
8
BLACK
6
CONTINUOUS
10
0.2197796456692913
20
0.2100951968503937
11
0.2175196850393701
21
0.2096456692913386
0
LINE
8
BLACK
6
CONTINUOUS
10
0.2175196850393701
20
0.2096456692913386
11
0.1624015748031496
21
0.2096456692913386
0
LINE
8
BLACK
6
CONTINUOUS
10
0.1624015748031496
20
0.2096456692913386
11
0.1601416141732283
21
0.2100951968503937
0
LINE
8
BLACK
6
CONTINUOUS
10
0.1601416141732283
20
0.2100951968503937
11
0.1582257480314961
21
0.2113753543307087
0
LINE
8
BLACK
6
CONTINUOUS
10
0.1582257480314961
20
0.2113753543307087
11
0.1580661811023622
21
0.2116141732283464
0
LINE
8
BLACK
6
CONTINUOUS
10
0.1580661811023622
20
0.2116141732283464
11
0.1171259842519685
21
0.2116141732283464
0
LINE
8
BLACK
6
CONTINUOUS
10
0.1171259842519685
20
0.2116141732283464
11
0.1152057874015748
21
0.2118033070866142
0
LINE
8
BLACK
6
CONTINUOUS
10
0.1152057874015748
20
0.2118033070866142
11
0.1116577559055118
21
0.2132729527559055
0
LINE
8
BLACK
6
CONTINUOUS
10
0.1116577559055118
20
0.2132729527559055
11
0.1116575590551181
21
0.2132731496062992
0
LINE
8
BLACK
6
CONTINUOUS
10
0.1116575590551181
20
0.2132731496062992
11
0.1101662598425197
21
0.214496968503937
0
LINE
8
BLACK
6
CONTINUOUS
10
0.1101662598425197
20
0.214496968503937
11
0.074733188976378
21
0.2499300393700787
0
LINE
8
BLACK
6
CONTINUOUS
10
0.074733188976378
20
0.2499300393700787
11
0.0735093307086614
21
0.2514213779527559
0
LINE
8
BLACK
6
CONTINUOUS
10
0.0735093307086614
20
0.2514213779527559
11
0.0735091732283464
21
0.2514215354330709
0
LINE
8
BLACK
6
CONTINUOUS
10
0.0735091732283464
20
0.2514215354330709
11
0.0720395275590551
21
0.2549695669291339
0
LINE
8
BLACK
6
CONTINUOUS
10
0.0720395275590551
20
0.2549695669291339
11
0.0718503937007874
21
0.2568897637795275
0
LINE
8
BLACK
6
CONTINUOUS
10
0.0718503937007874
20
0.2568897637795275
11
0.0718503937007874
21
0.3316929133858267
0
LINE
8
BLACK
6
CONTINUOUS
10
0.0718503937007874
20
0.3316929133858267
11
0.0720395275590551
21
0.3336131102362205
0
LINE
8
BLACK
6
CONTINUOUS
10
0.0720395275590551
20
0.3336131102362205
11
0.0735091732283464
21
0.3371611417322835
0
LINE
8
BLACK
6
CONTINUOUS
10
0.0735091732283464
20
0.3371611417322835
11
0.0735093307086614
21
0.3371613385826772
0
LINE
8
BLACK
6
CONTINUOUS
10
0.0735093307086614
20
0.3371613385826772
11
0.074733188976378
21
0.3386526377952756
0
LINE
8
BLACK
6
CONTINUOUS
10
0.074733188976378
20
0.3386526377952756
11
0.1074868503937008
21
0.3714062992125984
0
LINE
8
BLACK
6
CONTINUOUS
10
0.1074868503937008
20
0.3714062992125984
11
0.1084822047244094
21
0.3751209842519685
0
LINE
8
BLACK
6
CONTINUOUS
10
0.1084822047244094
20
0.3751209842519685
11
0.1105377559055118
21
0.3786812992125984
0
LINE
8
BLACK
6
CONTINUOUS
10
0.1105377559055118
20
0.3786812992125984
11
0.1134446850393701
21
0.3815882283464567
0
LINE
8
BLACK
6
CONTINUOUS
10
0.1134446850393701
20
0.3815882283464567
11
0.117005
21
0.3836437795275591
0
LINE
8
BLACK
6
CONTINUOUS
10
0.117005
20
0.3836437795275591
11
0.1209759842519685
21
0.3847077952755906
0
LINE
8
BLACK
6
CONTINUOUS
10
0.1209759842519685
20
0.3847077952755906
11
0.1250870078740157
21
0.3847077952755906
0
LINE
8
BLACK
6
CONTINUOUS
10
0.1250870078740157
20
0.3847077952755906
11
0.1290579921259843
21
0.3836437795275591
0
LINE
8
BLACK
6
CONTINUOUS
10
0.7155198818897638
20
0.327911968503937
11
0.7181900787401575
21
0.3263703149606299
0
LINE
8
BLACK
6
CONTINUOUS
10
0.7181900787401575
20
0.3263703149606299
11
0.7203703149606299
21
0.3241900787401575
0
LINE
8
BLACK
6
CONTINUOUS
10
0.7203703149606299
20
0.3241900787401575
11
0.721111968503937
21
0.3229055118110236
0
LINE
8
BLACK
6
CONTINUOUS
10
0.721111968503937
20
0.3229055118110236
11
0.819
21
0.3229055118110236
0
LINE
8
BLACK
6
CONTINUOUS
10
0.819
20
0.3229055118110236
11
0.8201521259842519
21
0.3227920472440945
0
LINE
8
BLACK
6
CONTINUOUS
10
0.8201521259842519
20
0.3227920472440945
11
0.8210338976377952
21
0.322426811023622
0
LINE
8
BLACK
6
CONTINUOUS
10
0.8210338976377952
20
0.322426811023622
11
0.822280905511811
21
0.3219102755905512
0
LINE
8
BLACK
6
CONTINUOUS
10
0.822280905511811
20
0.3219102755905512
11
0.8231758267716536
21
0.3211758267716535
0
LINE
8
BLACK
6
CONTINUOUS
10
0.8231758267716536
20
0.3211758267716535
11
0.8793910236220472
21
0.2649606299212598
0
LINE
8
BLACK
6
CONTINUOUS
10
0.8793910236220472
20
0.2649606299212598
11
0.9706692913385827
21
0.2649606299212598
0
LINE
8
BLACK
6
CONTINUOUS
10
0.9706692913385827
20
0.2649606299212598
11
0.9706692913385827
21
0.2255905511811024
0
LINE
8
BLACK
6
CONTINUOUS
10
0.9706692913385827
20
0.2255905511811024
11
0.8718503937007874
21
0.2255905511811024
0
LINE
8
BLACK
6
CONTINUOUS
10
0.8718503937007874
20
0.2255905511811024
11
0.8718503937007874
21
0.2557979527559055
0
LINE
8
BLACK
6
CONTINUOUS
10
0.8718503937007874
20
0.2557979527559055
11
0.8165538582677165
21
0.3110944881889764
0
LINE
8
BLACK
6
CONTINUOUS
10
0.8165538582677165
20
0.3110944881889764
11
0.721111968503937
21
0.3110944881889764
0
LINE
8
BLACK
6
CONTINUOUS
10
0.721111968503937
20
0.3110944881889764
11
0.7203703149606299
21
0.3098099212598425
0
LINE
8
BLACK
6
CONTINUOUS
10
0.7203703149606299
20
0.3098099212598425
11
0.7181900787401575
21
0.30762968503937
0
LINE
8
BLACK
6
CONTINUOUS
10
0.7181900787401575
20
0.30762968503937
11
0.7155198818897638
21
0.306088031496063
0
LINE
8
BLACK
6
CONTINUOUS
10
0.7155198818897638
20
0.306088031496063
11
0.7125416535433071
21
0.3052900393700788
0
LINE
8
BLACK
6
CONTINUOUS
10
0.7125416535433071
20
0.3052900393700788
11
0.7094583464566929
21
0.3052900393700788
0
LINE
8
BLACK
6
CONTINUOUS
10
0.7094583464566929
20
0.3052900393700788
11
0.7064801181102363
21
0.306088031496063
0
LINE
8
BLACK
6
CONTINUOUS
10
0.7064801181102363
20
0.306088031496063
11
0.7038099212598425
21
0.30762968503937
0
LINE
8
BLACK
6
CONTINUOUS
10
0.7038099212598425
20
0.30762968503937
11
0.7016296850393701
21
0.3098099212598425
0
LINE
8
BLACK
6
CONTINUOUS
10
0.7016296850393701
20
0.3098099212598425
11
0.700088031496063
21
0.3124801181102362
0
LINE
8
BLACK
6
CONTINUOUS
10
0.700088031496063
20
0.3124801181102362
11
0.6992900393700787
21
0.3154583464566929
0
LINE
8
BLACK
6
CONTINUOUS
10
0.6992900393700787
20
0.3154583464566929
11
0.6992900393700787
21
0.3185416535433071
0
LINE
8
BLACK
6
CONTINUOUS
10
0.6992900393700787
20
0.3185416535433071
11
0.700088031496063
21
0.3215198818897638
0
LINE
8
BLACK
6
CONTINUOUS
10
0.700088031496063
20
0.3215198818897638
11
0.7016296850393701
21
0.3241900787401575
0
LINE
8
BLACK
6
CONTINUOUS
10
0.7016296850393701
20
0.3241900787401575
11
0.7038099212598425
21
0.3263703149606299
0
LINE
8
BLACK
6
CONTINUOUS
10
0.7038099212598425
20
0.3263703149606299
11
0.7064801181102363
21
0.327911968503937
0
LINE
8
BLACK
6
CONTINUOUS
10
0.7064801181102363
20
0.327911968503937
11
0.7094583464566929
21
0.3287099606299212
0
LINE
8
BLACK
6
CONTINUOUS
10
0.7094583464566929
20
0.3287099606299212
11
0.7125416535433071
21
0.3287099606299212
0
LINE
8
BLACK
6
CONTINUOUS
10
0.7125416535433071
20
0.3287099606299212
11
0.7155198818897638
21
0.327911968503937
0
LINE
8
BLACK
6
CONTINUOUS
10
0.6592705905511811
20
0.4557933858267716
11
0.662830905511811
21
0.4537378346456693
0
LINE
8
BLACK
6
CONTINUOUS
10
0.662830905511811
20
0.4537378346456693
11
0.6657378346456693
21
0.450830905511811
0
LINE
8
BLACK
6
CONTINUOUS
10
0.6657378346456693
20
0.450830905511811
11
0.6677933858267716
21
0.4472705905511811
0
LINE
8
BLACK
6
CONTINUOUS
10
0.6677933858267716
20
0.4472705905511811
11
0.6688574015748031
21
0.4432996062992126
0
LINE
8
BLACK
6
CONTINUOUS
10
0.6688574015748031
20
0.4432996062992126
11
0.6688574015748031
21
0.4391885826771653
0
LINE
8
BLACK
6
CONTINUOUS
10
0.6688574015748031
20
0.4391885826771653
11
0.6677933858267716
21
0.4352175984251969
0
LINE
8
BLACK
6
CONTINUOUS
10
0.6677933858267716
20
0.4352175984251969
11
0.6657378346456693
21
0.4316572834645669
0
LINE
8
BLACK
6
CONTINUOUS
10
0.6657378346456693
20
0.4316572834645669
11
0.662830905511811
21
0.4287503543307086
0
LINE
8
BLACK
6
CONTINUOUS
10
0.662830905511811
20
0.4287503543307086
11
0.6592705905511811
21
0.4266948031496063
0
LINE
8
BLACK
6
CONTINUOUS
10
0.6592705905511811
20
0.4266948031496063
11
0.6552996062992126
21
0.4256307874015748
0
LINE
8
BLACK
6
CONTINUOUS
10
0.6552996062992126
20
0.4256307874015748
11
0.6511885826771653
21
0.4256307874015748
0
LINE
8
BLACK
6
CONTINUOUS
10
0.6511885826771653
20
0.4256307874015748
11
0.6472175984251969
21
0.4266948031496063
0
LINE
8
BLACK
6
CONTINUOUS
10
0.6472175984251969
20
0.4266948031496063
11
0.643657283464567
21
0.4287503543307086
0
LINE
8
BLACK
6
CONTINUOUS
10
0.643657283464567
20
0.4287503543307086
11
0.6407503543307086
21
0.4316572834645669
0
LINE
8
BLACK
6
CONTINUOUS
10
0.6407503543307086
20
0.4316572834645669
11
0.6393250393700787
21
0.4341259842519685
0
LINE
8
BLACK
6
CONTINUOUS
10
0.6393250393700787
20
0.4341259842519685
11
0.3732615354330708
21
0.4341259842519685
0
LINE
8
BLACK
6
CONTINUOUS
10
0.3732615354330708
20
0.4341259842519685
11
0.2534496456692913
21
0.3143141338582677
0
LINE
8
BLACK
6
CONTINUOUS
10
0.2534496456692913
20
0.3143141338582677
11
0.2522564566929134
21
0.3133348818897638
0
LINE
8
BLACK
6
CONTINUOUS
10
0.2522564566929134
20
0.3133348818897638
11
0.249418031496063
21
0.3121591732283465
0
LINE
8
BLACK
6
CONTINUOUS
10
0.249418031496063
20
0.3121591732283465
11
0.2478818897637795
21
0.312007874015748
0
LINE
8
BLACK
6
CONTINUOUS
10
0.2478818897637795
20
0.312007874015748
11
0.2230336614173228
21
0.312007874015748
0
LINE
8
BLACK
6
CONTINUOUS
10
0.2230336614173228
20
0.312007874015748
11
0.2229756692913386
21
0.3117164173228346
0
LINE
8
BLACK
6
CONTINUOUS
10
0.2229756692913386
20
0.3117164173228346
11
0.2216955118110236
21
0.3098005511811023
0
LINE
8
BLACK
6
CONTINUOUS
10
0.2216955118110236
20
0.3098005511811023
11
0.2197796456692913
21
0.3085203937007874
0
LINE
8
BLACK
6
CONTINUOUS
10
0.2197796456692913
20
0.3085203937007874
11
0.2175196850393701
21
0.3080708661417323
0
LINE
8
BLACK
6
CONTINUOUS
10
0.2175196850393701
20
0.3080708661417323
11
0.1624015748031496
21
0.3080708661417323
0
LINE
8
BLACK
6
CONTINUOUS
10
0.1624015748031496
20
0.3080708661417323
11
0.1601416141732283
21
0.3085203937007874
0
LINE
8
BLACK
6
CONTINUOUS
10
0.1601416141732283
20
0.3085203937007874
11
0.1582257480314961
21
0.3098005511811023
0
LINE
8
BLACK
6
CONTINUOUS
10
0.1582257480314961
20
0.3098005511811023
11
0.1569455905511811
21
0.3117164173228346
0
LINE
8
BLACK
6
CONTINUOUS
10
0.1569455905511811
20
0.3117164173228346
11
0.1568875984251968
21
0.312007874015748
0
LINE
8
BLACK
6
CONTINUOUS
10
0.1568875984251968
20
0.312007874015748
11
0.1412536614173228
21
0.312007874015748
0
LINE
8
BLACK
6
CONTINUOUS
10
0.1412536614173228
20
0.312007874015748
11
0.1328740157480315
21
0.3036282677165354
0
LINE
8
BLACK
6
CONTINUOUS
10
0.1328740157480315
20
0.3036282677165354
11
0.1328740157480315
21
0.2841519291338583
0
LINE
8
BLACK
6
CONTINUOUS
10
0.1328740157480315
20
0.2841519291338583
11
0.134586811023622
21
0.283163031496063
0
LINE
8
BLACK
6
CONTINUOUS
10
0.134586811023622
20
0.283163031496063
11
0.1374937401574803
21
0.2802561023622047
0
LINE
8
BLACK
6
CONTINUOUS
10
0.1374937401574803
20
0.2802561023622047
11
0.1395492913385827
21
0.2766957874015748
0
LINE
8
BLACK
6
CONTINUOUS
10
0.1395492913385827
20
0.2766957874015748
11
0.1406133070866142
21
0.2727248031496063
0
LINE
8
BLACK
6
CONTINUOUS
10
0.1406133070866142
20
0.2727248031496063
11
0.1406133070866142
21
0.268613779527559
0
LINE
8
BLACK
6
CONTINUOUS
10
0.1406133070866142
20
0.268613779527559
11
0.1395492913385827
21
0.2646427952755905
0
LINE
8
BLACK
6
CONTINUOUS
10
0.1395492913385827
20
0.2646427952755905
11
0.1374937401574803
21
0.2610824803149606
0
LINE
8
BLACK
6
CONTINUOUS
10
0.1374937401574803
20
0.2610824803149606
11
0.134586811023622
21
0.2581755511811024
0
LINE
8
BLACK
6
CONTINUOUS
10
0.134586811023622
20
0.2581755511811024
11
0.1310264960629921
21
0.25612
0
LINE
8
BLACK
6
CONTINUOUS
10
0.1310264960629921
20
0.25612
11
0.1270555118110236
21
0.2550559842519685
0
LINE
8
BLACK
6
CONTINUOUS
10
0.1270555118110236
20
0.2550559842519685
11
0.1229444881889764
21
0.2550559842519685
0
LINE
8
BLACK
6
CONTINUOUS
10
0.1229444881889764
20
0.2550559842519685
11
0.1189735039370079
21
0.25612
0
LINE
8
BLACK
6
CONTINUOUS
10
0.1189735039370079
20
0.25612
11
0.115413188976378
21
0.2581755511811024
0
LINE
8
BLACK
6
CONTINUOUS
10
0.115413188976378
20
0.2581755511811024
11
0.1125062598425197
21
0.2610824803149606
0
LINE
8
BLACK
6
CONTINUOUS
10
0.1125062598425197
20
0.2610824803149606
11
0.1104507086614173
21
0.2646427952755905
0
LINE
8
BLACK
6
CONTINUOUS
10
0.1104507086614173
20
0.2646427952755905
11
0.1093866929133858
21
0.268613779527559
0
LINE
8
BLACK
6
CONTINUOUS
10
0.1093866929133858
20
0.268613779527559
11
0.1093866929133858
21
0.2727248031496063
0
LINE
8
BLACK
6
CONTINUOUS
10
0.1093866929133858
20
0.2727248031496063
11
0.1104507086614173
21
0.2766957874015748
0
LINE
8
BLACK
6
CONTINUOUS
10
0.1104507086614173
20
0.2766957874015748
11
0.1125062598425197
21
0.2802561023622047
0
LINE
8
BLACK
6
CONTINUOUS
10
0.1125062598425197
20
0.2802561023622047
11
0.115413188976378
21
0.283163031496063
0
LINE
8
BLACK
6
CONTINUOUS
10
0.115413188976378
20
0.283163031496063
11
0.1171259842519685
21
0.2841519291338583
0
LINE
8
BLACK
6
CONTINUOUS
10
0.1171259842519685
20
0.2841519291338583
11
0.1171259842519685
21
0.3068897637795275
0
LINE
8
BLACK
6
CONTINUOUS
10
0.1171259842519685
20
0.3068897637795275
11
0.1172772834645669
21
0.308425905511811
0
LINE
8
BLACK
6
CONTINUOUS
10
0.1172772834645669
20
0.308425905511811
11
0.1184529921259842
21
0.3112643307086614
0
LINE
8
BLACK
6
CONTINUOUS
10
0.1184529921259842
20
0.3112643307086614
11
0.1194322440944882
21
0.3124575196850394
0
LINE
8
BLACK
6
CONTINUOUS
10
0.1194322440944882
20
0.3124575196850394
11
0.1324243307086614
21
0.3254496456692914
0
LINE
8
BLACK
6
CONTINUOUS
10
0.1324243307086614
20
0.3254496456692914
11
0.1336175590551181
21
0.3264288976377953
0
LINE
8
BLACK
6
CONTINUOUS
10
0.1336175590551181
20
0.3264288976377953
11
0.1364559842519685
21
0.3276046062992126
0
LINE
8
BLACK
6
CONTINUOUS
10
0.1364559842519685
20
0.3276046062992126
11
0.137992125984252
21
0.327755905511811
0
LINE
8
BLACK
6
CONTINUOUS
10
0.137992125984252
20
0.327755905511811
11
0.1568875984251968
21
0.327755905511811
0
LINE
8
BLACK
6
CONTINUOUS
10
0.1568875984251968
20
0.327755905511811
11
0.1569455905511811
21
0.3280473622047244
0
LINE
8
BLACK
6
CONTINUOUS
10
0.1569455905511811
20
0.3280473622047244
11
0.1582257480314961
21
0.3299632283464567
0
LINE
8
BLACK
6
CONTINUOUS
10
0.1582257480314961
20
0.3299632283464567
11
0.1601416141732283
21
0.3312433858267717
0
LINE
8
BLACK
6
CONTINUOUS
10
0.1601416141732283
20
0.3312433858267717
11
0.1624015748031496
21
0.3316929133858267
0
LINE
8
BLACK
6
CONTINUOUS
10
0.1624015748031496
20
0.3316929133858267
11
0.2175196850393701
21
0.3316929133858267
0
LINE
8
BLACK
6
CONTINUOUS
10
0.2175196850393701
20
0.3316929133858267
11
0.2197796456692913
21
0.3312433858267717
0
LINE
8
BLACK
6
CONTINUOUS
10
0.2197796456692913
20
0.3312433858267717
11
0.2216955118110236
21
0.3299632283464567
0
LINE
8
BLACK
6
CONTINUOUS
10
0.2216955118110236
20
0.3299632283464567
11
0.2229756692913386
21
0.3280473622047244
0
LINE
8
BLACK
6
CONTINUOUS
10
0.2229756692913386
20
0.3280473622047244
11
0.2230336614173228
21
0.327755905511811
0
LINE
8
BLACK
6
CONTINUOUS
10
0.2230336614173228
20
0.327755905511811
11
0.2446203937007874
21
0.327755905511811
0
LINE
8
BLACK
6
CONTINUOUS
10
0.2446203937007874
20
0.327755905511811
11
0.3644322440944882
21
0.4475677952755905
0
LINE
8
BLACK
6
CONTINUOUS
10
0.3644322440944882
20
0.4475677952755905
11
0.3656254330708661
21
0.4485470078740157
0
LINE
8
BLACK
6
CONTINUOUS
10
0.3656254330708661
20
0.4485470078740157
11
0.3684638582677165
21
0.4497227165354331
0
LINE
8
BLACK
6
CONTINUOUS
10
0.3684638582677165
20
0.4497227165354331
11
0.37
21
0.4498740157480315
0
LINE
8
BLACK
6
CONTINUOUS
10
0.37
20
0.4498740157480315
11
0.640197874015748
21
0.4498740157480315
0
LINE
8
BLACK
6
CONTINUOUS
10
0.640197874015748
20
0.4498740157480315
11
0.6407503543307086
21
0.450830905511811
0
LINE
8
BLACK
6
CONTINUOUS
10
0.6407503543307086
20
0.450830905511811
11
0.643657283464567
21
0.4537378346456693
0
LINE
8
BLACK
6
CONTINUOUS
10
0.643657283464567
20
0.4537378346456693
11
0.6472175984251969
21
0.4557933858267716
0
LINE
8
BLACK
6
CONTINUOUS
10
0.6472175984251969
20
0.4557933858267716
11
0.6511885826771653
21
0.4568574015748031
0
LINE
8
BLACK
6
CONTINUOUS
10
0.6511885826771653
20
0.4568574015748031
11
0.6552996062992126
21
0.4568574015748031
0
LINE
8
BLACK
6
CONTINUOUS
10
0.6552996062992126
20
0.4568574015748031
11
0.6592705905511811
21
0.4557933858267716
0
LINE
8
BLACK
6
CONTINUOUS
10
0.7776800393700787
20
0.3928957480314961
11
0.7812403543307086
21
0.3908401968503937
0
LINE
8
BLACK
6
CONTINUOUS
10
0.7812403543307086
20
0.3908401968503937
11
0.7841472834645669
21
0.3879332677165354
0
LINE
8
BLACK
6
CONTINUOUS
10
0.7841472834645669
20
0.3879332677165354
11
0.7862028346456693
21
0.3843729527559055
0
LINE
8
BLACK
6
CONTINUOUS
10
0.7862028346456693
20
0.3843729527559055
11
0.7872668503937008
21
0.380401968503937
0
LINE
8
BLACK
6
CONTINUOUS
10
0.7872668503937008
20
0.380401968503937
11
0.7872668503937008
21
0.3762909448818897
0
LINE
8
BLACK
6
CONTINUOUS
10
0.7872668503937008
20
0.3762909448818897
11
0.7862028346456693
21
0.3723199606299212
0
LINE
8
BLACK
6
CONTINUOUS
10
0.7862028346456693
20
0.3723199606299212
11
0.7841472834645669
21
0.3687596456692913
0
LINE
8
BLACK
6
CONTINUOUS
10
0.7841472834645669
20
0.3687596456692913
11
0.7812403543307086
21
0.3658527165354331
0
LINE
8
BLACK
6
CONTINUOUS
10
0.7812403543307086
20
0.3658527165354331
11
0.7776800393700787
21
0.3637971653543307
0
LINE
8
BLACK
6
CONTINUOUS
10
0.7776800393700787
20
0.3637971653543307
11
0.7737090551181102
21
0.3627331496062992
0
LINE
8
BLACK
6
CONTINUOUS
10
0.7737090551181102
20
0.3627331496062992
11
0.769598031496063
21
0.3627331496062992
0
LINE
8
BLACK
6
CONTINUOUS
10
0.769598031496063
20
0.3627331496062992
11
0.7656270472440945
21
0.3637971653543307
0
LINE
8
BLACK
6
CONTINUOUS
10
0.7656270472440945
20
0.3637971653543307
11
0.7620667322834646
21
0.3658527165354331
0
LINE
8
BLACK
6
CONTINUOUS
10
0.7620667322834646
20
0.3658527165354331
11
0.7591598031496063
21
0.3687596456692913
0
LINE
8
BLACK
6
CONTINUOUS
10
0.7591598031496063
20
0.3687596456692913
11
0.758170905511811
21
0.3704724409448819
0
LINE
8
BLACK
6
CONTINUOUS
10
0.758170905511811
20
0.3704724409448819
11
0.501293031496063
21
0.3704724409448819
0
LINE
8
BLACK
6
CONTINUOUS
10
0.501293031496063
20
0.3704724409448819
11
0.4652342519685039
21
0.3344137007874016
0
LINE
8
BLACK
6
CONTINUOUS
10
0.4652342519685039
20
0.3344137007874016
11
0.4664046062992126
21
0.3332433464566929
0
LINE
8
BLACK
6
CONTINUOUS
10
0.4664046062992126
20
0.3332433464566929
11
0.4689740157480315
21
0.3287929921259842
0
LINE
8
BLACK
6
CONTINUOUS
10
0.4689740157480315
20
0.3287929921259842
11
0.4703040157480315
21
0.3238292519685039
0
LINE
8
BLACK
6
CONTINUOUS
10
0.4703040157480315
20
0.3238292519685039
11
0.4703040157480315
21
0.321259842519685
0
LINE
8
BLACK
6
CONTINUOUS
10
0.4703040157480315
20
0.321259842519685
11
0.4704724409448819
21
0.321259842519685
0
LINE
8
BLACK
6
CONTINUOUS
10
0.4704724409448819
20
0.321259842519685
11
0.4704724409448819
21
0.3015748031496063
0
LINE
8
BLACK
6
CONTINUOUS
10
0.4704724409448819
20
0.3015748031496063
11
0.4114173228346457
21
0.3015748031496063
0
LINE
8
BLACK
6
CONTINUOUS
10
0.4114173228346457
20
0.3015748031496063
11
0.4114173228346457
21
0.3133858267716536
0
LINE
8
BLACK
6
CONTINUOUS
10
0.4114173228346457
20
0.3133858267716536
11
0.4055213385826771
21
0.3133858267716536
0
LINE
8
BLACK
6
CONTINUOUS
10
0.4055213385826771
20
0.3133858267716536
11
0.3582212992125984
21
0.2660857874015748
0
LINE
8
BLACK
6
CONTINUOUS
10
0.3582212992125984
20
0.2660857874015748
11
0.3570281102362204
21
0.2651065354330708
0
LINE
8
BLACK
6
CONTINUOUS
10
0.3570281102362204
20
0.2651065354330708
11
0.3541896850393701
21
0.2639308267716535
0
LINE
8
BLACK
6
CONTINUOUS
10
0.3541896850393701
20
0.2639308267716535
11
0.3526535433070866
21
0.2637795275590551
0
LINE
8
BLACK
6
CONTINUOUS
10
0.3526535433070866
20
0.2637795275590551
11
0.2748999606299213
21
0.2637795275590551
0
LINE
8
BLACK
6
CONTINUOUS
10
0.2748999606299213
20
0.2637795275590551
11
0.273911062992126
21
0.2620667322834646
0
LINE
8
BLACK
6
CONTINUOUS
10
0.273911062992126
20
0.2620667322834646
11
0.2710041338582677
21
0.2591598031496063
0
LINE
8
BLACK
6
CONTINUOUS
10
0.2710041338582677
20
0.2591598031496063
11
0.2674438188976378
21
0.2571042519685039
0
LINE
8
BLACK
6
CONTINUOUS
10
0.2674438188976378
20
0.2571042519685039
11
0.2634728346456693
21
0.2560402362204725
0
LINE
8
BLACK
6
CONTINUOUS
10
0.2634728346456693
20
0.2560402362204725
11
0.259361811023622
21
0.2560402362204725
0
LINE
8
BLACK
6
CONTINUOUS
10
0.259361811023622
20
0.2560402362204725
11
0.2553908267716535
21
0.2571042519685039
0
LINE
8
BLACK
6
CONTINUOUS
10
0.2553908267716535
20
0.2571042519685039
11
0.2518305118110236
21
0.2591598031496063
0
LINE
8
BLACK
6
CONTINUOUS
10
0.2518305118110236
20
0.2591598031496063
11
0.2489235826771654
21
0.2620667322834646
0
LINE
8
BLACK
6
CONTINUOUS
10
0.2489235826771654
20
0.2620667322834646
11
0.2485029527559055
21
0.2627952755905512
0
LINE
8
BLACK
6
CONTINUOUS
10
0.2485029527559055
20
0.2627952755905512
11
0.2230336614173228
21
0.2627952755905512
0
LINE
8
BLACK
6
CONTINUOUS
10
0.2230336614173228
20
0.2627952755905512
11
0.2229756692913386
21
0.2625038188976378
0
LINE
8
BLACK
6
CONTINUOUS
10
0.2229756692913386
20
0.2625038188976378
11
0.2216955118110236
21
0.2605879527559055
0
LINE
8
BLACK
6
CONTINUOUS
10
0.2216955118110236
20
0.2605879527559055
11
0.2197796456692913
21
0.2593077952755906
0
LINE
8
BLACK
6
CONTINUOUS
10
0.2197796456692913
20
0.2593077952755906
11
0.2175196850393701
21
0.2588582677165354
0
LINE
8
BLACK
6
CONTINUOUS
10
0.2175196850393701
20
0.2588582677165354
11
0.1624015748031496
21
0.2588582677165354
0
LINE
8
BLACK
6
CONTINUOUS
10
0.1624015748031496
20
0.2588582677165354
11
0.1601416141732283
21
0.2593077952755906
0
LINE
8
BLACK
6
CONTINUOUS
10
0.1601416141732283
20
0.2593077952755906
11
0.1582257480314961
21
0.2605879527559055
0
LINE
8
BLACK
6
CONTINUOUS
10
0.1582257480314961
20
0.2605879527559055
11
0.1569455905511811
21
0.2625038188976378
0
LINE
8
BLACK
6
CONTINUOUS
10
0.1569455905511811
20
0.2625038188976378
11
0.156496062992126
21
0.264763779527559
0
LINE
8
BLACK
6
CONTINUOUS
10
0.156496062992126
20
0.264763779527559
11
0.156496062992126
21
0.2765748031496063
0
LINE
8
BLACK
6
CONTINUOUS
10
0.156496062992126
20
0.2765748031496063
11
0.1569455905511811
21
0.2788347637795275
0
LINE
8
BLACK
6
CONTINUOUS
10
0.1569455905511811
20
0.2788347637795275
11
0.1582257480314961
21
0.2807506299212598
0
LINE
8
BLACK
6
CONTINUOUS
10
0.1582257480314961
20
0.2807506299212598
11
0.1601416141732283
21
0.2820307874015748
0
LINE
8
BLACK
6
CONTINUOUS
10
0.1601416141732283
20
0.2820307874015748
11
0.1624015748031496
21
0.2824803149606299
0
LINE
8
BLACK
6
CONTINUOUS
10
0.1624015748031496
20
0.2824803149606299
11
0.2175196850393701
21
0.2824803149606299
0
LINE
8
BLACK
6
CONTINUOUS
10
0.2175196850393701
20
0.2824803149606299
11
0.2197796456692913
21
0.2820307874015748
0
LINE
8
BLACK
6
CONTINUOUS
10
0.2197796456692913
20
0.2820307874015748
11
0.2216955118110236
21
0.2807506299212598
0
LINE
8
BLACK
6
CONTINUOUS
10
0.2216955118110236
20
0.2807506299212598
11
0.2229756692913386
21
0.2788347637795275
0
LINE
8
BLACK
6
CONTINUOUS
10
0.2229756692913386
20
0.2788347637795275
11
0.2230336614173228
21
0.2785433070866142
0
LINE
8
BLACK
6
CONTINUOUS
10
0.2230336614173228
20
0.2785433070866142
11
0.2473664566929134
21
0.2785433070866142
0
LINE
8
BLACK
6
CONTINUOUS
10
0.2473664566929134
20
0.2785433070866142
11
0.2489235826771654
21
0.2812403543307087
0
LINE
8
BLACK
6
CONTINUOUS
10
0.2489235826771654
20
0.2812403543307087
11
0.2518305118110236
21
0.2841472834645669
0
LINE
8
BLACK
6
CONTINUOUS
10
0.2518305118110236
20
0.2841472834645669
11
0.2553908267716535
21
0.2862028346456693
0
LINE
8
BLACK
6
CONTINUOUS
10
0.2553908267716535
20
0.2862028346456693
11
0.259361811023622
21
0.2872668503937008
0
LINE
8
BLACK
6
CONTINUOUS
10
0.259361811023622
20
0.2872668503937008
11
0.2634728346456693
21
0.2872668503937008
0
LINE
8
BLACK
6
CONTINUOUS
10
0.2634728346456693
20
0.2872668503937008
11
0.2674438188976378
21
0.2862028346456693
0
LINE
8
BLACK
6
CONTINUOUS
10
0.2674438188976378
20
0.2862028346456693
11
0.2710041338582677
21
0.2841472834645669
0
LINE
8
BLACK
6
CONTINUOUS
10
0.2710041338582677
20
0.2841472834645669
11
0.273911062992126
21
0.2812403543307087
0
LINE
8
BLACK
6
CONTINUOUS
10
0.273911062992126
20
0.2812403543307087
11
0.2748999606299213
21
0.2795275590551181
0
LINE
8
BLACK
6
CONTINUOUS
10
0.2748999606299213
20
0.2795275590551181
11
0.3493920472440945
21
0.2795275590551181
0
LINE
8
BLACK
6
CONTINUOUS
10
0.3493920472440945
20
0.2795275590551181
11
0.3966920866141732
21
0.3268275984251968
0
LINE
8
BLACK
6
CONTINUOUS
10
0.3966920866141732
20
0.3268275984251968
11
0.3978852755905511
21
0.3278068503937008
0
LINE
8
BLACK
6
CONTINUOUS
10
0.3978852755905511
20
0.3278068503937008
11
0.4007237007874015
21
0.3289825590551181
0
LINE
8
BLACK
6
CONTINUOUS
10
0.4007237007874015
20
0.3289825590551181
11
0.4022598425196851
21
0.3291338582677165
0
LINE
8
BLACK
6
CONTINUOUS
10
0.4022598425196851
20
0.3291338582677165
11
0.4131125590551181
21
0.3291338582677165
0
LINE
8
BLACK
6
CONTINUOUS
10
0.4131125590551181
20
0.3291338582677165
11
0.4154851574803149
21
0.3332433464566929
0
LINE
8
BLACK
6
CONTINUOUS
10
0.4154851574803149
20
0.3332433464566929
11
0.4191188582677165
21
0.3368770472440945
0
LINE
8
BLACK
6
CONTINUOUS
10
0.4191188582677165
20
0.3368770472440945
11
0.4235692125984252
21
0.3394464566929134
0
LINE
8
BLACK
6
CONTINUOUS
10
0.4235692125984252
20
0.3394464566929134
11
0.4285329527559055
21
0.3407764566929134
0
LINE
8
BLACK
6
CONTINUOUS
10
0.4285329527559055
20
0.3407764566929134
11
0.4311023622047244
21
0.3407764566929134
0
LINE
8
BLACK
6
CONTINUOUS
10
0.4311023622047244
20
0.3407764566929134
11
0.4311023622047244
21
0.3409448818897638
0
LINE
8
BLACK
6
CONTINUOUS
10
0.4311023622047244
20
0.3409448818897638
11
0.4494944094488189
21
0.3409448818897638
0
LINE
8
BLACK
6
CONTINUOUS
10
0.4494944094488189
20
0.3409448818897638
11
0.4924637401574803
21
0.3839142519685039
0
LINE
8
BLACK
6
CONTINUOUS
10
0.4924637401574803
20
0.3839142519685039
11
0.4936569291338583
21
0.3848934645669291
0
LINE
8
BLACK
6
CONTINUOUS
10
0.4936569291338583
20
0.3848934645669291
11
0.4964953543307086
21
0.3860691732283464
0
LINE
8
BLACK
6
CONTINUOUS
10
0.4964953543307086
20
0.3860691732283464
11
0.4980314960629921
21
0.3862204724409449
0
LINE
8
BLACK
6
CONTINUOUS
10
0.4980314960629921
20
0.3862204724409449
11
0.758170905511811
21
0.3862204724409449
0
LINE
8
BLACK
6
CONTINUOUS
10
0.758170905511811
20
0.3862204724409449
11
0.7591598031496063
21
0.3879332677165354
0
LINE
8
BLACK
6
CONTINUOUS
10
0.7591598031496063
20
0.3879332677165354
11
0.7620667322834646
21
0.3908401968503937
0
LINE
8
BLACK
6
CONTINUOUS
10
0.7620667322834646
20
0.3908401968503937
11
0.7656270472440945
21
0.3928957480314961
0
LINE
8
BLACK
6
CONTINUOUS
10
0.7656270472440945
20
0.3928957480314961
11
0.769598031496063
21
0.3939597637795276
0
LINE
8
BLACK
6
CONTINUOUS
10
0.769598031496063
20
0.3939597637795276
11
0.7737090551181102
21
0.3939597637795276
0
LINE
8
BLACK
6
CONTINUOUS
10
0.7737090551181102
20
0.3939597637795276
11
0.7776800393700787
21
0.3928957480314961
0
LINE
8
BLACK
6
CONTINUOUS
10
0.9706692913385827
20
0.3255905511811024
11
0.8718503937007874
21
0.3255905511811024
0
LINE
8
BLACK
6
CONTINUOUS
10
0.8718503937007874
20
0.3255905511811024
11
0.8718503937007874
21
0.3409448818897638
0
LINE
8
BLACK
6
CONTINUOUS
10
0.8718503937007874
20
0.3409448818897638
11
0.6738914960629921
21
0.3409448818897638
0
LINE
8
BLACK
6
CONTINUOUS
10
0.6738914960629921
20
0.3409448818897638
11
0.673149842519685
21
0.3396603149606299
0
LINE
8
BLACK
6
CONTINUOUS
10
0.673149842519685
20
0.3396603149606299
11
0.6709696062992125
21
0.3374800787401575
0
LINE
8
BLACK
6
CONTINUOUS
10
0.6709696062992125
20
0.3374800787401575
11
0.6682994094488189
21
0.3359384251968504
0
LINE
8
BLACK
6
CONTINUOUS
10
0.6682994094488189
20
0.3359384251968504
11
0.6653211811023622
21
0.3351404330708662
0
LINE
8
BLACK
6
CONTINUOUS
10
0.6653211811023622
20
0.3351404330708662
11
0.662237874015748
21
0.3351404330708662
0
LINE
8
BLACK
6
CONTINUOUS
10
0.662237874015748
20
0.3351404330708662
11
0.6592596456692913
21
0.3359384251968504
0
LINE
8
BLACK
6
CONTINUOUS
10
0.6592596456692913
20
0.3359384251968504
11
0.6565894488188976
21
0.3374800787401575
0
LINE
8
BLACK
6
CONTINUOUS
10
0.6565894488188976
20
0.3374800787401575
11
0.6544092125984252
21
0.3396603149606299
0
LINE
8
BLACK
6
CONTINUOUS
10
0.6544092125984252
20
0.3396603149606299
11
0.6528675590551181
21
0.3423305118110236
0
LINE
8
BLACK
6
CONTINUOUS
10
0.6528675590551181
20
0.3423305118110236
11
0.6520695669291339
21
0.3453087401574803
0
LINE
8
BLACK
6
CONTINUOUS
10
0.6520695669291339
20
0.3453087401574803
11
0.6520695669291339
21
0.3483920472440945
0
LINE
8
BLACK
6
CONTINUOUS
10
0.6520695669291339
20
0.3483920472440945
11
0.6528675590551181
21
0.3513702755905512
0
LINE
8
BLACK
6
CONTINUOUS
10
0.6528675590551181
20
0.3513702755905512
11
0.6544092125984252
21
0.3540404724409449
0
LINE
8
BLACK
6
CONTINUOUS
10
0.6544092125984252
20
0.3540404724409449
11
0.6565894488188976
21
0.3562207086614173
0
LINE
8
BLACK
6
CONTINUOUS
10
0.6565894488188976
20
0.3562207086614173
11
0.6592596456692913
21
0.3577623622047244
0
LINE
8
BLACK
6
CONTINUOUS
10
0.6592596456692913
20
0.3577623622047244
11
0.662237874015748
21
0.3585603543307087
0
LINE
8
BLACK
6
CONTINUOUS
10
0.662237874015748
20
0.3585603543307087
11
0.6653211811023622
21
0.3585603543307087
0
LINE
8
BLACK
6
CONTINUOUS
10
0.6653211811023622
20
0.3585603543307087
11
0.6682994094488189
21
0.3577623622047244
0
LINE
8
BLACK
6
CONTINUOUS
10
0.6682994094488189
20
0.3577623622047244
11
0.6709696062992125
21
0.3562207086614173
0
LINE
8
BLACK
6
CONTINUOUS
10
0.6709696062992125
20
0.3562207086614173
11
0.673149842519685
21
0.3540404724409449
0
LINE
8
BLACK
6
CONTINUOUS
10
0.673149842519685
20
0.3540404724409449
11
0.6738914960629921
21
0.352755905511811
0
LINE
8
BLACK
6
CONTINUOUS
10
0.6738914960629921
20
0.352755905511811
11
0.8718503937007874
21
0.352755905511811
0
LINE
8
BLACK
6
CONTINUOUS
10
0.8718503937007874
20
0.352755905511811
11
0.8718503937007874
21
0.3649606299212598
0
LINE
8
BLACK
6
CONTINUOUS
10
0.8718503937007874
20
0.3649606299212598
11
0.9706692913385827
21
0.3649606299212598
0
LINE
8
BLACK
6
CONTINUOUS
10
0.9706692913385827
20
0.3649606299212598
11
0.9706692913385827
21
0.3255905511811024
0
CIRCLE
8
BLACK
10
0.9401574803149606
20
0.397244094488189
40
0.0059055118110236
0
CIRCLE
8
BLACK
10
0.0610236220472441
20
0.202755905511811
40
0.0078740157480315
0
CIRCLE
8
BLACK
10
0.1751968503937008
20
0.5236220472440944
40
0.0078740157480315
0
CIRCLE
8
BLACK
10
0.316
20
0.309
40
0.0078740157480315
0
CIRCLE
8
BLACK
10
0.7322834645669292
20
0.547244094488189
40
0.0078740157480315
0
CIRCLE
8
BLACK
10
0.1732283464566929
20
0.0767716535433071
40
0.0078740157480315
0
CIRCLE
8
BLACK
10
0.437
20
0.481
40
0.0078740157480315
0
CIRCLE
8
BLACK
10
0.0551181102362205
20
0.3858267716535433
40
0.0078740157480315
0
CIRCLE
8
BLACK
10
0.8287401574803149
20
0.5003937007874015
40
0.0059055118110236
0
CIRCLE
8
BLACK
10
0.6161417322834646
20
0.1515748031496063
40
0.0078740157480315
0
CIRCLE
8
BLACK
10
0.892
20
0.198
40
0.0059055118110236
0
CIRCLE
8
BLACK
10
0.6377952755905512
20
0.547244094488189
40
0.0078740157480315
0
CIRCLE
8
BLACK
10
0.4960629921259843
20
0.4901574803149606
40
0.0078740157480315
0
CIRCLE
8
BLACK
10
0.8295275590551181
20
0.397244094488189
40
0.0059055118110236
0
CIRCLE
8
BLACK
10
0.3956692913385826
20
0.2322834645669291
40
0.0059055118110236
0
CIRCLE
8
BLACK
10
0.5826771653543307
20
0.4901574803149606
40
0.0078740157480315
0
CIRCLE
8
BLACK
10
0.9409999999999999
20
0.086
40
0.0059055118110236
0
CIRCLE
8
BLACK
10
0.5429133858267716
20
0.1543307086614173
40
0.0078740157480315
0
CIRCLE
8
BLACK
10
0.1230314960629921
20
0.3690944881889764
40
0.0078740157480315
0
CIRCLE
8
BLACK
10
0.711
20
0.317
40
0.0059055118110236
0
CIRCLE
8
BLACK
10
0.6637795275590551
20
0.3468503937007874
40
0.0059055118110236
0
CIRCLE
8
BLACK
10
0.7629921259842519
20
0.1303149606299213
40
0.0078740157480315
0
CIRCLE
8
BLACK
10
0.125
20
0.2706692913385827
40
0.0078740157480315
0
CIRCLE
8
BLACK
10
0.653244094488189
20
0.441244094488189
40
0.0078740157480315
0
CIRCLE
8
BLACK
10
0.2614173228346456
20
0.2716535433070866
40
0.0078740157480315
0
CIRCLE
8
BLACK
10
0.7716535433070866
20
0.3783464566929134
40
0.0078740157480315
0
CIRCLE
8
BLACK
10
0.8122047244094488
20
0.1988188976377953
40
0.0059055118110236
0
CIRCLE
8
WHITE
10
0.9401574803149606
20
0.397244094488189
40
0.0059055118110236
0
CIRCLE
8
WHITE
10
0.0610236220472441
20
0.202755905511811
40
0.0068897637795276
0
CIRCLE
8
WHITE
10
0.1751968503937008
20
0.5236220472440944
40
0.0068897637795276
0
CIRCLE
8
WHITE
10
0.316
20
0.309
40
0.0068897637795276
0
CIRCLE
8
WHITE
10
0.7322834645669292
20
0.547244094488189
40
0.0068897637795276
0
CIRCLE
8
WHITE
10
0.1732283464566929
20
0.0767716535433071
40
0.0068897637795276
0
CIRCLE
8
WHITE
10
0.437
20
0.481
40
0.0068897637795276
0
CIRCLE
8
WHITE
10
0.0551181102362205
20
0.3858267716535433
40
0.0068897637795276
0
CIRCLE
8
WHITE
10
0.8287401574803149
20
0.5003937007874015
40
0.0059055118110236
0
CIRCLE
8
WHITE
10
0.6161417322834646
20
0.1515748031496063
40
0.0068897637795276
0
CIRCLE
8
WHITE
10
0.892
20
0.198
40
0.0059055118110236
0
CIRCLE
8
WHITE
10
0.6377952755905512
20
0.547244094488189
40
0.0068897637795276
0
CIRCLE
8
WHITE
10
0.4960629921259843
20
0.4901574803149606
40
0.0068897637795276
0
CIRCLE
8
WHITE
10
0.8295275590551181
20
0.397244094488189
40
0.0059055118110236
0
CIRCLE
8
WHITE
10
0.3956692913385826
20
0.2322834645669291
40
0.0059055118110236
0
CIRCLE
8
WHITE
10
0.5826771653543307
20
0.4901574803149606
40
0.0068897637795276
0
CIRCLE
8
WHITE
10
0.9409999999999999
20
0.086
40
0.0059055118110236
0
CIRCLE
8
WHITE
10
0.5429133858267716
20
0.1543307086614173
40
0.0068897637795276
0
CIRCLE
8
WHITE
10
0.1230314960629921
20
0.3690944881889764
40
0.0068897637795276
0
CIRCLE
8
WHITE
10
0.711
20
0.317
40
0.0059055118110236
0
CIRCLE
8
WHITE
10
0.6637795275590551
20
0.3468503937007874
40
0.0059055118110236
0
CIRCLE
8
WHITE
10
0.7629921259842519
20
0.1303149606299213
40
0.0068897637795276
0
CIRCLE
8
WHITE
10
0.125
20
0.2706692913385827
40
0.0068897637795276
0
CIRCLE
8
WHITE
10
0.653244094488189
20
0.441244094488189
40
0.0068897637795276
0
CIRCLE
8
WHITE
10
0.2614173228346456
20
0.2716535433070866
40
0.0068897637795276
0
CIRCLE
8
WHITE
10
0.7716535433070866
20
0.3783464566929134
40
0.0068897637795276
0
CIRCLE
8
WHITE
10
0.8122047244094488
20
0.1988188976377953
40
0.0059055118110236
  0
ENDSEC
  0
EOF
