  0
SECTION
  2
HEADER
  9
$ANGBASE
  50
0.0
  9
$ANGDIR
  70
1
  9
$MEASUREMENT
  70
0
  0
ENDSEC
  0
SECTION
  2
TABLES
  0
TABLE
  2
LTYPE
  70
4
  0
LTYPE
  5
40F
  2
CONTINUOUS
  70
0
  3
Solid line
  72
65
  73
0
  40
0.0
  0
LTYPE
  5
410
  2
DASHDOT
 70
0
  3
Dash Dot ____ _ ____ _
 72
65
 73
4
 40
2.0
 49
1.25
 49
-0.25
 49
0.25
 49
-0.25
  0
LTYPE
  5
411
  2
DASHED
 70
0
  3
Dashed __ __ __ __ __
 72
65
 73
2
 40
0.75
 49
0.5
 49
-0.25
  0
LTYPE
  5
43B
  2
DOTTED
 70
0
  3
Dotted .  .  .  .
 72
65
 73
2
 40
0.2
 49
0.0
 49
-0.2
  0
ENDTAB
  0
TABLE
  2
STYLE
  70
4
  0
STYLE
  2
KICAD
  70
0
  40
0
  41
1
  42
1
  50
0
  71
0
  3
isocp.shx
  0
STYLE
  2
KICADB
  70
0
  40
0
  41
1
  42
1
  50
0
  71
0
  3
isocp.shx
  0
STYLE
  2
KICADI
  70
0
  40
0
  41
1
  42
1
  50
15
  71
0
  3
isocp.shx
  0
STYLE
  2
KICADBI
  70
0
  40
0
  41
1
  42
1
  50
15
  71
0
  3
isocp.shx
  0
ENDTAB
  0
TABLE
  2
LAYER
  70
1
  0
LAYER
  2
BLACK
  70
0
  62
7
  6
CONTINUOUS
  0
ENDTAB
  0
ENDSEC
  0
SECTION
  2
ENTITIES
0
LINE
8
BLACK
6
CONTINUOUS
10
0.4138308661417323
20
0.0755855511811024
11
0.4167046850393701
21
0.0736653149606299
0
LINE
8
BLACK
6
CONTINUOUS
10
0.4167046850393701
20
0.0736653149606299
11
0.4186249212598425
21
0.0707914960629921
0
LINE
8
BLACK
6
CONTINUOUS
10
0.4186249212598425
20
0.0707914960629921
11
0.4192992125984252
21
0.0674015748031496
0
LINE
8
BLACK
6
CONTINUOUS
10
0.4192992125984252
20
0.0674015748031496
11
0.4192992125984252
21
0.0477165354330709
0
LINE
8
BLACK
6
CONTINUOUS
10
0.4192992125984252
20
0.0477165354330709
11
0.4186249212598425
21
0.0443266141732283
0
LINE
8
BLACK
6
CONTINUOUS
10
0.4186249212598425
20
0.0443266141732283
11
0.4167046850393701
21
0.0414527952755906
0
LINE
8
BLACK
6
CONTINUOUS
10
0.4167046850393701
20
0.0414527952755906
11
0.4138308661417323
21
0.0395325590551181
0
LINE
8
BLACK
6
CONTINUOUS
10
0.4138308661417323
20
0.0395325590551181
11
0.4104409448818898
21
0.0388582677165354
0
LINE
8
BLACK
6
CONTINUOUS
10
0.4104409448818898
20
0.0388582677165354
11
0.3927244094488189
21
0.0388582677165354
0
LINE
8
BLACK
6
CONTINUOUS
10
0.3927244094488189
20
0.0388582677165354
11
0.3893344881889764
21
0.0395325590551181
0
LINE
8
BLACK
6
CONTINUOUS
10
0.3893344881889764
20
0.0395325590551181
11
0.3864606692913386
21
0.0414527952755906
0
LINE
8
BLACK
6
CONTINUOUS
10
0.3864606692913386
20
0.0414527952755906
11
0.3845404330708661
21
0.0443266141732283
0
LINE
8
BLACK
6
CONTINUOUS
10
0.3845404330708661
20
0.0443266141732283
11
0.3838661417322835
21
0.0477165354330709
0
LINE
8
BLACK
6
CONTINUOUS
10
0.3838661417322835
20
0.0477165354330709
11
0.3838661417322835
21
0.0674015748031496
0
LINE
8
BLACK
6
CONTINUOUS
10
0.3838661417322835
20
0.0674015748031496
11
0.3845404330708661
21
0.0707914960629921
0
LINE
8
BLACK
6
CONTINUOUS
10
0.3845404330708661
20
0.0707914960629921
11
0.3864606692913386
21
0.0736653149606299
0
LINE
8
BLACK
6
CONTINUOUS
10
0.3864606692913386
20
0.0736653149606299
11
0.3893344881889764
21
0.0755855511811024
0
LINE
8
BLACK
6
CONTINUOUS
10
0.3893344881889764
20
0.0755855511811024
11
0.3927244094488189
21
0.076259842519685
0
LINE
8
BLACK
6
CONTINUOUS
10
0.3927244094488189
20
0.076259842519685
11
0.4104409448818898
21
0.076259842519685
0
LINE
8
BLACK
6
CONTINUOUS
10
0.4104409448818898
20
0.076259842519685
11
0.4138308661417323
21
0.0755855511811024
0
LINE
8
BLACK
6
CONTINUOUS
10
0.4748544881889764
20
0.0755855511811024
11
0.4777283070866142
21
0.0736653149606299
0
LINE
8
BLACK
6
CONTINUOUS
10
0.4777283070866142
20
0.0736653149606299
11
0.4796485433070866
21
0.0707914960629921
0
LINE
8
BLACK
6
CONTINUOUS
10
0.4796485433070866
20
0.0707914960629921
11
0.4803228346456693
21
0.0674015748031496
0
LINE
8
BLACK
6
CONTINUOUS
10
0.4803228346456693
20
0.0674015748031496
11
0.4803228346456693
21
0.0477165354330709
0
LINE
8
BLACK
6
CONTINUOUS
10
0.4803228346456693
20
0.0477165354330709
11
0.4796485433070866
21
0.0443266141732283
0
LINE
8
BLACK
6
CONTINUOUS
10
0.4796485433070866
20
0.0443266141732283
11
0.4777283070866142
21
0.0414527952755906
0
LINE
8
BLACK
6
CONTINUOUS
10
0.4777283070866142
20
0.0414527952755906
11
0.4748544881889764
21
0.0395325590551181
0
LINE
8
BLACK
6
CONTINUOUS
10
0.4748544881889764
20
0.0395325590551181
11
0.4714645669291339
21
0.0388582677165354
0
LINE
8
BLACK
6
CONTINUOUS
10
0.4714645669291339
20
0.0388582677165354
11
0.453748031496063
21
0.0388582677165354
0
LINE
8
BLACK
6
CONTINUOUS
10
0.453748031496063
20
0.0388582677165354
11
0.4503581102362205
21
0.0395325590551181
0
LINE
8
BLACK
6
CONTINUOUS
10
0.4503581102362205
20
0.0395325590551181
11
0.4474842913385826
21
0.0414527952755906
0
LINE
8
BLACK
6
CONTINUOUS
10
0.4474842913385826
20
0.0414527952755906
11
0.4455640551181102
21
0.0443266141732283
0
LINE
8
BLACK
6
CONTINUOUS
10
0.4455640551181102
20
0.0443266141732283
11
0.4448897637795275
21
0.0477165354330709
0
LINE
8
BLACK
6
CONTINUOUS
10
0.4448897637795275
20
0.0477165354330709
11
0.4448897637795275
21
0.0674015748031496
0
LINE
8
BLACK
6
CONTINUOUS
10
0.4448897637795275
20
0.0674015748031496
11
0.4455640551181102
21
0.0707914960629921
0
LINE
8
BLACK
6
CONTINUOUS
10
0.4455640551181102
20
0.0707914960629921
11
0.4474842913385826
21
0.0736653149606299
0
LINE
8
BLACK
6
CONTINUOUS
10
0.4474842913385826
20
0.0736653149606299
11
0.4503581102362205
21
0.0755855511811024
0
LINE
8
BLACK
6
CONTINUOUS
10
0.4503581102362205
20
0.0755855511811024
11
0.453748031496063
21
0.076259842519685
0
LINE
8
BLACK
6
CONTINUOUS
10
0.453748031496063
20
0.076259842519685
11
0.4714645669291339
21
0.076259842519685
0
LINE
8
BLACK
6
CONTINUOUS
10
0.4714645669291339
20
0.076259842519685
11
0.4748544881889764
21
0.0755855511811024
0
LINE
8
BLACK
6
CONTINUOUS
10
0.1805618503937008
20
0.0970933070866142
11
0.183755
21
0.0949597244094488
0
LINE
8
BLACK
6
CONTINUOUS
10
0.183755
20
0.0949597244094488
11
0.1858885826771653
21
0.0917665748031496
0
LINE
8
BLACK
6
CONTINUOUS
10
0.1858885826771653
20
0.0917665748031496
11
0.1866377952755905
21
0.088
0
LINE
8
BLACK
6
CONTINUOUS
10
0.1866377952755905
20
0.088
11
0.1866377952755905
21
0.0683149606299213
0
LINE
8
BLACK
6
CONTINUOUS
10
0.1866377952755905
20
0.0683149606299213
11
0.1858885826771653
21
0.0645483858267717
0
LINE
8
BLACK
6
CONTINUOUS
10
0.1858885826771653
20
0.0645483858267717
11
0.183755
21
0.0613552362204724
0
LINE
8
BLACK
6
CONTINUOUS
10
0.183755
20
0.0613552362204724
11
0.1805618503937008
21
0.0592216535433071
0
LINE
8
BLACK
6
CONTINUOUS
10
0.1805618503937008
20
0.0592216535433071
11
0.1767952755905512
21
0.0584724409448819
0
LINE
8
BLACK
6
CONTINUOUS
10
0.1767952755905512
20
0.0584724409448819
11
0.1393937007874016
21
0.0584724409448819
0
LINE
8
BLACK
6
CONTINUOUS
10
0.1393937007874016
20
0.0584724409448819
11
0.135627125984252
21
0.0592216535433071
0
LINE
8
BLACK
6
CONTINUOUS
10
0.135627125984252
20
0.0592216535433071
11
0.1324339763779528
21
0.0613552362204724
0
LINE
8
BLACK
6
CONTINUOUS
10
0.1324339763779528
20
0.0613552362204724
11
0.1303003937007874
21
0.0645483858267717
0
LINE
8
BLACK
6
CONTINUOUS
10
0.1303003937007874
20
0.0645483858267717
11
0.1295511811023622
21
0.0683149606299213
0
LINE
8
BLACK
6
CONTINUOUS
10
0.1295511811023622
20
0.0683149606299213
11
0.1295511811023622
21
0.088
0
LINE
8
BLACK
6
CONTINUOUS
10
0.1295511811023622
20
0.088
11
0.1303003937007874
21
0.0917665748031496
0
LINE
8
BLACK
6
CONTINUOUS
10
0.1303003937007874
20
0.0917665748031496
11
0.1324339763779528
21
0.0949597244094488
0
LINE
8
BLACK
6
CONTINUOUS
10
0.1324339763779528
20
0.0949597244094488
11
0.135627125984252
21
0.0970933070866142
0
LINE
8
BLACK
6
CONTINUOUS
10
0.135627125984252
20
0.0970933070866142
11
0.1393937007874016
21
0.0978425196850394
0
LINE
8
BLACK
6
CONTINUOUS
10
0.1393937007874016
20
0.0978425196850394
11
0.1767952755905512
21
0.0978425196850394
0
LINE
8
BLACK
6
CONTINUOUS
10
0.1767952755905512
20
0.0978425196850394
11
0.1805618503937008
21
0.0970933070866142
0
LINE
8
BLACK
6
CONTINUOUS
10
-0.0820601968503937
20
0.1057468503937008
11
-0.0788670472440945
21
0.1036132677165354
0
LINE
8
BLACK
6
CONTINUOUS
10
-0.0788670472440945
20
0.1036132677165354
11
-0.0767334645669291
21
0.1004201181102362
0
LINE
8
BLACK
6
CONTINUOUS
10
-0.0767334645669291
20
0.1004201181102362
11
-0.0759842519685039
21
0.0966535433070866
0
LINE
8
BLACK
6
CONTINUOUS
10
-0.0759842519685039
20
0.0966535433070866
11
-0.0759842519685039
21
0.0769685039370079
0
LINE
8
BLACK
6
CONTINUOUS
10
-0.0759842519685039
20
0.0769685039370079
11
-0.0767334645669291
21
0.0732019291338583
0
LINE
8
BLACK
6
CONTINUOUS
10
-0.0767334645669291
20
0.0732019291338583
11
-0.0788670472440945
21
0.0700087795275591
0
LINE
8
BLACK
6
CONTINUOUS
10
-0.0788670472440945
20
0.0700087795275591
11
-0.0820601968503937
21
0.0678751968503937
0
LINE
8
BLACK
6
CONTINUOUS
10
-0.0820601968503937
20
0.0678751968503937
11
-0.0858267716535433
21
0.0671259842519685
0
LINE
8
BLACK
6
CONTINUOUS
10
-0.0858267716535433
20
0.0671259842519685
11
-0.1724409448818898
21
0.0671259842519685
0
LINE
8
BLACK
6
CONTINUOUS
10
-0.1724409448818898
20
0.0671259842519685
11
-0.1762075196850394
21
0.0678751968503937
0
LINE
8
BLACK
6
CONTINUOUS
10
-0.1762075196850394
20
0.0678751968503937
11
-0.1794006692913386
21
0.0700087795275591
0
LINE
8
BLACK
6
CONTINUOUS
10
-0.1794006692913386
20
0.0700087795275591
11
-0.1815342519685039
21
0.0732019291338583
0
LINE
8
BLACK
6
CONTINUOUS
10
-0.1815342519685039
20
0.0732019291338583
11
-0.1822834645669291
21
0.0769685039370079
0
LINE
8
BLACK
6
CONTINUOUS
10
-0.1822834645669291
20
0.0769685039370079
11
-0.1822834645669291
21
0.0966535433070866
0
LINE
8
BLACK
6
CONTINUOUS
10
-0.1822834645669291
20
0.0966535433070866
11
-0.1815342519685039
21
0.1004201181102362
0
LINE
8
BLACK
6
CONTINUOUS
10
-0.1815342519685039
20
0.1004201181102362
11
-0.1794006692913386
21
0.1036132677165354
0
LINE
8
BLACK
6
CONTINUOUS
10
-0.1794006692913386
20
0.1036132677165354
11
-0.1762075196850394
21
0.1057468503937008
0
LINE
8
BLACK
6
CONTINUOUS
10
-0.1762075196850394
20
0.1057468503937008
11
-0.1724409448818898
21
0.106496062992126
0
LINE
8
BLACK
6
CONTINUOUS
10
-0.1724409448818898
20
0.106496062992126
11
-0.0858267716535433
21
0.106496062992126
0
LINE
8
BLACK
6
CONTINUOUS
10
-0.0858267716535433
20
0.106496062992126
11
-0.0820601968503937
21
0.1057468503937008
0
LINE
8
BLACK
6
CONTINUOUS
10
0.7486484645669291
20
0.1057468503937008
11
0.7518416141732284
21
0.1036132677165354
0
LINE
8
BLACK
6
CONTINUOUS
10
0.7518416141732284
20
0.1036132677165354
11
0.7539751968503937
21
0.1004201181102362
0
LINE
8
BLACK
6
CONTINUOUS
10
0.7539751968503937
20
0.1004201181102362
11
0.7547244094488189
21
0.0966535433070866
0
LINE
8
BLACK
6
CONTINUOUS
10
0.7547244094488189
20
0.0966535433070866
11
0.7547244094488189
21
0.0769685039370079
0
LINE
8
BLACK
6
CONTINUOUS
10
0.7547244094488189
20
0.0769685039370079
11
0.7539751968503937
21
0.0732019291338583
0
LINE
8
BLACK
6
CONTINUOUS
10
0.7539751968503937
20
0.0732019291338583
11
0.7518416141732284
21
0.0700087795275591
0
LINE
8
BLACK
6
CONTINUOUS
10
0.7518416141732284
20
0.0700087795275591
11
0.7486484645669291
21
0.0678751968503937
0
LINE
8
BLACK
6
CONTINUOUS
10
0.7486484645669291
20
0.0678751968503937
11
0.7448818897637796
21
0.0671259842519685
0
LINE
8
BLACK
6
CONTINUOUS
10
0.7448818897637796
20
0.0671259842519685
11
0.658267716535433
21
0.0671259842519685
0
LINE
8
BLACK
6
CONTINUOUS
10
0.658267716535433
20
0.0671259842519685
11
0.6545011417322835
21
0.0678751968503937
0
LINE
8
BLACK
6
CONTINUOUS
10
0.6545011417322835
20
0.0678751968503937
11
0.6513079921259842
21
0.0700087795275591
0
LINE
8
BLACK
6
CONTINUOUS
10
0.6513079921259842
20
0.0700087795275591
11
0.6491744094488189
21
0.0732019291338583
0
LINE
8
BLACK
6
CONTINUOUS
10
0.6491744094488189
20
0.0732019291338583
11
0.6484251968503937
21
0.0769685039370079
0
LINE
8
BLACK
6
CONTINUOUS
10
0.6484251968503937
20
0.0769685039370079
11
0.6484251968503937
21
0.0966535433070866
0
LINE
8
BLACK
6
CONTINUOUS
10
0.6484251968503937
20
0.0966535433070866
11
0.6491744094488189
21
0.1004201181102362
0
LINE
8
BLACK
6
CONTINUOUS
10
0.6491744094488189
20
0.1004201181102362
11
0.6513079921259842
21
0.1036132677165354
0
LINE
8
BLACK
6
CONTINUOUS
10
0.6513079921259842
20
0.1036132677165354
11
0.6545011417322835
21
0.1057468503937008
0
LINE
8
BLACK
6
CONTINUOUS
10
0.6545011417322835
20
0.1057468503937008
11
0.658267716535433
21
0.106496062992126
0
LINE
8
BLACK
6
CONTINUOUS
10
0.658267716535433
20
0.106496062992126
11
0.7448818897637796
21
0.106496062992126
0
LINE
8
BLACK
6
CONTINUOUS
10
0.7448818897637796
20
0.106496062992126
11
0.7486484645669291
21
0.1057468503937008
0
LINE
8
BLACK
6
CONTINUOUS
10
0.2568583858267717
20
0.1384087401574803
11
0.258774251968504
21
0.1371285826771654
0
LINE
8
BLACK
6
CONTINUOUS
10
0.258774251968504
20
0.1371285826771654
11
0.2600544094488189
21
0.1352127165354331
0
LINE
8
BLACK
6
CONTINUOUS
10
0.2600544094488189
20
0.1352127165354331
11
0.260503937007874
21
0.1329527559055118
0
LINE
8
BLACK
6
CONTINUOUS
10
0.260503937007874
20
0.1329527559055118
11
0.260503937007874
21
0.0925984251968504
0
LINE
8
BLACK
6
CONTINUOUS
10
0.260503937007874
20
0.0925984251968504
11
0.2600544094488189
21
0.0903384645669291
0
LINE
8
BLACK
6
CONTINUOUS
10
0.2600544094488189
20
0.0903384645669291
11
0.258774251968504
21
0.0884225984251969
0
LINE
8
BLACK
6
CONTINUOUS
10
0.258774251968504
20
0.0884225984251969
11
0.2568583858267717
21
0.0871424409448819
0
LINE
8
BLACK
6
CONTINUOUS
10
0.2568583858267717
20
0.0871424409448819
11
0.2545984251968504
21
0.0866929133858268
0
LINE
8
BLACK
6
CONTINUOUS
10
0.2545984251968504
20
0.0866929133858268
11
0.2427874015748031
21
0.0866929133858268
0
LINE
8
BLACK
6
CONTINUOUS
10
0.2427874015748031
20
0.0866929133858268
11
0.2405274409448819
21
0.0871424409448819
0
LINE
8
BLACK
6
CONTINUOUS
10
0.2405274409448819
20
0.0871424409448819
11
0.2386115748031496
21
0.0884225984251969
0
LINE
8
BLACK
6
CONTINUOUS
10
0.2386115748031496
20
0.0884225984251969
11
0.2373314173228346
21
0.0903384645669291
0
LINE
8
BLACK
6
CONTINUOUS
10
0.2373314173228346
20
0.0903384645669291
11
0.2368818897637795
21
0.0925984251968504
0
LINE
8
BLACK
6
CONTINUOUS
10
0.2368818897637795
20
0.0925984251968504
11
0.2368818897637795
21
0.1329527559055118
0
LINE
8
BLACK
6
CONTINUOUS
10
0.2368818897637795
20
0.1329527559055118
11
0.2373314173228346
21
0.1352127165354331
0
LINE
8
BLACK
6
CONTINUOUS
10
0.2373314173228346
20
0.1352127165354331
11
0.2386115748031496
21
0.1371285826771654
0
LINE
8
BLACK
6
CONTINUOUS
10
0.2386115748031496
20
0.1371285826771654
11
0.2405274409448819
21
0.1384087401574803
0
LINE
8
BLACK
6
CONTINUOUS
10
0.2405274409448819
20
0.1384087401574803
11
0.2427874015748031
21
0.1388582677165354
0
LINE
8
BLACK
6
CONTINUOUS
10
0.2427874015748031
20
0.1388582677165354
11
0.2545984251968504
21
0.1388582677165354
0
LINE
8
BLACK
6
CONTINUOUS
10
0.2545984251968504
20
0.1388582677165354
11
0.2568583858267717
21
0.1384087401574803
0
LINE
8
BLACK
6
CONTINUOUS
10
0.2942599606299213
20
0.1384087401574803
11
0.2961758267716535
21
0.1371285826771654
0
LINE
8
BLACK
6
CONTINUOUS
10
0.2961758267716535
20
0.1371285826771654
11
0.2974559842519685
21
0.1352127165354331
0
LINE
8
BLACK
6
CONTINUOUS
10
0.2974559842519685
20
0.1352127165354331
11
0.2979055118110236
21
0.1329527559055118
0
LINE
8
BLACK
6
CONTINUOUS
10
0.2979055118110236
20
0.1329527559055118
11
0.2979055118110236
21
0.0925984251968504
0
LINE
8
BLACK
6
CONTINUOUS
10
0.2979055118110236
20
0.0925984251968504
11
0.2974559842519685
21
0.0903384645669291
0
LINE
8
BLACK
6
CONTINUOUS
10
0.2974559842519685
20
0.0903384645669291
11
0.2961758267716535
21
0.0884225984251969
0
LINE
8
BLACK
6
CONTINUOUS
10
0.2961758267716535
20
0.0884225984251969
11
0.2942599606299213
21
0.0871424409448819
0
LINE
8
BLACK
6
CONTINUOUS
10
0.2942599606299213
20
0.0871424409448819
11
0.292
21
0.0866929133858268
0
LINE
8
BLACK
6
CONTINUOUS
10
0.292
20
0.0866929133858268
11
0.2801889763779528
21
0.0866929133858268
0
LINE
8
BLACK
6
CONTINUOUS
10
0.2801889763779528
20
0.0866929133858268
11
0.2779290157480315
21
0.0871424409448819
0
LINE
8
BLACK
6
CONTINUOUS
10
0.2779290157480315
20
0.0871424409448819
11
0.2760131496062992
21
0.0884225984251969
0
LINE
8
BLACK
6
CONTINUOUS
10
0.2760131496062992
20
0.0884225984251969
11
0.2747329921259842
21
0.0903384645669291
0
LINE
8
BLACK
6
CONTINUOUS
10
0.2747329921259842
20
0.0903384645669291
11
0.2742834645669291
21
0.0925984251968504
0
LINE
8
BLACK
6
CONTINUOUS
10
0.2742834645669291
20
0.0925984251968504
11
0.2742834645669291
21
0.1329527559055118
0
LINE
8
BLACK
6
CONTINUOUS
10
0.2742834645669291
20
0.1329527559055118
11
0.2747329921259842
21
0.1352127165354331
0
LINE
8
BLACK
6
CONTINUOUS
10
0.2747329921259842
20
0.1352127165354331
11
0.2760131496062992
21
0.1371285826771654
0
LINE
8
BLACK
6
CONTINUOUS
10
0.2760131496062992
20
0.1371285826771654
11
0.2779290157480315
21
0.1384087401574803
0
LINE
8
BLACK
6
CONTINUOUS
10
0.2779290157480315
20
0.1384087401574803
11
0.2801889763779528
21
0.1388582677165354
0
LINE
8
BLACK
6
CONTINUOUS
10
0.2801889763779528
20
0.1388582677165354
11
0.292
21
0.1388582677165354
0
LINE
8
BLACK
6
CONTINUOUS
10
0.292
20
0.1388582677165354
11
0.2942599606299213
21
0.1384087401574803
0
LINE
8
BLACK
6
CONTINUOUS
10
0.3316615354330709
20
0.1384087401574803
11
0.3335774015748031
21
0.1371285826771654
0
LINE
8
BLACK
6
CONTINUOUS
10
0.3335774015748031
20
0.1371285826771654
11
0.3348575590551181
21
0.1352127165354331
0
LINE
8
BLACK
6
CONTINUOUS
10
0.3348575590551181
20
0.1352127165354331
11
0.3353070866141732
21
0.1329527559055118
0
LINE
8
BLACK
6
CONTINUOUS
10
0.3353070866141732
20
0.1329527559055118
11
0.3353070866141732
21
0.0925984251968504
0
LINE
8
BLACK
6
CONTINUOUS
10
0.3353070866141732
20
0.0925984251968504
11
0.3348575590551181
21
0.0903384645669291
0
LINE
8
BLACK
6
CONTINUOUS
10
0.3348575590551181
20
0.0903384645669291
11
0.3335774015748031
21
0.0884225984251969
0
LINE
8
BLACK
6
CONTINUOUS
10
0.3335774015748031
20
0.0884225984251969
11
0.3316615354330709
21
0.0871424409448819
0
LINE
8
BLACK
6
CONTINUOUS
10
0.3316615354330709
20
0.0871424409448819
11
0.3294015748031496
21
0.0866929133858268
0
LINE
8
BLACK
6
CONTINUOUS
10
0.3294015748031496
20
0.0866929133858268
11
0.3175905511811024
21
0.0866929133858268
0
LINE
8
BLACK
6
CONTINUOUS
10
0.3175905511811024
20
0.0866929133858268
11
0.3153305905511811
21
0.0871424409448819
0
LINE
8
BLACK
6
CONTINUOUS
10
0.3153305905511811
20
0.0871424409448819
11
0.3134147244094488
21
0.0884225984251969
0
LINE
8
BLACK
6
CONTINUOUS
10
0.3134147244094488
20
0.0884225984251969
11
0.3121345669291338
21
0.0903384645669291
0
LINE
8
BLACK
6
CONTINUOUS
10
0.3121345669291338
20
0.0903384645669291
11
0.3116850393700787
21
0.0925984251968504
0
LINE
8
BLACK
6
CONTINUOUS
10
0.3116850393700787
20
0.0925984251968504
11
0.3116850393700787
21
0.1329527559055118
0
LINE
8
BLACK
6
CONTINUOUS
10
0.3116850393700787
20
0.1329527559055118
11
0.3121345669291338
21
0.1352127165354331
0
LINE
8
BLACK
6
CONTINUOUS
10
0.3121345669291338
20
0.1352127165354331
11
0.3134147244094488
21
0.1371285826771654
0
LINE
8
BLACK
6
CONTINUOUS
10
0.3134147244094488
20
0.1371285826771654
11
0.3153305905511811
21
0.1384087401574803
0
LINE
8
BLACK
6
CONTINUOUS
10
0.3153305905511811
20
0.1384087401574803
11
0.3175905511811024
21
0.1388582677165354
0
LINE
8
BLACK
6
CONTINUOUS
10
0.3175905511811024
20
0.1388582677165354
11
0.3294015748031496
21
0.1388582677165354
0
LINE
8
BLACK
6
CONTINUOUS
10
0.3294015748031496
20
0.1388582677165354
11
0.3316615354330709
21
0.1384087401574803
0
LINE
8
BLACK
6
CONTINUOUS
10
0.0978740157480315
20
0.0931889763779528
11
0.0703149606299213
21
0.0931889763779528
0
LINE
8
BLACK
6
CONTINUOUS
10
0.0703149606299213
20
0.0931889763779528
11
0.0703149606299213
21
0.1168110236220472
0
LINE
8
BLACK
6
CONTINUOUS
10
0.0703149606299213
20
0.1168110236220472
11
0.0978740157480315
21
0.1168110236220472
0
LINE
8
BLACK
6
CONTINUOUS
10
0.0978740157480315
20
0.1168110236220472
11
0.0978740157480315
21
0.0931889763779528
0
LINE
8
BLACK
6
CONTINUOUS
10
0.4138308661417323
20
0.1410186220472441
11
0.4167046850393701
21
0.1390983858267716
0
LINE
8
BLACK
6
CONTINUOUS
10
0.4167046850393701
20
0.1390983858267716
11
0.4186249212598425
21
0.1362245669291338
0
LINE
8
BLACK
6
CONTINUOUS
10
0.4186249212598425
20
0.1362245669291338
11
0.4192992125984252
21
0.1328346456692913
0
LINE
8
BLACK
6
CONTINUOUS
10
0.4192992125984252
20
0.1328346456692913
11
0.4192992125984252
21
0.1131496062992126
0
LINE
8
BLACK
6
CONTINUOUS
10
0.4192992125984252
20
0.1131496062992126
11
0.4186249212598425
21
0.1097596850393701
0
LINE
8
BLACK
6
CONTINUOUS
10
0.4186249212598425
20
0.1097596850393701
11
0.4167046850393701
21
0.1068858661417323
0
LINE
8
BLACK
6
CONTINUOUS
10
0.4167046850393701
20
0.1068858661417323
11
0.4138308661417323
21
0.1049656299212598
0
LINE
8
BLACK
6
CONTINUOUS
10
0.4138308661417323
20
0.1049656299212598
11
0.4104409448818898
21
0.1042913385826772
0
LINE
8
BLACK
6
CONTINUOUS
10
0.4104409448818898
20
0.1042913385826772
11
0.3927244094488189
21
0.1042913385826772
0
LINE
8
BLACK
6
CONTINUOUS
10
0.3927244094488189
20
0.1042913385826772
11
0.3893344881889764
21
0.1049656299212598
0
LINE
8
BLACK
6
CONTINUOUS
10
0.3893344881889764
20
0.1049656299212598
11
0.3864606692913386
21
0.1068858661417323
0
LINE
8
BLACK
6
CONTINUOUS
10
0.3864606692913386
20
0.1068858661417323
11
0.3845404330708661
21
0.1097596850393701
0
LINE
8
BLACK
6
CONTINUOUS
10
0.3845404330708661
20
0.1097596850393701
11
0.3838661417322835
21
0.1131496062992126
0
LINE
8
BLACK
6
CONTINUOUS
10
0.3838661417322835
20
0.1131496062992126
11
0.3838661417322835
21
0.1328346456692913
0
LINE
8
BLACK
6
CONTINUOUS
10
0.3838661417322835
20
0.1328346456692913
11
0.3845404330708661
21
0.1362245669291338
0
LINE
8
BLACK
6
CONTINUOUS
10
0.3845404330708661
20
0.1362245669291338
11
0.3864606692913386
21
0.1390983858267716
0
LINE
8
BLACK
6
CONTINUOUS
10
0.3864606692913386
20
0.1390983858267716
11
0.3893344881889764
21
0.1410186220472441
0
LINE
8
BLACK
6
CONTINUOUS
10
0.3893344881889764
20
0.1410186220472441
11
0.3927244094488189
21
0.1416929133858268
0
LINE
8
BLACK
6
CONTINUOUS
10
0.3927244094488189
20
0.1416929133858268
11
0.4104409448818898
21
0.1416929133858268
0
LINE
8
BLACK
6
CONTINUOUS
10
0.4104409448818898
20
0.1416929133858268
11
0.4138308661417323
21
0.1410186220472441
0
LINE
8
BLACK
6
CONTINUOUS
10
0.4748544881889764
20
0.1410186220472441
11
0.4777283070866142
21
0.1390983858267716
0
LINE
8
BLACK
6
CONTINUOUS
10
0.4777283070866142
20
0.1390983858267716
11
0.4796485433070866
21
0.1362245669291338
0
LINE
8
BLACK
6
CONTINUOUS
10
0.4796485433070866
20
0.1362245669291338
11
0.4803228346456693
21
0.1328346456692913
0
LINE
8
BLACK
6
CONTINUOUS
10
0.4803228346456693
20
0.1328346456692913
11
0.4803228346456693
21
0.1131496062992126
0
LINE
8
BLACK
6
CONTINUOUS
10
0.4803228346456693
20
0.1131496062992126
11
0.4796485433070866
21
0.1097596850393701
0
LINE
8
BLACK
6
CONTINUOUS
10
0.4796485433070866
20
0.1097596850393701
11
0.4777283070866142
21
0.1068858661417323
0
LINE
8
BLACK
6
CONTINUOUS
10
0.4777283070866142
20
0.1068858661417323
11
0.4748544881889764
21
0.1049656299212598
0
LINE
8
BLACK
6
CONTINUOUS
10
0.4748544881889764
20
0.1049656299212598
11
0.4714645669291339
21
0.1042913385826772
0
LINE
8
BLACK
6
CONTINUOUS
10
0.4714645669291339
20
0.1042913385826772
11
0.453748031496063
21
0.1042913385826772
0
LINE
8
BLACK
6
CONTINUOUS
10
0.453748031496063
20
0.1042913385826772
11
0.4503581102362205
21
0.1049656299212598
0
LINE
8
BLACK
6
CONTINUOUS
10
0.4503581102362205
20
0.1049656299212598
11
0.4474842913385826
21
0.1068858661417323
0
LINE
8
BLACK
6
CONTINUOUS
10
0.4474842913385826
20
0.1068858661417323
11
0.4455640551181102
21
0.1097596850393701
0
LINE
8
BLACK
6
CONTINUOUS
10
0.4455640551181102
20
0.1097596850393701
11
0.4448897637795275
21
0.1131496062992126
0
LINE
8
BLACK
6
CONTINUOUS
10
0.4448897637795275
20
0.1131496062992126
11
0.4448897637795275
21
0.1328346456692913
0
LINE
8
BLACK
6
CONTINUOUS
10
0.4448897637795275
20
0.1328346456692913
11
0.4455640551181102
21
0.1362245669291338
0
LINE
8
BLACK
6
CONTINUOUS
10
0.4455640551181102
20
0.1362245669291338
11
0.4474842913385826
21
0.1390983858267716
0
LINE
8
BLACK
6
CONTINUOUS
10
0.4474842913385826
20
0.1390983858267716
11
0.4503581102362205
21
0.1410186220472441
0
LINE
8
BLACK
6
CONTINUOUS
10
0.4503581102362205
20
0.1410186220472441
11
0.453748031496063
21
0.1416929133858268
0
LINE
8
BLACK
6
CONTINUOUS
10
0.453748031496063
20
0.1416929133858268
11
0.4714645669291339
21
0.1416929133858268
0
LINE
8
BLACK
6
CONTINUOUS
10
0.4714645669291339
20
0.1416929133858268
11
0.4748544881889764
21
0.1410186220472441
0
LINE
8
BLACK
6
CONTINUOUS
10
0.1805618503937008
20
0.1718964566929134
11
0.183755
21
0.169762874015748
0
LINE
8
BLACK
6
CONTINUOUS
10
0.183755
20
0.169762874015748
11
0.1858885826771653
21
0.1665697244094488
0
LINE
8
BLACK
6
CONTINUOUS
10
0.1858885826771653
20
0.1665697244094488
11
0.1866377952755905
21
0.1628031496062992
0
LINE
8
BLACK
6
CONTINUOUS
10
0.1866377952755905
20
0.1628031496062992
11
0.1866377952755905
21
0.1431181102362205
0
LINE
8
BLACK
6
CONTINUOUS
10
0.1866377952755905
20
0.1431181102362205
11
0.1858885826771653
21
0.1393515354330709
0
LINE
8
BLACK
6
CONTINUOUS
10
0.1858885826771653
20
0.1393515354330709
11
0.183755
21
0.1361583858267716
0
LINE
8
BLACK
6
CONTINUOUS
10
0.183755
20
0.1361583858267716
11
0.1805618503937008
21
0.1340248031496063
0
LINE
8
BLACK
6
CONTINUOUS
10
0.1805618503937008
20
0.1340248031496063
11
0.1767952755905512
21
0.1332755905511811
0
LINE
8
BLACK
6
CONTINUOUS
10
0.1767952755905512
20
0.1332755905511811
11
0.1393937007874016
21
0.1332755905511811
0
LINE
8
BLACK
6
CONTINUOUS
10
0.1393937007874016
20
0.1332755905511811
11
0.135627125984252
21
0.1340248031496063
0
LINE
8
BLACK
6
CONTINUOUS
10
0.135627125984252
20
0.1340248031496063
11
0.1324339763779528
21
0.1361583858267716
0
LINE
8
BLACK
6
CONTINUOUS
10
0.1324339763779528
20
0.1361583858267716
11
0.1303003937007874
21
0.1393515354330709
0
LINE
8
BLACK
6
CONTINUOUS
10
0.1303003937007874
20
0.1393515354330709
11
0.1295511811023622
21
0.1431181102362205
0
LINE
8
BLACK
6
CONTINUOUS
10
0.1295511811023622
20
0.1431181102362205
11
0.1295511811023622
21
0.1628031496062992
0
LINE
8
BLACK
6
CONTINUOUS
10
0.1295511811023622
20
0.1628031496062992
11
0.1303003937007874
21
0.1665697244094488
0
LINE
8
BLACK
6
CONTINUOUS
10
0.1303003937007874
20
0.1665697244094488
11
0.1324339763779528
21
0.169762874015748
0
LINE
8
BLACK
6
CONTINUOUS
10
0.1324339763779528
20
0.169762874015748
11
0.135627125984252
21
0.1718964566929134
0
LINE
8
BLACK
6
CONTINUOUS
10
0.135627125984252
20
0.1718964566929134
11
0.1393937007874016
21
0.1726456692913386
0
LINE
8
BLACK
6
CONTINUOUS
10
0.1393937007874016
20
0.1726456692913386
11
0.1767952755905512
21
0.1726456692913386
0
LINE
8
BLACK
6
CONTINUOUS
10
0.1767952755905512
20
0.1726456692913386
11
0.1805618503937008
21
0.1718964566929134
0
LINE
8
BLACK
6
CONTINUOUS
10
0.0266694094488189
20
0.1710071653543307
11
0.0285852755905512
21
0.1697270078740157
0
LINE
8
BLACK
6
CONTINUOUS
10
0.0285852755905512
20
0.1697270078740157
11
0.0298654330708661
21
0.1678111417322835
0
LINE
8
BLACK
6
CONTINUOUS
10
0.0298654330708661
20
0.1678111417322835
11
0.0303149606299213
21
0.1655511811023622
0
LINE
8
BLACK
6
CONTINUOUS
10
0.0303149606299213
20
0.1655511811023622
11
0.0303149606299213
21
0.153740157480315
0
LINE
8
BLACK
6
CONTINUOUS
10
0.0303149606299213
20
0.153740157480315
11
0.0298654330708661
21
0.1514801968503937
0
LINE
8
BLACK
6
CONTINUOUS
10
0.0298654330708661
20
0.1514801968503937
11
0.0285852755905512
21
0.1495643307086614
0
LINE
8
BLACK
6
CONTINUOUS
10
0.0285852755905512
20
0.1495643307086614
11
0.0266694094488189
21
0.1482841732283464
0
LINE
8
BLACK
6
CONTINUOUS
10
0.0266694094488189
20
0.1482841732283464
11
0.0244094488188976
21
0.1478346456692913
0
LINE
8
BLACK
6
CONTINUOUS
10
0.0244094488188976
20
0.1478346456692913
11
-0.0307086614173228
21
0.1478346456692913
0
LINE
8
BLACK
6
CONTINUOUS
10
-0.0307086614173228
20
0.1478346456692913
11
-0.0329686220472441
21
0.1482841732283464
0
LINE
8
BLACK
6
CONTINUOUS
10
-0.0329686220472441
20
0.1482841732283464
11
-0.0348844881889764
21
0.1495643307086614
0
LINE
8
BLACK
6
CONTINUOUS
10
-0.0348844881889764
20
0.1495643307086614
11
-0.0361646456692913
21
0.1514801968503937
0
LINE
8
BLACK
6
CONTINUOUS
10
-0.0361646456692913
20
0.1514801968503937
11
-0.0366141732283465
21
0.153740157480315
0
LINE
8
BLACK
6
CONTINUOUS
10
-0.0366141732283465
20
0.153740157480315
11
-0.0366141732283465
21
0.1655511811023622
0
LINE
8
BLACK
6
CONTINUOUS
10
-0.0366141732283465
20
0.1655511811023622
11
-0.0361646456692913
21
0.1678111417322835
0
LINE
8
BLACK
6
CONTINUOUS
10
-0.0361646456692913
20
0.1678111417322835
11
-0.0348844881889764
21
0.1697270078740157
0
LINE
8
BLACK
6
CONTINUOUS
10
-0.0348844881889764
20
0.1697270078740157
11
-0.0329686220472441
21
0.1710071653543307
0
LINE
8
BLACK
6
CONTINUOUS
10
-0.0329686220472441
20
0.1710071653543307
11
-0.0307086614173228
21
0.1714566929133858
0
LINE
8
BLACK
6
CONTINUOUS
10
-0.0307086614173228
20
0.1714566929133858
11
0.0244094488188976
21
0.1714566929133858
0
LINE
8
BLACK
6
CONTINUOUS
10
0.0244094488188976
20
0.1714566929133858
11
0.0266694094488189
21
0.1710071653543307
0
LINE
8
BLACK
6
CONTINUOUS
10
0.6054095669291338
20
0.1710071653543307
11
0.6073254330708662
21
0.1697270078740157
0
LINE
8
BLACK
6
CONTINUOUS
10
0.6073254330708662
20
0.1697270078740157
11
0.6086055905511811
21
0.1678111417322835
0
LINE
8
BLACK
6
CONTINUOUS
10
0.6086055905511811
20
0.1678111417322835
11
0.6090551181102362
21
0.1655511811023622
0
LINE
8
BLACK
6
CONTINUOUS
10
0.6090551181102362
20
0.1655511811023622
11
0.6090551181102362
21
0.153740157480315
0
LINE
8
BLACK
6
CONTINUOUS
10
0.6090551181102362
20
0.153740157480315
11
0.6086055905511811
21
0.1514801968503937
0
LINE
8
BLACK
6
CONTINUOUS
10
0.6086055905511811
20
0.1514801968503937
11
0.6073254330708662
21
0.1495643307086614
0
LINE
8
BLACK
6
CONTINUOUS
10
0.6073254330708662
20
0.1495643307086614
11
0.6054095669291338
21
0.1482841732283464
0
LINE
8
BLACK
6
CONTINUOUS
10
0.6054095669291338
20
0.1482841732283464
11
0.6031496062992125
21
0.1478346456692913
0
LINE
8
BLACK
6
CONTINUOUS
10
0.6031496062992125
20
0.1478346456692913
11
0.5480314960629921
21
0.1478346456692913
0
LINE
8
BLACK
6
CONTINUOUS
10
0.5480314960629921
20
0.1478346456692913
11
0.5457715354330709
21
0.1482841732283464
0
LINE
8
BLACK
6
CONTINUOUS
10
0.5457715354330709
20
0.1482841732283464
11
0.5438556692913386
21
0.1495643307086614
0
LINE
8
BLACK
6
CONTINUOUS
10
0.5438556692913386
20
0.1495643307086614
11
0.5425755118110236
21
0.1514801968503937
0
LINE
8
BLACK
6
CONTINUOUS
10
0.5425755118110236
20
0.1514801968503937
11
0.5421259842519685
21
0.153740157480315
0
LINE
8
BLACK
6
CONTINUOUS
10
0.5421259842519685
20
0.153740157480315
11
0.5421259842519685
21
0.1655511811023622
0
LINE
8
BLACK
6
CONTINUOUS
10
0.5421259842519685
20
0.1655511811023622
11
0.5425755118110236
21
0.1678111417322835
0
LINE
8
BLACK
6
CONTINUOUS
10
0.5425755118110236
20
0.1678111417322835
11
0.5438556692913386
21
0.1697270078740157
0
LINE
8
BLACK
6
CONTINUOUS
10
0.5438556692913386
20
0.1697270078740157
11
0.5457715354330709
21
0.1710071653543307
0
LINE
8
BLACK
6
CONTINUOUS
10
0.5457715354330709
20
0.1710071653543307
11
0.5480314960629921
21
0.1714566929133858
0
LINE
8
BLACK
6
CONTINUOUS
10
0.5480314960629921
20
0.1714566929133858
11
0.6031496062992125
21
0.1714566929133858
0
LINE
8
BLACK
6
CONTINUOUS
10
0.6031496062992125
20
0.1714566929133858
11
0.6054095669291338
21
0.1710071653543307
0
LINE
8
BLACK
6
CONTINUOUS
10
0.0978740157480315
20
0.1483070866141732
11
0.0703149606299213
21
0.1483070866141732
0
LINE
8
BLACK
6
CONTINUOUS
10
0.0703149606299213
20
0.1483070866141732
11
0.0703149606299213
21
0.1719291338582677
0
LINE
8
BLACK
6
CONTINUOUS
10
0.0703149606299213
20
0.1719291338582677
11
0.0978740157480315
21
0.1719291338582677
0
LINE
8
BLACK
6
CONTINUOUS
10
0.0978740157480315
20
0.1719291338582677
11
0.0978740157480315
21
0.1483070866141732
0
LINE
8
BLACK
6
CONTINUOUS
10
0.2568583858267717
20
0.2279756692913386
11
0.258774251968504
21
0.2266955118110236
0
LINE
8
BLACK
6
CONTINUOUS
10
0.258774251968504
20
0.2266955118110236
11
0.2600544094488189
21
0.2247796456692913
0
LINE
8
BLACK
6
CONTINUOUS
10
0.2600544094488189
20
0.2247796456692913
11
0.260503937007874
21
0.2225196850393701
0
LINE
8
BLACK
6
CONTINUOUS
10
0.260503937007874
20
0.2225196850393701
11
0.260503937007874
21
0.1821653543307087
0
LINE
8
BLACK
6
CONTINUOUS
10
0.260503937007874
20
0.1821653543307087
11
0.2600544094488189
21
0.1799053937007874
0
LINE
8
BLACK
6
CONTINUOUS
10
0.2600544094488189
20
0.1799053937007874
11
0.258774251968504
21
0.1779895275590551
0
LINE
8
BLACK
6
CONTINUOUS
10
0.258774251968504
20
0.1779895275590551
11
0.2568583858267717
21
0.1767093700787402
0
LINE
8
BLACK
6
CONTINUOUS
10
0.2568583858267717
20
0.1767093700787402
11
0.2545984251968504
21
0.176259842519685
0
LINE
8
BLACK
6
CONTINUOUS
10
0.2545984251968504
20
0.176259842519685
11
0.2427874015748031
21
0.176259842519685
0
LINE
8
BLACK
6
CONTINUOUS
10
0.2427874015748031
20
0.176259842519685
11
0.2405274409448819
21
0.1767093700787402
0
LINE
8
BLACK
6
CONTINUOUS
10
0.2405274409448819
20
0.1767093700787402
11
0.2386115748031496
21
0.1779895275590551
0
LINE
8
BLACK
6
CONTINUOUS
10
0.2386115748031496
20
0.1779895275590551
11
0.2373314173228346
21
0.1799053937007874
0
LINE
8
BLACK
6
CONTINUOUS
10
0.2373314173228346
20
0.1799053937007874
11
0.2368818897637795
21
0.1821653543307087
0
LINE
8
BLACK
6
CONTINUOUS
10
0.2368818897637795
20
0.1821653543307087
11
0.2368818897637795
21
0.2225196850393701
0
LINE
8
BLACK
6
CONTINUOUS
10
0.2368818897637795
20
0.2225196850393701
11
0.2373314173228346
21
0.2247796456692913
0
LINE
8
BLACK
6
CONTINUOUS
10
0.2373314173228346
20
0.2247796456692913
11
0.2386115748031496
21
0.2266955118110236
0
LINE
8
BLACK
6
CONTINUOUS
10
0.2386115748031496
20
0.2266955118110236
11
0.2405274409448819
21
0.2279756692913386
0
LINE
8
BLACK
6
CONTINUOUS
10
0.2405274409448819
20
0.2279756692913386
11
0.2427874015748031
21
0.2284251968503937
0
LINE
8
BLACK
6
CONTINUOUS
10
0.2427874015748031
20
0.2284251968503937
11
0.2545984251968504
21
0.2284251968503937
0
LINE
8
BLACK
6
CONTINUOUS
10
0.2545984251968504
20
0.2284251968503937
11
0.2568583858267717
21
0.2279756692913386
0
LINE
8
BLACK
6
CONTINUOUS
10
0.3316615354330709
20
0.2279756692913386
11
0.3335774015748031
21
0.2266955118110236
0
LINE
8
BLACK
6
CONTINUOUS
10
0.3335774015748031
20
0.2266955118110236
11
0.3348575590551181
21
0.2247796456692913
0
LINE
8
BLACK
6
CONTINUOUS
10
0.3348575590551181
20
0.2247796456692913
11
0.3353070866141732
21
0.2225196850393701
0
LINE
8
BLACK
6
CONTINUOUS
10
0.3353070866141732
20
0.2225196850393701
11
0.3353070866141732
21
0.1821653543307087
0
LINE
8
BLACK
6
CONTINUOUS
10
0.3353070866141732
20
0.1821653543307087
11
0.3348575590551181
21
0.1799053937007874
0
LINE
8
BLACK
6
CONTINUOUS
10
0.3348575590551181
20
0.1799053937007874
11
0.3335774015748031
21
0.1779895275590551
0
LINE
8
BLACK
6
CONTINUOUS
10
0.3335774015748031
20
0.1779895275590551
11
0.3316615354330709
21
0.1767093700787402
0
LINE
8
BLACK
6
CONTINUOUS
10
0.3316615354330709
20
0.1767093700787402
11
0.3294015748031496
21
0.176259842519685
0
LINE
8
BLACK
6
CONTINUOUS
10
0.3294015748031496
20
0.176259842519685
11
0.3175905511811024
21
0.176259842519685
0
LINE
8
BLACK
6
CONTINUOUS
10
0.3175905511811024
20
0.176259842519685
11
0.3153305905511811
21
0.1767093700787402
0
LINE
8
BLACK
6
CONTINUOUS
10
0.3153305905511811
20
0.1767093700787402
11
0.3134147244094488
21
0.1779895275590551
0
LINE
8
BLACK
6
CONTINUOUS
10
0.3134147244094488
20
0.1779895275590551
11
0.3121345669291338
21
0.1799053937007874
0
LINE
8
BLACK
6
CONTINUOUS
10
0.3121345669291338
20
0.1799053937007874
11
0.3116850393700787
21
0.1821653543307087
0
LINE
8
BLACK
6
CONTINUOUS
10
0.3116850393700787
20
0.1821653543307087
11
0.3116850393700787
21
0.2225196850393701
0
LINE
8
BLACK
6
CONTINUOUS
10
0.3116850393700787
20
0.2225196850393701
11
0.3121345669291338
21
0.2247796456692913
0
LINE
8
BLACK
6
CONTINUOUS
10
0.3121345669291338
20
0.2247796456692913
11
0.3134147244094488
21
0.2266955118110236
0
LINE
8
BLACK
6
CONTINUOUS
10
0.3134147244094488
20
0.2266955118110236
11
0.3153305905511811
21
0.2279756692913386
0
LINE
8
BLACK
6
CONTINUOUS
10
0.3153305905511811
20
0.2279756692913386
11
0.3175905511811024
21
0.2284251968503937
0
LINE
8
BLACK
6
CONTINUOUS
10
0.3175905511811024
20
0.2284251968503937
11
0.3294015748031496
21
0.2284251968503937
0
LINE
8
BLACK
6
CONTINUOUS
10
0.3294015748031496
20
0.2284251968503937
11
0.3316615354330709
21
0.2279756692913386
0
LINE
8
BLACK
6
CONTINUOUS
10
0.4419345275590551
20
0.2137470866141732
11
0.4444890157480315
21
0.2120401968503937
0
LINE
8
BLACK
6
CONTINUOUS
10
0.4444890157480315
20
0.2120401968503937
11
0.446195905511811
21
0.2094857086614173
0
LINE
8
BLACK
6
CONTINUOUS
10
0.446195905511811
20
0.2094857086614173
11
0.4467952755905512
21
0.2064724409448819
0
LINE
8
BLACK
6
CONTINUOUS
10
0.4467952755905512
20
0.2064724409448819
11
0.4467952755905512
21
0.1907244094488189
0
LINE
8
BLACK
6
CONTINUOUS
10
0.4467952755905512
20
0.1907244094488189
11
0.446195905511811
21
0.1877111417322835
0
LINE
8
BLACK
6
CONTINUOUS
10
0.446195905511811
20
0.1877111417322835
11
0.4444890157480315
21
0.1851566535433071
0
LINE
8
BLACK
6
CONTINUOUS
10
0.4444890157480315
20
0.1851566535433071
11
0.4419345275590551
21
0.1834497637795275
0
LINE
8
BLACK
6
CONTINUOUS
10
0.4419345275590551
20
0.1834497637795275
11
0.4389212598425197
21
0.1828503937007874
0
LINE
8
BLACK
6
CONTINUOUS
10
0.4389212598425197
20
0.1828503937007874
11
0.417267716535433
21
0.1828503937007874
0
LINE
8
BLACK
6
CONTINUOUS
10
0.417267716535433
20
0.1828503937007874
11
0.4142544488188976
21
0.1834497637795275
0
LINE
8
BLACK
6
CONTINUOUS
10
0.4142544488188976
20
0.1834497637795275
11
0.4116999606299213
21
0.1851566535433071
0
LINE
8
BLACK
6
CONTINUOUS
10
0.4116999606299213
20
0.1851566535433071
11
0.4099930708661417
21
0.1877111417322835
0
LINE
8
BLACK
6
CONTINUOUS
10
0.4099930708661417
20
0.1877111417322835
11
0.4093937007874016
21
0.1907244094488189
0
LINE
8
BLACK
6
CONTINUOUS
10
0.4093937007874016
20
0.1907244094488189
11
0.4093937007874016
21
0.2064724409448819
0
LINE
8
BLACK
6
CONTINUOUS
10
0.4093937007874016
20
0.2064724409448819
11
0.4099930708661417
21
0.2094857086614173
0
LINE
8
BLACK
6
CONTINUOUS
10
0.4099930708661417
20
0.2094857086614173
11
0.4116999606299213
21
0.2120401968503937
0
LINE
8
BLACK
6
CONTINUOUS
10
0.4116999606299213
20
0.2120401968503937
11
0.4142544488188976
21
0.2137470866141732
0
LINE
8
BLACK
6
CONTINUOUS
10
0.4142544488188976
20
0.2137470866141732
11
0.417267716535433
21
0.2143464566929134
0
LINE
8
BLACK
6
CONTINUOUS
10
0.417267716535433
20
0.2143464566929134
11
0.4389212598425197
21
0.2143464566929134
0
LINE
8
BLACK
6
CONTINUOUS
10
0.4389212598425197
20
0.2143464566929134
11
0.4419345275590551
21
0.2137470866141732
0
LINE
8
BLACK
6
CONTINUOUS
10
0.5079345275590551
20
0.2147077165354331
11
0.5104890157480315
21
0.2130008267716536
0
LINE
8
BLACK
6
CONTINUOUS
10
0.5104890157480315
20
0.2130008267716536
11
0.512195905511811
21
0.2104463385826772
0
LINE
8
BLACK
6
CONTINUOUS
10
0.512195905511811
20
0.2104463385826772
11
0.5127952755905512
21
0.2074330708661417
0
LINE
8
BLACK
6
CONTINUOUS
10
0.5127952755905512
20
0.2074330708661417
11
0.5127952755905512
21
0.1916850393700787
0
LINE
8
BLACK
6
CONTINUOUS
10
0.5127952755905512
20
0.1916850393700787
11
0.512195905511811
21
0.1886717716535433
0
LINE
8
BLACK
6
CONTINUOUS
10
0.512195905511811
20
0.1886717716535433
11
0.5104890157480315
21
0.1861172834645669
0
LINE
8
BLACK
6
CONTINUOUS
10
0.5104890157480315
20
0.1861172834645669
11
0.5079345275590551
21
0.1844103937007874
0
LINE
8
BLACK
6
CONTINUOUS
10
0.5079345275590551
20
0.1844103937007874
11
0.5049212598425197
21
0.1838110236220472
0
LINE
8
BLACK
6
CONTINUOUS
10
0.5049212598425197
20
0.1838110236220472
11
0.483267716535433
21
0.1838110236220472
0
LINE
8
BLACK
6
CONTINUOUS
10
0.483267716535433
20
0.1838110236220472
11
0.4802544488188976
21
0.1844103937007874
0
LINE
8
BLACK
6
CONTINUOUS
10
0.4802544488188976
20
0.1844103937007874
11
0.4776999606299213
21
0.1861172834645669
0
LINE
8
BLACK
6
CONTINUOUS
10
0.4776999606299213
20
0.1861172834645669
11
0.4759930708661417
21
0.1886717716535433
0
LINE
8
BLACK
6
CONTINUOUS
10
0.4759930708661417
20
0.1886717716535433
11
0.4753937007874016
21
0.1916850393700787
0
LINE
8
BLACK
6
CONTINUOUS
10
0.4753937007874016
20
0.1916850393700787
11
0.4753937007874016
21
0.2074330708661417
0
LINE
8
BLACK
6
CONTINUOUS
10
0.4753937007874016
20
0.2074330708661417
11
0.4759930708661417
21
0.2104463385826772
0
LINE
8
BLACK
6
CONTINUOUS
10
0.4759930708661417
20
0.2104463385826772
11
0.4776999606299213
21
0.2130008267716536
0
LINE
8
BLACK
6
CONTINUOUS
10
0.4776999606299213
20
0.2130008267716536
11
0.4802544488188976
21
0.2147077165354331
0
LINE
8
BLACK
6
CONTINUOUS
10
0.4802544488188976
20
0.2147077165354331
11
0.483267716535433
21
0.2153070866141732
0
LINE
8
BLACK
6
CONTINUOUS
10
0.483267716535433
20
0.2153070866141732
11
0.5049212598425197
21
0.2153070866141732
0
LINE
8
BLACK
6
CONTINUOUS
10
0.5049212598425197
20
0.2153070866141732
11
0.5079345275590551
21
0.2147077165354331
0
LINE
8
BLACK
6
CONTINUOUS
10
0.0266694094488189
20
0.2202197637795276
11
0.0285852755905512
21
0.2189396062992126
0
LINE
8
BLACK
6
CONTINUOUS
10
0.0285852755905512
20
0.2189396062992126
11
0.0298654330708661
21
0.2170237401574803
0
LINE
8
BLACK
6
CONTINUOUS
10
0.0298654330708661
20
0.2170237401574803
11
0.0303149606299213
21
0.214763779527559
0
LINE
8
BLACK
6
CONTINUOUS
10
0.0303149606299213
20
0.214763779527559
11
0.0303149606299213
21
0.2029527559055118
0
LINE
8
BLACK
6
CONTINUOUS
10
0.0303149606299213
20
0.2029527559055118
11
0.0298654330708661
21
0.2006927952755906
0
LINE
8
BLACK
6
CONTINUOUS
10
0.0298654330708661
20
0.2006927952755906
11
0.0285852755905512
21
0.1987769291338583
0
LINE
8
BLACK
6
CONTINUOUS
10
0.0285852755905512
20
0.1987769291338583
11
0.0266694094488189
21
0.1974967716535433
0
LINE
8
BLACK
6
CONTINUOUS
10
0.0266694094488189
20
0.1974967716535433
11
0.0244094488188976
21
0.1970472440944882
0
LINE
8
BLACK
6
CONTINUOUS
10
0.0244094488188976
20
0.1970472440944882
11
-0.0307086614173228
21
0.1970472440944882
0
LINE
8
BLACK
6
CONTINUOUS
10
-0.0307086614173228
20
0.1970472440944882
11
-0.0329686220472441
21
0.1974967716535433
0
LINE
8
BLACK
6
CONTINUOUS
10
-0.0329686220472441
20
0.1974967716535433
11
-0.0348844881889764
21
0.1987769291338583
0
LINE
8
BLACK
6
CONTINUOUS
10
-0.0348844881889764
20
0.1987769291338583
11
-0.0361646456692913
21
0.2006927952755906
0
LINE
8
BLACK
6
CONTINUOUS
10
-0.0361646456692913
20
0.2006927952755906
11
-0.0366141732283465
21
0.2029527559055118
0
LINE
8
BLACK
6
CONTINUOUS
10
-0.0366141732283465
20
0.2029527559055118
11
-0.0366141732283465
21
0.214763779527559
0
LINE
8
BLACK
6
CONTINUOUS
10
-0.0366141732283465
20
0.214763779527559
11
-0.0361646456692913
21
0.2170237401574803
0
LINE
8
BLACK
6
CONTINUOUS
10
-0.0361646456692913
20
0.2170237401574803
11
-0.0348844881889764
21
0.2189396062992126
0
LINE
8
BLACK
6
CONTINUOUS
10
-0.0348844881889764
20
0.2189396062992126
11
-0.0329686220472441
21
0.2202197637795276
0
LINE
8
BLACK
6
CONTINUOUS
10
-0.0329686220472441
20
0.2202197637795276
11
-0.0307086614173228
21
0.2206692913385827
0
LINE
8
BLACK
6
CONTINUOUS
10
-0.0307086614173228
20
0.2206692913385827
11
0.0244094488188976
21
0.2206692913385827
0
LINE
8
BLACK
6
CONTINUOUS
10
0.0244094488188976
20
0.2206692913385827
11
0.0266694094488189
21
0.2202197637795276
0
LINE
8
BLACK
6
CONTINUOUS
10
0.6054095669291338
20
0.2202197637795276
11
0.6073254330708662
21
0.2189396062992126
0
LINE
8
BLACK
6
CONTINUOUS
10
0.6073254330708662
20
0.2189396062992126
11
0.6086055905511811
21
0.2170237401574803
0
LINE
8
BLACK
6
CONTINUOUS
10
0.6086055905511811
20
0.2170237401574803
11
0.6090551181102362
21
0.214763779527559
0
LINE
8
BLACK
6
CONTINUOUS
10
0.6090551181102362
20
0.214763779527559
11
0.6090551181102362
21
0.2029527559055118
0
LINE
8
BLACK
6
CONTINUOUS
10
0.6090551181102362
20
0.2029527559055118
11
0.6086055905511811
21
0.2006927952755906
0
LINE
8
BLACK
6
CONTINUOUS
10
0.6086055905511811
20
0.2006927952755906
11
0.6073254330708662
21
0.1987769291338583
0
LINE
8
BLACK
6
CONTINUOUS
10
0.6073254330708662
20
0.1987769291338583
11
0.6054095669291338
21
0.1974967716535433
0
LINE
8
BLACK
6
CONTINUOUS
10
0.6054095669291338
20
0.1974967716535433
11
0.6031496062992125
21
0.1970472440944882
0
LINE
8
BLACK
6
CONTINUOUS
10
0.6031496062992125
20
0.1970472440944882
11
0.5480314960629921
21
0.1970472440944882
0
LINE
8
BLACK
6
CONTINUOUS
10
0.5480314960629921
20
0.1970472440944882
11
0.5457715354330709
21
0.1974967716535433
0
LINE
8
BLACK
6
CONTINUOUS
10
0.5457715354330709
20
0.1974967716535433
11
0.5438556692913386
21
0.1987769291338583
0
LINE
8
BLACK
6
CONTINUOUS
10
0.5438556692913386
20
0.1987769291338583
11
0.5425755118110236
21
0.2006927952755906
0
LINE
8
BLACK
6
CONTINUOUS
10
0.5425755118110236
20
0.2006927952755906
11
0.5421259842519685
21
0.2029527559055118
0
LINE
8
BLACK
6
CONTINUOUS
10
0.5421259842519685
20
0.2029527559055118
11
0.5421259842519685
21
0.214763779527559
0
LINE
8
BLACK
6
CONTINUOUS
10
0.5421259842519685
20
0.214763779527559
11
0.5425755118110236
21
0.2170237401574803
0
LINE
8
BLACK
6
CONTINUOUS
10
0.5425755118110236
20
0.2170237401574803
11
0.5438556692913386
21
0.2189396062992126
0
LINE
8
BLACK
6
CONTINUOUS
10
0.5438556692913386
20
0.2189396062992126
11
0.5457715354330709
21
0.2202197637795276
0
LINE
8
BLACK
6
CONTINUOUS
10
0.5457715354330709
20
0.2202197637795276
11
0.5480314960629921
21
0.2206692913385827
0
LINE
8
BLACK
6
CONTINUOUS
10
0.5480314960629921
20
0.2206692913385827
11
0.6031496062992125
21
0.2206692913385827
0
LINE
8
BLACK
6
CONTINUOUS
10
0.6031496062992125
20
0.2206692913385827
11
0.6054095669291338
21
0.2202197637795276
0
LINE
8
BLACK
6
CONTINUOUS
10
0.1224394488188976
20
0.2387145275590551
11
0.1252334645669291
21
0.2368476377952756
0
LINE
8
BLACK
6
CONTINUOUS
10
0.1252334645669291
20
0.2368476377952756
11
0.1271003543307087
21
0.2340536220472441
0
LINE
8
BLACK
6
CONTINUOUS
10
0.1271003543307087
20
0.2340536220472441
11
0.127755905511811
21
0.230757874015748
0
LINE
8
BLACK
6
CONTINUOUS
10
0.127755905511811
20
0.230757874015748
11
0.127755905511811
21
0.2135334645669291
0
LINE
8
BLACK
6
CONTINUOUS
10
0.127755905511811
20
0.2135334645669291
11
0.1271003543307087
21
0.2102377165354331
0
LINE
8
BLACK
6
CONTINUOUS
10
0.1271003543307087
20
0.2102377165354331
11
0.1252334645669291
21
0.2074437007874016
0
LINE
8
BLACK
6
CONTINUOUS
10
0.1252334645669291
20
0.2074437007874016
11
0.1224394488188976
21
0.205576811023622
0
LINE
8
BLACK
6
CONTINUOUS
10
0.1224394488188976
20
0.205576811023622
11
0.1191437007874016
21
0.2049212598425197
0
LINE
8
BLACK
6
CONTINUOUS
10
0.1191437007874016
20
0.2049212598425197
11
0.0989665354330709
21
0.2049212598425197
0
LINE
8
BLACK
6
CONTINUOUS
10
0.0989665354330709
20
0.2049212598425197
11
0.0956707874015748
21
0.205576811023622
0
LINE
8
BLACK
6
CONTINUOUS
10
0.0956707874015748
20
0.205576811023622
11
0.0928767716535433
21
0.2074437007874016
0
LINE
8
BLACK
6
CONTINUOUS
10
0.0928767716535433
20
0.2074437007874016
11
0.0910098818897638
21
0.2102377165354331
0
LINE
8
BLACK
6
CONTINUOUS
10
0.0910098818897638
20
0.2102377165354331
11
0.0903543307086614
21
0.2135334645669291
0
LINE
8
BLACK
6
CONTINUOUS
10
0.0903543307086614
20
0.2135334645669291
11
0.0903543307086614
21
0.230757874015748
0
LINE
8
BLACK
6
CONTINUOUS
10
0.0903543307086614
20
0.230757874015748
11
0.0910098818897638
21
0.2340536220472441
0
LINE
8
BLACK
6
CONTINUOUS
10
0.0910098818897638
20
0.2340536220472441
11
0.0928767716535433
21
0.2368476377952756
0
LINE
8
BLACK
6
CONTINUOUS
10
0.0928767716535433
20
0.2368476377952756
11
0.0956707874015748
21
0.2387145275590551
0
LINE
8
BLACK
6
CONTINUOUS
10
0.0956707874015748
20
0.2387145275590551
11
0.0989665354330709
21
0.2393700787401575
0
LINE
8
BLACK
6
CONTINUOUS
10
0.0989665354330709
20
0.2393700787401575
11
0.1191437007874016
21
0.2393700787401575
0
LINE
8
BLACK
6
CONTINUOUS
10
0.1191437007874016
20
0.2393700787401575
11
0.1224394488188976
21
0.2387145275590551
0
LINE
8
BLACK
6
CONTINUOUS
10
0.1939345275590551
20
0.2382274015748032
11
0.1964890157480315
21
0.2365205118110236
0
LINE
8
BLACK
6
CONTINUOUS
10
0.1964890157480315
20
0.2365205118110236
11
0.198195905511811
21
0.2339660236220472
0
LINE
8
BLACK
6
CONTINUOUS
10
0.198195905511811
20
0.2339660236220472
11
0.1987952755905512
21
0.2309527559055118
0
LINE
8
BLACK
6
CONTINUOUS
10
0.1987952755905512
20
0.2309527559055118
11
0.1987952755905512
21
0.2152047244094488
0
LINE
8
BLACK
6
CONTINUOUS
10
0.1987952755905512
20
0.2152047244094488
11
0.198195905511811
21
0.2121914566929134
0
LINE
8
BLACK
6
CONTINUOUS
10
0.198195905511811
20
0.2121914566929134
11
0.1964890157480315
21
0.209636968503937
0
LINE
8
BLACK
6
CONTINUOUS
10
0.1964890157480315
20
0.209636968503937
11
0.1939345275590551
21
0.2079300787401575
0
LINE
8
BLACK
6
CONTINUOUS
10
0.1939345275590551
20
0.2079300787401575
11
0.1909212598425197
21
0.2073307086614173
0
LINE
8
BLACK
6
CONTINUOUS
10
0.1909212598425197
20
0.2073307086614173
11
0.1692677165354331
21
0.2073307086614173
0
LINE
8
BLACK
6
CONTINUOUS
10
0.1692677165354331
20
0.2073307086614173
11
0.1662544488188976
21
0.2079300787401575
0
LINE
8
BLACK
6
CONTINUOUS
10
0.1662544488188976
20
0.2079300787401575
11
0.1636999606299213
21
0.209636968503937
0
LINE
8
BLACK
6
CONTINUOUS
10
0.1636999606299213
20
0.209636968503937
11
0.1619930708661417
21
0.2121914566929134
0
LINE
8
BLACK
6
CONTINUOUS
10
0.1619930708661417
20
0.2121914566929134
11
0.1613937007874016
21
0.2152047244094488
0
LINE
8
BLACK
6
CONTINUOUS
10
0.1613937007874016
20
0.2152047244094488
11
0.1613937007874016
21
0.2309527559055118
0
LINE
8
BLACK
6
CONTINUOUS
10
0.1613937007874016
20
0.2309527559055118
11
0.1619930708661417
21
0.2339660236220472
0
LINE
8
BLACK
6
CONTINUOUS
10
0.1619930708661417
20
0.2339660236220472
11
0.1636999606299213
21
0.2365205118110236
0
LINE
8
BLACK
6
CONTINUOUS
10
0.1636999606299213
20
0.2365205118110236
11
0.1662544488188976
21
0.2382274015748032
0
LINE
8
BLACK
6
CONTINUOUS
10
0.1662544488188976
20
0.2382274015748032
11
0.1692677165354331
21
0.2388267716535433
0
LINE
8
BLACK
6
CONTINUOUS
10
0.1692677165354331
20
0.2388267716535433
11
0.1909212598425197
21
0.2388267716535433
0
LINE
8
BLACK
6
CONTINUOUS
10
0.1909212598425197
20
0.2388267716535433
11
0.1939345275590551
21
0.2382274015748032
0
LINE
8
BLACK
6
CONTINUOUS
10
0.0266694094488189
20
0.2694323622047244
11
0.0285852755905512
21
0.2681522047244094
0
LINE
8
BLACK
6
CONTINUOUS
10
0.0285852755905512
20
0.2681522047244094
11
0.0298654330708661
21
0.2662363385826771
0
LINE
8
BLACK
6
CONTINUOUS
10
0.0298654330708661
20
0.2662363385826771
11
0.0303149606299213
21
0.2639763779527559
0
LINE
8
BLACK
6
CONTINUOUS
10
0.0303149606299213
20
0.2639763779527559
11
0.0303149606299213
21
0.2521653543307086
0
LINE
8
BLACK
6
CONTINUOUS
10
0.0303149606299213
20
0.2521653543307086
11
0.0298654330708661
21
0.2499053937007874
0
LINE
8
BLACK
6
CONTINUOUS
10
0.0298654330708661
20
0.2499053937007874
11
0.0285852755905512
21
0.2479895275590551
0
LINE
8
BLACK
6
CONTINUOUS
10
0.0285852755905512
20
0.2479895275590551
11
0.0266694094488189
21
0.2467093700787402
0
LINE
8
BLACK
6
CONTINUOUS
10
0.0266694094488189
20
0.2467093700787402
11
0.0244094488188976
21
0.246259842519685
0
LINE
8
BLACK
6
CONTINUOUS
10
0.0244094488188976
20
0.246259842519685
11
-0.0307086614173228
21
0.246259842519685
0
LINE
8
BLACK
6
CONTINUOUS
10
-0.0307086614173228
20
0.246259842519685
11
-0.0329686220472441
21
0.2467093700787402
0
LINE
8
BLACK
6
CONTINUOUS
10
-0.0329686220472441
20
0.2467093700787402
11
-0.0348844881889764
21
0.2479895275590551
0
LINE
8
BLACK
6
CONTINUOUS
10
-0.0348844881889764
20
0.2479895275590551
11
-0.0361646456692913
21
0.2499053937007874
0
LINE
8
BLACK
6
CONTINUOUS
10
-0.0361646456692913
20
0.2499053937007874
11
-0.0366141732283465
21
0.2521653543307086
0
LINE
8
BLACK
6
CONTINUOUS
10
-0.0366141732283465
20
0.2521653543307086
11
-0.0366141732283465
21
0.2639763779527559
0
LINE
8
BLACK
6
CONTINUOUS
10
-0.0366141732283465
20
0.2639763779527559
11
-0.0361646456692913
21
0.2662363385826771
0
LINE
8
BLACK
6
CONTINUOUS
10
-0.0361646456692913
20
0.2662363385826771
11
-0.0348844881889764
21
0.2681522047244094
0
LINE
8
BLACK
6
CONTINUOUS
10
-0.0348844881889764
20
0.2681522047244094
11
-0.0329686220472441
21
0.2694323622047244
0
LINE
8
BLACK
6
CONTINUOUS
10
-0.0329686220472441
20
0.2694323622047244
11
-0.0307086614173228
21
0.2698818897637795
0
LINE
8
BLACK
6
CONTINUOUS
10
-0.0307086614173228
20
0.2698818897637795
11
0.0244094488188976
21
0.2698818897637795
0
LINE
8
BLACK
6
CONTINUOUS
10
0.0244094488188976
20
0.2698818897637795
11
0.0266694094488189
21
0.2694323622047244
0
LINE
8
BLACK
6
CONTINUOUS
10
0.6054095669291338
20
0.2694323622047244
11
0.6073254330708662
21
0.2681522047244094
0
LINE
8
BLACK
6
CONTINUOUS
10
0.6073254330708662
20
0.2681522047244094
11
0.6086055905511811
21
0.2662363385826771
0
LINE
8
BLACK
6
CONTINUOUS
10
0.6086055905511811
20
0.2662363385826771
11
0.6090551181102362
21
0.2639763779527559
0
LINE
8
BLACK
6
CONTINUOUS
10
0.6090551181102362
20
0.2639763779527559
11
0.6090551181102362
21
0.2521653543307086
0
LINE
8
BLACK
6
CONTINUOUS
10
0.6090551181102362
20
0.2521653543307086
11
0.6086055905511811
21
0.2499053937007874
0
LINE
8
BLACK
6
CONTINUOUS
10
0.6086055905511811
20
0.2499053937007874
11
0.6073254330708662
21
0.2479895275590551
0
LINE
8
BLACK
6
CONTINUOUS
10
0.6073254330708662
20
0.2479895275590551
11
0.6054095669291338
21
0.2467093700787402
0
LINE
8
BLACK
6
CONTINUOUS
10
0.6054095669291338
20
0.2467093700787402
11
0.6031496062992125
21
0.246259842519685
0
LINE
8
BLACK
6
CONTINUOUS
10
0.6031496062992125
20
0.246259842519685
11
0.5480314960629921
21
0.246259842519685
0
LINE
8
BLACK
6
CONTINUOUS
10
0.5480314960629921
20
0.246259842519685
11
0.5457715354330709
21
0.2467093700787402
0
LINE
8
BLACK
6
CONTINUOUS
10
0.5457715354330709
20
0.2467093700787402
11
0.5438556692913386
21
0.2479895275590551
0
LINE
8
BLACK
6
CONTINUOUS
10
0.5438556692913386
20
0.2479895275590551
11
0.5425755118110236
21
0.2499053937007874
0
LINE
8
BLACK
6
CONTINUOUS
10
0.5425755118110236
20
0.2499053937007874
11
0.5421259842519685
21
0.2521653543307086
0
LINE
8
BLACK
6
CONTINUOUS
10
0.5421259842519685
20
0.2521653543307086
11
0.5421259842519685
21
0.2639763779527559
0
LINE
8
BLACK
6
CONTINUOUS
10
0.5421259842519685
20
0.2639763779527559
11
0.5425755118110236
21
0.2662363385826771
0
LINE
8
BLACK
6
CONTINUOUS
10
0.5425755118110236
20
0.2662363385826771
11
0.5438556692913386
21
0.2681522047244094
0
LINE
8
BLACK
6
CONTINUOUS
10
0.5438556692913386
20
0.2681522047244094
11
0.5457715354330709
21
0.2694323622047244
0
LINE
8
BLACK
6
CONTINUOUS
10
0.5457715354330709
20
0.2694323622047244
11
0.5480314960629921
21
0.2698818897637795
0
LINE
8
BLACK
6
CONTINUOUS
10
0.5480314960629921
20
0.2698818897637795
11
0.6031496062992125
21
0.2698818897637795
0
LINE
8
BLACK
6
CONTINUOUS
10
0.6031496062992125
20
0.2698818897637795
11
0.6054095669291338
21
0.2694323622047244
0
LINE
8
BLACK
6
CONTINUOUS
10
0.4419345275590551
20
0.2787077165354331
11
0.4444890157480315
21
0.2770008267716536
0
LINE
8
BLACK
6
CONTINUOUS
10
0.4444890157480315
20
0.2770008267716536
11
0.446195905511811
21
0.2744463385826771
0
LINE
8
BLACK
6
CONTINUOUS
10
0.446195905511811
20
0.2744463385826771
11
0.4467952755905512
21
0.2714330708661417
0
LINE
8
BLACK
6
CONTINUOUS
10
0.4467952755905512
20
0.2714330708661417
11
0.4467952755905512
21
0.2556850393700787
0
LINE
8
BLACK
6
CONTINUOUS
10
0.4467952755905512
20
0.2556850393700787
11
0.446195905511811
21
0.2526717716535433
0
LINE
8
BLACK
6
CONTINUOUS
10
0.446195905511811
20
0.2526717716535433
11
0.4444890157480315
21
0.2501172834645669
0
LINE
8
BLACK
6
CONTINUOUS
10
0.4444890157480315
20
0.2501172834645669
11
0.4419345275590551
21
0.2484103937007874
0
LINE
8
BLACK
6
CONTINUOUS
10
0.4419345275590551
20
0.2484103937007874
11
0.4389212598425197
21
0.2478110236220472
0
LINE
8
BLACK
6
CONTINUOUS
10
0.4389212598425197
20
0.2478110236220472
11
0.417267716535433
21
0.2478110236220472
0
LINE
8
BLACK
6
CONTINUOUS
10
0.417267716535433
20
0.2478110236220472
11
0.4142544488188976
21
0.2484103937007874
0
LINE
8
BLACK
6
CONTINUOUS
10
0.4142544488188976
20
0.2484103937007874
11
0.4116999606299213
21
0.2501172834645669
0
LINE
8
BLACK
6
CONTINUOUS
10
0.4116999606299213
20
0.2501172834645669
11
0.4099930708661417
21
0.2526717716535433
0
LINE
8
BLACK
6
CONTINUOUS
10
0.4099930708661417
20
0.2526717716535433
11
0.4093937007874016
21
0.2556850393700787
0
LINE
8
BLACK
6
CONTINUOUS
10
0.4093937007874016
20
0.2556850393700787
11
0.4093937007874016
21
0.2714330708661417
0
LINE
8
BLACK
6
CONTINUOUS
10
0.4093937007874016
20
0.2714330708661417
11
0.4099930708661417
21
0.2744463385826771
0
LINE
8
BLACK
6
CONTINUOUS
10
0.4099930708661417
20
0.2744463385826771
11
0.4116999606299213
21
0.2770008267716536
0
LINE
8
BLACK
6
CONTINUOUS
10
0.4116999606299213
20
0.2770008267716536
11
0.4142544488188976
21
0.2787077165354331
0
LINE
8
BLACK
6
CONTINUOUS
10
0.4142544488188976
20
0.2787077165354331
11
0.417267716535433
21
0.2793070866141732
0
LINE
8
BLACK
6
CONTINUOUS
10
0.417267716535433
20
0.2793070866141732
11
0.4389212598425197
21
0.2793070866141732
0
LINE
8
BLACK
6
CONTINUOUS
10
0.4389212598425197
20
0.2793070866141732
11
0.4419345275590551
21
0.2787077165354331
0
LINE
8
BLACK
6
CONTINUOUS
10
0.5079345275590551
20
0.2796683464566929
11
0.5104890157480315
21
0.2779614566929134
0
LINE
8
BLACK
6
CONTINUOUS
10
0.5104890157480315
20
0.2779614566929134
11
0.512195905511811
21
0.275406968503937
0
LINE
8
BLACK
6
CONTINUOUS
10
0.512195905511811
20
0.275406968503937
11
0.5127952755905512
21
0.2723937007874015
0
LINE
8
BLACK
6
CONTINUOUS
10
0.5127952755905512
20
0.2723937007874015
11
0.5127952755905512
21
0.2566456692913386
0
LINE
8
BLACK
6
CONTINUOUS
10
0.5127952755905512
20
0.2566456692913386
11
0.512195905511811
21
0.2536324015748032
0
LINE
8
BLACK
6
CONTINUOUS
10
0.512195905511811
20
0.2536324015748032
11
0.5104890157480315
21
0.2510779133858267
0
LINE
8
BLACK
6
CONTINUOUS
10
0.5104890157480315
20
0.2510779133858267
11
0.5079345275590551
21
0.2493710236220472
0
LINE
8
BLACK
6
CONTINUOUS
10
0.5079345275590551
20
0.2493710236220472
11
0.5049212598425197
21
0.2487716535433071
0
LINE
8
BLACK
6
CONTINUOUS
10
0.5049212598425197
20
0.2487716535433071
11
0.483267716535433
21
0.2487716535433071
0
LINE
8
BLACK
6
CONTINUOUS
10
0.483267716535433
20
0.2487716535433071
11
0.4802544488188976
21
0.2493710236220472
0
LINE
8
BLACK
6
CONTINUOUS
10
0.4802544488188976
20
0.2493710236220472
11
0.4776999606299213
21
0.2510779133858267
0
LINE
8
BLACK
6
CONTINUOUS
10
0.4776999606299213
20
0.2510779133858267
11
0.4759930708661417
21
0.2536324015748032
0
LINE
8
BLACK
6
CONTINUOUS
10
0.4759930708661417
20
0.2536324015748032
11
0.4753937007874016
21
0.2566456692913386
0
LINE
8
BLACK
6
CONTINUOUS
10
0.4753937007874016
20
0.2566456692913386
11
0.4753937007874016
21
0.2723937007874015
0
LINE
8
BLACK
6
CONTINUOUS
10
0.4753937007874016
20
0.2723937007874015
11
0.4759930708661417
21
0.275406968503937
0
LINE
8
BLACK
6
CONTINUOUS
10
0.4759930708661417
20
0.275406968503937
11
0.4776999606299213
21
0.2779614566929134
0
LINE
8
BLACK
6
CONTINUOUS
10
0.4776999606299213
20
0.2779614566929134
11
0.4802544488188976
21
0.2796683464566929
0
LINE
8
BLACK
6
CONTINUOUS
10
0.4802544488188976
20
0.2796683464566929
11
0.483267716535433
21
0.2802677165354331
0
LINE
8
BLACK
6
CONTINUOUS
10
0.483267716535433
20
0.2802677165354331
11
0.5049212598425197
21
0.2802677165354331
0
LINE
8
BLACK
6
CONTINUOUS
10
0.5049212598425197
20
0.2802677165354331
11
0.5079345275590551
21
0.2796683464566929
0
LINE
8
BLACK
6
CONTINUOUS
10
0.1224394488188976
20
0.3007224015748031
11
0.1252334645669291
21
0.2988555118110236
0
LINE
8
BLACK
6
CONTINUOUS
10
0.1252334645669291
20
0.2988555118110236
11
0.1271003543307087
21
0.2960614960629921
0
LINE
8
BLACK
6
CONTINUOUS
10
0.1271003543307087
20
0.2960614960629921
11
0.127755905511811
21
0.2927657480314961
0
LINE
8
BLACK
6
CONTINUOUS
10
0.127755905511811
20
0.2927657480314961
11
0.127755905511811
21
0.2755413385826772
0
LINE
8
BLACK
6
CONTINUOUS
10
0.127755905511811
20
0.2755413385826772
11
0.1271003543307087
21
0.2722455905511811
0
LINE
8
BLACK
6
CONTINUOUS
10
0.1271003543307087
20
0.2722455905511811
11
0.1252334645669291
21
0.2694515748031496
0
LINE
8
BLACK
6
CONTINUOUS
10
0.1252334645669291
20
0.2694515748031496
11
0.1224394488188976
21
0.2675846850393701
0
LINE
8
BLACK
6
CONTINUOUS
10
0.1224394488188976
20
0.2675846850393701
11
0.1191437007874016
21
0.2669291338582677
0
LINE
8
BLACK
6
CONTINUOUS
10
0.1191437007874016
20
0.2669291338582677
11
0.0989665354330709
21
0.2669291338582677
0
LINE
8
BLACK
6
CONTINUOUS
10
0.0989665354330709
20
0.2669291338582677
11
0.0956707874015748
21
0.2675846850393701
0
LINE
8
BLACK
6
CONTINUOUS
10
0.0956707874015748
20
0.2675846850393701
11
0.0928767716535433
21
0.2694515748031496
0
LINE
8
BLACK
6
CONTINUOUS
10
0.0928767716535433
20
0.2694515748031496
11
0.0910098818897638
21
0.2722455905511811
0
LINE
8
BLACK
6
CONTINUOUS
10
0.0910098818897638
20
0.2722455905511811
11
0.0903543307086614
21
0.2755413385826772
0
LINE
8
BLACK
6
CONTINUOUS
10
0.0903543307086614
20
0.2755413385826772
11
0.0903543307086614
21
0.2927657480314961
0
LINE
8
BLACK
6
CONTINUOUS
10
0.0903543307086614
20
0.2927657480314961
11
0.0910098818897638
21
0.2960614960629921
0
LINE
8
BLACK
6
CONTINUOUS
10
0.0910098818897638
20
0.2960614960629921
11
0.0928767716535433
21
0.2988555118110236
0
LINE
8
BLACK
6
CONTINUOUS
10
0.0928767716535433
20
0.2988555118110236
11
0.0956707874015748
21
0.3007224015748031
0
LINE
8
BLACK
6
CONTINUOUS
10
0.0956707874015748
20
0.3007224015748031
11
0.0989665354330709
21
0.3013779527559055
0
LINE
8
BLACK
6
CONTINUOUS
10
0.0989665354330709
20
0.3013779527559055
11
0.1191437007874016
21
0.3013779527559055
0
LINE
8
BLACK
6
CONTINUOUS
10
0.1191437007874016
20
0.3013779527559055
11
0.1224394488188976
21
0.3007224015748031
0
LINE
8
BLACK
6
CONTINUOUS
10
0.1939345275590551
20
0.303188031496063
11
0.1964890157480315
21
0.3014811417322835
0
LINE
8
BLACK
6
CONTINUOUS
10
0.1964890157480315
20
0.3014811417322835
11
0.198195905511811
21
0.2989266535433071
0
LINE
8
BLACK
6
CONTINUOUS
10
0.198195905511811
20
0.2989266535433071
11
0.1987952755905512
21
0.2959133858267716
0
LINE
8
BLACK
6
CONTINUOUS
10
0.1987952755905512
20
0.2959133858267716
11
0.1987952755905512
21
0.2801653543307087
0
LINE
8
BLACK
6
CONTINUOUS
10
0.1987952755905512
20
0.2801653543307087
11
0.198195905511811
21
0.2771520866141732
0
LINE
8
BLACK
6
CONTINUOUS
10
0.198195905511811
20
0.2771520866141732
11
0.1964890157480315
21
0.2745975984251968
0
LINE
8
BLACK
6
CONTINUOUS
10
0.1964890157480315
20
0.2745975984251968
11
0.1939345275590551
21
0.2728907086614173
0
LINE
8
BLACK
6
CONTINUOUS
10
0.1939345275590551
20
0.2728907086614173
11
0.1909212598425197
21
0.2722913385826772
0
LINE
8
BLACK
6
CONTINUOUS
10
0.1909212598425197
20
0.2722913385826772
11
0.1692677165354331
21
0.2722913385826772
0
LINE
8
BLACK
6
CONTINUOUS
10
0.1692677165354331
20
0.2722913385826772
11
0.1662544488188976
21
0.2728907086614173
0
LINE
8
BLACK
6
CONTINUOUS
10
0.1662544488188976
20
0.2728907086614173
11
0.1636999606299213
21
0.2745975984251968
0
LINE
8
BLACK
6
CONTINUOUS
10
0.1636999606299213
20
0.2745975984251968
11
0.1619930708661417
21
0.2771520866141732
0
LINE
8
BLACK
6
CONTINUOUS
10
0.1619930708661417
20
0.2771520866141732
11
0.1613937007874016
21
0.2801653543307087
0
LINE
8
BLACK
6
CONTINUOUS
10
0.1613937007874016
20
0.2801653543307087
11
0.1613937007874016
21
0.2959133858267716
0
LINE
8
BLACK
6
CONTINUOUS
10
0.1613937007874016
20
0.2959133858267716
11
0.1619930708661417
21
0.2989266535433071
0
LINE
8
BLACK
6
CONTINUOUS
10
0.1619930708661417
20
0.2989266535433071
11
0.1636999606299213
21
0.3014811417322835
0
LINE
8
BLACK
6
CONTINUOUS
10
0.1636999606299213
20
0.3014811417322835
11
0.1662544488188976
21
0.303188031496063
0
LINE
8
BLACK
6
CONTINUOUS
10
0.1662544488188976
20
0.303188031496063
11
0.1692677165354331
21
0.3037874015748032
0
LINE
8
BLACK
6
CONTINUOUS
10
0.1692677165354331
20
0.3037874015748032
11
0.1909212598425197
21
0.3037874015748032
0
LINE
8
BLACK
6
CONTINUOUS
10
0.1909212598425197
20
0.3037874015748032
11
0.1939345275590551
21
0.303188031496063
0
LINE
8
BLACK
6
CONTINUOUS
10
0.0266694094488189
20
0.3186449606299213
11
0.0285852755905512
21
0.3173648031496063
0
LINE
8
BLACK
6
CONTINUOUS
10
0.0285852755905512
20
0.3173648031496063
11
0.0298654330708661
21
0.315448937007874
0
LINE
8
BLACK
6
CONTINUOUS
10
0.0298654330708661
20
0.315448937007874
11
0.0303149606299213
21
0.3131889763779527
0
LINE
8
BLACK
6
CONTINUOUS
10
0.0303149606299213
20
0.3131889763779527
11
0.0303149606299213
21
0.3013779527559055
0
LINE
8
BLACK
6
CONTINUOUS
10
0.0303149606299213
20
0.3013779527559055
11
0.0298654330708661
21
0.2991179921259842
0
LINE
8
BLACK
6
CONTINUOUS
10
0.0298654330708661
20
0.2991179921259842
11
0.0285852755905512
21
0.2972021259842519
0
LINE
8
BLACK
6
CONTINUOUS
10
0.0285852755905512
20
0.2972021259842519
11
0.0266694094488189
21
0.295921968503937
0
LINE
8
BLACK
6
CONTINUOUS
10
0.0266694094488189
20
0.295921968503937
11
0.0244094488188976
21
0.2954724409448819
0
LINE
8
BLACK
6
CONTINUOUS
10
0.0244094488188976
20
0.2954724409448819
11
-0.0307086614173228
21
0.2954724409448819
0
LINE
8
BLACK
6
CONTINUOUS
10
-0.0307086614173228
20
0.2954724409448819
11
-0.0329686220472441
21
0.295921968503937
0
LINE
8
BLACK
6
CONTINUOUS
10
-0.0329686220472441
20
0.295921968503937
11
-0.0348844881889764
21
0.2972021259842519
0
LINE
8
BLACK
6
CONTINUOUS
10
-0.0348844881889764
20
0.2972021259842519
11
-0.0361646456692913
21
0.2991179921259842
0
LINE
8
BLACK
6
CONTINUOUS
10
-0.0361646456692913
20
0.2991179921259842
11
-0.0366141732283465
21
0.3013779527559055
0
LINE
8
BLACK
6
CONTINUOUS
10
-0.0366141732283465
20
0.3013779527559055
11
-0.0366141732283465
21
0.3131889763779527
0
LINE
8
BLACK
6
CONTINUOUS
10
-0.0366141732283465
20
0.3131889763779527
11
-0.0361646456692913
21
0.315448937007874
0
LINE
8
BLACK
6
CONTINUOUS
10
-0.0361646456692913
20
0.315448937007874
11
-0.0348844881889764
21
0.3173648031496063
0
LINE
8
BLACK
6
CONTINUOUS
10
-0.0348844881889764
20
0.3173648031496063
11
-0.0329686220472441
21
0.3186449606299213
0
LINE
8
BLACK
6
CONTINUOUS
10
-0.0329686220472441
20
0.3186449606299213
11
-0.0307086614173228
21
0.3190944881889763
0
LINE
8
BLACK
6
CONTINUOUS
10
-0.0307086614173228
20
0.3190944881889763
11
0.0244094488188976
21
0.3190944881889763
0
LINE
8
BLACK
6
CONTINUOUS
10
0.0244094488188976
20
0.3190944881889763
11
0.0266694094488189
21
0.3186449606299213
0
LINE
8
BLACK
6
CONTINUOUS
10
0.6054095669291338
20
0.3186449606299213
11
0.6073254330708662
21
0.3173648031496063
0
LINE
8
BLACK
6
CONTINUOUS
10
0.6073254330708662
20
0.3173648031496063
11
0.6086055905511811
21
0.315448937007874
0
LINE
8
BLACK
6
CONTINUOUS
10
0.6086055905511811
20
0.315448937007874
11
0.6090551181102362
21
0.3131889763779527
0
LINE
8
BLACK
6
CONTINUOUS
10
0.6090551181102362
20
0.3131889763779527
11
0.6090551181102362
21
0.3013779527559055
0
LINE
8
BLACK
6
CONTINUOUS
10
0.6090551181102362
20
0.3013779527559055
11
0.6086055905511811
21
0.2991179921259842
0
LINE
8
BLACK
6
CONTINUOUS
10
0.6086055905511811
20
0.2991179921259842
11
0.6073254330708662
21
0.2972021259842519
0
LINE
8
BLACK
6
CONTINUOUS
10
0.6073254330708662
20
0.2972021259842519
11
0.6054095669291338
21
0.295921968503937
0
LINE
8
BLACK
6
CONTINUOUS
10
0.6054095669291338
20
0.295921968503937
11
0.6031496062992125
21
0.2954724409448819
0
LINE
8
BLACK
6
CONTINUOUS
10
0.6031496062992125
20
0.2954724409448819
11
0.5480314960629921
21
0.2954724409448819
0
LINE
8
BLACK
6
CONTINUOUS
10
0.5480314960629921
20
0.2954724409448819
11
0.5457715354330709
21
0.295921968503937
0
LINE
8
BLACK
6
CONTINUOUS
10
0.5457715354330709
20
0.295921968503937
11
0.5438556692913386
21
0.2972021259842519
0
LINE
8
BLACK
6
CONTINUOUS
10
0.5438556692913386
20
0.2972021259842519
11
0.5425755118110236
21
0.2991179921259842
0
LINE
8
BLACK
6
CONTINUOUS
10
0.5425755118110236
20
0.2991179921259842
11
0.5421259842519685
21
0.3013779527559055
0
LINE
8
BLACK
6
CONTINUOUS
10
0.5421259842519685
20
0.3013779527559055
11
0.5421259842519685
21
0.3131889763779527
0
LINE
8
BLACK
6
CONTINUOUS
10
0.5421259842519685
20
0.3131889763779527
11
0.5425755118110236
21
0.315448937007874
0
LINE
8
BLACK
6
CONTINUOUS
10
0.5425755118110236
20
0.315448937007874
11
0.5438556692913386
21
0.3173648031496063
0
LINE
8
BLACK
6
CONTINUOUS
10
0.5438556692913386
20
0.3173648031496063
11
0.5457715354330709
21
0.3186449606299213
0
LINE
8
BLACK
6
CONTINUOUS
10
0.5457715354330709
20
0.3186449606299213
11
0.5480314960629921
21
0.3190944881889763
0
LINE
8
BLACK
6
CONTINUOUS
10
0.5480314960629921
20
0.3190944881889763
11
0.6031496062992125
21
0.3190944881889763
0
LINE
8
BLACK
6
CONTINUOUS
10
0.6031496062992125
20
0.3190944881889763
11
0.6054095669291338
21
0.3186449606299213
0
LINE
8
BLACK
6
CONTINUOUS
10
0.4429345275590551
20
0.3427077165354331
11
0.4454890157480315
21
0.3410008267716536
0
LINE
8
BLACK
6
CONTINUOUS
10
0.4454890157480315
20
0.3410008267716536
11
0.447195905511811
21
0.3384463385826771
0
LINE
8
BLACK
6
CONTINUOUS
10
0.447195905511811
20
0.3384463385826771
11
0.4477952755905512
21
0.3354330708661417
0
LINE
8
BLACK
6
CONTINUOUS
10
0.4477952755905512
20
0.3354330708661417
11
0.4477952755905512
21
0.3196850393700787
0
LINE
8
BLACK
6
CONTINUOUS
10
0.4477952755905512
20
0.3196850393700787
11
0.447195905511811
21
0.3166717716535433
0
LINE
8
BLACK
6
CONTINUOUS
10
0.447195905511811
20
0.3166717716535433
11
0.4454890157480315
21
0.3141172834645669
0
LINE
8
BLACK
6
CONTINUOUS
10
0.4454890157480315
20
0.3141172834645669
11
0.4429345275590551
21
0.3124103937007874
0
LINE
8
BLACK
6
CONTINUOUS
10
0.4429345275590551
20
0.3124103937007874
11
0.4399212598425197
21
0.3118110236220472
0
LINE
8
BLACK
6
CONTINUOUS
10
0.4399212598425197
20
0.3118110236220472
11
0.418267716535433
21
0.3118110236220472
0
LINE
8
BLACK
6
CONTINUOUS
10
0.418267716535433
20
0.3118110236220472
11
0.4152544488188976
21
0.3124103937007874
0
LINE
8
BLACK
6
CONTINUOUS
10
0.4152544488188976
20
0.3124103937007874
11
0.4126999606299213
21
0.3141172834645669
0
LINE
8
BLACK
6
CONTINUOUS
10
0.4126999606299213
20
0.3141172834645669
11
0.4109930708661417
21
0.3166717716535433
0
LINE
8
BLACK
6
CONTINUOUS
10
0.4109930708661417
20
0.3166717716535433
11
0.4103937007874016
21
0.3196850393700787
0
LINE
8
BLACK
6
CONTINUOUS
10
0.4103937007874016
20
0.3196850393700787
11
0.4103937007874016
21
0.3354330708661417
0
LINE
8
BLACK
6
CONTINUOUS
10
0.4103937007874016
20
0.3354330708661417
11
0.4109930708661417
21
0.3384463385826771
0
LINE
8
BLACK
6
CONTINUOUS
10
0.4109930708661417
20
0.3384463385826771
11
0.4126999606299213
21
0.3410008267716536
0
LINE
8
BLACK
6
CONTINUOUS
10
0.4126999606299213
20
0.3410008267716536
11
0.4152544488188976
21
0.3427077165354331
0
LINE
8
BLACK
6
CONTINUOUS
10
0.4152544488188976
20
0.3427077165354331
11
0.418267716535433
21
0.3433070866141732
0
LINE
8
BLACK
6
CONTINUOUS
10
0.418267716535433
20
0.3433070866141732
11
0.4399212598425197
21
0.3433070866141732
0
LINE
8
BLACK
6
CONTINUOUS
10
0.4399212598425197
20
0.3433070866141732
11
0.4429345275590551
21
0.3427077165354331
0
LINE
8
BLACK
6
CONTINUOUS
10
0.5079345275590551
20
0.3427077165354331
11
0.5104890157480315
21
0.3410008267716536
0
LINE
8
BLACK
6
CONTINUOUS
10
0.5104890157480315
20
0.3410008267716536
11
0.512195905511811
21
0.3384463385826771
0
LINE
8
BLACK
6
CONTINUOUS
10
0.512195905511811
20
0.3384463385826771
11
0.5127952755905512
21
0.3354330708661417
0
LINE
8
BLACK
6
CONTINUOUS
10
0.5127952755905512
20
0.3354330708661417
11
0.5127952755905512
21
0.3196850393700787
0
LINE
8
BLACK
6
CONTINUOUS
10
0.5127952755905512
20
0.3196850393700787
11
0.512195905511811
21
0.3166717716535433
0
LINE
8
BLACK
6
CONTINUOUS
10
0.512195905511811
20
0.3166717716535433
11
0.5104890157480315
21
0.3141172834645669
0
LINE
8
BLACK
6
CONTINUOUS
10
0.5104890157480315
20
0.3141172834645669
11
0.5079345275590551
21
0.3124103937007874
0
LINE
8
BLACK
6
CONTINUOUS
10
0.5079345275590551
20
0.3124103937007874
11
0.5049212598425197
21
0.3118110236220472
0
LINE
8
BLACK
6
CONTINUOUS
10
0.5049212598425197
20
0.3118110236220472
11
0.483267716535433
21
0.3118110236220472
0
LINE
8
BLACK
6
CONTINUOUS
10
0.483267716535433
20
0.3118110236220472
11
0.4802544488188976
21
0.3124103937007874
0
LINE
8
BLACK
6
CONTINUOUS
10
0.4802544488188976
20
0.3124103937007874
11
0.4776999606299213
21
0.3141172834645669
0
LINE
8
BLACK
6
CONTINUOUS
10
0.4776999606299213
20
0.3141172834645669
11
0.4759930708661417
21
0.3166717716535433
0
LINE
8
BLACK
6
CONTINUOUS
10
0.4759930708661417
20
0.3166717716535433
11
0.4753937007874016
21
0.3196850393700787
0
LINE
8
BLACK
6
CONTINUOUS
10
0.4753937007874016
20
0.3196850393700787
11
0.4753937007874016
21
0.3354330708661417
0
LINE
8
BLACK
6
CONTINUOUS
10
0.4753937007874016
20
0.3354330708661417
11
0.4759930708661417
21
0.3384463385826771
0
LINE
8
BLACK
6
CONTINUOUS
10
0.4759930708661417
20
0.3384463385826771
11
0.4776999606299213
21
0.3410008267716536
0
LINE
8
BLACK
6
CONTINUOUS
10
0.4776999606299213
20
0.3410008267716536
11
0.4802544488188976
21
0.3427077165354331
0
LINE
8
BLACK
6
CONTINUOUS
10
0.4802544488188976
20
0.3427077165354331
11
0.483267716535433
21
0.3433070866141732
0
LINE
8
BLACK
6
CONTINUOUS
10
0.483267716535433
20
0.3433070866141732
11
0.5049212598425197
21
0.3433070866141732
0
LINE
8
BLACK
6
CONTINUOUS
10
0.5049212598425197
20
0.3433070866141732
11
0.5079345275590551
21
0.3427077165354331
0
LINE
8
BLACK
6
CONTINUOUS
10
-0.0820601968503937
20
0.399053937007874
11
-0.0788670472440945
21
0.3969203543307087
0
LINE
8
BLACK
6
CONTINUOUS
10
-0.0788670472440945
20
0.3969203543307087
11
-0.0767334645669291
21
0.3937272047244094
0
LINE
8
BLACK
6
CONTINUOUS
10
-0.0767334645669291
20
0.3937272047244094
11
-0.0759842519685039
21
0.3899606299212598
0
LINE
8
BLACK
6
CONTINUOUS
10
-0.0759842519685039
20
0.3899606299212598
11
-0.0759842519685039
21
0.3702755905511811
0
LINE
8
BLACK
6
CONTINUOUS
10
-0.0759842519685039
20
0.3702755905511811
11
-0.0767334645669291
21
0.3665090157480315
0
LINE
8
BLACK
6
CONTINUOUS
10
-0.0767334645669291
20
0.3665090157480315
11
-0.0788670472440945
21
0.3633158661417323
0
LINE
8
BLACK
6
CONTINUOUS
10
-0.0788670472440945
20
0.3633158661417323
11
-0.0820601968503937
21
0.3611822834645669
0
LINE
8
BLACK
6
CONTINUOUS
10
-0.0820601968503937
20
0.3611822834645669
11
-0.0858267716535433
21
0.3604330708661417
0
LINE
8
BLACK
6
CONTINUOUS
10
-0.0858267716535433
20
0.3604330708661417
11
-0.1724409448818898
21
0.3604330708661417
0
LINE
8
BLACK
6
CONTINUOUS
10
-0.1724409448818898
20
0.3604330708661417
11
-0.1762075196850394
21
0.3611822834645669
0
LINE
8
BLACK
6
CONTINUOUS
10
-0.1762075196850394
20
0.3611822834645669
11
-0.1794006692913386
21
0.3633158661417323
0
LINE
8
BLACK
6
CONTINUOUS
10
-0.1794006692913386
20
0.3633158661417323
11
-0.1815342519685039
21
0.3665090157480315
0
LINE
8
BLACK
6
CONTINUOUS
10
-0.1815342519685039
20
0.3665090157480315
11
-0.1822834645669291
21
0.3702755905511811
0
LINE
8
BLACK
6
CONTINUOUS
10
-0.1822834645669291
20
0.3702755905511811
11
-0.1822834645669291
21
0.3899606299212598
0
LINE
8
BLACK
6
CONTINUOUS
10
-0.1822834645669291
20
0.3899606299212598
11
-0.1815342519685039
21
0.3937272047244094
0
LINE
8
BLACK
6
CONTINUOUS
10
-0.1815342519685039
20
0.3937272047244094
11
-0.1794006692913386
21
0.3969203543307087
0
LINE
8
BLACK
6
CONTINUOUS
10
-0.1794006692913386
20
0.3969203543307087
11
-0.1762075196850394
21
0.399053937007874
0
LINE
8
BLACK
6
CONTINUOUS
10
-0.1762075196850394
20
0.399053937007874
11
-0.1724409448818898
21
0.3998031496062992
0
LINE
8
BLACK
6
CONTINUOUS
10
-0.1724409448818898
20
0.3998031496062992
11
-0.0858267716535433
21
0.3998031496062992
0
LINE
8
BLACK
6
CONTINUOUS
10
-0.0858267716535433
20
0.3998031496062992
11
-0.0820601968503937
21
0.399053937007874
0
LINE
8
BLACK
6
CONTINUOUS
10
0.7486484645669291
20
0.399053937007874
11
0.7518416141732284
21
0.3969203543307087
0
LINE
8
BLACK
6
CONTINUOUS
10
0.7518416141732284
20
0.3969203543307087
11
0.7539751968503937
21
0.3937272047244094
0
LINE
8
BLACK
6
CONTINUOUS
10
0.7539751968503937
20
0.3937272047244094
11
0.7547244094488189
21
0.3899606299212598
0
LINE
8
BLACK
6
CONTINUOUS
10
0.7547244094488189
20
0.3899606299212598
11
0.7547244094488189
21
0.3702755905511811
0
LINE
8
BLACK
6
CONTINUOUS
10
0.7547244094488189
20
0.3702755905511811
11
0.7539751968503937
21
0.3665090157480315
0
LINE
8
BLACK
6
CONTINUOUS
10
0.7539751968503937
20
0.3665090157480315
11
0.7518416141732284
21
0.3633158661417323
0
LINE
8
BLACK
6
CONTINUOUS
10
0.7518416141732284
20
0.3633158661417323
11
0.7486484645669291
21
0.3611822834645669
0
LINE
8
BLACK
6
CONTINUOUS
10
0.7486484645669291
20
0.3611822834645669
11
0.7448818897637796
21
0.3604330708661417
0
LINE
8
BLACK
6
CONTINUOUS
10
0.7448818897637796
20
0.3604330708661417
11
0.658267716535433
21
0.3604330708661417
0
LINE
8
BLACK
6
CONTINUOUS
10
0.658267716535433
20
0.3604330708661417
11
0.6545011417322835
21
0.3611822834645669
0
LINE
8
BLACK
6
CONTINUOUS
10
0.6545011417322835
20
0.3611822834645669
11
0.6513079921259842
21
0.3633158661417323
0
LINE
8
BLACK
6
CONTINUOUS
10
0.6513079921259842
20
0.3633158661417323
11
0.6491744094488189
21
0.3665090157480315
0
LINE
8
BLACK
6
CONTINUOUS
10
0.6491744094488189
20
0.3665090157480315
11
0.6484251968503937
21
0.3702755905511811
0
LINE
8
BLACK
6
CONTINUOUS
10
0.6484251968503937
20
0.3702755905511811
11
0.6484251968503937
21
0.3899606299212598
0
LINE
8
BLACK
6
CONTINUOUS
10
0.6484251968503937
20
0.3899606299212598
11
0.6491744094488189
21
0.3937272047244094
0
LINE
8
BLACK
6
CONTINUOUS
10
0.6491744094488189
20
0.3937272047244094
11
0.6513079921259842
21
0.3969203543307087
0
LINE
8
BLACK
6
CONTINUOUS
10
0.6513079921259842
20
0.3969203543307087
11
0.6545011417322835
21
0.399053937007874
0
LINE
8
BLACK
6
CONTINUOUS
10
0.6545011417322835
20
0.399053937007874
11
0.658267716535433
21
0.3998031496062992
0
LINE
8
BLACK
6
CONTINUOUS
10
0.658267716535433
20
0.3998031496062992
11
0.7448818897637796
21
0.3998031496062992
0
LINE
8
BLACK
6
CONTINUOUS
10
0.7448818897637796
20
0.3998031496062992
11
0.7486484645669291
21
0.399053937007874
0
LINE
8
BLACK
6
CONTINUOUS
10
0.1479345275590551
20
0.4022274015748031
11
0.1504890157480315
21
0.4005205118110236
0
LINE
8
BLACK
6
CONTINUOUS
10
0.1504890157480315
20
0.4005205118110236
11
0.152195905511811
21
0.3979660236220472
0
LINE
8
BLACK
6
CONTINUOUS
10
0.152195905511811
20
0.3979660236220472
11
0.1527952755905512
21
0.3949527559055118
0
LINE
8
BLACK
6
CONTINUOUS
10
0.1527952755905512
20
0.3949527559055118
11
0.1527952755905512
21
0.3792047244094488
0
LINE
8
BLACK
6
CONTINUOUS
10
0.1527952755905512
20
0.3792047244094488
11
0.152195905511811
21
0.3761914566929134
0
LINE
8
BLACK
6
CONTINUOUS
10
0.152195905511811
20
0.3761914566929134
11
0.1504890157480315
21
0.373636968503937
0
LINE
8
BLACK
6
CONTINUOUS
10
0.1504890157480315
20
0.373636968503937
11
0.1479345275590551
21
0.3719300787401575
0
LINE
8
BLACK
6
CONTINUOUS
10
0.1479345275590551
20
0.3719300787401575
11
0.1449212598425197
21
0.3713307086614173
0
LINE
8
BLACK
6
CONTINUOUS
10
0.1449212598425197
20
0.3713307086614173
11
0.1232677165354331
21
0.3713307086614173
0
LINE
8
BLACK
6
CONTINUOUS
10
0.1232677165354331
20
0.3713307086614173
11
0.1202544488188976
21
0.3719300787401575
0
LINE
8
BLACK
6
CONTINUOUS
10
0.1202544488188976
20
0.3719300787401575
11
0.1176999606299213
21
0.373636968503937
0
LINE
8
BLACK
6
CONTINUOUS
10
0.1176999606299213
20
0.373636968503937
11
0.1159930708661417
21
0.3761914566929134
0
LINE
8
BLACK
6
CONTINUOUS
10
0.1159930708661417
20
0.3761914566929134
11
0.1153937007874016
21
0.3792047244094488
0
LINE
8
BLACK
6
CONTINUOUS
10
0.1153937007874016
20
0.3792047244094488
11
0.1153937007874016
21
0.3949527559055118
0
LINE
8
BLACK
6
CONTINUOUS
10
0.1153937007874016
20
0.3949527559055118
11
0.1159930708661417
21
0.3979660236220472
0
LINE
8
BLACK
6
CONTINUOUS
10
0.1159930708661417
20
0.3979660236220472
11
0.1176999606299213
21
0.4005205118110236
0
LINE
8
BLACK
6
CONTINUOUS
10
0.1176999606299213
20
0.4005205118110236
11
0.1202544488188976
21
0.4022274015748031
0
LINE
8
BLACK
6
CONTINUOUS
10
0.1202544488188976
20
0.4022274015748031
11
0.1232677165354331
21
0.4028267716535433
0
LINE
8
BLACK
6
CONTINUOUS
10
0.1232677165354331
20
0.4028267716535433
11
0.1449212598425197
21
0.4028267716535433
0
LINE
8
BLACK
6
CONTINUOUS
10
0.1449212598425197
20
0.4028267716535433
11
0.1479345275590551
21
0.4022274015748031
0
LINE
8
BLACK
6
CONTINUOUS
10
0.4429345275590551
20
0.4076683464566929
11
0.4454890157480315
21
0.4059614566929134
0
LINE
8
BLACK
6
CONTINUOUS
10
0.4454890157480315
20
0.4059614566929134
11
0.447195905511811
21
0.403406968503937
0
LINE
8
BLACK
6
CONTINUOUS
10
0.447195905511811
20
0.403406968503937
11
0.4477952755905512
21
0.4003937007874016
0
LINE
8
BLACK
6
CONTINUOUS
10
0.4477952755905512
20
0.4003937007874016
11
0.4477952755905512
21
0.3846456692913386
0
LINE
8
BLACK
6
CONTINUOUS
10
0.4477952755905512
20
0.3846456692913386
11
0.447195905511811
21
0.3816324015748032
0
LINE
8
BLACK
6
CONTINUOUS
10
0.447195905511811
20
0.3816324015748032
11
0.4454890157480315
21
0.3790779133858267
0
LINE
8
BLACK
6
CONTINUOUS
10
0.4454890157480315
20
0.3790779133858267
11
0.4429345275590551
21
0.3773710236220472
0
LINE
8
BLACK
6
CONTINUOUS
10
0.4429345275590551
20
0.3773710236220472
11
0.4399212598425197
21
0.3767716535433071
0
LINE
8
BLACK
6
CONTINUOUS
10
0.4399212598425197
20
0.3767716535433071
11
0.418267716535433
21
0.3767716535433071
0
LINE
8
BLACK
6
CONTINUOUS
10
0.418267716535433
20
0.3767716535433071
11
0.4152544488188976
21
0.3773710236220472
0
LINE
8
BLACK
6
CONTINUOUS
10
0.4152544488188976
20
0.3773710236220472
11
0.4126999606299213
21
0.3790779133858267
0
LINE
8
BLACK
6
CONTINUOUS
10
0.4126999606299213
20
0.3790779133858267
11
0.4109930708661417
21
0.3816324015748032
0
LINE
8
BLACK
6
CONTINUOUS
10
0.4109930708661417
20
0.3816324015748032
11
0.4103937007874016
21
0.3846456692913386
0
LINE
8
BLACK
6
CONTINUOUS
10
0.4103937007874016
20
0.3846456692913386
11
0.4103937007874016
21
0.4003937007874016
0
LINE
8
BLACK
6
CONTINUOUS
10
0.4103937007874016
20
0.4003937007874016
11
0.4109930708661417
21
0.403406968503937
0
LINE
8
BLACK
6
CONTINUOUS
10
0.4109930708661417
20
0.403406968503937
11
0.4126999606299213
21
0.4059614566929134
0
LINE
8
BLACK
6
CONTINUOUS
10
0.4126999606299213
20
0.4059614566929134
11
0.4152544488188976
21
0.4076683464566929
0
LINE
8
BLACK
6
CONTINUOUS
10
0.4152544488188976
20
0.4076683464566929
11
0.418267716535433
21
0.408267716535433
0
LINE
8
BLACK
6
CONTINUOUS
10
0.418267716535433
20
0.408267716535433
11
0.4399212598425197
21
0.408267716535433
0
LINE
8
BLACK
6
CONTINUOUS
10
0.4399212598425197
20
0.408267716535433
11
0.4429345275590551
21
0.4076683464566929
0
LINE
8
BLACK
6
CONTINUOUS
10
0.5079345275590551
20
0.4076683464566929
11
0.5104890157480315
21
0.4059614566929134
0
LINE
8
BLACK
6
CONTINUOUS
10
0.5104890157480315
20
0.4059614566929134
11
0.512195905511811
21
0.403406968503937
0
LINE
8
BLACK
6
CONTINUOUS
10
0.512195905511811
20
0.403406968503937
11
0.5127952755905512
21
0.4003937007874016
0
LINE
8
BLACK
6
CONTINUOUS
10
0.5127952755905512
20
0.4003937007874016
11
0.5127952755905512
21
0.3846456692913386
0
LINE
8
BLACK
6
CONTINUOUS
10
0.5127952755905512
20
0.3846456692913386
11
0.512195905511811
21
0.3816324015748032
0
LINE
8
BLACK
6
CONTINUOUS
10
0.512195905511811
20
0.3816324015748032
11
0.5104890157480315
21
0.3790779133858267
0
LINE
8
BLACK
6
CONTINUOUS
10
0.5104890157480315
20
0.3790779133858267
11
0.5079345275590551
21
0.3773710236220472
0
LINE
8
BLACK
6
CONTINUOUS
10
0.5079345275590551
20
0.3773710236220472
11
0.5049212598425197
21
0.3767716535433071
0
LINE
8
BLACK
6
CONTINUOUS
10
0.5049212598425197
20
0.3767716535433071
11
0.483267716535433
21
0.3767716535433071
0
LINE
8
BLACK
6
CONTINUOUS
10
0.483267716535433
20
0.3767716535433071
11
0.4802544488188976
21
0.3773710236220472
0
LINE
8
BLACK
6
CONTINUOUS
10
0.4802544488188976
20
0.3773710236220472
11
0.4776999606299213
21
0.3790779133858267
0
LINE
8
BLACK
6
CONTINUOUS
10
0.4776999606299213
20
0.3790779133858267
11
0.4759930708661417
21
0.3816324015748032
0
LINE
8
BLACK
6
CONTINUOUS
10
0.4759930708661417
20
0.3816324015748032
11
0.4753937007874016
21
0.3846456692913386
0
LINE
8
BLACK
6
CONTINUOUS
10
0.4753937007874016
20
0.3846456692913386
11
0.4753937007874016
21
0.4003937007874016
0
LINE
8
BLACK
6
CONTINUOUS
10
0.4753937007874016
20
0.4003937007874016
11
0.4759930708661417
21
0.403406968503937
0
LINE
8
BLACK
6
CONTINUOUS
10
0.4759930708661417
20
0.403406968503937
11
0.4776999606299213
21
0.4059614566929134
0
LINE
8
BLACK
6
CONTINUOUS
10
0.4776999606299213
20
0.4059614566929134
11
0.4802544488188976
21
0.4076683464566929
0
LINE
8
BLACK
6
CONTINUOUS
10
0.4802544488188976
20
0.4076683464566929
11
0.483267716535433
21
0.408267716535433
0
LINE
8
BLACK
6
CONTINUOUS
10
0.483267716535433
20
0.408267716535433
11
0.5049212598425197
21
0.408267716535433
0
LINE
8
BLACK
6
CONTINUOUS
10
0.5049212598425197
20
0.408267716535433
11
0.5079345275590551
21
0.4076683464566929
0
LINE
8
BLACK
6
CONTINUOUS
10
0.222244094488189
20
0.4146614173228346
11
0.2124015748031496
21
0.4146614173228346
0
LINE
8
BLACK
6
CONTINUOUS
10
0.2124015748031496
20
0.4146614173228346
11
0.2124015748031496
21
0.440251968503937
0
LINE
8
BLACK
6
CONTINUOUS
10
0.2124015748031496
20
0.440251968503937
11
0.222244094488189
21
0.440251968503937
0
LINE
8
BLACK
6
CONTINUOUS
10
0.222244094488189
20
0.440251968503937
11
0.222244094488189
21
0.4146614173228346
0
LINE
8
BLACK
6
CONTINUOUS
10
0.2419291338582677
20
0.4146614173228346
11
0.2320866141732283
21
0.4146614173228346
0
LINE
8
BLACK
6
CONTINUOUS
10
0.2320866141732283
20
0.4146614173228346
11
0.2320866141732283
21
0.440251968503937
0
LINE
8
BLACK
6
CONTINUOUS
10
0.2320866141732283
20
0.440251968503937
11
0.2419291338582677
21
0.440251968503937
0
LINE
8
BLACK
6
CONTINUOUS
10
0.2419291338582677
20
0.440251968503937
11
0.2419291338582677
21
0.4146614173228346
0
LINE
8
BLACK
6
CONTINUOUS
10
0.2616141732283465
20
0.4146614173228346
11
0.2517716535433071
21
0.4146614173228346
0
LINE
8
BLACK
6
CONTINUOUS
10
0.2517716535433071
20
0.4146614173228346
11
0.2517716535433071
21
0.440251968503937
0
LINE
8
BLACK
6
CONTINUOUS
10
0.2517716535433071
20
0.440251968503937
11
0.2616141732283465
21
0.440251968503937
0
LINE
8
BLACK
6
CONTINUOUS
10
0.2616141732283465
20
0.440251968503937
11
0.2616141732283465
21
0.4146614173228346
0
LINE
8
BLACK
6
CONTINUOUS
10
0.2812992125984252
20
0.4146614173228346
11
0.2714566929133858
21
0.4146614173228346
0
LINE
8
BLACK
6
CONTINUOUS
10
0.2714566929133858
20
0.4146614173228346
11
0.2714566929133858
21
0.440251968503937
0
LINE
8
BLACK
6
CONTINUOUS
10
0.2714566929133858
20
0.440251968503937
11
0.2812992125984252
21
0.440251968503937
0
LINE
8
BLACK
6
CONTINUOUS
10
0.2812992125984252
20
0.440251968503937
11
0.2812992125984252
21
0.4146614173228346
0
LINE
8
BLACK
6
CONTINUOUS
10
0.3009842519685039
20
0.4146614173228346
11
0.2911417322834646
21
0.4146614173228346
0
LINE
8
BLACK
6
CONTINUOUS
10
0.2911417322834646
20
0.4146614173228346
11
0.2911417322834646
21
0.440251968503937
0
LINE
8
BLACK
6
CONTINUOUS
10
0.2911417322834646
20
0.440251968503937
11
0.3009842519685039
21
0.440251968503937
0
LINE
8
BLACK
6
CONTINUOUS
10
0.3009842519685039
20
0.440251968503937
11
0.3009842519685039
21
0.4146614173228346
0
LINE
8
BLACK
6
CONTINUOUS
10
0.3206692913385827
20
0.4146614173228346
11
0.3108267716535433
21
0.4146614173228346
0
LINE
8
BLACK
6
CONTINUOUS
10
0.3108267716535433
20
0.4146614173228346
11
0.3108267716535433
21
0.440251968503937
0
LINE
8
BLACK
6
CONTINUOUS
10
0.3108267716535433
20
0.440251968503937
11
0.3206692913385827
21
0.440251968503937
0
LINE
8
BLACK
6
CONTINUOUS
10
0.3206692913385827
20
0.440251968503937
11
0.3206692913385827
21
0.4146614173228346
0
LINE
8
BLACK
6
CONTINUOUS
10
0.3403543307086614
20
0.4146614173228346
11
0.330511811023622
21
0.4146614173228346
0
LINE
8
BLACK
6
CONTINUOUS
10
0.330511811023622
20
0.4146614173228346
11
0.330511811023622
21
0.440251968503937
0
LINE
8
BLACK
6
CONTINUOUS
10
0.330511811023622
20
0.440251968503937
11
0.3403543307086614
21
0.440251968503937
0
LINE
8
BLACK
6
CONTINUOUS
10
0.3403543307086614
20
0.440251968503937
11
0.3403543307086614
21
0.4146614173228346
0
LINE
8
BLACK
6
CONTINUOUS
10
0.3600393700787402
20
0.4146614173228346
11
0.3501968503937008
21
0.4146614173228346
0
LINE
8
BLACK
6
CONTINUOUS
10
0.3501968503937008
20
0.4146614173228346
11
0.3501968503937008
21
0.440251968503937
0
LINE
8
BLACK
6
CONTINUOUS
10
0.3501968503937008
20
0.440251968503937
11
0.3600393700787402
21
0.440251968503937
0
LINE
8
BLACK
6
CONTINUOUS
10
0.3600393700787402
20
0.440251968503937
11
0.3600393700787402
21
0.4146614173228346
0
LINE
8
BLACK
6
CONTINUOUS
10
0.1479345275590551
20
0.467188031496063
11
0.1504890157480315
21
0.4654811417322834
0
LINE
8
BLACK
6
CONTINUOUS
10
0.1504890157480315
20
0.4654811417322834
11
0.152195905511811
21
0.4629266535433071
0
LINE
8
BLACK
6
CONTINUOUS
10
0.152195905511811
20
0.4629266535433071
11
0.1527952755905512
21
0.4599133858267717
0
LINE
8
BLACK
6
CONTINUOUS
10
0.1527952755905512
20
0.4599133858267717
11
0.1527952755905512
21
0.4441653543307086
0
LINE
8
BLACK
6
CONTINUOUS
10
0.1527952755905512
20
0.4441653543307086
11
0.152195905511811
21
0.4411520866141732
0
LINE
8
BLACK
6
CONTINUOUS
10
0.152195905511811
20
0.4411520866141732
11
0.1504890157480315
21
0.4385975984251969
0
LINE
8
BLACK
6
CONTINUOUS
10
0.1504890157480315
20
0.4385975984251969
11
0.1479345275590551
21
0.4368907086614173
0
LINE
8
BLACK
6
CONTINUOUS
10
0.1479345275590551
20
0.4368907086614173
11
0.1449212598425197
21
0.4362913385826772
0
LINE
8
BLACK
6
CONTINUOUS
10
0.1449212598425197
20
0.4362913385826772
11
0.1232677165354331
21
0.4362913385826772
0
LINE
8
BLACK
6
CONTINUOUS
10
0.1232677165354331
20
0.4362913385826772
11
0.1202544488188976
21
0.4368907086614173
0
LINE
8
BLACK
6
CONTINUOUS
10
0.1202544488188976
20
0.4368907086614173
11
0.1176999606299213
21
0.4385975984251969
0
LINE
8
BLACK
6
CONTINUOUS
10
0.1176999606299213
20
0.4385975984251969
11
0.1159930708661417
21
0.4411520866141732
0
LINE
8
BLACK
6
CONTINUOUS
10
0.1159930708661417
20
0.4411520866141732
11
0.1153937007874016
21
0.4441653543307086
0
LINE
8
BLACK
6
CONTINUOUS
10
0.1153937007874016
20
0.4441653543307086
11
0.1153937007874016
21
0.4599133858267717
0
LINE
8
BLACK
6
CONTINUOUS
10
0.1153937007874016
20
0.4599133858267717
11
0.1159930708661417
21
0.4629266535433071
0
LINE
8
BLACK
6
CONTINUOUS
10
0.1159930708661417
20
0.4629266535433071
11
0.1176999606299213
21
0.4654811417322834
0
LINE
8
BLACK
6
CONTINUOUS
10
0.1176999606299213
20
0.4654811417322834
11
0.1202544488188976
21
0.467188031496063
0
LINE
8
BLACK
6
CONTINUOUS
10
0.1202544488188976
20
0.467188031496063
11
0.1232677165354331
21
0.4677874015748031
0
LINE
8
BLACK
6
CONTINUOUS
10
0.1232677165354331
20
0.4677874015748031
11
0.1449212598425197
21
0.4677874015748031
0
LINE
8
BLACK
6
CONTINUOUS
10
0.1449212598425197
20
0.4677874015748031
11
0.1479345275590551
21
0.467188031496063
0
LINE
8
BLACK
6
CONTINUOUS
10
0.4523269291338582
20
0.4885776771653543
11
0.4552007480314961
21
0.4866574409448819
0
LINE
8
BLACK
6
CONTINUOUS
10
0.4552007480314961
20
0.4866574409448819
11
0.4571209842519685
21
0.4837836220472441
0
LINE
8
BLACK
6
CONTINUOUS
10
0.4571209842519685
20
0.4837836220472441
11
0.4577952755905512
21
0.4803937007874016
0
LINE
8
BLACK
6
CONTINUOUS
10
0.4577952755905512
20
0.4803937007874016
11
0.4577952755905512
21
0.4626771653543307
0
LINE
8
BLACK
6
CONTINUOUS
10
0.4577952755905512
20
0.4626771653543307
11
0.4571209842519685
21
0.4592872440944882
0
LINE
8
BLACK
6
CONTINUOUS
10
0.4571209842519685
20
0.4592872440944882
11
0.4552007480314961
21
0.4564134251968504
0
LINE
8
BLACK
6
CONTINUOUS
10
0.4552007480314961
20
0.4564134251968504
11
0.4523269291338582
21
0.4544931889763779
0
LINE
8
BLACK
6
CONTINUOUS
10
0.4523269291338582
20
0.4544931889763779
11
0.4489370078740157
21
0.4538188976377953
0
LINE
8
BLACK
6
CONTINUOUS
10
0.4489370078740157
20
0.4538188976377953
11
0.429251968503937
21
0.4538188976377953
0
LINE
8
BLACK
6
CONTINUOUS
10
0.429251968503937
20
0.4538188976377953
11
0.4258620472440945
21
0.4544931889763779
0
LINE
8
BLACK
6
CONTINUOUS
10
0.4258620472440945
20
0.4544931889763779
11
0.4229882283464567
21
0.4564134251968504
0
LINE
8
BLACK
6
CONTINUOUS
10
0.4229882283464567
20
0.4564134251968504
11
0.4210679921259842
21
0.4592872440944882
0
LINE
8
BLACK
6
CONTINUOUS
10
0.4210679921259842
20
0.4592872440944882
11
0.4203937007874016
21
0.4626771653543307
0
LINE
8
BLACK
6
CONTINUOUS
10
0.4203937007874016
20
0.4626771653543307
11
0.4203937007874016
21
0.4803937007874016
0
LINE
8
BLACK
6
CONTINUOUS
10
0.4203937007874016
20
0.4803937007874016
11
0.4210679921259842
21
0.4837836220472441
0
LINE
8
BLACK
6
CONTINUOUS
10
0.4210679921259842
20
0.4837836220472441
11
0.4229882283464567
21
0.4866574409448819
0
LINE
8
BLACK
6
CONTINUOUS
10
0.4229882283464567
20
0.4866574409448819
11
0.4258620472440945
21
0.4885776771653543
0
LINE
8
BLACK
6
CONTINUOUS
10
0.4258620472440945
20
0.4885776771653543
11
0.429251968503937
21
0.489251968503937
0
LINE
8
BLACK
6
CONTINUOUS
10
0.429251968503937
20
0.489251968503937
11
0.4489370078740157
21
0.489251968503937
0
LINE
8
BLACK
6
CONTINUOUS
10
0.4489370078740157
20
0.489251968503937
11
0.4523269291338582
21
0.4885776771653543
0
LINE
8
BLACK
6
CONTINUOUS
10
0.2309055118110236
20
0.4540314960629921
11
0.2029527559055118
21
0.4540314960629921
0
LINE
8
BLACK
6
CONTINUOUS
10
0.2029527559055118
20
0.4540314960629921
11
0.2029527559055118
21
0.4804094488188976
0
LINE
8
BLACK
6
CONTINUOUS
10
0.2029527559055118
20
0.4804094488188976
11
0.2309055118110236
21
0.4804094488188976
0
LINE
8
BLACK
6
CONTINUOUS
10
0.2309055118110236
20
0.4804094488188976
11
0.2309055118110236
21
0.4540314960629921
0
LINE
8
BLACK
6
CONTINUOUS
10
0.2655511811023622
20
0.4540314960629921
11
0.2375984251968504
21
0.4540314960629921
0
LINE
8
BLACK
6
CONTINUOUS
10
0.2375984251968504
20
0.4540314960629921
11
0.2375984251968504
21
0.4804094488188976
0
LINE
8
BLACK
6
CONTINUOUS
10
0.2375984251968504
20
0.4804094488188976
11
0.2655511811023622
21
0.4804094488188976
0
LINE
8
BLACK
6
CONTINUOUS
10
0.2655511811023622
20
0.4804094488188976
11
0.2655511811023622
21
0.4540314960629921
0
LINE
8
BLACK
6
CONTINUOUS
10
0.3001968503937008
20
0.4540314960629921
11
0.272244094488189
21
0.4540314960629921
0
LINE
8
BLACK
6
CONTINUOUS
10
0.272244094488189
20
0.4540314960629921
11
0.272244094488189
21
0.4804094488188976
0
LINE
8
BLACK
6
CONTINUOUS
10
0.272244094488189
20
0.4804094488188976
11
0.3001968503937008
21
0.4804094488188976
0
LINE
8
BLACK
6
CONTINUOUS
10
0.3001968503937008
20
0.4804094488188976
11
0.3001968503937008
21
0.4540314960629921
0
LINE
8
BLACK
6
CONTINUOUS
10
0.3348425196850394
20
0.4540314960629921
11
0.3068897637795275
21
0.4540314960629921
0
LINE
8
BLACK
6
CONTINUOUS
10
0.3068897637795275
20
0.4540314960629921
11
0.3068897637795275
21
0.4804094488188976
0
LINE
8
BLACK
6
CONTINUOUS
10
0.3068897637795275
20
0.4804094488188976
11
0.3348425196850394
21
0.4804094488188976
0
LINE
8
BLACK
6
CONTINUOUS
10
0.3348425196850394
20
0.4804094488188976
11
0.3348425196850394
21
0.4540314960629921
0
LINE
8
BLACK
6
CONTINUOUS
10
0.3694881889763779
20
0.4540314960629921
11
0.3415354330708661
21
0.4540314960629921
0
LINE
8
BLACK
6
CONTINUOUS
10
0.3415354330708661
20
0.4540314960629921
11
0.3415354330708661
21
0.4804094488188976
0
LINE
8
BLACK
6
CONTINUOUS
10
0.3415354330708661
20
0.4804094488188976
11
0.3694881889763779
21
0.4804094488188976
0
LINE
8
BLACK
6
CONTINUOUS
10
0.3694881889763779
20
0.4804094488188976
11
0.3694881889763779
21
0.4540314960629921
0
LINE
8
BLACK
6
CONTINUOUS
10
-0.0820601968503937
20
0.4994476377952756
11
-0.0788670472440945
21
0.4973140551181102
0
LINE
8
BLACK
6
CONTINUOUS
10
-0.0788670472440945
20
0.4973140551181102
11
-0.0767334645669291
21
0.494120905511811
0
LINE
8
BLACK
6
CONTINUOUS
10
-0.0767334645669291
20
0.494120905511811
11
-0.0759842519685039
21
0.4903543307086614
0
LINE
8
BLACK
6
CONTINUOUS
10
-0.0759842519685039
20
0.4903543307086614
11
-0.0759842519685039
21
0.4706692913385827
0
LINE
8
BLACK
6
CONTINUOUS
10
-0.0759842519685039
20
0.4706692913385827
11
-0.0767334645669291
21
0.4669027165354331
0
LINE
8
BLACK
6
CONTINUOUS
10
-0.0767334645669291
20
0.4669027165354331
11
-0.0788670472440945
21
0.4637095669291338
0
LINE
8
BLACK
6
CONTINUOUS
10
-0.0788670472440945
20
0.4637095669291338
11
-0.0820601968503937
21
0.4615759842519685
0
LINE
8
BLACK
6
CONTINUOUS
10
-0.0820601968503937
20
0.4615759842519685
11
-0.0858267716535433
21
0.4608267716535433
0
LINE
8
BLACK
6
CONTINUOUS
10
-0.0858267716535433
20
0.4608267716535433
11
-0.1724409448818898
21
0.4608267716535433
0
LINE
8
BLACK
6
CONTINUOUS
10
-0.1724409448818898
20
0.4608267716535433
11
-0.1762075196850394
21
0.4615759842519685
0
LINE
8
BLACK
6
CONTINUOUS
10
-0.1762075196850394
20
0.4615759842519685
11
-0.1794006692913386
21
0.4637095669291338
0
LINE
8
BLACK
6
CONTINUOUS
10
-0.1794006692913386
20
0.4637095669291338
11
-0.1815342519685039
21
0.4669027165354331
0
LINE
8
BLACK
6
CONTINUOUS
10
-0.1815342519685039
20
0.4669027165354331
11
-0.1822834645669291
21
0.4706692913385827
0
LINE
8
BLACK
6
CONTINUOUS
10
-0.1822834645669291
20
0.4706692913385827
11
-0.1822834645669291
21
0.4903543307086614
0
LINE
8
BLACK
6
CONTINUOUS
10
-0.1822834645669291
20
0.4903543307086614
11
-0.1815342519685039
21
0.494120905511811
0
LINE
8
BLACK
6
CONTINUOUS
10
-0.1815342519685039
20
0.494120905511811
11
-0.1794006692913386
21
0.4973140551181102
0
LINE
8
BLACK
6
CONTINUOUS
10
-0.1794006692913386
20
0.4973140551181102
11
-0.1762075196850394
21
0.4994476377952756
0
LINE
8
BLACK
6
CONTINUOUS
10
-0.1762075196850394
20
0.4994476377952756
11
-0.1724409448818898
21
0.5001968503937008
0
LINE
8
BLACK
6
CONTINUOUS
10
-0.1724409448818898
20
0.5001968503937008
11
-0.0858267716535433
21
0.5001968503937008
0
LINE
8
BLACK
6
CONTINUOUS
10
-0.0858267716535433
20
0.5001968503937008
11
-0.0820601968503937
21
0.4994476377952756
0
LINE
8
BLACK
6
CONTINUOUS
10
0.7486484645669291
20
0.4994476377952756
11
0.7518416141732284
21
0.4973140551181102
0
LINE
8
BLACK
6
CONTINUOUS
10
0.7518416141732284
20
0.4973140551181102
11
0.7539751968503937
21
0.494120905511811
0
LINE
8
BLACK
6
CONTINUOUS
10
0.7539751968503937
20
0.494120905511811
11
0.7547244094488189
21
0.4903543307086614
0
LINE
8
BLACK
6
CONTINUOUS
10
0.7547244094488189
20
0.4903543307086614
11
0.7547244094488189
21
0.4706692913385827
0
LINE
8
BLACK
6
CONTINUOUS
10
0.7547244094488189
20
0.4706692913385827
11
0.7539751968503937
21
0.4669027165354331
0
LINE
8
BLACK
6
CONTINUOUS
10
0.7539751968503937
20
0.4669027165354331
11
0.7518416141732284
21
0.4637095669291338
0
LINE
8
BLACK
6
CONTINUOUS
10
0.7518416141732284
20
0.4637095669291338
11
0.7486484645669291
21
0.4615759842519685
0
LINE
8
BLACK
6
CONTINUOUS
10
0.7486484645669291
20
0.4615759842519685
11
0.7448818897637796
21
0.4608267716535433
0
LINE
8
BLACK
6
CONTINUOUS
10
0.7448818897637796
20
0.4608267716535433
11
0.658267716535433
21
0.4608267716535433
0
LINE
8
BLACK
6
CONTINUOUS
10
0.658267716535433
20
0.4608267716535433
11
0.6545011417322835
21
0.4615759842519685
0
LINE
8
BLACK
6
CONTINUOUS
10
0.6545011417322835
20
0.4615759842519685
11
0.6513079921259842
21
0.4637095669291338
0
LINE
8
BLACK
6
CONTINUOUS
10
0.6513079921259842
20
0.4637095669291338
11
0.6491744094488189
21
0.4669027165354331
0
LINE
8
BLACK
6
CONTINUOUS
10
0.6491744094488189
20
0.4669027165354331
11
0.6484251968503937
21
0.4706692913385827
0
LINE
8
BLACK
6
CONTINUOUS
10
0.6484251968503937
20
0.4706692913385827
11
0.6484251968503937
21
0.4903543307086614
0
LINE
8
BLACK
6
CONTINUOUS
10
0.6484251968503937
20
0.4903543307086614
11
0.6491744094488189
21
0.494120905511811
0
LINE
8
BLACK
6
CONTINUOUS
10
0.6491744094488189
20
0.494120905511811
11
0.6513079921259842
21
0.4973140551181102
0
LINE
8
BLACK
6
CONTINUOUS
10
0.6513079921259842
20
0.4973140551181102
11
0.6545011417322835
21
0.4994476377952756
0
LINE
8
BLACK
6
CONTINUOUS
10
0.6545011417322835
20
0.4994476377952756
11
0.658267716535433
21
0.5001968503937008
0
LINE
8
BLACK
6
CONTINUOUS
10
0.658267716535433
20
0.5001968503937008
11
0.7448818897637796
21
0.5001968503937008
0
LINE
8
BLACK
6
CONTINUOUS
10
0.7448818897637796
20
0.5001968503937008
11
0.7486484645669291
21
0.4994476377952756
0
LINE
8
BLACK
6
CONTINUOUS
10
0.2309055118110236
20
0.4867086614173228
11
0.2029527559055118
21
0.4867086614173228
0
LINE
8
BLACK
6
CONTINUOUS
10
0.2029527559055118
20
0.4867086614173228
11
0.2029527559055118
21
0.5130866141732283
0
LINE
8
BLACK
6
CONTINUOUS
10
0.2029527559055118
20
0.5130866141732283
11
0.2309055118110236
21
0.5130866141732283
0
LINE
8
BLACK
6
CONTINUOUS
10
0.2309055118110236
20
0.5130866141732283
11
0.2309055118110236
21
0.4867086614173228
0
LINE
8
BLACK
6
CONTINUOUS
10
0.2655511811023622
20
0.4867086614173228
11
0.2375984251968504
21
0.4867086614173228
0
LINE
8
BLACK
6
CONTINUOUS
10
0.2375984251968504
20
0.4867086614173228
11
0.2375984251968504
21
0.5130866141732283
0
LINE
8
BLACK
6
CONTINUOUS
10
0.2375984251968504
20
0.5130866141732283
11
0.2655511811023622
21
0.5130866141732283
0
LINE
8
BLACK
6
CONTINUOUS
10
0.2655511811023622
20
0.5130866141732283
11
0.2655511811023622
21
0.4867086614173228
0
LINE
8
BLACK
6
CONTINUOUS
10
0.3001968503937008
20
0.4867086614173228
11
0.272244094488189
21
0.4867086614173228
0
LINE
8
BLACK
6
CONTINUOUS
10
0.272244094488189
20
0.4867086614173228
11
0.272244094488189
21
0.5130866141732283
0
LINE
8
BLACK
6
CONTINUOUS
10
0.272244094488189
20
0.5130866141732283
11
0.3001968503937008
21
0.5130866141732283
0
LINE
8
BLACK
6
CONTINUOUS
10
0.3001968503937008
20
0.5130866141732283
11
0.3001968503937008
21
0.4867086614173228
0
LINE
8
BLACK
6
CONTINUOUS
10
0.3348425196850394
20
0.4867086614173228
11
0.3068897637795275
21
0.4867086614173228
0
LINE
8
BLACK
6
CONTINUOUS
10
0.3068897637795275
20
0.4867086614173228
11
0.3068897637795275
21
0.5130866141732283
0
LINE
8
BLACK
6
CONTINUOUS
10
0.3068897637795275
20
0.5130866141732283
11
0.3348425196850394
21
0.5130866141732283
0
LINE
8
BLACK
6
CONTINUOUS
10
0.3348425196850394
20
0.5130866141732283
11
0.3348425196850394
21
0.4867086614173228
0
LINE
8
BLACK
6
CONTINUOUS
10
0.3694881889763779
20
0.4867086614173228
11
0.3415354330708661
21
0.4867086614173228
0
LINE
8
BLACK
6
CONTINUOUS
10
0.3415354330708661
20
0.4867086614173228
11
0.3415354330708661
21
0.5130866141732283
0
LINE
8
BLACK
6
CONTINUOUS
10
0.3415354330708661
20
0.5130866141732283
11
0.3694881889763779
21
0.5130866141732283
0
LINE
8
BLACK
6
CONTINUOUS
10
0.3694881889763779
20
0.5130866141732283
11
0.3694881889763779
21
0.4867086614173228
0
LINE
8
BLACK
6
CONTINUOUS
10
0.0875014566929134
20
0.5376604724409448
11
0.0900559448818898
21
0.5359535826771653
0
LINE
8
BLACK
6
CONTINUOUS
10
0.0900559448818898
20
0.5359535826771653
11
0.0917628346456693
21
0.533399094488189
0
LINE
8
BLACK
6
CONTINUOUS
10
0.0917628346456693
20
0.533399094488189
11
0.0923622047244095
21
0.5303858267716536
0
LINE
8
BLACK
6
CONTINUOUS
10
0.0923622047244095
20
0.5303858267716536
11
0.0923622047244095
21
0.5087322834645669
0
LINE
8
BLACK
6
CONTINUOUS
10
0.0923622047244095
20
0.5087322834645669
11
0.0917628346456693
21
0.5057190157480315
0
LINE
8
BLACK
6
CONTINUOUS
10
0.0917628346456693
20
0.5057190157480315
11
0.0900559448818898
21
0.5031645275590551
0
LINE
8
BLACK
6
CONTINUOUS
10
0.0900559448818898
20
0.5031645275590551
11
0.0875014566929134
21
0.5014576377952755
0
LINE
8
BLACK
6
CONTINUOUS
10
0.0875014566929134
20
0.5014576377952755
11
0.084488188976378
21
0.5008582677165354
0
LINE
8
BLACK
6
CONTINUOUS
10
0.084488188976378
20
0.5008582677165354
11
0.068740157480315
21
0.5008582677165354
0
LINE
8
BLACK
6
CONTINUOUS
10
0.068740157480315
20
0.5008582677165354
11
0.0657268897637795
21
0.5014576377952755
0
LINE
8
BLACK
6
CONTINUOUS
10
0.0657268897637795
20
0.5014576377952755
11
0.0631724015748032
21
0.5031645275590551
0
LINE
8
BLACK
6
CONTINUOUS
10
0.0631724015748032
20
0.5031645275590551
11
0.0614655118110236
21
0.5057190157480315
0
LINE
8
BLACK
6
CONTINUOUS
10
0.0614655118110236
20
0.5057190157480315
11
0.0608661417322835
21
0.5087322834645669
0
LINE
8
BLACK
6
CONTINUOUS
10
0.0608661417322835
20
0.5087322834645669
11
0.0608661417322835
21
0.5303858267716536
0
LINE
8
BLACK
6
CONTINUOUS
10
0.0608661417322835
20
0.5303858267716536
11
0.0614655118110236
21
0.533399094488189
0
LINE
8
BLACK
6
CONTINUOUS
10
0.0614655118110236
20
0.533399094488189
11
0.0631724015748032
21
0.5359535826771653
0
LINE
8
BLACK
6
CONTINUOUS
10
0.0631724015748032
20
0.5359535826771653
11
0.0657268897637795
21
0.5376604724409448
0
LINE
8
BLACK
6
CONTINUOUS
10
0.0657268897637795
20
0.5376604724409448
11
0.068740157480315
21
0.5382598425196851
0
LINE
8
BLACK
6
CONTINUOUS
10
0.068740157480315
20
0.5382598425196851
11
0.084488188976378
21
0.5382598425196851
0
LINE
8
BLACK
6
CONTINUOUS
10
0.084488188976378
20
0.5382598425196851
11
0.0875014566929134
21
0.5376604724409448
0
LINE
8
BLACK
6
CONTINUOUS
10
0.1524620866141732
20
0.5376604724409448
11
0.1550165748031496
21
0.5359535826771653
0
LINE
8
BLACK
6
CONTINUOUS
10
0.1550165748031496
20
0.5359535826771653
11
0.1567234645669291
21
0.533399094488189
0
LINE
8
BLACK
6
CONTINUOUS
10
0.1567234645669291
20
0.533399094488189
11
0.1573228346456693
21
0.5303858267716536
0
LINE
8
BLACK
6
CONTINUOUS
10
0.1573228346456693
20
0.5303858267716536
11
0.1573228346456693
21
0.5087322834645669
0
LINE
8
BLACK
6
CONTINUOUS
10
0.1573228346456693
20
0.5087322834645669
11
0.1567234645669291
21
0.5057190157480315
0
LINE
8
BLACK
6
CONTINUOUS
10
0.1567234645669291
20
0.5057190157480315
11
0.1550165748031496
21
0.5031645275590551
0
LINE
8
BLACK
6
CONTINUOUS
10
0.1550165748031496
20
0.5031645275590551
11
0.1524620866141732
21
0.5014576377952755
0
LINE
8
BLACK
6
CONTINUOUS
10
0.1524620866141732
20
0.5014576377952755
11
0.1494488188976378
21
0.5008582677165354
0
LINE
8
BLACK
6
CONTINUOUS
10
0.1494488188976378
20
0.5008582677165354
11
0.1337007874015748
21
0.5008582677165354
0
LINE
8
BLACK
6
CONTINUOUS
10
0.1337007874015748
20
0.5008582677165354
11
0.1306875196850394
21
0.5014576377952755
0
LINE
8
BLACK
6
CONTINUOUS
10
0.1306875196850394
20
0.5014576377952755
11
0.128133031496063
21
0.5031645275590551
0
LINE
8
BLACK
6
CONTINUOUS
10
0.128133031496063
20
0.5031645275590551
11
0.1264261417322834
21
0.5057190157480315
0
LINE
8
BLACK
6
CONTINUOUS
10
0.1264261417322834
20
0.5057190157480315
11
0.1258267716535433
21
0.5087322834645669
0
LINE
8
BLACK
6
CONTINUOUS
10
0.1258267716535433
20
0.5087322834645669
11
0.1258267716535433
21
0.5303858267716536
0
LINE
8
BLACK
6
CONTINUOUS
10
0.1258267716535433
20
0.5303858267716536
11
0.1264261417322834
21
0.533399094488189
0
LINE
8
BLACK
6
CONTINUOUS
10
0.1264261417322834
20
0.533399094488189
11
0.128133031496063
21
0.5359535826771653
0
LINE
8
BLACK
6
CONTINUOUS
10
0.128133031496063
20
0.5359535826771653
11
0.1306875196850394
21
0.5376604724409448
0
LINE
8
BLACK
6
CONTINUOUS
10
0.1306875196850394
20
0.5376604724409448
11
0.1337007874015748
21
0.5382598425196851
0
LINE
8
BLACK
6
CONTINUOUS
10
0.1337007874015748
20
0.5382598425196851
11
0.1494488188976378
21
0.5382598425196851
0
LINE
8
BLACK
6
CONTINUOUS
10
0.1494488188976378
20
0.5382598425196851
11
0.1524620866141732
21
0.5376604724409448
0
LINE
8
BLACK
6
CONTINUOUS
10
0.4523269291338582
20
0.5496012992125984
11
0.4552007480314961
21
0.5476810629921259
0
LINE
8
BLACK
6
CONTINUOUS
10
0.4552007480314961
20
0.5476810629921259
11
0.4571209842519685
21
0.5448072440944882
0
LINE
8
BLACK
6
CONTINUOUS
10
0.4571209842519685
20
0.5448072440944882
11
0.4577952755905512
21
0.5414173228346456
0
LINE
8
BLACK
6
CONTINUOUS
10
0.4577952755905512
20
0.5414173228346456
11
0.4577952755905512
21
0.5237007874015748
0
LINE
8
BLACK
6
CONTINUOUS
10
0.4577952755905512
20
0.5237007874015748
11
0.4571209842519685
21
0.5203108661417323
0
LINE
8
BLACK
6
CONTINUOUS
10
0.4571209842519685
20
0.5203108661417323
11
0.4552007480314961
21
0.5174370472440945
0
LINE
8
BLACK
6
CONTINUOUS
10
0.4552007480314961
20
0.5174370472440945
11
0.4523269291338582
21
0.515516811023622
0
LINE
8
BLACK
6
CONTINUOUS
10
0.4523269291338582
20
0.515516811023622
11
0.4489370078740157
21
0.5148425196850394
0
LINE
8
BLACK
6
CONTINUOUS
10
0.4489370078740157
20
0.5148425196850394
11
0.429251968503937
21
0.5148425196850394
0
LINE
8
BLACK
6
CONTINUOUS
10
0.429251968503937
20
0.5148425196850394
11
0.4258620472440945
21
0.515516811023622
0
LINE
8
BLACK
6
CONTINUOUS
10
0.4258620472440945
20
0.515516811023622
11
0.4229882283464567
21
0.5174370472440945
0
LINE
8
BLACK
6
CONTINUOUS
10
0.4229882283464567
20
0.5174370472440945
11
0.4210679921259842
21
0.5203108661417323
0
LINE
8
BLACK
6
CONTINUOUS
10
0.4210679921259842
20
0.5203108661417323
11
0.4203937007874016
21
0.5237007874015748
0
LINE
8
BLACK
6
CONTINUOUS
10
0.4203937007874016
20
0.5237007874015748
11
0.4203937007874016
21
0.5414173228346456
0
LINE
8
BLACK
6
CONTINUOUS
10
0.4203937007874016
20
0.5414173228346456
11
0.4210679921259842
21
0.5448072440944882
0
LINE
8
BLACK
6
CONTINUOUS
10
0.4210679921259842
20
0.5448072440944882
11
0.4229882283464567
21
0.5476810629921259
0
LINE
8
BLACK
6
CONTINUOUS
10
0.4229882283464567
20
0.5476810629921259
11
0.4258620472440945
21
0.5496012992125984
0
LINE
8
BLACK
6
CONTINUOUS
10
0.4258620472440945
20
0.5496012992125984
11
0.429251968503937
21
0.5502755905511811
0
LINE
8
BLACK
6
CONTINUOUS
10
0.429251968503937
20
0.5502755905511811
11
0.4489370078740157
21
0.5502755905511811
0
LINE
8
BLACK
6
CONTINUOUS
10
0.4489370078740157
20
0.5502755905511811
11
0.4523269291338582
21
0.5496012992125984
0
LINE
8
BLACK
6
CONTINUOUS
10
0.222244094488189
20
0.5268661417322834
11
0.2124015748031496
21
0.5268661417322834
0
LINE
8
BLACK
6
CONTINUOUS
10
0.2124015748031496
20
0.5268661417322834
11
0.2124015748031496
21
0.5524566929133858
0
LINE
8
BLACK
6
CONTINUOUS
10
0.2124015748031496
20
0.5524566929133858
11
0.222244094488189
21
0.5524566929133858
0
LINE
8
BLACK
6
CONTINUOUS
10
0.222244094488189
20
0.5524566929133858
11
0.222244094488189
21
0.5268661417322834
0
LINE
8
BLACK
6
CONTINUOUS
10
0.2419291338582677
20
0.5268661417322834
11
0.2320866141732283
21
0.5268661417322834
0
LINE
8
BLACK
6
CONTINUOUS
10
0.2320866141732283
20
0.5268661417322834
11
0.2320866141732283
21
0.5524566929133858
0
LINE
8
BLACK
6
CONTINUOUS
10
0.2320866141732283
20
0.5524566929133858
11
0.2419291338582677
21
0.5524566929133858
0
LINE
8
BLACK
6
CONTINUOUS
10
0.2419291338582677
20
0.5524566929133858
11
0.2419291338582677
21
0.5268661417322834
0
LINE
8
BLACK
6
CONTINUOUS
10
0.2616141732283465
20
0.5268661417322834
11
0.2517716535433071
21
0.5268661417322834
0
LINE
8
BLACK
6
CONTINUOUS
10
0.2517716535433071
20
0.5268661417322834
11
0.2517716535433071
21
0.5524566929133858
0
LINE
8
BLACK
6
CONTINUOUS
10
0.2517716535433071
20
0.5524566929133858
11
0.2616141732283465
21
0.5524566929133858
0
LINE
8
BLACK
6
CONTINUOUS
10
0.2616141732283465
20
0.5524566929133858
11
0.2616141732283465
21
0.5268661417322834
0
LINE
8
BLACK
6
CONTINUOUS
10
0.2812992125984252
20
0.5268661417322834
11
0.2714566929133858
21
0.5268661417322834
0
LINE
8
BLACK
6
CONTINUOUS
10
0.2714566929133858
20
0.5268661417322834
11
0.2714566929133858
21
0.5524566929133858
0
LINE
8
BLACK
6
CONTINUOUS
10
0.2714566929133858
20
0.5524566929133858
11
0.2812992125984252
21
0.5524566929133858
0
LINE
8
BLACK
6
CONTINUOUS
10
0.2812992125984252
20
0.5524566929133858
11
0.2812992125984252
21
0.5268661417322834
0
LINE
8
BLACK
6
CONTINUOUS
10
0.3009842519685039
20
0.5268661417322834
11
0.2911417322834646
21
0.5268661417322834
0
LINE
8
BLACK
6
CONTINUOUS
10
0.2911417322834646
20
0.5268661417322834
11
0.2911417322834646
21
0.5524566929133858
0
LINE
8
BLACK
6
CONTINUOUS
10
0.2911417322834646
20
0.5524566929133858
11
0.3009842519685039
21
0.5524566929133858
0
LINE
8
BLACK
6
CONTINUOUS
10
0.3009842519685039
20
0.5524566929133858
11
0.3009842519685039
21
0.5268661417322834
0
LINE
8
BLACK
6
CONTINUOUS
10
0.3206692913385827
20
0.5268661417322834
11
0.3108267716535433
21
0.5268661417322834
0
LINE
8
BLACK
6
CONTINUOUS
10
0.3108267716535433
20
0.5268661417322834
11
0.3108267716535433
21
0.5524566929133858
0
LINE
8
BLACK
6
CONTINUOUS
10
0.3108267716535433
20
0.5524566929133858
11
0.3206692913385827
21
0.5524566929133858
0
LINE
8
BLACK
6
CONTINUOUS
10
0.3206692913385827
20
0.5524566929133858
11
0.3206692913385827
21
0.5268661417322834
0
LINE
8
BLACK
6
CONTINUOUS
10
0.3403543307086614
20
0.5268661417322834
11
0.330511811023622
21
0.5268661417322834
0
LINE
8
BLACK
6
CONTINUOUS
10
0.330511811023622
20
0.5268661417322834
11
0.330511811023622
21
0.5524566929133858
0
LINE
8
BLACK
6
CONTINUOUS
10
0.330511811023622
20
0.5524566929133858
11
0.3403543307086614
21
0.5524566929133858
0
LINE
8
BLACK
6
CONTINUOUS
10
0.3403543307086614
20
0.5524566929133858
11
0.3403543307086614
21
0.5268661417322834
0
LINE
8
BLACK
6
CONTINUOUS
10
0.3600393700787402
20
0.5268661417322834
11
0.3501968503937008
21
0.5268661417322834
0
LINE
8
BLACK
6
CONTINUOUS
10
0.3501968503937008
20
0.5268661417322834
11
0.3501968503937008
21
0.5524566929133858
0
LINE
8
BLACK
6
CONTINUOUS
10
0.3501968503937008
20
0.5524566929133858
11
0.3600393700787402
21
0.5524566929133858
0
LINE
8
BLACK
6
CONTINUOUS
10
0.3600393700787402
20
0.5524566929133858
11
0.3600393700787402
21
0.5268661417322834
0
LINE
8
BLACK
6
CONTINUOUS
10
0.0266694094488189
20
0.5647079527559055
11
0.0285852755905512
21
0.5634277952755905
0
LINE
8
BLACK
6
CONTINUOUS
10
0.0285852755905512
20
0.5634277952755905
11
0.0298654330708661
21
0.5615119291338583
0
LINE
8
BLACK
6
CONTINUOUS
10
0.0298654330708661
20
0.5615119291338583
11
0.0303149606299213
21
0.559251968503937
0
LINE
8
BLACK
6
CONTINUOUS
10
0.0303149606299213
20
0.559251968503937
11
0.0303149606299213
21
0.5474409448818898
0
LINE
8
BLACK
6
CONTINUOUS
10
0.0303149606299213
20
0.5474409448818898
11
0.0298654330708661
21
0.5451809842519685
0
LINE
8
BLACK
6
CONTINUOUS
10
0.0298654330708661
20
0.5451809842519685
11
0.0285852755905512
21
0.5432651181102363
0
LINE
8
BLACK
6
CONTINUOUS
10
0.0285852755905512
20
0.5432651181102363
11
0.0266694094488189
21
0.5419849606299213
0
LINE
8
BLACK
6
CONTINUOUS
10
0.0266694094488189
20
0.5419849606299213
11
0.0244094488188976
21
0.5415354330708662
0
LINE
8
BLACK
6
CONTINUOUS
10
0.0244094488188976
20
0.5415354330708662
11
-0.0307086614173228
21
0.5415354330708662
0
LINE
8
BLACK
6
CONTINUOUS
10
-0.0307086614173228
20
0.5415354330708662
11
-0.0329686220472441
21
0.5419849606299213
0
LINE
8
BLACK
6
CONTINUOUS
10
-0.0329686220472441
20
0.5419849606299213
11
-0.0348844881889764
21
0.5432651181102363
0
LINE
8
BLACK
6
CONTINUOUS
10
-0.0348844881889764
20
0.5432651181102363
11
-0.0361646456692913
21
0.5451809842519685
0
LINE
8
BLACK
6
CONTINUOUS
10
-0.0361646456692913
20
0.5451809842519685
11
-0.0366141732283465
21
0.5474409448818898
0
LINE
8
BLACK
6
CONTINUOUS
10
-0.0366141732283465
20
0.5474409448818898
11
-0.0366141732283465
21
0.559251968503937
0
LINE
8
BLACK
6
CONTINUOUS
10
-0.0366141732283465
20
0.559251968503937
11
-0.0361646456692913
21
0.5615119291338583
0
LINE
8
BLACK
6
CONTINUOUS
10
-0.0361646456692913
20
0.5615119291338583
11
-0.0348844881889764
21
0.5634277952755905
0
LINE
8
BLACK
6
CONTINUOUS
10
-0.0348844881889764
20
0.5634277952755905
11
-0.0329686220472441
21
0.5647079527559055
0
LINE
8
BLACK
6
CONTINUOUS
10
-0.0329686220472441
20
0.5647079527559055
11
-0.0307086614173228
21
0.5651574803149606
0
LINE
8
BLACK
6
CONTINUOUS
10
-0.0307086614173228
20
0.5651574803149606
11
0.0244094488188976
21
0.5651574803149606
0
LINE
8
BLACK
6
CONTINUOUS
10
0.0244094488188976
20
0.5651574803149606
11
0.0266694094488189
21
0.5647079527559055
0
LINE
8
BLACK
6
CONTINUOUS
10
0.6054095669291338
20
0.5647079527559055
11
0.6073254330708662
21
0.5634277952755905
0
LINE
8
BLACK
6
CONTINUOUS
10
0.6073254330708662
20
0.5634277952755905
11
0.6086055905511811
21
0.5615119291338583
0
LINE
8
BLACK
6
CONTINUOUS
10
0.6086055905511811
20
0.5615119291338583
11
0.6090551181102362
21
0.559251968503937
0
LINE
8
BLACK
6
CONTINUOUS
10
0.6090551181102362
20
0.559251968503937
11
0.6090551181102362
21
0.5474409448818898
0
LINE
8
BLACK
6
CONTINUOUS
10
0.6090551181102362
20
0.5474409448818898
11
0.6086055905511811
21
0.5451809842519685
0
LINE
8
BLACK
6
CONTINUOUS
10
0.6086055905511811
20
0.5451809842519685
11
0.6073254330708662
21
0.5432651181102363
0
LINE
8
BLACK
6
CONTINUOUS
10
0.6073254330708662
20
0.5432651181102363
11
0.6054095669291338
21
0.5419849606299213
0
LINE
8
BLACK
6
CONTINUOUS
10
0.6054095669291338
20
0.5419849606299213
11
0.6031496062992125
21
0.5415354330708662
0
LINE
8
BLACK
6
CONTINUOUS
10
0.6031496062992125
20
0.5415354330708662
11
0.5480314960629921
21
0.5415354330708662
0
LINE
8
BLACK
6
CONTINUOUS
10
0.5480314960629921
20
0.5415354330708662
11
0.5457715354330709
21
0.5419849606299213
0
LINE
8
BLACK
6
CONTINUOUS
10
0.5457715354330709
20
0.5419849606299213
11
0.5438556692913386
21
0.5432651181102363
0
LINE
8
BLACK
6
CONTINUOUS
10
0.5438556692913386
20
0.5432651181102363
11
0.5425755118110236
21
0.5451809842519685
0
LINE
8
BLACK
6
CONTINUOUS
10
0.5425755118110236
20
0.5451809842519685
11
0.5421259842519685
21
0.5474409448818898
0
LINE
8
BLACK
6
CONTINUOUS
10
0.5421259842519685
20
0.5474409448818898
11
0.5421259842519685
21
0.559251968503937
0
LINE
8
BLACK
6
CONTINUOUS
10
0.5421259842519685
20
0.559251968503937
11
0.5425755118110236
21
0.5615119291338583
0
LINE
8
BLACK
6
CONTINUOUS
10
0.5425755118110236
20
0.5615119291338583
11
0.5438556692913386
21
0.5634277952755905
0
LINE
8
BLACK
6
CONTINUOUS
10
0.5438556692913386
20
0.5634277952755905
11
0.5457715354330709
21
0.5647079527559055
0
LINE
8
BLACK
6
CONTINUOUS
10
0.5457715354330709
20
0.5647079527559055
11
0.5480314960629921
21
0.5651574803149606
0
LINE
8
BLACK
6
CONTINUOUS
10
0.5480314960629921
20
0.5651574803149606
11
0.6031496062992125
21
0.5651574803149606
0
LINE
8
BLACK
6
CONTINUOUS
10
0.6031496062992125
20
0.5651574803149606
11
0.6054095669291338
21
0.5647079527559055
0
LINE
8
BLACK
6
CONTINUOUS
10
0.1329345275590551
20
0.6107077165354331
11
0.1354890157480315
21
0.6090008267716536
0
LINE
8
BLACK
6
CONTINUOUS
10
0.1354890157480315
20
0.6090008267716536
11
0.137195905511811
21
0.6064463385826772
0
LINE
8
BLACK
6
CONTINUOUS
10
0.137195905511811
20
0.6064463385826772
11
0.1377952755905512
21
0.6034330708661417
0
LINE
8
BLACK
6
CONTINUOUS
10
0.1377952755905512
20
0.6034330708661417
11
0.1377952755905512
21
0.5876850393700788
0
LINE
8
BLACK
6
CONTINUOUS
10
0.1377952755905512
20
0.5876850393700788
11
0.137195905511811
21
0.5846717716535433
0
LINE
8
BLACK
6
CONTINUOUS
10
0.137195905511811
20
0.5846717716535433
11
0.1354890157480315
21
0.5821172834645669
0
LINE
8
BLACK
6
CONTINUOUS
10
0.1354890157480315
20
0.5821172834645669
11
0.1329345275590551
21
0.5804103937007874
0
LINE
8
BLACK
6
CONTINUOUS
10
0.1329345275590551
20
0.5804103937007874
11
0.1299212598425197
21
0.5798110236220473
0
LINE
8
BLACK
6
CONTINUOUS
10
0.1299212598425197
20
0.5798110236220473
11
0.1082677165354331
21
0.5798110236220473
0
LINE
8
BLACK
6
CONTINUOUS
10
0.1082677165354331
20
0.5798110236220473
11
0.1052544488188976
21
0.5804103937007874
0
LINE
8
BLACK
6
CONTINUOUS
10
0.1052544488188976
20
0.5804103937007874
11
0.1026999606299213
21
0.5821172834645669
0
LINE
8
BLACK
6
CONTINUOUS
10
0.1026999606299213
20
0.5821172834645669
11
0.1009930708661417
21
0.5846717716535433
0
LINE
8
BLACK
6
CONTINUOUS
10
0.1009930708661417
20
0.5846717716535433
11
0.1003937007874016
21
0.5876850393700788
0
LINE
8
BLACK
6
CONTINUOUS
10
0.1003937007874016
20
0.5876850393700788
11
0.1003937007874016
21
0.6034330708661417
0
LINE
8
BLACK
6
CONTINUOUS
10
0.1003937007874016
20
0.6034330708661417
11
0.1009930708661417
21
0.6064463385826772
0
LINE
8
BLACK
6
CONTINUOUS
10
0.1009930708661417
20
0.6064463385826772
11
0.1026999606299213
21
0.6090008267716536
0
LINE
8
BLACK
6
CONTINUOUS
10
0.1026999606299213
20
0.6090008267716536
11
0.1052544488188976
21
0.6107077165354331
0
LINE
8
BLACK
6
CONTINUOUS
10
0.1052544488188976
20
0.6107077165354331
11
0.1082677165354331
21
0.6113070866141732
0
LINE
8
BLACK
6
CONTINUOUS
10
0.1082677165354331
20
0.6113070866141732
11
0.1299212598425197
21
0.6113070866141732
0
LINE
8
BLACK
6
CONTINUOUS
10
0.1299212598425197
20
0.6113070866141732
11
0.1329345275590551
21
0.6107077165354331
0
LINE
8
BLACK
6
CONTINUOUS
10
0.4679345275590551
20
0.6122274015748032
11
0.4704890157480315
21
0.6105205118110236
0
LINE
8
BLACK
6
CONTINUOUS
10
0.4704890157480315
20
0.6105205118110236
11
0.472195905511811
21
0.6079660236220472
0
LINE
8
BLACK
6
CONTINUOUS
10
0.472195905511811
20
0.6079660236220472
11
0.4727952755905512
21
0.6049527559055118
0
LINE
8
BLACK
6
CONTINUOUS
10
0.4727952755905512
20
0.6049527559055118
11
0.4727952755905512
21
0.5892047244094488
0
LINE
8
BLACK
6
CONTINUOUS
10
0.4727952755905512
20
0.5892047244094488
11
0.472195905511811
21
0.5861914566929134
0
LINE
8
BLACK
6
CONTINUOUS
10
0.472195905511811
20
0.5861914566929134
11
0.4704890157480315
21
0.583636968503937
0
LINE
8
BLACK
6
CONTINUOUS
10
0.4704890157480315
20
0.583636968503937
11
0.4679345275590551
21
0.5819300787401575
0
LINE
8
BLACK
6
CONTINUOUS
10
0.4679345275590551
20
0.5819300787401575
11
0.4649212598425197
21
0.5813307086614173
0
LINE
8
BLACK
6
CONTINUOUS
10
0.4649212598425197
20
0.5813307086614173
11
0.4432677165354331
21
0.5813307086614173
0
LINE
8
BLACK
6
CONTINUOUS
10
0.4432677165354331
20
0.5813307086614173
11
0.4402544488188976
21
0.5819300787401575
0
LINE
8
BLACK
6
CONTINUOUS
10
0.4402544488188976
20
0.5819300787401575
11
0.4376999606299212
21
0.583636968503937
0
LINE
8
BLACK
6
CONTINUOUS
10
0.4376999606299212
20
0.583636968503937
11
0.4359930708661417
21
0.5861914566929134
0
LINE
8
BLACK
6
CONTINUOUS
10
0.4359930708661417
20
0.5861914566929134
11
0.4353937007874016
21
0.5892047244094488
0
LINE
8
BLACK
6
CONTINUOUS
10
0.4353937007874016
20
0.5892047244094488
11
0.4353937007874016
21
0.6049527559055118
0
LINE
8
BLACK
6
CONTINUOUS
10
0.4353937007874016
20
0.6049527559055118
11
0.4359930708661417
21
0.6079660236220472
0
LINE
8
BLACK
6
CONTINUOUS
10
0.4359930708661417
20
0.6079660236220472
11
0.4376999606299212
21
0.6105205118110236
0
LINE
8
BLACK
6
CONTINUOUS
10
0.4376999606299212
20
0.6105205118110236
11
0.4402544488188976
21
0.6122274015748032
0
LINE
8
BLACK
6
CONTINUOUS
10
0.4402544488188976
20
0.6122274015748032
11
0.4432677165354331
21
0.6128267716535433
0
LINE
8
BLACK
6
CONTINUOUS
10
0.4432677165354331
20
0.6128267716535433
11
0.4649212598425197
21
0.6128267716535433
0
LINE
8
BLACK
6
CONTINUOUS
10
0.4649212598425197
20
0.6128267716535433
11
0.4679345275590551
21
0.6122274015748032
0
LINE
8
BLACK
6
CONTINUOUS
10
0.0266694094488189
20
0.6139205511811023
11
0.0285852755905512
21
0.6126403937007874
0
LINE
8
BLACK
6
CONTINUOUS
10
0.0285852755905512
20
0.6126403937007874
11
0.0298654330708661
21
0.6107245275590552
0
LINE
8
BLACK
6
CONTINUOUS
10
0.0298654330708661
20
0.6107245275590552
11
0.0303149606299213
21
0.6084645669291339
0
LINE
8
BLACK
6
CONTINUOUS
10
0.0303149606299213
20
0.6084645669291339
11
0.0303149606299213
21
0.5966535433070866
0
LINE
8
BLACK
6
CONTINUOUS
10
0.0303149606299213
20
0.5966535433070866
11
0.0298654330708661
21
0.5943935826771654
0
LINE
8
BLACK
6
CONTINUOUS
10
0.0298654330708661
20
0.5943935826771654
11
0.0285852755905512
21
0.592477716535433
0
LINE
8
BLACK
6
CONTINUOUS
10
0.0285852755905512
20
0.592477716535433
11
0.0266694094488189
21
0.5911975590551181
0
LINE
8
BLACK
6
CONTINUOUS
10
0.0266694094488189
20
0.5911975590551181
11
0.0244094488188976
21
0.590748031496063
0
LINE
8
BLACK
6
CONTINUOUS
10
0.0244094488188976
20
0.590748031496063
11
-0.0307086614173228
21
0.590748031496063
0
LINE
8
BLACK
6
CONTINUOUS
10
-0.0307086614173228
20
0.590748031496063
11
-0.0329686220472441
21
0.5911975590551181
0
LINE
8
BLACK
6
CONTINUOUS
10
-0.0329686220472441
20
0.5911975590551181
11
-0.0348844881889764
21
0.592477716535433
0
LINE
8
BLACK
6
CONTINUOUS
10
-0.0348844881889764
20
0.592477716535433
11
-0.0361646456692913
21
0.5943935826771654
0
LINE
8
BLACK
6
CONTINUOUS
10
-0.0361646456692913
20
0.5943935826771654
11
-0.0366141732283465
21
0.5966535433070866
0
LINE
8
BLACK
6
CONTINUOUS
10
-0.0366141732283465
20
0.5966535433070866
11
-0.0366141732283465
21
0.6084645669291339
0
LINE
8
BLACK
6
CONTINUOUS
10
-0.0366141732283465
20
0.6084645669291339
11
-0.0361646456692913
21
0.6107245275590552
0
LINE
8
BLACK
6
CONTINUOUS
10
-0.0361646456692913
20
0.6107245275590552
11
-0.0348844881889764
21
0.6126403937007874
0
LINE
8
BLACK
6
CONTINUOUS
10
-0.0348844881889764
20
0.6126403937007874
11
-0.0329686220472441
21
0.6139205511811023
0
LINE
8
BLACK
6
CONTINUOUS
10
-0.0329686220472441
20
0.6139205511811023
11
-0.0307086614173228
21
0.6143700787401575
0
LINE
8
BLACK
6
CONTINUOUS
10
-0.0307086614173228
20
0.6143700787401575
11
0.0244094488188976
21
0.6143700787401575
0
LINE
8
BLACK
6
CONTINUOUS
10
0.0244094488188976
20
0.6143700787401575
11
0.0266694094488189
21
0.6139205511811023
0
LINE
8
BLACK
6
CONTINUOUS
10
0.6054095669291338
20
0.6139205511811023
11
0.6073254330708662
21
0.6126403937007874
0
LINE
8
BLACK
6
CONTINUOUS
10
0.6073254330708662
20
0.6126403937007874
11
0.6086055905511811
21
0.6107245275590552
0
LINE
8
BLACK
6
CONTINUOUS
10
0.6086055905511811
20
0.6107245275590552
11
0.6090551181102362
21
0.6084645669291339
0
LINE
8
BLACK
6
CONTINUOUS
10
0.6090551181102362
20
0.6084645669291339
11
0.6090551181102362
21
0.5966535433070866
0
LINE
8
BLACK
6
CONTINUOUS
10
0.6090551181102362
20
0.5966535433070866
11
0.6086055905511811
21
0.5943935826771654
0
LINE
8
BLACK
6
CONTINUOUS
10
0.6086055905511811
20
0.5943935826771654
11
0.6073254330708662
21
0.592477716535433
0
LINE
8
BLACK
6
CONTINUOUS
10
0.6073254330708662
20
0.592477716535433
11
0.6054095669291338
21
0.5911975590551181
0
LINE
8
BLACK
6
CONTINUOUS
10
0.6054095669291338
20
0.5911975590551181
11
0.6031496062992125
21
0.590748031496063
0
LINE
8
BLACK
6
CONTINUOUS
10
0.6031496062992125
20
0.590748031496063
11
0.5480314960629921
21
0.590748031496063
0
LINE
8
BLACK
6
CONTINUOUS
10
0.5480314960629921
20
0.590748031496063
11
0.5457715354330709
21
0.5911975590551181
0
LINE
8
BLACK
6
CONTINUOUS
10
0.5457715354330709
20
0.5911975590551181
11
0.5438556692913386
21
0.592477716535433
0
LINE
8
BLACK
6
CONTINUOUS
10
0.5438556692913386
20
0.592477716535433
11
0.5425755118110236
21
0.5943935826771654
0
LINE
8
BLACK
6
CONTINUOUS
10
0.5425755118110236
20
0.5943935826771654
11
0.5421259842519685
21
0.5966535433070866
0
LINE
8
BLACK
6
CONTINUOUS
10
0.5421259842519685
20
0.5966535433070866
11
0.5421259842519685
21
0.6084645669291339
0
LINE
8
BLACK
6
CONTINUOUS
10
0.5421259842519685
20
0.6084645669291339
11
0.5425755118110236
21
0.6107245275590552
0
LINE
8
BLACK
6
CONTINUOUS
10
0.5425755118110236
20
0.6107245275590552
11
0.5438556692913386
21
0.6126403937007874
0
LINE
8
BLACK
6
CONTINUOUS
10
0.5438556692913386
20
0.6126403937007874
11
0.5457715354330709
21
0.6139205511811023
0
LINE
8
BLACK
6
CONTINUOUS
10
0.5457715354330709
20
0.6139205511811023
11
0.5480314960629921
21
0.6143700787401575
0
LINE
8
BLACK
6
CONTINUOUS
10
0.5480314960629921
20
0.6143700787401575
11
0.6031496062992125
21
0.6143700787401575
0
LINE
8
BLACK
6
CONTINUOUS
10
0.6031496062992125
20
0.6143700787401575
11
0.6054095669291338
21
0.6139205511811023
0
LINE
8
BLACK
6
CONTINUOUS
10
0.0266694094488189
20
0.6631331496062992
11
0.0285852755905512
21
0.6618529921259843
0
LINE
8
BLACK
6
CONTINUOUS
10
0.0285852755905512
20
0.6618529921259843
11
0.0298654330708661
21
0.6599371259842519
0
LINE
8
BLACK
6
CONTINUOUS
10
0.0298654330708661
20
0.6599371259842519
11
0.0303149606299213
21
0.6576771653543307
0
LINE
8
BLACK
6
CONTINUOUS
10
0.0303149606299213
20
0.6576771653543307
11
0.0303149606299213
21
0.6458661417322834
0
LINE
8
BLACK
6
CONTINUOUS
10
0.0303149606299213
20
0.6458661417322834
11
0.0298654330708661
21
0.6436061811023622
0
LINE
8
BLACK
6
CONTINUOUS
10
0.0298654330708661
20
0.6436061811023622
11
0.0285852755905512
21
0.6416903149606299
0
LINE
8
BLACK
6
CONTINUOUS
10
0.0285852755905512
20
0.6416903149606299
11
0.0266694094488189
21
0.6404101574803149
0
LINE
8
BLACK
6
CONTINUOUS
10
0.0266694094488189
20
0.6404101574803149
11
0.0244094488188976
21
0.6399606299212598
0
LINE
8
BLACK
6
CONTINUOUS
10
0.0244094488188976
20
0.6399606299212598
11
-0.0307086614173228
21
0.6399606299212598
0
LINE
8
BLACK
6
CONTINUOUS
10
-0.0307086614173228
20
0.6399606299212598
11
-0.0329686220472441
21
0.6404101574803149
0
LINE
8
BLACK
6
CONTINUOUS
10
-0.0329686220472441
20
0.6404101574803149
11
-0.0348844881889764
21
0.6416903149606299
0
LINE
8
BLACK
6
CONTINUOUS
10
-0.0348844881889764
20
0.6416903149606299
11
-0.0361646456692913
21
0.6436061811023622
0
LINE
8
BLACK
6
CONTINUOUS
10
-0.0361646456692913
20
0.6436061811023622
11
-0.0366141732283465
21
0.6458661417322834
0
LINE
8
BLACK
6
CONTINUOUS
10
-0.0366141732283465
20
0.6458661417322834
11
-0.0366141732283465
21
0.6576771653543307
0
LINE
8
BLACK
6
CONTINUOUS
10
-0.0366141732283465
20
0.6576771653543307
11
-0.0361646456692913
21
0.6599371259842519
0
LINE
8
BLACK
6
CONTINUOUS
10
-0.0361646456692913
20
0.6599371259842519
11
-0.0348844881889764
21
0.6618529921259843
0
LINE
8
BLACK
6
CONTINUOUS
10
-0.0348844881889764
20
0.6618529921259843
11
-0.0329686220472441
21
0.6631331496062992
0
LINE
8
BLACK
6
CONTINUOUS
10
-0.0329686220472441
20
0.6631331496062992
11
-0.0307086614173228
21
0.6635826771653544
0
LINE
8
BLACK
6
CONTINUOUS
10
-0.0307086614173228
20
0.6635826771653544
11
0.0244094488188976
21
0.6635826771653544
0
LINE
8
BLACK
6
CONTINUOUS
10
0.0244094488188976
20
0.6635826771653544
11
0.0266694094488189
21
0.6631331496062992
0
LINE
8
BLACK
6
CONTINUOUS
10
0.6054095669291338
20
0.6631331496062992
11
0.6073254330708662
21
0.6618529921259843
0
LINE
8
BLACK
6
CONTINUOUS
10
0.6073254330708662
20
0.6618529921259843
11
0.6086055905511811
21
0.6599371259842519
0
LINE
8
BLACK
6
CONTINUOUS
10
0.6086055905511811
20
0.6599371259842519
11
0.6090551181102362
21
0.6576771653543307
0
LINE
8
BLACK
6
CONTINUOUS
10
0.6090551181102362
20
0.6576771653543307
11
0.6090551181102362
21
0.6458661417322834
0
LINE
8
BLACK
6
CONTINUOUS
10
0.6090551181102362
20
0.6458661417322834
11
0.6086055905511811
21
0.6436061811023622
0
LINE
8
BLACK
6
CONTINUOUS
10
0.6086055905511811
20
0.6436061811023622
11
0.6073254330708662
21
0.6416903149606299
0
LINE
8
BLACK
6
CONTINUOUS
10
0.6073254330708662
20
0.6416903149606299
11
0.6054095669291338
21
0.6404101574803149
0
LINE
8
BLACK
6
CONTINUOUS
10
0.6054095669291338
20
0.6404101574803149
11
0.6031496062992125
21
0.6399606299212598
0
LINE
8
BLACK
6
CONTINUOUS
10
0.6031496062992125
20
0.6399606299212598
11
0.5480314960629921
21
0.6399606299212598
0
LINE
8
BLACK
6
CONTINUOUS
10
0.5480314960629921
20
0.6399606299212598
11
0.5457715354330709
21
0.6404101574803149
0
LINE
8
BLACK
6
CONTINUOUS
10
0.5457715354330709
20
0.6404101574803149
11
0.5438556692913386
21
0.6416903149606299
0
LINE
8
BLACK
6
CONTINUOUS
10
0.5438556692913386
20
0.6416903149606299
11
0.5425755118110236
21
0.6436061811023622
0
LINE
8
BLACK
6
CONTINUOUS
10
0.5425755118110236
20
0.6436061811023622
11
0.5421259842519685
21
0.6458661417322834
0
LINE
8
BLACK
6
CONTINUOUS
10
0.5421259842519685
20
0.6458661417322834
11
0.5421259842519685
21
0.6576771653543307
0
LINE
8
BLACK
6
CONTINUOUS
10
0.5421259842519685
20
0.6576771653543307
11
0.5425755118110236
21
0.6599371259842519
0
LINE
8
BLACK
6
CONTINUOUS
10
0.5425755118110236
20
0.6599371259842519
11
0.5438556692913386
21
0.6618529921259843
0
LINE
8
BLACK
6
CONTINUOUS
10
0.5438556692913386
20
0.6618529921259843
11
0.5457715354330709
21
0.6631331496062992
0
LINE
8
BLACK
6
CONTINUOUS
10
0.5457715354330709
20
0.6631331496062992
11
0.5480314960629921
21
0.6635826771653544
0
LINE
8
BLACK
6
CONTINUOUS
10
0.5480314960629921
20
0.6635826771653544
11
0.6031496062992125
21
0.6635826771653544
0
LINE
8
BLACK
6
CONTINUOUS
10
0.6031496062992125
20
0.6635826771653544
11
0.6054095669291338
21
0.6631331496062992
0
LINE
8
BLACK
6
CONTINUOUS
10
0.1329345275590551
20
0.6756683464566929
11
0.1354890157480315
21
0.6739614566929134
0
LINE
8
BLACK
6
CONTINUOUS
10
0.1354890157480315
20
0.6739614566929134
11
0.137195905511811
21
0.671406968503937
0
LINE
8
BLACK
6
CONTINUOUS
10
0.137195905511811
20
0.671406968503937
11
0.1377952755905512
21
0.6683937007874016
0
LINE
8
BLACK
6
CONTINUOUS
10
0.1377952755905512
20
0.6683937007874016
11
0.1377952755905512
21
0.6526456692913386
0
LINE
8
BLACK
6
CONTINUOUS
10
0.1377952755905512
20
0.6526456692913386
11
0.137195905511811
21
0.6496324015748032
0
LINE
8
BLACK
6
CONTINUOUS
10
0.137195905511811
20
0.6496324015748032
11
0.1354890157480315
21
0.6470779133858268
0
LINE
8
BLACK
6
CONTINUOUS
10
0.1354890157480315
20
0.6470779133858268
11
0.1329345275590551
21
0.6453710236220472
0
LINE
8
BLACK
6
CONTINUOUS
10
0.1329345275590551
20
0.6453710236220472
11
0.1299212598425197
21
0.6447716535433071
0
LINE
8
BLACK
6
CONTINUOUS
10
0.1299212598425197
20
0.6447716535433071
11
0.1082677165354331
21
0.6447716535433071
0
LINE
8
BLACK
6
CONTINUOUS
10
0.1082677165354331
20
0.6447716535433071
11
0.1052544488188976
21
0.6453710236220472
0
LINE
8
BLACK
6
CONTINUOUS
10
0.1052544488188976
20
0.6453710236220472
11
0.1026999606299213
21
0.6470779133858268
0
LINE
8
BLACK
6
CONTINUOUS
10
0.1026999606299213
20
0.6470779133858268
11
0.1009930708661417
21
0.6496324015748032
0
LINE
8
BLACK
6
CONTINUOUS
10
0.1009930708661417
20
0.6496324015748032
11
0.1003937007874016
21
0.6526456692913386
0
LINE
8
BLACK
6
CONTINUOUS
10
0.1003937007874016
20
0.6526456692913386
11
0.1003937007874016
21
0.6683937007874016
0
LINE
8
BLACK
6
CONTINUOUS
10
0.1003937007874016
20
0.6683937007874016
11
0.1009930708661417
21
0.671406968503937
0
LINE
8
BLACK
6
CONTINUOUS
10
0.1009930708661417
20
0.671406968503937
11
0.1026999606299213
21
0.6739614566929134
0
LINE
8
BLACK
6
CONTINUOUS
10
0.1026999606299213
20
0.6739614566929134
11
0.1052544488188976
21
0.6756683464566929
0
LINE
8
BLACK
6
CONTINUOUS
10
0.1052544488188976
20
0.6756683464566929
11
0.1082677165354331
21
0.676267716535433
0
LINE
8
BLACK
6
CONTINUOUS
10
0.1082677165354331
20
0.676267716535433
11
0.1299212598425197
21
0.676267716535433
0
LINE
8
BLACK
6
CONTINUOUS
10
0.1299212598425197
20
0.676267716535433
11
0.1329345275590551
21
0.6756683464566929
0
LINE
8
BLACK
6
CONTINUOUS
10
0.4679345275590551
20
0.677188031496063
11
0.4704890157480315
21
0.6754811417322835
0
LINE
8
BLACK
6
CONTINUOUS
10
0.4704890157480315
20
0.6754811417322835
11
0.472195905511811
21
0.6729266535433071
0
LINE
8
BLACK
6
CONTINUOUS
10
0.472195905511811
20
0.6729266535433071
11
0.4727952755905512
21
0.6699133858267716
0
LINE
8
BLACK
6
CONTINUOUS
10
0.4727952755905512
20
0.6699133858267716
11
0.4727952755905512
21
0.6541653543307087
0
LINE
8
BLACK
6
CONTINUOUS
10
0.4727952755905512
20
0.6541653543307087
11
0.472195905511811
21
0.6511520866141732
0
LINE
8
BLACK
6
CONTINUOUS
10
0.472195905511811
20
0.6511520866141732
11
0.4704890157480315
21
0.6485975984251968
0
LINE
8
BLACK
6
CONTINUOUS
10
0.4704890157480315
20
0.6485975984251968
11
0.4679345275590551
21
0.6468907086614173
0
LINE
8
BLACK
6
CONTINUOUS
10
0.4679345275590551
20
0.6468907086614173
11
0.4649212598425197
21
0.6462913385826772
0
LINE
8
BLACK
6
CONTINUOUS
10
0.4649212598425197
20
0.6462913385826772
11
0.4432677165354331
21
0.6462913385826772
0
LINE
8
BLACK
6
CONTINUOUS
10
0.4432677165354331
20
0.6462913385826772
11
0.4402544488188976
21
0.6468907086614173
0
LINE
8
BLACK
6
CONTINUOUS
10
0.4402544488188976
20
0.6468907086614173
11
0.4376999606299212
21
0.6485975984251968
0
LINE
8
BLACK
6
CONTINUOUS
10
0.4376999606299212
20
0.6485975984251968
11
0.4359930708661417
21
0.6511520866141732
0
LINE
8
BLACK
6
CONTINUOUS
10
0.4359930708661417
20
0.6511520866141732
11
0.4353937007874016
21
0.6541653543307087
0
LINE
8
BLACK
6
CONTINUOUS
10
0.4353937007874016
20
0.6541653543307087
11
0.4353937007874016
21
0.6699133858267716
0
LINE
8
BLACK
6
CONTINUOUS
10
0.4353937007874016
20
0.6699133858267716
11
0.4359930708661417
21
0.6729266535433071
0
LINE
8
BLACK
6
CONTINUOUS
10
0.4359930708661417
20
0.6729266535433071
11
0.4376999606299212
21
0.6754811417322835
0
LINE
8
BLACK
6
CONTINUOUS
10
0.4376999606299212
20
0.6754811417322835
11
0.4402544488188976
21
0.677188031496063
0
LINE
8
BLACK
6
CONTINUOUS
10
0.4402544488188976
20
0.677188031496063
11
0.4432677165354331
21
0.6777874015748031
0
LINE
8
BLACK
6
CONTINUOUS
10
0.4432677165354331
20
0.6777874015748031
11
0.4649212598425197
21
0.6777874015748031
0
LINE
8
BLACK
6
CONTINUOUS
10
0.4649212598425197
20
0.6777874015748031
11
0.4679345275590551
21
0.677188031496063
0
LINE
8
BLACK
6
CONTINUOUS
10
0.1976983070866142
20
0.7006604724409449
11
0.2002527952755905
21
0.6989535826771653
0
LINE
8
BLACK
6
CONTINUOUS
10
0.2002527952755905
20
0.6989535826771653
11
0.2019596850393701
21
0.6963990944881889
0
LINE
8
BLACK
6
CONTINUOUS
10
0.2019596850393701
20
0.6963990944881889
11
0.2025590551181102
21
0.6933858267716535
0
LINE
8
BLACK
6
CONTINUOUS
10
0.2025590551181102
20
0.6933858267716535
11
0.2025590551181102
21
0.6717322834645669
0
LINE
8
BLACK
6
CONTINUOUS
10
0.2025590551181102
20
0.6717322834645669
11
0.2019596850393701
21
0.6687190157480315
0
LINE
8
BLACK
6
CONTINUOUS
10
0.2019596850393701
20
0.6687190157480315
11
0.2002527952755905
21
0.6661645275590551
0
LINE
8
BLACK
6
CONTINUOUS
10
0.2002527952755905
20
0.6661645275590551
11
0.1976983070866142
21
0.6644576377952756
0
LINE
8
BLACK
6
CONTINUOUS
10
0.1976983070866142
20
0.6644576377952756
11
0.1946850393700787
21
0.6638582677165354
0
LINE
8
BLACK
6
CONTINUOUS
10
0.1946850393700787
20
0.6638582677165354
11
0.1789370078740158
21
0.6638582677165354
0
LINE
8
BLACK
6
CONTINUOUS
10
0.1789370078740158
20
0.6638582677165354
11
0.1759237401574803
21
0.6644576377952756
0
LINE
8
BLACK
6
CONTINUOUS
10
0.1759237401574803
20
0.6644576377952756
11
0.1733692519685039
21
0.6661645275590551
0
LINE
8
BLACK
6
CONTINUOUS
10
0.1733692519685039
20
0.6661645275590551
11
0.1716623622047244
21
0.6687190157480315
0
LINE
8
BLACK
6
CONTINUOUS
10
0.1716623622047244
20
0.6687190157480315
11
0.1710629921259842
21
0.6717322834645669
0
LINE
8
BLACK
6
CONTINUOUS
10
0.1710629921259842
20
0.6717322834645669
11
0.1710629921259842
21
0.6933858267716535
0
LINE
8
BLACK
6
CONTINUOUS
10
0.1710629921259842
20
0.6933858267716535
11
0.1716623622047244
21
0.6963990944881889
0
LINE
8
BLACK
6
CONTINUOUS
10
0.1716623622047244
20
0.6963990944881889
11
0.1733692519685039
21
0.6989535826771653
0
LINE
8
BLACK
6
CONTINUOUS
10
0.1733692519685039
20
0.6989535826771653
11
0.1759237401574803
21
0.7006604724409449
0
LINE
8
BLACK
6
CONTINUOUS
10
0.1759237401574803
20
0.7006604724409449
11
0.1789370078740158
21
0.701259842519685
0
LINE
8
BLACK
6
CONTINUOUS
10
0.1789370078740158
20
0.701259842519685
11
0.1946850393700787
21
0.701259842519685
0
LINE
8
BLACK
6
CONTINUOUS
10
0.1946850393700787
20
0.701259842519685
11
0.1976983070866142
21
0.7006604724409449
0
LINE
8
BLACK
6
CONTINUOUS
10
0.262658937007874
20
0.7006604724409449
11
0.2652134251968504
21
0.6989535826771653
0
LINE
8
BLACK
6
CONTINUOUS
10
0.2652134251968504
20
0.6989535826771653
11
0.2669203149606299
21
0.6963990944881889
0
LINE
8
BLACK
6
CONTINUOUS
10
0.2669203149606299
20
0.6963990944881889
11
0.2675196850393701
21
0.6933858267716535
0
LINE
8
BLACK
6
CONTINUOUS
10
0.2675196850393701
20
0.6933858267716535
11
0.2675196850393701
21
0.6717322834645669
0
LINE
8
BLACK
6
CONTINUOUS
10
0.2675196850393701
20
0.6717322834645669
11
0.2669203149606299
21
0.6687190157480315
0
LINE
8
BLACK
6
CONTINUOUS
10
0.2669203149606299
20
0.6687190157480315
11
0.2652134251968504
21
0.6661645275590551
0
LINE
8
BLACK
6
CONTINUOUS
10
0.2652134251968504
20
0.6661645275590551
11
0.262658937007874
21
0.6644576377952756
0
LINE
8
BLACK
6
CONTINUOUS
10
0.262658937007874
20
0.6644576377952756
11
0.2596456692913386
21
0.6638582677165354
0
LINE
8
BLACK
6
CONTINUOUS
10
0.2596456692913386
20
0.6638582677165354
11
0.2438976377952756
21
0.6638582677165354
0
LINE
8
BLACK
6
CONTINUOUS
10
0.2438976377952756
20
0.6638582677165354
11
0.2408843700787401
21
0.6644576377952756
0
LINE
8
BLACK
6
CONTINUOUS
10
0.2408843700787401
20
0.6644576377952756
11
0.2383298818897638
21
0.6661645275590551
0
LINE
8
BLACK
6
CONTINUOUS
10
0.2383298818897638
20
0.6661645275590551
11
0.2366229921259843
21
0.6687190157480315
0
LINE
8
BLACK
6
CONTINUOUS
10
0.2366229921259843
20
0.6687190157480315
11
0.2360236220472441
21
0.6717322834645669
0
LINE
8
BLACK
6
CONTINUOUS
10
0.2360236220472441
20
0.6717322834645669
11
0.2360236220472441
21
0.6933858267716535
0
LINE
8
BLACK
6
CONTINUOUS
10
0.2360236220472441
20
0.6933858267716535
11
0.2366229921259843
21
0.6963990944881889
0
LINE
8
BLACK
6
CONTINUOUS
10
0.2366229921259843
20
0.6963990944881889
11
0.2383298818897638
21
0.6989535826771653
0
LINE
8
BLACK
6
CONTINUOUS
10
0.2383298818897638
20
0.6989535826771653
11
0.2408843700787401
21
0.7006604724409449
0
LINE
8
BLACK
6
CONTINUOUS
10
0.2408843700787401
20
0.7006604724409449
11
0.2438976377952756
21
0.701259842519685
0
LINE
8
BLACK
6
CONTINUOUS
10
0.2438976377952756
20
0.701259842519685
11
0.2596456692913386
21
0.701259842519685
0
LINE
8
BLACK
6
CONTINUOUS
10
0.2596456692913386
20
0.701259842519685
11
0.262658937007874
21
0.7006604724409449
0
LINE
8
BLACK
6
CONTINUOUS
10
0.3315565748031496
20
0.7006604724409449
11
0.334111062992126
21
0.6989535826771653
0
LINE
8
BLACK
6
CONTINUOUS
10
0.334111062992126
20
0.6989535826771653
11
0.3358179527559055
21
0.6963990944881889
0
LINE
8
BLACK
6
CONTINUOUS
10
0.3358179527559055
20
0.6963990944881889
11
0.3364173228346456
21
0.6933858267716535
0
LINE
8
BLACK
6
CONTINUOUS
10
0.3364173228346456
20
0.6933858267716535
11
0.3364173228346456
21
0.6717322834645669
0
LINE
8
BLACK
6
CONTINUOUS
10
0.3364173228346456
20
0.6717322834645669
11
0.3358179527559055
21
0.6687190157480315
0
LINE
8
BLACK
6
CONTINUOUS
10
0.3358179527559055
20
0.6687190157480315
11
0.334111062992126
21
0.6661645275590551
0
LINE
8
BLACK
6
CONTINUOUS
10
0.334111062992126
20
0.6661645275590551
11
0.3315565748031496
21
0.6644576377952756
0
LINE
8
BLACK
6
CONTINUOUS
10
0.3315565748031496
20
0.6644576377952756
11
0.3285433070866142
21
0.6638582677165354
0
LINE
8
BLACK
6
CONTINUOUS
10
0.3285433070866142
20
0.6638582677165354
11
0.3127952755905511
21
0.6638582677165354
0
LINE
8
BLACK
6
CONTINUOUS
10
0.3127952755905511
20
0.6638582677165354
11
0.3097820078740157
21
0.6644576377952756
0
LINE
8
BLACK
6
CONTINUOUS
10
0.3097820078740157
20
0.6644576377952756
11
0.3072275196850394
21
0.6661645275590551
0
LINE
8
BLACK
6
CONTINUOUS
10
0.3072275196850394
20
0.6661645275590551
11
0.3055206299212598
21
0.6687190157480315
0
LINE
8
BLACK
6
CONTINUOUS
10
0.3055206299212598
20
0.6687190157480315
11
0.3049212598425197
21
0.6717322834645669
0
LINE
8
BLACK
6
CONTINUOUS
10
0.3049212598425197
20
0.6717322834645669
11
0.3049212598425197
21
0.6933858267716535
0
LINE
8
BLACK
6
CONTINUOUS
10
0.3049212598425197
20
0.6933858267716535
11
0.3055206299212598
21
0.6963990944881889
0
LINE
8
BLACK
6
CONTINUOUS
10
0.3055206299212598
20
0.6963990944881889
11
0.3072275196850394
21
0.6989535826771653
0
LINE
8
BLACK
6
CONTINUOUS
10
0.3072275196850394
20
0.6989535826771653
11
0.3097820078740157
21
0.7006604724409449
0
LINE
8
BLACK
6
CONTINUOUS
10
0.3097820078740157
20
0.7006604724409449
11
0.3127952755905511
21
0.701259842519685
0
LINE
8
BLACK
6
CONTINUOUS
10
0.3127952755905511
20
0.701259842519685
11
0.3285433070866142
21
0.701259842519685
0
LINE
8
BLACK
6
CONTINUOUS
10
0.3285433070866142
20
0.701259842519685
11
0.3315565748031496
21
0.7006604724409449
0
LINE
8
BLACK
6
CONTINUOUS
10
0.3965172047244094
20
0.7006604724409449
11
0.3990716929133858
21
0.6989535826771653
0
LINE
8
BLACK
6
CONTINUOUS
10
0.3990716929133858
20
0.6989535826771653
11
0.4007785826771653
21
0.6963990944881889
0
LINE
8
BLACK
6
CONTINUOUS
10
0.4007785826771653
20
0.6963990944881889
11
0.4013779527559055
21
0.6933858267716535
0
LINE
8
BLACK
6
CONTINUOUS
10
0.4013779527559055
20
0.6933858267716535
11
0.4013779527559055
21
0.6717322834645669
0
LINE
8
BLACK
6
CONTINUOUS
10
0.4013779527559055
20
0.6717322834645669
11
0.4007785826771653
21
0.6687190157480315
0
LINE
8
BLACK
6
CONTINUOUS
10
0.4007785826771653
20
0.6687190157480315
11
0.3990716929133858
21
0.6661645275590551
0
LINE
8
BLACK
6
CONTINUOUS
10
0.3990716929133858
20
0.6661645275590551
11
0.3965172047244094
21
0.6644576377952756
0
LINE
8
BLACK
6
CONTINUOUS
10
0.3965172047244094
20
0.6644576377952756
11
0.393503937007874
21
0.6638582677165354
0
LINE
8
BLACK
6
CONTINUOUS
10
0.393503937007874
20
0.6638582677165354
11
0.377755905511811
21
0.6638582677165354
0
LINE
8
BLACK
6
CONTINUOUS
10
0.377755905511811
20
0.6638582677165354
11
0.3747426377952756
21
0.6644576377952756
0
LINE
8
BLACK
6
CONTINUOUS
10
0.3747426377952756
20
0.6644576377952756
11
0.3721881496062992
21
0.6661645275590551
0
LINE
8
BLACK
6
CONTINUOUS
10
0.3721881496062992
20
0.6661645275590551
11
0.3704812598425197
21
0.6687190157480315
0
LINE
8
BLACK
6
CONTINUOUS
10
0.3704812598425197
20
0.6687190157480315
11
0.3698818897637795
21
0.6717322834645669
0
LINE
8
BLACK
6
CONTINUOUS
10
0.3698818897637795
20
0.6717322834645669
11
0.3698818897637795
21
0.6933858267716535
0
LINE
8
BLACK
6
CONTINUOUS
10
0.3698818897637795
20
0.6933858267716535
11
0.3704812598425197
21
0.6963990944881889
0
LINE
8
BLACK
6
CONTINUOUS
10
0.3704812598425197
20
0.6963990944881889
11
0.3721881496062992
21
0.6989535826771653
0
LINE
8
BLACK
6
CONTINUOUS
10
0.3721881496062992
20
0.6989535826771653
11
0.3747426377952756
21
0.7006604724409449
0
LINE
8
BLACK
6
CONTINUOUS
10
0.3747426377952756
20
0.7006604724409449
11
0.377755905511811
21
0.701259842519685
0
LINE
8
BLACK
6
CONTINUOUS
10
0.377755905511811
20
0.701259842519685
11
0.393503937007874
21
0.701259842519685
0
LINE
8
BLACK
6
CONTINUOUS
10
0.393503937007874
20
0.701259842519685
11
0.3965172047244094
21
0.7006604724409449
0
LINE
8
BLACK
6
CONTINUOUS
10
0.0266694094488189
20
0.7123457480314961
11
0.0285852755905512
21
0.7110655905511811
0
LINE
8
BLACK
6
CONTINUOUS
10
0.0285852755905512
20
0.7110655905511811
11
0.0298654330708661
21
0.7091497244094488
0
LINE
8
BLACK
6
CONTINUOUS
10
0.0298654330708661
20
0.7091497244094488
11
0.0303149606299213
21
0.7068897637795275
0
LINE
8
BLACK
6
CONTINUOUS
10
0.0303149606299213
20
0.7068897637795275
11
0.0303149606299213
21
0.6950787401574803
0
LINE
8
BLACK
6
CONTINUOUS
10
0.0303149606299213
20
0.6950787401574803
11
0.0298654330708661
21
0.692818779527559
0
LINE
8
BLACK
6
CONTINUOUS
10
0.0298654330708661
20
0.692818779527559
11
0.0285852755905512
21
0.6909029133858268
0
LINE
8
BLACK
6
CONTINUOUS
10
0.0285852755905512
20
0.6909029133858268
11
0.0266694094488189
21
0.6896227559055118
0
LINE
8
BLACK
6
CONTINUOUS
10
0.0266694094488189
20
0.6896227559055118
11
0.0244094488188976
21
0.6891732283464567
0
LINE
8
BLACK
6
CONTINUOUS
10
0.0244094488188976
20
0.6891732283464567
11
-0.0307086614173228
21
0.6891732283464567
0
LINE
8
BLACK
6
CONTINUOUS
10
-0.0307086614173228
20
0.6891732283464567
11
-0.0329686220472441
21
0.6896227559055118
0
LINE
8
BLACK
6
CONTINUOUS
10
-0.0329686220472441
20
0.6896227559055118
11
-0.0348844881889764
21
0.6909029133858268
0
LINE
8
BLACK
6
CONTINUOUS
10
-0.0348844881889764
20
0.6909029133858268
11
-0.0361646456692913
21
0.692818779527559
0
LINE
8
BLACK
6
CONTINUOUS
10
-0.0361646456692913
20
0.692818779527559
11
-0.0366141732283465
21
0.6950787401574803
0
LINE
8
BLACK
6
CONTINUOUS
10
-0.0366141732283465
20
0.6950787401574803
11
-0.0366141732283465
21
0.7068897637795275
0
LINE
8
BLACK
6
CONTINUOUS
10
-0.0366141732283465
20
0.7068897637795275
11
-0.0361646456692913
21
0.7091497244094488
0
LINE
8
BLACK
6
CONTINUOUS
10
-0.0361646456692913
20
0.7091497244094488
11
-0.0348844881889764
21
0.7110655905511811
0
LINE
8
BLACK
6
CONTINUOUS
10
-0.0348844881889764
20
0.7110655905511811
11
-0.0329686220472441
21
0.7123457480314961
0
LINE
8
BLACK
6
CONTINUOUS
10
-0.0329686220472441
20
0.7123457480314961
11
-0.0307086614173228
21
0.7127952755905511
0
LINE
8
BLACK
6
CONTINUOUS
10
-0.0307086614173228
20
0.7127952755905511
11
0.0244094488188976
21
0.7127952755905511
0
LINE
8
BLACK
6
CONTINUOUS
10
0.0244094488188976
20
0.7127952755905511
11
0.0266694094488189
21
0.7123457480314961
0
LINE
8
BLACK
6
CONTINUOUS
10
0.6054095669291338
20
0.7123457480314961
11
0.6073254330708662
21
0.7110655905511811
0
LINE
8
BLACK
6
CONTINUOUS
10
0.6073254330708662
20
0.7110655905511811
11
0.6086055905511811
21
0.7091497244094488
0
LINE
8
BLACK
6
CONTINUOUS
10
0.6086055905511811
20
0.7091497244094488
11
0.6090551181102362
21
0.7068897637795275
0
LINE
8
BLACK
6
CONTINUOUS
10
0.6090551181102362
20
0.7068897637795275
11
0.6090551181102362
21
0.6950787401574803
0
LINE
8
BLACK
6
CONTINUOUS
10
0.6090551181102362
20
0.6950787401574803
11
0.6086055905511811
21
0.692818779527559
0
LINE
8
BLACK
6
CONTINUOUS
10
0.6086055905511811
20
0.692818779527559
11
0.6073254330708662
21
0.6909029133858268
0
LINE
8
BLACK
6
CONTINUOUS
10
0.6073254330708662
20
0.6909029133858268
11
0.6054095669291338
21
0.6896227559055118
0
LINE
8
BLACK
6
CONTINUOUS
10
0.6054095669291338
20
0.6896227559055118
11
0.6031496062992125
21
0.6891732283464567
0
LINE
8
BLACK
6
CONTINUOUS
10
0.6031496062992125
20
0.6891732283464567
11
0.5480314960629921
21
0.6891732283464567
0
LINE
8
BLACK
6
CONTINUOUS
10
0.5480314960629921
20
0.6891732283464567
11
0.5457715354330709
21
0.6896227559055118
0
LINE
8
BLACK
6
CONTINUOUS
10
0.5457715354330709
20
0.6896227559055118
11
0.5438556692913386
21
0.6909029133858268
0
LINE
8
BLACK
6
CONTINUOUS
10
0.5438556692913386
20
0.6909029133858268
11
0.5425755118110236
21
0.692818779527559
0
LINE
8
BLACK
6
CONTINUOUS
10
0.5425755118110236
20
0.692818779527559
11
0.5421259842519685
21
0.6950787401574803
0
LINE
8
BLACK
6
CONTINUOUS
10
0.5421259842519685
20
0.6950787401574803
11
0.5421259842519685
21
0.7068897637795275
0
LINE
8
BLACK
6
CONTINUOUS
10
0.5421259842519685
20
0.7068897637795275
11
0.5425755118110236
21
0.7091497244094488
0
LINE
8
BLACK
6
CONTINUOUS
10
0.5425755118110236
20
0.7091497244094488
11
0.5438556692913386
21
0.7110655905511811
0
LINE
8
BLACK
6
CONTINUOUS
10
0.5438556692913386
20
0.7110655905511811
11
0.5457715354330709
21
0.7123457480314961
0
LINE
8
BLACK
6
CONTINUOUS
10
0.5457715354330709
20
0.7123457480314961
11
0.5480314960629921
21
0.7127952755905511
0
LINE
8
BLACK
6
CONTINUOUS
10
0.5480314960629921
20
0.7127952755905511
11
0.6031496062992125
21
0.7127952755905511
0
LINE
8
BLACK
6
CONTINUOUS
10
0.6031496062992125
20
0.7127952755905511
11
0.6054095669291338
21
0.7123457480314961
0
LINE
8
BLACK
6
CONTINUOUS
10
0.4679345275590551
20
0.7362274015748032
11
0.4704890157480315
21
0.7345205118110236
0
LINE
8
BLACK
6
CONTINUOUS
10
0.4704890157480315
20
0.7345205118110236
11
0.472195905511811
21
0.7319660236220472
0
LINE
8
BLACK
6
CONTINUOUS
10
0.472195905511811
20
0.7319660236220472
11
0.4727952755905512
21
0.7289527559055118
0
LINE
8
BLACK
6
CONTINUOUS
10
0.4727952755905512
20
0.7289527559055118
11
0.4727952755905512
21
0.7132047244094488
0
LINE
8
BLACK
6
CONTINUOUS
10
0.4727952755905512
20
0.7132047244094488
11
0.472195905511811
21
0.7101914566929134
0
LINE
8
BLACK
6
CONTINUOUS
10
0.472195905511811
20
0.7101914566929134
11
0.4704890157480315
21
0.707636968503937
0
LINE
8
BLACK
6
CONTINUOUS
10
0.4704890157480315
20
0.707636968503937
11
0.4679345275590551
21
0.7059300787401575
0
LINE
8
BLACK
6
CONTINUOUS
10
0.4679345275590551
20
0.7059300787401575
11
0.4649212598425197
21
0.7053307086614173
0
LINE
8
BLACK
6
CONTINUOUS
10
0.4649212598425197
20
0.7053307086614173
11
0.4432677165354331
21
0.7053307086614173
0
LINE
8
BLACK
6
CONTINUOUS
10
0.4432677165354331
20
0.7053307086614173
11
0.4402544488188976
21
0.7059300787401575
0
LINE
8
BLACK
6
CONTINUOUS
10
0.4402544488188976
20
0.7059300787401575
11
0.4376999606299212
21
0.707636968503937
0
LINE
8
BLACK
6
CONTINUOUS
10
0.4376999606299212
20
0.707636968503937
11
0.4359930708661417
21
0.7101914566929134
0
LINE
8
BLACK
6
CONTINUOUS
10
0.4359930708661417
20
0.7101914566929134
11
0.4353937007874016
21
0.7132047244094488
0
LINE
8
BLACK
6
CONTINUOUS
10
0.4353937007874016
20
0.7132047244094488
11
0.4353937007874016
21
0.7289527559055118
0
LINE
8
BLACK
6
CONTINUOUS
10
0.4353937007874016
20
0.7289527559055118
11
0.4359930708661417
21
0.7319660236220472
0
LINE
8
BLACK
6
CONTINUOUS
10
0.4359930708661417
20
0.7319660236220472
11
0.4376999606299212
21
0.7345205118110236
0
LINE
8
BLACK
6
CONTINUOUS
10
0.4376999606299212
20
0.7345205118110236
11
0.4402544488188976
21
0.7362274015748032
0
LINE
8
BLACK
6
CONTINUOUS
10
0.4402544488188976
20
0.7362274015748032
11
0.4432677165354331
21
0.7368267716535433
0
LINE
8
BLACK
6
CONTINUOUS
10
0.4432677165354331
20
0.7368267716535433
11
0.4649212598425197
21
0.7368267716535433
0
LINE
8
BLACK
6
CONTINUOUS
10
0.4649212598425197
20
0.7368267716535433
11
0.4679345275590551
21
0.7362274015748032
0
LINE
8
BLACK
6
CONTINUOUS
10
0.1329345275590551
20
0.7367077165354331
11
0.1354890157480315
21
0.7350008267716536
0
LINE
8
BLACK
6
CONTINUOUS
10
0.1354890157480315
20
0.7350008267716536
11
0.137195905511811
21
0.7324463385826772
0
LINE
8
BLACK
6
CONTINUOUS
10
0.137195905511811
20
0.7324463385826772
11
0.1377952755905512
21
0.7294330708661417
0
LINE
8
BLACK
6
CONTINUOUS
10
0.1377952755905512
20
0.7294330708661417
11
0.1377952755905512
21
0.7136850393700788
0
LINE
8
BLACK
6
CONTINUOUS
10
0.1377952755905512
20
0.7136850393700788
11
0.137195905511811
21
0.7106717716535433
0
LINE
8
BLACK
6
CONTINUOUS
10
0.137195905511811
20
0.7106717716535433
11
0.1354890157480315
21
0.7081172834645669
0
LINE
8
BLACK
6
CONTINUOUS
10
0.1354890157480315
20
0.7081172834645669
11
0.1329345275590551
21
0.7064103937007874
0
LINE
8
BLACK
6
CONTINUOUS
10
0.1329345275590551
20
0.7064103937007874
11
0.1299212598425197
21
0.7058110236220472
0
LINE
8
BLACK
6
CONTINUOUS
10
0.1299212598425197
20
0.7058110236220472
11
0.1082677165354331
21
0.7058110236220472
0
LINE
8
BLACK
6
CONTINUOUS
10
0.1082677165354331
20
0.7058110236220472
11
0.1052544488188976
21
0.7064103937007874
0
LINE
8
BLACK
6
CONTINUOUS
10
0.1052544488188976
20
0.7064103937007874
11
0.1026999606299213
21
0.7081172834645669
0
LINE
8
BLACK
6
CONTINUOUS
10
0.1026999606299213
20
0.7081172834645669
11
0.1009930708661417
21
0.7106717716535433
0
LINE
8
BLACK
6
CONTINUOUS
10
0.1009930708661417
20
0.7106717716535433
11
0.1003937007874016
21
0.7136850393700788
0
LINE
8
BLACK
6
CONTINUOUS
10
0.1003937007874016
20
0.7136850393700788
11
0.1003937007874016
21
0.7294330708661417
0
LINE
8
BLACK
6
CONTINUOUS
10
0.1003937007874016
20
0.7294330708661417
11
0.1009930708661417
21
0.7324463385826772
0
LINE
8
BLACK
6
CONTINUOUS
10
0.1009930708661417
20
0.7324463385826772
11
0.1026999606299213
21
0.7350008267716536
0
LINE
8
BLACK
6
CONTINUOUS
10
0.1026999606299213
20
0.7350008267716536
11
0.1052544488188976
21
0.7367077165354331
0
LINE
8
BLACK
6
CONTINUOUS
10
0.1052544488188976
20
0.7367077165354331
11
0.1082677165354331
21
0.7373070866141732
0
LINE
8
BLACK
6
CONTINUOUS
10
0.1082677165354331
20
0.7373070866141732
11
0.1299212598425197
21
0.7373070866141732
0
LINE
8
BLACK
6
CONTINUOUS
10
0.1299212598425197
20
0.7373070866141732
11
0.1329345275590551
21
0.7367077165354331
0
LINE
8
BLACK
6
CONTINUOUS
10
-0.0820601968503937
20
0.7927547244094488
11
-0.0788670472440945
21
0.7906211417322835
0
LINE
8
BLACK
6
CONTINUOUS
10
-0.0788670472440945
20
0.7906211417322835
11
-0.0767334645669291
21
0.7874279921259842
0
LINE
8
BLACK
6
CONTINUOUS
10
-0.0767334645669291
20
0.7874279921259842
11
-0.0759842519685039
21
0.7836614173228347
0
LINE
8
BLACK
6
CONTINUOUS
10
-0.0759842519685039
20
0.7836614173228347
11
-0.0759842519685039
21
0.7639763779527559
0
LINE
8
BLACK
6
CONTINUOUS
10
-0.0759842519685039
20
0.7639763779527559
11
-0.0767334645669291
21
0.7602098031496063
0
LINE
8
BLACK
6
CONTINUOUS
10
-0.0767334645669291
20
0.7602098031496063
11
-0.0788670472440945
21
0.757016653543307
0
LINE
8
BLACK
6
CONTINUOUS
10
-0.0788670472440945
20
0.757016653543307
11
-0.0820601968503937
21
0.7548830708661417
0
LINE
8
BLACK
6
CONTINUOUS
10
-0.0820601968503937
20
0.7548830708661417
11
-0.0858267716535433
21
0.7541338582677165
0
LINE
8
BLACK
6
CONTINUOUS
10
-0.0858267716535433
20
0.7541338582677165
11
-0.1724409448818898
21
0.7541338582677165
0
LINE
8
BLACK
6
CONTINUOUS
10
-0.1724409448818898
20
0.7541338582677165
11
-0.1762075196850394
21
0.7548830708661417
0
LINE
8
BLACK
6
CONTINUOUS
10
-0.1762075196850394
20
0.7548830708661417
11
-0.1794006692913386
21
0.757016653543307
0
LINE
8
BLACK
6
CONTINUOUS
10
-0.1794006692913386
20
0.757016653543307
11
-0.1815342519685039
21
0.7602098031496063
0
LINE
8
BLACK
6
CONTINUOUS
10
-0.1815342519685039
20
0.7602098031496063
11
-0.1822834645669291
21
0.7639763779527559
0
LINE
8
BLACK
6
CONTINUOUS
10
-0.1822834645669291
20
0.7639763779527559
11
-0.1822834645669291
21
0.7836614173228347
0
LINE
8
BLACK
6
CONTINUOUS
10
-0.1822834645669291
20
0.7836614173228347
11
-0.1815342519685039
21
0.7874279921259842
0
LINE
8
BLACK
6
CONTINUOUS
10
-0.1815342519685039
20
0.7874279921259842
11
-0.1794006692913386
21
0.7906211417322835
0
LINE
8
BLACK
6
CONTINUOUS
10
-0.1794006692913386
20
0.7906211417322835
11
-0.1762075196850394
21
0.7927547244094488
0
LINE
8
BLACK
6
CONTINUOUS
10
-0.1762075196850394
20
0.7927547244094488
11
-0.1724409448818898
21
0.793503937007874
0
LINE
8
BLACK
6
CONTINUOUS
10
-0.1724409448818898
20
0.793503937007874
11
-0.0858267716535433
21
0.793503937007874
0
LINE
8
BLACK
6
CONTINUOUS
10
-0.0858267716535433
20
0.793503937007874
11
-0.0820601968503937
21
0.7927547244094488
0
LINE
8
BLACK
6
CONTINUOUS
10
0.7486484645669291
20
0.7927547244094488
11
0.7518416141732284
21
0.7906211417322835
0
LINE
8
BLACK
6
CONTINUOUS
10
0.7518416141732284
20
0.7906211417322835
11
0.7539751968503937
21
0.7874279921259842
0
LINE
8
BLACK
6
CONTINUOUS
10
0.7539751968503937
20
0.7874279921259842
11
0.7547244094488189
21
0.7836614173228347
0
LINE
8
BLACK
6
CONTINUOUS
10
0.7547244094488189
20
0.7836614173228347
11
0.7547244094488189
21
0.7639763779527559
0
LINE
8
BLACK
6
CONTINUOUS
10
0.7547244094488189
20
0.7639763779527559
11
0.7539751968503937
21
0.7602098031496063
0
LINE
8
BLACK
6
CONTINUOUS
10
0.7539751968503937
20
0.7602098031496063
11
0.7518416141732284
21
0.757016653543307
0
LINE
8
BLACK
6
CONTINUOUS
10
0.7518416141732284
20
0.757016653543307
11
0.7486484645669291
21
0.7548830708661417
0
LINE
8
BLACK
6
CONTINUOUS
10
0.7486484645669291
20
0.7548830708661417
11
0.7448818897637796
21
0.7541338582677165
0
LINE
8
BLACK
6
CONTINUOUS
10
0.7448818897637796
20
0.7541338582677165
11
0.658267716535433
21
0.7541338582677165
0
LINE
8
BLACK
6
CONTINUOUS
10
0.658267716535433
20
0.7541338582677165
11
0.6545011417322835
21
0.7548830708661417
0
LINE
8
BLACK
6
CONTINUOUS
10
0.6545011417322835
20
0.7548830708661417
11
0.6513079921259842
21
0.757016653543307
0
LINE
8
BLACK
6
CONTINUOUS
10
0.6513079921259842
20
0.757016653543307
11
0.6491744094488189
21
0.7602098031496063
0
LINE
8
BLACK
6
CONTINUOUS
10
0.6491744094488189
20
0.7602098031496063
11
0.6484251968503937
21
0.7639763779527559
0
LINE
8
BLACK
6
CONTINUOUS
10
0.6484251968503937
20
0.7639763779527559
11
0.6484251968503937
21
0.7836614173228347
0
LINE
8
BLACK
6
CONTINUOUS
10
0.6484251968503937
20
0.7836614173228347
11
0.6491744094488189
21
0.7874279921259842
0
LINE
8
BLACK
6
CONTINUOUS
10
0.6491744094488189
20
0.7874279921259842
11
0.6513079921259842
21
0.7906211417322835
0
LINE
8
BLACK
6
CONTINUOUS
10
0.6513079921259842
20
0.7906211417322835
11
0.6545011417322835
21
0.7927547244094488
0
LINE
8
BLACK
6
CONTINUOUS
10
0.6545011417322835
20
0.7927547244094488
11
0.658267716535433
21
0.793503937007874
0
LINE
8
BLACK
6
CONTINUOUS
10
0.658267716535433
20
0.793503937007874
11
0.7448818897637796
21
0.793503937007874
0
LINE
8
BLACK
6
CONTINUOUS
10
0.7448818897637796
20
0.793503937007874
11
0.7486484645669291
21
0.7927547244094488
0
LINE
8
BLACK
6
CONTINUOUS
10
0.1976983070866142
20
0.7936604724409448
11
0.2002527952755905
21
0.7919535826771653
0
LINE
8
BLACK
6
CONTINUOUS
10
0.2002527952755905
20
0.7919535826771653
11
0.2019596850393701
21
0.789399094488189
0
LINE
8
BLACK
6
CONTINUOUS
10
0.2019596850393701
20
0.789399094488189
11
0.2025590551181102
21
0.7863858267716535
0
LINE
8
BLACK
6
CONTINUOUS
10
0.2025590551181102
20
0.7863858267716535
11
0.2025590551181102
21
0.7647322834645669
0
LINE
8
BLACK
6
CONTINUOUS
10
0.2025590551181102
20
0.7647322834645669
11
0.2019596850393701
21
0.7617190157480315
0
LINE
8
BLACK
6
CONTINUOUS
10
0.2019596850393701
20
0.7617190157480315
11
0.2002527952755905
21
0.7591645275590551
0
LINE
8
BLACK
6
CONTINUOUS
10
0.2002527952755905
20
0.7591645275590551
11
0.1976983070866142
21
0.7574576377952755
0
LINE
8
BLACK
6
CONTINUOUS
10
0.1976983070866142
20
0.7574576377952755
11
0.1946850393700787
21
0.7568582677165354
0
LINE
8
BLACK
6
CONTINUOUS
10
0.1946850393700787
20
0.7568582677165354
11
0.1789370078740158
21
0.7568582677165354
0
LINE
8
BLACK
6
CONTINUOUS
10
0.1789370078740158
20
0.7568582677165354
11
0.1759237401574803
21
0.7574576377952755
0
LINE
8
BLACK
6
CONTINUOUS
10
0.1759237401574803
20
0.7574576377952755
11
0.1733692519685039
21
0.7591645275590551
0
LINE
8
BLACK
6
CONTINUOUS
10
0.1733692519685039
20
0.7591645275590551
11
0.1716623622047244
21
0.7617190157480315
0
LINE
8
BLACK
6
CONTINUOUS
10
0.1716623622047244
20
0.7617190157480315
11
0.1710629921259842
21
0.7647322834645669
0
LINE
8
BLACK
6
CONTINUOUS
10
0.1710629921259842
20
0.7647322834645669
11
0.1710629921259842
21
0.7863858267716535
0
LINE
8
BLACK
6
CONTINUOUS
10
0.1710629921259842
20
0.7863858267716535
11
0.1716623622047244
21
0.789399094488189
0
LINE
8
BLACK
6
CONTINUOUS
10
0.1716623622047244
20
0.789399094488189
11
0.1733692519685039
21
0.7919535826771653
0
LINE
8
BLACK
6
CONTINUOUS
10
0.1733692519685039
20
0.7919535826771653
11
0.1759237401574803
21
0.7936604724409448
0
LINE
8
BLACK
6
CONTINUOUS
10
0.1759237401574803
20
0.7936604724409448
11
0.1789370078740158
21
0.7942598425196851
0
LINE
8
BLACK
6
CONTINUOUS
10
0.1789370078740158
20
0.7942598425196851
11
0.1946850393700787
21
0.7942598425196851
0
LINE
8
BLACK
6
CONTINUOUS
10
0.1946850393700787
20
0.7942598425196851
11
0.1976983070866142
21
0.7936604724409448
0
LINE
8
BLACK
6
CONTINUOUS
10
0.262658937007874
20
0.7936604724409448
11
0.2652134251968504
21
0.7919535826771653
0
LINE
8
BLACK
6
CONTINUOUS
10
0.2652134251968504
20
0.7919535826771653
11
0.2669203149606299
21
0.789399094488189
0
LINE
8
BLACK
6
CONTINUOUS
10
0.2669203149606299
20
0.789399094488189
11
0.2675196850393701
21
0.7863858267716535
0
LINE
8
BLACK
6
CONTINUOUS
10
0.2675196850393701
20
0.7863858267716535
11
0.2675196850393701
21
0.7647322834645669
0
LINE
8
BLACK
6
CONTINUOUS
10
0.2675196850393701
20
0.7647322834645669
11
0.2669203149606299
21
0.7617190157480315
0
LINE
8
BLACK
6
CONTINUOUS
10
0.2669203149606299
20
0.7617190157480315
11
0.2652134251968504
21
0.7591645275590551
0
LINE
8
BLACK
6
CONTINUOUS
10
0.2652134251968504
20
0.7591645275590551
11
0.262658937007874
21
0.7574576377952755
0
LINE
8
BLACK
6
CONTINUOUS
10
0.262658937007874
20
0.7574576377952755
11
0.2596456692913386
21
0.7568582677165354
0
LINE
8
BLACK
6
CONTINUOUS
10
0.2596456692913386
20
0.7568582677165354
11
0.2438976377952756
21
0.7568582677165354
0
LINE
8
BLACK
6
CONTINUOUS
10
0.2438976377952756
20
0.7568582677165354
11
0.2408843700787401
21
0.7574576377952755
0
LINE
8
BLACK
6
CONTINUOUS
10
0.2408843700787401
20
0.7574576377952755
11
0.2383298818897638
21
0.7591645275590551
0
LINE
8
BLACK
6
CONTINUOUS
10
0.2383298818897638
20
0.7591645275590551
11
0.2366229921259843
21
0.7617190157480315
0
LINE
8
BLACK
6
CONTINUOUS
10
0.2366229921259843
20
0.7617190157480315
11
0.2360236220472441
21
0.7647322834645669
0
LINE
8
BLACK
6
CONTINUOUS
10
0.2360236220472441
20
0.7647322834645669
11
0.2360236220472441
21
0.7863858267716535
0
LINE
8
BLACK
6
CONTINUOUS
10
0.2360236220472441
20
0.7863858267716535
11
0.2366229921259843
21
0.789399094488189
0
LINE
8
BLACK
6
CONTINUOUS
10
0.2366229921259843
20
0.789399094488189
11
0.2383298818897638
21
0.7919535826771653
0
LINE
8
BLACK
6
CONTINUOUS
10
0.2383298818897638
20
0.7919535826771653
11
0.2408843700787401
21
0.7936604724409448
0
LINE
8
BLACK
6
CONTINUOUS
10
0.2408843700787401
20
0.7936604724409448
11
0.2438976377952756
21
0.7942598425196851
0
LINE
8
BLACK
6
CONTINUOUS
10
0.2438976377952756
20
0.7942598425196851
11
0.2596456692913386
21
0.7942598425196851
0
LINE
8
BLACK
6
CONTINUOUS
10
0.2596456692913386
20
0.7942598425196851
11
0.262658937007874
21
0.7936604724409448
0
LINE
8
BLACK
6
CONTINUOUS
10
0.3315565748031496
20
0.7936604724409448
11
0.334111062992126
21
0.7919535826771653
0
LINE
8
BLACK
6
CONTINUOUS
10
0.334111062992126
20
0.7919535826771653
11
0.3358179527559055
21
0.789399094488189
0
LINE
8
BLACK
6
CONTINUOUS
10
0.3358179527559055
20
0.789399094488189
11
0.3364173228346456
21
0.7863858267716535
0
LINE
8
BLACK
6
CONTINUOUS
10
0.3364173228346456
20
0.7863858267716535
11
0.3364173228346456
21
0.7647322834645669
0
LINE
8
BLACK
6
CONTINUOUS
10
0.3364173228346456
20
0.7647322834645669
11
0.3358179527559055
21
0.7617190157480315
0
LINE
8
BLACK
6
CONTINUOUS
10
0.3358179527559055
20
0.7617190157480315
11
0.334111062992126
21
0.7591645275590551
0
LINE
8
BLACK
6
CONTINUOUS
10
0.334111062992126
20
0.7591645275590551
11
0.3315565748031496
21
0.7574576377952755
0
LINE
8
BLACK
6
CONTINUOUS
10
0.3315565748031496
20
0.7574576377952755
11
0.3285433070866142
21
0.7568582677165354
0
LINE
8
BLACK
6
CONTINUOUS
10
0.3285433070866142
20
0.7568582677165354
11
0.3127952755905511
21
0.7568582677165354
0
LINE
8
BLACK
6
CONTINUOUS
10
0.3127952755905511
20
0.7568582677165354
11
0.3097820078740157
21
0.7574576377952755
0
LINE
8
BLACK
6
CONTINUOUS
10
0.3097820078740157
20
0.7574576377952755
11
0.3072275196850394
21
0.7591645275590551
0
LINE
8
BLACK
6
CONTINUOUS
10
0.3072275196850394
20
0.7591645275590551
11
0.3055206299212598
21
0.7617190157480315
0
LINE
8
BLACK
6
CONTINUOUS
10
0.3055206299212598
20
0.7617190157480315
11
0.3049212598425197
21
0.7647322834645669
0
LINE
8
BLACK
6
CONTINUOUS
10
0.3049212598425197
20
0.7647322834645669
11
0.3049212598425197
21
0.7863858267716535
0
LINE
8
BLACK
6
CONTINUOUS
10
0.3049212598425197
20
0.7863858267716535
11
0.3055206299212598
21
0.789399094488189
0
LINE
8
BLACK
6
CONTINUOUS
10
0.3055206299212598
20
0.789399094488189
11
0.3072275196850394
21
0.7919535826771653
0
LINE
8
BLACK
6
CONTINUOUS
10
0.3072275196850394
20
0.7919535826771653
11
0.3097820078740157
21
0.7936604724409448
0
LINE
8
BLACK
6
CONTINUOUS
10
0.3097820078740157
20
0.7936604724409448
11
0.3127952755905511
21
0.7942598425196851
0
LINE
8
BLACK
6
CONTINUOUS
10
0.3127952755905511
20
0.7942598425196851
11
0.3285433070866142
21
0.7942598425196851
0
LINE
8
BLACK
6
CONTINUOUS
10
0.3285433070866142
20
0.7942598425196851
11
0.3315565748031496
21
0.7936604724409448
0
LINE
8
BLACK
6
CONTINUOUS
10
0.3965172047244094
20
0.7936604724409448
11
0.3990716929133858
21
0.7919535826771653
0
LINE
8
BLACK
6
CONTINUOUS
10
0.3990716929133858
20
0.7919535826771653
11
0.4007785826771653
21
0.789399094488189
0
LINE
8
BLACK
6
CONTINUOUS
10
0.4007785826771653
20
0.789399094488189
11
0.4013779527559055
21
0.7863858267716535
0
LINE
8
BLACK
6
CONTINUOUS
10
0.4013779527559055
20
0.7863858267716535
11
0.4013779527559055
21
0.7647322834645669
0
LINE
8
BLACK
6
CONTINUOUS
10
0.4013779527559055
20
0.7647322834645669
11
0.4007785826771653
21
0.7617190157480315
0
LINE
8
BLACK
6
CONTINUOUS
10
0.4007785826771653
20
0.7617190157480315
11
0.3990716929133858
21
0.7591645275590551
0
LINE
8
BLACK
6
CONTINUOUS
10
0.3990716929133858
20
0.7591645275590551
11
0.3965172047244094
21
0.7574576377952755
0
LINE
8
BLACK
6
CONTINUOUS
10
0.3965172047244094
20
0.7574576377952755
11
0.393503937007874
21
0.7568582677165354
0
LINE
8
BLACK
6
CONTINUOUS
10
0.393503937007874
20
0.7568582677165354
11
0.377755905511811
21
0.7568582677165354
0
LINE
8
BLACK
6
CONTINUOUS
10
0.377755905511811
20
0.7568582677165354
11
0.3747426377952756
21
0.7574576377952755
0
LINE
8
BLACK
6
CONTINUOUS
10
0.3747426377952756
20
0.7574576377952755
11
0.3721881496062992
21
0.7591645275590551
0
LINE
8
BLACK
6
CONTINUOUS
10
0.3721881496062992
20
0.7591645275590551
11
0.3704812598425197
21
0.7617190157480315
0
LINE
8
BLACK
6
CONTINUOUS
10
0.3704812598425197
20
0.7617190157480315
11
0.3698818897637795
21
0.7647322834645669
0
LINE
8
BLACK
6
CONTINUOUS
10
0.3698818897637795
20
0.7647322834645669
11
0.3698818897637795
21
0.7863858267716535
0
LINE
8
BLACK
6
CONTINUOUS
10
0.3698818897637795
20
0.7863858267716535
11
0.3704812598425197
21
0.789399094488189
0
LINE
8
BLACK
6
CONTINUOUS
10
0.3704812598425197
20
0.789399094488189
11
0.3721881496062992
21
0.7919535826771653
0
LINE
8
BLACK
6
CONTINUOUS
10
0.3721881496062992
20
0.7919535826771653
11
0.3747426377952756
21
0.7936604724409448
0
LINE
8
BLACK
6
CONTINUOUS
10
0.3747426377952756
20
0.7936604724409448
11
0.377755905511811
21
0.7942598425196851
0
LINE
8
BLACK
6
CONTINUOUS
10
0.377755905511811
20
0.7942598425196851
11
0.393503937007874
21
0.7942598425196851
0
LINE
8
BLACK
6
CONTINUOUS
10
0.393503937007874
20
0.7942598425196851
11
0.3965172047244094
21
0.7936604724409448
0
LINE
8
BLACK
6
CONTINUOUS
10
0.4679345275590551
20
0.801188031496063
11
0.4704890157480315
21
0.7994811417322835
0
LINE
8
BLACK
6
CONTINUOUS
10
0.4704890157480315
20
0.7994811417322835
11
0.472195905511811
21
0.7969266535433071
0
LINE
8
BLACK
6
CONTINUOUS
10
0.472195905511811
20
0.7969266535433071
11
0.4727952755905512
21
0.7939133858267716
0
LINE
8
BLACK
6
CONTINUOUS
10
0.4727952755905512
20
0.7939133858267716
11
0.4727952755905512
21
0.7781653543307087
0
LINE
8
BLACK
6
CONTINUOUS
10
0.4727952755905512
20
0.7781653543307087
11
0.472195905511811
21
0.7751520866141732
0
LINE
8
BLACK
6
CONTINUOUS
10
0.472195905511811
20
0.7751520866141732
11
0.4704890157480315
21
0.7725975984251968
0
LINE
8
BLACK
6
CONTINUOUS
10
0.4704890157480315
20
0.7725975984251968
11
0.4679345275590551
21
0.7708907086614173
0
LINE
8
BLACK
6
CONTINUOUS
10
0.4679345275590551
20
0.7708907086614173
11
0.4649212598425197
21
0.7702913385826772
0
LINE
8
BLACK
6
CONTINUOUS
10
0.4649212598425197
20
0.7702913385826772
11
0.4432677165354331
21
0.7702913385826772
0
LINE
8
BLACK
6
CONTINUOUS
10
0.4432677165354331
20
0.7702913385826772
11
0.4402544488188976
21
0.7708907086614173
0
LINE
8
BLACK
6
CONTINUOUS
10
0.4402544488188976
20
0.7708907086614173
11
0.4376999606299212
21
0.7725975984251968
0
LINE
8
BLACK
6
CONTINUOUS
10
0.4376999606299212
20
0.7725975984251968
11
0.4359930708661417
21
0.7751520866141732
0
LINE
8
BLACK
6
CONTINUOUS
10
0.4359930708661417
20
0.7751520866141732
11
0.4353937007874016
21
0.7781653543307087
0
LINE
8
BLACK
6
CONTINUOUS
10
0.4353937007874016
20
0.7781653543307087
11
0.4353937007874016
21
0.7939133858267716
0
LINE
8
BLACK
6
CONTINUOUS
10
0.4353937007874016
20
0.7939133858267716
11
0.4359930708661417
21
0.7969266535433071
0
LINE
8
BLACK
6
CONTINUOUS
10
0.4359930708661417
20
0.7969266535433071
11
0.4376999606299212
21
0.7994811417322835
0
LINE
8
BLACK
6
CONTINUOUS
10
0.4376999606299212
20
0.7994811417322835
11
0.4402544488188976
21
0.801188031496063
0
LINE
8
BLACK
6
CONTINUOUS
10
0.4402544488188976
20
0.801188031496063
11
0.4432677165354331
21
0.8017874015748031
0
LINE
8
BLACK
6
CONTINUOUS
10
0.4432677165354331
20
0.8017874015748031
11
0.4649212598425197
21
0.8017874015748031
0
LINE
8
BLACK
6
CONTINUOUS
10
0.4649212598425197
20
0.8017874015748031
11
0.4679345275590551
21
0.801188031496063
0
LINE
8
BLACK
6
CONTINUOUS
10
0.1329345275590551
20
0.8016683464566929
11
0.1354890157480315
21
0.7999614566929134
0
LINE
8
BLACK
6
CONTINUOUS
10
0.1354890157480315
20
0.7999614566929134
11
0.137195905511811
21
0.797406968503937
0
LINE
8
BLACK
6
CONTINUOUS
10
0.137195905511811
20
0.797406968503937
11
0.1377952755905512
21
0.7943937007874016
0
LINE
8
BLACK
6
CONTINUOUS
10
0.1377952755905512
20
0.7943937007874016
11
0.1377952755905512
21
0.7786456692913386
0
LINE
8
BLACK
6
CONTINUOUS
10
0.1377952755905512
20
0.7786456692913386
11
0.137195905511811
21
0.7756324015748032
0
LINE
8
BLACK
6
CONTINUOUS
10
0.137195905511811
20
0.7756324015748032
11
0.1354890157480315
21
0.7730779133858268
0
LINE
8
BLACK
6
CONTINUOUS
10
0.1354890157480315
20
0.7730779133858268
11
0.1329345275590551
21
0.7713710236220472
0
LINE
8
BLACK
6
CONTINUOUS
10
0.1329345275590551
20
0.7713710236220472
11
0.1299212598425197
21
0.7707716535433071
0
LINE
8
BLACK
6
CONTINUOUS
10
0.1299212598425197
20
0.7707716535433071
11
0.1082677165354331
21
0.7707716535433071
0
LINE
8
BLACK
6
CONTINUOUS
10
0.1082677165354331
20
0.7707716535433071
11
0.1052544488188976
21
0.7713710236220472
0
LINE
8
BLACK
6
CONTINUOUS
10
0.1052544488188976
20
0.7713710236220472
11
0.1026999606299213
21
0.7730779133858268
0
LINE
8
BLACK
6
CONTINUOUS
10
0.1026999606299213
20
0.7730779133858268
11
0.1009930708661417
21
0.7756324015748032
0
LINE
8
BLACK
6
CONTINUOUS
10
0.1009930708661417
20
0.7756324015748032
11
0.1003937007874016
21
0.7786456692913386
0
LINE
8
BLACK
6
CONTINUOUS
10
0.1003937007874016
20
0.7786456692913386
11
0.1003937007874016
21
0.7943937007874016
0
LINE
8
BLACK
6
CONTINUOUS
10
0.1003937007874016
20
0.7943937007874016
11
0.1009930708661417
21
0.797406968503937
0
LINE
8
BLACK
6
CONTINUOUS
10
0.1009930708661417
20
0.797406968503937
11
0.1026999606299213
21
0.7999614566929134
0
LINE
8
BLACK
6
CONTINUOUS
10
0.1026999606299213
20
0.7999614566929134
11
0.1052544488188976
21
0.8016683464566929
0
LINE
8
BLACK
6
CONTINUOUS
10
0.1052544488188976
20
0.8016683464566929
11
0.1082677165354331
21
0.8022677165354331
0
LINE
8
BLACK
6
CONTINUOUS
10
0.1082677165354331
20
0.8022677165354331
11
0.1299212598425197
21
0.8022677165354331
0
LINE
8
BLACK
6
CONTINUOUS
10
0.1299212598425197
20
0.8022677165354331
11
0.1329345275590551
21
0.8016683464566929
  0
ENDSEC
  0
EOF
