  0
SECTION
  2
HEADER
  9
$ANGBASE
  50
0.0
  9
$ANGDIR
  70
1
  9
$MEASUREMENT
  70
0
  0
ENDSEC
  0
SECTION
  2
TABLES
  0
TABLE
  2
LTYPE
  70
4
  0
LTYPE
  5
40F
  2
CONTINUOUS
  70
0
  3
Solid line
  72
65
  73
0
  40
0.0
  0
LTYPE
  5
410
  2
DASHDOT
 70
0
  3
Dash Dot ____ _ ____ _
 72
65
 73
4
 40
2.0
 49
1.25
 49
-0.25
 49
0.25
 49
-0.25
  0
LTYPE
  5
411
  2
DASHED
 70
0
  3
Dashed __ __ __ __ __
 72
65
 73
2
 40
0.75
 49
0.5
 49
-0.25
  0
LTYPE
  5
43B
  2
DOTTED
 70
0
  3
Dotted .  .  .  .
 72
65
 73
2
 40
0.2
 49
0.0
 49
-0.2
  0
ENDTAB
  0
TABLE
  2
STYLE
  70
4
  0
STYLE
  2
KICAD
  70
0
  40
0
  41
1
  42
1
  50
0
  71
0
  3
isocp.shx
  0
STYLE
  2
KICADB
  70
0
  40
0
  41
1
  42
1
  50
0
  71
0
  3
isocp.shx
  0
STYLE
  2
KICADI
  70
0
  40
0
  41
1
  42
1
  50
15
  71
0
  3
isocp.shx
  0
STYLE
  2
KICADBI
  70
0
  40
0
  41
1
  42
1
  50
15
  71
0
  3
isocp.shx
  0
ENDTAB
  0
TABLE
  2
LAYER
  70
1
  0
LAYER
  2
BLACK
  70
0
  62
7
  6
CONTINUOUS
  0
ENDTAB
  0
ENDSEC
  0
SECTION
  2
ENTITIES
0
LINE
8
BLACK
6
CONTINUOUS
10
0.8238453149606298
20
0.1649988188976378
11
0.8270384645669291
21
0.1628652362204724
0
LINE
8
BLACK
6
CONTINUOUS
10
0.8270384645669291
20
0.1628652362204724
11
0.8291720472440944
21
0.1596720866141732
0
LINE
8
BLACK
6
CONTINUOUS
10
0.8291720472440944
20
0.1596720866141732
11
0.8299212598425196
21
0.1559055118110236
0
LINE
8
BLACK
6
CONTINUOUS
10
0.8299212598425196
20
0.1559055118110236
11
0.8299212598425196
21
0.1047244094488189
0
LINE
8
BLACK
6
CONTINUOUS
10
0.8299212598425196
20
0.1047244094488189
11
0.8291720472440944
21
0.1009578346456693
0
LINE
8
BLACK
6
CONTINUOUS
10
0.8291720472440944
20
0.1009578346456693
11
0.8270384645669291
21
0.0977646850393701
0
LINE
8
BLACK
6
CONTINUOUS
10
0.8270384645669291
20
0.0977646850393701
11
0.8238453149606298
21
0.0956311023622047
0
LINE
8
BLACK
6
CONTINUOUS
10
0.8238453149606298
20
0.0956311023622047
11
0.8200787401574803
21
0.0948818897637795
0
LINE
8
BLACK
6
CONTINUOUS
10
0.8200787401574803
20
0.0948818897637795
11
0.7059055118110236
21
0.0948818897637795
0
LINE
8
BLACK
6
CONTINUOUS
10
0.7059055118110236
20
0.0948818897637795
11
0.702138937007874
21
0.0956311023622047
0
LINE
8
BLACK
6
CONTINUOUS
10
0.702138937007874
20
0.0956311023622047
11
0.6989457874015748
21
0.0977646850393701
0
LINE
8
BLACK
6
CONTINUOUS
10
0.6989457874015748
20
0.0977646850393701
11
0.6968122047244094
21
0.1009578346456693
0
LINE
8
BLACK
6
CONTINUOUS
10
0.6968122047244094
20
0.1009578346456693
11
0.6960629921259842
21
0.1047244094488189
0
LINE
8
BLACK
6
CONTINUOUS
10
0.6960629921259842
20
0.1047244094488189
11
0.6960629921259842
21
0.1559055118110236
0
LINE
8
BLACK
6
CONTINUOUS
10
0.6960629921259842
20
0.1559055118110236
11
0.6968122047244094
21
0.1596720866141732
0
LINE
8
BLACK
6
CONTINUOUS
10
0.6968122047244094
20
0.1596720866141732
11
0.6989457874015748
21
0.1628652362204724
0
LINE
8
BLACK
6
CONTINUOUS
10
0.6989457874015748
20
0.1628652362204724
11
0.702138937007874
21
0.1649988188976378
0
LINE
8
BLACK
6
CONTINUOUS
10
0.702138937007874
20
0.1649988188976378
11
0.7059055118110236
21
0.165748031496063
0
LINE
8
BLACK
6
CONTINUOUS
10
0.7059055118110236
20
0.165748031496063
11
0.8200787401574803
21
0.165748031496063
0
LINE
8
BLACK
6
CONTINUOUS
10
0.8200787401574803
20
0.165748031496063
11
0.8238453149606298
21
0.1649988188976378
0
LINE
8
BLACK
6
CONTINUOUS
10
0.9706692913385827
20
0.1271653543307087
11
0.8718503937007874
21
0.1271653543307087
0
LINE
8
BLACK
6
CONTINUOUS
10
0.8718503937007874
20
0.1271653543307087
11
0.8718503937007874
21
0.1665354330708661
0
LINE
8
BLACK
6
CONTINUOUS
10
0.8718503937007874
20
0.1665354330708661
11
0.9706692913385827
21
0.1665354330708661
0
LINE
8
BLACK
6
CONTINUOUS
10
0.9706692913385827
20
0.1665354330708661
11
0.9706692913385827
21
0.1271653543307087
0
LINE
8
BLACK
6
CONTINUOUS
10
0.1110500393700787
20
0.167557874015748
11
0.1142431889763779
21
0.1654242913385827
0
LINE
8
BLACK
6
CONTINUOUS
10
0.1142431889763779
20
0.1654242913385827
11
0.1163767716535433
21
0.1622311417322835
0
LINE
8
BLACK
6
CONTINUOUS
10
0.1163767716535433
20
0.1622311417322835
11
0.1171259842519685
21
0.1584645669291339
0
LINE
8
BLACK
6
CONTINUOUS
10
0.1171259842519685
20
0.1584645669291339
11
0.1171259842519685
21
0.1387795275590551
0
LINE
8
BLACK
6
CONTINUOUS
10
0.1171259842519685
20
0.1387795275590551
11
0.1163767716535433
21
0.1350129527559055
0
LINE
8
BLACK
6
CONTINUOUS
10
0.1163767716535433
20
0.1350129527559055
11
0.1142431889763779
21
0.1318198031496063
0
LINE
8
BLACK
6
CONTINUOUS
10
0.1142431889763779
20
0.1318198031496063
11
0.1110500393700787
21
0.1296862204724409
0
LINE
8
BLACK
6
CONTINUOUS
10
0.1110500393700787
20
0.1296862204724409
11
0.1072834645669291
21
0.1289370078740157
0
LINE
8
BLACK
6
CONTINUOUS
10
0.1072834645669291
20
0.1289370078740157
11
0.0206692913385827
21
0.1289370078740157
0
LINE
8
BLACK
6
CONTINUOUS
10
0.0206692913385827
20
0.1289370078740157
11
0.0169027165354331
21
0.1296862204724409
0
LINE
8
BLACK
6
CONTINUOUS
10
0.0169027165354331
20
0.1296862204724409
11
0.0137095669291339
21
0.1318198031496063
0
LINE
8
BLACK
6
CONTINUOUS
10
0.0137095669291339
20
0.1318198031496063
11
0.0115759842519685
21
0.1350129527559055
0
LINE
8
BLACK
6
CONTINUOUS
10
0.0115759842519685
20
0.1350129527559055
11
0.0108267716535433
21
0.1387795275590551
0
LINE
8
BLACK
6
CONTINUOUS
10
0.0108267716535433
20
0.1387795275590551
11
0.0108267716535433
21
0.1584645669291339
0
LINE
8
BLACK
6
CONTINUOUS
10
0.0108267716535433
20
0.1584645669291339
11
0.0115759842519685
21
0.1622311417322835
0
LINE
8
BLACK
6
CONTINUOUS
10
0.0115759842519685
20
0.1622311417322835
11
0.0137095669291339
21
0.1654242913385827
0
LINE
8
BLACK
6
CONTINUOUS
10
0.0137095669291339
20
0.1654242913385827
11
0.0169027165354331
21
0.167557874015748
0
LINE
8
BLACK
6
CONTINUOUS
10
0.0169027165354331
20
0.167557874015748
11
0.0206692913385827
21
0.1683070866141732
0
LINE
8
BLACK
6
CONTINUOUS
10
0.0206692913385827
20
0.1683070866141732
11
0.1072834645669291
21
0.1683070866141732
0
LINE
8
BLACK
6
CONTINUOUS
10
0.1072834645669291
20
0.1683070866141732
11
0.1110500393700787
21
0.167557874015748
0
LINE
8
BLACK
6
CONTINUOUS
10
0.2197796456692913
20
0.232818188976378
11
0.2216955118110236
21
0.231538031496063
0
LINE
8
BLACK
6
CONTINUOUS
10
0.2216955118110236
20
0.231538031496063
11
0.2229756692913386
21
0.2296221653543307
0
LINE
8
BLACK
6
CONTINUOUS
10
0.2229756692913386
20
0.2296221653543307
11
0.2234251968503937
21
0.2273622047244094
0
LINE
8
BLACK
6
CONTINUOUS
10
0.2234251968503937
20
0.2273622047244094
11
0.2234251968503937
21
0.2155511811023622
0
LINE
8
BLACK
6
CONTINUOUS
10
0.2234251968503937
20
0.2155511811023622
11
0.2229756692913386
21
0.213291220472441
0
LINE
8
BLACK
6
CONTINUOUS
10
0.2229756692913386
20
0.213291220472441
11
0.2216955118110236
21
0.2113753543307087
0
LINE
8
BLACK
6
CONTINUOUS
10
0.2216955118110236
20
0.2113753543307087
11
0.2197796456692913
21
0.2100951968503937
0
LINE
8
BLACK
6
CONTINUOUS
10
0.2197796456692913
20
0.2100951968503937
11
0.2175196850393701
21
0.2096456692913386
0
LINE
8
BLACK
6
CONTINUOUS
10
0.2175196850393701
20
0.2096456692913386
11
0.1624015748031496
21
0.2096456692913386
0
LINE
8
BLACK
6
CONTINUOUS
10
0.1624015748031496
20
0.2096456692913386
11
0.1601416141732283
21
0.2100951968503937
0
LINE
8
BLACK
6
CONTINUOUS
10
0.1601416141732283
20
0.2100951968503937
11
0.1582257480314961
21
0.2113753543307087
0
LINE
8
BLACK
6
CONTINUOUS
10
0.1582257480314961
20
0.2113753543307087
11
0.1569455905511811
21
0.213291220472441
0
LINE
8
BLACK
6
CONTINUOUS
10
0.1569455905511811
20
0.213291220472441
11
0.156496062992126
21
0.2155511811023622
0
LINE
8
BLACK
6
CONTINUOUS
10
0.156496062992126
20
0.2155511811023622
11
0.156496062992126
21
0.2273622047244094
0
LINE
8
BLACK
6
CONTINUOUS
10
0.156496062992126
20
0.2273622047244094
11
0.1569455905511811
21
0.2296221653543307
0
LINE
8
BLACK
6
CONTINUOUS
10
0.1569455905511811
20
0.2296221653543307
11
0.1582257480314961
21
0.231538031496063
0
LINE
8
BLACK
6
CONTINUOUS
10
0.1582257480314961
20
0.231538031496063
11
0.1601416141732283
21
0.232818188976378
0
LINE
8
BLACK
6
CONTINUOUS
10
0.1601416141732283
20
0.232818188976378
11
0.1624015748031496
21
0.2332677165354331
0
LINE
8
BLACK
6
CONTINUOUS
10
0.1624015748031496
20
0.2332677165354331
11
0.2175196850393701
21
0.2332677165354331
0
LINE
8
BLACK
6
CONTINUOUS
10
0.2175196850393701
20
0.2332677165354331
11
0.2197796456692913
21
0.232818188976378
0
LINE
8
BLACK
6
CONTINUOUS
10
0.9706692913385827
20
0.2271653543307087
11
0.8718503937007874
21
0.2271653543307087
0
LINE
8
BLACK
6
CONTINUOUS
10
0.8718503937007874
20
0.2271653543307087
11
0.8718503937007874
21
0.2665354330708661
0
LINE
8
BLACK
6
CONTINUOUS
10
0.8718503937007874
20
0.2665354330708661
11
0.9706692913385827
21
0.2665354330708661
0
LINE
8
BLACK
6
CONTINUOUS
10
0.9706692913385827
20
0.2665354330708661
11
0.9706692913385827
21
0.2271653543307087
0
LINE
8
BLACK
6
CONTINUOUS
10
0.2197796456692913
20
0.2820307874015748
11
0.2216955118110236
21
0.2807506299212598
0
LINE
8
BLACK
6
CONTINUOUS
10
0.2216955118110236
20
0.2807506299212598
11
0.2229756692913386
21
0.2788347637795275
0
LINE
8
BLACK
6
CONTINUOUS
10
0.2229756692913386
20
0.2788347637795275
11
0.2234251968503937
21
0.2765748031496063
0
LINE
8
BLACK
6
CONTINUOUS
10
0.2234251968503937
20
0.2765748031496063
11
0.2234251968503937
21
0.264763779527559
0
LINE
8
BLACK
6
CONTINUOUS
10
0.2234251968503937
20
0.264763779527559
11
0.2229756692913386
21
0.2625038188976378
0
LINE
8
BLACK
6
CONTINUOUS
10
0.2229756692913386
20
0.2625038188976378
11
0.2216955118110236
21
0.2605879527559055
0
LINE
8
BLACK
6
CONTINUOUS
10
0.2216955118110236
20
0.2605879527559055
11
0.2197796456692913
21
0.2593077952755906
0
LINE
8
BLACK
6
CONTINUOUS
10
0.2197796456692913
20
0.2593077952755906
11
0.2175196850393701
21
0.2588582677165354
0
LINE
8
BLACK
6
CONTINUOUS
10
0.2175196850393701
20
0.2588582677165354
11
0.1624015748031496
21
0.2588582677165354
0
LINE
8
BLACK
6
CONTINUOUS
10
0.1624015748031496
20
0.2588582677165354
11
0.1601416141732283
21
0.2593077952755906
0
LINE
8
BLACK
6
CONTINUOUS
10
0.1601416141732283
20
0.2593077952755906
11
0.1582257480314961
21
0.2605879527559055
0
LINE
8
BLACK
6
CONTINUOUS
10
0.1582257480314961
20
0.2605879527559055
11
0.1569455905511811
21
0.2625038188976378
0
LINE
8
BLACK
6
CONTINUOUS
10
0.1569455905511811
20
0.2625038188976378
11
0.156496062992126
21
0.264763779527559
0
LINE
8
BLACK
6
CONTINUOUS
10
0.156496062992126
20
0.264763779527559
11
0.156496062992126
21
0.2765748031496063
0
LINE
8
BLACK
6
CONTINUOUS
10
0.156496062992126
20
0.2765748031496063
11
0.1569455905511811
21
0.2788347637795275
0
LINE
8
BLACK
6
CONTINUOUS
10
0.1569455905511811
20
0.2788347637795275
11
0.1582257480314961
21
0.2807506299212598
0
LINE
8
BLACK
6
CONTINUOUS
10
0.1582257480314961
20
0.2807506299212598
11
0.1601416141732283
21
0.2820307874015748
0
LINE
8
BLACK
6
CONTINUOUS
10
0.1601416141732283
20
0.2820307874015748
11
0.1624015748031496
21
0.2824803149606299
0
LINE
8
BLACK
6
CONTINUOUS
10
0.1624015748031496
20
0.2824803149606299
11
0.2175196850393701
21
0.2824803149606299
0
LINE
8
BLACK
6
CONTINUOUS
10
0.2175196850393701
20
0.2824803149606299
11
0.2197796456692913
21
0.2820307874015748
0
LINE
8
BLACK
6
CONTINUOUS
10
0.2197796456692913
20
0.3312433858267717
11
0.2216955118110236
21
0.3299632283464567
0
LINE
8
BLACK
6
CONTINUOUS
10
0.2216955118110236
20
0.3299632283464567
11
0.2229756692913386
21
0.3280473622047244
0
LINE
8
BLACK
6
CONTINUOUS
10
0.2229756692913386
20
0.3280473622047244
11
0.2234251968503937
21
0.3257874015748031
0
LINE
8
BLACK
6
CONTINUOUS
10
0.2234251968503937
20
0.3257874015748031
11
0.2234251968503937
21
0.3139763779527559
0
LINE
8
BLACK
6
CONTINUOUS
10
0.2234251968503937
20
0.3139763779527559
11
0.2229756692913386
21
0.3117164173228346
0
LINE
8
BLACK
6
CONTINUOUS
10
0.2229756692913386
20
0.3117164173228346
11
0.2216955118110236
21
0.3098005511811023
0
LINE
8
BLACK
6
CONTINUOUS
10
0.2216955118110236
20
0.3098005511811023
11
0.2197796456692913
21
0.3085203937007874
0
LINE
8
BLACK
6
CONTINUOUS
10
0.2197796456692913
20
0.3085203937007874
11
0.2175196850393701
21
0.3080708661417323
0
LINE
8
BLACK
6
CONTINUOUS
10
0.2175196850393701
20
0.3080708661417323
11
0.1624015748031496
21
0.3080708661417323
0
LINE
8
BLACK
6
CONTINUOUS
10
0.1624015748031496
20
0.3080708661417323
11
0.1601416141732283
21
0.3085203937007874
0
LINE
8
BLACK
6
CONTINUOUS
10
0.1601416141732283
20
0.3085203937007874
11
0.1582257480314961
21
0.3098005511811023
0
LINE
8
BLACK
6
CONTINUOUS
10
0.1582257480314961
20
0.3098005511811023
11
0.1569455905511811
21
0.3117164173228346
0
LINE
8
BLACK
6
CONTINUOUS
10
0.1569455905511811
20
0.3117164173228346
11
0.156496062992126
21
0.3139763779527559
0
LINE
8
BLACK
6
CONTINUOUS
10
0.156496062992126
20
0.3139763779527559
11
0.156496062992126
21
0.3257874015748031
0
LINE
8
BLACK
6
CONTINUOUS
10
0.156496062992126
20
0.3257874015748031
11
0.1569455905511811
21
0.3280473622047244
0
LINE
8
BLACK
6
CONTINUOUS
10
0.1569455905511811
20
0.3280473622047244
11
0.1582257480314961
21
0.3299632283464567
0
LINE
8
BLACK
6
CONTINUOUS
10
0.1582257480314961
20
0.3299632283464567
11
0.1601416141732283
21
0.3312433858267717
0
LINE
8
BLACK
6
CONTINUOUS
10
0.1601416141732283
20
0.3312433858267717
11
0.1624015748031496
21
0.3316929133858267
0
LINE
8
BLACK
6
CONTINUOUS
10
0.1624015748031496
20
0.3316929133858267
11
0.2175196850393701
21
0.3316929133858267
0
LINE
8
BLACK
6
CONTINUOUS
10
0.2175196850393701
20
0.3316929133858267
11
0.2197796456692913
21
0.3312433858267717
0
LINE
8
BLACK
6
CONTINUOUS
10
0.9706692913385827
20
0.3271653543307086
11
0.8718503937007874
21
0.3271653543307086
0
LINE
8
BLACK
6
CONTINUOUS
10
0.8718503937007874
20
0.3271653543307086
11
0.8718503937007874
21
0.3665354330708661
0
LINE
8
BLACK
6
CONTINUOUS
10
0.8718503937007874
20
0.3665354330708661
11
0.9706692913385827
21
0.3665354330708661
0
LINE
8
BLACK
6
CONTINUOUS
10
0.9706692913385827
20
0.3665354330708661
11
0.9706692913385827
21
0.3271653543307086
0
LINE
8
BLACK
6
CONTINUOUS
10
0.2197796456692913
20
0.3804559842519685
11
0.2216955118110236
21
0.3791758267716535
0
LINE
8
BLACK
6
CONTINUOUS
10
0.2216955118110236
20
0.3791758267716535
11
0.2229756692913386
21
0.3772599606299212
0
LINE
8
BLACK
6
CONTINUOUS
10
0.2229756692913386
20
0.3772599606299212
11
0.2234251968503937
21
0.375
0
LINE
8
BLACK
6
CONTINUOUS
10
0.2234251968503937
20
0.375
11
0.2234251968503937
21
0.3631889763779527
0
LINE
8
BLACK
6
CONTINUOUS
10
0.2234251968503937
20
0.3631889763779527
11
0.2229756692913386
21
0.3609290157480315
0
LINE
8
BLACK
6
CONTINUOUS
10
0.2229756692913386
20
0.3609290157480315
11
0.2216955118110236
21
0.3590131496062992
0
LINE
8
BLACK
6
CONTINUOUS
10
0.2216955118110236
20
0.3590131496062992
11
0.2197796456692913
21
0.3577329921259843
0
LINE
8
BLACK
6
CONTINUOUS
10
0.2197796456692913
20
0.3577329921259843
11
0.2175196850393701
21
0.3572834645669291
0
LINE
8
BLACK
6
CONTINUOUS
10
0.2175196850393701
20
0.3572834645669291
11
0.1624015748031496
21
0.3572834645669291
0
LINE
8
BLACK
6
CONTINUOUS
10
0.1624015748031496
20
0.3572834645669291
11
0.1601416141732283
21
0.3577329921259843
0
LINE
8
BLACK
6
CONTINUOUS
10
0.1601416141732283
20
0.3577329921259843
11
0.1582257480314961
21
0.3590131496062992
0
LINE
8
BLACK
6
CONTINUOUS
10
0.1582257480314961
20
0.3590131496062992
11
0.1569455905511811
21
0.3609290157480315
0
LINE
8
BLACK
6
CONTINUOUS
10
0.1569455905511811
20
0.3609290157480315
11
0.156496062992126
21
0.3631889763779527
0
LINE
8
BLACK
6
CONTINUOUS
10
0.156496062992126
20
0.3631889763779527
11
0.156496062992126
21
0.375
0
LINE
8
BLACK
6
CONTINUOUS
10
0.156496062992126
20
0.375
11
0.1569455905511811
21
0.3772599606299212
0
LINE
8
BLACK
6
CONTINUOUS
10
0.1569455905511811
20
0.3772599606299212
11
0.1582257480314961
21
0.3791758267716535
0
LINE
8
BLACK
6
CONTINUOUS
10
0.1582257480314961
20
0.3791758267716535
11
0.1601416141732283
21
0.3804559842519685
0
LINE
8
BLACK
6
CONTINUOUS
10
0.1601416141732283
20
0.3804559842519685
11
0.1624015748031496
21
0.3809055118110236
0
LINE
8
BLACK
6
CONTINUOUS
10
0.1624015748031496
20
0.3809055118110236
11
0.2175196850393701
21
0.3809055118110236
0
LINE
8
BLACK
6
CONTINUOUS
10
0.2175196850393701
20
0.3809055118110236
11
0.2197796456692913
21
0.3804559842519685
0
LINE
8
BLACK
6
CONTINUOUS
10
0.1110500393700787
20
0.4608649606299213
11
0.1142431889763779
21
0.4587313779527559
0
LINE
8
BLACK
6
CONTINUOUS
10
0.1142431889763779
20
0.4587313779527559
11
0.1163767716535433
21
0.4555382283464567
0
LINE
8
BLACK
6
CONTINUOUS
10
0.1163767716535433
20
0.4555382283464567
11
0.1171259842519685
21
0.4517716535433071
0
LINE
8
BLACK
6
CONTINUOUS
10
0.1171259842519685
20
0.4517716535433071
11
0.1171259842519685
21
0.4320866141732284
0
LINE
8
BLACK
6
CONTINUOUS
10
0.1171259842519685
20
0.4320866141732284
11
0.1163767716535433
21
0.4283200393700787
0
LINE
8
BLACK
6
CONTINUOUS
10
0.1163767716535433
20
0.4283200393700787
11
0.1142431889763779
21
0.4251268897637795
0
LINE
8
BLACK
6
CONTINUOUS
10
0.1142431889763779
20
0.4251268897637795
11
0.1110500393700787
21
0.4229933070866141
0
LINE
8
BLACK
6
CONTINUOUS
10
0.1110500393700787
20
0.4229933070866141
11
0.1072834645669291
21
0.4222440944881889
0
LINE
8
BLACK
6
CONTINUOUS
10
0.1072834645669291
20
0.4222440944881889
11
0.0206692913385827
21
0.4222440944881889
0
LINE
8
BLACK
6
CONTINUOUS
10
0.0206692913385827
20
0.4222440944881889
11
0.0169027165354331
21
0.4229933070866141
0
LINE
8
BLACK
6
CONTINUOUS
10
0.0169027165354331
20
0.4229933070866141
11
0.0137095669291339
21
0.4251268897637795
0
LINE
8
BLACK
6
CONTINUOUS
10
0.0137095669291339
20
0.4251268897637795
11
0.0115759842519685
21
0.4283200393700787
0
LINE
8
BLACK
6
CONTINUOUS
10
0.0115759842519685
20
0.4283200393700787
11
0.0108267716535433
21
0.4320866141732284
0
LINE
8
BLACK
6
CONTINUOUS
10
0.0108267716535433
20
0.4320866141732284
11
0.0108267716535433
21
0.4517716535433071
0
LINE
8
BLACK
6
CONTINUOUS
10
0.0108267716535433
20
0.4517716535433071
11
0.0115759842519685
21
0.4555382283464567
0
LINE
8
BLACK
6
CONTINUOUS
10
0.0115759842519685
20
0.4555382283464567
11
0.0137095669291339
21
0.4587313779527559
0
LINE
8
BLACK
6
CONTINUOUS
10
0.0137095669291339
20
0.4587313779527559
11
0.0169027165354331
21
0.4608649606299213
0
LINE
8
BLACK
6
CONTINUOUS
10
0.0169027165354331
20
0.4608649606299213
11
0.0206692913385827
21
0.4616141732283465
0
LINE
8
BLACK
6
CONTINUOUS
10
0.0206692913385827
20
0.4616141732283465
11
0.1072834645669291
21
0.4616141732283465
0
LINE
8
BLACK
6
CONTINUOUS
10
0.1072834645669291
20
0.4616141732283465
11
0.1110500393700787
21
0.4608649606299213
0
LINE
8
BLACK
6
CONTINUOUS
10
0.2889566929133858
20
0.4488779527559055
11
0.2539566929133858
21
0.4488779527559055
0
LINE
8
BLACK
6
CONTINUOUS
10
0.2539566929133858
20
0.4488779527559055
11
0.2539566929133858
21
0.5038779527559055
0
LINE
8
BLACK
6
CONTINUOUS
10
0.2539566929133858
20
0.5038779527559055
11
0.2889566929133858
21
0.5038779527559055
0
LINE
8
BLACK
6
CONTINUOUS
10
0.2889566929133858
20
0.5038779527559055
11
0.2889566929133858
21
0.4488779527559055
0
LINE
8
BLACK
6
CONTINUOUS
10
0.3639566929133858
20
0.4488779527559055
11
0.3289566929133858
21
0.4488779527559055
0
LINE
8
BLACK
6
CONTINUOUS
10
0.3289566929133858
20
0.4488779527559055
11
0.3289566929133858
21
0.5038779527559055
0
LINE
8
BLACK
6
CONTINUOUS
10
0.3289566929133858
20
0.5038779527559055
11
0.3639566929133858
21
0.5038779527559055
0
LINE
8
BLACK
6
CONTINUOUS
10
0.3639566929133858
20
0.5038779527559055
11
0.3639566929133858
21
0.4488779527559055
  0
ENDSEC
  0
EOF
