  0
SECTION
  2
HEADER
  9
$ANGBASE
  50
0.0
  9
$ANGDIR
  70
1
  9
$MEASUREMENT
  70
0
  0
ENDSEC
  0
SECTION
  2
TABLES
  0
TABLE
  2
LTYPE
  70
4
  0
LTYPE
  5
40F
  2
CONTINUOUS
  70
0
  3
Solid line
  72
65
  73
0
  40
0.0
  0
LTYPE
  5
410
  2
DASHDOT
 70
0
  3
Dash Dot ____ _ ____ _
 72
65
 73
4
 40
2.0
 49
1.25
 49
-0.25
 49
0.25
 49
-0.25
  0
LTYPE
  5
411
  2
DASHED
 70
0
  3
Dashed __ __ __ __ __
 72
65
 73
2
 40
0.75
 49
0.5
 49
-0.25
  0
LTYPE
  5
43B
  2
DOTTED
 70
0
  3
Dotted .  .  .  .
 72
65
 73
2
 40
0.2
 49
0.0
 49
-0.2
  0
ENDTAB
  0
TABLE
  2
STYLE
  70
4
  0
STYLE
  2
KICAD
  70
0
  40
0
  41
1
  42
1
  50
0
  71
0
  3
isocp.shx
  0
STYLE
  2
KICADB
  70
0
  40
0
  41
1
  42
1
  50
0
  71
0
  3
isocp.shx
  0
STYLE
  2
KICADI
  70
0
  40
0
  41
1
  42
1
  50
15
  71
0
  3
isocp.shx
  0
STYLE
  2
KICADBI
  70
0
  40
0
  41
1
  42
1
  50
15
  71
0
  3
isocp.shx
  0
ENDTAB
  0
TABLE
  2
LAYER
  70
1
  0
LAYER
  2
BLACK
  70
0
  62
7
  6
CONTINUOUS
  0
ENDTAB
  0
ENDSEC
  0
SECTION
  2
ENTITIES
0
LINE
8
BLACK
6
CONTINUOUS
10
1.1262029133858267
20
0.5923698425196851
11
1.1272682677165353
21
0.5913044881889764
0
LINE
8
BLACK
6
CONTINUOUS
10
1.1272682677165353
20
0.5913044881889764
11
1.1272682677165353
21
0.589797874015748
0
LINE
8
BLACK
6
CONTINUOUS
10
1.1272682677165353
20
0.589797874015748
11
1.1262029133858267
21
0.5887325196850394
0
LINE
8
BLACK
6
CONTINUOUS
10
1.1262029133858267
20
0.5887325196850394
11
1.1254496062992125
21
0.5885826771653543
0
LINE
8
BLACK
6
CONTINUOUS
10
1.1254496062992125
20
0.5885826771653543
11
1.1056062204724408
21
0.5885826771653543
0
LINE
8
BLACK
6
CONTINUOUS
10
1.1056062204724408
20
0.5885826771653543
11
1.1271957086614173
21
0.5471096062992126
0
LINE
8
BLACK
6
CONTINUOUS
10
1.1271957086614173
20
0.5471096062992126
11
1.1274106692913386
21
0.5463722047244094
0
LINE
8
BLACK
6
CONTINUOUS
10
1.1274106692913386
20
0.5463722047244094
11
1.1269575984251967
21
0.5449353149606299
0
LINE
8
BLACK
6
CONTINUOUS
10
1.1269575984251967
20
0.5449353149606299
11
1.125621220472441
21
0.5442396456692913
0
LINE
8
BLACK
6
CONTINUOUS
10
1.125621220472441
20
0.5442396456692913
11
1.1241842913385827
21
0.5446926771653543
0
LINE
8
BLACK
6
CONTINUOUS
10
1.1241842913385827
20
0.5446926771653543
11
1.1237035433070865
21
0.5452916929133859
0
LINE
8
BLACK
6
CONTINUOUS
10
1.1237035433070865
20
0.5452916929133859
11
1.1043307086614174
21
0.5825065748031496
0
LINE
8
BLACK
6
CONTINUOUS
10
1.1043307086614174
20
0.5825065748031496
11
1.1043307086614174
21
0.0080446456692913
0
LINE
8
BLACK
6
CONTINUOUS
10
1.1043307086614174
20
0.0080446456692913
11
1.1237035433070865
21
0.0452594881889764
0
LINE
8
BLACK
6
CONTINUOUS
10
1.1237035433070865
20
0.0452594881889764
11
1.1241842913385827
21
0.0458585039370079
0
LINE
8
BLACK
6
CONTINUOUS
10
1.1241842913385827
20
0.0458585039370079
11
1.125621220472441
21
0.0463115354330709
0
LINE
8
BLACK
6
CONTINUOUS
10
1.125621220472441
20
0.0463115354330709
11
1.1269575984251967
21
0.0456158661417323
0
LINE
8
BLACK
6
CONTINUOUS
10
1.1269575984251967
20
0.0456158661417323
11
1.1274106692913386
21
0.0441789763779528
0
LINE
8
BLACK
6
CONTINUOUS
10
1.1274106692913386
20
0.0441789763779528
11
1.1271957086614173
21
0.0434415748031496
0
LINE
8
BLACK
6
CONTINUOUS
10
1.1271957086614173
20
0.0434415748031496
11
1.1056062204724408
21
0.0019685039370079
0
LINE
8
BLACK
6
CONTINUOUS
10
1.1056062204724408
20
0.0019685039370079
11
1.1254496062992125
21
0.0019685039370079
0
LINE
8
BLACK
6
CONTINUOUS
10
1.1254496062992125
20
0.0019685039370079
11
1.1262029133858267
21
0.0018186614173228
0
LINE
8
BLACK
6
CONTINUOUS
10
1.1262029133858267
20
0.0018186614173228
11
1.1272682677165353
21
0.0007533070866142
0
LINE
8
BLACK
6
CONTINUOUS
10
1.1272682677165353
20
0.0007533070866142
11
1.1272682677165353
21
-0.0007533070866142
0
LINE
8
BLACK
6
CONTINUOUS
10
1.1272682677165353
20
-0.0007533070866142
11
1.1262029133858267
21
-0.0018186614173228
0
LINE
8
BLACK
6
CONTINUOUS
10
1.1262029133858267
20
-0.0018186614173228
11
1.1254496062992125
21
-0.0019685039370079
0
LINE
8
BLACK
6
CONTINUOUS
10
1.1254496062992125
20
-0.0019685039370079
11
1.0039370078740157
21
-0.0019685039370079
0
LINE
8
BLACK
6
CONTINUOUS
10
1.0039370078740157
20
-0.0019685039370079
11
1.0031837007874016
21
-0.0018186614173228
0
LINE
8
BLACK
6
CONTINUOUS
10
1.0031837007874016
20
-0.0018186614173228
11
1.002118346456693
21
-0.0007533070866142
0
LINE
8
BLACK
6
CONTINUOUS
10
1.002118346456693
20
-0.0007533070866142
11
1.002118346456693
21
0.0007533070866142
0
LINE
8
BLACK
6
CONTINUOUS
10
1.002118346456693
20
0.0007533070866142
11
1.0031837007874016
21
0.0018186614173228
0
LINE
8
BLACK
6
CONTINUOUS
10
1.0031837007874016
20
0.0018186614173228
11
1.0039370078740157
21
0.0019685039370079
0
LINE
8
BLACK
6
CONTINUOUS
10
1.0039370078740157
20
0.0019685039370079
11
1.0991181889763779
21
0.0019685039370079
0
LINE
8
BLACK
6
CONTINUOUS
10
1.0991181889763779
20
0.0019685039370079
11
1.0775286614173227
21
0.0434416141732283
0
LINE
8
BLACK
6
CONTINUOUS
10
1.0775286614173227
20
0.0434416141732283
11
1.0773137401574804
21
0.0441789763779528
0
LINE
8
BLACK
6
CONTINUOUS
10
1.0773137401574804
20
0.0441789763779528
11
1.077766811023622
21
0.0456158661417323
0
LINE
8
BLACK
6
CONTINUOUS
10
1.077766811023622
20
0.0456158661417323
11
1.079103188976378
21
0.0463115748031496
0
LINE
8
BLACK
6
CONTINUOUS
10
1.079103188976378
20
0.0463115748031496
11
1.0805400787401576
21
0.0458585039370079
0
LINE
8
BLACK
6
CONTINUOUS
10
1.0805400787401576
20
0.0458585039370079
11
1.0810208661417322
21
0.0452594881889764
0
LINE
8
BLACK
6
CONTINUOUS
10
1.0810208661417322
20
0.0452594881889764
11
1.1003937007874016
21
0.0080446062992126
0
LINE
8
BLACK
6
CONTINUOUS
10
1.1003937007874016
20
0.0080446062992126
11
1.1003937007874016
21
0.5825066141732284
0
LINE
8
BLACK
6
CONTINUOUS
10
1.1003937007874016
20
0.5825066141732284
11
1.0810208661417322
21
0.5452916929133859
0
LINE
8
BLACK
6
CONTINUOUS
10
1.0810208661417322
20
0.5452916929133859
11
1.0805400787401576
21
0.5446926771653543
0
LINE
8
BLACK
6
CONTINUOUS
10
1.0805400787401576
20
0.5446926771653543
11
1.079103188976378
21
0.5442396062992126
0
LINE
8
BLACK
6
CONTINUOUS
10
1.079103188976378
20
0.5442396062992126
11
1.077766811023622
21
0.5449353149606299
0
LINE
8
BLACK
6
CONTINUOUS
10
1.077766811023622
20
0.5449353149606299
11
1.0773137401574804
21
0.5463722047244094
0
LINE
8
BLACK
6
CONTINUOUS
10
1.0773137401574804
20
0.5463722047244094
11
1.0775286614173227
21
0.5471095669291338
0
LINE
8
BLACK
6
CONTINUOUS
10
1.0775286614173227
20
0.5471095669291338
11
1.0991181889763779
21
0.5885826771653543
0
LINE
8
BLACK
6
CONTINUOUS
10
1.0991181889763779
20
0.5885826771653543
11
1.0039370078740157
21
0.5885826771653543
0
LINE
8
BLACK
6
CONTINUOUS
10
1.0039370078740157
20
0.5885826771653543
11
1.0031837007874016
21
0.5887325196850394
0
LINE
8
BLACK
6
CONTINUOUS
10
1.0031837007874016
20
0.5887325196850394
11
1.002118346456693
21
0.589797874015748
0
LINE
8
BLACK
6
CONTINUOUS
10
1.002118346456693
20
0.589797874015748
11
1.002118346456693
21
0.5913044881889764
0
LINE
8
BLACK
6
CONTINUOUS
10
1.002118346456693
20
0.5913044881889764
11
1.0031837007874016
21
0.5923698425196851
0
LINE
8
BLACK
6
CONTINUOUS
10
1.0031837007874016
20
0.5923698425196851
11
1.0039370078740157
21
0.59251968503937
0
LINE
8
BLACK
6
CONTINUOUS
10
1.0039370078740157
20
0.59251968503937
11
1.1254496062992125
21
0.59251968503937
0
LINE
8
BLACK
6
CONTINUOUS
10
1.1254496062992125
20
0.59251968503937
11
1.1262029133858267
21
0.5923698425196851
0
LINE
8
BLACK
6
CONTINUOUS
10
1.0766333464566928
20
0.2902316535433071
11
1.0774479921259843
21
0.2894170078740158
0
LINE
8
BLACK
6
CONTINUOUS
10
1.0774479921259843
20
0.2894170078740158
11
1.0778888976377952
21
0.2883525984251968
0
LINE
8
BLACK
6
CONTINUOUS
10
1.0778888976377952
20
0.2883525984251968
11
1.0779456299212598
21
0.2877765354330709
0
LINE
8
BLACK
6
CONTINUOUS
10
1.0779456299212598
20
0.2877765354330709
11
1.0779456299212598
21
0.2652793700787401
0
LINE
8
BLACK
6
CONTINUOUS
10
1.0779456299212598
20
0.2652793700787401
11
1.0778888976377952
21
0.2647033070866142
0
LINE
8
BLACK
6
CONTINUOUS
10
1.0778888976377952
20
0.2647033070866142
11
1.0774479921259843
21
0.2636388976377952
0
LINE
8
BLACK
6
CONTINUOUS
10
1.0774479921259843
20
0.2636388976377952
11
1.0766333464566928
21
0.262824251968504
0
LINE
8
BLACK
6
CONTINUOUS
10
1.0766333464566928
20
0.262824251968504
11
1.075568937007874
21
0.2623833464566929
0
LINE
8
BLACK
6
CONTINUOUS
10
1.075568937007874
20
0.2623833464566929
11
1.0744168110236221
21
0.2623833464566929
0
LINE
8
BLACK
6
CONTINUOUS
10
1.0744168110236221
20
0.2623833464566929
11
1.0733524015748031
21
0.262824251968504
0
LINE
8
BLACK
6
CONTINUOUS
10
1.0733524015748031
20
0.262824251968504
11
1.0725377559055118
21
0.2636388976377952
0
LINE
8
BLACK
6
CONTINUOUS
10
1.0725377559055118
20
0.2636388976377952
11
1.0720968503937007
21
0.2647033070866142
0
LINE
8
BLACK
6
CONTINUOUS
10
1.0720968503937007
20
0.2647033070866142
11
1.0720401181102361
21
0.2652793700787401
0
LINE
8
BLACK
6
CONTINUOUS
10
1.0720401181102361
20
0.2652793700787401
11
1.0720401181102361
21
0.2735751968503937
0
LINE
8
BLACK
6
CONTINUOUS
10
1.0720401181102361
20
0.2735751968503937
11
1.0446261417322835
21
0.2735751968503937
0
LINE
8
BLACK
6
CONTINUOUS
10
1.0446261417322835
20
0.2735751968503937
11
1.047084527559055
21
0.2711168110236221
0
LINE
8
BLACK
6
CONTINUOUS
10
1.047084527559055
20
0.2711168110236221
11
1.0472703543307087
21
0.2708904330708661
0
LINE
8
BLACK
6
CONTINUOUS
10
1.0472703543307087
20
0.2708904330708661
11
1.0473292913385825
21
0.2708392913385826
0
LINE
8
BLACK
6
CONTINUOUS
10
1.0473292913385825
20
0.2708392913385826
11
1.047385157480315
21
0.2707505511811024
0
LINE
8
BLACK
6
CONTINUOUS
10
1.047385157480315
20
0.2707505511811024
11
1.0474517716535432
21
0.2706693700787401
0
LINE
8
BLACK
6
CONTINUOUS
10
1.0474517716535432
20
0.2706693700787401
11
1.0474816141732284
21
0.2705972440944882
0
LINE
8
BLACK
6
CONTINUOUS
10
1.0474816141732284
20
0.2705972440944882
11
1.0476376377952756
21
0.2703494094488189
0
LINE
8
BLACK
6
CONTINUOUS
10
1.0476376377952756
20
0.2703494094488189
11
1.0495124015748032
21
0.2665998818897638
0
LINE
8
BLACK
6
CONTINUOUS
10
1.0495124015748032
20
0.2665998818897638
11
1.0497192913385827
21
0.2660592913385827
0
LINE
8
BLACK
6
CONTINUOUS
10
1.0497192913385827
20
0.2660592913385827
11
1.0498009448818897
21
0.2649100787401575
0
LINE
8
BLACK
6
CONTINUOUS
10
1.0498009448818897
20
0.2649100787401575
11
1.0494366141732283
21
0.2638170866141732
0
LINE
8
BLACK
6
CONTINUOUS
10
1.0494366141732283
20
0.2638170866141732
11
1.0486817716535433
21
0.2629467322834645
0
LINE
8
BLACK
6
CONTINUOUS
10
1.0486817716535433
20
0.2629467322834645
11
1.0476512598425196
21
0.2624314566929134
0
LINE
8
BLACK
6
CONTINUOUS
10
1.0476512598425196
20
0.2624314566929134
11
1.0465020472440945
21
0.2623498031496063
0
LINE
8
BLACK
6
CONTINUOUS
10
1.0465020472440945
20
0.2623498031496063
11
1.0454090944881889
21
0.2627141338582677
0
LINE
8
BLACK
6
CONTINUOUS
10
1.0454090944881889
20
0.2627141338582677
11
1.0445387007874016
21
0.2634689763779527
0
LINE
8
BLACK
6
CONTINUOUS
10
1.0445387007874016
20
0.2634689763779527
11
1.0442303543307085
21
0.2639588582677165
0
LINE
8
BLACK
6
CONTINUOUS
10
1.0442303543307085
20
0.2639588582677165
11
1.0425698818897637
21
0.2672798031496063
0
LINE
8
BLACK
6
CONTINUOUS
10
1.0425698818897637
20
0.2672798031496063
11
1.039365905511811
21
0.270483779527559
0
LINE
8
BLACK
6
CONTINUOUS
10
1.039365905511811
20
0.270483779527559
11
1.0339848818897637
21
0.2740711023622047
0
LINE
8
BLACK
6
CONTINUOUS
10
1.0339848818897637
20
0.2740711023622047
11
1.033983188976378
21
0.2740724803149606
0
LINE
8
BLACK
6
CONTINUOUS
10
1.033983188976378
20
0.2740724803149606
11
1.0339823228346456
21
0.2740728346456693
0
LINE
8
BLACK
6
CONTINUOUS
10
1.0339823228346456
20
0.2740728346456693
11
1.0339802755905512
21
0.2740748818897638
0
LINE
8
BLACK
6
CONTINUOUS
10
1.0339802755905512
20
0.2740748818897638
11
1.0335370472440946
21
0.274437874015748
0
LINE
8
BLACK
6
CONTINUOUS
10
1.0335370472440946
20
0.274437874015748
11
1.0333743700787401
21
0.2746807874015748
0
LINE
8
BLACK
6
CONTINUOUS
10
1.0333743700787401
20
0.2746807874015748
11
1.0331676771653544
21
0.2748874803149606
0
LINE
8
BLACK
6
CONTINUOUS
10
1.0331676771653544
20
0.2748874803149606
11
1.0330569291338583
21
0.2751548031496063
0
LINE
8
BLACK
6
CONTINUOUS
10
1.0330569291338583
20
0.2751548031496063
11
1.0328959842519685
21
0.275395157480315
0
LINE
8
BLACK
6
CONTINUOUS
10
1.0328959842519685
20
0.275395157480315
11
1.0328386220472441
21
0.275681811023622
0
LINE
8
BLACK
6
CONTINUOUS
10
1.0328386220472441
20
0.275681811023622
11
1.0327267716535433
21
0.2759518897637795
0
LINE
8
BLACK
6
CONTINUOUS
10
1.0327267716535433
20
0.2759518897637795
11
1.0327267716535433
21
0.2762412204724409
0
LINE
8
BLACK
6
CONTINUOUS
10
1.0327267716535433
20
0.2762412204724409
11
1.0326700393700787
21
0.276524842519685
0
LINE
8
BLACK
6
CONTINUOUS
10
1.0326700393700787
20
0.276524842519685
11
1.0327267716535433
21
0.2768116535433071
0
LINE
8
BLACK
6
CONTINUOUS
10
1.0327267716535433
20
0.2768116535433071
11
1.0327267716535433
21
0.2771040157480315
0
LINE
8
BLACK
6
CONTINUOUS
10
1.0327267716535433
20
0.2771040157480315
11
1.0328374803149607
21
0.2773712992125984
0
LINE
8
BLACK
6
CONTINUOUS
10
1.0328374803149607
20
0.2773712992125984
11
1.032893622047244
21
0.2776550787401575
0
LINE
8
BLACK
6
CONTINUOUS
10
1.032893622047244
20
0.2776550787401575
11
1.0330557874015749
21
0.2778983464566929
0
LINE
8
BLACK
6
CONTINUOUS
10
1.0330557874015749
20
0.2778983464566929
11
1.0331676771653544
21
0.2781684251968504
0
LINE
8
BLACK
6
CONTINUOUS
10
1.0331676771653544
20
0.2781684251968504
11
1.0333722047244094
21
0.2783729921259843
0
LINE
8
BLACK
6
CONTINUOUS
10
1.0333722047244094
20
0.2783729921259843
11
1.0335327165354331
21
0.2786137007874016
0
LINE
8
BLACK
6
CONTINUOUS
10
1.0335327165354331
20
0.2786137007874016
11
1.0337755905511812
21
0.2787763779527559
0
LINE
8
BLACK
6
CONTINUOUS
10
1.0337755905511812
20
0.2787763779527559
11
1.0339823228346456
21
0.2789830708661417
0
LINE
8
BLACK
6
CONTINUOUS
10
1.0339823228346456
20
0.2789830708661417
11
1.0342496062992126
21
0.2790938188976378
0
LINE
8
BLACK
6
CONTINUOUS
10
1.0342496062992126
20
0.2790938188976378
11
1.0344899999999999
21
0.2792547637795276
0
LINE
8
BLACK
6
CONTINUOUS
10
1.0344899999999999
20
0.2792547637795276
11
1.0347766141732284
21
0.279312125984252
0
LINE
8
BLACK
6
CONTINUOUS
10
1.0347766141732284
20
0.279312125984252
11
1.0350467322834644
21
0.2794239763779527
0
LINE
8
BLACK
6
CONTINUOUS
10
1.0350467322834644
20
0.2794239763779527
11
1.0356166535433071
21
0.2794801181102362
0
LINE
8
BLACK
6
CONTINUOUS
10
1.0356166535433071
20
0.2794801181102362
11
1.03561968503937
21
0.2794807086614173
0
LINE
8
BLACK
6
CONTINUOUS
10
1.03561968503937
20
0.2794807086614173
11
1.0356207086614173
21
0.2794805118110236
0
LINE
8
BLACK
6
CONTINUOUS
10
1.0356207086614173
20
0.2794805118110236
11
1.0356227952755905
21
0.2794807086614173
0
LINE
8
BLACK
6
CONTINUOUS
10
1.0356227952755905
20
0.2794807086614173
11
1.0720401181102361
21
0.2794807086614173
0
LINE
8
BLACK
6
CONTINUOUS
10
1.0720401181102361
20
0.2794807086614173
11
1.0720401181102361
21
0.2877765354330709
0
LINE
8
BLACK
6
CONTINUOUS
10
1.0720401181102361
20
0.2877765354330709
11
1.0720968503937007
21
0.2883525984251968
0
LINE
8
BLACK
6
CONTINUOUS
10
1.0720968503937007
20
0.2883525984251968
11
1.0725377559055118
21
0.2894170078740158
0
LINE
8
BLACK
6
CONTINUOUS
10
1.0725377559055118
20
0.2894170078740158
11
1.0733524015748031
21
0.2902316535433071
0
LINE
8
BLACK
6
CONTINUOUS
10
1.0733524015748031
20
0.2902316535433071
11
1.0744168110236221
21
0.2906725590551181
0
LINE
8
BLACK
6
CONTINUOUS
10
1.0744168110236221
20
0.2906725590551181
11
1.075568937007874
21
0.2906725590551181
0
LINE
8
BLACK
6
CONTINUOUS
10
1.075568937007874
20
0.2906725590551181
11
1.0766333464566928
21
0.2902316535433071
0
LINE
8
BLACK
6
CONTINUOUS
10
1.0680698425196851
20
0.328167874015748
11
1.0681678346456693
21
0.3281272834645669
0
LINE
8
BLACK
6
CONTINUOUS
10
1.0681678346456693
20
0.3281272834645669
11
1.0682736614173227
21
0.3281197637795276
0
LINE
8
BLACK
6
CONTINUOUS
10
1.0682736614173227
20
0.3281197637795276
11
1.0688142913385827
21
0.327912874015748
0
LINE
8
BLACK
6
CONTINUOUS
10
1.0688142913385827
20
0.327912874015748
11
1.0725638188976379
21
0.3260381102362205
0
LINE
8
BLACK
6
CONTINUOUS
10
1.0725638188976379
20
0.3260381102362205
11
1.0728116929133857
21
0.3258820866141732
0
LINE
8
BLACK
6
CONTINUOUS
10
1.0728116929133857
20
0.3258820866141732
11
1.0728837401574802
21
0.3258522440944882
0
LINE
8
BLACK
6
CONTINUOUS
10
1.0728837401574802
20
0.3258522440944882
11
1.0729647637795274
21
0.3257857480314961
0
LINE
8
BLACK
6
CONTINUOUS
10
1.0729647637795274
20
0.3257857480314961
11
1.0730537007874015
21
0.3257297637795276
0
LINE
8
BLACK
6
CONTINUOUS
10
1.0730537007874015
20
0.3257297637795276
11
1.073104842519685
21
0.3256707874015748
0
LINE
8
BLACK
6
CONTINUOUS
10
1.073104842519685
20
0.3256707874015748
11
1.0733311811023623
21
0.3254850393700787
0
LINE
8
BLACK
6
CONTINUOUS
10
1.0733311811023623
20
0.3254850393700787
11
1.0752059842519686
21
0.3236102755905512
0
LINE
8
BLACK
6
CONTINUOUS
10
1.0752059842519686
20
0.3236102755905512
11
1.0753917322834645
21
0.323383937007874
0
LINE
8
BLACK
6
CONTINUOUS
10
1.0753917322834645
20
0.323383937007874
11
1.0754507874015748
21
0.3233327165354331
0
LINE
8
BLACK
6
CONTINUOUS
10
1.0754507874015748
20
0.3233327165354331
11
1.0755067716535434
21
0.3232437795275591
0
LINE
8
BLACK
6
CONTINUOUS
10
1.0755067716535434
20
0.3232437795275591
11
1.0755732283464567
21
0.3231627952755906
0
LINE
8
BLACK
6
CONTINUOUS
10
1.0755732283464567
20
0.3231627952755906
11
1.075603031496063
21
0.3230908661417323
0
LINE
8
BLACK
6
CONTINUOUS
10
1.075603031496063
20
0.3230908661417323
11
1.0757591338582677
21
0.3228428346456693
0
LINE
8
BLACK
6
CONTINUOUS
10
1.0757591338582677
20
0.3228428346456693
11
1.0776338976377953
21
0.3190933070866142
0
LINE
8
BLACK
6
CONTINUOUS
10
1.0776338976377953
20
0.3190933070866142
11
1.0778407874015747
21
0.318552716535433
0
LINE
8
BLACK
6
CONTINUOUS
10
1.0778407874015747
20
0.318552716535433
11
1.0778483070866141
21
0.3184468503937008
0
LINE
8
BLACK
6
CONTINUOUS
10
1.0778483070866141
20
0.3184468503937008
11
1.0778888976377952
21
0.3183488582677165
0
LINE
8
BLACK
6
CONTINUOUS
10
1.0778888976377952
20
0.3183488582677165
11
1.0779456299212598
21
0.3177727952755905
0
LINE
8
BLACK
6
CONTINUOUS
10
1.0779456299212598
20
0.3177727952755905
11
1.0779456299212598
21
0.3083989763779528
0
LINE
8
BLACK
6
CONTINUOUS
10
1.0779456299212598
20
0.3083989763779528
11
1.0778888976377952
21
0.3078229133858268
0
LINE
8
BLACK
6
CONTINUOUS
10
1.0778888976377952
20
0.3078229133858268
11
1.0778483070866141
21
0.3077249606299213
0
LINE
8
BLACK
6
CONTINUOUS
10
1.0778483070866141
20
0.3077249606299213
11
1.0778407874015747
21
0.3076190551181102
0
LINE
8
BLACK
6
CONTINUOUS
10
1.0778407874015747
20
0.3076190551181102
11
1.0776338976377953
21
0.3070784645669291
0
LINE
8
BLACK
6
CONTINUOUS
10
1.0776338976377953
20
0.3070784645669291
11
1.0757591338582677
21
0.303328937007874
0
LINE
8
BLACK
6
CONTINUOUS
10
1.0757591338582677
20
0.303328937007874
11
1.075603031496063
21
0.3030809448818897
0
LINE
8
BLACK
6
CONTINUOUS
10
1.075603031496063
20
0.3030809448818897
11
1.0755732283464567
21
0.3030089763779528
0
LINE
8
BLACK
6
CONTINUOUS
10
1.0755732283464567
20
0.3030089763779528
11
1.0755067716535434
21
0.302928031496063
0
LINE
8
BLACK
6
CONTINUOUS
10
1.0755067716535434
20
0.302928031496063
11
1.0754507874015748
21
0.3028390551181102
0
LINE
8
BLACK
6
CONTINUOUS
10
1.0754507874015748
20
0.3028390551181102
11
1.0753917322834645
21
0.302787874015748
0
LINE
8
BLACK
6
CONTINUOUS
10
1.0753917322834645
20
0.302787874015748
11
1.0752059842519686
21
0.3025614960629921
0
LINE
8
BLACK
6
CONTINUOUS
10
1.0752059842519686
20
0.3025614960629921
11
1.0733311811023623
21
0.3006867322834645
0
LINE
8
BLACK
6
CONTINUOUS
10
1.0733311811023623
20
0.3006867322834645
11
1.0728837401574802
21
0.3003195275590551
0
LINE
8
BLACK
6
CONTINUOUS
10
1.0728837401574802
20
0.3003195275590551
11
1.0718193307086614
21
0.2998786614173228
0
LINE
8
BLACK
6
CONTINUOUS
10
1.0718193307086614
20
0.2998786614173228
11
1.0706672440944882
21
0.2998786614173228
0
LINE
8
BLACK
6
CONTINUOUS
10
1.0706672440944882
20
0.2998786614173228
11
1.0696028346456692
21
0.3003195669291339
0
LINE
8
BLACK
6
CONTINUOUS
10
1.0696028346456692
20
0.3003195669291339
11
1.0687881496062992
21
0.3011342519685039
0
LINE
8
BLACK
6
CONTINUOUS
10
1.0687881496062992
20
0.3011342519685039
11
1.0683472834645669
21
0.3021986614173228
0
LINE
8
BLACK
6
CONTINUOUS
10
1.0683472834645669
20
0.3021986614173228
11
1.0683472834645669
21
0.303350748031496
0
LINE
8
BLACK
6
CONTINUOUS
10
1.0683472834645669
20
0.303350748031496
11
1.068788188976378
21
0.3044151574803149
0
LINE
8
BLACK
6
CONTINUOUS
10
1.068788188976378
20
0.3044151574803149
11
1.0691554330708661
21
0.3048626377952756
0
LINE
8
BLACK
6
CONTINUOUS
10
1.0691554330708661
20
0.3048626377952756
11
1.0706913779527558
21
0.3063985826771654
0
LINE
8
BLACK
6
CONTINUOUS
10
1.0706913779527558
20
0.3063985826771654
11
1.0720401181102361
21
0.3090960236220472
0
LINE
8
BLACK
6
CONTINUOUS
10
1.0720401181102361
20
0.3090960236220472
11
1.0720401181102361
21
0.3170757480314961
0
LINE
8
BLACK
6
CONTINUOUS
10
1.0720401181102361
20
0.3170757480314961
11
1.0706913779527558
21
0.3197732283464567
0
LINE
8
BLACK
6
CONTINUOUS
10
1.0706913779527558
20
0.3197732283464567
11
1.0694942125984253
21
0.3209703543307086
0
LINE
8
BLACK
6
CONTINUOUS
10
1.0694942125984253
20
0.3209703543307086
11
1.0667967322834646
21
0.322319094488189
0
LINE
8
BLACK
6
CONTINUOUS
10
1.0667967322834646
20
0.322319094488189
11
1.0588170078740158
21
0.322319094488189
0
LINE
8
BLACK
6
CONTINUOUS
10
1.0588170078740158
20
0.322319094488189
11
1.0561195275590551
21
0.3209703543307086
0
LINE
8
BLACK
6
CONTINUOUS
10
1.0561195275590551
20
0.3209703543307086
11
1.0549224015748031
21
0.3197732283464567
0
LINE
8
BLACK
6
CONTINUOUS
10
1.0549224015748031
20
0.3197732283464567
11
1.0535736614173228
21
0.3170757480314961
0
LINE
8
BLACK
6
CONTINUOUS
10
1.0535736614173228
20
0.3170757480314961
11
1.0535736614173228
21
0.3090960236220472
0
LINE
8
BLACK
6
CONTINUOUS
10
1.0535736614173228
20
0.3090960236220472
11
1.0549224015748031
21
0.3063985433070866
0
LINE
8
BLACK
6
CONTINUOUS
10
1.0549224015748031
20
0.3063985433070866
11
1.0564583464566928
21
0.3048625984251969
0
LINE
8
BLACK
6
CONTINUOUS
10
1.0564583464566928
20
0.3048625984251969
11
1.0568255511811024
21
0.3044151574803149
0
LINE
8
BLACK
6
CONTINUOUS
10
1.0568255511811024
20
0.3044151574803149
11
1.0568824409448818
21
0.3042778346456693
0
LINE
8
BLACK
6
CONTINUOUS
10
1.0568824409448818
20
0.3042778346456693
11
1.0569766141732284
21
0.3041627165354331
0
LINE
8
BLACK
6
CONTINUOUS
10
1.0569766141732284
20
0.3041627165354331
11
1.0571012992125983
21
0.3037494488188976
0
LINE
8
BLACK
6
CONTINUOUS
10
1.0571012992125983
20
0.3037494488188976
11
1.0572664566929133
21
0.303350748031496
0
LINE
8
BLACK
6
CONTINUOUS
10
1.0572664566929133
20
0.303350748031496
11
1.0572664566929133
21
0.3032020866141732
0
LINE
8
BLACK
6
CONTINUOUS
10
1.0572664566929133
20
0.3032020866141732
11
1.0573094094488189
21
0.3030597244094488
0
LINE
8
BLACK
6
CONTINUOUS
10
1.0573094094488189
20
0.3030597244094488
11
1.0572664566929133
21
0.3026302362204724
0
LINE
8
BLACK
6
CONTINUOUS
10
1.0572664566929133
20
0.3026302362204724
11
1.0572664566929133
21
0.3021986614173228
0
LINE
8
BLACK
6
CONTINUOUS
10
1.0572664566929133
20
0.3021986614173228
11
1.0572095275590552
21
0.3020613385826771
0
LINE
8
BLACK
6
CONTINUOUS
10
1.0572095275590552
20
0.3020613385826771
11
1.0571947637795276
21
0.3019133070866142
0
LINE
8
BLACK
6
CONTINUOUS
10
1.0571947637795276
20
0.3019133070866142
11
1.0569906299212599
21
0.301532874015748
0
LINE
8
BLACK
6
CONTINUOUS
10
1.0569906299212599
20
0.301532874015748
11
1.0568255511811024
21
0.3011342519685039
0
LINE
8
BLACK
6
CONTINUOUS
10
1.0568255511811024
20
0.3011342519685039
11
1.0567203937007874
21
0.3010291338582677
0
LINE
8
BLACK
6
CONTINUOUS
10
1.0567203937007874
20
0.3010291338582677
11
1.0566501181102361
21
0.3008980708661417
0
LINE
8
BLACK
6
CONTINUOUS
10
1.0566501181102361
20
0.3008980708661417
11
1.056315905511811
21
0.3006246456692913
0
LINE
8
BLACK
6
CONTINUOUS
10
1.056315905511811
20
0.3006246456692913
11
1.0560108661417322
21
0.3003195669291339
0
LINE
8
BLACK
6
CONTINUOUS
10
1.0560108661417322
20
0.3003195669291339
11
1.0558735826771652
21
0.3002627165354331
0
LINE
8
BLACK
6
CONTINUOUS
10
1.0558735826771652
20
0.3002627165354331
11
1.0557584645669291
21
0.3001685039370079
0
LINE
8
BLACK
6
CONTINUOUS
10
1.0557584645669291
20
0.3001685039370079
11
1.0553450393700787
21
0.3000437795275591
0
LINE
8
BLACK
6
CONTINUOUS
10
1.0553450393700787
20
0.3000437795275591
11
1.0549464566929134
21
0.2998786614173228
0
LINE
8
BLACK
6
CONTINUOUS
10
1.0549464566929134
20
0.2998786614173228
11
1.0547978346456692
21
0.2998786614173228
0
LINE
8
BLACK
6
CONTINUOUS
10
1.0547978346456692
20
0.2998786614173228
11
1.0546554724409449
21
0.2998357086614173
0
LINE
8
BLACK
6
CONTINUOUS
10
1.0546554724409449
20
0.2998357086614173
11
1.0540766141732283
21
0.2998365748031496
0
LINE
8
BLACK
6
CONTINUOUS
10
1.0540766141732283
20
0.2998365748031496
11
1.0353289763779527
21
0.3017113385826772
0
LINE
8
BLACK
6
CONTINUOUS
10
1.0353289763779527
20
0.3017113385826772
11
1.0351190551181102
21
0.3017534251968504
0
LINE
8
BLACK
6
CONTINUOUS
10
1.0351190551181102
20
0.3017534251968504
11
1.0350467322834644
21
0.3017534251968504
0
LINE
8
BLACK
6
CONTINUOUS
10
1.0350467322834644
20
0.3017534251968504
11
1.0349788976377952
21
0.3017815354330708
0
LINE
8
BLACK
6
CONTINUOUS
10
1.0349788976377952
20
0.3017815354330708
11
1.0347614173228346
21
0.3018251181102362
0
LINE
8
BLACK
6
CONTINUOUS
10
1.0347614173228346
20
0.3018251181102362
11
1.0343811023622047
21
0.3020291732283464
0
LINE
8
BLACK
6
CONTINUOUS
10
1.0343811023622047
20
0.3020291732283464
11
1.0339823228346456
21
0.3021943307086614
0
LINE
8
BLACK
6
CONTINUOUS
10
1.0339823228346456
20
0.3021943307086614
11
1.0338771259842519
21
0.3022995275590551
0
LINE
8
BLACK
6
CONTINUOUS
10
1.0338771259842519
20
0.3022995275590551
11
1.0337461811023623
21
0.3023697637795276
0
LINE
8
BLACK
6
CONTINUOUS
10
1.0337461811023623
20
0.3023697637795276
11
1.0334729133858267
21
0.3027037401574803
0
LINE
8
BLACK
6
CONTINUOUS
10
1.0334729133858267
20
0.3027037401574803
11
1.0331676771653544
21
0.3030089763779528
0
LINE
8
BLACK
6
CONTINUOUS
10
1.0331676771653544
20
0.3030089763779528
11
1.0331107480314961
21
0.3031463385826771
0
LINE
8
BLACK
6
CONTINUOUS
10
1.0331107480314961
20
0.3031463385826771
11
1.0330166141732284
21
0.3032614173228346
0
LINE
8
BLACK
6
CONTINUOUS
10
1.0330166141732284
20
0.3032614173228346
11
1.0328918897637795
21
0.3036747244094488
0
LINE
8
BLACK
6
CONTINUOUS
10
1.0328918897637795
20
0.3036747244094488
11
1.0327267716535433
21
0.3040733858267716
0
LINE
8
BLACK
6
CONTINUOUS
10
1.0327267716535433
20
0.3040733858267716
11
1.032705
21
0.3042940944881889
0
LINE
8
BLACK
6
CONTINUOUS
10
1.032705
20
0.3042940944881889
11
1.0326838188976377
21
0.3043644094488189
0
LINE
8
BLACK
6
CONTINUOUS
10
1.0326838188976377
20
0.3043644094488189
11
1.0326909842519685
21
0.3044364173228347
0
LINE
8
BLACK
6
CONTINUOUS
10
1.0326909842519685
20
0.3044364173228347
11
1.0326700393700787
21
0.3046494488188976
0
LINE
8
BLACK
6
CONTINUOUS
10
1.0326700393700787
20
0.3046494488188976
11
1.0326700393700787
21
0.3233970866141732
0
LINE
8
BLACK
6
CONTINUOUS
10
1.0326700393700787
20
0.3233970866141732
11
1.0327267716535433
21
0.3239731496062992
0
LINE
8
BLACK
6
CONTINUOUS
10
1.0327267716535433
20
0.3239731496062992
11
1.0331676771653544
21
0.3250375590551181
0
LINE
8
BLACK
6
CONTINUOUS
10
1.0331676771653544
20
0.3250375590551181
11
1.0339823228346456
21
0.3258522047244095
0
LINE
8
BLACK
6
CONTINUOUS
10
1.0339823228346456
20
0.3258522047244095
11
1.0350467322834644
21
0.3262931102362205
0
LINE
8
BLACK
6
CONTINUOUS
10
1.0350467322834644
20
0.3262931102362205
11
1.0361988582677164
21
0.3262931102362205
0
LINE
8
BLACK
6
CONTINUOUS
10
1.0361988582677164
20
0.3262931102362205
11
1.0372632677165354
21
0.3258522047244095
0
LINE
8
BLACK
6
CONTINUOUS
10
1.0372632677165354
20
0.3258522047244095
11
1.0380779133858267
21
0.3250375590551181
0
LINE
8
BLACK
6
CONTINUOUS
10
1.0380779133858267
20
0.3250375590551181
11
1.0385188188976378
21
0.3239731496062992
0
LINE
8
BLACK
6
CONTINUOUS
10
1.0385188188976378
20
0.3239731496062992
11
1.0385755511811023
21
0.3233970866141732
0
LINE
8
BLACK
6
CONTINUOUS
10
1.0385755511811023
20
0.3233970866141732
11
1.0385755511811023
21
0.3073216929133858
0
LINE
8
BLACK
6
CONTINUOUS
10
1.0385755511811023
20
0.3073216929133858
11
1.048346811023622
21
0.3063445669291339
0
LINE
8
BLACK
6
CONTINUOUS
10
1.048346811023622
20
0.3063445669291339
11
1.0479798818897637
21
0.3070784645669291
0
LINE
8
BLACK
6
CONTINUOUS
10
1.0479798818897637
20
0.3070784645669291
11
1.0477729921259842
21
0.307619094488189
0
LINE
8
BLACK
6
CONTINUOUS
10
1.0477729921259842
20
0.307619094488189
11
1.0477654724409449
21
0.3077249212598425
0
LINE
8
BLACK
6
CONTINUOUS
10
1.0477654724409449
20
0.3077249212598425
11
1.0477248818897638
21
0.3078229133858268
0
LINE
8
BLACK
6
CONTINUOUS
10
1.0477248818897638
20
0.3078229133858268
11
1.0476681496062992
21
0.3083989763779528
0
LINE
8
BLACK
6
CONTINUOUS
10
1.0476681496062992
20
0.3083989763779528
11
1.0476681496062992
21
0.3177727952755905
0
LINE
8
BLACK
6
CONTINUOUS
10
1.0476681496062992
20
0.3177727952755905
11
1.0477248818897638
21
0.3183488582677165
0
LINE
8
BLACK
6
CONTINUOUS
10
1.0477248818897638
20
0.3183488582677165
11
1.0477654724409449
21
0.3184468897637795
0
LINE
8
BLACK
6
CONTINUOUS
10
1.0477654724409449
20
0.3184468897637795
11
1.0477729921259842
21
0.3185526771653543
0
LINE
8
BLACK
6
CONTINUOUS
10
1.0477729921259842
20
0.3185526771653543
11
1.0479798818897637
21
0.3190933070866142
0
LINE
8
BLACK
6
CONTINUOUS
10
1.0479798818897637
20
0.3190933070866142
11
1.0498546456692912
21
0.3228428346456693
0
LINE
8
BLACK
6
CONTINUOUS
10
1.0498546456692912
20
0.3228428346456693
11
1.0500107086614172
21
0.3230908661417323
0
LINE
8
BLACK
6
CONTINUOUS
10
1.0500107086614172
20
0.3230908661417323
11
1.0500405511811024
21
0.3231627952755906
0
LINE
8
BLACK
6
CONTINUOUS
10
1.0500405511811024
20
0.3231627952755906
11
1.0501070078740158
21
0.3232437795275591
0
LINE
8
BLACK
6
CONTINUOUS
10
1.0501070078740158
20
0.3232437795275591
11
1.0501629921259843
21
0.3233327165354331
0
LINE
8
BLACK
6
CONTINUOUS
10
1.0501629921259843
20
0.3233327165354331
11
1.0502219685039369
21
0.3233838976377953
0
LINE
8
BLACK
6
CONTINUOUS
10
1.0502219685039369
20
0.3233838976377953
11
1.0504077559055118
21
0.3236102362204724
0
LINE
8
BLACK
6
CONTINUOUS
10
1.0504077559055118
20
0.3236102362204724
11
1.0522825196850394
21
0.325485
0
LINE
8
BLACK
6
CONTINUOUS
10
1.0522825196850394
20
0.325485
11
1.0525088582677165
21
0.3256707874015748
0
LINE
8
BLACK
6
CONTINUOUS
10
1.0525088582677165
20
0.3256707874015748
11
1.0525600393700787
21
0.3257297637795276
0
LINE
8
BLACK
6
CONTINUOUS
10
1.0525600393700787
20
0.3257297637795276
11
1.0526489763779527
21
0.3257857480314961
0
LINE
8
BLACK
6
CONTINUOUS
10
1.0526489763779527
20
0.3257857480314961
11
1.0527299606299212
21
0.3258522047244095
0
LINE
8
BLACK
6
CONTINUOUS
10
1.0527299606299212
20
0.3258522047244095
11
1.0528018897637794
21
0.3258820472440945
0
LINE
8
BLACK
6
CONTINUOUS
10
1.0528018897637794
20
0.3258820472440945
11
1.0530499212598425
21
0.3260381102362205
0
LINE
8
BLACK
6
CONTINUOUS
10
1.0530499212598425
20
0.3260381102362205
11
1.0567994488188976
21
0.327912874015748
0
LINE
8
BLACK
6
CONTINUOUS
10
1.0567994488188976
20
0.327912874015748
11
1.0573400393700787
21
0.3281197637795276
0
LINE
8
BLACK
6
CONTINUOUS
10
1.0573400393700787
20
0.3281197637795276
11
1.0574459055118111
21
0.3281273228346457
0
LINE
8
BLACK
6
CONTINUOUS
10
1.0574459055118111
20
0.3281273228346457
11
1.0575438976377953
21
0.328167874015748
0
LINE
8
BLACK
6
CONTINUOUS
10
1.0575438976377953
20
0.328167874015748
11
1.0581199606299212
21
0.3282246062992126
0
LINE
8
BLACK
6
CONTINUOUS
10
1.0581199606299212
20
0.3282246062992126
11
1.067493779527559
21
0.3282246062992126
0
LINE
8
BLACK
6
CONTINUOUS
10
1.067493779527559
20
0.3282246062992126
11
1.0680698425196851
21
0.328167874015748
0
LINE
8
BLACK
6
CONTINUOUS
10
0.9408103543307086
20
0.6941248818897637
11
0.9822834645669292
21
0.6725353543307087
0
LINE
8
BLACK
6
CONTINUOUS
10
0.9822834645669292
20
0.6725353543307087
11
0.9822834645669292
21
0.6923787401574804
0
LINE
8
BLACK
6
CONTINUOUS
10
0.9822834645669292
20
0.6923787401574804
11
0.9824333070866141
21
0.6931320472440945
0
LINE
8
BLACK
6
CONTINUOUS
10
0.9824333070866141
20
0.6931320472440945
11
0.9834986614173228
21
0.6941974015748031
0
LINE
8
BLACK
6
CONTINUOUS
10
0.9834986614173228
20
0.6941974015748031
11
0.9850052755905512
21
0.6941974015748031
0
LINE
8
BLACK
6
CONTINUOUS
10
0.9850052755905512
20
0.6941974015748031
11
0.9860706299212598
21
0.6931320472440945
0
LINE
8
BLACK
6
CONTINUOUS
10
0.9860706299212598
20
0.6931320472440945
11
0.9862204724409449
21
0.6923787401574804
0
LINE
8
BLACK
6
CONTINUOUS
10
0.9862204724409449
20
0.6923787401574804
11
0.9862204724409449
21
0.610236220472441
0
LINE
8
BLACK
6
CONTINUOUS
10
0.9862204724409449
20
0.610236220472441
11
0.9860706299212598
21
0.6094829133858267
0
LINE
8
BLACK
6
CONTINUOUS
10
0.9860706299212598
20
0.6094829133858267
11
0.9850052755905512
21
0.6084175590551181
0
LINE
8
BLACK
6
CONTINUOUS
10
0.9850052755905512
20
0.6084175590551181
11
0.9834986614173228
21
0.6084175590551181
0
LINE
8
BLACK
6
CONTINUOUS
10
0.9834986614173228
20
0.6084175590551181
11
0.9824333070866141
21
0.6094829133858267
0
LINE
8
BLACK
6
CONTINUOUS
10
0.9824333070866141
20
0.6094829133858267
11
0.9822834645669292
21
0.610236220472441
0
LINE
8
BLACK
6
CONTINUOUS
10
0.9822834645669292
20
0.610236220472441
11
0.9822834645669292
21
0.6660473622047244
0
LINE
8
BLACK
6
CONTINUOUS
10
0.9822834645669292
20
0.6660473622047244
11
0.9408103543307086
21
0.6444577952755906
0
LINE
8
BLACK
6
CONTINUOUS
10
0.9408103543307086
20
0.6444577952755906
11
0.9400729921259843
21
0.644242874015748
0
LINE
8
BLACK
6
CONTINUOUS
10
0.9400729921259843
20
0.644242874015748
11
0.9386361023622047
21
0.6446959448818897
0
LINE
8
BLACK
6
CONTINUOUS
10
0.9386361023622047
20
0.6446959448818897
11
0.9379403937007874
21
0.6460323228346456
0
LINE
8
BLACK
6
CONTINUOUS
10
0.9379403937007874
20
0.6460323228346456
11
0.9383934645669291
21
0.6474692125984252
0
LINE
8
BLACK
6
CONTINUOUS
10
0.9383934645669291
20
0.6474692125984252
11
0.9389924803149606
21
0.64795
0
LINE
8
BLACK
6
CONTINUOUS
10
0.9389924803149606
20
0.64795
11
0.9762073622047244
21
0.6673228346456693
0
LINE
8
BLACK
6
CONTINUOUS
10
0.9762073622047244
20
0.6673228346456693
11
0.0080446456692913
21
0.6673228346456693
0
LINE
8
BLACK
6
CONTINUOUS
10
0.0080446456692913
20
0.6673228346456693
11
0.0452594881889764
21
0.64795
0
LINE
8
BLACK
6
CONTINUOUS
10
0.0452594881889764
20
0.64795
11
0.0458585039370079
21
0.6474692519685039
0
LINE
8
BLACK
6
CONTINUOUS
10
0.0458585039370079
20
0.6474692519685039
11
0.0463115354330709
21
0.6460323228346456
0
LINE
8
BLACK
6
CONTINUOUS
10
0.0463115354330709
20
0.6460323228346456
11
0.0456158661417323
21
0.6446959448818897
0
LINE
8
BLACK
6
CONTINUOUS
10
0.0456158661417323
20
0.6446959448818897
11
0.0441789763779528
21
0.644242874015748
0
LINE
8
BLACK
6
CONTINUOUS
10
0.0441789763779528
20
0.644242874015748
11
0.0434415748031496
21
0.6444578346456693
0
LINE
8
BLACK
6
CONTINUOUS
10
0.0434415748031496
20
0.6444578346456693
11
0.0019685039370079
21
0.6660473622047244
0
LINE
8
BLACK
6
CONTINUOUS
10
0.0019685039370079
20
0.6660473622047244
11
0.0019685039370079
21
0.610236220472441
0
LINE
8
BLACK
6
CONTINUOUS
10
0.0019685039370079
20
0.610236220472441
11
0.0018186614173228
21
0.6094829133858267
0
LINE
8
BLACK
6
CONTINUOUS
10
0.0018186614173228
20
0.6094829133858267
11
0.0007533070866142
21
0.6084175590551181
0
LINE
8
BLACK
6
CONTINUOUS
10
0.0007533070866142
20
0.6084175590551181
11
-0.0007533070866142
21
0.6084175590551181
0
LINE
8
BLACK
6
CONTINUOUS
10
-0.0007533070866142
20
0.6084175590551181
11
-0.0018186614173228
21
0.6094829133858267
0
LINE
8
BLACK
6
CONTINUOUS
10
-0.0018186614173228
20
0.6094829133858267
11
-0.0019685039370079
21
0.610236220472441
0
LINE
8
BLACK
6
CONTINUOUS
10
-0.0019685039370079
20
0.610236220472441
11
-0.0019685039370079
21
0.6923787401574804
0
LINE
8
BLACK
6
CONTINUOUS
10
-0.0019685039370079
20
0.6923787401574804
11
-0.0018186614173228
21
0.6931320472440945
0
LINE
8
BLACK
6
CONTINUOUS
10
-0.0018186614173228
20
0.6931320472440945
11
-0.0007533070866142
21
0.6941974015748031
0
LINE
8
BLACK
6
CONTINUOUS
10
-0.0007533070866142
20
0.6941974015748031
11
0.0007533070866142
21
0.6941974015748031
0
LINE
8
BLACK
6
CONTINUOUS
10
0.0007533070866142
20
0.6941974015748031
11
0.0018186614173228
21
0.6931320472440945
0
LINE
8
BLACK
6
CONTINUOUS
10
0.0018186614173228
20
0.6931320472440945
11
0.0019685039370079
21
0.6923787401574804
0
LINE
8
BLACK
6
CONTINUOUS
10
0.0019685039370079
20
0.6923787401574804
11
0.0019685039370079
21
0.6725353543307087
0
LINE
8
BLACK
6
CONTINUOUS
10
0.0019685039370079
20
0.6725353543307087
11
0.0434415748031496
21
0.694124842519685
0
LINE
8
BLACK
6
CONTINUOUS
10
0.0434415748031496
20
0.694124842519685
11
0.0441789763779528
21
0.6943398031496063
0
LINE
8
BLACK
6
CONTINUOUS
10
0.0441789763779528
20
0.6943398031496063
11
0.0456158661417323
21
0.6938867322834645
0
LINE
8
BLACK
6
CONTINUOUS
10
0.0456158661417323
20
0.6938867322834645
11
0.0463115354330709
21
0.6925503543307087
0
LINE
8
BLACK
6
CONTINUOUS
10
0.0463115354330709
20
0.6925503543307087
11
0.0458585039370079
21
0.6911134251968504
0
LINE
8
BLACK
6
CONTINUOUS
10
0.0458585039370079
20
0.6911134251968504
11
0.0452594881889764
21
0.6906326771653544
0
LINE
8
BLACK
6
CONTINUOUS
10
0.0452594881889764
20
0.6906326771653544
11
0.0080446456692913
21
0.6712598425196851
0
LINE
8
BLACK
6
CONTINUOUS
10
0.0080446456692913
20
0.6712598425196851
11
0.9762073622047244
21
0.6712598425196851
0
LINE
8
BLACK
6
CONTINUOUS
10
0.9762073622047244
20
0.6712598425196851
11
0.9389924803149606
21
0.6906326771653544
0
LINE
8
BLACK
6
CONTINUOUS
10
0.9389924803149606
20
0.6906326771653544
11
0.9383934645669291
21
0.6911134645669291
0
LINE
8
BLACK
6
CONTINUOUS
10
0.9383934645669291
20
0.6911134645669291
11
0.9379403937007874
21
0.6925503543307087
0
LINE
8
BLACK
6
CONTINUOUS
10
0.9379403937007874
20
0.6925503543307087
11
0.9386361023622047
21
0.6938867322834645
0
LINE
8
BLACK
6
CONTINUOUS
10
0.9386361023622047
20
0.6938867322834645
11
0.9400729921259843
21
0.6943398031496063
0
LINE
8
BLACK
6
CONTINUOUS
10
0.9400729921259843
20
0.6943398031496063
11
0.9408103543307086
21
0.6941248818897637
0
LINE
8
BLACK
6
CONTINUOUS
10
0.4777038976377952
20
0.7389267716535433
11
0.4778018897637795
21
0.7388861811023621
0
LINE
8
BLACK
6
CONTINUOUS
10
0.4778018897637795
20
0.7388861811023621
11
0.4779077165354331
21
0.7388786614173228
0
LINE
8
BLACK
6
CONTINUOUS
10
0.4779077165354331
20
0.7388786614173228
11
0.4784483464566929
21
0.7386717716535433
0
LINE
8
BLACK
6
CONTINUOUS
10
0.4784483464566929
20
0.7386717716535433
11
0.482197874015748
21
0.7367970078740157
0
LINE
8
BLACK
6
CONTINUOUS
10
0.482197874015748
20
0.7367970078740157
11
0.4824458661417323
21
0.7366409448818897
0
LINE
8
BLACK
6
CONTINUOUS
10
0.4824458661417323
20
0.7366409448818897
11
0.4825178346456693
21
0.7366111023622047
0
LINE
8
BLACK
6
CONTINUOUS
10
0.4825178346456693
20
0.7366111023622047
11
0.482598779527559
21
0.7365446456692913
0
LINE
8
BLACK
6
CONTINUOUS
10
0.482598779527559
20
0.7365446456692913
11
0.4826877559055118
21
0.7364886614173228
0
LINE
8
BLACK
6
CONTINUOUS
10
0.4826877559055118
20
0.7364886614173228
11
0.4827388976377953
21
0.73642968503937
0
LINE
8
BLACK
6
CONTINUOUS
10
0.4827388976377953
20
0.73642968503937
11
0.4829652755905512
21
0.7362438976377953
0
LINE
8
BLACK
6
CONTINUOUS
10
0.4829652755905512
20
0.7362438976377953
11
0.4848400393700787
21
0.7343691338582677
0
LINE
8
BLACK
6
CONTINUOUS
10
0.4848400393700787
20
0.7343691338582677
11
0.4850257874015748
21
0.7341427952755906
0
LINE
8
BLACK
6
CONTINUOUS
10
0.4850257874015748
20
0.7341427952755906
11
0.4850848031496063
21
0.7340916141732283
0
LINE
8
BLACK
6
CONTINUOUS
10
0.4850848031496063
20
0.7340916141732283
11
0.485140748031496
21
0.7340026771653543
0
LINE
8
BLACK
6
CONTINUOUS
10
0.485140748031496
20
0.7340026771653543
11
0.4852072440944882
21
0.7339216929133858
0
LINE
8
BLACK
6
CONTINUOUS
10
0.4852072440944882
20
0.7339216929133858
11
0.4852370472440945
21
0.7338497637795276
0
LINE
8
BLACK
6
CONTINUOUS
10
0.4852370472440945
20
0.7338497637795276
11
0.4853931496062992
21
0.7336017322834646
0
LINE
8
BLACK
6
CONTINUOUS
10
0.4853931496062992
20
0.7336017322834646
11
0.4872679133858268
21
0.7298522047244095
0
LINE
8
BLACK
6
CONTINUOUS
10
0.4872679133858268
20
0.7298522047244095
11
0.4874748031496063
21
0.7293116141732283
0
LINE
8
BLACK
6
CONTINUOUS
10
0.4874748031496063
20
0.7293116141732283
11
0.4874823228346457
21
0.7292057480314961
0
LINE
8
BLACK
6
CONTINUOUS
10
0.4874823228346457
20
0.7292057480314961
11
0.4875229133858268
21
0.7291077559055118
0
LINE
8
BLACK
6
CONTINUOUS
10
0.4875229133858268
20
0.7291077559055118
11
0.4875796456692914
21
0.7285316929133858
0
LINE
8
BLACK
6
CONTINUOUS
10
0.4875796456692914
20
0.7285316929133858
11
0.4875796456692914
21
0.7247821653543307
0
LINE
8
BLACK
6
CONTINUOUS
10
0.4875796456692914
20
0.7247821653543307
11
0.487550905511811
21
0.724490590551181
0
LINE
8
BLACK
6
CONTINUOUS
10
0.487550905511811
20
0.724490590551181
11
0.4875564566929134
21
0.7244128346456693
0
LINE
8
BLACK
6
CONTINUOUS
10
0.4875564566929134
20
0.7244128346456693
11
0.4875331889763779
21
0.7243105905511811
0
LINE
8
BLACK
6
CONTINUOUS
10
0.4875331889763779
20
0.7243105905511811
11
0.4875229133858268
21
0.7242061023622047
0
LINE
8
BLACK
6
CONTINUOUS
10
0.4875229133858268
20
0.7242061023622047
11
0.487493031496063
21
0.7241340551181102
0
LINE
8
BLACK
6
CONTINUOUS
10
0.487493031496063
20
0.7241340551181102
11
0.4874281102362205
21
0.7238483858267717
0
LINE
8
BLACK
6
CONTINUOUS
10
0.4874281102362205
20
0.7238483858267717
11
0.4855533464566929
21
0.7182241338582677
0
LINE
8
BLACK
6
CONTINUOUS
10
0.4855533464566929
20
0.7182241338582677
11
0.4853173622047244
21
0.7176955511811024
0
LINE
8
BLACK
6
CONTINUOUS
10
0.4853173622047244
20
0.7176955511811024
11
0.485247874015748
21
0.7176154724409448
0
LINE
8
BLACK
6
CONTINUOUS
10
0.485247874015748
20
0.7176154724409448
11
0.4852072834645669
21
0.7175174015748031
0
LINE
8
BLACK
6
CONTINUOUS
10
0.4852072834645669
20
0.7175174015748031
11
0.4848400393700787
21
0.7170699606299212
0
LINE
8
BLACK
6
CONTINUOUS
10
0.4848400393700787
20
0.7170699606299212
11
0.4673835433070866
21
0.6996134251968503
0
LINE
8
BLACK
6
CONTINUOUS
10
0.4673835433070866
20
0.6996134251968503
11
0.4846268897637795
21
0.6996134251968503
0
LINE
8
BLACK
6
CONTINUOUS
10
0.4846268897637795
20
0.6996134251968503
11
0.4852029527559055
21
0.6995566929133858
0
LINE
8
BLACK
6
CONTINUOUS
10
0.4852029527559055
20
0.6995566929133858
11
0.4862673622047244
21
0.6991157874015748
0
LINE
8
BLACK
6
CONTINUOUS
10
0.4862673622047244
20
0.6991157874015748
11
0.4870820078740157
21
0.6983011417322834
0
LINE
8
BLACK
6
CONTINUOUS
10
0.4870820078740157
20
0.6983011417322834
11
0.4875229133858268
21
0.6972367322834645
0
LINE
8
BLACK
6
CONTINUOUS
10
0.4875229133858268
20
0.6972367322834645
11
0.4875229133858268
21
0.6960846062992125
0
LINE
8
BLACK
6
CONTINUOUS
10
0.4875229133858268
20
0.6960846062992125
11
0.4870820078740157
21
0.6950201968503937
0
LINE
8
BLACK
6
CONTINUOUS
10
0.4870820078740157
20
0.6950201968503937
11
0.4862673622047244
21
0.6942055511811024
0
LINE
8
BLACK
6
CONTINUOUS
10
0.4862673622047244
20
0.6942055511811024
11
0.4852029527559055
21
0.6937646456692913
0
LINE
8
BLACK
6
CONTINUOUS
10
0.4852029527559055
20
0.6937646456692913
11
0.4846268897637795
21
0.6937079133858267
0
LINE
8
BLACK
6
CONTINUOUS
10
0.4846268897637795
20
0.6937079133858267
11
0.4602549606299213
21
0.6937079133858267
0
LINE
8
BLACK
6
CONTINUOUS
10
0.4602549606299213
20
0.6937079133858267
11
0.4596788976377953
21
0.6937646456692913
0
LINE
8
BLACK
6
CONTINUOUS
10
0.4596788976377953
20
0.6937646456692913
11
0.4586144881889764
21
0.6942055511811024
0
LINE
8
BLACK
6
CONTINUOUS
10
0.4586144881889764
20
0.6942055511811024
11
0.457799842519685
21
0.6950201968503937
0
LINE
8
BLACK
6
CONTINUOUS
10
0.457799842519685
20
0.6950201968503937
11
0.457358937007874
21
0.6960846062992125
0
LINE
8
BLACK
6
CONTINUOUS
10
0.457358937007874
20
0.6960846062992125
11
0.457358937007874
21
0.6972367322834645
0
LINE
8
BLACK
6
CONTINUOUS
10
0.457358937007874
20
0.6972367322834645
11
0.457799842519685
21
0.6983011417322834
0
LINE
8
BLACK
6
CONTINUOUS
10
0.457799842519685
20
0.6983011417322834
11
0.4581670472440945
21
0.6987485826771653
0
LINE
8
BLACK
6
CONTINUOUS
10
0.4581670472440945
20
0.6987485826771653
11
0.4801712992125984
21
0.7207529133858268
0
LINE
8
BLACK
6
CONTINUOUS
10
0.4801712992125984
20
0.7207529133858268
11
0.4816741338582677
21
0.7252612992125984
0
LINE
8
BLACK
6
CONTINUOUS
10
0.4816741338582677
20
0.7252612992125984
11
0.4816741338582677
21
0.7278346456692913
0
LINE
8
BLACK
6
CONTINUOUS
10
0.4816741338582677
20
0.7278346456692913
11
0.4803253937007874
21
0.730532125984252
0
LINE
8
BLACK
6
CONTINUOUS
10
0.4803253937007874
20
0.730532125984252
11
0.4791282677165354
21
0.7317292519685039
0
LINE
8
BLACK
6
CONTINUOUS
10
0.4791282677165354
20
0.7317292519685039
11
0.4764307874015748
21
0.7330779921259842
0
LINE
8
BLACK
6
CONTINUOUS
10
0.4764307874015748
20
0.7330779921259842
11
0.468451062992126
21
0.7330779921259842
0
LINE
8
BLACK
6
CONTINUOUS
10
0.468451062992126
20
0.7330779921259842
11
0.4657535826771653
21
0.7317292519685039
0
LINE
8
BLACK
6
CONTINUOUS
10
0.4657535826771653
20
0.7317292519685039
11
0.4642176377952756
21
0.7301933070866141
0
LINE
8
BLACK
6
CONTINUOUS
10
0.4642176377952756
20
0.7301933070866141
11
0.4637701968503937
21
0.7298261023622047
0
LINE
8
BLACK
6
CONTINUOUS
10
0.4637701968503937
20
0.7298261023622047
11
0.4627057480314961
21
0.7293851968503937
0
LINE
8
BLACK
6
CONTINUOUS
10
0.4627057480314961
20
0.7293851968503937
11
0.4615537007874015
21
0.7293851968503937
0
LINE
8
BLACK
6
CONTINUOUS
10
0.4615537007874015
20
0.7293851968503937
11
0.4604892519685039
21
0.7298261023622047
0
LINE
8
BLACK
6
CONTINUOUS
10
0.4604892519685039
20
0.7298261023622047
11
0.4596746062992126
21
0.730640748031496
0
LINE
8
BLACK
6
CONTINUOUS
10
0.4596746062992126
20
0.730640748031496
11
0.4592337007874016
21
0.7317051968503937
0
LINE
8
BLACK
6
CONTINUOUS
10
0.4592337007874016
20
0.7317051968503937
11
0.4592337007874016
21
0.7328572440944882
0
LINE
8
BLACK
6
CONTINUOUS
10
0.4592337007874016
20
0.7328572440944882
11
0.4596746062992126
21
0.7339216929133858
0
LINE
8
BLACK
6
CONTINUOUS
10
0.4596746062992126
20
0.7339216929133858
11
0.460041811023622
21
0.7343691338582677
0
LINE
8
BLACK
6
CONTINUOUS
10
0.460041811023622
20
0.7343691338582677
11
0.4619165748031496
21
0.7362438976377953
0
LINE
8
BLACK
6
CONTINUOUS
10
0.4619165748031496
20
0.7362438976377953
11
0.4621429133858267
21
0.73642968503937
0
LINE
8
BLACK
6
CONTINUOUS
10
0.4621429133858267
20
0.73642968503937
11
0.462194094488189
21
0.7364886614173228
0
LINE
8
BLACK
6
CONTINUOUS
10
0.462194094488189
20
0.7364886614173228
11
0.462283031496063
21
0.7365446456692913
0
LINE
8
BLACK
6
CONTINUOUS
10
0.462283031496063
20
0.7365446456692913
11
0.4623640157480315
21
0.7366111023622047
0
LINE
8
BLACK
6
CONTINUOUS
10
0.4623640157480315
20
0.7366111023622047
11
0.4624359448818898
21
0.7366409448818897
0
LINE
8
BLACK
6
CONTINUOUS
10
0.4624359448818898
20
0.7366409448818897
11
0.4626839763779527
21
0.7367970078740157
0
LINE
8
BLACK
6
CONTINUOUS
10
0.4626839763779527
20
0.7367970078740157
11
0.4664335039370079
21
0.7386717716535433
0
LINE
8
BLACK
6
CONTINUOUS
10
0.4664335039370079
20
0.7386717716535433
11
0.4669740944881889
21
0.7388786614173228
0
LINE
8
BLACK
6
CONTINUOUS
10
0.4669740944881889
20
0.7388786614173228
11
0.4670799606299212
21
0.7388862204724409
0
LINE
8
BLACK
6
CONTINUOUS
10
0.4670799606299212
20
0.7388862204724409
11
0.4671779527559055
21
0.7389267716535433
0
LINE
8
BLACK
6
CONTINUOUS
10
0.4671779527559055
20
0.7389267716535433
11
0.4677540157480315
21
0.7389835039370078
0
LINE
8
BLACK
6
CONTINUOUS
10
0.4677540157480315
20
0.7389835039370078
11
0.4771278346456693
21
0.7389835039370078
0
LINE
8
BLACK
6
CONTINUOUS
10
0.4771278346456693
20
0.7389835039370078
11
0.4777038976377952
21
0.7389267716535433
0
LINE
8
BLACK
6
CONTINUOUS
10
0.5208235039370078
20
0.7389267716535433
11
0.5218879133858267
21
0.7384858661417323
0
LINE
8
BLACK
6
CONTINUOUS
10
0.5218879133858267
20
0.7384858661417323
11
0.5227025590551181
21
0.7376712204724409
0
LINE
8
BLACK
6
CONTINUOUS
10
0.5227025590551181
20
0.7376712204724409
11
0.5231434645669292
21
0.736606811023622
0
LINE
8
BLACK
6
CONTINUOUS
10
0.5231434645669292
20
0.736606811023622
11
0.5231434645669292
21
0.7354546850393701
0
LINE
8
BLACK
6
CONTINUOUS
10
0.5231434645669292
20
0.7354546850393701
11
0.5227025590551181
21
0.7343902755905511
0
LINE
8
BLACK
6
CONTINUOUS
10
0.5227025590551181
20
0.7343902755905511
11
0.5218879133858267
21
0.7335756299212598
0
LINE
8
BLACK
6
CONTINUOUS
10
0.5218879133858267
20
0.7335756299212598
11
0.5208235039370078
21
0.7331347244094488
0
LINE
8
BLACK
6
CONTINUOUS
10
0.5208235039370078
20
0.7331347244094488
11
0.5202474409448818
21
0.7330779921259842
0
LINE
8
BLACK
6
CONTINUOUS
10
0.5202474409448818
20
0.7330779921259842
11
0.5041720078740157
21
0.7330779921259842
0
LINE
8
BLACK
6
CONTINUOUS
10
0.5041720078740157
20
0.7330779921259842
11
0.5031948818897638
21
0.7233067322834645
0
LINE
8
BLACK
6
CONTINUOUS
10
0.5031948818897638
20
0.7233067322834645
11
0.5039288188976377
21
0.7236736614173228
0
LINE
8
BLACK
6
CONTINUOUS
10
0.5039288188976377
20
0.7236736614173228
11
0.5044694094488189
21
0.7238805511811024
0
LINE
8
BLACK
6
CONTINUOUS
10
0.5044694094488189
20
0.7238805511811024
11
0.5045752755905512
21
0.7238881102362205
0
LINE
8
BLACK
6
CONTINUOUS
10
0.5045752755905512
20
0.7238881102362205
11
0.5046732677165354
21
0.7239286614173228
0
LINE
8
BLACK
6
CONTINUOUS
10
0.5046732677165354
20
0.7239286614173228
11
0.5052493307086614
21
0.7239853937007874
0
LINE
8
BLACK
6
CONTINUOUS
10
0.5052493307086614
20
0.7239853937007874
11
0.5146231496062992
21
0.7239853937007874
0
LINE
8
BLACK
6
CONTINUOUS
10
0.5146231496062992
20
0.7239853937007874
11
0.5151992125984252
21
0.7239286614173228
0
LINE
8
BLACK
6
CONTINUOUS
10
0.5151992125984252
20
0.7239286614173228
11
0.5152972047244094
21
0.7238880708661417
0
LINE
8
BLACK
6
CONTINUOUS
10
0.5152972047244094
20
0.7238880708661417
11
0.515403031496063
21
0.7238805511811024
0
LINE
8
BLACK
6
CONTINUOUS
10
0.515403031496063
20
0.7238805511811024
11
0.5159436614173228
21
0.7236736614173228
0
LINE
8
BLACK
6
CONTINUOUS
10
0.5159436614173228
20
0.7236736614173228
11
0.519693188976378
21
0.7217988976377953
0
LINE
8
BLACK
6
CONTINUOUS
10
0.519693188976378
20
0.7217988976377953
11
0.5199411811023622
21
0.7216428346456693
0
LINE
8
BLACK
6
CONTINUOUS
10
0.5199411811023622
20
0.7216428346456693
11
0.5200131496062992
21
0.7216129921259843
0
LINE
8
BLACK
6
CONTINUOUS
10
0.5200131496062992
20
0.7216129921259843
11
0.520094094488189
21
0.7215465354330709
0
LINE
8
BLACK
6
CONTINUOUS
10
0.520094094488189
20
0.7215465354330709
11
0.5201830708661417
21
0.7214905511811024
0
LINE
8
BLACK
6
CONTINUOUS
10
0.5201830708661417
20
0.7214905511811024
11
0.5202342125984252
21
0.7214315748031496
0
LINE
8
BLACK
6
CONTINUOUS
10
0.5202342125984252
20
0.7214315748031496
11
0.5204605905511811
21
0.7212457874015747
0
LINE
8
BLACK
6
CONTINUOUS
10
0.5204605905511811
20
0.7212457874015747
11
0.5223353543307087
21
0.7193710236220472
0
LINE
8
BLACK
6
CONTINUOUS
10
0.5223353543307087
20
0.7193710236220472
11
0.5225211023622047
21
0.71914468503937
0
LINE
8
BLACK
6
CONTINUOUS
10
0.5225211023622047
20
0.71914468503937
11
0.5225801181102362
21
0.7190935039370079
0
LINE
8
BLACK
6
CONTINUOUS
10
0.5225801181102362
20
0.7190935039370079
11
0.5226360629921259
21
0.7190045669291338
0
LINE
8
BLACK
6
CONTINUOUS
10
0.5226360629921259
20
0.7190045669291338
11
0.5227025590551181
21
0.7189235826771654
0
LINE
8
BLACK
6
CONTINUOUS
10
0.5227025590551181
20
0.7189235826771654
11
0.5227323622047244
21
0.718851653543307
0
LINE
8
BLACK
6
CONTINUOUS
10
0.5227323622047244
20
0.718851653543307
11
0.5228884645669292
21
0.718603622047244
0
LINE
8
BLACK
6
CONTINUOUS
10
0.5228884645669292
20
0.718603622047244
11
0.5247632283464567
21
0.7148540944881889
0
LINE
8
BLACK
6
CONTINUOUS
10
0.5247632283464567
20
0.7148540944881889
11
0.5249701181102362
21
0.7143135039370079
0
LINE
8
BLACK
6
CONTINUOUS
10
0.5249701181102362
20
0.7143135039370079
11
0.5249776377952756
21
0.7142076377952756
0
LINE
8
BLACK
6
CONTINUOUS
10
0.5249776377952756
20
0.7142076377952756
11
0.5250182283464567
21
0.7141096456692914
0
LINE
8
BLACK
6
CONTINUOUS
10
0.5250182283464567
20
0.7141096456692914
11
0.5250749606299212
21
0.7135335826771654
0
LINE
8
BLACK
6
CONTINUOUS
10
0.5250749606299212
20
0.7135335826771654
11
0.5250749606299212
21
0.7041597637795275
0
LINE
8
BLACK
6
CONTINUOUS
10
0.5250749606299212
20
0.7041597637795275
11
0.5250182283464567
21
0.7035837007874015
0
LINE
8
BLACK
6
CONTINUOUS
10
0.5250182283464567
20
0.7035837007874015
11
0.5249776377952756
21
0.703485748031496
0
LINE
8
BLACK
6
CONTINUOUS
10
0.5249776377952756
20
0.703485748031496
11
0.5249701181102362
21
0.703379842519685
0
LINE
8
BLACK
6
CONTINUOUS
10
0.5249701181102362
20
0.703379842519685
11
0.5247632283464567
21
0.7028392519685039
0
LINE
8
BLACK
6
CONTINUOUS
10
0.5247632283464567
20
0.7028392519685039
11
0.5228884645669292
21
0.6990897244094488
0
LINE
8
BLACK
6
CONTINUOUS
10
0.5228884645669292
20
0.6990897244094488
11
0.5227324015748032
21
0.6988418503937007
0
LINE
8
BLACK
6
CONTINUOUS
10
0.5227324015748032
20
0.6988418503937007
11
0.5227025984251968
21
0.6987698031496062
0
LINE
8
BLACK
6
CONTINUOUS
10
0.5227025984251968
20
0.6987698031496062
11
0.5226360629921259
21
0.698688779527559
0
LINE
8
BLACK
6
CONTINUOUS
10
0.5226360629921259
20
0.698688779527559
11
0.5225801181102362
21
0.698599842519685
0
LINE
8
BLACK
6
CONTINUOUS
10
0.5225801181102362
20
0.698599842519685
11
0.5225211023622047
21
0.6985487007874016
0
LINE
8
BLACK
6
CONTINUOUS
10
0.5225211023622047
20
0.6985487007874016
11
0.5223353543307087
21
0.6983223228346457
0
LINE
8
BLACK
6
CONTINUOUS
10
0.5223353543307087
20
0.6983223228346457
11
0.5204606299212599
21
0.6964475590551181
0
LINE
8
BLACK
6
CONTINUOUS
10
0.5204606299212599
20
0.6964475590551181
11
0.5202342519685039
21
0.6962618110236221
0
LINE
8
BLACK
6
CONTINUOUS
10
0.5202342519685039
20
0.6962618110236221
11
0.5201830708661417
21
0.6962027559055118
0
LINE
8
BLACK
6
CONTINUOUS
10
0.5201830708661417
20
0.6962027559055118
11
0.520094094488189
21
0.6961467716535433
0
LINE
8
BLACK
6
CONTINUOUS
10
0.520094094488189
20
0.6961467716535433
11
0.5200131496062992
21
0.6960803149606299
0
LINE
8
BLACK
6
CONTINUOUS
10
0.5200131496062992
20
0.6960803149606299
11
0.5199411811023622
21
0.6960505118110236
0
LINE
8
BLACK
6
CONTINUOUS
10
0.5199411811023622
20
0.6960505118110236
11
0.519693188976378
21
0.6958944094488189
0
LINE
8
BLACK
6
CONTINUOUS
10
0.519693188976378
20
0.6958944094488189
11
0.5159436614173228
21
0.6940196456692913
0
LINE
8
BLACK
6
CONTINUOUS
10
0.5159436614173228
20
0.6940196456692913
11
0.515403031496063
21
0.6938127559055118
0
LINE
8
BLACK
6
CONTINUOUS
10
0.515403031496063
20
0.6938127559055118
11
0.5152972047244094
21
0.6938052755905512
0
LINE
8
BLACK
6
CONTINUOUS
10
0.5152972047244094
20
0.6938052755905512
11
0.5151992125984252
21
0.6937646456692913
0
LINE
8
BLACK
6
CONTINUOUS
10
0.5151992125984252
20
0.6937646456692913
11
0.5146231496062992
21
0.6937079133858267
0
LINE
8
BLACK
6
CONTINUOUS
10
0.5146231496062992
20
0.6937079133858267
11
0.5052493307086614
21
0.6937079133858267
0
LINE
8
BLACK
6
CONTINUOUS
10
0.5052493307086614
20
0.6937079133858267
11
0.5046732677165354
21
0.6937646456692913
0
LINE
8
BLACK
6
CONTINUOUS
10
0.5046732677165354
20
0.6937646456692913
11
0.5045752755905512
21
0.6938052362204724
0
LINE
8
BLACK
6
CONTINUOUS
10
0.5045752755905512
20
0.6938052362204724
11
0.5044694094488189
21
0.6938127559055118
0
LINE
8
BLACK
6
CONTINUOUS
10
0.5044694094488189
20
0.6938127559055118
11
0.5039288188976377
21
0.6940196456692913
0
LINE
8
BLACK
6
CONTINUOUS
10
0.5039288188976377
20
0.6940196456692913
11
0.5001792913385826
21
0.6958944094488189
0
LINE
8
BLACK
6
CONTINUOUS
10
0.5001792913385826
20
0.6958944094488189
11
0.4999312598425197
21
0.6960505118110236
0
LINE
8
BLACK
6
CONTINUOUS
10
0.4999312598425197
20
0.6960505118110236
11
0.4998593307086614
21
0.6960803149606299
0
LINE
8
BLACK
6
CONTINUOUS
10
0.4998593307086614
20
0.6960803149606299
11
0.4997783464566929
21
0.6961467716535433
0
LINE
8
BLACK
6
CONTINUOUS
10
0.4997783464566929
20
0.6961467716535433
11
0.4996894094488189
21
0.6962027559055118
0
LINE
8
BLACK
6
CONTINUOUS
10
0.4996894094488189
20
0.6962027559055118
11
0.499638188976378
21
0.6962618110236221
0
LINE
8
BLACK
6
CONTINUOUS
10
0.499638188976378
20
0.6962618110236221
11
0.4994118503937008
21
0.6964475590551181
0
LINE
8
BLACK
6
CONTINUOUS
10
0.4994118503937008
20
0.6964475590551181
11
0.4975370866141732
21
0.6983223622047244
0
LINE
8
BLACK
6
CONTINUOUS
10
0.4975370866141732
20
0.6983223622047244
11
0.4971698818897637
21
0.6987698031496062
0
LINE
8
BLACK
6
CONTINUOUS
10
0.4971698818897637
20
0.6987698031496062
11
0.4967290157480315
21
0.6998342125984252
0
LINE
8
BLACK
6
CONTINUOUS
10
0.4967290157480315
20
0.6998342125984252
11
0.4967290157480315
21
0.7009862992125984
0
LINE
8
BLACK
6
CONTINUOUS
10
0.4967290157480315
20
0.7009862992125984
11
0.4971699212598425
21
0.7020507086614173
0
LINE
8
BLACK
6
CONTINUOUS
10
0.4971699212598425
20
0.7020507086614173
11
0.4979846062992126
21
0.7028653937007874
0
LINE
8
BLACK
6
CONTINUOUS
10
0.4979846062992126
20
0.7028653937007874
11
0.4990490157480315
21
0.7033062598425197
0
LINE
8
BLACK
6
CONTINUOUS
10
0.4990490157480315
20
0.7033062598425197
11
0.5002011023622047
21
0.7033062598425197
0
LINE
8
BLACK
6
CONTINUOUS
10
0.5002011023622047
20
0.7033062598425197
11
0.5012655118110236
21
0.7028653543307086
0
LINE
8
BLACK
6
CONTINUOUS
10
0.5012655118110236
20
0.7028653543307086
11
0.5017129921259842
21
0.7024981102362204
0
LINE
8
BLACK
6
CONTINUOUS
10
0.5017129921259842
20
0.7024981102362204
11
0.5032488976377952
21
0.7009621653543306
0
LINE
8
BLACK
6
CONTINUOUS
10
0.5032488976377952
20
0.7009621653543306
11
0.5059463779527559
21
0.6996134251968503
0
LINE
8
BLACK
6
CONTINUOUS
10
0.5059463779527559
20
0.6996134251968503
11
0.5139261023622047
21
0.6996134251968503
0
LINE
8
BLACK
6
CONTINUOUS
10
0.5139261023622047
20
0.6996134251968503
11
0.5166235433070866
21
0.7009621653543306
0
LINE
8
BLACK
6
CONTINUOUS
10
0.5166235433070866
20
0.7009621653543306
11
0.5178206692913385
21
0.7021593307086614
0
LINE
8
BLACK
6
CONTINUOUS
10
0.5178206692913385
20
0.7021593307086614
11
0.5191694488188976
21
0.7048568110236221
0
LINE
8
BLACK
6
CONTINUOUS
10
0.5191694488188976
20
0.7048568110236221
11
0.5191694488188976
21
0.7128365354330708
0
LINE
8
BLACK
6
CONTINUOUS
10
0.5191694488188976
20
0.7128365354330708
11
0.5178207086614173
21
0.7155340157480314
0
LINE
8
BLACK
6
CONTINUOUS
10
0.5178207086614173
20
0.7155340157480314
11
0.5166235826771653
21
0.7167311417322835
0
LINE
8
BLACK
6
CONTINUOUS
10
0.5166235826771653
20
0.7167311417322835
11
0.5139261023622047
21
0.7180798818897638
0
LINE
8
BLACK
6
CONTINUOUS
10
0.5139261023622047
20
0.7180798818897638
11
0.5059463779527559
21
0.7180798818897638
0
LINE
8
BLACK
6
CONTINUOUS
10
0.5059463779527559
20
0.7180798818897638
11
0.5032488976377952
21
0.7167311417322835
0
LINE
8
BLACK
6
CONTINUOUS
10
0.5032488976377952
20
0.7167311417322835
11
0.5017129527559056
21
0.7151951968503937
0
LINE
8
BLACK
6
CONTINUOUS
10
0.5017129527559056
20
0.7151951968503937
11
0.5012655118110236
21
0.7148279921259842
0
LINE
8
BLACK
6
CONTINUOUS
10
0.5012655118110236
20
0.7148279921259842
11
0.5011281496062993
21
0.7147711023622048
0
LINE
8
BLACK
6
CONTINUOUS
10
0.5011281496062993
20
0.7147711023622048
11
0.5010130708661418
21
0.7146769291338583
0
LINE
8
BLACK
6
CONTINUOUS
10
0.5010130708661418
20
0.7146769291338583
11
0.50059968503937
21
0.7145522440944881
0
LINE
8
BLACK
6
CONTINUOUS
10
0.50059968503937
20
0.7145522440944881
11
0.500201062992126
21
0.7143870866141732
0
LINE
8
BLACK
6
CONTINUOUS
10
0.500201062992126
20
0.7143870866141732
11
0.5000524409448819
21
0.7143870866141732
0
LINE
8
BLACK
6
CONTINUOUS
10
0.5000524409448819
20
0.7143870866141732
11
0.4999100787401575
21
0.7143441338582677
0
LINE
8
BLACK
6
CONTINUOUS
10
0.4999100787401575
20
0.7143441338582677
11
0.4994805511811024
21
0.7143870866141732
0
LINE
8
BLACK
6
CONTINUOUS
10
0.4994805511811024
20
0.7143870866141732
11
0.4990490157480315
21
0.7143870866141732
0
LINE
8
BLACK
6
CONTINUOUS
10
0.4990490157480315
20
0.7143870866141732
11
0.4989116535433071
21
0.7144440157480315
0
LINE
8
BLACK
6
CONTINUOUS
10
0.4989116535433071
20
0.7144440157480315
11
0.4987636614173228
21
0.714458779527559
0
LINE
8
BLACK
6
CONTINUOUS
10
0.4987636614173228
20
0.714458779527559
11
0.4983832677165354
21
0.7146628346456693
0
LINE
8
BLACK
6
CONTINUOUS
10
0.4983832677165354
20
0.7146628346456693
11
0.4979845669291338
21
0.7148279921259842
0
LINE
8
BLACK
6
CONTINUOUS
10
0.4979845669291338
20
0.7148279921259842
11
0.4978793700787402
21
0.7149331889763779
0
LINE
8
BLACK
6
CONTINUOUS
10
0.4978793700787402
20
0.7149331889763779
11
0.4977484251968504
21
0.7150034251968503
0
LINE
8
BLACK
6
CONTINUOUS
10
0.4977484251968504
20
0.7150034251968503
11
0.497475157480315
21
0.7153374015748031
0
LINE
8
BLACK
6
CONTINUOUS
10
0.497475157480315
20
0.7153374015748031
11
0.4971699212598425
21
0.7156426377952756
0
LINE
8
BLACK
6
CONTINUOUS
10
0.4971699212598425
20
0.7156426377952756
11
0.4971129921259843
21
0.71578
0
LINE
8
BLACK
6
CONTINUOUS
10
0.4971129921259843
20
0.71578
11
0.4970188582677165
21
0.7158950787401575
0
LINE
8
BLACK
6
CONTINUOUS
10
0.4970188582677165
20
0.7158950787401575
11
0.4968941338582677
21
0.7163084645669291
0
LINE
8
BLACK
6
CONTINUOUS
10
0.4968941338582677
20
0.7163084645669291
11
0.4967290157480315
21
0.7167070866141733
0
LINE
8
BLACK
6
CONTINUOUS
10
0.4967290157480315
20
0.7167070866141733
11
0.4967290157480315
21
0.7168557480314961
0
LINE
8
BLACK
6
CONTINUOUS
10
0.4967290157480315
20
0.7168557480314961
11
0.496686062992126
21
0.7169980708661418
0
LINE
8
BLACK
6
CONTINUOUS
10
0.496686062992126
20
0.7169980708661418
11
0.4966869291338583
21
0.7175769291338583
0
LINE
8
BLACK
6
CONTINUOUS
10
0.4966869291338583
20
0.7175769291338583
11
0.4985616929133858
21
0.7363245669291338
0
LINE
8
BLACK
6
CONTINUOUS
10
0.4985616929133858
20
0.7363245669291338
11
0.498603779527559
21
0.7365345275590551
0
LINE
8
BLACK
6
CONTINUOUS
10
0.498603779527559
20
0.7365345275590551
11
0.498603779527559
21
0.736606811023622
0
LINE
8
BLACK
6
CONTINUOUS
10
0.498603779527559
20
0.736606811023622
11
0.4986318503937008
21
0.7366746456692913
0
LINE
8
BLACK
6
CONTINUOUS
10
0.4986318503937008
20
0.7366746456692913
11
0.4986754724409448
21
0.7368921259842519
0
LINE
8
BLACK
6
CONTINUOUS
10
0.4986754724409448
20
0.7368921259842519
11
0.4988794881889764
21
0.7372724409448819
0
LINE
8
BLACK
6
CONTINUOUS
10
0.4988794881889764
20
0.7372724409448819
11
0.4990446850393701
21
0.7376712204724409
0
LINE
8
BLACK
6
CONTINUOUS
10
0.4990446850393701
20
0.7376712204724409
11
0.499149842519685
21
0.7377764173228346
0
LINE
8
BLACK
6
CONTINUOUS
10
0.499149842519685
20
0.7377764173228346
11
0.4992201181102362
21
0.7379073622047244
0
LINE
8
BLACK
6
CONTINUOUS
10
0.4992201181102362
20
0.7379073622047244
11
0.4995540551181102
21
0.7381806299212599
0
LINE
8
BLACK
6
CONTINUOUS
10
0.4995540551181102
20
0.7381806299212599
11
0.4998593307086614
21
0.7384858661417323
0
LINE
8
BLACK
6
CONTINUOUS
10
0.4998593307086614
20
0.7384858661417323
11
0.4999966535433071
21
0.7385427952755905
0
LINE
8
BLACK
6
CONTINUOUS
10
0.4999966535433071
20
0.7385427952755905
11
0.5001117716535433
21
0.7386369291338583
0
LINE
8
BLACK
6
CONTINUOUS
10
0.5001117716535433
20
0.7386369291338583
11
0.5005250393700788
21
0.738761653543307
0
LINE
8
BLACK
6
CONTINUOUS
10
0.5005250393700788
20
0.738761653543307
11
0.5009237401574803
21
0.7389267716535433
0
LINE
8
BLACK
6
CONTINUOUS
10
0.5009237401574803
20
0.7389267716535433
11
0.5011444094488189
21
0.7389485433070866
0
LINE
8
BLACK
6
CONTINUOUS
10
0.5011444094488189
20
0.7389485433070866
11
0.5012147637795276
21
0.7389697244094487
0
LINE
8
BLACK
6
CONTINUOUS
10
0.5012147637795276
20
0.7389697244094487
11
0.5012867322834645
21
0.7389625590551181
0
LINE
8
BLACK
6
CONTINUOUS
10
0.5012867322834645
20
0.7389625590551181
11
0.5014998031496063
21
0.7389835039370078
0
LINE
8
BLACK
6
CONTINUOUS
10
0.5014998031496063
20
0.7389835039370078
11
0.5202474409448818
21
0.7389835039370078
0
LINE
8
BLACK
6
CONTINUOUS
10
0.5202474409448818
20
0.7389835039370078
11
0.5208235039370078
21
0.7389267716535433
  0
ENDSEC
  0
EOF
