  0
SECTION
  2
HEADER
  9
$ANGBASE
  50
0.0
  9
$ANGDIR
  70
1
  9
$MEASUREMENT
  70
0
  0
ENDSEC
  0
SECTION
  2
TABLES
  0
TABLE
  2
LTYPE
  70
4
  0
LTYPE
  5
40F
  2
CONTINUOUS
  70
0
  3
Solid line
  72
65
  73
0
  40
0.0
  0
LTYPE
  5
410
  2
DASHDOT
 70
0
  3
Dash Dot ____ _ ____ _
 72
65
 73
4
 40
2.0
 49
1.25
 49
-0.25
 49
0.25
 49
-0.25
  0
LTYPE
  5
411
  2
DASHED
 70
0
  3
Dashed __ __ __ __ __
 72
65
 73
2
 40
0.75
 49
0.5
 49
-0.25
  0
LTYPE
  5
43B
  2
DOTTED
 70
0
  3
Dotted .  .  .  .
 72
65
 73
2
 40
0.2
 49
0.0
 49
-0.2
  0
ENDTAB
  0
TABLE
  2
STYLE
  70
4
  0
STYLE
  2
KICAD
  70
0
  40
0
  41
1
  42
1
  50
0
  71
0
  3
isocp.shx
  0
STYLE
  2
KICADB
  70
0
  40
0
  41
1
  42
1
  50
0
  71
0
  3
isocp.shx
  0
STYLE
  2
KICADI
  70
0
  40
0
  41
1
  42
1
  50
15
  71
0
  3
isocp.shx
  0
STYLE
  2
KICADBI
  70
0
  40
0
  41
1
  42
1
  50
15
  71
0
  3
isocp.shx
  0
ENDTAB
  0
TABLE
  2
LAYER
  70
1
  0
LAYER
  2
BLACK
  70
0
  62
7
  6
CONTINUOUS
  0
ENDTAB
  0
ENDSEC
  0
SECTION
  2
ENTITIES
0
LINE
8
BLACK
6
CONTINUOUS
10
0.2271747637795276
20
0.0790370472440945
11
0.2279894094488189
21
0.0782224015748031
0
LINE
8
BLACK
6
CONTINUOUS
10
0.2279894094488189
20
0.0782224015748031
11
0.2284303149606299
21
0.0771579921259842
0
LINE
8
BLACK
6
CONTINUOUS
10
0.2284303149606299
20
0.0771579921259842
11
0.2284870472440945
21
0.0765819291338583
0
LINE
8
BLACK
6
CONTINUOUS
10
0.2284870472440945
20
0.0765819291338583
11
0.2284870472440945
21
0.0401646062992126
0
LINE
8
BLACK
6
CONTINUOUS
10
0.2284870472440945
20
0.0401646062992126
11
0.2442819291338583
21
0.0401646062992126
0
LINE
8
BLACK
6
CONTINUOUS
10
0.2442819291338583
20
0.0401646062992126
11
0.2448579921259842
21
0.040107874015748
0
LINE
8
BLACK
6
CONTINUOUS
10
0.2448579921259842
20
0.040107874015748
11
0.2459224015748031
21
0.039666968503937
0
LINE
8
BLACK
6
CONTINUOUS
10
0.2459224015748031
20
0.039666968503937
11
0.2467370472440945
21
0.0388523228346457
0
LINE
8
BLACK
6
CONTINUOUS
10
0.2467370472440945
20
0.0388523228346457
11
0.2471779527559055
21
0.0377879133858268
0
LINE
8
BLACK
6
CONTINUOUS
10
0.2471779527559055
20
0.0377879133858268
11
0.2471779527559055
21
0.0366357874015748
0
LINE
8
BLACK
6
CONTINUOUS
10
0.2471779527559055
20
0.0366357874015748
11
0.2467370472440945
21
0.0355713779527559
0
LINE
8
BLACK
6
CONTINUOUS
10
0.2467370472440945
20
0.0355713779527559
11
0.2459224015748031
21
0.0347567322834646
0
LINE
8
BLACK
6
CONTINUOUS
10
0.2459224015748031
20
0.0347567322834646
11
0.2448579921259842
21
0.0343158267716535
0
LINE
8
BLACK
6
CONTINUOUS
10
0.2448579921259842
20
0.0343158267716535
11
0.2442819291338583
21
0.034259094488189
0
LINE
8
BLACK
6
CONTINUOUS
10
0.2442819291338583
20
0.034259094488189
11
0.2255342913385827
21
0.034259094488189
0
LINE
8
BLACK
6
CONTINUOUS
10
0.2255342913385827
20
0.034259094488189
11
0.2249582283464567
21
0.0343158267716535
0
LINE
8
BLACK
6
CONTINUOUS
10
0.2249582283464567
20
0.0343158267716535
11
0.2238938188976378
21
0.0347567322834646
0
LINE
8
BLACK
6
CONTINUOUS
10
0.2238938188976378
20
0.0347567322834646
11
0.2230791732283464
21
0.0355713779527559
0
LINE
8
BLACK
6
CONTINUOUS
10
0.2230791732283464
20
0.0355713779527559
11
0.2226382677165354
21
0.0366357874015748
0
LINE
8
BLACK
6
CONTINUOUS
10
0.2226382677165354
20
0.0366357874015748
11
0.2225815354330709
21
0.0372118503937008
0
LINE
8
BLACK
6
CONTINUOUS
10
0.2225815354330709
20
0.0372118503937008
11
0.2225815354330709
21
0.0765819291338583
0
LINE
8
BLACK
6
CONTINUOUS
10
0.2225815354330709
20
0.0765819291338583
11
0.2226382677165354
21
0.0771579921259842
0
LINE
8
BLACK
6
CONTINUOUS
10
0.2226382677165354
20
0.0771579921259842
11
0.2230791732283464
21
0.0782224015748031
0
LINE
8
BLACK
6
CONTINUOUS
10
0.2230791732283464
20
0.0782224015748031
11
0.2238938188976378
21
0.0790370472440945
0
LINE
8
BLACK
6
CONTINUOUS
10
0.2238938188976378
20
0.0790370472440945
11
0.2249582283464567
21
0.0794779527559055
0
LINE
8
BLACK
6
CONTINUOUS
10
0.2249582283464567
20
0.0794779527559055
11
0.2261103543307087
21
0.0794779527559055
0
LINE
8
BLACK
6
CONTINUOUS
10
0.2261103543307087
20
0.0794779527559055
11
0.2271747637795276
21
0.0790370472440945
0
LINE
8
BLACK
6
CONTINUOUS
10
0.2767290157480315
20
0.0794779527559055
11
0.2777934251968504
21
0.0790370472440945
0
LINE
8
BLACK
6
CONTINUOUS
10
0.2777934251968504
20
0.0790370472440945
11
0.2786080708661417
21
0.0782224015748031
0
LINE
8
BLACK
6
CONTINUOUS
10
0.2786080708661417
20
0.0782224015748031
11
0.2790489763779527
21
0.0771579921259842
0
LINE
8
BLACK
6
CONTINUOUS
10
0.2790489763779527
20
0.0771579921259842
11
0.2790489763779527
21
0.0760058661417323
0
LINE
8
BLACK
6
CONTINUOUS
10
0.2790489763779527
20
0.0760058661417323
11
0.2786080708661417
21
0.0749414566929134
0
LINE
8
BLACK
6
CONTINUOUS
10
0.2786080708661417
20
0.0749414566929134
11
0.2777934251968504
21
0.074126811023622
0
LINE
8
BLACK
6
CONTINUOUS
10
0.2777934251968504
20
0.074126811023622
11
0.2767290157480315
21
0.073685905511811
0
LINE
8
BLACK
6
CONTINUOUS
10
0.2767290157480315
20
0.073685905511811
11
0.2761529527559055
21
0.0736291732283465
0
LINE
8
BLACK
6
CONTINUOUS
10
0.2761529527559055
20
0.0736291732283465
11
0.2603580708661417
21
0.0736291732283465
0
LINE
8
BLACK
6
CONTINUOUS
10
0.2603580708661417
20
0.0736291732283465
11
0.2603580708661417
21
0.0607870472440945
0
LINE
8
BLACK
6
CONTINUOUS
10
0.2603580708661417
20
0.0607870472440945
11
0.2705286614173228
21
0.0607870472440945
0
LINE
8
BLACK
6
CONTINUOUS
10
0.2705286614173228
20
0.0607870472440945
11
0.2711047244094488
21
0.0607303149606299
0
LINE
8
BLACK
6
CONTINUOUS
10
0.2711047244094488
20
0.0607303149606299
11
0.2721691338582677
21
0.0602894094488189
0
LINE
8
BLACK
6
CONTINUOUS
10
0.2721691338582677
20
0.0602894094488189
11
0.272983779527559
21
0.0594747637795276
0
LINE
8
BLACK
6
CONTINUOUS
10
0.272983779527559
20
0.0594747637795276
11
0.2734246850393701
21
0.0584103543307087
0
LINE
8
BLACK
6
CONTINUOUS
10
0.2734246850393701
20
0.0584103543307087
11
0.2734246850393701
21
0.0572582283464567
0
LINE
8
BLACK
6
CONTINUOUS
10
0.2734246850393701
20
0.0572582283464567
11
0.272983779527559
21
0.0561938188976378
0
LINE
8
BLACK
6
CONTINUOUS
10
0.272983779527559
20
0.0561938188976378
11
0.2721691338582677
21
0.0553791732283465
0
LINE
8
BLACK
6
CONTINUOUS
10
0.2721691338582677
20
0.0553791732283465
11
0.2711047244094488
21
0.0549382677165354
0
LINE
8
BLACK
6
CONTINUOUS
10
0.2711047244094488
20
0.0549382677165354
11
0.2705286614173228
21
0.0548815354330709
0
LINE
8
BLACK
6
CONTINUOUS
10
0.2705286614173228
20
0.0548815354330709
11
0.2603580708661417
21
0.0548815354330709
0
LINE
8
BLACK
6
CONTINUOUS
10
0.2603580708661417
20
0.0548815354330709
11
0.2603580708661417
21
0.0401646062992126
0
LINE
8
BLACK
6
CONTINUOUS
10
0.2603580708661417
20
0.0401646062992126
11
0.2761529527559055
21
0.0401646062992126
0
LINE
8
BLACK
6
CONTINUOUS
10
0.2761529527559055
20
0.0401646062992126
11
0.2767290157480315
21
0.040107874015748
0
LINE
8
BLACK
6
CONTINUOUS
10
0.2767290157480315
20
0.040107874015748
11
0.2777934251968504
21
0.039666968503937
0
LINE
8
BLACK
6
CONTINUOUS
10
0.2777934251968504
20
0.039666968503937
11
0.2786080708661417
21
0.0388523228346457
0
LINE
8
BLACK
6
CONTINUOUS
10
0.2786080708661417
20
0.0388523228346457
11
0.2790489763779527
21
0.0377879133858268
0
LINE
8
BLACK
6
CONTINUOUS
10
0.2790489763779527
20
0.0377879133858268
11
0.2790489763779527
21
0.0366357874015748
0
LINE
8
BLACK
6
CONTINUOUS
10
0.2790489763779527
20
0.0366357874015748
11
0.2786080708661417
21
0.0355713779527559
0
LINE
8
BLACK
6
CONTINUOUS
10
0.2786080708661417
20
0.0355713779527559
11
0.2777934251968504
21
0.0347567322834646
0
LINE
8
BLACK
6
CONTINUOUS
10
0.2777934251968504
20
0.0347567322834646
11
0.2767290157480315
21
0.0343158267716535
0
LINE
8
BLACK
6
CONTINUOUS
10
0.2767290157480315
20
0.0343158267716535
11
0.2761529527559055
21
0.034259094488189
0
LINE
8
BLACK
6
CONTINUOUS
10
0.2761529527559055
20
0.034259094488189
11
0.2574053149606299
21
0.034259094488189
0
LINE
8
BLACK
6
CONTINUOUS
10
0.2574053149606299
20
0.034259094488189
11
0.2568292519685039
21
0.0343158267716535
0
LINE
8
BLACK
6
CONTINUOUS
10
0.2568292519685039
20
0.0343158267716535
11
0.255764842519685
21
0.0347567322834646
0
LINE
8
BLACK
6
CONTINUOUS
10
0.255764842519685
20
0.0347567322834646
11
0.2549501968503937
21
0.0355713779527559
0
LINE
8
BLACK
6
CONTINUOUS
10
0.2549501968503937
20
0.0355713779527559
11
0.2545092913385827
21
0.0366357874015748
0
LINE
8
BLACK
6
CONTINUOUS
10
0.2545092913385827
20
0.0366357874015748
11
0.2544525590551181
21
0.0372118503937008
0
LINE
8
BLACK
6
CONTINUOUS
10
0.2544525590551181
20
0.0372118503937008
11
0.2544525590551181
21
0.0765819291338583
0
LINE
8
BLACK
6
CONTINUOUS
10
0.2544525590551181
20
0.0765819291338583
11
0.2545092913385827
21
0.0771579921259842
0
LINE
8
BLACK
6
CONTINUOUS
10
0.2545092913385827
20
0.0771579921259842
11
0.2549501968503937
21
0.0782224015748031
0
LINE
8
BLACK
6
CONTINUOUS
10
0.2549501968503937
20
0.0782224015748031
11
0.255764842519685
21
0.0790370472440945
0
LINE
8
BLACK
6
CONTINUOUS
10
0.255764842519685
20
0.0790370472440945
11
0.2568292519685039
21
0.0794779527559055
0
LINE
8
BLACK
6
CONTINUOUS
10
0.2568292519685039
20
0.0794779527559055
11
0.2574053149606299
21
0.0795346850393701
0
LINE
8
BLACK
6
CONTINUOUS
10
0.2574053149606299
20
0.0795346850393701
11
0.2761529527559055
21
0.0795346850393701
0
LINE
8
BLACK
6
CONTINUOUS
10
0.2761529527559055
20
0.0795346850393701
11
0.2767290157480315
21
0.0794779527559055
0
LINE
8
BLACK
6
CONTINUOUS
10
0.3086000393700787
20
0.0794779527559055
11
0.308698031496063
21
0.0794373622047244
0
LINE
8
BLACK
6
CONTINUOUS
10
0.308698031496063
20
0.0794373622047244
11
0.3088038582677165
21
0.079429842519685
0
LINE
8
BLACK
6
CONTINUOUS
10
0.3088038582677165
20
0.079429842519685
11
0.3093444881889764
21
0.0792229527559055
0
LINE
8
BLACK
6
CONTINUOUS
10
0.3093444881889764
20
0.0792229527559055
11
0.3130940157480315
21
0.0773481889763779
0
LINE
8
BLACK
6
CONTINUOUS
10
0.3130940157480315
20
0.0773481889763779
11
0.3133420078740157
21
0.077192125984252
0
LINE
8
BLACK
6
CONTINUOUS
10
0.3133420078740157
20
0.077192125984252
11
0.3134139763779528
21
0.0771622834645669
0
LINE
8
BLACK
6
CONTINUOUS
10
0.3134139763779528
20
0.0771622834645669
11
0.3134949212598425
21
0.0770958267716535
0
LINE
8
BLACK
6
CONTINUOUS
10
0.3134949212598425
20
0.0770958267716535
11
0.3135838976377953
21
0.077039842519685
0
LINE
8
BLACK
6
CONTINUOUS
10
0.3135838976377953
20
0.077039842519685
11
0.3136350393700787
21
0.0769808661417323
0
LINE
8
BLACK
6
CONTINUOUS
10
0.3136350393700787
20
0.0769808661417323
11
0.3138614173228346
21
0.0767950787401575
0
LINE
8
BLACK
6
CONTINUOUS
10
0.3138614173228346
20
0.0767950787401575
11
0.3157361811023622
21
0.0749203149606299
0
LINE
8
BLACK
6
CONTINUOUS
10
0.3157361811023622
20
0.0749203149606299
11
0.3159219291338582
21
0.0746939763779527
0
LINE
8
BLACK
6
CONTINUOUS
10
0.3159219291338582
20
0.0746939763779527
11
0.3159809448818898
21
0.0746427952755905
0
LINE
8
BLACK
6
CONTINUOUS
10
0.3159809448818898
20
0.0746427952755905
11
0.3160368897637795
21
0.0745538582677165
0
LINE
8
BLACK
6
CONTINUOUS
10
0.3160368897637795
20
0.0745538582677165
11
0.3161033858267717
21
0.074472874015748
0
LINE
8
BLACK
6
CONTINUOUS
10
0.3161033858267717
20
0.074472874015748
11
0.3161331889763779
21
0.0744009448818898
0
LINE
8
BLACK
6
CONTINUOUS
10
0.3161331889763779
20
0.0744009448818898
11
0.3162892913385827
21
0.0741529133858268
0
LINE
8
BLACK
6
CONTINUOUS
10
0.3162892913385827
20
0.0741529133858268
11
0.3181640551181102
21
0.0704033858267717
0
LINE
8
BLACK
6
CONTINUOUS
10
0.3181640551181102
20
0.0704033858267717
11
0.3183709448818898
21
0.0698627952755906
0
LINE
8
BLACK
6
CONTINUOUS
10
0.3183709448818898
20
0.0698627952755906
11
0.3183784645669291
21
0.0697569291338583
0
LINE
8
BLACK
6
CONTINUOUS
10
0.3183784645669291
20
0.0697569291338583
11
0.3184190551181103
21
0.069658937007874
0
LINE
8
BLACK
6
CONTINUOUS
10
0.3184190551181103
20
0.069658937007874
11
0.3184757874015748
21
0.069082874015748
0
LINE
8
BLACK
6
CONTINUOUS
10
0.3184757874015748
20
0.069082874015748
11
0.3184757874015748
21
0.0634585826771654
0
LINE
8
BLACK
6
CONTINUOUS
10
0.3184757874015748
20
0.0634585826771654
11
0.3184190551181103
21
0.0628825196850394
0
LINE
8
BLACK
6
CONTINUOUS
10
0.3184190551181103
20
0.0628825196850394
11
0.3183784645669291
21
0.0627845669291339
0
LINE
8
BLACK
6
CONTINUOUS
10
0.3183784645669291
20
0.0627845669291339
11
0.3183709448818898
21
0.0626786614173228
0
LINE
8
BLACK
6
CONTINUOUS
10
0.3183709448818898
20
0.0626786614173228
11
0.3181640551181102
21
0.0621380708661417
0
LINE
8
BLACK
6
CONTINUOUS
10
0.3181640551181102
20
0.0621380708661417
11
0.3162892913385827
21
0.0583885433070866
0
LINE
8
BLACK
6
CONTINUOUS
10
0.3162892913385827
20
0.0583885433070866
11
0.3161331889763779
21
0.0581405511811024
0
LINE
8
BLACK
6
CONTINUOUS
10
0.3161331889763779
20
0.0581405511811024
11
0.3161033858267717
21
0.0580685826771654
0
LINE
8
BLACK
6
CONTINUOUS
10
0.3161033858267717
20
0.0580685826771654
11
0.3160368897637795
21
0.0579876377952756
0
LINE
8
BLACK
6
CONTINUOUS
10
0.3160368897637795
20
0.0579876377952756
11
0.3159809448818898
21
0.0578986614173228
0
LINE
8
BLACK
6
CONTINUOUS
10
0.3159809448818898
20
0.0578986614173228
11
0.3159219291338582
21
0.0578475196850394
0
LINE
8
BLACK
6
CONTINUOUS
10
0.3159219291338582
20
0.0578475196850394
11
0.3157361811023622
21
0.0576211417322835
0
LINE
8
BLACK
6
CONTINUOUS
10
0.3157361811023622
20
0.0576211417322835
11
0.3138614173228346
21
0.0557463779527559
0
LINE
8
BLACK
6
CONTINUOUS
10
0.3138614173228346
20
0.0557463779527559
11
0.3136350393700787
21
0.0555606299212598
0
LINE
8
BLACK
6
CONTINUOUS
10
0.3136350393700787
20
0.0555606299212598
11
0.3135838976377953
21
0.0555016141732283
0
LINE
8
BLACK
6
CONTINUOUS
10
0.3135838976377953
20
0.0555016141732283
11
0.3134949212598425
21
0.0554456692913386
0
LINE
8
BLACK
6
CONTINUOUS
10
0.3134949212598425
20
0.0554456692913386
11
0.3134139763779528
21
0.0553791732283465
0
LINE
8
BLACK
6
CONTINUOUS
10
0.3134139763779528
20
0.0553791732283465
11
0.3133420078740157
21
0.0553493700787402
0
LINE
8
BLACK
6
CONTINUOUS
10
0.3133420078740157
20
0.0553493700787402
11
0.3130940157480315
21
0.0551932677165354
0
LINE
8
BLACK
6
CONTINUOUS
10
0.3130940157480315
20
0.0551932677165354
11
0.3093444881889764
21
0.0533185039370079
0
LINE
8
BLACK
6
CONTINUOUS
10
0.3093444881889764
20
0.0533185039370079
11
0.3088038582677165
21
0.0531116141732283
0
LINE
8
BLACK
6
CONTINUOUS
10
0.3088038582677165
20
0.0531116141732283
11
0.308698031496063
21
0.0531041338582677
0
LINE
8
BLACK
6
CONTINUOUS
10
0.308698031496063
20
0.0531041338582677
11
0.3086000393700787
21
0.0530635039370079
0
LINE
8
BLACK
6
CONTINUOUS
10
0.3086000393700787
20
0.0530635039370079
11
0.308067874015748
21
0.0530111023622047
0
LINE
8
BLACK
6
CONTINUOUS
10
0.308067874015748
20
0.0530111023622047
11
0.3179420472440945
21
0.0389051181102362
0
LINE
8
BLACK
6
CONTINUOUS
10
0.3179420472440945
20
0.0389051181102362
11
0.318225905511811
21
0.0384006692913386
0
LINE
8
BLACK
6
CONTINUOUS
10
0.318225905511811
20
0.0384006692913386
11
0.3184750787401575
21
0.0372758267716535
0
LINE
8
BLACK
6
CONTINUOUS
10
0.3184750787401575
20
0.0372758267716535
11
0.3182748818897638
21
0.0361412598425197
0
LINE
8
BLACK
6
CONTINUOUS
10
0.3182748818897638
20
0.0361412598425197
11
0.3176557086614173
21
0.0351696850393701
0
LINE
8
BLACK
6
CONTINUOUS
10
0.3176557086614173
20
0.0351696850393701
11
0.3167118503937008
21
0.0345089763779528
0
LINE
8
BLACK
6
CONTINUOUS
10
0.3167118503937008
20
0.0345089763779528
11
0.3155870078740157
21
0.0342597637795276
0
LINE
8
BLACK
6
CONTINUOUS
10
0.3155870078740157
20
0.0342597637795276
11
0.3144524803149606
21
0.03446
0
LINE
8
BLACK
6
CONTINUOUS
10
0.3144524803149606
20
0.03446
11
0.3134808661417323
21
0.0350791732283465
0
LINE
8
BLACK
6
CONTINUOUS
10
0.3134808661417323
20
0.0350791732283465
11
0.3131040551181102
21
0.0355185433070866
0
LINE
8
BLACK
6
CONTINUOUS
10
0.3131040551181102
20
0.0355185433070866
11
0.3008623228346456
21
0.0530067716535433
0
LINE
8
BLACK
6
CONTINUOUS
10
0.3008623228346456
20
0.0530067716535433
11
0.2959786220472441
21
0.0530067716535433
0
LINE
8
BLACK
6
CONTINUOUS
10
0.2959786220472441
20
0.0530067716535433
11
0.2959786220472441
21
0.0372118503937008
0
LINE
8
BLACK
6
CONTINUOUS
10
0.2959786220472441
20
0.0372118503937008
11
0.2959218897637795
21
0.0366357874015748
0
LINE
8
BLACK
6
CONTINUOUS
10
0.2959218897637795
20
0.0366357874015748
11
0.2954809842519685
21
0.0355713779527559
0
LINE
8
BLACK
6
CONTINUOUS
10
0.2954809842519685
20
0.0355713779527559
11
0.2946663385826772
21
0.0347567322834646
0
LINE
8
BLACK
6
CONTINUOUS
10
0.2946663385826772
20
0.0347567322834646
11
0.2936019291338582
21
0.0343158267716535
0
LINE
8
BLACK
6
CONTINUOUS
10
0.2936019291338582
20
0.0343158267716535
11
0.2924498031496063
21
0.0343158267716535
0
LINE
8
BLACK
6
CONTINUOUS
10
0.2924498031496063
20
0.0343158267716535
11
0.2913853937007874
21
0.0347567322834646
0
LINE
8
BLACK
6
CONTINUOUS
10
0.2913853937007874
20
0.0347567322834646
11
0.2905707480314961
21
0.0355713779527559
0
LINE
8
BLACK
6
CONTINUOUS
10
0.2905707480314961
20
0.0355713779527559
11
0.290129842519685
21
0.0366357874015748
0
LINE
8
BLACK
6
CONTINUOUS
10
0.290129842519685
20
0.0366357874015748
11
0.2900731102362205
21
0.0372118503937008
0
LINE
8
BLACK
6
CONTINUOUS
10
0.2900731102362205
20
0.0372118503937008
11
0.2900731102362205
21
0.0765819291338583
0
LINE
8
BLACK
6
CONTINUOUS
10
0.2900731102362205
20
0.0765819291338583
11
0.290129842519685
21
0.0771579921259842
0
LINE
8
BLACK
6
CONTINUOUS
10
0.290129842519685
20
0.0771579921259842
11
0.2905707480314961
21
0.0782224015748031
0
LINE
8
BLACK
6
CONTINUOUS
10
0.2905707480314961
20
0.0782224015748031
11
0.2913853937007874
21
0.0790370472440945
0
LINE
8
BLACK
6
CONTINUOUS
10
0.2913853937007874
20
0.0790370472440945
11
0.2924498031496063
21
0.0794779527559055
0
LINE
8
BLACK
6
CONTINUOUS
10
0.2924498031496063
20
0.0794779527559055
11
0.2930258661417323
21
0.0795346850393701
0
LINE
8
BLACK
6
CONTINUOUS
10
0.2930258661417323
20
0.0795346850393701
11
0.3080239763779528
21
0.0795346850393701
0
LINE
8
BLACK
6
CONTINUOUS
10
0.3080239763779528
20
0.0795346850393701
11
0.3086000393700787
21
0.0794779527559055
0
LINE
8
BLACK
6
CONTINUOUS
10
0.2959786220472441
20
0.0589122834645669
11
0.3073269291338583
21
0.0589122834645669
0
LINE
8
BLACK
6
CONTINUOUS
10
0.3073269291338583
20
0.0589122834645669
11
0.3100244094488189
21
0.0602610236220472
0
LINE
8
BLACK
6
CONTINUOUS
10
0.3100244094488189
20
0.0602610236220472
11
0.3112215354330709
21
0.0614581496062992
0
LINE
8
BLACK
6
CONTINUOUS
10
0.3112215354330709
20
0.0614581496062992
11
0.3125702755905512
21
0.0641556299212598
0
LINE
8
BLACK
6
CONTINUOUS
10
0.3125702755905512
20
0.0641556299212598
11
0.3125702755905512
21
0.0683858267716535
0
LINE
8
BLACK
6
CONTINUOUS
10
0.3125702755905512
20
0.0683858267716535
11
0.3112215354330709
21
0.0710833070866142
0
LINE
8
BLACK
6
CONTINUOUS
10
0.3112215354330709
20
0.0710833070866142
11
0.3100244094488189
21
0.0722804330708661
0
LINE
8
BLACK
6
CONTINUOUS
10
0.3100244094488189
20
0.0722804330708661
11
0.3073269291338583
21
0.0736291732283465
0
LINE
8
BLACK
6
CONTINUOUS
10
0.3073269291338583
20
0.0736291732283465
11
0.2959786220472441
21
0.0736291732283465
0
LINE
8
BLACK
6
CONTINUOUS
10
0.2959786220472441
20
0.0736291732283465
11
0.2959786220472441
21
0.0589122834645669
0
LINE
8
BLACK
6
CONTINUOUS
10
0.1998570472440945
20
0.0794447637795276
11
0.2000674803149606
21
0.0794298031496063
0
LINE
8
BLACK
6
CONTINUOUS
10
0.2000674803149606
20
0.0794298031496063
11
0.2003985826771653
21
0.0792642519685039
0
LINE
8
BLACK
6
CONTINUOUS
10
0.2003985826771653
20
0.0792642519685039
11
0.200749842519685
21
0.0791471653543307
0
LINE
8
BLACK
6
CONTINUOUS
10
0.200749842519685
20
0.0791471653543307
11
0.2009091732283464
21
0.0790089763779528
0
LINE
8
BLACK
6
CONTINUOUS
10
0.2009091732283464
20
0.0790089763779528
11
0.2010979133858268
21
0.0789146062992126
0
LINE
8
BLACK
6
CONTINUOUS
10
0.2010979133858268
20
0.0789146062992126
11
0.2013405511811024
21
0.0786348818897638
0
LINE
8
BLACK
6
CONTINUOUS
10
0.2013405511811024
20
0.0786348818897638
11
0.2016202362204724
21
0.0783922834645669
0
LINE
8
BLACK
6
CONTINUOUS
10
0.2016202362204724
20
0.0783922834645669
11
0.2017145275590551
21
0.0782036614173228
0
LINE
8
BLACK
6
CONTINUOUS
10
0.2017145275590551
20
0.0782036614173228
11
0.2018527952755906
21
0.0780442519685039
0
LINE
8
BLACK
6
CONTINUOUS
10
0.2018527952755906
20
0.0780442519685039
11
0.202088779527559
21
0.0775156692913386
0
LINE
8
BLACK
6
CONTINUOUS
10
0.202088779527559
20
0.0775156692913386
11
0.215212125984252
21
0.0381455905511811
0
LINE
8
BLACK
6
CONTINUOUS
10
0.215212125984252
20
0.0381455905511811
11
0.2153404724409449
21
0.0375811811023622
0
LINE
8
BLACK
6
CONTINUOUS
10
0.2153404724409449
20
0.0375811811023622
11
0.2152587795275591
21
0.036431968503937
0
LINE
8
BLACK
6
CONTINUOUS
10
0.2152587795275591
20
0.036431968503937
11
0.2147435826771653
21
0.0354014960629921
0
LINE
8
BLACK
6
CONTINUOUS
10
0.2147435826771653
20
0.0354014960629921
11
0.2138731889763779
21
0.0346466141732283
0
LINE
8
BLACK
6
CONTINUOUS
10
0.2138731889763779
20
0.0346466141732283
11
0.2127801968503937
21
0.0342822834645669
0
LINE
8
BLACK
6
CONTINUOUS
10
0.2127801968503937
20
0.0342822834645669
11
0.2116309842519685
21
0.0343639763779528
0
LINE
8
BLACK
6
CONTINUOUS
10
0.2116309842519685
20
0.0343639763779528
11
0.2106005511811024
21
0.0348792125984252
0
LINE
8
BLACK
6
CONTINUOUS
10
0.2106005511811024
20
0.0348792125984252
11
0.2098456692913386
21
0.0357495669291339
0
LINE
8
BLACK
6
CONTINUOUS
10
0.2098456692913386
20
0.0357495669291339
11
0.2096096850393701
21
0.0362781102362205
0
LINE
8
BLACK
6
CONTINUOUS
10
0.2096096850393701
20
0.0362781102362205
11
0.2065331496062992
21
0.0455077165354331
0
LINE
8
BLACK
6
CONTINUOUS
10
0.2065331496062992
20
0.0455077165354331
11
0.192041968503937
21
0.0455077165354331
0
LINE
8
BLACK
6
CONTINUOUS
10
0.192041968503937
20
0.0455077165354331
11
0.1889654330708661
21
0.0362781102362205
0
LINE
8
BLACK
6
CONTINUOUS
10
0.1889654330708661
20
0.0362781102362205
11
0.1887294488188976
21
0.0357495275590551
0
LINE
8
BLACK
6
CONTINUOUS
10
0.1887294488188976
20
0.0357495275590551
11
0.1879745669291339
21
0.0348791732283465
0
LINE
8
BLACK
6
CONTINUOUS
10
0.1879745669291339
20
0.0348791732283465
11
0.1869441338582677
21
0.0343639763779528
0
LINE
8
BLACK
6
CONTINUOUS
10
0.1869441338582677
20
0.0343639763779528
11
0.1857949212598425
21
0.0342822834645669
0
LINE
8
BLACK
6
CONTINUOUS
10
0.1857949212598425
20
0.0342822834645669
11
0.1847018897637795
21
0.0346466141732283
0
LINE
8
BLACK
6
CONTINUOUS
10
0.1847018897637795
20
0.0346466141732283
11
0.1838315354330709
21
0.0354014960629921
0
LINE
8
BLACK
6
CONTINUOUS
10
0.1838315354330709
20
0.0354014960629921
11
0.1833163385826772
21
0.0364319291338583
0
LINE
8
BLACK
6
CONTINUOUS
10
0.1833163385826772
20
0.0364319291338583
11
0.1832346456692913
21
0.0375811417322835
0
LINE
8
BLACK
6
CONTINUOUS
10
0.1832346456692913
20
0.0375811417322835
11
0.1833629921259843
21
0.0381455905511811
0
LINE
8
BLACK
6
CONTINUOUS
10
0.1833629921259843
20
0.0381455905511811
11
0.1964863385826772
21
0.0775156692913386
0
LINE
8
BLACK
6
CONTINUOUS
10
0.1964863385826772
20
0.0775156692913386
11
0.1967223228346457
21
0.0780442125984252
0
LINE
8
BLACK
6
CONTINUOUS
10
0.1967223228346457
20
0.0780442125984252
11
0.1968605118110236
21
0.0782035826771654
0
LINE
8
BLACK
6
CONTINUOUS
10
0.1968605118110236
20
0.0782035826771654
11
0.1969548818897638
21
0.0783922834645669
0
LINE
8
BLACK
6
CONTINUOUS
10
0.1969548818897638
20
0.0783922834645669
11
0.1972347244094488
21
0.0786350393700787
0
LINE
8
BLACK
6
CONTINUOUS
10
0.1972347244094488
20
0.0786350393700787
11
0.1974772047244094
21
0.0789145669291339
0
LINE
8
BLACK
6
CONTINUOUS
10
0.1974772047244094
20
0.0789145669291339
11
0.1976657480314961
21
0.0790088582677165
0
LINE
8
BLACK
6
CONTINUOUS
10
0.1976657480314961
20
0.0790088582677165
11
0.1978252362204724
21
0.0791471653543307
0
LINE
8
BLACK
6
CONTINUOUS
10
0.1978252362204724
20
0.0791471653543307
11
0.1981766141732283
21
0.0792642913385827
0
LINE
8
BLACK
6
CONTINUOUS
10
0.1981766141732283
20
0.0792642913385827
11
0.1985076377952756
21
0.0794298031496063
0
LINE
8
BLACK
6
CONTINUOUS
10
0.1985076377952756
20
0.0794298031496063
11
0.198718031496063
21
0.0794447637795276
0
LINE
8
BLACK
6
CONTINUOUS
10
0.198718031496063
20
0.0794447637795276
11
0.1989182677165354
21
0.0795114960629921
0
LINE
8
BLACK
6
CONTINUOUS
10
0.1989182677165354
20
0.0795114960629921
11
0.1992875590551181
21
0.0794852755905512
0
LINE
8
BLACK
6
CONTINUOUS
10
0.1992875590551181
20
0.0794852755905512
11
0.1996568503937008
21
0.0795114960629921
0
LINE
8
BLACK
6
CONTINUOUS
10
0.1996568503937008
20
0.0795114960629921
11
0.1998570472440945
21
0.0794447637795276
0
LINE
8
BLACK
6
CONTINUOUS
10
0.1940104724409449
20
0.0514132283464567
11
0.2045646456692913
21
0.0514132283464567
0
LINE
8
BLACK
6
CONTINUOUS
10
0.2045646456692913
20
0.0514132283464567
11
0.1992875590551181
21
0.0672445275590551
0
LINE
8
BLACK
6
CONTINUOUS
10
0.1992875590551181
20
0.0672445275590551
11
0.1940104724409449
21
0.0514132283464567
0
LINE
8
BLACK
6
CONTINUOUS
10
0.3498448818897638
20
0.0794779527559055
11
0.3509092913385827
21
0.0790370472440945
0
LINE
8
BLACK
6
CONTINUOUS
10
0.3509092913385827
20
0.0790370472440945
11
0.351723937007874
21
0.0782224015748031
0
LINE
8
BLACK
6
CONTINUOUS
10
0.351723937007874
20
0.0782224015748031
11
0.3521648425196851
21
0.0771579921259842
0
LINE
8
BLACK
6
CONTINUOUS
10
0.3521648425196851
20
0.0771579921259842
11
0.3521648425196851
21
0.0760058661417323
0
LINE
8
BLACK
6
CONTINUOUS
10
0.3521648425196851
20
0.0760058661417323
11
0.351723937007874
21
0.0749414566929134
0
LINE
8
BLACK
6
CONTINUOUS
10
0.351723937007874
20
0.0749414566929134
11
0.3509092913385827
21
0.074126811023622
0
LINE
8
BLACK
6
CONTINUOUS
10
0.3509092913385827
20
0.074126811023622
11
0.3498448818897638
21
0.073685905511811
0
LINE
8
BLACK
6
CONTINUOUS
10
0.3498448818897638
20
0.073685905511811
11
0.3492688188976378
21
0.0736291732283465
0
LINE
8
BLACK
6
CONTINUOUS
10
0.3492688188976378
20
0.0736291732283465
11
0.3409729921259843
21
0.0736291732283465
0
LINE
8
BLACK
6
CONTINUOUS
10
0.3409729921259843
20
0.0736291732283465
11
0.3409729921259843
21
0.0372118503937008
0
LINE
8
BLACK
6
CONTINUOUS
10
0.3409729921259843
20
0.0372118503937008
11
0.3409162598425197
21
0.0366357874015748
0
LINE
8
BLACK
6
CONTINUOUS
10
0.3409162598425197
20
0.0366357874015748
11
0.3404753543307086
21
0.0355713779527559
0
LINE
8
BLACK
6
CONTINUOUS
10
0.3404753543307086
20
0.0355713779527559
11
0.3396607086614173
21
0.0347567322834646
0
LINE
8
BLACK
6
CONTINUOUS
10
0.3396607086614173
20
0.0347567322834646
11
0.3385962992125984
21
0.0343158267716535
0
LINE
8
BLACK
6
CONTINUOUS
10
0.3385962992125984
20
0.0343158267716535
11
0.3374441732283465
21
0.0343158267716535
0
LINE
8
BLACK
6
CONTINUOUS
10
0.3374441732283465
20
0.0343158267716535
11
0.3363797637795276
21
0.0347567322834646
0
LINE
8
BLACK
6
CONTINUOUS
10
0.3363797637795276
20
0.0347567322834646
11
0.3355651181102362
21
0.0355713779527559
0
LINE
8
BLACK
6
CONTINUOUS
10
0.3355651181102362
20
0.0355713779527559
11
0.3351242125984252
21
0.0366357874015748
0
LINE
8
BLACK
6
CONTINUOUS
10
0.3351242125984252
20
0.0366357874015748
11
0.3350674803149606
21
0.0372118503937008
0
LINE
8
BLACK
6
CONTINUOUS
10
0.3350674803149606
20
0.0372118503937008
11
0.3350674803149606
21
0.0736291732283465
0
LINE
8
BLACK
6
CONTINUOUS
10
0.3350674803149606
20
0.0736291732283465
11
0.3267716535433071
21
0.0736291732283465
0
LINE
8
BLACK
6
CONTINUOUS
10
0.3267716535433071
20
0.0736291732283465
11
0.3261955905511811
21
0.073685905511811
0
LINE
8
BLACK
6
CONTINUOUS
10
0.3261955905511811
20
0.073685905511811
11
0.3251311811023622
21
0.074126811023622
0
LINE
8
BLACK
6
CONTINUOUS
10
0.3251311811023622
20
0.074126811023622
11
0.3243165354330709
21
0.0749414566929134
0
LINE
8
BLACK
6
CONTINUOUS
10
0.3243165354330709
20
0.0749414566929134
11
0.3238756299212598
21
0.0760058661417323
0
LINE
8
BLACK
6
CONTINUOUS
10
0.3238756299212598
20
0.0760058661417323
11
0.3238756299212598
21
0.0771579921259842
0
LINE
8
BLACK
6
CONTINUOUS
10
0.3238756299212598
20
0.0771579921259842
11
0.3243165354330709
21
0.0782224015748031
0
LINE
8
BLACK
6
CONTINUOUS
10
0.3243165354330709
20
0.0782224015748031
11
0.3251311811023622
21
0.0790370472440945
0
LINE
8
BLACK
6
CONTINUOUS
10
0.3251311811023622
20
0.0790370472440945
11
0.3261955905511811
21
0.0794779527559055
0
LINE
8
BLACK
6
CONTINUOUS
10
0.3261955905511811
20
0.0794779527559055
11
0.3267716535433071
21
0.0795346850393701
0
LINE
8
BLACK
6
CONTINUOUS
10
0.3267716535433071
20
0.0795346850393701
11
0.3492688188976378
21
0.0795346850393701
0
LINE
8
BLACK
6
CONTINUOUS
10
0.3492688188976378
20
0.0795346850393701
11
0.3498448818897638
21
0.0794779527559055
0
LINE
8
BLACK
6
CONTINUOUS
10
0.2482925984251969
20
0.1529747637795276
11
0.2493570078740157
21
0.1525338582677165
0
LINE
8
BLACK
6
CONTINUOUS
10
0.2493570078740157
20
0.1525338582677165
11
0.2501716535433071
21
0.1517192125984252
0
LINE
8
BLACK
6
CONTINUOUS
10
0.2501716535433071
20
0.1517192125984252
11
0.2506125590551181
21
0.1506548031496063
0
LINE
8
BLACK
6
CONTINUOUS
10
0.2506125590551181
20
0.1506548031496063
11
0.2506125590551181
21
0.1495026771653543
0
LINE
8
BLACK
6
CONTINUOUS
10
0.2506125590551181
20
0.1495026771653543
11
0.2501716535433071
21
0.1484382677165354
0
LINE
8
BLACK
6
CONTINUOUS
10
0.2501716535433071
20
0.1484382677165354
11
0.2493570078740157
21
0.1476236220472441
0
LINE
8
BLACK
6
CONTINUOUS
10
0.2493570078740157
20
0.1476236220472441
11
0.2482925984251969
21
0.1471827165354331
0
LINE
8
BLACK
6
CONTINUOUS
10
0.2482925984251969
20
0.1471827165354331
11
0.2477165354330709
21
0.1471259842519685
0
LINE
8
BLACK
6
CONTINUOUS
10
0.2477165354330709
20
0.1471259842519685
11
0.2106692913385827
21
0.1471259842519685
0
LINE
8
BLACK
6
CONTINUOUS
10
0.2106692913385827
20
0.1471259842519685
11
0.2106692913385827
21
0.0930314960629921
0
LINE
8
BLACK
6
CONTINUOUS
10
0.2106692913385827
20
0.0930314960629921
11
0.2477165354330709
21
0.0930314960629921
0
LINE
8
BLACK
6
CONTINUOUS
10
0.2477165354330709
20
0.0930314960629921
11
0.2482925984251969
21
0.0929747637795276
0
LINE
8
BLACK
6
CONTINUOUS
10
0.2482925984251969
20
0.0929747637795276
11
0.2493570078740157
21
0.0925338582677165
0
LINE
8
BLACK
6
CONTINUOUS
10
0.2493570078740157
20
0.0925338582677165
11
0.2501716535433071
21
0.0917192125984252
0
LINE
8
BLACK
6
CONTINUOUS
10
0.2501716535433071
20
0.0917192125984252
11
0.2506125590551181
21
0.0906548031496063
0
LINE
8
BLACK
6
CONTINUOUS
10
0.2506125590551181
20
0.0906548031496063
11
0.2506125590551181
21
0.0895026771653543
0
LINE
8
BLACK
6
CONTINUOUS
10
0.2506125590551181
20
0.0895026771653543
11
0.2501716535433071
21
0.0884382677165354
0
LINE
8
BLACK
6
CONTINUOUS
10
0.2501716535433071
20
0.0884382677165354
11
0.2493570078740157
21
0.0876236220472441
0
LINE
8
BLACK
6
CONTINUOUS
10
0.2493570078740157
20
0.0876236220472441
11
0.2482925984251969
21
0.0871827165354331
0
LINE
8
BLACK
6
CONTINUOUS
10
0.2482925984251969
20
0.0871827165354331
11
0.2477165354330709
21
0.0871259842519685
0
LINE
8
BLACK
6
CONTINUOUS
10
0.2477165354330709
20
0.0871259842519685
11
0.209936062992126
21
0.0871259842519685
0
LINE
8
BLACK
6
CONTINUOUS
10
0.209936062992126
20
0.0871259842519685
11
0.2093290157480315
21
0.0856604330708661
0
LINE
8
BLACK
6
CONTINUOUS
10
0.2093290157480315
20
0.0856604330708661
11
0.207134842519685
21
0.0834662598425197
0
LINE
8
BLACK
6
CONTINUOUS
10
0.207134842519685
20
0.0834662598425197
11
0.204268031496063
21
0.082278779527559
0
LINE
8
BLACK
6
CONTINUOUS
10
0.204268031496063
20
0.082278779527559
11
0.2011650393700787
21
0.082278779527559
0
LINE
8
BLACK
6
CONTINUOUS
10
0.2011650393700787
20
0.082278779527559
11
0.1982982283464567
21
0.0834662598425197
0
LINE
8
BLACK
6
CONTINUOUS
10
0.1982982283464567
20
0.0834662598425197
11
0.1961040551181102
21
0.0856604330708661
0
LINE
8
BLACK
6
CONTINUOUS
10
0.1961040551181102
20
0.0856604330708661
11
0.1949165748031496
21
0.0885272440944882
0
LINE
8
BLACK
6
CONTINUOUS
10
0.1949165748031496
20
0.0885272440944882
11
0.1949165748031496
21
0.0909267322834646
0
LINE
8
BLACK
6
CONTINUOUS
10
0.1949165748031496
20
0.0909267322834646
11
0.1949165748031496
21
0.0916302362204724
0
LINE
8
BLACK
6
CONTINUOUS
10
0.1949165748031496
20
0.0916302362204724
11
0.1961040551181102
21
0.0944970472440945
0
LINE
8
BLACK
6
CONTINUOUS
10
0.1961040551181102
20
0.0944970472440945
11
0.1982982283464567
21
0.0966912204724409
0
LINE
8
BLACK
6
CONTINUOUS
10
0.1982982283464567
20
0.0966912204724409
11
0.2011650393700787
21
0.0978787007874016
0
LINE
8
BLACK
6
CONTINUOUS
10
0.2011650393700787
20
0.0978787007874016
11
0.204268031496063
21
0.0978787007874016
0
LINE
8
BLACK
6
CONTINUOUS
10
0.204268031496063
20
0.0978787007874016
11
0.2047637795275591
21
0.0976733858267717
0
LINE
8
BLACK
6
CONTINUOUS
10
0.2047637795275591
20
0.0976733858267717
11
0.2047637795275591
21
0.1500787401574803
0
LINE
8
BLACK
6
CONTINUOUS
10
0.2047637795275591
20
0.1500787401574803
11
0.2048205118110236
21
0.1506548031496063
0
LINE
8
BLACK
6
CONTINUOUS
10
0.2048205118110236
20
0.1506548031496063
11
0.2052614173228346
21
0.1517192125984252
0
LINE
8
BLACK
6
CONTINUOUS
10
0.2052614173228346
20
0.1517192125984252
11
0.206076062992126
21
0.1525338582677165
0
LINE
8
BLACK
6
CONTINUOUS
10
0.206076062992126
20
0.1525338582677165
11
0.2071404724409449
21
0.1529747637795276
0
LINE
8
BLACK
6
CONTINUOUS
10
0.2071404724409449
20
0.1529747637795276
11
0.2077165354330709
21
0.1530314960629921
0
LINE
8
BLACK
6
CONTINUOUS
10
0.2077165354330709
20
0.1530314960629921
11
0.2477165354330709
21
0.1530314960629921
0
LINE
8
BLACK
6
CONTINUOUS
10
0.2477165354330709
20
0.1530314960629921
11
0.2482925984251969
21
0.1529747637795276
0
LINE
8
BLACK
6
CONTINUOUS
10
0.2006692913385827
20
0.0892307480314961
11
0.2018685433070866
21
0.0880314960629921
0
LINE
8
BLACK
6
CONTINUOUS
10
0.2018685433070866
20
0.0880314960629921
11
0.2035645275590551
21
0.0880314960629921
0
LINE
8
BLACK
6
CONTINUOUS
10
0.2035645275590551
20
0.0880314960629921
11
0.2047637795275591
21
0.0892307480314961
0
LINE
8
BLACK
6
CONTINUOUS
10
0.2047637795275591
20
0.0892307480314961
11
0.2047637795275591
21
0.0909267322834646
0
LINE
8
BLACK
6
CONTINUOUS
10
0.2047637795275591
20
0.0909267322834646
11
0.2035645275590551
21
0.0921259842519685
0
LINE
8
BLACK
6
CONTINUOUS
10
0.2035645275590551
20
0.0921259842519685
11
0.2018685433070866
21
0.0921259842519685
0
LINE
8
BLACK
6
CONTINUOUS
10
0.2018685433070866
20
0.0921259842519685
11
0.2006692913385827
21
0.0909267322834646
0
LINE
8
BLACK
6
CONTINUOUS
10
0.2006692913385827
20
0.0909267322834646
11
0.2006692913385827
21
0.0892307480314961
0
LINE
8
BLACK
6
CONTINUOUS
10
0.3282925984251969
20
0.1529747637795276
11
0.3293570078740157
21
0.1525338582677165
0
LINE
8
BLACK
6
CONTINUOUS
10
0.3293570078740157
20
0.1525338582677165
11
0.3301716535433071
21
0.1517192125984252
0
LINE
8
BLACK
6
CONTINUOUS
10
0.3301716535433071
20
0.1517192125984252
11
0.3306125590551181
21
0.1506548031496063
0
LINE
8
BLACK
6
CONTINUOUS
10
0.3306125590551181
20
0.1506548031496063
11
0.3306692913385827
21
0.1500787401574803
0
LINE
8
BLACK
6
CONTINUOUS
10
0.3306692913385827
20
0.1500787401574803
11
0.3306692913385827
21
0.0900787401574803
0
LINE
8
BLACK
6
CONTINUOUS
10
0.3306692913385827
20
0.0900787401574803
11
0.3306125590551181
21
0.0895026771653543
0
LINE
8
BLACK
6
CONTINUOUS
10
0.3306125590551181
20
0.0895026771653543
11
0.3301716535433071
21
0.0884382677165354
0
LINE
8
BLACK
6
CONTINUOUS
10
0.3301716535433071
20
0.0884382677165354
11
0.3293570078740157
21
0.0876236220472441
0
LINE
8
BLACK
6
CONTINUOUS
10
0.3293570078740157
20
0.0876236220472441
11
0.3282925984251969
21
0.0871827165354331
0
LINE
8
BLACK
6
CONTINUOUS
10
0.3282925984251969
20
0.0871827165354331
11
0.3277165354330708
21
0.0871259842519685
0
LINE
8
BLACK
6
CONTINUOUS
10
0.3277165354330708
20
0.0871259842519685
11
0.2877165354330709
21
0.0871259842519685
0
LINE
8
BLACK
6
CONTINUOUS
10
0.2877165354330709
20
0.0871259842519685
11
0.2871404724409449
21
0.0871827165354331
0
LINE
8
BLACK
6
CONTINUOUS
10
0.2871404724409449
20
0.0871827165354331
11
0.286076062992126
21
0.0876236220472441
0
LINE
8
BLACK
6
CONTINUOUS
10
0.286076062992126
20
0.0876236220472441
11
0.2852614173228347
21
0.0884382677165354
0
LINE
8
BLACK
6
CONTINUOUS
10
0.2852614173228347
20
0.0884382677165354
11
0.2848205118110236
21
0.0895026771653543
0
LINE
8
BLACK
6
CONTINUOUS
10
0.2848205118110236
20
0.0895026771653543
11
0.2848205118110236
21
0.0906548031496063
0
LINE
8
BLACK
6
CONTINUOUS
10
0.2848205118110236
20
0.0906548031496063
11
0.2852614173228347
21
0.0917192125984252
0
LINE
8
BLACK
6
CONTINUOUS
10
0.2852614173228347
20
0.0917192125984252
11
0.286076062992126
21
0.0925338582677165
0
LINE
8
BLACK
6
CONTINUOUS
10
0.286076062992126
20
0.0925338582677165
11
0.2871404724409449
21
0.0929747637795276
0
LINE
8
BLACK
6
CONTINUOUS
10
0.2871404724409449
20
0.0929747637795276
11
0.2877165354330709
21
0.0930314960629921
0
LINE
8
BLACK
6
CONTINUOUS
10
0.2877165354330709
20
0.0930314960629921
11
0.324763779527559
21
0.0930314960629921
0
LINE
8
BLACK
6
CONTINUOUS
10
0.324763779527559
20
0.0930314960629921
11
0.324763779527559
21
0.1471259842519685
0
LINE
8
BLACK
6
CONTINUOUS
10
0.324763779527559
20
0.1471259842519685
11
0.2877165354330709
21
0.1471259842519685
0
LINE
8
BLACK
6
CONTINUOUS
10
0.2877165354330709
20
0.1471259842519685
11
0.2871404724409449
21
0.1471827165354331
0
LINE
8
BLACK
6
CONTINUOUS
10
0.2871404724409449
20
0.1471827165354331
11
0.286076062992126
21
0.1476236220472441
0
LINE
8
BLACK
6
CONTINUOUS
10
0.286076062992126
20
0.1476236220472441
11
0.2852614173228347
21
0.1484382677165354
0
LINE
8
BLACK
6
CONTINUOUS
10
0.2852614173228347
20
0.1484382677165354
11
0.2848205118110236
21
0.1495026771653543
0
LINE
8
BLACK
6
CONTINUOUS
10
0.2848205118110236
20
0.1495026771653543
11
0.2848205118110236
21
0.1506548031496063
0
LINE
8
BLACK
6
CONTINUOUS
10
0.2848205118110236
20
0.1506548031496063
11
0.2852614173228347
21
0.1517192125984252
0
LINE
8
BLACK
6
CONTINUOUS
10
0.2852614173228347
20
0.1517192125984252
11
0.286076062992126
21
0.1525338582677165
0
LINE
8
BLACK
6
CONTINUOUS
10
0.286076062992126
20
0.1525338582677165
11
0.2871404724409449
21
0.1529747637795276
0
LINE
8
BLACK
6
CONTINUOUS
10
0.2871404724409449
20
0.1529747637795276
11
0.2877165354330709
21
0.1530314960629921
0
LINE
8
BLACK
6
CONTINUOUS
10
0.2877165354330709
20
0.1530314960629921
11
0.3277165354330708
21
0.1530314960629921
0
LINE
8
BLACK
6
CONTINUOUS
10
0.3277165354330708
20
0.1530314960629921
11
0.3282925984251969
21
0.1529747637795276
0
LINE
8
BLACK
6
CONTINUOUS
10
0.2536345669291338
20
0.1423537007874016
11
0.2541125984251968
21
0.1420272834645669
0
LINE
8
BLACK
6
CONTINUOUS
10
0.2541125984251968
20
0.1420272834645669
11
0.276763779527559
21
0.1230533070866142
0
LINE
8
BLACK
6
CONTINUOUS
10
0.276763779527559
20
0.1230533070866142
11
0.276763779527559
21
0.1397637795275591
0
LINE
8
BLACK
6
CONTINUOUS
10
0.276763779527559
20
0.1397637795275591
11
0.2768205118110236
21
0.140339842519685
0
LINE
8
BLACK
6
CONTINUOUS
10
0.2768205118110236
20
0.140339842519685
11
0.2772614173228347
21
0.1414042519685039
0
LINE
8
BLACK
6
CONTINUOUS
10
0.2772614173228347
20
0.1414042519685039
11
0.278076062992126
21
0.1422188976377953
0
LINE
8
BLACK
6
CONTINUOUS
10
0.278076062992126
20
0.1422188976377953
11
0.2791404724409449
21
0.1426598031496063
0
LINE
8
BLACK
6
CONTINUOUS
10
0.2791404724409449
20
0.1426598031496063
11
0.2802925984251968
21
0.1426598031496063
0
LINE
8
BLACK
6
CONTINUOUS
10
0.2802925984251968
20
0.1426598031496063
11
0.2813570078740157
21
0.1422188976377953
0
LINE
8
BLACK
6
CONTINUOUS
10
0.2813570078740157
20
0.1422188976377953
11
0.2821716535433071
21
0.1414042519685039
0
LINE
8
BLACK
6
CONTINUOUS
10
0.2821716535433071
20
0.1414042519685039
11
0.2826125590551181
21
0.140339842519685
0
LINE
8
BLACK
6
CONTINUOUS
10
0.2826125590551181
20
0.140339842519685
11
0.2826692913385827
21
0.1397637795275591
0
LINE
8
BLACK
6
CONTINUOUS
10
0.2826692913385827
20
0.1397637795275591
11
0.2826692913385827
21
0.1003937007874016
0
LINE
8
BLACK
6
CONTINUOUS
10
0.2826692913385827
20
0.1003937007874016
11
0.2826125590551181
21
0.0998176377952756
0
LINE
8
BLACK
6
CONTINUOUS
10
0.2826125590551181
20
0.0998176377952756
11
0.2821716535433071
21
0.0987532283464567
0
LINE
8
BLACK
6
CONTINUOUS
10
0.2821716535433071
20
0.0987532283464567
11
0.2813570078740157
21
0.0979385826771653
0
LINE
8
BLACK
6
CONTINUOUS
10
0.2813570078740157
20
0.0979385826771653
11
0.2802925984251968
21
0.0974976771653543
0
LINE
8
BLACK
6
CONTINUOUS
10
0.2802925984251968
20
0.0974976771653543
11
0.2791404724409449
21
0.0974976771653543
0
LINE
8
BLACK
6
CONTINUOUS
10
0.2791404724409449
20
0.0974976771653543
11
0.278076062992126
21
0.0979385826771653
0
LINE
8
BLACK
6
CONTINUOUS
10
0.278076062992126
20
0.0979385826771653
11
0.2772614173228347
21
0.0987532283464567
0
LINE
8
BLACK
6
CONTINUOUS
10
0.2772614173228347
20
0.0987532283464567
11
0.2768205118110236
21
0.0998176377952756
0
LINE
8
BLACK
6
CONTINUOUS
10
0.2768205118110236
20
0.0998176377952756
11
0.276763779527559
21
0.1003937007874016
0
LINE
8
BLACK
6
CONTINUOUS
10
0.276763779527559
20
0.1003937007874016
11
0.276763779527559
21
0.1171187795275591
0
LINE
8
BLACK
6
CONTINUOUS
10
0.276763779527559
20
0.1171187795275591
11
0.2535890944881889
21
0.0981106692913386
0
LINE
8
BLACK
6
CONTINUOUS
10
0.2535890944881889
20
0.0981106692913386
11
0.2534084645669291
21
0.0979900787401575
0
LINE
8
BLACK
6
CONTINUOUS
10
0.2534084645669291
20
0.0979900787401575
11
0.2533570078740157
21
0.0979385826771653
0
LINE
8
BLACK
6
CONTINUOUS
10
0.2533570078740157
20
0.0979385826771653
11
0.2532895275590551
21
0.0979106692913386
0
LINE
8
BLACK
6
CONTINUOUS
10
0.2532895275590551
20
0.0979106692913386
11
0.2531077165354331
21
0.0977892125984252
0
LINE
8
BLACK
6
CONTINUOUS
10
0.2531077165354331
20
0.0977892125984252
11
0.2526929921259842
21
0.0976635433070866
0
LINE
8
BLACK
6
CONTINUOUS
10
0.2526929921259842
20
0.0976635433070866
11
0.2522925984251969
21
0.0974976771653543
0
LINE
8
BLACK
6
CONTINUOUS
10
0.2522925984251969
20
0.0974976771653543
11
0.2521456692913386
21
0.0974976771653543
0
LINE
8
BLACK
6
CONTINUOUS
10
0.2521456692913386
20
0.0974976771653543
11
0.2520051181102362
21
0.0974550787401575
0
LINE
8
BLACK
6
CONTINUOUS
10
0.2520051181102362
20
0.0974550787401575
11
0.251573937007874
21
0.0974976771653543
0
LINE
8
BLACK
6
CONTINUOUS
10
0.251573937007874
20
0.0974976771653543
11
0.2511404724409449
21
0.0974976771653543
0
LINE
8
BLACK
6
CONTINUOUS
10
0.2511404724409449
20
0.0974976771653543
11
0.2510046850393701
21
0.097553937007874
0
LINE
8
BLACK
6
CONTINUOUS
10
0.2510046850393701
20
0.097553937007874
11
0.2508586220472441
21
0.0975683464566929
0
LINE
8
BLACK
6
CONTINUOUS
10
0.2508586220472441
20
0.0975683464566929
11
0.2504764960629921
21
0.0977727165354331
0
LINE
8
BLACK
6
CONTINUOUS
10
0.2504764960629921
20
0.0977727165354331
11
0.250076062992126
21
0.0979385826771653
0
LINE
8
BLACK
6
CONTINUOUS
10
0.250076062992126
20
0.0979385826771653
11
0.2499722440944882
21
0.0980424015748032
0
LINE
8
BLACK
6
CONTINUOUS
10
0.2499722440944882
20
0.0980424015748032
11
0.2498426771653543
21
0.0981116929133858
0
LINE
8
BLACK
6
CONTINUOUS
10
0.2498426771653543
20
0.0981116929133858
11
0.2495677559055118
21
0.0984468897637795
0
LINE
8
BLACK
6
CONTINUOUS
10
0.2495677559055118
20
0.0984468897637795
11
0.2492614173228346
21
0.0987532283464567
0
LINE
8
BLACK
6
CONTINUOUS
10
0.2492614173228346
20
0.0987532283464567
11
0.2492051968503937
21
0.0988889763779528
0
LINE
8
BLACK
6
CONTINUOUS
10
0.2492051968503937
20
0.0988889763779528
11
0.2491120472440945
21
0.0990025196850394
0
LINE
8
BLACK
6
CONTINUOUS
10
0.2491120472440945
20
0.0990025196850394
11
0.2489863385826772
21
0.0994172440944882
0
LINE
8
BLACK
6
CONTINUOUS
10
0.2489863385826772
20
0.0994172440944882
11
0.2488205118110236
21
0.0998176377952756
0
LINE
8
BLACK
6
CONTINUOUS
10
0.2488205118110236
20
0.0998176377952756
11
0.2487990551181102
21
0.1000353149606299
0
LINE
8
BLACK
6
CONTINUOUS
10
0.2487990551181102
20
0.1000353149606299
11
0.2487779133858268
21
0.1001051181102362
0
LINE
8
BLACK
6
CONTINUOUS
10
0.2487779133858268
20
0.1001051181102362
11
0.2487850393700787
21
0.1001775590551181
0
LINE
8
BLACK
6
CONTINUOUS
10
0.2487850393700787
20
0.1001775590551181
11
0.248763779527559
21
0.1003937007874016
0
LINE
8
BLACK
6
CONTINUOUS
10
0.248763779527559
20
0.1003937007874016
11
0.248763779527559
21
0.1397637795275591
0
LINE
8
BLACK
6
CONTINUOUS
10
0.248763779527559
20
0.1397637795275591
11
0.2488205118110236
21
0.140339842519685
0
LINE
8
BLACK
6
CONTINUOUS
10
0.2488205118110236
20
0.140339842519685
11
0.2492614173228346
21
0.1414042519685039
0
LINE
8
BLACK
6
CONTINUOUS
10
0.2492614173228346
20
0.1414042519685039
11
0.250076062992126
21
0.1422188976377953
0
LINE
8
BLACK
6
CONTINUOUS
10
0.250076062992126
20
0.1422188976377953
11
0.2511404724409449
21
0.1426598031496063
0
LINE
8
BLACK
6
CONTINUOUS
10
0.2511404724409449
20
0.1426598031496063
11
0.2520893700787402
21
0.1426598031496063
0
LINE
8
BLACK
6
CONTINUOUS
10
0.2520893700787402
20
0.1426598031496063
11
0.2525355118110236
21
0.1426992125984252
0
LINE
8
BLACK
6
CONTINUOUS
10
0.2525355118110236
20
0.1426992125984252
11
0.2536345669291338
21
0.1423537007874016
0
LINE
8
BLACK
6
CONTINUOUS
10
0.2546692913385827
20
0.1066345275590551
11
0.2710896456692913
21
0.1201026771653543
0
LINE
8
BLACK
6
CONTINUOUS
10
0.2710896456692913
20
0.1201026771653543
11
0.2546692913385827
21
0.1338573622047244
0
LINE
8
BLACK
6
CONTINUOUS
10
0.2546692913385827
20
0.1338573622047244
11
0.2546692913385827
21
0.1066345275590551
0
LINE
8
BLACK
6
CONTINUOUS
10
0.4029819291338583
20
0.1031036614173228
11
0.4042603543307087
21
0.1018252362204724
0
LINE
8
BLACK
6
CONTINUOUS
10
0.4042603543307087
20
0.1018252362204724
11
0.4042603543307087
21
0.1000172834645669
0
LINE
8
BLACK
6
CONTINUOUS
10
0.4042603543307087
20
0.1000172834645669
11
0.4029819291338583
21
0.0987388582677165
0
LINE
8
BLACK
6
CONTINUOUS
10
0.4029819291338583
20
0.0987388582677165
11
0.4020779527559055
21
0.0985590551181102
0
LINE
8
BLACK
6
CONTINUOUS
10
0.4020779527559055
20
0.0985590551181102
11
0.3892606299212598
21
0.0985590551181102
0
LINE
8
BLACK
6
CONTINUOUS
10
0.3892606299212598
20
0.0985590551181102
11
0.3883566535433071
21
0.0987388582677165
0
LINE
8
BLACK
6
CONTINUOUS
10
0.3883566535433071
20
0.0987388582677165
11
0.3870782283464567
21
0.1000172834645669
0
LINE
8
BLACK
6
CONTINUOUS
10
0.3870782283464567
20
0.1000172834645669
11
0.3870782283464567
21
0.1018252362204724
0
LINE
8
BLACK
6
CONTINUOUS
10
0.3870782283464567
20
0.1018252362204724
11
0.3883566535433071
21
0.1031036614173228
0
LINE
8
BLACK
6
CONTINUOUS
10
0.3883566535433071
20
0.1031036614173228
11
0.3892606299212598
21
0.1032834645669291
0
LINE
8
BLACK
6
CONTINUOUS
10
0.3892606299212598
20
0.1032834645669291
11
0.4020779527559055
21
0.1032834645669291
0
LINE
8
BLACK
6
CONTINUOUS
10
0.4020779527559055
20
0.1032834645669291
11
0.4029819291338583
21
0.1031036614173228
0
LINE
8
BLACK
6
CONTINUOUS
10
0.1866312204724409
20
0.2003134251968504
11
0.1868110236220472
21
0.1994094488188976
0
LINE
8
BLACK
6
CONTINUOUS
10
0.1868110236220472
20
0.1994094488188976
11
0.1868110236220472
21
0.1285433070866142
0
LINE
8
BLACK
6
CONTINUOUS
10
0.1868110236220472
20
0.1285433070866142
11
0.1866312204724409
21
0.1276393307086614
0
LINE
8
BLACK
6
CONTINUOUS
10
0.1866312204724409
20
0.1276393307086614
11
0.1853527952755905
21
0.126360905511811
0
LINE
8
BLACK
6
CONTINUOUS
10
0.1853527952755905
20
0.126360905511811
11
0.1844488188976378
21
0.1261811023622047
0
LINE
8
BLACK
6
CONTINUOUS
10
0.1844488188976378
20
0.1261811023622047
11
0.1273622047244095
21
0.1261811023622047
0
LINE
8
BLACK
6
CONTINUOUS
10
0.1273622047244095
20
0.1261811023622047
11
0.1264582283464567
21
0.126360905511811
0
LINE
8
BLACK
6
CONTINUOUS
10
0.1264582283464567
20
0.126360905511811
11
0.1251798031496063
21
0.1276393307086614
0
LINE
8
BLACK
6
CONTINUOUS
10
0.1251798031496063
20
0.1276393307086614
11
0.1251798031496063
21
0.1294472834645669
0
LINE
8
BLACK
6
CONTINUOUS
10
0.1251798031496063
20
0.1294472834645669
11
0.1264582283464567
21
0.1307257086614173
0
LINE
8
BLACK
6
CONTINUOUS
10
0.1264582283464567
20
0.1307257086614173
11
0.1273622047244095
21
0.1309055118110236
0
LINE
8
BLACK
6
CONTINUOUS
10
0.1273622047244095
20
0.1309055118110236
11
0.1820866141732284
21
0.1309055118110236
0
LINE
8
BLACK
6
CONTINUOUS
10
0.1820866141732284
20
0.1309055118110236
11
0.1820866141732284
21
0.1994094488188976
0
LINE
8
BLACK
6
CONTINUOUS
10
0.1820866141732284
20
0.1994094488188976
11
0.1822664173228346
21
0.2003134251968504
0
LINE
8
BLACK
6
CONTINUOUS
10
0.1822664173228346
20
0.2003134251968504
11
0.183544842519685
21
0.2015918503937008
0
LINE
8
BLACK
6
CONTINUOUS
10
0.183544842519685
20
0.2015918503937008
11
0.1853527952755905
21
0.2015918503937008
0
LINE
8
BLACK
6
CONTINUOUS
10
0.1853527952755905
20
0.2015918503937008
11
0.1866312204724409
21
0.2003134251968504
0
LINE
8
BLACK
6
CONTINUOUS
10
0.4029819291338583
20
0.1432611417322835
11
0.4042603543307087
21
0.1419827165354331
0
LINE
8
BLACK
6
CONTINUOUS
10
0.4042603543307087
20
0.1419827165354331
11
0.4042603543307087
21
0.1401747637795276
0
LINE
8
BLACK
6
CONTINUOUS
10
0.4042603543307087
20
0.1401747637795276
11
0.4029819291338583
21
0.1388963385826772
0
LINE
8
BLACK
6
CONTINUOUS
10
0.4029819291338583
20
0.1388963385826772
11
0.4020779527559055
21
0.1387165354330709
0
LINE
8
BLACK
6
CONTINUOUS
10
0.4020779527559055
20
0.1387165354330709
11
0.3892606299212598
21
0.1387165354330709
0
LINE
8
BLACK
6
CONTINUOUS
10
0.3892606299212598
20
0.1387165354330709
11
0.3883566535433071
21
0.1388963385826772
0
LINE
8
BLACK
6
CONTINUOUS
10
0.3883566535433071
20
0.1388963385826772
11
0.3870782283464567
21
0.1401747637795276
0
LINE
8
BLACK
6
CONTINUOUS
10
0.3870782283464567
20
0.1401747637795276
11
0.3870782283464567
21
0.1419827165354331
0
LINE
8
BLACK
6
CONTINUOUS
10
0.3870782283464567
20
0.1419827165354331
11
0.3883566535433071
21
0.1432611417322835
0
LINE
8
BLACK
6
CONTINUOUS
10
0.3883566535433071
20
0.1432611417322835
11
0.3892606299212598
21
0.1434409448818898
0
LINE
8
BLACK
6
CONTINUOUS
10
0.3892606299212598
20
0.1434409448818898
11
0.4020779527559055
21
0.1434409448818898
0
LINE
8
BLACK
6
CONTINUOUS
10
0.4020779527559055
20
0.1434409448818898
11
0.4029819291338583
21
0.1432611417322835
0
LINE
8
BLACK
6
CONTINUOUS
10
0.2292187007874016
20
0.1822311417322835
11
0.2299586614173228
21
0.1819844881889764
0
LINE
8
BLACK
6
CONTINUOUS
10
0.2299586614173228
20
0.1819844881889764
11
0.2300408661417323
21
0.1818200787401575
0
LINE
8
BLACK
6
CONTINUOUS
10
0.2300408661417323
20
0.1818200787401575
11
0.2302053149606299
21
0.1817378346456693
0
LINE
8
BLACK
6
CONTINUOUS
10
0.2302053149606299
20
0.1817378346456693
11
0.2306808267716535
21
0.1809037401574803
0
LINE
8
BLACK
6
CONTINUOUS
10
0.2306808267716535
20
0.1809037401574803
11
0.2372425196850394
21
0.1612187401574803
0
LINE
8
BLACK
6
CONTINUOUS
10
0.2372425196850394
20
0.1612187401574803
11
0.2373625590551181
21
0.1602661417322835
0
LINE
8
BLACK
6
CONTINUOUS
10
0.2373625590551181
20
0.1602661417322835
11
0.2365203543307086
21
0.1585817322834646
0
LINE
8
BLACK
6
CONTINUOUS
10
0.2365203543307086
20
0.1585817322834646
11
0.2347337007874016
21
0.1579861811023622
0
LINE
8
BLACK
6
CONTINUOUS
10
0.2347337007874016
20
0.1579861811023622
11
0.2330492913385827
21
0.1588283858267716
0
LINE
8
BLACK
6
CONTINUOUS
10
0.2330492913385827
20
0.1588283858267716
11
0.2325737795275591
21
0.1596624803149606
0
LINE
8
BLACK
6
CONTINUOUS
10
0.2325737795275591
20
0.1596624803149606
11
0.231259842519685
21
0.1636042519685039
0
LINE
8
BLACK
6
CONTINUOUS
10
0.231259842519685
20
0.1636042519685039
11
0.2254331102362205
21
0.1636042519685039
0
LINE
8
BLACK
6
CONTINUOUS
10
0.2254331102362205
20
0.1636042519685039
11
0.2241191732283465
21
0.1596624803149606
0
LINE
8
BLACK
6
CONTINUOUS
10
0.2241191732283465
20
0.1596624803149606
11
0.2236436614173228
21
0.1588283858267716
0
LINE
8
BLACK
6
CONTINUOUS
10
0.2236436614173228
20
0.1588283858267716
11
0.2219592519685039
21
0.1579861811023622
0
LINE
8
BLACK
6
CONTINUOUS
10
0.2219592519685039
20
0.1579861811023622
11
0.2201725984251968
21
0.1585817322834646
0
LINE
8
BLACK
6
CONTINUOUS
10
0.2201725984251968
20
0.1585817322834646
11
0.2193303937007874
21
0.1602661417322835
0
LINE
8
BLACK
6
CONTINUOUS
10
0.2193303937007874
20
0.1602661417322835
11
0.2194504330708661
21
0.1612187007874016
0
LINE
8
BLACK
6
CONTINUOUS
10
0.2194504330708661
20
0.1612187007874016
11
0.2260120866141732
21
0.1809037401574803
0
LINE
8
BLACK
6
CONTINUOUS
10
0.2260120866141732
20
0.1809037401574803
11
0.2264875984251968
21
0.1817378346456693
0
LINE
8
BLACK
6
CONTINUOUS
10
0.2264875984251968
20
0.1817378346456693
11
0.2266520078740157
21
0.1818200787401575
0
LINE
8
BLACK
6
CONTINUOUS
10
0.2266520078740157
20
0.1818200787401575
11
0.2267342519685039
21
0.1819844881889764
0
LINE
8
BLACK
6
CONTINUOUS
10
0.2267342519685039
20
0.1819844881889764
11
0.2274742125984252
21
0.1822311417322835
0
LINE
8
BLACK
6
CONTINUOUS
10
0.2274742125984252
20
0.1822311417322835
11
0.2281720078740157
21
0.1825800393700787
0
LINE
8
BLACK
6
CONTINUOUS
10
0.2281720078740157
20
0.1825800393700787
11
0.2283464566929134
21
0.1825218897637795
0
LINE
8
BLACK
6
CONTINUOUS
10
0.2283464566929134
20
0.1825218897637795
11
0.228520905511811
21
0.1825800393700787
0
LINE
8
BLACK
6
CONTINUOUS
10
0.228520905511811
20
0.1825800393700787
11
0.2292187007874016
21
0.1822311417322835
0
LINE
8
BLACK
6
CONTINUOUS
10
0.2270735039370079
20
0.1685255118110236
11
0.2296194488188976
21
0.1685255118110236
0
LINE
8
BLACK
6
CONTINUOUS
10
0.2296194488188976
20
0.1685255118110236
11
0.2283464566929134
21
0.1723444094488189
0
LINE
8
BLACK
6
CONTINUOUS
10
0.2283464566929134
20
0.1723444094488189
11
0.2270735039370079
21
0.1685255118110236
0
LINE
8
BLACK
6
CONTINUOUS
10
0.3134844094488189
20
0.1810672440944882
11
0.3134844094488189
21
0.1791840157480315
0
LINE
8
BLACK
6
CONTINUOUS
10
0.3134844094488189
20
0.1791840157480315
11
0.3129509842519685
21
0.1783857086614173
0
LINE
8
BLACK
6
CONTINUOUS
10
0.3129509842519685
20
0.1783857086614173
11
0.3060235433070866
21
0.1714583070866142
0
LINE
8
BLACK
6
CONTINUOUS
10
0.3060235433070866
20
0.1714583070866142
11
0.3131795669291338
21
0.161916968503937
0
LINE
8
BLACK
6
CONTINUOUS
10
0.3131795669291338
20
0.161916968503937
11
0.31359468503937
21
0.1610512598425197
0
LINE
8
BLACK
6
CONTINUOUS
10
0.31359468503937
20
0.1610512598425197
11
0.3133283464566929
21
0.1591869291338583
0
LINE
8
BLACK
6
CONTINUOUS
10
0.3133283464566929
20
0.1591869291338583
11
0.3118217322834645
21
0.158056968503937
0
LINE
8
BLACK
6
CONTINUOUS
10
0.3118217322834645
20
0.158056968503937
11
0.3099574015748031
21
0.1583233070866142
0
LINE
8
BLACK
6
CONTINUOUS
10
0.3099574015748031
20
0.1583233070866142
11
0.3092425590551181
21
0.1589642125984252
0
LINE
8
BLACK
6
CONTINUOUS
10
0.3092425590551181
20
0.1589642125984252
11
0.3025083858267716
21
0.1679431496062992
0
LINE
8
BLACK
6
CONTINUOUS
10
0.3025083858267716
20
0.1679431496062992
11
0.3024231102362205
21
0.1678578346456693
0
LINE
8
BLACK
6
CONTINUOUS
10
0.3024231102362205
20
0.1678578346456693
11
0.3024231102362205
21
0.1604405905511811
0
LINE
8
BLACK
6
CONTINUOUS
10
0.3024231102362205
20
0.1604405905511811
11
0.3022357874015748
21
0.159498937007874
0
LINE
8
BLACK
6
CONTINUOUS
10
0.3022357874015748
20
0.159498937007874
11
0.3009041338582677
21
0.1581672834645669
0
LINE
8
BLACK
6
CONTINUOUS
10
0.3009041338582677
20
0.1581672834645669
11
0.2990208267716535
21
0.1581672834645669
0
LINE
8
BLACK
6
CONTINUOUS
10
0.2990208267716535
20
0.1581672834645669
11
0.2976891732283464
21
0.159498937007874
0
LINE
8
BLACK
6
CONTINUOUS
10
0.2976891732283464
20
0.159498937007874
11
0.2975018503937008
21
0.1604405905511811
0
LINE
8
BLACK
6
CONTINUOUS
10
0.2975018503937008
20
0.1604405905511811
11
0.2975018503937008
21
0.1801256299212598
0
LINE
8
BLACK
6
CONTINUOUS
10
0.2975018503937008
20
0.1801256299212598
11
0.2976891732283464
21
0.1810672834645669
0
LINE
8
BLACK
6
CONTINUOUS
10
0.2976891732283464
20
0.1810672834645669
11
0.2990208267716535
21
0.182398937007874
0
LINE
8
BLACK
6
CONTINUOUS
10
0.2990208267716535
20
0.182398937007874
11
0.3009041338582677
21
0.182398937007874
0
LINE
8
BLACK
6
CONTINUOUS
10
0.3009041338582677
20
0.182398937007874
11
0.3022357874015748
21
0.1810672834645669
0
LINE
8
BLACK
6
CONTINUOUS
10
0.3022357874015748
20
0.1810672834645669
11
0.3024231102362205
21
0.1801256299212598
0
LINE
8
BLACK
6
CONTINUOUS
10
0.3024231102362205
20
0.1801256299212598
11
0.3024231102362205
21
0.1748175196850394
0
LINE
8
BLACK
6
CONTINUOUS
10
0.3024231102362205
20
0.1748175196850394
11
0.3094711417322835
21
0.1818655511811024
0
LINE
8
BLACK
6
CONTINUOUS
10
0.3094711417322835
20
0.1818655511811024
11
0.3102694488188976
21
0.1823989763779527
0
LINE
8
BLACK
6
CONTINUOUS
10
0.3102694488188976
20
0.1823989763779527
11
0.3121526771653543
21
0.1823989763779527
0
LINE
8
BLACK
6
CONTINUOUS
10
0.3121526771653543
20
0.1823989763779527
11
0.3134844094488189
21
0.1810672440944882
0
LINE
8
BLACK
6
CONTINUOUS
10
0.0185209842519685
20
0.4129118503937008
11
0.0187007874015748
21
0.412007874015748
0
LINE
8
BLACK
6
CONTINUOUS
10
0.0187007874015748
20
0.412007874015748
11
0.0187007874015748
21
0.1785433070866142
0
LINE
8
BLACK
6
CONTINUOUS
10
0.0187007874015748
20
0.1785433070866142
11
0.0185209842519685
21
0.1776393307086614
0
LINE
8
BLACK
6
CONTINUOUS
10
0.0185209842519685
20
0.1776393307086614
11
0.0172425590551181
21
0.176360905511811
0
LINE
8
BLACK
6
CONTINUOUS
10
0.0172425590551181
20
0.176360905511811
11
0.0154346062992126
21
0.176360905511811
0
LINE
8
BLACK
6
CONTINUOUS
10
0.0154346062992126
20
0.176360905511811
11
0.0141561811023622
21
0.1776393307086614
0
LINE
8
BLACK
6
CONTINUOUS
10
0.0141561811023622
20
0.1776393307086614
11
0.0139763779527559
21
0.1785433070866142
0
LINE
8
BLACK
6
CONTINUOUS
10
0.0139763779527559
20
0.1785433070866142
11
0.0139763779527559
21
0.412007874015748
0
LINE
8
BLACK
6
CONTINUOUS
10
0.0139763779527559
20
0.412007874015748
11
0.0141561811023622
21
0.4129118503937008
0
LINE
8
BLACK
6
CONTINUOUS
10
0.0141561811023622
20
0.4129118503937008
11
0.0154346062992126
21
0.4141902755905512
0
LINE
8
BLACK
6
CONTINUOUS
10
0.0154346062992126
20
0.4141902755905512
11
0.0172425590551181
21
0.4141902755905512
0
LINE
8
BLACK
6
CONTINUOUS
10
0.0172425590551181
20
0.4141902755905512
11
0.0185209842519685
21
0.4129118503937008
0
LINE
8
BLACK
6
CONTINUOUS
10
0.8122161417322834
20
0.2139182677165354
11
0.8127371653543307
21
0.2133972440944882
0
LINE
8
BLACK
6
CONTINUOUS
10
0.8127371653543307
20
0.2133972440944882
11
0.8221859842519685
21
0.2004051181102362
0
LINE
8
BLACK
6
CONTINUOUS
10
0.8221859842519685
20
0.2004051181102362
11
0.8226088976377952
21
0.1986473228346457
0
LINE
8
BLACK
6
CONTINUOUS
10
0.8226088976377952
20
0.1986473228346457
11
0.8216649606299212
21
0.1971053543307087
0
LINE
8
BLACK
6
CONTINUOUS
10
0.8216649606299212
20
0.1971053543307087
11
0.820275590551181
21
0.1966535433070866
0
LINE
8
BLACK
6
CONTINUOUS
10
0.820275590551181
20
0.1966535433070866
11
0.8013779527559055
21
0.1966535433070866
0
LINE
8
BLACK
6
CONTINUOUS
10
0.8013779527559055
20
0.1966535433070866
11
0.7997076377952755
21
0.1973454330708661
0
LINE
8
BLACK
6
CONTINUOUS
10
0.7997076377952755
20
0.1973454330708661
11
0.799015748031496
21
0.199015748031496
0
LINE
8
BLACK
6
CONTINUOUS
10
0.799015748031496
20
0.199015748031496
11
0.7994675590551181
21
0.2004051181102362
0
LINE
8
BLACK
6
CONTINUOUS
10
0.7994675590551181
20
0.2004051181102362
11
0.8089163779527558
21
0.2133972440944882
0
LINE
8
BLACK
6
CONTINUOUS
10
0.8089163779527558
20
0.2133972440944882
11
0.8104583464566929
21
0.2143411811023622
0
LINE
8
BLACK
6
CONTINUOUS
10
0.8104583464566929
20
0.2143411811023622
11
0.8122161417322834
21
0.2139182677165354
0
LINE
8
BLACK
6
CONTINUOUS
10
0.3364343700787402
20
0.2651756299212598
11
0.3366141732283465
21
0.2642716535433071
0
LINE
8
BLACK
6
CONTINUOUS
10
0.3366141732283465
20
0.2642716535433071
11
0.3366141732283465
21
0.2327755905511811
0
LINE
8
BLACK
6
CONTINUOUS
10
0.3366141732283465
20
0.2327755905511811
11
0.3366141732283465
21
0.2012795275590551
0
LINE
8
BLACK
6
CONTINUOUS
10
0.3366141732283465
20
0.2012795275590551
11
0.3364343700787402
21
0.2003755511811024
0
LINE
8
BLACK
6
CONTINUOUS
10
0.3364343700787402
20
0.2003755511811024
11
0.3351559448818898
21
0.199097125984252
0
LINE
8
BLACK
6
CONTINUOUS
10
0.3351559448818898
20
0.199097125984252
11
0.3333479921259843
21
0.199097125984252
0
LINE
8
BLACK
6
CONTINUOUS
10
0.3333479921259843
20
0.199097125984252
11
0.3320695669291339
21
0.2003755511811024
0
LINE
8
BLACK
6
CONTINUOUS
10
0.3320695669291339
20
0.2003755511811024
11
0.3318897637795276
21
0.2012795275590551
0
LINE
8
BLACK
6
CONTINUOUS
10
0.3318897637795276
20
0.2012795275590551
11
0.3318897637795276
21
0.2327755905511811
0
LINE
8
BLACK
6
CONTINUOUS
10
0.3318897637795276
20
0.2327755905511811
11
0.3318897637795276
21
0.2642716535433071
0
LINE
8
BLACK
6
CONTINUOUS
10
0.3318897637795276
20
0.2642716535433071
11
0.3320695669291339
21
0.2651756299212598
0
LINE
8
BLACK
6
CONTINUOUS
10
0.3320695669291339
20
0.2651756299212598
11
0.3333479921259843
21
0.2664540551181102
0
LINE
8
BLACK
6
CONTINUOUS
10
0.3333479921259843
20
0.2664540551181102
11
0.3351559448818898
21
0.2664540551181102
0
LINE
8
BLACK
6
CONTINUOUS
10
0.3351559448818898
20
0.2664540551181102
11
0.3364343700787402
21
0.2651756299212598
0
LINE
8
BLACK
6
CONTINUOUS
10
0.4592690157480315
20
0.2651756299212598
11
0.4594488188976378
21
0.2642716535433071
0
LINE
8
BLACK
6
CONTINUOUS
10
0.4594488188976378
20
0.2642716535433071
11
0.4594488188976378
21
0.2327755905511811
0
LINE
8
BLACK
6
CONTINUOUS
10
0.4594488188976378
20
0.2327755905511811
11
0.4594488188976378
21
0.2012795275590551
0
LINE
8
BLACK
6
CONTINUOUS
10
0.4594488188976378
20
0.2012795275590551
11
0.4592690157480315
21
0.2003755511811024
0
LINE
8
BLACK
6
CONTINUOUS
10
0.4592690157480315
20
0.2003755511811024
11
0.4579905905511811
21
0.199097125984252
0
LINE
8
BLACK
6
CONTINUOUS
10
0.4579905905511811
20
0.199097125984252
11
0.4561826377952756
21
0.199097125984252
0
LINE
8
BLACK
6
CONTINUOUS
10
0.4561826377952756
20
0.199097125984252
11
0.4549042125984252
21
0.2003755511811024
0
LINE
8
BLACK
6
CONTINUOUS
10
0.4549042125984252
20
0.2003755511811024
11
0.4547244094488189
21
0.2012795275590551
0
LINE
8
BLACK
6
CONTINUOUS
10
0.4547244094488189
20
0.2012795275590551
11
0.4547244094488189
21
0.2327755905511811
0
LINE
8
BLACK
6
CONTINUOUS
10
0.4547244094488189
20
0.2327755905511811
11
0.4547244094488189
21
0.2642716535433071
0
LINE
8
BLACK
6
CONTINUOUS
10
0.4547244094488189
20
0.2642716535433071
11
0.4549042125984252
21
0.2651756299212598
0
LINE
8
BLACK
6
CONTINUOUS
10
0.4549042125984252
20
0.2651756299212598
11
0.4561826377952756
21
0.2664540551181102
0
LINE
8
BLACK
6
CONTINUOUS
10
0.4561826377952756
20
0.2664540551181102
11
0.4579905905511811
21
0.2664540551181102
0
LINE
8
BLACK
6
CONTINUOUS
10
0.4579905905511811
20
0.2664540551181102
11
0.4592690157480315
21
0.2651756299212598
0
LINE
8
BLACK
6
CONTINUOUS
10
0.6658137007874015
20
0.2144629921259842
11
0.6666283464566929
21
0.2136483464566929
0
LINE
8
BLACK
6
CONTINUOUS
10
0.6666283464566929
20
0.2136483464566929
11
0.667069251968504
21
0.212583937007874
0
LINE
8
BLACK
6
CONTINUOUS
10
0.667069251968504
20
0.212583937007874
11
0.6671259842519685
21
0.212007874015748
0
LINE
8
BLACK
6
CONTINUOUS
10
0.6671259842519685
20
0.212007874015748
11
0.6671259842519685
21
0.2061023622047244
0
LINE
8
BLACK
6
CONTINUOUS
10
0.6671259842519685
20
0.2061023622047244
11
0.7891732283464566
21
0.2061023622047244
0
LINE
8
BLACK
6
CONTINUOUS
10
0.7891732283464566
20
0.2061023622047244
11
0.7891732283464566
21
0.212007874015748
0
LINE
8
BLACK
6
CONTINUOUS
10
0.7891732283464566
20
0.212007874015748
11
0.7892299606299212
21
0.212583937007874
0
LINE
8
BLACK
6
CONTINUOUS
10
0.7892299606299212
20
0.212583937007874
11
0.7896708661417323
21
0.2136483464566929
0
LINE
8
BLACK
6
CONTINUOUS
10
0.7896708661417323
20
0.2136483464566929
11
0.7904855118110236
21
0.2144629921259842
0
LINE
8
BLACK
6
CONTINUOUS
10
0.7904855118110236
20
0.2144629921259842
11
0.7915499212598425
21
0.2149038976377953
0
LINE
8
BLACK
6
CONTINUOUS
10
0.7915499212598425
20
0.2149038976377953
11
0.7927020472440944
21
0.2149038976377953
0
LINE
8
BLACK
6
CONTINUOUS
10
0.7927020472440944
20
0.2149038976377953
11
0.7937664566929133
21
0.2144629921259842
0
LINE
8
BLACK
6
CONTINUOUS
10
0.7937664566929133
20
0.2144629921259842
11
0.7945811023622047
21
0.2136483464566929
0
LINE
8
BLACK
6
CONTINUOUS
10
0.7945811023622047
20
0.2136483464566929
11
0.7950220078740158
21
0.212583937007874
0
LINE
8
BLACK
6
CONTINUOUS
10
0.7950220078740158
20
0.212583937007874
11
0.7950787401574803
21
0.212007874015748
0
LINE
8
BLACK
6
CONTINUOUS
10
0.7950787401574803
20
0.212007874015748
11
0.7950787401574803
21
0.2031496062992126
0
LINE
8
BLACK
6
CONTINUOUS
10
0.7950787401574803
20
0.2031496062992126
11
0.7950220078740158
21
0.2025735433070866
0
LINE
8
BLACK
6
CONTINUOUS
10
0.7950220078740158
20
0.2025735433070866
11
0.7945811023622047
21
0.2015091338582677
0
LINE
8
BLACK
6
CONTINUOUS
10
0.7945811023622047
20
0.2015091338582677
11
0.7937664566929133
21
0.2006944881889764
0
LINE
8
BLACK
6
CONTINUOUS
10
0.7937664566929133
20
0.2006944881889764
11
0.7927020472440944
21
0.2002535826771653
0
LINE
8
BLACK
6
CONTINUOUS
10
0.7927020472440944
20
0.2002535826771653
11
0.7921259842519685
21
0.2001968503937008
0
LINE
8
BLACK
6
CONTINUOUS
10
0.7921259842519685
20
0.2001968503937008
11
0.6641732283464566
21
0.2001968503937008
0
LINE
8
BLACK
6
CONTINUOUS
10
0.6641732283464566
20
0.2001968503937008
11
0.6635971653543307
21
0.2002535826771653
0
LINE
8
BLACK
6
CONTINUOUS
10
0.6635971653543307
20
0.2002535826771653
11
0.6625327559055117
21
0.2006944881889764
0
LINE
8
BLACK
6
CONTINUOUS
10
0.6625327559055117
20
0.2006944881889764
11
0.6617181102362204
21
0.2015091338582677
0
LINE
8
BLACK
6
CONTINUOUS
10
0.6617181102362204
20
0.2015091338582677
11
0.6612772047244094
21
0.2025735433070866
0
LINE
8
BLACK
6
CONTINUOUS
10
0.6612772047244094
20
0.2025735433070866
11
0.6612204724409448
21
0.2031496062992126
0
LINE
8
BLACK
6
CONTINUOUS
10
0.6612204724409448
20
0.2031496062992126
11
0.6612204724409448
21
0.212007874015748
0
LINE
8
BLACK
6
CONTINUOUS
10
0.6612204724409448
20
0.212007874015748
11
0.6612772047244094
21
0.212583937007874
0
LINE
8
BLACK
6
CONTINUOUS
10
0.6612772047244094
20
0.212583937007874
11
0.6617181102362204
21
0.2136483464566929
0
LINE
8
BLACK
6
CONTINUOUS
10
0.6617181102362204
20
0.2136483464566929
11
0.6625327559055117
21
0.2144629921259842
0
LINE
8
BLACK
6
CONTINUOUS
10
0.6625327559055117
20
0.2144629921259842
11
0.6635971653543307
21
0.2149038976377953
0
LINE
8
BLACK
6
CONTINUOUS
10
0.6635971653543307
20
0.2149038976377953
11
0.6647492913385826
21
0.2149038976377953
0
LINE
8
BLACK
6
CONTINUOUS
10
0.6647492913385826
20
0.2149038976377953
11
0.6658137007874015
21
0.2144629921259842
0
LINE
8
BLACK
6
CONTINUOUS
10
0.4887965748031496
20
0.2434346456692913
11
0.4889763779527559
21
0.2425306692913386
0
LINE
8
BLACK
6
CONTINUOUS
10
0.4889763779527559
20
0.2425306692913386
11
0.4889763779527559
21
0.2297134251968504
0
LINE
8
BLACK
6
CONTINUOUS
10
0.4889763779527559
20
0.2297134251968504
11
0.4887965748031496
21
0.2288094488188976
0
LINE
8
BLACK
6
CONTINUOUS
10
0.4887965748031496
20
0.2288094488188976
11
0.4875181496062992
21
0.2275310236220472
0
LINE
8
BLACK
6
CONTINUOUS
10
0.4875181496062992
20
0.2275310236220472
11
0.4857101968503937
21
0.2275310236220472
0
LINE
8
BLACK
6
CONTINUOUS
10
0.4857101968503937
20
0.2275310236220472
11
0.4844317716535433
21
0.2288094488188976
0
LINE
8
BLACK
6
CONTINUOUS
10
0.4844317716535433
20
0.2288094488188976
11
0.484251968503937
21
0.2297134251968504
0
LINE
8
BLACK
6
CONTINUOUS
10
0.484251968503937
20
0.2297134251968504
11
0.484251968503937
21
0.2425306692913386
0
LINE
8
BLACK
6
CONTINUOUS
10
0.484251968503937
20
0.2425306692913386
11
0.4844317716535433
21
0.2434346456692913
0
LINE
8
BLACK
6
CONTINUOUS
10
0.4844317716535433
20
0.2434346456692913
11
0.4857101968503937
21
0.2447130708661417
0
LINE
8
BLACK
6
CONTINUOUS
10
0.4857101968503937
20
0.2447130708661417
11
0.4875181496062992
21
0.2447130708661417
0
LINE
8
BLACK
6
CONTINUOUS
10
0.4875181496062992
20
0.2447130708661417
11
0.4887965748031496
21
0.2434346456692913
0
LINE
8
BLACK
6
CONTINUOUS
10
0.5289540551181102
20
0.2434346456692913
11
0.5291338582677165
21
0.2425306692913386
0
LINE
8
BLACK
6
CONTINUOUS
10
0.5291338582677165
20
0.2425306692913386
11
0.5291338582677165
21
0.2297134251968504
0
LINE
8
BLACK
6
CONTINUOUS
10
0.5291338582677165
20
0.2297134251968504
11
0.5289540551181102
21
0.2288094488188976
0
LINE
8
BLACK
6
CONTINUOUS
10
0.5289540551181102
20
0.2288094488188976
11
0.5276756299212598
21
0.2275310236220472
0
LINE
8
BLACK
6
CONTINUOUS
10
0.5276756299212598
20
0.2275310236220472
11
0.5258676771653543
21
0.2275310236220472
0
LINE
8
BLACK
6
CONTINUOUS
10
0.5258676771653543
20
0.2275310236220472
11
0.5245892519685039
21
0.2288094488188976
0
LINE
8
BLACK
6
CONTINUOUS
10
0.5245892519685039
20
0.2288094488188976
11
0.5244094488188976
21
0.2297134251968504
0
LINE
8
BLACK
6
CONTINUOUS
10
0.5244094488188976
20
0.2297134251968504
11
0.5244094488188976
21
0.2425306692913386
0
LINE
8
BLACK
6
CONTINUOUS
10
0.5244094488188976
20
0.2425306692913386
11
0.5245892519685039
21
0.2434346456692913
0
LINE
8
BLACK
6
CONTINUOUS
10
0.5245892519685039
20
0.2434346456692913
11
0.5258676771653543
21
0.2447130708661417
0
LINE
8
BLACK
6
CONTINUOUS
10
0.5258676771653543
20
0.2447130708661417
11
0.5276756299212598
21
0.2447130708661417
0
LINE
8
BLACK
6
CONTINUOUS
10
0.5276756299212598
20
0.2447130708661417
11
0.5289540551181102
21
0.2434346456692913
0
LINE
8
BLACK
6
CONTINUOUS
10
0.5547414566929134
20
0.2434346456692913
11
0.5549212598425197
21
0.2425306692913386
0
LINE
8
BLACK
6
CONTINUOUS
10
0.5549212598425197
20
0.2425306692913386
11
0.5549212598425197
21
0.2297134251968504
0
LINE
8
BLACK
6
CONTINUOUS
10
0.5549212598425197
20
0.2297134251968504
11
0.5547414566929134
21
0.2288094488188976
0
LINE
8
BLACK
6
CONTINUOUS
10
0.5547414566929134
20
0.2288094488188976
11
0.553463031496063
21
0.2275310236220472
0
LINE
8
BLACK
6
CONTINUOUS
10
0.553463031496063
20
0.2275310236220472
11
0.5516550787401575
21
0.2275310236220472
0
LINE
8
BLACK
6
CONTINUOUS
10
0.5516550787401575
20
0.2275310236220472
11
0.5503766535433071
21
0.2288094488188976
0
LINE
8
BLACK
6
CONTINUOUS
10
0.5503766535433071
20
0.2288094488188976
11
0.5501968503937008
21
0.2297134251968504
0
LINE
8
BLACK
6
CONTINUOUS
10
0.5501968503937008
20
0.2297134251968504
11
0.5501968503937008
21
0.2425306692913386
0
LINE
8
BLACK
6
CONTINUOUS
10
0.5501968503937008
20
0.2425306692913386
11
0.5503766535433071
21
0.2434346456692913
0
LINE
8
BLACK
6
CONTINUOUS
10
0.5503766535433071
20
0.2434346456692913
11
0.5516550787401575
21
0.2447130708661417
0
LINE
8
BLACK
6
CONTINUOUS
10
0.5516550787401575
20
0.2447130708661417
11
0.553463031496063
21
0.2447130708661417
0
LINE
8
BLACK
6
CONTINUOUS
10
0.553463031496063
20
0.2447130708661417
11
0.5547414566929134
21
0.2434346456692913
0
LINE
8
BLACK
6
CONTINUOUS
10
0.594898937007874
20
0.2434346456692913
11
0.5950787401574803
21
0.2425306692913386
0
LINE
8
BLACK
6
CONTINUOUS
10
0.5950787401574803
20
0.2425306692913386
11
0.5950787401574803
21
0.2297134251968504
0
LINE
8
BLACK
6
CONTINUOUS
10
0.5950787401574803
20
0.2297134251968504
11
0.594898937007874
21
0.2288094488188976
0
LINE
8
BLACK
6
CONTINUOUS
10
0.594898937007874
20
0.2288094488188976
11
0.5936205118110236
21
0.2275310236220472
0
LINE
8
BLACK
6
CONTINUOUS
10
0.5936205118110236
20
0.2275310236220472
11
0.5918125590551181
21
0.2275310236220472
0
LINE
8
BLACK
6
CONTINUOUS
10
0.5918125590551181
20
0.2275310236220472
11
0.5905341338582677
21
0.2288094488188976
0
LINE
8
BLACK
6
CONTINUOUS
10
0.5905341338582677
20
0.2288094488188976
11
0.5903543307086614
21
0.2297134251968504
0
LINE
8
BLACK
6
CONTINUOUS
10
0.5903543307086614
20
0.2297134251968504
11
0.5903543307086614
21
0.2425306692913386
0
LINE
8
BLACK
6
CONTINUOUS
10
0.5903543307086614
20
0.2425306692913386
11
0.5905341338582677
21
0.2434346456692913
0
LINE
8
BLACK
6
CONTINUOUS
10
0.5905341338582677
20
0.2434346456692913
11
0.5918125590551181
21
0.2447130708661417
0
LINE
8
BLACK
6
CONTINUOUS
10
0.5918125590551181
20
0.2447130708661417
11
0.5936205118110236
21
0.2447130708661417
0
LINE
8
BLACK
6
CONTINUOUS
10
0.5936205118110236
20
0.2447130708661417
11
0.594898937007874
21
0.2434346456692913
0
LINE
8
BLACK
6
CONTINUOUS
10
0.4700206299212598
20
0.2947948818897638
11
0.4704724409448819
21
0.2934055118110236
0
LINE
8
BLACK
6
CONTINUOUS
10
0.4704724409448819
20
0.2934055118110236
11
0.4704724409448819
21
0.274507874015748
0
LINE
8
BLACK
6
CONTINUOUS
10
0.4704724409448819
20
0.274507874015748
11
0.4697805511811023
21
0.2728375590551181
0
LINE
8
BLACK
6
CONTINUOUS
10
0.4697805511811023
20
0.2728375590551181
11
0.4681102362204724
21
0.2721456692913386
0
LINE
8
BLACK
6
CONTINUOUS
10
0.4681102362204724
20
0.2721456692913386
11
0.4667208661417322
21
0.2725974803149606
0
LINE
8
BLACK
6
CONTINUOUS
10
0.4667208661417322
20
0.2725974803149606
11
0.4537287401574803
21
0.2820462992125984
0
LINE
8
BLACK
6
CONTINUOUS
10
0.4537287401574803
20
0.2820462992125984
11
0.4527848031496063
21
0.2835882677165354
0
LINE
8
BLACK
6
CONTINUOUS
10
0.4527848031496063
20
0.2835882677165354
11
0.4532077165354331
21
0.285346062992126
0
LINE
8
BLACK
6
CONTINUOUS
10
0.4532077165354331
20
0.285346062992126
11
0.4537287401574803
21
0.2858670866141732
0
LINE
8
BLACK
6
CONTINUOUS
10
0.4537287401574803
20
0.2858670866141732
11
0.4667208661417322
21
0.295315905511811
0
LINE
8
BLACK
6
CONTINUOUS
10
0.4667208661417322
20
0.295315905511811
11
0.4684786614173228
21
0.2957388188976378
0
LINE
8
BLACK
6
CONTINUOUS
10
0.4684786614173228
20
0.2957388188976378
11
0.4700206299212598
21
0.2947948818897638
0
LINE
8
BLACK
6
CONTINUOUS
10
0.7927020472440944
20
0.3339983858267717
11
0.7937664566929133
21
0.3335574803149606
0
LINE
8
BLACK
6
CONTINUOUS
10
0.7937664566929133
20
0.3335574803149606
11
0.7945811023622047
21
0.3327428346456693
0
LINE
8
BLACK
6
CONTINUOUS
10
0.7945811023622047
20
0.3327428346456693
11
0.7950220078740158
21
0.3316784251968504
0
LINE
8
BLACK
6
CONTINUOUS
10
0.7950220078740158
20
0.3316784251968504
11
0.7950787401574803
21
0.3311023622047244
0
LINE
8
BLACK
6
CONTINUOUS
10
0.7950787401574803
20
0.3311023622047244
11
0.7950787401574803
21
0.322244094488189
0
LINE
8
BLACK
6
CONTINUOUS
10
0.7950787401574803
20
0.322244094488189
11
0.7950220078740158
21
0.321668031496063
0
LINE
8
BLACK
6
CONTINUOUS
10
0.7950220078740158
20
0.321668031496063
11
0.7945811023622047
21
0.3206036220472441
0
LINE
8
BLACK
6
CONTINUOUS
10
0.7945811023622047
20
0.3206036220472441
11
0.7937664566929133
21
0.3197889763779527
0
LINE
8
BLACK
6
CONTINUOUS
10
0.7937664566929133
20
0.3197889763779527
11
0.7927020472440944
21
0.3193480708661417
0
LINE
8
BLACK
6
CONTINUOUS
10
0.7927020472440944
20
0.3193480708661417
11
0.7915499212598425
21
0.3193480708661417
0
LINE
8
BLACK
6
CONTINUOUS
10
0.7915499212598425
20
0.3193480708661417
11
0.7904855118110236
21
0.3197889763779527
0
LINE
8
BLACK
6
CONTINUOUS
10
0.7904855118110236
20
0.3197889763779527
11
0.7896708661417323
21
0.3206036220472441
0
LINE
8
BLACK
6
CONTINUOUS
10
0.7896708661417323
20
0.3206036220472441
11
0.7892299606299212
21
0.321668031496063
0
LINE
8
BLACK
6
CONTINUOUS
10
0.7892299606299212
20
0.321668031496063
11
0.7891732283464566
21
0.322244094488189
0
LINE
8
BLACK
6
CONTINUOUS
10
0.7891732283464566
20
0.322244094488189
11
0.7891732283464566
21
0.3281496062992126
0
LINE
8
BLACK
6
CONTINUOUS
10
0.7891732283464566
20
0.3281496062992126
11
0.6671259842519685
21
0.3281496062992126
0
LINE
8
BLACK
6
CONTINUOUS
10
0.6671259842519685
20
0.3281496062992126
11
0.6671259842519685
21
0.322244094488189
0
LINE
8
BLACK
6
CONTINUOUS
10
0.6671259842519685
20
0.322244094488189
11
0.667069251968504
21
0.321668031496063
0
LINE
8
BLACK
6
CONTINUOUS
10
0.667069251968504
20
0.321668031496063
11
0.6666283464566929
21
0.3206036220472441
0
LINE
8
BLACK
6
CONTINUOUS
10
0.6666283464566929
20
0.3206036220472441
11
0.6658137007874015
21
0.3197889763779527
0
LINE
8
BLACK
6
CONTINUOUS
10
0.6658137007874015
20
0.3197889763779527
11
0.6647492913385826
21
0.3193480708661417
0
LINE
8
BLACK
6
CONTINUOUS
10
0.6647492913385826
20
0.3193480708661417
11
0.6635971653543307
21
0.3193480708661417
0
LINE
8
BLACK
6
CONTINUOUS
10
0.6635971653543307
20
0.3193480708661417
11
0.6625327559055117
21
0.3197889763779527
0
LINE
8
BLACK
6
CONTINUOUS
10
0.6625327559055117
20
0.3197889763779527
11
0.6617181102362204
21
0.3206036220472441
0
LINE
8
BLACK
6
CONTINUOUS
10
0.6617181102362204
20
0.3206036220472441
11
0.6612772047244094
21
0.321668031496063
0
LINE
8
BLACK
6
CONTINUOUS
10
0.6612772047244094
20
0.321668031496063
11
0.6612204724409448
21
0.322244094488189
0
LINE
8
BLACK
6
CONTINUOUS
10
0.6612204724409448
20
0.322244094488189
11
0.6612204724409448
21
0.3311023622047244
0
LINE
8
BLACK
6
CONTINUOUS
10
0.6612204724409448
20
0.3311023622047244
11
0.6612772047244094
21
0.3316784251968504
0
LINE
8
BLACK
6
CONTINUOUS
10
0.6612772047244094
20
0.3316784251968504
11
0.6617181102362204
21
0.3327428346456693
0
LINE
8
BLACK
6
CONTINUOUS
10
0.6617181102362204
20
0.3327428346456693
11
0.6625327559055117
21
0.3335574803149606
0
LINE
8
BLACK
6
CONTINUOUS
10
0.6625327559055117
20
0.3335574803149606
11
0.6635971653543307
21
0.3339983858267717
0
LINE
8
BLACK
6
CONTINUOUS
10
0.6635971653543307
20
0.3339983858267717
11
0.6641732283464566
21
0.3340551181102362
0
LINE
8
BLACK
6
CONTINUOUS
10
0.6641732283464566
20
0.3340551181102362
11
0.7921259842519685
21
0.3340551181102362
0
LINE
8
BLACK
6
CONTINUOUS
10
0.7921259842519685
20
0.3340551181102362
11
0.7927020472440944
21
0.3339983858267717
0
LINE
8
BLACK
6
CONTINUOUS
10
0.4649461417322834
20
0.3415180708661417
11
0.4660105511811024
21
0.3410771653543307
0
LINE
8
BLACK
6
CONTINUOUS
10
0.4660105511811024
20
0.3410771653543307
11
0.4668251968503937
21
0.3402625196850393
0
LINE
8
BLACK
6
CONTINUOUS
10
0.4668251968503937
20
0.3402625196850393
11
0.4672661023622047
21
0.3391981102362205
0
LINE
8
BLACK
6
CONTINUOUS
10
0.4672661023622047
20
0.3391981102362205
11
0.4672661023622047
21
0.3380459842519685
0
LINE
8
BLACK
6
CONTINUOUS
10
0.4672661023622047
20
0.3380459842519685
11
0.4668251968503937
21
0.3369815748031496
0
LINE
8
BLACK
6
CONTINUOUS
10
0.4668251968503937
20
0.3369815748031496
11
0.4660105511811024
21
0.3361669291338583
0
LINE
8
BLACK
6
CONTINUOUS
10
0.4660105511811024
20
0.3361669291338583
11
0.4649461417322834
21
0.3357260236220472
0
LINE
8
BLACK
6
CONTINUOUS
10
0.4649461417322834
20
0.3357260236220472
11
0.4643700787401575
21
0.3356692913385826
0
LINE
8
BLACK
6
CONTINUOUS
10
0.4643700787401575
20
0.3356692913385826
11
0.4043700787401575
21
0.3356692913385826
0
LINE
8
BLACK
6
CONTINUOUS
10
0.4043700787401575
20
0.3356692913385826
11
0.4037940157480315
21
0.3357260236220472
0
LINE
8
BLACK
6
CONTINUOUS
10
0.4037940157480315
20
0.3357260236220472
11
0.4027296062992126
21
0.3361669291338583
0
LINE
8
BLACK
6
CONTINUOUS
10
0.4027296062992126
20
0.3361669291338583
11
0.4019149606299213
21
0.3369815748031496
0
LINE
8
BLACK
6
CONTINUOUS
10
0.4019149606299213
20
0.3369815748031496
11
0.4014740551181102
21
0.3380459842519685
0
LINE
8
BLACK
6
CONTINUOUS
10
0.4014740551181102
20
0.3380459842519685
11
0.4014740551181102
21
0.3391981102362205
0
LINE
8
BLACK
6
CONTINUOUS
10
0.4014740551181102
20
0.3391981102362205
11
0.4019149606299213
21
0.3402625196850393
0
LINE
8
BLACK
6
CONTINUOUS
10
0.4019149606299213
20
0.3402625196850393
11
0.4027296062992126
21
0.3410771653543307
0
LINE
8
BLACK
6
CONTINUOUS
10
0.4027296062992126
20
0.3410771653543307
11
0.4037940157480315
21
0.3415180708661417
0
LINE
8
BLACK
6
CONTINUOUS
10
0.4037940157480315
20
0.3415180708661417
11
0.4043700787401575
21
0.3415748031496063
0
LINE
8
BLACK
6
CONTINUOUS
10
0.4043700787401575
20
0.3415748031496063
11
0.4643700787401575
21
0.3415748031496063
0
LINE
8
BLACK
6
CONTINUOUS
10
0.4643700787401575
20
0.3415748031496063
11
0.4649461417322834
21
0.3415180708661417
0
LINE
8
BLACK
6
CONTINUOUS
10
0.3353713779527559
20
0.4173016141732284
11
0.3355511811023622
21
0.4163976377952756
0
LINE
8
BLACK
6
CONTINUOUS
10
0.3355511811023622
20
0.4163976377952756
11
0.3355511811023622
21
0.3415944881889764
0
LINE
8
BLACK
6
CONTINUOUS
10
0.3355511811023622
20
0.3415944881889764
11
0.3780708661417323
21
0.3415944881889764
0
LINE
8
BLACK
6
CONTINUOUS
10
0.3780708661417323
20
0.3415944881889764
11
0.3780708661417323
21
0.4163976377952756
0
LINE
8
BLACK
6
CONTINUOUS
10
0.3780708661417323
20
0.4163976377952756
11
0.3782506692913385
21
0.4173016141732284
0
LINE
8
BLACK
6
CONTINUOUS
10
0.3782506692913385
20
0.4173016141732284
11
0.3795290944881889
21
0.4185800393700787
0
LINE
8
BLACK
6
CONTINUOUS
10
0.3795290944881889
20
0.4185800393700787
11
0.3813370472440945
21
0.4185800393700787
0
LINE
8
BLACK
6
CONTINUOUS
10
0.3813370472440945
20
0.4185800393700787
11
0.3826154724409448
21
0.4173016141732284
0
LINE
8
BLACK
6
CONTINUOUS
10
0.3826154724409448
20
0.4173016141732284
11
0.3827952755905512
21
0.4163976377952756
0
LINE
8
BLACK
6
CONTINUOUS
10
0.3827952755905512
20
0.4163976377952756
11
0.3827952755905512
21
0.3392322834645669
0
LINE
8
BLACK
6
CONTINUOUS
10
0.3827952755905512
20
0.3392322834645669
11
0.3826154724409448
21
0.3383283070866142
0
LINE
8
BLACK
6
CONTINUOUS
10
0.3826154724409448
20
0.3383283070866142
11
0.3813370472440945
21
0.3370498818897638
0
LINE
8
BLACK
6
CONTINUOUS
10
0.3813370472440945
20
0.3370498818897638
11
0.3804330708661417
21
0.3368700787401575
0
LINE
8
BLACK
6
CONTINUOUS
10
0.3804330708661417
20
0.3368700787401575
11
0.3331889763779528
21
0.3368700787401575
0
LINE
8
BLACK
6
CONTINUOUS
10
0.3331889763779528
20
0.3368700787401575
11
0.332285
21
0.3370498818897638
0
LINE
8
BLACK
6
CONTINUOUS
10
0.332285
20
0.3370498818897638
11
0.3310065748031496
21
0.3383283070866142
0
LINE
8
BLACK
6
CONTINUOUS
10
0.3310065748031496
20
0.3383283070866142
11
0.3308267716535433
21
0.3392322834645669
0
LINE
8
BLACK
6
CONTINUOUS
10
0.3308267716535433
20
0.3392322834645669
11
0.3308267716535433
21
0.4163976377952756
0
LINE
8
BLACK
6
CONTINUOUS
10
0.3308267716535433
20
0.4163976377952756
11
0.3310065748031496
21
0.4173016141732284
0
LINE
8
BLACK
6
CONTINUOUS
10
0.3310065748031496
20
0.4173016141732284
11
0.332285
21
0.4185800393700787
0
LINE
8
BLACK
6
CONTINUOUS
10
0.332285
20
0.4185800393700787
11
0.3340929527559055
21
0.4185800393700787
0
LINE
8
BLACK
6
CONTINUOUS
10
0.3340929527559055
20
0.4185800393700787
11
0.3353713779527559
21
0.4173016141732284
0
LINE
8
BLACK
6
CONTINUOUS
10
0.2690131102362205
20
0.3901661023622047
11
0.2691929133858268
21
0.389262125984252
0
LINE
8
BLACK
6
CONTINUOUS
10
0.2691929133858268
20
0.389262125984252
11
0.2691929133858268
21
0.3705803937007874
0
LINE
8
BLACK
6
CONTINUOUS
10
0.2691929133858268
20
0.3705803937007874
11
0.2690131102362205
21
0.3696764173228346
0
LINE
8
BLACK
6
CONTINUOUS
10
0.2690131102362205
20
0.3696764173228346
11
0.2677346850393701
21
0.3683979921259842
0
LINE
8
BLACK
6
CONTINUOUS
10
0.2677346850393701
20
0.3683979921259842
11
0.2659267322834646
21
0.3683979921259842
0
LINE
8
BLACK
6
CONTINUOUS
10
0.2659267322834646
20
0.3683979921259842
11
0.2646483070866142
21
0.3696764173228346
0
LINE
8
BLACK
6
CONTINUOUS
10
0.2646483070866142
20
0.3696764173228346
11
0.2644685039370079
21
0.3705803937007874
0
LINE
8
BLACK
6
CONTINUOUS
10
0.2644685039370079
20
0.3705803937007874
11
0.2644685039370079
21
0.389262125984252
0
LINE
8
BLACK
6
CONTINUOUS
10
0.2644685039370079
20
0.389262125984252
11
0.2646483070866142
21
0.3901661023622047
0
LINE
8
BLACK
6
CONTINUOUS
10
0.2646483070866142
20
0.3901661023622047
11
0.2659267322834646
21
0.3914445275590551
0
LINE
8
BLACK
6
CONTINUOUS
10
0.2659267322834646
20
0.3914445275590551
11
0.2677346850393701
21
0.3914445275590551
0
LINE
8
BLACK
6
CONTINUOUS
10
0.2677346850393701
20
0.3914445275590551
11
0.2690131102362205
21
0.3901661023622047
0
LINE
8
BLACK
6
CONTINUOUS
10
0.3101548425196851
20
0.3901661023622047
11
0.3103346456692913
21
0.389262125984252
0
LINE
8
BLACK
6
CONTINUOUS
10
0.3103346456692913
20
0.389262125984252
11
0.3103346456692913
21
0.3705803937007874
0
LINE
8
BLACK
6
CONTINUOUS
10
0.3103346456692913
20
0.3705803937007874
11
0.3101548425196851
21
0.3696764173228346
0
LINE
8
BLACK
6
CONTINUOUS
10
0.3101548425196851
20
0.3696764173228346
11
0.3088764173228347
21
0.3683979921259842
0
LINE
8
BLACK
6
CONTINUOUS
10
0.3088764173228347
20
0.3683979921259842
11
0.3070684645669291
21
0.3683979921259842
0
LINE
8
BLACK
6
CONTINUOUS
10
0.3070684645669291
20
0.3683979921259842
11
0.3057900393700788
21
0.3696764173228346
0
LINE
8
BLACK
6
CONTINUOUS
10
0.3057900393700788
20
0.3696764173228346
11
0.3056102362204725
21
0.3705803937007874
0
LINE
8
BLACK
6
CONTINUOUS
10
0.3056102362204725
20
0.3705803937007874
11
0.3056102362204725
21
0.389262125984252
0
LINE
8
BLACK
6
CONTINUOUS
10
0.3056102362204725
20
0.389262125984252
11
0.3057900393700788
21
0.3901661023622047
0
LINE
8
BLACK
6
CONTINUOUS
10
0.3057900393700788
20
0.3901661023622047
11
0.3070684645669291
21
0.3914445275590551
0
LINE
8
BLACK
6
CONTINUOUS
10
0.3070684645669291
20
0.3914445275590551
11
0.3088764173228347
21
0.3914445275590551
0
LINE
8
BLACK
6
CONTINUOUS
10
0.3088764173228347
20
0.3914445275590551
11
0.3101548425196851
21
0.3901661023622047
0
LINE
8
BLACK
6
CONTINUOUS
10
0.4065524803149606
20
0.4145260236220472
11
0.4067322834645669
21
0.4136220472440945
0
LINE
8
BLACK
6
CONTINUOUS
10
0.4067322834645669
20
0.4136220472440945
11
0.4067322834645669
21
0.3836220472440945
0
LINE
8
BLACK
6
CONTINUOUS
10
0.4067322834645669
20
0.3836220472440945
11
0.4065524803149606
21
0.3827180708661417
0
LINE
8
BLACK
6
CONTINUOUS
10
0.4065524803149606
20
0.3827180708661417
11
0.4052740551181102
21
0.3814396456692913
0
LINE
8
BLACK
6
CONTINUOUS
10
0.4052740551181102
20
0.3814396456692913
11
0.4034661023622047
21
0.3814396456692913
0
LINE
8
BLACK
6
CONTINUOUS
10
0.4034661023622047
20
0.3814396456692913
11
0.4021876771653543
21
0.3827180708661417
0
LINE
8
BLACK
6
CONTINUOUS
10
0.4021876771653543
20
0.3827180708661417
11
0.402007874015748
21
0.3836220472440945
0
LINE
8
BLACK
6
CONTINUOUS
10
0.402007874015748
20
0.3836220472440945
11
0.402007874015748
21
0.4136220472440945
0
LINE
8
BLACK
6
CONTINUOUS
10
0.402007874015748
20
0.4136220472440945
11
0.4021876771653543
21
0.4145260236220472
0
LINE
8
BLACK
6
CONTINUOUS
10
0.4021876771653543
20
0.4145260236220472
11
0.4034661023622047
21
0.4158044488188976
0
LINE
8
BLACK
6
CONTINUOUS
10
0.4034661023622047
20
0.4158044488188976
11
0.4052740551181102
21
0.4158044488188976
0
LINE
8
BLACK
6
CONTINUOUS
10
0.4052740551181102
20
0.4158044488188976
11
0.4065524803149606
21
0.4145260236220472
0
LINE
8
BLACK
6
CONTINUOUS
10
0.4665524803149606
20
0.4145260236220472
11
0.4667322834645669
21
0.4136220472440945
0
LINE
8
BLACK
6
CONTINUOUS
10
0.4667322834645669
20
0.4136220472440945
11
0.4667322834645669
21
0.3836220472440945
0
LINE
8
BLACK
6
CONTINUOUS
10
0.4667322834645669
20
0.3836220472440945
11
0.4665524803149606
21
0.3827180708661417
0
LINE
8
BLACK
6
CONTINUOUS
10
0.4665524803149606
20
0.3827180708661417
11
0.4652740551181102
21
0.3814396456692913
0
LINE
8
BLACK
6
CONTINUOUS
10
0.4652740551181102
20
0.3814396456692913
11
0.4634661023622047
21
0.3814396456692913
0
LINE
8
BLACK
6
CONTINUOUS
10
0.4634661023622047
20
0.3814396456692913
11
0.4621876771653543
21
0.3827180708661417
0
LINE
8
BLACK
6
CONTINUOUS
10
0.4621876771653543
20
0.3827180708661417
11
0.462007874015748
21
0.3836220472440945
0
LINE
8
BLACK
6
CONTINUOUS
10
0.462007874015748
20
0.3836220472440945
11
0.462007874015748
21
0.4136220472440945
0
LINE
8
BLACK
6
CONTINUOUS
10
0.462007874015748
20
0.4136220472440945
11
0.4621876771653543
21
0.4145260236220472
0
LINE
8
BLACK
6
CONTINUOUS
10
0.4621876771653543
20
0.4145260236220472
11
0.4634661023622047
21
0.4158044488188976
0
LINE
8
BLACK
6
CONTINUOUS
10
0.4634661023622047
20
0.4158044488188976
11
0.4652740551181102
21
0.4158044488188976
0
LINE
8
BLACK
6
CONTINUOUS
10
0.4652740551181102
20
0.4158044488188976
11
0.4665524803149606
21
0.4145260236220472
0
LINE
8
BLACK
6
CONTINUOUS
10
0.4952138976377953
20
0.3992417322834645
11
0.4953937007874016
21
0.3983377559055118
0
LINE
8
BLACK
6
CONTINUOUS
10
0.4953937007874016
20
0.3983377559055118
11
0.4953937007874016
21
0.3855205118110236
0
LINE
8
BLACK
6
CONTINUOUS
10
0.4953937007874016
20
0.3855205118110236
11
0.4952138976377953
21
0.3846165354330708
0
LINE
8
BLACK
6
CONTINUOUS
10
0.4952138976377953
20
0.3846165354330708
11
0.4939354724409449
21
0.3833381102362204
0
LINE
8
BLACK
6
CONTINUOUS
10
0.4939354724409449
20
0.3833381102362204
11
0.4921275196850394
21
0.3833381102362204
0
LINE
8
BLACK
6
CONTINUOUS
10
0.4921275196850394
20
0.3833381102362204
11
0.490849094488189
21
0.3846165354330708
0
LINE
8
BLACK
6
CONTINUOUS
10
0.490849094488189
20
0.3846165354330708
11
0.4906692913385827
21
0.3855205118110236
0
LINE
8
BLACK
6
CONTINUOUS
10
0.4906692913385827
20
0.3855205118110236
11
0.4906692913385827
21
0.3983377559055118
0
LINE
8
BLACK
6
CONTINUOUS
10
0.4906692913385827
20
0.3983377559055118
11
0.490849094488189
21
0.3992417322834645
0
LINE
8
BLACK
6
CONTINUOUS
10
0.490849094488189
20
0.3992417322834645
11
0.4921275196850394
21
0.4005201574803149
0
LINE
8
BLACK
6
CONTINUOUS
10
0.4921275196850394
20
0.4005201574803149
11
0.4939354724409449
21
0.4005201574803149
0
LINE
8
BLACK
6
CONTINUOUS
10
0.4939354724409449
20
0.4005201574803149
11
0.4952138976377953
21
0.3992417322834645
0
LINE
8
BLACK
6
CONTINUOUS
10
0.5353713779527559
20
0.3992417322834645
11
0.5355511811023622
21
0.3983377559055118
0
LINE
8
BLACK
6
CONTINUOUS
10
0.5355511811023622
20
0.3983377559055118
11
0.5355511811023622
21
0.3855205118110236
0
LINE
8
BLACK
6
CONTINUOUS
10
0.5355511811023622
20
0.3855205118110236
11
0.5353713779527559
21
0.3846165354330708
0
LINE
8
BLACK
6
CONTINUOUS
10
0.5353713779527559
20
0.3846165354330708
11
0.5340929527559055
21
0.3833381102362204
0
LINE
8
BLACK
6
CONTINUOUS
10
0.5340929527559055
20
0.3833381102362204
11
0.532285
21
0.3833381102362204
0
LINE
8
BLACK
6
CONTINUOUS
10
0.532285
20
0.3833381102362204
11
0.5310065748031496
21
0.3846165354330708
0
LINE
8
BLACK
6
CONTINUOUS
10
0.5310065748031496
20
0.3846165354330708
11
0.5308267716535433
21
0.3855205118110236
0
LINE
8
BLACK
6
CONTINUOUS
10
0.5308267716535433
20
0.3855205118110236
11
0.5308267716535433
21
0.3983377559055118
0
LINE
8
BLACK
6
CONTINUOUS
10
0.5308267716535433
20
0.3983377559055118
11
0.5310065748031496
21
0.3992417322834645
0
LINE
8
BLACK
6
CONTINUOUS
10
0.5310065748031496
20
0.3992417322834645
11
0.532285
21
0.4005201574803149
0
LINE
8
BLACK
6
CONTINUOUS
10
0.532285
20
0.4005201574803149
11
0.5340929527559055
21
0.4005201574803149
0
LINE
8
BLACK
6
CONTINUOUS
10
0.5340929527559055
20
0.4005201574803149
11
0.5353713779527559
21
0.3992417322834645
0
LINE
8
BLACK
6
CONTINUOUS
10
0.1853527952755905
20
0.4641902755905511
11
0.1866312204724409
21
0.4629118503937008
0
LINE
8
BLACK
6
CONTINUOUS
10
0.1866312204724409
20
0.4629118503937008
11
0.1868110236220472
21
0.462007874015748
0
LINE
8
BLACK
6
CONTINUOUS
10
0.1868110236220472
20
0.462007874015748
11
0.1868110236220472
21
0.393503937007874
0
LINE
8
BLACK
6
CONTINUOUS
10
0.1868110236220472
20
0.393503937007874
11
0.2234251968503937
21
0.393503937007874
0
LINE
8
BLACK
6
CONTINUOUS
10
0.2234251968503937
20
0.393503937007874
11
0.2243291732283464
21
0.3933241338582677
0
LINE
8
BLACK
6
CONTINUOUS
10
0.2243291732283464
20
0.3933241338582677
11
0.2256075984251968
21
0.3920457086614173
0
LINE
8
BLACK
6
CONTINUOUS
10
0.2256075984251968
20
0.3920457086614173
11
0.2256075984251968
21
0.3902377559055118
0
LINE
8
BLACK
6
CONTINUOUS
10
0.2256075984251968
20
0.3902377559055118
11
0.2243291732283464
21
0.3889593307086614
0
LINE
8
BLACK
6
CONTINUOUS
10
0.2243291732283464
20
0.3889593307086614
11
0.2234251968503937
21
0.3887795275590551
0
LINE
8
BLACK
6
CONTINUOUS
10
0.2234251968503937
20
0.3887795275590551
11
0.1844488188976378
21
0.3887795275590551
0
LINE
8
BLACK
6
CONTINUOUS
10
0.1844488188976378
20
0.3887795275590551
11
0.183544842519685
21
0.3889593307086614
0
LINE
8
BLACK
6
CONTINUOUS
10
0.183544842519685
20
0.3889593307086614
11
0.1822664173228346
21
0.3902377559055118
0
LINE
8
BLACK
6
CONTINUOUS
10
0.1822664173228346
20
0.3902377559055118
11
0.1820866141732284
21
0.3911417322834645
0
LINE
8
BLACK
6
CONTINUOUS
10
0.1820866141732284
20
0.3911417322834645
11
0.1820866141732284
21
0.4596456692913386
0
LINE
8
BLACK
6
CONTINUOUS
10
0.1820866141732284
20
0.4596456692913386
11
0.1273622047244095
21
0.4596456692913386
0
LINE
8
BLACK
6
CONTINUOUS
10
0.1273622047244095
20
0.4596456692913386
11
0.1264582283464567
21
0.4598254724409448
0
LINE
8
BLACK
6
CONTINUOUS
10
0.1264582283464567
20
0.4598254724409448
11
0.1251798031496063
21
0.4611038976377952
0
LINE
8
BLACK
6
CONTINUOUS
10
0.1251798031496063
20
0.4611038976377952
11
0.1251798031496063
21
0.4629118503937008
0
LINE
8
BLACK
6
CONTINUOUS
10
0.1251798031496063
20
0.4629118503937008
11
0.1264582283464567
21
0.4641902755905511
0
LINE
8
BLACK
6
CONTINUOUS
10
0.1264582283464567
20
0.4641902755905511
11
0.1273622047244095
21
0.4643700787401575
0
LINE
8
BLACK
6
CONTINUOUS
10
0.1273622047244095
20
0.4643700787401575
11
0.1844488188976378
21
0.4643700787401575
0
LINE
8
BLACK
6
CONTINUOUS
10
0.1844488188976378
20
0.4643700787401575
11
0.1853527952755905
21
0.4641902755905511
0
LINE
8
BLACK
6
CONTINUOUS
10
0.2482925984251969
20
0.5092739763779528
11
0.2493570078740157
21
0.5088330708661417
0
LINE
8
BLACK
6
CONTINUOUS
10
0.2493570078740157
20
0.5088330708661417
11
0.2501716535433071
21
0.5080184251968504
0
LINE
8
BLACK
6
CONTINUOUS
10
0.2501716535433071
20
0.5080184251968504
11
0.2506125590551181
21
0.5069540157480315
0
LINE
8
BLACK
6
CONTINUOUS
10
0.2506125590551181
20
0.5069540157480315
11
0.2506125590551181
21
0.5058018897637795
0
LINE
8
BLACK
6
CONTINUOUS
10
0.2506125590551181
20
0.5058018897637795
11
0.2501716535433071
21
0.5047374803149606
0
LINE
8
BLACK
6
CONTINUOUS
10
0.2501716535433071
20
0.5047374803149606
11
0.2493570078740157
21
0.5039228346456692
0
LINE
8
BLACK
6
CONTINUOUS
10
0.2493570078740157
20
0.5039228346456692
11
0.2482925984251969
21
0.5034819291338583
0
LINE
8
BLACK
6
CONTINUOUS
10
0.2482925984251969
20
0.5034819291338583
11
0.2477165354330709
21
0.5034251968503937
0
LINE
8
BLACK
6
CONTINUOUS
10
0.2477165354330709
20
0.5034251968503937
11
0.2106692913385827
21
0.5034251968503937
0
LINE
8
BLACK
6
CONTINUOUS
10
0.2106692913385827
20
0.5034251968503937
11
0.2106692913385827
21
0.4493307086614173
0
LINE
8
BLACK
6
CONTINUOUS
10
0.2106692913385827
20
0.4493307086614173
11
0.2477165354330709
21
0.4493307086614173
0
LINE
8
BLACK
6
CONTINUOUS
10
0.2477165354330709
20
0.4493307086614173
11
0.2482925984251969
21
0.4492739763779527
0
LINE
8
BLACK
6
CONTINUOUS
10
0.2482925984251969
20
0.4492739763779527
11
0.2493570078740157
21
0.4488330708661417
0
LINE
8
BLACK
6
CONTINUOUS
10
0.2493570078740157
20
0.4488330708661417
11
0.2501716535433071
21
0.4480184251968504
0
LINE
8
BLACK
6
CONTINUOUS
10
0.2501716535433071
20
0.4480184251968504
11
0.2506125590551181
21
0.4469540157480315
0
LINE
8
BLACK
6
CONTINUOUS
10
0.2506125590551181
20
0.4469540157480315
11
0.2506125590551181
21
0.4458018897637795
0
LINE
8
BLACK
6
CONTINUOUS
10
0.2506125590551181
20
0.4458018897637795
11
0.2501716535433071
21
0.4447374803149606
0
LINE
8
BLACK
6
CONTINUOUS
10
0.2501716535433071
20
0.4447374803149606
11
0.2493570078740157
21
0.4439228346456693
0
LINE
8
BLACK
6
CONTINUOUS
10
0.2493570078740157
20
0.4439228346456693
11
0.2482925984251969
21
0.4434819291338583
0
LINE
8
BLACK
6
CONTINUOUS
10
0.2482925984251969
20
0.4434819291338583
11
0.2477165354330709
21
0.4434251968503937
0
LINE
8
BLACK
6
CONTINUOUS
10
0.2477165354330709
20
0.4434251968503937
11
0.2077165354330709
21
0.4434251968503937
0
LINE
8
BLACK
6
CONTINUOUS
10
0.2077165354330709
20
0.4434251968503937
11
0.2071404724409449
21
0.4434819291338583
0
LINE
8
BLACK
6
CONTINUOUS
10
0.2071404724409449
20
0.4434819291338583
11
0.206076062992126
21
0.4439228346456693
0
LINE
8
BLACK
6
CONTINUOUS
10
0.206076062992126
20
0.4439228346456693
11
0.2052614173228346
21
0.4447374803149606
0
LINE
8
BLACK
6
CONTINUOUS
10
0.2052614173228346
20
0.4447374803149606
11
0.2048205118110236
21
0.4458018897637795
0
LINE
8
BLACK
6
CONTINUOUS
10
0.2048205118110236
20
0.4458018897637795
11
0.2047637795275591
21
0.4463779527559055
0
LINE
8
BLACK
6
CONTINUOUS
10
0.2047637795275591
20
0.4463779527559055
11
0.2047637795275591
21
0.5063779527559055
0
LINE
8
BLACK
6
CONTINUOUS
10
0.2047637795275591
20
0.5063779527559055
11
0.2048205118110236
21
0.5069540157480315
0
LINE
8
BLACK
6
CONTINUOUS
10
0.2048205118110236
20
0.5069540157480315
11
0.2052614173228346
21
0.5080184251968504
0
LINE
8
BLACK
6
CONTINUOUS
10
0.2052614173228346
20
0.5080184251968504
11
0.206076062992126
21
0.5088330708661417
0
LINE
8
BLACK
6
CONTINUOUS
10
0.206076062992126
20
0.5088330708661417
11
0.2071404724409449
21
0.5092739763779528
0
LINE
8
BLACK
6
CONTINUOUS
10
0.2071404724409449
20
0.5092739763779528
11
0.2077165354330709
21
0.5093307086614173
0
LINE
8
BLACK
6
CONTINUOUS
10
0.2077165354330709
20
0.5093307086614173
11
0.2477165354330709
21
0.5093307086614173
0
LINE
8
BLACK
6
CONTINUOUS
10
0.2477165354330709
20
0.5093307086614173
11
0.2482925984251969
21
0.5092739763779528
0
LINE
8
BLACK
6
CONTINUOUS
10
0.337134842519685
20
0.5129904330708661
11
0.3393290157480315
21
0.5107962598425196
0
LINE
8
BLACK
6
CONTINUOUS
10
0.3393290157480315
20
0.5107962598425196
11
0.3405164960629921
21
0.5079294488188977
0
LINE
8
BLACK
6
CONTINUOUS
10
0.3405164960629921
20
0.5079294488188977
11
0.3405164960629921
21
0.5048264566929134
0
LINE
8
BLACK
6
CONTINUOUS
10
0.3405164960629921
20
0.5048264566929134
11
0.3393290157480315
21
0.5019596456692913
0
LINE
8
BLACK
6
CONTINUOUS
10
0.3393290157480315
20
0.5019596456692913
11
0.337134842519685
21
0.4997654724409449
0
LINE
8
BLACK
6
CONTINUOUS
10
0.337134842519685
20
0.4997654724409449
11
0.334268031496063
21
0.4985779921259842
0
LINE
8
BLACK
6
CONTINUOUS
10
0.334268031496063
20
0.4985779921259842
11
0.3311650393700787
21
0.4985779921259842
0
LINE
8
BLACK
6
CONTINUOUS
10
0.3311650393700787
20
0.4985779921259842
11
0.3306692913385827
21
0.4987833464566929
0
LINE
8
BLACK
6
CONTINUOUS
10
0.3306692913385827
20
0.4987833464566929
11
0.3306692913385827
21
0.4463779527559055
0
LINE
8
BLACK
6
CONTINUOUS
10
0.3306692913385827
20
0.4463779527559055
11
0.3306125590551181
21
0.4458018897637795
0
LINE
8
BLACK
6
CONTINUOUS
10
0.3306125590551181
20
0.4458018897637795
11
0.3301716535433071
21
0.4447374803149606
0
LINE
8
BLACK
6
CONTINUOUS
10
0.3301716535433071
20
0.4447374803149606
11
0.3293570078740157
21
0.4439228346456693
0
LINE
8
BLACK
6
CONTINUOUS
10
0.3293570078740157
20
0.4439228346456693
11
0.3282925984251969
21
0.4434819291338583
0
LINE
8
BLACK
6
CONTINUOUS
10
0.3282925984251969
20
0.4434819291338583
11
0.3277165354330708
21
0.4434251968503937
0
LINE
8
BLACK
6
CONTINUOUS
10
0.3277165354330708
20
0.4434251968503937
11
0.2877165354330709
21
0.4434251968503937
0
LINE
8
BLACK
6
CONTINUOUS
10
0.2877165354330709
20
0.4434251968503937
11
0.2871404724409449
21
0.4434819291338583
0
LINE
8
BLACK
6
CONTINUOUS
10
0.2871404724409449
20
0.4434819291338583
11
0.286076062992126
21
0.4439228346456693
0
LINE
8
BLACK
6
CONTINUOUS
10
0.286076062992126
20
0.4439228346456693
11
0.2852614173228347
21
0.4447374803149606
0
LINE
8
BLACK
6
CONTINUOUS
10
0.2852614173228347
20
0.4447374803149606
11
0.2848205118110236
21
0.4458018897637795
0
LINE
8
BLACK
6
CONTINUOUS
10
0.2848205118110236
20
0.4458018897637795
11
0.2848205118110236
21
0.4469540157480315
0
LINE
8
BLACK
6
CONTINUOUS
10
0.2848205118110236
20
0.4469540157480315
11
0.2852614173228347
21
0.4480184251968504
0
LINE
8
BLACK
6
CONTINUOUS
10
0.2852614173228347
20
0.4480184251968504
11
0.286076062992126
21
0.4488330708661417
0
LINE
8
BLACK
6
CONTINUOUS
10
0.286076062992126
20
0.4488330708661417
11
0.2871404724409449
21
0.4492739763779527
0
LINE
8
BLACK
6
CONTINUOUS
10
0.2871404724409449
20
0.4492739763779527
11
0.2877165354330709
21
0.4493307086614173
0
LINE
8
BLACK
6
CONTINUOUS
10
0.2877165354330709
20
0.4493307086614173
11
0.324763779527559
21
0.4493307086614173
0
LINE
8
BLACK
6
CONTINUOUS
10
0.324763779527559
20
0.4493307086614173
11
0.324763779527559
21
0.5034251968503937
0
LINE
8
BLACK
6
CONTINUOUS
10
0.324763779527559
20
0.5034251968503937
11
0.2877165354330709
21
0.5034251968503937
0
LINE
8
BLACK
6
CONTINUOUS
10
0.2877165354330709
20
0.5034251968503937
11
0.2871404724409449
21
0.5034819291338583
0
LINE
8
BLACK
6
CONTINUOUS
10
0.2871404724409449
20
0.5034819291338583
11
0.286076062992126
21
0.5039228346456692
0
LINE
8
BLACK
6
CONTINUOUS
10
0.286076062992126
20
0.5039228346456692
11
0.2852614173228347
21
0.5047374803149606
0
LINE
8
BLACK
6
CONTINUOUS
10
0.2852614173228347
20
0.5047374803149606
11
0.2848205118110236
21
0.5058018897637795
0
LINE
8
BLACK
6
CONTINUOUS
10
0.2848205118110236
20
0.5058018897637795
11
0.2848205118110236
21
0.5069540157480315
0
LINE
8
BLACK
6
CONTINUOUS
10
0.2848205118110236
20
0.5069540157480315
11
0.2852614173228347
21
0.5080184251968504
0
LINE
8
BLACK
6
CONTINUOUS
10
0.2852614173228347
20
0.5080184251968504
11
0.286076062992126
21
0.5088330708661417
0
LINE
8
BLACK
6
CONTINUOUS
10
0.286076062992126
20
0.5088330708661417
11
0.2871404724409449
21
0.5092739763779528
0
LINE
8
BLACK
6
CONTINUOUS
10
0.2871404724409449
20
0.5092739763779528
11
0.2877165354330709
21
0.5093307086614173
0
LINE
8
BLACK
6
CONTINUOUS
10
0.2877165354330709
20
0.5093307086614173
11
0.3254970078740158
21
0.5093307086614173
0
LINE
8
BLACK
6
CONTINUOUS
10
0.3254970078740158
20
0.5093307086614173
11
0.3261040551181102
21
0.5107962598425196
0
LINE
8
BLACK
6
CONTINUOUS
10
0.3261040551181102
20
0.5107962598425196
11
0.3282982283464567
21
0.5129904330708661
0
LINE
8
BLACK
6
CONTINUOUS
10
0.3282982283464567
20
0.5129904330708661
11
0.3311650393700787
21
0.5141779133858267
0
LINE
8
BLACK
6
CONTINUOUS
10
0.3311650393700787
20
0.5141779133858267
11
0.334268031496063
21
0.5141779133858267
0
LINE
8
BLACK
6
CONTINUOUS
10
0.334268031496063
20
0.5141779133858267
11
0.337134842519685
21
0.5129904330708661
0
LINE
8
BLACK
6
CONTINUOUS
10
0.3306692913385827
20
0.5072259448818898
11
0.3306692913385827
21
0.5055299606299213
0
LINE
8
BLACK
6
CONTINUOUS
10
0.3306692913385827
20
0.5055299606299213
11
0.3318685433070866
21
0.5043307086614173
0
LINE
8
BLACK
6
CONTINUOUS
10
0.3318685433070866
20
0.5043307086614173
11
0.3335645275590551
21
0.5043307086614173
0
LINE
8
BLACK
6
CONTINUOUS
10
0.3335645275590551
20
0.5043307086614173
11
0.334763779527559
21
0.5055299606299213
0
LINE
8
BLACK
6
CONTINUOUS
10
0.334763779527559
20
0.5055299606299213
11
0.334763779527559
21
0.5072259448818898
0
LINE
8
BLACK
6
CONTINUOUS
10
0.334763779527559
20
0.5072259448818898
11
0.3335645275590551
21
0.5084251968503937
0
LINE
8
BLACK
6
CONTINUOUS
10
0.3335645275590551
20
0.5084251968503937
11
0.3318685433070866
21
0.5084251968503937
0
LINE
8
BLACK
6
CONTINUOUS
10
0.3318685433070866
20
0.5084251968503937
11
0.3306692913385827
21
0.5072259448818898
0
LINE
8
BLACK
6
CONTINUOUS
10
0.7533635039370079
20
0.4611511811023622
11
0.7535433070866142
21
0.4602472047244094
0
LINE
8
BLACK
6
CONTINUOUS
10
0.7535433070866142
20
0.4602472047244094
11
0.7535433070866142
21
0.4474299606299212
0
LINE
8
BLACK
6
CONTINUOUS
10
0.7535433070866142
20
0.4474299606299212
11
0.7533635039370079
21
0.4465259842519685
0
LINE
8
BLACK
6
CONTINUOUS
10
0.7533635039370079
20
0.4465259842519685
11
0.7520850787401575
21
0.4452475590551181
0
LINE
8
BLACK
6
CONTINUOUS
10
0.7520850787401575
20
0.4452475590551181
11
0.750277125984252
21
0.4452475590551181
0
LINE
8
BLACK
6
CONTINUOUS
10
0.750277125984252
20
0.4452475590551181
11
0.7489987007874016
21
0.4465259842519685
0
LINE
8
BLACK
6
CONTINUOUS
10
0.7489987007874016
20
0.4465259842519685
11
0.7488188976377953
21
0.4474299606299212
0
LINE
8
BLACK
6
CONTINUOUS
10
0.7488188976377953
20
0.4474299606299212
11
0.7488188976377953
21
0.4602472047244094
0
LINE
8
BLACK
6
CONTINUOUS
10
0.7488188976377953
20
0.4602472047244094
11
0.7489987007874016
21
0.4611511811023622
0
LINE
8
BLACK
6
CONTINUOUS
10
0.7489987007874016
20
0.4611511811023622
11
0.750277125984252
21
0.4624296062992126
0
LINE
8
BLACK
6
CONTINUOUS
10
0.750277125984252
20
0.4624296062992126
11
0.7520850787401575
21
0.4624296062992126
0
LINE
8
BLACK
6
CONTINUOUS
10
0.7520850787401575
20
0.4624296062992126
11
0.7533635039370079
21
0.4611511811023622
0
LINE
8
BLACK
6
CONTINUOUS
10
0.7935209842519685
20
0.4611511811023622
11
0.7937007874015748
21
0.4602472047244094
0
LINE
8
BLACK
6
CONTINUOUS
10
0.7937007874015748
20
0.4602472047244094
11
0.7937007874015748
21
0.4474299606299212
0
LINE
8
BLACK
6
CONTINUOUS
10
0.7937007874015748
20
0.4474299606299212
11
0.7935209842519685
21
0.4465259842519685
0
LINE
8
BLACK
6
CONTINUOUS
10
0.7935209842519685
20
0.4465259842519685
11
0.7922425590551181
21
0.4452475590551181
0
LINE
8
BLACK
6
CONTINUOUS
10
0.7922425590551181
20
0.4452475590551181
11
0.7904346062992126
21
0.4452475590551181
0
LINE
8
BLACK
6
CONTINUOUS
10
0.7904346062992126
20
0.4452475590551181
11
0.7891561811023622
21
0.4465259842519685
0
LINE
8
BLACK
6
CONTINUOUS
10
0.7891561811023622
20
0.4465259842519685
11
0.7889763779527559
21
0.4474299606299212
0
LINE
8
BLACK
6
CONTINUOUS
10
0.7889763779527559
20
0.4474299606299212
11
0.7889763779527559
21
0.4602472047244094
0
LINE
8
BLACK
6
CONTINUOUS
10
0.7889763779527559
20
0.4602472047244094
11
0.7891561811023622
21
0.4611511811023622
0
LINE
8
BLACK
6
CONTINUOUS
10
0.7891561811023622
20
0.4611511811023622
11
0.7904346062992126
21
0.4624296062992126
0
LINE
8
BLACK
6
CONTINUOUS
10
0.7904346062992126
20
0.4624296062992126
11
0.7922425590551181
21
0.4624296062992126
0
LINE
8
BLACK
6
CONTINUOUS
10
0.7922425590551181
20
0.4624296062992126
11
0.7935209842519685
21
0.4611511811023622
0
LINE
8
BLACK
6
CONTINUOUS
10
0.6852532677165354
20
0.4615448818897638
11
0.6854330708661417
21
0.460640905511811
0
LINE
8
BLACK
6
CONTINUOUS
10
0.6854330708661417
20
0.460640905511811
11
0.6854330708661417
21
0.4478236614173228
0
LINE
8
BLACK
6
CONTINUOUS
10
0.6854330708661417
20
0.4478236614173228
11
0.6852532677165354
21
0.4469196850393701
0
LINE
8
BLACK
6
CONTINUOUS
10
0.6852532677165354
20
0.4469196850393701
11
0.683974842519685
21
0.4456412598425197
0
LINE
8
BLACK
6
CONTINUOUS
10
0.683974842519685
20
0.4456412598425197
11
0.6821668897637795
21
0.4456412598425197
0
LINE
8
BLACK
6
CONTINUOUS
10
0.6821668897637795
20
0.4456412598425197
11
0.6808884645669291
21
0.4469196850393701
0
LINE
8
BLACK
6
CONTINUOUS
10
0.6808884645669291
20
0.4469196850393701
11
0.6807086614173228
21
0.4478236614173228
0
LINE
8
BLACK
6
CONTINUOUS
10
0.6807086614173228
20
0.4478236614173228
11
0.6807086614173228
21
0.460640905511811
0
LINE
8
BLACK
6
CONTINUOUS
10
0.6807086614173228
20
0.460640905511811
11
0.6808884645669291
21
0.4615448818897638
0
LINE
8
BLACK
6
CONTINUOUS
10
0.6808884645669291
20
0.4615448818897638
11
0.6821668897637795
21
0.4628233070866142
0
LINE
8
BLACK
6
CONTINUOUS
10
0.6821668897637795
20
0.4628233070866142
11
0.683974842519685
21
0.4628233070866142
0
LINE
8
BLACK
6
CONTINUOUS
10
0.683974842519685
20
0.4628233070866142
11
0.6852532677165354
21
0.4615448818897638
0
LINE
8
BLACK
6
CONTINUOUS
10
0.7254107480314961
20
0.4615448818897638
11
0.7255905511811024
21
0.460640905511811
0
LINE
8
BLACK
6
CONTINUOUS
10
0.7255905511811024
20
0.460640905511811
11
0.7255905511811024
21
0.4478236614173228
0
LINE
8
BLACK
6
CONTINUOUS
10
0.7255905511811024
20
0.4478236614173228
11
0.7254107480314961
21
0.4469196850393701
0
LINE
8
BLACK
6
CONTINUOUS
10
0.7254107480314961
20
0.4469196850393701
11
0.7241323228346457
21
0.4456412598425197
0
LINE
8
BLACK
6
CONTINUOUS
10
0.7241323228346457
20
0.4456412598425197
11
0.7223243700787402
21
0.4456412598425197
0
LINE
8
BLACK
6
CONTINUOUS
10
0.7223243700787402
20
0.4456412598425197
11
0.7210459448818898
21
0.4469196850393701
0
LINE
8
BLACK
6
CONTINUOUS
10
0.7210459448818898
20
0.4469196850393701
11
0.7208661417322835
21
0.4478236614173228
0
LINE
8
BLACK
6
CONTINUOUS
10
0.7208661417322835
20
0.4478236614173228
11
0.7208661417322835
21
0.460640905511811
0
LINE
8
BLACK
6
CONTINUOUS
10
0.7208661417322835
20
0.460640905511811
11
0.7210459448818898
21
0.4615448818897638
0
LINE
8
BLACK
6
CONTINUOUS
10
0.7210459448818898
20
0.4615448818897638
11
0.7223243700787402
21
0.4628233070866142
0
LINE
8
BLACK
6
CONTINUOUS
10
0.7223243700787402
20
0.4628233070866142
11
0.7241323228346457
21
0.4628233070866142
0
LINE
8
BLACK
6
CONTINUOUS
10
0.7241323228346457
20
0.4628233070866142
11
0.7254107480314961
21
0.4615448818897638
0
LINE
8
BLACK
6
CONTINUOUS
10
0.2838592913385827
20
0.4989590157480315
11
0.2842925984251968
21
0.4989590157480315
0
LINE
8
BLACK
6
CONTINUOUS
10
0.2842925984251968
20
0.4989590157480315
11
0.2844282283464567
21
0.4989028346456693
0
LINE
8
BLACK
6
CONTINUOUS
10
0.2844282283464567
20
0.4989028346456693
11
0.2845744488188977
21
0.4988883858267716
0
LINE
8
BLACK
6
CONTINUOUS
10
0.2845744488188977
20
0.4988883858267716
11
0.2849567322834646
21
0.498683937007874
0
LINE
8
BLACK
6
CONTINUOUS
10
0.2849567322834646
20
0.498683937007874
11
0.2853570078740157
21
0.4985181102362204
0
LINE
8
BLACK
6
CONTINUOUS
10
0.2853570078740157
20
0.4985181102362204
11
0.2854607874015748
21
0.4984143307086614
0
LINE
8
BLACK
6
CONTINUOUS
10
0.2854607874015748
20
0.4984143307086614
11
0.2855903937007874
21
0.498345
0
LINE
8
BLACK
6
CONTINUOUS
10
0.2855903937007874
20
0.498345
11
0.2858652755905512
21
0.4980098425196851
0
LINE
8
BLACK
6
CONTINUOUS
10
0.2858652755905512
20
0.4980098425196851
11
0.2861716535433071
21
0.4977034645669291
0
LINE
8
BLACK
6
CONTINUOUS
10
0.2861716535433071
20
0.4977034645669291
11
0.2862278346456693
21
0.4975677559055118
0
LINE
8
BLACK
6
CONTINUOUS
10
0.2862278346456693
20
0.4975677559055118
11
0.2863210236220473
21
0.4974541732283465
0
LINE
8
BLACK
6
CONTINUOUS
10
0.2863210236220473
20
0.4974541732283465
11
0.2864466929133858
21
0.4970394881889764
0
LINE
8
BLACK
6
CONTINUOUS
10
0.2864466929133858
20
0.4970394881889764
11
0.2866125590551181
21
0.4966390551181102
0
LINE
8
BLACK
6
CONTINUOUS
10
0.2866125590551181
20
0.4966390551181102
11
0.2866339763779527
21
0.4964214173228346
0
LINE
8
BLACK
6
CONTINUOUS
10
0.2866339763779527
20
0.4964214173228346
11
0.2866551574803149
21
0.4963515748031496
0
LINE
8
BLACK
6
CONTINUOUS
10
0.2866551574803149
20
0.4963515748031496
11
0.2866479921259842
21
0.4962791732283465
0
LINE
8
BLACK
6
CONTINUOUS
10
0.2866479921259842
20
0.4962791732283465
11
0.2866692913385827
21
0.4960629921259843
0
LINE
8
BLACK
6
CONTINUOUS
10
0.2866692913385827
20
0.4960629921259843
11
0.2866692913385827
21
0.4566929133858267
0
LINE
8
BLACK
6
CONTINUOUS
10
0.2866692913385827
20
0.4566929133858267
11
0.2866125590551181
21
0.4561168503937008
0
LINE
8
BLACK
6
CONTINUOUS
10
0.2866125590551181
20
0.4561168503937008
11
0.2861716535433071
21
0.4550524409448819
0
LINE
8
BLACK
6
CONTINUOUS
10
0.2861716535433071
20
0.4550524409448819
11
0.2853570078740157
21
0.4542377952755906
0
LINE
8
BLACK
6
CONTINUOUS
10
0.2853570078740157
20
0.4542377952755906
11
0.2842925984251968
21
0.4537968897637795
0
LINE
8
BLACK
6
CONTINUOUS
10
0.2842925984251968
20
0.4537968897637795
11
0.2833441338582677
21
0.4537968897637795
0
LINE
8
BLACK
6
CONTINUOUS
10
0.2833441338582677
20
0.4537968897637795
11
0.2828975590551181
21
0.4537574409448819
0
LINE
8
BLACK
6
CONTINUOUS
10
0.2828975590551181
20
0.4537574409448819
11
0.2817984645669291
21
0.4541029527559055
0
LINE
8
BLACK
6
CONTINUOUS
10
0.2817984645669291
20
0.4541029527559055
11
0.2813204330708661
21
0.4544293700787401
0
LINE
8
BLACK
6
CONTINUOUS
10
0.2813204330708661
20
0.4544293700787401
11
0.2586692913385827
21
0.4734033858267717
0
LINE
8
BLACK
6
CONTINUOUS
10
0.2586692913385827
20
0.4734033858267717
11
0.2586692913385827
21
0.4566929133858267
0
LINE
8
BLACK
6
CONTINUOUS
10
0.2586692913385827
20
0.4566929133858267
11
0.2586125590551181
21
0.4561168503937008
0
LINE
8
BLACK
6
CONTINUOUS
10
0.2586125590551181
20
0.4561168503937008
11
0.2581716535433071
21
0.4550524409448819
0
LINE
8
BLACK
6
CONTINUOUS
10
0.2581716535433071
20
0.4550524409448819
11
0.2573570078740157
21
0.4542377952755906
0
LINE
8
BLACK
6
CONTINUOUS
10
0.2573570078740157
20
0.4542377952755906
11
0.2562925984251969
21
0.4537968897637795
0
LINE
8
BLACK
6
CONTINUOUS
10
0.2562925984251969
20
0.4537968897637795
11
0.2551404724409449
21
0.4537968897637795
0
LINE
8
BLACK
6
CONTINUOUS
10
0.2551404724409449
20
0.4537968897637795
11
0.254076062992126
21
0.4542377952755906
0
LINE
8
BLACK
6
CONTINUOUS
10
0.254076062992126
20
0.4542377952755906
11
0.2532614173228346
21
0.4550524409448819
0
LINE
8
BLACK
6
CONTINUOUS
10
0.2532614173228346
20
0.4550524409448819
11
0.2528205118110236
21
0.4561168503937008
0
LINE
8
BLACK
6
CONTINUOUS
10
0.2528205118110236
20
0.4561168503937008
11
0.2527637795275591
21
0.4566929133858267
0
LINE
8
BLACK
6
CONTINUOUS
10
0.2527637795275591
20
0.4566929133858267
11
0.2527637795275591
21
0.4960629921259843
0
LINE
8
BLACK
6
CONTINUOUS
10
0.2527637795275591
20
0.4960629921259843
11
0.2528205118110236
21
0.4966390551181102
0
LINE
8
BLACK
6
CONTINUOUS
10
0.2528205118110236
20
0.4966390551181102
11
0.2532614173228346
21
0.4977034645669291
0
LINE
8
BLACK
6
CONTINUOUS
10
0.2532614173228346
20
0.4977034645669291
11
0.254076062992126
21
0.4985181102362204
0
LINE
8
BLACK
6
CONTINUOUS
10
0.254076062992126
20
0.4985181102362204
11
0.2551404724409449
21
0.4989590157480315
0
LINE
8
BLACK
6
CONTINUOUS
10
0.2551404724409449
20
0.4989590157480315
11
0.2562925984251969
21
0.4989590157480315
0
LINE
8
BLACK
6
CONTINUOUS
10
0.2562925984251969
20
0.4989590157480315
11
0.2573570078740157
21
0.4985181102362204
0
LINE
8
BLACK
6
CONTINUOUS
10
0.2573570078740157
20
0.4985181102362204
11
0.2581716535433071
21
0.4977034645669291
0
LINE
8
BLACK
6
CONTINUOUS
10
0.2581716535433071
20
0.4977034645669291
11
0.2586125590551181
21
0.4966390551181102
0
LINE
8
BLACK
6
CONTINUOUS
10
0.2586125590551181
20
0.4966390551181102
11
0.2586692913385827
21
0.4960629921259843
0
LINE
8
BLACK
6
CONTINUOUS
10
0.2586692913385827
20
0.4960629921259843
11
0.2586692913385827
21
0.4793379527559055
0
LINE
8
BLACK
6
CONTINUOUS
10
0.2586692913385827
20
0.4793379527559055
11
0.2818439763779528
21
0.4983460236220472
0
LINE
8
BLACK
6
CONTINUOUS
10
0.2818439763779528
20
0.4983460236220472
11
0.2820245669291339
21
0.498466653543307
0
LINE
8
BLACK
6
CONTINUOUS
10
0.2820245669291339
20
0.498466653543307
11
0.282076062992126
21
0.4985181102362204
0
LINE
8
BLACK
6
CONTINUOUS
10
0.282076062992126
20
0.4985181102362204
11
0.2821435039370079
21
0.4985460629921259
0
LINE
8
BLACK
6
CONTINUOUS
10
0.2821435039370079
20
0.4985460629921259
11
0.2823253543307087
21
0.4986674803149606
0
LINE
8
BLACK
6
CONTINUOUS
10
0.2823253543307087
20
0.4986674803149606
11
0.2827400393700787
21
0.4987931889763779
0
LINE
8
BLACK
6
CONTINUOUS
10
0.2827400393700787
20
0.4987931889763779
11
0.2831404724409449
21
0.4989590157480315
0
LINE
8
BLACK
6
CONTINUOUS
10
0.2831404724409449
20
0.4989590157480315
11
0.2832874015748031
21
0.4989590157480315
0
LINE
8
BLACK
6
CONTINUOUS
10
0.2832874015748031
20
0.4989590157480315
11
0.2834279527559055
21
0.4990016141732284
0
LINE
8
BLACK
6
CONTINUOUS
10
0.2834279527559055
20
0.4990016141732284
11
0.2838592913385827
21
0.4989590157480315
0
LINE
8
BLACK
6
CONTINUOUS
10
0.2643433858267716
20
0.4763540551181102
11
0.280763779527559
21
0.4625993307086614
0
LINE
8
BLACK
6
CONTINUOUS
10
0.280763779527559
20
0.4625993307086614
11
0.280763779527559
21
0.4898222047244095
0
LINE
8
BLACK
6
CONTINUOUS
10
0.280763779527559
20
0.4898222047244095
11
0.2643433858267716
21
0.4763540551181102
0
LINE
8
BLACK
6
CONTINUOUS
10
0.4649461417322834
20
0.4615180708661417
11
0.4660105511811024
21
0.4610771653543307
0
LINE
8
BLACK
6
CONTINUOUS
10
0.4660105511811024
20
0.4610771653543307
11
0.4668251968503937
21
0.4602625196850393
0
LINE
8
BLACK
6
CONTINUOUS
10
0.4668251968503937
20
0.4602625196850393
11
0.4672661023622047
21
0.4591981102362205
0
LINE
8
BLACK
6
CONTINUOUS
10
0.4672661023622047
20
0.4591981102362205
11
0.4672661023622047
21
0.4580459842519685
0
LINE
8
BLACK
6
CONTINUOUS
10
0.4672661023622047
20
0.4580459842519685
11
0.4668251968503937
21
0.4569815748031496
0
LINE
8
BLACK
6
CONTINUOUS
10
0.4668251968503937
20
0.4569815748031496
11
0.4660105511811024
21
0.4561669291338583
0
LINE
8
BLACK
6
CONTINUOUS
10
0.4660105511811024
20
0.4561669291338583
11
0.4649461417322834
21
0.4557260236220472
0
LINE
8
BLACK
6
CONTINUOUS
10
0.4649461417322834
20
0.4557260236220472
11
0.4643700787401575
21
0.4556692913385827
0
LINE
8
BLACK
6
CONTINUOUS
10
0.4643700787401575
20
0.4556692913385827
11
0.4043700787401575
21
0.4556692913385827
0
LINE
8
BLACK
6
CONTINUOUS
10
0.4043700787401575
20
0.4556692913385827
11
0.4037940157480315
21
0.4557260236220472
0
LINE
8
BLACK
6
CONTINUOUS
10
0.4037940157480315
20
0.4557260236220472
11
0.4027296062992126
21
0.4561669291338583
0
LINE
8
BLACK
6
CONTINUOUS
10
0.4027296062992126
20
0.4561669291338583
11
0.4019149606299213
21
0.4569815748031496
0
LINE
8
BLACK
6
CONTINUOUS
10
0.4019149606299213
20
0.4569815748031496
11
0.4014740551181102
21
0.4580459842519685
0
LINE
8
BLACK
6
CONTINUOUS
10
0.4014740551181102
20
0.4580459842519685
11
0.4014740551181102
21
0.4591981102362205
0
LINE
8
BLACK
6
CONTINUOUS
10
0.4014740551181102
20
0.4591981102362205
11
0.4019149606299213
21
0.4602625196850393
0
LINE
8
BLACK
6
CONTINUOUS
10
0.4019149606299213
20
0.4602625196850393
11
0.4027296062992126
21
0.4610771653543307
0
LINE
8
BLACK
6
CONTINUOUS
10
0.4027296062992126
20
0.4610771653543307
11
0.4037940157480315
21
0.4615180708661417
0
LINE
8
BLACK
6
CONTINUOUS
10
0.4037940157480315
20
0.4615180708661417
11
0.4043700787401575
21
0.4615748031496063
0
LINE
8
BLACK
6
CONTINUOUS
10
0.4043700787401575
20
0.4615748031496063
11
0.4643700787401575
21
0.4615748031496063
0
LINE
8
BLACK
6
CONTINUOUS
10
0.4643700787401575
20
0.4615748031496063
11
0.4649461417322834
21
0.4615180708661417
0
LINE
8
BLACK
6
CONTINUOUS
10
0.3414234251968504
20
0.4893177559055118
11
0.3421633858267716
21
0.4890711023622047
0
LINE
8
BLACK
6
CONTINUOUS
10
0.3421633858267716
20
0.4890711023622047
11
0.3422455905511811
21
0.4889066929133858
0
LINE
8
BLACK
6
CONTINUOUS
10
0.3422455905511811
20
0.4889066929133858
11
0.3424100393700787
21
0.4888244488188976
0
LINE
8
BLACK
6
CONTINUOUS
10
0.3424100393700787
20
0.4888244488188976
11
0.3428855511811024
21
0.4879903543307086
0
LINE
8
BLACK
6
CONTINUOUS
10
0.3428855511811024
20
0.4879903543307086
11
0.3494472440944882
21
0.4683053543307086
0
LINE
8
BLACK
6
CONTINUOUS
10
0.3494472440944882
20
0.4683053543307086
11
0.3495672834645669
21
0.4673527559055118
0
LINE
8
BLACK
6
CONTINUOUS
10
0.3495672834645669
20
0.4673527559055118
11
0.3487250787401575
21
0.4656683464566929
0
LINE
8
BLACK
6
CONTINUOUS
10
0.3487250787401575
20
0.4656683464566929
11
0.3469384251968504
21
0.4650727952755905
0
LINE
8
BLACK
6
CONTINUOUS
10
0.3469384251968504
20
0.4650727952755905
11
0.3452540157480315
21
0.465915
0
LINE
8
BLACK
6
CONTINUOUS
10
0.3452540157480315
20
0.465915
11
0.3447785039370079
21
0.466749094488189
0
LINE
8
BLACK
6
CONTINUOUS
10
0.3447785039370079
20
0.466749094488189
11
0.3434645669291339
21
0.4706908661417323
0
LINE
8
BLACK
6
CONTINUOUS
10
0.3434645669291339
20
0.4706908661417323
11
0.3376378346456693
21
0.4706908661417323
0
LINE
8
BLACK
6
CONTINUOUS
10
0.3376378346456693
20
0.4706908661417323
11
0.3363238976377952
21
0.466749094488189
0
LINE
8
BLACK
6
CONTINUOUS
10
0.3363238976377952
20
0.466749094488189
11
0.3358483858267716
21
0.465915
0
LINE
8
BLACK
6
CONTINUOUS
10
0.3358483858267716
20
0.465915
11
0.3341639763779528
21
0.4650727952755905
0
LINE
8
BLACK
6
CONTINUOUS
10
0.3341639763779528
20
0.4650727952755905
11
0.3323773228346457
21
0.4656683464566929
0
LINE
8
BLACK
6
CONTINUOUS
10
0.3323773228346457
20
0.4656683464566929
11
0.3315351181102362
21
0.4673527559055118
0
LINE
8
BLACK
6
CONTINUOUS
10
0.3315351181102362
20
0.4673527559055118
11
0.3316551574803149
21
0.4683053149606299
0
LINE
8
BLACK
6
CONTINUOUS
10
0.3316551574803149
20
0.4683053149606299
11
0.3382168110236221
21
0.4879903543307086
0
LINE
8
BLACK
6
CONTINUOUS
10
0.3382168110236221
20
0.4879903543307086
11
0.3386923228346457
21
0.4888244488188976
0
LINE
8
BLACK
6
CONTINUOUS
10
0.3386923228346457
20
0.4888244488188976
11
0.3388567322834646
21
0.4889066929133858
0
LINE
8
BLACK
6
CONTINUOUS
10
0.3388567322834646
20
0.4889066929133858
11
0.3389389763779527
21
0.4890711023622047
0
LINE
8
BLACK
6
CONTINUOUS
10
0.3389389763779527
20
0.4890711023622047
11
0.339678937007874
21
0.4893177559055118
0
LINE
8
BLACK
6
CONTINUOUS
10
0.339678937007874
20
0.4893177559055118
11
0.3403767322834645
21
0.4896666535433071
0
LINE
8
BLACK
6
CONTINUOUS
10
0.3403767322834645
20
0.4896666535433071
11
0.3405511811023622
21
0.4896085039370079
0
LINE
8
BLACK
6
CONTINUOUS
10
0.3405511811023622
20
0.4896085039370079
11
0.3407256299212598
21
0.4896666535433071
0
LINE
8
BLACK
6
CONTINUOUS
10
0.3407256299212598
20
0.4896666535433071
11
0.3414234251968504
21
0.4893177559055118
0
LINE
8
BLACK
6
CONTINUOUS
10
0.3392782283464567
20
0.475612125984252
11
0.3418241732283465
21
0.475612125984252
0
LINE
8
BLACK
6
CONTINUOUS
10
0.3418241732283465
20
0.475612125984252
11
0.3405511811023622
21
0.4794310236220473
0
LINE
8
BLACK
6
CONTINUOUS
10
0.3405511811023622
20
0.4794310236220473
11
0.3392782283464567
21
0.475612125984252
0
LINE
8
BLACK
6
CONTINUOUS
10
0.2012796850393701
20
0.4881538582677165
11
0.2012796850393701
21
0.4862706299212599
0
LINE
8
BLACK
6
CONTINUOUS
10
0.2012796850393701
20
0.4862706299212599
11
0.2007462598425197
21
0.4854723228346456
0
LINE
8
BLACK
6
CONTINUOUS
10
0.2007462598425197
20
0.4854723228346456
11
0.1938188188976378
21
0.4785449212598425
0
LINE
8
BLACK
6
CONTINUOUS
10
0.1938188188976378
20
0.4785449212598425
11
0.200974842519685
21
0.4690035826771654
0
LINE
8
BLACK
6
CONTINUOUS
10
0.200974842519685
20
0.4690035826771654
11
0.2013899606299213
21
0.468137874015748
0
LINE
8
BLACK
6
CONTINUOUS
10
0.2013899606299213
20
0.468137874015748
11
0.2011236220472441
21
0.4662735433070866
0
LINE
8
BLACK
6
CONTINUOUS
10
0.2011236220472441
20
0.4662735433070866
11
0.1996170078740157
21
0.4651435826771653
0
LINE
8
BLACK
6
CONTINUOUS
10
0.1996170078740157
20
0.4651435826771653
11
0.1977526771653543
21
0.4654099212598425
0
LINE
8
BLACK
6
CONTINUOUS
10
0.1977526771653543
20
0.4654099212598425
11
0.1970378346456693
21
0.4660508267716535
0
LINE
8
BLACK
6
CONTINUOUS
10
0.1970378346456693
20
0.4660508267716535
11
0.1903036614173228
21
0.4750297637795275
0
LINE
8
BLACK
6
CONTINUOUS
10
0.1903036614173228
20
0.4750297637795275
11
0.1902183858267716
21
0.4749444488188976
0
LINE
8
BLACK
6
CONTINUOUS
10
0.1902183858267716
20
0.4749444488188976
11
0.1902183858267716
21
0.4675272047244095
0
LINE
8
BLACK
6
CONTINUOUS
10
0.1902183858267716
20
0.4675272047244095
11
0.190031062992126
21
0.4665855511811023
0
LINE
8
BLACK
6
CONTINUOUS
10
0.190031062992126
20
0.4665855511811023
11
0.1886994094488189
21
0.4652538976377953
0
LINE
8
BLACK
6
CONTINUOUS
10
0.1886994094488189
20
0.4652538976377953
11
0.1868161023622047
21
0.4652538976377953
0
LINE
8
BLACK
6
CONTINUOUS
10
0.1868161023622047
20
0.4652538976377953
11
0.1854844488188976
21
0.4665855511811023
0
LINE
8
BLACK
6
CONTINUOUS
10
0.1854844488188976
20
0.4665855511811023
11
0.185297125984252
21
0.4675272047244095
0
LINE
8
BLACK
6
CONTINUOUS
10
0.185297125984252
20
0.4675272047244095
11
0.185297125984252
21
0.4872122440944882
0
LINE
8
BLACK
6
CONTINUOUS
10
0.185297125984252
20
0.4872122440944882
11
0.1854844488188976
21
0.4881538976377953
0
LINE
8
BLACK
6
CONTINUOUS
10
0.1854844488188976
20
0.4881538976377953
11
0.1868161023622047
21
0.4894855511811024
0
LINE
8
BLACK
6
CONTINUOUS
10
0.1868161023622047
20
0.4894855511811024
11
0.1886994094488189
21
0.4894855511811024
0
LINE
8
BLACK
6
CONTINUOUS
10
0.1886994094488189
20
0.4894855511811024
11
0.190031062992126
21
0.4881538976377953
0
LINE
8
BLACK
6
CONTINUOUS
10
0.190031062992126
20
0.4881538976377953
11
0.1902183858267716
21
0.4872122440944882
0
LINE
8
BLACK
6
CONTINUOUS
10
0.1902183858267716
20
0.4872122440944882
11
0.1902183858267716
21
0.4819041338582677
0
LINE
8
BLACK
6
CONTINUOUS
10
0.1902183858267716
20
0.4819041338582677
11
0.1972664173228346
21
0.4889521653543307
0
LINE
8
BLACK
6
CONTINUOUS
10
0.1972664173228346
20
0.4889521653543307
11
0.1980647244094488
21
0.4894855905511811
0
LINE
8
BLACK
6
CONTINUOUS
10
0.1980647244094488
20
0.4894855905511811
11
0.1999479527559055
21
0.4894855905511811
0
LINE
8
BLACK
6
CONTINUOUS
10
0.1999479527559055
20
0.4894855905511811
11
0.2012796850393701
21
0.4881538582677165
0
LINE
8
BLACK
6
CONTINUOUS
10
0.3151617322834646
20
0.5637299212598426
11
0.3152597244094488
21
0.5636893307086615
0
LINE
8
BLACK
6
CONTINUOUS
10
0.3152597244094488
20
0.5636893307086615
11
0.3153655511811024
21
0.563681811023622
0
LINE
8
BLACK
6
CONTINUOUS
10
0.3153655511811024
20
0.563681811023622
11
0.3159061811023622
21
0.5634749212598426
0
LINE
8
BLACK
6
CONTINUOUS
10
0.3159061811023622
20
0.5634749212598426
11
0.3196557086614173
21
0.561600157480315
0
LINE
8
BLACK
6
CONTINUOUS
10
0.3196557086614173
20
0.561600157480315
11
0.3199037007874015
21
0.561444094488189
0
LINE
8
BLACK
6
CONTINUOUS
10
0.3199037007874015
20
0.561444094488189
11
0.3199756692913386
21
0.5614142519685039
0
LINE
8
BLACK
6
CONTINUOUS
10
0.3199756692913386
20
0.5614142519685039
11
0.3200566141732283
21
0.5613477952755905
0
LINE
8
BLACK
6
CONTINUOUS
10
0.3200566141732283
20
0.5613477952755905
11
0.3201455905511811
21
0.561291811023622
0
LINE
8
BLACK
6
CONTINUOUS
10
0.3201455905511811
20
0.561291811023622
11
0.3201967322834646
21
0.5612328346456693
0
LINE
8
BLACK
6
CONTINUOUS
10
0.3201967322834646
20
0.5612328346456693
11
0.3204231102362204
21
0.5610470472440945
0
LINE
8
BLACK
6
CONTINUOUS
10
0.3204231102362204
20
0.5610470472440945
11
0.322297874015748
21
0.5591722834645669
0
LINE
8
BLACK
6
CONTINUOUS
10
0.322297874015748
20
0.5591722834645669
11
0.3224836220472441
21
0.5589459448818898
0
LINE
8
BLACK
6
CONTINUOUS
10
0.3224836220472441
20
0.5589459448818898
11
0.3225426377952756
21
0.5588947637795275
0
LINE
8
BLACK
6
CONTINUOUS
10
0.3225426377952756
20
0.5588947637795275
11
0.3225985826771653
21
0.5588058267716536
0
LINE
8
BLACK
6
CONTINUOUS
10
0.3225985826771653
20
0.5588058267716536
11
0.3226650787401575
21
0.558724842519685
0
LINE
8
BLACK
6
CONTINUOUS
10
0.3226650787401575
20
0.558724842519685
11
0.3226948818897638
21
0.5586529133858268
0
LINE
8
BLACK
6
CONTINUOUS
10
0.3226948818897638
20
0.5586529133858268
11
0.3228509842519685
21
0.5584048818897638
0
LINE
8
BLACK
6
CONTINUOUS
10
0.3228509842519685
20
0.5584048818897638
11
0.3247257480314961
21
0.5546553543307087
0
LINE
8
BLACK
6
CONTINUOUS
10
0.3247257480314961
20
0.5546553543307087
11
0.3249326377952756
21
0.5541147637795275
0
LINE
8
BLACK
6
CONTINUOUS
10
0.3249326377952756
20
0.5541147637795275
11
0.324940157480315
21
0.5540088976377953
0
LINE
8
BLACK
6
CONTINUOUS
10
0.324940157480315
20
0.5540088976377953
11
0.3249807480314961
21
0.553910905511811
0
LINE
8
BLACK
6
CONTINUOUS
10
0.3249807480314961
20
0.553910905511811
11
0.3250374803149606
21
0.553334842519685
0
LINE
8
BLACK
6
CONTINUOUS
10
0.3250374803149606
20
0.553334842519685
11
0.3250374803149606
21
0.5477105511811023
0
LINE
8
BLACK
6
CONTINUOUS
10
0.3250374803149606
20
0.5477105511811023
11
0.3249807480314961
21
0.5471344881889764
0
LINE
8
BLACK
6
CONTINUOUS
10
0.3249807480314961
20
0.5471344881889764
11
0.324940157480315
21
0.5470365354330708
0
LINE
8
BLACK
6
CONTINUOUS
10
0.324940157480315
20
0.5470365354330708
11
0.3249326377952756
21
0.5469306299212598
0
LINE
8
BLACK
6
CONTINUOUS
10
0.3249326377952756
20
0.5469306299212598
11
0.3247257480314961
21
0.5463900393700787
0
LINE
8
BLACK
6
CONTINUOUS
10
0.3247257480314961
20
0.5463900393700787
11
0.3228509842519685
21
0.5426405118110236
0
LINE
8
BLACK
6
CONTINUOUS
10
0.3228509842519685
20
0.5426405118110236
11
0.3226948818897638
21
0.5423925196850393
0
LINE
8
BLACK
6
CONTINUOUS
10
0.3226948818897638
20
0.5423925196850393
11
0.3226650787401575
21
0.5423205511811023
0
LINE
8
BLACK
6
CONTINUOUS
10
0.3226650787401575
20
0.5423205511811023
11
0.3225985826771653
21
0.5422396062992126
0
LINE
8
BLACK
6
CONTINUOUS
10
0.3225985826771653
20
0.5422396062992126
11
0.3225426377952756
21
0.5421506299212598
0
LINE
8
BLACK
6
CONTINUOUS
10
0.3225426377952756
20
0.5421506299212598
11
0.3224836220472441
21
0.5420994881889764
0
LINE
8
BLACK
6
CONTINUOUS
10
0.3224836220472441
20
0.5420994881889764
11
0.322297874015748
21
0.5418731102362204
0
LINE
8
BLACK
6
CONTINUOUS
10
0.322297874015748
20
0.5418731102362204
11
0.3204231102362204
21
0.5399983464566929
0
LINE
8
BLACK
6
CONTINUOUS
10
0.3204231102362204
20
0.5399983464566929
11
0.3201967322834646
21
0.5398125984251968
0
LINE
8
BLACK
6
CONTINUOUS
10
0.3201967322834646
20
0.5398125984251968
11
0.3201455905511811
21
0.5397535826771653
0
LINE
8
BLACK
6
CONTINUOUS
10
0.3201455905511811
20
0.5397535826771653
11
0.3200566141732283
21
0.5396976377952756
0
LINE
8
BLACK
6
CONTINUOUS
10
0.3200566141732283
20
0.5396976377952756
11
0.3199756692913386
21
0.5396311417322834
0
LINE
8
BLACK
6
CONTINUOUS
10
0.3199756692913386
20
0.5396311417322834
11
0.3199037007874015
21
0.5396013385826771
0
LINE
8
BLACK
6
CONTINUOUS
10
0.3199037007874015
20
0.5396013385826771
11
0.3196557086614173
21
0.5394452362204725
0
LINE
8
BLACK
6
CONTINUOUS
10
0.3196557086614173
20
0.5394452362204725
11
0.3159061811023622
21
0.5375704724409449
0
LINE
8
BLACK
6
CONTINUOUS
10
0.3159061811023622
20
0.5375704724409449
11
0.3153655511811024
21
0.5373635826771653
0
LINE
8
BLACK
6
CONTINUOUS
10
0.3153655511811024
20
0.5373635826771653
11
0.3152597244094488
21
0.5373561023622047
0
LINE
8
BLACK
6
CONTINUOUS
10
0.3152597244094488
20
0.5373561023622047
11
0.3151617322834646
21
0.5373154724409449
0
LINE
8
BLACK
6
CONTINUOUS
10
0.3151617322834646
20
0.5373154724409449
11
0.3146295669291339
21
0.5372630708661417
0
LINE
8
BLACK
6
CONTINUOUS
10
0.3146295669291339
20
0.5372630708661417
11
0.3245037401574803
21
0.5231570866141733
0
LINE
8
BLACK
6
CONTINUOUS
10
0.3245037401574803
20
0.5231570866141733
11
0.3247875984251968
21
0.5226526377952756
0
LINE
8
BLACK
6
CONTINUOUS
10
0.3247875984251968
20
0.5226526377952756
11
0.3250367716535433
21
0.5215277952755906
0
LINE
8
BLACK
6
CONTINUOUS
10
0.3250367716535433
20
0.5215277952755906
11
0.3248365748031496
21
0.5203932283464566
0
LINE
8
BLACK
6
CONTINUOUS
10
0.3248365748031496
20
0.5203932283464566
11
0.3242174015748032
21
0.519421653543307
0
LINE
8
BLACK
6
CONTINUOUS
10
0.3242174015748032
20
0.519421653543307
11
0.3232735433070866
21
0.5187609448818897
0
LINE
8
BLACK
6
CONTINUOUS
10
0.3232735433070866
20
0.5187609448818897
11
0.3221487007874015
21
0.5185117322834646
0
LINE
8
BLACK
6
CONTINUOUS
10
0.3221487007874015
20
0.5185117322834646
11
0.3210141732283465
21
0.518711968503937
0
LINE
8
BLACK
6
CONTINUOUS
10
0.3210141732283465
20
0.518711968503937
11
0.3200425590551181
21
0.5193311417322835
0
LINE
8
BLACK
6
CONTINUOUS
10
0.3200425590551181
20
0.5193311417322835
11
0.3196657480314961
21
0.5197705118110236
0
LINE
8
BLACK
6
CONTINUOUS
10
0.3196657480314961
20
0.5197705118110236
11
0.3074240157480315
21
0.5372587401574803
0
LINE
8
BLACK
6
CONTINUOUS
10
0.3074240157480315
20
0.5372587401574803
11
0.3025403149606299
21
0.5372587401574803
0
LINE
8
BLACK
6
CONTINUOUS
10
0.3025403149606299
20
0.5372587401574803
11
0.3025403149606299
21
0.5214638188976378
0
LINE
8
BLACK
6
CONTINUOUS
10
0.3025403149606299
20
0.5214638188976378
11
0.3024835826771654
21
0.5208877559055118
0
LINE
8
BLACK
6
CONTINUOUS
10
0.3024835826771654
20
0.5208877559055118
11
0.3020426771653543
21
0.5198233464566929
0
LINE
8
BLACK
6
CONTINUOUS
10
0.3020426771653543
20
0.5198233464566929
11
0.301228031496063
21
0.5190087007874016
0
LINE
8
BLACK
6
CONTINUOUS
10
0.301228031496063
20
0.5190087007874016
11
0.3001636220472441
21
0.5185677952755905
0
LINE
8
BLACK
6
CONTINUOUS
10
0.3001636220472441
20
0.5185677952755905
11
0.2990114960629921
21
0.5185677952755905
0
LINE
8
BLACK
6
CONTINUOUS
10
0.2990114960629921
20
0.5185677952755905
11
0.2979470866141732
21
0.5190087007874016
0
LINE
8
BLACK
6
CONTINUOUS
10
0.2979470866141732
20
0.5190087007874016
11
0.2971324409448819
21
0.5198233464566929
0
LINE
8
BLACK
6
CONTINUOUS
10
0.2971324409448819
20
0.5198233464566929
11
0.2966915354330709
21
0.5208877559055118
0
LINE
8
BLACK
6
CONTINUOUS
10
0.2966915354330709
20
0.5208877559055118
11
0.2966348031496063
21
0.5214638188976378
0
LINE
8
BLACK
6
CONTINUOUS
10
0.2966348031496063
20
0.5214638188976378
11
0.2966348031496063
21
0.5608338976377952
0
LINE
8
BLACK
6
CONTINUOUS
10
0.2966348031496063
20
0.5608338976377952
11
0.2966915354330709
21
0.5614099606299212
0
LINE
8
BLACK
6
CONTINUOUS
10
0.2966915354330709
20
0.5614099606299212
11
0.2971324409448819
21
0.5624743700787401
0
LINE
8
BLACK
6
CONTINUOUS
10
0.2971324409448819
20
0.5624743700787401
11
0.2979470866141732
21
0.5632890157480315
0
LINE
8
BLACK
6
CONTINUOUS
10
0.2979470866141732
20
0.5632890157480315
11
0.2990114960629921
21
0.5637299212598426
0
LINE
8
BLACK
6
CONTINUOUS
10
0.2990114960629921
20
0.5637299212598426
11
0.2995875590551181
21
0.563786653543307
0
LINE
8
BLACK
6
CONTINUOUS
10
0.2995875590551181
20
0.563786653543307
11
0.3145856692913386
21
0.563786653543307
0
LINE
8
BLACK
6
CONTINUOUS
10
0.3145856692913386
20
0.563786653543307
11
0.3151617322834646
21
0.5637299212598426
0
LINE
8
BLACK
6
CONTINUOUS
10
0.3025403149606299
20
0.5431642519685039
11
0.3138886220472441
21
0.5431642519685039
0
LINE
8
BLACK
6
CONTINUOUS
10
0.3138886220472441
20
0.5431642519685039
11
0.3165861023622047
21
0.5445129921259843
0
LINE
8
BLACK
6
CONTINUOUS
10
0.3165861023622047
20
0.5445129921259843
11
0.3177832283464567
21
0.5457101181102362
0
LINE
8
BLACK
6
CONTINUOUS
10
0.3177832283464567
20
0.5457101181102362
11
0.319131968503937
21
0.5484075984251968
0
LINE
8
BLACK
6
CONTINUOUS
10
0.319131968503937
20
0.5484075984251968
11
0.319131968503937
21
0.5526377952755905
0
LINE
8
BLACK
6
CONTINUOUS
10
0.319131968503937
20
0.5526377952755905
11
0.3177832283464567
21
0.5553352755905512
0
LINE
8
BLACK
6
CONTINUOUS
10
0.3177832283464567
20
0.5553352755905512
11
0.3165861023622047
21
0.5565324015748031
0
LINE
8
BLACK
6
CONTINUOUS
10
0.3165861023622047
20
0.5565324015748031
11
0.3138886220472441
21
0.5578811417322834
0
LINE
8
BLACK
6
CONTINUOUS
10
0.3138886220472441
20
0.5578811417322834
11
0.3025403149606299
21
0.5578811417322834
0
LINE
8
BLACK
6
CONTINUOUS
10
0.3025403149606299
20
0.5578811417322834
11
0.3025403149606299
21
0.5431642519685039
0
LINE
8
BLACK
6
CONTINUOUS
10
0.2858206299212598
20
0.563517716535433
11
0.2867539763779527
21
0.5628422834645669
0
LINE
8
BLACK
6
CONTINUOUS
10
0.2867539763779527
20
0.5628422834645669
11
0.2873577559055118
21
0.5618611023622047
0
LINE
8
BLACK
6
CONTINUOUS
10
0.2873577559055118
20
0.5618611023622047
11
0.287540157480315
21
0.5607235039370079
0
LINE
8
BLACK
6
CONTINUOUS
10
0.287540157480315
20
0.5607235039370079
11
0.2874618897637795
21
0.5601499606299213
0
LINE
8
BLACK
6
CONTINUOUS
10
0.2874618897637795
20
0.5601499606299213
11
0.278088031496063
21
0.5207798818897638
0
LINE
8
BLACK
6
CONTINUOUS
10
0.278088031496063
20
0.5207798818897638
11
0.2780199212598425
21
0.5205823228346457
0
LINE
8
BLACK
6
CONTINUOUS
10
0.2780199212598425
20
0.5205823228346457
11
0.2780105118110236
21
0.5205112992125984
0
LINE
8
BLACK
6
CONTINUOUS
10
0.2780105118110236
20
0.5205112992125984
11
0.2779733464566929
21
0.5204471653543307
0
LINE
8
BLACK
6
CONTINUOUS
10
0.2779733464566929
20
0.5204471653543307
11
0.2778994488188976
21
0.5202326377952756
0
LINE
8
BLACK
6
CONTINUOUS
10
0.2778994488188976
20
0.5202326377952756
11
0.277648031496063
21
0.5198852755905512
0
LINE
8
BLACK
6
CONTINUOUS
10
0.277648031496063
20
0.5198852755905512
11
0.2774332677165354
21
0.5195142913385826
0
LINE
8
BLACK
6
CONTINUOUS
10
0.2774332677165354
20
0.5195142913385826
11
0.277312874015748
21
0.5194221653543307
0
LINE
8
BLACK
6
CONTINUOUS
10
0.277312874015748
20
0.5194221653543307
11
0.2772239763779528
21
0.5192992913385827
0
LINE
8
BLACK
6
CONTINUOUS
10
0.2772239763779528
20
0.5192992913385827
11
0.276858937007874
21
0.51907468503937
0
LINE
8
BLACK
6
CONTINUOUS
10
0.276858937007874
20
0.51907468503937
11
0.2765183858267716
21
0.5188139763779528
0
LINE
8
BLACK
6
CONTINUOUS
10
0.2765183858267716
20
0.5188139763779528
11
0.2763717716535433
21
0.5187748818897637
0
LINE
8
BLACK
6
CONTINUOUS
10
0.2763717716535433
20
0.5187748818897637
11
0.2762427952755905
21
0.5186955118110236
0
LINE
8
BLACK
6
CONTINUOUS
10
0.2762427952755905
20
0.5186955118110236
11
0.2758198031496063
21
0.518627716535433
0
LINE
8
BLACK
6
CONTINUOUS
10
0.2758198031496063
20
0.518627716535433
11
0.2754051968503937
21
0.5185171259842519
0
LINE
8
BLACK
6
CONTINUOUS
10
0.2754051968503937
20
0.5185171259842519
11
0.275254842519685
21
0.5185371259842519
0
LINE
8
BLACK
6
CONTINUOUS
10
0.275254842519685
20
0.5185371259842519
11
0.2751051968503937
21
0.5185131102362205
0
LINE
8
BLACK
6
CONTINUOUS
10
0.2751051968503937
20
0.5185131102362205
11
0.274688031496063
21
0.5186124409448819
0
LINE
8
BLACK
6
CONTINUOUS
10
0.274688031496063
20
0.5186124409448819
11
0.2742631102362205
21
0.5186688976377952
0
LINE
8
BLACK
6
CONTINUOUS
10
0.2742631102362205
20
0.5186688976377952
11
0.2741319291338583
21
0.518744842519685
0
LINE
8
BLACK
6
CONTINUOUS
10
0.2741319291338583
20
0.518744842519685
11
0.2739844094488189
21
0.5187799606299213
0
LINE
8
BLACK
6
CONTINUOUS
10
0.2739844094488189
20
0.5187799606299213
11
0.273636968503937
21
0.5190314173228346
0
LINE
8
BLACK
6
CONTINUOUS
10
0.273636968503937
20
0.5190314173228346
11
0.273266062992126
21
0.5192461417322835
0
LINE
8
BLACK
6
CONTINUOUS
10
0.273266062992126
20
0.5192461417322835
11
0.2731738976377953
21
0.5193665354330709
0
LINE
8
BLACK
6
CONTINUOUS
10
0.2731738976377953
20
0.5193665354330709
11
0.273051062992126
21
0.5194554330708662
0
LINE
8
BLACK
6
CONTINUOUS
10
0.273051062992126
20
0.5194554330708662
11
0.2728264173228346
21
0.5198205118110236
0
LINE
8
BLACK
6
CONTINUOUS
10
0.2728264173228346
20
0.5198205118110236
11
0.2725657874015748
21
0.5201609842519684
0
LINE
8
BLACK
6
CONTINUOUS
10
0.2725657874015748
20
0.5201609842519684
11
0.2724860236220472
21
0.5203736614173228
0
LINE
8
BLACK
6
CONTINUOUS
10
0.2724860236220472
20
0.5203736614173228
11
0.2724472834645669
21
0.5204366141732283
0
LINE
8
BLACK
6
CONTINUOUS
10
0.2724472834645669
20
0.5204366141732283
11
0.2724359448818898
21
0.520507125984252
0
LINE
8
BLACK
6
CONTINUOUS
10
0.2724359448818898
20
0.520507125984252
11
0.2723625196850394
21
0.5207029921259843
0
LINE
8
BLACK
6
CONTINUOUS
10
0.2723625196850394
20
0.5207029921259843
11
0.2677164960629921
21
0.5381254724409449
0
LINE
8
BLACK
6
CONTINUOUS
10
0.2677164960629921
20
0.5381254724409449
11
0.2630705511811023
21
0.5207029921259843
0
LINE
8
BLACK
6
CONTINUOUS
10
0.2630705511811023
20
0.5207029921259843
11
0.2629970866141732
21
0.5205071653543307
0
LINE
8
BLACK
6
CONTINUOUS
10
0.2629970866141732
20
0.5205071653543307
11
0.2629857874015748
21
0.5204366141732283
0
LINE
8
BLACK
6
CONTINUOUS
10
0.2629857874015748
20
0.5204366141732283
11
0.2629470078740158
21
0.5203736220472441
0
LINE
8
BLACK
6
CONTINUOUS
10
0.2629470078740158
20
0.5203736220472441
11
0.2628672834645669
21
0.5201610236220472
0
LINE
8
BLACK
6
CONTINUOUS
10
0.2628672834645669
20
0.5201610236220472
11
0.2626066929133858
21
0.5198206299212599
0
LINE
8
BLACK
6
CONTINUOUS
10
0.2626066929133858
20
0.5198206299212599
11
0.2623820078740157
21
0.5194554330708662
0
LINE
8
BLACK
6
CONTINUOUS
10
0.2623820078740157
20
0.5194554330708662
11
0.2622591338582677
21
0.5193665354330709
0
LINE
8
BLACK
6
CONTINUOUS
10
0.2622591338582677
20
0.5193665354330709
11
0.2621670078740158
21
0.5192461417322835
0
LINE
8
BLACK
6
CONTINUOUS
10
0.2621670078740158
20
0.5192461417322835
11
0.261796062992126
21
0.5190314173228346
0
LINE
8
BLACK
6
CONTINUOUS
10
0.261796062992126
20
0.5190314173228346
11
0.2614486614173228
21
0.5187799606299213
0
LINE
8
BLACK
6
CONTINUOUS
10
0.2614486614173228
20
0.5187799606299213
11
0.2613011023622047
21
0.518744842519685
0
LINE
8
BLACK
6
CONTINUOUS
10
0.2613011023622047
20
0.518744842519685
11
0.2611699606299213
21
0.5186688976377952
0
LINE
8
BLACK
6
CONTINUOUS
10
0.2611699606299213
20
0.5186688976377952
11
0.2607451181102362
21
0.5186124803149607
0
LINE
8
BLACK
6
CONTINUOUS
10
0.2607451181102362
20
0.5186124803149607
11
0.260327874015748
21
0.5185131102362205
0
LINE
8
BLACK
6
CONTINUOUS
10
0.260327874015748
20
0.5185131102362205
11
0.2601781102362205
21
0.5185371259842519
0
LINE
8
BLACK
6
CONTINUOUS
10
0.2601781102362205
20
0.5185371259842519
11
0.2600279133858268
21
0.5185171653543307
0
LINE
8
BLACK
6
CONTINUOUS
10
0.2600279133858268
20
0.5185171653543307
11
0.2596136614173228
21
0.5186276377952755
0
LINE
8
BLACK
6
CONTINUOUS
10
0.2596136614173228
20
0.5186276377952755
11
0.2591902755905512
21
0.5186955118110236
0
LINE
8
BLACK
6
CONTINUOUS
10
0.2591902755905512
20
0.5186955118110236
11
0.2590611417322835
21
0.5187749606299212
0
LINE
8
BLACK
6
CONTINUOUS
10
0.2590611417322835
20
0.5187749606299212
11
0.2589146850393701
21
0.5188140157480314
0
LINE
8
BLACK
6
CONTINUOUS
10
0.2589146850393701
20
0.5188140157480314
11
0.2585742519685039
21
0.5190746062992125
0
LINE
8
BLACK
6
CONTINUOUS
10
0.2585742519685039
20
0.5190746062992125
11
0.258209094488189
21
0.5192992913385827
0
LINE
8
BLACK
6
CONTINUOUS
10
0.258209094488189
20
0.5192992913385827
11
0.258120157480315
21
0.5194221653543307
0
LINE
8
BLACK
6
CONTINUOUS
10
0.258120157480315
20
0.5194221653543307
11
0.2579998031496063
21
0.5195142913385826
0
LINE
8
BLACK
6
CONTINUOUS
10
0.2579998031496063
20
0.5195142913385826
11
0.2577850393700787
21
0.5198852362204724
0
LINE
8
BLACK
6
CONTINUOUS
10
0.2577850393700787
20
0.5198852362204724
11
0.2575336220472441
21
0.5202326377952756
0
LINE
8
BLACK
6
CONTINUOUS
10
0.2575336220472441
20
0.5202326377952756
11
0.2574596456692914
21
0.5204472440944882
0
LINE
8
BLACK
6
CONTINUOUS
10
0.2574596456692914
20
0.5204472440944882
11
0.2574225590551181
21
0.5205113385826772
0
LINE
8
BLACK
6
CONTINUOUS
10
0.2574225590551181
20
0.5205113385826772
11
0.2574131102362205
21
0.5205822834645669
0
LINE
8
BLACK
6
CONTINUOUS
10
0.2574131102362205
20
0.5205822834645669
11
0.2573450393700787
21
0.5207798818897638
0
LINE
8
BLACK
6
CONTINUOUS
10
0.2573450393700787
20
0.5207798818897638
11
0.2479712204724409
21
0.5601499606299213
0
LINE
8
BLACK
6
CONTINUOUS
10
0.2479712204724409
20
0.5601499606299213
11
0.2478929527559055
21
0.5607235039370079
0
LINE
8
BLACK
6
CONTINUOUS
10
0.2478929527559055
20
0.5607235039370079
11
0.2480753543307087
21
0.5618611023622047
0
LINE
8
BLACK
6
CONTINUOUS
10
0.2480753543307087
20
0.5618611023622047
11
0.2486791338582677
21
0.5628422834645669
0
LINE
8
BLACK
6
CONTINUOUS
10
0.2486791338582677
20
0.5628422834645669
11
0.2496124803149606
21
0.5635177559055118
0
LINE
8
BLACK
6
CONTINUOUS
10
0.2496124803149606
20
0.5635177559055118
11
0.2507332677165354
21
0.5637846062992126
0
LINE
8
BLACK
6
CONTINUOUS
10
0.2507332677165354
20
0.5637846062992126
11
0.2518708661417323
21
0.5636022047244095
0
LINE
8
BLACK
6
CONTINUOUS
10
0.2518708661417323
20
0.5636022047244095
11
0.2528520472440945
21
0.5629984251968504
0
LINE
8
BLACK
6
CONTINUOUS
10
0.2528520472440945
20
0.5629984251968504
11
0.2535275196850393
21
0.5620650787401574
0
LINE
8
BLACK
6
CONTINUOUS
10
0.2535275196850393
20
0.5620650787401574
11
0.2537161023622047
21
0.5615178346456693
0
LINE
8
BLACK
6
CONTINUOUS
10
0.2537161023622047
20
0.5615178346456693
11
0.2603795275590551
21
0.5335313779527558
0
LINE
8
BLACK
6
CONTINUOUS
10
0.2603795275590551
20
0.5335313779527558
11
0.2648634645669291
21
0.5503461417322835
0
LINE
8
BLACK
6
CONTINUOUS
10
0.2648634645669291
20
0.5503461417322835
11
0.2649140551181102
21
0.5504811417322835
0
LINE
8
BLACK
6
CONTINUOUS
10
0.2649140551181102
20
0.5504811417322835
11
0.2649216141732283
21
0.5505377952755905
0
LINE
8
BLACK
6
CONTINUOUS
10
0.2649216141732283
20
0.5505377952755905
11
0.2649605511811023
21
0.5506051181102362
0
LINE
8
BLACK
6
CONTINUOUS
10
0.2649605511811023
20
0.5506051181102362
11
0.2650667322834646
21
0.5508881496062992
0
LINE
8
BLACK
6
CONTINUOUS
10
0.2650667322834646
20
0.5508881496062992
11
0.2653036220472441
21
0.5511976377952755
0
LINE
8
BLACK
6
CONTINUOUS
10
0.2653036220472441
20
0.5511976377952755
11
0.2654988582677165
21
0.551534842519685
0
LINE
8
BLACK
6
CONTINUOUS
10
0.2654988582677165
20
0.551534842519685
11
0.2656507086614173
21
0.5516511023622047
0
LINE
8
BLACK
6
CONTINUOUS
10
0.2656507086614173
20
0.5516511023622047
11
0.2657670078740157
21
0.5518029921259843
0
LINE
8
BLACK
6
CONTINUOUS
10
0.2657670078740157
20
0.5518029921259843
11
0.2661042913385827
21
0.5519983070866141
0
LINE
8
BLACK
6
CONTINUOUS
10
0.2661042913385827
20
0.5519983070866141
11
0.2664137401574803
21
0.5522351181102362
0
LINE
8
BLACK
6
CONTINUOUS
10
0.2664137401574803
20
0.5522351181102362
11
0.2665984645669291
21
0.5522844094488188
0
LINE
8
BLACK
6
CONTINUOUS
10
0.2665984645669291
20
0.5522844094488188
11
0.2667640551181102
21
0.5523802362204724
0
LINE
8
BLACK
6
CONTINUOUS
10
0.2667640551181102
20
0.5523802362204724
11
0.2671505511811024
21
0.5524316141732283
0
LINE
8
BLACK
6
CONTINUOUS
10
0.2671505511811024
20
0.5524316141732283
11
0.267526968503937
21
0.552531968503937
0
LINE
8
BLACK
6
CONTINUOUS
10
0.267526968503937
20
0.552531968503937
11
0.2677164173228346
21
0.552506811023622
0
LINE
8
BLACK
6
CONTINUOUS
10
0.2677164173228346
20
0.552506811023622
11
0.2679061417322834
21
0.5525320078740157
0
LINE
8
BLACK
6
CONTINUOUS
10
0.2679061417322834
20
0.5525320078740157
11
0.2682829133858268
21
0.5524315354330709
0
LINE
8
BLACK
6
CONTINUOUS
10
0.2682829133858268
20
0.5524315354330709
11
0.2686690157480315
21
0.5523802362204724
0
LINE
8
BLACK
6
CONTINUOUS
10
0.2686690157480315
20
0.5523802362204724
11
0.2688344094488189
21
0.5522844881889764
0
LINE
8
BLACK
6
CONTINUOUS
10
0.2688344094488189
20
0.5522844881889764
11
0.2690193307086614
21
0.5522351574803149
0
LINE
8
BLACK
6
CONTINUOUS
10
0.2690193307086614
20
0.5522351574803149
11
0.2693288582677165
21
0.5519982283464567
0
LINE
8
BLACK
6
CONTINUOUS
10
0.2693288582677165
20
0.5519982283464567
11
0.269666062992126
21
0.5518029921259843
0
LINE
8
BLACK
6
CONTINUOUS
10
0.269666062992126
20
0.5518029921259843
11
0.2697822834645669
21
0.5516511417322835
0
LINE
8
BLACK
6
CONTINUOUS
10
0.2697822834645669
20
0.5516511417322835
11
0.2699342125984252
21
0.551534842519685
0
LINE
8
BLACK
6
CONTINUOUS
10
0.2699342125984252
20
0.551534842519685
11
0.2701295275590551
21
0.5511975196850394
0
LINE
8
BLACK
6
CONTINUOUS
10
0.2701295275590551
20
0.5511975196850394
11
0.2703663385826772
21
0.5508881102362204
0
LINE
8
BLACK
6
CONTINUOUS
10
0.2703663385826772
20
0.5508881102362204
11
0.2704724015748031
21
0.5506052755905512
0
LINE
8
BLACK
6
CONTINUOUS
10
0.2704724015748031
20
0.5506052755905512
11
0.2705114566929134
21
0.5505378346456693
0
LINE
8
BLACK
6
CONTINUOUS
10
0.2705114566929134
20
0.5505378346456693
11
0.2705189763779527
21
0.5504811023622047
0
LINE
8
BLACK
6
CONTINUOUS
10
0.2705189763779527
20
0.5504811023622047
11
0.2705696062992126
21
0.5503461417322835
0
LINE
8
BLACK
6
CONTINUOUS
10
0.2705696062992126
20
0.5503461417322835
11
0.2750535039370079
21
0.5335313779527558
0
LINE
8
BLACK
6
CONTINUOUS
10
0.2750535039370079
20
0.5335313779527558
11
0.2817170078740158
21
0.5615177952755905
0
LINE
8
BLACK
6
CONTINUOUS
10
0.2817170078740158
20
0.5615177952755905
11
0.2819055905511811
21
0.5620650787401574
0
LINE
8
BLACK
6
CONTINUOUS
10
0.2819055905511811
20
0.5620650787401574
11
0.282581062992126
21
0.5629984251968504
0
LINE
8
BLACK
6
CONTINUOUS
10
0.282581062992126
20
0.5629984251968504
11
0.2835622440944882
21
0.5636022047244095
0
LINE
8
BLACK
6
CONTINUOUS
10
0.2835622440944882
20
0.5636022047244095
11
0.2846998425196851
21
0.5637846062992126
0
LINE
8
BLACK
6
CONTINUOUS
10
0.2846998425196851
20
0.5637846062992126
11
0.2858206299212598
21
0.563517716535433
0
LINE
8
BLACK
6
CONTINUOUS
10
0.2307972834645669
20
0.5637299212598426
11
0.2308952755905512
21
0.5636893307086615
0
LINE
8
BLACK
6
CONTINUOUS
10
0.2308952755905512
20
0.5636893307086615
11
0.2310011023622047
21
0.563681811023622
0
LINE
8
BLACK
6
CONTINUOUS
10
0.2310011023622047
20
0.563681811023622
11
0.2315417322834646
21
0.5634749212598426
0
LINE
8
BLACK
6
CONTINUOUS
10
0.2315417322834646
20
0.5634749212598426
11
0.2352912598425197
21
0.561600157480315
0
LINE
8
BLACK
6
CONTINUOUS
10
0.2352912598425197
20
0.561600157480315
11
0.2355392519685039
21
0.561444094488189
0
LINE
8
BLACK
6
CONTINUOUS
10
0.2355392519685039
20
0.561444094488189
11
0.2356112204724409
21
0.5614142519685039
0
LINE
8
BLACK
6
CONTINUOUS
10
0.2356112204724409
20
0.5614142519685039
11
0.2356921653543307
21
0.5613477952755905
0
LINE
8
BLACK
6
CONTINUOUS
10
0.2356921653543307
20
0.5613477952755905
11
0.2357811417322835
21
0.561291811023622
0
LINE
8
BLACK
6
CONTINUOUS
10
0.2357811417322835
20
0.561291811023622
11
0.2358322834645669
21
0.5612328346456693
0
LINE
8
BLACK
6
CONTINUOUS
10
0.2358322834645669
20
0.5612328346456693
11
0.2360586614173228
21
0.5610470472440945
0
LINE
8
BLACK
6
CONTINUOUS
10
0.2360586614173228
20
0.5610470472440945
11
0.2379334251968504
21
0.5591722834645669
0
LINE
8
BLACK
6
CONTINUOUS
10
0.2379334251968504
20
0.5591722834645669
11
0.2381191732283464
21
0.5589459448818898
0
LINE
8
BLACK
6
CONTINUOUS
10
0.2381191732283464
20
0.5589459448818898
11
0.2381781889763779
21
0.5588947637795275
0
LINE
8
BLACK
6
CONTINUOUS
10
0.2381781889763779
20
0.5588947637795275
11
0.2382341338582677
21
0.5588058267716536
0
LINE
8
BLACK
6
CONTINUOUS
10
0.2382341338582677
20
0.5588058267716536
11
0.2383006299212598
21
0.558724842519685
0
LINE
8
BLACK
6
CONTINUOUS
10
0.2383006299212598
20
0.558724842519685
11
0.2383304330708661
21
0.5586529133858268
0
LINE
8
BLACK
6
CONTINUOUS
10
0.2383304330708661
20
0.5586529133858268
11
0.2384865354330709
21
0.5584048818897638
0
LINE
8
BLACK
6
CONTINUOUS
10
0.2384865354330709
20
0.5584048818897638
11
0.2403612992125984
21
0.5546553543307087
0
LINE
8
BLACK
6
CONTINUOUS
10
0.2403612992125984
20
0.5546553543307087
11
0.2405681889763779
21
0.5541147637795275
0
LINE
8
BLACK
6
CONTINUOUS
10
0.2405681889763779
20
0.5541147637795275
11
0.2405757086614173
21
0.5540088976377953
0
LINE
8
BLACK
6
CONTINUOUS
10
0.2405757086614173
20
0.5540088976377953
11
0.2406162992125984
21
0.553910905511811
0
LINE
8
BLACK
6
CONTINUOUS
10
0.2406162992125984
20
0.553910905511811
11
0.240673031496063
21
0.553334842519685
0
LINE
8
BLACK
6
CONTINUOUS
10
0.240673031496063
20
0.553334842519685
11
0.240673031496063
21
0.5477105511811023
0
LINE
8
BLACK
6
CONTINUOUS
10
0.240673031496063
20
0.5477105511811023
11
0.2406162992125984
21
0.5471344881889764
0
LINE
8
BLACK
6
CONTINUOUS
10
0.2406162992125984
20
0.5471344881889764
11
0.2405757086614173
21
0.5470365354330708
0
LINE
8
BLACK
6
CONTINUOUS
10
0.2405757086614173
20
0.5470365354330708
11
0.2405681889763779
21
0.5469306299212598
0
LINE
8
BLACK
6
CONTINUOUS
10
0.2405681889763779
20
0.5469306299212598
11
0.2403612992125984
21
0.5463900393700787
0
LINE
8
BLACK
6
CONTINUOUS
10
0.2403612992125984
20
0.5463900393700787
11
0.2384865354330709
21
0.5426405118110236
0
LINE
8
BLACK
6
CONTINUOUS
10
0.2384865354330709
20
0.5426405118110236
11
0.2383304330708661
21
0.5423925196850393
0
LINE
8
BLACK
6
CONTINUOUS
10
0.2383304330708661
20
0.5423925196850393
11
0.2383006299212598
21
0.5423205511811023
0
LINE
8
BLACK
6
CONTINUOUS
10
0.2383006299212598
20
0.5423205511811023
11
0.2382341338582677
21
0.5422396062992126
0
LINE
8
BLACK
6
CONTINUOUS
10
0.2382341338582677
20
0.5422396062992126
11
0.2381781889763779
21
0.5421506299212598
0
LINE
8
BLACK
6
CONTINUOUS
10
0.2381781889763779
20
0.5421506299212598
11
0.2381191732283464
21
0.5420994881889764
0
LINE
8
BLACK
6
CONTINUOUS
10
0.2381191732283464
20
0.5420994881889764
11
0.2379334251968504
21
0.5418731102362204
0
LINE
8
BLACK
6
CONTINUOUS
10
0.2379334251968504
20
0.5418731102362204
11
0.2360586614173228
21
0.5399983464566929
0
LINE
8
BLACK
6
CONTINUOUS
10
0.2360586614173228
20
0.5399983464566929
11
0.2358322834645669
21
0.5398125984251968
0
LINE
8
BLACK
6
CONTINUOUS
10
0.2358322834645669
20
0.5398125984251968
11
0.2357811417322835
21
0.5397535826771653
0
LINE
8
BLACK
6
CONTINUOUS
10
0.2357811417322835
20
0.5397535826771653
11
0.2356921653543307
21
0.5396976377952756
0
LINE
8
BLACK
6
CONTINUOUS
10
0.2356921653543307
20
0.5396976377952756
11
0.2356112204724409
21
0.5396311417322834
0
LINE
8
BLACK
6
CONTINUOUS
10
0.2356112204724409
20
0.5396311417322834
11
0.2355392519685039
21
0.5396013385826771
0
LINE
8
BLACK
6
CONTINUOUS
10
0.2355392519685039
20
0.5396013385826771
11
0.2352912598425197
21
0.5394452362204725
0
LINE
8
BLACK
6
CONTINUOUS
10
0.2352912598425197
20
0.5394452362204725
11
0.2315417322834646
21
0.5375704724409449
0
LINE
8
BLACK
6
CONTINUOUS
10
0.2315417322834646
20
0.5375704724409449
11
0.2310011023622047
21
0.5373635826771653
0
LINE
8
BLACK
6
CONTINUOUS
10
0.2310011023622047
20
0.5373635826771653
11
0.2308952755905512
21
0.5373561023622047
0
LINE
8
BLACK
6
CONTINUOUS
10
0.2308952755905512
20
0.5373561023622047
11
0.2307972834645669
21
0.5373154724409449
0
LINE
8
BLACK
6
CONTINUOUS
10
0.2307972834645669
20
0.5373154724409449
11
0.230221220472441
21
0.5372587401574803
0
LINE
8
BLACK
6
CONTINUOUS
10
0.230221220472441
20
0.5372587401574803
11
0.2181758661417323
21
0.5372587401574803
0
LINE
8
BLACK
6
CONTINUOUS
10
0.2181758661417323
20
0.5372587401574803
11
0.2181758661417323
21
0.5214638188976378
0
LINE
8
BLACK
6
CONTINUOUS
10
0.2181758661417323
20
0.5214638188976378
11
0.2181191338582677
21
0.5208877559055118
0
LINE
8
BLACK
6
CONTINUOUS
10
0.2181191338582677
20
0.5208877559055118
11
0.2176782283464567
21
0.5198233464566929
0
LINE
8
BLACK
6
CONTINUOUS
10
0.2176782283464567
20
0.5198233464566929
11
0.2168635826771654
21
0.5190087007874016
0
LINE
8
BLACK
6
CONTINUOUS
10
0.2168635826771654
20
0.5190087007874016
11
0.2157991732283465
21
0.5185677952755905
0
LINE
8
BLACK
6
CONTINUOUS
10
0.2157991732283465
20
0.5185677952755905
11
0.2146470472440945
21
0.5185677952755905
0
LINE
8
BLACK
6
CONTINUOUS
10
0.2146470472440945
20
0.5185677952755905
11
0.2135826377952756
21
0.5190087007874016
0
LINE
8
BLACK
6
CONTINUOUS
10
0.2135826377952756
20
0.5190087007874016
11
0.2127679921259842
21
0.5198233464566929
0
LINE
8
BLACK
6
CONTINUOUS
10
0.2127679921259842
20
0.5198233464566929
11
0.2123270866141732
21
0.5208877559055118
0
LINE
8
BLACK
6
CONTINUOUS
10
0.2123270866141732
20
0.5208877559055118
11
0.2122703543307086
21
0.5214638188976378
0
LINE
8
BLACK
6
CONTINUOUS
10
0.2122703543307086
20
0.5214638188976378
11
0.2122703543307086
21
0.5608338976377952
0
LINE
8
BLACK
6
CONTINUOUS
10
0.2122703543307086
20
0.5608338976377952
11
0.2123270866141732
21
0.5614099606299212
0
LINE
8
BLACK
6
CONTINUOUS
10
0.2123270866141732
20
0.5614099606299212
11
0.2127679921259842
21
0.5624743700787401
0
LINE
8
BLACK
6
CONTINUOUS
10
0.2127679921259842
20
0.5624743700787401
11
0.2135826377952756
21
0.5632890157480315
0
LINE
8
BLACK
6
CONTINUOUS
10
0.2135826377952756
20
0.5632890157480315
11
0.2146470472440945
21
0.5637299212598426
0
LINE
8
BLACK
6
CONTINUOUS
10
0.2146470472440945
20
0.5637299212598426
11
0.2152231102362205
21
0.563786653543307
0
LINE
8
BLACK
6
CONTINUOUS
10
0.2152231102362205
20
0.563786653543307
11
0.230221220472441
21
0.563786653543307
0
LINE
8
BLACK
6
CONTINUOUS
10
0.230221220472441
20
0.563786653543307
11
0.2307972834645669
21
0.5637299212598426
0
LINE
8
BLACK
6
CONTINUOUS
10
0.2181758661417323
20
0.5431642519685039
11
0.2295241732283465
21
0.5431642519685039
0
LINE
8
BLACK
6
CONTINUOUS
10
0.2295241732283465
20
0.5431642519685039
11
0.2322216535433071
21
0.5445129921259843
0
LINE
8
BLACK
6
CONTINUOUS
10
0.2322216535433071
20
0.5445129921259843
11
0.233418779527559
21
0.5457101181102362
0
LINE
8
BLACK
6
CONTINUOUS
10
0.233418779527559
20
0.5457101181102362
11
0.2347675196850394
21
0.5484075984251968
0
LINE
8
BLACK
6
CONTINUOUS
10
0.2347675196850394
20
0.5484075984251968
11
0.2347675196850394
21
0.5526377952755905
0
LINE
8
BLACK
6
CONTINUOUS
10
0.2347675196850394
20
0.5526377952755905
11
0.233418779527559
21
0.5553352755905512
0
LINE
8
BLACK
6
CONTINUOUS
10
0.233418779527559
20
0.5553352755905512
11
0.2322216535433071
21
0.5565324015748031
0
LINE
8
BLACK
6
CONTINUOUS
10
0.2322216535433071
20
0.5565324015748031
11
0.2295241732283465
21
0.5578811417322834
0
LINE
8
BLACK
6
CONTINUOUS
10
0.2295241732283465
20
0.5578811417322834
11
0.2181758661417323
21
0.5578811417322834
0
LINE
8
BLACK
6
CONTINUOUS
10
0.2181758661417323
20
0.5578811417322834
11
0.2181758661417323
21
0.5431642519685039
  0
ENDSEC
  0
EOF
