  0
SECTION
  2
HEADER
  9
$ANGBASE
  50
0.0
  9
$ANGDIR
  70
1
  9
$MEASUREMENT
  70
0
  0
ENDSEC
  0
SECTION
  2
TABLES
  0
TABLE
  2
LTYPE
  70
4
  0
LTYPE
  5
40F
  2
CONTINUOUS
  70
0
  3
Solid line
  72
65
  73
0
  40
0.0
  0
LTYPE
  5
410
  2
DASHDOT
 70
0
  3
Dash Dot ____ _ ____ _
 72
65
 73
4
 40
2.0
 49
1.25
 49
-0.25
 49
0.25
 49
-0.25
  0
LTYPE
  5
411
  2
DASHED
 70
0
  3
Dashed __ __ __ __ __
 72
65
 73
2
 40
0.75
 49
0.5
 49
-0.25
  0
LTYPE
  5
43B
  2
DOTTED
 70
0
  3
Dotted .  .  .  .
 72
65
 73
2
 40
0.2
 49
0.0
 49
-0.2
  0
ENDTAB
  0
TABLE
  2
STYLE
  70
4
  0
STYLE
  2
KICAD
  70
0
  40
0
  41
1
  42
1
  50
0
  71
0
  3
isocp.shx
  0
STYLE
  2
KICADB
  70
0
  40
0
  41
1
  42
1
  50
0
  71
0
  3
isocp.shx
  0
STYLE
  2
KICADI
  70
0
  40
0
  41
1
  42
1
  50
15
  71
0
  3
isocp.shx
  0
STYLE
  2
KICADBI
  70
0
  40
0
  41
1
  42
1
  50
15
  71
0
  3
isocp.shx
  0
ENDTAB
  0
TABLE
  2
LAYER
  70
1
  0
LAYER
  2
BLACK
  70
0
  62
7
  6
CONTINUOUS
  0
ENDTAB
  0
ENDSEC
  0
SECTION
  2
ENTITIES
0
LINE
8
BLACK
6
CONTINUOUS
10
0.9644386614173228
20
0.340685
11
0.9704994881889764
21
0.3381745275590551
0
LINE
8
BLACK
6
CONTINUOUS
10
0.9704994881889764
20
0.3381745275590551
11
0.9759540944881889
21
0.3345298818897638
0
LINE
8
BLACK
6
CONTINUOUS
10
0.9759540944881889
20
0.3345298818897638
11
0.980592874015748
21
0.3298911023622047
0
LINE
8
BLACK
6
CONTINUOUS
10
0.980592874015748
20
0.3298911023622047
11
0.9842375196850394
21
0.3244364960629921
0
LINE
8
BLACK
6
CONTINUOUS
10
0.9842375196850394
20
0.3244364960629921
11
0.9867479921259842
21
0.3183756692913386
0
LINE
8
BLACK
6
CONTINUOUS
10
0.9867479921259842
20
0.3183756692913386
11
0.9880278346456692
21
0.3119415354330708
0
LINE
8
BLACK
6
CONTINUOUS
10
0.9880278346456692
20
0.3119415354330708
11
0.9880278346456692
21
0.3053812992125984
0
LINE
8
BLACK
6
CONTINUOUS
10
0.9880278346456692
20
0.3053812992125984
11
0.9867479921259842
21
0.2989471653543307
0
LINE
8
BLACK
6
CONTINUOUS
10
0.9867479921259842
20
0.2989471653543307
11
0.9842375196850394
21
0.2928863385826772
0
LINE
8
BLACK
6
CONTINUOUS
10
0.9842375196850394
20
0.2928863385826772
11
0.980592874015748
21
0.2874317322834646
0
LINE
8
BLACK
6
CONTINUOUS
10
0.980592874015748
20
0.2874317322834646
11
0.9759540944881889
21
0.2827929527559055
0
LINE
8
BLACK
6
CONTINUOUS
10
0.9759540944881889
20
0.2827929527559055
11
0.9704994881889764
21
0.2791483070866141
0
LINE
8
BLACK
6
CONTINUOUS
10
0.9704994881889764
20
0.2791483070866141
11
0.9644386614173228
21
0.2766378346456693
0
LINE
8
BLACK
6
CONTINUOUS
10
0.9644386614173228
20
0.2766378346456693
11
0.9580045275590551
21
0.2753579921259842
0
LINE
8
BLACK
6
CONTINUOUS
10
0.9580045275590551
20
0.2753579921259842
11
0.9514442913385827
21
0.2753579921259842
0
LINE
8
BLACK
6
CONTINUOUS
10
0.9514442913385827
20
0.2753579921259842
11
0.9450101574803149
21
0.2766378346456693
0
LINE
8
BLACK
6
CONTINUOUS
10
0.9450101574803149
20
0.2766378346456693
11
0.9389493307086614
21
0.2791483070866141
0
LINE
8
BLACK
6
CONTINUOUS
10
0.9389493307086614
20
0.2791483070866141
11
0.9334947244094488
21
0.2827929527559055
0
LINE
8
BLACK
6
CONTINUOUS
10
0.9334947244094488
20
0.2827929527559055
11
0.9288559448818897
21
0.2874317322834646
0
LINE
8
BLACK
6
CONTINUOUS
10
0.9288559448818897
20
0.2874317322834646
11
0.9252112992125984
21
0.2928863385826772
0
LINE
8
BLACK
6
CONTINUOUS
10
0.9252112992125984
20
0.2928863385826772
11
0.9227008267716535
21
0.2989471653543307
0
LINE
8
BLACK
6
CONTINUOUS
10
0.9227008267716535
20
0.2989471653543307
11
0.9214209842519685
21
0.3053812992125984
0
LINE
8
BLACK
6
CONTINUOUS
10
0.9214209842519685
20
0.3053812992125984
11
0.9214209842519685
21
0.3119415354330708
0
LINE
8
BLACK
6
CONTINUOUS
10
0.9214209842519685
20
0.3119415354330708
11
0.9227008267716535
21
0.3183756692913386
0
LINE
8
BLACK
6
CONTINUOUS
10
0.9227008267716535
20
0.3183756692913386
11
0.9252112992125984
21
0.3244364960629921
0
LINE
8
BLACK
6
CONTINUOUS
10
0.9252112992125984
20
0.3244364960629921
11
0.9288559448818897
21
0.3298911023622047
0
LINE
8
BLACK
6
CONTINUOUS
10
0.9288559448818897
20
0.3298911023622047
11
0.9334947244094488
21
0.3345298818897638
0
LINE
8
BLACK
6
CONTINUOUS
10
0.9334947244094488
20
0.3345298818897638
11
0.9389493307086614
21
0.3381745275590551
0
LINE
8
BLACK
6
CONTINUOUS
10
0.9389493307086614
20
0.3381745275590551
11
0.9450101574803149
21
0.340685
0
LINE
8
BLACK
6
CONTINUOUS
10
0.9450101574803149
20
0.340685
11
0.9514442913385827
21
0.341964842519685
0
LINE
8
BLACK
6
CONTINUOUS
10
0.9514442913385827
20
0.341964842519685
11
0.9580045275590551
21
0.341964842519685
0
LINE
8
BLACK
6
CONTINUOUS
10
0.9580045275590551
20
0.341964842519685
11
0.9644386614173228
21
0.340685
0
LINE
8
BLACK
6
CONTINUOUS
10
0.9644386614173228
20
0.440685
11
0.9704994881889764
21
0.4381745275590551
0
LINE
8
BLACK
6
CONTINUOUS
10
0.9704994881889764
20
0.4381745275590551
11
0.9759540944881889
21
0.4345298818897638
0
LINE
8
BLACK
6
CONTINUOUS
10
0.9759540944881889
20
0.4345298818897638
11
0.980592874015748
21
0.4298911023622047
0
LINE
8
BLACK
6
CONTINUOUS
10
0.980592874015748
20
0.4298911023622047
11
0.9842375196850394
21
0.4244364960629921
0
LINE
8
BLACK
6
CONTINUOUS
10
0.9842375196850394
20
0.4244364960629921
11
0.9867479921259842
21
0.4183756692913386
0
LINE
8
BLACK
6
CONTINUOUS
10
0.9867479921259842
20
0.4183756692913386
11
0.9880278346456692
21
0.4119415354330709
0
LINE
8
BLACK
6
CONTINUOUS
10
0.9880278346456692
20
0.4119415354330709
11
0.9880278346456692
21
0.4053812992125984
0
LINE
8
BLACK
6
CONTINUOUS
10
0.9880278346456692
20
0.4053812992125984
11
0.9867479921259842
21
0.3989471653543307
0
LINE
8
BLACK
6
CONTINUOUS
10
0.9867479921259842
20
0.3989471653543307
11
0.9842375196850394
21
0.3928863385826771
0
LINE
8
BLACK
6
CONTINUOUS
10
0.9842375196850394
20
0.3928863385826771
11
0.980592874015748
21
0.3874317322834646
0
LINE
8
BLACK
6
CONTINUOUS
10
0.980592874015748
20
0.3874317322834646
11
0.9759540944881889
21
0.3827929527559055
0
LINE
8
BLACK
6
CONTINUOUS
10
0.9759540944881889
20
0.3827929527559055
11
0.9704994881889764
21
0.3791483070866142
0
LINE
8
BLACK
6
CONTINUOUS
10
0.9704994881889764
20
0.3791483070866142
11
0.9644386614173228
21
0.3766378346456693
0
LINE
8
BLACK
6
CONTINUOUS
10
0.9644386614173228
20
0.3766378346456693
11
0.9580045275590551
21
0.3753579921259843
0
LINE
8
BLACK
6
CONTINUOUS
10
0.9580045275590551
20
0.3753579921259843
11
0.9514442913385827
21
0.3753579921259843
0
LINE
8
BLACK
6
CONTINUOUS
10
0.9514442913385827
20
0.3753579921259843
11
0.9450101574803149
21
0.3766378346456693
0
LINE
8
BLACK
6
CONTINUOUS
10
0.9450101574803149
20
0.3766378346456693
11
0.9389493307086614
21
0.3791483070866142
0
LINE
8
BLACK
6
CONTINUOUS
10
0.9389493307086614
20
0.3791483070866142
11
0.9334947244094488
21
0.3827929527559055
0
LINE
8
BLACK
6
CONTINUOUS
10
0.9334947244094488
20
0.3827929527559055
11
0.9288559448818897
21
0.3874317322834646
0
LINE
8
BLACK
6
CONTINUOUS
10
0.9288559448818897
20
0.3874317322834646
11
0.9252112992125984
21
0.3928863385826771
0
LINE
8
BLACK
6
CONTINUOUS
10
0.9252112992125984
20
0.3928863385826771
11
0.9227008267716535
21
0.3989471653543307
0
LINE
8
BLACK
6
CONTINUOUS
10
0.9227008267716535
20
0.3989471653543307
11
0.9214209842519685
21
0.4053812992125984
0
LINE
8
BLACK
6
CONTINUOUS
10
0.9214209842519685
20
0.4053812992125984
11
0.9214209842519685
21
0.4119415354330709
0
LINE
8
BLACK
6
CONTINUOUS
10
0.9214209842519685
20
0.4119415354330709
11
0.9227008267716535
21
0.4183756692913386
0
LINE
8
BLACK
6
CONTINUOUS
10
0.9227008267716535
20
0.4183756692913386
11
0.9252112992125984
21
0.4244364960629921
0
LINE
8
BLACK
6
CONTINUOUS
10
0.9252112992125984
20
0.4244364960629921
11
0.9288559448818897
21
0.4298911023622047
0
LINE
8
BLACK
6
CONTINUOUS
10
0.9288559448818897
20
0.4298911023622047
11
0.9334947244094488
21
0.4345298818897638
0
LINE
8
BLACK
6
CONTINUOUS
10
0.9334947244094488
20
0.4345298818897638
11
0.9389493307086614
21
0.4381745275590551
0
LINE
8
BLACK
6
CONTINUOUS
10
0.9389493307086614
20
0.4381745275590551
11
0.9450101574803149
21
0.440685
0
LINE
8
BLACK
6
CONTINUOUS
10
0.9450101574803149
20
0.440685
11
0.9514442913385827
21
0.441964842519685
0
LINE
8
BLACK
6
CONTINUOUS
10
0.9514442913385827
20
0.441964842519685
11
0.9580045275590551
21
0.441964842519685
0
LINE
8
BLACK
6
CONTINUOUS
10
0.9580045275590551
20
0.441964842519685
11
0.9644386614173228
21
0.440685
0
LINE
8
BLACK
6
CONTINUOUS
10
0.9644386614173228
20
0.540685
11
0.9704994881889764
21
0.5381745275590551
0
LINE
8
BLACK
6
CONTINUOUS
10
0.9704994881889764
20
0.5381745275590551
11
0.9759540944881889
21
0.5345298818897638
0
LINE
8
BLACK
6
CONTINUOUS
10
0.9759540944881889
20
0.5345298818897638
11
0.980592874015748
21
0.5298911023622047
0
LINE
8
BLACK
6
CONTINUOUS
10
0.980592874015748
20
0.5298911023622047
11
0.9842375196850394
21
0.5244364960629921
0
LINE
8
BLACK
6
CONTINUOUS
10
0.9842375196850394
20
0.5244364960629921
11
0.9867479921259842
21
0.5183756692913386
0
LINE
8
BLACK
6
CONTINUOUS
10
0.9867479921259842
20
0.5183756692913386
11
0.9880278346456692
21
0.5119415354330709
0
LINE
8
BLACK
6
CONTINUOUS
10
0.9880278346456692
20
0.5119415354330709
11
0.9880278346456692
21
0.5053812992125984
0
LINE
8
BLACK
6
CONTINUOUS
10
0.9880278346456692
20
0.5053812992125984
11
0.9867479921259842
21
0.4989471653543307
0
LINE
8
BLACK
6
CONTINUOUS
10
0.9867479921259842
20
0.4989471653543307
11
0.9842375196850394
21
0.4928863385826772
0
LINE
8
BLACK
6
CONTINUOUS
10
0.9842375196850394
20
0.4928863385826772
11
0.980592874015748
21
0.4874317322834645
0
LINE
8
BLACK
6
CONTINUOUS
10
0.980592874015748
20
0.4874317322834645
11
0.9759540944881889
21
0.4827929527559055
0
LINE
8
BLACK
6
CONTINUOUS
10
0.9759540944881889
20
0.4827929527559055
11
0.9704994881889764
21
0.4791483070866142
0
LINE
8
BLACK
6
CONTINUOUS
10
0.9704994881889764
20
0.4791483070866142
11
0.9644386614173228
21
0.4766378346456693
0
LINE
8
BLACK
6
CONTINUOUS
10
0.9644386614173228
20
0.4766378346456693
11
0.9580045275590551
21
0.4753579921259842
0
LINE
8
BLACK
6
CONTINUOUS
10
0.9580045275590551
20
0.4753579921259842
11
0.9514442913385827
21
0.4753579921259842
0
LINE
8
BLACK
6
CONTINUOUS
10
0.9514442913385827
20
0.4753579921259842
11
0.9450101574803149
21
0.4766378346456693
0
LINE
8
BLACK
6
CONTINUOUS
10
0.9450101574803149
20
0.4766378346456693
11
0.9389493307086614
21
0.4791483070866142
0
LINE
8
BLACK
6
CONTINUOUS
10
0.9389493307086614
20
0.4791483070866142
11
0.9334947244094488
21
0.4827929527559055
0
LINE
8
BLACK
6
CONTINUOUS
10
0.9334947244094488
20
0.4827929527559055
11
0.9288559448818897
21
0.4874317322834645
0
LINE
8
BLACK
6
CONTINUOUS
10
0.9288559448818897
20
0.4874317322834645
11
0.9252112992125984
21
0.4928863385826772
0
LINE
8
BLACK
6
CONTINUOUS
10
0.9252112992125984
20
0.4928863385826772
11
0.9227008267716535
21
0.4989471653543307
0
LINE
8
BLACK
6
CONTINUOUS
10
0.9227008267716535
20
0.4989471653543307
11
0.9214209842519685
21
0.5053812992125984
0
LINE
8
BLACK
6
CONTINUOUS
10
0.9214209842519685
20
0.5053812992125984
11
0.9214209842519685
21
0.5119415354330709
0
LINE
8
BLACK
6
CONTINUOUS
10
0.9214209842519685
20
0.5119415354330709
11
0.9227008267716535
21
0.5183756692913386
0
LINE
8
BLACK
6
CONTINUOUS
10
0.9227008267716535
20
0.5183756692913386
11
0.9252112992125984
21
0.5244364960629921
0
LINE
8
BLACK
6
CONTINUOUS
10
0.9252112992125984
20
0.5244364960629921
11
0.9288559448818897
21
0.5298911023622047
0
LINE
8
BLACK
6
CONTINUOUS
10
0.9288559448818897
20
0.5298911023622047
11
0.9334947244094488
21
0.5345298818897638
0
LINE
8
BLACK
6
CONTINUOUS
10
0.9334947244094488
20
0.5345298818897638
11
0.9389493307086614
21
0.5381745275590551
0
LINE
8
BLACK
6
CONTINUOUS
10
0.9389493307086614
20
0.5381745275590551
11
0.9450101574803149
21
0.540685
0
LINE
8
BLACK
6
CONTINUOUS
10
0.9450101574803149
20
0.540685
11
0.9514442913385827
21
0.541964842519685
0
LINE
8
BLACK
6
CONTINUOUS
10
0.9514442913385827
20
0.541964842519685
11
0.9580045275590551
21
0.541964842519685
0
LINE
8
BLACK
6
CONTINUOUS
10
0.9580045275590551
20
0.541964842519685
11
0.9644386614173228
21
0.540685
0
LINE
8
BLACK
6
CONTINUOUS
10
0.9644386614173228
20
0.6406849999999999
11
0.9704994881889764
21
0.6381745275590551
0
LINE
8
BLACK
6
CONTINUOUS
10
0.9704994881889764
20
0.6381745275590551
11
0.9759540944881889
21
0.6345298818897638
0
LINE
8
BLACK
6
CONTINUOUS
10
0.9759540944881889
20
0.6345298818897638
11
0.980592874015748
21
0.6298911023622047
0
LINE
8
BLACK
6
CONTINUOUS
10
0.980592874015748
20
0.6298911023622047
11
0.9842375196850394
21
0.6244364960629921
0
LINE
8
BLACK
6
CONTINUOUS
10
0.9842375196850394
20
0.6244364960629921
11
0.9867479921259842
21
0.6183756692913386
0
LINE
8
BLACK
6
CONTINUOUS
10
0.9867479921259842
20
0.6183756692913386
11
0.9880278346456692
21
0.6119415354330708
0
LINE
8
BLACK
6
CONTINUOUS
10
0.9880278346456692
20
0.6119415354330708
11
0.9880278346456692
21
0.6053812992125984
0
LINE
8
BLACK
6
CONTINUOUS
10
0.9880278346456692
20
0.6053812992125984
11
0.9867479921259842
21
0.5989471653543307
0
LINE
8
BLACK
6
CONTINUOUS
10
0.9867479921259842
20
0.5989471653543307
11
0.9842375196850394
21
0.5928863385826771
0
LINE
8
BLACK
6
CONTINUOUS
10
0.9842375196850394
20
0.5928863385826771
11
0.980592874015748
21
0.5874317322834646
0
LINE
8
BLACK
6
CONTINUOUS
10
0.980592874015748
20
0.5874317322834646
11
0.9759540944881889
21
0.5827929527559055
0
LINE
8
BLACK
6
CONTINUOUS
10
0.9759540944881889
20
0.5827929527559055
11
0.9704994881889764
21
0.5791483070866141
0
LINE
8
BLACK
6
CONTINUOUS
10
0.9704994881889764
20
0.5791483070866141
11
0.9644386614173228
21
0.5766378346456693
0
LINE
8
BLACK
6
CONTINUOUS
10
0.9644386614173228
20
0.5766378346456693
11
0.9580045275590551
21
0.5753579921259843
0
LINE
8
BLACK
6
CONTINUOUS
10
0.9580045275590551
20
0.5753579921259843
11
0.9514442913385827
21
0.5753579921259843
0
LINE
8
BLACK
6
CONTINUOUS
10
0.9514442913385827
20
0.5753579921259843
11
0.9450101574803149
21
0.5766378346456693
0
LINE
8
BLACK
6
CONTINUOUS
10
0.9450101574803149
20
0.5766378346456693
11
0.9389493307086614
21
0.5791483070866141
0
LINE
8
BLACK
6
CONTINUOUS
10
0.9389493307086614
20
0.5791483070866141
11
0.9334947244094488
21
0.5827929527559055
0
LINE
8
BLACK
6
CONTINUOUS
10
0.9334947244094488
20
0.5827929527559055
11
0.9288559448818897
21
0.5874317322834646
0
LINE
8
BLACK
6
CONTINUOUS
10
0.9288559448818897
20
0.5874317322834646
11
0.9252112992125984
21
0.5928863385826771
0
LINE
8
BLACK
6
CONTINUOUS
10
0.9252112992125984
20
0.5928863385826771
11
0.9227008267716535
21
0.5989471653543307
0
LINE
8
BLACK
6
CONTINUOUS
10
0.9227008267716535
20
0.5989471653543307
11
0.9214209842519685
21
0.6053812992125984
0
LINE
8
BLACK
6
CONTINUOUS
10
0.9214209842519685
20
0.6053812992125984
11
0.9214209842519685
21
0.6119415354330708
0
LINE
8
BLACK
6
CONTINUOUS
10
0.9214209842519685
20
0.6119415354330708
11
0.9227008267716535
21
0.6183756692913386
0
LINE
8
BLACK
6
CONTINUOUS
10
0.9227008267716535
20
0.6183756692913386
11
0.9252112992125984
21
0.6244364960629921
0
LINE
8
BLACK
6
CONTINUOUS
10
0.9252112992125984
20
0.6244364960629921
11
0.9288559448818897
21
0.6298911023622047
0
LINE
8
BLACK
6
CONTINUOUS
10
0.9288559448818897
20
0.6298911023622047
11
0.9334947244094488
21
0.6345298818897638
0
LINE
8
BLACK
6
CONTINUOUS
10
0.9334947244094488
20
0.6345298818897638
11
0.9389493307086614
21
0.6381745275590551
0
LINE
8
BLACK
6
CONTINUOUS
10
0.9389493307086614
20
0.6381745275590551
11
0.9450101574803149
21
0.6406849999999999
0
LINE
8
BLACK
6
CONTINUOUS
10
0.9450101574803149
20
0.6406849999999999
11
0.9514442913385827
21
0.641964842519685
0
LINE
8
BLACK
6
CONTINUOUS
10
0.9514442913385827
20
0.641964842519685
11
0.9580045275590551
21
0.641964842519685
0
LINE
8
BLACK
6
CONTINUOUS
10
0.9580045275590551
20
0.641964842519685
11
0.9644386614173228
21
0.6406849999999999
0
LINE
8
BLACK
6
CONTINUOUS
10
0.9881889763779528
20
0.6751968503937008
11
0.9212598425196851
21
0.6751968503937008
0
LINE
8
BLACK
6
CONTINUOUS
10
0.9212598425196851
20
0.6751968503937008
11
0.9212598425196851
21
0.7421259842519685
0
LINE
8
BLACK
6
CONTINUOUS
10
0.9212598425196851
20
0.7421259842519685
11
0.9881889763779528
21
0.7421259842519685
0
LINE
8
BLACK
6
CONTINUOUS
10
0.9881889763779528
20
0.7421259842519685
11
0.9881889763779528
21
0.6751968503937008
0
CIRCLE
8
BLACK
10
0.9547244094488189
20
0.7086614173228346
40
0.0068897637795276
0
CIRCLE
8
BLACK
10
0.9547244094488189
20
0.6086614173228346
40
0.0068897637795276
0
CIRCLE
8
BLACK
10
0.9547244094488189
20
0.5086614173228347
40
0.0068897637795276
0
CIRCLE
8
BLACK
10
0.9547244094488189
20
0.4086614173228346
40
0.0068897637795276
0
CIRCLE
8
BLACK
10
0.9547244094488189
20
0.3086614173228346
40
0.0068897637795276
  0
ENDSEC
  0
EOF
