  0
SECTION
  2
HEADER
  9
$ANGBASE
  50
0.0
  9
$ANGDIR
  70
1
  9
$MEASUREMENT
  70
0
  0
ENDSEC
  0
SECTION
  2
TABLES
  0
TABLE
  2
LTYPE
  70
4
  0
LTYPE
  5
40F
  2
CONTINUOUS
  70
0
  3
Solid line
  72
65
  73
0
  40
0.0
  0
LTYPE
  5
410
  2
DASHDOT
 70
0
  3
Dash Dot ____ _ ____ _
 72
65
 73
4
 40
2.0
 49
1.25
 49
-0.25
 49
0.25
 49
-0.25
  0
LTYPE
  5
411
  2
DASHED
 70
0
  3
Dashed __ __ __ __ __
 72
65
 73
2
 40
0.75
 49
0.5
 49
-0.25
  0
LTYPE
  5
43B
  2
DOTTED
 70
0
  3
Dotted .  .  .  .
 72
65
 73
2
 40
0.2
 49
0.0
 49
-0.2
  0
ENDTAB
  0
TABLE
  2
STYLE
  70
4
  0
STYLE
  2
KICAD
  70
0
  40
0
  41
1
  42
1
  50
0
  71
0
  3
isocp.shx
  0
STYLE
  2
KICADB
  70
0
  40
0
  41
1
  42
1
  50
0
  71
0
  3
isocp.shx
  0
STYLE
  2
KICADI
  70
0
  40
0
  41
1
  42
1
  50
15
  71
0
  3
isocp.shx
  0
STYLE
  2
KICADBI
  70
0
  40
0
  41
1
  42
1
  50
15
  71
0
  3
isocp.shx
  0
ENDTAB
  0
TABLE
  2
LAYER
  70
1
  0
LAYER
  2
BLACK
  70
0
  62
7
  6
CONTINUOUS
  0
ENDTAB
  0
ENDSEC
  0
SECTION
  2
ENTITIES
0
LINE
8
BLACK
6
CONTINUOUS
10
0.9667243700787401
20
0.3482199606299213
11
0.9742112992125984
21
0.345118779527559
0
LINE
8
BLACK
6
CONTINUOUS
10
0.9742112992125984
20
0.345118779527559
11
0.9809493307086614
21
0.3406165748031496
0
LINE
8
BLACK
6
CONTINUOUS
10
0.9809493307086614
20
0.3406165748031496
11
0.9866795669291338
21
0.3348863385826771
0
LINE
8
BLACK
6
CONTINUOUS
10
0.9866795669291338
20
0.3348863385826771
11
0.9911817716535433
21
0.3281483070866142
0
LINE
8
BLACK
6
CONTINUOUS
10
0.9911817716535433
20
0.3281483070866142
11
0.9942829527559055
21
0.3206613779527559
0
LINE
8
BLACK
6
CONTINUOUS
10
0.9942829527559055
20
0.3206613779527559
11
0.995863937007874
21
0.3127133070866142
0
LINE
8
BLACK
6
CONTINUOUS
10
0.995863937007874
20
0.3127133070866142
11
0.995863937007874
21
0.3046095275590551
0
LINE
8
BLACK
6
CONTINUOUS
10
0.995863937007874
20
0.3046095275590551
11
0.9942829527559055
21
0.2966614566929134
0
LINE
8
BLACK
6
CONTINUOUS
10
0.9942829527559055
20
0.2966614566929134
11
0.9911817716535433
21
0.2891745275590551
0
LINE
8
BLACK
6
CONTINUOUS
10
0.9911817716535433
20
0.2891745275590551
11
0.9866795669291338
21
0.2824364960629921
0
LINE
8
BLACK
6
CONTINUOUS
10
0.9866795669291338
20
0.2824364960629921
11
0.9809493307086614
21
0.2767062598425197
0
LINE
8
BLACK
6
CONTINUOUS
10
0.9809493307086614
20
0.2767062598425197
11
0.9742112992125984
21
0.2722040551181102
0
LINE
8
BLACK
6
CONTINUOUS
10
0.9742112992125984
20
0.2722040551181102
11
0.9667243700787401
21
0.269102874015748
0
LINE
8
BLACK
6
CONTINUOUS
10
0.9667243700787401
20
0.269102874015748
11
0.9587762992125984
21
0.2675218897637795
0
LINE
8
BLACK
6
CONTINUOUS
10
0.9587762992125984
20
0.2675218897637795
11
0.9506725196850393
21
0.2675218897637795
0
LINE
8
BLACK
6
CONTINUOUS
10
0.9506725196850393
20
0.2675218897637795
11
0.9427244488188976
21
0.269102874015748
0
LINE
8
BLACK
6
CONTINUOUS
10
0.9427244488188976
20
0.269102874015748
11
0.9352375196850393
21
0.2722040551181102
0
LINE
8
BLACK
6
CONTINUOUS
10
0.9352375196850393
20
0.2722040551181102
11
0.9284994881889763
21
0.2767062598425197
0
LINE
8
BLACK
6
CONTINUOUS
10
0.9284994881889763
20
0.2767062598425197
11
0.9227692519685039
21
0.2824364960629921
0
LINE
8
BLACK
6
CONTINUOUS
10
0.9227692519685039
20
0.2824364960629921
11
0.9182670472440945
21
0.2891745275590551
0
LINE
8
BLACK
6
CONTINUOUS
10
0.9182670472440945
20
0.2891745275590551
11
0.9151658661417322
21
0.2966614566929134
0
LINE
8
BLACK
6
CONTINUOUS
10
0.9151658661417322
20
0.2966614566929134
11
0.9135848818897637
21
0.3046095275590551
0
LINE
8
BLACK
6
CONTINUOUS
10
0.9135848818897637
20
0.3046095275590551
11
0.9135848818897637
21
0.3127133070866142
0
LINE
8
BLACK
6
CONTINUOUS
10
0.9135848818897637
20
0.3127133070866142
11
0.9151658661417322
21
0.3206613779527559
0
LINE
8
BLACK
6
CONTINUOUS
10
0.9151658661417322
20
0.3206613779527559
11
0.9182670472440945
21
0.3281483070866142
0
LINE
8
BLACK
6
CONTINUOUS
10
0.9182670472440945
20
0.3281483070866142
11
0.9227692519685039
21
0.3348863385826771
0
LINE
8
BLACK
6
CONTINUOUS
10
0.9227692519685039
20
0.3348863385826771
11
0.9284994881889763
21
0.3406165748031496
0
LINE
8
BLACK
6
CONTINUOUS
10
0.9284994881889763
20
0.3406165748031496
11
0.9352375196850393
21
0.345118779527559
0
LINE
8
BLACK
6
CONTINUOUS
10
0.9352375196850393
20
0.345118779527559
11
0.9427244488188976
21
0.3482199606299213
0
LINE
8
BLACK
6
CONTINUOUS
10
0.9427244488188976
20
0.3482199606299213
11
0.9506725196850393
21
0.3498009448818897
0
LINE
8
BLACK
6
CONTINUOUS
10
0.9506725196850393
20
0.3498009448818897
11
0.9587762992125984
21
0.3498009448818897
0
LINE
8
BLACK
6
CONTINUOUS
10
0.9587762992125984
20
0.3498009448818897
11
0.9667243700787401
21
0.3482199606299213
0
LINE
8
BLACK
6
CONTINUOUS
10
0.9667243700787401
20
0.4482199606299213
11
0.9742112992125984
21
0.4451187795275591
0
LINE
8
BLACK
6
CONTINUOUS
10
0.9742112992125984
20
0.4451187795275591
11
0.9809493307086614
21
0.4406165748031496
0
LINE
8
BLACK
6
CONTINUOUS
10
0.9809493307086614
20
0.4406165748031496
11
0.9866795669291338
21
0.4348863385826772
0
LINE
8
BLACK
6
CONTINUOUS
10
0.9866795669291338
20
0.4348863385826772
11
0.9911817716535433
21
0.4281483070866142
0
LINE
8
BLACK
6
CONTINUOUS
10
0.9911817716535433
20
0.4281483070866142
11
0.9942829527559055
21
0.4206613779527559
0
LINE
8
BLACK
6
CONTINUOUS
10
0.9942829527559055
20
0.4206613779527559
11
0.995863937007874
21
0.4127133070866142
0
LINE
8
BLACK
6
CONTINUOUS
10
0.995863937007874
20
0.4127133070866142
11
0.995863937007874
21
0.4046095275590551
0
LINE
8
BLACK
6
CONTINUOUS
10
0.995863937007874
20
0.4046095275590551
11
0.9942829527559055
21
0.3966614566929134
0
LINE
8
BLACK
6
CONTINUOUS
10
0.9942829527559055
20
0.3966614566929134
11
0.9911817716535433
21
0.3891745275590551
0
LINE
8
BLACK
6
CONTINUOUS
10
0.9911817716535433
20
0.3891745275590551
11
0.9866795669291338
21
0.3824364960629921
0
LINE
8
BLACK
6
CONTINUOUS
10
0.9866795669291338
20
0.3824364960629921
11
0.9809493307086614
21
0.3767062598425197
0
LINE
8
BLACK
6
CONTINUOUS
10
0.9809493307086614
20
0.3767062598425197
11
0.9742112992125984
21
0.3722040551181102
0
LINE
8
BLACK
6
CONTINUOUS
10
0.9742112992125984
20
0.3722040551181102
11
0.9667243700787401
21
0.369102874015748
0
LINE
8
BLACK
6
CONTINUOUS
10
0.9667243700787401
20
0.369102874015748
11
0.9587762992125984
21
0.3675218897637795
0
LINE
8
BLACK
6
CONTINUOUS
10
0.9587762992125984
20
0.3675218897637795
11
0.9506725196850393
21
0.3675218897637795
0
LINE
8
BLACK
6
CONTINUOUS
10
0.9506725196850393
20
0.3675218897637795
11
0.9427244488188976
21
0.369102874015748
0
LINE
8
BLACK
6
CONTINUOUS
10
0.9427244488188976
20
0.369102874015748
11
0.9352375196850393
21
0.3722040551181102
0
LINE
8
BLACK
6
CONTINUOUS
10
0.9352375196850393
20
0.3722040551181102
11
0.9284994881889763
21
0.3767062598425197
0
LINE
8
BLACK
6
CONTINUOUS
10
0.9284994881889763
20
0.3767062598425197
11
0.9227692519685039
21
0.3824364960629921
0
LINE
8
BLACK
6
CONTINUOUS
10
0.9227692519685039
20
0.3824364960629921
11
0.9182670472440945
21
0.3891745275590551
0
LINE
8
BLACK
6
CONTINUOUS
10
0.9182670472440945
20
0.3891745275590551
11
0.9151658661417322
21
0.3966614566929134
0
LINE
8
BLACK
6
CONTINUOUS
10
0.9151658661417322
20
0.3966614566929134
11
0.9135848818897637
21
0.4046095275590551
0
LINE
8
BLACK
6
CONTINUOUS
10
0.9135848818897637
20
0.4046095275590551
11
0.9135848818897637
21
0.4127133070866142
0
LINE
8
BLACK
6
CONTINUOUS
10
0.9135848818897637
20
0.4127133070866142
11
0.9151658661417322
21
0.4206613779527559
0
LINE
8
BLACK
6
CONTINUOUS
10
0.9151658661417322
20
0.4206613779527559
11
0.9182670472440945
21
0.4281483070866142
0
LINE
8
BLACK
6
CONTINUOUS
10
0.9182670472440945
20
0.4281483070866142
11
0.9227692519685039
21
0.4348863385826772
0
LINE
8
BLACK
6
CONTINUOUS
10
0.9227692519685039
20
0.4348863385826772
11
0.9284994881889763
21
0.4406165748031496
0
LINE
8
BLACK
6
CONTINUOUS
10
0.9284994881889763
20
0.4406165748031496
11
0.9352375196850393
21
0.4451187795275591
0
LINE
8
BLACK
6
CONTINUOUS
10
0.9352375196850393
20
0.4451187795275591
11
0.9427244488188976
21
0.4482199606299213
0
LINE
8
BLACK
6
CONTINUOUS
10
0.9427244488188976
20
0.4482199606299213
11
0.9506725196850393
21
0.4498009448818898
0
LINE
8
BLACK
6
CONTINUOUS
10
0.9506725196850393
20
0.4498009448818898
11
0.9587762992125984
21
0.4498009448818898
0
LINE
8
BLACK
6
CONTINUOUS
10
0.9587762992125984
20
0.4498009448818898
11
0.9667243700787401
21
0.4482199606299213
0
LINE
8
BLACK
6
CONTINUOUS
10
0.9667243700787401
20
0.5482199606299213
11
0.9742112992125984
21
0.545118779527559
0
LINE
8
BLACK
6
CONTINUOUS
10
0.9742112992125984
20
0.545118779527559
11
0.9809493307086614
21
0.5406165748031496
0
LINE
8
BLACK
6
CONTINUOUS
10
0.9809493307086614
20
0.5406165748031496
11
0.9866795669291338
21
0.5348863385826772
0
LINE
8
BLACK
6
CONTINUOUS
10
0.9866795669291338
20
0.5348863385826772
11
0.9911817716535433
21
0.5281483070866142
0
LINE
8
BLACK
6
CONTINUOUS
10
0.9911817716535433
20
0.5281483070866142
11
0.9942829527559055
21
0.5206613779527559
0
LINE
8
BLACK
6
CONTINUOUS
10
0.9942829527559055
20
0.5206613779527559
11
0.995863937007874
21
0.5127133070866141
0
LINE
8
BLACK
6
CONTINUOUS
10
0.995863937007874
20
0.5127133070866141
11
0.995863937007874
21
0.5046095275590551
0
LINE
8
BLACK
6
CONTINUOUS
10
0.995863937007874
20
0.5046095275590551
11
0.9942829527559055
21
0.4966614566929134
0
LINE
8
BLACK
6
CONTINUOUS
10
0.9942829527559055
20
0.4966614566929134
11
0.9911817716535433
21
0.4891745275590551
0
LINE
8
BLACK
6
CONTINUOUS
10
0.9911817716535433
20
0.4891745275590551
11
0.9866795669291338
21
0.4824364960629921
0
LINE
8
BLACK
6
CONTINUOUS
10
0.9866795669291338
20
0.4824364960629921
11
0.9809493307086614
21
0.4767062598425197
0
LINE
8
BLACK
6
CONTINUOUS
10
0.9809493307086614
20
0.4767062598425197
11
0.9742112992125984
21
0.4722040551181102
0
LINE
8
BLACK
6
CONTINUOUS
10
0.9742112992125984
20
0.4722040551181102
11
0.9667243700787401
21
0.469102874015748
0
LINE
8
BLACK
6
CONTINUOUS
10
0.9667243700787401
20
0.469102874015748
11
0.9587762992125984
21
0.4675218897637795
0
LINE
8
BLACK
6
CONTINUOUS
10
0.9587762992125984
20
0.4675218897637795
11
0.9506725196850393
21
0.4675218897637795
0
LINE
8
BLACK
6
CONTINUOUS
10
0.9506725196850393
20
0.4675218897637795
11
0.9427244488188976
21
0.469102874015748
0
LINE
8
BLACK
6
CONTINUOUS
10
0.9427244488188976
20
0.469102874015748
11
0.9352375196850393
21
0.4722040551181102
0
LINE
8
BLACK
6
CONTINUOUS
10
0.9352375196850393
20
0.4722040551181102
11
0.9284994881889763
21
0.4767062598425197
0
LINE
8
BLACK
6
CONTINUOUS
10
0.9284994881889763
20
0.4767062598425197
11
0.9227692519685039
21
0.4824364960629921
0
LINE
8
BLACK
6
CONTINUOUS
10
0.9227692519685039
20
0.4824364960629921
11
0.9182670472440945
21
0.4891745275590551
0
LINE
8
BLACK
6
CONTINUOUS
10
0.9182670472440945
20
0.4891745275590551
11
0.9151658661417322
21
0.4966614566929134
0
LINE
8
BLACK
6
CONTINUOUS
10
0.9151658661417322
20
0.4966614566929134
11
0.9135848818897637
21
0.5046095275590551
0
LINE
8
BLACK
6
CONTINUOUS
10
0.9135848818897637
20
0.5046095275590551
11
0.9135848818897637
21
0.5127133070866141
0
LINE
8
BLACK
6
CONTINUOUS
10
0.9135848818897637
20
0.5127133070866141
11
0.9151658661417322
21
0.5206613779527559
0
LINE
8
BLACK
6
CONTINUOUS
10
0.9151658661417322
20
0.5206613779527559
11
0.9182670472440945
21
0.5281483070866142
0
LINE
8
BLACK
6
CONTINUOUS
10
0.9182670472440945
20
0.5281483070866142
11
0.9227692519685039
21
0.5348863385826772
0
LINE
8
BLACK
6
CONTINUOUS
10
0.9227692519685039
20
0.5348863385826772
11
0.9284994881889763
21
0.5406165748031496
0
LINE
8
BLACK
6
CONTINUOUS
10
0.9284994881889763
20
0.5406165748031496
11
0.9352375196850393
21
0.545118779527559
0
LINE
8
BLACK
6
CONTINUOUS
10
0.9352375196850393
20
0.545118779527559
11
0.9427244488188976
21
0.5482199606299213
0
LINE
8
BLACK
6
CONTINUOUS
10
0.9427244488188976
20
0.5482199606299213
11
0.9506725196850393
21
0.5498009448818898
0
LINE
8
BLACK
6
CONTINUOUS
10
0.9506725196850393
20
0.5498009448818898
11
0.9587762992125984
21
0.5498009448818898
0
LINE
8
BLACK
6
CONTINUOUS
10
0.9587762992125984
20
0.5498009448818898
11
0.9667243700787401
21
0.5482199606299213
0
LINE
8
BLACK
6
CONTINUOUS
10
0.9667243700787401
20
0.6482199606299213
11
0.9742112992125984
21
0.645118779527559
0
LINE
8
BLACK
6
CONTINUOUS
10
0.9742112992125984
20
0.645118779527559
11
0.9809493307086614
21
0.6406165748031496
0
LINE
8
BLACK
6
CONTINUOUS
10
0.9809493307086614
20
0.6406165748031496
11
0.9866795669291338
21
0.6348863385826772
0
LINE
8
BLACK
6
CONTINUOUS
10
0.9866795669291338
20
0.6348863385826772
11
0.9911817716535433
21
0.6281483070866142
0
LINE
8
BLACK
6
CONTINUOUS
10
0.9911817716535433
20
0.6281483070866142
11
0.9942829527559055
21
0.6206613779527559
0
LINE
8
BLACK
6
CONTINUOUS
10
0.9942829527559055
20
0.6206613779527559
11
0.995863937007874
21
0.6127133070866142
0
LINE
8
BLACK
6
CONTINUOUS
10
0.995863937007874
20
0.6127133070866142
11
0.995863937007874
21
0.6046095275590551
0
LINE
8
BLACK
6
CONTINUOUS
10
0.995863937007874
20
0.6046095275590551
11
0.9942829527559055
21
0.5966614566929134
0
LINE
8
BLACK
6
CONTINUOUS
10
0.9942829527559055
20
0.5966614566929134
11
0.9911817716535433
21
0.5891745275590551
0
LINE
8
BLACK
6
CONTINUOUS
10
0.9911817716535433
20
0.5891745275590551
11
0.9866795669291338
21
0.5824364960629921
0
LINE
8
BLACK
6
CONTINUOUS
10
0.9866795669291338
20
0.5824364960629921
11
0.9809493307086614
21
0.5767062598425197
0
LINE
8
BLACK
6
CONTINUOUS
10
0.9809493307086614
20
0.5767062598425197
11
0.9742112992125984
21
0.5722040551181102
0
LINE
8
BLACK
6
CONTINUOUS
10
0.9742112992125984
20
0.5722040551181102
11
0.9667243700787401
21
0.569102874015748
0
LINE
8
BLACK
6
CONTINUOUS
10
0.9667243700787401
20
0.569102874015748
11
0.9587762992125984
21
0.5675218897637795
0
LINE
8
BLACK
6
CONTINUOUS
10
0.9587762992125984
20
0.5675218897637795
11
0.9506725196850393
21
0.5675218897637795
0
LINE
8
BLACK
6
CONTINUOUS
10
0.9506725196850393
20
0.5675218897637795
11
0.9427244488188976
21
0.569102874015748
0
LINE
8
BLACK
6
CONTINUOUS
10
0.9427244488188976
20
0.569102874015748
11
0.9352375196850393
21
0.5722040551181102
0
LINE
8
BLACK
6
CONTINUOUS
10
0.9352375196850393
20
0.5722040551181102
11
0.9284994881889763
21
0.5767062598425197
0
LINE
8
BLACK
6
CONTINUOUS
10
0.9284994881889763
20
0.5767062598425197
11
0.9227692519685039
21
0.5824364960629921
0
LINE
8
BLACK
6
CONTINUOUS
10
0.9227692519685039
20
0.5824364960629921
11
0.9182670472440945
21
0.5891745275590551
0
LINE
8
BLACK
6
CONTINUOUS
10
0.9182670472440945
20
0.5891745275590551
11
0.9151658661417322
21
0.5966614566929134
0
LINE
8
BLACK
6
CONTINUOUS
10
0.9151658661417322
20
0.5966614566929134
11
0.9135848818897637
21
0.6046095275590551
0
LINE
8
BLACK
6
CONTINUOUS
10
0.9135848818897637
20
0.6046095275590551
11
0.9135848818897637
21
0.6127133070866142
0
LINE
8
BLACK
6
CONTINUOUS
10
0.9135848818897637
20
0.6127133070866142
11
0.9151658661417322
21
0.6206613779527559
0
LINE
8
BLACK
6
CONTINUOUS
10
0.9151658661417322
20
0.6206613779527559
11
0.9182670472440945
21
0.6281483070866142
0
LINE
8
BLACK
6
CONTINUOUS
10
0.9182670472440945
20
0.6281483070866142
11
0.9227692519685039
21
0.6348863385826772
0
LINE
8
BLACK
6
CONTINUOUS
10
0.9227692519685039
20
0.6348863385826772
11
0.9284994881889763
21
0.6406165748031496
0
LINE
8
BLACK
6
CONTINUOUS
10
0.9284994881889763
20
0.6406165748031496
11
0.9352375196850393
21
0.645118779527559
0
LINE
8
BLACK
6
CONTINUOUS
10
0.9352375196850393
20
0.645118779527559
11
0.9427244488188976
21
0.6482199606299213
0
LINE
8
BLACK
6
CONTINUOUS
10
0.9427244488188976
20
0.6482199606299213
11
0.9506725196850393
21
0.6498009448818898
0
LINE
8
BLACK
6
CONTINUOUS
10
0.9506725196850393
20
0.6498009448818898
11
0.9587762992125984
21
0.6498009448818898
0
LINE
8
BLACK
6
CONTINUOUS
10
0.9587762992125984
20
0.6498009448818898
11
0.9667243700787401
21
0.6482199606299213
0
LINE
8
BLACK
6
CONTINUOUS
10
0.9912022440944882
20
0.7494006299212598
11
0.9937567322834645
21
0.7476937401574802
0
LINE
8
BLACK
6
CONTINUOUS
10
0.9937567322834645
20
0.7476937401574802
11
0.995463622047244
21
0.7451392519685039
0
LINE
8
BLACK
6
CONTINUOUS
10
0.995463622047244
20
0.7451392519685039
11
0.9960629921259843
21
0.7421259842519685
0
LINE
8
BLACK
6
CONTINUOUS
10
0.9960629921259843
20
0.7421259842519685
11
0.9960629921259843
21
0.6751968503937008
0
LINE
8
BLACK
6
CONTINUOUS
10
0.9960629921259843
20
0.6751968503937008
11
0.995463622047244
21
0.6721835826771654
0
LINE
8
BLACK
6
CONTINUOUS
10
0.995463622047244
20
0.6721835826771654
11
0.9937567322834645
21
0.669629094488189
0
LINE
8
BLACK
6
CONTINUOUS
10
0.9937567322834645
20
0.669629094488189
11
0.9912022440944882
21
0.6679222047244094
0
LINE
8
BLACK
6
CONTINUOUS
10
0.9912022440944882
20
0.6679222047244094
11
0.9881889763779528
21
0.6673228346456693
0
LINE
8
BLACK
6
CONTINUOUS
10
0.9881889763779528
20
0.6673228346456693
11
0.9212598425196851
21
0.6673228346456693
0
LINE
8
BLACK
6
CONTINUOUS
10
0.9212598425196851
20
0.6673228346456693
11
0.9182465748031496
21
0.6679222047244094
0
LINE
8
BLACK
6
CONTINUOUS
10
0.9182465748031496
20
0.6679222047244094
11
0.9156920866141732
21
0.669629094488189
0
LINE
8
BLACK
6
CONTINUOUS
10
0.9156920866141732
20
0.669629094488189
11
0.9139851968503937
21
0.6721835826771654
0
LINE
8
BLACK
6
CONTINUOUS
10
0.9139851968503937
20
0.6721835826771654
11
0.9133858267716535
21
0.6751968503937008
0
LINE
8
BLACK
6
CONTINUOUS
10
0.9133858267716535
20
0.6751968503937008
11
0.9133858267716535
21
0.7421259842519685
0
LINE
8
BLACK
6
CONTINUOUS
10
0.9133858267716535
20
0.7421259842519685
11
0.9139851968503937
21
0.7451392519685039
0
LINE
8
BLACK
6
CONTINUOUS
10
0.9139851968503937
20
0.7451392519685039
11
0.9156920866141732
21
0.7476937401574802
0
LINE
8
BLACK
6
CONTINUOUS
10
0.9156920866141732
20
0.7476937401574802
11
0.9182465748031496
21
0.7494006299212598
0
LINE
8
BLACK
6
CONTINUOUS
10
0.9182465748031496
20
0.7494006299212598
11
0.9212598425196851
21
0.75
0
LINE
8
BLACK
6
CONTINUOUS
10
0.9212598425196851
20
0.75
11
0.9881889763779528
21
0.75
0
LINE
8
BLACK
6
CONTINUOUS
10
0.9881889763779528
20
0.75
11
0.9912022440944882
21
0.7494006299212598
  0
ENDSEC
  0
EOF
