  0
SECTION
  2
HEADER
  9
$ANGBASE
  50
0.0
  9
$ANGDIR
  70
1
  9
$MEASUREMENT
  70
0
  0
ENDSEC
  0
SECTION
  2
TABLES
  0
TABLE
  2
LTYPE
  70
4
  0
LTYPE
  5
40F
  2
CONTINUOUS
  70
0
  3
Solid line
  72
65
  73
0
  40
0.0
  0
LTYPE
  5
410
  2
DASHDOT
 70
0
  3
Dash Dot ____ _ ____ _
 72
65
 73
4
 40
2.0
 49
1.25
 49
-0.25
 49
0.25
 49
-0.25
  0
LTYPE
  5
411
  2
DASHED
 70
0
  3
Dashed __ __ __ __ __
 72
65
 73
2
 40
0.75
 49
0.5
 49
-0.25
  0
LTYPE
  5
43B
  2
DOTTED
 70
0
  3
Dotted .  .  .  .
 72
65
 73
2
 40
0.2
 49
0.0
 49
-0.2
  0
ENDTAB
  0
TABLE
  2
STYLE
  70
4
  0
STYLE
  2
KICAD
  70
0
  40
0
  41
1
  42
1
  50
0
  71
0
  3
isocp.shx
  0
STYLE
  2
KICADB
  70
0
  40
0
  41
1
  42
1
  50
0
  71
0
  3
isocp.shx
  0
STYLE
  2
KICADI
  70
0
  40
0
  41
1
  42
1
  50
15
  71
0
  3
isocp.shx
  0
STYLE
  2
KICADBI
  70
0
  40
0
  41
1
  42
1
  50
15
  71
0
  3
isocp.shx
  0
ENDTAB
  0
TABLE
  2
LAYER
  70
1
  0
LAYER
  2
BLACK
  70
0
  62
7
  6
CONTINUOUS
  0
ENDTAB
  0
ENDSEC
  0
SECTION
  2
ENTITIES
0
LINE
8
BLACK
6
CONTINUOUS
10
-0.6000170472440944
20
-1.6723190157480314
11
-0.5994843700787401
21
-1.6728516929133859
0
LINE
8
BLACK
6
CONTINUOUS
10
-0.5994843700787401
20
-1.6728516929133859
11
-0.5994094488188976
21
-1.6732283464566928
0
LINE
8
BLACK
6
CONTINUOUS
10
-0.5994094488188976
20
-1.6732283464566928
11
-0.5994094488188976
21
-1.7716535433070866
0
LINE
8
BLACK
6
CONTINUOUS
10
-0.5994094488188976
20
-1.7716535433070866
11
-0.5994843700787401
21
-1.7720301968503938
0
LINE
8
BLACK
6
CONTINUOUS
10
-0.5994843700787401
20
-1.7720301968503938
11
-0.6000170472440944
21
-1.772562874015748
0
LINE
8
BLACK
6
CONTINUOUS
10
-0.6000170472440944
20
-1.772562874015748
11
-0.6003937007874015
21
-1.7726377952755905
0
LINE
8
BLACK
6
CONTINUOUS
10
-0.6003937007874015
20
-1.7726377952755905
11
-0.7814960629921259
21
-1.7726377952755905
0
LINE
8
BLACK
6
CONTINUOUS
10
-0.7814960629921259
20
-1.7726377952755905
11
-0.781872716535433
21
-1.772562874015748
0
LINE
8
BLACK
6
CONTINUOUS
10
-0.781872716535433
20
-1.772562874015748
11
-0.7824053937007874
21
-1.7720301968503938
0
LINE
8
BLACK
6
CONTINUOUS
10
-0.7824053937007874
20
-1.7720301968503938
11
-0.7824803149606299
21
-1.7716535433070866
0
LINE
8
BLACK
6
CONTINUOUS
10
-0.7824803149606299
20
-1.7716535433070866
11
-0.7824803149606299
21
-1.6732283464566928
0
LINE
8
BLACK
6
CONTINUOUS
10
-0.7824803149606299
20
-1.6732283464566928
11
-0.7824053937007874
21
-1.6728516929133859
0
LINE
8
BLACK
6
CONTINUOUS
10
-0.7824053937007874
20
-1.6728516929133859
11
-0.781872716535433
21
-1.6723190157480314
0
LINE
8
BLACK
6
CONTINUOUS
10
-0.781872716535433
20
-1.6723190157480314
11
-0.7814960629921259
21
-1.6722440944881889
0
LINE
8
BLACK
6
CONTINUOUS
10
-0.7814960629921259
20
-1.6722440944881889
11
-0.6003937007874015
21
-1.6722440944881889
0
LINE
8
BLACK
6
CONTINUOUS
10
-0.6003937007874015
20
-1.6722440944881889
11
-0.6000170472440944
21
-1.6723190157480314
0
LINE
8
BLACK
6
CONTINUOUS
10
-0.780511811023622
20
-1.6742125984251968
11
-0.780511811023622
21
-1.7706692913385826
0
LINE
8
BLACK
6
CONTINUOUS
10
-0.780511811023622
20
-1.7706692913385826
11
-0.6013779527559054
21
-1.7706692913385826
0
LINE
8
BLACK
6
CONTINUOUS
10
-0.6013779527559054
20
-1.7706692913385826
11
-0.6013779527559054
21
-1.6742125984251968
0
LINE
8
BLACK
6
CONTINUOUS
10
-0.6013779527559054
20
-1.6742125984251968
11
-0.780511811023622
21
-1.6742125984251968
0
LINE
8
BLACK
6
CONTINUOUS
10
0.1834475196850394
20
-1.1920040551181101
11
0.1839801968503937
21
-1.1925367322834646
0
LINE
8
BLACK
6
CONTINUOUS
10
0.1839801968503937
20
-1.1925367322834646
11
0.1840551181102362
21
-1.1929133858267715
0
LINE
8
BLACK
6
CONTINUOUS
10
0.1840551181102362
20
-1.1929133858267715
11
0.1840551181102362
21
-1.2372047244094488
0
LINE
8
BLACK
6
CONTINUOUS
10
0.1840551181102362
20
-1.2372047244094488
11
0.2236220472440945
21
-1.2372047244094488
0
LINE
8
BLACK
6
CONTINUOUS
10
0.2236220472440945
20
-1.2372047244094488
11
0.2239987007874016
21
-1.2372796456692914
0
LINE
8
BLACK
6
CONTINUOUS
10
0.2239987007874016
20
-1.2372796456692914
11
0.2245313779527559
21
-1.2378123228346456
0
LINE
8
BLACK
6
CONTINUOUS
10
0.2245313779527559
20
-1.2378123228346456
11
0.2246062992125984
21
-1.2381889763779528
0
LINE
8
BLACK
6
CONTINUOUS
10
0.2246062992125984
20
-1.2381889763779528
11
0.2246062992125984
21
-1.2814960629921259
0
LINE
8
BLACK
6
CONTINUOUS
10
0.2246062992125984
20
-1.2814960629921259
11
0.2245313779527559
21
-1.2818727165354331
0
LINE
8
BLACK
6
CONTINUOUS
10
0.2245313779527559
20
-1.2818727165354331
11
0.2239987007874016
21
-1.2824053937007873
0
LINE
8
BLACK
6
CONTINUOUS
10
0.2239987007874016
20
-1.2824053937007873
11
0.2236220472440945
21
-1.2824803149606299
0
LINE
8
BLACK
6
CONTINUOUS
10
0.2236220472440945
20
-1.2824803149606299
11
0.1840551181102362
21
-1.2824803149606299
0
LINE
8
BLACK
6
CONTINUOUS
10
0.1840551181102362
20
-1.2824803149606299
11
0.1840551181102362
21
-1.326771653543307
0
LINE
8
BLACK
6
CONTINUOUS
10
0.1840551181102362
20
-1.326771653543307
11
0.1839801968503937
21
-1.3271483070866141
0
LINE
8
BLACK
6
CONTINUOUS
10
0.1839801968503937
20
-1.3271483070866141
11
0.1834475196850394
21
-1.3276809842519686
0
LINE
8
BLACK
6
CONTINUOUS
10
0.1834475196850394
20
-1.3276809842519686
11
0.1830708661417323
21
-1.3277559055118109
0
LINE
8
BLACK
6
CONTINUOUS
10
0.1830708661417323
20
-1.3277559055118109
11
0.1122047244094488
21
-1.3277559055118109
0
LINE
8
BLACK
6
CONTINUOUS
10
0.1122047244094488
20
-1.3277559055118109
11
0.1118280708661417
21
-1.3276809842519686
0
LINE
8
BLACK
6
CONTINUOUS
10
0.1118280708661417
20
-1.3276809842519686
11
0.1112953937007874
21
-1.3271483070866141
0
LINE
8
BLACK
6
CONTINUOUS
10
0.1112953937007874
20
-1.3271483070866141
11
0.1112204724409449
21
-1.326771653543307
0
LINE
8
BLACK
6
CONTINUOUS
10
0.1112204724409449
20
-1.326771653543307
11
0.1112204724409449
21
-1.3198818897637794
0
LINE
8
BLACK
6
CONTINUOUS
10
0.1112204724409449
20
-1.3198818897637794
11
0.0716535433070866
21
-1.3198818897637794
0
LINE
8
BLACK
6
CONTINUOUS
10
0.0716535433070866
20
-1.3198818897637794
11
0.0712768897637795
21
-1.3198069685039371
0
LINE
8
BLACK
6
CONTINUOUS
10
0.0712768897637795
20
-1.3198069685039371
11
0.0707442125984252
21
-1.3192742913385826
0
LINE
8
BLACK
6
CONTINUOUS
10
0.0707442125984252
20
-1.3192742913385826
11
0.0706692913385827
21
-1.3188976377952755
0
LINE
8
BLACK
6
CONTINUOUS
10
0.0706692913385827
20
-1.3188976377952755
11
0.0706692913385827
21
-1.200787401574803
0
LINE
8
BLACK
6
CONTINUOUS
10
0.0706692913385827
20
-1.200787401574803
11
0.0707442125984252
21
-1.2004107480314961
0
LINE
8
BLACK
6
CONTINUOUS
10
0.0707442125984252
20
-1.2004107480314961
11
0.0712768897637795
21
-1.1998780708661416
0
LINE
8
BLACK
6
CONTINUOUS
10
0.0712768897637795
20
-1.1998780708661416
11
0.0716535433070866
21
-1.1998031496062991
0
LINE
8
BLACK
6
CONTINUOUS
10
0.0716535433070866
20
-1.1998031496062991
11
0.1112204724409449
21
-1.1998031496062991
0
LINE
8
BLACK
6
CONTINUOUS
10
0.1112204724409449
20
-1.1998031496062991
11
0.1112204724409449
21
-1.1929133858267715
0
LINE
8
BLACK
6
CONTINUOUS
10
0.1112204724409449
20
-1.1929133858267715
11
0.1112953937007874
21
-1.1925367322834646
0
LINE
8
BLACK
6
CONTINUOUS
10
0.1112953937007874
20
-1.1925367322834646
11
0.1118280708661417
21
-1.1920040551181101
0
LINE
8
BLACK
6
CONTINUOUS
10
0.1118280708661417
20
-1.1920040551181101
11
0.1122047244094488
21
-1.1919291338582676
0
LINE
8
BLACK
6
CONTINUOUS
10
0.1122047244094488
20
-1.1919291338582676
11
0.1830708661417323
21
-1.1919291338582676
0
LINE
8
BLACK
6
CONTINUOUS
10
0.1830708661417323
20
-1.1919291338582676
11
0.1834475196850394
21
-1.1920040551181101
0
LINE
8
BLACK
6
CONTINUOUS
10
0.1131889763779527
20
-1.1938976377952755
11
0.1131889763779527
21
-1.200787401574803
0
LINE
8
BLACK
6
CONTINUOUS
10
0.1131889763779527
20
-1.200787401574803
11
0.1131140551181102
21
-1.2011640551181102
0
LINE
8
BLACK
6
CONTINUOUS
10
0.1131140551181102
20
-1.2011640551181102
11
0.1125813779527559
21
-1.2016967322834646
0
LINE
8
BLACK
6
CONTINUOUS
10
0.1125813779527559
20
-1.2016967322834646
11
0.1122047244094488
21
-1.201771653543307
0
LINE
8
BLACK
6
CONTINUOUS
10
0.1122047244094488
20
-1.201771653543307
11
0.0726377952755906
21
-1.201771653543307
0
LINE
8
BLACK
6
CONTINUOUS
10
0.0726377952755906
20
-1.201771653543307
11
0.0726377952755906
21
-1.3179133858267715
0
LINE
8
BLACK
6
CONTINUOUS
10
0.0726377952755906
20
-1.3179133858267715
11
0.1122047244094488
21
-1.3179133858267715
0
LINE
8
BLACK
6
CONTINUOUS
10
0.1122047244094488
20
-1.3179133858267715
11
0.1125813779527559
21
-1.3179883070866141
0
LINE
8
BLACK
6
CONTINUOUS
10
0.1125813779527559
20
-1.3179883070866141
11
0.1131140551181102
21
-1.3185209842519685
0
LINE
8
BLACK
6
CONTINUOUS
10
0.1131140551181102
20
-1.3185209842519685
11
0.1131889763779527
21
-1.3188976377952755
0
LINE
8
BLACK
6
CONTINUOUS
10
0.1131889763779527
20
-1.3188976377952755
11
0.1131889763779527
21
-1.325787401574803
0
LINE
8
BLACK
6
CONTINUOUS
10
0.1131889763779527
20
-1.325787401574803
11
0.1820866141732284
21
-1.325787401574803
0
LINE
8
BLACK
6
CONTINUOUS
10
0.1820866141732284
20
-1.325787401574803
11
0.1820866141732284
21
-1.2814960629921259
0
LINE
8
BLACK
6
CONTINUOUS
10
0.1820866141732284
20
-1.2814960629921259
11
0.1821615354330709
21
-1.281119409448819
0
LINE
8
BLACK
6
CONTINUOUS
10
0.1821615354330709
20
-1.281119409448819
11
0.1826942125984252
21
-1.2805867322834645
0
LINE
8
BLACK
6
CONTINUOUS
10
0.1826942125984252
20
-1.2805867322834645
11
0.1830708661417323
21
-1.280511811023622
0
LINE
8
BLACK
6
CONTINUOUS
10
0.1830708661417323
20
-1.280511811023622
11
0.2226377952755905
21
-1.280511811023622
0
LINE
8
BLACK
6
CONTINUOUS
10
0.2226377952755905
20
-1.280511811023622
11
0.2226377952755905
21
-1.2391732283464567
0
LINE
8
BLACK
6
CONTINUOUS
10
0.2226377952755905
20
-1.2391732283464567
11
0.1830708661417323
21
-1.2391732283464567
0
LINE
8
BLACK
6
CONTINUOUS
10
0.1830708661417323
20
-1.2391732283464567
11
0.1826942125984252
21
-1.2390983070866142
0
LINE
8
BLACK
6
CONTINUOUS
10
0.1826942125984252
20
-1.2390983070866142
11
0.1821615354330709
21
-1.2385656299212597
0
LINE
8
BLACK
6
CONTINUOUS
10
0.1821615354330709
20
-1.2385656299212597
11
0.1820866141732284
21
-1.2381889763779528
0
LINE
8
BLACK
6
CONTINUOUS
10
0.1820866141732284
20
-1.2381889763779528
11
0.1820866141732284
21
-1.1938976377952755
0
LINE
8
BLACK
6
CONTINUOUS
10
0.1820866141732284
20
-1.1938976377952755
11
0.1131889763779527
21
-1.1938976377952755
0
LINE
8
BLACK
6
CONTINUOUS
10
0.4592349212598425
20
-1.0825552362204724
11
0.4597675984251968
21
-1.0830879133858267
0
LINE
8
BLACK
6
CONTINUOUS
10
0.4597675984251968
20
-1.0830879133858267
11
0.4598425196850394
21
-1.0834645669291338
0
LINE
8
BLACK
6
CONTINUOUS
10
0.4598425196850394
20
-1.0834645669291338
11
0.4598425196850394
21
-1.1409448818897638
0
LINE
8
BLACK
6
CONTINUOUS
10
0.4598425196850394
20
-1.1409448818897638
11
0.4597675984251968
21
-1.1413215354330708
0
LINE
8
BLACK
6
CONTINUOUS
10
0.4597675984251968
20
-1.1413215354330708
11
0.4592349212598425
21
-1.1418542125984252
0
LINE
8
BLACK
6
CONTINUOUS
10
0.4592349212598425
20
-1.1418542125984252
11
0.4588582677165354
21
-1.1419291338582678
0
LINE
8
BLACK
6
CONTINUOUS
10
0.4588582677165354
20
-1.1419291338582678
11
0.3423228346456693
21
-1.1419291338582678
0
LINE
8
BLACK
6
CONTINUOUS
10
0.3423228346456693
20
-1.1419291338582678
11
0.3419461811023622
21
-1.1418542125984252
0
LINE
8
BLACK
6
CONTINUOUS
10
0.3419461811023622
20
-1.1418542125984252
11
0.3414135039370079
21
-1.1413215354330708
0
LINE
8
BLACK
6
CONTINUOUS
10
0.3414135039370079
20
-1.1413215354330708
11
0.3413385826771653
21
-1.1409448818897638
0
LINE
8
BLACK
6
CONTINUOUS
10
0.3413385826771653
20
-1.1409448818897638
11
0.3413385826771653
21
-1.0834645669291338
0
LINE
8
BLACK
6
CONTINUOUS
10
0.3413385826771653
20
-1.0834645669291338
11
0.3414135039370079
21
-1.0830879133858267
0
LINE
8
BLACK
6
CONTINUOUS
10
0.3414135039370079
20
-1.0830879133858267
11
0.3419461811023622
21
-1.0825552362204724
0
LINE
8
BLACK
6
CONTINUOUS
10
0.3419461811023622
20
-1.0825552362204724
11
0.3423228346456693
21
-1.0824803149606299
0
LINE
8
BLACK
6
CONTINUOUS
10
0.3423228346456693
20
-1.0824803149606299
11
0.4588582677165354
21
-1.0824803149606299
0
LINE
8
BLACK
6
CONTINUOUS
10
0.4588582677165354
20
-1.0824803149606299
11
0.4592349212598425
21
-1.0825552362204724
0
LINE
8
BLACK
6
CONTINUOUS
10
0.3433070866141732
20
-1.0844488188976378
11
0.3433070866141732
21
-1.1399606299212599
0
LINE
8
BLACK
6
CONTINUOUS
10
0.3433070866141732
20
-1.1399606299212599
11
0.4578740157480315
21
-1.1399606299212599
0
LINE
8
BLACK
6
CONTINUOUS
10
0.4578740157480315
20
-1.1399606299212599
11
0.4578740157480315
21
-1.0844488188976378
0
LINE
8
BLACK
6
CONTINUOUS
10
0.4578740157480315
20
-1.0844488188976378
11
0.3433070866141732
21
-1.0844488188976378
0
LINE
8
BLACK
6
CONTINUOUS
10
0.1836443700787402
20
-1.0333426377952755
11
0.1841770472440945
21
-1.0338753149606299
0
LINE
8
BLACK
6
CONTINUOUS
10
0.1841770472440945
20
-1.0338753149606299
11
0.184251968503937
21
-1.0342519685039371
0
LINE
8
BLACK
6
CONTINUOUS
10
0.184251968503937
20
-1.0342519685039371
11
0.184251968503937
21
-1.0917322834645669
0
LINE
8
BLACK
6
CONTINUOUS
10
0.184251968503937
20
-1.0917322834645669
11
0.1841770472440945
21
-1.092108937007874
0
LINE
8
BLACK
6
CONTINUOUS
10
0.1841770472440945
20
-1.092108937007874
11
0.1836443700787402
21
-1.0926416141732282
0
LINE
8
BLACK
6
CONTINUOUS
10
0.1836443700787402
20
-1.0926416141732282
11
0.1832677165354331
21
-1.0927165354330708
0
LINE
8
BLACK
6
CONTINUOUS
10
0.1832677165354331
20
-1.0927165354330708
11
0.0667322834645669
21
-1.0927165354330708
0
LINE
8
BLACK
6
CONTINUOUS
10
0.0667322834645669
20
-1.0927165354330708
11
0.0663556299212598
21
-1.0926416141732282
0
LINE
8
BLACK
6
CONTINUOUS
10
0.0663556299212598
20
-1.0926416141732282
11
0.0658229527559055
21
-1.092108937007874
0
LINE
8
BLACK
6
CONTINUOUS
10
0.0658229527559055
20
-1.092108937007874
11
0.065748031496063
21
-1.0917322834645669
0
LINE
8
BLACK
6
CONTINUOUS
10
0.065748031496063
20
-1.0917322834645669
11
0.065748031496063
21
-1.0342519685039371
0
LINE
8
BLACK
6
CONTINUOUS
10
0.065748031496063
20
-1.0342519685039371
11
0.0658229527559055
21
-1.0338753149606299
0
LINE
8
BLACK
6
CONTINUOUS
10
0.0658229527559055
20
-1.0338753149606299
11
0.0663556299212598
21
-1.0333426377952755
0
LINE
8
BLACK
6
CONTINUOUS
10
0.0663556299212598
20
-1.0333426377952755
11
0.0667322834645669
21
-1.0332677165354331
0
LINE
8
BLACK
6
CONTINUOUS
10
0.0667322834645669
20
-1.0332677165354331
11
0.1832677165354331
21
-1.0332677165354331
0
LINE
8
BLACK
6
CONTINUOUS
10
0.1832677165354331
20
-1.0332677165354331
11
0.1836443700787402
21
-1.0333426377952755
0
LINE
8
BLACK
6
CONTINUOUS
10
0.0677165354330709
20
-1.035236220472441
11
0.0677165354330709
21
-1.0907480314960629
0
LINE
8
BLACK
6
CONTINUOUS
10
0.0677165354330709
20
-1.0907480314960629
11
0.1822834645669291
21
-1.0907480314960629
0
LINE
8
BLACK
6
CONTINUOUS
10
0.1822834645669291
20
-1.0907480314960629
11
0.1822834645669291
21
-1.035236220472441
0
LINE
8
BLACK
6
CONTINUOUS
10
0.1822834645669291
20
-1.035236220472441
11
0.0677165354330709
21
-1.035236220472441
0
LINE
8
BLACK
6
CONTINUOUS
10
-0.8780682283464567
20
-0.7904292519685039
11
-0.8775355511811024
21
-0.7909619291338582
0
LINE
8
BLACK
6
CONTINUOUS
10
-0.8775355511811024
20
-0.7909619291338582
11
-0.8774606299212598
21
-0.7913385826771653
0
LINE
8
BLACK
6
CONTINUOUS
10
-0.8774606299212598
20
-0.7913385826771653
11
-0.8774606299212598
21
-0.7982283464566929
0
LINE
8
BLACK
6
CONTINUOUS
10
-0.8774606299212598
20
-0.7982283464566929
11
-0.8390748031496063
21
-0.7982283464566929
0
LINE
8
BLACK
6
CONTINUOUS
10
-0.8390748031496063
20
-0.7982283464566929
11
-0.8386981496062992
21
-0.7983032677165354
0
LINE
8
BLACK
6
CONTINUOUS
10
-0.8386981496062992
20
-0.7983032677165354
11
-0.8381654724409449
21
-0.7988359448818897
0
LINE
8
BLACK
6
CONTINUOUS
10
-0.8381654724409449
20
-0.7988359448818897
11
-0.8380905511811023
21
-0.7992125984251969
0
LINE
8
BLACK
6
CONTINUOUS
10
-0.8380905511811023
20
-0.7992125984251969
11
-0.8380905511811023
21
-0.9173228346456692
0
LINE
8
BLACK
6
CONTINUOUS
10
-0.8380905511811023
20
-0.9173228346456692
11
-0.8381654724409449
21
-0.9176994881889764
0
LINE
8
BLACK
6
CONTINUOUS
10
-0.8381654724409449
20
-0.9176994881889764
11
-0.8386981496062992
21
-0.9182321653543307
0
LINE
8
BLACK
6
CONTINUOUS
10
-0.8386981496062992
20
-0.9182321653543307
11
-0.8390748031496063
21
-0.9183070866141733
0
LINE
8
BLACK
6
CONTINUOUS
10
-0.8390748031496063
20
-0.9183070866141733
11
-0.8774606299212598
21
-0.9183070866141733
0
LINE
8
BLACK
6
CONTINUOUS
10
-0.8774606299212598
20
-0.9183070866141733
11
-0.8774606299212598
21
-0.9251968503937008
0
LINE
8
BLACK
6
CONTINUOUS
10
-0.8774606299212598
20
-0.9251968503937008
11
-0.8775355511811024
21
-0.9255735039370079
0
LINE
8
BLACK
6
CONTINUOUS
10
-0.8775355511811024
20
-0.9255735039370079
11
-0.8780682283464567
21
-0.9261061811023622
0
LINE
8
BLACK
6
CONTINUOUS
10
-0.8780682283464567
20
-0.9261061811023622
11
-0.8784448818897638
21
-0.9261811023622047
0
LINE
8
BLACK
6
CONTINUOUS
10
-0.8784448818897638
20
-0.9261811023622047
11
-0.9611220472440944
21
-0.9261811023622047
0
LINE
8
BLACK
6
CONTINUOUS
10
-0.9611220472440944
20
-0.9261811023622047
11
-0.9614987007874015
21
-0.9261061811023622
0
LINE
8
BLACK
6
CONTINUOUS
10
-0.9614987007874015
20
-0.9261061811023622
11
-0.9620313779527558
21
-0.9255735039370079
0
LINE
8
BLACK
6
CONTINUOUS
10
-0.9620313779527558
20
-0.9255735039370079
11
-0.9621062992125984
21
-0.9251968503937008
0
LINE
8
BLACK
6
CONTINUOUS
10
-0.9621062992125984
20
-0.9251968503937008
11
-0.9621062992125984
21
-0.9183070866141733
0
LINE
8
BLACK
6
CONTINUOUS
10
-0.9621062992125984
20
-0.9183070866141733
11
-1.0004921259842519
21
-0.9183070866141733
0
LINE
8
BLACK
6
CONTINUOUS
10
-1.0004921259842519
20
-0.9183070866141733
11
-1.000868779527559
21
-0.9182321653543307
0
LINE
8
BLACK
6
CONTINUOUS
10
-1.000868779527559
20
-0.9182321653543307
11
-1.0014014566929135
21
-0.9176994881889764
0
LINE
8
BLACK
6
CONTINUOUS
10
-1.0014014566929135
20
-0.9176994881889764
11
-1.0014763779527558
21
-0.9173228346456692
0
LINE
8
BLACK
6
CONTINUOUS
10
-1.0014763779527558
20
-0.9173228346456692
11
-1.0014763779527558
21
-0.7992125984251969
0
LINE
8
BLACK
6
CONTINUOUS
10
-1.0014763779527558
20
-0.7992125984251969
11
-1.0014014566929135
21
-0.7988359448818897
0
LINE
8
BLACK
6
CONTINUOUS
10
-1.0014014566929135
20
-0.7988359448818897
11
-1.000868779527559
21
-0.7983032677165354
0
LINE
8
BLACK
6
CONTINUOUS
10
-1.000868779527559
20
-0.7983032677165354
11
-1.0004921259842519
21
-0.7982283464566929
0
LINE
8
BLACK
6
CONTINUOUS
10
-1.0004921259842519
20
-0.7982283464566929
11
-0.9621062992125984
21
-0.7982283464566929
0
LINE
8
BLACK
6
CONTINUOUS
10
-0.9621062992125984
20
-0.7982283464566929
11
-0.9621062992125984
21
-0.7913385826771653
0
LINE
8
BLACK
6
CONTINUOUS
10
-0.9621062992125984
20
-0.7913385826771653
11
-0.9620313779527558
21
-0.7909619291338582
0
LINE
8
BLACK
6
CONTINUOUS
10
-0.9620313779527558
20
-0.7909619291338582
11
-0.9614987007874015
21
-0.7904292519685039
0
LINE
8
BLACK
6
CONTINUOUS
10
-0.9614987007874015
20
-0.7904292519685039
11
-0.9611220472440944
21
-0.7903543307086613
0
LINE
8
BLACK
6
CONTINUOUS
10
-0.9611220472440944
20
-0.7903543307086613
11
-0.8784448818897638
21
-0.7903543307086613
0
LINE
8
BLACK
6
CONTINUOUS
10
-0.8784448818897638
20
-0.7903543307086613
11
-0.8780682283464567
21
-0.7904292519685039
0
LINE
8
BLACK
6
CONTINUOUS
10
-0.9601377952755905
20
-0.7923228346456693
11
-0.9601377952755905
21
-0.7992125984251969
0
LINE
8
BLACK
6
CONTINUOUS
10
-0.9601377952755905
20
-0.7992125984251969
11
-0.9602127165354331
21
-0.7995892519685039
0
LINE
8
BLACK
6
CONTINUOUS
10
-0.9602127165354331
20
-0.7995892519685039
11
-0.9607453937007874
21
-0.8001219291338583
0
LINE
8
BLACK
6
CONTINUOUS
10
-0.9607453937007874
20
-0.8001219291338583
11
-0.9611220472440944
21
-0.8001968503937008
0
LINE
8
BLACK
6
CONTINUOUS
10
-0.9611220472440944
20
-0.8001968503937008
11
-0.999507874015748
21
-0.8001968503937008
0
LINE
8
BLACK
6
CONTINUOUS
10
-0.999507874015748
20
-0.8001968503937008
11
-0.999507874015748
21
-0.9163385826771653
0
LINE
8
BLACK
6
CONTINUOUS
10
-0.999507874015748
20
-0.9163385826771653
11
-0.9611220472440944
21
-0.9163385826771653
0
LINE
8
BLACK
6
CONTINUOUS
10
-0.9611220472440944
20
-0.9163385826771653
11
-0.9607453937007874
21
-0.9164135039370078
0
LINE
8
BLACK
6
CONTINUOUS
10
-0.9607453937007874
20
-0.9164135039370078
11
-0.9602127165354331
21
-0.9169461811023621
0
LINE
8
BLACK
6
CONTINUOUS
10
-0.9602127165354331
20
-0.9169461811023621
11
-0.9601377952755905
21
-0.9173228346456692
0
LINE
8
BLACK
6
CONTINUOUS
10
-0.9601377952755905
20
-0.9173228346456692
11
-0.9601377952755905
21
-0.9242125984251969
0
LINE
8
BLACK
6
CONTINUOUS
10
-0.9601377952755905
20
-0.9242125984251969
11
-0.8794291338582677
21
-0.9242125984251969
0
LINE
8
BLACK
6
CONTINUOUS
10
-0.8794291338582677
20
-0.9242125984251969
11
-0.8794291338582677
21
-0.9173228346456692
0
LINE
8
BLACK
6
CONTINUOUS
10
-0.8794291338582677
20
-0.9173228346456692
11
-0.8793542125984252
21
-0.9169461811023621
0
LINE
8
BLACK
6
CONTINUOUS
10
-0.8793542125984252
20
-0.9169461811023621
11
-0.8788215354330708
21
-0.9164135039370078
0
LINE
8
BLACK
6
CONTINUOUS
10
-0.8788215354330708
20
-0.9164135039370078
11
-0.8784448818897638
21
-0.9163385826771653
0
LINE
8
BLACK
6
CONTINUOUS
10
-0.8784448818897638
20
-0.9163385826771653
11
-0.8400590551181102
21
-0.9163385826771653
0
LINE
8
BLACK
6
CONTINUOUS
10
-0.8400590551181102
20
-0.9163385826771653
11
-0.8400590551181102
21
-0.8001968503937008
0
LINE
8
BLACK
6
CONTINUOUS
10
-0.8400590551181102
20
-0.8001968503937008
11
-0.8784448818897638
21
-0.8001968503937008
0
LINE
8
BLACK
6
CONTINUOUS
10
-0.8784448818897638
20
-0.8001968503937008
11
-0.8788215354330708
21
-0.8001219291338583
0
LINE
8
BLACK
6
CONTINUOUS
10
-0.8788215354330708
20
-0.8001219291338583
11
-0.8793542125984252
21
-0.7995892519685039
0
LINE
8
BLACK
6
CONTINUOUS
10
-0.8793542125984252
20
-0.7995892519685039
11
-0.8794291338582677
21
-0.7992125984251969
0
LINE
8
BLACK
6
CONTINUOUS
10
-0.8794291338582677
20
-0.7992125984251969
11
-0.8794291338582677
21
-0.7923228346456693
0
LINE
8
BLACK
6
CONTINUOUS
10
-0.8794291338582677
20
-0.7923228346456693
11
-0.9601377952755905
21
-0.7923228346456693
0
LINE
8
BLACK
6
CONTINUOUS
10
-0.6249186220472441
20
-0.7990906692913385
11
-0.6243859448818897
21
-0.7996233464566929
0
LINE
8
BLACK
6
CONTINUOUS
10
-0.6243859448818897
20
-0.7996233464566929
11
-0.6243110236220473
21
-0.7999999999999999
0
LINE
8
BLACK
6
CONTINUOUS
10
-0.6243110236220473
20
-0.7999999999999999
11
-0.6243110236220473
21
-0.9165354330708662
0
LINE
8
BLACK
6
CONTINUOUS
10
-0.6243110236220473
20
-0.9165354330708662
11
-0.6243859448818897
21
-0.9169120866141732
0
LINE
8
BLACK
6
CONTINUOUS
10
-0.6243859448818897
20
-0.9169120866141732
11
-0.6249186220472441
21
-0.9174447637795276
0
LINE
8
BLACK
6
CONTINUOUS
10
-0.6249186220472441
20
-0.9174447637795276
11
-0.6252952755905512
21
-0.9175196850393701
0
LINE
8
BLACK
6
CONTINUOUS
10
-0.6252952755905512
20
-0.9175196850393701
11
-0.6827755905511811
21
-0.9175196850393701
0
LINE
8
BLACK
6
CONTINUOUS
10
-0.6827755905511811
20
-0.9175196850393701
11
-0.6831522440944882
21
-0.9174447637795276
0
LINE
8
BLACK
6
CONTINUOUS
10
-0.6831522440944882
20
-0.9174447637795276
11
-0.6836849212598425
21
-0.9169120866141732
0
LINE
8
BLACK
6
CONTINUOUS
10
-0.6836849212598425
20
-0.9169120866141732
11
-0.683759842519685
21
-0.9165354330708662
0
LINE
8
BLACK
6
CONTINUOUS
10
-0.683759842519685
20
-0.9165354330708662
11
-0.683759842519685
21
-0.7999999999999999
0
LINE
8
BLACK
6
CONTINUOUS
10
-0.683759842519685
20
-0.7999999999999999
11
-0.6836849212598425
21
-0.7996233464566929
0
LINE
8
BLACK
6
CONTINUOUS
10
-0.6836849212598425
20
-0.7996233464566929
11
-0.6831522440944882
21
-0.7990906692913385
0
LINE
8
BLACK
6
CONTINUOUS
10
-0.6831522440944882
20
-0.7990906692913385
11
-0.6827755905511811
21
-0.799015748031496
0
LINE
8
BLACK
6
CONTINUOUS
10
-0.6827755905511811
20
-0.799015748031496
11
-0.6252952755905512
21
-0.799015748031496
0
LINE
8
BLACK
6
CONTINUOUS
10
-0.6252952755905512
20
-0.799015748031496
11
-0.6249186220472441
21
-0.7990906692913385
0
LINE
8
BLACK
6
CONTINUOUS
10
-0.6817913385826772
20
-0.8009842519685039
11
-0.6817913385826772
21
-0.9155511811023622
0
LINE
8
BLACK
6
CONTINUOUS
10
-0.6817913385826772
20
-0.9155511811023622
11
-0.6262795275590551
21
-0.9155511811023622
0
LINE
8
BLACK
6
CONTINUOUS
10
-0.6262795275590551
20
-0.9155511811023622
11
-0.6262795275590551
21
-0.8009842519685039
0
LINE
8
BLACK
6
CONTINUOUS
10
-0.6262795275590551
20
-0.8009842519685039
11
-0.6817913385826772
21
-0.8009842519685039
0
LINE
8
BLACK
6
CONTINUOUS
10
-1.5501154724409449
20
-0.7794056299212598
11
-1.5495827952755905
21
-0.7799383070866142
0
LINE
8
BLACK
6
CONTINUOUS
10
-1.5495827952755905
20
-0.7799383070866142
11
-1.549507874015748
21
-0.7803149606299212
0
LINE
8
BLACK
6
CONTINUOUS
10
-1.549507874015748
20
-0.7803149606299212
11
-1.549507874015748
21
-0.8968503937007873
0
LINE
8
BLACK
6
CONTINUOUS
10
-1.549507874015748
20
-0.8968503937007873
11
-1.5495827952755905
21
-0.8972270472440945
0
LINE
8
BLACK
6
CONTINUOUS
10
-1.5495827952755905
20
-0.8972270472440945
11
-1.5501154724409449
21
-0.8977597244094488
0
LINE
8
BLACK
6
CONTINUOUS
10
-1.5501154724409449
20
-0.8977597244094488
11
-1.5504921259842519
21
-0.8978346456692913
0
LINE
8
BLACK
6
CONTINUOUS
10
-1.5504921259842519
20
-0.8978346456692913
11
-1.6079724409448819
21
-0.8978346456692913
0
LINE
8
BLACK
6
CONTINUOUS
10
-1.6079724409448819
20
-0.8978346456692913
11
-1.6083490944881889
21
-0.8977597244094488
0
LINE
8
BLACK
6
CONTINUOUS
10
-1.6083490944881889
20
-0.8977597244094488
11
-1.6088817716535433
21
-0.8972270472440945
0
LINE
8
BLACK
6
CONTINUOUS
10
-1.6088817716535433
20
-0.8972270472440945
11
-1.6089566929133858
21
-0.8968503937007873
0
LINE
8
BLACK
6
CONTINUOUS
10
-1.6089566929133858
20
-0.8968503937007873
11
-1.6089566929133858
21
-0.7803149606299212
0
LINE
8
BLACK
6
CONTINUOUS
10
-1.6089566929133858
20
-0.7803149606299212
11
-1.6088817716535433
21
-0.7799383070866142
0
LINE
8
BLACK
6
CONTINUOUS
10
-1.6088817716535433
20
-0.7799383070866142
11
-1.6083490944881889
21
-0.7794056299212598
0
LINE
8
BLACK
6
CONTINUOUS
10
-1.6083490944881889
20
-0.7794056299212598
11
-1.6079724409448819
21
-0.7793307086614173
0
LINE
8
BLACK
6
CONTINUOUS
10
-1.6079724409448819
20
-0.7793307086614173
11
-1.5504921259842519
21
-0.7793307086614173
0
LINE
8
BLACK
6
CONTINUOUS
10
-1.5504921259842519
20
-0.7793307086614173
11
-1.5501154724409449
21
-0.7794056299212598
0
LINE
8
BLACK
6
CONTINUOUS
10
-1.606988188976378
20
-0.7812992125984252
11
-1.606988188976378
21
-0.8958661417322834
0
LINE
8
BLACK
6
CONTINUOUS
10
-1.606988188976378
20
-0.8958661417322834
11
-1.5514763779527558
21
-0.8958661417322834
0
LINE
8
BLACK
6
CONTINUOUS
10
-1.5514763779527558
20
-0.8958661417322834
11
-1.5514763779527558
21
-0.7812992125984252
0
LINE
8
BLACK
6
CONTINUOUS
10
-1.5514763779527558
20
-0.7812992125984252
11
-1.606988188976378
21
-0.7812992125984252
0
LINE
8
BLACK
6
CONTINUOUS
10
-1.3532650787401574
20
-0.7784213779527559
11
-1.352732401574803
21
-0.7789540551181102
0
LINE
8
BLACK
6
CONTINUOUS
10
-1.352732401574803
20
-0.7789540551181102
11
-1.3526574803149607
21
-0.7793307086614173
0
LINE
8
BLACK
6
CONTINUOUS
10
-1.3526574803149607
20
-0.7793307086614173
11
-1.3526574803149607
21
-0.8958661417322834
0
LINE
8
BLACK
6
CONTINUOUS
10
-1.3526574803149607
20
-0.8958661417322834
11
-1.352732401574803
21
-0.8962427952755905
0
LINE
8
BLACK
6
CONTINUOUS
10
-1.352732401574803
20
-0.8962427952755905
11
-1.3532650787401574
21
-0.8967754724409449
0
LINE
8
BLACK
6
CONTINUOUS
10
-1.3532650787401574
20
-0.8967754724409449
11
-1.3536417322834646
21
-0.8968503937007873
0
LINE
8
BLACK
6
CONTINUOUS
10
-1.3536417322834646
20
-0.8968503937007873
11
-1.4111220472440944
21
-0.8968503937007873
0
LINE
8
BLACK
6
CONTINUOUS
10
-1.4111220472440944
20
-0.8968503937007873
11
-1.4114987007874016
21
-0.8967754724409449
0
LINE
8
BLACK
6
CONTINUOUS
10
-1.4114987007874016
20
-0.8967754724409449
11
-1.4120313779527558
21
-0.8962427952755905
0
LINE
8
BLACK
6
CONTINUOUS
10
-1.4120313779527558
20
-0.8962427952755905
11
-1.4121062992125983
21
-0.8958661417322834
0
LINE
8
BLACK
6
CONTINUOUS
10
-1.4121062992125983
20
-0.8958661417322834
11
-1.4121062992125983
21
-0.7793307086614173
0
LINE
8
BLACK
6
CONTINUOUS
10
-1.4121062992125983
20
-0.7793307086614173
11
-1.4120313779527558
21
-0.7789540551181102
0
LINE
8
BLACK
6
CONTINUOUS
10
-1.4120313779527558
20
-0.7789540551181102
11
-1.4114987007874016
21
-0.7784213779527559
0
LINE
8
BLACK
6
CONTINUOUS
10
-1.4114987007874016
20
-0.7784213779527559
11
-1.4111220472440944
21
-0.7783464566929134
0
LINE
8
BLACK
6
CONTINUOUS
10
-1.4111220472440944
20
-0.7783464566929134
11
-1.3536417322834646
21
-0.7783464566929134
0
LINE
8
BLACK
6
CONTINUOUS
10
-1.3536417322834646
20
-0.7783464566929134
11
-1.3532650787401574
21
-0.7784213779527559
0
LINE
8
BLACK
6
CONTINUOUS
10
-1.4101377952755905
20
-0.7803149606299212
11
-1.4101377952755905
21
-0.8948818897637795
0
LINE
8
BLACK
6
CONTINUOUS
10
-1.4101377952755905
20
-0.8948818897637795
11
-1.3546259842519686
21
-0.8948818897637795
0
LINE
8
BLACK
6
CONTINUOUS
10
-1.3546259842519686
20
-0.8948818897637795
11
-1.3546259842519686
21
-0.7803149606299212
0
LINE
8
BLACK
6
CONTINUOUS
10
-1.3546259842519686
20
-0.7803149606299212
11
-1.4101377952755905
21
-0.7803149606299212
0
LINE
8
BLACK
6
CONTINUOUS
10
-1.0842690157480315
20
-0.7766497244094488
11
-1.083736338582677
21
-0.7771824015748031
0
LINE
8
BLACK
6
CONTINUOUS
10
-1.083736338582677
20
-0.7771824015748031
11
-1.0836614173228347
21
-0.7775590551181102
0
LINE
8
BLACK
6
CONTINUOUS
10
-1.0836614173228347
20
-0.7775590551181102
11
-1.0836614173228347
21
-0.8759842519685039
0
LINE
8
BLACK
6
CONTINUOUS
10
-1.0836614173228347
20
-0.8759842519685039
11
-1.083736338582677
21
-0.876360905511811
0
LINE
8
BLACK
6
CONTINUOUS
10
-1.083736338582677
20
-0.876360905511811
11
-1.0842690157480315
21
-0.8768935826771653
0
LINE
8
BLACK
6
CONTINUOUS
10
-1.0842690157480315
20
-0.8768935826771653
11
-1.0846456692913387
21
-0.8769685039370079
0
LINE
8
BLACK
6
CONTINUOUS
10
-1.0846456692913387
20
-0.8769685039370079
11
-1.139763779527559
21
-0.8769685039370079
0
LINE
8
BLACK
6
CONTINUOUS
10
-1.139763779527559
20
-0.8769685039370079
11
-1.1401404330708662
21
-0.8768935826771653
0
LINE
8
BLACK
6
CONTINUOUS
10
-1.1401404330708662
20
-0.8768935826771653
11
-1.1406731102362204
21
-0.876360905511811
0
LINE
8
BLACK
6
CONTINUOUS
10
-1.1406731102362204
20
-0.876360905511811
11
-1.140748031496063
21
-0.8759842519685039
0
LINE
8
BLACK
6
CONTINUOUS
10
-1.140748031496063
20
-0.8759842519685039
11
-1.140748031496063
21
-0.7775590551181102
0
LINE
8
BLACK
6
CONTINUOUS
10
-1.140748031496063
20
-0.7775590551181102
11
-1.1406731102362204
21
-0.7771824015748031
0
LINE
8
BLACK
6
CONTINUOUS
10
-1.1406731102362204
20
-0.7771824015748031
11
-1.1401404330708662
21
-0.7766497244094488
0
LINE
8
BLACK
6
CONTINUOUS
10
-1.1401404330708662
20
-0.7766497244094488
11
-1.139763779527559
21
-0.7765748031496063
0
LINE
8
BLACK
6
CONTINUOUS
10
-1.139763779527559
20
-0.7765748031496063
11
-1.0846456692913387
21
-0.7765748031496063
0
LINE
8
BLACK
6
CONTINUOUS
10
-1.0846456692913387
20
-0.7765748031496063
11
-1.0842690157480315
21
-0.7766497244094488
0
LINE
8
BLACK
6
CONTINUOUS
10
-1.1387795275590551
20
-0.7785433070866141
11
-1.1387795275590551
21
-0.875
0
LINE
8
BLACK
6
CONTINUOUS
10
-1.1387795275590551
20
-0.875
11
-1.0856299212598426
21
-0.875
0
LINE
8
BLACK
6
CONTINUOUS
10
-1.0856299212598426
20
-0.875
11
-1.0856299212598426
21
-0.7785433070866141
0
LINE
8
BLACK
6
CONTINUOUS
10
-1.0856299212598426
20
-0.7785433070866141
11
-1.1387795275590551
21
-0.7785433070866141
0
LINE
8
BLACK
6
CONTINUOUS
10
0.6590380708661417
20
-0.7479095669291338
11
0.6595707480314961
21
-0.7484422440944881
0
LINE
8
BLACK
6
CONTINUOUS
10
0.6595707480314961
20
-0.7484422440944881
11
0.6596456692913386
21
-0.7488188976377953
0
LINE
8
BLACK
6
CONTINUOUS
10
0.6596456692913386
20
-0.7488188976377953
11
0.6596456692913386
21
-0.8062992125984252
0
LINE
8
BLACK
6
CONTINUOUS
10
0.6596456692913386
20
-0.8062992125984252
11
0.6595707480314961
21
-0.8066758661417323
0
LINE
8
BLACK
6
CONTINUOUS
10
0.6595707480314961
20
-0.8066758661417323
11
0.6590380708661417
21
-0.8072085433070866
0
LINE
8
BLACK
6
CONTINUOUS
10
0.6590380708661417
20
-0.8072085433070866
11
0.6586614173228347
21
-0.8072834645669291
0
LINE
8
BLACK
6
CONTINUOUS
10
0.6586614173228347
20
-0.8072834645669291
11
0.5421259842519685
21
-0.8072834645669291
0
LINE
8
BLACK
6
CONTINUOUS
10
0.5421259842519685
20
-0.8072834645669291
11
0.5417493307086614
21
-0.8072085433070866
0
LINE
8
BLACK
6
CONTINUOUS
10
0.5417493307086614
20
-0.8072085433070866
11
0.5412166535433071
21
-0.8066758661417323
0
LINE
8
BLACK
6
CONTINUOUS
10
0.5412166535433071
20
-0.8066758661417323
11
0.5411417322834645
21
-0.8062992125984252
0
LINE
8
BLACK
6
CONTINUOUS
10
0.5411417322834645
20
-0.8062992125984252
11
0.5411417322834645
21
-0.7488188976377953
0
LINE
8
BLACK
6
CONTINUOUS
10
0.5411417322834645
20
-0.7488188976377953
11
0.5412166535433071
21
-0.7484422440944881
0
LINE
8
BLACK
6
CONTINUOUS
10
0.5412166535433071
20
-0.7484422440944881
11
0.5417493307086614
21
-0.7479095669291338
0
LINE
8
BLACK
6
CONTINUOUS
10
0.5417493307086614
20
-0.7479095669291338
11
0.5421259842519685
21
-0.7478346456692914
0
LINE
8
BLACK
6
CONTINUOUS
10
0.5421259842519685
20
-0.7478346456692914
11
0.6586614173228347
21
-0.7478346456692914
0
LINE
8
BLACK
6
CONTINUOUS
10
0.6586614173228347
20
-0.7478346456692914
11
0.6590380708661417
21
-0.7479095669291338
0
LINE
8
BLACK
6
CONTINUOUS
10
0.5431102362204724
20
-0.7498031496062992
11
0.5431102362204724
21
-0.8053149606299213
0
LINE
8
BLACK
6
CONTINUOUS
10
0.5431102362204724
20
-0.8053149606299213
11
0.6576771653543307
21
-0.8053149606299213
0
LINE
8
BLACK
6
CONTINUOUS
10
0.6576771653543307
20
-0.8053149606299213
11
0.6576771653543307
21
-0.7498031496062992
0
LINE
8
BLACK
6
CONTINUOUS
10
0.6576771653543307
20
-0.7498031496062992
11
0.5431102362204724
21
-0.7498031496062992
0
LINE
8
BLACK
6
CONTINUOUS
10
-2.0983438188976375
20
-0.6396418503937008
11
-2.0978111417322833
21
-0.6401745275590551
0
LINE
8
BLACK
6
CONTINUOUS
10
-2.0978111417322833
20
-0.6401745275590551
11
-2.097736220472441
21
-0.6405511811023622
0
LINE
8
BLACK
6
CONTINUOUS
10
-2.097736220472441
20
-0.6405511811023622
11
-2.097736220472441
21
-0.6980314960629921
0
LINE
8
BLACK
6
CONTINUOUS
10
-2.097736220472441
20
-0.6980314960629921
11
-2.0978111417322833
21
-0.6984081496062992
0
LINE
8
BLACK
6
CONTINUOUS
10
-2.0978111417322833
20
-0.6984081496062992
11
-2.0983438188976375
21
-0.6989408267716535
0
LINE
8
BLACK
6
CONTINUOUS
10
-2.0983438188976375
20
-0.6989408267716535
11
-2.0987204724409447
21
-0.699015748031496
0
LINE
8
BLACK
6
CONTINUOUS
10
-2.0987204724409447
20
-0.699015748031496
11
-2.2152559055118108
21
-0.699015748031496
0
LINE
8
BLACK
6
CONTINUOUS
10
-2.2152559055118108
20
-0.699015748031496
11
-2.215632559055118
21
-0.6989408267716535
0
LINE
8
BLACK
6
CONTINUOUS
10
-2.215632559055118
20
-0.6989408267716535
11
-2.2161652362204722
21
-0.6984081496062992
0
LINE
8
BLACK
6
CONTINUOUS
10
-2.2161652362204722
20
-0.6984081496062992
11
-2.216240157480315
21
-0.6980314960629921
0
LINE
8
BLACK
6
CONTINUOUS
10
-2.216240157480315
20
-0.6980314960629921
11
-2.216240157480315
21
-0.6405511811023622
0
LINE
8
BLACK
6
CONTINUOUS
10
-2.216240157480315
20
-0.6405511811023622
11
-2.2161652362204722
21
-0.6401745275590551
0
LINE
8
BLACK
6
CONTINUOUS
10
-2.2161652362204722
20
-0.6401745275590551
11
-2.215632559055118
21
-0.6396418503937008
0
LINE
8
BLACK
6
CONTINUOUS
10
-2.215632559055118
20
-0.6396418503937008
11
-2.2152559055118108
21
-0.6395669291338583
0
LINE
8
BLACK
6
CONTINUOUS
10
-2.2152559055118108
20
-0.6395669291338583
11
-2.0987204724409447
21
-0.6395669291338583
0
LINE
8
BLACK
6
CONTINUOUS
10
-2.0987204724409447
20
-0.6395669291338583
11
-2.0983438188976375
21
-0.6396418503937008
0
LINE
8
BLACK
6
CONTINUOUS
10
-2.2142716535433071
20
-0.6415354330708661
11
-2.2142716535433071
21
-0.6970472440944881
0
LINE
8
BLACK
6
CONTINUOUS
10
-2.2142716535433071
20
-0.6970472440944881
11
-2.0997047244094489
21
-0.6970472440944881
0
LINE
8
BLACK
6
CONTINUOUS
10
-2.0997047244094489
20
-0.6970472440944881
11
-2.0997047244094489
21
-0.6415354330708661
0
LINE
8
BLACK
6
CONTINUOUS
10
-2.0997047244094489
20
-0.6415354330708661
11
-2.2142716535433071
21
-0.6415354330708661
0
LINE
8
BLACK
6
CONTINUOUS
10
0.3665183858267717
20
-0.5286182283464567
11
0.367051062992126
21
-0.529150905511811
0
LINE
8
BLACK
6
CONTINUOUS
10
0.367051062992126
20
-0.529150905511811
11
0.3671259842519685
21
-0.5295275590551181
0
LINE
8
BLACK
6
CONTINUOUS
10
0.3671259842519685
20
-0.5295275590551181
11
0.3671259842519685
21
-0.6712598425196851
0
LINE
8
BLACK
6
CONTINUOUS
10
0.3671259842519685
20
-0.6712598425196851
11
0.367051062992126
21
-0.6716364960629921
0
LINE
8
BLACK
6
CONTINUOUS
10
0.367051062992126
20
-0.6716364960629921
11
0.3665183858267717
21
-0.6721691732283465
0
LINE
8
BLACK
6
CONTINUOUS
10
0.3665183858267717
20
-0.6721691732283465
11
0.3661417322834646
21
-0.672244094488189
0
LINE
8
BLACK
6
CONTINUOUS
10
0.3661417322834646
20
-0.672244094488189
11
0.1338582677165354
21
-0.672244094488189
0
LINE
8
BLACK
6
CONTINUOUS
10
0.1338582677165354
20
-0.672244094488189
11
0.1334816141732283
21
-0.6721691732283465
0
LINE
8
BLACK
6
CONTINUOUS
10
0.1334816141732283
20
-0.6721691732283465
11
0.132948937007874
21
-0.6716364960629921
0
LINE
8
BLACK
6
CONTINUOUS
10
0.132948937007874
20
-0.6716364960629921
11
0.1328740157480315
21
-0.6712598425196851
0
LINE
8
BLACK
6
CONTINUOUS
10
0.1328740157480315
20
-0.6712598425196851
11
0.1328740157480315
21
-0.5295275590551181
0
LINE
8
BLACK
6
CONTINUOUS
10
0.1328740157480315
20
-0.5295275590551181
11
0.132948937007874
21
-0.529150905511811
0
LINE
8
BLACK
6
CONTINUOUS
10
0.132948937007874
20
-0.529150905511811
11
0.1334816141732283
21
-0.5286182283464567
0
LINE
8
BLACK
6
CONTINUOUS
10
0.1334816141732283
20
-0.5286182283464567
11
0.1338582677165354
21
-0.5285433070866141
0
LINE
8
BLACK
6
CONTINUOUS
10
0.1338582677165354
20
-0.5285433070866141
11
0.3661417322834646
21
-0.5285433070866141
0
LINE
8
BLACK
6
CONTINUOUS
10
0.3661417322834646
20
-0.5285433070866141
11
0.3665183858267717
21
-0.5286182283464567
0
LINE
8
BLACK
6
CONTINUOUS
10
0.1348425196850394
20
-0.530511811023622
11
0.1348425196850394
21
-0.6702755905511811
0
LINE
8
BLACK
6
CONTINUOUS
10
0.1348425196850394
20
-0.6702755905511811
11
0.3651574803149606
21
-0.6702755905511811
0
LINE
8
BLACK
6
CONTINUOUS
10
0.3651574803149606
20
-0.6702755905511811
11
0.3651574803149606
21
-0.530511811023622
0
LINE
8
BLACK
6
CONTINUOUS
10
0.3651574803149606
20
-0.530511811023622
11
0.1348425196850394
21
-0.530511811023622
0
LINE
8
BLACK
6
CONTINUOUS
10
0.4720301968503937
20
-0.511689094488189
11
0.472562874015748
21
-0.5122217716535433
0
LINE
8
BLACK
6
CONTINUOUS
10
0.472562874015748
20
-0.5122217716535433
11
0.4726377952755905
21
-0.5125984251968504
0
LINE
8
BLACK
6
CONTINUOUS
10
0.4726377952755905
20
-0.5125984251968504
11
0.4726377952755905
21
-0.6291338582677165
0
LINE
8
BLACK
6
CONTINUOUS
10
0.4726377952755905
20
-0.6291338582677165
11
0.472562874015748
21
-0.6295105118110236
0
LINE
8
BLACK
6
CONTINUOUS
10
0.472562874015748
20
-0.6295105118110236
11
0.4720301968503937
21
-0.6300431889763779
0
LINE
8
BLACK
6
CONTINUOUS
10
0.4720301968503937
20
-0.6300431889763779
11
0.4716535433070866
21
-0.6301181102362204
0
LINE
8
BLACK
6
CONTINUOUS
10
0.4716535433070866
20
-0.6301181102362204
11
0.4141732283464567
21
-0.6301181102362204
0
LINE
8
BLACK
6
CONTINUOUS
10
0.4141732283464567
20
-0.6301181102362204
11
0.4137965748031496
21
-0.6300431889763779
0
LINE
8
BLACK
6
CONTINUOUS
10
0.4137965748031496
20
-0.6300431889763779
11
0.4132638976377953
21
-0.6295105118110236
0
LINE
8
BLACK
6
CONTINUOUS
10
0.4132638976377953
20
-0.6295105118110236
11
0.4131889763779528
21
-0.6291338582677165
0
LINE
8
BLACK
6
CONTINUOUS
10
0.4131889763779528
20
-0.6291338582677165
11
0.4131889763779528
21
-0.5125984251968504
0
LINE
8
BLACK
6
CONTINUOUS
10
0.4131889763779528
20
-0.5125984251968504
11
0.4132638976377953
21
-0.5122217716535433
0
LINE
8
BLACK
6
CONTINUOUS
10
0.4132638976377953
20
-0.5122217716535433
11
0.4137965748031496
21
-0.511689094488189
0
LINE
8
BLACK
6
CONTINUOUS
10
0.4137965748031496
20
-0.511689094488189
11
0.4141732283464567
21
-0.5116141732283465
0
LINE
8
BLACK
6
CONTINUOUS
10
0.4141732283464567
20
-0.5116141732283465
11
0.4716535433070866
21
-0.5116141732283465
0
LINE
8
BLACK
6
CONTINUOUS
10
0.4716535433070866
20
-0.5116141732283465
11
0.4720301968503937
21
-0.511689094488189
0
LINE
8
BLACK
6
CONTINUOUS
10
0.4151574803149606
20
-0.5135826771653543
11
0.4151574803149606
21
-0.6281496062992126
0
LINE
8
BLACK
6
CONTINUOUS
10
0.4151574803149606
20
-0.6281496062992126
11
0.4706692913385827
21
-0.6281496062992126
0
LINE
8
BLACK
6
CONTINUOUS
10
0.4706692913385827
20
-0.6281496062992126
11
0.4706692913385827
21
-0.5135826771653543
0
LINE
8
BLACK
6
CONTINUOUS
10
0.4706692913385827
20
-0.5135826771653543
11
0.4151574803149606
21
-0.5135826771653543
0
LINE
8
BLACK
6
CONTINUOUS
10
0.6590380708661417
20
-0.511689094488189
11
0.6595707480314961
21
-0.5122217716535433
0
LINE
8
BLACK
6
CONTINUOUS
10
0.6595707480314961
20
-0.5122217716535433
11
0.6596456692913386
21
-0.5125984251968504
0
LINE
8
BLACK
6
CONTINUOUS
10
0.6596456692913386
20
-0.5125984251968504
11
0.6596456692913386
21
-0.6291338582677165
0
LINE
8
BLACK
6
CONTINUOUS
10
0.6596456692913386
20
-0.6291338582677165
11
0.6595707480314961
21
-0.6295105118110236
0
LINE
8
BLACK
6
CONTINUOUS
10
0.6595707480314961
20
-0.6295105118110236
11
0.6590380708661417
21
-0.6300431889763779
0
LINE
8
BLACK
6
CONTINUOUS
10
0.6590380708661417
20
-0.6300431889763779
11
0.6586614173228347
21
-0.6301181102362204
0
LINE
8
BLACK
6
CONTINUOUS
10
0.6586614173228347
20
-0.6301181102362204
11
0.6011811023622047
21
-0.6301181102362204
0
LINE
8
BLACK
6
CONTINUOUS
10
0.6011811023622047
20
-0.6301181102362204
11
0.6008044488188976
21
-0.6300431889763779
0
LINE
8
BLACK
6
CONTINUOUS
10
0.6008044488188976
20
-0.6300431889763779
11
0.6002717716535433
21
-0.6295105118110236
0
LINE
8
BLACK
6
CONTINUOUS
10
0.6002717716535433
20
-0.6295105118110236
11
0.6001968503937007
21
-0.6291338582677165
0
LINE
8
BLACK
6
CONTINUOUS
10
0.6001968503937007
20
-0.6291338582677165
11
0.6001968503937007
21
-0.5125984251968504
0
LINE
8
BLACK
6
CONTINUOUS
10
0.6001968503937007
20
-0.5125984251968504
11
0.6002717716535433
21
-0.5122217716535433
0
LINE
8
BLACK
6
CONTINUOUS
10
0.6002717716535433
20
-0.5122217716535433
11
0.6008044488188976
21
-0.511689094488189
0
LINE
8
BLACK
6
CONTINUOUS
10
0.6008044488188976
20
-0.511689094488189
11
0.6011811023622047
21
-0.5116141732283465
0
LINE
8
BLACK
6
CONTINUOUS
10
0.6011811023622047
20
-0.5116141732283465
11
0.6586614173228347
21
-0.5116141732283465
0
LINE
8
BLACK
6
CONTINUOUS
10
0.6586614173228347
20
-0.5116141732283465
11
0.6590380708661417
21
-0.511689094488189
0
LINE
8
BLACK
6
CONTINUOUS
10
0.6021653543307086
20
-0.5135826771653543
11
0.6021653543307086
21
-0.6281496062992126
0
LINE
8
BLACK
6
CONTINUOUS
10
0.6021653543307086
20
-0.6281496062992126
11
0.6576771653543307
21
-0.6281496062992126
0
LINE
8
BLACK
6
CONTINUOUS
10
0.6576771653543307
20
-0.6281496062992126
11
0.6576771653543307
21
-0.5135826771653543
0
LINE
8
BLACK
6
CONTINUOUS
10
0.6576771653543307
20
-0.5135826771653543
11
0.6021653543307086
21
-0.5135826771653543
0
LINE
8
BLACK
6
CONTINUOUS
10
1.3700616929133858
20
0.7792557874015748
11
1.3705943700787402
21
0.7787231102362204
0
LINE
8
BLACK
6
CONTINUOUS
10
1.3705943700787402
20
0.7787231102362204
11
1.3706692913385827
21
0.7783464566929134
0
LINE
8
BLACK
6
CONTINUOUS
10
1.3706692913385827
20
0.7783464566929134
11
1.3706692913385827
21
0.2389763779527559
0
LINE
8
BLACK
6
CONTINUOUS
10
1.3706692913385827
20
0.2389763779527559
11
1.3705943700787402
21
0.2385997244094488
0
LINE
8
BLACK
6
CONTINUOUS
10
1.3705943700787402
20
0.2385997244094488
11
1.3700616929133858
21
0.2380670472440945
0
LINE
8
BLACK
6
CONTINUOUS
10
1.3700616929133858
20
0.2380670472440945
11
1.3696850393700788
21
0.237992125984252
0
LINE
8
BLACK
6
CONTINUOUS
10
1.3696850393700788
20
0.237992125984252
11
0.8850393700787401
21
0.237992125984252
0
LINE
8
BLACK
6
CONTINUOUS
10
0.8850393700787401
20
0.237992125984252
11
0.884662716535433
21
0.2380670472440945
0
LINE
8
BLACK
6
CONTINUOUS
10
0.884662716535433
20
0.2380670472440945
11
0.8841300393700787
21
0.2385997244094488
0
LINE
8
BLACK
6
CONTINUOUS
10
0.8841300393700787
20
0.2385997244094488
11
0.8840551181102362
21
0.2389763779527559
0
LINE
8
BLACK
6
CONTINUOUS
10
0.8840551181102362
20
0.2389763779527559
11
0.8840551181102362
21
0.7783464566929134
0
LINE
8
BLACK
6
CONTINUOUS
10
0.8840551181102362
20
0.7783464566929134
11
0.8841300393700787
21
0.7787231102362204
0
LINE
8
BLACK
6
CONTINUOUS
10
0.8841300393700787
20
0.7787231102362204
11
0.884662716535433
21
0.7792557874015748
0
LINE
8
BLACK
6
CONTINUOUS
10
0.884662716535433
20
0.7792557874015748
11
0.8850393700787401
21
0.7793307086614173
0
LINE
8
BLACK
6
CONTINUOUS
10
0.8850393700787401
20
0.7793307086614173
11
1.3696850393700788
21
0.7793307086614173
0
LINE
8
BLACK
6
CONTINUOUS
10
1.3696850393700788
20
0.7793307086614173
11
1.3700616929133858
21
0.7792557874015748
0
LINE
8
BLACK
6
CONTINUOUS
10
0.8860236220472441
20
0.7773622047244094
11
0.8860236220472441
21
0.2399606299212598
0
LINE
8
BLACK
6
CONTINUOUS
10
0.8860236220472441
20
0.2399606299212598
11
1.3687007874015749
21
0.2399606299212598
0
LINE
8
BLACK
6
CONTINUOUS
10
1.3687007874015749
20
0.2399606299212598
11
1.3687007874015749
21
0.7773622047244094
0
LINE
8
BLACK
6
CONTINUOUS
10
1.3687007874015749
20
0.7773622047244094
11
0.8860236220472441
21
0.7773622047244094
0
LINE
8
BLACK
6
CONTINUOUS
10
-0.216158779527559
20
0.8072085433070866
11
-0.2156261023622047
21
0.8066758661417323
0
LINE
8
BLACK
6
CONTINUOUS
10
-0.2156261023622047
20
0.8066758661417323
11
-0.2155511811023622
21
0.8062992125984252
0
LINE
8
BLACK
6
CONTINUOUS
10
-0.2155511811023622
20
0.8062992125984252
11
-0.2155511811023622
21
0.8033464566929134
0
LINE
8
BLACK
6
CONTINUOUS
10
-0.2155511811023622
20
0.8033464566929134
11
-0.1535433070866142
21
0.8033464566929134
0
LINE
8
BLACK
6
CONTINUOUS
10
-0.1535433070866142
20
0.8033464566929134
11
-0.1531666535433071
21
0.8032715354330708
0
LINE
8
BLACK
6
CONTINUOUS
10
-0.1531666535433071
20
0.8032715354330708
11
-0.1526339763779528
21
0.8027388582677165
0
LINE
8
BLACK
6
CONTINUOUS
10
-0.1526339763779528
20
0.8027388582677165
11
-0.1525590551181102
21
0.8023622047244094
0
LINE
8
BLACK
6
CONTINUOUS
10
-0.1525590551181102
20
0.8023622047244094
11
-0.1525590551181102
21
0.7265748031496063
0
LINE
8
BLACK
6
CONTINUOUS
10
-0.1525590551181102
20
0.7265748031496063
11
-0.1102362204724409
21
0.7265748031496063
0
LINE
8
BLACK
6
CONTINUOUS
10
-0.1102362204724409
20
0.7265748031496063
11
-0.1098595669291339
21
0.7264998818897638
0
LINE
8
BLACK
6
CONTINUOUS
10
-0.1098595669291339
20
0.7264998818897638
11
-0.1093268897637795
21
0.7259672047244095
0
LINE
8
BLACK
6
CONTINUOUS
10
-0.1093268897637795
20
0.7259672047244095
11
-0.109251968503937
21
0.7255905511811024
0
LINE
8
BLACK
6
CONTINUOUS
10
-0.109251968503937
20
0.7255905511811024
11
-0.109251968503937
21
0.5145669291338583
0
LINE
8
BLACK
6
CONTINUOUS
10
-0.109251968503937
20
0.5145669291338583
11
-0.1093268897637795
21
0.5141902755905512
0
LINE
8
BLACK
6
CONTINUOUS
10
-0.1093268897637795
20
0.5141902755905512
11
-0.1098595669291339
21
0.5136575984251969
0
LINE
8
BLACK
6
CONTINUOUS
10
-0.1098595669291339
20
0.5136575984251969
11
-0.1102362204724409
21
0.5135826771653543
0
LINE
8
BLACK
6
CONTINUOUS
10
-0.1102362204724409
20
0.5135826771653543
11
-0.1525590551181102
21
0.5135826771653543
0
LINE
8
BLACK
6
CONTINUOUS
10
-0.1525590551181102
20
0.5135826771653543
11
-0.1525590551181102
21
0.4377952755905511
0
LINE
8
BLACK
6
CONTINUOUS
10
-0.1525590551181102
20
0.4377952755905511
11
-0.1526339763779528
21
0.4374186220472441
0
LINE
8
BLACK
6
CONTINUOUS
10
-0.1526339763779528
20
0.4374186220472441
11
-0.1531666535433071
21
0.4368859448818898
0
LINE
8
BLACK
6
CONTINUOUS
10
-0.1531666535433071
20
0.4368859448818898
11
-0.1535433070866142
21
0.4368110236220472
0
LINE
8
BLACK
6
CONTINUOUS
10
-0.1535433070866142
20
0.4368110236220472
11
-0.2155511811023622
21
0.4368110236220472
0
LINE
8
BLACK
6
CONTINUOUS
10
-0.2155511811023622
20
0.4368110236220472
11
-0.2155511811023622
21
0.4338582677165354
0
LINE
8
BLACK
6
CONTINUOUS
10
-0.2155511811023622
20
0.4338582677165354
11
-0.2156261023622047
21
0.4334816141732283
0
LINE
8
BLACK
6
CONTINUOUS
10
-0.2156261023622047
20
0.4334816141732283
11
-0.216158779527559
21
0.432948937007874
0
LINE
8
BLACK
6
CONTINUOUS
10
-0.216158779527559
20
0.432948937007874
11
-0.2165354330708661
21
0.4328740157480315
0
LINE
8
BLACK
6
CONTINUOUS
10
-0.2165354330708661
20
0.4328740157480315
11
-0.3622047244094488
21
0.4328740157480315
0
LINE
8
BLACK
6
CONTINUOUS
10
-0.3622047244094488
20
0.4328740157480315
11
-0.3625813779527559
21
0.432948937007874
0
LINE
8
BLACK
6
CONTINUOUS
10
-0.3625813779527559
20
0.432948937007874
11
-0.3631140551181102
21
0.4334816141732283
0
LINE
8
BLACK
6
CONTINUOUS
10
-0.3631140551181102
20
0.4334816141732283
11
-0.3631889763779527
21
0.4338582677165354
0
LINE
8
BLACK
6
CONTINUOUS
10
-0.3631889763779527
20
0.4338582677165354
11
-0.3631889763779527
21
0.5129921259842519
0
LINE
8
BLACK
6
CONTINUOUS
10
-0.3631889763779527
20
0.5129921259842519
11
-0.3631140551181102
21
0.513368779527559
0
LINE
8
BLACK
6
CONTINUOUS
10
-0.3631140551181102
20
0.513368779527559
11
-0.3625813779527559
21
0.5139014566929134
0
LINE
8
BLACK
6
CONTINUOUS
10
-0.3625813779527559
20
0.5139014566929134
11
-0.3622047244094488
21
0.5139763779527559
0
LINE
8
BLACK
6
CONTINUOUS
10
-0.3622047244094488
20
0.5139763779527559
11
-0.3533464566929134
21
0.5139763779527559
0
LINE
8
BLACK
6
CONTINUOUS
10
-0.3533464566929134
20
0.5139763779527559
11
-0.3533464566929134
21
0.7261811023622047
0
LINE
8
BLACK
6
CONTINUOUS
10
-0.3533464566929134
20
0.7261811023622047
11
-0.3622047244094488
21
0.7261811023622047
0
LINE
8
BLACK
6
CONTINUOUS
10
-0.3622047244094488
20
0.7261811023622047
11
-0.3625813779527559
21
0.7262560236220472
0
LINE
8
BLACK
6
CONTINUOUS
10
-0.3625813779527559
20
0.7262560236220472
11
-0.3631140551181102
21
0.7267887007874015
0
LINE
8
BLACK
6
CONTINUOUS
10
-0.3631140551181102
20
0.7267887007874015
11
-0.3631889763779527
21
0.7271653543307086
0
LINE
8
BLACK
6
CONTINUOUS
10
-0.3631889763779527
20
0.7271653543307086
11
-0.3631889763779527
21
0.8062992125984252
0
LINE
8
BLACK
6
CONTINUOUS
10
-0.3631889763779527
20
0.8062992125984252
11
-0.3631140551181102
21
0.8066758661417323
0
LINE
8
BLACK
6
CONTINUOUS
10
-0.3631140551181102
20
0.8066758661417323
11
-0.3625813779527559
21
0.8072085433070866
0
LINE
8
BLACK
6
CONTINUOUS
10
-0.3625813779527559
20
0.8072085433070866
11
-0.3622047244094488
21
0.8072834645669291
0
LINE
8
BLACK
6
CONTINUOUS
10
-0.3622047244094488
20
0.8072834645669291
11
-0.2165354330708661
21
0.8072834645669291
0
LINE
8
BLACK
6
CONTINUOUS
10
-0.2165354330708661
20
0.8072834645669291
11
-0.216158779527559
21
0.8072085433070866
0
LINE
8
BLACK
6
CONTINUOUS
10
-0.3612204724409449
20
0.8053149606299213
11
-0.3612204724409449
21
0.7281496062992125
0
LINE
8
BLACK
6
CONTINUOUS
10
-0.3612204724409449
20
0.7281496062992125
11
-0.3523622047244094
21
0.7281496062992125
0
LINE
8
BLACK
6
CONTINUOUS
10
-0.3523622047244094
20
0.7281496062992125
11
-0.3519855511811024
21
0.7280746850393701
0
LINE
8
BLACK
6
CONTINUOUS
10
-0.3519855511811024
20
0.7280746850393701
11
-0.351452874015748
21
0.7275420078740157
0
LINE
8
BLACK
6
CONTINUOUS
10
-0.351452874015748
20
0.7275420078740157
11
-0.3513779527559055
21
0.7271653543307086
0
LINE
8
BLACK
6
CONTINUOUS
10
-0.3513779527559055
20
0.7271653543307086
11
-0.3513779527559055
21
0.5129921259842519
0
LINE
8
BLACK
6
CONTINUOUS
10
-0.3513779527559055
20
0.5129921259842519
11
-0.351452874015748
21
0.5126154724409449
0
LINE
8
BLACK
6
CONTINUOUS
10
-0.351452874015748
20
0.5126154724409449
11
-0.3519855511811024
21
0.5120827952755905
0
LINE
8
BLACK
6
CONTINUOUS
10
-0.3519855511811024
20
0.5120827952755905
11
-0.3523622047244094
21
0.512007874015748
0
LINE
8
BLACK
6
CONTINUOUS
10
-0.3523622047244094
20
0.512007874015748
11
-0.3612204724409449
21
0.512007874015748
0
LINE
8
BLACK
6
CONTINUOUS
10
-0.3612204724409449
20
0.512007874015748
11
-0.3612204724409449
21
0.4348425196850393
0
LINE
8
BLACK
6
CONTINUOUS
10
-0.3612204724409449
20
0.4348425196850393
11
-0.2175196850393701
21
0.4348425196850393
0
LINE
8
BLACK
6
CONTINUOUS
10
-0.2175196850393701
20
0.4348425196850393
11
-0.2175196850393701
21
0.4377952755905511
0
LINE
8
BLACK
6
CONTINUOUS
10
-0.2175196850393701
20
0.4377952755905511
11
-0.2174447637795276
21
0.4381719291338583
0
LINE
8
BLACK
6
CONTINUOUS
10
-0.2174447637795276
20
0.4381719291338583
11
-0.2169120866141732
21
0.4387046062992126
0
LINE
8
BLACK
6
CONTINUOUS
10
-0.2169120866141732
20
0.4387046062992126
11
-0.2165354330708661
21
0.4387795275590551
0
LINE
8
BLACK
6
CONTINUOUS
10
-0.2165354330708661
20
0.4387795275590551
11
-0.1545275590551181
21
0.4387795275590551
0
LINE
8
BLACK
6
CONTINUOUS
10
-0.1545275590551181
20
0.4387795275590551
11
-0.1545275590551181
21
0.5145669291338583
0
LINE
8
BLACK
6
CONTINUOUS
10
-0.1545275590551181
20
0.5145669291338583
11
-0.1544526377952756
21
0.5149435826771653
0
LINE
8
BLACK
6
CONTINUOUS
10
-0.1544526377952756
20
0.5149435826771653
11
-0.1539199606299212
21
0.5154762598425197
0
LINE
8
BLACK
6
CONTINUOUS
10
-0.1539199606299212
20
0.5154762598425197
11
-0.1535433070866142
21
0.5155511811023622
0
LINE
8
BLACK
6
CONTINUOUS
10
-0.1535433070866142
20
0.5155511811023622
11
-0.1112204724409449
21
0.5155511811023622
0
LINE
8
BLACK
6
CONTINUOUS
10
-0.1112204724409449
20
0.5155511811023622
11
-0.1112204724409449
21
0.7246062992125984
0
LINE
8
BLACK
6
CONTINUOUS
10
-0.1112204724409449
20
0.7246062992125984
11
-0.1535433070866142
21
0.7246062992125984
0
LINE
8
BLACK
6
CONTINUOUS
10
-0.1535433070866142
20
0.7246062992125984
11
-0.1539199606299212
21
0.7246812204724409
0
LINE
8
BLACK
6
CONTINUOUS
10
-0.1539199606299212
20
0.7246812204724409
11
-0.1544526377952756
21
0.7252138976377953
0
LINE
8
BLACK
6
CONTINUOUS
10
-0.1544526377952756
20
0.7252138976377953
11
-0.1545275590551181
21
0.7255905511811024
0
LINE
8
BLACK
6
CONTINUOUS
10
-0.1545275590551181
20
0.7255905511811024
11
-0.1545275590551181
21
0.8013779527559055
0
LINE
8
BLACK
6
CONTINUOUS
10
-0.1545275590551181
20
0.8013779527559055
11
-0.2165354330708661
21
0.8013779527559055
0
LINE
8
BLACK
6
CONTINUOUS
10
-0.2165354330708661
20
0.8013779527559055
11
-0.2169120866141732
21
0.8014528740157481
0
LINE
8
BLACK
6
CONTINUOUS
10
-0.2169120866141732
20
0.8014528740157481
11
-0.2174447637795276
21
0.8019855511811024
0
LINE
8
BLACK
6
CONTINUOUS
10
-0.2174447637795276
20
0.8019855511811024
11
-0.2175196850393701
21
0.8023622047244094
0
LINE
8
BLACK
6
CONTINUOUS
10
-0.2175196850393701
20
0.8023622047244094
11
-0.2175196850393701
21
0.8053149606299213
0
LINE
8
BLACK
6
CONTINUOUS
10
-0.2175196850393701
20
0.8053149606299213
11
-0.3612204724409449
21
0.8053149606299213
0
LINE
8
BLACK
6
CONTINUOUS
10
-0.4760012992125984
20
0.6741376771653543
11
-0.4754686220472441
21
0.673605
0
LINE
8
BLACK
6
CONTINUOUS
10
-0.4754686220472441
20
0.673605
11
-0.4753937007874016
21
0.6732283464566929
0
LINE
8
BLACK
6
CONTINUOUS
10
-0.4753937007874016
20
0.6732283464566929
11
-0.4753937007874016
21
0.5669291338582677
0
LINE
8
BLACK
6
CONTINUOUS
10
-0.4753937007874016
20
0.5669291338582677
11
-0.4754686220472441
21
0.5665524803149606
0
LINE
8
BLACK
6
CONTINUOUS
10
-0.4754686220472441
20
0.5665524803149606
11
-0.4760012992125984
21
0.5660198031496063
0
LINE
8
BLACK
6
CONTINUOUS
10
-0.4760012992125984
20
0.5660198031496063
11
-0.4763779527559055
21
0.5659448818897638
0
LINE
8
BLACK
6
CONTINUOUS
10
-0.4763779527559055
20
0.5659448818897638
11
-0.6456692913385826
21
0.5659448818897638
0
LINE
8
BLACK
6
CONTINUOUS
10
-0.6456692913385826
20
0.5659448818897638
11
-0.6460459448818897
21
0.5660198031496063
0
LINE
8
BLACK
6
CONTINUOUS
10
-0.6460459448818897
20
0.5660198031496063
11
-0.646578622047244
21
0.5665524803149606
0
LINE
8
BLACK
6
CONTINUOUS
10
-0.646578622047244
20
0.5665524803149606
11
-0.6466535433070866
21
0.5669291338582677
0
LINE
8
BLACK
6
CONTINUOUS
10
-0.6466535433070866
20
0.5669291338582677
11
-0.6466535433070866
21
0.6732283464566929
0
LINE
8
BLACK
6
CONTINUOUS
10
-0.6466535433070866
20
0.6732283464566929
11
-0.646578622047244
21
0.673605
0
LINE
8
BLACK
6
CONTINUOUS
10
-0.646578622047244
20
0.673605
11
-0.6460459448818897
21
0.6741376771653543
0
LINE
8
BLACK
6
CONTINUOUS
10
-0.6460459448818897
20
0.6741376771653543
11
-0.6456692913385826
21
0.6742125984251969
0
LINE
8
BLACK
6
CONTINUOUS
10
-0.6456692913385826
20
0.6742125984251969
11
-0.4763779527559055
21
0.6742125984251969
0
LINE
8
BLACK
6
CONTINUOUS
10
-0.4763779527559055
20
0.6742125984251969
11
-0.4760012992125984
21
0.6741376771653543
0
LINE
8
BLACK
6
CONTINUOUS
10
-0.6446850393700787
20
0.672244094488189
11
-0.6446850393700787
21
0.5679133858267716
0
LINE
8
BLACK
6
CONTINUOUS
10
-0.6446850393700787
20
0.5679133858267716
11
-0.4773622047244094
21
0.5679133858267716
0
LINE
8
BLACK
6
CONTINUOUS
10
-0.4773622047244094
20
0.5679133858267716
11
-0.4773622047244094
21
0.672244094488189
0
LINE
8
BLACK
6
CONTINUOUS
10
-0.4773622047244094
20
0.672244094488189
11
-0.6446850393700787
21
0.672244094488189
0
LINE
8
BLACK
6
CONTINUOUS
10
-0.2358438188976378
20
1.2402794094488188
11
-0.2353111417322835
21
1.2397467322834645
0
LINE
8
BLACK
6
CONTINUOUS
10
-0.2353111417322835
20
1.2397467322834645
11
-0.2352362204724409
21
1.2393700787401574
0
LINE
8
BLACK
6
CONTINUOUS
10
-0.2352362204724409
20
1.2393700787401574
11
-0.2352362204724409
21
1.2364173228346456
0
LINE
8
BLACK
6
CONTINUOUS
10
-0.2352362204724409
20
1.2364173228346456
11
-0.1732283464566929
21
1.2364173228346456
0
LINE
8
BLACK
6
CONTINUOUS
10
-0.1732283464566929
20
1.2364173228346456
11
-0.1728516929133858
21
1.236342401574803
0
LINE
8
BLACK
6
CONTINUOUS
10
-0.1728516929133858
20
1.236342401574803
11
-0.1723190157480315
21
1.2358097244094488
0
LINE
8
BLACK
6
CONTINUOUS
10
-0.1723190157480315
20
1.2358097244094488
11
-0.172244094488189
21
1.2354330708661416
0
LINE
8
BLACK
6
CONTINUOUS
10
-0.172244094488189
20
1.2354330708661416
11
-0.172244094488189
21
1.1596456692913386
0
LINE
8
BLACK
6
CONTINUOUS
10
-0.172244094488189
20
1.1596456692913386
11
-0.1299212598425197
21
1.1596456692913386
0
LINE
8
BLACK
6
CONTINUOUS
10
-0.1299212598425197
20
1.1596456692913386
11
-0.1295446062992126
21
1.1595707480314961
0
LINE
8
BLACK
6
CONTINUOUS
10
-0.1295446062992126
20
1.1595707480314961
11
-0.1290119291338583
21
1.1590380708661416
0
LINE
8
BLACK
6
CONTINUOUS
10
-0.1290119291338583
20
1.1590380708661416
11
-0.1289370078740157
21
1.1586614173228347
0
LINE
8
BLACK
6
CONTINUOUS
10
-0.1289370078740157
20
1.1586614173228347
11
-0.1289370078740157
21
0.9476377952755906
0
LINE
8
BLACK
6
CONTINUOUS
10
-0.1289370078740157
20
0.9476377952755906
11
-0.1290119291338583
21
0.9472611417322835
0
LINE
8
BLACK
6
CONTINUOUS
10
-0.1290119291338583
20
0.9472611417322835
11
-0.1295446062992126
21
0.9467284645669292
0
LINE
8
BLACK
6
CONTINUOUS
10
-0.1295446062992126
20
0.9467284645669292
11
-0.1299212598425197
21
0.9466535433070866
0
LINE
8
BLACK
6
CONTINUOUS
10
-0.1299212598425197
20
0.9466535433070866
11
-0.172244094488189
21
0.9466535433070866
0
LINE
8
BLACK
6
CONTINUOUS
10
-0.172244094488189
20
0.9466535433070866
11
-0.172244094488189
21
0.8708661417322835
0
LINE
8
BLACK
6
CONTINUOUS
10
-0.172244094488189
20
0.8708661417322835
11
-0.1723190157480315
21
0.8704894881889763
0
LINE
8
BLACK
6
CONTINUOUS
10
-0.1723190157480315
20
0.8704894881889763
11
-0.1728516929133858
21
0.869956811023622
0
LINE
8
BLACK
6
CONTINUOUS
10
-0.1728516929133858
20
0.869956811023622
11
-0.1732283464566929
21
0.8698818897637796
0
LINE
8
BLACK
6
CONTINUOUS
10
-0.1732283464566929
20
0.8698818897637796
11
-0.2352362204724409
21
0.8698818897637796
0
LINE
8
BLACK
6
CONTINUOUS
10
-0.2352362204724409
20
0.8698818897637796
11
-0.2352362204724409
21
0.8669291338582676
0
LINE
8
BLACK
6
CONTINUOUS
10
-0.2352362204724409
20
0.8669291338582676
11
-0.2353111417322835
21
0.8665524803149606
0
LINE
8
BLACK
6
CONTINUOUS
10
-0.2353111417322835
20
0.8665524803149606
11
-0.2358438188976378
21
0.8660198031496062
0
LINE
8
BLACK
6
CONTINUOUS
10
-0.2358438188976378
20
0.8660198031496062
11
-0.2362204724409449
21
0.8659448818897637
0
LINE
8
BLACK
6
CONTINUOUS
10
-0.2362204724409449
20
0.8659448818897637
11
-0.3818897637795275
21
0.8659448818897637
0
LINE
8
BLACK
6
CONTINUOUS
10
-0.3818897637795275
20
0.8659448818897637
11
-0.3822664173228346
21
0.8660198031496062
0
LINE
8
BLACK
6
CONTINUOUS
10
-0.3822664173228346
20
0.8660198031496062
11
-0.3827990944881889
21
0.8665524803149606
0
LINE
8
BLACK
6
CONTINUOUS
10
-0.3827990944881889
20
0.8665524803149606
11
-0.3828740157480315
21
0.8669291338582676
0
LINE
8
BLACK
6
CONTINUOUS
10
-0.3828740157480315
20
0.8669291338582676
11
-0.3828740157480315
21
0.9460629921259842
0
LINE
8
BLACK
6
CONTINUOUS
10
-0.3828740157480315
20
0.9460629921259842
11
-0.3827990944881889
21
0.9464396456692913
0
LINE
8
BLACK
6
CONTINUOUS
10
-0.3827990944881889
20
0.9464396456692913
11
-0.3822664173228346
21
0.9469723228346456
0
LINE
8
BLACK
6
CONTINUOUS
10
-0.3822664173228346
20
0.9469723228346456
11
-0.3818897637795275
21
0.9470472440944881
0
LINE
8
BLACK
6
CONTINUOUS
10
-0.3818897637795275
20
0.9470472440944881
11
-0.3730314960629921
21
0.9470472440944881
0
LINE
8
BLACK
6
CONTINUOUS
10
-0.3730314960629921
20
0.9470472440944881
11
-0.3730314960629921
21
1.1592519685039371
0
LINE
8
BLACK
6
CONTINUOUS
10
-0.3730314960629921
20
1.1592519685039371
11
-0.3818897637795275
21
1.1592519685039371
0
LINE
8
BLACK
6
CONTINUOUS
10
-0.3818897637795275
20
1.1592519685039371
11
-0.3822664173228346
21
1.1593268897637794
0
LINE
8
BLACK
6
CONTINUOUS
10
-0.3822664173228346
20
1.1593268897637794
11
-0.3827990944881889
21
1.1598595669291338
0
LINE
8
BLACK
6
CONTINUOUS
10
-0.3827990944881889
20
1.1598595669291338
11
-0.3828740157480315
21
1.160236220472441
0
LINE
8
BLACK
6
CONTINUOUS
10
-0.3828740157480315
20
1.160236220472441
11
-0.3828740157480315
21
1.2393700787401574
0
LINE
8
BLACK
6
CONTINUOUS
10
-0.3828740157480315
20
1.2393700787401574
11
-0.3827990944881889
21
1.2397467322834645
0
LINE
8
BLACK
6
CONTINUOUS
10
-0.3827990944881889
20
1.2397467322834645
11
-0.3822664173228346
21
1.2402794094488188
0
LINE
8
BLACK
6
CONTINUOUS
10
-0.3822664173228346
20
1.2402794094488188
11
-0.3818897637795275
21
1.2403543307086613
0
LINE
8
BLACK
6
CONTINUOUS
10
-0.3818897637795275
20
1.2403543307086613
11
-0.2362204724409449
21
1.2403543307086613
0
LINE
8
BLACK
6
CONTINUOUS
10
-0.2362204724409449
20
1.2403543307086613
11
-0.2358438188976378
21
1.2402794094488188
0
LINE
8
BLACK
6
CONTINUOUS
10
-0.3809055118110236
20
1.2383858267716534
11
-0.3809055118110236
21
1.161220472440945
0
LINE
8
BLACK
6
CONTINUOUS
10
-0.3809055118110236
20
1.161220472440945
11
-0.3720472440944882
21
1.161220472440945
0
LINE
8
BLACK
6
CONTINUOUS
10
-0.3720472440944882
20
1.161220472440945
11
-0.3716705905511811
21
1.1611455511811024
0
LINE
8
BLACK
6
CONTINUOUS
10
-0.3716705905511811
20
1.1611455511811024
11
-0.3711379133858267
21
1.160612874015748
0
LINE
8
BLACK
6
CONTINUOUS
10
-0.3711379133858267
20
1.160612874015748
11
-0.3710629921259843
21
1.160236220472441
0
LINE
8
BLACK
6
CONTINUOUS
10
-0.3710629921259843
20
1.160236220472441
11
-0.3710629921259843
21
0.9460629921259842
0
LINE
8
BLACK
6
CONTINUOUS
10
-0.3710629921259843
20
0.9460629921259842
11
-0.3711379133858267
21
0.9456863385826771
0
LINE
8
BLACK
6
CONTINUOUS
10
-0.3711379133858267
20
0.9456863385826771
11
-0.3716705905511811
21
0.9451536614173228
0
LINE
8
BLACK
6
CONTINUOUS
10
-0.3716705905511811
20
0.9451536614173228
11
-0.3720472440944882
21
0.9450787401574803
0
LINE
8
BLACK
6
CONTINUOUS
10
-0.3720472440944882
20
0.9450787401574803
11
-0.3809055118110236
21
0.9450787401574803
0
LINE
8
BLACK
6
CONTINUOUS
10
-0.3809055118110236
20
0.9450787401574803
11
-0.3809055118110236
21
0.8679133858267717
0
LINE
8
BLACK
6
CONTINUOUS
10
-0.3809055118110236
20
0.8679133858267717
11
-0.2372047244094488
21
0.8679133858267717
0
LINE
8
BLACK
6
CONTINUOUS
10
-0.2372047244094488
20
0.8679133858267717
11
-0.2372047244094488
21
0.8708661417322835
0
LINE
8
BLACK
6
CONTINUOUS
10
-0.2372047244094488
20
0.8708661417322835
11
-0.2371298031496063
21
0.8712427952755906
0
LINE
8
BLACK
6
CONTINUOUS
10
-0.2371298031496063
20
0.8712427952755906
11
-0.236597125984252
21
0.8717754724409449
0
LINE
8
BLACK
6
CONTINUOUS
10
-0.236597125984252
20
0.8717754724409449
11
-0.2362204724409449
21
0.8718503937007874
0
LINE
8
BLACK
6
CONTINUOUS
10
-0.2362204724409449
20
0.8718503937007874
11
-0.1742125984251968
21
0.8718503937007874
0
LINE
8
BLACK
6
CONTINUOUS
10
-0.1742125984251968
20
0.8718503937007874
11
-0.1742125984251968
21
0.9476377952755906
0
LINE
8
BLACK
6
CONTINUOUS
10
-0.1742125984251968
20
0.9476377952755906
11
-0.1741376771653543
21
0.9480144488188976
0
LINE
8
BLACK
6
CONTINUOUS
10
-0.1741376771653543
20
0.9480144488188976
11
-0.173605
21
0.9485471259842519
0
LINE
8
BLACK
6
CONTINUOUS
10
-0.173605
20
0.9485471259842519
11
-0.1732283464566929
21
0.9486220472440945
0
LINE
8
BLACK
6
CONTINUOUS
10
-0.1732283464566929
20
0.9486220472440945
11
-0.1309055118110236
21
0.9486220472440945
0
LINE
8
BLACK
6
CONTINUOUS
10
-0.1309055118110236
20
0.9486220472440945
11
-0.1309055118110236
21
1.1576771653543307
0
LINE
8
BLACK
6
CONTINUOUS
10
-0.1309055118110236
20
1.1576771653543307
11
-0.1732283464566929
21
1.1576771653543307
0
LINE
8
BLACK
6
CONTINUOUS
10
-0.1732283464566929
20
1.1576771653543307
11
-0.173605
21
1.1577520866141733
0
LINE
8
BLACK
6
CONTINUOUS
10
-0.173605
20
1.1577520866141733
11
-0.1741376771653543
21
1.1582847637795275
0
LINE
8
BLACK
6
CONTINUOUS
10
-0.1741376771653543
20
1.1582847637795275
11
-0.1742125984251968
21
1.1586614173228347
0
LINE
8
BLACK
6
CONTINUOUS
10
-0.1742125984251968
20
1.1586614173228347
11
-0.1742125984251968
21
1.2344488188976377
0
LINE
8
BLACK
6
CONTINUOUS
10
-0.1742125984251968
20
1.2344488188976377
11
-0.2362204724409449
21
1.2344488188976377
0
LINE
8
BLACK
6
CONTINUOUS
10
-0.2362204724409449
20
1.2344488188976377
11
-0.236597125984252
21
1.2345237401574802
0
LINE
8
BLACK
6
CONTINUOUS
10
-0.236597125984252
20
1.2345237401574802
11
-0.2371298031496063
21
1.2350564173228347
0
LINE
8
BLACK
6
CONTINUOUS
10
-0.2371298031496063
20
1.2350564173228347
11
-0.2372047244094488
21
1.2354330708661416
0
LINE
8
BLACK
6
CONTINUOUS
10
-0.2372047244094488
20
1.2354330708661416
11
-0.2372047244094488
21
1.2383858267716534
0
LINE
8
BLACK
6
CONTINUOUS
10
-0.2372047244094488
20
1.2383858267716534
11
-0.3809055118110236
21
1.2383858267716534
0
LINE
8
BLACK
6
CONTINUOUS
10
-0.1608438188976378
20
1.3977597244094488
11
-0.1603111417322835
21
1.3972270472440944
0
LINE
8
BLACK
6
CONTINUOUS
10
-0.1603111417322835
20
1.3972270472440944
11
-0.1602362204724409
21
1.3968503937007875
0
LINE
8
BLACK
6
CONTINUOUS
10
-0.1602362204724409
20
1.3968503937007875
11
-0.1602362204724409
21
1.3393700787401575
0
LINE
8
BLACK
6
CONTINUOUS
10
-0.1602362204724409
20
1.3393700787401575
11
-0.1603111417322835
21
1.3389934251968503
0
LINE
8
BLACK
6
CONTINUOUS
10
-0.1603111417322835
20
1.3389934251968503
11
-0.1608438188976378
21
1.3384607480314961
0
LINE
8
BLACK
6
CONTINUOUS
10
-0.1608438188976378
20
1.3384607480314961
11
-0.1612204724409449
21
1.3383858267716535
0
LINE
8
BLACK
6
CONTINUOUS
10
-0.1612204724409449
20
1.3383858267716535
11
-0.277755905511811
21
1.3383858267716535
0
LINE
8
BLACK
6
CONTINUOUS
10
-0.277755905511811
20
1.3383858267716535
11
-0.2781325590551181
21
1.3384607480314961
0
LINE
8
BLACK
6
CONTINUOUS
10
-0.2781325590551181
20
1.3384607480314961
11
-0.2786652362204725
21
1.3389934251968503
0
LINE
8
BLACK
6
CONTINUOUS
10
-0.2786652362204725
20
1.3389934251968503
11
-0.2787401574803149
21
1.3393700787401575
0
LINE
8
BLACK
6
CONTINUOUS
10
-0.2787401574803149
20
1.3393700787401575
11
-0.2787401574803149
21
1.3968503937007875
0
LINE
8
BLACK
6
CONTINUOUS
10
-0.2787401574803149
20
1.3968503937007875
11
-0.2786652362204725
21
1.3972270472440944
0
LINE
8
BLACK
6
CONTINUOUS
10
-0.2786652362204725
20
1.3972270472440944
11
-0.2781325590551181
21
1.3977597244094488
0
LINE
8
BLACK
6
CONTINUOUS
10
-0.2781325590551181
20
1.3977597244094488
11
-0.277755905511811
21
1.3978346456692914
0
LINE
8
BLACK
6
CONTINUOUS
10
-0.277755905511811
20
1.3978346456692914
11
-0.1612204724409449
21
1.3978346456692914
0
LINE
8
BLACK
6
CONTINUOUS
10
-0.1612204724409449
20
1.3978346456692914
11
-0.1608438188976378
21
1.3977597244094488
0
LINE
8
BLACK
6
CONTINUOUS
10
-0.2767716535433071
20
1.3958661417322835
11
-0.2767716535433071
21
1.3403543307086614
0
LINE
8
BLACK
6
CONTINUOUS
10
-0.2767716535433071
20
1.3403543307086614
11
-0.1622047244094488
21
1.3403543307086614
0
LINE
8
BLACK
6
CONTINUOUS
10
-0.1622047244094488
20
1.3403543307086614
11
-0.1622047244094488
21
1.3958661417322835
0
LINE
8
BLACK
6
CONTINUOUS
10
-0.1622047244094488
20
1.3958661417322835
11
-0.2767716535433071
21
1.3958661417322835
0
LINE
8
BLACK
6
CONTINUOUS
10
-0.1608438188976378
20
1.4965786220472441
11
-0.1603111417322835
21
1.4960459448818897
0
LINE
8
BLACK
6
CONTINUOUS
10
-0.1603111417322835
20
1.4960459448818897
11
-0.1602362204724409
21
1.4956692913385827
0
LINE
8
BLACK
6
CONTINUOUS
10
-0.1602362204724409
20
1.4956692913385827
11
-0.1602362204724409
21
1.4381889763779527
0
LINE
8
BLACK
6
CONTINUOUS
10
-0.1602362204724409
20
1.4381889763779527
11
-0.1603111417322835
21
1.4378123228346456
0
LINE
8
BLACK
6
CONTINUOUS
10
-0.1603111417322835
20
1.4378123228346456
11
-0.1608438188976378
21
1.4372796456692913
0
LINE
8
BLACK
6
CONTINUOUS
10
-0.1608438188976378
20
1.4372796456692913
11
-0.1612204724409449
21
1.4372047244094488
0
LINE
8
BLACK
6
CONTINUOUS
10
-0.1612204724409449
20
1.4372047244094488
11
-0.277755905511811
21
1.4372047244094488
0
LINE
8
BLACK
6
CONTINUOUS
10
-0.277755905511811
20
1.4372047244094488
11
-0.2781325590551181
21
1.4372796456692913
0
LINE
8
BLACK
6
CONTINUOUS
10
-0.2781325590551181
20
1.4372796456692913
11
-0.2786652362204725
21
1.4378123228346456
0
LINE
8
BLACK
6
CONTINUOUS
10
-0.2786652362204725
20
1.4378123228346456
11
-0.2787401574803149
21
1.4381889763779527
0
LINE
8
BLACK
6
CONTINUOUS
10
-0.2787401574803149
20
1.4381889763779527
11
-0.2787401574803149
21
1.4956692913385827
0
LINE
8
BLACK
6
CONTINUOUS
10
-0.2787401574803149
20
1.4956692913385827
11
-0.2786652362204725
21
1.4960459448818897
0
LINE
8
BLACK
6
CONTINUOUS
10
-0.2786652362204725
20
1.4960459448818897
11
-0.2781325590551181
21
1.4965786220472441
0
LINE
8
BLACK
6
CONTINUOUS
10
-0.2781325590551181
20
1.4965786220472441
11
-0.277755905511811
21
1.4966535433070867
0
LINE
8
BLACK
6
CONTINUOUS
10
-0.277755905511811
20
1.4966535433070867
11
-0.1612204724409449
21
1.4966535433070867
0
LINE
8
BLACK
6
CONTINUOUS
10
-0.1612204724409449
20
1.4966535433070867
11
-0.1608438188976378
21
1.4965786220472441
0
LINE
8
BLACK
6
CONTINUOUS
10
-0.2767716535433071
20
1.4946850393700788
11
-0.2767716535433071
21
1.4391732283464567
0
LINE
8
BLACK
6
CONTINUOUS
10
-0.2767716535433071
20
1.4391732283464567
11
-0.1622047244094488
21
1.4391732283464567
0
LINE
8
BLACK
6
CONTINUOUS
10
-0.1622047244094488
20
1.4391732283464567
11
-0.1622047244094488
21
1.4946850393700788
0
LINE
8
BLACK
6
CONTINUOUS
10
-0.1622047244094488
20
1.4946850393700788
11
-0.2767716535433071
21
1.4946850393700788
0
CIRCLE
8
BLACK
10
0.9547244094488189
20
0.7086614173228346
40
0.0068897637795276
0
CIRCLE
8
BLACK
10
0.9547244094488189
20
0.6086614173228346
40
0.0068897637795276
0
CIRCLE
8
BLACK
10
0.9547244094488189
20
0.5086614173228347
40
0.0068897637795276
0
CIRCLE
8
BLACK
10
0.9547244094488189
20
0.4086614173228346
40
0.0068897637795276
0
CIRCLE
8
BLACK
10
0.9547244094488189
20
0.3086614173228346
40
0.0068897637795276
  0
ENDSEC
  0
EOF
