  0
SECTION
  2
HEADER
  9
$ANGBASE
  50
0.0
  9
$ANGDIR
  70
1
  9
$MEASUREMENT
  70
0
  0
ENDSEC
  0
SECTION
  2
TABLES
  0
TABLE
  2
LTYPE
  70
4
  0
LTYPE
  5
40F
  2
CONTINUOUS
  70
0
  3
Solid line
  72
65
  73
0
  40
0.0
  0
LTYPE
  5
410
  2
DASHDOT
 70
0
  3
Dash Dot ____ _ ____ _
 72
65
 73
4
 40
2.0
 49
1.25
 49
-0.25
 49
0.25
 49
-0.25
  0
LTYPE
  5
411
  2
DASHED
 70
0
  3
Dashed __ __ __ __ __
 72
65
 73
2
 40
0.75
 49
0.5
 49
-0.25
  0
LTYPE
  5
43B
  2
DOTTED
 70
0
  3
Dotted .  .  .  .
 72
65
 73
2
 40
0.2
 49
0.0
 49
-0.2
  0
ENDTAB
  0
TABLE
  2
STYLE
  70
4
  0
STYLE
  2
KICAD
  70
0
  40
0
  41
1
  42
1
  50
0
  71
0
  3
isocp.shx
  0
STYLE
  2
KICADB
  70
0
  40
0
  41
1
  42
1
  50
0
  71
0
  3
isocp.shx
  0
STYLE
  2
KICADI
  70
0
  40
0
  41
1
  42
1
  50
15
  71
0
  3
isocp.shx
  0
STYLE
  2
KICADBI
  70
0
  40
0
  41
1
  42
1
  50
15
  71
0
  3
isocp.shx
  0
ENDTAB
  0
TABLE
  2
LAYER
  70
1
  0
LAYER
  2
BLACK
  70
0
  62
7
  6
CONTINUOUS
  0
ENDTAB
  0
ENDSEC
  0
SECTION
  2
ENTITIES
0
LINE
8
BLACK
6
CONTINUOUS
10
0.8386992519685039
20
0.1758044488188976
11
0.8399776771653543
21
0.1745260236220472
0
LINE
8
BLACK
6
CONTINUOUS
10
0.8399776771653543
20
0.1745260236220472
11
0.8401574803149606
21
0.1736220472440945
0
LINE
8
BLACK
6
CONTINUOUS
10
0.8401574803149606
20
0.1736220472440945
11
0.8401574803149606
21
0.087007874015748
0
LINE
8
BLACK
6
CONTINUOUS
10
0.8401574803149606
20
0.087007874015748
11
0.8399776771653543
21
0.0861038976377953
0
LINE
8
BLACK
6
CONTINUOUS
10
0.8399776771653543
20
0.0861038976377953
11
0.8386992519685039
21
0.0848254724409449
0
LINE
8
BLACK
6
CONTINUOUS
10
0.8386992519685039
20
0.0848254724409449
11
0.8377952755905511
21
0.0846456692913386
0
LINE
8
BLACK
6
CONTINUOUS
10
0.8377952755905511
20
0.0846456692913386
11
0.6881889763779527
21
0.0846456692913386
0
LINE
8
BLACK
6
CONTINUOUS
10
0.6881889763779527
20
0.0846456692913386
11
0.687285
21
0.0848254724409449
0
LINE
8
BLACK
6
CONTINUOUS
10
0.687285
20
0.0848254724409449
11
0.6860065748031496
21
0.0861038976377953
0
LINE
8
BLACK
6
CONTINUOUS
10
0.6860065748031496
20
0.0861038976377953
11
0.6858267716535433
21
0.087007874015748
0
LINE
8
BLACK
6
CONTINUOUS
10
0.6858267716535433
20
0.087007874015748
11
0.6858267716535433
21
0.1736220472440945
0
LINE
8
BLACK
6
CONTINUOUS
10
0.6858267716535433
20
0.1736220472440945
11
0.6860065748031496
21
0.1745260236220472
0
LINE
8
BLACK
6
CONTINUOUS
10
0.6860065748031496
20
0.1745260236220472
11
0.687285
21
0.1758044488188976
0
LINE
8
BLACK
6
CONTINUOUS
10
0.687285
20
0.1758044488188976
11
0.6881889763779527
21
0.1759842519685039
0
LINE
8
BLACK
6
CONTINUOUS
10
0.6881889763779527
20
0.1759842519685039
11
0.8377952755905511
21
0.1759842519685039
0
LINE
8
BLACK
6
CONTINUOUS
10
0.8377952755905511
20
0.1759842519685039
11
0.8386992519685039
21
0.1758044488188976
0
LINE
8
BLACK
6
CONTINUOUS
10
0.6905511811023622
20
0.171259842519685
11
0.6905511811023622
21
0.0893700787401575
0
LINE
8
BLACK
6
CONTINUOUS
10
0.6905511811023622
20
0.0893700787401575
11
0.8354330708661417
21
0.0893700787401575
0
LINE
8
BLACK
6
CONTINUOUS
10
0.8354330708661417
20
0.0893700787401575
11
0.8354330708661417
21
0.171259842519685
0
LINE
8
BLACK
6
CONTINUOUS
10
0.8354330708661417
20
0.171259842519685
11
0.6905511811023622
21
0.171259842519685
0
LINE
8
BLACK
6
CONTINUOUS
10
0.3729181496062992
20
0.1952279527559055
11
0.375046968503937
21
0.1943461417322835
0
LINE
8
BLACK
6
CONTINUOUS
10
0.375046968503937
20
0.1943461417322835
11
0.3766762598425197
21
0.1927168503937008
0
LINE
8
BLACK
6
CONTINUOUS
10
0.3766762598425197
20
0.1927168503937008
11
0.3775580708661417
21
0.190588031496063
0
LINE
8
BLACK
6
CONTINUOUS
10
0.3775580708661417
20
0.190588031496063
11
0.3776715354330709
21
0.189435905511811
0
LINE
8
BLACK
6
CONTINUOUS
10
0.3776715354330709
20
0.189435905511811
11
0.3776715354330709
21
0.1303807874015748
0
LINE
8
BLACK
6
CONTINUOUS
10
0.3776715354330709
20
0.1303807874015748
11
0.3775580708661417
21
0.1292286614173228
0
LINE
8
BLACK
6
CONTINUOUS
10
0.3775580708661417
20
0.1292286614173228
11
0.3766762598425197
21
0.127099842519685
0
LINE
8
BLACK
6
CONTINUOUS
10
0.3766762598425197
20
0.127099842519685
11
0.375046968503937
21
0.1254705511811024
0
LINE
8
BLACK
6
CONTINUOUS
10
0.375046968503937
20
0.1254705511811024
11
0.3729181496062992
21
0.1245887401574803
0
LINE
8
BLACK
6
CONTINUOUS
10
0.3729181496062992
20
0.1245887401574803
11
0.3717660236220472
21
0.1244752755905512
0
LINE
8
BLACK
6
CONTINUOUS
10
0.3717660236220472
20
0.1244752755905512
11
0.3436445275590551
21
0.1244752755905512
0
LINE
8
BLACK
6
CONTINUOUS
10
0.3436445275590551
20
0.1244752755905512
11
0.3424924015748032
21
0.1245887401574803
0
LINE
8
BLACK
6
CONTINUOUS
10
0.3424924015748032
20
0.1245887401574803
11
0.3403635826771653
21
0.1254705511811024
0
LINE
8
BLACK
6
CONTINUOUS
10
0.3403635826771653
20
0.1254705511811024
11
0.3387342913385827
21
0.127099842519685
0
LINE
8
BLACK
6
CONTINUOUS
10
0.3387342913385827
20
0.127099842519685
11
0.3378524803149606
21
0.1292286614173228
0
LINE
8
BLACK
6
CONTINUOUS
10
0.3378524803149606
20
0.1292286614173228
11
0.3378524803149606
21
0.1315329133858268
0
LINE
8
BLACK
6
CONTINUOUS
10
0.3378524803149606
20
0.1315329133858268
11
0.3387342913385827
21
0.1336617322834646
0
LINE
8
BLACK
6
CONTINUOUS
10
0.3387342913385827
20
0.1336617322834646
11
0.3403635826771653
21
0.1352910236220472
0
LINE
8
BLACK
6
CONTINUOUS
10
0.3403635826771653
20
0.1352910236220472
11
0.3424924015748032
21
0.1361728346456693
0
LINE
8
BLACK
6
CONTINUOUS
10
0.3424924015748032
20
0.1361728346456693
11
0.3436445275590551
21
0.1362862992125984
0
LINE
8
BLACK
6
CONTINUOUS
10
0.3436445275590551
20
0.1362862992125984
11
0.3658605118110236
21
0.1362862992125984
0
LINE
8
BLACK
6
CONTINUOUS
10
0.3658605118110236
20
0.1362862992125984
11
0.3658605118110236
21
0.1554088976377953
0
LINE
8
BLACK
6
CONTINUOUS
10
0.3658605118110236
20
0.1554088976377953
11
0.3520809842519685
21
0.1554088976377953
0
LINE
8
BLACK
6
CONTINUOUS
10
0.3520809842519685
20
0.1554088976377953
11
0.3509288582677165
21
0.1555223622047244
0
LINE
8
BLACK
6
CONTINUOUS
10
0.3509288582677165
20
0.1555223622047244
11
0.3488000393700788
21
0.1564041732283465
0
LINE
8
BLACK
6
CONTINUOUS
10
0.3488000393700788
20
0.1564041732283465
11
0.3471707480314961
21
0.1580334645669291
0
LINE
8
BLACK
6
CONTINUOUS
10
0.3471707480314961
20
0.1580334645669291
11
0.346288937007874
21
0.1601622834645669
0
LINE
8
BLACK
6
CONTINUOUS
10
0.346288937007874
20
0.1601622834645669
11
0.346288937007874
21
0.1624665354330709
0
LINE
8
BLACK
6
CONTINUOUS
10
0.346288937007874
20
0.1624665354330709
11
0.3471707480314961
21
0.1645953543307087
0
LINE
8
BLACK
6
CONTINUOUS
10
0.3471707480314961
20
0.1645953543307087
11
0.3488000393700788
21
0.1662246456692913
0
LINE
8
BLACK
6
CONTINUOUS
10
0.3488000393700788
20
0.1662246456692913
11
0.3509288582677165
21
0.1671064566929134
0
LINE
8
BLACK
6
CONTINUOUS
10
0.3509288582677165
20
0.1671064566929134
11
0.3520809842519685
21
0.1672199212598425
0
LINE
8
BLACK
6
CONTINUOUS
10
0.3520809842519685
20
0.1672199212598425
11
0.3658605118110236
21
0.1672199212598425
0
LINE
8
BLACK
6
CONTINUOUS
10
0.3658605118110236
20
0.1672199212598425
11
0.3658605118110236
21
0.1835303937007874
0
LINE
8
BLACK
6
CONTINUOUS
10
0.3658605118110236
20
0.1835303937007874
11
0.3436445275590551
21
0.1835303937007874
0
LINE
8
BLACK
6
CONTINUOUS
10
0.3436445275590551
20
0.1835303937007874
11
0.3424924015748032
21
0.1836438582677165
0
LINE
8
BLACK
6
CONTINUOUS
10
0.3424924015748032
20
0.1836438582677165
11
0.3403635826771653
21
0.1845256692913386
0
LINE
8
BLACK
6
CONTINUOUS
10
0.3403635826771653
20
0.1845256692913386
11
0.3387342913385827
21
0.1861549606299213
0
LINE
8
BLACK
6
CONTINUOUS
10
0.3387342913385827
20
0.1861549606299213
11
0.3378524803149606
21
0.1882837795275591
0
LINE
8
BLACK
6
CONTINUOUS
10
0.3378524803149606
20
0.1882837795275591
11
0.3378524803149606
21
0.190588031496063
0
LINE
8
BLACK
6
CONTINUOUS
10
0.3378524803149606
20
0.190588031496063
11
0.3387342913385827
21
0.1927168503937008
0
LINE
8
BLACK
6
CONTINUOUS
10
0.3387342913385827
20
0.1927168503937008
11
0.3403635826771653
21
0.1943461417322835
0
LINE
8
BLACK
6
CONTINUOUS
10
0.3403635826771653
20
0.1943461417322835
11
0.3424924015748032
21
0.1952279527559055
0
LINE
8
BLACK
6
CONTINUOUS
10
0.3424924015748032
20
0.1952279527559055
11
0.3436445275590551
21
0.1953414173228346
0
LINE
8
BLACK
6
CONTINUOUS
10
0.3436445275590551
20
0.1953414173228346
11
0.3717660236220472
21
0.1953414173228346
0
LINE
8
BLACK
6
CONTINUOUS
10
0.3717660236220472
20
0.1953414173228346
11
0.3729181496062992
21
0.1952279527559055
0
LINE
8
BLACK
6
CONTINUOUS
10
0.4228535039370079
20
0.1943461417322835
11
0.4244827952755905
21
0.1927168503937008
0
LINE
8
BLACK
6
CONTINUOUS
10
0.4244827952755905
20
0.1927168503937008
11
0.4253646062992126
21
0.190588031496063
0
LINE
8
BLACK
6
CONTINUOUS
10
0.4253646062992126
20
0.190588031496063
11
0.4254780708661417
21
0.189435905511811
0
LINE
8
BLACK
6
CONTINUOUS
10
0.4254780708661417
20
0.189435905511811
11
0.4254780708661417
21
0.1303807874015748
0
LINE
8
BLACK
6
CONTINUOUS
10
0.4254780708661417
20
0.1303807874015748
11
0.4253646062992126
21
0.1292286614173228
0
LINE
8
BLACK
6
CONTINUOUS
10
0.4253646062992126
20
0.1292286614173228
11
0.4244827952755905
21
0.127099842519685
0
LINE
8
BLACK
6
CONTINUOUS
10
0.4244827952755905
20
0.127099842519685
11
0.4228535039370079
21
0.1254705511811024
0
LINE
8
BLACK
6
CONTINUOUS
10
0.4228535039370079
20
0.1254705511811024
11
0.42072468503937
21
0.1245887401574803
0
LINE
8
BLACK
6
CONTINUOUS
10
0.42072468503937
20
0.1245887401574803
11
0.4195725590551181
21
0.1244752755905512
0
LINE
8
BLACK
6
CONTINUOUS
10
0.4195725590551181
20
0.1244752755905512
11
0.391451062992126
21
0.1244752755905512
0
LINE
8
BLACK
6
CONTINUOUS
10
0.391451062992126
20
0.1244752755905512
11
0.390298937007874
21
0.1245887401574803
0
LINE
8
BLACK
6
CONTINUOUS
10
0.390298937007874
20
0.1245887401574803
11
0.3881701181102362
21
0.1254705511811024
0
LINE
8
BLACK
6
CONTINUOUS
10
0.3881701181102362
20
0.1254705511811024
11
0.3865408267716535
21
0.127099842519685
0
LINE
8
BLACK
6
CONTINUOUS
10
0.3865408267716535
20
0.127099842519685
11
0.3856590157480315
21
0.1292286614173228
0
LINE
8
BLACK
6
CONTINUOUS
10
0.3856590157480315
20
0.1292286614173228
11
0.3856590157480315
21
0.1315329133858268
0
LINE
8
BLACK
6
CONTINUOUS
10
0.3856590157480315
20
0.1315329133858268
11
0.3865408267716535
21
0.1336617322834646
0
LINE
8
BLACK
6
CONTINUOUS
10
0.3865408267716535
20
0.1336617322834646
11
0.3881701181102362
21
0.1352910236220472
0
LINE
8
BLACK
6
CONTINUOUS
10
0.3881701181102362
20
0.1352910236220472
11
0.390298937007874
21
0.1361728346456693
0
LINE
8
BLACK
6
CONTINUOUS
10
0.390298937007874
20
0.1361728346456693
11
0.391451062992126
21
0.1362862992125984
0
LINE
8
BLACK
6
CONTINUOUS
10
0.391451062992126
20
0.1362862992125984
11
0.4136670472440945
21
0.1362862992125984
0
LINE
8
BLACK
6
CONTINUOUS
10
0.4136670472440945
20
0.1362862992125984
11
0.4136670472440945
21
0.189435905511811
0
LINE
8
BLACK
6
CONTINUOUS
10
0.4136670472440945
20
0.189435905511811
11
0.4137805118110236
21
0.190588031496063
0
LINE
8
BLACK
6
CONTINUOUS
10
0.4137805118110236
20
0.190588031496063
11
0.4146623228346457
21
0.1927168503937008
0
LINE
8
BLACK
6
CONTINUOUS
10
0.4146623228346457
20
0.1927168503937008
11
0.4162916141732284
21
0.1943461417322835
0
LINE
8
BLACK
6
CONTINUOUS
10
0.4162916141732284
20
0.1943461417322835
11
0.4184204330708661
21
0.1952279527559055
0
LINE
8
BLACK
6
CONTINUOUS
10
0.4184204330708661
20
0.1952279527559055
11
0.42072468503937
21
0.1952279527559055
0
LINE
8
BLACK
6
CONTINUOUS
10
0.42072468503937
20
0.1952279527559055
11
0.4228535039370079
21
0.1943461417322835
0
LINE
8
BLACK
6
CONTINUOUS
10
0.3194873228346456
20
0.1952279527559055
11
0.3216161417322835
21
0.1943461417322835
0
LINE
8
BLACK
6
CONTINUOUS
10
0.3216161417322835
20
0.1943461417322835
11
0.3232454330708661
21
0.1927168503937008
0
LINE
8
BLACK
6
CONTINUOUS
10
0.3232454330708661
20
0.1927168503937008
11
0.3241272440944882
21
0.190588031496063
0
LINE
8
BLACK
6
CONTINUOUS
10
0.3241272440944882
20
0.190588031496063
11
0.3242407086614173
21
0.189435905511811
0
LINE
8
BLACK
6
CONTINUOUS
10
0.3242407086614173
20
0.189435905511811
11
0.3242407086614173
21
0.1303807874015748
0
LINE
8
BLACK
6
CONTINUOUS
10
0.3242407086614173
20
0.1303807874015748
11
0.3241272440944882
21
0.1292286614173228
0
LINE
8
BLACK
6
CONTINUOUS
10
0.3241272440944882
20
0.1292286614173228
11
0.3232454330708661
21
0.127099842519685
0
LINE
8
BLACK
6
CONTINUOUS
10
0.3232454330708661
20
0.127099842519685
11
0.3216161417322835
21
0.1254705511811024
0
LINE
8
BLACK
6
CONTINUOUS
10
0.3216161417322835
20
0.1254705511811024
11
0.3194873228346456
21
0.1245887401574803
0
LINE
8
BLACK
6
CONTINUOUS
10
0.3194873228346456
20
0.1245887401574803
11
0.3171830708661417
21
0.1245887401574803
0
LINE
8
BLACK
6
CONTINUOUS
10
0.3171830708661417
20
0.1245887401574803
11
0.315054251968504
21
0.1254705511811024
0
LINE
8
BLACK
6
CONTINUOUS
10
0.315054251968504
20
0.1254705511811024
11
0.3134249606299213
21
0.127099842519685
0
LINE
8
BLACK
6
CONTINUOUS
10
0.3134249606299213
20
0.127099842519685
11
0.3125431496062992
21
0.1292286614173228
0
LINE
8
BLACK
6
CONTINUOUS
10
0.3125431496062992
20
0.1292286614173228
11
0.3124296850393701
21
0.1303807874015748
0
LINE
8
BLACK
6
CONTINUOUS
10
0.3124296850393701
20
0.1303807874015748
11
0.3124296850393701
21
0.1525967716535433
0
LINE
8
BLACK
6
CONTINUOUS
10
0.3124296850393701
20
0.1525967716535433
11
0.3073491732283464
21
0.1525967716535433
0
LINE
8
BLACK
6
CONTINUOUS
10
0.3073491732283464
20
0.1525967716535433
11
0.2894274015748031
21
0.1269942125984252
0
LINE
8
BLACK
6
CONTINUOUS
10
0.2894274015748031
20
0.1269942125984252
11
0.2886737401574803
21
0.1261153937007874
0
LINE
8
BLACK
6
CONTINUOUS
10
0.2886737401574803
20
0.1261153937007874
11
0.2867305511811024
21
0.1248770866141732
0
LINE
8
BLACK
6
CONTINUOUS
10
0.2867305511811024
20
0.1248770866141732
11
0.2844614173228346
21
0.1244766535433071
0
LINE
8
BLACK
6
CONTINUOUS
10
0.2844614173228346
20
0.1244766535433071
11
0.2822117322834646
21
0.1249750393700787
0
LINE
8
BLACK
6
CONTINUOUS
10
0.2822117322834646
20
0.1249750393700787
11
0.2803240157480315
21
0.1262964566929134
0
LINE
8
BLACK
6
CONTINUOUS
10
0.2803240157480315
20
0.1262964566929134
11
0.2790857086614173
21
0.1282396456692913
0
LINE
8
BLACK
6
CONTINUOUS
10
0.2790857086614173
20
0.1282396456692913
11
0.2786852755905512
21
0.130508779527559
0
LINE
8
BLACK
6
CONTINUOUS
10
0.2786852755905512
20
0.130508779527559
11
0.2791836614173228
21
0.1327584645669291
0
LINE
8
BLACK
6
CONTINUOUS
10
0.2791836614173228
20
0.1327584645669291
11
0.2797514173228347
21
0.1337673622047244
0
LINE
8
BLACK
6
CONTINUOUS
10
0.2797514173228347
20
0.1337673622047244
11
0.2933322047244095
21
0.1531685039370079
0
LINE
8
BLACK
6
CONTINUOUS
10
0.2933322047244095
20
0.1531685039370079
11
0.2931970078740158
21
0.1532202362204724
0
LINE
8
BLACK
6
CONTINUOUS
10
0.2931970078740158
20
0.1532202362204724
11
0.2875726771653543
21
0.1560323622047244
0
LINE
8
BLACK
6
CONTINUOUS
10
0.2875726771653543
20
0.1560323622047244
11
0.2870769291338582
21
0.1563444488188976
0
LINE
8
BLACK
6
CONTINUOUS
10
0.2870769291338582
20
0.1563444488188976
11
0.2869327952755906
21
0.1564041338582677
0
LINE
8
BLACK
6
CONTINUOUS
10
0.2869327952755906
20
0.1564041338582677
11
0.2867704724409449
21
0.1565373622047244
0
LINE
8
BLACK
6
CONTINUOUS
10
0.2867704724409449
20
0.1565373622047244
11
0.2865929527559055
21
0.156649094488189
0
LINE
8
BLACK
6
CONTINUOUS
10
0.2865929527559055
20
0.156649094488189
11
0.2864907874015748
21
0.1567668897637795
0
LINE
8
BLACK
6
CONTINUOUS
10
0.2864907874015748
20
0.1567668897637795
11
0.286037874015748
21
0.1571385826771654
0
LINE
8
BLACK
6
CONTINUOUS
10
0.286037874015748
20
0.1571385826771654
11
0.2832257086614173
21
0.1599507480314961
0
LINE
8
BLACK
6
CONTINUOUS
10
0.2832257086614173
20
0.1599507480314961
11
0.2828540551181102
21
0.1604035826771653
0
LINE
8
BLACK
6
CONTINUOUS
10
0.2828540551181102
20
0.1604035826771653
11
0.282736220472441
21
0.1605057874015748
0
LINE
8
BLACK
6
CONTINUOUS
10
0.282736220472441
20
0.1605057874015748
11
0.2826243700787401
21
0.1606835039370079
0
LINE
8
BLACK
6
CONTINUOUS
10
0.2826243700787401
20
0.1606835039370079
11
0.2824912598425197
21
0.1608456692913386
0
LINE
8
BLACK
6
CONTINUOUS
10
0.2824912598425197
20
0.1608456692913386
11
0.2824315748031496
21
0.1609897637795276
0
LINE
8
BLACK
6
CONTINUOUS
10
0.2824315748031496
20
0.1609897637795276
11
0.2821194881889764
21
0.1614855511811024
0
LINE
8
BLACK
6
CONTINUOUS
10
0.2821194881889764
20
0.1614855511811024
11
0.2793073622047244
21
0.167109842519685
0
LINE
8
BLACK
6
CONTINUOUS
10
0.2793073622047244
20
0.167109842519685
11
0.2788935826771654
21
0.1681911023622047
0
LINE
8
BLACK
6
CONTINUOUS
10
0.2788935826771654
20
0.1681911023622047
11
0.2788785433070866
21
0.1684027559055118
0
LINE
8
BLACK
6
CONTINUOUS
10
0.2788785433070866
20
0.1684027559055118
11
0.2787973622047244
21
0.1685987401574803
0
LINE
8
BLACK
6
CONTINUOUS
10
0.2787973622047244
20
0.1685987401574803
11
0.2786838976377953
21
0.1697508661417323
0
LINE
8
BLACK
6
CONTINUOUS
10
0.2786838976377953
20
0.1697508661417323
11
0.2786838976377953
21
0.1781873228346457
0
LINE
8
BLACK
6
CONTINUOUS
10
0.2786838976377953
20
0.1781873228346457
11
0.2787973622047244
21
0.1793394488188976
0
LINE
8
BLACK
6
CONTINUOUS
10
0.2787973622047244
20
0.1793394488188976
11
0.2788785433070866
21
0.1795354724409449
0
LINE
8
BLACK
6
CONTINUOUS
10
0.2788785433070866
20
0.1795354724409449
11
0.2788935826771654
21
0.1797470866141732
0
LINE
8
BLACK
6
CONTINUOUS
10
0.2788935826771654
20
0.1797470866141732
11
0.2793073622047244
21
0.1808283464566929
0
LINE
8
BLACK
6
CONTINUOUS
10
0.2793073622047244
20
0.1808283464566929
11
0.2821194881889764
21
0.1864526377952756
0
LINE
8
BLACK
6
CONTINUOUS
10
0.2821194881889764
20
0.1864526377952756
11
0.2824316141732283
21
0.1869485433070866
0
LINE
8
BLACK
6
CONTINUOUS
10
0.2824316141732283
20
0.1869485433070866
11
0.2824912992125984
21
0.1870925590551181
0
LINE
8
BLACK
6
CONTINUOUS
10
0.2824912992125984
20
0.1870925590551181
11
0.2826243307086614
21
0.1872546850393701
0
LINE
8
BLACK
6
CONTINUOUS
10
0.2826243307086614
20
0.1872546850393701
11
0.282736220472441
21
0.1874324015748031
0
LINE
8
BLACK
6
CONTINUOUS
10
0.282736220472441
20
0.1874324015748031
11
0.282854094488189
21
0.1875346456692913
0
LINE
8
BLACK
6
CONTINUOUS
10
0.282854094488189
20
0.1875346456692913
11
0.2832257480314961
21
0.1879874803149606
0
LINE
8
BLACK
6
CONTINUOUS
10
0.2832257480314961
20
0.1879874803149606
11
0.2860379133858268
21
0.1907996062992126
0
LINE
8
BLACK
6
CONTINUOUS
10
0.2860379133858268
20
0.1907996062992126
11
0.2864906692913386
21
0.191171220472441
0
LINE
8
BLACK
6
CONTINUOUS
10
0.2864906692913386
20
0.191171220472441
11
0.2865929133858268
21
0.1912890551181102
0
LINE
8
BLACK
6
CONTINUOUS
10
0.2865929133858268
20
0.1912890551181102
11
0.2867705511811023
21
0.191400905511811
0
LINE
8
BLACK
6
CONTINUOUS
10
0.2867705511811023
20
0.191400905511811
11
0.2869327952755906
21
0.1915340157480315
0
LINE
8
BLACK
6
CONTINUOUS
10
0.2869327952755906
20
0.1915340157480315
11
0.2870768503937008
21
0.1915937007874016
0
LINE
8
BLACK
6
CONTINUOUS
10
0.2870768503937008
20
0.1915937007874016
11
0.2875726771653543
21
0.1919057874015748
0
LINE
8
BLACK
6
CONTINUOUS
10
0.2875726771653543
20
0.1919057874015748
11
0.2931969291338583
21
0.1947179527559055
0
LINE
8
BLACK
6
CONTINUOUS
10
0.2931969291338583
20
0.1947179527559055
11
0.2942781889763779
21
0.1951316929133858
0
LINE
8
BLACK
6
CONTINUOUS
10
0.2942781889763779
20
0.1951316929133858
11
0.2944897637795276
21
0.1951467322834646
0
LINE
8
BLACK
6
CONTINUOUS
10
0.2944897637795276
20
0.1951467322834646
11
0.2946858661417323
21
0.1952279527559055
0
LINE
8
BLACK
6
CONTINUOUS
10
0.2946858661417323
20
0.1952279527559055
11
0.2958379921259843
21
0.1953414173228346
0
LINE
8
BLACK
6
CONTINUOUS
10
0.2958379921259843
20
0.1953414173228346
11
0.3183351968503937
21
0.1953414173228346
0
LINE
8
BLACK
6
CONTINUOUS
10
0.3183351968503937
20
0.1953414173228346
11
0.3194873228346456
21
0.1952279527559055
0
LINE
8
BLACK
6
CONTINUOUS
10
0.2937118503937008
20
0.1817702755905512
11
0.2922549606299212
21
0.1803133858267716
0
LINE
8
BLACK
6
CONTINUOUS
10
0.2922549606299212
20
0.1803133858267716
11
0.2904949212598425
21
0.1767932677165354
0
LINE
8
BLACK
6
CONTINUOUS
10
0.2904949212598425
20
0.1767932677165354
11
0.2904949212598425
21
0.1711449606299213
0
LINE
8
BLACK
6
CONTINUOUS
10
0.2904949212598425
20
0.1711449606299213
11
0.2922549606299212
21
0.1676248031496063
0
LINE
8
BLACK
6
CONTINUOUS
10
0.2922549606299212
20
0.1676248031496063
11
0.2937118503937008
21
0.1661679133858268
0
LINE
8
BLACK
6
CONTINUOUS
10
0.2937118503937008
20
0.1661679133858268
11
0.2972320866141732
21
0.1644077952755905
0
LINE
8
BLACK
6
CONTINUOUS
10
0.2972320866141732
20
0.1644077952755905
11
0.3124296850393701
21
0.1644077952755905
0
LINE
8
BLACK
6
CONTINUOUS
10
0.3124296850393701
20
0.1644077952755905
11
0.3124296850393701
21
0.1835303937007874
0
LINE
8
BLACK
6
CONTINUOUS
10
0.3124296850393701
20
0.1835303937007874
11
0.2972320866141732
21
0.1835303937007874
0
LINE
8
BLACK
6
CONTINUOUS
10
0.2972320866141732
20
0.1835303937007874
11
0.2937118503937008
21
0.1817702755905512
0
LINE
8
BLACK
6
CONTINUOUS
10
0.4600816141732283
20
0.1951616141732283
11
0.4605024409448819
21
0.1951316929133858
0
LINE
8
BLACK
6
CONTINUOUS
10
0.4605024409448819
20
0.1951316929133858
11
0.4611646850393701
21
0.1948005905511811
0
LINE
8
BLACK
6
CONTINUOUS
10
0.4611646850393701
20
0.1948005905511811
11
0.4618672047244095
21
0.1945663779527559
0
LINE
8
BLACK
6
CONTINUOUS
10
0.4618672047244095
20
0.1945663779527559
11
0.4621859448818897
21
0.1942899212598425
0
LINE
8
BLACK
6
CONTINUOUS
10
0.4621859448818897
20
0.1942899212598425
11
0.4625633464566929
21
0.1941012204724409
0
LINE
8
BLACK
6
CONTINUOUS
10
0.4625633464566929
20
0.1941012204724409
11
0.4630485039370079
21
0.1935418503937008
0
LINE
8
BLACK
6
CONTINUOUS
10
0.4630485039370079
20
0.1935418503937008
11
0.4636079133858267
21
0.1930566535433071
0
LINE
8
BLACK
6
CONTINUOUS
10
0.4636079133858267
20
0.1930566535433071
11
0.4637965748031496
21
0.1926792913385827
0
LINE
8
BLACK
6
CONTINUOUS
10
0.4637965748031496
20
0.1926792913385827
11
0.4640730708661417
21
0.1923605118110236
0
LINE
8
BLACK
6
CONTINUOUS
10
0.4640730708661417
20
0.1923605118110236
11
0.4645450393700787
21
0.1913033858267716
0
LINE
8
BLACK
6
CONTINUOUS
10
0.4645450393700787
20
0.1913033858267716
11
0.4842301181102362
21
0.1322482677165354
0
LINE
8
BLACK
6
CONTINUOUS
10
0.4842301181102362
20
0.1322482677165354
11
0.484486811023622
21
0.1311193700787402
0
LINE
8
BLACK
6
CONTINUOUS
10
0.484486811023622
20
0.1311193700787402
11
0.4843234251968504
21
0.1288209448818897
0
LINE
8
BLACK
6
CONTINUOUS
10
0.4843234251968504
20
0.1288209448818897
11
0.4832929527559055
21
0.1267600393700787
0
LINE
8
BLACK
6
CONTINUOUS
10
0.4832929527559055
20
0.1267600393700787
11
0.4815522440944882
21
0.1252503149606299
0
LINE
8
BLACK
6
CONTINUOUS
10
0.4815522440944882
20
0.1252503149606299
11
0.4793662598425197
21
0.1245216141732283
0
LINE
8
BLACK
6
CONTINUOUS
10
0.4793662598425197
20
0.1245216141732283
11
0.4770678346456693
21
0.124685
0
LINE
8
BLACK
6
CONTINUOUS
10
0.4770678346456693
20
0.124685
11
0.4750068897637795
21
0.1257154330708661
0
LINE
8
BLACK
6
CONTINUOUS
10
0.4750068897637795
20
0.1257154330708661
11
0.4734971653543307
21
0.1274561811023622
0
LINE
8
BLACK
6
CONTINUOUS
10
0.4734971653543307
20
0.1274561811023622
11
0.4730251968503937
21
0.1285133070866142
0
LINE
8
BLACK
6
CONTINUOUS
10
0.4730251968503937
20
0.1285133070866142
11
0.4687469291338582
21
0.1413481496062992
0
LINE
8
BLACK
6
CONTINUOUS
10
0.4687469291338582
20
0.1413481496062992
11
0.4491383070866142
21
0.1413481496062992
0
LINE
8
BLACK
6
CONTINUOUS
10
0.4491383070866142
20
0.1413481496062992
11
0.44486
21
0.1285133070866142
0
LINE
8
BLACK
6
CONTINUOUS
10
0.44486
20
0.1285133070866142
11
0.444388031496063
21
0.1274561811023622
0
LINE
8
BLACK
6
CONTINUOUS
10
0.444388031496063
20
0.1274561811023622
11
0.4428783070866142
21
0.1257154724409449
0
LINE
8
BLACK
6
CONTINUOUS
10
0.4428783070866142
20
0.1257154724409449
11
0.4408174015748031
21
0.124685
0
LINE
8
BLACK
6
CONTINUOUS
10
0.4408174015748031
20
0.124685
11
0.438518937007874
21
0.1245216535433071
0
LINE
8
BLACK
6
CONTINUOUS
10
0.438518937007874
20
0.1245216535433071
11
0.4363329527559055
21
0.1252503149606299
0
LINE
8
BLACK
6
CONTINUOUS
10
0.4363329527559055
20
0.1252503149606299
11
0.4345922440944882
21
0.1267600393700787
0
LINE
8
BLACK
6
CONTINUOUS
10
0.4345922440944882
20
0.1267600393700787
11
0.4335617716535433
21
0.1288209448818897
0
LINE
8
BLACK
6
CONTINUOUS
10
0.4335617716535433
20
0.1288209448818897
11
0.4333984251968504
21
0.1311194094488189
0
LINE
8
BLACK
6
CONTINUOUS
10
0.4333984251968504
20
0.1311194094488189
11
0.4336551181102362
21
0.1322482677165354
0
LINE
8
BLACK
6
CONTINUOUS
10
0.4336551181102362
20
0.1322482677165354
11
0.453340157480315
21
0.1913033858267716
0
LINE
8
BLACK
6
CONTINUOUS
10
0.453340157480315
20
0.1913033858267716
11
0.453812125984252
21
0.1923605118110236
0
LINE
8
BLACK
6
CONTINUOUS
10
0.453812125984252
20
0.1923605118110236
11
0.4540885826771653
21
0.1926793307086614
0
LINE
8
BLACK
6
CONTINUOUS
10
0.4540885826771653
20
0.1926793307086614
11
0.4542772834645669
21
0.1930566535433071
0
LINE
8
BLACK
6
CONTINUOUS
10
0.4542772834645669
20
0.1930566535433071
11
0.4548365748031496
21
0.1935417716535433
0
LINE
8
BLACK
6
CONTINUOUS
10
0.4548365748031496
20
0.1935417716535433
11
0.4553218503937008
21
0.1941012598425197
0
LINE
8
BLACK
6
CONTINUOUS
10
0.4553218503937008
20
0.1941012598425197
11
0.4556992913385827
21
0.19429
0
LINE
8
BLACK
6
CONTINUOUS
10
0.4556992913385827
20
0.19429
11
0.4560179921259843
21
0.1945663779527559
0
LINE
8
BLACK
6
CONTINUOUS
10
0.4560179921259843
20
0.1945663779527559
11
0.4567204330708661
21
0.1948005511811024
0
LINE
8
BLACK
6
CONTINUOUS
10
0.4567204330708661
20
0.1948005511811024
11
0.4573827952755906
21
0.1951316929133858
0
LINE
8
BLACK
6
CONTINUOUS
10
0.4573827952755906
20
0.1951316929133858
11
0.4578036614173228
21
0.1951616141732283
0
LINE
8
BLACK
6
CONTINUOUS
10
0.4578036614173228
20
0.1951616141732283
11
0.4582039763779527
21
0.1952950393700787
0
LINE
8
BLACK
6
CONTINUOUS
10
0.4582039763779527
20
0.1952950393700787
11
0.4589424015748031
21
0.1952425984251968
0
LINE
8
BLACK
6
CONTINUOUS
10
0.4589424015748031
20
0.1952425984251968
11
0.4596812204724409
21
0.1952950787401575
0
LINE
8
BLACK
6
CONTINUOUS
10
0.4596812204724409
20
0.1952950787401575
11
0.4600816141732283
21
0.1951616141732283
0
LINE
8
BLACK
6
CONTINUOUS
10
0.4530753149606299
20
0.1531591732283465
11
0.4648099212598425
21
0.1531591732283465
0
LINE
8
BLACK
6
CONTINUOUS
10
0.4648099212598425
20
0.1531591732283465
11
0.4589425984251969
21
0.170761062992126
0
LINE
8
BLACK
6
CONTINUOUS
10
0.4589425984251969
20
0.170761062992126
11
0.4530753149606299
21
0.1531591732283465
0
LINE
8
BLACK
6
CONTINUOUS
10
0.2688686220472441
20
0.1952279527559055
11
0.2709974409448819
21
0.1943461417322835
0
LINE
8
BLACK
6
CONTINUOUS
10
0.2709974409448819
20
0.1943461417322835
11
0.2726267322834646
21
0.1927168503937008
0
LINE
8
BLACK
6
CONTINUOUS
10
0.2726267322834646
20
0.1927168503937008
11
0.2735085433070866
21
0.190588031496063
0
LINE
8
BLACK
6
CONTINUOUS
10
0.2735085433070866
20
0.190588031496063
11
0.2735085433070866
21
0.1882837795275591
0
LINE
8
BLACK
6
CONTINUOUS
10
0.2735085433070866
20
0.1882837795275591
11
0.2726267322834646
21
0.1861549606299213
0
LINE
8
BLACK
6
CONTINUOUS
10
0.2726267322834646
20
0.1861549606299213
11
0.2709974409448819
21
0.1845256692913386
0
LINE
8
BLACK
6
CONTINUOUS
10
0.2709974409448819
20
0.1845256692913386
11
0.2688686220472441
21
0.1836438582677165
0
LINE
8
BLACK
6
CONTINUOUS
10
0.2688686220472441
20
0.1836438582677165
11
0.2677164960629921
21
0.1835303937007874
0
LINE
8
BLACK
6
CONTINUOUS
10
0.2677164960629921
20
0.1835303937007874
11
0.2567491338582677
21
0.1835303937007874
0
LINE
8
BLACK
6
CONTINUOUS
10
0.2567491338582677
20
0.1835303937007874
11
0.2567491338582677
21
0.1303807874015748
0
LINE
8
BLACK
6
CONTINUOUS
10
0.2567491338582677
20
0.1303807874015748
11
0.2566356692913386
21
0.1292286614173228
0
LINE
8
BLACK
6
CONTINUOUS
10
0.2566356692913386
20
0.1292286614173228
11
0.2557538582677165
21
0.127099842519685
0
LINE
8
BLACK
6
CONTINUOUS
10
0.2557538582677165
20
0.127099842519685
11
0.2541245669291339
21
0.1254705511811024
0
LINE
8
BLACK
6
CONTINUOUS
10
0.2541245669291339
20
0.1254705511811024
11
0.251995748031496
21
0.1245887401574803
0
LINE
8
BLACK
6
CONTINUOUS
10
0.251995748031496
20
0.1245887401574803
11
0.2496914960629921
21
0.1245887401574803
0
LINE
8
BLACK
6
CONTINUOUS
10
0.2496914960629921
20
0.1245887401574803
11
0.2475626771653543
21
0.1254705511811024
0
LINE
8
BLACK
6
CONTINUOUS
10
0.2475626771653543
20
0.1254705511811024
11
0.2459333858267717
21
0.127099842519685
0
LINE
8
BLACK
6
CONTINUOUS
10
0.2459333858267717
20
0.127099842519685
11
0.2450515748031496
21
0.1292286614173228
0
LINE
8
BLACK
6
CONTINUOUS
10
0.2450515748031496
20
0.1292286614173228
11
0.2449381102362205
21
0.1303807874015748
0
LINE
8
BLACK
6
CONTINUOUS
10
0.2449381102362205
20
0.1303807874015748
11
0.2449381102362205
21
0.1835303937007874
0
LINE
8
BLACK
6
CONTINUOUS
10
0.2449381102362205
20
0.1835303937007874
11
0.2339707480314961
21
0.1835303937007874
0
LINE
8
BLACK
6
CONTINUOUS
10
0.2339707480314961
20
0.1835303937007874
11
0.2328186220472441
21
0.1836438582677165
0
LINE
8
BLACK
6
CONTINUOUS
10
0.2328186220472441
20
0.1836438582677165
11
0.2306898031496063
21
0.1845256692913386
0
LINE
8
BLACK
6
CONTINUOUS
10
0.2306898031496063
20
0.1845256692913386
11
0.2290605118110236
21
0.1861549606299213
0
LINE
8
BLACK
6
CONTINUOUS
10
0.2290605118110236
20
0.1861549606299213
11
0.2281787007874016
21
0.1882837795275591
0
LINE
8
BLACK
6
CONTINUOUS
10
0.2281787007874016
20
0.1882837795275591
11
0.2281787007874016
21
0.190588031496063
0
LINE
8
BLACK
6
CONTINUOUS
10
0.2281787007874016
20
0.190588031496063
11
0.2290605118110236
21
0.1927168503937008
0
LINE
8
BLACK
6
CONTINUOUS
10
0.2290605118110236
20
0.1927168503937008
11
0.2306898031496063
21
0.1943461417322835
0
LINE
8
BLACK
6
CONTINUOUS
10
0.2306898031496063
20
0.1943461417322835
11
0.2328186220472441
21
0.1952279527559055
0
LINE
8
BLACK
6
CONTINUOUS
10
0.2328186220472441
20
0.1952279527559055
11
0.2339707480314961
21
0.1953414173228346
0
LINE
8
BLACK
6
CONTINUOUS
10
0.2339707480314961
20
0.1953414173228346
11
0.2677164960629921
21
0.1953414173228346
0
LINE
8
BLACK
6
CONTINUOUS
10
0.2677164960629921
20
0.1953414173228346
11
0.2688686220472441
21
0.1952279527559055
0
LINE
8
BLACK
6
CONTINUOUS
10
0.2243291732283464
20
0.2015918503937008
11
0.2256075984251968
21
0.2003134251968504
0
LINE
8
BLACK
6
CONTINUOUS
10
0.2256075984251968
20
0.2003134251968504
11
0.2256075984251968
21
0.1985054724409449
0
LINE
8
BLACK
6
CONTINUOUS
10
0.2256075984251968
20
0.1985054724409449
11
0.2243291732283464
21
0.1972270472440945
0
LINE
8
BLACK
6
CONTINUOUS
10
0.2243291732283464
20
0.1972270472440945
11
0.2234251968503937
21
0.1970472440944882
0
LINE
8
BLACK
6
CONTINUOUS
10
0.2234251968503937
20
0.1970472440944882
11
0.1868110236220472
21
0.1970472440944882
0
LINE
8
BLACK
6
CONTINUOUS
10
0.1868110236220472
20
0.1970472440944882
11
0.1868110236220472
21
0.1285433070866142
0
LINE
8
BLACK
6
CONTINUOUS
10
0.1868110236220472
20
0.1285433070866142
11
0.1866312204724409
21
0.1276393307086614
0
LINE
8
BLACK
6
CONTINUOUS
10
0.1866312204724409
20
0.1276393307086614
11
0.1853527952755905
21
0.126360905511811
0
LINE
8
BLACK
6
CONTINUOUS
10
0.1853527952755905
20
0.126360905511811
11
0.1844488188976378
21
0.1261811023622047
0
LINE
8
BLACK
6
CONTINUOUS
10
0.1844488188976378
20
0.1261811023622047
11
0.1273622047244095
21
0.1261811023622047
0
LINE
8
BLACK
6
CONTINUOUS
10
0.1273622047244095
20
0.1261811023622047
11
0.1264582283464567
21
0.126360905511811
0
LINE
8
BLACK
6
CONTINUOUS
10
0.1264582283464567
20
0.126360905511811
11
0.1251798031496063
21
0.1276393307086614
0
LINE
8
BLACK
6
CONTINUOUS
10
0.1251798031496063
20
0.1276393307086614
11
0.1251798031496063
21
0.1294472834645669
0
LINE
8
BLACK
6
CONTINUOUS
10
0.1251798031496063
20
0.1294472834645669
11
0.1264582283464567
21
0.1307257086614173
0
LINE
8
BLACK
6
CONTINUOUS
10
0.1264582283464567
20
0.1307257086614173
11
0.1273622047244095
21
0.1309055118110236
0
LINE
8
BLACK
6
CONTINUOUS
10
0.1273622047244095
20
0.1309055118110236
11
0.1820866141732284
21
0.1309055118110236
0
LINE
8
BLACK
6
CONTINUOUS
10
0.1820866141732284
20
0.1309055118110236
11
0.1820866141732284
21
0.1994094488188976
0
LINE
8
BLACK
6
CONTINUOUS
10
0.1820866141732284
20
0.1994094488188976
11
0.1822664173228346
21
0.2003134251968504
0
LINE
8
BLACK
6
CONTINUOUS
10
0.1822664173228346
20
0.2003134251968504
11
0.183544842519685
21
0.2015918503937008
0
LINE
8
BLACK
6
CONTINUOUS
10
0.183544842519685
20
0.2015918503937008
11
0.1844488188976378
21
0.2017716535433071
0
LINE
8
BLACK
6
CONTINUOUS
10
0.1844488188976378
20
0.2017716535433071
11
0.2234251968503937
21
0.2017716535433071
0
LINE
8
BLACK
6
CONTINUOUS
10
0.2234251968503937
20
0.2017716535433071
11
0.2243291732283464
21
0.2015918503937008
0
LINE
8
BLACK
6
CONTINUOUS
10
0.0185209842519685
20
0.4129118503937008
11
0.0187007874015748
21
0.412007874015748
0
LINE
8
BLACK
6
CONTINUOUS
10
0.0187007874015748
20
0.412007874015748
11
0.0187007874015748
21
0.1785433070866142
0
LINE
8
BLACK
6
CONTINUOUS
10
0.0187007874015748
20
0.1785433070866142
11
0.0185209842519685
21
0.1776393307086614
0
LINE
8
BLACK
6
CONTINUOUS
10
0.0185209842519685
20
0.1776393307086614
11
0.0172425590551181
21
0.176360905511811
0
LINE
8
BLACK
6
CONTINUOUS
10
0.0172425590551181
20
0.176360905511811
11
0.0154346062992126
21
0.176360905511811
0
LINE
8
BLACK
6
CONTINUOUS
10
0.0154346062992126
20
0.176360905511811
11
0.0141561811023622
21
0.1776393307086614
0
LINE
8
BLACK
6
CONTINUOUS
10
0.0141561811023622
20
0.1776393307086614
11
0.0139763779527559
21
0.1785433070866142
0
LINE
8
BLACK
6
CONTINUOUS
10
0.0139763779527559
20
0.1785433070866142
11
0.0139763779527559
21
0.412007874015748
0
LINE
8
BLACK
6
CONTINUOUS
10
0.0139763779527559
20
0.412007874015748
11
0.0141561811023622
21
0.4129118503937008
0
LINE
8
BLACK
6
CONTINUOUS
10
0.0141561811023622
20
0.4129118503937008
11
0.0154346062992126
21
0.4141902755905512
0
LINE
8
BLACK
6
CONTINUOUS
10
0.0154346062992126
20
0.4141902755905512
11
0.0172425590551181
21
0.4141902755905512
0
LINE
8
BLACK
6
CONTINUOUS
10
0.0172425590551181
20
0.4141902755905512
11
0.0185209842519685
21
0.4129118503937008
0
LINE
8
BLACK
6
CONTINUOUS
10
0.5835811417322835
20
0.3529698031496063
11
0.5848595669291339
21
0.3516913779527559
0
LINE
8
BLACK
6
CONTINUOUS
10
0.5848595669291339
20
0.3516913779527559
11
0.5850393700787402
21
0.3507874015748031
0
LINE
8
BLACK
6
CONTINUOUS
10
0.5850393700787402
20
0.3507874015748031
11
0.5850393700787402
21
0.1893700787401575
0
LINE
8
BLACK
6
CONTINUOUS
10
0.5850393700787402
20
0.1893700787401575
11
0.5848595669291339
21
0.1884661023622047
0
LINE
8
BLACK
6
CONTINUOUS
10
0.5848595669291339
20
0.1884661023622047
11
0.5835811417322835
21
0.1871876771653543
0
LINE
8
BLACK
6
CONTINUOUS
10
0.5835811417322835
20
0.1871876771653543
11
0.5826771653543307
21
0.187007874015748
0
LINE
8
BLACK
6
CONTINUOUS
10
0.5826771653543307
20
0.187007874015748
11
0.5039370078740157
21
0.187007874015748
0
LINE
8
BLACK
6
CONTINUOUS
10
0.5039370078740157
20
0.187007874015748
11
0.5030330314960629
21
0.1871876771653543
0
LINE
8
BLACK
6
CONTINUOUS
10
0.5030330314960629
20
0.1871876771653543
11
0.5017546062992125
21
0.1884661023622047
0
LINE
8
BLACK
6
CONTINUOUS
10
0.5017546062992125
20
0.1884661023622047
11
0.5015748031496063
21
0.1893700787401575
0
LINE
8
BLACK
6
CONTINUOUS
10
0.5015748031496063
20
0.1893700787401575
11
0.5015748031496063
21
0.3507874015748031
0
LINE
8
BLACK
6
CONTINUOUS
10
0.5015748031496063
20
0.3507874015748031
11
0.5017546062992125
21
0.3516913779527559
0
LINE
8
BLACK
6
CONTINUOUS
10
0.5017546062992125
20
0.3516913779527559
11
0.5030330314960629
21
0.3529698031496063
0
LINE
8
BLACK
6
CONTINUOUS
10
0.5030330314960629
20
0.3529698031496063
11
0.5039370078740157
21
0.3531496062992126
0
LINE
8
BLACK
6
CONTINUOUS
10
0.5039370078740157
20
0.3531496062992126
11
0.5826771653543307
21
0.3531496062992126
0
LINE
8
BLACK
6
CONTINUOUS
10
0.5826771653543307
20
0.3531496062992126
11
0.5835811417322835
21
0.3529698031496063
0
LINE
8
BLACK
6
CONTINUOUS
10
0.5062992125984251
20
0.3484251968503937
11
0.5062992125984251
21
0.1917322834645669
0
LINE
8
BLACK
6
CONTINUOUS
10
0.5062992125984251
20
0.1917322834645669
11
0.5803149606299213
21
0.1917322834645669
0
LINE
8
BLACK
6
CONTINUOUS
10
0.5803149606299213
20
0.1917322834645669
11
0.5803149606299213
21
0.3484251968503937
0
LINE
8
BLACK
6
CONTINUOUS
10
0.5803149606299213
20
0.3484251968503937
11
0.5062992125984251
21
0.3484251968503937
0
LINE
8
BLACK
6
CONTINUOUS
10
0.7429908267716535
20
0.2229437401574803
11
0.743507283464567
21
0.2226823622047244
0
LINE
8
BLACK
6
CONTINUOUS
10
0.743507283464567
20
0.2226823622047244
11
0.7634042913385827
21
0.2100206299212598
0
LINE
8
BLACK
6
CONTINUOUS
10
0.7634042913385827
20
0.2100206299212598
11
0.7812920866141733
21
0.2100206299212598
0
LINE
8
BLACK
6
CONTINUOUS
10
0.7812920866141733
20
0.2100206299212598
11
0.7818681496062992
21
0.2099638976377953
0
LINE
8
BLACK
6
CONTINUOUS
10
0.7818681496062992
20
0.2099638976377953
11
0.782932559055118
21
0.2095229921259842
0
LINE
8
BLACK
6
CONTINUOUS
10
0.782932559055118
20
0.2095229921259842
11
0.7837472047244094
21
0.2087083464566929
0
LINE
8
BLACK
6
CONTINUOUS
10
0.7837472047244094
20
0.2087083464566929
11
0.7841881102362205
21
0.207643937007874
0
LINE
8
BLACK
6
CONTINUOUS
10
0.7841881102362205
20
0.207643937007874
11
0.7841881102362205
21
0.206491811023622
0
LINE
8
BLACK
6
CONTINUOUS
10
0.7841881102362205
20
0.206491811023622
11
0.7837472047244094
21
0.2054274015748031
0
LINE
8
BLACK
6
CONTINUOUS
10
0.7837472047244094
20
0.2054274015748031
11
0.782932559055118
21
0.2046127559055118
0
LINE
8
BLACK
6
CONTINUOUS
10
0.782932559055118
20
0.2046127559055118
11
0.7818681496062992
21
0.2041718503937008
0
LINE
8
BLACK
6
CONTINUOUS
10
0.7818681496062992
20
0.2041718503937008
11
0.7812920866141733
21
0.2041151181102362
0
LINE
8
BLACK
6
CONTINUOUS
10
0.7812920866141733
20
0.2041151181102362
11
0.7634042913385827
21
0.2041151181102362
0
LINE
8
BLACK
6
CONTINUOUS
10
0.7634042913385827
20
0.2041151181102362
11
0.743507283464567
21
0.1914533858267717
0
LINE
8
BLACK
6
CONTINUOUS
10
0.743507283464567
20
0.1914533858267717
11
0.7429908267716535
21
0.1911920078740157
0
LINE
8
BLACK
6
CONTINUOUS
10
0.7429908267716535
20
0.1911920078740157
11
0.7418561023622047
21
0.1909925196850394
0
LINE
8
BLACK
6
CONTINUOUS
10
0.7418561023622047
20
0.1909925196850394
11
0.7407314566929134
21
0.1912424409448819
0
LINE
8
BLACK
6
CONTINUOUS
10
0.7407314566929134
20
0.1912424409448819
11
0.739788031496063
21
0.1919037401574803
0
LINE
8
BLACK
6
CONTINUOUS
10
0.739788031496063
20
0.1919037401574803
11
0.7391694881889763
21
0.1928757086614173
0
LINE
8
BLACK
6
CONTINUOUS
10
0.7391694881889763
20
0.1928757086614173
11
0.73897
21
0.1940104330708661
0
LINE
8
BLACK
6
CONTINUOUS
10
0.73897
20
0.1940104330708661
11
0.7392199212598425
21
0.1951350787401575
0
LINE
8
BLACK
6
CONTINUOUS
10
0.7392199212598425
20
0.1951350787401575
11
0.739881220472441
21
0.1960785039370079
0
LINE
8
BLACK
6
CONTINUOUS
10
0.739881220472441
20
0.1960785039370079
11
0.7403367322834645
21
0.1964356692913386
0
LINE
8
BLACK
6
CONTINUOUS
10
0.7403367322834645
20
0.1964356692913386
11
0.7570444881889764
21
0.207067874015748
0
LINE
8
BLACK
6
CONTINUOUS
10
0.7570444881889764
20
0.207067874015748
11
0.7403367322834645
21
0.2177000787401575
0
LINE
8
BLACK
6
CONTINUOUS
10
0.7403367322834645
20
0.2177000787401575
11
0.739881220472441
21
0.2180572440944882
0
LINE
8
BLACK
6
CONTINUOUS
10
0.739881220472441
20
0.2180572440944882
11
0.7392199212598425
21
0.2190006692913386
0
LINE
8
BLACK
6
CONTINUOUS
10
0.7392199212598425
20
0.2190006692913386
11
0.73897
21
0.2201253149606299
0
LINE
8
BLACK
6
CONTINUOUS
10
0.73897
20
0.2201253149606299
11
0.7391694881889763
21
0.2212600393700787
0
LINE
8
BLACK
6
CONTINUOUS
10
0.7391694881889763
20
0.2212600393700787
11
0.739788031496063
21
0.2222320078740157
0
LINE
8
BLACK
6
CONTINUOUS
10
0.739788031496063
20
0.2222320078740157
11
0.7407314566929134
21
0.2228933070866142
0
LINE
8
BLACK
6
CONTINUOUS
10
0.7407314566929134
20
0.2228933070866142
11
0.7418561023622047
21
0.2231432283464567
0
LINE
8
BLACK
6
CONTINUOUS
10
0.7418561023622047
20
0.2231432283464567
11
0.7429908267716535
21
0.2229437401574803
0
LINE
8
BLACK
6
CONTINUOUS
10
0.7818681496062992
20
0.256833031496063
11
0.782932559055118
21
0.256392125984252
0
LINE
8
BLACK
6
CONTINUOUS
10
0.782932559055118
20
0.256392125984252
11
0.7837472047244094
21
0.2555774803149606
0
LINE
8
BLACK
6
CONTINUOUS
10
0.7837472047244094
20
0.2555774803149606
11
0.7841881102362205
21
0.2545130708661417
0
LINE
8
BLACK
6
CONTINUOUS
10
0.7841881102362205
20
0.2545130708661417
11
0.7842448425196851
21
0.2539370078740157
0
LINE
8
BLACK
6
CONTINUOUS
10
0.7842448425196851
20
0.2539370078740157
11
0.7842448425196851
21
0.2445631889763779
0
LINE
8
BLACK
6
CONTINUOUS
10
0.7842448425196851
20
0.2445631889763779
11
0.7842161023622047
21
0.2442716141732283
0
LINE
8
BLACK
6
CONTINUOUS
10
0.7842161023622047
20
0.2442716141732283
11
0.7842216535433071
21
0.2441938582677165
0
LINE
8
BLACK
6
CONTINUOUS
10
0.7842216535433071
20
0.2441938582677165
11
0.7841983858267716
21
0.2440916141732283
0
LINE
8
BLACK
6
CONTINUOUS
10
0.7841983858267716
20
0.2440916141732283
11
0.7841881102362205
21
0.243987125984252
0
LINE
8
BLACK
6
CONTINUOUS
10
0.7841881102362205
20
0.243987125984252
11
0.7841582283464567
21
0.2439150787401575
0
LINE
8
BLACK
6
CONTINUOUS
10
0.7841582283464567
20
0.2439150787401575
11
0.7840933070866142
21
0.2436294094488189
0
LINE
8
BLACK
6
CONTINUOUS
10
0.7840933070866142
20
0.2436294094488189
11
0.7822185433070866
21
0.2380051574803149
0
LINE
8
BLACK
6
CONTINUOUS
10
0.7822185433070866
20
0.2380051574803149
11
0.781982559055118
21
0.2374765748031496
0
LINE
8
BLACK
6
CONTINUOUS
10
0.781982559055118
20
0.2374765748031496
11
0.7819130708661417
21
0.2373964960629921
0
LINE
8
BLACK
6
CONTINUOUS
10
0.7819130708661417
20
0.2373964960629921
11
0.7818724803149606
21
0.2372984251968504
0
LINE
8
BLACK
6
CONTINUOUS
10
0.7818724803149606
20
0.2372984251968504
11
0.7815052362204724
21
0.2368509842519685
0
LINE
8
BLACK
6
CONTINUOUS
10
0.7815052362204724
20
0.2368509842519685
11
0.7777556692913385
21
0.2331014566929134
0
LINE
8
BLACK
6
CONTINUOUS
10
0.7777556692913385
20
0.2331014566929134
11
0.7775292913385826
21
0.2329157086614173
0
LINE
8
BLACK
6
CONTINUOUS
10
0.7775292913385826
20
0.2329157086614173
11
0.7774781496062992
21
0.2328566929133858
0
LINE
8
BLACK
6
CONTINUOUS
10
0.7774781496062992
20
0.2328566929133858
11
0.7773892125984252
21
0.2328007480314961
0
LINE
8
BLACK
6
CONTINUOUS
10
0.7773892125984252
20
0.2328007480314961
11
0.777308188976378
21
0.2327342125984252
0
LINE
8
BLACK
6
CONTINUOUS
10
0.777308188976378
20
0.2327342125984252
11
0.7772361417322834
21
0.2327044094488189
0
LINE
8
BLACK
6
CONTINUOUS
10
0.7772361417322834
20
0.2327044094488189
11
0.7769882677165354
21
0.2325483464566929
0
LINE
8
BLACK
6
CONTINUOUS
10
0.7769882677165354
20
0.2325483464566929
11
0.7732387401574803
21
0.2306735826771653
0
LINE
8
BLACK
6
CONTINUOUS
10
0.7732387401574803
20
0.2306735826771653
11
0.7731966141732284
21
0.2306574803149606
0
LINE
8
BLACK
6
CONTINUOUS
10
0.7731966141732284
20
0.2306574803149606
11
0.7731794881889763
21
0.2306447637795276
0
LINE
8
BLACK
6
CONTINUOUS
10
0.7731794881889763
20
0.2306447637795276
11
0.7729375196850393
21
0.2305583464566929
0
LINE
8
BLACK
6
CONTINUOUS
10
0.7729375196850393
20
0.2305583464566929
11
0.7726981102362205
21
0.2304666929133858
0
LINE
8
BLACK
6
CONTINUOUS
10
0.7726981102362205
20
0.2304666929133858
11
0.7726768503937008
21
0.2304651968503937
0
LINE
8
BLACK
6
CONTINUOUS
10
0.7726768503937008
20
0.2304651968503937
11
0.7726343700787401
21
0.23045
0
LINE
8
BLACK
6
CONTINUOUS
10
0.7726343700787401
20
0.23045
11
0.7651353149606299
21
0.2285752362204724
0
LINE
8
BLACK
6
CONTINUOUS
10
0.7651353149606299
20
0.2285752362204724
11
0.7650354330708661
21
0.2285604724409449
0
LINE
8
BLACK
6
CONTINUOUS
10
0.7650354330708661
20
0.2285604724409449
11
0.7649952362204724
21
0.2285438188976378
0
LINE
8
BLACK
6
CONTINUOUS
10
0.7649952362204724
20
0.2285438188976378
11
0.7647781889763779
21
0.2285224803149606
0
LINE
8
BLACK
6
CONTINUOUS
10
0.7647781889763779
20
0.2285224803149606
11
0.7645627165354331
21
0.2284905905511811
0
LINE
8
BLACK
6
CONTINUOUS
10
0.7645627165354331
20
0.2284905905511811
11
0.7645196850393701
21
0.2284970078740158
0
LINE
8
BLACK
6
CONTINUOUS
10
0.7645196850393701
20
0.2284970078740158
11
0.7644191732283464
21
0.2284870866141732
0
LINE
8
BLACK
6
CONTINUOUS
10
0.7644191732283464
20
0.2284870866141732
11
0.7587948818897637
21
0.2284870866141732
0
LINE
8
BLACK
6
CONTINUOUS
10
0.7587948818897637
20
0.2284870866141732
11
0.7586943307086614
21
0.2284970078740158
0
LINE
8
BLACK
6
CONTINUOUS
10
0.7586943307086614
20
0.2284970078740158
11
0.7586513385826772
21
0.2284905905511811
0
LINE
8
BLACK
6
CONTINUOUS
10
0.7586513385826772
20
0.2284905905511811
11
0.7584358267716536
21
0.2285224803149606
0
LINE
8
BLACK
6
CONTINUOUS
10
0.7584358267716536
20
0.2285224803149606
11
0.7582188188976378
21
0.2285438188976378
0
LINE
8
BLACK
6
CONTINUOUS
10
0.7582188188976378
20
0.2285438188976378
11
0.7581785826771653
21
0.2285604724409449
0
LINE
8
BLACK
6
CONTINUOUS
10
0.7581785826771653
20
0.2285604724409449
11
0.7580787401574803
21
0.2285752362204724
0
LINE
8
BLACK
6
CONTINUOUS
10
0.7580787401574803
20
0.2285752362204724
11
0.7505796850393701
21
0.23045
0
LINE
8
BLACK
6
CONTINUOUS
10
0.7505796850393701
20
0.23045
11
0.7505371653543307
21
0.2304651968503937
0
LINE
8
BLACK
6
CONTINUOUS
10
0.7505371653543307
20
0.2304651968503937
11
0.750515905511811
21
0.2304666929133858
0
LINE
8
BLACK
6
CONTINUOUS
10
0.750515905511811
20
0.2304666929133858
11
0.7502761417322834
21
0.2305584645669291
0
LINE
8
BLACK
6
CONTINUOUS
10
0.7502761417322834
20
0.2305584645669291
11
0.7500345669291338
21
0.2306447637795276
0
LINE
8
BLACK
6
CONTINUOUS
10
0.7500345669291338
20
0.2306447637795276
11
0.7500174015748031
21
0.2306574803149606
0
LINE
8
BLACK
6
CONTINUOUS
10
0.7500174015748031
20
0.2306574803149606
11
0.7499753149606299
21
0.2306735826771653
0
LINE
8
BLACK
6
CONTINUOUS
10
0.7499753149606299
20
0.2306735826771653
11
0.7462257874015747
21
0.2325483464566929
0
LINE
8
BLACK
6
CONTINUOUS
10
0.7462257874015747
20
0.2325483464566929
11
0.7459779527559055
21
0.2327043700787401
0
LINE
8
BLACK
6
CONTINUOUS
10
0.7459779527559055
20
0.2327043700787401
11
0.7459058267716535
21
0.2327342125984252
0
LINE
8
BLACK
6
CONTINUOUS
10
0.7459058267716535
20
0.2327342125984252
11
0.7458246456692913
21
0.2328008267716535
0
LINE
8
BLACK
6
CONTINUOUS
10
0.7458246456692913
20
0.2328008267716535
11
0.745735905511811
21
0.2328566929133858
0
LINE
8
BLACK
6
CONTINUOUS
10
0.745735905511811
20
0.2328566929133858
11
0.7456847637795275
21
0.2329156299212598
0
LINE
8
BLACK
6
CONTINUOUS
10
0.7456847637795275
20
0.2329156299212598
11
0.7454583858267716
21
0.2331014566929134
0
LINE
8
BLACK
6
CONTINUOUS
10
0.7454583858267716
20
0.2331014566929134
11
0.7417088582677165
21
0.2368509842519685
0
LINE
8
BLACK
6
CONTINUOUS
10
0.7417088582677165
20
0.2368509842519685
11
0.7413416535433071
21
0.2372984251968504
0
LINE
8
BLACK
6
CONTINUOUS
10
0.7413416535433071
20
0.2372984251968504
11
0.7413010236220472
21
0.2373964960629921
0
LINE
8
BLACK
6
CONTINUOUS
10
0.7413010236220472
20
0.2373964960629921
11
0.7412315354330709
21
0.2374766141732284
0
LINE
8
BLACK
6
CONTINUOUS
10
0.7412315354330709
20
0.2374766141732284
11
0.7409955511811024
21
0.2380051574803149
0
LINE
8
BLACK
6
CONTINUOUS
10
0.7409955511811024
20
0.2380051574803149
11
0.7391207874015748
21
0.2436294488188976
0
LINE
8
BLACK
6
CONTINUOUS
10
0.7391207874015748
20
0.2436294488188976
11
0.7390558267716535
21
0.2439150393700787
0
LINE
8
BLACK
6
CONTINUOUS
10
0.7390558267716535
20
0.2439150393700787
11
0.7390259842519685
21
0.243987125984252
0
LINE
8
BLACK
6
CONTINUOUS
10
0.7390259842519685
20
0.243987125984252
11
0.7390156692913386
21
0.2440916535433071
0
LINE
8
BLACK
6
CONTINUOUS
10
0.7390156692913386
20
0.2440916535433071
11
0.7389924409448819
21
0.2441938976377953
0
LINE
8
BLACK
6
CONTINUOUS
10
0.7389924409448819
20
0.2441938976377953
11
0.7389979527559055
21
0.2442716535433071
0
LINE
8
BLACK
6
CONTINUOUS
10
0.7389979527559055
20
0.2442716535433071
11
0.7389692519685039
21
0.2445631889763779
0
LINE
8
BLACK
6
CONTINUOUS
10
0.7389692519685039
20
0.2445631889763779
11
0.7389692519685039
21
0.2539370078740157
0
LINE
8
BLACK
6
CONTINUOUS
10
0.7389692519685039
20
0.2539370078740157
11
0.7390259842519685
21
0.2545130708661417
0
LINE
8
BLACK
6
CONTINUOUS
10
0.7390259842519685
20
0.2545130708661417
11
0.7394668897637795
21
0.2555774803149606
0
LINE
8
BLACK
6
CONTINUOUS
10
0.7394668897637795
20
0.2555774803149606
11
0.7402815354330708
21
0.256392125984252
0
LINE
8
BLACK
6
CONTINUOUS
10
0.7402815354330708
20
0.256392125984252
11
0.7413459448818898
21
0.256833031496063
0
LINE
8
BLACK
6
CONTINUOUS
10
0.7413459448818898
20
0.256833031496063
11
0.7419220078740157
21
0.2568897637795275
0
LINE
8
BLACK
6
CONTINUOUS
10
0.7419220078740157
20
0.2568897637795275
11
0.7812920866141733
21
0.2568897637795275
0
LINE
8
BLACK
6
CONTINUOUS
10
0.7812920866141733
20
0.2568897637795275
11
0.7818681496062992
21
0.256833031496063
0
LINE
8
BLACK
6
CONTINUOUS
10
0.7448747637795275
20
0.2450423622047244
11
0.746377559055118
21
0.240533937007874
0
LINE
8
BLACK
6
CONTINUOUS
10
0.746377559055118
20
0.240533937007874
11
0.7492953937007873
21
0.2376161023622047
0
LINE
8
BLACK
6
CONTINUOUS
10
0.7492953937007873
20
0.2376161023622047
11
0.7523263779527559
21
0.2361006299212598
0
LINE
8
BLACK
6
CONTINUOUS
10
0.7523263779527559
20
0.2361006299212598
11
0.7591584251968504
21
0.2343925984251969
0
LINE
8
BLACK
6
CONTINUOUS
10
0.7591584251968504
20
0.2343925984251969
11
0.7640556299212599
21
0.2343925984251969
0
LINE
8
BLACK
6
CONTINUOUS
10
0.7640556299212599
20
0.2343925984251969
11
0.7708876771653543
21
0.2361006299212598
0
LINE
8
BLACK
6
CONTINUOUS
10
0.7708876771653543
20
0.2361006299212598
11
0.7739186614173228
21
0.2376161417322835
0
LINE
8
BLACK
6
CONTINUOUS
10
0.7739186614173228
20
0.2376161417322835
11
0.7768365354330709
21
0.2405339763779528
0
LINE
8
BLACK
6
CONTINUOUS
10
0.7768365354330709
20
0.2405339763779528
11
0.7783393307086613
21
0.2450423228346457
0
LINE
8
BLACK
6
CONTINUOUS
10
0.7783393307086613
20
0.2450423228346457
11
0.7783393307086613
21
0.2509842519685039
0
LINE
8
BLACK
6
CONTINUOUS
10
0.7783393307086613
20
0.2509842519685039
11
0.7448747637795275
21
0.2509842519685039
0
LINE
8
BLACK
6
CONTINUOUS
10
0.7448747637795275
20
0.2509842519685039
11
0.7448747637795275
21
0.2450423622047244
0
LINE
8
BLACK
6
CONTINUOUS
10
0.481218937007874
20
0.3529698031496063
11
0.4824973622047244
21
0.3516913779527559
0
LINE
8
BLACK
6
CONTINUOUS
10
0.4824973622047244
20
0.3516913779527559
11
0.4826771653543307
21
0.3507874015748031
0
LINE
8
BLACK
6
CONTINUOUS
10
0.4826771653543307
20
0.3507874015748031
11
0.4826771653543307
21
0.2405511811023622
0
LINE
8
BLACK
6
CONTINUOUS
10
0.4826771653543307
20
0.2405511811023622
11
0.4824973622047244
21
0.2396472047244095
0
LINE
8
BLACK
6
CONTINUOUS
10
0.4824973622047244
20
0.2396472047244095
11
0.481218937007874
21
0.2383687795275591
0
LINE
8
BLACK
6
CONTINUOUS
10
0.481218937007874
20
0.2383687795275591
11
0.4803149606299212
21
0.2381889763779527
0
LINE
8
BLACK
6
CONTINUOUS
10
0.4803149606299212
20
0.2381889763779527
11
0.4015748031496063
21
0.2381889763779527
0
LINE
8
BLACK
6
CONTINUOUS
10
0.4015748031496063
20
0.2381889763779527
11
0.4006708267716536
21
0.2383687795275591
0
LINE
8
BLACK
6
CONTINUOUS
10
0.4006708267716536
20
0.2383687795275591
11
0.3993924015748032
21
0.2396472047244095
0
LINE
8
BLACK
6
CONTINUOUS
10
0.3993924015748032
20
0.2396472047244095
11
0.3992125984251969
21
0.2405511811023622
0
LINE
8
BLACK
6
CONTINUOUS
10
0.3992125984251969
20
0.2405511811023622
11
0.3992125984251969
21
0.3507874015748031
0
LINE
8
BLACK
6
CONTINUOUS
10
0.3992125984251969
20
0.3507874015748031
11
0.3993924015748032
21
0.3516913779527559
0
LINE
8
BLACK
6
CONTINUOUS
10
0.3993924015748032
20
0.3516913779527559
11
0.4006708267716536
21
0.3529698031496063
0
LINE
8
BLACK
6
CONTINUOUS
10
0.4006708267716536
20
0.3529698031496063
11
0.4015748031496063
21
0.3531496062992126
0
LINE
8
BLACK
6
CONTINUOUS
10
0.4015748031496063
20
0.3531496062992126
11
0.4803149606299212
21
0.3531496062992126
0
LINE
8
BLACK
6
CONTINUOUS
10
0.4803149606299212
20
0.3531496062992126
11
0.481218937007874
21
0.3529698031496063
0
LINE
8
BLACK
6
CONTINUOUS
10
0.4039370078740158
20
0.3484251968503937
11
0.4039370078740158
21
0.2429133858267717
0
LINE
8
BLACK
6
CONTINUOUS
10
0.4039370078740158
20
0.2429133858267717
11
0.4779527559055118
21
0.2429133858267717
0
LINE
8
BLACK
6
CONTINUOUS
10
0.4779527559055118
20
0.2429133858267717
11
0.4779527559055118
21
0.3484251968503937
0
LINE
8
BLACK
6
CONTINUOUS
10
0.4779527559055118
20
0.3484251968503937
11
0.4039370078740158
21
0.3484251968503937
0
LINE
8
BLACK
6
CONTINUOUS
10
0.3856884645669291
20
0.2765646062992126
11
0.3865031496062992
21
0.2757499606299212
0
LINE
8
BLACK
6
CONTINUOUS
10
0.3865031496062992
20
0.2757499606299212
11
0.3867596062992126
21
0.2751307480314961
0
LINE
8
BLACK
6
CONTINUOUS
10
0.3867596062992126
20
0.2751307480314961
11
0.3869440157480315
21
0.2746855511811024
0
LINE
8
BLACK
6
CONTINUOUS
10
0.3869440157480315
20
0.2746855511811024
11
0.387000748031496
21
0.2741094881889763
0
LINE
8
BLACK
6
CONTINUOUS
10
0.387000748031496
20
0.2741094881889763
11
0.387000748031496
21
0.2497375590551181
0
LINE
8
BLACK
6
CONTINUOUS
10
0.387000748031496
20
0.2497375590551181
11
0.3869440157480315
21
0.2491614960629921
0
LINE
8
BLACK
6
CONTINUOUS
10
0.3869440157480315
20
0.2491614960629921
11
0.3865031102362205
21
0.2480970866141732
0
LINE
8
BLACK
6
CONTINUOUS
10
0.3865031102362205
20
0.2480970866141732
11
0.3856884645669291
21
0.2472824409448819
0
LINE
8
BLACK
6
CONTINUOUS
10
0.3856884645669291
20
0.2472824409448819
11
0.3846240551181102
21
0.2468415354330709
0
LINE
8
BLACK
6
CONTINUOUS
10
0.3846240551181102
20
0.2468415354330709
11
0.3834719291338582
21
0.2468415354330709
0
LINE
8
BLACK
6
CONTINUOUS
10
0.3834719291338582
20
0.2468415354330709
11
0.3824075196850394
21
0.2472824409448819
0
LINE
8
BLACK
6
CONTINUOUS
10
0.3824075196850394
20
0.2472824409448819
11
0.381592874015748
21
0.2480970866141732
0
LINE
8
BLACK
6
CONTINUOUS
10
0.381592874015748
20
0.2480970866141732
11
0.381151968503937
21
0.2491614960629921
0
LINE
8
BLACK
6
CONTINUOUS
10
0.381151968503937
20
0.2491614960629921
11
0.3810952362204724
21
0.2497375590551181
0
LINE
8
BLACK
6
CONTINUOUS
10
0.3810952362204724
20
0.2497375590551181
11
0.3810952362204724
21
0.2669809448818898
0
LINE
8
BLACK
6
CONTINUOUS
10
0.3810952362204724
20
0.2669809448818898
11
0.3636387007874016
21
0.2495244094488189
0
LINE
8
BLACK
6
CONTINUOUS
10
0.3636387007874016
20
0.2495244094488189
11
0.3631912598425197
21
0.2491572047244094
0
LINE
8
BLACK
6
CONTINUOUS
10
0.3631912598425197
20
0.2491572047244094
11
0.3630931889763779
21
0.2491166141732283
0
LINE
8
BLACK
6
CONTINUOUS
10
0.3630931889763779
20
0.2491166141732283
11
0.3630130708661417
21
0.2490470866141732
0
LINE
8
BLACK
6
CONTINUOUS
10
0.3630130708661417
20
0.2490470866141732
11
0.3624845275590551
21
0.2488111023622047
0
LINE
8
BLACK
6
CONTINUOUS
10
0.3624845275590551
20
0.2488111023622047
11
0.3568602362204724
21
0.2469363385826772
0
LINE
8
BLACK
6
CONTINUOUS
10
0.3568602362204724
20
0.2469363385826772
11
0.3565746456692913
21
0.2468714173228346
0
LINE
8
BLACK
6
CONTINUOUS
10
0.3565746456692913
20
0.2468714173228346
11
0.3565025590551181
21
0.2468415354330709
0
LINE
8
BLACK
6
CONTINUOUS
10
0.3565025590551181
20
0.2468415354330709
11
0.356398031496063
21
0.2468312598425197
0
LINE
8
BLACK
6
CONTINUOUS
10
0.356398031496063
20
0.2468312598425197
11
0.3562957874015748
21
0.2468079921259843
0
LINE
8
BLACK
6
CONTINUOUS
10
0.3562957874015748
20
0.2468079921259843
11
0.356218031496063
21
0.2468135433070866
0
LINE
8
BLACK
6
CONTINUOUS
10
0.356218031496063
20
0.2468135433070866
11
0.3559264960629921
21
0.2467848031496063
0
LINE
8
BLACK
6
CONTINUOUS
10
0.3559264960629921
20
0.2467848031496063
11
0.352176968503937
21
0.2467848031496063
0
LINE
8
BLACK
6
CONTINUOUS
10
0.352176968503937
20
0.2467848031496063
11
0.351600905511811
21
0.2468415354330709
0
LINE
8
BLACK
6
CONTINUOUS
10
0.351600905511811
20
0.2468415354330709
11
0.3515029133858268
21
0.246882125984252
0
LINE
8
BLACK
6
CONTINUOUS
10
0.3515029133858268
20
0.246882125984252
11
0.3513970472440945
21
0.2468896456692913
0
LINE
8
BLACK
6
CONTINUOUS
10
0.3513970472440945
20
0.2468896456692913
11
0.3508564566929134
21
0.2470965354330709
0
LINE
8
BLACK
6
CONTINUOUS
10
0.3508564566929134
20
0.2470965354330709
11
0.3471069291338583
21
0.2489712992125984
0
LINE
8
BLACK
6
CONTINUOUS
10
0.3471069291338583
20
0.2489712992125984
11
0.3468588976377953
21
0.2491274015748031
0
LINE
8
BLACK
6
CONTINUOUS
10
0.3468588976377953
20
0.2491274015748031
11
0.346786968503937
21
0.2491572047244094
0
LINE
8
BLACK
6
CONTINUOUS
10
0.346786968503937
20
0.2491572047244094
11
0.3467059842519685
21
0.2492237007874016
0
LINE
8
BLACK
6
CONTINUOUS
10
0.3467059842519685
20
0.2492237007874016
11
0.3466170472440945
21
0.2492796456692913
0
LINE
8
BLACK
6
CONTINUOUS
10
0.3466170472440945
20
0.2492796456692913
11
0.3465658661417323
21
0.2493386614173228
0
LINE
8
BLACK
6
CONTINUOUS
10
0.3465658661417323
20
0.2493386614173228
11
0.3463395275590551
21
0.2495244094488189
0
LINE
8
BLACK
6
CONTINUOUS
10
0.3463395275590551
20
0.2495244094488189
11
0.3444647637795276
21
0.2513991732283464
0
LINE
8
BLACK
6
CONTINUOUS
10
0.3444647637795276
20
0.2513991732283464
11
0.3442789763779527
21
0.2516255511811024
0
LINE
8
BLACK
6
CONTINUOUS
10
0.3442789763779527
20
0.2516255511811024
11
0.34422
21
0.2516766929133858
0
LINE
8
BLACK
6
CONTINUOUS
10
0.34422
20
0.2516766929133858
11
0.3441640157480315
21
0.2517656692913386
0
LINE
8
BLACK
6
CONTINUOUS
10
0.3441640157480315
20
0.2517656692913386
11
0.3440975590551181
21
0.2518466141732283
0
LINE
8
BLACK
6
CONTINUOUS
10
0.3440975590551181
20
0.2518466141732283
11
0.3440677165354331
21
0.2519185826771653
0
LINE
8
BLACK
6
CONTINUOUS
10
0.3440677165354331
20
0.2519185826771653
11
0.3439116535433071
21
0.2521665748031496
0
LINE
8
BLACK
6
CONTINUOUS
10
0.3439116535433071
20
0.2521665748031496
11
0.3420368897637795
21
0.2559161023622047
0
LINE
8
BLACK
6
CONTINUOUS
10
0.3420368897637795
20
0.2559161023622047
11
0.34183
21
0.2564567322834646
0
LINE
8
BLACK
6
CONTINUOUS
10
0.34183
20
0.2564567322834646
11
0.3418224803149606
21
0.2565625590551181
0
LINE
8
BLACK
6
CONTINUOUS
10
0.3418224803149606
20
0.2565625590551181
11
0.3417818897637795
21
0.2566605511811024
0
LINE
8
BLACK
6
CONTINUOUS
10
0.3417818897637795
20
0.2566605511811024
11
0.341725157480315
21
0.2572366141732284
0
LINE
8
BLACK
6
CONTINUOUS
10
0.341725157480315
20
0.2572366141732284
11
0.341725157480315
21
0.2666104330708661
0
LINE
8
BLACK
6
CONTINUOUS
10
0.341725157480315
20
0.2666104330708661
11
0.3417818897637795
21
0.2671864960629921
0
LINE
8
BLACK
6
CONTINUOUS
10
0.3417818897637795
20
0.2671864960629921
11
0.3418224803149606
21
0.2672845275590551
0
LINE
8
BLACK
6
CONTINUOUS
10
0.3418224803149606
20
0.2672845275590551
11
0.34183
21
0.2673903149606299
0
LINE
8
BLACK
6
CONTINUOUS
10
0.34183
20
0.2673903149606299
11
0.3420368897637795
21
0.2679309448818897
0
LINE
8
BLACK
6
CONTINUOUS
10
0.3420368897637795
20
0.2679309448818897
11
0.3439116535433071
21
0.2716804724409449
0
LINE
8
BLACK
6
CONTINUOUS
10
0.3439116535433071
20
0.2716804724409449
11
0.3440677165354331
21
0.2719285039370078
0
LINE
8
BLACK
6
CONTINUOUS
10
0.3440677165354331
20
0.2719285039370078
11
0.3440975590551181
21
0.2720004330708661
0
LINE
8
BLACK
6
CONTINUOUS
10
0.3440975590551181
20
0.2720004330708661
11
0.3441640157480315
21
0.2720814173228346
0
LINE
8
BLACK
6
CONTINUOUS
10
0.3441640157480315
20
0.2720814173228346
11
0.34422
21
0.2721703543307086
0
LINE
8
BLACK
6
CONTINUOUS
10
0.34422
20
0.2721703543307086
11
0.3442789763779527
21
0.2722215354330709
0
LINE
8
BLACK
6
CONTINUOUS
10
0.3442789763779527
20
0.2722215354330709
11
0.3444647637795276
21
0.272447874015748
0
LINE
8
BLACK
6
CONTINUOUS
10
0.3444647637795276
20
0.272447874015748
11
0.3463395275590551
21
0.2743226377952756
0
LINE
8
BLACK
6
CONTINUOUS
10
0.3463395275590551
20
0.2743226377952756
11
0.346786968503937
21
0.274689842519685
0
LINE
8
BLACK
6
CONTINUOUS
10
0.346786968503937
20
0.274689842519685
11
0.3478513779527559
21
0.2751307480314961
0
LINE
8
BLACK
6
CONTINUOUS
10
0.3478513779527559
20
0.2751307480314961
11
0.3490034645669291
21
0.2751307480314961
0
LINE
8
BLACK
6
CONTINUOUS
10
0.3490034645669291
20
0.2751307480314961
11
0.350067874015748
21
0.274689842519685
0
LINE
8
BLACK
6
CONTINUOUS
10
0.350067874015748
20
0.274689842519685
11
0.3508825590551181
21
0.2738751574803149
0
LINE
8
BLACK
6
CONTINUOUS
10
0.3508825590551181
20
0.2738751574803149
11
0.3513234645669291
21
0.2728107480314961
0
LINE
8
BLACK
6
CONTINUOUS
10
0.3513234645669291
20
0.2728107480314961
11
0.3513234645669291
21
0.2716586614173228
0
LINE
8
BLACK
6
CONTINUOUS
10
0.3513234645669291
20
0.2716586614173228
11
0.3508825590551181
21
0.270594251968504
0
LINE
8
BLACK
6
CONTINUOUS
10
0.3508825590551181
20
0.270594251968504
11
0.3505153543307086
21
0.270146811023622
0
LINE
8
BLACK
6
CONTINUOUS
10
0.3505153543307086
20
0.270146811023622
11
0.3489794094488189
21
0.2686108661417323
0
LINE
8
BLACK
6
CONTINUOUS
10
0.3489794094488189
20
0.2686108661417323
11
0.3476306692913386
21
0.2659133858267717
0
LINE
8
BLACK
6
CONTINUOUS
10
0.3476306692913386
20
0.2659133858267717
11
0.3476306692913386
21
0.2579336614173228
0
LINE
8
BLACK
6
CONTINUOUS
10
0.3476306692913386
20
0.2579336614173228
11
0.3489794094488189
21
0.2552361811023622
0
LINE
8
BLACK
6
CONTINUOUS
10
0.3489794094488189
20
0.2552361811023622
11
0.3501765354330709
21
0.2540390551181103
0
LINE
8
BLACK
6
CONTINUOUS
10
0.3501765354330709
20
0.2540390551181103
11
0.3528740157480315
21
0.2526903149606299
0
LINE
8
BLACK
6
CONTINUOUS
10
0.3528740157480315
20
0.2526903149606299
11
0.3554473622047244
21
0.2526903149606299
0
LINE
8
BLACK
6
CONTINUOUS
10
0.3554473622047244
20
0.2526903149606299
11
0.359955748031496
21
0.2541931496062992
0
LINE
8
BLACK
6
CONTINUOUS
10
0.359955748031496
20
0.2541931496062992
11
0.3819600787401575
21
0.2761974015748032
0
LINE
8
BLACK
6
CONTINUOUS
10
0.3819600787401575
20
0.2761974015748032
11
0.3824075196850394
21
0.2765646456692913
0
LINE
8
BLACK
6
CONTINUOUS
10
0.3824075196850394
20
0.2765646456692913
11
0.383160157480315
21
0.2768764173228346
0
LINE
8
BLACK
6
CONTINUOUS
10
0.383160157480315
20
0.2768764173228346
11
0.3834719291338582
21
0.2770055118110236
0
LINE
8
BLACK
6
CONTINUOUS
10
0.3834719291338582
20
0.2770055118110236
11
0.3846240551181102
21
0.2770055118110236
0
LINE
8
BLACK
6
CONTINUOUS
10
0.3846240551181102
20
0.2770055118110236
11
0.3856884645669291
21
0.2765646062992126
0
LINE
8
BLACK
6
CONTINUOUS
10
0.7818681496062992
20
0.2962031102362205
11
0.782932559055118
21
0.2957622047244094
0
LINE
8
BLACK
6
CONTINUOUS
10
0.782932559055118
20
0.2957622047244094
11
0.7837472047244094
21
0.2949475590551181
0
LINE
8
BLACK
6
CONTINUOUS
10
0.7837472047244094
20
0.2949475590551181
11
0.7841881102362205
21
0.2938831496062992
0
LINE
8
BLACK
6
CONTINUOUS
10
0.7841881102362205
20
0.2938831496062992
11
0.7841881102362205
21
0.2927310236220472
0
LINE
8
BLACK
6
CONTINUOUS
10
0.7841881102362205
20
0.2927310236220472
11
0.7837472047244094
21
0.2916666141732284
0
LINE
8
BLACK
6
CONTINUOUS
10
0.7837472047244094
20
0.2916666141732284
11
0.782932559055118
21
0.290851968503937
0
LINE
8
BLACK
6
CONTINUOUS
10
0.782932559055118
20
0.290851968503937
11
0.7818681496062992
21
0.290411062992126
0
LINE
8
BLACK
6
CONTINUOUS
10
0.7818681496062992
20
0.290411062992126
11
0.7812920866141733
21
0.2903543307086614
0
LINE
8
BLACK
6
CONTINUOUS
10
0.7812920866141733
20
0.2903543307086614
11
0.7654971653543307
21
0.2903543307086614
0
LINE
8
BLACK
6
CONTINUOUS
10
0.7654971653543307
20
0.2903543307086614
11
0.7654971653543307
21
0.2854706692913386
0
LINE
8
BLACK
6
CONTINUOUS
10
0.7654971653543307
20
0.2854706692913386
11
0.7829853937007873
21
0.2732288976377953
0
LINE
8
BLACK
6
CONTINUOUS
10
0.7829853937007873
20
0.2732288976377953
11
0.7834247637795275
21
0.2728520866141732
0
LINE
8
BLACK
6
CONTINUOUS
10
0.7834247637795275
20
0.2728520866141732
11
0.784043937007874
21
0.2718804724409449
0
LINE
8
BLACK
6
CONTINUOUS
10
0.784043937007874
20
0.2718804724409449
11
0.7842441732283464
21
0.2707459448818897
0
LINE
8
BLACK
6
CONTINUOUS
10
0.7842441732283464
20
0.2707459448818897
11
0.7839949606299212
21
0.2696211023622047
0
LINE
8
BLACK
6
CONTINUOUS
10
0.7839949606299212
20
0.2696211023622047
11
0.7833342519685039
21
0.2686772440944882
0
LINE
8
BLACK
6
CONTINUOUS
10
0.7833342519685039
20
0.2686772440944882
11
0.7823626771653543
21
0.2680580708661418
0
LINE
8
BLACK
6
CONTINUOUS
10
0.7823626771653543
20
0.2680580708661418
11
0.7812281102362204
21
0.267857874015748
0
LINE
8
BLACK
6
CONTINUOUS
10
0.7812281102362204
20
0.267857874015748
11
0.7801032677165354
21
0.2681070472440945
0
LINE
8
BLACK
6
CONTINUOUS
10
0.7801032677165354
20
0.2681070472440945
11
0.7795988188976378
21
0.268390905511811
0
LINE
8
BLACK
6
CONTINUOUS
10
0.7795988188976378
20
0.268390905511811
11
0.7654928346456693
21
0.2782650787401575
0
LINE
8
BLACK
6
CONTINUOUS
10
0.7654928346456693
20
0.2782650787401575
11
0.7654404330708662
21
0.2777329133858268
0
LINE
8
BLACK
6
CONTINUOUS
10
0.7654404330708662
20
0.2777329133858268
11
0.7653998425196851
21
0.2776349606299213
0
LINE
8
BLACK
6
CONTINUOUS
10
0.7653998425196851
20
0.2776349606299213
11
0.7653923228346456
21
0.2775290551181102
0
LINE
8
BLACK
6
CONTINUOUS
10
0.7653923228346456
20
0.2775290551181102
11
0.7651854330708662
21
0.2769884645669291
0
LINE
8
BLACK
6
CONTINUOUS
10
0.7651854330708662
20
0.2769884645669291
11
0.7633106692913386
21
0.273238937007874
0
LINE
8
BLACK
6
CONTINUOUS
10
0.7633106692913386
20
0.273238937007874
11
0.7631545669291339
21
0.2729909448818897
0
LINE
8
BLACK
6
CONTINUOUS
10
0.7631545669291339
20
0.2729909448818897
11
0.7631247637795275
21
0.2729189763779528
0
LINE
8
BLACK
6
CONTINUOUS
10
0.7631247637795275
20
0.2729189763779528
11
0.7630582677165354
21
0.272838031496063
0
LINE
8
BLACK
6
CONTINUOUS
10
0.7630582677165354
20
0.272838031496063
11
0.7630023228346456
21
0.2727490551181102
0
LINE
8
BLACK
6
CONTINUOUS
10
0.7630023228346456
20
0.2727490551181102
11
0.7629433070866142
21
0.2726979133858268
0
LINE
8
BLACK
6
CONTINUOUS
10
0.7629433070866142
20
0.2726979133858268
11
0.7627575590551181
21
0.2724715354330708
0
LINE
8
BLACK
6
CONTINUOUS
10
0.7627575590551181
20
0.2724715354330708
11
0.7608827952755906
21
0.2705967716535433
0
LINE
8
BLACK
6
CONTINUOUS
10
0.7608827952755906
20
0.2705967716535433
11
0.7606564173228346
21
0.2704110236220472
0
LINE
8
BLACK
6
CONTINUOUS
10
0.7606564173228346
20
0.2704110236220472
11
0.7606052755905511
21
0.2703520078740158
0
LINE
8
BLACK
6
CONTINUOUS
10
0.7606052755905511
20
0.2703520078740158
11
0.7605162992125984
21
0.270296062992126
0
LINE
8
BLACK
6
CONTINUOUS
10
0.7605162992125984
20
0.270296062992126
11
0.7604353543307086
21
0.2702295669291339
0
LINE
8
BLACK
6
CONTINUOUS
10
0.7604353543307086
20
0.2702295669291339
11
0.7603633858267717
21
0.2701997637795275
0
LINE
8
BLACK
6
CONTINUOUS
10
0.7603633858267717
20
0.2701997637795275
11
0.7601153937007874
21
0.2700436614173228
0
LINE
8
BLACK
6
CONTINUOUS
10
0.7601153937007874
20
0.2700436614173228
11
0.7563658661417323
21
0.2681688976377953
0
LINE
8
BLACK
6
CONTINUOUS
10
0.7563658661417323
20
0.2681688976377953
11
0.7558252362204724
21
0.2679620078740158
0
LINE
8
BLACK
6
CONTINUOUS
10
0.7558252362204724
20
0.2679620078740158
11
0.7557194094488189
21
0.2679545275590551
0
LINE
8
BLACK
6
CONTINUOUS
10
0.7557194094488189
20
0.2679545275590551
11
0.7556214173228346
21
0.2679138976377953
0
LINE
8
BLACK
6
CONTINUOUS
10
0.7556214173228346
20
0.2679138976377953
11
0.7550453543307086
21
0.2678571653543307
0
LINE
8
BLACK
6
CONTINUOUS
10
0.7550453543307086
20
0.2678571653543307
11
0.749421062992126
21
0.2678571653543307
0
LINE
8
BLACK
6
CONTINUOUS
10
0.749421062992126
20
0.2678571653543307
11
0.748845
21
0.2679138976377953
0
LINE
8
BLACK
6
CONTINUOUS
10
0.748845
20
0.2679138976377953
11
0.7487470078740157
21
0.2679544881889764
0
LINE
8
BLACK
6
CONTINUOUS
10
0.7487470078740157
20
0.2679544881889764
11
0.7486411417322835
21
0.2679620078740158
0
LINE
8
BLACK
6
CONTINUOUS
10
0.7486411417322835
20
0.2679620078740158
11
0.7481005511811023
21
0.2681688976377953
0
LINE
8
BLACK
6
CONTINUOUS
10
0.7481005511811023
20
0.2681688976377953
11
0.7443510236220472
21
0.2700436614173228
0
LINE
8
BLACK
6
CONTINUOUS
10
0.7443510236220472
20
0.2700436614173228
11
0.7441029921259842
21
0.2701997637795275
0
LINE
8
BLACK
6
CONTINUOUS
10
0.7441029921259842
20
0.2701997637795275
11
0.744031062992126
21
0.2702295669291339
0
LINE
8
BLACK
6
CONTINUOUS
10
0.744031062992126
20
0.2702295669291339
11
0.7439500787401575
21
0.270296062992126
0
LINE
8
BLACK
6
CONTINUOUS
10
0.7439500787401575
20
0.270296062992126
11
0.7438611417322835
21
0.2703520078740158
0
LINE
8
BLACK
6
CONTINUOUS
10
0.7438611417322835
20
0.2703520078740158
11
0.7438099606299212
21
0.2704110236220472
0
LINE
8
BLACK
6
CONTINUOUS
10
0.7438099606299212
20
0.2704110236220472
11
0.743583622047244
21
0.2705967716535433
0
LINE
8
BLACK
6
CONTINUOUS
10
0.743583622047244
20
0.2705967716535433
11
0.7417088582677165
21
0.2724715354330708
0
LINE
8
BLACK
6
CONTINUOUS
10
0.7417088582677165
20
0.2724715354330708
11
0.7415230708661417
21
0.2726979133858268
0
LINE
8
BLACK
6
CONTINUOUS
10
0.7415230708661417
20
0.2726979133858268
11
0.741464094488189
21
0.2727490551181102
0
LINE
8
BLACK
6
CONTINUOUS
10
0.741464094488189
20
0.2727490551181102
11
0.7414081102362204
21
0.272838031496063
0
LINE
8
BLACK
6
CONTINUOUS
10
0.7414081102362204
20
0.272838031496063
11
0.7413416535433071
21
0.2729189763779528
0
LINE
8
BLACK
6
CONTINUOUS
10
0.7413416535433071
20
0.2729189763779528
11
0.741311811023622
21
0.2729909448818897
0
LINE
8
BLACK
6
CONTINUOUS
10
0.741311811023622
20
0.2729909448818897
11
0.7411557480314961
21
0.273238937007874
0
LINE
8
BLACK
6
CONTINUOUS
10
0.7411557480314961
20
0.273238937007874
11
0.7392809842519685
21
0.2769884645669291
0
LINE
8
BLACK
6
CONTINUOUS
10
0.7392809842519685
20
0.2769884645669291
11
0.7390740944881889
21
0.277529094488189
0
LINE
8
BLACK
6
CONTINUOUS
10
0.7390740944881889
20
0.277529094488189
11
0.7390665748031496
21
0.2776349212598425
0
LINE
8
BLACK
6
CONTINUOUS
10
0.7390665748031496
20
0.2776349212598425
11
0.7390259842519685
21
0.2777329133858268
0
LINE
8
BLACK
6
CONTINUOUS
10
0.7390259842519685
20
0.2777329133858268
11
0.7389692519685039
21
0.2783089763779528
0
LINE
8
BLACK
6
CONTINUOUS
10
0.7389692519685039
20
0.2783089763779528
11
0.7389692519685039
21
0.2933070866141732
0
LINE
8
BLACK
6
CONTINUOUS
10
0.7389692519685039
20
0.2933070866141732
11
0.7390259842519685
21
0.2938831496062992
0
LINE
8
BLACK
6
CONTINUOUS
10
0.7390259842519685
20
0.2938831496062992
11
0.7394668897637795
21
0.2949475590551181
0
LINE
8
BLACK
6
CONTINUOUS
10
0.7394668897637795
20
0.2949475590551181
11
0.7402815354330708
21
0.2957622047244094
0
LINE
8
BLACK
6
CONTINUOUS
10
0.7402815354330708
20
0.2957622047244094
11
0.7413459448818898
21
0.2962031102362205
0
LINE
8
BLACK
6
CONTINUOUS
10
0.7413459448818898
20
0.2962031102362205
11
0.7419220078740157
21
0.296259842519685
0
LINE
8
BLACK
6
CONTINUOUS
10
0.7419220078740157
20
0.296259842519685
11
0.7812920866141733
21
0.296259842519685
0
LINE
8
BLACK
6
CONTINUOUS
10
0.7812920866141733
20
0.296259842519685
11
0.7818681496062992
21
0.2962031102362205
0
LINE
8
BLACK
6
CONTINUOUS
10
0.7448747637795275
20
0.2790060236220472
11
0.7462235039370079
21
0.2763085433070866
0
LINE
8
BLACK
6
CONTINUOUS
10
0.7462235039370079
20
0.2763085433070866
11
0.7474206299212598
21
0.2751114173228346
0
LINE
8
BLACK
6
CONTINUOUS
10
0.7474206299212598
20
0.2751114173228346
11
0.7501181102362204
21
0.2737626771653544
0
LINE
8
BLACK
6
CONTINUOUS
10
0.7501181102362204
20
0.2737626771653544
11
0.7543483070866142
21
0.2737626771653544
0
LINE
8
BLACK
6
CONTINUOUS
10
0.7543483070866142
20
0.2737626771653544
11
0.7570457874015748
21
0.2751114173228346
0
LINE
8
BLACK
6
CONTINUOUS
10
0.7570457874015748
20
0.2751114173228346
11
0.7582429133858267
21
0.2763085433070866
0
LINE
8
BLACK
6
CONTINUOUS
10
0.7582429133858267
20
0.2763085433070866
11
0.759591653543307
21
0.2790060236220472
0
LINE
8
BLACK
6
CONTINUOUS
10
0.759591653543307
20
0.2790060236220472
11
0.759591653543307
21
0.2903543307086614
0
LINE
8
BLACK
6
CONTINUOUS
10
0.759591653543307
20
0.2903543307086614
11
0.7448747637795275
21
0.2903543307086614
0
LINE
8
BLACK
6
CONTINUOUS
10
0.7448747637795275
20
0.2903543307086614
11
0.7448747637795275
21
0.2790060236220472
0
LINE
8
BLACK
6
CONTINUOUS
10
0.3846240551181102
20
0.312626062992126
11
0.3856884645669291
21
0.3121851574803149
0
LINE
8
BLACK
6
CONTINUOUS
10
0.3856884645669291
20
0.3121851574803149
11
0.3865031102362205
21
0.3113705118110236
0
LINE
8
BLACK
6
CONTINUOUS
10
0.3865031102362205
20
0.3113705118110236
11
0.3869440157480315
21
0.3103061023622047
0
LINE
8
BLACK
6
CONTINUOUS
10
0.3869440157480315
20
0.3103061023622047
11
0.3869440157480315
21
0.3091539763779527
0
LINE
8
BLACK
6
CONTINUOUS
10
0.3869440157480315
20
0.3091539763779527
11
0.3865031102362205
21
0.3080895669291339
0
LINE
8
BLACK
6
CONTINUOUS
10
0.3865031102362205
20
0.3080895669291339
11
0.3856884645669291
21
0.3072749212598425
0
LINE
8
BLACK
6
CONTINUOUS
10
0.3856884645669291
20
0.3072749212598425
11
0.3846240551181102
21
0.3068340157480315
0
LINE
8
BLACK
6
CONTINUOUS
10
0.3846240551181102
20
0.3068340157480315
11
0.3840479921259842
21
0.3067772834645669
0
LINE
8
BLACK
6
CONTINUOUS
10
0.3840479921259842
20
0.3067772834645669
11
0.3682530708661417
21
0.3067772834645669
0
LINE
8
BLACK
6
CONTINUOUS
10
0.3682530708661417
20
0.3067772834645669
11
0.3682530708661417
21
0.2947319291338583
0
LINE
8
BLACK
6
CONTINUOUS
10
0.3682530708661417
20
0.2947319291338583
11
0.3681963385826771
21
0.2941558661417323
0
LINE
8
BLACK
6
CONTINUOUS
10
0.3681963385826771
20
0.2941558661417323
11
0.368155748031496
21
0.2940579133858268
0
LINE
8
BLACK
6
CONTINUOUS
10
0.368155748031496
20
0.2940579133858268
11
0.3681482283464567
21
0.2939520078740158
0
LINE
8
BLACK
6
CONTINUOUS
10
0.3681482283464567
20
0.2939520078740158
11
0.3679413385826771
21
0.2934114173228347
0
LINE
8
BLACK
6
CONTINUOUS
10
0.3679413385826771
20
0.2934114173228347
11
0.3660665748031496
21
0.2896618897637795
0
LINE
8
BLACK
6
CONTINUOUS
10
0.3660665748031496
20
0.2896618897637795
11
0.3659104724409449
21
0.2894138976377953
0
LINE
8
BLACK
6
CONTINUOUS
10
0.3659104724409449
20
0.2894138976377953
11
0.3658806692913386
21
0.2893419291338583
0
LINE
8
BLACK
6
CONTINUOUS
10
0.3658806692913386
20
0.2893419291338583
11
0.3658141732283465
21
0.2892609842519685
0
LINE
8
BLACK
6
CONTINUOUS
10
0.3658141732283465
20
0.2892609842519685
11
0.3657582283464567
21
0.2891720078740158
0
LINE
8
BLACK
6
CONTINUOUS
10
0.3657582283464567
20
0.2891720078740158
11
0.3656992125984252
21
0.2891208661417323
0
LINE
8
BLACK
6
CONTINUOUS
10
0.3656992125984252
20
0.2891208661417323
11
0.3655134645669291
21
0.2888944881889764
0
LINE
8
BLACK
6
CONTINUOUS
10
0.3655134645669291
20
0.2888944881889764
11
0.3636387007874016
21
0.2870197244094488
0
LINE
8
BLACK
6
CONTINUOUS
10
0.3636387007874016
20
0.2870197244094488
11
0.3634123228346456
21
0.2868339763779528
0
LINE
8
BLACK
6
CONTINUOUS
10
0.3634123228346456
20
0.2868339763779528
11
0.3633611811023622
21
0.2867749606299212
0
LINE
8
BLACK
6
CONTINUOUS
10
0.3633611811023622
20
0.2867749606299212
11
0.3632722047244095
21
0.2867190157480315
0
LINE
8
BLACK
6
CONTINUOUS
10
0.3632722047244095
20
0.2867190157480315
11
0.3631912598425197
21
0.2866525196850394
0
LINE
8
BLACK
6
CONTINUOUS
10
0.3631912598425197
20
0.2866525196850394
11
0.3631192913385827
21
0.2866227165354331
0
LINE
8
BLACK
6
CONTINUOUS
10
0.3631192913385827
20
0.2866227165354331
11
0.3628712992125984
21
0.2864666141732283
0
LINE
8
BLACK
6
CONTINUOUS
10
0.3628712992125984
20
0.2864666141732283
11
0.3591217716535433
21
0.2845918503937008
0
LINE
8
BLACK
6
CONTINUOUS
10
0.3591217716535433
20
0.2845918503937008
11
0.3585811417322834
21
0.2843849606299212
0
LINE
8
BLACK
6
CONTINUOUS
10
0.3585811417322834
20
0.2843849606299212
11
0.3584753149606299
21
0.2843774803149606
0
LINE
8
BLACK
6
CONTINUOUS
10
0.3584753149606299
20
0.2843774803149606
11
0.3583773228346457
21
0.2843368503937008
0
LINE
8
BLACK
6
CONTINUOUS
10
0.3583773228346457
20
0.2843368503937008
11
0.3578012598425197
21
0.2842801181102362
0
LINE
8
BLACK
6
CONTINUOUS
10
0.3578012598425197
20
0.2842801181102362
11
0.352176968503937
21
0.2842801181102362
0
LINE
8
BLACK
6
CONTINUOUS
10
0.352176968503937
20
0.2842801181102362
11
0.351600905511811
21
0.2843368503937008
0
LINE
8
BLACK
6
CONTINUOUS
10
0.351600905511811
20
0.2843368503937008
11
0.3515029133858268
21
0.2843774409448819
0
LINE
8
BLACK
6
CONTINUOUS
10
0.3515029133858268
20
0.2843774409448819
11
0.3513970472440945
21
0.2843849606299212
0
LINE
8
BLACK
6
CONTINUOUS
10
0.3513970472440945
20
0.2843849606299212
11
0.3508564566929134
21
0.2845918503937008
0
LINE
8
BLACK
6
CONTINUOUS
10
0.3508564566929134
20
0.2845918503937008
11
0.3471069291338583
21
0.2864666141732283
0
LINE
8
BLACK
6
CONTINUOUS
10
0.3471069291338583
20
0.2864666141732283
11
0.3468588976377953
21
0.2866227165354331
0
LINE
8
BLACK
6
CONTINUOUS
10
0.3468588976377953
20
0.2866227165354331
11
0.346786968503937
21
0.2866525196850394
0
LINE
8
BLACK
6
CONTINUOUS
10
0.346786968503937
20
0.2866525196850394
11
0.3467059842519685
21
0.2867190157480315
0
LINE
8
BLACK
6
CONTINUOUS
10
0.3467059842519685
20
0.2867190157480315
11
0.3466170472440945
21
0.2867749606299212
0
LINE
8
BLACK
6
CONTINUOUS
10
0.3466170472440945
20
0.2867749606299212
11
0.3465658661417323
21
0.2868339763779528
0
LINE
8
BLACK
6
CONTINUOUS
10
0.3465658661417323
20
0.2868339763779528
11
0.3463395275590551
21
0.2870197244094488
0
LINE
8
BLACK
6
CONTINUOUS
10
0.3463395275590551
20
0.2870197244094488
11
0.3444647637795276
21
0.2888944881889764
0
LINE
8
BLACK
6
CONTINUOUS
10
0.3444647637795276
20
0.2888944881889764
11
0.3442789763779527
21
0.2891208661417323
0
LINE
8
BLACK
6
CONTINUOUS
10
0.3442789763779527
20
0.2891208661417323
11
0.34422
21
0.2891720078740158
0
LINE
8
BLACK
6
CONTINUOUS
10
0.34422
20
0.2891720078740158
11
0.3441640157480315
21
0.2892609842519685
0
LINE
8
BLACK
6
CONTINUOUS
10
0.3441640157480315
20
0.2892609842519685
11
0.3440975590551181
21
0.2893419291338583
0
LINE
8
BLACK
6
CONTINUOUS
10
0.3440975590551181
20
0.2893419291338583
11
0.3440677165354331
21
0.2894138976377953
0
LINE
8
BLACK
6
CONTINUOUS
10
0.3440677165354331
20
0.2894138976377953
11
0.3439116535433071
21
0.2896618897637795
0
LINE
8
BLACK
6
CONTINUOUS
10
0.3439116535433071
20
0.2896618897637795
11
0.3420368897637795
21
0.2934114173228347
0
LINE
8
BLACK
6
CONTINUOUS
10
0.3420368897637795
20
0.2934114173228347
11
0.34183
21
0.2939520472440945
0
LINE
8
BLACK
6
CONTINUOUS
10
0.34183
20
0.2939520472440945
11
0.3418224803149606
21
0.294057874015748
0
LINE
8
BLACK
6
CONTINUOUS
10
0.3418224803149606
20
0.294057874015748
11
0.3417818897637795
21
0.2941558661417323
0
LINE
8
BLACK
6
CONTINUOUS
10
0.3417818897637795
20
0.2941558661417323
11
0.341725157480315
21
0.2947319291338583
0
LINE
8
BLACK
6
CONTINUOUS
10
0.341725157480315
20
0.2947319291338583
11
0.341725157480315
21
0.3097300393700788
0
LINE
8
BLACK
6
CONTINUOUS
10
0.341725157480315
20
0.3097300393700788
11
0.3417818897637795
21
0.3103061023622047
0
LINE
8
BLACK
6
CONTINUOUS
10
0.3417818897637795
20
0.3103061023622047
11
0.3422227952755905
21
0.3113705118110236
0
LINE
8
BLACK
6
CONTINUOUS
10
0.3422227952755905
20
0.3113705118110236
11
0.3430374409448819
21
0.3121851574803149
0
LINE
8
BLACK
6
CONTINUOUS
10
0.3430374409448819
20
0.3121851574803149
11
0.3441018503937008
21
0.312626062992126
0
LINE
8
BLACK
6
CONTINUOUS
10
0.3441018503937008
20
0.312626062992126
11
0.3446779133858268
21
0.3126827952755906
0
LINE
8
BLACK
6
CONTINUOUS
10
0.3446779133858268
20
0.3126827952755906
11
0.3840479921259842
21
0.3126827952755906
0
LINE
8
BLACK
6
CONTINUOUS
10
0.3840479921259842
20
0.3126827952755906
11
0.3846240551181102
21
0.312626062992126
0
LINE
8
BLACK
6
CONTINUOUS
10
0.3476306692913386
20
0.2954289763779527
11
0.3489794094488189
21
0.2927314960629921
0
LINE
8
BLACK
6
CONTINUOUS
10
0.3489794094488189
20
0.2927314960629921
11
0.3501765354330709
21
0.2915343700787402
0
LINE
8
BLACK
6
CONTINUOUS
10
0.3501765354330709
20
0.2915343700787402
11
0.3528740157480315
21
0.2901856299212598
0
LINE
8
BLACK
6
CONTINUOUS
10
0.3528740157480315
20
0.2901856299212598
11
0.3571042125984252
21
0.2901856299212598
0
LINE
8
BLACK
6
CONTINUOUS
10
0.3571042125984252
20
0.2901856299212598
11
0.3598016929133858
21
0.2915343700787402
0
LINE
8
BLACK
6
CONTINUOUS
10
0.3598016929133858
20
0.2915343700787402
11
0.3609988188976378
21
0.2927314960629921
0
LINE
8
BLACK
6
CONTINUOUS
10
0.3609988188976378
20
0.2927314960629921
11
0.3623475590551181
21
0.2954289763779527
0
LINE
8
BLACK
6
CONTINUOUS
10
0.3623475590551181
20
0.2954289763779527
11
0.3623475590551181
21
0.3067772834645669
0
LINE
8
BLACK
6
CONTINUOUS
10
0.3623475590551181
20
0.3067772834645669
11
0.3476306692913386
21
0.3067772834645669
0
LINE
8
BLACK
6
CONTINUOUS
10
0.3476306692913386
20
0.3067772834645669
11
0.3476306692913386
21
0.2954289763779527
0
LINE
8
BLACK
6
CONTINUOUS
10
0.7917987401574803
20
0.342903031496063
11
0.7927560236220472
21
0.342261968503937
0
LINE
8
BLACK
6
CONTINUOUS
10
0.7927560236220472
20
0.342261968503937
11
0.7933951181102362
21
0.3413033464566929
0
LINE
8
BLACK
6
CONTINUOUS
10
0.7933951181102362
20
0.3413033464566929
11
0.7936186614173228
21
0.3401731102362205
0
LINE
8
BLACK
6
CONTINUOUS
10
0.7936186614173228
20
0.3401731102362205
11
0.7933927165354331
21
0.3390434251968504
0
LINE
8
BLACK
6
CONTINUOUS
10
0.7933927165354331
20
0.3390434251968504
11
0.7927516535433071
21
0.3380861417322835
0
LINE
8
BLACK
6
CONTINUOUS
10
0.7927516535433071
20
0.3380861417322835
11
0.7923038188976378
21
0.3377193700787401
0
LINE
8
BLACK
6
CONTINUOUS
10
0.7923038188976378
20
0.3377193700787401
11
0.7416851181102362
21
0.3039736220472441
0
LINE
8
BLACK
6
CONTINUOUS
10
0.7416851181102362
20
0.3039736220472441
11
0.7411743700787401
21
0.3037012992125984
0
LINE
8
BLACK
6
CONTINUOUS
10
0.7411743700787401
20
0.3037012992125984
11
0.7400441338582677
21
0.303477716535433
0
LINE
8
BLACK
6
CONTINUOUS
10
0.7400441338582677
20
0.303477716535433
11
0.7389144488188977
21
0.3037036614173228
0
LINE
8
BLACK
6
CONTINUOUS
10
0.7389144488188977
20
0.3037036614173228
11
0.7379571653543306
21
0.3043447244094488
0
LINE
8
BLACK
6
CONTINUOUS
10
0.7379571653543306
20
0.3043447244094488
11
0.7373180708661418
21
0.3053033464566929
0
LINE
8
BLACK
6
CONTINUOUS
10
0.7373180708661418
20
0.3053033464566929
11
0.7370944881889764
21
0.3064335826771654
0
LINE
8
BLACK
6
CONTINUOUS
10
0.7370944881889764
20
0.3064335826771654
11
0.7373204330708661
21
0.3075632677165354
0
LINE
8
BLACK
6
CONTINUOUS
10
0.7373204330708661
20
0.3075632677165354
11
0.7379614960629921
21
0.3085205511811023
0
LINE
8
BLACK
6
CONTINUOUS
10
0.7379614960629921
20
0.3085205511811023
11
0.7384093700787402
21
0.3088873228346457
0
LINE
8
BLACK
6
CONTINUOUS
10
0.7384093700787402
20
0.3088873228346457
11
0.7890280314960629
21
0.3426330708661417
0
LINE
8
BLACK
6
CONTINUOUS
10
0.7890280314960629
20
0.3426330708661417
11
0.7895388188976378
21
0.3429053937007874
0
LINE
8
BLACK
6
CONTINUOUS
10
0.7895388188976378
20
0.3429053937007874
11
0.7906690157480315
21
0.3431289763779528
0
LINE
8
BLACK
6
CONTINUOUS
10
0.7906690157480315
20
0.3431289763779528
11
0.7917987401574803
21
0.342903031496063
0
LINE
8
BLACK
6
CONTINUOUS
10
0.3856884645669291
20
0.3459309448818897
11
0.3865031102362205
21
0.3451162992125984
0
LINE
8
BLACK
6
CONTINUOUS
10
0.3865031102362205
20
0.3451162992125984
11
0.3869440157480315
21
0.3440518897637795
0
LINE
8
BLACK
6
CONTINUOUS
10
0.3869440157480315
20
0.3440518897637795
11
0.387000748031496
21
0.3434758267716536
0
LINE
8
BLACK
6
CONTINUOUS
10
0.387000748031496
20
0.3434758267716536
11
0.387000748031496
21
0.3397262992125984
0
LINE
8
BLACK
6
CONTINUOUS
10
0.387000748031496
20
0.3397262992125984
11
0.3869720078740158
21
0.3394347244094488
0
LINE
8
BLACK
6
CONTINUOUS
10
0.3869720078740158
20
0.3394347244094488
11
0.3869775590551181
21
0.339356968503937
0
LINE
8
BLACK
6
CONTINUOUS
10
0.3869775590551181
20
0.339356968503937
11
0.3869542913385827
21
0.3392547244094488
0
LINE
8
BLACK
6
CONTINUOUS
10
0.3869542913385827
20
0.3392547244094488
11
0.3869440157480315
21
0.3391502362204724
0
LINE
8
BLACK
6
CONTINUOUS
10
0.3869440157480315
20
0.3391502362204724
11
0.3869141338582677
21
0.3390781889763779
0
LINE
8
BLACK
6
CONTINUOUS
10
0.3869141338582677
20
0.3390781889763779
11
0.3868492125984252
21
0.3387925196850394
0
LINE
8
BLACK
6
CONTINUOUS
10
0.3868492125984252
20
0.3387925196850394
11
0.3849744488188976
21
0.3331682677165354
0
LINE
8
BLACK
6
CONTINUOUS
10
0.3849744488188976
20
0.3331682677165354
11
0.3847384645669291
21
0.3326396850393701
0
LINE
8
BLACK
6
CONTINUOUS
10
0.3847384645669291
20
0.3326396850393701
11
0.3846689763779527
21
0.3325596062992126
0
LINE
8
BLACK
6
CONTINUOUS
10
0.3846689763779527
20
0.3325596062992126
11
0.3846283858267717
21
0.3324615354330708
0
LINE
8
BLACK
6
CONTINUOUS
10
0.3846283858267717
20
0.3324615354330708
11
0.3842611417322834
21
0.332014094488189
0
LINE
8
BLACK
6
CONTINUOUS
10
0.3842611417322834
20
0.332014094488189
11
0.3805115748031496
21
0.3282645669291339
0
LINE
8
BLACK
6
CONTINUOUS
10
0.3805115748031496
20
0.3282645669291339
11
0.380064094488189
21
0.3278973228346457
0
LINE
8
BLACK
6
CONTINUOUS
10
0.380064094488189
20
0.3278973228346457
11
0.3799660236220472
21
0.3278567322834646
0
LINE
8
BLACK
6
CONTINUOUS
10
0.3799660236220472
20
0.3278567322834646
11
0.3798859448818898
21
0.3277872440944882
0
LINE
8
BLACK
6
CONTINUOUS
10
0.3798859448818898
20
0.3277872440944882
11
0.3793574015748031
21
0.3275512598425197
0
LINE
8
BLACK
6
CONTINUOUS
10
0.3793574015748031
20
0.3275512598425197
11
0.3737331102362205
21
0.3256764960629921
0
LINE
8
BLACK
6
CONTINUOUS
10
0.3737331102362205
20
0.3256764960629921
11
0.3734475196850394
21
0.3256115748031496
0
LINE
8
BLACK
6
CONTINUOUS
10
0.3734475196850394
20
0.3256115748031496
11
0.3733754330708661
21
0.3255816929133858
0
LINE
8
BLACK
6
CONTINUOUS
10
0.3733754330708661
20
0.3255816929133858
11
0.373270905511811
21
0.3255714173228346
0
LINE
8
BLACK
6
CONTINUOUS
10
0.373270905511811
20
0.3255714173228346
11
0.3731686614173228
21
0.3255481496062992
0
LINE
8
BLACK
6
CONTINUOUS
10
0.3731686614173228
20
0.3255481496062992
11
0.373090905511811
21
0.3255537007874016
0
LINE
8
BLACK
6
CONTINUOUS
10
0.373090905511811
20
0.3255537007874016
11
0.3727993700787401
21
0.3255249606299213
0
LINE
8
BLACK
6
CONTINUOUS
10
0.3727993700787401
20
0.3255249606299213
11
0.3446779133858268
21
0.3255249606299213
0
LINE
8
BLACK
6
CONTINUOUS
10
0.3446779133858268
20
0.3255249606299213
11
0.3441018503937008
21
0.3255816929133858
0
LINE
8
BLACK
6
CONTINUOUS
10
0.3441018503937008
20
0.3255816929133858
11
0.3430374409448819
21
0.3260225984251968
0
LINE
8
BLACK
6
CONTINUOUS
10
0.3430374409448819
20
0.3260225984251968
11
0.3422227952755905
21
0.3268372440944882
0
LINE
8
BLACK
6
CONTINUOUS
10
0.3422227952755905
20
0.3268372440944882
11
0.3417818897637795
21
0.3279016535433071
0
LINE
8
BLACK
6
CONTINUOUS
10
0.3417818897637795
20
0.3279016535433071
11
0.3417818897637795
21
0.329053779527559
0
LINE
8
BLACK
6
CONTINUOUS
10
0.3417818897637795
20
0.329053779527559
11
0.3422227952755905
21
0.330118188976378
0
LINE
8
BLACK
6
CONTINUOUS
10
0.3422227952755905
20
0.330118188976378
11
0.3430374409448819
21
0.3309328346456693
0
LINE
8
BLACK
6
CONTINUOUS
10
0.3430374409448819
20
0.3309328346456693
11
0.3441018503937008
21
0.3313737401574803
0
LINE
8
BLACK
6
CONTINUOUS
10
0.3441018503937008
20
0.3313737401574803
11
0.3446779133858268
21
0.3314304724409449
0
LINE
8
BLACK
6
CONTINUOUS
10
0.3446779133858268
20
0.3314304724409449
11
0.3723202362204724
21
0.3314304724409449
0
LINE
8
BLACK
6
CONTINUOUS
10
0.3723202362204724
20
0.3314304724409449
11
0.3768286220472441
21
0.3329333070866142
0
LINE
8
BLACK
6
CONTINUOUS
10
0.3768286220472441
20
0.3329333070866142
11
0.3795924409448819
21
0.3356970866141732
0
LINE
8
BLACK
6
CONTINUOUS
10
0.3795924409448819
20
0.3356970866141732
11
0.3810952362204724
21
0.3402054330708661
0
LINE
8
BLACK
6
CONTINUOUS
10
0.3810952362204724
20
0.3402054330708661
11
0.3810952362204724
21
0.3434758267716536
0
LINE
8
BLACK
6
CONTINUOUS
10
0.3810952362204724
20
0.3434758267716536
11
0.381151968503937
21
0.3440518897637795
0
LINE
8
BLACK
6
CONTINUOUS
10
0.381151968503937
20
0.3440518897637795
11
0.381592874015748
21
0.3451162992125984
0
LINE
8
BLACK
6
CONTINUOUS
10
0.381592874015748
20
0.3451162992125984
11
0.3824075196850394
21
0.3459309448818897
0
LINE
8
BLACK
6
CONTINUOUS
10
0.3824075196850394
20
0.3459309448818897
11
0.3834719291338582
21
0.3463718503937008
0
LINE
8
BLACK
6
CONTINUOUS
10
0.3834719291338582
20
0.3463718503937008
11
0.3846240551181102
21
0.3463718503937008
0
LINE
8
BLACK
6
CONTINUOUS
10
0.3846240551181102
20
0.3463718503937008
11
0.3856884645669291
21
0.3459309448818897
0
LINE
8
BLACK
6
CONTINUOUS
10
0.7435624803149606
20
0.3726275984251968
11
0.744377125984252
21
0.3718129527559055
0
LINE
8
BLACK
6
CONTINUOUS
10
0.744377125984252
20
0.3718129527559055
11
0.744818031496063
21
0.3707485433070866
0
LINE
8
BLACK
6
CONTINUOUS
10
0.744818031496063
20
0.3707485433070866
11
0.7448747637795275
21
0.3701724803149606
0
LINE
8
BLACK
6
CONTINUOUS
10
0.7448747637795275
20
0.3701724803149606
11
0.7448747637795275
21
0.3618766535433071
0
LINE
8
BLACK
6
CONTINUOUS
10
0.7448747637795275
20
0.3618766535433071
11
0.7812920866141733
21
0.3618766535433071
0
LINE
8
BLACK
6
CONTINUOUS
10
0.7812920866141733
20
0.3618766535433071
11
0.7818681496062992
21
0.3618199212598425
0
LINE
8
BLACK
6
CONTINUOUS
10
0.7818681496062992
20
0.3618199212598425
11
0.782932559055118
21
0.3613790157480315
0
LINE
8
BLACK
6
CONTINUOUS
10
0.782932559055118
20
0.3613790157480315
11
0.7837472047244094
21
0.3605643700787401
0
LINE
8
BLACK
6
CONTINUOUS
10
0.7837472047244094
20
0.3605643700787401
11
0.7841881102362205
21
0.3594999606299212
0
LINE
8
BLACK
6
CONTINUOUS
10
0.7841881102362205
20
0.3594999606299212
11
0.7841881102362205
21
0.3583478346456693
0
LINE
8
BLACK
6
CONTINUOUS
10
0.7841881102362205
20
0.3583478346456693
11
0.7837472047244094
21
0.3572834251968504
0
LINE
8
BLACK
6
CONTINUOUS
10
0.7837472047244094
20
0.3572834251968504
11
0.782932559055118
21
0.3564687795275591
0
LINE
8
BLACK
6
CONTINUOUS
10
0.782932559055118
20
0.3564687795275591
11
0.7818681496062992
21
0.356027874015748
0
LINE
8
BLACK
6
CONTINUOUS
10
0.7818681496062992
20
0.356027874015748
11
0.7812920866141733
21
0.3559711417322834
0
LINE
8
BLACK
6
CONTINUOUS
10
0.7812920866141733
20
0.3559711417322834
11
0.7448747637795275
21
0.3559711417322834
0
LINE
8
BLACK
6
CONTINUOUS
10
0.7448747637795275
20
0.3559711417322834
11
0.7448747637795275
21
0.3476753149606299
0
LINE
8
BLACK
6
CONTINUOUS
10
0.7448747637795275
20
0.3476753149606299
11
0.744818031496063
21
0.3470992519685039
0
LINE
8
BLACK
6
CONTINUOUS
10
0.744818031496063
20
0.3470992519685039
11
0.744377125984252
21
0.346034842519685
0
LINE
8
BLACK
6
CONTINUOUS
10
0.744377125984252
20
0.346034842519685
11
0.7435624803149606
21
0.3452201968503937
0
LINE
8
BLACK
6
CONTINUOUS
10
0.7435624803149606
20
0.3452201968503937
11
0.7424980708661417
21
0.3447792913385826
0
LINE
8
BLACK
6
CONTINUOUS
10
0.7424980708661417
20
0.3447792913385826
11
0.7413459448818898
21
0.3447792913385826
0
LINE
8
BLACK
6
CONTINUOUS
10
0.7413459448818898
20
0.3447792913385826
11
0.7402815354330708
21
0.3452201968503937
0
LINE
8
BLACK
6
CONTINUOUS
10
0.7402815354330708
20
0.3452201968503937
11
0.7394668897637795
21
0.346034842519685
0
LINE
8
BLACK
6
CONTINUOUS
10
0.7394668897637795
20
0.346034842519685
11
0.7390259842519685
21
0.3470992519685039
0
LINE
8
BLACK
6
CONTINUOUS
10
0.7390259842519685
20
0.3470992519685039
11
0.7389692519685039
21
0.3476753149606299
0
LINE
8
BLACK
6
CONTINUOUS
10
0.7389692519685039
20
0.3476753149606299
11
0.7389692519685039
21
0.3701724803149606
0
LINE
8
BLACK
6
CONTINUOUS
10
0.7389692519685039
20
0.3701724803149606
11
0.7390259842519685
21
0.3707485433070866
0
LINE
8
BLACK
6
CONTINUOUS
10
0.7390259842519685
20
0.3707485433070866
11
0.7394668897637795
21
0.3718129527559055
0
LINE
8
BLACK
6
CONTINUOUS
10
0.7394668897637795
20
0.3718129527559055
11
0.7402815354330708
21
0.3726275984251968
0
LINE
8
BLACK
6
CONTINUOUS
10
0.7402815354330708
20
0.3726275984251968
11
0.7413459448818898
21
0.3730685039370079
0
LINE
8
BLACK
6
CONTINUOUS
10
0.7413459448818898
20
0.3730685039370079
11
0.7424980708661417
21
0.3730685039370079
0
LINE
8
BLACK
6
CONTINUOUS
10
0.7424980708661417
20
0.3730685039370079
11
0.7435624803149606
21
0.3726275984251968
0
LINE
8
BLACK
6
CONTINUOUS
10
0.5346591338582677
20
0.3951613779527559
11
0.5356896456692913
21
0.3946461023622047
0
LINE
8
BLACK
6
CONTINUOUS
10
0.5356896456692913
20
0.3946461023622047
11
0.5364444881889764
21
0.3937757480314961
0
LINE
8
BLACK
6
CONTINUOUS
10
0.5364444881889764
20
0.3937757480314961
11
0.5368088188976378
21
0.3926827559055118
0
LINE
8
BLACK
6
CONTINUOUS
10
0.5368088188976378
20
0.3926827559055118
11
0.5367271653543307
21
0.3915335433070866
0
LINE
8
BLACK
6
CONTINUOUS
10
0.5367271653543307
20
0.3915335433070866
11
0.5365202755905512
21
0.3909929527559055
0
LINE
8
BLACK
6
CONTINUOUS
10
0.5365202755905512
20
0.3909929527559055
11
0.5346455118110236
21
0.3872434251968504
0
LINE
8
BLACK
6
CONTINUOUS
10
0.5346455118110236
20
0.3872434251968504
11
0.5344894881889763
21
0.3869956299212599
0
LINE
8
BLACK
6
CONTINUOUS
10
0.5344894881889763
20
0.3869956299212599
11
0.5344596456692913
21
0.3869234645669291
0
LINE
8
BLACK
6
CONTINUOUS
10
0.5344596456692913
20
0.3869234645669291
11
0.534393031496063
21
0.3868423228346456
0
LINE
8
BLACK
6
CONTINUOUS
10
0.534393031496063
20
0.3868423228346456
11
0.5343371653543307
21
0.3867535433070866
0
LINE
8
BLACK
6
CONTINUOUS
10
0.5343371653543307
20
0.3867535433070866
11
0.5342782283464567
21
0.3867024409448819
0
LINE
8
BLACK
6
CONTINUOUS
10
0.5342782283464567
20
0.3867024409448819
11
0.5340924015748031
21
0.3864760236220472
0
LINE
8
BLACK
6
CONTINUOUS
10
0.5340924015748031
20
0.3864760236220472
11
0.5316340157480315
21
0.3840176377952756
0
LINE
8
BLACK
6
CONTINUOUS
10
0.5316340157480315
20
0.3840176377952756
11
0.5590479921259842
21
0.3840176377952756
0
LINE
8
BLACK
6
CONTINUOUS
10
0.5590479921259842
20
0.3840176377952756
11
0.5590479921259842
21
0.3923134645669291
0
LINE
8
BLACK
6
CONTINUOUS
10
0.5590479921259842
20
0.3923134645669291
11
0.5591047244094488
21
0.3928895275590551
0
LINE
8
BLACK
6
CONTINUOUS
10
0.5591047244094488
20
0.3928895275590551
11
0.5595456299212598
21
0.393953937007874
0
LINE
8
BLACK
6
CONTINUOUS
10
0.5595456299212598
20
0.393953937007874
11
0.5603602755905511
21
0.3947685826771654
0
LINE
8
BLACK
6
CONTINUOUS
10
0.5603602755905511
20
0.3947685826771654
11
0.56142468503937
21
0.3952094881889764
0
LINE
8
BLACK
6
CONTINUOUS
10
0.56142468503937
20
0.3952094881889764
11
0.562576811023622
21
0.3952094881889764
0
LINE
8
BLACK
6
CONTINUOUS
10
0.562576811023622
20
0.3952094881889764
11
0.5636412204724409
21
0.3947685826771654
0
LINE
8
BLACK
6
CONTINUOUS
10
0.5636412204724409
20
0.3947685826771654
11
0.5644558661417323
21
0.393953937007874
0
LINE
8
BLACK
6
CONTINUOUS
10
0.5644558661417323
20
0.393953937007874
11
0.5648967716535432
21
0.3928895275590551
0
LINE
8
BLACK
6
CONTINUOUS
10
0.5648967716535432
20
0.3928895275590551
11
0.5649535039370078
21
0.3923134645669291
0
LINE
8
BLACK
6
CONTINUOUS
10
0.5649535039370078
20
0.3923134645669291
11
0.5649535039370078
21
0.3698162992125984
0
LINE
8
BLACK
6
CONTINUOUS
10
0.5649535039370078
20
0.3698162992125984
11
0.5648967716535432
21
0.3692402362204724
0
LINE
8
BLACK
6
CONTINUOUS
10
0.5648967716535432
20
0.3692402362204724
11
0.5644558661417323
21
0.3681758267716536
0
LINE
8
BLACK
6
CONTINUOUS
10
0.5644558661417323
20
0.3681758267716536
11
0.5636412204724409
21
0.3673611811023622
0
LINE
8
BLACK
6
CONTINUOUS
10
0.5636412204724409
20
0.3673611811023622
11
0.562576811023622
21
0.3669202755905512
0
LINE
8
BLACK
6
CONTINUOUS
10
0.562576811023622
20
0.3669202755905512
11
0.56142468503937
21
0.3669202755905512
0
LINE
8
BLACK
6
CONTINUOUS
10
0.56142468503937
20
0.3669202755905512
11
0.5603602755905511
21
0.3673611811023622
0
LINE
8
BLACK
6
CONTINUOUS
10
0.5603602755905511
20
0.3673611811023622
11
0.5595456299212598
21
0.3681758267716536
0
LINE
8
BLACK
6
CONTINUOUS
10
0.5595456299212598
20
0.3681758267716536
11
0.5591047244094488
21
0.3692402362204724
0
LINE
8
BLACK
6
CONTINUOUS
10
0.5591047244094488
20
0.3692402362204724
11
0.5590479921259842
21
0.3698162992125984
0
LINE
8
BLACK
6
CONTINUOUS
10
0.5590479921259842
20
0.3698162992125984
11
0.5590479921259842
21
0.378112125984252
0
LINE
8
BLACK
6
CONTINUOUS
10
0.5590479921259842
20
0.378112125984252
11
0.5226306692913386
21
0.378112125984252
0
LINE
8
BLACK
6
CONTINUOUS
10
0.5226306692913386
20
0.378112125984252
11
0.5226285826771654
21
0.3781123622047244
0
LINE
8
BLACK
6
CONTINUOUS
10
0.5226285826771654
20
0.3781123622047244
11
0.5226275590551182
21
0.378112125984252
0
LINE
8
BLACK
6
CONTINUOUS
10
0.5226275590551182
20
0.378112125984252
11
0.5226245275590551
21
0.3781127559055118
0
LINE
8
BLACK
6
CONTINUOUS
10
0.5226245275590551
20
0.3781127559055118
11
0.5220546062992126
21
0.3781688582677165
0
LINE
8
BLACK
6
CONTINUOUS
10
0.5220546062992126
20
0.3781688582677165
11
0.5217844881889764
21
0.378280748031496
0
LINE
8
BLACK
6
CONTINUOUS
10
0.5217844881889764
20
0.378280748031496
11
0.521497874015748
21
0.3783380708661417
0
LINE
8
BLACK
6
CONTINUOUS
10
0.521497874015748
20
0.3783380708661417
11
0.5212574803149607
21
0.3784990551181102
0
LINE
8
BLACK
6
CONTINUOUS
10
0.5212574803149607
20
0.3784990551181102
11
0.5209901968503937
21
0.3786097637795275
0
LINE
8
BLACK
6
CONTINUOUS
10
0.5209901968503937
20
0.3786097637795275
11
0.5207834645669291
21
0.3788164960629921
0
LINE
8
BLACK
6
CONTINUOUS
10
0.5207834645669291
20
0.3788164960629921
11
0.5205405905511811
21
0.3789791338582677
0
LINE
8
BLACK
6
CONTINUOUS
10
0.5205405905511811
20
0.3789791338582677
11
0.5203800787401575
21
0.3792198818897637
0
LINE
8
BLACK
6
CONTINUOUS
10
0.5203800787401575
20
0.3792198818897637
11
0.5201755511811024
21
0.3794244094488189
0
LINE
8
BLACK
6
CONTINUOUS
10
0.5201755511811024
20
0.3794244094488189
11
0.5200636614173229
21
0.3796945275590551
0
LINE
8
BLACK
6
CONTINUOUS
10
0.5200636614173229
20
0.3796945275590551
11
0.5199014960629921
21
0.3799377559055118
0
LINE
8
BLACK
6
CONTINUOUS
10
0.5199014960629921
20
0.3799377559055118
11
0.5198453543307087
21
0.3802215748031496
0
LINE
8
BLACK
6
CONTINUOUS
10
0.5198453543307087
20
0.3802215748031496
11
0.5197346456692913
21
0.3804888188976378
0
LINE
8
BLACK
6
CONTINUOUS
10
0.5197346456692913
20
0.3804888188976378
11
0.5197346456692913
21
0.380781220472441
0
LINE
8
BLACK
6
CONTINUOUS
10
0.5197346456692913
20
0.380781220472441
11
0.5196779133858268
21
0.3810679921259842
0
LINE
8
BLACK
6
CONTINUOUS
10
0.5196779133858268
20
0.3810679921259842
11
0.5197346456692913
21
0.3813516535433071
0
LINE
8
BLACK
6
CONTINUOUS
10
0.5197346456692913
20
0.3813516535433071
11
0.5197346456692913
21
0.3816409448818898
0
LINE
8
BLACK
6
CONTINUOUS
10
0.5197346456692913
20
0.3816409448818898
11
0.5198464960629922
21
0.381911062992126
0
LINE
8
BLACK
6
CONTINUOUS
10
0.5198464960629922
20
0.381911062992126
11
0.5199038582677166
21
0.3821976771653543
0
LINE
8
BLACK
6
CONTINUOUS
10
0.5199038582677166
20
0.3821976771653543
11
0.5200648031496062
21
0.3824380708661417
0
LINE
8
BLACK
6
CONTINUOUS
10
0.5200648031496062
20
0.3824380708661417
11
0.5201755511811024
21
0.3827053543307087
0
LINE
8
BLACK
6
CONTINUOUS
10
0.5201755511811024
20
0.3827053543307087
11
0.5203822440944882
21
0.3829120866141732
0
LINE
8
BLACK
6
CONTINUOUS
10
0.5203822440944882
20
0.3829120866141732
11
0.5205449212598425
21
0.3831549606299213
0
LINE
8
BLACK
6
CONTINUOUS
10
0.5205449212598425
20
0.3831549606299213
11
0.5209881496062992
21
0.3835179921259843
0
LINE
8
BLACK
6
CONTINUOUS
10
0.5209881496062992
20
0.3835179921259843
11
0.5209901968503937
21
0.38352
0
LINE
8
BLACK
6
CONTINUOUS
10
0.5209901968503937
20
0.38352
11
0.5209910629921259
21
0.3835203937007874
0
LINE
8
BLACK
6
CONTINUOUS
10
0.5209910629921259
20
0.3835203937007874
11
0.5209927559055118
21
0.3835217322834645
0
LINE
8
BLACK
6
CONTINUOUS
10
0.5209927559055118
20
0.3835217322834645
11
0.526373779527559
21
0.387109094488189
0
LINE
8
BLACK
6
CONTINUOUS
10
0.526373779527559
20
0.387109094488189
11
0.5295777559055118
21
0.390313031496063
0
LINE
8
BLACK
6
CONTINUOUS
10
0.5295777559055118
20
0.390313031496063
11
0.5312382283464567
21
0.3936339763779527
0
LINE
8
BLACK
6
CONTINUOUS
10
0.5312382283464567
20
0.3936339763779527
11
0.5315465748031496
21
0.3941238582677165
0
LINE
8
BLACK
6
CONTINUOUS
10
0.5315465748031496
20
0.3941238582677165
11
0.532416968503937
21
0.3948787007874016
0
LINE
8
BLACK
6
CONTINUOUS
10
0.532416968503937
20
0.3948787007874016
11
0.5335099212598425
21
0.395243031496063
0
LINE
8
BLACK
6
CONTINUOUS
10
0.5335099212598425
20
0.395243031496063
11
0.5346591338582677
21
0.3951613779527559
0
LINE
8
BLACK
6
CONTINUOUS
10
0.7818681496062992
20
0.4068142913385827
11
0.782932559055118
21
0.4063733858267716
0
LINE
8
BLACK
6
CONTINUOUS
10
0.782932559055118
20
0.4063733858267716
11
0.7837472047244094
21
0.4055587401574803
0
LINE
8
BLACK
6
CONTINUOUS
10
0.7837472047244094
20
0.4055587401574803
11
0.7841881102362205
21
0.4044943307086614
0
LINE
8
BLACK
6
CONTINUOUS
10
0.7841881102362205
20
0.4044943307086614
11
0.7841881102362205
21
0.4033422047244095
0
LINE
8
BLACK
6
CONTINUOUS
10
0.7841881102362205
20
0.4033422047244095
11
0.7837472047244094
21
0.4022777952755905
0
LINE
8
BLACK
6
CONTINUOUS
10
0.7837472047244094
20
0.4022777952755905
11
0.782932559055118
21
0.4014631496062992
0
LINE
8
BLACK
6
CONTINUOUS
10
0.782932559055118
20
0.4014631496062992
11
0.7818681496062992
21
0.4010222440944882
0
LINE
8
BLACK
6
CONTINUOUS
10
0.7818681496062992
20
0.4010222440944882
11
0.7812920866141733
21
0.4009655118110236
0
LINE
8
BLACK
6
CONTINUOUS
10
0.7812920866141733
20
0.4009655118110236
11
0.7654971653543307
21
0.4009655118110236
0
LINE
8
BLACK
6
CONTINUOUS
10
0.7654971653543307
20
0.4009655118110236
11
0.7654971653543307
21
0.3960818503937008
0
LINE
8
BLACK
6
CONTINUOUS
10
0.7654971653543307
20
0.3960818503937008
11
0.7829853937007873
21
0.3838400787401575
0
LINE
8
BLACK
6
CONTINUOUS
10
0.7829853937007873
20
0.3838400787401575
11
0.7834247637795275
21
0.3834632677165354
0
LINE
8
BLACK
6
CONTINUOUS
10
0.7834247637795275
20
0.3834632677165354
11
0.784043937007874
21
0.3824916535433071
0
LINE
8
BLACK
6
CONTINUOUS
10
0.784043937007874
20
0.3824916535433071
11
0.7842441732283464
21
0.381357125984252
0
LINE
8
BLACK
6
CONTINUOUS
10
0.7842441732283464
20
0.381357125984252
11
0.7839949606299212
21
0.3802322834645669
0
LINE
8
BLACK
6
CONTINUOUS
10
0.7839949606299212
20
0.3802322834645669
11
0.7833342519685039
21
0.3792884251968504
0
LINE
8
BLACK
6
CONTINUOUS
10
0.7833342519685039
20
0.3792884251968504
11
0.7823626771653543
21
0.3786692519685039
0
LINE
8
BLACK
6
CONTINUOUS
10
0.7823626771653543
20
0.3786692519685039
11
0.7812281102362204
21
0.3784690551181102
0
LINE
8
BLACK
6
CONTINUOUS
10
0.7812281102362204
20
0.3784690551181102
11
0.7801032677165354
21
0.3787182283464567
0
LINE
8
BLACK
6
CONTINUOUS
10
0.7801032677165354
20
0.3787182283464567
11
0.7795988188976378
21
0.3790020866141732
0
LINE
8
BLACK
6
CONTINUOUS
10
0.7795988188976378
20
0.3790020866141732
11
0.7654928346456693
21
0.3888762598425197
0
LINE
8
BLACK
6
CONTINUOUS
10
0.7654928346456693
20
0.3888762598425197
11
0.7654404330708662
21
0.388344094488189
0
LINE
8
BLACK
6
CONTINUOUS
10
0.7654404330708662
20
0.388344094488189
11
0.7653998425196851
21
0.3882461417322834
0
LINE
8
BLACK
6
CONTINUOUS
10
0.7653998425196851
20
0.3882461417322834
11
0.7653923228346456
21
0.3881402362204724
0
LINE
8
BLACK
6
CONTINUOUS
10
0.7653923228346456
20
0.3881402362204724
11
0.7651854330708662
21
0.3875996456692913
0
LINE
8
BLACK
6
CONTINUOUS
10
0.7651854330708662
20
0.3875996456692913
11
0.7633106692913386
21
0.3838501181102362
0
LINE
8
BLACK
6
CONTINUOUS
10
0.7633106692913386
20
0.3838501181102362
11
0.7631545669291339
21
0.383602125984252
0
LINE
8
BLACK
6
CONTINUOUS
10
0.7631545669291339
20
0.383602125984252
11
0.7631247637795275
21
0.3835301574803149
0
LINE
8
BLACK
6
CONTINUOUS
10
0.7631247637795275
20
0.3835301574803149
11
0.7630582677165354
21
0.3834492125984252
0
LINE
8
BLACK
6
CONTINUOUS
10
0.7630582677165354
20
0.3834492125984252
11
0.7630023228346456
21
0.3833602362204724
0
LINE
8
BLACK
6
CONTINUOUS
10
0.7630023228346456
20
0.3833602362204724
11
0.7629433070866142
21
0.383309094488189
0
LINE
8
BLACK
6
CONTINUOUS
10
0.7629433070866142
20
0.383309094488189
11
0.7627575590551181
21
0.3830827165354331
0
LINE
8
BLACK
6
CONTINUOUS
10
0.7627575590551181
20
0.3830827165354331
11
0.7608827952755906
21
0.3812079527559055
0
LINE
8
BLACK
6
CONTINUOUS
10
0.7608827952755906
20
0.3812079527559055
11
0.7606564173228346
21
0.3810222047244095
0
LINE
8
BLACK
6
CONTINUOUS
10
0.7606564173228346
20
0.3810222047244095
11
0.7606052755905511
21
0.3809631889763779
0
LINE
8
BLACK
6
CONTINUOUS
10
0.7606052755905511
20
0.3809631889763779
11
0.7605162992125984
21
0.3809072440944882
0
LINE
8
BLACK
6
CONTINUOUS
10
0.7605162992125984
20
0.3809072440944882
11
0.7604353543307086
21
0.380840748031496
0
LINE
8
BLACK
6
CONTINUOUS
10
0.7604353543307086
20
0.380840748031496
11
0.7603633858267717
21
0.3808109448818898
0
LINE
8
BLACK
6
CONTINUOUS
10
0.7603633858267717
20
0.3808109448818898
11
0.7601153937007874
21
0.380654842519685
0
LINE
8
BLACK
6
CONTINUOUS
10
0.7601153937007874
20
0.380654842519685
11
0.7563658661417323
21
0.3787800787401575
0
LINE
8
BLACK
6
CONTINUOUS
10
0.7563658661417323
20
0.3787800787401575
11
0.7558252362204724
21
0.3785731889763779
0
LINE
8
BLACK
6
CONTINUOUS
10
0.7558252362204724
20
0.3785731889763779
11
0.7557194094488189
21
0.3785657086614173
0
LINE
8
BLACK
6
CONTINUOUS
10
0.7557194094488189
20
0.3785657086614173
11
0.7556214173228346
21
0.3785250787401575
0
LINE
8
BLACK
6
CONTINUOUS
10
0.7556214173228346
20
0.3785250787401575
11
0.7550453543307086
21
0.3784683464566929
0
LINE
8
BLACK
6
CONTINUOUS
10
0.7550453543307086
20
0.3784683464566929
11
0.749421062992126
21
0.3784683464566929
0
LINE
8
BLACK
6
CONTINUOUS
10
0.749421062992126
20
0.3784683464566929
11
0.748845
21
0.3785250787401575
0
LINE
8
BLACK
6
CONTINUOUS
10
0.748845
20
0.3785250787401575
11
0.7487470078740157
21
0.3785656692913386
0
LINE
8
BLACK
6
CONTINUOUS
10
0.7487470078740157
20
0.3785656692913386
11
0.7486411417322835
21
0.3785731889763779
0
LINE
8
BLACK
6
CONTINUOUS
10
0.7486411417322835
20
0.3785731889763779
11
0.7481005511811023
21
0.3787800787401575
0
LINE
8
BLACK
6
CONTINUOUS
10
0.7481005511811023
20
0.3787800787401575
11
0.7443510236220472
21
0.380654842519685
0
LINE
8
BLACK
6
CONTINUOUS
10
0.7443510236220472
20
0.380654842519685
11
0.7441029921259842
21
0.3808109448818898
0
LINE
8
BLACK
6
CONTINUOUS
10
0.7441029921259842
20
0.3808109448818898
11
0.744031062992126
21
0.380840748031496
0
LINE
8
BLACK
6
CONTINUOUS
10
0.744031062992126
20
0.380840748031496
11
0.7439500787401575
21
0.3809072440944882
0
LINE
8
BLACK
6
CONTINUOUS
10
0.7439500787401575
20
0.3809072440944882
11
0.7438611417322835
21
0.3809631889763779
0
LINE
8
BLACK
6
CONTINUOUS
10
0.7438611417322835
20
0.3809631889763779
11
0.7438099606299212
21
0.3810222047244095
0
LINE
8
BLACK
6
CONTINUOUS
10
0.7438099606299212
20
0.3810222047244095
11
0.743583622047244
21
0.3812079527559055
0
LINE
8
BLACK
6
CONTINUOUS
10
0.743583622047244
20
0.3812079527559055
11
0.7417088582677165
21
0.3830827165354331
0
LINE
8
BLACK
6
CONTINUOUS
10
0.7417088582677165
20
0.3830827165354331
11
0.7415230708661417
21
0.383309094488189
0
LINE
8
BLACK
6
CONTINUOUS
10
0.7415230708661417
20
0.383309094488189
11
0.741464094488189
21
0.3833602362204724
0
LINE
8
BLACK
6
CONTINUOUS
10
0.741464094488189
20
0.3833602362204724
11
0.7414081102362204
21
0.3834492125984252
0
LINE
8
BLACK
6
CONTINUOUS
10
0.7414081102362204
20
0.3834492125984252
11
0.7413416535433071
21
0.3835301574803149
0
LINE
8
BLACK
6
CONTINUOUS
10
0.7413416535433071
20
0.3835301574803149
11
0.741311811023622
21
0.383602125984252
0
LINE
8
BLACK
6
CONTINUOUS
10
0.741311811023622
20
0.383602125984252
11
0.7411557480314961
21
0.3838501181102362
0
LINE
8
BLACK
6
CONTINUOUS
10
0.7411557480314961
20
0.3838501181102362
11
0.7392809842519685
21
0.3875996456692913
0
LINE
8
BLACK
6
CONTINUOUS
10
0.7392809842519685
20
0.3875996456692913
11
0.7390740944881889
21
0.3881402755905512
0
LINE
8
BLACK
6
CONTINUOUS
10
0.7390740944881889
20
0.3881402755905512
11
0.7390665748031496
21
0.3882461023622047
0
LINE
8
BLACK
6
CONTINUOUS
10
0.7390665748031496
20
0.3882461023622047
11
0.7390259842519685
21
0.388344094488189
0
LINE
8
BLACK
6
CONTINUOUS
10
0.7390259842519685
20
0.388344094488189
11
0.7389692519685039
21
0.3889201574803149
0
LINE
8
BLACK
6
CONTINUOUS
10
0.7389692519685039
20
0.3889201574803149
11
0.7389692519685039
21
0.4039182677165354
0
LINE
8
BLACK
6
CONTINUOUS
10
0.7389692519685039
20
0.4039182677165354
11
0.7390259842519685
21
0.4044943307086614
0
LINE
8
BLACK
6
CONTINUOUS
10
0.7390259842519685
20
0.4044943307086614
11
0.7394668897637795
21
0.4055587401574803
0
LINE
8
BLACK
6
CONTINUOUS
10
0.7394668897637795
20
0.4055587401574803
11
0.7402815354330708
21
0.4063733858267716
0
LINE
8
BLACK
6
CONTINUOUS
10
0.7402815354330708
20
0.4063733858267716
11
0.7413459448818898
21
0.4068142913385827
0
LINE
8
BLACK
6
CONTINUOUS
10
0.7413459448818898
20
0.4068142913385827
11
0.7419220078740157
21
0.4068710236220472
0
LINE
8
BLACK
6
CONTINUOUS
10
0.7419220078740157
20
0.4068710236220472
11
0.7812920866141733
21
0.4068710236220472
0
LINE
8
BLACK
6
CONTINUOUS
10
0.7812920866141733
20
0.4068710236220472
11
0.7818681496062992
21
0.4068142913385827
0
LINE
8
BLACK
6
CONTINUOUS
10
0.7448747637795275
20
0.3896172047244094
11
0.7462235039370079
21
0.3869197244094488
0
LINE
8
BLACK
6
CONTINUOUS
10
0.7462235039370079
20
0.3869197244094488
11
0.7474206299212598
21
0.3857225984251968
0
LINE
8
BLACK
6
CONTINUOUS
10
0.7474206299212598
20
0.3857225984251968
11
0.7501181102362204
21
0.3843738582677165
0
LINE
8
BLACK
6
CONTINUOUS
10
0.7501181102362204
20
0.3843738582677165
11
0.7543483070866142
21
0.3843738582677165
0
LINE
8
BLACK
6
CONTINUOUS
10
0.7543483070866142
20
0.3843738582677165
11
0.7570457874015748
21
0.3857225984251968
0
LINE
8
BLACK
6
CONTINUOUS
10
0.7570457874015748
20
0.3857225984251968
11
0.7582429133858267
21
0.3869197244094488
0
LINE
8
BLACK
6
CONTINUOUS
10
0.7582429133858267
20
0.3869197244094488
11
0.759591653543307
21
0.3896172047244094
0
LINE
8
BLACK
6
CONTINUOUS
10
0.759591653543307
20
0.3896172047244094
11
0.759591653543307
21
0.4009655118110236
0
LINE
8
BLACK
6
CONTINUOUS
10
0.759591653543307
20
0.4009655118110236
11
0.7448747637795275
21
0.4009655118110236
0
LINE
8
BLACK
6
CONTINUOUS
10
0.7448747637795275
20
0.4009655118110236
11
0.7448747637795275
21
0.3896172047244094
0
LINE
8
BLACK
6
CONTINUOUS
10
0.1853527952755905
20
0.4641902755905511
11
0.1866312204724409
21
0.4629118503937008
0
LINE
8
BLACK
6
CONTINUOUS
10
0.1866312204724409
20
0.4629118503937008
11
0.1868110236220472
21
0.462007874015748
0
LINE
8
BLACK
6
CONTINUOUS
10
0.1868110236220472
20
0.462007874015748
11
0.1868110236220472
21
0.3911417322834645
0
LINE
8
BLACK
6
CONTINUOUS
10
0.1868110236220472
20
0.3911417322834645
11
0.1866312204724409
21
0.3902377559055118
0
LINE
8
BLACK
6
CONTINUOUS
10
0.1866312204724409
20
0.3902377559055118
11
0.1853527952755905
21
0.3889593307086614
0
LINE
8
BLACK
6
CONTINUOUS
10
0.1853527952755905
20
0.3889593307086614
11
0.183544842519685
21
0.3889593307086614
0
LINE
8
BLACK
6
CONTINUOUS
10
0.183544842519685
20
0.3889593307086614
11
0.1822664173228346
21
0.3902377559055118
0
LINE
8
BLACK
6
CONTINUOUS
10
0.1822664173228346
20
0.3902377559055118
11
0.1820866141732284
21
0.3911417322834645
0
LINE
8
BLACK
6
CONTINUOUS
10
0.1820866141732284
20
0.3911417322834645
11
0.1820866141732284
21
0.4596456692913386
0
LINE
8
BLACK
6
CONTINUOUS
10
0.1820866141732284
20
0.4596456692913386
11
0.1273622047244095
21
0.4596456692913386
0
LINE
8
BLACK
6
CONTINUOUS
10
0.1273622047244095
20
0.4596456692913386
11
0.1264582283464567
21
0.4598254724409448
0
LINE
8
BLACK
6
CONTINUOUS
10
0.1264582283464567
20
0.4598254724409448
11
0.1251798031496063
21
0.4611038976377952
0
LINE
8
BLACK
6
CONTINUOUS
10
0.1251798031496063
20
0.4611038976377952
11
0.1251798031496063
21
0.4629118503937008
0
LINE
8
BLACK
6
CONTINUOUS
10
0.1251798031496063
20
0.4629118503937008
11
0.1264582283464567
21
0.4641902755905511
0
LINE
8
BLACK
6
CONTINUOUS
10
0.1264582283464567
20
0.4641902755905511
11
0.1273622047244095
21
0.4643700787401575
0
LINE
8
BLACK
6
CONTINUOUS
10
0.1273622047244095
20
0.4643700787401575
11
0.1844488188976378
21
0.4643700787401575
0
LINE
8
BLACK
6
CONTINUOUS
10
0.1844488188976378
20
0.4643700787401575
11
0.1853527952755905
21
0.4641902755905511
0
LINE
8
BLACK
6
CONTINUOUS
10
0.2762211417322835
20
0.4698539763779527
11
0.2783840157480315
21
0.4689580708661417
0
LINE
8
BLACK
6
CONTINUOUS
10
0.2783840157480315
20
0.4689580708661417
11
0.2800394094488189
21
0.4673026771653543
0
LINE
8
BLACK
6
CONTINUOUS
10
0.2800394094488189
20
0.4673026771653543
11
0.2809353149606299
21
0.4651398031496063
0
LINE
8
BLACK
6
CONTINUOUS
10
0.2809353149606299
20
0.4651398031496063
11
0.2810505905511811
21
0.4639692519685039
0
LINE
8
BLACK
6
CONTINUOUS
10
0.2810505905511811
20
0.4639692519685039
11
0.2810505905511811
21
0.4039692519685039
0
LINE
8
BLACK
6
CONTINUOUS
10
0.2810505905511811
20
0.4039692519685039
11
0.2809353149606299
21
0.4027987007874015
0
LINE
8
BLACK
6
CONTINUOUS
10
0.2809353149606299
20
0.4027987007874015
11
0.2800394094488189
21
0.4006358267716535
0
LINE
8
BLACK
6
CONTINUOUS
10
0.2800394094488189
20
0.4006358267716535
11
0.2783840157480315
21
0.3989804330708661
0
LINE
8
BLACK
6
CONTINUOUS
10
0.2783840157480315
20
0.3989804330708661
11
0.2762211417322835
21
0.3980845275590551
0
LINE
8
BLACK
6
CONTINUOUS
10
0.2762211417322835
20
0.3980845275590551
11
0.2738800393700787
21
0.3980845275590551
0
LINE
8
BLACK
6
CONTINUOUS
10
0.2738800393700787
20
0.3980845275590551
11
0.2717171653543307
21
0.3989804330708661
0
LINE
8
BLACK
6
CONTINUOUS
10
0.2717171653543307
20
0.3989804330708661
11
0.2700617716535433
21
0.4006358267716535
0
LINE
8
BLACK
6
CONTINUOUS
10
0.2700617716535433
20
0.4006358267716535
11
0.2691658661417323
21
0.4027987007874015
0
LINE
8
BLACK
6
CONTINUOUS
10
0.2691658661417323
20
0.4027987007874015
11
0.2690505905511811
21
0.4039692519685039
0
LINE
8
BLACK
6
CONTINUOUS
10
0.2690505905511811
20
0.4039692519685039
11
0.2690505905511811
21
0.4265406692913385
0
LINE
8
BLACK
6
CONTINUOUS
10
0.2690505905511811
20
0.4265406692913385
11
0.2638888188976378
21
0.4265406692913385
0
LINE
8
BLACK
6
CONTINUOUS
10
0.2638888188976378
20
0.4265406692913385
11
0.2456802755905512
21
0.4005284645669291
0
LINE
8
BLACK
6
CONTINUOUS
10
0.2456802755905512
20
0.4005284645669291
11
0.2449145669291339
21
0.3996356299212598
0
LINE
8
BLACK
6
CONTINUOUS
10
0.2449145669291339
20
0.3996356299212598
11
0.2429402755905512
21
0.3983775196850394
0
LINE
8
BLACK
6
CONTINUOUS
10
0.2429402755905512
20
0.3983775196850394
11
0.240634842519685
21
0.3979706692913386
0
LINE
8
BLACK
6
CONTINUOUS
10
0.240634842519685
20
0.3979706692913386
11
0.2383491732283465
21
0.3984770472440945
0
LINE
8
BLACK
6
CONTINUOUS
10
0.2383491732283465
20
0.3984770472440945
11
0.2364312598425197
21
0.3998195669291338
0
LINE
8
BLACK
6
CONTINUOUS
10
0.2364312598425197
20
0.3998195669291338
11
0.2351731496062992
21
0.4017938582677165
0
LINE
8
BLACK
6
CONTINUOUS
10
0.2351731496062992
20
0.4017938582677165
11
0.2347662992125984
21
0.4040992913385827
0
LINE
8
BLACK
6
CONTINUOUS
10
0.2347662992125984
20
0.4040992913385827
11
0.2352726771653543
21
0.4063849606299212
0
LINE
8
BLACK
6
CONTINUOUS
10
0.2352726771653543
20
0.4063849606299212
11
0.2358494881889764
21
0.4074100393700787
0
LINE
8
BLACK
6
CONTINUOUS
10
0.2358494881889764
20
0.4074100393700787
11
0.2496475196850394
21
0.4271215354330709
0
LINE
8
BLACK
6
CONTINUOUS
10
0.2496475196850394
20
0.4271215354330709
11
0.249510157480315
21
0.427174094488189
0
LINE
8
BLACK
6
CONTINUOUS
10
0.249510157480315
20
0.427174094488189
11
0.2437958661417323
21
0.4300312598425197
0
LINE
8
BLACK
6
CONTINUOUS
10
0.2437958661417323
20
0.4300312598425197
11
0.2432920472440945
21
0.4303484251968504
0
LINE
8
BLACK
6
CONTINUOUS
10
0.2432920472440945
20
0.4303484251968504
11
0.2431457480314961
21
0.4304090157480315
0
LINE
8
BLACK
6
CONTINUOUS
10
0.2431457480314961
20
0.4304090157480315
11
0.2429809448818898
21
0.4305442519685039
0
LINE
8
BLACK
6
CONTINUOUS
10
0.2429809448818898
20
0.4305442519685039
11
0.2428004724409449
21
0.430657874015748
0
LINE
8
BLACK
6
CONTINUOUS
10
0.2428004724409449
20
0.430657874015748
11
0.2426966141732284
21
0.4307775984251969
0
LINE
8
BLACK
6
CONTINUOUS
10
0.2426966141732284
20
0.4307775984251969
11
0.2422365354330709
21
0.4311551968503937
0
LINE
8
BLACK
6
CONTINUOUS
10
0.2422365354330709
20
0.4311551968503937
11
0.2393794094488189
21
0.4340123228346456
0
LINE
8
BLACK
6
CONTINUOUS
10
0.2393794094488189
20
0.4340123228346456
11
0.2390017716535433
21
0.4344724409448819
0
LINE
8
BLACK
6
CONTINUOUS
10
0.2390017716535433
20
0.4344724409448819
11
0.2388820866141732
21
0.4345762598425197
0
LINE
8
BLACK
6
CONTINUOUS
10
0.2388820866141732
20
0.4345762598425197
11
0.2387684251968504
21
0.4347567716535433
0
LINE
8
BLACK
6
CONTINUOUS
10
0.2387684251968504
20
0.4347567716535433
11
0.2386332283464567
21
0.4349215354330709
0
LINE
8
BLACK
6
CONTINUOUS
10
0.2386332283464567
20
0.4349215354330709
11
0.2385725984251968
21
0.435067874015748
0
LINE
8
BLACK
6
CONTINUOUS
10
0.2385725984251968
20
0.435067874015748
11
0.2382554724409449
21
0.4355716535433071
0
LINE
8
BLACK
6
CONTINUOUS
10
0.2382554724409449
20
0.4355716535433071
11
0.2353983070866142
21
0.4412859448818898
0
LINE
8
BLACK
6
CONTINUOUS
10
0.2353983070866142
20
0.4412859448818898
11
0.2349779527559055
21
0.4423844881889764
0
LINE
8
BLACK
6
CONTINUOUS
10
0.2349779527559055
20
0.4423844881889764
11
0.2349626377952756
21
0.4425995275590551
0
LINE
8
BLACK
6
CONTINUOUS
10
0.2349626377952756
20
0.4425995275590551
11
0.234880157480315
21
0.4427987007874016
0
LINE
8
BLACK
6
CONTINUOUS
10
0.234880157480315
20
0.4427987007874016
11
0.2347648818897638
21
0.443969251968504
0
LINE
8
BLACK
6
CONTINUOUS
10
0.2347648818897638
20
0.443969251968504
11
0.2347648818897638
21
0.4525406692913386
0
LINE
8
BLACK
6
CONTINUOUS
10
0.2347648818897638
20
0.4525406692913386
11
0.234880157480315
21
0.4537112204724409
0
LINE
8
BLACK
6
CONTINUOUS
10
0.234880157480315
20
0.4537112204724409
11
0.2349626377952756
21
0.4539104330708661
0
LINE
8
BLACK
6
CONTINUOUS
10
0.2349626377952756
20
0.4539104330708661
11
0.2349779527559055
21
0.4541254330708661
0
LINE
8
BLACK
6
CONTINUOUS
10
0.2349779527559055
20
0.4541254330708661
11
0.2353983070866142
21
0.4552239763779528
0
LINE
8
BLACK
6
CONTINUOUS
10
0.2353983070866142
20
0.4552239763779528
11
0.2382554724409449
21
0.4609382677165354
0
LINE
8
BLACK
6
CONTINUOUS
10
0.2382554724409449
20
0.4609382677165354
11
0.2385725196850394
21
0.461441968503937
0
LINE
8
BLACK
6
CONTINUOUS
10
0.2385725196850394
20
0.461441968503937
11
0.2386331889763779
21
0.4615883464566929
0
LINE
8
BLACK
6
CONTINUOUS
10
0.2386331889763779
20
0.4615883464566929
11
0.2387684645669291
21
0.4617532283464567
0
LINE
8
BLACK
6
CONTINUOUS
10
0.2387684645669291
20
0.4617532283464567
11
0.2388820866141732
21
0.4619336614173228
0
LINE
8
BLACK
6
CONTINUOUS
10
0.2388820866141732
20
0.4619336614173228
11
0.2390017716535433
21
0.4620374803149606
0
LINE
8
BLACK
6
CONTINUOUS
10
0.2390017716535433
20
0.4620374803149606
11
0.2393793700787402
21
0.4624975590551181
0
LINE
8
BLACK
6
CONTINUOUS
10
0.2393793700787402
20
0.4624975590551181
11
0.2422364960629921
21
0.4653547637795276
0
LINE
8
BLACK
6
CONTINUOUS
10
0.2422364960629921
20
0.4653547637795276
11
0.2426966141732284
21
0.4657324015748031
0
LINE
8
BLACK
6
CONTINUOUS
10
0.2426966141732284
20
0.4657324015748031
11
0.2428004724409449
21
0.465852125984252
0
LINE
8
BLACK
6
CONTINUOUS
10
0.2428004724409449
20
0.465852125984252
11
0.242980905511811
21
0.465965748031496
0
LINE
8
BLACK
6
CONTINUOUS
10
0.242980905511811
20
0.465965748031496
11
0.2431457086614173
21
0.4661009448818897
0
LINE
8
BLACK
6
CONTINUOUS
10
0.2431457086614173
20
0.4661009448818897
11
0.2432920866141732
21
0.4661616141732283
0
LINE
8
BLACK
6
CONTINUOUS
10
0.2432920866141732
20
0.4661616141732283
11
0.243795905511811
21
0.4664787007874016
0
LINE
8
BLACK
6
CONTINUOUS
10
0.243795905511811
20
0.4664787007874016
11
0.2495101968503937
21
0.4693358267716535
0
LINE
8
BLACK
6
CONTINUOUS
10
0.2495101968503937
20
0.4693358267716535
11
0.2506087401574803
21
0.4697562204724409
0
LINE
8
BLACK
6
CONTINUOUS
10
0.2506087401574803
20
0.4697562204724409
11
0.2508237795275591
21
0.4697715354330709
0
LINE
8
BLACK
6
CONTINUOUS
10
0.2508237795275591
20
0.4697715354330709
11
0.2510229133858268
21
0.4698539763779527
0
LINE
8
BLACK
6
CONTINUOUS
10
0.2510229133858268
20
0.4698539763779527
11
0.2521934645669291
21
0.4699692519685039
0
LINE
8
BLACK
6
CONTINUOUS
10
0.2521934645669291
20
0.4699692519685039
11
0.2750505905511811
21
0.4699692519685039
0
LINE
8
BLACK
6
CONTINUOUS
10
0.2750505905511811
20
0.4699692519685039
11
0.2762211417322835
21
0.4698539763779527
0
LINE
8
BLACK
6
CONTINUOUS
10
0.2500333070866141
20
0.4561810236220472
11
0.2485532283464567
21
0.454700905511811
0
LINE
8
BLACK
6
CONTINUOUS
10
0.2485532283464567
20
0.454700905511811
11
0.2467648818897638
21
0.4511242125984252
0
LINE
8
BLACK
6
CONTINUOUS
10
0.2467648818897638
20
0.4511242125984252
11
0.2467648818897638
21
0.4453857480314961
0
LINE
8
BLACK
6
CONTINUOUS
10
0.2467648818897638
20
0.4453857480314961
11
0.248553188976378
21
0.4418090944881889
0
LINE
8
BLACK
6
CONTINUOUS
10
0.248553188976378
20
0.4418090944881889
11
0.2500332677165354
21
0.4403290157480315
0
LINE
8
BLACK
6
CONTINUOUS
10
0.2500332677165354
20
0.4403290157480315
11
0.2536099212598425
21
0.4385406692913386
0
LINE
8
BLACK
6
CONTINUOUS
10
0.2536099212598425
20
0.4385406692913386
11
0.2690505905511811
21
0.4385406692913386
0
LINE
8
BLACK
6
CONTINUOUS
10
0.2690505905511811
20
0.4385406692913386
11
0.2690505905511811
21
0.4579692519685039
0
LINE
8
BLACK
6
CONTINUOUS
10
0.2690505905511811
20
0.4579692519685039
11
0.2536098818897638
21
0.4579692519685039
0
LINE
8
BLACK
6
CONTINUOUS
10
0.2536098818897638
20
0.4579692519685039
11
0.2500333070866141
21
0.4561810236220472
0
LINE
8
BLACK
6
CONTINUOUS
10
0.351838031496063
20
0.4694228346456693
11
0.3537346062992126
21
0.4680503149606299
0
LINE
8
BLACK
6
CONTINUOUS
10
0.3537346062992126
20
0.4680503149606299
11
0.3549615354330709
21
0.4660565354330709
0
LINE
8
BLACK
6
CONTINUOUS
10
0.3549615354330709
20
0.4660565354330709
11
0.355332125984252
21
0.4637449606299213
0
LINE
8
BLACK
6
CONTINUOUS
10
0.355332125984252
20
0.4637449606299213
11
0.3551731496062992
21
0.4625795275590551
0
LINE
8
BLACK
6
CONTINUOUS
10
0.3551731496062992
20
0.4625795275590551
11
0.3408874409448819
21
0.4025795275590551
0
LINE
8
BLACK
6
CONTINUOUS
10
0.3408874409448819
20
0.4025795275590551
11
0.340748937007874
21
0.4021777952755906
0
LINE
8
BLACK
6
CONTINUOUS
10
0.340748937007874
20
0.4021777952755906
11
0.340729842519685
21
0.4020338188976378
0
LINE
8
BLACK
6
CONTINUOUS
10
0.340729842519685
20
0.4020338188976378
11
0.3406544881889764
21
0.4019037007874016
0
LINE
8
BLACK
6
CONTINUOUS
10
0.3406544881889764
20
0.4019037007874016
11
0.3405041732283465
21
0.4014675196850394
0
LINE
8
BLACK
6
CONTINUOUS
10
0.3405041732283465
20
0.4014675196850394
11
0.3399932283464567
21
0.4007615354330709
0
LINE
8
BLACK
6
CONTINUOUS
10
0.3399932283464567
20
0.4007615354330709
11
0.3395568897637795
21
0.4000077952755905
0
LINE
8
BLACK
6
CONTINUOUS
10
0.3395568897637795
20
0.4000077952755905
11
0.3393122834645669
21
0.3998206299212598
0
LINE
8
BLACK
6
CONTINUOUS
10
0.3393122834645669
20
0.3998206299212598
11
0.3391316535433071
21
0.3995709448818898
0
LINE
8
BLACK
6
CONTINUOUS
10
0.3391316535433071
20
0.3995709448818898
11
0.3383894881889764
21
0.3991142913385827
0
LINE
8
BLACK
6
CONTINUOUS
10
0.3383894881889764
20
0.3991142913385827
11
0.337697874015748
21
0.398584842519685
0
LINE
8
BLACK
6
CONTINUOUS
10
0.337697874015748
20
0.398584842519685
11
0.3374002362204724
21
0.3985054724409449
0
LINE
8
BLACK
6
CONTINUOUS
10
0.3374002362204724
20
0.3985054724409449
11
0.337137874015748
21
0.3983440157480315
0
LINE
8
BLACK
6
CONTINUOUS
10
0.337137874015748
20
0.3983440157480315
11
0.3362776377952756
21
0.3982061417322835
0
LINE
8
BLACK
6
CONTINUOUS
10
0.3362776377952756
20
0.3982061417322835
11
0.3354358267716535
21
0.3979816141732284
0
LINE
8
BLACK
6
CONTINUOUS
10
0.3354358267716535
20
0.3979816141732284
11
0.3351304724409448
21
0.3980222047244095
0
LINE
8
BLACK
6
CONTINUOUS
10
0.3351304724409448
20
0.3980222047244095
11
0.3348262992125984
21
0.3979734251968504
0
LINE
8
BLACK
6
CONTINUOUS
10
0.3348262992125984
20
0.3979734251968504
11
0.3339785433070866
21
0.3981752755905512
0
LINE
8
BLACK
6
CONTINUOUS
10
0.3339785433070866
20
0.3981752755905512
11
0.3331151574803149
21
0.39829
0
LINE
8
BLACK
6
CONTINUOUS
10
0.3331151574803149
20
0.39829
11
0.3328486220472441
21
0.3984442913385827
0
LINE
8
BLACK
6
CONTINUOUS
10
0.3328486220472441
20
0.3984442913385827
11
0.3325488582677165
21
0.3985156692913386
0
LINE
8
BLACK
6
CONTINUOUS
10
0.3325488582677165
20
0.3985156692913386
11
0.3318428346456693
21
0.3990266141732283
0
LINE
8
BLACK
6
CONTINUOUS
10
0.3318428346456693
20
0.3990266141732283
11
0.3310891338582677
21
0.3994629527559055
0
LINE
8
BLACK
6
CONTINUOUS
10
0.3310891338582677
20
0.3994629527559055
11
0.3309019291338582
21
0.3997075590551181
0
LINE
8
BLACK
6
CONTINUOUS
10
0.3309019291338582
20
0.3997075590551181
11
0.3306522834645669
21
0.399888188976378
0
LINE
8
BLACK
6
CONTINUOUS
10
0.3306522834645669
20
0.399888188976378
11
0.3301955905511811
21
0.4006303543307086
0
LINE
8
BLACK
6
CONTINUOUS
10
0.3301955905511811
20
0.4006303543307086
11
0.3296661811023622
21
0.401321968503937
0
LINE
8
BLACK
6
CONTINUOUS
10
0.3296661811023622
20
0.401321968503937
11
0.3295042519685039
21
0.4017537401574803
0
LINE
8
BLACK
6
CONTINUOUS
10
0.3295042519685039
20
0.4017537401574803
11
0.3294253543307086
21
0.401881968503937
0
LINE
8
BLACK
6
CONTINUOUS
10
0.3294253543307086
20
0.401881968503937
11
0.3294023228346457
21
0.4020255511811023
0
LINE
8
BLACK
6
CONTINUOUS
10
0.3294023228346457
20
0.4020255511811023
11
0.329253188976378
21
0.4024232677165354
0
LINE
8
BLACK
6
CONTINUOUS
10
0.329253188976378
20
0.4024232677165354
11
0.3236220078740157
21
0.4235401574803149
0
LINE
8
BLACK
6
CONTINUOUS
10
0.3236220078740157
20
0.4235401574803149
11
0.3179908661417323
21
0.4024232677165354
0
LINE
8
BLACK
6
CONTINUOUS
10
0.3179908661417323
20
0.4024232677165354
11
0.3178416929133858
21
0.4020255511811023
0
LINE
8
BLACK
6
CONTINUOUS
10
0.3178416929133858
20
0.4020255511811023
11
0.3178187007874015
21
0.401881968503937
0
LINE
8
BLACK
6
CONTINUOUS
10
0.3178187007874015
20
0.401881968503937
11
0.3177397637795276
21
0.4017537401574803
0
LINE
8
BLACK
6
CONTINUOUS
10
0.3177397637795276
20
0.4017537401574803
11
0.3175778740157481
21
0.401321968503937
0
LINE
8
BLACK
6
CONTINUOUS
10
0.3175778740157481
20
0.401321968503937
11
0.3170484251968504
21
0.4006303543307086
0
LINE
8
BLACK
6
CONTINUOUS
10
0.3170484251968504
20
0.4006303543307086
11
0.3165917716535433
21
0.399888188976378
0
LINE
8
BLACK
6
CONTINUOUS
10
0.3165917716535433
20
0.399888188976378
11
0.3163420866141732
21
0.3997075590551181
0
LINE
8
BLACK
6
CONTINUOUS
10
0.3163420866141732
20
0.3997075590551181
11
0.3161549212598425
21
0.3994629527559055
0
LINE
8
BLACK
6
CONTINUOUS
10
0.3161549212598425
20
0.3994629527559055
11
0.3154011811023622
21
0.3990266141732283
0
LINE
8
BLACK
6
CONTINUOUS
10
0.3154011811023622
20
0.3990266141732283
11
0.3146951968503937
21
0.3985156692913386
0
LINE
8
BLACK
6
CONTINUOUS
10
0.3146951968503937
20
0.3985156692913386
11
0.3143953937007874
21
0.3984442913385827
0
LINE
8
BLACK
6
CONTINUOUS
10
0.3143953937007874
20
0.3984442913385827
11
0.3141288976377953
21
0.39829
0
LINE
8
BLACK
6
CONTINUOUS
10
0.3141288976377953
20
0.39829
11
0.3132654724409449
21
0.3981752755905512
0
LINE
8
BLACK
6
CONTINUOUS
10
0.3132654724409449
20
0.3981752755905512
11
0.3124177559055118
21
0.3979734251968504
0
LINE
8
BLACK
6
CONTINUOUS
10
0.3124177559055118
20
0.3979734251968504
11
0.3121135433070866
21
0.3980222047244095
0
LINE
8
BLACK
6
CONTINUOUS
10
0.3121135433070866
20
0.3980222047244095
11
0.3118082283464567
21
0.3979816141732284
0
LINE
8
BLACK
6
CONTINUOUS
10
0.3118082283464567
20
0.3979816141732284
11
0.3109663779527559
21
0.3982061417322835
0
LINE
8
BLACK
6
CONTINUOUS
10
0.3109663779527559
20
0.3982061417322835
11
0.310106220472441
21
0.3983440157480315
0
LINE
8
BLACK
6
CONTINUOUS
10
0.310106220472441
20
0.3983440157480315
11
0.3098438582677165
21
0.3985054724409449
0
LINE
8
BLACK
6
CONTINUOUS
10
0.3098438582677165
20
0.3985054724409449
11
0.3095461811023622
21
0.398584842519685
0
LINE
8
BLACK
6
CONTINUOUS
10
0.3095461811023622
20
0.398584842519685
11
0.3088544488188976
21
0.3991143307086614
0
LINE
8
BLACK
6
CONTINUOUS
10
0.3088544488188976
20
0.3991143307086614
11
0.3081124015748031
21
0.3995709448818898
0
LINE
8
BLACK
6
CONTINUOUS
10
0.3081124015748031
20
0.3995709448818898
11
0.3079317322834645
21
0.3998206299212598
0
LINE
8
BLACK
6
CONTINUOUS
10
0.3079317322834645
20
0.3998206299212598
11
0.3076871653543307
21
0.4000077952755905
0
LINE
8
BLACK
6
CONTINUOUS
10
0.3076871653543307
20
0.4000077952755905
11
0.3072507874015748
21
0.4007615354330709
0
LINE
8
BLACK
6
CONTINUOUS
10
0.3072507874015748
20
0.4007615354330709
11
0.3067398818897638
21
0.4014675196850394
0
LINE
8
BLACK
6
CONTINUOUS
10
0.3067398818897638
20
0.4014675196850394
11
0.3065895275590551
21
0.4019037007874016
0
LINE
8
BLACK
6
CONTINUOUS
10
0.3065895275590551
20
0.4019037007874016
11
0.3065142125984252
21
0.4020338188976378
0
LINE
8
BLACK
6
CONTINUOUS
10
0.3065142125984252
20
0.4020338188976378
11
0.3064950787401575
21
0.4021777952755906
0
LINE
8
BLACK
6
CONTINUOUS
10
0.3064950787401575
20
0.4021777952755906
11
0.3063566141732283
21
0.4025795275590551
0
LINE
8
BLACK
6
CONTINUOUS
10
0.3063566141732283
20
0.4025795275590551
11
0.292070905511811
21
0.4625795275590551
0
LINE
8
BLACK
6
CONTINUOUS
10
0.292070905511811
20
0.4625795275590551
11
0.2919119291338583
21
0.4637449606299213
0
LINE
8
BLACK
6
CONTINUOUS
10
0.2919119291338583
20
0.4637449606299213
11
0.2922825196850394
21
0.4660565354330709
0
LINE
8
BLACK
6
CONTINUOUS
10
0.2922825196850394
20
0.4660565354330709
11
0.2935094488188976
21
0.4680503149606299
0
LINE
8
BLACK
6
CONTINUOUS
10
0.2935094488188976
20
0.4680503149606299
11
0.2954060236220473
21
0.4694228346456693
0
LINE
8
BLACK
6
CONTINUOUS
10
0.2954060236220473
20
0.4694228346456693
11
0.2976834645669291
21
0.4699650787401575
0
LINE
8
BLACK
6
CONTINUOUS
10
0.2976834645669291
20
0.4699650787401575
11
0.2999950393700787
21
0.4695944881889764
0
LINE
8
BLACK
6
CONTINUOUS
10
0.2999950393700787
20
0.4695944881889764
11
0.3019888188976378
21
0.4683675590551181
0
LINE
8
BLACK
6
CONTINUOUS
10
0.3019888188976378
20
0.4683675590551181
11
0.3033613385826772
21
0.4664709842519685
0
LINE
8
BLACK
6
CONTINUOUS
10
0.3033613385826772
20
0.4664709842519685
11
0.3037446062992126
21
0.4653589763779528
0
LINE
8
BLACK
6
CONTINUOUS
10
0.3037446062992126
20
0.4653589763779528
11
0.3125227952755906
21
0.4284905511811024
0
LINE
8
BLACK
6
CONTINUOUS
10
0.3125227952755906
20
0.4284905511811024
11
0.3178246062992126
21
0.4483723622047244
0
LINE
8
BLACK
6
CONTINUOUS
10
0.3178246062992126
20
0.4483723622047244
11
0.3179274409448819
21
0.4486466141732283
0
LINE
8
BLACK
6
CONTINUOUS
10
0.3179274409448819
20
0.4486466141732283
11
0.3179427559055118
21
0.4487618110236221
0
LINE
8
BLACK
6
CONTINUOUS
10
0.3179427559055118
20
0.4487618110236221
11
0.3180219291338582
21
0.4488986220472441
0
LINE
8
BLACK
6
CONTINUOUS
10
0.3180219291338582
20
0.4488986220472441
11
0.3182375984251968
21
0.4494736614173228
0
LINE
8
BLACK
6
CONTINUOUS
10
0.3182375984251968
20
0.4494736614173228
11
0.318718937007874
21
0.4501025590551181
0
LINE
8
BLACK
6
CONTINUOUS
10
0.318718937007874
20
0.4501025590551181
11
0.3191157086614173
21
0.4507878346456693
0
LINE
8
BLACK
6
CONTINUOUS
10
0.3191157086614173
20
0.4507878346456693
11
0.3194242913385827
21
0.451024094488189
0
LINE
8
BLACK
6
CONTINUOUS
10
0.3194242913385827
20
0.451024094488189
11
0.3196605511811024
21
0.4513326771653543
0
LINE
8
BLACK
6
CONTINUOUS
10
0.3196605511811024
20
0.4513326771653543
11
0.320345905511811
21
0.4517294881889763
0
LINE
8
BLACK
6
CONTINUOUS
10
0.320345905511811
20
0.4517294881889763
11
0.3209747244094488
21
0.4522107874015748
0
LINE
8
BLACK
6
CONTINUOUS
10
0.3209747244094488
20
0.4522107874015748
11
0.321350157480315
21
0.4523109448818898
0
LINE
8
BLACK
6
CONTINUOUS
10
0.321350157480315
20
0.4523109448818898
11
0.3216865748031496
21
0.4525056692913386
0
LINE
8
BLACK
6
CONTINUOUS
10
0.3216865748031496
20
0.4525056692913386
11
0.3224716535433071
21
0.45261
0
LINE
8
BLACK
6
CONTINUOUS
10
0.3224716535433071
20
0.45261
11
0.3232367716535433
21
0.4528140157480315
0
LINE
8
BLACK
6
CONTINUOUS
10
0.3232367716535433
20
0.4528140157480315
11
0.323621968503937
21
0.4527628346456693
0
LINE
8
BLACK
6
CONTINUOUS
10
0.323621968503937
20
0.4527628346456693
11
0.3240072440944882
21
0.4528140157480315
0
LINE
8
BLACK
6
CONTINUOUS
10
0.3240072440944882
20
0.4528140157480315
11
0.3247725196850393
21
0.4526099606299213
0
LINE
8
BLACK
6
CONTINUOUS
10
0.3247725196850393
20
0.4526099606299213
11
0.3255574409448819
21
0.4525056299212598
0
LINE
8
BLACK
6
CONTINUOUS
10
0.3255574409448819
20
0.4525056299212598
11
0.3258937007874015
21
0.4523109448818898
0
LINE
8
BLACK
6
CONTINUOUS
10
0.3258937007874015
20
0.4523109448818898
11
0.3262692913385827
21
0.4522107874015748
0
LINE
8
BLACK
6
CONTINUOUS
10
0.3262692913385827
20
0.4522107874015748
11
0.3268982283464567
21
0.4517294094488189
0
LINE
8
BLACK
6
CONTINUOUS
10
0.3268982283464567
20
0.4517294094488189
11
0.3275834645669291
21
0.4513326771653543
0
LINE
8
BLACK
6
CONTINUOUS
10
0.3275834645669291
20
0.4513326771653543
11
0.3278196062992126
21
0.4510241732283464
0
LINE
8
BLACK
6
CONTINUOUS
10
0.3278196062992126
20
0.4510241732283464
11
0.3281283070866142
21
0.450787874015748
0
LINE
8
BLACK
6
CONTINUOUS
10
0.3281283070866142
20
0.450787874015748
11
0.3285251181102362
21
0.4501024803149606
0
LINE
8
BLACK
6
CONTINUOUS
10
0.3285251181102362
20
0.4501024803149606
11
0.3290064173228346
21
0.4494736614173228
0
LINE
8
BLACK
6
CONTINUOUS
10
0.3290064173228346
20
0.4494736614173228
11
0.3292220472440945
21
0.4488986220472441
0
LINE
8
BLACK
6
CONTINUOUS
10
0.3292220472440945
20
0.4488986220472441
11
0.3293012598425197
21
0.4487618110236221
0
LINE
8
BLACK
6
CONTINUOUS
10
0.3293012598425197
20
0.4487618110236221
11
0.3293165354330709
21
0.4486466141732283
0
LINE
8
BLACK
6
CONTINUOUS
10
0.3293165354330709
20
0.4486466141732283
11
0.3294194094488189
21
0.4483723622047244
0
LINE
8
BLACK
6
CONTINUOUS
10
0.3294194094488189
20
0.4483723622047244
11
0.334721220472441
21
0.4284905118110236
0
LINE
8
BLACK
6
CONTINUOUS
10
0.334721220472441
20
0.4284905118110236
11
0.3434994488188977
21
0.4653589763779528
0
LINE
8
BLACK
6
CONTINUOUS
10
0.3434994488188977
20
0.4653589763779528
11
0.3438827165354331
21
0.4664709842519685
0
LINE
8
BLACK
6
CONTINUOUS
10
0.3438827165354331
20
0.4664709842519685
11
0.3452552362204724
21
0.4683675590551181
0
LINE
8
BLACK
6
CONTINUOUS
10
0.3452552362204724
20
0.4683675590551181
11
0.3472490551181102
21
0.4695944881889764
0
LINE
8
BLACK
6
CONTINUOUS
10
0.3472490551181102
20
0.4695944881889764
11
0.3495605905511811
21
0.4699650787401575
0
LINE
8
BLACK
6
CONTINUOUS
10
0.3495605905511811
20
0.4699650787401575
11
0.351838031496063
21
0.4694228346456693
0
LINE
8
BLACK
6
CONTINUOUS
10
0.4047925590551181
20
0.4698539763779527
11
0.4069554330708661
21
0.4689580708661417
0
LINE
8
BLACK
6
CONTINUOUS
10
0.4069554330708661
20
0.4689580708661417
11
0.4086108267716536
21
0.4673026771653543
0
LINE
8
BLACK
6
CONTINUOUS
10
0.4086108267716536
20
0.4673026771653543
11
0.4095067322834646
21
0.4651398031496063
0
LINE
8
BLACK
6
CONTINUOUS
10
0.4095067322834646
20
0.4651398031496063
11
0.4096220078740158
21
0.4639692519685039
0
LINE
8
BLACK
6
CONTINUOUS
10
0.4096220078740158
20
0.4639692519685039
11
0.4096220078740158
21
0.4039692519685039
0
LINE
8
BLACK
6
CONTINUOUS
10
0.4096220078740158
20
0.4039692519685039
11
0.4095067322834646
21
0.4027987007874015
0
LINE
8
BLACK
6
CONTINUOUS
10
0.4095067322834646
20
0.4027987007874015
11
0.4086108267716536
21
0.4006358267716535
0
LINE
8
BLACK
6
CONTINUOUS
10
0.4086108267716536
20
0.4006358267716535
11
0.4069554330708661
21
0.3989804330708661
0
LINE
8
BLACK
6
CONTINUOUS
10
0.4069554330708661
20
0.3989804330708661
11
0.4047925590551181
21
0.3980845275590551
0
LINE
8
BLACK
6
CONTINUOUS
10
0.4047925590551181
20
0.3980845275590551
11
0.4024514566929134
21
0.3980845275590551
0
LINE
8
BLACK
6
CONTINUOUS
10
0.4024514566929134
20
0.3980845275590551
11
0.4002885826771653
21
0.3989804330708661
0
LINE
8
BLACK
6
CONTINUOUS
10
0.4002885826771653
20
0.3989804330708661
11
0.398633188976378
21
0.4006358267716535
0
LINE
8
BLACK
6
CONTINUOUS
10
0.398633188976378
20
0.4006358267716535
11
0.3977372834645669
21
0.4027987007874015
0
LINE
8
BLACK
6
CONTINUOUS
10
0.3977372834645669
20
0.4027987007874015
11
0.3976220078740157
21
0.4039692519685039
0
LINE
8
BLACK
6
CONTINUOUS
10
0.3976220078740157
20
0.4039692519685039
11
0.3976220078740157
21
0.4265406692913385
0
LINE
8
BLACK
6
CONTINUOUS
10
0.3976220078740157
20
0.4265406692913385
11
0.3807648818897638
21
0.4265406692913385
0
LINE
8
BLACK
6
CONTINUOUS
10
0.3807648818897638
20
0.4265406692913385
11
0.3795943307086614
21
0.4266559448818897
0
LINE
8
BLACK
6
CONTINUOUS
10
0.3795943307086614
20
0.4266559448818897
11
0.3793951181102362
21
0.4267384645669291
0
LINE
8
BLACK
6
CONTINUOUS
10
0.3793951181102362
20
0.4267384645669291
11
0.3791801181102362
21
0.4267537401574803
0
LINE
8
BLACK
6
CONTINUOUS
10
0.3791801181102362
20
0.4267537401574803
11
0.3780815748031496
21
0.427174094488189
0
LINE
8
BLACK
6
CONTINUOUS
10
0.3780815748031496
20
0.427174094488189
11
0.3723672834645669
21
0.4300312598425197
0
LINE
8
BLACK
6
CONTINUOUS
10
0.3723672834645669
20
0.4300312598425197
11
0.3718634645669291
21
0.4303484251968504
0
LINE
8
BLACK
6
CONTINUOUS
10
0.3718634645669291
20
0.4303484251968504
11
0.3717171653543307
21
0.4304090157480315
0
LINE
8
BLACK
6
CONTINUOUS
10
0.3717171653543307
20
0.4304090157480315
11
0.3715523622047244
21
0.4305442519685039
0
LINE
8
BLACK
6
CONTINUOUS
10
0.3715523622047244
20
0.4305442519685039
11
0.3713718897637795
21
0.430657874015748
0
LINE
8
BLACK
6
CONTINUOUS
10
0.3713718897637795
20
0.430657874015748
11
0.371268031496063
21
0.4307775984251969
0
LINE
8
BLACK
6
CONTINUOUS
10
0.371268031496063
20
0.4307775984251969
11
0.3708079527559055
21
0.4311551968503937
0
LINE
8
BLACK
6
CONTINUOUS
10
0.3708079527559055
20
0.4311551968503937
11
0.3679508267716535
21
0.4340123228346456
0
LINE
8
BLACK
6
CONTINUOUS
10
0.3679508267716535
20
0.4340123228346456
11
0.3675731889763779
21
0.4344724409448819
0
LINE
8
BLACK
6
CONTINUOUS
10
0.3675731889763779
20
0.4344724409448819
11
0.3674535039370079
21
0.4345762598425197
0
LINE
8
BLACK
6
CONTINUOUS
10
0.3674535039370079
20
0.4345762598425197
11
0.367339842519685
21
0.4347567716535433
0
LINE
8
BLACK
6
CONTINUOUS
10
0.367339842519685
20
0.4347567716535433
11
0.3672046456692913
21
0.4349215354330709
0
LINE
8
BLACK
6
CONTINUOUS
10
0.3672046456692913
20
0.4349215354330709
11
0.3671440157480315
21
0.435067874015748
0
LINE
8
BLACK
6
CONTINUOUS
10
0.3671440157480315
20
0.435067874015748
11
0.3668268897637795
21
0.4355716535433071
0
LINE
8
BLACK
6
CONTINUOUS
10
0.3668268897637795
20
0.4355716535433071
11
0.3639697244094488
21
0.4412859448818898
0
LINE
8
BLACK
6
CONTINUOUS
10
0.3639697244094488
20
0.4412859448818898
11
0.3635493700787402
21
0.4423844881889764
0
LINE
8
BLACK
6
CONTINUOUS
10
0.3635493700787402
20
0.4423844881889764
11
0.3635340551181102
21
0.4425995275590551
0
LINE
8
BLACK
6
CONTINUOUS
10
0.3635340551181102
20
0.4425995275590551
11
0.3634515748031496
21
0.4427987007874016
0
LINE
8
BLACK
6
CONTINUOUS
10
0.3634515748031496
20
0.4427987007874016
11
0.3633362992125984
21
0.443969251968504
0
LINE
8
BLACK
6
CONTINUOUS
10
0.3633362992125984
20
0.443969251968504
11
0.3633362992125984
21
0.4525406692913386
0
LINE
8
BLACK
6
CONTINUOUS
10
0.3633362992125984
20
0.4525406692913386
11
0.3634515748031496
21
0.4537112204724409
0
LINE
8
BLACK
6
CONTINUOUS
10
0.3634515748031496
20
0.4537112204724409
11
0.3635340551181102
21
0.4539104330708661
0
LINE
8
BLACK
6
CONTINUOUS
10
0.3635340551181102
20
0.4539104330708661
11
0.3635493700787402
21
0.4541254330708661
0
LINE
8
BLACK
6
CONTINUOUS
10
0.3635493700787402
20
0.4541254330708661
11
0.3639697244094488
21
0.4552239763779528
0
LINE
8
BLACK
6
CONTINUOUS
10
0.3639697244094488
20
0.4552239763779528
11
0.3668268897637795
21
0.4609382677165354
0
LINE
8
BLACK
6
CONTINUOUS
10
0.3668268897637795
20
0.4609382677165354
11
0.367143937007874
21
0.461441968503937
0
LINE
8
BLACK
6
CONTINUOUS
10
0.367143937007874
20
0.461441968503937
11
0.3672046062992126
21
0.4615883464566929
0
LINE
8
BLACK
6
CONTINUOUS
10
0.3672046062992126
20
0.4615883464566929
11
0.3673398818897638
21
0.4617532283464567
0
LINE
8
BLACK
6
CONTINUOUS
10
0.3673398818897638
20
0.4617532283464567
11
0.3674535039370079
21
0.4619336614173228
0
LINE
8
BLACK
6
CONTINUOUS
10
0.3674535039370079
20
0.4619336614173228
11
0.3675731889763779
21
0.4620374803149606
0
LINE
8
BLACK
6
CONTINUOUS
10
0.3675731889763779
20
0.4620374803149606
11
0.3679507874015748
21
0.4624975590551181
0
LINE
8
BLACK
6
CONTINUOUS
10
0.3679507874015748
20
0.4624975590551181
11
0.3708079133858267
21
0.4653547637795276
0
LINE
8
BLACK
6
CONTINUOUS
10
0.3708079133858267
20
0.4653547637795276
11
0.371268031496063
21
0.4657324015748031
0
LINE
8
BLACK
6
CONTINUOUS
10
0.371268031496063
20
0.4657324015748031
11
0.3713718897637795
21
0.465852125984252
0
LINE
8
BLACK
6
CONTINUOUS
10
0.3713718897637795
20
0.465852125984252
11
0.3715523228346457
21
0.465965748031496
0
LINE
8
BLACK
6
CONTINUOUS
10
0.3715523228346457
20
0.465965748031496
11
0.3717171259842519
21
0.4661009448818897
0
LINE
8
BLACK
6
CONTINUOUS
10
0.3717171259842519
20
0.4661009448818897
11
0.3718635039370078
21
0.4661616141732283
0
LINE
8
BLACK
6
CONTINUOUS
10
0.3718635039370078
20
0.4661616141732283
11
0.3723673228346457
21
0.4664787007874016
0
LINE
8
BLACK
6
CONTINUOUS
10
0.3723673228346457
20
0.4664787007874016
11
0.3780816141732283
21
0.4693358267716535
0
LINE
8
BLACK
6
CONTINUOUS
10
0.3780816141732283
20
0.4693358267716535
11
0.379180157480315
21
0.4697562204724409
0
LINE
8
BLACK
6
CONTINUOUS
10
0.379180157480315
20
0.4697562204724409
11
0.3793951968503937
21
0.4697715354330709
0
LINE
8
BLACK
6
CONTINUOUS
10
0.3793951968503937
20
0.4697715354330709
11
0.3795943307086614
21
0.4698539763779527
0
LINE
8
BLACK
6
CONTINUOUS
10
0.3795943307086614
20
0.4698539763779527
11
0.3807648818897638
21
0.4699692519685039
0
LINE
8
BLACK
6
CONTINUOUS
10
0.3807648818897638
20
0.4699692519685039
11
0.4036220078740158
21
0.4699692519685039
0
LINE
8
BLACK
6
CONTINUOUS
10
0.4036220078740158
20
0.4699692519685039
11
0.4047925590551181
21
0.4698539763779527
0
LINE
8
BLACK
6
CONTINUOUS
10
0.3786047244094488
20
0.4561810236220472
11
0.3771246456692913
21
0.454700905511811
0
LINE
8
BLACK
6
CONTINUOUS
10
0.3771246456692913
20
0.454700905511811
11
0.3753362992125984
21
0.4511242125984252
0
LINE
8
BLACK
6
CONTINUOUS
10
0.3753362992125984
20
0.4511242125984252
11
0.3753362992125984
21
0.4453857480314961
0
LINE
8
BLACK
6
CONTINUOUS
10
0.3753362992125984
20
0.4453857480314961
11
0.3771246062992126
21
0.4418090944881889
0
LINE
8
BLACK
6
CONTINUOUS
10
0.3771246062992126
20
0.4418090944881889
11
0.3786046850393701
21
0.4403290157480315
0
LINE
8
BLACK
6
CONTINUOUS
10
0.3786046850393701
20
0.4403290157480315
11
0.3821813385826772
21
0.4385406692913386
0
LINE
8
BLACK
6
CONTINUOUS
10
0.3821813385826772
20
0.4385406692913386
11
0.3976220078740157
21
0.4385406692913386
0
LINE
8
BLACK
6
CONTINUOUS
10
0.3976220078740157
20
0.4385406692913386
11
0.3976220078740157
21
0.4579692519685039
0
LINE
8
BLACK
6
CONTINUOUS
10
0.3976220078740157
20
0.4579692519685039
11
0.3821812992125984
21
0.4579692519685039
0
LINE
8
BLACK
6
CONTINUOUS
10
0.3821812992125984
20
0.4579692519685039
11
0.3786047244094488
21
0.4561810236220472
0
LINE
8
BLACK
6
CONTINUOUS
10
0.562576811023622
20
0.4327048031496063
11
0.5636412204724409
21
0.4322638976377953
0
LINE
8
BLACK
6
CONTINUOUS
10
0.5636412204724409
20
0.4322638976377953
11
0.5644558661417323
21
0.4314492519685039
0
LINE
8
BLACK
6
CONTINUOUS
10
0.5644558661417323
20
0.4314492519685039
11
0.5648967716535432
21
0.430384842519685
0
LINE
8
BLACK
6
CONTINUOUS
10
0.5648967716535432
20
0.430384842519685
11
0.5648967716535432
21
0.429232716535433
0
LINE
8
BLACK
6
CONTINUOUS
10
0.5648967716535432
20
0.429232716535433
11
0.5644558661417323
21
0.4281683070866142
0
LINE
8
BLACK
6
CONTINUOUS
10
0.5644558661417323
20
0.4281683070866142
11
0.5636412204724409
21
0.4273536614173228
0
LINE
8
BLACK
6
CONTINUOUS
10
0.5636412204724409
20
0.4273536614173228
11
0.562576811023622
21
0.4269127559055118
0
LINE
8
BLACK
6
CONTINUOUS
10
0.562576811023622
20
0.4269127559055118
11
0.562000748031496
21
0.4268560236220472
0
LINE
8
BLACK
6
CONTINUOUS
10
0.562000748031496
20
0.4268560236220472
11
0.5462058267716535
21
0.4268560236220472
0
LINE
8
BLACK
6
CONTINUOUS
10
0.5462058267716535
20
0.4268560236220472
11
0.5462058267716535
21
0.4148106692913386
0
LINE
8
BLACK
6
CONTINUOUS
10
0.5462058267716535
20
0.4148106692913386
11
0.5461490944881889
21
0.4142346062992126
0
LINE
8
BLACK
6
CONTINUOUS
10
0.5461490944881889
20
0.4142346062992126
11
0.5461085039370078
21
0.4141366535433071
0
LINE
8
BLACK
6
CONTINUOUS
10
0.5461085039370078
20
0.4141366535433071
11
0.5461009842519685
21
0.414030748031496
0
LINE
8
BLACK
6
CONTINUOUS
10
0.5461009842519685
20
0.414030748031496
11
0.5458940944881889
21
0.4134901574803149
0
LINE
8
BLACK
6
CONTINUOUS
10
0.5458940944881889
20
0.4134901574803149
11
0.5440193307086614
21
0.4097406299212598
0
LINE
8
BLACK
6
CONTINUOUS
10
0.5440193307086614
20
0.4097406299212598
11
0.5438632283464567
21
0.4094926377952756
0
LINE
8
BLACK
6
CONTINUOUS
10
0.5438632283464567
20
0.4094926377952756
11
0.5438334251968504
21
0.4094206692913386
0
LINE
8
BLACK
6
CONTINUOUS
10
0.5438334251968504
20
0.4094206692913386
11
0.5437669291338583
21
0.4093397244094488
0
LINE
8
BLACK
6
CONTINUOUS
10
0.5437669291338583
20
0.4093397244094488
11
0.5437109842519685
21
0.4092507480314961
0
LINE
8
BLACK
6
CONTINUOUS
10
0.5437109842519685
20
0.4092507480314961
11
0.543651968503937
21
0.4091996062992126
0
LINE
8
BLACK
6
CONTINUOUS
10
0.543651968503937
20
0.4091996062992126
11
0.543466220472441
21
0.4089732283464567
0
LINE
8
BLACK
6
CONTINUOUS
10
0.543466220472441
20
0.4089732283464567
11
0.5415914566929134
21
0.4070984645669291
0
LINE
8
BLACK
6
CONTINUOUS
10
0.5415914566929134
20
0.4070984645669291
11
0.5413650787401575
21
0.406912716535433
0
LINE
8
BLACK
6
CONTINUOUS
10
0.5413650787401575
20
0.406912716535433
11
0.541313937007874
21
0.4068537007874016
0
LINE
8
BLACK
6
CONTINUOUS
10
0.541313937007874
20
0.4068537007874016
11
0.5412249606299212
21
0.4067977559055118
0
LINE
8
BLACK
6
CONTINUOUS
10
0.5412249606299212
20
0.4067977559055118
11
0.5411440157480315
21
0.4067312598425197
0
LINE
8
BLACK
6
CONTINUOUS
10
0.5411440157480315
20
0.4067312598425197
11
0.5410720472440945
21
0.4067014566929134
0
LINE
8
BLACK
6
CONTINUOUS
10
0.5410720472440945
20
0.4067014566929134
11
0.5408240551181103
21
0.4065453543307087
0
LINE
8
BLACK
6
CONTINUOUS
10
0.5408240551181103
20
0.4065453543307087
11
0.5370745275590552
21
0.4046705905511811
0
LINE
8
BLACK
6
CONTINUOUS
10
0.5370745275590552
20
0.4046705905511811
11
0.5365338976377952
21
0.4044637007874016
0
LINE
8
BLACK
6
CONTINUOUS
10
0.5365338976377952
20
0.4044637007874016
11
0.5364280708661417
21
0.404456220472441
0
LINE
8
BLACK
6
CONTINUOUS
10
0.5364280708661417
20
0.404456220472441
11
0.5363300787401575
21
0.4044155905511811
0
LINE
8
BLACK
6
CONTINUOUS
10
0.5363300787401575
20
0.4044155905511811
11
0.5357540157480315
21
0.4043588582677165
0
LINE
8
BLACK
6
CONTINUOUS
10
0.5357540157480315
20
0.4043588582677165
11
0.5301297244094488
21
0.4043588582677165
0
LINE
8
BLACK
6
CONTINUOUS
10
0.5301297244094488
20
0.4043588582677165
11
0.5295536614173229
21
0.4044155905511811
0
LINE
8
BLACK
6
CONTINUOUS
10
0.5295536614173229
20
0.4044155905511811
11
0.5294556692913386
21
0.4044561811023622
0
LINE
8
BLACK
6
CONTINUOUS
10
0.5294556692913386
20
0.4044561811023622
11
0.5293498031496063
21
0.4044637007874016
0
LINE
8
BLACK
6
CONTINUOUS
10
0.5293498031496063
20
0.4044637007874016
11
0.5288092125984252
21
0.4046705905511811
0
LINE
8
BLACK
6
CONTINUOUS
10
0.5288092125984252
20
0.4046705905511811
11
0.5250596850393701
21
0.4065453543307087
0
LINE
8
BLACK
6
CONTINUOUS
10
0.5250596850393701
20
0.4065453543307087
11
0.5248116535433071
21
0.4067014566929134
0
LINE
8
BLACK
6
CONTINUOUS
10
0.5248116535433071
20
0.4067014566929134
11
0.5247397244094488
21
0.4067312598425197
0
LINE
8
BLACK
6
CONTINUOUS
10
0.5247397244094488
20
0.4067312598425197
11
0.5246587401574803
21
0.4067977559055118
0
LINE
8
BLACK
6
CONTINUOUS
10
0.5246587401574803
20
0.4067977559055118
11
0.5245698031496063
21
0.4068537007874016
0
LINE
8
BLACK
6
CONTINUOUS
10
0.5245698031496063
20
0.4068537007874016
11
0.5245186220472441
21
0.406912716535433
0
LINE
8
BLACK
6
CONTINUOUS
10
0.5245186220472441
20
0.406912716535433
11
0.5242922834645669
21
0.4070984645669291
0
LINE
8
BLACK
6
CONTINUOUS
10
0.5242922834645669
20
0.4070984645669291
11
0.5224175196850394
21
0.4089732283464567
0
LINE
8
BLACK
6
CONTINUOUS
10
0.5224175196850394
20
0.4089732283464567
11
0.5222317322834645
21
0.4091996062992126
0
LINE
8
BLACK
6
CONTINUOUS
10
0.5222317322834645
20
0.4091996062992126
11
0.5221727559055118
21
0.4092507480314961
0
LINE
8
BLACK
6
CONTINUOUS
10
0.5221727559055118
20
0.4092507480314961
11
0.5221167716535433
21
0.4093397244094488
0
LINE
8
BLACK
6
CONTINUOUS
10
0.5221167716535433
20
0.4093397244094488
11
0.5220503149606299
21
0.4094206692913386
0
LINE
8
BLACK
6
CONTINUOUS
10
0.5220503149606299
20
0.4094206692913386
11
0.5220204724409448
21
0.4094926377952756
0
LINE
8
BLACK
6
CONTINUOUS
10
0.5220204724409448
20
0.4094926377952756
11
0.5218644094488188
21
0.4097406299212598
0
LINE
8
BLACK
6
CONTINUOUS
10
0.5218644094488188
20
0.4097406299212598
11
0.5199896456692913
21
0.4134901574803149
0
LINE
8
BLACK
6
CONTINUOUS
10
0.5199896456692913
20
0.4134901574803149
11
0.5197827559055118
21
0.4140307874015748
0
LINE
8
BLACK
6
CONTINUOUS
10
0.5197827559055118
20
0.4140307874015748
11
0.5197752362204724
21
0.4141366141732283
0
LINE
8
BLACK
6
CONTINUOUS
10
0.5197752362204724
20
0.4141366141732283
11
0.5197346456692913
21
0.4142346062992126
0
LINE
8
BLACK
6
CONTINUOUS
10
0.5197346456692913
20
0.4142346062992126
11
0.5196779133858268
21
0.4148106692913386
0
LINE
8
BLACK
6
CONTINUOUS
10
0.5196779133858268
20
0.4148106692913386
11
0.5196779133858268
21
0.429808779527559
0
LINE
8
BLACK
6
CONTINUOUS
10
0.5196779133858268
20
0.429808779527559
11
0.5197346456692913
21
0.430384842519685
0
LINE
8
BLACK
6
CONTINUOUS
10
0.5197346456692913
20
0.430384842519685
11
0.5201755511811024
21
0.4314492519685039
0
LINE
8
BLACK
6
CONTINUOUS
10
0.5201755511811024
20
0.4314492519685039
11
0.5209901968503937
21
0.4322638976377953
0
LINE
8
BLACK
6
CONTINUOUS
10
0.5209901968503937
20
0.4322638976377953
11
0.5220546062992126
21
0.4327048031496063
0
LINE
8
BLACK
6
CONTINUOUS
10
0.5220546062992126
20
0.4327048031496063
11
0.5226306692913386
21
0.4327615354330708
0
LINE
8
BLACK
6
CONTINUOUS
10
0.5226306692913386
20
0.4327615354330708
11
0.562000748031496
21
0.4327615354330708
0
LINE
8
BLACK
6
CONTINUOUS
10
0.562000748031496
20
0.4327615354330708
11
0.562576811023622
21
0.4327048031496063
0
LINE
8
BLACK
6
CONTINUOUS
10
0.5255834251968504
20
0.4155077165354331
11
0.5269321653543307
21
0.4128102362204724
0
LINE
8
BLACK
6
CONTINUOUS
10
0.5269321653543307
20
0.4128102362204724
11
0.5281292913385827
21
0.4116131102362204
0
LINE
8
BLACK
6
CONTINUOUS
10
0.5281292913385827
20
0.4116131102362204
11
0.5308267716535433
21
0.4102643700787402
0
LINE
8
BLACK
6
CONTINUOUS
10
0.5308267716535433
20
0.4102643700787402
11
0.535056968503937
21
0.4102643700787402
0
LINE
8
BLACK
6
CONTINUOUS
10
0.535056968503937
20
0.4102643700787402
11
0.5377544488188977
21
0.4116131102362204
0
LINE
8
BLACK
6
CONTINUOUS
10
0.5377544488188977
20
0.4116131102362204
11
0.5389515748031496
21
0.4128102362204724
0
LINE
8
BLACK
6
CONTINUOUS
10
0.5389515748031496
20
0.4128102362204724
11
0.5403003149606299
21
0.4155077165354331
0
LINE
8
BLACK
6
CONTINUOUS
10
0.5403003149606299
20
0.4155077165354331
11
0.5403003149606299
21
0.4268560236220472
0
LINE
8
BLACK
6
CONTINUOUS
10
0.5403003149606299
20
0.4268560236220472
11
0.5255834251968504
21
0.4268560236220472
0
LINE
8
BLACK
6
CONTINUOUS
10
0.5255834251968504
20
0.4268560236220472
11
0.5255834251968504
21
0.4155077165354331
0
LINE
8
BLACK
6
CONTINUOUS
10
0.7818681496062992
20
0.442434842519685
11
0.782932559055118
21
0.441993937007874
0
LINE
8
BLACK
6
CONTINUOUS
10
0.782932559055118
20
0.441993937007874
11
0.7837472047244094
21
0.4411792913385827
0
LINE
8
BLACK
6
CONTINUOUS
10
0.7837472047244094
20
0.4411792913385827
11
0.7841881102362205
21
0.4401148818897638
0
LINE
8
BLACK
6
CONTINUOUS
10
0.7841881102362205
20
0.4401148818897638
11
0.7842448425196851
21
0.4395388188976378
0
LINE
8
BLACK
6
CONTINUOUS
10
0.7842448425196851
20
0.4395388188976378
11
0.7842448425196851
21
0.4207911811023622
0
LINE
8
BLACK
6
CONTINUOUS
10
0.7842448425196851
20
0.4207911811023622
11
0.7841881102362205
21
0.4202151181102362
0
LINE
8
BLACK
6
CONTINUOUS
10
0.7841881102362205
20
0.4202151181102362
11
0.7837472047244094
21
0.4191507086614173
0
LINE
8
BLACK
6
CONTINUOUS
10
0.7837472047244094
20
0.4191507086614173
11
0.782932559055118
21
0.418336062992126
0
LINE
8
BLACK
6
CONTINUOUS
10
0.782932559055118
20
0.418336062992126
11
0.7818681496062992
21
0.417895157480315
0
LINE
8
BLACK
6
CONTINUOUS
10
0.7818681496062992
20
0.417895157480315
11
0.7807160236220472
21
0.417895157480315
0
LINE
8
BLACK
6
CONTINUOUS
10
0.7807160236220472
20
0.417895157480315
11
0.7796516141732284
21
0.418336062992126
0
LINE
8
BLACK
6
CONTINUOUS
10
0.7796516141732284
20
0.418336062992126
11
0.778836968503937
21
0.4191507086614173
0
LINE
8
BLACK
6
CONTINUOUS
10
0.778836968503937
20
0.4191507086614173
11
0.7783960629921259
21
0.4202151181102362
0
LINE
8
BLACK
6
CONTINUOUS
10
0.7783960629921259
20
0.4202151181102362
11
0.7783393307086613
21
0.4207911811023622
0
LINE
8
BLACK
6
CONTINUOUS
10
0.7783393307086613
20
0.4207911811023622
11
0.7783393307086613
21
0.436586062992126
0
LINE
8
BLACK
6
CONTINUOUS
10
0.7783393307086613
20
0.436586062992126
11
0.7636224015748031
21
0.436586062992126
0
LINE
8
BLACK
6
CONTINUOUS
10
0.7636224015748031
20
0.436586062992126
11
0.7636224015748031
21
0.4264154724409449
0
LINE
8
BLACK
6
CONTINUOUS
10
0.7636224015748031
20
0.4264154724409449
11
0.7635656692913385
21
0.4258394094488189
0
LINE
8
BLACK
6
CONTINUOUS
10
0.7635656692913385
20
0.4258394094488189
11
0.7631247637795275
21
0.424775
0
LINE
8
BLACK
6
CONTINUOUS
10
0.7631247637795275
20
0.424775
11
0.7623101181102362
21
0.4239603543307087
0
LINE
8
BLACK
6
CONTINUOUS
10
0.7623101181102362
20
0.4239603543307087
11
0.7612457086614173
21
0.4235194488188976
0
LINE
8
BLACK
6
CONTINUOUS
10
0.7612457086614173
20
0.4235194488188976
11
0.7600935826771653
21
0.4235194488188976
0
LINE
8
BLACK
6
CONTINUOUS
10
0.7600935826771653
20
0.4235194488188976
11
0.7590291732283464
21
0.4239603543307087
0
LINE
8
BLACK
6
CONTINUOUS
10
0.7590291732283464
20
0.4239603543307087
11
0.7582145275590551
21
0.424775
0
LINE
8
BLACK
6
CONTINUOUS
10
0.7582145275590551
20
0.424775
11
0.7577736220472441
21
0.4258394094488189
0
LINE
8
BLACK
6
CONTINUOUS
10
0.7577736220472441
20
0.4258394094488189
11
0.7577168897637795
21
0.4264154724409449
0
LINE
8
BLACK
6
CONTINUOUS
10
0.7577168897637795
20
0.4264154724409449
11
0.7577168897637795
21
0.436586062992126
0
LINE
8
BLACK
6
CONTINUOUS
10
0.7577168897637795
20
0.436586062992126
11
0.7448747637795275
21
0.436586062992126
0
LINE
8
BLACK
6
CONTINUOUS
10
0.7448747637795275
20
0.436586062992126
11
0.7448747637795275
21
0.4207911811023622
0
LINE
8
BLACK
6
CONTINUOUS
10
0.7448747637795275
20
0.4207911811023622
11
0.744818031496063
21
0.4202151181102362
0
LINE
8
BLACK
6
CONTINUOUS
10
0.744818031496063
20
0.4202151181102362
11
0.744377125984252
21
0.4191507086614173
0
LINE
8
BLACK
6
CONTINUOUS
10
0.744377125984252
20
0.4191507086614173
11
0.7435624803149606
21
0.418336062992126
0
LINE
8
BLACK
6
CONTINUOUS
10
0.7435624803149606
20
0.418336062992126
11
0.7424980708661417
21
0.417895157480315
0
LINE
8
BLACK
6
CONTINUOUS
10
0.7424980708661417
20
0.417895157480315
11
0.7413459448818898
21
0.417895157480315
0
LINE
8
BLACK
6
CONTINUOUS
10
0.7413459448818898
20
0.417895157480315
11
0.7402815354330708
21
0.418336062992126
0
LINE
8
BLACK
6
CONTINUOUS
10
0.7402815354330708
20
0.418336062992126
11
0.7394668897637795
21
0.4191507086614173
0
LINE
8
BLACK
6
CONTINUOUS
10
0.7394668897637795
20
0.4191507086614173
11
0.7390259842519685
21
0.4202151181102362
0
LINE
8
BLACK
6
CONTINUOUS
10
0.7390259842519685
20
0.4202151181102362
11
0.7389692519685039
21
0.4207911811023622
0
LINE
8
BLACK
6
CONTINUOUS
10
0.7389692519685039
20
0.4207911811023622
11
0.7389692519685039
21
0.4395388188976378
0
LINE
8
BLACK
6
CONTINUOUS
10
0.7389692519685039
20
0.4395388188976378
11
0.7390259842519685
21
0.4401148818897638
0
LINE
8
BLACK
6
CONTINUOUS
10
0.7390259842519685
20
0.4401148818897638
11
0.7394668897637795
21
0.4411792913385827
0
LINE
8
BLACK
6
CONTINUOUS
10
0.7394668897637795
20
0.4411792913385827
11
0.7402815354330708
21
0.441993937007874
0
LINE
8
BLACK
6
CONTINUOUS
10
0.7402815354330708
20
0.441993937007874
11
0.7413459448818898
21
0.442434842519685
0
LINE
8
BLACK
6
CONTINUOUS
10
0.7413459448818898
20
0.442434842519685
11
0.7419220078740157
21
0.4424915748031496
0
LINE
8
BLACK
6
CONTINUOUS
10
0.7419220078740157
20
0.4424915748031496
11
0.7812920866141733
21
0.4424915748031496
0
LINE
8
BLACK
6
CONTINUOUS
10
0.7812920866141733
20
0.4424915748031496
11
0.7818681496062992
21
0.442434842519685
0
LINE
8
BLACK
6
CONTINUOUS
10
0.5636412204724409
20
0.4660096850393701
11
0.5644558661417323
21
0.4651950393700787
0
LINE
8
BLACK
6
CONTINUOUS
10
0.5644558661417323
20
0.4651950393700787
11
0.5648967716535432
21
0.4641306299212598
0
LINE
8
BLACK
6
CONTINUOUS
10
0.5648967716535432
20
0.4641306299212598
11
0.5649535039370078
21
0.4635545669291338
0
LINE
8
BLACK
6
CONTINUOUS
10
0.5649535039370078
20
0.4635545669291338
11
0.5649535039370078
21
0.4598050393700787
0
LINE
8
BLACK
6
CONTINUOUS
10
0.5649535039370078
20
0.4598050393700787
11
0.5649247637795275
21
0.4595134645669291
0
LINE
8
BLACK
6
CONTINUOUS
10
0.5649247637795275
20
0.4595134645669291
11
0.56493031496063
21
0.4594357086614173
0
LINE
8
BLACK
6
CONTINUOUS
10
0.56493031496063
20
0.4594357086614173
11
0.5649070472440945
21
0.4593334645669291
0
LINE
8
BLACK
6
CONTINUOUS
10
0.5649070472440945
20
0.4593334645669291
11
0.5648967716535432
21
0.4592289763779527
0
LINE
8
BLACK
6
CONTINUOUS
10
0.5648967716535432
20
0.4592289763779527
11
0.5648668897637795
21
0.4591569291338582
0
LINE
8
BLACK
6
CONTINUOUS
10
0.5648668897637795
20
0.4591569291338582
11
0.564801968503937
21
0.4588712598425197
0
LINE
8
BLACK
6
CONTINUOUS
10
0.564801968503937
20
0.4588712598425197
11
0.5629272047244095
21
0.4532470078740157
0
LINE
8
BLACK
6
CONTINUOUS
10
0.5629272047244095
20
0.4532470078740157
11
0.5626912204724409
21
0.4527184251968504
0
LINE
8
BLACK
6
CONTINUOUS
10
0.5626912204724409
20
0.4527184251968504
11
0.5626217322834646
21
0.4526383464566929
0
LINE
8
BLACK
6
CONTINUOUS
10
0.5626217322834646
20
0.4526383464566929
11
0.5625811417322835
21
0.4525402755905512
0
LINE
8
BLACK
6
CONTINUOUS
10
0.5625811417322835
20
0.4525402755905512
11
0.5622138976377953
21
0.4520928346456693
0
LINE
8
BLACK
6
CONTINUOUS
10
0.5622138976377953
20
0.4520928346456693
11
0.5584643307086614
21
0.4483433070866142
0
LINE
8
BLACK
6
CONTINUOUS
10
0.5584643307086614
20
0.4483433070866142
11
0.5580168503937007
21
0.447976062992126
0
LINE
8
BLACK
6
CONTINUOUS
10
0.5580168503937007
20
0.447976062992126
11
0.5579187795275591
21
0.4479354724409449
0
LINE
8
BLACK
6
CONTINUOUS
10
0.5579187795275591
20
0.4479354724409449
11
0.5578387007874016
21
0.4478659842519685
0
LINE
8
BLACK
6
CONTINUOUS
10
0.5578387007874016
20
0.4478659842519685
11
0.557310157480315
21
0.44763
0
LINE
8
BLACK
6
CONTINUOUS
10
0.557310157480315
20
0.44763
11
0.5516858661417323
21
0.4457552362204724
0
LINE
8
BLACK
6
CONTINUOUS
10
0.5516858661417323
20
0.4457552362204724
11
0.5514002755905512
21
0.4456903149606299
0
LINE
8
BLACK
6
CONTINUOUS
10
0.5514002755905512
20
0.4456903149606299
11
0.5513281889763779
21
0.4456604330708661
0
LINE
8
BLACK
6
CONTINUOUS
10
0.5513281889763779
20
0.4456604330708661
11
0.5512236614173228
21
0.4456501574803149
0
LINE
8
BLACK
6
CONTINUOUS
10
0.5512236614173228
20
0.4456501574803149
11
0.5511214173228346
21
0.4456268897637795
0
LINE
8
BLACK
6
CONTINUOUS
10
0.5511214173228346
20
0.4456268897637795
11
0.5510436614173229
21
0.4456324409448819
0
LINE
8
BLACK
6
CONTINUOUS
10
0.5510436614173229
20
0.4456324409448819
11
0.5507521259842519
21
0.4456037007874016
0
LINE
8
BLACK
6
CONTINUOUS
10
0.5507521259842519
20
0.4456037007874016
11
0.5226306692913386
21
0.4456037007874016
0
LINE
8
BLACK
6
CONTINUOUS
10
0.5226306692913386
20
0.4456037007874016
11
0.5220546062992126
21
0.4456604330708661
0
LINE
8
BLACK
6
CONTINUOUS
10
0.5220546062992126
20
0.4456604330708661
11
0.5209901968503937
21
0.4461013385826771
0
LINE
8
BLACK
6
CONTINUOUS
10
0.5209901968503937
20
0.4461013385826771
11
0.5201755511811024
21
0.4469159842519685
0
LINE
8
BLACK
6
CONTINUOUS
10
0.5201755511811024
20
0.4469159842519685
11
0.5197346456692913
21
0.4479803937007874
0
LINE
8
BLACK
6
CONTINUOUS
10
0.5197346456692913
20
0.4479803937007874
11
0.5197346456692913
21
0.4491325196850394
0
LINE
8
BLACK
6
CONTINUOUS
10
0.5197346456692913
20
0.4491325196850394
11
0.5201755511811024
21
0.4501969291338583
0
LINE
8
BLACK
6
CONTINUOUS
10
0.5201755511811024
20
0.4501969291338583
11
0.5209901968503937
21
0.4510115748031496
0
LINE
8
BLACK
6
CONTINUOUS
10
0.5209901968503937
20
0.4510115748031496
11
0.5220546062992126
21
0.4514524803149606
0
LINE
8
BLACK
6
CONTINUOUS
10
0.5220546062992126
20
0.4514524803149606
11
0.5226306692913386
21
0.4515092125984252
0
LINE
8
BLACK
6
CONTINUOUS
10
0.5226306692913386
20
0.4515092125984252
11
0.5502729921259842
21
0.4515092125984252
0
LINE
8
BLACK
6
CONTINUOUS
10
0.5502729921259842
20
0.4515092125984252
11
0.5547813779527558
21
0.4530120472440945
0
LINE
8
BLACK
6
CONTINUOUS
10
0.5547813779527558
20
0.4530120472440945
11
0.5575451968503937
21
0.4557758267716535
0
LINE
8
BLACK
6
CONTINUOUS
10
0.5575451968503937
20
0.4557758267716535
11
0.5590479921259842
21
0.4602841732283465
0
LINE
8
BLACK
6
CONTINUOUS
10
0.5590479921259842
20
0.4602841732283465
11
0.5590479921259842
21
0.4635545669291338
0
LINE
8
BLACK
6
CONTINUOUS
10
0.5590479921259842
20
0.4635545669291338
11
0.5591047244094488
21
0.4641306299212598
0
LINE
8
BLACK
6
CONTINUOUS
10
0.5591047244094488
20
0.4641306299212598
11
0.5595456299212598
21
0.4651950393700787
0
LINE
8
BLACK
6
CONTINUOUS
10
0.5595456299212598
20
0.4651950393700787
11
0.5603602755905511
21
0.4660096850393701
0
LINE
8
BLACK
6
CONTINUOUS
10
0.5603602755905511
20
0.4660096850393701
11
0.56142468503937
21
0.4664505905511811
0
LINE
8
BLACK
6
CONTINUOUS
10
0.56142468503937
20
0.4664505905511811
11
0.562576811023622
21
0.4664505905511811
0
LINE
8
BLACK
6
CONTINUOUS
10
0.562576811023622
20
0.4664505905511811
11
0.5636412204724409
21
0.4660096850393701
0
LINE
8
BLACK
6
CONTINUOUS
10
0.7818681496062992
20
0.4743058661417323
11
0.782932559055118
21
0.4738649606299212
0
LINE
8
BLACK
6
CONTINUOUS
10
0.782932559055118
20
0.4738649606299212
11
0.7837472047244094
21
0.4730503149606299
0
LINE
8
BLACK
6
CONTINUOUS
10
0.7837472047244094
20
0.4730503149606299
11
0.7841881102362205
21
0.471985905511811
0
LINE
8
BLACK
6
CONTINUOUS
10
0.7841881102362205
20
0.471985905511811
11
0.7842448425196851
21
0.471409842519685
0
LINE
8
BLACK
6
CONTINUOUS
10
0.7842448425196851
20
0.471409842519685
11
0.7842448425196851
21
0.4526622047244094
0
LINE
8
BLACK
6
CONTINUOUS
10
0.7842448425196851
20
0.4526622047244094
11
0.7841881102362205
21
0.4520861417322835
0
LINE
8
BLACK
6
CONTINUOUS
10
0.7841881102362205
20
0.4520861417322835
11
0.7837472047244094
21
0.4510217322834645
0
LINE
8
BLACK
6
CONTINUOUS
10
0.7837472047244094
20
0.4510217322834645
11
0.782932559055118
21
0.4502070866141732
0
LINE
8
BLACK
6
CONTINUOUS
10
0.782932559055118
20
0.4502070866141732
11
0.7818681496062992
21
0.4497661811023622
0
LINE
8
BLACK
6
CONTINUOUS
10
0.7818681496062992
20
0.4497661811023622
11
0.7807160236220472
21
0.4497661811023622
0
LINE
8
BLACK
6
CONTINUOUS
10
0.7807160236220472
20
0.4497661811023622
11
0.7796516141732284
21
0.4502070866141732
0
LINE
8
BLACK
6
CONTINUOUS
10
0.7796516141732284
20
0.4502070866141732
11
0.778836968503937
21
0.4510217322834645
0
LINE
8
BLACK
6
CONTINUOUS
10
0.778836968503937
20
0.4510217322834645
11
0.7783960629921259
21
0.4520861417322835
0
LINE
8
BLACK
6
CONTINUOUS
10
0.7783960629921259
20
0.4520861417322835
11
0.7783393307086613
21
0.4526622047244094
0
LINE
8
BLACK
6
CONTINUOUS
10
0.7783393307086613
20
0.4526622047244094
11
0.7783393307086613
21
0.4684570866141732
0
LINE
8
BLACK
6
CONTINUOUS
10
0.7783393307086613
20
0.4684570866141732
11
0.7419220078740157
21
0.4684570866141732
0
LINE
8
BLACK
6
CONTINUOUS
10
0.7419220078740157
20
0.4684570866141732
11
0.7413459448818898
21
0.4685138188976378
0
LINE
8
BLACK
6
CONTINUOUS
10
0.7413459448818898
20
0.4685138188976378
11
0.7402815354330708
21
0.4689547244094488
0
LINE
8
BLACK
6
CONTINUOUS
10
0.7402815354330708
20
0.4689547244094488
11
0.7394668897637795
21
0.4697693700787401
0
LINE
8
BLACK
6
CONTINUOUS
10
0.7394668897637795
20
0.4697693700787401
11
0.7390259842519685
21
0.4708337795275591
0
LINE
8
BLACK
6
CONTINUOUS
10
0.7390259842519685
20
0.4708337795275591
11
0.7390259842519685
21
0.471985905511811
0
LINE
8
BLACK
6
CONTINUOUS
10
0.7390259842519685
20
0.471985905511811
11
0.7394668897637795
21
0.4730503149606299
0
LINE
8
BLACK
6
CONTINUOUS
10
0.7394668897637795
20
0.4730503149606299
11
0.7402815354330708
21
0.4738649606299212
0
LINE
8
BLACK
6
CONTINUOUS
10
0.7402815354330708
20
0.4738649606299212
11
0.7413459448818898
21
0.4743058661417323
0
LINE
8
BLACK
6
CONTINUOUS
10
0.7413459448818898
20
0.4743058661417323
11
0.7419220078740157
21
0.4743625984251968
0
LINE
8
BLACK
6
CONTINUOUS
10
0.7419220078740157
20
0.4743625984251968
11
0.7812920866141733
21
0.4743625984251968
0
LINE
8
BLACK
6
CONTINUOUS
10
0.7812920866141733
20
0.4743625984251968
11
0.7818681496062992
21
0.4743058661417323
0
LINE
8
BLACK
6
CONTINUOUS
10
0.782071968503937
20
0.5136277952755905
11
0.7831024409448819
21
0.5131125984251969
0
LINE
8
BLACK
6
CONTINUOUS
10
0.7831024409448819
20
0.5131125984251969
11
0.7838573228346456
21
0.5122422047244094
0
LINE
8
BLACK
6
CONTINUOUS
10
0.7838573228346456
20
0.5122422047244094
11
0.7842216535433071
21
0.5111492125984252
0
LINE
8
BLACK
6
CONTINUOUS
10
0.7842216535433071
20
0.5111492125984252
11
0.7841399606299212
21
0.51
0
LINE
8
BLACK
6
CONTINUOUS
10
0.7841399606299212
20
0.51
11
0.7836247244094487
21
0.5089695669291339
0
LINE
8
BLACK
6
CONTINUOUS
10
0.7836247244094487
20
0.5089695669291339
11
0.7827543700787402
21
0.5082146850393701
0
LINE
8
BLACK
6
CONTINUOUS
10
0.7827543700787402
20
0.5082146850393701
11
0.7822258267716535
21
0.5079787007874016
0
LINE
8
BLACK
6
CONTINUOUS
10
0.7822258267716535
20
0.5079787007874016
11
0.7729962204724409
21
0.5049022047244094
0
LINE
8
BLACK
6
CONTINUOUS
10
0.7729962204724409
20
0.5049022047244094
11
0.7729962204724409
21
0.4904109842519685
0
LINE
8
BLACK
6
CONTINUOUS
10
0.7729962204724409
20
0.4904109842519685
11
0.7822258267716535
21
0.4873344488188976
0
LINE
8
BLACK
6
CONTINUOUS
10
0.7822258267716535
20
0.4873344488188976
11
0.7827543700787402
21
0.4870984645669291
0
LINE
8
BLACK
6
CONTINUOUS
10
0.7827543700787402
20
0.4870984645669291
11
0.7836247244094487
21
0.4863435826771653
0
LINE
8
BLACK
6
CONTINUOUS
10
0.7836247244094487
20
0.4863435826771653
11
0.7841399606299212
21
0.4853131496062992
0
LINE
8
BLACK
6
CONTINUOUS
10
0.7841399606299212
20
0.4853131496062992
11
0.7842216535433071
21
0.484163937007874
0
LINE
8
BLACK
6
CONTINUOUS
10
0.7842216535433071
20
0.484163937007874
11
0.7838573228346456
21
0.4830709448818897
0
LINE
8
BLACK
6
CONTINUOUS
10
0.7838573228346456
20
0.4830709448818897
11
0.7831024409448819
21
0.4822005511811023
0
LINE
8
BLACK
6
CONTINUOUS
10
0.7831024409448819
20
0.4822005511811023
11
0.782071968503937
21
0.4816853543307086
0
LINE
8
BLACK
6
CONTINUOUS
10
0.782071968503937
20
0.4816853543307086
11
0.7809227559055117
21
0.4816036614173228
0
LINE
8
BLACK
6
CONTINUOUS
10
0.7809227559055117
20
0.4816036614173228
11
0.7803583464566929
21
0.4817320078740157
0
LINE
8
BLACK
6
CONTINUOUS
10
0.7803583464566929
20
0.4817320078740157
11
0.7409882677165354
21
0.4948553543307087
0
LINE
8
BLACK
6
CONTINUOUS
10
0.7409882677165354
20
0.4948553543307087
11
0.7404596850393701
21
0.4950913385826772
0
LINE
8
BLACK
6
CONTINUOUS
10
0.7404596850393701
20
0.4950913385826772
11
0.7403002755905511
21
0.4952296062992126
0
LINE
8
BLACK
6
CONTINUOUS
10
0.7403002755905511
20
0.4952296062992126
11
0.7401116535433071
21
0.4953238976377953
0
LINE
8
BLACK
6
CONTINUOUS
10
0.7401116535433071
20
0.4953238976377953
11
0.7398690157480314
21
0.4956036220472441
0
LINE
8
BLACK
6
CONTINUOUS
10
0.7398690157480314
20
0.4956036220472441
11
0.7395893307086614
21
0.4958462204724409
0
LINE
8
BLACK
6
CONTINUOUS
10
0.7395893307086614
20
0.4958462204724409
11
0.739495
21
0.4960348818897637
0
LINE
8
BLACK
6
CONTINUOUS
10
0.739495
20
0.4960348818897637
11
0.7393567716535433
21
0.4961942519685039
0
LINE
8
BLACK
6
CONTINUOUS
10
0.7393567716535433
20
0.4961942519685039
11
0.7392396456692913
21
0.4965455905511811
0
LINE
8
BLACK
6
CONTINUOUS
10
0.7392396456692913
20
0.4965455905511811
11
0.7390741338582677
21
0.4968766535433071
0
LINE
8
BLACK
6
CONTINUOUS
10
0.7390741338582677
20
0.4968766535433071
11
0.7390591732283465
21
0.4970870866141732
0
LINE
8
BLACK
6
CONTINUOUS
10
0.7390591732283465
20
0.4970870866141732
11
0.7389924409448819
21
0.4972872834645669
0
LINE
8
BLACK
6
CONTINUOUS
10
0.7389924409448819
20
0.4972872834645669
11
0.7390186614173229
21
0.4976565748031496
0
LINE
8
BLACK
6
CONTINUOUS
10
0.7390186614173229
20
0.4976565748031496
11
0.7389924409448819
21
0.4980258661417323
0
LINE
8
BLACK
6
CONTINUOUS
10
0.7389924409448819
20
0.4980258661417323
11
0.7390591732283465
21
0.4982261023622047
0
LINE
8
BLACK
6
CONTINUOUS
10
0.7390591732283465
20
0.4982261023622047
11
0.7390741338582677
21
0.4984364960629921
0
LINE
8
BLACK
6
CONTINUOUS
10
0.7390741338582677
20
0.4984364960629921
11
0.7392396456692913
21
0.4987675984251969
0
LINE
8
BLACK
6
CONTINUOUS
10
0.7392396456692913
20
0.4987675984251969
11
0.7393567716535433
21
0.4991188976377953
0
LINE
8
BLACK
6
CONTINUOUS
10
0.7393567716535433
20
0.4991188976377953
11
0.739495
21
0.4992783070866141
0
LINE
8
BLACK
6
CONTINUOUS
10
0.739495
20
0.4992783070866141
11
0.7395893307086614
21
0.4994669291338583
0
LINE
8
BLACK
6
CONTINUOUS
10
0.7395893307086614
20
0.4994669291338583
11
0.7398690157480314
21
0.4997095669291338
0
LINE
8
BLACK
6
CONTINUOUS
10
0.7398690157480314
20
0.4997095669291338
11
0.7401116535433071
21
0.4999892519685039
0
LINE
8
BLACK
6
CONTINUOUS
10
0.7401116535433071
20
0.4999892519685039
11
0.7403002755905511
21
0.5000835826771654
0
LINE
8
BLACK
6
CONTINUOUS
10
0.7403002755905511
20
0.5000835826771654
11
0.7404596850393701
21
0.5002218110236221
0
LINE
8
BLACK
6
CONTINUOUS
10
0.7404596850393701
20
0.5002218110236221
11
0.7409882677165354
21
0.5004577952755905
0
LINE
8
BLACK
6
CONTINUOUS
10
0.7409882677165354
20
0.5004577952755905
11
0.7803583464566929
21
0.5135811417322834
0
LINE
8
BLACK
6
CONTINUOUS
10
0.7803583464566929
20
0.5135811417322834
11
0.7809227559055117
21
0.5137094881889763
0
LINE
8
BLACK
6
CONTINUOUS
10
0.7809227559055117
20
0.5137094881889763
11
0.782071968503937
21
0.5136277952755905
0
LINE
8
BLACK
6
CONTINUOUS
10
0.7512594094488189
20
0.4976565748031496
11
0.7670907086614173
21
0.4923794881889764
0
LINE
8
BLACK
6
CONTINUOUS
10
0.7670907086614173
20
0.4923794881889764
11
0.7670907086614173
21
0.5029337007874015
0
LINE
8
BLACK
6
CONTINUOUS
10
0.7670907086614173
20
0.5029337007874015
11
0.7512594094488189
21
0.4976565748031496
  0
ENDSEC
  0
EOF
