  0
SECTION
  2
HEADER
  9
$ANGBASE
  50
0.0
  9
$ANGDIR
  70
1
  9
$MEASUREMENT
  70
0
  0
ENDSEC
  0
SECTION
  2
TABLES
  0
TABLE
  2
LTYPE
  70
4
  0
LTYPE
  5
40F
  2
CONTINUOUS
  70
0
  3
Solid line
  72
65
  73
0
  40
0.0
  0
LTYPE
  5
410
  2
DASHDOT
 70
0
  3
Dash Dot ____ _ ____ _
 72
65
 73
4
 40
2.0
 49
1.25
 49
-0.25
 49
0.25
 49
-0.25
  0
LTYPE
  5
411
  2
DASHED
 70
0
  3
Dashed __ __ __ __ __
 72
65
 73
2
 40
0.75
 49
0.5
 49
-0.25
  0
LTYPE
  5
43B
  2
DOTTED
 70
0
  3
Dotted .  .  .  .
 72
65
 73
2
 40
0.2
 49
0.0
 49
-0.2
  0
ENDTAB
  0
TABLE
  2
STYLE
  70
4
  0
STYLE
  2
KICAD
  70
0
  40
0
  41
1
  42
1
  50
0
  71
0
  3
isocp.shx
  0
STYLE
  2
KICADB
  70
0
  40
0
  41
1
  42
1
  50
0
  71
0
  3
isocp.shx
  0
STYLE
  2
KICADI
  70
0
  40
0
  41
1
  42
1
  50
15
  71
0
  3
isocp.shx
  0
STYLE
  2
KICADBI
  70
0
  40
0
  41
1
  42
1
  50
15
  71
0
  3
isocp.shx
  0
ENDTAB
  0
TABLE
  2
LAYER
  70
1
  0
LAYER
  2
BLACK
  70
0
  62
7
  6
CONTINUOUS
  0
ENDTAB
  0
ENDSEC
  0
SECTION
  2
ENTITIES
0
LINE
8
BLACK
6
CONTINUOUS
10
-0.8939014566929133
20
-0.9532054330708661
11
-0.8919855905511811
21
-0.9544855905511811
0
LINE
8
BLACK
6
CONTINUOUS
10
-0.8919855905511811
20
-0.9544855905511811
11
-0.8907054330708661
21
-0.9564014566929133
0
LINE
8
BLACK
6
CONTINUOUS
10
-0.8907054330708661
20
-0.9564014566929133
11
-0.890255905511811
21
-0.9586614173228346
0
LINE
8
BLACK
6
CONTINUOUS
10
-0.890255905511811
20
-0.9586614173228346
11
-0.890255905511811
21
-0.9704724409448818
0
LINE
8
BLACK
6
CONTINUOUS
10
-0.890255905511811
20
-0.9704724409448818
11
-0.8907054330708661
21
-0.9727324015748031
0
LINE
8
BLACK
6
CONTINUOUS
10
-0.8907054330708661
20
-0.9727324015748031
11
-0.8919855905511811
21
-0.9746482677165355
0
LINE
8
BLACK
6
CONTINUOUS
10
-0.8919855905511811
20
-0.9746482677165355
11
-0.8939014566929133
21
-0.9759284251968504
0
LINE
8
BLACK
6
CONTINUOUS
10
-0.8939014566929133
20
-0.9759284251968504
11
-0.8961614173228346
21
-0.9763779527559054
0
LINE
8
BLACK
6
CONTINUOUS
10
-0.8961614173228346
20
-0.9763779527559054
11
-0.9365157480314961
21
-0.9763779527559054
0
LINE
8
BLACK
6
CONTINUOUS
10
-0.9365157480314961
20
-0.9763779527559054
11
-0.9387757086614174
21
-0.9759284251968504
0
LINE
8
BLACK
6
CONTINUOUS
10
-0.9387757086614174
20
-0.9759284251968504
11
-0.9406915748031496
21
-0.9746482677165355
0
LINE
8
BLACK
6
CONTINUOUS
10
-0.9406915748031496
20
-0.9746482677165355
11
-0.9419717322834645
21
-0.9727324015748031
0
LINE
8
BLACK
6
CONTINUOUS
10
-0.9419717322834645
20
-0.9727324015748031
11
-0.9424212598425197
21
-0.9704724409448818
0
LINE
8
BLACK
6
CONTINUOUS
10
-0.9424212598425197
20
-0.9704724409448818
11
-0.9424212598425197
21
-0.9586614173228346
0
LINE
8
BLACK
6
CONTINUOUS
10
-0.9424212598425197
20
-0.9586614173228346
11
-0.9419717322834645
21
-0.9564014566929133
0
LINE
8
BLACK
6
CONTINUOUS
10
-0.9419717322834645
20
-0.9564014566929133
11
-0.9406915748031496
21
-0.9544855905511811
0
LINE
8
BLACK
6
CONTINUOUS
10
-0.9406915748031496
20
-0.9544855905511811
11
-0.9387757086614174
21
-0.9532054330708661
0
LINE
8
BLACK
6
CONTINUOUS
10
-0.9387757086614174
20
-0.9532054330708661
11
-0.9365157480314961
21
-0.952755905511811
0
LINE
8
BLACK
6
CONTINUOUS
10
-0.9365157480314961
20
-0.952755905511811
11
-0.8961614173228346
21
-0.952755905511811
0
LINE
8
BLACK
6
CONTINUOUS
10
-0.8961614173228346
20
-0.952755905511811
11
-0.8939014566929133
21
-0.9532054330708661
0
LINE
8
BLACK
6
CONTINUOUS
10
-0.8043345275590551
20
-0.9532054330708661
11
-0.8024186614173228
21
-0.9544855905511811
0
LINE
8
BLACK
6
CONTINUOUS
10
-0.8024186614173228
20
-0.9544855905511811
11
-0.8011385039370078
21
-0.9564014566929133
0
LINE
8
BLACK
6
CONTINUOUS
10
-0.8011385039370078
20
-0.9564014566929133
11
-0.8006889763779528
21
-0.9586614173228346
0
LINE
8
BLACK
6
CONTINUOUS
10
-0.8006889763779528
20
-0.9586614173228346
11
-0.8006889763779528
21
-0.9704724409448818
0
LINE
8
BLACK
6
CONTINUOUS
10
-0.8006889763779528
20
-0.9704724409448818
11
-0.8011385039370078
21
-0.9727324015748031
0
LINE
8
BLACK
6
CONTINUOUS
10
-0.8011385039370078
20
-0.9727324015748031
11
-0.8024186614173228
21
-0.9746482677165355
0
LINE
8
BLACK
6
CONTINUOUS
10
-0.8024186614173228
20
-0.9746482677165355
11
-0.8043345275590551
21
-0.9759284251968504
0
LINE
8
BLACK
6
CONTINUOUS
10
-0.8043345275590551
20
-0.9759284251968504
11
-0.8065944881889764
21
-0.9763779527559054
0
LINE
8
BLACK
6
CONTINUOUS
10
-0.8065944881889764
20
-0.9763779527559054
11
-0.8469488188976377
21
-0.9763779527559054
0
LINE
8
BLACK
6
CONTINUOUS
10
-0.8469488188976377
20
-0.9763779527559054
11
-0.849208779527559
21
-0.9759284251968504
0
LINE
8
BLACK
6
CONTINUOUS
10
-0.849208779527559
20
-0.9759284251968504
11
-0.8511246456692914
21
-0.9746482677165355
0
LINE
8
BLACK
6
CONTINUOUS
10
-0.8511246456692914
20
-0.9746482677165355
11
-0.8524048031496063
21
-0.9727324015748031
0
LINE
8
BLACK
6
CONTINUOUS
10
-0.8524048031496063
20
-0.9727324015748031
11
-0.8528543307086613
21
-0.9704724409448818
0
LINE
8
BLACK
6
CONTINUOUS
10
-0.8528543307086613
20
-0.9704724409448818
11
-0.8528543307086613
21
-0.9586614173228346
0
LINE
8
BLACK
6
CONTINUOUS
10
-0.8528543307086613
20
-0.9586614173228346
11
-0.8524048031496063
21
-0.9564014566929133
0
LINE
8
BLACK
6
CONTINUOUS
10
-0.8524048031496063
20
-0.9564014566929133
11
-0.8511246456692914
21
-0.9544855905511811
0
LINE
8
BLACK
6
CONTINUOUS
10
-0.8511246456692914
20
-0.9544855905511811
11
-0.849208779527559
21
-0.9532054330708661
0
LINE
8
BLACK
6
CONTINUOUS
10
-0.849208779527559
20
-0.9532054330708661
11
-0.8469488188976377
21
-0.952755905511811
0
LINE
8
BLACK
6
CONTINUOUS
10
-0.8469488188976377
20
-0.952755905511811
11
-0.8065944881889764
21
-0.952755905511811
0
LINE
8
BLACK
6
CONTINUOUS
10
-0.8065944881889764
20
-0.952755905511811
11
-0.8043345275590551
21
-0.9532054330708661
0
LINE
8
BLACK
6
CONTINUOUS
10
-0.8939014566929133
20
-0.9158038582677165
11
-0.8919855905511811
21
-0.9170840157480314
0
LINE
8
BLACK
6
CONTINUOUS
10
-0.8919855905511811
20
-0.9170840157480314
11
-0.8907054330708661
21
-0.9189998818897638
0
LINE
8
BLACK
6
CONTINUOUS
10
-0.8907054330708661
20
-0.9189998818897638
11
-0.890255905511811
21
-0.9212598425196851
0
LINE
8
BLACK
6
CONTINUOUS
10
-0.890255905511811
20
-0.9212598425196851
11
-0.890255905511811
21
-0.9330708661417323
0
LINE
8
BLACK
6
CONTINUOUS
10
-0.890255905511811
20
-0.9330708661417323
11
-0.8907054330708661
21
-0.9353308267716535
0
LINE
8
BLACK
6
CONTINUOUS
10
-0.8907054330708661
20
-0.9353308267716535
11
-0.8919855905511811
21
-0.9372466929133858
0
LINE
8
BLACK
6
CONTINUOUS
10
-0.8919855905511811
20
-0.9372466929133858
11
-0.8939014566929133
21
-0.9385268503937008
0
LINE
8
BLACK
6
CONTINUOUS
10
-0.8939014566929133
20
-0.9385268503937008
11
-0.8961614173228346
21
-0.9389763779527559
0
LINE
8
BLACK
6
CONTINUOUS
10
-0.8961614173228346
20
-0.9389763779527559
11
-0.9365157480314961
21
-0.9389763779527559
0
LINE
8
BLACK
6
CONTINUOUS
10
-0.9365157480314961
20
-0.9389763779527559
11
-0.9387757086614174
21
-0.9385268503937008
0
LINE
8
BLACK
6
CONTINUOUS
10
-0.9387757086614174
20
-0.9385268503937008
11
-0.9406915748031496
21
-0.9372466929133858
0
LINE
8
BLACK
6
CONTINUOUS
10
-0.9406915748031496
20
-0.9372466929133858
11
-0.9419717322834645
21
-0.9353308267716535
0
LINE
8
BLACK
6
CONTINUOUS
10
-0.9419717322834645
20
-0.9353308267716535
11
-0.9424212598425197
21
-0.9330708661417323
0
LINE
8
BLACK
6
CONTINUOUS
10
-0.9424212598425197
20
-0.9330708661417323
11
-0.9424212598425197
21
-0.9212598425196851
0
LINE
8
BLACK
6
CONTINUOUS
10
-0.9424212598425197
20
-0.9212598425196851
11
-0.9419717322834645
21
-0.9189998818897638
0
LINE
8
BLACK
6
CONTINUOUS
10
-0.9419717322834645
20
-0.9189998818897638
11
-0.9406915748031496
21
-0.9170840157480314
0
LINE
8
BLACK
6
CONTINUOUS
10
-0.9406915748031496
20
-0.9170840157480314
11
-0.9387757086614174
21
-0.9158038582677165
0
LINE
8
BLACK
6
CONTINUOUS
10
-0.9387757086614174
20
-0.9158038582677165
11
-0.9365157480314961
21
-0.9153543307086613
0
LINE
8
BLACK
6
CONTINUOUS
10
-0.9365157480314961
20
-0.9153543307086613
11
-0.8961614173228346
21
-0.9153543307086613
0
LINE
8
BLACK
6
CONTINUOUS
10
-0.8961614173228346
20
-0.9153543307086613
11
-0.8939014566929133
21
-0.9158038582677165
0
LINE
8
BLACK
6
CONTINUOUS
10
-2.030625433070866
20
-0.8764837401574803
11
-2.0284966929133859
21
-0.8779061417322834
0
LINE
8
BLACK
6
CONTINUOUS
10
-2.0284966929133859
20
-0.8779061417322834
11
-2.0270742913385824
21
-0.8800348818897638
0
LINE
8
BLACK
6
CONTINUOUS
10
-2.0270742913385824
20
-0.8800348818897638
11
-2.0265748425196848
21
-0.8825459842519685
0
LINE
8
BLACK
6
CONTINUOUS
10
-2.0265748425196848
20
-0.8825459842519685
11
-2.0265748031496065
21
-0.9284776771653543
0
LINE
8
BLACK
6
CONTINUOUS
10
-2.0265748031496065
20
-0.9284776771653543
11
-2.0270742913385824
21
-0.9309887401574803
0
LINE
8
BLACK
6
CONTINUOUS
10
-2.0270742913385824
20
-0.9309887401574803
11
-2.0284966929133859
21
-0.9331174803149606
0
LINE
8
BLACK
6
CONTINUOUS
10
-2.0284966929133859
20
-0.9331174803149606
11
-2.030625433070866
21
-0.9345398818897638
0
LINE
8
BLACK
6
CONTINUOUS
10
-2.030625433070866
20
-0.9345398818897638
11
-2.0331365354330706
21
-0.9350393307086614
0
LINE
8
BLACK
6
CONTINUOUS
10
-2.0331365354330706
20
-0.9350393307086614
11
-2.0692257086614174
21
-0.9350393700787402
0
LINE
8
BLACK
6
CONTINUOUS
10
-2.0692257086614174
20
-0.9350393700787402
11
-2.0717367716535433
21
-0.9345398818897638
0
LINE
8
BLACK
6
CONTINUOUS
10
-2.0717367716535433
20
-0.9345398818897638
11
-2.0738655118110234
21
-0.9331174803149606
0
LINE
8
BLACK
6
CONTINUOUS
10
-2.0738655118110234
20
-0.9331174803149606
11
-2.0752879133858269
21
-0.9309887401574803
0
LINE
8
BLACK
6
CONTINUOUS
10
-2.0752879133858269
20
-0.9309887401574803
11
-2.0757873622047245
21
-0.9284776377952756
0
LINE
8
BLACK
6
CONTINUOUS
10
-2.0757873622047245
20
-0.9284776377952756
11
-2.0757874015748032
21
-0.8825459448818898
0
LINE
8
BLACK
6
CONTINUOUS
10
-2.0757874015748032
20
-0.8825459448818898
11
-2.0752879133858269
21
-0.8800348818897638
0
LINE
8
BLACK
6
CONTINUOUS
10
-2.0752879133858269
20
-0.8800348818897638
11
-2.0738655118110234
21
-0.8779061417322834
0
LINE
8
BLACK
6
CONTINUOUS
10
-2.0738655118110234
20
-0.8779061417322834
11
-2.0717367716535433
21
-0.8764837401574803
0
LINE
8
BLACK
6
CONTINUOUS
10
-2.0717367716535433
20
-0.8764837401574803
11
-2.0692256692913387
21
-0.8759842913385827
0
LINE
8
BLACK
6
CONTINUOUS
10
-2.0692256692913387
20
-0.8759842913385827
11
-2.0331364960629923
21
-0.8759842519685039
0
LINE
8
BLACK
6
CONTINUOUS
10
-2.0331364960629923
20
-0.8759842519685039
11
-2.030625433070866
21
-0.8764837401574803
0
LINE
8
BLACK
6
CONTINUOUS
10
-1.8888931496062991
20
-0.8764837401574803
11
-1.886764409448819
21
-0.8779061417322834
0
LINE
8
BLACK
6
CONTINUOUS
10
-1.886764409448819
20
-0.8779061417322834
11
-1.8853420078740157
21
-0.8800348818897638
0
LINE
8
BLACK
6
CONTINUOUS
10
-1.8853420078740157
20
-0.8800348818897638
11
-1.8848425590551181
21
-0.8825459842519685
0
LINE
8
BLACK
6
CONTINUOUS
10
-1.8848425590551181
20
-0.8825459842519685
11
-1.8848425196850394
21
-0.9284776771653543
0
LINE
8
BLACK
6
CONTINUOUS
10
-1.8848425196850394
20
-0.9284776771653543
11
-1.8853420078740157
21
-0.9309887401574803
0
LINE
8
BLACK
6
CONTINUOUS
10
-1.8853420078740157
20
-0.9309887401574803
11
-1.886764409448819
21
-0.9331174803149606
0
LINE
8
BLACK
6
CONTINUOUS
10
-1.886764409448819
20
-0.9331174803149606
11
-1.8888931496062991
21
-0.9345398818897638
0
LINE
8
BLACK
6
CONTINUOUS
10
-1.8888931496062991
20
-0.9345398818897638
11
-1.8914042519685039
21
-0.9350393307086614
0
LINE
8
BLACK
6
CONTINUOUS
10
-1.8914042519685039
20
-0.9350393307086614
11
-1.9274934251968503
21
-0.9350393700787402
0
LINE
8
BLACK
6
CONTINUOUS
10
-1.9274934251968503
20
-0.9350393700787402
11
-1.9300044881889764
21
-0.9345398818897638
0
LINE
8
BLACK
6
CONTINUOUS
10
-1.9300044881889764
20
-0.9345398818897638
11
-1.9321332283464567
21
-0.9331174803149606
0
LINE
8
BLACK
6
CONTINUOUS
10
-1.9321332283464567
20
-0.9331174803149606
11
-1.9335556299212597
21
-0.9309887401574803
0
LINE
8
BLACK
6
CONTINUOUS
10
-1.9335556299212597
20
-0.9309887401574803
11
-1.9340550787401574
21
-0.9284776377952756
0
LINE
8
BLACK
6
CONTINUOUS
10
-1.9340550787401574
20
-0.9284776377952756
11
-1.9340551181102361
21
-0.8825459448818898
0
LINE
8
BLACK
6
CONTINUOUS
10
-1.9340551181102361
20
-0.8825459448818898
11
-1.9335556299212597
21
-0.8800348818897638
0
LINE
8
BLACK
6
CONTINUOUS
10
-1.9335556299212597
20
-0.8800348818897638
11
-1.9321332283464567
21
-0.8779061417322834
0
LINE
8
BLACK
6
CONTINUOUS
10
-1.9321332283464567
20
-0.8779061417322834
11
-1.9300044881889764
21
-0.8764837401574803
0
LINE
8
BLACK
6
CONTINUOUS
10
-1.9300044881889764
20
-0.8764837401574803
11
-1.9274933858267715
21
-0.8759842913385827
0
LINE
8
BLACK
6
CONTINUOUS
10
-1.9274933858267715
20
-0.8759842913385827
11
-1.8914042125984252
21
-0.8759842519685039
0
LINE
8
BLACK
6
CONTINUOUS
10
-1.8914042125984252
20
-0.8759842519685039
11
-1.8888931496062991
21
-0.8764837401574803
0
LINE
8
BLACK
6
CONTINUOUS
10
-0.6406511023622047
20
-0.8727027952755906
11
-0.6378570866141732
21
-0.87456968503937
0
LINE
8
BLACK
6
CONTINUOUS
10
-0.6378570866141732
20
-0.87456968503937
11
-0.6359901968503937
21
-0.8773637007874016
0
LINE
8
BLACK
6
CONTINUOUS
10
-0.6359901968503937
20
-0.8773637007874016
11
-0.6353346456692913
21
-0.8806594488188976
0
LINE
8
BLACK
6
CONTINUOUS
10
-0.6353346456692913
20
-0.8806594488188976
11
-0.6353346456692913
21
-0.8978838582677166
0
LINE
8
BLACK
6
CONTINUOUS
10
-0.6353346456692913
20
-0.8978838582677166
11
-0.6359901968503937
21
-0.9011796062992126
0
LINE
8
BLACK
6
CONTINUOUS
10
-0.6359901968503937
20
-0.9011796062992126
11
-0.6378570866141732
21
-0.9039736220472441
0
LINE
8
BLACK
6
CONTINUOUS
10
-0.6378570866141732
20
-0.9039736220472441
11
-0.6406511023622047
21
-0.9058405118110237
0
LINE
8
BLACK
6
CONTINUOUS
10
-0.6406511023622047
20
-0.9058405118110237
11
-0.6439468503937008
21
-0.9064960629921259
0
LINE
8
BLACK
6
CONTINUOUS
10
-0.6439468503937008
20
-0.9064960629921259
11
-0.6641240157480315
21
-0.9064960629921259
0
LINE
8
BLACK
6
CONTINUOUS
10
-0.6641240157480315
20
-0.9064960629921259
11
-0.6674197637795275
21
-0.9058405118110237
0
LINE
8
BLACK
6
CONTINUOUS
10
-0.6674197637795275
20
-0.9058405118110237
11
-0.670213779527559
21
-0.9039736220472441
0
LINE
8
BLACK
6
CONTINUOUS
10
-0.670213779527559
20
-0.9039736220472441
11
-0.6720806692913386
21
-0.9011796062992126
0
LINE
8
BLACK
6
CONTINUOUS
10
-0.6720806692913386
20
-0.9011796062992126
11
-0.672736220472441
21
-0.8978838582677166
0
LINE
8
BLACK
6
CONTINUOUS
10
-0.672736220472441
20
-0.8978838582677166
11
-0.672736220472441
21
-0.8806594488188976
0
LINE
8
BLACK
6
CONTINUOUS
10
-0.672736220472441
20
-0.8806594488188976
11
-0.6720806692913386
21
-0.8773637007874016
0
LINE
8
BLACK
6
CONTINUOUS
10
-0.6720806692913386
20
-0.8773637007874016
11
-0.670213779527559
21
-0.87456968503937
0
LINE
8
BLACK
6
CONTINUOUS
10
-0.670213779527559
20
-0.87456968503937
11
-0.6674197637795275
21
-0.8727027952755906
0
LINE
8
BLACK
6
CONTINUOUS
10
-0.6674197637795275
20
-0.8727027952755906
11
-0.6641240157480315
21
-0.8720472440944882
0
LINE
8
BLACK
6
CONTINUOUS
10
-0.6641240157480315
20
-0.8720472440944882
11
-0.6439468503937008
21
-0.8720472440944882
0
LINE
8
BLACK
6
CONTINUOUS
10
-0.6439468503937008
20
-0.8720472440944882
11
-0.6406511023622047
21
-0.8727027952755906
0
LINE
8
BLACK
6
CONTINUOUS
10
-0.8939014566929133
20
-0.8784022834645669
11
-0.8919855905511811
21
-0.8796824409448819
0
LINE
8
BLACK
6
CONTINUOUS
10
-0.8919855905511811
20
-0.8796824409448819
11
-0.8907054330708661
21
-0.8815983070866141
0
LINE
8
BLACK
6
CONTINUOUS
10
-0.8907054330708661
20
-0.8815983070866141
11
-0.890255905511811
21
-0.8838582677165354
0
LINE
8
BLACK
6
CONTINUOUS
10
-0.890255905511811
20
-0.8838582677165354
11
-0.890255905511811
21
-0.8956692913385826
0
LINE
8
BLACK
6
CONTINUOUS
10
-0.890255905511811
20
-0.8956692913385826
11
-0.8907054330708661
21
-0.8979292519685039
0
LINE
8
BLACK
6
CONTINUOUS
10
-0.8907054330708661
20
-0.8979292519685039
11
-0.8919855905511811
21
-0.8998451181102362
0
LINE
8
BLACK
6
CONTINUOUS
10
-0.8919855905511811
20
-0.8998451181102362
11
-0.8939014566929133
21
-0.9011252755905511
0
LINE
8
BLACK
6
CONTINUOUS
10
-0.8939014566929133
20
-0.9011252755905511
11
-0.8961614173228346
21
-0.9015748031496063
0
LINE
8
BLACK
6
CONTINUOUS
10
-0.8961614173228346
20
-0.9015748031496063
11
-0.9365157480314961
21
-0.9015748031496063
0
LINE
8
BLACK
6
CONTINUOUS
10
-0.9365157480314961
20
-0.9015748031496063
11
-0.9387757086614174
21
-0.9011252755905511
0
LINE
8
BLACK
6
CONTINUOUS
10
-0.9387757086614174
20
-0.9011252755905511
11
-0.9406915748031496
21
-0.8998451181102362
0
LINE
8
BLACK
6
CONTINUOUS
10
-0.9406915748031496
20
-0.8998451181102362
11
-0.9419717322834645
21
-0.8979292519685039
0
LINE
8
BLACK
6
CONTINUOUS
10
-0.9419717322834645
20
-0.8979292519685039
11
-0.9424212598425197
21
-0.8956692913385826
0
LINE
8
BLACK
6
CONTINUOUS
10
-0.9424212598425197
20
-0.8956692913385826
11
-0.9424212598425197
21
-0.8838582677165354
0
LINE
8
BLACK
6
CONTINUOUS
10
-0.9424212598425197
20
-0.8838582677165354
11
-0.9419717322834645
21
-0.8815983070866141
0
LINE
8
BLACK
6
CONTINUOUS
10
-0.9419717322834645
20
-0.8815983070866141
11
-0.9406915748031496
21
-0.8796824409448819
0
LINE
8
BLACK
6
CONTINUOUS
10
-0.9406915748031496
20
-0.8796824409448819
11
-0.9387757086614174
21
-0.8784022834645669
0
LINE
8
BLACK
6
CONTINUOUS
10
-0.9387757086614174
20
-0.8784022834645669
11
-0.9365157480314961
21
-0.8779527559055118
0
LINE
8
BLACK
6
CONTINUOUS
10
-0.9365157480314961
20
-0.8779527559055118
11
-0.8961614173228346
21
-0.8779527559055118
0
LINE
8
BLACK
6
CONTINUOUS
10
-0.8961614173228346
20
-0.8779527559055118
11
-0.8939014566929133
21
-0.8784022834645669
0
LINE
8
BLACK
6
CONTINUOUS
10
-0.8043345275590551
20
-0.8784022834645669
11
-0.8024186614173228
21
-0.8796824409448819
0
LINE
8
BLACK
6
CONTINUOUS
10
-0.8024186614173228
20
-0.8796824409448819
11
-0.8011385039370078
21
-0.8815983070866141
0
LINE
8
BLACK
6
CONTINUOUS
10
-0.8011385039370078
20
-0.8815983070866141
11
-0.8006889763779528
21
-0.8838582677165354
0
LINE
8
BLACK
6
CONTINUOUS
10
-0.8006889763779528
20
-0.8838582677165354
11
-0.8006889763779528
21
-0.8956692913385826
0
LINE
8
BLACK
6
CONTINUOUS
10
-0.8006889763779528
20
-0.8956692913385826
11
-0.8011385039370078
21
-0.8979292519685039
0
LINE
8
BLACK
6
CONTINUOUS
10
-0.8011385039370078
20
-0.8979292519685039
11
-0.8024186614173228
21
-0.8998451181102362
0
LINE
8
BLACK
6
CONTINUOUS
10
-0.8024186614173228
20
-0.8998451181102362
11
-0.8043345275590551
21
-0.9011252755905511
0
LINE
8
BLACK
6
CONTINUOUS
10
-0.8043345275590551
20
-0.9011252755905511
11
-0.8065944881889764
21
-0.9015748031496063
0
LINE
8
BLACK
6
CONTINUOUS
10
-0.8065944881889764
20
-0.9015748031496063
11
-0.8469488188976377
21
-0.9015748031496063
0
LINE
8
BLACK
6
CONTINUOUS
10
-0.8469488188976377
20
-0.9015748031496063
11
-0.849208779527559
21
-0.9011252755905511
0
LINE
8
BLACK
6
CONTINUOUS
10
-0.849208779527559
20
-0.9011252755905511
11
-0.8511246456692914
21
-0.8998451181102362
0
LINE
8
BLACK
6
CONTINUOUS
10
-0.8511246456692914
20
-0.8998451181102362
11
-0.8524048031496063
21
-0.8979292519685039
0
LINE
8
BLACK
6
CONTINUOUS
10
-0.8524048031496063
20
-0.8979292519685039
11
-0.8528543307086613
21
-0.8956692913385826
0
LINE
8
BLACK
6
CONTINUOUS
10
-0.8528543307086613
20
-0.8956692913385826
11
-0.8528543307086613
21
-0.8838582677165354
0
LINE
8
BLACK
6
CONTINUOUS
10
-0.8528543307086613
20
-0.8838582677165354
11
-0.8524048031496063
21
-0.8815983070866141
0
LINE
8
BLACK
6
CONTINUOUS
10
-0.8524048031496063
20
-0.8815983070866141
11
-0.8511246456692914
21
-0.8796824409448819
0
LINE
8
BLACK
6
CONTINUOUS
10
-0.8511246456692914
20
-0.8796824409448819
11
-0.849208779527559
21
-0.8784022834645669
0
LINE
8
BLACK
6
CONTINUOUS
10
-0.849208779527559
20
-0.8784022834645669
11
-0.8469488188976377
21
-0.8779527559055118
0
LINE
8
BLACK
6
CONTINUOUS
10
-0.8469488188976377
20
-0.8779527559055118
11
-0.8065944881889764
21
-0.8779527559055118
0
LINE
8
BLACK
6
CONTINUOUS
10
-0.8065944881889764
20
-0.8779527559055118
11
-0.8043345275590551
21
-0.8784022834645669
0
LINE
8
BLACK
6
CONTINUOUS
10
-1.4925211811023622
20
-0.8421909842519685
11
-1.4897271653543307
21
-0.8440578740157481
0
LINE
8
BLACK
6
CONTINUOUS
10
-1.4897271653543307
20
-0.8440578740157481
11
-1.4878602755905512
21
-0.8468518897637795
0
LINE
8
BLACK
6
CONTINUOUS
10
-1.4878602755905512
20
-0.8468518897637795
11
-1.4872047244094488
21
-0.8501476377952756
0
LINE
8
BLACK
6
CONTINUOUS
10
-1.4872047244094488
20
-0.8501476377952756
11
-1.4872047244094488
21
-0.8673720472440944
0
LINE
8
BLACK
6
CONTINUOUS
10
-1.4872047244094488
20
-0.8673720472440944
11
-1.4878602755905512
21
-0.8706677952755906
0
LINE
8
BLACK
6
CONTINUOUS
10
-1.4878602755905512
20
-0.8706677952755906
11
-1.4897271653543307
21
-0.8734618110236221
0
LINE
8
BLACK
6
CONTINUOUS
10
-1.4897271653543307
20
-0.8734618110236221
11
-1.4925211811023622
21
-0.8753287007874015
0
LINE
8
BLACK
6
CONTINUOUS
10
-1.4925211811023622
20
-0.8753287007874015
11
-1.4958169291338583
21
-0.8759842519685039
0
LINE
8
BLACK
6
CONTINUOUS
10
-1.4958169291338583
20
-0.8759842519685039
11
-1.5159940944881889
21
-0.8759842519685039
0
LINE
8
BLACK
6
CONTINUOUS
10
-1.5159940944881889
20
-0.8759842519685039
11
-1.519289842519685
21
-0.8753287007874015
0
LINE
8
BLACK
6
CONTINUOUS
10
-1.519289842519685
20
-0.8753287007874015
11
-1.5220838582677165
21
-0.8734618110236221
0
LINE
8
BLACK
6
CONTINUOUS
10
-1.5220838582677165
20
-0.8734618110236221
11
-1.523950748031496
21
-0.8706677952755906
0
LINE
8
BLACK
6
CONTINUOUS
10
-1.523950748031496
20
-0.8706677952755906
11
-1.5246062992125984
21
-0.8673720472440944
0
LINE
8
BLACK
6
CONTINUOUS
10
-1.5246062992125984
20
-0.8673720472440944
11
-1.5246062992125984
21
-0.8501476377952756
0
LINE
8
BLACK
6
CONTINUOUS
10
-1.5246062992125984
20
-0.8501476377952756
11
-1.523950748031496
21
-0.8468518897637795
0
LINE
8
BLACK
6
CONTINUOUS
10
-1.523950748031496
20
-0.8468518897637795
11
-1.5220838582677165
21
-0.8440578740157481
0
LINE
8
BLACK
6
CONTINUOUS
10
-1.5220838582677165
20
-0.8440578740157481
11
-1.519289842519685
21
-0.8421909842519685
0
LINE
8
BLACK
6
CONTINUOUS
10
-1.519289842519685
20
-0.8421909842519685
11
-1.5159940944881889
21
-0.8415354330708661
0
LINE
8
BLACK
6
CONTINUOUS
10
-1.5159940944881889
20
-0.8415354330708661
11
-1.4958169291338583
21
-0.8415354330708661
0
LINE
8
BLACK
6
CONTINUOUS
10
-1.4958169291338583
20
-0.8415354330708661
11
-1.4925211811023622
21
-0.8421909842519685
0
LINE
8
BLACK
6
CONTINUOUS
10
0.3237052755905512
20
-0.8174286220472441
11
0.3258340157480315
21
-0.8188510236220472
0
LINE
8
BLACK
6
CONTINUOUS
10
0.3258340157480315
20
-0.8188510236220472
11
0.3272564173228346
21
-0.8209797637795275
0
LINE
8
BLACK
6
CONTINUOUS
10
0.3272564173228346
20
-0.8209797637795275
11
0.3277558661417323
21
-0.8234908661417323
0
LINE
8
BLACK
6
CONTINUOUS
10
0.3277558661417323
20
-0.8234908661417323
11
0.327755905511811
21
-0.8694225590551181
0
LINE
8
BLACK
6
CONTINUOUS
10
0.327755905511811
20
-0.8694225590551181
11
0.3272564173228346
21
-0.8719336220472441
0
LINE
8
BLACK
6
CONTINUOUS
10
0.3272564173228346
20
-0.8719336220472441
11
0.3258340157480315
21
-0.8740623622047244
0
LINE
8
BLACK
6
CONTINUOUS
10
0.3258340157480315
20
-0.8740623622047244
11
0.3237052755905512
21
-0.8754847637795276
0
LINE
8
BLACK
6
CONTINUOUS
10
0.3237052755905512
20
-0.8754847637795276
11
0.3211941732283464
21
-0.8759842125984252
0
LINE
8
BLACK
6
CONTINUOUS
10
0.3211941732283464
20
-0.8759842125984252
11
0.285105
21
-0.8759842519685039
0
LINE
8
BLACK
6
CONTINUOUS
10
0.285105
20
-0.8759842519685039
11
0.282593937007874
21
-0.8754847637795276
0
LINE
8
BLACK
6
CONTINUOUS
10
0.282593937007874
20
-0.8754847637795276
11
0.2804651968503937
21
-0.8740623622047244
0
LINE
8
BLACK
6
CONTINUOUS
10
0.2804651968503937
20
-0.8740623622047244
11
0.2790427952755906
21
-0.8719336220472441
0
LINE
8
BLACK
6
CONTINUOUS
10
0.2790427952755906
20
-0.8719336220472441
11
0.2785433464566929
21
-0.8694225196850394
0
LINE
8
BLACK
6
CONTINUOUS
10
0.2785433464566929
20
-0.8694225196850394
11
0.2785433070866142
21
-0.8234908267716535
0
LINE
8
BLACK
6
CONTINUOUS
10
0.2785433070866142
20
-0.8234908267716535
11
0.2790427952755906
21
-0.8209797637795275
0
LINE
8
BLACK
6
CONTINUOUS
10
0.2790427952755906
20
-0.8209797637795275
11
0.2804651968503937
21
-0.8188510236220472
0
LINE
8
BLACK
6
CONTINUOUS
10
0.2804651968503937
20
-0.8188510236220472
11
0.282593937007874
21
-0.8174286220472441
0
LINE
8
BLACK
6
CONTINUOUS
10
0.282593937007874
20
-0.8174286220472441
11
0.2851050393700787
21
-0.8169291732283465
0
LINE
8
BLACK
6
CONTINUOUS
10
0.2851050393700787
20
-0.8169291732283465
11
0.3211942125984252
21
-0.8169291338582677
0
LINE
8
BLACK
6
CONTINUOUS
10
0.3211942125984252
20
-0.8169291338582677
11
0.3237052755905512
21
-0.8174286220472441
0
LINE
8
BLACK
6
CONTINUOUS
10
0.4654375590551181
20
-0.8174286220472441
11
0.4675662992125984
21
-0.8188510236220472
0
LINE
8
BLACK
6
CONTINUOUS
10
0.4675662992125984
20
-0.8188510236220472
11
0.4689887007874016
21
-0.8209797637795275
0
LINE
8
BLACK
6
CONTINUOUS
10
0.4689887007874016
20
-0.8209797637795275
11
0.4694881496062992
21
-0.8234908661417323
0
LINE
8
BLACK
6
CONTINUOUS
10
0.4694881496062992
20
-0.8234908661417323
11
0.469488188976378
21
-0.8694225590551181
0
LINE
8
BLACK
6
CONTINUOUS
10
0.469488188976378
20
-0.8694225590551181
11
0.4689887007874016
21
-0.8719336220472441
0
LINE
8
BLACK
6
CONTINUOUS
10
0.4689887007874016
20
-0.8719336220472441
11
0.4675662992125984
21
-0.8740623622047244
0
LINE
8
BLACK
6
CONTINUOUS
10
0.4675662992125984
20
-0.8740623622047244
11
0.4654375590551181
21
-0.8754847637795276
0
LINE
8
BLACK
6
CONTINUOUS
10
0.4654375590551181
20
-0.8754847637795276
11
0.4629264566929134
21
-0.8759842125984252
0
LINE
8
BLACK
6
CONTINUOUS
10
0.4629264566929134
20
-0.8759842125984252
11
0.4268372834645669
21
-0.8759842519685039
0
LINE
8
BLACK
6
CONTINUOUS
10
0.4268372834645669
20
-0.8759842519685039
11
0.424326220472441
21
-0.8754847637795276
0
LINE
8
BLACK
6
CONTINUOUS
10
0.424326220472441
20
-0.8754847637795276
11
0.4221974803149606
21
-0.8740623622047244
0
LINE
8
BLACK
6
CONTINUOUS
10
0.4221974803149606
20
-0.8740623622047244
11
0.4207750787401575
21
-0.8719336220472441
0
LINE
8
BLACK
6
CONTINUOUS
10
0.4207750787401575
20
-0.8719336220472441
11
0.4202756299212598
21
-0.8694225196850394
0
LINE
8
BLACK
6
CONTINUOUS
10
0.4202756299212598
20
-0.8694225196850394
11
0.4202755905511811
21
-0.8234908267716535
0
LINE
8
BLACK
6
CONTINUOUS
10
0.4202755905511811
20
-0.8234908267716535
11
0.4207750787401575
21
-0.8209797637795275
0
LINE
8
BLACK
6
CONTINUOUS
10
0.4207750787401575
20
-0.8209797637795275
11
0.4221974803149606
21
-0.8188510236220472
0
LINE
8
BLACK
6
CONTINUOUS
10
0.4221974803149606
20
-0.8188510236220472
11
0.424326220472441
21
-0.8174286220472441
0
LINE
8
BLACK
6
CONTINUOUS
10
0.424326220472441
20
-0.8174286220472441
11
0.4268373228346456
21
-0.8169291732283465
0
LINE
8
BLACK
6
CONTINUOUS
10
0.4268373228346456
20
-0.8169291732283465
11
0.4629264960629921
21
-0.8169291338582677
0
LINE
8
BLACK
6
CONTINUOUS
10
0.4629264960629921
20
-0.8169291338582677
11
0.4654375590551181
21
-0.8174286220472441
0
LINE
8
BLACK
6
CONTINUOUS
10
-1.2956707874015747
20
-0.8412067322834645
11
-1.2928767716535432
21
-0.8430736220472441
0
LINE
8
BLACK
6
CONTINUOUS
10
-1.2928767716535432
20
-0.8430736220472441
11
-1.2910098818897637
21
-0.8458676377952755
0
LINE
8
BLACK
6
CONTINUOUS
10
-1.2910098818897637
20
-0.8458676377952755
11
-1.2903543307086613
21
-0.8491633858267716
0
LINE
8
BLACK
6
CONTINUOUS
10
-1.2903543307086613
20
-0.8491633858267716
11
-1.2903543307086613
21
-0.8663877952755905
0
LINE
8
BLACK
6
CONTINUOUS
10
-1.2903543307086613
20
-0.8663877952755905
11
-1.2910098818897637
21
-0.8696835433070866
0
LINE
8
BLACK
6
CONTINUOUS
10
-1.2910098818897637
20
-0.8696835433070866
11
-1.2928767716535432
21
-0.8724775590551181
0
LINE
8
BLACK
6
CONTINUOUS
10
-1.2928767716535432
20
-0.8724775590551181
11
-1.2956707874015747
21
-0.8743444488188976
0
LINE
8
BLACK
6
CONTINUOUS
10
-1.2956707874015747
20
-0.8743444488188976
11
-1.2989665354330708
21
-0.875
0
LINE
8
BLACK
6
CONTINUOUS
10
-1.2989665354330708
20
-0.875
11
-1.3191437007874016
21
-0.875
0
LINE
8
BLACK
6
CONTINUOUS
10
-1.3191437007874016
20
-0.875
11
-1.3224394488188975
21
-0.8743444488188976
0
LINE
8
BLACK
6
CONTINUOUS
10
-1.3224394488188975
20
-0.8743444488188976
11
-1.325233464566929
21
-0.8724775590551181
0
LINE
8
BLACK
6
CONTINUOUS
10
-1.325233464566929
20
-0.8724775590551181
11
-1.3271003543307087
21
-0.8696835433070866
0
LINE
8
BLACK
6
CONTINUOUS
10
-1.3271003543307087
20
-0.8696835433070866
11
-1.3277559055118109
21
-0.8663877952755905
0
LINE
8
BLACK
6
CONTINUOUS
10
-1.3277559055118109
20
-0.8663877952755905
11
-1.3277559055118109
21
-0.8491633858267716
0
LINE
8
BLACK
6
CONTINUOUS
10
-1.3277559055118109
20
-0.8491633858267716
11
-1.3271003543307087
21
-0.8458676377952755
0
LINE
8
BLACK
6
CONTINUOUS
10
-1.3271003543307087
20
-0.8458676377952755
11
-1.325233464566929
21
-0.8430736220472441
0
LINE
8
BLACK
6
CONTINUOUS
10
-1.325233464566929
20
-0.8430736220472441
11
-1.3224394488188975
21
-0.8412067322834645
0
LINE
8
BLACK
6
CONTINUOUS
10
-1.3224394488188975
20
-0.8412067322834645
11
-1.3191437007874016
21
-0.8405511811023622
0
LINE
8
BLACK
6
CONTINUOUS
10
-1.3191437007874016
20
-0.8405511811023622
11
-1.2989665354330708
21
-0.8405511811023622
0
LINE
8
BLACK
6
CONTINUOUS
10
-1.2989665354330708
20
-0.8405511811023622
11
-1.2956707874015747
21
-0.8412067322834645
0
LINE
8
BLACK
6
CONTINUOUS
10
-1.102070748031496
20
-0.8429692125984252
11
-1.1001548818897637
21
-0.8442493700787401
0
LINE
8
BLACK
6
CONTINUOUS
10
-1.1001548818897637
20
-0.8442493700787401
11
-1.0988747244094488
21
-0.8461652362204725
0
LINE
8
BLACK
6
CONTINUOUS
10
-1.0988747244094488
20
-0.8461652362204725
11
-1.0984251968503937
21
-0.8484251968503936
0
LINE
8
BLACK
6
CONTINUOUS
10
-1.0984251968503937
20
-0.8484251968503936
11
-1.0984251968503937
21
-0.860236220472441
0
LINE
8
BLACK
6
CONTINUOUS
10
-1.0984251968503937
20
-0.860236220472441
11
-1.0988747244094488
21
-0.8624961811023621
0
LINE
8
BLACK
6
CONTINUOUS
10
-1.0988747244094488
20
-0.8624961811023621
11
-1.1001548818897637
21
-0.8644120472440945
0
LINE
8
BLACK
6
CONTINUOUS
10
-1.1001548818897637
20
-0.8644120472440945
11
-1.102070748031496
21
-0.8656922047244094
0
LINE
8
BLACK
6
CONTINUOUS
10
-1.102070748031496
20
-0.8656922047244094
11
-1.1043307086614174
21
-0.8661417322834646
0
LINE
8
BLACK
6
CONTINUOUS
10
-1.1043307086614174
20
-0.8661417322834646
11
-1.1200787401574803
21
-0.8661417322834646
0
LINE
8
BLACK
6
CONTINUOUS
10
-1.1200787401574803
20
-0.8661417322834646
11
-1.1223387007874015
21
-0.8656922047244094
0
LINE
8
BLACK
6
CONTINUOUS
10
-1.1223387007874015
20
-0.8656922047244094
11
-1.1242545669291337
21
-0.8644120472440945
0
LINE
8
BLACK
6
CONTINUOUS
10
-1.1242545669291337
20
-0.8644120472440945
11
-1.1255347244094487
21
-0.8624961811023621
0
LINE
8
BLACK
6
CONTINUOUS
10
-1.1255347244094487
20
-0.8624961811023621
11
-1.1259842519685039
21
-0.860236220472441
0
LINE
8
BLACK
6
CONTINUOUS
10
-1.1259842519685039
20
-0.860236220472441
11
-1.1259842519685039
21
-0.8484251968503936
0
LINE
8
BLACK
6
CONTINUOUS
10
-1.1259842519685039
20
-0.8484251968503936
11
-1.1255347244094487
21
-0.8461652362204725
0
LINE
8
BLACK
6
CONTINUOUS
10
-1.1255347244094487
20
-0.8461652362204725
11
-1.1242545669291337
21
-0.8442493700787401
0
LINE
8
BLACK
6
CONTINUOUS
10
-1.1242545669291337
20
-0.8442493700787401
11
-1.1223387007874015
21
-0.8429692125984252
0
LINE
8
BLACK
6
CONTINUOUS
10
-1.1223387007874015
20
-0.8429692125984252
11
-1.1200787401574803
21
-0.84251968503937
0
LINE
8
BLACK
6
CONTINUOUS
10
-1.1200787401574803
20
-0.84251968503937
11
-1.1043307086614174
21
-0.84251968503937
0
LINE
8
BLACK
6
CONTINUOUS
10
-1.1043307086614174
20
-0.84251968503937
11
-1.102070748031496
21
-0.8429692125984252
0
LINE
8
BLACK
6
CONTINUOUS
10
-0.6406511023622047
20
-0.8106949212598425
11
-0.6378570866141732
21
-0.812561811023622
0
LINE
8
BLACK
6
CONTINUOUS
10
-0.6378570866141732
20
-0.812561811023622
11
-0.6359901968503937
21
-0.8153558267716535
0
LINE
8
BLACK
6
CONTINUOUS
10
-0.6359901968503937
20
-0.8153558267716535
11
-0.6353346456692913
21
-0.8186515748031495
0
LINE
8
BLACK
6
CONTINUOUS
10
-0.6353346456692913
20
-0.8186515748031495
11
-0.6353346456692913
21
-0.8358759842519685
0
LINE
8
BLACK
6
CONTINUOUS
10
-0.6353346456692913
20
-0.8358759842519685
11
-0.6359901968503937
21
-0.8391717322834645
0
LINE
8
BLACK
6
CONTINUOUS
10
-0.6359901968503937
20
-0.8391717322834645
11
-0.6378570866141732
21
-0.841965748031496
0
LINE
8
BLACK
6
CONTINUOUS
10
-0.6378570866141732
20
-0.841965748031496
11
-0.6406511023622047
21
-0.8438326377952756
0
LINE
8
BLACK
6
CONTINUOUS
10
-0.6406511023622047
20
-0.8438326377952756
11
-0.6439468503937008
21
-0.8444881889763779
0
LINE
8
BLACK
6
CONTINUOUS
10
-0.6439468503937008
20
-0.8444881889763779
11
-0.6641240157480315
21
-0.8444881889763779
0
LINE
8
BLACK
6
CONTINUOUS
10
-0.6641240157480315
20
-0.8444881889763779
11
-0.6674197637795275
21
-0.8438326377952756
0
LINE
8
BLACK
6
CONTINUOUS
10
-0.6674197637795275
20
-0.8438326377952756
11
-0.670213779527559
21
-0.841965748031496
0
LINE
8
BLACK
6
CONTINUOUS
10
-0.670213779527559
20
-0.841965748031496
11
-0.6720806692913386
21
-0.8391717322834645
0
LINE
8
BLACK
6
CONTINUOUS
10
-0.6720806692913386
20
-0.8391717322834645
11
-0.672736220472441
21
-0.8358759842519685
0
LINE
8
BLACK
6
CONTINUOUS
10
-0.672736220472441
20
-0.8358759842519685
11
-0.672736220472441
21
-0.8186515748031495
0
LINE
8
BLACK
6
CONTINUOUS
10
-0.672736220472441
20
-0.8186515748031495
11
-0.6720806692913386
21
-0.8153558267716535
0
LINE
8
BLACK
6
CONTINUOUS
10
-0.6720806692913386
20
-0.8153558267716535
11
-0.670213779527559
21
-0.812561811023622
0
LINE
8
BLACK
6
CONTINUOUS
10
-0.670213779527559
20
-0.812561811023622
11
-0.6674197637795275
21
-0.8106949212598425
0
LINE
8
BLACK
6
CONTINUOUS
10
-0.6674197637795275
20
-0.8106949212598425
11
-0.6641240157480315
21
-0.8100393700787402
0
LINE
8
BLACK
6
CONTINUOUS
10
-0.6641240157480315
20
-0.8100393700787402
11
-0.6439468503937008
21
-0.8100393700787402
0
LINE
8
BLACK
6
CONTINUOUS
10
-0.6439468503937008
20
-0.8100393700787402
11
-0.6406511023622047
21
-0.8106949212598425
0
LINE
8
BLACK
6
CONTINUOUS
10
-1.4925211811023622
20
-0.7801831102362204
11
-1.4897271653543307
21
-0.78205
0
LINE
8
BLACK
6
CONTINUOUS
10
-1.4897271653543307
20
-0.78205
11
-1.4878602755905512
21
-0.7848440157480315
0
LINE
8
BLACK
6
CONTINUOUS
10
-1.4878602755905512
20
-0.7848440157480315
11
-1.4872047244094488
21
-0.7881397637795275
0
LINE
8
BLACK
6
CONTINUOUS
10
-1.4872047244094488
20
-0.7881397637795275
11
-1.4872047244094488
21
-0.8053641732283464
0
LINE
8
BLACK
6
CONTINUOUS
10
-1.4872047244094488
20
-0.8053641732283464
11
-1.4878602755905512
21
-0.8086599212598425
0
LINE
8
BLACK
6
CONTINUOUS
10
-1.4878602755905512
20
-0.8086599212598425
11
-1.4897271653543307
21
-0.811453937007874
0
LINE
8
BLACK
6
CONTINUOUS
10
-1.4897271653543307
20
-0.811453937007874
11
-1.4925211811023622
21
-0.8133208267716535
0
LINE
8
BLACK
6
CONTINUOUS
10
-1.4925211811023622
20
-0.8133208267716535
11
-1.4958169291338583
21
-0.8139763779527559
0
LINE
8
BLACK
6
CONTINUOUS
10
-1.4958169291338583
20
-0.8139763779527559
11
-1.5159940944881889
21
-0.8139763779527559
0
LINE
8
BLACK
6
CONTINUOUS
10
-1.5159940944881889
20
-0.8139763779527559
11
-1.519289842519685
21
-0.8133208267716535
0
LINE
8
BLACK
6
CONTINUOUS
10
-1.519289842519685
20
-0.8133208267716535
11
-1.5220838582677165
21
-0.811453937007874
0
LINE
8
BLACK
6
CONTINUOUS
10
-1.5220838582677165
20
-0.811453937007874
11
-1.523950748031496
21
-0.8086599212598425
0
LINE
8
BLACK
6
CONTINUOUS
10
-1.523950748031496
20
-0.8086599212598425
11
-1.5246062992125984
21
-0.8053641732283464
0
LINE
8
BLACK
6
CONTINUOUS
10
-1.5246062992125984
20
-0.8053641732283464
11
-1.5246062992125984
21
-0.7881397637795275
0
LINE
8
BLACK
6
CONTINUOUS
10
-1.5246062992125984
20
-0.7881397637795275
11
-1.523950748031496
21
-0.7848440157480315
0
LINE
8
BLACK
6
CONTINUOUS
10
-1.523950748031496
20
-0.7848440157480315
11
-1.5220838582677165
21
-0.78205
0
LINE
8
BLACK
6
CONTINUOUS
10
-1.5220838582677165
20
-0.78205
11
-1.519289842519685
21
-0.7801831102362204
0
LINE
8
BLACK
6
CONTINUOUS
10
-1.519289842519685
20
-0.7801831102362204
11
-1.5159940944881889
21
-0.7795275590551181
0
LINE
8
BLACK
6
CONTINUOUS
10
-1.5159940944881889
20
-0.7795275590551181
11
-1.4958169291338583
21
-0.7795275590551181
0
LINE
8
BLACK
6
CONTINUOUS
10
-1.4958169291338583
20
-0.7795275590551181
11
-1.4925211811023622
21
-0.7801831102362204
0
LINE
8
BLACK
6
CONTINUOUS
10
-1.2956707874015747
20
-0.7791988582677165
11
-1.2928767716535432
21
-0.7810657480314961
0
LINE
8
BLACK
6
CONTINUOUS
10
-1.2928767716535432
20
-0.7810657480314961
11
-1.2910098818897637
21
-0.7838597637795276
0
LINE
8
BLACK
6
CONTINUOUS
10
-1.2910098818897637
20
-0.7838597637795276
11
-1.2903543307086613
21
-0.7871555118110236
0
LINE
8
BLACK
6
CONTINUOUS
10
-1.2903543307086613
20
-0.7871555118110236
11
-1.2903543307086613
21
-0.8043799212598425
0
LINE
8
BLACK
6
CONTINUOUS
10
-1.2903543307086613
20
-0.8043799212598425
11
-1.2910098818897637
21
-0.8076756692913386
0
LINE
8
BLACK
6
CONTINUOUS
10
-1.2910098818897637
20
-0.8076756692913386
11
-1.2928767716535432
21
-0.8104696850393701
0
LINE
8
BLACK
6
CONTINUOUS
10
-1.2928767716535432
20
-0.8104696850393701
11
-1.2956707874015747
21
-0.8123365748031496
0
LINE
8
BLACK
6
CONTINUOUS
10
-1.2956707874015747
20
-0.8123365748031496
11
-1.2989665354330708
21
-0.812992125984252
0
LINE
8
BLACK
6
CONTINUOUS
10
-1.2989665354330708
20
-0.812992125984252
11
-1.3191437007874016
21
-0.812992125984252
0
LINE
8
BLACK
6
CONTINUOUS
10
-1.3191437007874016
20
-0.812992125984252
11
-1.3224394488188975
21
-0.8123365748031496
0
LINE
8
BLACK
6
CONTINUOUS
10
-1.3224394488188975
20
-0.8123365748031496
11
-1.325233464566929
21
-0.8104696850393701
0
LINE
8
BLACK
6
CONTINUOUS
10
-1.325233464566929
20
-0.8104696850393701
11
-1.3271003543307087
21
-0.8076756692913386
0
LINE
8
BLACK
6
CONTINUOUS
10
-1.3271003543307087
20
-0.8076756692913386
11
-1.3277559055118109
21
-0.8043799212598425
0
LINE
8
BLACK
6
CONTINUOUS
10
-1.3277559055118109
20
-0.8043799212598425
11
-1.3277559055118109
21
-0.7871555118110236
0
LINE
8
BLACK
6
CONTINUOUS
10
-1.3277559055118109
20
-0.7871555118110236
11
-1.3271003543307087
21
-0.7838597637795276
0
LINE
8
BLACK
6
CONTINUOUS
10
-1.3271003543307087
20
-0.7838597637795276
11
-1.325233464566929
21
-0.7810657480314961
0
LINE
8
BLACK
6
CONTINUOUS
10
-1.325233464566929
20
-0.7810657480314961
11
-1.3224394488188975
21
-0.7791988582677165
0
LINE
8
BLACK
6
CONTINUOUS
10
-1.3224394488188975
20
-0.7791988582677165
11
-1.3191437007874016
21
-0.7785433070866141
0
LINE
8
BLACK
6
CONTINUOUS
10
-1.3191437007874016
20
-0.7785433070866141
11
-1.2989665354330708
21
-0.7785433070866141
0
LINE
8
BLACK
6
CONTINUOUS
10
-1.2989665354330708
20
-0.7785433070866141
11
-1.2956707874015747
21
-0.7791988582677165
0
LINE
8
BLACK
6
CONTINUOUS
10
-1.102070748031496
20
-0.7878511023622047
11
-1.1001548818897637
21
-0.7891312598425196
0
LINE
8
BLACK
6
CONTINUOUS
10
-1.1001548818897637
20
-0.7891312598425196
11
-1.0988747244094488
21
-0.791047125984252
0
LINE
8
BLACK
6
CONTINUOUS
10
-1.0988747244094488
20
-0.791047125984252
11
-1.0984251968503937
21
-0.7933070866141733
0
LINE
8
BLACK
6
CONTINUOUS
10
-1.0984251968503937
20
-0.7933070866141733
11
-1.0984251968503937
21
-0.8051181102362205
0
LINE
8
BLACK
6
CONTINUOUS
10
-1.0984251968503937
20
-0.8051181102362205
11
-1.0988747244094488
21
-0.8073780708661417
0
LINE
8
BLACK
6
CONTINUOUS
10
-1.0988747244094488
20
-0.8073780708661417
11
-1.1001548818897637
21
-0.809293937007874
0
LINE
8
BLACK
6
CONTINUOUS
10
-1.1001548818897637
20
-0.809293937007874
11
-1.102070748031496
21
-0.810574094488189
0
LINE
8
BLACK
6
CONTINUOUS
10
-1.102070748031496
20
-0.810574094488189
11
-1.1043307086614174
21
-0.8110236220472441
0
LINE
8
BLACK
6
CONTINUOUS
10
-1.1043307086614174
20
-0.8110236220472441
11
-1.1200787401574803
21
-0.8110236220472441
0
LINE
8
BLACK
6
CONTINUOUS
10
-1.1200787401574803
20
-0.8110236220472441
11
-1.1223387007874015
21
-0.810574094488189
0
LINE
8
BLACK
6
CONTINUOUS
10
-1.1223387007874015
20
-0.810574094488189
11
-1.1242545669291337
21
-0.809293937007874
0
LINE
8
BLACK
6
CONTINUOUS
10
-1.1242545669291337
20
-0.809293937007874
11
-1.1255347244094487
21
-0.8073780708661417
0
LINE
8
BLACK
6
CONTINUOUS
10
-1.1255347244094487
20
-0.8073780708661417
11
-1.1259842519685039
21
-0.8051181102362205
0
LINE
8
BLACK
6
CONTINUOUS
10
-1.1259842519685039
20
-0.8051181102362205
11
-1.1259842519685039
21
-0.7933070866141733
0
LINE
8
BLACK
6
CONTINUOUS
10
-1.1259842519685039
20
-0.7933070866141733
11
-1.1255347244094487
21
-0.791047125984252
0
LINE
8
BLACK
6
CONTINUOUS
10
-1.1255347244094487
20
-0.791047125984252
11
-1.1242545669291337
21
-0.7891312598425196
0
LINE
8
BLACK
6
CONTINUOUS
10
-1.1242545669291337
20
-0.7891312598425196
11
-1.1223387007874015
21
-0.7878511023622047
0
LINE
8
BLACK
6
CONTINUOUS
10
-1.1223387007874015
20
-0.7878511023622047
11
-1.1200787401574803
21
-0.7874015748031495
0
LINE
8
BLACK
6
CONTINUOUS
10
-1.1200787401574803
20
-0.7874015748031495
11
-1.1043307086614174
21
-0.7874015748031495
0
LINE
8
BLACK
6
CONTINUOUS
10
-1.1043307086614174
20
-0.7874015748031495
11
-1.102070748031496
21
-0.7878511023622047
0
LINE
8
BLACK
6
CONTINUOUS
10
0.5812977165354331
20
-0.7595138188976378
11
0.5840917322834646
21
-0.7613807086614173
0
LINE
8
BLACK
6
CONTINUOUS
10
0.5840917322834646
20
-0.7613807086614173
11
0.585958622047244
21
-0.7641747244094488
0
LINE
8
BLACK
6
CONTINUOUS
10
0.585958622047244
20
-0.7641747244094488
11
0.5866141732283464
21
-0.7674704724409449
0
LINE
8
BLACK
6
CONTINUOUS
10
0.5866141732283464
20
-0.7674704724409449
11
0.5866141732283464
21
-0.7876476377952756
0
LINE
8
BLACK
6
CONTINUOUS
10
0.5866141732283464
20
-0.7876476377952756
11
0.585958622047244
21
-0.7909433858267716
0
LINE
8
BLACK
6
CONTINUOUS
10
0.585958622047244
20
-0.7909433858267716
11
0.5840917322834646
21
-0.7937374015748031
0
LINE
8
BLACK
6
CONTINUOUS
10
0.5840917322834646
20
-0.7937374015748031
11
0.5812977165354331
21
-0.7956042913385827
0
LINE
8
BLACK
6
CONTINUOUS
10
0.5812977165354331
20
-0.7956042913385827
11
0.578001968503937
21
-0.7962598425196851
0
LINE
8
BLACK
6
CONTINUOUS
10
0.578001968503937
20
-0.7962598425196851
11
0.5607775590551181
21
-0.7962598425196851
0
LINE
8
BLACK
6
CONTINUOUS
10
0.5607775590551181
20
-0.7962598425196851
11
0.557481811023622
21
-0.7956042913385827
0
LINE
8
BLACK
6
CONTINUOUS
10
0.557481811023622
20
-0.7956042913385827
11
0.5546877952755905
21
-0.7937374015748031
0
LINE
8
BLACK
6
CONTINUOUS
10
0.5546877952755905
20
-0.7937374015748031
11
0.552820905511811
21
-0.7909433858267716
0
LINE
8
BLACK
6
CONTINUOUS
10
0.552820905511811
20
-0.7909433858267716
11
0.5521653543307087
21
-0.7876476377952756
0
LINE
8
BLACK
6
CONTINUOUS
10
0.5521653543307087
20
-0.7876476377952756
11
0.5521653543307087
21
-0.7674704724409449
0
LINE
8
BLACK
6
CONTINUOUS
10
0.5521653543307087
20
-0.7674704724409449
11
0.552820905511811
21
-0.7641747244094488
0
LINE
8
BLACK
6
CONTINUOUS
10
0.552820905511811
20
-0.7641747244094488
11
0.5546877952755905
21
-0.7613807086614173
0
LINE
8
BLACK
6
CONTINUOUS
10
0.5546877952755905
20
-0.7613807086614173
11
0.557481811023622
21
-0.7595138188976378
0
LINE
8
BLACK
6
CONTINUOUS
10
0.557481811023622
20
-0.7595138188976378
11
0.5607775590551181
21
-0.7588582677165354
0
LINE
8
BLACK
6
CONTINUOUS
10
0.5607775590551181
20
-0.7588582677165354
11
0.578001968503937
21
-0.7588582677165354
0
LINE
8
BLACK
6
CONTINUOUS
10
0.578001968503937
20
-0.7588582677165354
11
0.5812977165354331
21
-0.7595138188976378
0
LINE
8
BLACK
6
CONTINUOUS
10
0.6433055905511811
20
-0.7595138188976378
11
0.6460996062992126
21
-0.7613807086614173
0
LINE
8
BLACK
6
CONTINUOUS
10
0.6460996062992126
20
-0.7613807086614173
11
0.6479664960629921
21
-0.7641747244094488
0
LINE
8
BLACK
6
CONTINUOUS
10
0.6479664960629921
20
-0.7641747244094488
11
0.6486220472440944
21
-0.7674704724409449
0
LINE
8
BLACK
6
CONTINUOUS
10
0.6486220472440944
20
-0.7674704724409449
11
0.6486220472440944
21
-0.7876476377952756
0
LINE
8
BLACK
6
CONTINUOUS
10
0.6486220472440944
20
-0.7876476377952756
11
0.6479664960629921
21
-0.7909433858267716
0
LINE
8
BLACK
6
CONTINUOUS
10
0.6479664960629921
20
-0.7909433858267716
11
0.6460996062992126
21
-0.7937374015748031
0
LINE
8
BLACK
6
CONTINUOUS
10
0.6460996062992126
20
-0.7937374015748031
11
0.6433055905511811
21
-0.7956042913385827
0
LINE
8
BLACK
6
CONTINUOUS
10
0.6433055905511811
20
-0.7956042913385827
11
0.6400098425196851
21
-0.7962598425196851
0
LINE
8
BLACK
6
CONTINUOUS
10
0.6400098425196851
20
-0.7962598425196851
11
0.6227854330708661
21
-0.7962598425196851
0
LINE
8
BLACK
6
CONTINUOUS
10
0.6227854330708661
20
-0.7962598425196851
11
0.6194896850393701
21
-0.7956042913385827
0
LINE
8
BLACK
6
CONTINUOUS
10
0.6194896850393701
20
-0.7956042913385827
11
0.6166956692913386
21
-0.7937374015748031
0
LINE
8
BLACK
6
CONTINUOUS
10
0.6166956692913386
20
-0.7937374015748031
11
0.614828779527559
21
-0.7909433858267716
0
LINE
8
BLACK
6
CONTINUOUS
10
0.614828779527559
20
-0.7909433858267716
11
0.6141732283464567
21
-0.7876476377952756
0
LINE
8
BLACK
6
CONTINUOUS
10
0.6141732283464567
20
-0.7876476377952756
11
0.6141732283464567
21
-0.7674704724409449
0
LINE
8
BLACK
6
CONTINUOUS
10
0.6141732283464567
20
-0.7674704724409449
11
0.614828779527559
21
-0.7641747244094488
0
LINE
8
BLACK
6
CONTINUOUS
10
0.614828779527559
20
-0.7641747244094488
11
0.6166956692913386
21
-0.7613807086614173
0
LINE
8
BLACK
6
CONTINUOUS
10
0.6166956692913386
20
-0.7613807086614173
11
0.6194896850393701
21
-0.7595138188976378
0
LINE
8
BLACK
6
CONTINUOUS
10
0.6194896850393701
20
-0.7595138188976378
11
0.6227854330708661
21
-0.7588582677165354
0
LINE
8
BLACK
6
CONTINUOUS
10
0.6227854330708661
20
-0.7588582677165354
11
0.6400098425196851
21
-0.7588582677165354
0
LINE
8
BLACK
6
CONTINUOUS
10
0.6400098425196851
20
-0.7588582677165354
11
0.6433055905511811
21
-0.7595138188976378
0
LINE
8
BLACK
6
CONTINUOUS
10
-1.9935418503937008
20
-0.6807174803149606
11
-1.9909873622047243
21
-0.6824243700787401
0
LINE
8
BLACK
6
CONTINUOUS
10
-1.9909873622047243
20
-0.6824243700787401
11
-1.9892804724409447
21
-0.6849788582677165
0
LINE
8
BLACK
6
CONTINUOUS
10
-1.9892804724409447
20
-0.6849788582677165
11
-1.9886811023622046
21
-0.687992125984252
0
LINE
8
BLACK
6
CONTINUOUS
10
-1.9886811023622046
20
-0.687992125984252
11
-1.9886811023622046
21
-0.7096456692913385
0
LINE
8
BLACK
6
CONTINUOUS
10
-1.9886811023622046
20
-0.7096456692913385
11
-1.9892804724409447
21
-0.712658937007874
0
LINE
8
BLACK
6
CONTINUOUS
10
-1.9892804724409447
20
-0.712658937007874
11
-1.9909873622047243
21
-0.7152134251968504
0
LINE
8
BLACK
6
CONTINUOUS
10
-1.9909873622047243
20
-0.7152134251968504
11
-1.9935418503937008
21
-0.7169203149606299
0
LINE
8
BLACK
6
CONTINUOUS
10
-1.9935418503937008
20
-0.7169203149606299
11
-1.9965551181102361
21
-0.71751968503937
0
LINE
8
BLACK
6
CONTINUOUS
10
-1.9965551181102361
20
-0.71751968503937
11
-2.0123031496062991
21
-0.71751968503937
0
LINE
8
BLACK
6
CONTINUOUS
10
-2.0123031496062991
20
-0.71751968503937
11
-2.0153164173228344
21
-0.7169203149606299
0
LINE
8
BLACK
6
CONTINUOUS
10
-2.0153164173228344
20
-0.7169203149606299
11
-2.0178709055118111
21
-0.7152134251968504
0
LINE
8
BLACK
6
CONTINUOUS
10
-2.0178709055118111
20
-0.7152134251968504
11
-2.0195777952755907
21
-0.712658937007874
0
LINE
8
BLACK
6
CONTINUOUS
10
-2.0195777952755907
20
-0.712658937007874
11
-2.0201771653543306
21
-0.7096456692913385
0
LINE
8
BLACK
6
CONTINUOUS
10
-2.0201771653543306
20
-0.7096456692913385
11
-2.0201771653543306
21
-0.687992125984252
0
LINE
8
BLACK
6
CONTINUOUS
10
-2.0201771653543306
20
-0.687992125984252
11
-2.0195777952755907
21
-0.6849788582677165
0
LINE
8
BLACK
6
CONTINUOUS
10
-2.0195777952755907
20
-0.6849788582677165
11
-2.0178709055118111
21
-0.6824243700787401
0
LINE
8
BLACK
6
CONTINUOUS
10
-2.0178709055118111
20
-0.6824243700787401
11
-2.0153164173228344
21
-0.6807174803149606
0
LINE
8
BLACK
6
CONTINUOUS
10
-2.0153164173228344
20
-0.6807174803149606
11
-2.0123031496062991
21
-0.6801181102362205
0
LINE
8
BLACK
6
CONTINUOUS
10
-2.0123031496062991
20
-0.6801181102362205
11
-1.9965551181102361
21
-0.6801181102362205
0
LINE
8
BLACK
6
CONTINUOUS
10
-1.9965551181102361
20
-0.6801181102362205
11
-1.9935418503937008
21
-0.6807174803149606
0
LINE
8
BLACK
6
CONTINUOUS
10
-1.9285812204724408
20
-0.6807174803149606
11
-1.9260267322834645
21
-0.6824243700787401
0
LINE
8
BLACK
6
CONTINUOUS
10
-1.9260267322834645
20
-0.6824243700787401
11
-1.924319842519685
21
-0.6849788582677165
0
LINE
8
BLACK
6
CONTINUOUS
10
-1.924319842519685
20
-0.6849788582677165
11
-1.9237204724409449
21
-0.687992125984252
0
LINE
8
BLACK
6
CONTINUOUS
10
-1.9237204724409449
20
-0.687992125984252
11
-1.9237204724409449
21
-0.7096456692913385
0
LINE
8
BLACK
6
CONTINUOUS
10
-1.9237204724409449
20
-0.7096456692913385
11
-1.924319842519685
21
-0.712658937007874
0
LINE
8
BLACK
6
CONTINUOUS
10
-1.924319842519685
20
-0.712658937007874
11
-1.9260267322834645
21
-0.7152134251968504
0
LINE
8
BLACK
6
CONTINUOUS
10
-1.9260267322834645
20
-0.7152134251968504
11
-1.9285812204724408
21
-0.7169203149606299
0
LINE
8
BLACK
6
CONTINUOUS
10
-1.9285812204724408
20
-0.7169203149606299
11
-1.9315944881889764
21
-0.71751968503937
0
LINE
8
BLACK
6
CONTINUOUS
10
-1.9315944881889764
20
-0.71751968503937
11
-1.9473425196850394
21
-0.71751968503937
0
LINE
8
BLACK
6
CONTINUOUS
10
-1.9473425196850394
20
-0.71751968503937
11
-1.9503557874015747
21
-0.7169203149606299
0
LINE
8
BLACK
6
CONTINUOUS
10
-1.9503557874015747
20
-0.7169203149606299
11
-1.9529102755905512
21
-0.7152134251968504
0
LINE
8
BLACK
6
CONTINUOUS
10
-1.9529102755905512
20
-0.7152134251968504
11
-1.9546171653543307
21
-0.712658937007874
0
LINE
8
BLACK
6
CONTINUOUS
10
-1.9546171653543307
20
-0.712658937007874
11
-1.9552165354330708
21
-0.7096456692913385
0
LINE
8
BLACK
6
CONTINUOUS
10
-1.9552165354330708
20
-0.7096456692913385
11
-1.9552165354330708
21
-0.687992125984252
0
LINE
8
BLACK
6
CONTINUOUS
10
-1.9552165354330708
20
-0.687992125984252
11
-1.9546171653543307
21
-0.6849788582677165
0
LINE
8
BLACK
6
CONTINUOUS
10
-1.9546171653543307
20
-0.6849788582677165
11
-1.9529102755905512
21
-0.6824243700787401
0
LINE
8
BLACK
6
CONTINUOUS
10
-1.9529102755905512
20
-0.6824243700787401
11
-1.9503557874015747
21
-0.6807174803149606
0
LINE
8
BLACK
6
CONTINUOUS
10
-1.9503557874015747
20
-0.6807174803149606
11
-1.9473425196850394
21
-0.6801181102362205
0
LINE
8
BLACK
6
CONTINUOUS
10
-1.9473425196850394
20
-0.6801181102362205
11
-1.9315944881889764
21
-0.6801181102362205
0
LINE
8
BLACK
6
CONTINUOUS
10
-1.9315944881889764
20
-0.6801181102362205
11
-1.9285812204724408
21
-0.6807174803149606
0
LINE
8
BLACK
6
CONTINUOUS
10
0.187007874015748
20
-0.6446850393700787
11
0.1437007874015748
21
-0.6446850393700787
0
LINE
8
BLACK
6
CONTINUOUS
10
0.1437007874015748
20
-0.6446850393700787
11
0.1437007874015748
21
-0.6348425196850394
0
LINE
8
BLACK
6
CONTINUOUS
10
0.1437007874015748
20
-0.6348425196850394
11
0.187007874015748
21
-0.6348425196850394
0
LINE
8
BLACK
6
CONTINUOUS
10
0.187007874015748
20
-0.6348425196850394
11
0.187007874015748
21
-0.6446850393700787
0
LINE
8
BLACK
6
CONTINUOUS
10
0.3562992125984252
20
-0.6446850393700787
11
0.312992125984252
21
-0.6446850393700787
0
LINE
8
BLACK
6
CONTINUOUS
10
0.312992125984252
20
-0.6446850393700787
11
0.312992125984252
21
-0.6348425196850394
0
LINE
8
BLACK
6
CONTINUOUS
10
0.312992125984252
20
-0.6348425196850394
11
0.3562992125984252
21
-0.6348425196850394
0
LINE
8
BLACK
6
CONTINUOUS
10
0.3562992125984252
20
-0.6348425196850394
11
0.3562992125984252
21
-0.6446850393700787
0
LINE
8
BLACK
6
CONTINUOUS
10
0.187007874015748
20
-0.625
11
0.1437007874015748
21
-0.625
0
LINE
8
BLACK
6
CONTINUOUS
10
0.1437007874015748
20
-0.625
11
0.1437007874015748
21
-0.6151574803149606
0
LINE
8
BLACK
6
CONTINUOUS
10
0.1437007874015748
20
-0.6151574803149606
11
0.187007874015748
21
-0.6151574803149606
0
LINE
8
BLACK
6
CONTINUOUS
10
0.187007874015748
20
-0.6151574803149606
11
0.187007874015748
21
-0.625
0
LINE
8
BLACK
6
CONTINUOUS
10
0.3562992125984252
20
-0.625
11
0.312992125984252
21
-0.625
0
LINE
8
BLACK
6
CONTINUOUS
10
0.312992125984252
20
-0.625
11
0.312992125984252
21
-0.6151574803149606
0
LINE
8
BLACK
6
CONTINUOUS
10
0.312992125984252
20
-0.6151574803149606
11
0.3562992125984252
21
-0.6151574803149606
0
LINE
8
BLACK
6
CONTINUOUS
10
0.3562992125984252
20
-0.6151574803149606
11
0.3562992125984252
21
-0.625
0
LINE
8
BLACK
6
CONTINUOUS
10
0.4562977165354331
20
-0.5853012204724409
11
0.4590917322834646
21
-0.5871681102362205
0
LINE
8
BLACK
6
CONTINUOUS
10
0.4590917322834646
20
-0.5871681102362205
11
0.4609586220472441
21
-0.5899621259842519
0
LINE
8
BLACK
6
CONTINUOUS
10
0.4609586220472441
20
-0.5899621259842519
11
0.4616141732283465
21
-0.593257874015748
0
LINE
8
BLACK
6
CONTINUOUS
10
0.4616141732283465
20
-0.593257874015748
11
0.4616141732283465
21
-0.6104822834645669
0
LINE
8
BLACK
6
CONTINUOUS
10
0.4616141732283465
20
-0.6104822834645669
11
0.4609586220472441
21
-0.613778031496063
0
LINE
8
BLACK
6
CONTINUOUS
10
0.4609586220472441
20
-0.613778031496063
11
0.4590917322834646
21
-0.6165720472440944
0
LINE
8
BLACK
6
CONTINUOUS
10
0.4590917322834646
20
-0.6165720472440944
11
0.4562977165354331
21
-0.618438937007874
0
LINE
8
BLACK
6
CONTINUOUS
10
0.4562977165354331
20
-0.618438937007874
11
0.453001968503937
21
-0.6190944881889764
0
LINE
8
BLACK
6
CONTINUOUS
10
0.453001968503937
20
-0.6190944881889764
11
0.4328248031496063
21
-0.6190944881889764
0
LINE
8
BLACK
6
CONTINUOUS
10
0.4328248031496063
20
-0.6190944881889764
11
0.4295290551181102
21
-0.618438937007874
0
LINE
8
BLACK
6
CONTINUOUS
10
0.4295290551181102
20
-0.618438937007874
11
0.4267350393700787
21
-0.6165720472440944
0
LINE
8
BLACK
6
CONTINUOUS
10
0.4267350393700787
20
-0.6165720472440944
11
0.4248681496062992
21
-0.613778031496063
0
LINE
8
BLACK
6
CONTINUOUS
10
0.4248681496062992
20
-0.613778031496063
11
0.4242125984251968
21
-0.6104822834645669
0
LINE
8
BLACK
6
CONTINUOUS
10
0.4242125984251968
20
-0.6104822834645669
11
0.4242125984251968
21
-0.593257874015748
0
LINE
8
BLACK
6
CONTINUOUS
10
0.4242125984251968
20
-0.593257874015748
11
0.4248681496062992
21
-0.5899621259842519
0
LINE
8
BLACK
6
CONTINUOUS
10
0.4248681496062992
20
-0.5899621259842519
11
0.4267350393700787
21
-0.5871681102362205
0
LINE
8
BLACK
6
CONTINUOUS
10
0.4267350393700787
20
-0.5871681102362205
11
0.4295290551181102
21
-0.5853012204724409
0
LINE
8
BLACK
6
CONTINUOUS
10
0.4295290551181102
20
-0.5853012204724409
11
0.4328248031496063
21
-0.5846456692913385
0
LINE
8
BLACK
6
CONTINUOUS
10
0.4328248031496063
20
-0.5846456692913385
11
0.453001968503937
21
-0.5846456692913385
0
LINE
8
BLACK
6
CONTINUOUS
10
0.453001968503937
20
-0.5846456692913385
11
0.4562977165354331
21
-0.5853012204724409
0
LINE
8
BLACK
6
CONTINUOUS
10
0.6433055905511811
20
-0.5853012204724409
11
0.6460996062992126
21
-0.5871681102362205
0
LINE
8
BLACK
6
CONTINUOUS
10
0.6460996062992126
20
-0.5871681102362205
11
0.6479664960629921
21
-0.5899621259842519
0
LINE
8
BLACK
6
CONTINUOUS
10
0.6479664960629921
20
-0.5899621259842519
11
0.6486220472440944
21
-0.593257874015748
0
LINE
8
BLACK
6
CONTINUOUS
10
0.6486220472440944
20
-0.593257874015748
11
0.6486220472440944
21
-0.6104822834645669
0
LINE
8
BLACK
6
CONTINUOUS
10
0.6486220472440944
20
-0.6104822834645669
11
0.6479664960629921
21
-0.613778031496063
0
LINE
8
BLACK
6
CONTINUOUS
10
0.6479664960629921
20
-0.613778031496063
11
0.6460996062992126
21
-0.6165720472440944
0
LINE
8
BLACK
6
CONTINUOUS
10
0.6460996062992126
20
-0.6165720472440944
11
0.6433055905511811
21
-0.618438937007874
0
LINE
8
BLACK
6
CONTINUOUS
10
0.6433055905511811
20
-0.618438937007874
11
0.6400098425196851
21
-0.6190944881889764
0
LINE
8
BLACK
6
CONTINUOUS
10
0.6400098425196851
20
-0.6190944881889764
11
0.6198326771653543
21
-0.6190944881889764
0
LINE
8
BLACK
6
CONTINUOUS
10
0.6198326771653543
20
-0.6190944881889764
11
0.6165369291338583
21
-0.618438937007874
0
LINE
8
BLACK
6
CONTINUOUS
10
0.6165369291338583
20
-0.618438937007874
11
0.6137429133858268
21
-0.6165720472440944
0
LINE
8
BLACK
6
CONTINUOUS
10
0.6137429133858268
20
-0.6165720472440944
11
0.6118760236220472
21
-0.613778031496063
0
LINE
8
BLACK
6
CONTINUOUS
10
0.6118760236220472
20
-0.613778031496063
11
0.6112204724409449
21
-0.6104822834645669
0
LINE
8
BLACK
6
CONTINUOUS
10
0.6112204724409449
20
-0.6104822834645669
11
0.6112204724409449
21
-0.593257874015748
0
LINE
8
BLACK
6
CONTINUOUS
10
0.6112204724409449
20
-0.593257874015748
11
0.6118760236220472
21
-0.5899621259842519
0
LINE
8
BLACK
6
CONTINUOUS
10
0.6118760236220472
20
-0.5899621259842519
11
0.6137429133858268
21
-0.5871681102362205
0
LINE
8
BLACK
6
CONTINUOUS
10
0.6137429133858268
20
-0.5871681102362205
11
0.6165369291338583
21
-0.5853012204724409
0
LINE
8
BLACK
6
CONTINUOUS
10
0.6165369291338583
20
-0.5853012204724409
11
0.6198326771653543
21
-0.5846456692913385
0
LINE
8
BLACK
6
CONTINUOUS
10
0.6198326771653543
20
-0.5846456692913385
11
0.6400098425196851
21
-0.5846456692913385
0
LINE
8
BLACK
6
CONTINUOUS
10
0.6400098425196851
20
-0.5846456692913385
11
0.6433055905511811
21
-0.5853012204724409
0
LINE
8
BLACK
6
CONTINUOUS
10
0.187007874015748
20
-0.6053149606299213
11
0.1437007874015748
21
-0.6053149606299213
0
LINE
8
BLACK
6
CONTINUOUS
10
0.1437007874015748
20
-0.6053149606299213
11
0.1437007874015748
21
-0.5954724409448818
0
LINE
8
BLACK
6
CONTINUOUS
10
0.1437007874015748
20
-0.5954724409448818
11
0.187007874015748
21
-0.5954724409448818
0
LINE
8
BLACK
6
CONTINUOUS
10
0.187007874015748
20
-0.5954724409448818
11
0.187007874015748
21
-0.6053149606299213
0
LINE
8
BLACK
6
CONTINUOUS
10
0.3562992125984252
20
-0.6053149606299213
11
0.312992125984252
21
-0.6053149606299213
0
LINE
8
BLACK
6
CONTINUOUS
10
0.312992125984252
20
-0.6053149606299213
11
0.312992125984252
21
-0.5954724409448818
0
LINE
8
BLACK
6
CONTINUOUS
10
0.312992125984252
20
-0.5954724409448818
11
0.3562992125984252
21
-0.5954724409448818
0
LINE
8
BLACK
6
CONTINUOUS
10
0.3562992125984252
20
-0.5954724409448818
11
0.3562992125984252
21
-0.6053149606299213
0
LINE
8
BLACK
6
CONTINUOUS
10
0.187007874015748
20
-0.5856299212598425
11
0.1437007874015748
21
-0.5856299212598425
0
LINE
8
BLACK
6
CONTINUOUS
10
0.1437007874015748
20
-0.5856299212598425
11
0.1437007874015748
21
-0.5757874015748031
0
LINE
8
BLACK
6
CONTINUOUS
10
0.1437007874015748
20
-0.5757874015748031
11
0.187007874015748
21
-0.5757874015748031
0
LINE
8
BLACK
6
CONTINUOUS
10
0.187007874015748
20
-0.5757874015748031
11
0.187007874015748
21
-0.5856299212598425
0
LINE
8
BLACK
6
CONTINUOUS
10
0.3562992125984252
20
-0.5856299212598425
11
0.312992125984252
21
-0.5856299212598425
0
LINE
8
BLACK
6
CONTINUOUS
10
0.312992125984252
20
-0.5856299212598425
11
0.312992125984252
21
-0.5757874015748031
0
LINE
8
BLACK
6
CONTINUOUS
10
0.312992125984252
20
-0.5757874015748031
11
0.3562992125984252
21
-0.5757874015748031
0
LINE
8
BLACK
6
CONTINUOUS
10
0.3562992125984252
20
-0.5757874015748031
11
0.3562992125984252
21
-0.5856299212598425
0
LINE
8
BLACK
6
CONTINUOUS
10
0.187007874015748
20
-0.5659448818897638
11
0.1437007874015748
21
-0.5659448818897638
0
LINE
8
BLACK
6
CONTINUOUS
10
0.1437007874015748
20
-0.5659448818897638
11
0.1437007874015748
21
-0.5561023622047244
0
LINE
8
BLACK
6
CONTINUOUS
10
0.1437007874015748
20
-0.5561023622047244
11
0.187007874015748
21
-0.5561023622047244
0
LINE
8
BLACK
6
CONTINUOUS
10
0.187007874015748
20
-0.5561023622047244
11
0.187007874015748
21
-0.5659448818897638
0
LINE
8
BLACK
6
CONTINUOUS
10
0.3562992125984252
20
-0.5659448818897638
11
0.312992125984252
21
-0.5659448818897638
0
LINE
8
BLACK
6
CONTINUOUS
10
0.312992125984252
20
-0.5659448818897638
11
0.312992125984252
21
-0.5561023622047244
0
LINE
8
BLACK
6
CONTINUOUS
10
0.312992125984252
20
-0.5561023622047244
11
0.3562992125984252
21
-0.5561023622047244
0
LINE
8
BLACK
6
CONTINUOUS
10
0.3562992125984252
20
-0.5561023622047244
11
0.3562992125984252
21
-0.5659448818897638
0
LINE
8
BLACK
6
CONTINUOUS
10
0.4562977165354331
20
-0.5232933464566929
11
0.4590917322834646
21
-0.5251602362204725
0
LINE
8
BLACK
6
CONTINUOUS
10
0.4590917322834646
20
-0.5251602362204725
11
0.4609586220472441
21
-0.5279542519685039
0
LINE
8
BLACK
6
CONTINUOUS
10
0.4609586220472441
20
-0.5279542519685039
11
0.4616141732283465
21
-0.53125
0
LINE
8
BLACK
6
CONTINUOUS
10
0.4616141732283465
20
-0.53125
11
0.4616141732283465
21
-0.5484744094488189
0
LINE
8
BLACK
6
CONTINUOUS
10
0.4616141732283465
20
-0.5484744094488189
11
0.4609586220472441
21
-0.551770157480315
0
LINE
8
BLACK
6
CONTINUOUS
10
0.4609586220472441
20
-0.551770157480315
11
0.4590917322834646
21
-0.5545641732283464
0
LINE
8
BLACK
6
CONTINUOUS
10
0.4590917322834646
20
-0.5545641732283464
11
0.4562977165354331
21
-0.556431062992126
0
LINE
8
BLACK
6
CONTINUOUS
10
0.4562977165354331
20
-0.556431062992126
11
0.453001968503937
21
-0.5570866141732284
0
LINE
8
BLACK
6
CONTINUOUS
10
0.453001968503937
20
-0.5570866141732284
11
0.4328248031496063
21
-0.5570866141732284
0
LINE
8
BLACK
6
CONTINUOUS
10
0.4328248031496063
20
-0.5570866141732284
11
0.4295290551181102
21
-0.556431062992126
0
LINE
8
BLACK
6
CONTINUOUS
10
0.4295290551181102
20
-0.556431062992126
11
0.4267350393700787
21
-0.5545641732283464
0
LINE
8
BLACK
6
CONTINUOUS
10
0.4267350393700787
20
-0.5545641732283464
11
0.4248681496062992
21
-0.551770157480315
0
LINE
8
BLACK
6
CONTINUOUS
10
0.4248681496062992
20
-0.551770157480315
11
0.4242125984251968
21
-0.5484744094488189
0
LINE
8
BLACK
6
CONTINUOUS
10
0.4242125984251968
20
-0.5484744094488189
11
0.4242125984251968
21
-0.53125
0
LINE
8
BLACK
6
CONTINUOUS
10
0.4242125984251968
20
-0.53125
11
0.4248681496062992
21
-0.5279542519685039
0
LINE
8
BLACK
6
CONTINUOUS
10
0.4248681496062992
20
-0.5279542519685039
11
0.4267350393700787
21
-0.5251602362204725
0
LINE
8
BLACK
6
CONTINUOUS
10
0.4267350393700787
20
-0.5251602362204725
11
0.4295290551181102
21
-0.5232933464566929
0
LINE
8
BLACK
6
CONTINUOUS
10
0.4295290551181102
20
-0.5232933464566929
11
0.4328248031496063
21
-0.5226377952755905
0
LINE
8
BLACK
6
CONTINUOUS
10
0.4328248031496063
20
-0.5226377952755905
11
0.453001968503937
21
-0.5226377952755905
0
LINE
8
BLACK
6
CONTINUOUS
10
0.453001968503937
20
-0.5226377952755905
11
0.4562977165354331
21
-0.5232933464566929
0
LINE
8
BLACK
6
CONTINUOUS
10
0.6433055905511811
20
-0.5232933464566929
11
0.6460996062992126
21
-0.5251602362204725
0
LINE
8
BLACK
6
CONTINUOUS
10
0.6460996062992126
20
-0.5251602362204725
11
0.6479664960629921
21
-0.5279542519685039
0
LINE
8
BLACK
6
CONTINUOUS
10
0.6479664960629921
20
-0.5279542519685039
11
0.6486220472440944
21
-0.53125
0
LINE
8
BLACK
6
CONTINUOUS
10
0.6486220472440944
20
-0.53125
11
0.6486220472440944
21
-0.5484744094488189
0
LINE
8
BLACK
6
CONTINUOUS
10
0.6486220472440944
20
-0.5484744094488189
11
0.6479664960629921
21
-0.551770157480315
0
LINE
8
BLACK
6
CONTINUOUS
10
0.6479664960629921
20
-0.551770157480315
11
0.6460996062992126
21
-0.5545641732283464
0
LINE
8
BLACK
6
CONTINUOUS
10
0.6460996062992126
20
-0.5545641732283464
11
0.6433055905511811
21
-0.556431062992126
0
LINE
8
BLACK
6
CONTINUOUS
10
0.6433055905511811
20
-0.556431062992126
11
0.6400098425196851
21
-0.5570866141732284
0
LINE
8
BLACK
6
CONTINUOUS
10
0.6400098425196851
20
-0.5570866141732284
11
0.6198326771653543
21
-0.5570866141732284
0
LINE
8
BLACK
6
CONTINUOUS
10
0.6198326771653543
20
-0.5570866141732284
11
0.6165369291338583
21
-0.556431062992126
0
LINE
8
BLACK
6
CONTINUOUS
10
0.6165369291338583
20
-0.556431062992126
11
0.6137429133858268
21
-0.5545641732283464
0
LINE
8
BLACK
6
CONTINUOUS
10
0.6137429133858268
20
-0.5545641732283464
11
0.6118760236220472
21
-0.551770157480315
0
LINE
8
BLACK
6
CONTINUOUS
10
0.6118760236220472
20
-0.551770157480315
11
0.6112204724409449
21
-0.5484744094488189
0
LINE
8
BLACK
6
CONTINUOUS
10
0.6112204724409449
20
-0.5484744094488189
11
0.6112204724409449
21
-0.53125
0
LINE
8
BLACK
6
CONTINUOUS
10
0.6112204724409449
20
-0.53125
11
0.6118760236220472
21
-0.5279542519685039
0
LINE
8
BLACK
6
CONTINUOUS
10
0.6118760236220472
20
-0.5279542519685039
11
0.6137429133858268
21
-0.5251602362204725
0
LINE
8
BLACK
6
CONTINUOUS
10
0.6137429133858268
20
-0.5251602362204725
11
0.6165369291338583
21
-0.5232933464566929
0
LINE
8
BLACK
6
CONTINUOUS
10
0.6165369291338583
20
-0.5232933464566929
11
0.6198326771653543
21
-0.5226377952755905
0
LINE
8
BLACK
6
CONTINUOUS
10
0.6198326771653543
20
-0.5226377952755905
11
0.6400098425196851
21
-0.5226377952755905
0
LINE
8
BLACK
6
CONTINUOUS
10
0.6400098425196851
20
-0.5226377952755905
11
0.6433055905511811
21
-0.5232933464566929
0
LINE
8
BLACK
6
CONTINUOUS
10
-0.4773622047244094
20
-0.5511811023622047
11
-0.5167322834645669
21
-0.5511811023622047
0
LINE
8
BLACK
6
CONTINUOUS
10
-0.5167322834645669
20
-0.5511811023622047
11
-0.5167322834645669
21
-0.4921259842519685
0
LINE
8
BLACK
6
CONTINUOUS
10
-0.5167322834645669
20
-0.4921259842519685
11
-0.4773622047244094
21
-0.4921259842519685
0
LINE
8
BLACK
6
CONTINUOUS
10
-0.4773622047244094
20
-0.4921259842519685
11
-0.4773622047244094
21
-0.5511811023622047
0
LINE
8
BLACK
6
CONTINUOUS
10
-0.4261811023622047
20
-0.5511811023622047
11
-0.4655511811023622
21
-0.5511811023622047
0
LINE
8
BLACK
6
CONTINUOUS
10
-0.4655511811023622
20
-0.5511811023622047
11
-0.4655511811023622
21
-0.4921259842519685
0
LINE
8
BLACK
6
CONTINUOUS
10
-0.4655511811023622
20
-0.4921259842519685
11
-0.4261811023622047
21
-0.4921259842519685
0
LINE
8
BLACK
6
CONTINUOUS
10
-0.4261811023622047
20
-0.4921259842519685
11
-0.4261811023622047
21
-0.5511811023622047
0
LINE
8
BLACK
6
CONTINUOUS
10
-0.4773622047244094
20
-0.4114173228346457
11
-0.5167322834645669
21
-0.4114173228346457
0
LINE
8
BLACK
6
CONTINUOUS
10
-0.5167322834645669
20
-0.4114173228346457
11
-0.5167322834645669
21
-0.3523622047244094
0
LINE
8
BLACK
6
CONTINUOUS
10
-0.5167322834645669
20
-0.3523622047244094
11
-0.4773622047244094
21
-0.3523622047244094
0
LINE
8
BLACK
6
CONTINUOUS
10
-0.4773622047244094
20
-0.3523622047244094
11
-0.4773622047244094
21
-0.4114173228346457
0
LINE
8
BLACK
6
CONTINUOUS
10
-0.4261811023622047
20
-0.4114173228346457
11
-0.4655511811023622
21
-0.4114173228346457
0
LINE
8
BLACK
6
CONTINUOUS
10
-0.4655511811023622
20
-0.4114173228346457
11
-0.4655511811023622
21
-0.3523622047244094
0
LINE
8
BLACK
6
CONTINUOUS
10
-0.4655511811023622
20
-0.3523622047244094
11
-0.4261811023622047
21
-0.3523622047244094
0
LINE
8
BLACK
6
CONTINUOUS
10
-0.4261811023622047
20
-0.3523622047244094
11
-0.4261811023622047
21
-0.4114173228346457
0
LINE
8
BLACK
6
CONTINUOUS
10
-0.4744094488188976
20
-0.1850393700787402
11
-0.4625984251968504
21
-0.1850393700787402
0
LINE
8
BLACK
6
CONTINUOUS
10
-0.4625984251968504
20
-0.1850393700787402
11
-0.4625984251968504
21
-0.1673228346456693
0
LINE
8
BLACK
6
CONTINUOUS
10
-0.4625984251968504
20
-0.1673228346456693
11
-0.4232283464566929
21
-0.1673228346456693
0
LINE
8
BLACK
6
CONTINUOUS
10
-0.4232283464566929
20
-0.1673228346456693
11
-0.4232283464566929
21
-0.2263779527559055
0
LINE
8
BLACK
6
CONTINUOUS
10
-0.4232283464566929
20
-0.2263779527559055
11
-0.4625984251968504
21
-0.2263779527559055
0
LINE
8
BLACK
6
CONTINUOUS
10
-0.4625984251968504
20
-0.2263779527559055
11
-0.4625984251968504
21
-0.2086614173228346
0
LINE
8
BLACK
6
CONTINUOUS
10
-0.4625984251968504
20
-0.2086614173228346
11
-0.4744094488188976
21
-0.2086614173228346
0
LINE
8
BLACK
6
CONTINUOUS
10
-0.4744094488188976
20
-0.2086614173228346
11
-0.4744094488188976
21
-0.2263779527559055
0
LINE
8
BLACK
6
CONTINUOUS
10
-0.4744094488188976
20
-0.2263779527559055
11
-0.5137795275590551
21
-0.2263779527559055
0
LINE
8
BLACK
6
CONTINUOUS
10
-0.5137795275590551
20
-0.2263779527559055
11
-0.5137795275590551
21
-0.1673228346456693
0
LINE
8
BLACK
6
CONTINUOUS
10
-0.5137795275590551
20
-0.1673228346456693
11
-0.4744094488188976
21
-0.1673228346456693
0
LINE
8
BLACK
6
CONTINUOUS
10
-0.4744094488188976
20
-0.1673228346456693
11
-0.4744094488188976
21
-0.1850393700787402
0
LINE
8
BLACK
6
CONTINUOUS
10
-0.3720472440944882
20
-0.2263779527559055
11
-0.4114173228346457
21
-0.2263779527559055
0
LINE
8
BLACK
6
CONTINUOUS
10
-0.4114173228346457
20
-0.2263779527559055
11
-0.4114173228346457
21
-0.1673228346456693
0
LINE
8
BLACK
6
CONTINUOUS
10
-0.4114173228346457
20
-0.1673228346456693
11
-0.3720472440944882
21
-0.1673228346456693
0
LINE
8
BLACK
6
CONTINUOUS
10
-0.3720472440944882
20
-0.1673228346456693
11
-0.3720472440944882
21
-0.2263779527559055
0
LINE
8
BLACK
6
CONTINUOUS
10
0.9644386614173228
20
0.340685
11
0.9704994881889764
21
0.3381745275590551
0
LINE
8
BLACK
6
CONTINUOUS
10
0.9704994881889764
20
0.3381745275590551
11
0.9759540944881889
21
0.3345298818897638
0
LINE
8
BLACK
6
CONTINUOUS
10
0.9759540944881889
20
0.3345298818897638
11
0.980592874015748
21
0.3298911023622047
0
LINE
8
BLACK
6
CONTINUOUS
10
0.980592874015748
20
0.3298911023622047
11
0.9842375196850394
21
0.3244364960629921
0
LINE
8
BLACK
6
CONTINUOUS
10
0.9842375196850394
20
0.3244364960629921
11
0.9867479921259842
21
0.3183756692913386
0
LINE
8
BLACK
6
CONTINUOUS
10
0.9867479921259842
20
0.3183756692913386
11
0.9880278346456692
21
0.3119415354330708
0
LINE
8
BLACK
6
CONTINUOUS
10
0.9880278346456692
20
0.3119415354330708
11
0.9880278346456692
21
0.3053812992125984
0
LINE
8
BLACK
6
CONTINUOUS
10
0.9880278346456692
20
0.3053812992125984
11
0.9867479921259842
21
0.2989471653543307
0
LINE
8
BLACK
6
CONTINUOUS
10
0.9867479921259842
20
0.2989471653543307
11
0.9842375196850394
21
0.2928863385826772
0
LINE
8
BLACK
6
CONTINUOUS
10
0.9842375196850394
20
0.2928863385826772
11
0.980592874015748
21
0.2874317322834646
0
LINE
8
BLACK
6
CONTINUOUS
10
0.980592874015748
20
0.2874317322834646
11
0.9759540944881889
21
0.2827929527559055
0
LINE
8
BLACK
6
CONTINUOUS
10
0.9759540944881889
20
0.2827929527559055
11
0.9704994881889764
21
0.2791483070866141
0
LINE
8
BLACK
6
CONTINUOUS
10
0.9704994881889764
20
0.2791483070866141
11
0.9644386614173228
21
0.2766378346456693
0
LINE
8
BLACK
6
CONTINUOUS
10
0.9644386614173228
20
0.2766378346456693
11
0.9580045275590551
21
0.2753579921259842
0
LINE
8
BLACK
6
CONTINUOUS
10
0.9580045275590551
20
0.2753579921259842
11
0.9514442913385827
21
0.2753579921259842
0
LINE
8
BLACK
6
CONTINUOUS
10
0.9514442913385827
20
0.2753579921259842
11
0.9450101574803149
21
0.2766378346456693
0
LINE
8
BLACK
6
CONTINUOUS
10
0.9450101574803149
20
0.2766378346456693
11
0.9389493307086614
21
0.2791483070866141
0
LINE
8
BLACK
6
CONTINUOUS
10
0.9389493307086614
20
0.2791483070866141
11
0.9334947244094488
21
0.2827929527559055
0
LINE
8
BLACK
6
CONTINUOUS
10
0.9334947244094488
20
0.2827929527559055
11
0.9288559448818897
21
0.2874317322834646
0
LINE
8
BLACK
6
CONTINUOUS
10
0.9288559448818897
20
0.2874317322834646
11
0.9252112992125984
21
0.2928863385826772
0
LINE
8
BLACK
6
CONTINUOUS
10
0.9252112992125984
20
0.2928863385826772
11
0.9227008267716535
21
0.2989471653543307
0
LINE
8
BLACK
6
CONTINUOUS
10
0.9227008267716535
20
0.2989471653543307
11
0.9214209842519685
21
0.3053812992125984
0
LINE
8
BLACK
6
CONTINUOUS
10
0.9214209842519685
20
0.3053812992125984
11
0.9214209842519685
21
0.3119415354330708
0
LINE
8
BLACK
6
CONTINUOUS
10
0.9214209842519685
20
0.3119415354330708
11
0.9227008267716535
21
0.3183756692913386
0
LINE
8
BLACK
6
CONTINUOUS
10
0.9227008267716535
20
0.3183756692913386
11
0.9252112992125984
21
0.3244364960629921
0
LINE
8
BLACK
6
CONTINUOUS
10
0.9252112992125984
20
0.3244364960629921
11
0.9288559448818897
21
0.3298911023622047
0
LINE
8
BLACK
6
CONTINUOUS
10
0.9288559448818897
20
0.3298911023622047
11
0.9334947244094488
21
0.3345298818897638
0
LINE
8
BLACK
6
CONTINUOUS
10
0.9334947244094488
20
0.3345298818897638
11
0.9389493307086614
21
0.3381745275590551
0
LINE
8
BLACK
6
CONTINUOUS
10
0.9389493307086614
20
0.3381745275590551
11
0.9450101574803149
21
0.340685
0
LINE
8
BLACK
6
CONTINUOUS
10
0.9450101574803149
20
0.340685
11
0.9514442913385827
21
0.341964842519685
0
LINE
8
BLACK
6
CONTINUOUS
10
0.9514442913385827
20
0.341964842519685
11
0.9580045275590551
21
0.341964842519685
0
LINE
8
BLACK
6
CONTINUOUS
10
0.9580045275590551
20
0.341964842519685
11
0.9644386614173228
21
0.340685
0
LINE
8
BLACK
6
CONTINUOUS
10
0.9644386614173228
20
0.440685
11
0.9704994881889764
21
0.4381745275590551
0
LINE
8
BLACK
6
CONTINUOUS
10
0.9704994881889764
20
0.4381745275590551
11
0.9759540944881889
21
0.4345298818897638
0
LINE
8
BLACK
6
CONTINUOUS
10
0.9759540944881889
20
0.4345298818897638
11
0.980592874015748
21
0.4298911023622047
0
LINE
8
BLACK
6
CONTINUOUS
10
0.980592874015748
20
0.4298911023622047
11
0.9842375196850394
21
0.4244364960629921
0
LINE
8
BLACK
6
CONTINUOUS
10
0.9842375196850394
20
0.4244364960629921
11
0.9867479921259842
21
0.4183756692913386
0
LINE
8
BLACK
6
CONTINUOUS
10
0.9867479921259842
20
0.4183756692913386
11
0.9880278346456692
21
0.4119415354330709
0
LINE
8
BLACK
6
CONTINUOUS
10
0.9880278346456692
20
0.4119415354330709
11
0.9880278346456692
21
0.4053812992125984
0
LINE
8
BLACK
6
CONTINUOUS
10
0.9880278346456692
20
0.4053812992125984
11
0.9867479921259842
21
0.3989471653543307
0
LINE
8
BLACK
6
CONTINUOUS
10
0.9867479921259842
20
0.3989471653543307
11
0.9842375196850394
21
0.3928863385826771
0
LINE
8
BLACK
6
CONTINUOUS
10
0.9842375196850394
20
0.3928863385826771
11
0.980592874015748
21
0.3874317322834646
0
LINE
8
BLACK
6
CONTINUOUS
10
0.980592874015748
20
0.3874317322834646
11
0.9759540944881889
21
0.3827929527559055
0
LINE
8
BLACK
6
CONTINUOUS
10
0.9759540944881889
20
0.3827929527559055
11
0.9704994881889764
21
0.3791483070866142
0
LINE
8
BLACK
6
CONTINUOUS
10
0.9704994881889764
20
0.3791483070866142
11
0.9644386614173228
21
0.3766378346456693
0
LINE
8
BLACK
6
CONTINUOUS
10
0.9644386614173228
20
0.3766378346456693
11
0.9580045275590551
21
0.3753579921259843
0
LINE
8
BLACK
6
CONTINUOUS
10
0.9580045275590551
20
0.3753579921259843
11
0.9514442913385827
21
0.3753579921259843
0
LINE
8
BLACK
6
CONTINUOUS
10
0.9514442913385827
20
0.3753579921259843
11
0.9450101574803149
21
0.3766378346456693
0
LINE
8
BLACK
6
CONTINUOUS
10
0.9450101574803149
20
0.3766378346456693
11
0.9389493307086614
21
0.3791483070866142
0
LINE
8
BLACK
6
CONTINUOUS
10
0.9389493307086614
20
0.3791483070866142
11
0.9334947244094488
21
0.3827929527559055
0
LINE
8
BLACK
6
CONTINUOUS
10
0.9334947244094488
20
0.3827929527559055
11
0.9288559448818897
21
0.3874317322834646
0
LINE
8
BLACK
6
CONTINUOUS
10
0.9288559448818897
20
0.3874317322834646
11
0.9252112992125984
21
0.3928863385826771
0
LINE
8
BLACK
6
CONTINUOUS
10
0.9252112992125984
20
0.3928863385826771
11
0.9227008267716535
21
0.3989471653543307
0
LINE
8
BLACK
6
CONTINUOUS
10
0.9227008267716535
20
0.3989471653543307
11
0.9214209842519685
21
0.4053812992125984
0
LINE
8
BLACK
6
CONTINUOUS
10
0.9214209842519685
20
0.4053812992125984
11
0.9214209842519685
21
0.4119415354330709
0
LINE
8
BLACK
6
CONTINUOUS
10
0.9214209842519685
20
0.4119415354330709
11
0.9227008267716535
21
0.4183756692913386
0
LINE
8
BLACK
6
CONTINUOUS
10
0.9227008267716535
20
0.4183756692913386
11
0.9252112992125984
21
0.4244364960629921
0
LINE
8
BLACK
6
CONTINUOUS
10
0.9252112992125984
20
0.4244364960629921
11
0.9288559448818897
21
0.4298911023622047
0
LINE
8
BLACK
6
CONTINUOUS
10
0.9288559448818897
20
0.4298911023622047
11
0.9334947244094488
21
0.4345298818897638
0
LINE
8
BLACK
6
CONTINUOUS
10
0.9334947244094488
20
0.4345298818897638
11
0.9389493307086614
21
0.4381745275590551
0
LINE
8
BLACK
6
CONTINUOUS
10
0.9389493307086614
20
0.4381745275590551
11
0.9450101574803149
21
0.440685
0
LINE
8
BLACK
6
CONTINUOUS
10
0.9450101574803149
20
0.440685
11
0.9514442913385827
21
0.441964842519685
0
LINE
8
BLACK
6
CONTINUOUS
10
0.9514442913385827
20
0.441964842519685
11
0.9580045275590551
21
0.441964842519685
0
LINE
8
BLACK
6
CONTINUOUS
10
0.9580045275590551
20
0.441964842519685
11
0.9644386614173228
21
0.440685
0
LINE
8
BLACK
6
CONTINUOUS
10
-0.2422964173228346
20
0.4923610236220473
11
-0.2391032677165354
21
0.4902274409448819
0
LINE
8
BLACK
6
CONTINUOUS
10
-0.2391032677165354
20
0.4902274409448819
11
-0.2369696850393701
21
0.4870342913385827
0
LINE
8
BLACK
6
CONTINUOUS
10
-0.2369696850393701
20
0.4870342913385827
11
-0.2362204724409449
21
0.483267716535433
0
LINE
8
BLACK
6
CONTINUOUS
10
-0.2362204724409449
20
0.483267716535433
11
-0.2362204724409449
21
0.4635826771653543
0
LINE
8
BLACK
6
CONTINUOUS
10
-0.2362204724409449
20
0.4635826771653543
11
-0.2369696850393701
21
0.4598161023622047
0
LINE
8
BLACK
6
CONTINUOUS
10
-0.2369696850393701
20
0.4598161023622047
11
-0.2391032677165354
21
0.4566229527559055
0
LINE
8
BLACK
6
CONTINUOUS
10
-0.2391032677165354
20
0.4566229527559055
11
-0.2422964173228346
21
0.4544893700787401
0
LINE
8
BLACK
6
CONTINUOUS
10
-0.2422964173228346
20
0.4544893700787401
11
-0.2460629921259843
21
0.4537401574803149
0
LINE
8
BLACK
6
CONTINUOUS
10
-0.2460629921259843
20
0.4537401574803149
11
-0.3326771653543307
21
0.4537401574803149
0
LINE
8
BLACK
6
CONTINUOUS
10
-0.3326771653543307
20
0.4537401574803149
11
-0.3364437401574803
21
0.4544893700787401
0
LINE
8
BLACK
6
CONTINUOUS
10
-0.3364437401574803
20
0.4544893700787401
11
-0.3396368897637795
21
0.4566229527559055
0
LINE
8
BLACK
6
CONTINUOUS
10
-0.3396368897637795
20
0.4566229527559055
11
-0.3417704724409449
21
0.4598161023622047
0
LINE
8
BLACK
6
CONTINUOUS
10
-0.3417704724409449
20
0.4598161023622047
11
-0.3425196850393701
21
0.4635826771653543
0
LINE
8
BLACK
6
CONTINUOUS
10
-0.3425196850393701
20
0.4635826771653543
11
-0.3425196850393701
21
0.483267716535433
0
LINE
8
BLACK
6
CONTINUOUS
10
-0.3425196850393701
20
0.483267716535433
11
-0.3417704724409449
21
0.4870342913385827
0
LINE
8
BLACK
6
CONTINUOUS
10
-0.3417704724409449
20
0.4870342913385827
11
-0.3396368897637795
21
0.4902274409448819
0
LINE
8
BLACK
6
CONTINUOUS
10
-0.3396368897637795
20
0.4902274409448819
11
-0.3364437401574803
21
0.4923610236220473
0
LINE
8
BLACK
6
CONTINUOUS
10
-0.3364437401574803
20
0.4923610236220473
11
-0.3326771653543307
21
0.4931102362204725
0
LINE
8
BLACK
6
CONTINUOUS
10
-0.3326771653543307
20
0.4931102362204725
11
-0.2460629921259843
21
0.4931102362204725
0
LINE
8
BLACK
6
CONTINUOUS
10
-0.2460629921259843
20
0.4931102362204725
11
-0.2422964173228346
21
0.4923610236220473
0
LINE
8
BLACK
6
CONTINUOUS
10
0.9644386614173228
20
0.540685
11
0.9704994881889764
21
0.5381745275590551
0
LINE
8
BLACK
6
CONTINUOUS
10
0.9704994881889764
20
0.5381745275590551
11
0.9759540944881889
21
0.5345298818897638
0
LINE
8
BLACK
6
CONTINUOUS
10
0.9759540944881889
20
0.5345298818897638
11
0.980592874015748
21
0.5298911023622047
0
LINE
8
BLACK
6
CONTINUOUS
10
0.980592874015748
20
0.5298911023622047
11
0.9842375196850394
21
0.5244364960629921
0
LINE
8
BLACK
6
CONTINUOUS
10
0.9842375196850394
20
0.5244364960629921
11
0.9867479921259842
21
0.5183756692913386
0
LINE
8
BLACK
6
CONTINUOUS
10
0.9867479921259842
20
0.5183756692913386
11
0.9880278346456692
21
0.5119415354330709
0
LINE
8
BLACK
6
CONTINUOUS
10
0.9880278346456692
20
0.5119415354330709
11
0.9880278346456692
21
0.5053812992125984
0
LINE
8
BLACK
6
CONTINUOUS
10
0.9880278346456692
20
0.5053812992125984
11
0.9867479921259842
21
0.4989471653543307
0
LINE
8
BLACK
6
CONTINUOUS
10
0.9867479921259842
20
0.4989471653543307
11
0.9842375196850394
21
0.4928863385826772
0
LINE
8
BLACK
6
CONTINUOUS
10
0.9842375196850394
20
0.4928863385826772
11
0.980592874015748
21
0.4874317322834645
0
LINE
8
BLACK
6
CONTINUOUS
10
0.980592874015748
20
0.4874317322834645
11
0.9759540944881889
21
0.4827929527559055
0
LINE
8
BLACK
6
CONTINUOUS
10
0.9759540944881889
20
0.4827929527559055
11
0.9704994881889764
21
0.4791483070866142
0
LINE
8
BLACK
6
CONTINUOUS
10
0.9704994881889764
20
0.4791483070866142
11
0.9644386614173228
21
0.4766378346456693
0
LINE
8
BLACK
6
CONTINUOUS
10
0.9644386614173228
20
0.4766378346456693
11
0.9580045275590551
21
0.4753579921259842
0
LINE
8
BLACK
6
CONTINUOUS
10
0.9580045275590551
20
0.4753579921259842
11
0.9514442913385827
21
0.4753579921259842
0
LINE
8
BLACK
6
CONTINUOUS
10
0.9514442913385827
20
0.4753579921259842
11
0.9450101574803149
21
0.4766378346456693
0
LINE
8
BLACK
6
CONTINUOUS
10
0.9450101574803149
20
0.4766378346456693
11
0.9389493307086614
21
0.4791483070866142
0
LINE
8
BLACK
6
CONTINUOUS
10
0.9389493307086614
20
0.4791483070866142
11
0.9334947244094488
21
0.4827929527559055
0
LINE
8
BLACK
6
CONTINUOUS
10
0.9334947244094488
20
0.4827929527559055
11
0.9288559448818897
21
0.4874317322834645
0
LINE
8
BLACK
6
CONTINUOUS
10
0.9288559448818897
20
0.4874317322834645
11
0.9252112992125984
21
0.4928863385826772
0
LINE
8
BLACK
6
CONTINUOUS
10
0.9252112992125984
20
0.4928863385826772
11
0.9227008267716535
21
0.4989471653543307
0
LINE
8
BLACK
6
CONTINUOUS
10
0.9227008267716535
20
0.4989471653543307
11
0.9214209842519685
21
0.5053812992125984
0
LINE
8
BLACK
6
CONTINUOUS
10
0.9214209842519685
20
0.5053812992125984
11
0.9214209842519685
21
0.5119415354330709
0
LINE
8
BLACK
6
CONTINUOUS
10
0.9214209842519685
20
0.5119415354330709
11
0.9227008267716535
21
0.5183756692913386
0
LINE
8
BLACK
6
CONTINUOUS
10
0.9227008267716535
20
0.5183756692913386
11
0.9252112992125984
21
0.5244364960629921
0
LINE
8
BLACK
6
CONTINUOUS
10
0.9252112992125984
20
0.5244364960629921
11
0.9288559448818897
21
0.5298911023622047
0
LINE
8
BLACK
6
CONTINUOUS
10
0.9288559448818897
20
0.5298911023622047
11
0.9334947244094488
21
0.5345298818897638
0
LINE
8
BLACK
6
CONTINUOUS
10
0.9334947244094488
20
0.5345298818897638
11
0.9389493307086614
21
0.5381745275590551
0
LINE
8
BLACK
6
CONTINUOUS
10
0.9389493307086614
20
0.5381745275590551
11
0.9450101574803149
21
0.540685
0
LINE
8
BLACK
6
CONTINUOUS
10
0.9450101574803149
20
0.540685
11
0.9514442913385827
21
0.541964842519685
0
LINE
8
BLACK
6
CONTINUOUS
10
0.9514442913385827
20
0.541964842519685
11
0.9580045275590551
21
0.541964842519685
0
LINE
8
BLACK
6
CONTINUOUS
10
0.9580045275590551
20
0.541964842519685
11
0.9644386614173228
21
0.540685
0
LINE
8
BLACK
6
CONTINUOUS
10
-0.1335668110236221
20
0.5576213385826772
11
-0.1316509448818897
21
0.5563411811023622
0
LINE
8
BLACK
6
CONTINUOUS
10
-0.1316509448818897
20
0.5563411811023622
11
-0.1303707874015748
21
0.5544253149606299
0
LINE
8
BLACK
6
CONTINUOUS
10
-0.1303707874015748
20
0.5544253149606299
11
-0.1299212598425197
21
0.5521653543307087
0
LINE
8
BLACK
6
CONTINUOUS
10
-0.1299212598425197
20
0.5521653543307087
11
-0.1299212598425197
21
0.5403543307086615
0
LINE
8
BLACK
6
CONTINUOUS
10
-0.1299212598425197
20
0.5403543307086615
11
-0.1303707874015748
21
0.5380943700787402
0
LINE
8
BLACK
6
CONTINUOUS
10
-0.1303707874015748
20
0.5380943700787402
11
-0.1316509448818897
21
0.5361785039370078
0
LINE
8
BLACK
6
CONTINUOUS
10
-0.1316509448818897
20
0.5361785039370078
11
-0.1335668110236221
21
0.5348983464566929
0
LINE
8
BLACK
6
CONTINUOUS
10
-0.1335668110236221
20
0.5348983464566929
11
-0.1358267716535433
21
0.5344488188976377
0
LINE
8
BLACK
6
CONTINUOUS
10
-0.1358267716535433
20
0.5344488188976377
11
-0.1909448818897638
21
0.5344488188976377
0
LINE
8
BLACK
6
CONTINUOUS
10
-0.1909448818897638
20
0.5344488188976377
11
-0.193204842519685
21
0.5348983464566929
0
LINE
8
BLACK
6
CONTINUOUS
10
-0.193204842519685
20
0.5348983464566929
11
-0.1951207086614173
21
0.5361785039370078
0
LINE
8
BLACK
6
CONTINUOUS
10
-0.1951207086614173
20
0.5361785039370078
11
-0.1964008661417323
21
0.5380943700787402
0
LINE
8
BLACK
6
CONTINUOUS
10
-0.1964008661417323
20
0.5380943700787402
11
-0.1968503937007874
21
0.5403543307086615
0
LINE
8
BLACK
6
CONTINUOUS
10
-0.1968503937007874
20
0.5403543307086615
11
-0.1968503937007874
21
0.5521653543307087
0
LINE
8
BLACK
6
CONTINUOUS
10
-0.1968503937007874
20
0.5521653543307087
11
-0.1964008661417323
21
0.5544253149606299
0
LINE
8
BLACK
6
CONTINUOUS
10
-0.1964008661417323
20
0.5544253149606299
11
-0.1951207086614173
21
0.5563411811023622
0
LINE
8
BLACK
6
CONTINUOUS
10
-0.1951207086614173
20
0.5563411811023622
11
-0.193204842519685
21
0.5576213385826772
0
LINE
8
BLACK
6
CONTINUOUS
10
-0.193204842519685
20
0.5576213385826772
11
-0.1909448818897638
21
0.5580708661417323
0
LINE
8
BLACK
6
CONTINUOUS
10
-0.1909448818897638
20
0.5580708661417323
11
-0.1358267716535433
21
0.5580708661417323
0
LINE
8
BLACK
6
CONTINUOUS
10
-0.1358267716535433
20
0.5580708661417323
11
-0.1335668110236221
21
0.5576213385826772
0
LINE
8
BLACK
6
CONTINUOUS
10
0.9644386614173228
20
0.6406849999999999
11
0.9704994881889764
21
0.6381745275590551
0
LINE
8
BLACK
6
CONTINUOUS
10
0.9704994881889764
20
0.6381745275590551
11
0.9759540944881889
21
0.6345298818897638
0
LINE
8
BLACK
6
CONTINUOUS
10
0.9759540944881889
20
0.6345298818897638
11
0.980592874015748
21
0.6298911023622047
0
LINE
8
BLACK
6
CONTINUOUS
10
0.980592874015748
20
0.6298911023622047
11
0.9842375196850394
21
0.6244364960629921
0
LINE
8
BLACK
6
CONTINUOUS
10
0.9842375196850394
20
0.6244364960629921
11
0.9867479921259842
21
0.6183756692913386
0
LINE
8
BLACK
6
CONTINUOUS
10
0.9867479921259842
20
0.6183756692913386
11
0.9880278346456692
21
0.6119415354330708
0
LINE
8
BLACK
6
CONTINUOUS
10
0.9880278346456692
20
0.6119415354330708
11
0.9880278346456692
21
0.6053812992125984
0
LINE
8
BLACK
6
CONTINUOUS
10
0.9880278346456692
20
0.6053812992125984
11
0.9867479921259842
21
0.5989471653543307
0
LINE
8
BLACK
6
CONTINUOUS
10
0.9867479921259842
20
0.5989471653543307
11
0.9842375196850394
21
0.5928863385826771
0
LINE
8
BLACK
6
CONTINUOUS
10
0.9842375196850394
20
0.5928863385826771
11
0.980592874015748
21
0.5874317322834646
0
LINE
8
BLACK
6
CONTINUOUS
10
0.980592874015748
20
0.5874317322834646
11
0.9759540944881889
21
0.5827929527559055
0
LINE
8
BLACK
6
CONTINUOUS
10
0.9759540944881889
20
0.5827929527559055
11
0.9704994881889764
21
0.5791483070866141
0
LINE
8
BLACK
6
CONTINUOUS
10
0.9704994881889764
20
0.5791483070866141
11
0.9644386614173228
21
0.5766378346456693
0
LINE
8
BLACK
6
CONTINUOUS
10
0.9644386614173228
20
0.5766378346456693
11
0.9580045275590551
21
0.5753579921259843
0
LINE
8
BLACK
6
CONTINUOUS
10
0.9580045275590551
20
0.5753579921259843
11
0.9514442913385827
21
0.5753579921259843
0
LINE
8
BLACK
6
CONTINUOUS
10
0.9514442913385827
20
0.5753579921259843
11
0.9450101574803149
21
0.5766378346456693
0
LINE
8
BLACK
6
CONTINUOUS
10
0.9450101574803149
20
0.5766378346456693
11
0.9389493307086614
21
0.5791483070866141
0
LINE
8
BLACK
6
CONTINUOUS
10
0.9389493307086614
20
0.5791483070866141
11
0.9334947244094488
21
0.5827929527559055
0
LINE
8
BLACK
6
CONTINUOUS
10
0.9334947244094488
20
0.5827929527559055
11
0.9288559448818897
21
0.5874317322834646
0
LINE
8
BLACK
6
CONTINUOUS
10
0.9288559448818897
20
0.5874317322834646
11
0.9252112992125984
21
0.5928863385826771
0
LINE
8
BLACK
6
CONTINUOUS
10
0.9252112992125984
20
0.5928863385826771
11
0.9227008267716535
21
0.5989471653543307
0
LINE
8
BLACK
6
CONTINUOUS
10
0.9227008267716535
20
0.5989471653543307
11
0.9214209842519685
21
0.6053812992125984
0
LINE
8
BLACK
6
CONTINUOUS
10
0.9214209842519685
20
0.6053812992125984
11
0.9214209842519685
21
0.6119415354330708
0
LINE
8
BLACK
6
CONTINUOUS
10
0.9214209842519685
20
0.6119415354330708
11
0.9227008267716535
21
0.6183756692913386
0
LINE
8
BLACK
6
CONTINUOUS
10
0.9227008267716535
20
0.6183756692913386
11
0.9252112992125984
21
0.6244364960629921
0
LINE
8
BLACK
6
CONTINUOUS
10
0.9252112992125984
20
0.6244364960629921
11
0.9288559448818897
21
0.6298911023622047
0
LINE
8
BLACK
6
CONTINUOUS
10
0.9288559448818897
20
0.6298911023622047
11
0.9334947244094488
21
0.6345298818897638
0
LINE
8
BLACK
6
CONTINUOUS
10
0.9334947244094488
20
0.6345298818897638
11
0.9389493307086614
21
0.6381745275590551
0
LINE
8
BLACK
6
CONTINUOUS
10
0.9389493307086614
20
0.6381745275590551
11
0.9450101574803149
21
0.6406849999999999
0
LINE
8
BLACK
6
CONTINUOUS
10
0.9450101574803149
20
0.6406849999999999
11
0.9514442913385827
21
0.641964842519685
0
LINE
8
BLACK
6
CONTINUOUS
10
0.9514442913385827
20
0.641964842519685
11
0.9580045275590551
21
0.641964842519685
0
LINE
8
BLACK
6
CONTINUOUS
10
0.9580045275590551
20
0.641964842519685
11
0.9644386614173228
21
0.6406849999999999
0
LINE
8
BLACK
6
CONTINUOUS
10
-0.1335668110236221
20
0.606833937007874
11
-0.1316509448818897
21
0.6055537795275591
0
LINE
8
BLACK
6
CONTINUOUS
10
-0.1316509448818897
20
0.6055537795275591
11
-0.1303707874015748
21
0.6036379133858267
0
LINE
8
BLACK
6
CONTINUOUS
10
-0.1303707874015748
20
0.6036379133858267
11
-0.1299212598425197
21
0.6013779527559054
0
LINE
8
BLACK
6
CONTINUOUS
10
-0.1299212598425197
20
0.6013779527559054
11
-0.1299212598425197
21
0.5895669291338582
0
LINE
8
BLACK
6
CONTINUOUS
10
-0.1299212598425197
20
0.5895669291338582
11
-0.1303707874015748
21
0.587306968503937
0
LINE
8
BLACK
6
CONTINUOUS
10
-0.1303707874015748
20
0.587306968503937
11
-0.1316509448818897
21
0.5853911023622047
0
LINE
8
BLACK
6
CONTINUOUS
10
-0.1316509448818897
20
0.5853911023622047
11
-0.1335668110236221
21
0.5841109448818897
0
LINE
8
BLACK
6
CONTINUOUS
10
-0.1335668110236221
20
0.5841109448818897
11
-0.1358267716535433
21
0.5836614173228346
0
LINE
8
BLACK
6
CONTINUOUS
10
-0.1358267716535433
20
0.5836614173228346
11
-0.1909448818897638
21
0.5836614173228346
0
LINE
8
BLACK
6
CONTINUOUS
10
-0.1909448818897638
20
0.5836614173228346
11
-0.193204842519685
21
0.5841109448818897
0
LINE
8
BLACK
6
CONTINUOUS
10
-0.193204842519685
20
0.5841109448818897
11
-0.1951207086614173
21
0.5853911023622047
0
LINE
8
BLACK
6
CONTINUOUS
10
-0.1951207086614173
20
0.5853911023622047
11
-0.1964008661417323
21
0.587306968503937
0
LINE
8
BLACK
6
CONTINUOUS
10
-0.1964008661417323
20
0.587306968503937
11
-0.1968503937007874
21
0.5895669291338582
0
LINE
8
BLACK
6
CONTINUOUS
10
-0.1968503937007874
20
0.5895669291338582
11
-0.1968503937007874
21
0.6013779527559054
0
LINE
8
BLACK
6
CONTINUOUS
10
-0.1968503937007874
20
0.6013779527559054
11
-0.1964008661417323
21
0.6036379133858267
0
LINE
8
BLACK
6
CONTINUOUS
10
-0.1964008661417323
20
0.6036379133858267
11
-0.1951207086614173
21
0.6055537795275591
0
LINE
8
BLACK
6
CONTINUOUS
10
-0.1951207086614173
20
0.6055537795275591
11
-0.193204842519685
21
0.606833937007874
0
LINE
8
BLACK
6
CONTINUOUS
10
-0.193204842519685
20
0.606833937007874
11
-0.1909448818897638
21
0.6072834645669292
0
LINE
8
BLACK
6
CONTINUOUS
10
-0.1909448818897638
20
0.6072834645669292
11
-0.1358267716535433
21
0.6072834645669292
0
LINE
8
BLACK
6
CONTINUOUS
10
-0.1358267716535433
20
0.6072834645669292
11
-0.1335668110236221
21
0.606833937007874
0
LINE
8
BLACK
6
CONTINUOUS
10
-0.5001704330708662
20
0.6547625984251968
11
-0.4969772834645669
21
0.6526290157480314
0
LINE
8
BLACK
6
CONTINUOUS
10
-0.4969772834645669
20
0.6526290157480314
11
-0.4948437007874016
21
0.6494358661417323
0
LINE
8
BLACK
6
CONTINUOUS
10
-0.4948437007874016
20
0.6494358661417323
11
-0.4940944881889764
21
0.6456692913385826
0
LINE
8
BLACK
6
CONTINUOUS
10
-0.4940944881889764
20
0.6456692913385826
11
-0.4940944881889764
21
0.5944881889763779
0
LINE
8
BLACK
6
CONTINUOUS
10
-0.4940944881889764
20
0.5944881889763779
11
-0.4948437007874016
21
0.5907216141732283
0
LINE
8
BLACK
6
CONTINUOUS
10
-0.4948437007874016
20
0.5907216141732283
11
-0.4969772834645669
21
0.5875284645669291
0
LINE
8
BLACK
6
CONTINUOUS
10
-0.4969772834645669
20
0.5875284645669291
11
-0.5001704330708662
21
0.5853948818897637
0
LINE
8
BLACK
6
CONTINUOUS
10
-0.5001704330708662
20
0.5853948818897637
11
-0.5039370078740157
21
0.5846456692913385
0
LINE
8
BLACK
6
CONTINUOUS
10
-0.5039370078740157
20
0.5846456692913385
11
-0.6181102362204725
21
0.5846456692913385
0
LINE
8
BLACK
6
CONTINUOUS
10
-0.6181102362204725
20
0.5846456692913385
11
-0.621876811023622
21
0.5853948818897637
0
LINE
8
BLACK
6
CONTINUOUS
10
-0.621876811023622
20
0.5853948818897637
11
-0.6250699606299213
21
0.5875284645669291
0
LINE
8
BLACK
6
CONTINUOUS
10
-0.6250699606299213
20
0.5875284645669291
11
-0.6272035433070866
21
0.5907216141732283
0
LINE
8
BLACK
6
CONTINUOUS
10
-0.6272035433070866
20
0.5907216141732283
11
-0.6279527559055118
21
0.5944881889763779
0
LINE
8
BLACK
6
CONTINUOUS
10
-0.6279527559055118
20
0.5944881889763779
11
-0.6279527559055118
21
0.6456692913385826
0
LINE
8
BLACK
6
CONTINUOUS
10
-0.6279527559055118
20
0.6456692913385826
11
-0.6272035433070866
21
0.6494358661417323
0
LINE
8
BLACK
6
CONTINUOUS
10
-0.6272035433070866
20
0.6494358661417323
11
-0.6250699606299213
21
0.6526290157480314
0
LINE
8
BLACK
6
CONTINUOUS
10
-0.6250699606299213
20
0.6526290157480314
11
-0.621876811023622
21
0.6547625984251968
0
LINE
8
BLACK
6
CONTINUOUS
10
-0.621876811023622
20
0.6547625984251968
11
-0.6181102362204725
21
0.655511811023622
0
LINE
8
BLACK
6
CONTINUOUS
10
-0.6181102362204725
20
0.655511811023622
11
-0.5039370078740157
21
0.655511811023622
0
LINE
8
BLACK
6
CONTINUOUS
10
-0.5039370078740157
20
0.655511811023622
11
-0.5001704330708662
21
0.6547625984251968
0
LINE
8
BLACK
6
CONTINUOUS
10
-0.1335668110236221
20
0.6560465354330709
11
-0.1316509448818897
21
0.6547663779527559
0
LINE
8
BLACK
6
CONTINUOUS
10
-0.1316509448818897
20
0.6547663779527559
11
-0.1303707874015748
21
0.6528505118110236
0
LINE
8
BLACK
6
CONTINUOUS
10
-0.1303707874015748
20
0.6528505118110236
11
-0.1299212598425197
21
0.6505905511811023
0
LINE
8
BLACK
6
CONTINUOUS
10
-0.1299212598425197
20
0.6505905511811023
11
-0.1299212598425197
21
0.6387795275590551
0
LINE
8
BLACK
6
CONTINUOUS
10
-0.1299212598425197
20
0.6387795275590551
11
-0.1303707874015748
21
0.6365195669291338
0
LINE
8
BLACK
6
CONTINUOUS
10
-0.1303707874015748
20
0.6365195669291338
11
-0.1316509448818897
21
0.6346037007874016
0
LINE
8
BLACK
6
CONTINUOUS
10
-0.1316509448818897
20
0.6346037007874016
11
-0.1335668110236221
21
0.6333235433070866
0
LINE
8
BLACK
6
CONTINUOUS
10
-0.1335668110236221
20
0.6333235433070866
11
-0.1358267716535433
21
0.6328740157480315
0
LINE
8
BLACK
6
CONTINUOUS
10
-0.1358267716535433
20
0.6328740157480315
11
-0.1909448818897638
21
0.6328740157480315
0
LINE
8
BLACK
6
CONTINUOUS
10
-0.1909448818897638
20
0.6328740157480315
11
-0.193204842519685
21
0.6333235433070866
0
LINE
8
BLACK
6
CONTINUOUS
10
-0.193204842519685
20
0.6333235433070866
11
-0.1951207086614173
21
0.6346037007874016
0
LINE
8
BLACK
6
CONTINUOUS
10
-0.1951207086614173
20
0.6346037007874016
11
-0.1964008661417323
21
0.6365195669291338
0
LINE
8
BLACK
6
CONTINUOUS
10
-0.1964008661417323
20
0.6365195669291338
11
-0.1968503937007874
21
0.6387795275590551
0
LINE
8
BLACK
6
CONTINUOUS
10
-0.1968503937007874
20
0.6387795275590551
11
-0.1968503937007874
21
0.6505905511811023
0
LINE
8
BLACK
6
CONTINUOUS
10
-0.1968503937007874
20
0.6505905511811023
11
-0.1964008661417323
21
0.6528505118110236
0
LINE
8
BLACK
6
CONTINUOUS
10
-0.1964008661417323
20
0.6528505118110236
11
-0.1951207086614173
21
0.6547663779527559
0
LINE
8
BLACK
6
CONTINUOUS
10
-0.1951207086614173
20
0.6547663779527559
11
-0.193204842519685
21
0.6560465354330709
0
LINE
8
BLACK
6
CONTINUOUS
10
-0.193204842519685
20
0.6560465354330709
11
-0.1909448818897638
21
0.6564960629921259
0
LINE
8
BLACK
6
CONTINUOUS
10
-0.1909448818897638
20
0.6564960629921259
11
-0.1358267716535433
21
0.6564960629921259
0
LINE
8
BLACK
6
CONTINUOUS
10
-0.1358267716535433
20
0.6564960629921259
11
-0.1335668110236221
21
0.6560465354330709
0
LINE
8
BLACK
6
CONTINUOUS
10
0.9881889763779528
20
0.6751968503937008
11
0.9212598425196851
21
0.6751968503937008
0
LINE
8
BLACK
6
CONTINUOUS
10
0.9212598425196851
20
0.6751968503937008
11
0.9212598425196851
21
0.7421259842519685
0
LINE
8
BLACK
6
CONTINUOUS
10
0.9212598425196851
20
0.7421259842519685
11
0.9881889763779528
21
0.7421259842519685
0
LINE
8
BLACK
6
CONTINUOUS
10
0.9881889763779528
20
0.7421259842519685
11
0.9881889763779528
21
0.6751968503937008
0
LINE
8
BLACK
6
CONTINUOUS
10
-0.1335668110236221
20
0.7052591338582677
11
-0.1316509448818897
21
0.7039789763779527
0
LINE
8
BLACK
6
CONTINUOUS
10
-0.1316509448818897
20
0.7039789763779527
11
-0.1303707874015748
21
0.7020631102362205
0
LINE
8
BLACK
6
CONTINUOUS
10
-0.1303707874015748
20
0.7020631102362205
11
-0.1299212598425197
21
0.6998031496062992
0
LINE
8
BLACK
6
CONTINUOUS
10
-0.1299212598425197
20
0.6998031496062992
11
-0.1299212598425197
21
0.687992125984252
0
LINE
8
BLACK
6
CONTINUOUS
10
-0.1299212598425197
20
0.687992125984252
11
-0.1303707874015748
21
0.6857321653543307
0
LINE
8
BLACK
6
CONTINUOUS
10
-0.1303707874015748
20
0.6857321653543307
11
-0.1316509448818897
21
0.6838162992125985
0
LINE
8
BLACK
6
CONTINUOUS
10
-0.1316509448818897
20
0.6838162992125985
11
-0.1335668110236221
21
0.6825361417322835
0
LINE
8
BLACK
6
CONTINUOUS
10
-0.1335668110236221
20
0.6825361417322835
11
-0.1358267716535433
21
0.6820866141732284
0
LINE
8
BLACK
6
CONTINUOUS
10
-0.1358267716535433
20
0.6820866141732284
11
-0.1909448818897638
21
0.6820866141732284
0
LINE
8
BLACK
6
CONTINUOUS
10
-0.1909448818897638
20
0.6820866141732284
11
-0.193204842519685
21
0.6825361417322835
0
LINE
8
BLACK
6
CONTINUOUS
10
-0.193204842519685
20
0.6825361417322835
11
-0.1951207086614173
21
0.6838162992125985
0
LINE
8
BLACK
6
CONTINUOUS
10
-0.1951207086614173
20
0.6838162992125985
11
-0.1964008661417323
21
0.6857321653543307
0
LINE
8
BLACK
6
CONTINUOUS
10
-0.1964008661417323
20
0.6857321653543307
11
-0.1968503937007874
21
0.687992125984252
0
LINE
8
BLACK
6
CONTINUOUS
10
-0.1968503937007874
20
0.687992125984252
11
-0.1968503937007874
21
0.6998031496062992
0
LINE
8
BLACK
6
CONTINUOUS
10
-0.1968503937007874
20
0.6998031496062992
11
-0.1964008661417323
21
0.7020631102362205
0
LINE
8
BLACK
6
CONTINUOUS
10
-0.1964008661417323
20
0.7020631102362205
11
-0.1951207086614173
21
0.7039789763779527
0
LINE
8
BLACK
6
CONTINUOUS
10
-0.1951207086614173
20
0.7039789763779527
11
-0.193204842519685
21
0.7052591338582677
0
LINE
8
BLACK
6
CONTINUOUS
10
-0.193204842519685
20
0.7052591338582677
11
-0.1909448818897638
21
0.7057086614173228
0
LINE
8
BLACK
6
CONTINUOUS
10
-0.1909448818897638
20
0.7057086614173228
11
-0.1358267716535433
21
0.7057086614173228
0
LINE
8
BLACK
6
CONTINUOUS
10
-0.1358267716535433
20
0.7057086614173228
11
-0.1335668110236221
21
0.7052591338582677
0
LINE
8
BLACK
6
CONTINUOUS
10
-0.2422964173228346
20
0.7856681102362204
11
-0.2391032677165354
21
0.7835345275590551
0
LINE
8
BLACK
6
CONTINUOUS
10
-0.2391032677165354
20
0.7835345275590551
11
-0.2369696850393701
21
0.7803413779527559
0
LINE
8
BLACK
6
CONTINUOUS
10
-0.2369696850393701
20
0.7803413779527559
11
-0.2362204724409449
21
0.7765748031496063
0
LINE
8
BLACK
6
CONTINUOUS
10
-0.2362204724409449
20
0.7765748031496063
11
-0.2362204724409449
21
0.7568897637795275
0
LINE
8
BLACK
6
CONTINUOUS
10
-0.2362204724409449
20
0.7568897637795275
11
-0.2369696850393701
21
0.753123188976378
0
LINE
8
BLACK
6
CONTINUOUS
10
-0.2369696850393701
20
0.753123188976378
11
-0.2391032677165354
21
0.7499300393700787
0
LINE
8
BLACK
6
CONTINUOUS
10
-0.2391032677165354
20
0.7499300393700787
11
-0.2422964173228346
21
0.7477964566929134
0
LINE
8
BLACK
6
CONTINUOUS
10
-0.2422964173228346
20
0.7477964566929134
11
-0.2460629921259843
21
0.7470472440944882
0
LINE
8
BLACK
6
CONTINUOUS
10
-0.2460629921259843
20
0.7470472440944882
11
-0.3326771653543307
21
0.7470472440944882
0
LINE
8
BLACK
6
CONTINUOUS
10
-0.3326771653543307
20
0.7470472440944882
11
-0.3364437401574803
21
0.7477964566929134
0
LINE
8
BLACK
6
CONTINUOUS
10
-0.3364437401574803
20
0.7477964566929134
11
-0.3396368897637795
21
0.7499300393700787
0
LINE
8
BLACK
6
CONTINUOUS
10
-0.3396368897637795
20
0.7499300393700787
11
-0.3417704724409449
21
0.753123188976378
0
LINE
8
BLACK
6
CONTINUOUS
10
-0.3417704724409449
20
0.753123188976378
11
-0.3425196850393701
21
0.7568897637795275
0
LINE
8
BLACK
6
CONTINUOUS
10
-0.3425196850393701
20
0.7568897637795275
11
-0.3425196850393701
21
0.7765748031496063
0
LINE
8
BLACK
6
CONTINUOUS
10
-0.3425196850393701
20
0.7765748031496063
11
-0.3417704724409449
21
0.7803413779527559
0
LINE
8
BLACK
6
CONTINUOUS
10
-0.3417704724409449
20
0.7803413779527559
11
-0.3396368897637795
21
0.7835345275590551
0
LINE
8
BLACK
6
CONTINUOUS
10
-0.3396368897637795
20
0.7835345275590551
11
-0.3364437401574803
21
0.7856681102362204
0
LINE
8
BLACK
6
CONTINUOUS
10
-0.3364437401574803
20
0.7856681102362204
11
-0.3326771653543307
21
0.7864173228346456
0
LINE
8
BLACK
6
CONTINUOUS
10
-0.3326771653543307
20
0.7864173228346456
11
-0.2460629921259843
21
0.7864173228346456
0
LINE
8
BLACK
6
CONTINUOUS
10
-0.2460629921259843
20
0.7864173228346456
11
-0.2422964173228346
21
0.7856681102362204
0
LINE
8
BLACK
6
CONTINUOUS
10
-0.2619814566929134
20
0.9254318897637795
11
-0.2587883070866142
21
0.9232983070866142
0
LINE
8
BLACK
6
CONTINUOUS
10
-0.2587883070866142
20
0.9232983070866142
11
-0.2566547244094488
21
0.920105157480315
0
LINE
8
BLACK
6
CONTINUOUS
10
-0.2566547244094488
20
0.920105157480315
11
-0.2559055118110236
21
0.9163385826771653
0
LINE
8
BLACK
6
CONTINUOUS
10
-0.2559055118110236
20
0.9163385826771653
11
-0.2559055118110236
21
0.8966535433070866
0
LINE
8
BLACK
6
CONTINUOUS
10
-0.2559055118110236
20
0.8966535433070866
11
-0.2566547244094488
21
0.892886968503937
0
LINE
8
BLACK
6
CONTINUOUS
10
-0.2566547244094488
20
0.892886968503937
11
-0.2587883070866142
21
0.8896938188976378
0
LINE
8
BLACK
6
CONTINUOUS
10
-0.2587883070866142
20
0.8896938188976378
11
-0.2619814566929134
21
0.8875602362204724
0
LINE
8
BLACK
6
CONTINUOUS
10
-0.2619814566929134
20
0.8875602362204724
11
-0.265748031496063
21
0.8868110236220472
0
LINE
8
BLACK
6
CONTINUOUS
10
-0.265748031496063
20
0.8868110236220472
11
-0.3523622047244094
21
0.8868110236220472
0
LINE
8
BLACK
6
CONTINUOUS
10
-0.3523622047244094
20
0.8868110236220472
11
-0.3561287795275591
21
0.8875602362204724
0
LINE
8
BLACK
6
CONTINUOUS
10
-0.3561287795275591
20
0.8875602362204724
11
-0.3593219291338582
21
0.8896938188976378
0
LINE
8
BLACK
6
CONTINUOUS
10
-0.3593219291338582
20
0.8896938188976378
11
-0.3614555118110236
21
0.892886968503937
0
LINE
8
BLACK
6
CONTINUOUS
10
-0.3614555118110236
20
0.892886968503937
11
-0.3622047244094488
21
0.8966535433070866
0
LINE
8
BLACK
6
CONTINUOUS
10
-0.3622047244094488
20
0.8966535433070866
11
-0.3622047244094488
21
0.9163385826771653
0
LINE
8
BLACK
6
CONTINUOUS
10
-0.3622047244094488
20
0.9163385826771653
11
-0.3614555118110236
21
0.920105157480315
0
LINE
8
BLACK
6
CONTINUOUS
10
-0.3614555118110236
20
0.920105157480315
11
-0.3593219291338582
21
0.9232983070866142
0
LINE
8
BLACK
6
CONTINUOUS
10
-0.3593219291338582
20
0.9232983070866142
11
-0.3561287795275591
21
0.9254318897637795
0
LINE
8
BLACK
6
CONTINUOUS
10
-0.3561287795275591
20
0.9254318897637795
11
-0.3523622047244094
21
0.9261811023622047
0
LINE
8
BLACK
6
CONTINUOUS
10
-0.3523622047244094
20
0.9261811023622047
11
-0.265748031496063
21
0.9261811023622047
0
LINE
8
BLACK
6
CONTINUOUS
10
-0.265748031496063
20
0.9261811023622047
11
-0.2619814566929134
21
0.9254318897637795
0
LINE
8
BLACK
6
CONTINUOUS
10
-0.1532518503937008
20
0.9906922047244094
11
-0.1513359842519685
21
0.9894120472440945
0
LINE
8
BLACK
6
CONTINUOUS
10
-0.1513359842519685
20
0.9894120472440945
11
-0.1500558267716535
21
0.9874961811023621
0
LINE
8
BLACK
6
CONTINUOUS
10
-0.1500558267716535
20
0.9874961811023621
11
-0.1496062992125984
21
0.985236220472441
0
LINE
8
BLACK
6
CONTINUOUS
10
-0.1496062992125984
20
0.985236220472441
11
-0.1496062992125984
21
0.9734251968503936
0
LINE
8
BLACK
6
CONTINUOUS
10
-0.1496062992125984
20
0.9734251968503936
11
-0.1500558267716535
21
0.9711652362204725
0
LINE
8
BLACK
6
CONTINUOUS
10
-0.1500558267716535
20
0.9711652362204725
11
-0.1513359842519685
21
0.9692493700787401
0
LINE
8
BLACK
6
CONTINUOUS
10
-0.1513359842519685
20
0.9692493700787401
11
-0.1532518503937008
21
0.9679692125984252
0
LINE
8
BLACK
6
CONTINUOUS
10
-0.1532518503937008
20
0.9679692125984252
11
-0.155511811023622
21
0.96751968503937
0
LINE
8
BLACK
6
CONTINUOUS
10
-0.155511811023622
20
0.96751968503937
11
-0.2106299212598425
21
0.96751968503937
0
LINE
8
BLACK
6
CONTINUOUS
10
-0.2106299212598425
20
0.96751968503937
11
-0.2128898818897638
21
0.9679692125984252
0
LINE
8
BLACK
6
CONTINUOUS
10
-0.2128898818897638
20
0.9679692125984252
11
-0.214805748031496
21
0.9692493700787401
0
LINE
8
BLACK
6
CONTINUOUS
10
-0.214805748031496
20
0.9692493700787401
11
-0.216085905511811
21
0.9711652362204725
0
LINE
8
BLACK
6
CONTINUOUS
10
-0.216085905511811
20
0.9711652362204725
11
-0.2165354330708661
21
0.9734251968503936
0
LINE
8
BLACK
6
CONTINUOUS
10
-0.2165354330708661
20
0.9734251968503936
11
-0.2165354330708661
21
0.985236220472441
0
LINE
8
BLACK
6
CONTINUOUS
10
-0.2165354330708661
20
0.985236220472441
11
-0.216085905511811
21
0.9874961811023621
0
LINE
8
BLACK
6
CONTINUOUS
10
-0.216085905511811
20
0.9874961811023621
11
-0.214805748031496
21
0.9894120472440945
0
LINE
8
BLACK
6
CONTINUOUS
10
-0.214805748031496
20
0.9894120472440945
11
-0.2128898818897638
21
0.9906922047244094
0
LINE
8
BLACK
6
CONTINUOUS
10
-0.2128898818897638
20
0.9906922047244094
11
-0.2106299212598425
21
0.9911417322834646
0
LINE
8
BLACK
6
CONTINUOUS
10
-0.2106299212598425
20
0.9911417322834646
11
-0.155511811023622
21
0.9911417322834646
0
LINE
8
BLACK
6
CONTINUOUS
10
-0.155511811023622
20
0.9911417322834646
11
-0.1532518503937008
21
0.9906922047244094
0
LINE
8
BLACK
6
CONTINUOUS
10
-0.1532518503937008
20
1.0399048031496063
11
-0.1513359842519685
21
1.0386246456692914
0
LINE
8
BLACK
6
CONTINUOUS
10
-0.1513359842519685
20
1.0386246456692914
11
-0.1500558267716535
21
1.0367087795275591
0
LINE
8
BLACK
6
CONTINUOUS
10
-0.1500558267716535
20
1.0367087795275591
11
-0.1496062992125984
21
1.0344488188976377
0
LINE
8
BLACK
6
CONTINUOUS
10
-0.1496062992125984
20
1.0344488188976377
11
-0.1496062992125984
21
1.0226377952755905
0
LINE
8
BLACK
6
CONTINUOUS
10
-0.1496062992125984
20
1.0226377952755905
11
-0.1500558267716535
21
1.0203778346456693
0
LINE
8
BLACK
6
CONTINUOUS
10
-0.1500558267716535
20
1.0203778346456693
11
-0.1513359842519685
21
1.0184619685039369
0
LINE
8
BLACK
6
CONTINUOUS
10
-0.1513359842519685
20
1.0184619685039369
11
-0.1532518503937008
21
1.0171818110236219
0
LINE
8
BLACK
6
CONTINUOUS
10
-0.1532518503937008
20
1.0171818110236219
11
-0.155511811023622
21
1.0167322834645669
0
LINE
8
BLACK
6
CONTINUOUS
10
-0.155511811023622
20
1.0167322834645669
11
-0.2106299212598425
21
1.0167322834645669
0
LINE
8
BLACK
6
CONTINUOUS
10
-0.2106299212598425
20
1.0167322834645669
11
-0.2128898818897638
21
1.0171818110236219
0
LINE
8
BLACK
6
CONTINUOUS
10
-0.2128898818897638
20
1.0171818110236219
11
-0.214805748031496
21
1.0184619685039369
0
LINE
8
BLACK
6
CONTINUOUS
10
-0.214805748031496
20
1.0184619685039369
11
-0.216085905511811
21
1.0203778346456693
0
LINE
8
BLACK
6
CONTINUOUS
10
-0.216085905511811
20
1.0203778346456693
11
-0.2165354330708661
21
1.0226377952755905
0
LINE
8
BLACK
6
CONTINUOUS
10
-0.2165354330708661
20
1.0226377952755905
11
-0.2165354330708661
21
1.0344488188976377
0
LINE
8
BLACK
6
CONTINUOUS
10
-0.2165354330708661
20
1.0344488188976377
11
-0.216085905511811
21
1.0367087795275591
0
LINE
8
BLACK
6
CONTINUOUS
10
-0.216085905511811
20
1.0367087795275591
11
-0.214805748031496
21
1.0386246456692914
0
LINE
8
BLACK
6
CONTINUOUS
10
-0.214805748031496
20
1.0386246456692914
11
-0.2128898818897638
21
1.0399048031496063
0
LINE
8
BLACK
6
CONTINUOUS
10
-0.2128898818897638
20
1.0399048031496063
11
-0.2106299212598425
21
1.0403543307086613
0
LINE
8
BLACK
6
CONTINUOUS
10
-0.2106299212598425
20
1.0403543307086613
11
-0.155511811023622
21
1.0403543307086613
0
LINE
8
BLACK
6
CONTINUOUS
10
-0.155511811023622
20
1.0403543307086613
11
-0.1532518503937008
21
1.0399048031496063
0
LINE
8
BLACK
6
CONTINUOUS
10
-0.1532518503937008
20
1.0891174015748031
11
-0.1513359842519685
21
1.0878372440944881
0
LINE
8
BLACK
6
CONTINUOUS
10
-0.1513359842519685
20
1.0878372440944881
11
-0.1500558267716535
21
1.0859213779527559
0
LINE
8
BLACK
6
CONTINUOUS
10
-0.1500558267716535
20
1.0859213779527559
11
-0.1496062992125984
21
1.0836614173228347
0
LINE
8
BLACK
6
CONTINUOUS
10
-0.1496062992125984
20
1.0836614173228347
11
-0.1496062992125984
21
1.0718503937007873
0
LINE
8
BLACK
6
CONTINUOUS
10
-0.1496062992125984
20
1.0718503937007873
11
-0.1500558267716535
21
1.0695904330708661
0
LINE
8
BLACK
6
CONTINUOUS
10
-0.1500558267716535
20
1.0695904330708661
11
-0.1513359842519685
21
1.0676745669291339
0
LINE
8
BLACK
6
CONTINUOUS
10
-0.1513359842519685
20
1.0676745669291339
11
-0.1532518503937008
21
1.0663944094488189
0
LINE
8
BLACK
6
CONTINUOUS
10
-0.1532518503937008
20
1.0663944094488189
11
-0.155511811023622
21
1.0659448818897637
0
LINE
8
BLACK
6
CONTINUOUS
10
-0.155511811023622
20
1.0659448818897637
11
-0.2106299212598425
21
1.0659448818897637
0
LINE
8
BLACK
6
CONTINUOUS
10
-0.2106299212598425
20
1.0659448818897637
11
-0.2128898818897638
21
1.0663944094488189
0
LINE
8
BLACK
6
CONTINUOUS
10
-0.2128898818897638
20
1.0663944094488189
11
-0.214805748031496
21
1.0676745669291339
0
LINE
8
BLACK
6
CONTINUOUS
10
-0.214805748031496
20
1.0676745669291339
11
-0.216085905511811
21
1.0695904330708661
0
LINE
8
BLACK
6
CONTINUOUS
10
-0.216085905511811
20
1.0695904330708661
11
-0.2165354330708661
21
1.0718503937007873
0
LINE
8
BLACK
6
CONTINUOUS
10
-0.2165354330708661
20
1.0718503937007873
11
-0.2165354330708661
21
1.0836614173228347
0
LINE
8
BLACK
6
CONTINUOUS
10
-0.2165354330708661
20
1.0836614173228347
11
-0.216085905511811
21
1.0859213779527559
0
LINE
8
BLACK
6
CONTINUOUS
10
-0.216085905511811
20
1.0859213779527559
11
-0.214805748031496
21
1.0878372440944881
0
LINE
8
BLACK
6
CONTINUOUS
10
-0.214805748031496
20
1.0878372440944881
11
-0.2128898818897638
21
1.0891174015748031
0
LINE
8
BLACK
6
CONTINUOUS
10
-0.2128898818897638
20
1.0891174015748031
11
-0.2106299212598425
21
1.0895669291338583
0
LINE
8
BLACK
6
CONTINUOUS
10
-0.2106299212598425
20
1.0895669291338583
11
-0.155511811023622
21
1.0895669291338583
0
LINE
8
BLACK
6
CONTINUOUS
10
-0.155511811023622
20
1.0895669291338583
11
-0.1532518503937008
21
1.0891174015748031
0
LINE
8
BLACK
6
CONTINUOUS
10
-0.1532518503937008
20
1.1383300000000001
11
-0.1513359842519685
21
1.1370498425196851
0
LINE
8
BLACK
6
CONTINUOUS
10
-0.1513359842519685
20
1.1370498425196851
11
-0.1500558267716535
21
1.1351339763779527
0
LINE
8
BLACK
6
CONTINUOUS
10
-0.1500558267716535
20
1.1351339763779527
11
-0.1496062992125984
21
1.1328740157480315
0
LINE
8
BLACK
6
CONTINUOUS
10
-0.1496062992125984
20
1.1328740157480315
11
-0.1496062992125984
21
1.1210629921259843
0
LINE
8
BLACK
6
CONTINUOUS
10
-0.1496062992125984
20
1.1210629921259843
11
-0.1500558267716535
21
1.1188030314960629
0
LINE
8
BLACK
6
CONTINUOUS
10
-0.1500558267716535
20
1.1188030314960629
11
-0.1513359842519685
21
1.1168871653543306
0
LINE
8
BLACK
6
CONTINUOUS
10
-0.1513359842519685
20
1.1168871653543306
11
-0.1532518503937008
21
1.1156070078740157
0
LINE
8
BLACK
6
CONTINUOUS
10
-0.1532518503937008
20
1.1156070078740157
11
-0.155511811023622
21
1.1151574803149606
0
LINE
8
BLACK
6
CONTINUOUS
10
-0.155511811023622
20
1.1151574803149606
11
-0.2106299212598425
21
1.1151574803149606
0
LINE
8
BLACK
6
CONTINUOUS
10
-0.2106299212598425
20
1.1151574803149606
11
-0.2128898818897638
21
1.1156070078740157
0
LINE
8
BLACK
6
CONTINUOUS
10
-0.2128898818897638
20
1.1156070078740157
11
-0.214805748031496
21
1.1168871653543306
0
LINE
8
BLACK
6
CONTINUOUS
10
-0.214805748031496
20
1.1168871653543306
11
-0.216085905511811
21
1.1188030314960629
0
LINE
8
BLACK
6
CONTINUOUS
10
-0.216085905511811
20
1.1188030314960629
11
-0.2165354330708661
21
1.1210629921259843
0
LINE
8
BLACK
6
CONTINUOUS
10
-0.2165354330708661
20
1.1210629921259843
11
-0.2165354330708661
21
1.1328740157480315
0
LINE
8
BLACK
6
CONTINUOUS
10
-0.2165354330708661
20
1.1328740157480315
11
-0.216085905511811
21
1.1351339763779527
0
LINE
8
BLACK
6
CONTINUOUS
10
-0.216085905511811
20
1.1351339763779527
11
-0.214805748031496
21
1.1370498425196851
0
LINE
8
BLACK
6
CONTINUOUS
10
-0.214805748031496
20
1.1370498425196851
11
-0.2128898818897638
21
1.1383300000000001
0
LINE
8
BLACK
6
CONTINUOUS
10
-0.2128898818897638
20
1.1383300000000001
11
-0.2106299212598425
21
1.1387795275590551
0
LINE
8
BLACK
6
CONTINUOUS
10
-0.2106299212598425
20
1.1387795275590551
11
-0.155511811023622
21
1.1387795275590551
0
LINE
8
BLACK
6
CONTINUOUS
10
-0.155511811023622
20
1.1387795275590551
11
-0.1532518503937008
21
1.1383300000000001
0
LINE
8
BLACK
6
CONTINUOUS
10
-0.2619814566929134
20
1.2187389763779528
11
-0.2587883070866142
21
1.2166053937007875
0
LINE
8
BLACK
6
CONTINUOUS
10
-0.2587883070866142
20
1.2166053937007875
11
-0.2566547244094488
21
1.2134122440944881
0
LINE
8
BLACK
6
CONTINUOUS
10
-0.2566547244094488
20
1.2134122440944881
11
-0.2559055118110236
21
1.2096456692913387
0
LINE
8
BLACK
6
CONTINUOUS
10
-0.2559055118110236
20
1.2096456692913387
11
-0.2559055118110236
21
1.1899606299212597
0
LINE
8
BLACK
6
CONTINUOUS
10
-0.2559055118110236
20
1.1899606299212597
11
-0.2566547244094488
21
1.1861940551181103
0
LINE
8
BLACK
6
CONTINUOUS
10
-0.2566547244094488
20
1.1861940551181103
11
-0.2587883070866142
21
1.1830009055118109
0
LINE
8
BLACK
6
CONTINUOUS
10
-0.2587883070866142
20
1.1830009055118109
11
-0.2619814566929134
21
1.1808673228346456
0
LINE
8
BLACK
6
CONTINUOUS
10
-0.2619814566929134
20
1.1808673228346456
11
-0.265748031496063
21
1.1801181102362204
0
LINE
8
BLACK
6
CONTINUOUS
10
-0.265748031496063
20
1.1801181102362204
11
-0.3523622047244094
21
1.1801181102362204
0
LINE
8
BLACK
6
CONTINUOUS
10
-0.3523622047244094
20
1.1801181102362204
11
-0.3561287795275591
21
1.1808673228346456
0
LINE
8
BLACK
6
CONTINUOUS
10
-0.3561287795275591
20
1.1808673228346456
11
-0.3593219291338582
21
1.1830009055118109
0
LINE
8
BLACK
6
CONTINUOUS
10
-0.3593219291338582
20
1.1830009055118109
11
-0.3614555118110236
21
1.1861940551181103
0
LINE
8
BLACK
6
CONTINUOUS
10
-0.3614555118110236
20
1.1861940551181103
11
-0.3622047244094488
21
1.1899606299212597
0
LINE
8
BLACK
6
CONTINUOUS
10
-0.3622047244094488
20
1.1899606299212597
11
-0.3622047244094488
21
1.2096456692913387
0
LINE
8
BLACK
6
CONTINUOUS
10
-0.3622047244094488
20
1.2096456692913387
11
-0.3614555118110236
21
1.2134122440944881
0
LINE
8
BLACK
6
CONTINUOUS
10
-0.3614555118110236
20
1.2134122440944881
11
-0.3593219291338582
21
1.2166053937007875
0
LINE
8
BLACK
6
CONTINUOUS
10
-0.3593219291338582
20
1.2166053937007875
11
-0.3561287795275591
21
1.2187389763779528
0
LINE
8
BLACK
6
CONTINUOUS
10
-0.3561287795275591
20
1.2187389763779528
11
-0.3523622047244094
21
1.219488188976378
0
LINE
8
BLACK
6
CONTINUOUS
10
-0.3523622047244094
20
1.219488188976378
11
-0.265748031496063
21
1.219488188976378
0
LINE
8
BLACK
6
CONTINUOUS
10
-0.265748031496063
20
1.219488188976378
11
-0.2619814566929134
21
1.2187389763779528
0
LINE
8
BLACK
6
CONTINUOUS
10
-0.2385841732283465
20
1.3861554724409448
11
-0.235790157480315
21
1.3842885826771654
0
LINE
8
BLACK
6
CONTINUOUS
10
-0.235790157480315
20
1.3842885826771654
11
-0.2339232677165354
21
1.3814945669291339
0
LINE
8
BLACK
6
CONTINUOUS
10
-0.2339232677165354
20
1.3814945669291339
11
-0.2332677165354331
21
1.3781988188976377
0
LINE
8
BLACK
6
CONTINUOUS
10
-0.2332677165354331
20
1.3781988188976377
11
-0.2332677165354331
21
1.358021653543307
0
LINE
8
BLACK
6
CONTINUOUS
10
-0.2332677165354331
20
1.358021653543307
11
-0.2339232677165354
21
1.354725905511811
0
LINE
8
BLACK
6
CONTINUOUS
10
-0.2339232677165354
20
1.354725905511811
11
-0.235790157480315
21
1.3519318897637795
0
LINE
8
BLACK
6
CONTINUOUS
10
-0.235790157480315
20
1.3519318897637795
11
-0.2385841732283465
21
1.3500650000000001
0
LINE
8
BLACK
6
CONTINUOUS
10
-0.2385841732283465
20
1.3500650000000001
11
-0.2418799212598425
21
1.3494094488188977
0
LINE
8
BLACK
6
CONTINUOUS
10
-0.2418799212598425
20
1.3494094488188977
11
-0.2591043307086614
21
1.3494094488188977
0
LINE
8
BLACK
6
CONTINUOUS
10
-0.2591043307086614
20
1.3494094488188977
11
-0.2624000787401575
21
1.3500650000000001
0
LINE
8
BLACK
6
CONTINUOUS
10
-0.2624000787401575
20
1.3500650000000001
11
-0.265194094488189
21
1.3519318897637795
0
LINE
8
BLACK
6
CONTINUOUS
10
-0.265194094488189
20
1.3519318897637795
11
-0.2670609842519685
21
1.354725905511811
0
LINE
8
BLACK
6
CONTINUOUS
10
-0.2670609842519685
20
1.354725905511811
11
-0.2677165354330708
21
1.358021653543307
0
LINE
8
BLACK
6
CONTINUOUS
10
-0.2677165354330708
20
1.358021653543307
11
-0.2677165354330708
21
1.3781988188976377
0
LINE
8
BLACK
6
CONTINUOUS
10
-0.2677165354330708
20
1.3781988188976377
11
-0.2670609842519685
21
1.3814945669291339
0
LINE
8
BLACK
6
CONTINUOUS
10
-0.2670609842519685
20
1.3814945669291339
11
-0.265194094488189
21
1.3842885826771654
0
LINE
8
BLACK
6
CONTINUOUS
10
-0.265194094488189
20
1.3842885826771654
11
-0.2624000787401575
21
1.3861554724409448
0
LINE
8
BLACK
6
CONTINUOUS
10
-0.2624000787401575
20
1.3861554724409448
11
-0.2591043307086614
21
1.3868110236220472
0
LINE
8
BLACK
6
CONTINUOUS
10
-0.2591043307086614
20
1.3868110236220472
11
-0.2418799212598425
21
1.3868110236220472
0
LINE
8
BLACK
6
CONTINUOUS
10
-0.2418799212598425
20
1.3868110236220472
11
-0.2385841732283465
21
1.3861554724409448
0
LINE
8
BLACK
6
CONTINUOUS
10
-0.1765762992125984
20
1.3861554724409448
11
-0.1737822834645669
21
1.3842885826771654
0
LINE
8
BLACK
6
CONTINUOUS
10
-0.1737822834645669
20
1.3842885826771654
11
-0.1719153937007874
21
1.3814945669291339
0
LINE
8
BLACK
6
CONTINUOUS
10
-0.1719153937007874
20
1.3814945669291339
11
-0.171259842519685
21
1.3781988188976377
0
LINE
8
BLACK
6
CONTINUOUS
10
-0.171259842519685
20
1.3781988188976377
11
-0.171259842519685
21
1.358021653543307
0
LINE
8
BLACK
6
CONTINUOUS
10
-0.171259842519685
20
1.358021653543307
11
-0.1719153937007874
21
1.354725905511811
0
LINE
8
BLACK
6
CONTINUOUS
10
-0.1719153937007874
20
1.354725905511811
11
-0.1737822834645669
21
1.3519318897637795
0
LINE
8
BLACK
6
CONTINUOUS
10
-0.1737822834645669
20
1.3519318897637795
11
-0.1765762992125984
21
1.3500650000000001
0
LINE
8
BLACK
6
CONTINUOUS
10
-0.1765762992125984
20
1.3500650000000001
11
-0.1798720472440945
21
1.3494094488188977
0
LINE
8
BLACK
6
CONTINUOUS
10
-0.1798720472440945
20
1.3494094488188977
11
-0.1970964566929134
21
1.3494094488188977
0
LINE
8
BLACK
6
CONTINUOUS
10
-0.1970964566929134
20
1.3494094488188977
11
-0.2003922047244094
21
1.3500650000000001
0
LINE
8
BLACK
6
CONTINUOUS
10
-0.2003922047244094
20
1.3500650000000001
11
-0.2031862204724409
21
1.3519318897637795
0
LINE
8
BLACK
6
CONTINUOUS
10
-0.2031862204724409
20
1.3519318897637795
11
-0.2050531102362205
21
1.354725905511811
0
LINE
8
BLACK
6
CONTINUOUS
10
-0.2050531102362205
20
1.354725905511811
11
-0.2057086614173228
21
1.358021653543307
0
LINE
8
BLACK
6
CONTINUOUS
10
-0.2057086614173228
20
1.358021653543307
11
-0.2057086614173228
21
1.3781988188976377
0
LINE
8
BLACK
6
CONTINUOUS
10
-0.2057086614173228
20
1.3781988188976377
11
-0.2050531102362205
21
1.3814945669291339
0
LINE
8
BLACK
6
CONTINUOUS
10
-0.2050531102362205
20
1.3814945669291339
11
-0.2031862204724409
21
1.3842885826771654
0
LINE
8
BLACK
6
CONTINUOUS
10
-0.2031862204724409
20
1.3842885826771654
11
-0.2003922047244094
21
1.3861554724409448
0
LINE
8
BLACK
6
CONTINUOUS
10
-0.2003922047244094
20
1.3861554724409448
11
-0.1970964566929134
21
1.3868110236220472
0
LINE
8
BLACK
6
CONTINUOUS
10
-0.1970964566929134
20
1.3868110236220472
11
-0.1798720472440945
21
1.3868110236220472
0
LINE
8
BLACK
6
CONTINUOUS
10
-0.1798720472440945
20
1.3868110236220472
11
-0.1765762992125984
21
1.3861554724409448
0
LINE
8
BLACK
6
CONTINUOUS
10
-0.2385841732283465
20
1.4849743700787401
11
-0.235790157480315
21
1.4831074803149606
0
LINE
8
BLACK
6
CONTINUOUS
10
-0.235790157480315
20
1.4831074803149606
11
-0.2339232677165354
21
1.4803134645669291
0
LINE
8
BLACK
6
CONTINUOUS
10
-0.2339232677165354
20
1.4803134645669291
11
-0.2332677165354331
21
1.477017716535433
0
LINE
8
BLACK
6
CONTINUOUS
10
-0.2332677165354331
20
1.477017716535433
11
-0.2332677165354331
21
1.4568405511811022
0
LINE
8
BLACK
6
CONTINUOUS
10
-0.2332677165354331
20
1.4568405511811022
11
-0.2339232677165354
21
1.4535448031496063
0
LINE
8
BLACK
6
CONTINUOUS
10
-0.2339232677165354
20
1.4535448031496063
11
-0.235790157480315
21
1.4507507874015748
0
LINE
8
BLACK
6
CONTINUOUS
10
-0.235790157480315
20
1.4507507874015748
11
-0.2385841732283465
21
1.4488838976377953
0
LINE
8
BLACK
6
CONTINUOUS
10
-0.2385841732283465
20
1.4488838976377953
11
-0.2418799212598425
21
1.448228346456693
0
LINE
8
BLACK
6
CONTINUOUS
10
-0.2418799212598425
20
1.448228346456693
11
-0.2591043307086614
21
1.448228346456693
0
LINE
8
BLACK
6
CONTINUOUS
10
-0.2591043307086614
20
1.448228346456693
11
-0.2624000787401575
21
1.4488838976377953
0
LINE
8
BLACK
6
CONTINUOUS
10
-0.2624000787401575
20
1.4488838976377953
11
-0.265194094488189
21
1.4507507874015748
0
LINE
8
BLACK
6
CONTINUOUS
10
-0.265194094488189
20
1.4507507874015748
11
-0.2670609842519685
21
1.4535448031496063
0
LINE
8
BLACK
6
CONTINUOUS
10
-0.2670609842519685
20
1.4535448031496063
11
-0.2677165354330708
21
1.4568405511811022
0
LINE
8
BLACK
6
CONTINUOUS
10
-0.2677165354330708
20
1.4568405511811022
11
-0.2677165354330708
21
1.477017716535433
0
LINE
8
BLACK
6
CONTINUOUS
10
-0.2677165354330708
20
1.477017716535433
11
-0.2670609842519685
21
1.4803134645669291
0
LINE
8
BLACK
6
CONTINUOUS
10
-0.2670609842519685
20
1.4803134645669291
11
-0.265194094488189
21
1.4831074803149606
0
LINE
8
BLACK
6
CONTINUOUS
10
-0.265194094488189
20
1.4831074803149606
11
-0.2624000787401575
21
1.4849743700787401
0
LINE
8
BLACK
6
CONTINUOUS
10
-0.2624000787401575
20
1.4849743700787401
11
-0.2591043307086614
21
1.4856299212598425
0
LINE
8
BLACK
6
CONTINUOUS
10
-0.2591043307086614
20
1.4856299212598425
11
-0.2418799212598425
21
1.4856299212598425
0
LINE
8
BLACK
6
CONTINUOUS
10
-0.2418799212598425
20
1.4856299212598425
11
-0.2385841732283465
21
1.4849743700787401
0
LINE
8
BLACK
6
CONTINUOUS
10
-0.1765762992125984
20
1.4849743700787401
11
-0.1737822834645669
21
1.4831074803149606
0
LINE
8
BLACK
6
CONTINUOUS
10
-0.1737822834645669
20
1.4831074803149606
11
-0.1719153937007874
21
1.4803134645669291
0
LINE
8
BLACK
6
CONTINUOUS
10
-0.1719153937007874
20
1.4803134645669291
11
-0.171259842519685
21
1.477017716535433
0
LINE
8
BLACK
6
CONTINUOUS
10
-0.171259842519685
20
1.477017716535433
11
-0.171259842519685
21
1.4568405511811022
0
LINE
8
BLACK
6
CONTINUOUS
10
-0.171259842519685
20
1.4568405511811022
11
-0.1719153937007874
21
1.4535448031496063
0
LINE
8
BLACK
6
CONTINUOUS
10
-0.1719153937007874
20
1.4535448031496063
11
-0.1737822834645669
21
1.4507507874015748
0
LINE
8
BLACK
6
CONTINUOUS
10
-0.1737822834645669
20
1.4507507874015748
11
-0.1765762992125984
21
1.4488838976377953
0
LINE
8
BLACK
6
CONTINUOUS
10
-0.1765762992125984
20
1.4488838976377953
11
-0.1798720472440945
21
1.448228346456693
0
LINE
8
BLACK
6
CONTINUOUS
10
-0.1798720472440945
20
1.448228346456693
11
-0.1970964566929134
21
1.448228346456693
0
LINE
8
BLACK
6
CONTINUOUS
10
-0.1970964566929134
20
1.448228346456693
11
-0.2003922047244094
21
1.4488838976377953
0
LINE
8
BLACK
6
CONTINUOUS
10
-0.2003922047244094
20
1.4488838976377953
11
-0.2031862204724409
21
1.4507507874015748
0
LINE
8
BLACK
6
CONTINUOUS
10
-0.2031862204724409
20
1.4507507874015748
11
-0.2050531102362205
21
1.4535448031496063
0
LINE
8
BLACK
6
CONTINUOUS
10
-0.2050531102362205
20
1.4535448031496063
11
-0.2057086614173228
21
1.4568405511811022
0
LINE
8
BLACK
6
CONTINUOUS
10
-0.2057086614173228
20
1.4568405511811022
11
-0.2057086614173228
21
1.477017716535433
0
LINE
8
BLACK
6
CONTINUOUS
10
-0.2057086614173228
20
1.477017716535433
11
-0.2050531102362205
21
1.4803134645669291
0
LINE
8
BLACK
6
CONTINUOUS
10
-0.2050531102362205
20
1.4803134645669291
11
-0.2031862204724409
21
1.4831074803149606
0
LINE
8
BLACK
6
CONTINUOUS
10
-0.2031862204724409
20
1.4831074803149606
11
-0.2003922047244094
21
1.4849743700787401
0
LINE
8
BLACK
6
CONTINUOUS
10
-0.2003922047244094
20
1.4849743700787401
11
-0.1970964566929134
21
1.4856299212598425
0
LINE
8
BLACK
6
CONTINUOUS
10
-0.1970964566929134
20
1.4856299212598425
11
-0.1798720472440945
21
1.4856299212598425
0
LINE
8
BLACK
6
CONTINUOUS
10
-0.1798720472440945
20
1.4856299212598425
11
-0.1765762992125984
21
1.4849743700787401
0
CIRCLE
8
BLACK
10
0.9547244094488189
20
0.7086614173228346
40
0.0068897637795276
0
CIRCLE
8
BLACK
10
0.9547244094488189
20
0.6086614173228346
40
0.0068897637795276
0
CIRCLE
8
BLACK
10
0.9547244094488189
20
0.5086614173228347
40
0.0068897637795276
0
CIRCLE
8
BLACK
10
0.9547244094488189
20
0.4086614173228346
40
0.0068897637795276
0
CIRCLE
8
BLACK
10
0.9547244094488189
20
0.3086614173228346
40
0.0068897637795276
  0
ENDSEC
  0
EOF
