  0
SECTION
  2
HEADER
  9
$ANGBASE
  50
0.0
  9
$ANGDIR
  70
1
  9
$MEASUREMENT
  70
0
  0
ENDSEC
  0
SECTION
  2
TABLES
  0
TABLE
  2
LTYPE
  70
4
  0
LTYPE
  5
40F
  2
CONTINUOUS
  70
0
  3
Solid line
  72
65
  73
0
  40
0.0
  0
LTYPE
  5
410
  2
DASHDOT
 70
0
  3
Dash Dot ____ _ ____ _
 72
65
 73
4
 40
2.0
 49
1.25
 49
-0.25
 49
0.25
 49
-0.25
  0
LTYPE
  5
411
  2
DASHED
 70
0
  3
Dashed __ __ __ __ __
 72
65
 73
2
 40
0.75
 49
0.5
 49
-0.25
  0
LTYPE
  5
43B
  2
DOTTED
 70
0
  3
Dotted .  .  .  .
 72
65
 73
2
 40
0.2
 49
0.0
 49
-0.2
  0
ENDTAB
  0
TABLE
  2
STYLE
  70
4
  0
STYLE
  2
KICAD
  70
0
  40
0
  41
1
  42
1
  50
0
  71
0
  3
isocp.shx
  0
STYLE
  2
KICADB
  70
0
  40
0
  41
1
  42
1
  50
0
  71
0
  3
isocp.shx
  0
STYLE
  2
KICADI
  70
0
  40
0
  41
1
  42
1
  50
15
  71
0
  3
isocp.shx
  0
STYLE
  2
KICADBI
  70
0
  40
0
  41
1
  42
1
  50
15
  71
0
  3
isocp.shx
  0
ENDTAB
  0
TABLE
  2
LAYER
  70
1
  0
LAYER
  2
BLACK
  70
0
  62
7
  6
CONTINUOUS
  0
ENDTAB
  0
ENDSEC
  0
SECTION
  2
ENTITIES
0
LINE
8
BLACK
6
CONTINUOUS
10
-1.9089857086614173
20
-0.883592874015748
11
-1.908171062992126
21
-0.8844075196850394
0
LINE
8
BLACK
6
CONTINUOUS
10
-1.908171062992126
20
-0.8844075196850394
11
-1.9077301574803149
21
-0.8854719291338582
0
LINE
8
BLACK
6
CONTINUOUS
10
-1.9077301574803149
20
-0.8854719291338582
11
-1.9076734251968503
21
-0.8860479921259843
0
LINE
8
BLACK
6
CONTINUOUS
10
-1.9076734251968503
20
-0.8860479921259843
11
-1.9076734251968503
21
-0.9014165748031496
0
LINE
8
BLACK
6
CONTINUOUS
10
-1.9076734251968503
20
-0.9014165748031496
11
-1.8902169291338582
21
-0.8839600787401575
0
LINE
8
BLACK
6
CONTINUOUS
10
-1.8902169291338582
20
-0.8839600787401575
11
-1.8897694881889764
21
-0.883592874015748
0
LINE
8
BLACK
6
CONTINUOUS
10
-1.8897694881889764
20
-0.883592874015748
11
-1.8887050787401574
21
-0.883151968503937
0
LINE
8
BLACK
6
CONTINUOUS
10
-1.8887050787401574
20
-0.883151968503937
11
-1.8875529921259842
21
-0.883151968503937
0
LINE
8
BLACK
6
CONTINUOUS
10
-1.8875529921259842
20
-0.883151968503937
11
-1.8864885433070866
21
-0.883592874015748
0
LINE
8
BLACK
6
CONTINUOUS
10
-1.8864885433070866
20
-0.883592874015748
11
-1.8856738976377951
21
-0.8844075196850394
0
LINE
8
BLACK
6
CONTINUOUS
10
-1.8856738976377951
20
-0.8844075196850394
11
-1.8852329921259843
21
-0.8854719685039369
0
LINE
8
BLACK
6
CONTINUOUS
10
-1.8852329921259843
20
-0.8854719685039369
11
-1.8852329921259843
21
-0.8866240551181103
0
LINE
8
BLACK
6
CONTINUOUS
10
-1.8852329921259843
20
-0.8866240551181103
11
-1.8856738976377951
21
-0.8876884645669291
0
LINE
8
BLACK
6
CONTINUOUS
10
-1.8856738976377951
20
-0.8876884645669291
11
-1.8860411023622048
21
-0.888135905511811
0
LINE
8
BLACK
6
CONTINUOUS
10
-1.8860411023622048
20
-0.888135905511811
11
-1.9011031496062991
21
-0.9031979133858268
0
LINE
8
BLACK
6
CONTINUOUS
10
-1.9011031496062991
20
-0.9031979133858268
11
-1.8857668110236221
21
-0.9236464173228346
0
LINE
8
BLACK
6
CONTINUOUS
10
-1.8857668110236221
20
-0.9236464173228346
11
-1.8854665354330709
21
-0.9241412992125984
0
LINE
8
BLACK
6
CONTINUOUS
10
-1.8854665354330709
20
-0.9241412992125984
11
-1.8851806299212599
21
-0.9252574015748031
0
LINE
8
BLACK
6
CONTINUOUS
10
-1.8851806299212599
20
-0.9252574015748031
11
-1.8853435826771654
21
-0.926397874015748
0
LINE
8
BLACK
6
CONTINUOUS
10
-1.8853435826771654
20
-0.926397874015748
11
-1.8859305511811024
21
-0.927389251968504
0
LINE
8
BLACK
6
CONTINUOUS
10
-1.8859305511811024
20
-0.927389251968504
11
-1.8868522440944882
21
-0.9280805511811023
0
LINE
8
BLACK
6
CONTINUOUS
10
-1.8868522440944882
20
-0.9280805511811023
11
-1.8879683070866142
21
-0.9283664566929134
0
LINE
8
BLACK
6
CONTINUOUS
10
-1.8879683070866142
20
-0.9283664566929134
11
-1.8891088188976377
21
-0.9282035433070865
0
LINE
8
BLACK
6
CONTINUOUS
10
-1.8891088188976377
20
-0.9282035433070865
11
-1.8901001968503937
21
-0.9276165354330709
0
LINE
8
BLACK
6
CONTINUOUS
10
-1.8901001968503937
20
-0.9276165354330709
11
-1.8904912204724409
21
-0.9271897244094488
0
LINE
8
BLACK
6
CONTINUOUS
10
-1.8904912204724409
20
-0.9271897244094488
11
-1.9053213779527558
21
-0.9074161417322835
0
LINE
8
BLACK
6
CONTINUOUS
10
-1.9053213779527558
20
-0.9074161417322835
11
-1.9076734251968503
21
-0.9097682283464567
0
LINE
8
BLACK
6
CONTINUOUS
10
-1.9076734251968503
20
-0.9097682283464567
11
-1.9076734251968503
21
-0.9254180708661417
0
LINE
8
BLACK
6
CONTINUOUS
10
-1.9076734251968503
20
-0.9254180708661417
11
-1.9077301574803149
21
-0.9259941338582677
0
LINE
8
BLACK
6
CONTINUOUS
10
-1.9077301574803149
20
-0.9259941338582677
11
-1.908171062992126
21
-0.9270585433070866
0
LINE
8
BLACK
6
CONTINUOUS
10
-1.908171062992126
20
-0.9270585433070866
11
-1.9089857086614173
21
-0.9278731889763779
0
LINE
8
BLACK
6
CONTINUOUS
10
-1.9089857086614173
20
-0.9278731889763779
11
-1.9100501181102363
21
-0.9283140944881889
0
LINE
8
BLACK
6
CONTINUOUS
10
-1.9100501181102363
20
-0.9283140944881889
11
-1.9112022440944882
21
-0.9283140944881889
0
LINE
8
BLACK
6
CONTINUOUS
10
-1.9112022440944882
20
-0.9283140944881889
11
-1.912266653543307
21
-0.9278731889763779
0
LINE
8
BLACK
6
CONTINUOUS
10
-1.912266653543307
20
-0.9278731889763779
11
-1.9130812992125983
21
-0.9270585433070866
0
LINE
8
BLACK
6
CONTINUOUS
10
-1.9130812992125983
20
-0.9270585433070866
11
-1.9135222047244094
21
-0.9259941338582677
0
LINE
8
BLACK
6
CONTINUOUS
10
-1.9135222047244094
20
-0.9259941338582677
11
-1.913578937007874
21
-0.9254180708661417
0
LINE
8
BLACK
6
CONTINUOUS
10
-1.913578937007874
20
-0.9254180708661417
11
-1.913578937007874
21
-0.8860479921259843
0
LINE
8
BLACK
6
CONTINUOUS
10
-1.913578937007874
20
-0.8860479921259843
11
-1.9135222047244094
21
-0.8854719291338582
0
LINE
8
BLACK
6
CONTINUOUS
10
-1.9135222047244094
20
-0.8854719291338582
11
-1.9130812992125983
21
-0.8844075196850394
0
LINE
8
BLACK
6
CONTINUOUS
10
-1.9130812992125983
20
-0.8844075196850394
11
-1.912266653543307
21
-0.883592874015748
0
LINE
8
BLACK
6
CONTINUOUS
10
-1.912266653543307
20
-0.883592874015748
11
-1.9112022440944882
21
-0.883151968503937
0
LINE
8
BLACK
6
CONTINUOUS
10
-1.9112022440944882
20
-0.883151968503937
11
-1.9100501181102363
21
-0.883151968503937
0
LINE
8
BLACK
6
CONTINUOUS
10
-1.9100501181102363
20
-0.883151968503937
11
-1.9089857086614173
21
-0.883592874015748
0
LINE
8
BLACK
6
CONTINUOUS
10
0.445345
20
-0.8245377559055118
11
0.4461596456692913
21
-0.8253524015748032
0
LINE
8
BLACK
6
CONTINUOUS
10
0.4461596456692913
20
-0.8253524015748032
11
0.4466005511811024
21
-0.8264168110236221
0
LINE
8
BLACK
6
CONTINUOUS
10
0.4466005511811024
20
-0.8264168110236221
11
0.4466572834645669
21
-0.8269928740157481
0
LINE
8
BLACK
6
CONTINUOUS
10
0.4466572834645669
20
-0.8269928740157481
11
0.4466572834645669
21
-0.8423614566929134
0
LINE
8
BLACK
6
CONTINUOUS
10
0.4466572834645669
20
-0.8423614566929134
11
0.4641137795275591
21
-0.8249049606299212
0
LINE
8
BLACK
6
CONTINUOUS
10
0.4641137795275591
20
-0.8249049606299212
11
0.4645612204724409
21
-0.8245377559055118
0
LINE
8
BLACK
6
CONTINUOUS
10
0.4645612204724409
20
-0.8245377559055118
11
0.4656256299212598
21
-0.8240968503937007
0
LINE
8
BLACK
6
CONTINUOUS
10
0.4656256299212598
20
-0.8240968503937007
11
0.466777716535433
21
-0.8240968503937007
0
LINE
8
BLACK
6
CONTINUOUS
10
0.466777716535433
20
-0.8240968503937007
11
0.4678421653543307
21
-0.8245377559055118
0
LINE
8
BLACK
6
CONTINUOUS
10
0.4678421653543307
20
-0.8245377559055118
11
0.4686568110236221
21
-0.8253524015748032
0
LINE
8
BLACK
6
CONTINUOUS
10
0.4686568110236221
20
-0.8253524015748032
11
0.4690977165354331
21
-0.8264168503937007
0
LINE
8
BLACK
6
CONTINUOUS
10
0.4690977165354331
20
-0.8264168503937007
11
0.4690977165354331
21
-0.827568937007874
0
LINE
8
BLACK
6
CONTINUOUS
10
0.4690977165354331
20
-0.827568937007874
11
0.4686568110236221
21
-0.8286333464566928
0
LINE
8
BLACK
6
CONTINUOUS
10
0.4686568110236221
20
-0.8286333464566928
11
0.4682896062992126
21
-0.8290807874015748
0
LINE
8
BLACK
6
CONTINUOUS
10
0.4682896062992126
20
-0.8290807874015748
11
0.4532275590551181
21
-0.8441427952755906
0
LINE
8
BLACK
6
CONTINUOUS
10
0.4532275590551181
20
-0.8441427952755906
11
0.4685638976377953
21
-0.8645912992125984
0
LINE
8
BLACK
6
CONTINUOUS
10
0.4685638976377953
20
-0.8645912992125984
11
0.4688641732283464
21
-0.8650861811023622
0
LINE
8
BLACK
6
CONTINUOUS
10
0.4688641732283464
20
-0.8650861811023622
11
0.4691500787401575
21
-0.866202283464567
0
LINE
8
BLACK
6
CONTINUOUS
10
0.4691500787401575
20
-0.866202283464567
11
0.468987125984252
21
-0.8673427559055118
0
LINE
8
BLACK
6
CONTINUOUS
10
0.468987125984252
20
-0.8673427559055118
11
0.4684001574803149
21
-0.8683341338582677
0
LINE
8
BLACK
6
CONTINUOUS
10
0.4684001574803149
20
-0.8683341338582677
11
0.4674784645669291
21
-0.8690254330708661
0
LINE
8
BLACK
6
CONTINUOUS
10
0.4674784645669291
20
-0.8690254330708661
11
0.4663624015748031
21
-0.8693113385826772
0
LINE
8
BLACK
6
CONTINUOUS
10
0.4663624015748031
20
-0.8693113385826772
11
0.4652218897637795
21
-0.8691484251968504
0
LINE
8
BLACK
6
CONTINUOUS
10
0.4652218897637795
20
-0.8691484251968504
11
0.4642305118110236
21
-0.8685614173228347
0
LINE
8
BLACK
6
CONTINUOUS
10
0.4642305118110236
20
-0.8685614173228347
11
0.4638394881889764
21
-0.8681346062992126
0
LINE
8
BLACK
6
CONTINUOUS
10
0.4638394881889764
20
-0.8681346062992126
11
0.4490093307086614
21
-0.8483610236220472
0
LINE
8
BLACK
6
CONTINUOUS
10
0.4490093307086614
20
-0.8483610236220472
11
0.4466572834645669
21
-0.8507131102362204
0
LINE
8
BLACK
6
CONTINUOUS
10
0.4466572834645669
20
-0.8507131102362204
11
0.4466572834645669
21
-0.8663629527559055
0
LINE
8
BLACK
6
CONTINUOUS
10
0.4466572834645669
20
-0.8663629527559055
11
0.4466005511811024
21
-0.8669390157480314
0
LINE
8
BLACK
6
CONTINUOUS
10
0.4466005511811024
20
-0.8669390157480314
11
0.4461596456692913
21
-0.8680034251968504
0
LINE
8
BLACK
6
CONTINUOUS
10
0.4461596456692913
20
-0.8680034251968504
11
0.445345
21
-0.8688180708661417
0
LINE
8
BLACK
6
CONTINUOUS
10
0.445345
20
-0.8688180708661417
11
0.4442805905511811
21
-0.8692589763779527
0
LINE
8
BLACK
6
CONTINUOUS
10
0.4442805905511811
20
-0.8692589763779527
11
0.4431284645669291
21
-0.8692589763779527
0
LINE
8
BLACK
6
CONTINUOUS
10
0.4431284645669291
20
-0.8692589763779527
11
0.4420640551181102
21
-0.8688180708661417
0
LINE
8
BLACK
6
CONTINUOUS
10
0.4420640551181102
20
-0.8688180708661417
11
0.4412494094488189
21
-0.8680034251968504
0
LINE
8
BLACK
6
CONTINUOUS
10
0.4412494094488189
20
-0.8680034251968504
11
0.4408085039370079
21
-0.8669390157480314
0
LINE
8
BLACK
6
CONTINUOUS
10
0.4408085039370079
20
-0.8669390157480314
11
0.4407517716535433
21
-0.8663629527559055
0
LINE
8
BLACK
6
CONTINUOUS
10
0.4407517716535433
20
-0.8663629527559055
11
0.4407517716535433
21
-0.8269928740157481
0
LINE
8
BLACK
6
CONTINUOUS
10
0.4407517716535433
20
-0.8269928740157481
11
0.4408085039370079
21
-0.8264168110236221
0
LINE
8
BLACK
6
CONTINUOUS
10
0.4408085039370079
20
-0.8264168110236221
11
0.4412494094488189
21
-0.8253524015748032
0
LINE
8
BLACK
6
CONTINUOUS
10
0.4412494094488189
20
-0.8253524015748032
11
0.4420640551181102
21
-0.8245377559055118
0
LINE
8
BLACK
6
CONTINUOUS
10
0.4420640551181102
20
-0.8245377559055118
11
0.4431284645669291
21
-0.8240968503937007
0
LINE
8
BLACK
6
CONTINUOUS
10
0.4431284645669291
20
-0.8240968503937007
11
0.4442805905511811
21
-0.8240968503937007
0
LINE
8
BLACK
6
CONTINUOUS
10
0.4442805905511811
20
-0.8240968503937007
11
0.445345
21
-0.8245377559055118
0
CIRCLE
8
BLACK
10
0.9547244094488189
20
0.7086614173228346
40
0.0068897637795276
0
CIRCLE
8
BLACK
10
0.9547244094488189
20
0.6086614173228346
40
0.0068897637795276
0
CIRCLE
8
BLACK
10
0.9547244094488189
20
0.5086614173228347
40
0.0068897637795276
0
CIRCLE
8
BLACK
10
0.9547244094488189
20
0.4086614173228346
40
0.0068897637795276
0
CIRCLE
8
BLACK
10
0.9547244094488189
20
0.3086614173228346
40
0.0068897637795276
  0
ENDSEC
  0
EOF
