  0
SECTION
  2
HEADER
  9
$ANGBASE
  50
0.0
  9
$ANGDIR
  70
1
  9
$MEASUREMENT
  70
0
  0
ENDSEC
  0
SECTION
  2
TABLES
  0
TABLE
  2
LTYPE
  70
4
  0
LTYPE
  5
40F
  2
CONTINUOUS
  70
0
  3
Solid line
  72
65
  73
0
  40
0.0
  0
LTYPE
  5
410
  2
DASHDOT
 70
0
  3
Dash Dot ____ _ ____ _
 72
65
 73
4
 40
2.0
 49
1.25
 49
-0.25
 49
0.25
 49
-0.25
  0
LTYPE
  5
411
  2
DASHED
 70
0
  3
Dashed __ __ __ __ __
 72
65
 73
2
 40
0.75
 49
0.5
 49
-0.25
  0
LTYPE
  5
43B
  2
DOTTED
 70
0
  3
Dotted .  .  .  .
 72
65
 73
2
 40
0.2
 49
0.0
 49
-0.2
  0
ENDTAB
  0
TABLE
  2
STYLE
  70
4
  0
STYLE
  2
KICAD
  70
0
  40
0
  41
1
  42
1
  50
0
  71
0
  3
isocp.shx
  0
STYLE
  2
KICADB
  70
0
  40
0
  41
1
  42
1
  50
0
  71
0
  3
isocp.shx
  0
STYLE
  2
KICADI
  70
0
  40
0
  41
1
  42
1
  50
15
  71
0
  3
isocp.shx
  0
STYLE
  2
KICADBI
  70
0
  40
0
  41
1
  42
1
  50
15
  71
0
  3
isocp.shx
  0
ENDTAB
  0
TABLE
  2
LAYER
  70
1
  0
LAYER
  2
BLACK
  70
0
  62
7
  6
CONTINUOUS
  0
ENDTAB
  0
ENDSEC
  0
SECTION
  2
ENTITIES
0
LINE
8
BLACK
6
CONTINUOUS
10
0.25
20
0.0945
11
0.215
21
0.0945
0
LINE
8
BLACK
6
CONTINUOUS
10
0.215
20
0.0945
11
0.215
21
0.1495
0
LINE
8
BLACK
6
CONTINUOUS
10
0.215
20
0.1495
11
0.25
21
0.1495
0
LINE
8
BLACK
6
CONTINUOUS
10
0.25
20
0.1495
11
0.25
21
0.0945
0
LINE
8
BLACK
6
CONTINUOUS
10
0.325
20
0.0945
11
0.29
21
0.0945
0
LINE
8
BLACK
6
CONTINUOUS
10
0.29
20
0.0945
11
0.29
21
0.1495
0
LINE
8
BLACK
6
CONTINUOUS
10
0.29
20
0.1495
11
0.325
21
0.1495
0
LINE
8
BLACK
6
CONTINUOUS
10
0.325
20
0.1495
11
0.325
21
0.0945
0
LINE
8
BLACK
6
CONTINUOUS
10
0.4289039763779527
20
0.1390452362204724
11
0.4316979921259843
21
0.1371783464566929
0
LINE
8
BLACK
6
CONTINUOUS
10
0.4316979921259843
20
0.1371783464566929
11
0.4335648818897638
21
0.1343843307086614
0
LINE
8
BLACK
6
CONTINUOUS
10
0.4335648818897638
20
0.1343843307086614
11
0.4342204330708661
21
0.1310885826771654
0
LINE
8
BLACK
6
CONTINUOUS
10
0.4342204330708661
20
0.1310885826771654
11
0.4342204330708661
21
0.1109114173228346
0
LINE
8
BLACK
6
CONTINUOUS
10
0.4342204330708661
20
0.1109114173228346
11
0.4335648818897638
21
0.1076156692913386
0
LINE
8
BLACK
6
CONTINUOUS
10
0.4335648818897638
20
0.1076156692913386
11
0.4316979921259843
21
0.1048216535433071
0
LINE
8
BLACK
6
CONTINUOUS
10
0.4316979921259843
20
0.1048216535433071
11
0.4289039763779527
21
0.1029547637795276
0
LINE
8
BLACK
6
CONTINUOUS
10
0.4289039763779527
20
0.1029547637795276
11
0.4256082283464567
21
0.1022992125984252
0
LINE
8
BLACK
6
CONTINUOUS
10
0.4256082283464567
20
0.1022992125984252
11
0.4083838188976378
21
0.1022992125984252
0
LINE
8
BLACK
6
CONTINUOUS
10
0.4083838188976378
20
0.1022992125984252
11
0.4050880708661417
21
0.1029547637795276
0
LINE
8
BLACK
6
CONTINUOUS
10
0.4050880708661417
20
0.1029547637795276
11
0.4022940551181102
21
0.1048216535433071
0
LINE
8
BLACK
6
CONTINUOUS
10
0.4022940551181102
20
0.1048216535433071
11
0.4004271653543307
21
0.1076156692913386
0
LINE
8
BLACK
6
CONTINUOUS
10
0.4004271653543307
20
0.1076156692913386
11
0.3997716141732283
21
0.1109114173228346
0
LINE
8
BLACK
6
CONTINUOUS
10
0.3997716141732283
20
0.1109114173228346
11
0.3997716141732283
21
0.1310885826771654
0
LINE
8
BLACK
6
CONTINUOUS
10
0.3997716141732283
20
0.1310885826771654
11
0.4004271653543307
21
0.1343843307086614
0
LINE
8
BLACK
6
CONTINUOUS
10
0.4004271653543307
20
0.1343843307086614
11
0.4022940551181102
21
0.1371783464566929
0
LINE
8
BLACK
6
CONTINUOUS
10
0.4022940551181102
20
0.1371783464566929
11
0.4050880708661417
21
0.1390452362204724
0
LINE
8
BLACK
6
CONTINUOUS
10
0.4050880708661417
20
0.1390452362204724
11
0.4083838188976378
21
0.1397007874015748
0
LINE
8
BLACK
6
CONTINUOUS
10
0.4083838188976378
20
0.1397007874015748
11
0.4256082283464567
21
0.1397007874015748
0
LINE
8
BLACK
6
CONTINUOUS
10
0.4256082283464567
20
0.1397007874015748
11
0.4289039763779527
21
0.1390452362204724
0
LINE
8
BLACK
6
CONTINUOUS
10
0.4909119291338583
20
0.1390452362204724
11
0.4937059448818897
21
0.1371783464566929
0
LINE
8
BLACK
6
CONTINUOUS
10
0.4937059448818897
20
0.1371783464566929
11
0.4955728346456693
21
0.1343843307086614
0
LINE
8
BLACK
6
CONTINUOUS
10
0.4955728346456693
20
0.1343843307086614
11
0.4962283858267716
21
0.1310885826771654
0
LINE
8
BLACK
6
CONTINUOUS
10
0.4962283858267716
20
0.1310885826771654
11
0.4962283858267716
21
0.1109114173228346
0
LINE
8
BLACK
6
CONTINUOUS
10
0.4962283858267716
20
0.1109114173228346
11
0.4955728346456693
21
0.1076156692913386
0
LINE
8
BLACK
6
CONTINUOUS
10
0.4955728346456693
20
0.1076156692913386
11
0.4937059448818897
21
0.1048216535433071
0
LINE
8
BLACK
6
CONTINUOUS
10
0.4937059448818897
20
0.1048216535433071
11
0.4909119291338583
21
0.1029547637795276
0
LINE
8
BLACK
6
CONTINUOUS
10
0.4909119291338583
20
0.1029547637795276
11
0.4876161811023622
21
0.1022992125984252
0
LINE
8
BLACK
6
CONTINUOUS
10
0.4876161811023622
20
0.1022992125984252
11
0.4703917716535433
21
0.1022992125984252
0
LINE
8
BLACK
6
CONTINUOUS
10
0.4703917716535433
20
0.1022992125984252
11
0.4670960236220472
21
0.1029547637795276
0
LINE
8
BLACK
6
CONTINUOUS
10
0.4670960236220472
20
0.1029547637795276
11
0.4643020078740157
21
0.1048216535433071
0
LINE
8
BLACK
6
CONTINUOUS
10
0.4643020078740157
20
0.1048216535433071
11
0.4624351181102362
21
0.1076156692913386
0
LINE
8
BLACK
6
CONTINUOUS
10
0.4624351181102362
20
0.1076156692913386
11
0.4617795669291339
21
0.1109114173228346
0
LINE
8
BLACK
6
CONTINUOUS
10
0.4617795669291339
20
0.1109114173228346
11
0.4617795669291339
21
0.1310885826771654
0
LINE
8
BLACK
6
CONTINUOUS
10
0.4617795669291339
20
0.1310885826771654
11
0.4624351181102362
21
0.1343843307086614
0
LINE
8
BLACK
6
CONTINUOUS
10
0.4624351181102362
20
0.1343843307086614
11
0.4643020078740157
21
0.1371783464566929
0
LINE
8
BLACK
6
CONTINUOUS
10
0.4643020078740157
20
0.1371783464566929
11
0.4670960236220472
21
0.1390452362204724
0
LINE
8
BLACK
6
CONTINUOUS
10
0.4670960236220472
20
0.1390452362204724
11
0.4703917716535433
21
0.1397007874015748
0
LINE
8
BLACK
6
CONTINUOUS
10
0.4703917716535433
20
0.1397007874015748
11
0.4876161811023622
21
0.1397007874015748
0
LINE
8
BLACK
6
CONTINUOUS
10
0.4876161811023622
20
0.1397007874015748
11
0.4909119291338583
21
0.1390452362204724
0
LINE
8
BLACK
6
CONTINUOUS
10
0.9706692913385827
20
0.1271653543307087
11
0.8718503937007874
21
0.1271653543307087
0
LINE
8
BLACK
6
CONTINUOUS
10
0.8718503937007874
20
0.1271653543307087
11
0.8718503937007874
21
0.1665354330708661
0
LINE
8
BLACK
6
CONTINUOUS
10
0.8718503937007874
20
0.1665354330708661
11
0.9706692913385827
21
0.1665354330708661
0
LINE
8
BLACK
6
CONTINUOUS
10
0.9706692913385827
20
0.1665354330708661
11
0.9706692913385827
21
0.1271653543307087
0
LINE
8
BLACK
6
CONTINUOUS
10
0.1110500393700787
20
0.167557874015748
11
0.1142431889763779
21
0.1654242913385827
0
LINE
8
BLACK
6
CONTINUOUS
10
0.1142431889763779
20
0.1654242913385827
11
0.1163767716535433
21
0.1622311417322835
0
LINE
8
BLACK
6
CONTINUOUS
10
0.1163767716535433
20
0.1622311417322835
11
0.1171259842519685
21
0.1584645669291339
0
LINE
8
BLACK
6
CONTINUOUS
10
0.1171259842519685
20
0.1584645669291339
11
0.1171259842519685
21
0.1387795275590551
0
LINE
8
BLACK
6
CONTINUOUS
10
0.1171259842519685
20
0.1387795275590551
11
0.1163767716535433
21
0.1350129527559055
0
LINE
8
BLACK
6
CONTINUOUS
10
0.1163767716535433
20
0.1350129527559055
11
0.1142431889763779
21
0.1318198031496063
0
LINE
8
BLACK
6
CONTINUOUS
10
0.1142431889763779
20
0.1318198031496063
11
0.1110500393700787
21
0.1296862204724409
0
LINE
8
BLACK
6
CONTINUOUS
10
0.1110500393700787
20
0.1296862204724409
11
0.1072834645669291
21
0.1289370078740157
0
LINE
8
BLACK
6
CONTINUOUS
10
0.1072834645669291
20
0.1289370078740157
11
0.0206692913385827
21
0.1289370078740157
0
LINE
8
BLACK
6
CONTINUOUS
10
0.0206692913385827
20
0.1289370078740157
11
0.0169027165354331
21
0.1296862204724409
0
LINE
8
BLACK
6
CONTINUOUS
10
0.0169027165354331
20
0.1296862204724409
11
0.0137095669291339
21
0.1318198031496063
0
LINE
8
BLACK
6
CONTINUOUS
10
0.0137095669291339
20
0.1318198031496063
11
0.0115759842519685
21
0.1350129527559055
0
LINE
8
BLACK
6
CONTINUOUS
10
0.0115759842519685
20
0.1350129527559055
11
0.0108267716535433
21
0.1387795275590551
0
LINE
8
BLACK
6
CONTINUOUS
10
0.0108267716535433
20
0.1387795275590551
11
0.0108267716535433
21
0.1584645669291339
0
LINE
8
BLACK
6
CONTINUOUS
10
0.0108267716535433
20
0.1584645669291339
11
0.0115759842519685
21
0.1622311417322835
0
LINE
8
BLACK
6
CONTINUOUS
10
0.0115759842519685
20
0.1622311417322835
11
0.0137095669291339
21
0.1654242913385827
0
LINE
8
BLACK
6
CONTINUOUS
10
0.0137095669291339
20
0.1654242913385827
11
0.0169027165354331
21
0.167557874015748
0
LINE
8
BLACK
6
CONTINUOUS
10
0.0169027165354331
20
0.167557874015748
11
0.0206692913385827
21
0.1683070866141732
0
LINE
8
BLACK
6
CONTINUOUS
10
0.0206692913385827
20
0.1683070866141732
11
0.1072834645669291
21
0.1683070866141732
0
LINE
8
BLACK
6
CONTINUOUS
10
0.1072834645669291
20
0.1683070866141732
11
0.1110500393700787
21
0.167557874015748
0
LINE
8
BLACK
6
CONTINUOUS
10
0.3664331889763779
20
0.2136252755905512
11
0.3683490551181102
21
0.2123451181102362
0
LINE
8
BLACK
6
CONTINUOUS
10
0.3683490551181102
20
0.2123451181102362
11
0.3696292125984252
21
0.2104292519685039
0
LINE
8
BLACK
6
CONTINUOUS
10
0.3696292125984252
20
0.2104292519685039
11
0.3700787401574803
21
0.2081692913385827
0
LINE
8
BLACK
6
CONTINUOUS
10
0.3700787401574803
20
0.2081692913385827
11
0.3700787401574803
21
0.1678149606299213
0
LINE
8
BLACK
6
CONTINUOUS
10
0.3700787401574803
20
0.1678149606299213
11
0.3696292125984252
21
0.165555
0
LINE
8
BLACK
6
CONTINUOUS
10
0.3696292125984252
20
0.165555
11
0.3683490551181102
21
0.1636391338582677
0
LINE
8
BLACK
6
CONTINUOUS
10
0.3683490551181102
20
0.1636391338582677
11
0.3664331889763779
21
0.1623589763779527
0
LINE
8
BLACK
6
CONTINUOUS
10
0.3664331889763779
20
0.1623589763779527
11
0.3641732283464567
21
0.1619094488188976
0
LINE
8
BLACK
6
CONTINUOUS
10
0.3641732283464567
20
0.1619094488188976
11
0.3523622047244094
21
0.1619094488188976
0
LINE
8
BLACK
6
CONTINUOUS
10
0.3523622047244094
20
0.1619094488188976
11
0.3501022440944882
21
0.1623589763779527
0
LINE
8
BLACK
6
CONTINUOUS
10
0.3501022440944882
20
0.1623589763779527
11
0.3481863779527559
21
0.1636391338582677
0
LINE
8
BLACK
6
CONTINUOUS
10
0.3481863779527559
20
0.1636391338582677
11
0.346906220472441
21
0.165555
0
LINE
8
BLACK
6
CONTINUOUS
10
0.346906220472441
20
0.165555
11
0.3464566929133858
21
0.1678149606299213
0
LINE
8
BLACK
6
CONTINUOUS
10
0.3464566929133858
20
0.1678149606299213
11
0.3464566929133858
21
0.2081692913385827
0
LINE
8
BLACK
6
CONTINUOUS
10
0.3464566929133858
20
0.2081692913385827
11
0.346906220472441
21
0.2104292519685039
0
LINE
8
BLACK
6
CONTINUOUS
10
0.346906220472441
20
0.2104292519685039
11
0.3481863779527559
21
0.2123451181102362
0
LINE
8
BLACK
6
CONTINUOUS
10
0.3481863779527559
20
0.2123451181102362
11
0.3501022440944882
21
0.2136252755905512
0
LINE
8
BLACK
6
CONTINUOUS
10
0.3501022440944882
20
0.2136252755905512
11
0.3523622047244094
21
0.2140748031496063
0
LINE
8
BLACK
6
CONTINUOUS
10
0.3523622047244094
20
0.2140748031496063
11
0.3641732283464567
21
0.2140748031496063
0
LINE
8
BLACK
6
CONTINUOUS
10
0.3641732283464567
20
0.2140748031496063
11
0.3664331889763779
21
0.2136252755905512
0
LINE
8
BLACK
6
CONTINUOUS
10
0.4412363385826771
20
0.2136252755905512
11
0.4431522047244094
21
0.2123451181102362
0
LINE
8
BLACK
6
CONTINUOUS
10
0.4431522047244094
20
0.2123451181102362
11
0.4444323622047244
21
0.2104292519685039
0
LINE
8
BLACK
6
CONTINUOUS
10
0.4444323622047244
20
0.2104292519685039
11
0.4448818897637795
21
0.2081692913385827
0
LINE
8
BLACK
6
CONTINUOUS
10
0.4448818897637795
20
0.2081692913385827
11
0.4448818897637795
21
0.1678149606299213
0
LINE
8
BLACK
6
CONTINUOUS
10
0.4448818897637795
20
0.1678149606299213
11
0.4444323622047244
21
0.165555
0
LINE
8
BLACK
6
CONTINUOUS
10
0.4444323622047244
20
0.165555
11
0.4431522047244094
21
0.1636391338582677
0
LINE
8
BLACK
6
CONTINUOUS
10
0.4431522047244094
20
0.1636391338582677
11
0.4412363385826771
21
0.1623589763779527
0
LINE
8
BLACK
6
CONTINUOUS
10
0.4412363385826771
20
0.1623589763779527
11
0.4389763779527559
21
0.1619094488188976
0
LINE
8
BLACK
6
CONTINUOUS
10
0.4389763779527559
20
0.1619094488188976
11
0.4271653543307086
21
0.1619094488188976
0
LINE
8
BLACK
6
CONTINUOUS
10
0.4271653543307086
20
0.1619094488188976
11
0.4249053937007874
21
0.1623589763779527
0
LINE
8
BLACK
6
CONTINUOUS
10
0.4249053937007874
20
0.1623589763779527
11
0.4229895275590551
21
0.1636391338582677
0
LINE
8
BLACK
6
CONTINUOUS
10
0.4229895275590551
20
0.1636391338582677
11
0.4217093700787402
21
0.165555
0
LINE
8
BLACK
6
CONTINUOUS
10
0.4217093700787402
20
0.165555
11
0.421259842519685
21
0.1678149606299213
0
LINE
8
BLACK
6
CONTINUOUS
10
0.421259842519685
20
0.1678149606299213
11
0.421259842519685
21
0.2081692913385827
0
LINE
8
BLACK
6
CONTINUOUS
10
0.421259842519685
20
0.2081692913385827
11
0.4217093700787402
21
0.2104292519685039
0
LINE
8
BLACK
6
CONTINUOUS
10
0.4217093700787402
20
0.2104292519685039
11
0.4229895275590551
21
0.2123451181102362
0
LINE
8
BLACK
6
CONTINUOUS
10
0.4229895275590551
20
0.2123451181102362
11
0.4249053937007874
21
0.2136252755905512
0
LINE
8
BLACK
6
CONTINUOUS
10
0.4249053937007874
20
0.2136252755905512
11
0.4271653543307086
21
0.2140748031496063
0
LINE
8
BLACK
6
CONTINUOUS
10
0.4271653543307086
20
0.2140748031496063
11
0.4389763779527559
21
0.2140748031496063
0
LINE
8
BLACK
6
CONTINUOUS
10
0.4389763779527559
20
0.2140748031496063
11
0.4412363385826771
21
0.2136252755905512
0
LINE
8
BLACK
6
CONTINUOUS
10
0.5200772440944882
20
0.221686968503937
11
0.5228712598425197
21
0.2198200787401575
0
LINE
8
BLACK
6
CONTINUOUS
10
0.5228712598425197
20
0.2198200787401575
11
0.5247381496062992
21
0.217026062992126
0
LINE
8
BLACK
6
CONTINUOUS
10
0.5247381496062992
20
0.217026062992126
11
0.5253937007874016
21
0.2137303149606299
0
LINE
8
BLACK
6
CONTINUOUS
10
0.5253937007874016
20
0.2137303149606299
11
0.5253937007874016
21
0.196505905511811
0
LINE
8
BLACK
6
CONTINUOUS
10
0.5253937007874016
20
0.196505905511811
11
0.5247381496062992
21
0.1932101574803149
0
LINE
8
BLACK
6
CONTINUOUS
10
0.5247381496062992
20
0.1932101574803149
11
0.5228712598425197
21
0.1904161417322835
0
LINE
8
BLACK
6
CONTINUOUS
10
0.5228712598425197
20
0.1904161417322835
11
0.5200772440944882
21
0.1885492519685039
0
LINE
8
BLACK
6
CONTINUOUS
10
0.5200772440944882
20
0.1885492519685039
11
0.5167814960629921
21
0.1878937007874016
0
LINE
8
BLACK
6
CONTINUOUS
10
0.5167814960629921
20
0.1878937007874016
11
0.4966043307086614
21
0.1878937007874016
0
LINE
8
BLACK
6
CONTINUOUS
10
0.4966043307086614
20
0.1878937007874016
11
0.4933085826771653
21
0.1885492519685039
0
LINE
8
BLACK
6
CONTINUOUS
10
0.4933085826771653
20
0.1885492519685039
11
0.4905145669291339
21
0.1904161417322835
0
LINE
8
BLACK
6
CONTINUOUS
10
0.4905145669291339
20
0.1904161417322835
11
0.4886476771653543
21
0.1932101574803149
0
LINE
8
BLACK
6
CONTINUOUS
10
0.4886476771653543
20
0.1932101574803149
11
0.487992125984252
21
0.196505905511811
0
LINE
8
BLACK
6
CONTINUOUS
10
0.487992125984252
20
0.196505905511811
11
0.487992125984252
21
0.2137303149606299
0
LINE
8
BLACK
6
CONTINUOUS
10
0.487992125984252
20
0.2137303149606299
11
0.4886476771653543
21
0.217026062992126
0
LINE
8
BLACK
6
CONTINUOUS
10
0.4886476771653543
20
0.217026062992126
11
0.4905145669291339
21
0.2198200787401575
0
LINE
8
BLACK
6
CONTINUOUS
10
0.4905145669291339
20
0.2198200787401575
11
0.4933085826771653
21
0.221686968503937
0
LINE
8
BLACK
6
CONTINUOUS
10
0.4933085826771653
20
0.221686968503937
11
0.4966043307086614
21
0.2223425196850394
0
LINE
8
BLACK
6
CONTINUOUS
10
0.4966043307086614
20
0.2223425196850394
11
0.5167814960629921
21
0.2223425196850394
0
LINE
8
BLACK
6
CONTINUOUS
10
0.5167814960629921
20
0.2223425196850394
11
0.5200772440944882
21
0.221686968503937
0
LINE
8
BLACK
6
CONTINUOUS
10
0.586022125984252
20
0.221686968503937
11
0.5888161417322835
21
0.2198200787401575
0
LINE
8
BLACK
6
CONTINUOUS
10
0.5888161417322835
20
0.2198200787401575
11
0.5906830314960629
21
0.217026062992126
0
LINE
8
BLACK
6
CONTINUOUS
10
0.5906830314960629
20
0.217026062992126
11
0.5913385826771653
21
0.2137303149606299
0
LINE
8
BLACK
6
CONTINUOUS
10
0.5913385826771653
20
0.2137303149606299
11
0.5913385826771653
21
0.196505905511811
0
LINE
8
BLACK
6
CONTINUOUS
10
0.5913385826771653
20
0.196505905511811
11
0.5906830314960629
21
0.1932101574803149
0
LINE
8
BLACK
6
CONTINUOUS
10
0.5906830314960629
20
0.1932101574803149
11
0.5888161417322835
21
0.1904161417322835
0
LINE
8
BLACK
6
CONTINUOUS
10
0.5888161417322835
20
0.1904161417322835
11
0.586022125984252
21
0.1885492519685039
0
LINE
8
BLACK
6
CONTINUOUS
10
0.586022125984252
20
0.1885492519685039
11
0.5827263779527559
21
0.1878937007874016
0
LINE
8
BLACK
6
CONTINUOUS
10
0.5827263779527559
20
0.1878937007874016
11
0.5625492125984252
21
0.1878937007874016
0
LINE
8
BLACK
6
CONTINUOUS
10
0.5625492125984252
20
0.1878937007874016
11
0.5592534645669291
21
0.1885492519685039
0
LINE
8
BLACK
6
CONTINUOUS
10
0.5592534645669291
20
0.1885492519685039
11
0.5564594488188976
21
0.1904161417322835
0
LINE
8
BLACK
6
CONTINUOUS
10
0.5564594488188976
20
0.1904161417322835
11
0.5545925590551181
21
0.1932101574803149
0
LINE
8
BLACK
6
CONTINUOUS
10
0.5545925590551181
20
0.1932101574803149
11
0.5539370078740158
21
0.196505905511811
0
LINE
8
BLACK
6
CONTINUOUS
10
0.5539370078740158
20
0.196505905511811
11
0.5539370078740158
21
0.2137303149606299
0
LINE
8
BLACK
6
CONTINUOUS
10
0.5539370078740158
20
0.2137303149606299
11
0.5545925590551181
21
0.217026062992126
0
LINE
8
BLACK
6
CONTINUOUS
10
0.5545925590551181
20
0.217026062992126
11
0.5564594488188976
21
0.2198200787401575
0
LINE
8
BLACK
6
CONTINUOUS
10
0.5564594488188976
20
0.2198200787401575
11
0.5592534645669291
21
0.221686968503937
0
LINE
8
BLACK
6
CONTINUOUS
10
0.5592534645669291
20
0.221686968503937
11
0.5625492125984252
21
0.2223425196850394
0
LINE
8
BLACK
6
CONTINUOUS
10
0.5625492125984252
20
0.2223425196850394
11
0.5827263779527559
21
0.2223425196850394
0
LINE
8
BLACK
6
CONTINUOUS
10
0.5827263779527559
20
0.2223425196850394
11
0.586022125984252
21
0.221686968503937
0
LINE
8
BLACK
6
CONTINUOUS
10
0.2197796456692913
20
0.232818188976378
11
0.2216955118110236
21
0.231538031496063
0
LINE
8
BLACK
6
CONTINUOUS
10
0.2216955118110236
20
0.231538031496063
11
0.2229756692913386
21
0.2296221653543307
0
LINE
8
BLACK
6
CONTINUOUS
10
0.2229756692913386
20
0.2296221653543307
11
0.2234251968503937
21
0.2273622047244094
0
LINE
8
BLACK
6
CONTINUOUS
10
0.2234251968503937
20
0.2273622047244094
11
0.2234251968503937
21
0.2155511811023622
0
LINE
8
BLACK
6
CONTINUOUS
10
0.2234251968503937
20
0.2155511811023622
11
0.2229756692913386
21
0.213291220472441
0
LINE
8
BLACK
6
CONTINUOUS
10
0.2229756692913386
20
0.213291220472441
11
0.2216955118110236
21
0.2113753543307087
0
LINE
8
BLACK
6
CONTINUOUS
10
0.2216955118110236
20
0.2113753543307087
11
0.2197796456692913
21
0.2100951968503937
0
LINE
8
BLACK
6
CONTINUOUS
10
0.2197796456692913
20
0.2100951968503937
11
0.2175196850393701
21
0.2096456692913386
0
LINE
8
BLACK
6
CONTINUOUS
10
0.2175196850393701
20
0.2096456692913386
11
0.1624015748031496
21
0.2096456692913386
0
LINE
8
BLACK
6
CONTINUOUS
10
0.1624015748031496
20
0.2096456692913386
11
0.1601416141732283
21
0.2100951968503937
0
LINE
8
BLACK
6
CONTINUOUS
10
0.1601416141732283
20
0.2100951968503937
11
0.1582257480314961
21
0.2113753543307087
0
LINE
8
BLACK
6
CONTINUOUS
10
0.1582257480314961
20
0.2113753543307087
11
0.1569455905511811
21
0.213291220472441
0
LINE
8
BLACK
6
CONTINUOUS
10
0.1569455905511811
20
0.213291220472441
11
0.156496062992126
21
0.2155511811023622
0
LINE
8
BLACK
6
CONTINUOUS
10
0.156496062992126
20
0.2155511811023622
11
0.156496062992126
21
0.2273622047244094
0
LINE
8
BLACK
6
CONTINUOUS
10
0.156496062992126
20
0.2273622047244094
11
0.1569455905511811
21
0.2296221653543307
0
LINE
8
BLACK
6
CONTINUOUS
10
0.1569455905511811
20
0.2296221653543307
11
0.1582257480314961
21
0.231538031496063
0
LINE
8
BLACK
6
CONTINUOUS
10
0.1582257480314961
20
0.231538031496063
11
0.1601416141732283
21
0.232818188976378
0
LINE
8
BLACK
6
CONTINUOUS
10
0.1601416141732283
20
0.232818188976378
11
0.1624015748031496
21
0.2332677165354331
0
LINE
8
BLACK
6
CONTINUOUS
10
0.1624015748031496
20
0.2332677165354331
11
0.2175196850393701
21
0.2332677165354331
0
LINE
8
BLACK
6
CONTINUOUS
10
0.2175196850393701
20
0.2332677165354331
11
0.2197796456692913
21
0.232818188976378
0
LINE
8
BLACK
6
CONTINUOUS
10
0.6651574803149606
20
0.2218503937007874
11
0.6218503937007874
21
0.2218503937007874
0
LINE
8
BLACK
6
CONTINUOUS
10
0.6218503937007874
20
0.2218503937007874
11
0.6218503937007874
21
0.2336614173228346
0
LINE
8
BLACK
6
CONTINUOUS
10
0.6218503937007874
20
0.2336614173228346
11
0.6651574803149606
21
0.2336614173228346
0
LINE
8
BLACK
6
CONTINUOUS
10
0.6651574803149606
20
0.2336614173228346
11
0.6651574803149606
21
0.2218503937007874
0
LINE
8
BLACK
6
CONTINUOUS
10
0.8344488188976378
20
0.2218503937007874
11
0.7911417322834645
21
0.2218503937007874
0
LINE
8
BLACK
6
CONTINUOUS
10
0.7911417322834645
20
0.2218503937007874
11
0.7911417322834645
21
0.2336614173228346
0
LINE
8
BLACK
6
CONTINUOUS
10
0.7911417322834645
20
0.2336614173228346
11
0.8344488188976378
21
0.2336614173228346
0
LINE
8
BLACK
6
CONTINUOUS
10
0.8344488188976378
20
0.2336614173228346
11
0.8344488188976378
21
0.2218503937007874
0
LINE
8
BLACK
6
CONTINUOUS
10
0.9706692913385827
20
0.2271653543307087
11
0.8718503937007874
21
0.2271653543307087
0
LINE
8
BLACK
6
CONTINUOUS
10
0.8718503937007874
20
0.2271653543307087
11
0.8718503937007874
21
0.2665354330708661
0
LINE
8
BLACK
6
CONTINUOUS
10
0.8718503937007874
20
0.2665354330708661
11
0.9706692913385827
21
0.2665354330708661
0
LINE
8
BLACK
6
CONTINUOUS
10
0.9706692913385827
20
0.2665354330708661
11
0.9706692913385827
21
0.2271653543307087
0
LINE
8
BLACK
6
CONTINUOUS
10
0.6651574803149606
20
0.2415354330708661
11
0.6218503937007874
21
0.2415354330708661
0
LINE
8
BLACK
6
CONTINUOUS
10
0.6218503937007874
20
0.2415354330708661
11
0.6218503937007874
21
0.2533464566929134
0
LINE
8
BLACK
6
CONTINUOUS
10
0.6218503937007874
20
0.2533464566929134
11
0.6651574803149606
21
0.2533464566929134
0
LINE
8
BLACK
6
CONTINUOUS
10
0.6651574803149606
20
0.2533464566929134
11
0.6651574803149606
21
0.2415354330708661
0
LINE
8
BLACK
6
CONTINUOUS
10
0.8344488188976378
20
0.2415354330708661
11
0.7911417322834645
21
0.2415354330708661
0
LINE
8
BLACK
6
CONTINUOUS
10
0.7911417322834645
20
0.2415354330708661
11
0.7911417322834645
21
0.2533464566929134
0
LINE
8
BLACK
6
CONTINUOUS
10
0.7911417322834645
20
0.2533464566929134
11
0.8344488188976378
21
0.2533464566929134
0
LINE
8
BLACK
6
CONTINUOUS
10
0.8344488188976378
20
0.2533464566929134
11
0.8344488188976378
21
0.2415354330708661
0
LINE
8
BLACK
6
CONTINUOUS
10
0.5200772440944882
20
0.283694842519685
11
0.5228712598425197
21
0.2818279527559055
0
LINE
8
BLACK
6
CONTINUOUS
10
0.5228712598425197
20
0.2818279527559055
11
0.5247381496062992
21
0.279033937007874
0
LINE
8
BLACK
6
CONTINUOUS
10
0.5247381496062992
20
0.279033937007874
11
0.5253937007874016
21
0.275738188976378
0
LINE
8
BLACK
6
CONTINUOUS
10
0.5253937007874016
20
0.275738188976378
11
0.5253937007874016
21
0.2585137795275591
0
LINE
8
BLACK
6
CONTINUOUS
10
0.5253937007874016
20
0.2585137795275591
11
0.5247381496062992
21
0.255218031496063
0
LINE
8
BLACK
6
CONTINUOUS
10
0.5247381496062992
20
0.255218031496063
11
0.5228712598425197
21
0.2524240157480315
0
LINE
8
BLACK
6
CONTINUOUS
10
0.5228712598425197
20
0.2524240157480315
11
0.5200772440944882
21
0.2505571259842519
0
LINE
8
BLACK
6
CONTINUOUS
10
0.5200772440944882
20
0.2505571259842519
11
0.5167814960629921
21
0.2499015748031496
0
LINE
8
BLACK
6
CONTINUOUS
10
0.5167814960629921
20
0.2499015748031496
11
0.4966043307086614
21
0.2499015748031496
0
LINE
8
BLACK
6
CONTINUOUS
10
0.4966043307086614
20
0.2499015748031496
11
0.4933085826771653
21
0.2505571259842519
0
LINE
8
BLACK
6
CONTINUOUS
10
0.4933085826771653
20
0.2505571259842519
11
0.4905145669291339
21
0.2524240157480315
0
LINE
8
BLACK
6
CONTINUOUS
10
0.4905145669291339
20
0.2524240157480315
11
0.4886476771653543
21
0.255218031496063
0
LINE
8
BLACK
6
CONTINUOUS
10
0.4886476771653543
20
0.255218031496063
11
0.487992125984252
21
0.2585137795275591
0
LINE
8
BLACK
6
CONTINUOUS
10
0.487992125984252
20
0.2585137795275591
11
0.487992125984252
21
0.275738188976378
0
LINE
8
BLACK
6
CONTINUOUS
10
0.487992125984252
20
0.275738188976378
11
0.4886476771653543
21
0.279033937007874
0
LINE
8
BLACK
6
CONTINUOUS
10
0.4886476771653543
20
0.279033937007874
11
0.4905145669291339
21
0.2818279527559055
0
LINE
8
BLACK
6
CONTINUOUS
10
0.4905145669291339
20
0.2818279527559055
11
0.4933085826771653
21
0.283694842519685
0
LINE
8
BLACK
6
CONTINUOUS
10
0.4933085826771653
20
0.283694842519685
11
0.4966043307086614
21
0.2843503937007874
0
LINE
8
BLACK
6
CONTINUOUS
10
0.4966043307086614
20
0.2843503937007874
11
0.5167814960629921
21
0.2843503937007874
0
LINE
8
BLACK
6
CONTINUOUS
10
0.5167814960629921
20
0.2843503937007874
11
0.5200772440944882
21
0.283694842519685
0
LINE
8
BLACK
6
CONTINUOUS
10
0.586022125984252
20
0.283694842519685
11
0.5888161417322835
21
0.2818279527559055
0
LINE
8
BLACK
6
CONTINUOUS
10
0.5888161417322835
20
0.2818279527559055
11
0.5906830314960629
21
0.279033937007874
0
LINE
8
BLACK
6
CONTINUOUS
10
0.5906830314960629
20
0.279033937007874
11
0.5913385826771653
21
0.275738188976378
0
LINE
8
BLACK
6
CONTINUOUS
10
0.5913385826771653
20
0.275738188976378
11
0.5913385826771653
21
0.2585137795275591
0
LINE
8
BLACK
6
CONTINUOUS
10
0.5913385826771653
20
0.2585137795275591
11
0.5906830314960629
21
0.255218031496063
0
LINE
8
BLACK
6
CONTINUOUS
10
0.5906830314960629
20
0.255218031496063
11
0.5888161417322835
21
0.2524240157480315
0
LINE
8
BLACK
6
CONTINUOUS
10
0.5888161417322835
20
0.2524240157480315
11
0.586022125984252
21
0.2505571259842519
0
LINE
8
BLACK
6
CONTINUOUS
10
0.586022125984252
20
0.2505571259842519
11
0.5827263779527559
21
0.2499015748031496
0
LINE
8
BLACK
6
CONTINUOUS
10
0.5827263779527559
20
0.2499015748031496
11
0.5625492125984252
21
0.2499015748031496
0
LINE
8
BLACK
6
CONTINUOUS
10
0.5625492125984252
20
0.2499015748031496
11
0.5592534645669291
21
0.2505571259842519
0
LINE
8
BLACK
6
CONTINUOUS
10
0.5592534645669291
20
0.2505571259842519
11
0.5564594488188976
21
0.2524240157480315
0
LINE
8
BLACK
6
CONTINUOUS
10
0.5564594488188976
20
0.2524240157480315
11
0.5545925590551181
21
0.255218031496063
0
LINE
8
BLACK
6
CONTINUOUS
10
0.5545925590551181
20
0.255218031496063
11
0.5539370078740158
21
0.2585137795275591
0
LINE
8
BLACK
6
CONTINUOUS
10
0.5539370078740158
20
0.2585137795275591
11
0.5539370078740158
21
0.275738188976378
0
LINE
8
BLACK
6
CONTINUOUS
10
0.5539370078740158
20
0.275738188976378
11
0.5545925590551181
21
0.279033937007874
0
LINE
8
BLACK
6
CONTINUOUS
10
0.5545925590551181
20
0.279033937007874
11
0.5564594488188976
21
0.2818279527559055
0
LINE
8
BLACK
6
CONTINUOUS
10
0.5564594488188976
20
0.2818279527559055
11
0.5592534645669291
21
0.283694842519685
0
LINE
8
BLACK
6
CONTINUOUS
10
0.5592534645669291
20
0.283694842519685
11
0.5625492125984252
21
0.2843503937007874
0
LINE
8
BLACK
6
CONTINUOUS
10
0.5625492125984252
20
0.2843503937007874
11
0.5827263779527559
21
0.2843503937007874
0
LINE
8
BLACK
6
CONTINUOUS
10
0.5827263779527559
20
0.2843503937007874
11
0.586022125984252
21
0.283694842519685
0
LINE
8
BLACK
6
CONTINUOUS
10
0.3664331889763779
20
0.3031922047244094
11
0.3683490551181102
21
0.3019120472440945
0
LINE
8
BLACK
6
CONTINUOUS
10
0.3683490551181102
20
0.3019120472440945
11
0.3696292125984252
21
0.2999961811023622
0
LINE
8
BLACK
6
CONTINUOUS
10
0.3696292125984252
20
0.2999961811023622
11
0.3700787401574803
21
0.2977362204724409
0
LINE
8
BLACK
6
CONTINUOUS
10
0.3700787401574803
20
0.2977362204724409
11
0.3700787401574803
21
0.2573818897637795
0
LINE
8
BLACK
6
CONTINUOUS
10
0.3700787401574803
20
0.2573818897637795
11
0.3696292125984252
21
0.2551219291338583
0
LINE
8
BLACK
6
CONTINUOUS
10
0.3696292125984252
20
0.2551219291338583
11
0.3683490551181102
21
0.253206062992126
0
LINE
8
BLACK
6
CONTINUOUS
10
0.3683490551181102
20
0.253206062992126
11
0.3664331889763779
21
0.251925905511811
0
LINE
8
BLACK
6
CONTINUOUS
10
0.3664331889763779
20
0.251925905511811
11
0.3641732283464567
21
0.2514763779527559
0
LINE
8
BLACK
6
CONTINUOUS
10
0.3641732283464567
20
0.2514763779527559
11
0.3523622047244094
21
0.2514763779527559
0
LINE
8
BLACK
6
CONTINUOUS
10
0.3523622047244094
20
0.2514763779527559
11
0.3501022440944882
21
0.251925905511811
0
LINE
8
BLACK
6
CONTINUOUS
10
0.3501022440944882
20
0.251925905511811
11
0.3481863779527559
21
0.253206062992126
0
LINE
8
BLACK
6
CONTINUOUS
10
0.3481863779527559
20
0.253206062992126
11
0.346906220472441
21
0.2551219291338583
0
LINE
8
BLACK
6
CONTINUOUS
10
0.346906220472441
20
0.2551219291338583
11
0.3464566929133858
21
0.2573818897637795
0
LINE
8
BLACK
6
CONTINUOUS
10
0.3464566929133858
20
0.2573818897637795
11
0.3464566929133858
21
0.2977362204724409
0
LINE
8
BLACK
6
CONTINUOUS
10
0.3464566929133858
20
0.2977362204724409
11
0.346906220472441
21
0.2999961811023622
0
LINE
8
BLACK
6
CONTINUOUS
10
0.346906220472441
20
0.2999961811023622
11
0.3481863779527559
21
0.3019120472440945
0
LINE
8
BLACK
6
CONTINUOUS
10
0.3481863779527559
20
0.3019120472440945
11
0.3501022440944882
21
0.3031922047244094
0
LINE
8
BLACK
6
CONTINUOUS
10
0.3501022440944882
20
0.3031922047244094
11
0.3523622047244094
21
0.3036417322834646
0
LINE
8
BLACK
6
CONTINUOUS
10
0.3523622047244094
20
0.3036417322834646
11
0.3641732283464567
21
0.3036417322834646
0
LINE
8
BLACK
6
CONTINUOUS
10
0.3641732283464567
20
0.3036417322834646
11
0.3664331889763779
21
0.3031922047244094
0
LINE
8
BLACK
6
CONTINUOUS
10
0.4038347637795275
20
0.3031922047244094
11
0.4057506299212598
21
0.3019120472440945
0
LINE
8
BLACK
6
CONTINUOUS
10
0.4057506299212598
20
0.3019120472440945
11
0.4070307874015748
21
0.2999961811023622
0
LINE
8
BLACK
6
CONTINUOUS
10
0.4070307874015748
20
0.2999961811023622
11
0.4074803149606299
21
0.2977362204724409
0
LINE
8
BLACK
6
CONTINUOUS
10
0.4074803149606299
20
0.2977362204724409
11
0.4074803149606299
21
0.2573818897637795
0
LINE
8
BLACK
6
CONTINUOUS
10
0.4074803149606299
20
0.2573818897637795
11
0.4070307874015748
21
0.2551219291338583
0
LINE
8
BLACK
6
CONTINUOUS
10
0.4070307874015748
20
0.2551219291338583
11
0.4057506299212598
21
0.253206062992126
0
LINE
8
BLACK
6
CONTINUOUS
10
0.4057506299212598
20
0.253206062992126
11
0.4038347637795275
21
0.251925905511811
0
LINE
8
BLACK
6
CONTINUOUS
10
0.4038347637795275
20
0.251925905511811
11
0.4015748031496063
21
0.2514763779527559
0
LINE
8
BLACK
6
CONTINUOUS
10
0.4015748031496063
20
0.2514763779527559
11
0.389763779527559
21
0.2514763779527559
0
LINE
8
BLACK
6
CONTINUOUS
10
0.389763779527559
20
0.2514763779527559
11
0.3875038188976378
21
0.251925905511811
0
LINE
8
BLACK
6
CONTINUOUS
10
0.3875038188976378
20
0.251925905511811
11
0.3855879527559055
21
0.253206062992126
0
LINE
8
BLACK
6
CONTINUOUS
10
0.3855879527559055
20
0.253206062992126
11
0.3843077952755906
21
0.2551219291338583
0
LINE
8
BLACK
6
CONTINUOUS
10
0.3843077952755906
20
0.2551219291338583
11
0.3838582677165354
21
0.2573818897637795
0
LINE
8
BLACK
6
CONTINUOUS
10
0.3838582677165354
20
0.2573818897637795
11
0.3838582677165354
21
0.2977362204724409
0
LINE
8
BLACK
6
CONTINUOUS
10
0.3838582677165354
20
0.2977362204724409
11
0.3843077952755906
21
0.2999961811023622
0
LINE
8
BLACK
6
CONTINUOUS
10
0.3843077952755906
20
0.2999961811023622
11
0.3855879527559055
21
0.3019120472440945
0
LINE
8
BLACK
6
CONTINUOUS
10
0.3855879527559055
20
0.3019120472440945
11
0.3875038188976378
21
0.3031922047244094
0
LINE
8
BLACK
6
CONTINUOUS
10
0.3875038188976378
20
0.3031922047244094
11
0.389763779527559
21
0.3036417322834646
0
LINE
8
BLACK
6
CONTINUOUS
10
0.389763779527559
20
0.3036417322834646
11
0.4015748031496063
21
0.3036417322834646
0
LINE
8
BLACK
6
CONTINUOUS
10
0.4015748031496063
20
0.3036417322834646
11
0.4038347637795275
21
0.3031922047244094
0
LINE
8
BLACK
6
CONTINUOUS
10
0.4412363385826771
20
0.3031922047244094
11
0.4431522047244094
21
0.3019120472440945
0
LINE
8
BLACK
6
CONTINUOUS
10
0.4431522047244094
20
0.3019120472440945
11
0.4444323622047244
21
0.2999961811023622
0
LINE
8
BLACK
6
CONTINUOUS
10
0.4444323622047244
20
0.2999961811023622
11
0.4448818897637795
21
0.2977362204724409
0
LINE
8
BLACK
6
CONTINUOUS
10
0.4448818897637795
20
0.2977362204724409
11
0.4448818897637795
21
0.2573818897637795
0
LINE
8
BLACK
6
CONTINUOUS
10
0.4448818897637795
20
0.2573818897637795
11
0.4444323622047244
21
0.2551219291338583
0
LINE
8
BLACK
6
CONTINUOUS
10
0.4444323622047244
20
0.2551219291338583
11
0.4431522047244094
21
0.253206062992126
0
LINE
8
BLACK
6
CONTINUOUS
10
0.4431522047244094
20
0.253206062992126
11
0.4412363385826771
21
0.251925905511811
0
LINE
8
BLACK
6
CONTINUOUS
10
0.4412363385826771
20
0.251925905511811
11
0.4389763779527559
21
0.2514763779527559
0
LINE
8
BLACK
6
CONTINUOUS
10
0.4389763779527559
20
0.2514763779527559
11
0.4271653543307086
21
0.2514763779527559
0
LINE
8
BLACK
6
CONTINUOUS
10
0.4271653543307086
20
0.2514763779527559
11
0.4249053937007874
21
0.251925905511811
0
LINE
8
BLACK
6
CONTINUOUS
10
0.4249053937007874
20
0.251925905511811
11
0.4229895275590551
21
0.253206062992126
0
LINE
8
BLACK
6
CONTINUOUS
10
0.4229895275590551
20
0.253206062992126
11
0.4217093700787402
21
0.2551219291338583
0
LINE
8
BLACK
6
CONTINUOUS
10
0.4217093700787402
20
0.2551219291338583
11
0.421259842519685
21
0.2573818897637795
0
LINE
8
BLACK
6
CONTINUOUS
10
0.421259842519685
20
0.2573818897637795
11
0.421259842519685
21
0.2977362204724409
0
LINE
8
BLACK
6
CONTINUOUS
10
0.421259842519685
20
0.2977362204724409
11
0.4217093700787402
21
0.2999961811023622
0
LINE
8
BLACK
6
CONTINUOUS
10
0.4217093700787402
20
0.2999961811023622
11
0.4229895275590551
21
0.3019120472440945
0
LINE
8
BLACK
6
CONTINUOUS
10
0.4229895275590551
20
0.3019120472440945
11
0.4249053937007874
21
0.3031922047244094
0
LINE
8
BLACK
6
CONTINUOUS
10
0.4249053937007874
20
0.3031922047244094
11
0.4271653543307086
21
0.3036417322834646
0
LINE
8
BLACK
6
CONTINUOUS
10
0.4271653543307086
20
0.3036417322834646
11
0.4389763779527559
21
0.3036417322834646
0
LINE
8
BLACK
6
CONTINUOUS
10
0.4389763779527559
20
0.3036417322834646
11
0.4412363385826771
21
0.3031922047244094
0
LINE
8
BLACK
6
CONTINUOUS
10
0.2197796456692913
20
0.2820307874015748
11
0.2216955118110236
21
0.2807506299212598
0
LINE
8
BLACK
6
CONTINUOUS
10
0.2216955118110236
20
0.2807506299212598
11
0.2229756692913386
21
0.2788347637795275
0
LINE
8
BLACK
6
CONTINUOUS
10
0.2229756692913386
20
0.2788347637795275
11
0.2234251968503937
21
0.2765748031496063
0
LINE
8
BLACK
6
CONTINUOUS
10
0.2234251968503937
20
0.2765748031496063
11
0.2234251968503937
21
0.264763779527559
0
LINE
8
BLACK
6
CONTINUOUS
10
0.2234251968503937
20
0.264763779527559
11
0.2229756692913386
21
0.2625038188976378
0
LINE
8
BLACK
6
CONTINUOUS
10
0.2229756692913386
20
0.2625038188976378
11
0.2216955118110236
21
0.2605879527559055
0
LINE
8
BLACK
6
CONTINUOUS
10
0.2216955118110236
20
0.2605879527559055
11
0.2197796456692913
21
0.2593077952755906
0
LINE
8
BLACK
6
CONTINUOUS
10
0.2197796456692913
20
0.2593077952755906
11
0.2175196850393701
21
0.2588582677165354
0
LINE
8
BLACK
6
CONTINUOUS
10
0.2175196850393701
20
0.2588582677165354
11
0.1624015748031496
21
0.2588582677165354
0
LINE
8
BLACK
6
CONTINUOUS
10
0.1624015748031496
20
0.2588582677165354
11
0.1601416141732283
21
0.2593077952755906
0
LINE
8
BLACK
6
CONTINUOUS
10
0.1601416141732283
20
0.2593077952755906
11
0.1582257480314961
21
0.2605879527559055
0
LINE
8
BLACK
6
CONTINUOUS
10
0.1582257480314961
20
0.2605879527559055
11
0.1569455905511811
21
0.2625038188976378
0
LINE
8
BLACK
6
CONTINUOUS
10
0.1569455905511811
20
0.2625038188976378
11
0.156496062992126
21
0.264763779527559
0
LINE
8
BLACK
6
CONTINUOUS
10
0.156496062992126
20
0.264763779527559
11
0.156496062992126
21
0.2765748031496063
0
LINE
8
BLACK
6
CONTINUOUS
10
0.156496062992126
20
0.2765748031496063
11
0.1569455905511811
21
0.2788347637795275
0
LINE
8
BLACK
6
CONTINUOUS
10
0.1569455905511811
20
0.2788347637795275
11
0.1582257480314961
21
0.2807506299212598
0
LINE
8
BLACK
6
CONTINUOUS
10
0.1582257480314961
20
0.2807506299212598
11
0.1601416141732283
21
0.2820307874015748
0
LINE
8
BLACK
6
CONTINUOUS
10
0.1601416141732283
20
0.2820307874015748
11
0.1624015748031496
21
0.2824803149606299
0
LINE
8
BLACK
6
CONTINUOUS
10
0.1624015748031496
20
0.2824803149606299
11
0.2175196850393701
21
0.2824803149606299
0
LINE
8
BLACK
6
CONTINUOUS
10
0.2175196850393701
20
0.2824803149606299
11
0.2197796456692913
21
0.2820307874015748
0
LINE
8
BLACK
6
CONTINUOUS
10
0.6651574803149606
20
0.2612204724409449
11
0.6218503937007874
21
0.2612204724409449
0
LINE
8
BLACK
6
CONTINUOUS
10
0.6218503937007874
20
0.2612204724409449
11
0.6218503937007874
21
0.2730314960629921
0
LINE
8
BLACK
6
CONTINUOUS
10
0.6218503937007874
20
0.2730314960629921
11
0.6651574803149606
21
0.2730314960629921
0
LINE
8
BLACK
6
CONTINUOUS
10
0.6651574803149606
20
0.2730314960629921
11
0.6651574803149606
21
0.2612204724409449
0
LINE
8
BLACK
6
CONTINUOUS
10
0.8344488188976378
20
0.2612204724409449
11
0.7911417322834645
21
0.2612204724409449
0
LINE
8
BLACK
6
CONTINUOUS
10
0.7911417322834645
20
0.2612204724409449
11
0.7911417322834645
21
0.2730314960629921
0
LINE
8
BLACK
6
CONTINUOUS
10
0.7911417322834645
20
0.2730314960629921
11
0.8344488188976378
21
0.2730314960629921
0
LINE
8
BLACK
6
CONTINUOUS
10
0.8344488188976378
20
0.2730314960629921
11
0.8344488188976378
21
0.2612204724409449
0
LINE
8
BLACK
6
CONTINUOUS
10
0.6651574803149606
20
0.2809055118110236
11
0.6218503937007874
21
0.2809055118110236
0
LINE
8
BLACK
6
CONTINUOUS
10
0.6218503937007874
20
0.2809055118110236
11
0.6218503937007874
21
0.2927165354330709
0
LINE
8
BLACK
6
CONTINUOUS
10
0.6218503937007874
20
0.2927165354330709
11
0.6651574803149606
21
0.2927165354330709
0
LINE
8
BLACK
6
CONTINUOUS
10
0.6651574803149606
20
0.2927165354330709
11
0.6651574803149606
21
0.2809055118110236
0
LINE
8
BLACK
6
CONTINUOUS
10
0.8344488188976378
20
0.2809055118110236
11
0.7911417322834645
21
0.2809055118110236
0
LINE
8
BLACK
6
CONTINUOUS
10
0.7911417322834645
20
0.2809055118110236
11
0.7911417322834645
21
0.2927165354330709
0
LINE
8
BLACK
6
CONTINUOUS
10
0.7911417322834645
20
0.2927165354330709
11
0.8344488188976378
21
0.2927165354330709
0
LINE
8
BLACK
6
CONTINUOUS
10
0.8344488188976378
20
0.2927165354330709
11
0.8344488188976378
21
0.2809055118110236
0
LINE
8
BLACK
6
CONTINUOUS
10
0.6651574803149606
20
0.3005905511811023
11
0.6218503937007874
21
0.3005905511811023
0
LINE
8
BLACK
6
CONTINUOUS
10
0.6218503937007874
20
0.3005905511811023
11
0.6218503937007874
21
0.3124015748031496
0
LINE
8
BLACK
6
CONTINUOUS
10
0.6218503937007874
20
0.3124015748031496
11
0.6651574803149606
21
0.3124015748031496
0
LINE
8
BLACK
6
CONTINUOUS
10
0.6651574803149606
20
0.3124015748031496
11
0.6651574803149606
21
0.3005905511811023
0
LINE
8
BLACK
6
CONTINUOUS
10
0.8344488188976378
20
0.3005905511811023
11
0.7911417322834645
21
0.3005905511811023
0
LINE
8
BLACK
6
CONTINUOUS
10
0.7911417322834645
20
0.3005905511811023
11
0.7911417322834645
21
0.3124015748031496
0
LINE
8
BLACK
6
CONTINUOUS
10
0.7911417322834645
20
0.3124015748031496
11
0.8344488188976378
21
0.3124015748031496
0
LINE
8
BLACK
6
CONTINUOUS
10
0.8344488188976378
20
0.3124015748031496
11
0.8344488188976378
21
0.3005905511811023
0
LINE
8
BLACK
6
CONTINUOUS
10
0.2197796456692913
20
0.3312433858267717
11
0.2216955118110236
21
0.3299632283464567
0
LINE
8
BLACK
6
CONTINUOUS
10
0.2216955118110236
20
0.3299632283464567
11
0.2229756692913386
21
0.3280473622047244
0
LINE
8
BLACK
6
CONTINUOUS
10
0.2229756692913386
20
0.3280473622047244
11
0.2234251968503937
21
0.3257874015748031
0
LINE
8
BLACK
6
CONTINUOUS
10
0.2234251968503937
20
0.3257874015748031
11
0.2234251968503937
21
0.3139763779527559
0
LINE
8
BLACK
6
CONTINUOUS
10
0.2234251968503937
20
0.3139763779527559
11
0.2229756692913386
21
0.3117164173228346
0
LINE
8
BLACK
6
CONTINUOUS
10
0.2229756692913386
20
0.3117164173228346
11
0.2216955118110236
21
0.3098005511811023
0
LINE
8
BLACK
6
CONTINUOUS
10
0.2216955118110236
20
0.3098005511811023
11
0.2197796456692913
21
0.3085203937007874
0
LINE
8
BLACK
6
CONTINUOUS
10
0.2197796456692913
20
0.3085203937007874
11
0.2175196850393701
21
0.3080708661417323
0
LINE
8
BLACK
6
CONTINUOUS
10
0.2175196850393701
20
0.3080708661417323
11
0.1624015748031496
21
0.3080708661417323
0
LINE
8
BLACK
6
CONTINUOUS
10
0.1624015748031496
20
0.3080708661417323
11
0.1601416141732283
21
0.3085203937007874
0
LINE
8
BLACK
6
CONTINUOUS
10
0.1601416141732283
20
0.3085203937007874
11
0.1582257480314961
21
0.3098005511811023
0
LINE
8
BLACK
6
CONTINUOUS
10
0.1582257480314961
20
0.3098005511811023
11
0.1569455905511811
21
0.3117164173228346
0
LINE
8
BLACK
6
CONTINUOUS
10
0.1569455905511811
20
0.3117164173228346
11
0.156496062992126
21
0.3139763779527559
0
LINE
8
BLACK
6
CONTINUOUS
10
0.156496062992126
20
0.3139763779527559
11
0.156496062992126
21
0.3257874015748031
0
LINE
8
BLACK
6
CONTINUOUS
10
0.156496062992126
20
0.3257874015748031
11
0.1569455905511811
21
0.3280473622047244
0
LINE
8
BLACK
6
CONTINUOUS
10
0.1569455905511811
20
0.3280473622047244
11
0.1582257480314961
21
0.3299632283464567
0
LINE
8
BLACK
6
CONTINUOUS
10
0.1582257480314961
20
0.3299632283464567
11
0.1601416141732283
21
0.3312433858267717
0
LINE
8
BLACK
6
CONTINUOUS
10
0.1601416141732283
20
0.3312433858267717
11
0.1624015748031496
21
0.3316929133858267
0
LINE
8
BLACK
6
CONTINUOUS
10
0.1624015748031496
20
0.3316929133858267
11
0.2175196850393701
21
0.3316929133858267
0
LINE
8
BLACK
6
CONTINUOUS
10
0.2175196850393701
20
0.3316929133858267
11
0.2197796456692913
21
0.3312433858267717
0
LINE
8
BLACK
6
CONTINUOUS
10
0.9706692913385827
20
0.3271653543307086
11
0.8718503937007874
21
0.3271653543307086
0
LINE
8
BLACK
6
CONTINUOUS
10
0.8718503937007874
20
0.3271653543307086
11
0.8718503937007874
21
0.3665354330708661
0
LINE
8
BLACK
6
CONTINUOUS
10
0.8718503937007874
20
0.3665354330708661
11
0.9706692913385827
21
0.3665354330708661
0
LINE
8
BLACK
6
CONTINUOUS
10
0.9706692913385827
20
0.3665354330708661
11
0.9706692913385827
21
0.3271653543307086
0
LINE
8
BLACK
6
CONTINUOUS
10
0.4618700787401575
20
0.3436220472440945
11
0.4068700787401575
21
0.3436220472440945
0
LINE
8
BLACK
6
CONTINUOUS
10
0.4068700787401575
20
0.3436220472440945
11
0.4068700787401575
21
0.3786220472440945
0
LINE
8
BLACK
6
CONTINUOUS
10
0.4068700787401575
20
0.3786220472440945
11
0.4618700787401575
21
0.3786220472440945
0
LINE
8
BLACK
6
CONTINUOUS
10
0.4618700787401575
20
0.3786220472440945
11
0.4618700787401575
21
0.3436220472440945
0
LINE
8
BLACK
6
CONTINUOUS
10
0.5264945669291339
20
0.3774940551181102
11
0.5292885826771654
21
0.3756271653543307
0
LINE
8
BLACK
6
CONTINUOUS
10
0.5292885826771654
20
0.3756271653543307
11
0.5311554724409449
21
0.3728331496062992
0
LINE
8
BLACK
6
CONTINUOUS
10
0.5311554724409449
20
0.3728331496062992
11
0.5318110236220472
21
0.3695374015748031
0
LINE
8
BLACK
6
CONTINUOUS
10
0.5318110236220472
20
0.3695374015748031
11
0.5318110236220472
21
0.3523129921259843
0
LINE
8
BLACK
6
CONTINUOUS
10
0.5318110236220472
20
0.3523129921259843
11
0.5311554724409449
21
0.3490172440944882
0
LINE
8
BLACK
6
CONTINUOUS
10
0.5311554724409449
20
0.3490172440944882
11
0.5292885826771654
21
0.3462232283464567
0
LINE
8
BLACK
6
CONTINUOUS
10
0.5292885826771654
20
0.3462232283464567
11
0.5264945669291339
21
0.3443563385826772
0
LINE
8
BLACK
6
CONTINUOUS
10
0.5264945669291339
20
0.3443563385826772
11
0.5231988188976378
21
0.3437007874015748
0
LINE
8
BLACK
6
CONTINUOUS
10
0.5231988188976378
20
0.3437007874015748
11
0.5030216535433071
21
0.3437007874015748
0
LINE
8
BLACK
6
CONTINUOUS
10
0.5030216535433071
20
0.3437007874015748
11
0.499725905511811
21
0.3443563385826772
0
LINE
8
BLACK
6
CONTINUOUS
10
0.499725905511811
20
0.3443563385826772
11
0.4969318897637795
21
0.3462232283464567
0
LINE
8
BLACK
6
CONTINUOUS
10
0.4969318897637795
20
0.3462232283464567
11
0.495065
21
0.3490172440944882
0
LINE
8
BLACK
6
CONTINUOUS
10
0.495065
20
0.3490172440944882
11
0.4944094488188976
21
0.3523129921259843
0
LINE
8
BLACK
6
CONTINUOUS
10
0.4944094488188976
20
0.3523129921259843
11
0.4944094488188976
21
0.3695374015748031
0
LINE
8
BLACK
6
CONTINUOUS
10
0.4944094488188976
20
0.3695374015748031
11
0.495065
21
0.3728331496062992
0
LINE
8
BLACK
6
CONTINUOUS
10
0.495065
20
0.3728331496062992
11
0.4969318897637795
21
0.3756271653543307
0
LINE
8
BLACK
6
CONTINUOUS
10
0.4969318897637795
20
0.3756271653543307
11
0.499725905511811
21
0.3774940551181102
0
LINE
8
BLACK
6
CONTINUOUS
10
0.499725905511811
20
0.3774940551181102
11
0.5030216535433071
21
0.3781496062992126
0
LINE
8
BLACK
6
CONTINUOUS
10
0.5030216535433071
20
0.3781496062992126
11
0.5231988188976378
21
0.3781496062992126
0
LINE
8
BLACK
6
CONTINUOUS
10
0.5231988188976378
20
0.3781496062992126
11
0.5264945669291339
21
0.3774940551181102
0
LINE
8
BLACK
6
CONTINUOUS
10
0.2963203543307086
20
0.3765659842519685
11
0.298874842519685
21
0.374859094488189
0
LINE
8
BLACK
6
CONTINUOUS
10
0.298874842519685
20
0.374859094488189
11
0.3005817322834646
21
0.3723046062992126
0
LINE
8
BLACK
6
CONTINUOUS
10
0.3005817322834646
20
0.3723046062992126
11
0.3011811023622047
21
0.3692913385826772
0
LINE
8
BLACK
6
CONTINUOUS
10
0.3011811023622047
20
0.3692913385826772
11
0.3011811023622047
21
0.3535433070866142
0
LINE
8
BLACK
6
CONTINUOUS
10
0.3011811023622047
20
0.3535433070866142
11
0.3005817322834646
21
0.3505300393700787
0
LINE
8
BLACK
6
CONTINUOUS
10
0.3005817322834646
20
0.3505300393700787
11
0.298874842519685
21
0.3479755511811023
0
LINE
8
BLACK
6
CONTINUOUS
10
0.298874842519685
20
0.3479755511811023
11
0.2963203543307086
21
0.3462686614173228
0
LINE
8
BLACK
6
CONTINUOUS
10
0.2963203543307086
20
0.3462686614173228
11
0.2933070866141732
21
0.3456692913385827
0
LINE
8
BLACK
6
CONTINUOUS
10
0.2933070866141732
20
0.3456692913385827
11
0.2716535433070866
21
0.3456692913385827
0
LINE
8
BLACK
6
CONTINUOUS
10
0.2716535433070866
20
0.3456692913385827
11
0.2686402755905511
21
0.3462686614173228
0
LINE
8
BLACK
6
CONTINUOUS
10
0.2686402755905511
20
0.3462686614173228
11
0.2660857874015748
21
0.3479755511811023
0
LINE
8
BLACK
6
CONTINUOUS
10
0.2660857874015748
20
0.3479755511811023
11
0.2643788976377953
21
0.3505300393700787
0
LINE
8
BLACK
6
CONTINUOUS
10
0.2643788976377953
20
0.3505300393700787
11
0.2637795275590551
21
0.3535433070866142
0
LINE
8
BLACK
6
CONTINUOUS
10
0.2637795275590551
20
0.3535433070866142
11
0.2637795275590551
21
0.3692913385826772
0
LINE
8
BLACK
6
CONTINUOUS
10
0.2637795275590551
20
0.3692913385826772
11
0.2643788976377953
21
0.3723046062992126
0
LINE
8
BLACK
6
CONTINUOUS
10
0.2643788976377953
20
0.3723046062992126
11
0.2660857874015748
21
0.374859094488189
0
LINE
8
BLACK
6
CONTINUOUS
10
0.2660857874015748
20
0.374859094488189
11
0.2686402755905511
21
0.3765659842519685
0
LINE
8
BLACK
6
CONTINUOUS
10
0.2686402755905511
20
0.3765659842519685
11
0.2716535433070866
21
0.3771653543307086
0
LINE
8
BLACK
6
CONTINUOUS
10
0.2716535433070866
20
0.3771653543307086
11
0.2933070866141732
21
0.3771653543307086
0
LINE
8
BLACK
6
CONTINUOUS
10
0.2933070866141732
20
0.3771653543307086
11
0.2963203543307086
21
0.3765659842519685
0
LINE
8
BLACK
6
CONTINUOUS
10
0.366945
20
0.3726410236220473
11
0.3688608661417323
21
0.3713608661417322
0
LINE
8
BLACK
6
CONTINUOUS
10
0.3688608661417323
20
0.3713608661417322
11
0.3701410236220473
21
0.369445
0
LINE
8
BLACK
6
CONTINUOUS
10
0.3701410236220473
20
0.369445
11
0.3705905511811023
21
0.3671850393700787
0
LINE
8
BLACK
6
CONTINUOUS
10
0.3705905511811023
20
0.3671850393700787
11
0.3705905511811023
21
0.3553740157480315
0
LINE
8
BLACK
6
CONTINUOUS
10
0.3705905511811023
20
0.3553740157480315
11
0.3701410236220473
21
0.3531140551181102
0
LINE
8
BLACK
6
CONTINUOUS
10
0.3701410236220473
20
0.3531140551181102
11
0.3688608661417323
21
0.3511981889763779
0
LINE
8
BLACK
6
CONTINUOUS
10
0.3688608661417323
20
0.3511981889763779
11
0.366945
21
0.349918031496063
0
LINE
8
BLACK
6
CONTINUOUS
10
0.366945
20
0.349918031496063
11
0.3646850393700787
21
0.3494685039370078
0
LINE
8
BLACK
6
CONTINUOUS
10
0.3646850393700787
20
0.3494685039370078
11
0.3489370078740157
21
0.3494685039370078
0
LINE
8
BLACK
6
CONTINUOUS
10
0.3489370078740157
20
0.3494685039370078
11
0.3466770472440945
21
0.349918031496063
0
LINE
8
BLACK
6
CONTINUOUS
10
0.3466770472440945
20
0.349918031496063
11
0.3447611811023622
21
0.3511981889763779
0
LINE
8
BLACK
6
CONTINUOUS
10
0.3447611811023622
20
0.3511981889763779
11
0.3434810236220472
21
0.3531140551181102
0
LINE
8
BLACK
6
CONTINUOUS
10
0.3434810236220472
20
0.3531140551181102
11
0.3430314960629921
21
0.3553740157480315
0
LINE
8
BLACK
6
CONTINUOUS
10
0.3430314960629921
20
0.3553740157480315
11
0.3430314960629921
21
0.3671850393700787
0
LINE
8
BLACK
6
CONTINUOUS
10
0.3430314960629921
20
0.3671850393700787
11
0.3434810236220472
21
0.369445
0
LINE
8
BLACK
6
CONTINUOUS
10
0.3434810236220472
20
0.369445
11
0.3447611811023622
21
0.3713608661417322
0
LINE
8
BLACK
6
CONTINUOUS
10
0.3447611811023622
20
0.3713608661417322
11
0.3466770472440945
21
0.3726410236220473
0
LINE
8
BLACK
6
CONTINUOUS
10
0.3466770472440945
20
0.3726410236220473
11
0.3489370078740157
21
0.3730905511811023
0
LINE
8
BLACK
6
CONTINUOUS
10
0.3489370078740157
20
0.3730905511811023
11
0.3646850393700787
21
0.3730905511811023
0
LINE
8
BLACK
6
CONTINUOUS
10
0.3646850393700787
20
0.3730905511811023
11
0.366945
21
0.3726410236220473
0
LINE
8
BLACK
6
CONTINUOUS
10
0.2197796456692913
20
0.3804559842519685
11
0.2216955118110236
21
0.3791758267716535
0
LINE
8
BLACK
6
CONTINUOUS
10
0.2216955118110236
20
0.3791758267716535
11
0.2229756692913386
21
0.3772599606299212
0
LINE
8
BLACK
6
CONTINUOUS
10
0.2229756692913386
20
0.3772599606299212
11
0.2234251968503937
21
0.375
0
LINE
8
BLACK
6
CONTINUOUS
10
0.2234251968503937
20
0.375
11
0.2234251968503937
21
0.3631889763779527
0
LINE
8
BLACK
6
CONTINUOUS
10
0.2234251968503937
20
0.3631889763779527
11
0.2229756692913386
21
0.3609290157480315
0
LINE
8
BLACK
6
CONTINUOUS
10
0.2229756692913386
20
0.3609290157480315
11
0.2216955118110236
21
0.3590131496062992
0
LINE
8
BLACK
6
CONTINUOUS
10
0.2216955118110236
20
0.3590131496062992
11
0.2197796456692913
21
0.3577329921259843
0
LINE
8
BLACK
6
CONTINUOUS
10
0.2197796456692913
20
0.3577329921259843
11
0.2175196850393701
21
0.3572834645669291
0
LINE
8
BLACK
6
CONTINUOUS
10
0.2175196850393701
20
0.3572834645669291
11
0.1624015748031496
21
0.3572834645669291
0
LINE
8
BLACK
6
CONTINUOUS
10
0.1624015748031496
20
0.3572834645669291
11
0.1601416141732283
21
0.3577329921259843
0
LINE
8
BLACK
6
CONTINUOUS
10
0.1601416141732283
20
0.3577329921259843
11
0.1582257480314961
21
0.3590131496062992
0
LINE
8
BLACK
6
CONTINUOUS
10
0.1582257480314961
20
0.3590131496062992
11
0.1569455905511811
21
0.3609290157480315
0
LINE
8
BLACK
6
CONTINUOUS
10
0.1569455905511811
20
0.3609290157480315
11
0.156496062992126
21
0.3631889763779527
0
LINE
8
BLACK
6
CONTINUOUS
10
0.156496062992126
20
0.3631889763779527
11
0.156496062992126
21
0.375
0
LINE
8
BLACK
6
CONTINUOUS
10
0.156496062992126
20
0.375
11
0.1569455905511811
21
0.3772599606299212
0
LINE
8
BLACK
6
CONTINUOUS
10
0.1569455905511811
20
0.3772599606299212
11
0.1582257480314961
21
0.3791758267716535
0
LINE
8
BLACK
6
CONTINUOUS
10
0.1582257480314961
20
0.3791758267716535
11
0.1601416141732283
21
0.3804559842519685
0
LINE
8
BLACK
6
CONTINUOUS
10
0.1601416141732283
20
0.3804559842519685
11
0.1624015748031496
21
0.3809055118110236
0
LINE
8
BLACK
6
CONTINUOUS
10
0.1624015748031496
20
0.3809055118110236
11
0.2175196850393701
21
0.3809055118110236
0
LINE
8
BLACK
6
CONTINUOUS
10
0.2175196850393701
20
0.3809055118110236
11
0.2197796456692913
21
0.3804559842519685
0
LINE
8
BLACK
6
CONTINUOUS
10
0.366945
20
0.4277591338582677
11
0.3688608661417323
21
0.4264789763779527
0
LINE
8
BLACK
6
CONTINUOUS
10
0.3688608661417323
20
0.4264789763779527
11
0.3701410236220473
21
0.4245631102362205
0
LINE
8
BLACK
6
CONTINUOUS
10
0.3701410236220473
20
0.4245631102362205
11
0.3705905511811023
21
0.4223031496062992
0
LINE
8
BLACK
6
CONTINUOUS
10
0.3705905511811023
20
0.4223031496062992
11
0.3705905511811023
21
0.4104921259842519
0
LINE
8
BLACK
6
CONTINUOUS
10
0.3705905511811023
20
0.4104921259842519
11
0.3701410236220473
21
0.4082321653543307
0
LINE
8
BLACK
6
CONTINUOUS
10
0.3701410236220473
20
0.4082321653543307
11
0.3688608661417323
21
0.4063162992125984
0
LINE
8
BLACK
6
CONTINUOUS
10
0.3688608661417323
20
0.4063162992125984
11
0.366945
21
0.4050361417322835
0
LINE
8
BLACK
6
CONTINUOUS
10
0.366945
20
0.4050361417322835
11
0.3646850393700787
21
0.4045866141732283
0
LINE
8
BLACK
6
CONTINUOUS
10
0.3646850393700787
20
0.4045866141732283
11
0.3489370078740157
21
0.4045866141732283
0
LINE
8
BLACK
6
CONTINUOUS
10
0.3489370078740157
20
0.4045866141732283
11
0.3466770472440945
21
0.4050361417322835
0
LINE
8
BLACK
6
CONTINUOUS
10
0.3466770472440945
20
0.4050361417322835
11
0.3447611811023622
21
0.4063162992125984
0
LINE
8
BLACK
6
CONTINUOUS
10
0.3447611811023622
20
0.4063162992125984
11
0.3434810236220472
21
0.4082321653543307
0
LINE
8
BLACK
6
CONTINUOUS
10
0.3434810236220472
20
0.4082321653543307
11
0.3430314960629921
21
0.4104921259842519
0
LINE
8
BLACK
6
CONTINUOUS
10
0.3430314960629921
20
0.4104921259842519
11
0.3430314960629921
21
0.4223031496062992
0
LINE
8
BLACK
6
CONTINUOUS
10
0.3430314960629921
20
0.4223031496062992
11
0.3434810236220472
21
0.4245631102362205
0
LINE
8
BLACK
6
CONTINUOUS
10
0.3434810236220472
20
0.4245631102362205
11
0.3447611811023622
21
0.4264789763779527
0
LINE
8
BLACK
6
CONTINUOUS
10
0.3447611811023622
20
0.4264789763779527
11
0.3466770472440945
21
0.4277591338582677
0
LINE
8
BLACK
6
CONTINUOUS
10
0.3466770472440945
20
0.4277591338582677
11
0.3489370078740157
21
0.4282086614173228
0
LINE
8
BLACK
6
CONTINUOUS
10
0.3489370078740157
20
0.4282086614173228
11
0.3646850393700787
21
0.4282086614173228
0
LINE
8
BLACK
6
CONTINUOUS
10
0.3646850393700787
20
0.4282086614173228
11
0.366945
21
0.4277591338582677
0
LINE
8
BLACK
6
CONTINUOUS
10
0.7846441732283465
20
0.4394035039370079
11
0.787438188976378
21
0.4375366141732283
0
LINE
8
BLACK
6
CONTINUOUS
10
0.787438188976378
20
0.4375366141732283
11
0.7893050787401574
21
0.4347425984251969
0
LINE
8
BLACK
6
CONTINUOUS
10
0.7893050787401574
20
0.4347425984251969
11
0.7899606299212598
21
0.4314468503937008
0
LINE
8
BLACK
6
CONTINUOUS
10
0.7899606299212598
20
0.4314468503937008
11
0.7899606299212598
21
0.4142224409448819
0
LINE
8
BLACK
6
CONTINUOUS
10
0.7899606299212598
20
0.4142224409448819
11
0.7893050787401574
21
0.4109266929133858
0
LINE
8
BLACK
6
CONTINUOUS
10
0.7893050787401574
20
0.4109266929133858
11
0.787438188976378
21
0.4081326771653543
0
LINE
8
BLACK
6
CONTINUOUS
10
0.787438188976378
20
0.4081326771653543
11
0.7846441732283465
21
0.4062657874015748
0
LINE
8
BLACK
6
CONTINUOUS
10
0.7846441732283465
20
0.4062657874015748
11
0.7813484251968503
21
0.4056102362204724
0
LINE
8
BLACK
6
CONTINUOUS
10
0.7813484251968503
20
0.4056102362204724
11
0.7611712598425197
21
0.4056102362204724
0
LINE
8
BLACK
6
CONTINUOUS
10
0.7611712598425197
20
0.4056102362204724
11
0.7578755118110236
21
0.4062657874015748
0
LINE
8
BLACK
6
CONTINUOUS
10
0.7578755118110236
20
0.4062657874015748
11
0.7550814960629921
21
0.4081326771653543
0
LINE
8
BLACK
6
CONTINUOUS
10
0.7550814960629921
20
0.4081326771653543
11
0.7532146062992126
21
0.4109266929133858
0
LINE
8
BLACK
6
CONTINUOUS
10
0.7532146062992126
20
0.4109266929133858
11
0.7525590551181102
21
0.4142224409448819
0
LINE
8
BLACK
6
CONTINUOUS
10
0.7525590551181102
20
0.4142224409448819
11
0.7525590551181102
21
0.4314468503937008
0
LINE
8
BLACK
6
CONTINUOUS
10
0.7525590551181102
20
0.4314468503937008
11
0.7532146062992126
21
0.4347425984251969
0
LINE
8
BLACK
6
CONTINUOUS
10
0.7532146062992126
20
0.4347425984251969
11
0.7550814960629921
21
0.4375366141732283
0
LINE
8
BLACK
6
CONTINUOUS
10
0.7550814960629921
20
0.4375366141732283
11
0.7578755118110236
21
0.4394035039370079
0
LINE
8
BLACK
6
CONTINUOUS
10
0.7578755118110236
20
0.4394035039370079
11
0.7611712598425197
21
0.4400590551181102
0
LINE
8
BLACK
6
CONTINUOUS
10
0.7611712598425197
20
0.4400590551181102
11
0.7813484251968503
21
0.4400590551181102
0
LINE
8
BLACK
6
CONTINUOUS
10
0.7813484251968503
20
0.4400590551181102
11
0.7846441732283465
21
0.4394035039370079
0
LINE
8
BLACK
6
CONTINUOUS
10
0.5264945669291339
20
0.4395019291338583
11
0.5292885826771654
21
0.4376350393700787
0
LINE
8
BLACK
6
CONTINUOUS
10
0.5292885826771654
20
0.4376350393700787
11
0.5311554724409449
21
0.4348410236220472
0
LINE
8
BLACK
6
CONTINUOUS
10
0.5311554724409449
20
0.4348410236220472
11
0.5318110236220472
21
0.4315452755905512
0
LINE
8
BLACK
6
CONTINUOUS
10
0.5318110236220472
20
0.4315452755905512
11
0.5318110236220472
21
0.4143208661417322
0
LINE
8
BLACK
6
CONTINUOUS
10
0.5318110236220472
20
0.4143208661417322
11
0.5311554724409449
21
0.4110251181102362
0
LINE
8
BLACK
6
CONTINUOUS
10
0.5311554724409449
20
0.4110251181102362
11
0.5292885826771654
21
0.4082311023622047
0
LINE
8
BLACK
6
CONTINUOUS
10
0.5292885826771654
20
0.4082311023622047
11
0.5264945669291339
21
0.4063642125984252
0
LINE
8
BLACK
6
CONTINUOUS
10
0.5264945669291339
20
0.4063642125984252
11
0.5231988188976378
21
0.4057086614173228
0
LINE
8
BLACK
6
CONTINUOUS
10
0.5231988188976378
20
0.4057086614173228
11
0.5030216535433071
21
0.4057086614173228
0
LINE
8
BLACK
6
CONTINUOUS
10
0.5030216535433071
20
0.4057086614173228
11
0.499725905511811
21
0.4063642125984252
0
LINE
8
BLACK
6
CONTINUOUS
10
0.499725905511811
20
0.4063642125984252
11
0.4969318897637795
21
0.4082311023622047
0
LINE
8
BLACK
6
CONTINUOUS
10
0.4969318897637795
20
0.4082311023622047
11
0.495065
21
0.4110251181102362
0
LINE
8
BLACK
6
CONTINUOUS
10
0.495065
20
0.4110251181102362
11
0.4944094488188976
21
0.4143208661417322
0
LINE
8
BLACK
6
CONTINUOUS
10
0.4944094488188976
20
0.4143208661417322
11
0.4944094488188976
21
0.4315452755905512
0
LINE
8
BLACK
6
CONTINUOUS
10
0.4944094488188976
20
0.4315452755905512
11
0.495065
21
0.4348410236220472
0
LINE
8
BLACK
6
CONTINUOUS
10
0.495065
20
0.4348410236220472
11
0.4969318897637795
21
0.4376350393700787
0
LINE
8
BLACK
6
CONTINUOUS
10
0.4969318897637795
20
0.4376350393700787
11
0.499725905511811
21
0.4395019291338583
0
LINE
8
BLACK
6
CONTINUOUS
10
0.499725905511811
20
0.4395019291338583
11
0.5030216535433071
21
0.4401574803149606
0
LINE
8
BLACK
6
CONTINUOUS
10
0.5030216535433071
20
0.4401574803149606
11
0.5231988188976378
21
0.4401574803149606
0
LINE
8
BLACK
6
CONTINUOUS
10
0.5231988188976378
20
0.4401574803149606
11
0.5264945669291339
21
0.4395019291338583
0
LINE
8
BLACK
6
CONTINUOUS
10
0.716533937007874
20
0.4397972047244094
11
0.7193279527559054
21
0.4379303149606299
0
LINE
8
BLACK
6
CONTINUOUS
10
0.7193279527559054
20
0.4379303149606299
11
0.721194842519685
21
0.4351362992125984
0
LINE
8
BLACK
6
CONTINUOUS
10
0.721194842519685
20
0.4351362992125984
11
0.7218503937007874
21
0.4318405511811024
0
LINE
8
BLACK
6
CONTINUOUS
10
0.7218503937007874
20
0.4318405511811024
11
0.7218503937007874
21
0.4146161417322834
0
LINE
8
BLACK
6
CONTINUOUS
10
0.7218503937007874
20
0.4146161417322834
11
0.721194842519685
21
0.4113203937007874
0
LINE
8
BLACK
6
CONTINUOUS
10
0.721194842519685
20
0.4113203937007874
11
0.7193279527559054
21
0.4085263779527559
0
LINE
8
BLACK
6
CONTINUOUS
10
0.7193279527559054
20
0.4085263779527559
11
0.716533937007874
21
0.4066594881889763
0
LINE
8
BLACK
6
CONTINUOUS
10
0.716533937007874
20
0.4066594881889763
11
0.7132381889763779
21
0.406003937007874
0
LINE
8
BLACK
6
CONTINUOUS
10
0.7132381889763779
20
0.406003937007874
11
0.6930610236220472
21
0.406003937007874
0
LINE
8
BLACK
6
CONTINUOUS
10
0.6930610236220472
20
0.406003937007874
11
0.6897652755905511
21
0.4066594881889763
0
LINE
8
BLACK
6
CONTINUOUS
10
0.6897652755905511
20
0.4066594881889763
11
0.6869712598425197
21
0.4085263779527559
0
LINE
8
BLACK
6
CONTINUOUS
10
0.6869712598425197
20
0.4085263779527559
11
0.6851043700787401
21
0.4113203937007874
0
LINE
8
BLACK
6
CONTINUOUS
10
0.6851043700787401
20
0.4113203937007874
11
0.6844488188976378
21
0.4146161417322834
0
LINE
8
BLACK
6
CONTINUOUS
10
0.6844488188976378
20
0.4146161417322834
11
0.6844488188976378
21
0.4318405511811024
0
LINE
8
BLACK
6
CONTINUOUS
10
0.6844488188976378
20
0.4318405511811024
11
0.6851043700787401
21
0.4351362992125984
0
LINE
8
BLACK
6
CONTINUOUS
10
0.6851043700787401
20
0.4351362992125984
11
0.6869712598425197
21
0.4379303149606299
0
LINE
8
BLACK
6
CONTINUOUS
10
0.6869712598425197
20
0.4379303149606299
11
0.6897652755905511
21
0.4397972047244094
0
LINE
8
BLACK
6
CONTINUOUS
10
0.6897652755905511
20
0.4397972047244094
11
0.6930610236220472
21
0.4404527559055118
0
LINE
8
BLACK
6
CONTINUOUS
10
0.6930610236220472
20
0.4404527559055118
11
0.7132381889763779
21
0.4404527559055118
0
LINE
8
BLACK
6
CONTINUOUS
10
0.7132381889763779
20
0.4404527559055118
11
0.716533937007874
21
0.4397972047244094
0
LINE
8
BLACK
6
CONTINUOUS
10
0.2963203543307086
20
0.4415266141732284
11
0.298874842519685
21
0.4398197244094488
0
LINE
8
BLACK
6
CONTINUOUS
10
0.298874842519685
20
0.4398197244094488
11
0.3005817322834646
21
0.4372652362204724
0
LINE
8
BLACK
6
CONTINUOUS
10
0.3005817322834646
20
0.4372652362204724
11
0.3011811023622047
21
0.434251968503937
0
LINE
8
BLACK
6
CONTINUOUS
10
0.3011811023622047
20
0.434251968503937
11
0.3011811023622047
21
0.418503937007874
0
LINE
8
BLACK
6
CONTINUOUS
10
0.3011811023622047
20
0.418503937007874
11
0.3005817322834646
21
0.4154906692913386
0
LINE
8
BLACK
6
CONTINUOUS
10
0.3005817322834646
20
0.4154906692913386
11
0.298874842519685
21
0.4129361811023622
0
LINE
8
BLACK
6
CONTINUOUS
10
0.298874842519685
20
0.4129361811023622
11
0.2963203543307086
21
0.4112292913385827
0
LINE
8
BLACK
6
CONTINUOUS
10
0.2963203543307086
20
0.4112292913385827
11
0.2933070866141732
21
0.4106299212598425
0
LINE
8
BLACK
6
CONTINUOUS
10
0.2933070866141732
20
0.4106299212598425
11
0.2716535433070866
21
0.4106299212598425
0
LINE
8
BLACK
6
CONTINUOUS
10
0.2716535433070866
20
0.4106299212598425
11
0.2686402755905511
21
0.4112292913385827
0
LINE
8
BLACK
6
CONTINUOUS
10
0.2686402755905511
20
0.4112292913385827
11
0.2660857874015748
21
0.4129361811023622
0
LINE
8
BLACK
6
CONTINUOUS
10
0.2660857874015748
20
0.4129361811023622
11
0.2643788976377953
21
0.4154906692913386
0
LINE
8
BLACK
6
CONTINUOUS
10
0.2643788976377953
20
0.4154906692913386
11
0.2637795275590551
21
0.418503937007874
0
LINE
8
BLACK
6
CONTINUOUS
10
0.2637795275590551
20
0.418503937007874
11
0.2637795275590551
21
0.434251968503937
0
LINE
8
BLACK
6
CONTINUOUS
10
0.2637795275590551
20
0.434251968503937
11
0.2643788976377953
21
0.4372652362204724
0
LINE
8
BLACK
6
CONTINUOUS
10
0.2643788976377953
20
0.4372652362204724
11
0.2660857874015748
21
0.4398197244094488
0
LINE
8
BLACK
6
CONTINUOUS
10
0.2660857874015748
20
0.4398197244094488
11
0.2686402755905511
21
0.4415266141732284
0
LINE
8
BLACK
6
CONTINUOUS
10
0.2686402755905511
20
0.4415266141732284
11
0.2716535433070866
21
0.4421259842519685
0
LINE
8
BLACK
6
CONTINUOUS
10
0.2716535433070866
20
0.4421259842519685
11
0.2933070866141732
21
0.4421259842519685
0
LINE
8
BLACK
6
CONTINUOUS
10
0.2933070866141732
20
0.4421259842519685
11
0.2963203543307086
21
0.4415266141732284
0
LINE
8
BLACK
6
CONTINUOUS
10
0.4618700787401575
20
0.4186220472440945
11
0.4068700787401575
21
0.4186220472440945
0
LINE
8
BLACK
6
CONTINUOUS
10
0.4068700787401575
20
0.4186220472440945
11
0.4068700787401575
21
0.4536220472440945
0
LINE
8
BLACK
6
CONTINUOUS
10
0.4068700787401575
20
0.4536220472440945
11
0.4618700787401575
21
0.4536220472440945
0
LINE
8
BLACK
6
CONTINUOUS
10
0.4618700787401575
20
0.4536220472440945
11
0.4618700787401575
21
0.4186220472440945
0
LINE
8
BLACK
6
CONTINUOUS
10
0.1110500393700787
20
0.4608649606299213
11
0.1142431889763779
21
0.4587313779527559
0
LINE
8
BLACK
6
CONTINUOUS
10
0.1142431889763779
20
0.4587313779527559
11
0.1163767716535433
21
0.4555382283464567
0
LINE
8
BLACK
6
CONTINUOUS
10
0.1163767716535433
20
0.4555382283464567
11
0.1171259842519685
21
0.4517716535433071
0
LINE
8
BLACK
6
CONTINUOUS
10
0.1171259842519685
20
0.4517716535433071
11
0.1171259842519685
21
0.4320866141732284
0
LINE
8
BLACK
6
CONTINUOUS
10
0.1171259842519685
20
0.4320866141732284
11
0.1163767716535433
21
0.4283200393700787
0
LINE
8
BLACK
6
CONTINUOUS
10
0.1163767716535433
20
0.4283200393700787
11
0.1142431889763779
21
0.4251268897637795
0
LINE
8
BLACK
6
CONTINUOUS
10
0.1142431889763779
20
0.4251268897637795
11
0.1110500393700787
21
0.4229933070866141
0
LINE
8
BLACK
6
CONTINUOUS
10
0.1110500393700787
20
0.4229933070866141
11
0.1072834645669291
21
0.4222440944881889
0
LINE
8
BLACK
6
CONTINUOUS
10
0.1072834645669291
20
0.4222440944881889
11
0.0206692913385827
21
0.4222440944881889
0
LINE
8
BLACK
6
CONTINUOUS
10
0.0206692913385827
20
0.4222440944881889
11
0.0169027165354331
21
0.4229933070866141
0
LINE
8
BLACK
6
CONTINUOUS
10
0.0169027165354331
20
0.4229933070866141
11
0.0137095669291339
21
0.4251268897637795
0
LINE
8
BLACK
6
CONTINUOUS
10
0.0137095669291339
20
0.4251268897637795
11
0.0115759842519685
21
0.4283200393700787
0
LINE
8
BLACK
6
CONTINUOUS
10
0.0115759842519685
20
0.4283200393700787
11
0.0108267716535433
21
0.4320866141732284
0
LINE
8
BLACK
6
CONTINUOUS
10
0.0108267716535433
20
0.4320866141732284
11
0.0108267716535433
21
0.4517716535433071
0
LINE
8
BLACK
6
CONTINUOUS
10
0.0108267716535433
20
0.4517716535433071
11
0.0115759842519685
21
0.4555382283464567
0
LINE
8
BLACK
6
CONTINUOUS
10
0.0115759842519685
20
0.4555382283464567
11
0.0137095669291339
21
0.4587313779527559
0
LINE
8
BLACK
6
CONTINUOUS
10
0.0137095669291339
20
0.4587313779527559
11
0.0169027165354331
21
0.4608649606299213
0
LINE
8
BLACK
6
CONTINUOUS
10
0.0169027165354331
20
0.4608649606299213
11
0.0206692913385827
21
0.4616141732283465
0
LINE
8
BLACK
6
CONTINUOUS
10
0.0206692913385827
20
0.4616141732283465
11
0.1072834645669291
21
0.4616141732283465
0
LINE
8
BLACK
6
CONTINUOUS
10
0.1072834645669291
20
0.4616141732283465
11
0.1110500393700787
21
0.4608649606299213
0
LINE
8
BLACK
6
CONTINUOUS
10
0.9706692913385827
20
0.4271653543307086
11
0.8718503937007874
21
0.4271653543307086
0
LINE
8
BLACK
6
CONTINUOUS
10
0.8718503937007874
20
0.4271653543307086
11
0.8718503937007874
21
0.4665354330708661
0
LINE
8
BLACK
6
CONTINUOUS
10
0.8718503937007874
20
0.4665354330708661
11
0.9706692913385827
21
0.4665354330708661
0
LINE
8
BLACK
6
CONTINUOUS
10
0.9706692913385827
20
0.4665354330708661
11
0.9706692913385827
21
0.4271653543307086
0
LINE
8
BLACK
6
CONTINUOUS
10
0.7846441732283465
20
0.5014113779527559
11
0.787438188976378
21
0.4995444881889763
0
LINE
8
BLACK
6
CONTINUOUS
10
0.787438188976378
20
0.4995444881889763
11
0.7893050787401574
21
0.4967504724409449
0
LINE
8
BLACK
6
CONTINUOUS
10
0.7893050787401574
20
0.4967504724409449
11
0.7899606299212598
21
0.4934547244094488
0
LINE
8
BLACK
6
CONTINUOUS
10
0.7899606299212598
20
0.4934547244094488
11
0.7899606299212598
21
0.4762303149606299
0
LINE
8
BLACK
6
CONTINUOUS
10
0.7899606299212598
20
0.4762303149606299
11
0.7893050787401574
21
0.4729345669291338
0
LINE
8
BLACK
6
CONTINUOUS
10
0.7893050787401574
20
0.4729345669291338
11
0.787438188976378
21
0.4701405511811024
0
LINE
8
BLACK
6
CONTINUOUS
10
0.787438188976378
20
0.4701405511811024
11
0.7846441732283465
21
0.4682736614173229
0
LINE
8
BLACK
6
CONTINUOUS
10
0.7846441732283465
20
0.4682736614173229
11
0.7813484251968503
21
0.4676181102362205
0
LINE
8
BLACK
6
CONTINUOUS
10
0.7813484251968503
20
0.4676181102362205
11
0.7611712598425197
21
0.4676181102362205
0
LINE
8
BLACK
6
CONTINUOUS
10
0.7611712598425197
20
0.4676181102362205
11
0.7578755118110236
21
0.4682736614173229
0
LINE
8
BLACK
6
CONTINUOUS
10
0.7578755118110236
20
0.4682736614173229
11
0.7550814960629921
21
0.4701405511811024
0
LINE
8
BLACK
6
CONTINUOUS
10
0.7550814960629921
20
0.4701405511811024
11
0.7532146062992126
21
0.4729345669291338
0
LINE
8
BLACK
6
CONTINUOUS
10
0.7532146062992126
20
0.4729345669291338
11
0.7525590551181102
21
0.4762303149606299
0
LINE
8
BLACK
6
CONTINUOUS
10
0.7525590551181102
20
0.4762303149606299
11
0.7525590551181102
21
0.4934547244094488
0
LINE
8
BLACK
6
CONTINUOUS
10
0.7525590551181102
20
0.4934547244094488
11
0.7532146062992126
21
0.4967504724409449
0
LINE
8
BLACK
6
CONTINUOUS
10
0.7532146062992126
20
0.4967504724409449
11
0.7550814960629921
21
0.4995444881889763
0
LINE
8
BLACK
6
CONTINUOUS
10
0.7550814960629921
20
0.4995444881889763
11
0.7578755118110236
21
0.5014113779527559
0
LINE
8
BLACK
6
CONTINUOUS
10
0.7578755118110236
20
0.5014113779527559
11
0.7611712598425197
21
0.5020669291338583
0
LINE
8
BLACK
6
CONTINUOUS
10
0.7611712598425197
20
0.5020669291338583
11
0.7813484251968503
21
0.5020669291338583
0
LINE
8
BLACK
6
CONTINUOUS
10
0.7813484251968503
20
0.5020669291338583
11
0.7846441732283465
21
0.5014113779527559
0
LINE
8
BLACK
6
CONTINUOUS
10
0.716533937007874
20
0.5018050787401575
11
0.7193279527559054
21
0.4999381889763779
0
LINE
8
BLACK
6
CONTINUOUS
10
0.7193279527559054
20
0.4999381889763779
11
0.721194842519685
21
0.4971441732283464
0
LINE
8
BLACK
6
CONTINUOUS
10
0.721194842519685
20
0.4971441732283464
11
0.7218503937007874
21
0.4938484251968504
0
LINE
8
BLACK
6
CONTINUOUS
10
0.7218503937007874
20
0.4938484251968504
11
0.7218503937007874
21
0.4766240157480315
0
LINE
8
BLACK
6
CONTINUOUS
10
0.7218503937007874
20
0.4766240157480315
11
0.721194842519685
21
0.4733282677165354
0
LINE
8
BLACK
6
CONTINUOUS
10
0.721194842519685
20
0.4733282677165354
11
0.7193279527559054
21
0.4705342519685039
0
LINE
8
BLACK
6
CONTINUOUS
10
0.7193279527559054
20
0.4705342519685039
11
0.716533937007874
21
0.4686673622047244
0
LINE
8
BLACK
6
CONTINUOUS
10
0.716533937007874
20
0.4686673622047244
11
0.7132381889763779
21
0.468011811023622
0
LINE
8
BLACK
6
CONTINUOUS
10
0.7132381889763779
20
0.468011811023622
11
0.6930610236220472
21
0.468011811023622
0
LINE
8
BLACK
6
CONTINUOUS
10
0.6930610236220472
20
0.468011811023622
11
0.6897652755905511
21
0.4686673622047244
0
LINE
8
BLACK
6
CONTINUOUS
10
0.6897652755905511
20
0.4686673622047244
11
0.6869712598425197
21
0.4705342519685039
0
LINE
8
BLACK
6
CONTINUOUS
10
0.6869712598425197
20
0.4705342519685039
11
0.6851043700787401
21
0.4733282677165354
0
LINE
8
BLACK
6
CONTINUOUS
10
0.6851043700787401
20
0.4733282677165354
11
0.6844488188976378
21
0.4766240157480315
0
LINE
8
BLACK
6
CONTINUOUS
10
0.6844488188976378
20
0.4766240157480315
11
0.6844488188976378
21
0.4938484251968504
0
LINE
8
BLACK
6
CONTINUOUS
10
0.6844488188976378
20
0.4938484251968504
11
0.6851043700787401
21
0.4971441732283464
0
LINE
8
BLACK
6
CONTINUOUS
10
0.6851043700787401
20
0.4971441732283464
11
0.6869712598425197
21
0.4999381889763779
0
LINE
8
BLACK
6
CONTINUOUS
10
0.6869712598425197
20
0.4999381889763779
11
0.6897652755905511
21
0.5018050787401575
0
LINE
8
BLACK
6
CONTINUOUS
10
0.6897652755905511
20
0.5018050787401575
11
0.6930610236220472
21
0.5024606299212598
0
LINE
8
BLACK
6
CONTINUOUS
10
0.6930610236220472
20
0.5024606299212598
11
0.7132381889763779
21
0.5024606299212598
0
LINE
8
BLACK
6
CONTINUOUS
10
0.7132381889763779
20
0.5024606299212598
11
0.716533937007874
21
0.5018050787401575
  0
ENDSEC
  0
EOF
