  0
SECTION
  2
HEADER
  9
$ANGBASE
  50
0.0
  9
$ANGDIR
  70
1
  9
$MEASUREMENT
  70
0
  0
ENDSEC
  0
SECTION
  2
TABLES
  0
TABLE
  2
LTYPE
  70
4
  0
LTYPE
  5
40F
  2
CONTINUOUS
  70
0
  3
Solid line
  72
65
  73
0
  40
0.0
  0
LTYPE
  5
410
  2
DASHDOT
 70
0
  3
Dash Dot ____ _ ____ _
 72
65
 73
4
 40
2.0
 49
1.25
 49
-0.25
 49
0.25
 49
-0.25
  0
LTYPE
  5
411
  2
DASHED
 70
0
  3
Dashed __ __ __ __ __
 72
65
 73
2
 40
0.75
 49
0.5
 49
-0.25
  0
LTYPE
  5
43B
  2
DOTTED
 70
0
  3
Dotted .  .  .  .
 72
65
 73
2
 40
0.2
 49
0.0
 49
-0.2
  0
ENDTAB
  0
TABLE
  2
STYLE
  70
4
  0
STYLE
  2
KICAD
  70
0
  40
0
  41
1
  42
1
  50
0
  71
0
  3
isocp.shx
  0
STYLE
  2
KICADB
  70
0
  40
0
  41
1
  42
1
  50
0
  71
0
  3
isocp.shx
  0
STYLE
  2
KICADI
  70
0
  40
0
  41
1
  42
1
  50
15
  71
0
  3
isocp.shx
  0
STYLE
  2
KICADBI
  70
0
  40
0
  41
1
  42
1
  50
15
  71
0
  3
isocp.shx
  0
ENDTAB
  0
TABLE
  2
LAYER
  70
1
  0
LAYER
  2
BLACK
  70
0
  62
7
  6
CONTINUOUS
  0
ENDTAB
  0
ENDSEC
  0
SECTION
  2
ENTITIES
0
LINE
8
BLACK
6
CONTINUOUS
10
0.4748725590551181
20
-1.257608622047244
11
0.4756872047244095
21
-1.2584232677165355
0
LINE
8
BLACK
6
CONTINUOUS
10
0.4756872047244095
20
-1.2584232677165355
11
0.4761281102362205
21
-1.2594876771653543
0
LINE
8
BLACK
6
CONTINUOUS
10
0.4761281102362205
20
-1.2594876771653543
11
0.476184842519685
21
-1.2600637401574803
0
LINE
8
BLACK
6
CONTINUOUS
10
0.476184842519685
20
-1.2600637401574803
11
0.476184842519685
21
-1.2754323228346456
0
LINE
8
BLACK
6
CONTINUOUS
10
0.476184842519685
20
-1.2754323228346456
11
0.4936413385826772
21
-1.2579758267716534
0
LINE
8
BLACK
6
CONTINUOUS
10
0.4936413385826772
20
-1.2579758267716534
11
0.494088779527559
21
-1.257608622047244
0
LINE
8
BLACK
6
CONTINUOUS
10
0.494088779527559
20
-1.257608622047244
11
0.4951531889763779
21
-1.2571677165354331
0
LINE
8
BLACK
6
CONTINUOUS
10
0.4951531889763779
20
-1.2571677165354331
11
0.4963052755905512
21
-1.2571677165354331
0
LINE
8
BLACK
6
CONTINUOUS
10
0.4963052755905512
20
-1.2571677165354331
11
0.4973697244094488
21
-1.257608622047244
0
LINE
8
BLACK
6
CONTINUOUS
10
0.4973697244094488
20
-1.257608622047244
11
0.4981843700787402
21
-1.2584232677165355
0
LINE
8
BLACK
6
CONTINUOUS
10
0.4981843700787402
20
-1.2584232677165355
11
0.4986252755905511
21
-1.259487716535433
0
LINE
8
BLACK
6
CONTINUOUS
10
0.4986252755905511
20
-1.259487716535433
11
0.4986252755905511
21
-1.2606398031496062
0
LINE
8
BLACK
6
CONTINUOUS
10
0.4986252755905511
20
-1.2606398031496062
11
0.4981843700787402
21
-1.2617042125984252
0
LINE
8
BLACK
6
CONTINUOUS
10
0.4981843700787402
20
-1.2617042125984252
11
0.4978171653543307
21
-1.2621516535433071
0
LINE
8
BLACK
6
CONTINUOUS
10
0.4978171653543307
20
-1.2621516535433071
11
0.4827551181102362
21
-1.2772136614173228
0
LINE
8
BLACK
6
CONTINUOUS
10
0.4827551181102362
20
-1.2772136614173228
11
0.4980914566929134
21
-1.2976621653543308
0
LINE
8
BLACK
6
CONTINUOUS
10
0.4980914566929134
20
-1.2976621653543308
11
0.4983917322834646
21
-1.2981570472440944
0
LINE
8
BLACK
6
CONTINUOUS
10
0.4983917322834646
20
-1.2981570472440944
11
0.4986776377952756
21
-1.2992731496062992
0
LINE
8
BLACK
6
CONTINUOUS
10
0.4986776377952756
20
-1.2992731496062992
11
0.4985146850393701
21
-1.300413622047244
0
LINE
8
BLACK
6
CONTINUOUS
10
0.4985146850393701
20
-1.300413622047244
11
0.4979277165354331
21
-1.3014049999999999
0
LINE
8
BLACK
6
CONTINUOUS
10
0.4979277165354331
20
-1.3014049999999999
11
0.4970060236220472
21
-1.3020962992125984
0
LINE
8
BLACK
6
CONTINUOUS
10
0.4970060236220472
20
-1.3020962992125984
11
0.4958899606299212
21
-1.3023822047244094
0
LINE
8
BLACK
6
CONTINUOUS
10
0.4958899606299212
20
-1.3023822047244094
11
0.4947494488188977
21
-1.3022192913385826
0
LINE
8
BLACK
6
CONTINUOUS
10
0.4947494488188977
20
-1.3022192913385826
11
0.4937580708661417
21
-1.3016322834645668
0
LINE
8
BLACK
6
CONTINUOUS
10
0.4937580708661417
20
-1.3016322834645668
11
0.4933670472440945
21
-1.3012054724409448
0
LINE
8
BLACK
6
CONTINUOUS
10
0.4933670472440945
20
-1.3012054724409448
11
0.4785368897637795
21
-1.2814318897637795
0
LINE
8
BLACK
6
CONTINUOUS
10
0.4785368897637795
20
-1.2814318897637795
11
0.476184842519685
21
-1.2837839763779528
0
LINE
8
BLACK
6
CONTINUOUS
10
0.476184842519685
20
-1.2837839763779528
11
0.476184842519685
21
-1.2994338188976378
0
LINE
8
BLACK
6
CONTINUOUS
10
0.476184842519685
20
-1.2994338188976378
11
0.4761281102362205
21
-1.3000098818897639
0
LINE
8
BLACK
6
CONTINUOUS
10
0.4761281102362205
20
-1.3000098818897639
11
0.4756872047244095
21
-1.3010742913385827
0
LINE
8
BLACK
6
CONTINUOUS
10
0.4756872047244095
20
-1.3010742913385827
11
0.4748725590551181
21
-1.3018889370078739
0
LINE
8
BLACK
6
CONTINUOUS
10
0.4748725590551181
20
-1.3018889370078739
11
0.4738081496062992
21
-1.302329842519685
0
LINE
8
BLACK
6
CONTINUOUS
10
0.4738081496062992
20
-1.302329842519685
11
0.4726560236220472
21
-1.302329842519685
0
LINE
8
BLACK
6
CONTINUOUS
10
0.4726560236220472
20
-1.302329842519685
11
0.4715916141732283
21
-1.3018889370078739
0
LINE
8
BLACK
6
CONTINUOUS
10
0.4715916141732283
20
-1.3018889370078739
11
0.470776968503937
21
-1.3010742913385827
0
LINE
8
BLACK
6
CONTINUOUS
10
0.470776968503937
20
-1.3010742913385827
11
0.470336062992126
21
-1.3000098818897639
0
LINE
8
BLACK
6
CONTINUOUS
10
0.470336062992126
20
-1.3000098818897639
11
0.4702793307086614
21
-1.2994338188976378
0
LINE
8
BLACK
6
CONTINUOUS
10
0.4702793307086614
20
-1.2994338188976378
11
0.4702793307086614
21
-1.2600637401574803
0
LINE
8
BLACK
6
CONTINUOUS
10
0.4702793307086614
20
-1.2600637401574803
11
0.470336062992126
21
-1.2594876771653543
0
LINE
8
BLACK
6
CONTINUOUS
10
0.470336062992126
20
-1.2594876771653543
11
0.470776968503937
21
-1.2584232677165355
0
LINE
8
BLACK
6
CONTINUOUS
10
0.470776968503937
20
-1.2584232677165355
11
0.4715916141732283
21
-1.257608622047244
0
LINE
8
BLACK
6
CONTINUOUS
10
0.4715916141732283
20
-1.257608622047244
11
0.4726560236220472
21
-1.2571677165354331
0
LINE
8
BLACK
6
CONTINUOUS
10
0.4726560236220472
20
-1.2571677165354331
11
0.4738081496062992
21
-1.2571677165354331
0
LINE
8
BLACK
6
CONTINUOUS
10
0.4738081496062992
20
-1.2571677165354331
11
0.4748725590551181
21
-1.257608622047244
0
LINE
8
BLACK
6
CONTINUOUS
10
-2.0940250787401573
20
-0.8540653149606299
11
-2.0932104330708663
21
-0.8548799606299212
0
LINE
8
BLACK
6
CONTINUOUS
10
-2.0932104330708663
20
-0.8548799606299212
11
-2.0927695275590552
21
-0.8559443700787401
0
LINE
8
BLACK
6
CONTINUOUS
10
-2.0927695275590552
20
-0.8559443700787401
11
-2.0927127952755904
21
-0.8565204330708661
0
LINE
8
BLACK
6
CONTINUOUS
10
-2.0927127952755904
20
-0.8565204330708661
11
-2.0927127952755904
21
-0.8718890157480315
0
LINE
8
BLACK
6
CONTINUOUS
10
-2.0927127952755904
20
-0.8718890157480315
11
-2.0752562992125982
21
-0.8544325196850393
0
LINE
8
BLACK
6
CONTINUOUS
10
-2.0752562992125982
20
-0.8544325196850393
11
-2.0748088582677164
21
-0.8540653149606299
0
LINE
8
BLACK
6
CONTINUOUS
10
-2.0748088582677164
20
-0.8540653149606299
11
-2.0737444488188976
21
-0.8536244094488189
0
LINE
8
BLACK
6
CONTINUOUS
10
-2.0737444488188976
20
-0.8536244094488189
11
-2.0725923622047242
21
-0.8536244094488189
0
LINE
8
BLACK
6
CONTINUOUS
10
-2.0725923622047242
20
-0.8536244094488189
11
-2.0715279133858266
21
-0.8540653149606299
0
LINE
8
BLACK
6
CONTINUOUS
10
-2.0715279133858266
20
-0.8540653149606299
11
-2.0707132677165352
21
-0.8548799606299212
0
LINE
8
BLACK
6
CONTINUOUS
10
-2.0707132677165352
20
-0.8548799606299212
11
-2.0702723622047245
21
-0.8559444094488189
0
LINE
8
BLACK
6
CONTINUOUS
10
-2.0702723622047245
20
-0.8559444094488189
11
-2.0702723622047245
21
-0.8570964960629921
0
LINE
8
BLACK
6
CONTINUOUS
10
-2.0702723622047245
20
-0.8570964960629921
11
-2.0707132677165352
21
-0.858160905511811
0
LINE
8
BLACK
6
CONTINUOUS
10
-2.0707132677165352
20
-0.858160905511811
11
-2.0710804724409448
21
-0.8586083464566929
0
LINE
8
BLACK
6
CONTINUOUS
10
-2.0710804724409448
20
-0.8586083464566929
11
-2.0861425196850392
21
-0.8736703543307086
0
LINE
8
BLACK
6
CONTINUOUS
10
-2.0861425196850392
20
-0.8736703543307086
11
-2.0708061811023621
21
-0.8941188582677165
0
LINE
8
BLACK
6
CONTINUOUS
10
-2.0708061811023621
20
-0.8941188582677165
11
-2.0705059055118111
21
-0.8946137401574803
0
LINE
8
BLACK
6
CONTINUOUS
10
-2.0705059055118111
20
-0.8946137401574803
11
-2.0702199999999999
21
-0.895729842519685
0
LINE
8
BLACK
6
CONTINUOUS
10
-2.0702199999999999
20
-0.895729842519685
11
-2.0703829527559057
21
-0.8968703149606299
0
LINE
8
BLACK
6
CONTINUOUS
10
-2.0703829527559057
20
-0.8968703149606299
11
-2.0709699212598425
21
-0.8978616929133858
0
LINE
8
BLACK
6
CONTINUOUS
10
-2.0709699212598425
20
-0.8978616929133858
11
-2.0718916141732282
21
-0.8985529921259843
0
LINE
8
BLACK
6
CONTINUOUS
10
-2.0718916141732282
20
-0.8985529921259843
11
-2.0730076771653545
21
-0.8988388976377952
0
LINE
8
BLACK
6
CONTINUOUS
10
-2.0730076771653545
20
-0.8988388976377952
11
-2.0741481889763778
21
-0.8986759842519685
0
LINE
8
BLACK
6
CONTINUOUS
10
-2.0741481889763778
20
-0.8986759842519685
11
-2.0751395669291339
21
-0.8980889763779527
0
LINE
8
BLACK
6
CONTINUOUS
10
-2.0751395669291339
20
-0.8980889763779527
11
-2.0755305905511809
21
-0.8976621653543307
0
LINE
8
BLACK
6
CONTINUOUS
10
-2.0755305905511809
20
-0.8976621653543307
11
-2.0903607480314959
21
-0.8778885826771653
0
LINE
8
BLACK
6
CONTINUOUS
10
-2.0903607480314959
20
-0.8778885826771653
11
-2.0927127952755904
21
-0.8802406692913386
0
LINE
8
BLACK
6
CONTINUOUS
10
-2.0927127952755904
20
-0.8802406692913386
11
-2.0927127952755904
21
-0.8958905118110236
0
LINE
8
BLACK
6
CONTINUOUS
10
-2.0927127952755904
20
-0.8958905118110236
11
-2.0927695275590552
21
-0.8964665748031496
0
LINE
8
BLACK
6
CONTINUOUS
10
-2.0927695275590552
20
-0.8964665748031496
11
-2.0932104330708663
21
-0.8975309842519685
0
LINE
8
BLACK
6
CONTINUOUS
10
-2.0932104330708663
20
-0.8975309842519685
11
-2.0940250787401573
21
-0.8983456299212598
0
LINE
8
BLACK
6
CONTINUOUS
10
-2.0940250787401573
20
-0.8983456299212598
11
-2.0950894881889761
21
-0.8987865354330709
0
LINE
8
BLACK
6
CONTINUOUS
10
-2.0950894881889761
20
-0.8987865354330709
11
-2.0962416141732283
21
-0.8987865354330709
0
LINE
8
BLACK
6
CONTINUOUS
10
-2.0962416141732283
20
-0.8987865354330709
11
-2.0973060236220471
21
-0.8983456299212598
0
LINE
8
BLACK
6
CONTINUOUS
10
-2.0973060236220471
20
-0.8983456299212598
11
-2.0981206692913386
21
-0.8975309842519685
0
LINE
8
BLACK
6
CONTINUOUS
10
-2.0981206692913386
20
-0.8975309842519685
11
-2.0985615748031496
21
-0.8964665748031496
0
LINE
8
BLACK
6
CONTINUOUS
10
-2.0985615748031496
20
-0.8964665748031496
11
-2.098618307086614
21
-0.8958905118110236
0
LINE
8
BLACK
6
CONTINUOUS
10
-2.098618307086614
20
-0.8958905118110236
11
-2.098618307086614
21
-0.8565204330708661
0
LINE
8
BLACK
6
CONTINUOUS
10
-2.098618307086614
20
-0.8565204330708661
11
-2.0985615748031496
21
-0.8559443700787401
0
LINE
8
BLACK
6
CONTINUOUS
10
-2.0985615748031496
20
-0.8559443700787401
11
-2.0981206692913386
21
-0.8548799606299212
0
LINE
8
BLACK
6
CONTINUOUS
10
-2.0981206692913386
20
-0.8548799606299212
11
-2.0973060236220471
21
-0.8540653149606299
0
LINE
8
BLACK
6
CONTINUOUS
10
-2.0973060236220471
20
-0.8540653149606299
11
-2.0962416141732283
21
-0.8536244094488189
0
LINE
8
BLACK
6
CONTINUOUS
10
-2.0962416141732283
20
-0.8536244094488189
11
-2.0950894881889761
21
-0.8536244094488189
0
LINE
8
BLACK
6
CONTINUOUS
10
-2.0950894881889761
20
-0.8536244094488189
11
-2.0940250787401573
21
-0.8540653149606299
0
CIRCLE
8
BLACK
10
0.9547244094488189
20
0.7086614173228346
40
0.0068897637795276
0
CIRCLE
8
BLACK
10
0.9547244094488189
20
0.6086614173228346
40
0.0068897637795276
0
CIRCLE
8
BLACK
10
0.9547244094488189
20
0.5086614173228347
40
0.0068897637795276
0
CIRCLE
8
BLACK
10
0.9547244094488189
20
0.4086614173228346
40
0.0068897637795276
0
CIRCLE
8
BLACK
10
0.9547244094488189
20
0.3086614173228346
40
0.0068897637795276
  0
ENDSEC
  0
EOF
