  0
SECTION
  2
HEADER
  9
$ANGBASE
  50
0.0
  9
$ANGDIR
  70
1
  9
$MEASUREMENT
  70
0
  0
ENDSEC
  0
SECTION
  2
TABLES
  0
TABLE
  2
LTYPE
  70
4
  0
LTYPE
  5
40F
  2
CONTINUOUS
  70
0
  3
Solid line
  72
65
  73
0
  40
0.0
  0
LTYPE
  5
410
  2
DASHDOT
 70
0
  3
Dash Dot ____ _ ____ _
 72
65
 73
4
 40
2.0
 49
1.25
 49
-0.25
 49
0.25
 49
-0.25
  0
LTYPE
  5
411
  2
DASHED
 70
0
  3
Dashed __ __ __ __ __
 72
65
 73
2
 40
0.75
 49
0.5
 49
-0.25
  0
LTYPE
  5
43B
  2
DOTTED
 70
0
  3
Dotted .  .  .  .
 72
65
 73
2
 40
0.2
 49
0.0
 49
-0.2
  0
ENDTAB
  0
TABLE
  2
STYLE
  70
4
  0
STYLE
  2
KICAD
  70
0
  40
0
  41
1
  42
1
  50
0
  71
0
  3
isocp.shx
  0
STYLE
  2
KICADB
  70
0
  40
0
  41
1
  42
1
  50
0
  71
0
  3
isocp.shx
  0
STYLE
  2
KICADI
  70
0
  40
0
  41
1
  42
1
  50
15
  71
0
  3
isocp.shx
  0
STYLE
  2
KICADBI
  70
0
  40
0
  41
1
  42
1
  50
15
  71
0
  3
isocp.shx
  0
ENDTAB
  0
TABLE
  2
LAYER
  70
1
  0
LAYER
  2
BLACK
  70
0
  62
7
  6
CONTINUOUS
  0
ENDTAB
  0
ENDSEC
  0
SECTION
  2
ENTITIES
0
LINE
8
BLACK
6
CONTINUOUS
10
-1.9488188976377951
20
-0.8651574803149606
11
-1.9448649212598426
21
-0.8657837401574803
0
LINE
8
BLACK
6
CONTINUOUS
10
-1.9448649212598426
20
-0.8657837401574803
11
-1.9412980314960628
21
-0.8676011417322834
0
LINE
8
BLACK
6
CONTINUOUS
10
-1.9412980314960628
20
-0.8676011417322834
11
-1.9384672834645669
21
-0.8704318897637795
0
LINE
8
BLACK
6
CONTINUOUS
10
-1.9384672834645669
20
-0.8704318897637795
11
-1.9366498818897637
21
-0.873998779527559
0
LINE
8
BLACK
6
CONTINUOUS
10
-1.9366498818897637
20
-0.873998779527559
11
-1.936023622047244
21
-0.8779527559055118
0
LINE
8
BLACK
6
CONTINUOUS
10
-1.936023622047244
20
-0.8779527559055118
11
-1.936023622047244
21
-0.9330708661417323
0
LINE
8
BLACK
6
CONTINUOUS
10
-1.936023622047244
20
-0.9330708661417323
11
-1.9366498818897637
21
-0.937024842519685
0
LINE
8
BLACK
6
CONTINUOUS
10
-1.9366498818897637
20
-0.937024842519685
11
-1.9384672834645669
21
-0.9405917322834646
0
LINE
8
BLACK
6
CONTINUOUS
10
-1.9384672834645669
20
-0.9405917322834646
11
-1.9412980314960628
21
-0.9434224803149606
0
LINE
8
BLACK
6
CONTINUOUS
10
-1.9412980314960628
20
-0.9434224803149606
11
-1.9448649212598426
21
-0.9452398818897637
0
LINE
8
BLACK
6
CONTINUOUS
10
-1.9448649212598426
20
-0.9452398818897637
11
-1.9488188976377951
21
-0.9458661417322834
0
LINE
8
BLACK
6
CONTINUOUS
10
-1.9488188976377951
20
-0.9458661417322834
11
-2.0118110236220472
21
-0.9458661417322834
0
LINE
8
BLACK
6
CONTINUOUS
10
-2.0118110236220472
20
-0.9458661417322834
11
-2.015765
21
-0.9452398818897637
0
LINE
8
BLACK
6
CONTINUOUS
10
-2.015765
20
-0.9452398818897637
11
-2.0193318897637793
21
-0.9434224803149606
0
LINE
8
BLACK
6
CONTINUOUS
10
-2.0193318897637793
20
-0.9434224803149606
11
-2.0221626377952755
21
-0.9405917322834646
0
LINE
8
BLACK
6
CONTINUOUS
10
-2.0221626377952755
20
-0.9405917322834646
11
-2.0239800393700786
21
-0.937024842519685
0
LINE
8
BLACK
6
CONTINUOUS
10
-2.0239800393700786
20
-0.937024842519685
11
-2.0246062992125982
21
-0.9330708661417323
0
LINE
8
BLACK
6
CONTINUOUS
10
-2.0246062992125982
20
-0.9330708661417323
11
-2.0246062992125982
21
-0.8779527559055118
0
LINE
8
BLACK
6
CONTINUOUS
10
-2.0246062992125982
20
-0.8779527559055118
11
-2.0239800393700786
21
-0.873998779527559
0
LINE
8
BLACK
6
CONTINUOUS
10
-2.0239800393700786
20
-0.873998779527559
11
-2.0221626377952755
21
-0.8704318897637795
0
LINE
8
BLACK
6
CONTINUOUS
10
-2.0221626377952755
20
-0.8704318897637795
11
-2.0193318897637793
21
-0.8676011417322834
0
LINE
8
BLACK
6
CONTINUOUS
10
-2.0193318897637793
20
-0.8676011417322834
11
-2.015765
21
-0.8657837401574803
0
LINE
8
BLACK
6
CONTINUOUS
10
-2.015765
20
-0.8657837401574803
11
-2.0118110236220472
21
-0.8651574803149606
0
LINE
8
BLACK
6
CONTINUOUS
10
-2.0118110236220472
20
-0.8651574803149606
11
-1.9488188976377951
21
-0.8651574803149606
0
LINE
8
BLACK
6
CONTINUOUS
10
-2.0118110236220472
20
-0.8671259842519685
11
-2.0135258267716534
21
-0.8671259842519685
0
LINE
8
BLACK
6
CONTINUOUS
10
-2.0135258267716534
20
-0.8671259842519685
11
-2.0167875590551181
21
-0.8681857874015748
0
LINE
8
BLACK
6
CONTINUOUS
10
-2.0167875590551181
20
-0.8681857874015748
11
-2.019562125984252
21
-0.870201653543307
0
LINE
8
BLACK
6
CONTINUOUS
10
-2.019562125984252
20
-0.870201653543307
11
-2.0215779921259842
21
-0.8729762204724409
0
LINE
8
BLACK
6
CONTINUOUS
10
-2.0215779921259842
20
-0.8729762204724409
11
-2.0226377952755903
21
-0.8762379527559055
0
LINE
8
BLACK
6
CONTINUOUS
10
-2.0226377952755903
20
-0.8762379527559055
11
-2.0226377952755903
21
-0.8779527559055118
0
LINE
8
BLACK
6
CONTINUOUS
10
-2.0226377952755903
20
-0.8779527559055118
11
-2.0226377952755903
21
-0.9330708661417323
0
LINE
8
BLACK
6
CONTINUOUS
10
-2.0226377952755903
20
-0.9330708661417323
11
-2.0226377952755903
21
-0.9347856692913386
0
LINE
8
BLACK
6
CONTINUOUS
10
-2.0226377952755903
20
-0.9347856692913386
11
-2.0215779921259842
21
-0.9380474015748032
0
LINE
8
BLACK
6
CONTINUOUS
10
-2.0215779921259842
20
-0.9380474015748032
11
-2.019562125984252
21
-0.940821968503937
0
LINE
8
BLACK
6
CONTINUOUS
10
-2.019562125984252
20
-0.940821968503937
11
-2.0167875590551181
21
-0.9428378346456693
0
LINE
8
BLACK
6
CONTINUOUS
10
-2.0167875590551181
20
-0.9428378346456693
11
-2.0135258267716534
21
-0.9438976377952756
0
LINE
8
BLACK
6
CONTINUOUS
10
-2.0135258267716534
20
-0.9438976377952756
11
-2.0118110236220472
21
-0.9438976377952756
0
LINE
8
BLACK
6
CONTINUOUS
10
-2.0118110236220472
20
-0.9438976377952756
11
-1.9488188976377951
21
-0.9438976377952756
0
LINE
8
BLACK
6
CONTINUOUS
10
-1.9488188976377951
20
-0.9438976377952756
11
-1.947104094488189
21
-0.9438976377952756
0
LINE
8
BLACK
6
CONTINUOUS
10
-1.947104094488189
20
-0.9438976377952756
11
-1.9438423622047243
21
-0.9428378346456693
0
LINE
8
BLACK
6
CONTINUOUS
10
-1.9438423622047243
20
-0.9428378346456693
11
-1.9410677952755906
21
-0.940821968503937
0
LINE
8
BLACK
6
CONTINUOUS
10
-1.9410677952755906
20
-0.940821968503937
11
-1.9390519291338582
21
-0.9380474015748032
0
LINE
8
BLACK
6
CONTINUOUS
10
-1.9390519291338582
20
-0.9380474015748032
11
-1.9379921259842519
21
-0.9347856692913386
0
LINE
8
BLACK
6
CONTINUOUS
10
-1.9379921259842519
20
-0.9347856692913386
11
-1.9379921259842519
21
-0.9330708661417323
0
LINE
8
BLACK
6
CONTINUOUS
10
-1.9379921259842519
20
-0.9330708661417323
11
-1.9379921259842519
21
-0.8779527559055118
0
LINE
8
BLACK
6
CONTINUOUS
10
-1.9379921259842519
20
-0.8779527559055118
11
-1.9379921259842519
21
-0.8762379527559055
0
LINE
8
BLACK
6
CONTINUOUS
10
-1.9379921259842519
20
-0.8762379527559055
11
-1.9390519291338582
21
-0.8729762204724409
0
LINE
8
BLACK
6
CONTINUOUS
10
-1.9390519291338582
20
-0.8729762204724409
11
-1.9410677952755906
21
-0.870201653543307
0
LINE
8
BLACK
6
CONTINUOUS
10
-1.9410677952755906
20
-0.870201653543307
11
-1.9438423622047243
21
-0.8681857874015748
0
LINE
8
BLACK
6
CONTINUOUS
10
-1.9438423622047243
20
-0.8681857874015748
11
-1.947104094488189
21
-0.8671259842519685
0
LINE
8
BLACK
6
CONTINUOUS
10
-1.947104094488189
20
-0.8671259842519685
11
-1.9488188976377951
21
-0.8671259842519685
0
LINE
8
BLACK
6
CONTINUOUS
10
-1.9488188976377951
20
-0.8671259842519685
11
-2.0118110236220472
21
-0.8671259842519685
0
LINE
8
BLACK
6
CONTINUOUS
10
0.405511811023622
20
-0.8061023622047244
11
0.4094657874015748
21
-0.806728622047244
0
LINE
8
BLACK
6
CONTINUOUS
10
0.4094657874015748
20
-0.806728622047244
11
0.4130326771653543
21
-0.8085460236220472
0
LINE
8
BLACK
6
CONTINUOUS
10
0.4130326771653543
20
-0.8085460236220472
11
0.4158634251968504
21
-0.8113767716535433
0
LINE
8
BLACK
6
CONTINUOUS
10
0.4158634251968504
20
-0.8113767716535433
11
0.4176808267716535
21
-0.8149436614173228
0
LINE
8
BLACK
6
CONTINUOUS
10
0.4176808267716535
20
-0.8149436614173228
11
0.4183070866141732
21
-0.8188976377952756
0
LINE
8
BLACK
6
CONTINUOUS
10
0.4183070866141732
20
-0.8188976377952756
11
0.4183070866141732
21
-0.8740157480314961
0
LINE
8
BLACK
6
CONTINUOUS
10
0.4183070866141732
20
-0.8740157480314961
11
0.4176808267716535
21
-0.8779697244094488
0
LINE
8
BLACK
6
CONTINUOUS
10
0.4176808267716535
20
-0.8779697244094488
11
0.4158634251968504
21
-0.8815366141732284
0
LINE
8
BLACK
6
CONTINUOUS
10
0.4158634251968504
20
-0.8815366141732284
11
0.4130326771653543
21
-0.8843673622047243
0
LINE
8
BLACK
6
CONTINUOUS
10
0.4130326771653543
20
-0.8843673622047243
11
0.4094657874015748
21
-0.8861847637795275
0
LINE
8
BLACK
6
CONTINUOUS
10
0.4094657874015748
20
-0.8861847637795275
11
0.405511811023622
21
-0.8868110236220472
0
LINE
8
BLACK
6
CONTINUOUS
10
0.405511811023622
20
-0.8868110236220472
11
0.3425196850393701
21
-0.8868110236220472
0
LINE
8
BLACK
6
CONTINUOUS
10
0.3425196850393701
20
-0.8868110236220472
11
0.3385657086614173
21
-0.8861847637795275
0
LINE
8
BLACK
6
CONTINUOUS
10
0.3385657086614173
20
-0.8861847637795275
11
0.3349988188976378
21
-0.8843673622047243
0
LINE
8
BLACK
6
CONTINUOUS
10
0.3349988188976378
20
-0.8843673622047243
11
0.3321680708661418
21
-0.8815366141732284
0
LINE
8
BLACK
6
CONTINUOUS
10
0.3321680708661418
20
-0.8815366141732284
11
0.3303506692913386
21
-0.8779697244094488
0
LINE
8
BLACK
6
CONTINUOUS
10
0.3303506692913386
20
-0.8779697244094488
11
0.3297244094488189
21
-0.8740157480314961
0
LINE
8
BLACK
6
CONTINUOUS
10
0.3297244094488189
20
-0.8740157480314961
11
0.3297244094488189
21
-0.8188976377952756
0
LINE
8
BLACK
6
CONTINUOUS
10
0.3297244094488189
20
-0.8188976377952756
11
0.3303506692913386
21
-0.8149436614173228
0
LINE
8
BLACK
6
CONTINUOUS
10
0.3303506692913386
20
-0.8149436614173228
11
0.3321680708661418
21
-0.8113767716535433
0
LINE
8
BLACK
6
CONTINUOUS
10
0.3321680708661418
20
-0.8113767716535433
11
0.3349988188976378
21
-0.8085460236220472
0
LINE
8
BLACK
6
CONTINUOUS
10
0.3349988188976378
20
-0.8085460236220472
11
0.3385657086614173
21
-0.806728622047244
0
LINE
8
BLACK
6
CONTINUOUS
10
0.3385657086614173
20
-0.806728622047244
11
0.3425196850393701
21
-0.8061023622047244
0
LINE
8
BLACK
6
CONTINUOUS
10
0.3425196850393701
20
-0.8061023622047244
11
0.405511811023622
21
-0.8061023622047244
0
LINE
8
BLACK
6
CONTINUOUS
10
0.3425196850393701
20
-0.8080708661417323
11
0.3408048818897638
21
-0.8080708661417323
0
LINE
8
BLACK
6
CONTINUOUS
10
0.3408048818897638
20
-0.8080708661417323
11
0.3375431496062992
21
-0.8091306692913386
0
LINE
8
BLACK
6
CONTINUOUS
10
0.3375431496062992
20
-0.8091306692913386
11
0.3347685826771654
21
-0.8111465354330708
0
LINE
8
BLACK
6
CONTINUOUS
10
0.3347685826771654
20
-0.8111465354330708
11
0.3327527165354331
21
-0.8139211023622047
0
LINE
8
BLACK
6
CONTINUOUS
10
0.3327527165354331
20
-0.8139211023622047
11
0.3316929133858267
21
-0.8171828346456693
0
LINE
8
BLACK
6
CONTINUOUS
10
0.3316929133858267
20
-0.8171828346456693
11
0.3316929133858267
21
-0.8188976377952756
0
LINE
8
BLACK
6
CONTINUOUS
10
0.3316929133858267
20
-0.8188976377952756
11
0.3316929133858267
21
-0.8740157480314961
0
LINE
8
BLACK
6
CONTINUOUS
10
0.3316929133858267
20
-0.8740157480314961
11
0.3316929133858267
21
-0.8757305511811023
0
LINE
8
BLACK
6
CONTINUOUS
10
0.3316929133858267
20
-0.8757305511811023
11
0.3327527165354331
21
-0.8789922834645669
0
LINE
8
BLACK
6
CONTINUOUS
10
0.3327527165354331
20
-0.8789922834645669
11
0.3347685826771654
21
-0.8817668503937007
0
LINE
8
BLACK
6
CONTINUOUS
10
0.3347685826771654
20
-0.8817668503937007
11
0.3375431496062992
21
-0.8837827165354331
0
LINE
8
BLACK
6
CONTINUOUS
10
0.3375431496062992
20
-0.8837827165354331
11
0.3408048818897638
21
-0.8848425196850394
0
LINE
8
BLACK
6
CONTINUOUS
10
0.3408048818897638
20
-0.8848425196850394
11
0.3425196850393701
21
-0.8848425196850394
0
LINE
8
BLACK
6
CONTINUOUS
10
0.3425196850393701
20
-0.8848425196850394
11
0.405511811023622
21
-0.8848425196850394
0
LINE
8
BLACK
6
CONTINUOUS
10
0.405511811023622
20
-0.8848425196850394
11
0.4072266141732284
21
-0.8848425196850394
0
LINE
8
BLACK
6
CONTINUOUS
10
0.4072266141732284
20
-0.8848425196850394
11
0.4104883464566929
21
-0.8837827165354331
0
LINE
8
BLACK
6
CONTINUOUS
10
0.4104883464566929
20
-0.8837827165354331
11
0.4132629133858268
21
-0.8817668503937007
0
LINE
8
BLACK
6
CONTINUOUS
10
0.4132629133858268
20
-0.8817668503937007
11
0.415278779527559
21
-0.8789922834645669
0
LINE
8
BLACK
6
CONTINUOUS
10
0.415278779527559
20
-0.8789922834645669
11
0.4163385826771653
21
-0.8757305511811023
0
LINE
8
BLACK
6
CONTINUOUS
10
0.4163385826771653
20
-0.8757305511811023
11
0.4163385826771653
21
-0.8740157480314961
0
LINE
8
BLACK
6
CONTINUOUS
10
0.4163385826771653
20
-0.8740157480314961
11
0.4163385826771653
21
-0.8188976377952756
0
LINE
8
BLACK
6
CONTINUOUS
10
0.4163385826771653
20
-0.8188976377952756
11
0.4163385826771653
21
-0.8171828346456693
0
LINE
8
BLACK
6
CONTINUOUS
10
0.4163385826771653
20
-0.8171828346456693
11
0.415278779527559
21
-0.8139211023622047
0
LINE
8
BLACK
6
CONTINUOUS
10
0.415278779527559
20
-0.8139211023622047
11
0.4132629133858268
21
-0.8111465354330708
0
LINE
8
BLACK
6
CONTINUOUS
10
0.4132629133858268
20
-0.8111465354330708
11
0.4104883464566929
21
-0.8091306692913386
0
LINE
8
BLACK
6
CONTINUOUS
10
0.4104883464566929
20
-0.8091306692913386
11
0.4072266141732284
21
-0.8080708661417323
0
LINE
8
BLACK
6
CONTINUOUS
10
0.4072266141732284
20
-0.8080708661417323
11
0.405511811023622
21
-0.8080708661417323
0
LINE
8
BLACK
6
CONTINUOUS
10
0.405511811023622
20
-0.8080708661417323
11
0.3425196850393701
21
-0.8080708661417323
0
LINE
8
BLACK
6
CONTINUOUS
10
0.0399461417322835
20
0.9871479921259843
11
0.0401581102362205
21
0.9870601968503937
0
LINE
8
BLACK
6
CONTINUOUS
10
0.0401581102362205
20
0.9870601968503937
11
0.0402825196850394
21
0.9870601968503937
0
LINE
8
BLACK
6
CONTINUOUS
10
0.0402825196850394
20
0.9870601968503937
11
0.0404475196850394
21
0.9869403149606299
0
LINE
8
BLACK
6
CONTINUOUS
10
0.0404475196850394
20
0.9869403149606299
11
0.0410105511811024
21
0.9867070866141732
0
LINE
8
BLACK
6
CONTINUOUS
10
0.0410105511811024
20
0.9867070866141732
11
0.0416535039370079
21
0.9860641338582677
0
LINE
8
BLACK
6
CONTINUOUS
10
0.0416535039370079
20
0.9860641338582677
11
0.0417588976377953
21
0.985987559055118
0
LINE
8
BLACK
6
CONTINUOUS
10
0.0417588976377953
20
0.985987559055118
11
0.0417727559055118
21
0.9859448818897637
0
LINE
8
BLACK
6
CONTINUOUS
10
0.0417727559055118
20
0.9859448818897637
11
0.0418251968503937
21
0.9858924409448818
0
LINE
8
BLACK
6
CONTINUOUS
10
0.0418251968503937
20
0.9858924409448818
11
0.0422661023622047
21
0.984828031496063
0
LINE
8
BLACK
6
CONTINUOUS
10
0.0422661023622047
20
0.984828031496063
11
0.0422661023622047
21
0.9844265748031495
0
LINE
8
BLACK
6
CONTINUOUS
10
0.0422661023622047
20
0.9844265748031495
11
0.0423228346456693
21
0.984251968503937
0
LINE
8
BLACK
6
CONTINUOUS
10
0.0423228346456693
20
0.984251968503937
11
0.0423228346456693
21
0.9798366141732283
0
LINE
8
BLACK
6
CONTINUOUS
10
0.0423228346456693
20
0.9798366141732283
11
0.0437042913385827
21
0.9711146456692913
0
LINE
8
BLACK
6
CONTINUOUS
10
0.0437042913385827
20
0.9711146456692913
11
0.0464331102362205
21
0.9627161417322835
0
LINE
8
BLACK
6
CONTINUOUS
10
0.0464331102362205
20
0.9627161417322835
11
0.0504421653543307
21
0.9548479133858268
0
LINE
8
BLACK
6
CONTINUOUS
10
0.0504421653543307
20
0.9548479133858268
11
0.0556327165354331
21
0.9477037401574803
0
LINE
8
BLACK
6
CONTINUOUS
10
0.0556327165354331
20
0.9477037401574803
11
0.061876968503937
21
0.9414594881889764
0
LINE
8
BLACK
6
CONTINUOUS
10
0.061876968503937
20
0.9414594881889764
11
0.0690211417322835
21
0.9362689370078739
0
LINE
8
BLACK
6
CONTINUOUS
10
0.0690211417322835
20
0.9362689370078739
11
0.0768893700787402
21
0.9322598818897637
0
LINE
8
BLACK
6
CONTINUOUS
10
0.0768893700787402
20
0.9322598818897637
11
0.085287874015748
21
0.929531062992126
0
LINE
8
BLACK
6
CONTINUOUS
10
0.085287874015748
20
0.929531062992126
11
0.094009842519685
21
0.9281496062992126
0
LINE
8
BLACK
6
CONTINUOUS
10
0.094009842519685
20
0.9281496062992126
11
0.1028405511811024
21
0.9281496062992126
0
LINE
8
BLACK
6
CONTINUOUS
10
0.1028405511811024
20
0.9281496062992126
11
0.1115625196850394
21
0.929531062992126
0
LINE
8
BLACK
6
CONTINUOUS
10
0.1115625196850394
20
0.929531062992126
11
0.1199610236220472
21
0.9322598818897637
0
LINE
8
BLACK
6
CONTINUOUS
10
0.1199610236220472
20
0.9322598818897637
11
0.1278292519685039
21
0.9362689370078739
0
LINE
8
BLACK
6
CONTINUOUS
10
0.1278292519685039
20
0.9362689370078739
11
0.1349734251968504
21
0.9414594881889764
0
LINE
8
BLACK
6
CONTINUOUS
10
0.1349734251968504
20
0.9414594881889764
11
0.1412176771653543
21
0.9477037401574803
0
LINE
8
BLACK
6
CONTINUOUS
10
0.1412176771653543
20
0.9477037401574803
11
0.1464082283464567
21
0.9548479133858268
0
LINE
8
BLACK
6
CONTINUOUS
10
0.1464082283464567
20
0.9548479133858268
11
0.1504172834645669
21
0.9627161417322835
0
LINE
8
BLACK
6
CONTINUOUS
10
0.1504172834645669
20
0.9627161417322835
11
0.1531461023622047
21
0.9711146456692913
0
LINE
8
BLACK
6
CONTINUOUS
10
0.1531461023622047
20
0.9711146456692913
11
0.1545275590551181
21
0.9798366141732283
0
LINE
8
BLACK
6
CONTINUOUS
10
0.1545275590551181
20
0.9798366141732283
11
0.1545275590551181
21
0.984251968503937
0
LINE
8
BLACK
6
CONTINUOUS
10
0.1545275590551181
20
0.984251968503937
11
0.1545842913385827
21
0.9844265748031495
0
LINE
8
BLACK
6
CONTINUOUS
10
0.1545842913385827
20
0.9844265748031495
11
0.1545842913385827
21
0.984828031496063
0
LINE
8
BLACK
6
CONTINUOUS
10
0.1545842913385827
20
0.984828031496063
11
0.1550251968503937
21
0.9858924409448818
0
LINE
8
BLACK
6
CONTINUOUS
10
0.1550251968503937
20
0.9858924409448818
11
0.1550775984251968
21
0.9859448818897637
0
LINE
8
BLACK
6
CONTINUOUS
10
0.1550775984251968
20
0.9859448818897637
11
0.1550914960629921
21
0.985987559055118
0
LINE
8
BLACK
6
CONTINUOUS
10
0.1550914960629921
20
0.985987559055118
11
0.1551968503937008
21
0.9860641338582677
0
LINE
8
BLACK
6
CONTINUOUS
10
0.1551968503937008
20
0.9860641338582677
11
0.155839842519685
21
0.9867070866141732
0
LINE
8
BLACK
6
CONTINUOUS
10
0.155839842519685
20
0.9867070866141732
11
0.1564028346456693
21
0.9869403149606299
0
LINE
8
BLACK
6
CONTINUOUS
10
0.1564028346456693
20
0.9869403149606299
11
0.156567874015748
21
0.9870601968503937
0
LINE
8
BLACK
6
CONTINUOUS
10
0.156567874015748
20
0.9870601968503937
11
0.1566922834645669
21
0.9870601968503937
0
LINE
8
BLACK
6
CONTINUOUS
10
0.1566922834645669
20
0.9870601968503937
11
0.1569042519685039
21
0.9871479921259843
0
LINE
8
BLACK
6
CONTINUOUS
10
0.1569042519685039
20
0.9871479921259843
11
0.1574803149606299
21
0.9872047244094488
0
LINE
8
BLACK
6
CONTINUOUS
10
0.1574803149606299
20
0.9872047244094488
11
0.4330708661417323
21
0.9872047244094488
0
LINE
8
BLACK
6
CONTINUOUS
10
0.4330708661417323
20
0.9872047244094488
11
0.4336469291338583
21
0.9871479921259843
0
LINE
8
BLACK
6
CONTINUOUS
10
0.4336469291338583
20
0.9871479921259843
11
0.4338588976377953
21
0.9870601968503937
0
LINE
8
BLACK
6
CONTINUOUS
10
0.4338588976377953
20
0.9870601968503937
11
0.4339833070866141
21
0.9870601968503937
0
LINE
8
BLACK
6
CONTINUOUS
10
0.4339833070866141
20
0.9870601968503937
11
0.4341483070866142
21
0.9869403149606299
0
LINE
8
BLACK
6
CONTINUOUS
10
0.4341483070866142
20
0.9869403149606299
11
0.4347113385826771
21
0.9867070866141732
0
LINE
8
BLACK
6
CONTINUOUS
10
0.4347113385826771
20
0.9867070866141732
11
0.4353542913385827
21
0.9860641338582677
0
LINE
8
BLACK
6
CONTINUOUS
10
0.4353542913385827
20
0.9860641338582677
11
0.43545968503937
21
0.985987559055118
0
LINE
8
BLACK
6
CONTINUOUS
10
0.43545968503937
20
0.985987559055118
11
0.4354735433070866
21
0.9859448818897637
0
LINE
8
BLACK
6
CONTINUOUS
10
0.4354735433070866
20
0.9859448818897637
11
0.4355259842519685
21
0.9858924409448818
0
LINE
8
BLACK
6
CONTINUOUS
10
0.4355259842519685
20
0.9858924409448818
11
0.4359668897637795
21
0.984828031496063
0
LINE
8
BLACK
6
CONTINUOUS
10
0.4359668897637795
20
0.984828031496063
11
0.4359668897637795
21
0.9844265748031495
0
LINE
8
BLACK
6
CONTINUOUS
10
0.4359668897637795
20
0.9844265748031495
11
0.4360236220472441
21
0.984251968503937
0
LINE
8
BLACK
6
CONTINUOUS
10
0.4360236220472441
20
0.984251968503937
11
0.4360236220472441
21
0.9798366141732283
0
LINE
8
BLACK
6
CONTINUOUS
10
0.4360236220472441
20
0.9798366141732283
11
0.4374050787401575
21
0.9711146456692913
0
LINE
8
BLACK
6
CONTINUOUS
10
0.4374050787401575
20
0.9711146456692913
11
0.4401338976377953
21
0.9627161417322835
0
LINE
8
BLACK
6
CONTINUOUS
10
0.4401338976377953
20
0.9627161417322835
11
0.4441429527559055
21
0.9548479133858268
0
LINE
8
BLACK
6
CONTINUOUS
10
0.4441429527559055
20
0.9548479133858268
11
0.4493335039370079
21
0.9477037401574803
0
LINE
8
BLACK
6
CONTINUOUS
10
0.4493335039370079
20
0.9477037401574803
11
0.4555777559055118
21
0.9414594881889764
0
LINE
8
BLACK
6
CONTINUOUS
10
0.4555777559055118
20
0.9414594881889764
11
0.4627219291338582
21
0.9362689370078739
0
LINE
8
BLACK
6
CONTINUOUS
10
0.4627219291338582
20
0.9362689370078739
11
0.470590157480315
21
0.9322598818897637
0
LINE
8
BLACK
6
CONTINUOUS
10
0.470590157480315
20
0.9322598818897637
11
0.4789886614173228
21
0.929531062992126
0
LINE
8
BLACK
6
CONTINUOUS
10
0.4789886614173228
20
0.929531062992126
11
0.4877106299212599
21
0.9281496062992126
0
LINE
8
BLACK
6
CONTINUOUS
10
0.4877106299212599
20
0.9281496062992126
11
0.4965413385826771
21
0.9281496062992126
0
LINE
8
BLACK
6
CONTINUOUS
10
0.4965413385826771
20
0.9281496062992126
11
0.5052633070866142
21
0.929531062992126
0
LINE
8
BLACK
6
CONTINUOUS
10
0.5052633070866142
20
0.929531062992126
11
0.5136618110236221
21
0.9322598818897637
0
LINE
8
BLACK
6
CONTINUOUS
10
0.5136618110236221
20
0.9322598818897637
11
0.5215300393700787
21
0.9362689370078739
0
LINE
8
BLACK
6
CONTINUOUS
10
0.5215300393700787
20
0.9362689370078739
11
0.5286742125984252
21
0.9414594881889764
0
LINE
8
BLACK
6
CONTINUOUS
10
0.5286742125984252
20
0.9414594881889764
11
0.5349184645669292
21
0.9477037401574803
0
LINE
8
BLACK
6
CONTINUOUS
10
0.5349184645669292
20
0.9477037401574803
11
0.5401090157480315
21
0.9548479133858268
0
LINE
8
BLACK
6
CONTINUOUS
10
0.5401090157480315
20
0.9548479133858268
11
0.5441180708661417
21
0.9627161417322835
0
LINE
8
BLACK
6
CONTINUOUS
10
0.5441180708661417
20
0.9627161417322835
11
0.5468468897637795
21
0.9711146456692913
0
LINE
8
BLACK
6
CONTINUOUS
10
0.5468468897637795
20
0.9711146456692913
11
0.5482283464566929
21
0.9798366141732283
0
LINE
8
BLACK
6
CONTINUOUS
10
0.5482283464566929
20
0.9798366141732283
11
0.5482283464566929
21
0.984251968503937
0
LINE
8
BLACK
6
CONTINUOUS
10
0.5482283464566929
20
0.984251968503937
11
0.5482850787401574
21
0.9844265748031495
0
LINE
8
BLACK
6
CONTINUOUS
10
0.5482850787401574
20
0.9844265748031495
11
0.5482850787401574
21
0.984828031496063
0
LINE
8
BLACK
6
CONTINUOUS
10
0.5482850787401574
20
0.984828031496063
11
0.5487259842519685
21
0.9858924409448818
0
LINE
8
BLACK
6
CONTINUOUS
10
0.5487259842519685
20
0.9858924409448818
11
0.5487783858267716
21
0.9859448818897637
0
LINE
8
BLACK
6
CONTINUOUS
10
0.5487783858267716
20
0.9859448818897637
11
0.5487922834645669
21
0.985987559055118
0
LINE
8
BLACK
6
CONTINUOUS
10
0.5487922834645669
20
0.985987559055118
11
0.5488976377952756
21
0.9860641338582677
0
LINE
8
BLACK
6
CONTINUOUS
10
0.5488976377952756
20
0.9860641338582677
11
0.5495406299212598
21
0.9867070866141732
0
LINE
8
BLACK
6
CONTINUOUS
10
0.5495406299212598
20
0.9867070866141732
11
0.5501036220472441
21
0.9869403149606299
0
LINE
8
BLACK
6
CONTINUOUS
10
0.5501036220472441
20
0.9869403149606299
11
0.5502686614173228
21
0.9870601968503937
0
LINE
8
BLACK
6
CONTINUOUS
10
0.5502686614173228
20
0.9870601968503937
11
0.5503930708661418
21
0.9870601968503937
0
LINE
8
BLACK
6
CONTINUOUS
10
0.5503930708661418
20
0.9870601968503937
11
0.5506050393700788
21
0.9871479921259843
0
LINE
8
BLACK
6
CONTINUOUS
10
0.5506050393700788
20
0.9871479921259843
11
0.5511811023622047
21
0.9872047244094488
0
LINE
8
BLACK
6
CONTINUOUS
10
0.5511811023622047
20
0.9872047244094488
11
0.8267716535433071
21
0.9872047244094488
0
LINE
8
BLACK
6
CONTINUOUS
10
0.8267716535433071
20
0.9872047244094488
11
0.827347716535433
21
0.9871479921259843
0
LINE
8
BLACK
6
CONTINUOUS
10
0.827347716535433
20
0.9871479921259843
11
0.8275596850393701
21
0.9870601968503937
0
LINE
8
BLACK
6
CONTINUOUS
10
0.8275596850393701
20
0.9870601968503937
11
0.8276840944881889
21
0.9870601968503937
0
LINE
8
BLACK
6
CONTINUOUS
10
0.8276840944881889
20
0.9870601968503937
11
0.827849094488189
21
0.9869403149606299
0
LINE
8
BLACK
6
CONTINUOUS
10
0.827849094488189
20
0.9869403149606299
11
0.828412125984252
21
0.9867070866141732
0
LINE
8
BLACK
6
CONTINUOUS
10
0.828412125984252
20
0.9867070866141732
11
0.8290550787401575
21
0.9860641338582677
0
LINE
8
BLACK
6
CONTINUOUS
10
0.8290550787401575
20
0.9860641338582677
11
0.8291604724409448
21
0.985987559055118
0
LINE
8
BLACK
6
CONTINUOUS
10
0.8291604724409448
20
0.985987559055118
11
0.8291743307086614
21
0.9859448818897637
0
LINE
8
BLACK
6
CONTINUOUS
10
0.8291743307086614
20
0.9859448818897637
11
0.8292267716535433
21
0.9858924409448818
0
LINE
8
BLACK
6
CONTINUOUS
10
0.8292267716535433
20
0.9858924409448818
11
0.8296676771653543
21
0.984828031496063
0
LINE
8
BLACK
6
CONTINUOUS
10
0.8296676771653543
20
0.984828031496063
11
0.8296676771653543
21
0.9844265748031495
0
LINE
8
BLACK
6
CONTINUOUS
10
0.8296676771653543
20
0.9844265748031495
11
0.8297244094488189
21
0.984251968503937
0
LINE
8
BLACK
6
CONTINUOUS
10
0.8297244094488189
20
0.984251968503937
11
0.8297244094488189
21
0.9798366141732283
0
LINE
8
BLACK
6
CONTINUOUS
10
0.8297244094488189
20
0.9798366141732283
11
0.8311058661417323
21
0.9711146456692913
0
LINE
8
BLACK
6
CONTINUOUS
10
0.8311058661417323
20
0.9711146456692913
11
0.8338346850393701
21
0.9627161417322835
0
LINE
8
BLACK
6
CONTINUOUS
10
0.8338346850393701
20
0.9627161417322835
11
0.8378437401574803
21
0.9548479133858268
0
LINE
8
BLACK
6
CONTINUOUS
10
0.8378437401574803
20
0.9548479133858268
11
0.8430342913385827
21
0.9477037401574803
0
LINE
8
BLACK
6
CONTINUOUS
10
0.8430342913385827
20
0.9477037401574803
11
0.8492785433070866
21
0.9414594881889764
0
LINE
8
BLACK
6
CONTINUOUS
10
0.8492785433070866
20
0.9414594881889764
11
0.856422716535433
21
0.9362689370078739
0
LINE
8
BLACK
6
CONTINUOUS
10
0.856422716535433
20
0.9362689370078739
11
0.8642909448818897
21
0.9322598818897637
0
LINE
8
BLACK
6
CONTINUOUS
10
0.8642909448818897
20
0.9322598818897637
11
0.8726894488188977
21
0.929531062992126
0
LINE
8
BLACK
6
CONTINUOUS
10
0.8726894488188977
20
0.929531062992126
11
0.8814114173228347
21
0.9281496062992126
0
LINE
8
BLACK
6
CONTINUOUS
10
0.8814114173228347
20
0.9281496062992126
11
0.8902421259842519
21
0.9281496062992126
0
LINE
8
BLACK
6
CONTINUOUS
10
0.8902421259842519
20
0.9281496062992126
11
0.8989640944881889
21
0.929531062992126
0
LINE
8
BLACK
6
CONTINUOUS
10
0.8989640944881889
20
0.929531062992126
11
0.9073625984251968
21
0.9322598818897637
0
LINE
8
BLACK
6
CONTINUOUS
10
0.9073625984251968
20
0.9322598818897637
11
0.9152308267716536
21
0.9362689370078739
0
LINE
8
BLACK
6
CONTINUOUS
10
0.9152308267716536
20
0.9362689370078739
11
0.9223749999999999
21
0.9414594881889764
0
LINE
8
BLACK
6
CONTINUOUS
10
0.9223749999999999
20
0.9414594881889764
11
0.9286192519685039
21
0.9477037401574803
0
LINE
8
BLACK
6
CONTINUOUS
10
0.9286192519685039
20
0.9477037401574803
11
0.9338098031496063
21
0.9548479133858268
0
LINE
8
BLACK
6
CONTINUOUS
10
0.9338098031496063
20
0.9548479133858268
11
0.9378188582677165
21
0.9627161417322835
0
LINE
8
BLACK
6
CONTINUOUS
10
0.9378188582677165
20
0.9627161417322835
11
0.9405476771653543
21
0.9711146456692913
0
LINE
8
BLACK
6
CONTINUOUS
10
0.9405476771653543
20
0.9711146456692913
11
0.9419291338582677
21
0.9798366141732283
0
LINE
8
BLACK
6
CONTINUOUS
10
0.9419291338582677
20
0.9798366141732283
11
0.9419291338582677
21
0.984251968503937
0
LINE
8
BLACK
6
CONTINUOUS
10
0.9419291338582677
20
0.984251968503937
11
0.9419858661417323
21
0.9844265748031495
0
LINE
8
BLACK
6
CONTINUOUS
10
0.9419858661417323
20
0.9844265748031495
11
0.9419858661417323
21
0.984828031496063
0
LINE
8
BLACK
6
CONTINUOUS
10
0.9419858661417323
20
0.984828031496063
11
0.9424267716535433
21
0.9858924409448818
0
LINE
8
BLACK
6
CONTINUOUS
10
0.9424267716535433
20
0.9858924409448818
11
0.9424791732283464
21
0.9859448818897637
0
LINE
8
BLACK
6
CONTINUOUS
10
0.9424791732283464
20
0.9859448818897637
11
0.9424930708661418
21
0.985987559055118
0
LINE
8
BLACK
6
CONTINUOUS
10
0.9424930708661418
20
0.985987559055118
11
0.9425984251968503
21
0.9860641338582677
0
LINE
8
BLACK
6
CONTINUOUS
10
0.9425984251968503
20
0.9860641338582677
11
0.9432414173228346
21
0.9867070866141732
0
LINE
8
BLACK
6
CONTINUOUS
10
0.9432414173228346
20
0.9867070866141732
11
0.9438044094488188
21
0.9869403149606299
0
LINE
8
BLACK
6
CONTINUOUS
10
0.9438044094488188
20
0.9869403149606299
11
0.9439694488188977
21
0.9870601968503937
0
LINE
8
BLACK
6
CONTINUOUS
10
0.9439694488188977
20
0.9870601968503937
11
0.9440938582677165
21
0.9870601968503937
0
LINE
8
BLACK
6
CONTINUOUS
10
0.9440938582677165
20
0.9870601968503937
11
0.9443058267716535
21
0.9871479921259843
0
LINE
8
BLACK
6
CONTINUOUS
10
0.9443058267716535
20
0.9871479921259843
11
0.9448818897637795
21
0.9872047244094488
0
LINE
8
BLACK
6
CONTINUOUS
10
0.9448818897637795
20
0.9872047244094488
11
1.2204724409448819
21
0.9872047244094488
0
LINE
8
BLACK
6
CONTINUOUS
10
1.2204724409448819
20
0.9872047244094488
11
1.2210485039370078
21
0.9871479921259843
0
LINE
8
BLACK
6
CONTINUOUS
10
1.2210485039370078
20
0.9871479921259843
11
1.2212604724409448
21
0.9870601968503937
0
LINE
8
BLACK
6
CONTINUOUS
10
1.2212604724409448
20
0.9870601968503937
11
1.2213848818897637
21
0.9870601968503937
0
LINE
8
BLACK
6
CONTINUOUS
10
1.2213848818897637
20
0.9870601968503937
11
1.2215498818897637
21
0.9869403149606299
0
LINE
8
BLACK
6
CONTINUOUS
10
1.2215498818897637
20
0.9869403149606299
11
1.2221129133858268
21
0.9867070866141732
0
LINE
8
BLACK
6
CONTINUOUS
10
1.2221129133858268
20
0.9867070866141732
11
1.2227558661417322
21
0.9860641338582677
0
LINE
8
BLACK
6
CONTINUOUS
10
1.2227558661417322
20
0.9860641338582677
11
1.2228612598425197
21
0.985987559055118
0
LINE
8
BLACK
6
CONTINUOUS
10
1.2228612598425197
20
0.985987559055118
11
1.2228751181102362
21
0.9859448818897637
0
LINE
8
BLACK
6
CONTINUOUS
10
1.2228751181102362
20
0.9859448818897637
11
1.2229275590551181
21
0.9858924409448818
0
LINE
8
BLACK
6
CONTINUOUS
10
1.2229275590551181
20
0.9858924409448818
11
1.2233684645669292
21
0.984828031496063
0
LINE
8
BLACK
6
CONTINUOUS
10
1.2233684645669292
20
0.984828031496063
11
1.2233684645669292
21
0.9844265748031495
0
LINE
8
BLACK
6
CONTINUOUS
10
1.2233684645669292
20
0.9844265748031495
11
1.2234251968503937
21
0.984251968503937
0
LINE
8
BLACK
6
CONTINUOUS
10
1.2234251968503937
20
0.984251968503937
11
1.2234251968503937
21
0.9798366141732283
0
LINE
8
BLACK
6
CONTINUOUS
10
1.2234251968503937
20
0.9798366141732283
11
1.2248066535433071
21
0.9711146456692913
0
LINE
8
BLACK
6
CONTINUOUS
10
1.2248066535433071
20
0.9711146456692913
11
1.2275354724409449
21
0.9627161417322835
0
LINE
8
BLACK
6
CONTINUOUS
10
1.2275354724409449
20
0.9627161417322835
11
1.2315445275590551
21
0.9548479133858268
0
LINE
8
BLACK
6
CONTINUOUS
10
1.2315445275590551
20
0.9548479133858268
11
1.2367350787401574
21
0.9477037401574803
0
LINE
8
BLACK
6
CONTINUOUS
10
1.2367350787401574
20
0.9477037401574803
11
1.2429793307086614
21
0.9414594881889764
0
LINE
8
BLACK
6
CONTINUOUS
10
1.2429793307086614
20
0.9414594881889764
11
1.2501235039370078
21
0.9362689370078739
0
LINE
8
BLACK
6
CONTINUOUS
10
1.2501235039370078
20
0.9362689370078739
11
1.2579917322834646
21
0.9322598818897637
0
LINE
8
BLACK
6
CONTINUOUS
10
1.2579917322834646
20
0.9322598818897637
11
1.2663902362204724
21
0.929531062992126
0
LINE
8
BLACK
6
CONTINUOUS
10
1.2663902362204724
20
0.929531062992126
11
1.2751122047244094
21
0.9281496062992126
0
LINE
8
BLACK
6
CONTINUOUS
10
1.2751122047244094
20
0.9281496062992126
11
1.2839429133858267
21
0.9281496062992126
0
LINE
8
BLACK
6
CONTINUOUS
10
1.2839429133858267
20
0.9281496062992126
11
1.2926648818897637
21
0.929531062992126
0
LINE
8
BLACK
6
CONTINUOUS
10
1.2926648818897637
20
0.929531062992126
11
1.3010633858267717
21
0.9322598818897637
0
LINE
8
BLACK
6
CONTINUOUS
10
1.3010633858267717
20
0.9322598818897637
11
1.3089316141732283
21
0.9362689370078739
0
LINE
8
BLACK
6
CONTINUOUS
10
1.3089316141732283
20
0.9362689370078739
11
1.3160757874015747
21
0.9414594881889764
0
LINE
8
BLACK
6
CONTINUOUS
10
1.3160757874015747
20
0.9414594881889764
11
1.3223200393700787
21
0.9477037401574803
0
LINE
8
BLACK
6
CONTINUOUS
10
1.3223200393700787
20
0.9477037401574803
11
1.327510590551181
21
0.9548479133858268
0
LINE
8
BLACK
6
CONTINUOUS
10
1.327510590551181
20
0.9548479133858268
11
1.3315196456692913
21
0.9627161417322835
0
LINE
8
BLACK
6
CONTINUOUS
10
1.3315196456692913
20
0.9627161417322835
11
1.334248464566929
21
0.9711146456692913
0
LINE
8
BLACK
6
CONTINUOUS
10
1.334248464566929
20
0.9711146456692913
11
1.3356299212598426
21
0.9798366141732283
0
LINE
8
BLACK
6
CONTINUOUS
10
1.3356299212598426
20
0.9798366141732283
11
1.3356299212598426
21
0.984251968503937
0
LINE
8
BLACK
6
CONTINUOUS
10
1.3356299212598426
20
0.984251968503937
11
1.335686653543307
21
0.9844265748031495
0
LINE
8
BLACK
6
CONTINUOUS
10
1.335686653543307
20
0.9844265748031495
11
1.335686653543307
21
0.984828031496063
0
LINE
8
BLACK
6
CONTINUOUS
10
1.335686653543307
20
0.984828031496063
11
1.336127559055118
21
0.9858924409448818
0
LINE
8
BLACK
6
CONTINUOUS
10
1.336127559055118
20
0.9858924409448818
11
1.3361799606299212
21
0.9859448818897637
0
LINE
8
BLACK
6
CONTINUOUS
10
1.3361799606299212
20
0.9859448818897637
11
1.3361938582677164
21
0.985987559055118
0
LINE
8
BLACK
6
CONTINUOUS
10
1.3361938582677164
20
0.985987559055118
11
1.3362992125984252
21
0.9860641338582677
0
LINE
8
BLACK
6
CONTINUOUS
10
1.3362992125984252
20
0.9860641338582677
11
1.3369422047244095
21
0.9867070866141732
0
LINE
8
BLACK
6
CONTINUOUS
10
1.3369422047244095
20
0.9867070866141732
11
1.3375051968503937
21
0.9869403149606299
0
LINE
8
BLACK
6
CONTINUOUS
10
1.3375051968503937
20
0.9869403149606299
11
1.3376702362204724
21
0.9870601968503937
0
LINE
8
BLACK
6
CONTINUOUS
10
1.3376702362204724
20
0.9870601968503937
11
1.3377946456692913
21
0.9870601968503937
0
LINE
8
BLACK
6
CONTINUOUS
10
1.3377946456692913
20
0.9870601968503937
11
1.3380066141732283
21
0.9871479921259843
0
LINE
8
BLACK
6
CONTINUOUS
10
1.3380066141732283
20
0.9871479921259843
11
1.3385826771653544
21
0.9872047244094488
0
LINE
8
BLACK
6
CONTINUOUS
10
1.3385826771653544
20
0.9872047244094488
11
1.3779527559055118
21
0.9872047244094488
0
LINE
8
BLACK
6
CONTINUOUS
10
1.3779527559055118
20
0.9872047244094488
11
1.3785288188976377
21
0.9871479921259843
0
LINE
8
BLACK
6
CONTINUOUS
10
1.3785288188976377
20
0.9871479921259843
11
1.3795932283464567
21
0.9867070866141732
0
LINE
8
BLACK
6
CONTINUOUS
10
1.3795932283464567
20
0.9867070866141732
11
1.3804078740157479
21
0.9858924409448818
0
LINE
8
BLACK
6
CONTINUOUS
10
1.3804078740157479
20
0.9858924409448818
11
1.380848779527559
21
0.984828031496063
0
LINE
8
BLACK
6
CONTINUOUS
10
1.380848779527559
20
0.984828031496063
11
1.3809055118110236
21
0.984251968503937
0
LINE
8
BLACK
6
CONTINUOUS
10
1.3809055118110236
20
0.984251968503937
11
1.3809055118110236
21
0.
0
LINE
8
BLACK
6
CONTINUOUS
10
1.3809055118110236
20
0.
11
1.380848779527559
21
-0.000576062992126
0
LINE
8
BLACK
6
CONTINUOUS
10
1.380848779527559
20
-0.000576062992126
11
1.3804078740157479
21
-0.0016404724409449
0
LINE
8
BLACK
6
CONTINUOUS
10
1.3804078740157479
20
-0.0016404724409449
11
1.3795932283464567
21
-0.0024551181102362
0
LINE
8
BLACK
6
CONTINUOUS
10
1.3795932283464567
20
-0.0024551181102362
11
1.3785288188976377
21
-0.0028960236220472
0
LINE
8
BLACK
6
CONTINUOUS
10
1.3785288188976377
20
-0.0028960236220472
11
1.3779527559055118
21
-0.0029527559055118
0
LINE
8
BLACK
6
CONTINUOUS
10
1.3779527559055118
20
-0.0029527559055118
11
1.3385826771653544
21
-0.0029527559055118
0
LINE
8
BLACK
6
CONTINUOUS
10
1.3385826771653544
20
-0.0029527559055118
11
1.3380066141732283
21
-0.0028960236220472
0
LINE
8
BLACK
6
CONTINUOUS
10
1.3380066141732283
20
-0.0028960236220472
11
1.3377946456692913
21
-0.0028082283464567
0
LINE
8
BLACK
6
CONTINUOUS
10
1.3377946456692913
20
-0.0028082283464567
11
1.3376702362204724
21
-0.0028082283464567
0
LINE
8
BLACK
6
CONTINUOUS
10
1.3376702362204724
20
-0.0028082283464567
11
1.3375051968503937
21
-0.0026883070866142
0
LINE
8
BLACK
6
CONTINUOUS
10
1.3375051968503937
20
-0.0026883070866142
11
1.3369422047244095
21
-0.0024551181102362
0
LINE
8
BLACK
6
CONTINUOUS
10
1.3369422047244095
20
-0.0024551181102362
11
1.3362992125984252
21
-0.001812125984252
0
LINE
8
BLACK
6
CONTINUOUS
10
1.3362992125984252
20
-0.001812125984252
11
1.3361938582677164
21
-0.0017355905511811
0
LINE
8
BLACK
6
CONTINUOUS
10
1.3361938582677164
20
-0.0017355905511811
11
1.3361799606299212
21
-0.001692874015748
0
LINE
8
BLACK
6
CONTINUOUS
10
1.3361799606299212
20
-0.001692874015748
11
1.336127559055118
21
-0.0016404724409449
0
LINE
8
BLACK
6
CONTINUOUS
10
1.336127559055118
20
-0.0016404724409449
11
1.335686653543307
21
-0.000576062992126
0
LINE
8
BLACK
6
CONTINUOUS
10
1.335686653543307
20
-0.000576062992126
11
1.335686653543307
21
-0.0001745669291339
0
LINE
8
BLACK
6
CONTINUOUS
10
1.335686653543307
20
-0.0001745669291339
11
1.3356299212598426
21
0.
0
LINE
8
BLACK
6
CONTINUOUS
10
1.3356299212598426
20
0.
11
1.3356299212598426
21
0.0044153543307087
0
LINE
8
BLACK
6
CONTINUOUS
10
1.3356299212598426
20
0.0044153543307087
11
1.334248464566929
21
0.0131373228346457
0
LINE
8
BLACK
6
CONTINUOUS
10
1.334248464566929
20
0.0131373228346457
11
1.3315196456692913
21
0.0215358267716535
0
LINE
8
BLACK
6
CONTINUOUS
10
1.3315196456692913
20
0.0215358267716535
11
1.327510590551181
21
0.0294040551181102
0
LINE
8
BLACK
6
CONTINUOUS
10
1.327510590551181
20
0.0294040551181102
11
1.3223200393700787
21
0.0365482283464567
0
LINE
8
BLACK
6
CONTINUOUS
10
1.3223200393700787
20
0.0365482283464567
11
1.3160757874015747
21
0.0427924803149606
0
LINE
8
BLACK
6
CONTINUOUS
10
1.3160757874015747
20
0.0427924803149606
11
1.3089316141732283
21
0.047983031496063
0
LINE
8
BLACK
6
CONTINUOUS
10
1.3089316141732283
20
0.047983031496063
11
1.3010633858267717
21
0.0519920866141732
0
LINE
8
BLACK
6
CONTINUOUS
10
1.3010633858267717
20
0.0519920866141732
11
1.2926648818897637
21
0.054720905511811
0
LINE
8
BLACK
6
CONTINUOUS
10
1.2926648818897637
20
0.054720905511811
11
1.2839429133858267
21
0.0561023622047244
0
LINE
8
BLACK
6
CONTINUOUS
10
1.2839429133858267
20
0.0561023622047244
11
1.2751122047244094
21
0.0561023622047244
0
LINE
8
BLACK
6
CONTINUOUS
10
1.2751122047244094
20
0.0561023622047244
11
1.2663902362204724
21
0.054720905511811
0
LINE
8
BLACK
6
CONTINUOUS
10
1.2663902362204724
20
0.054720905511811
11
1.2579917322834646
21
0.0519920866141732
0
LINE
8
BLACK
6
CONTINUOUS
10
1.2579917322834646
20
0.0519920866141732
11
1.2501235039370078
21
0.047983031496063
0
LINE
8
BLACK
6
CONTINUOUS
10
1.2501235039370078
20
0.047983031496063
11
1.2429793307086614
21
0.0427924803149606
0
LINE
8
BLACK
6
CONTINUOUS
10
1.2429793307086614
20
0.0427924803149606
11
1.2367350787401574
21
0.0365482283464567
0
LINE
8
BLACK
6
CONTINUOUS
10
1.2367350787401574
20
0.0365482283464567
11
1.2315445275590551
21
0.0294040551181102
0
LINE
8
BLACK
6
CONTINUOUS
10
1.2315445275590551
20
0.0294040551181102
11
1.2275354724409449
21
0.0215358267716535
0
LINE
8
BLACK
6
CONTINUOUS
10
1.2275354724409449
20
0.0215358267716535
11
1.2248066535433071
21
0.0131373228346457
0
LINE
8
BLACK
6
CONTINUOUS
10
1.2248066535433071
20
0.0131373228346457
11
1.2234251968503937
21
0.0044153543307087
0
LINE
8
BLACK
6
CONTINUOUS
10
1.2234251968503937
20
0.0044153543307087
11
1.2234251968503937
21
0.
0
LINE
8
BLACK
6
CONTINUOUS
10
1.2234251968503937
20
0.
11
1.2233684645669292
21
-0.0001745669291339
0
LINE
8
BLACK
6
CONTINUOUS
10
1.2233684645669292
20
-0.0001745669291339
11
1.2233684645669292
21
-0.000576062992126
0
LINE
8
BLACK
6
CONTINUOUS
10
1.2233684645669292
20
-0.000576062992126
11
1.2229275590551181
21
-0.0016404724409449
0
LINE
8
BLACK
6
CONTINUOUS
10
1.2229275590551181
20
-0.0016404724409449
11
1.2228751181102362
21
-0.001692874015748
0
LINE
8
BLACK
6
CONTINUOUS
10
1.2228751181102362
20
-0.001692874015748
11
1.2228612598425197
21
-0.0017355905511811
0
LINE
8
BLACK
6
CONTINUOUS
10
1.2228612598425197
20
-0.0017355905511811
11
1.2227558661417322
21
-0.001812125984252
0
LINE
8
BLACK
6
CONTINUOUS
10
1.2227558661417322
20
-0.001812125984252
11
1.2221129133858268
21
-0.0024551181102362
0
LINE
8
BLACK
6
CONTINUOUS
10
1.2221129133858268
20
-0.0024551181102362
11
1.2215498818897637
21
-0.0026883070866142
0
LINE
8
BLACK
6
CONTINUOUS
10
1.2215498818897637
20
-0.0026883070866142
11
1.2213848818897637
21
-0.0028082283464567
0
LINE
8
BLACK
6
CONTINUOUS
10
1.2213848818897637
20
-0.0028082283464567
11
1.2212604724409448
21
-0.0028082283464567
0
LINE
8
BLACK
6
CONTINUOUS
10
1.2212604724409448
20
-0.0028082283464567
11
1.2210485039370078
21
-0.0028960236220472
0
LINE
8
BLACK
6
CONTINUOUS
10
1.2210485039370078
20
-0.0028960236220472
11
1.2204724409448819
21
-0.0029527559055118
0
LINE
8
BLACK
6
CONTINUOUS
10
1.2204724409448819
20
-0.0029527559055118
11
0.9448818897637795
21
-0.0029527559055118
0
LINE
8
BLACK
6
CONTINUOUS
10
0.9448818897637795
20
-0.0029527559055118
11
0.9443058267716535
21
-0.0028960236220472
0
LINE
8
BLACK
6
CONTINUOUS
10
0.9443058267716535
20
-0.0028960236220472
11
0.9440938582677165
21
-0.0028082283464567
0
LINE
8
BLACK
6
CONTINUOUS
10
0.9440938582677165
20
-0.0028082283464567
11
0.9439694488188977
21
-0.0028082283464567
0
LINE
8
BLACK
6
CONTINUOUS
10
0.9439694488188977
20
-0.0028082283464567
11
0.9438044094488188
21
-0.0026883070866142
0
LINE
8
BLACK
6
CONTINUOUS
10
0.9438044094488188
20
-0.0026883070866142
11
0.9432414173228346
21
-0.0024551181102362
0
LINE
8
BLACK
6
CONTINUOUS
10
0.9432414173228346
20
-0.0024551181102362
11
0.9425984251968503
21
-0.001812125984252
0
LINE
8
BLACK
6
CONTINUOUS
10
0.9425984251968503
20
-0.001812125984252
11
0.9424930708661418
21
-0.0017355905511811
0
LINE
8
BLACK
6
CONTINUOUS
10
0.9424930708661418
20
-0.0017355905511811
11
0.9424791732283464
21
-0.001692874015748
0
LINE
8
BLACK
6
CONTINUOUS
10
0.9424791732283464
20
-0.001692874015748
11
0.9424267716535433
21
-0.0016404724409449
0
LINE
8
BLACK
6
CONTINUOUS
10
0.9424267716535433
20
-0.0016404724409449
11
0.9419858661417323
21
-0.000576062992126
0
LINE
8
BLACK
6
CONTINUOUS
10
0.9419858661417323
20
-0.000576062992126
11
0.9419858661417323
21
-0.0001745669291339
0
LINE
8
BLACK
6
CONTINUOUS
10
0.9419858661417323
20
-0.0001745669291339
11
0.9419291338582677
21
0.
0
LINE
8
BLACK
6
CONTINUOUS
10
0.9419291338582677
20
0.
11
0.9419291338582677
21
0.0044153543307087
0
LINE
8
BLACK
6
CONTINUOUS
10
0.9419291338582677
20
0.0044153543307087
11
0.9405476771653543
21
0.0131373228346457
0
LINE
8
BLACK
6
CONTINUOUS
10
0.9405476771653543
20
0.0131373228346457
11
0.9378188582677165
21
0.0215358267716535
0
LINE
8
BLACK
6
CONTINUOUS
10
0.9378188582677165
20
0.0215358267716535
11
0.9338098031496063
21
0.0294040551181102
0
LINE
8
BLACK
6
CONTINUOUS
10
0.9338098031496063
20
0.0294040551181102
11
0.9286192519685039
21
0.0365482283464567
0
LINE
8
BLACK
6
CONTINUOUS
10
0.9286192519685039
20
0.0365482283464567
11
0.9223749999999999
21
0.0427924803149606
0
LINE
8
BLACK
6
CONTINUOUS
10
0.9223749999999999
20
0.0427924803149606
11
0.9152308267716536
21
0.047983031496063
0
LINE
8
BLACK
6
CONTINUOUS
10
0.9152308267716536
20
0.047983031496063
11
0.9073625984251968
21
0.0519920866141732
0
LINE
8
BLACK
6
CONTINUOUS
10
0.9073625984251968
20
0.0519920866141732
11
0.8989640944881889
21
0.054720905511811
0
LINE
8
BLACK
6
CONTINUOUS
10
0.8989640944881889
20
0.054720905511811
11
0.8902421259842519
21
0.0561023622047244
0
LINE
8
BLACK
6
CONTINUOUS
10
0.8902421259842519
20
0.0561023622047244
11
0.8814114173228347
21
0.0561023622047244
0
LINE
8
BLACK
6
CONTINUOUS
10
0.8814114173228347
20
0.0561023622047244
11
0.8726894488188977
21
0.054720905511811
0
LINE
8
BLACK
6
CONTINUOUS
10
0.8726894488188977
20
0.054720905511811
11
0.8642909448818897
21
0.0519920866141732
0
LINE
8
BLACK
6
CONTINUOUS
10
0.8642909448818897
20
0.0519920866141732
11
0.856422716535433
21
0.047983031496063
0
LINE
8
BLACK
6
CONTINUOUS
10
0.856422716535433
20
0.047983031496063
11
0.8492785433070866
21
0.0427924803149606
0
LINE
8
BLACK
6
CONTINUOUS
10
0.8492785433070866
20
0.0427924803149606
11
0.8430342913385827
21
0.0365482283464567
0
LINE
8
BLACK
6
CONTINUOUS
10
0.8430342913385827
20
0.0365482283464567
11
0.8378437401574803
21
0.0294040551181102
0
LINE
8
BLACK
6
CONTINUOUS
10
0.8378437401574803
20
0.0294040551181102
11
0.8338346850393701
21
0.0215358267716535
0
LINE
8
BLACK
6
CONTINUOUS
10
0.8338346850393701
20
0.0215358267716535
11
0.8311058661417323
21
0.0131373228346457
0
LINE
8
BLACK
6
CONTINUOUS
10
0.8311058661417323
20
0.0131373228346457
11
0.8297244094488189
21
0.0044153543307087
0
LINE
8
BLACK
6
CONTINUOUS
10
0.8297244094488189
20
0.0044153543307087
11
0.8297244094488189
21
0.
0
LINE
8
BLACK
6
CONTINUOUS
10
0.8297244094488189
20
0.
11
0.8296676771653543
21
-0.0001745669291339
0
LINE
8
BLACK
6
CONTINUOUS
10
0.8296676771653543
20
-0.0001745669291339
11
0.8296676771653543
21
-0.000576062992126
0
LINE
8
BLACK
6
CONTINUOUS
10
0.8296676771653543
20
-0.000576062992126
11
0.8292267716535433
21
-0.0016404724409449
0
LINE
8
BLACK
6
CONTINUOUS
10
0.8292267716535433
20
-0.0016404724409449
11
0.8291743307086614
21
-0.001692874015748
0
LINE
8
BLACK
6
CONTINUOUS
10
0.8291743307086614
20
-0.001692874015748
11
0.8291604724409448
21
-0.0017355905511811
0
LINE
8
BLACK
6
CONTINUOUS
10
0.8291604724409448
20
-0.0017355905511811
11
0.8290550787401575
21
-0.001812125984252
0
LINE
8
BLACK
6
CONTINUOUS
10
0.8290550787401575
20
-0.001812125984252
11
0.828412125984252
21
-0.0024551181102362
0
LINE
8
BLACK
6
CONTINUOUS
10
0.828412125984252
20
-0.0024551181102362
11
0.827849094488189
21
-0.0026883070866142
0
LINE
8
BLACK
6
CONTINUOUS
10
0.827849094488189
20
-0.0026883070866142
11
0.8276840944881889
21
-0.0028082283464567
0
LINE
8
BLACK
6
CONTINUOUS
10
0.8276840944881889
20
-0.0028082283464567
11
0.8275596850393701
21
-0.0028082283464567
0
LINE
8
BLACK
6
CONTINUOUS
10
0.8275596850393701
20
-0.0028082283464567
11
0.827347716535433
21
-0.0028960236220472
0
LINE
8
BLACK
6
CONTINUOUS
10
0.827347716535433
20
-0.0028960236220472
11
0.8267716535433071
21
-0.0029527559055118
0
LINE
8
BLACK
6
CONTINUOUS
10
0.8267716535433071
20
-0.0029527559055118
11
0.5511811023622047
21
-0.0029527559055118
0
LINE
8
BLACK
6
CONTINUOUS
10
0.5511811023622047
20
-0.0029527559055118
11
0.5506050393700788
21
-0.0028960236220472
0
LINE
8
BLACK
6
CONTINUOUS
10
0.5506050393700788
20
-0.0028960236220472
11
0.5503930708661418
21
-0.0028082283464567
0
LINE
8
BLACK
6
CONTINUOUS
10
0.5503930708661418
20
-0.0028082283464567
11
0.5502686614173228
21
-0.0028082283464567
0
LINE
8
BLACK
6
CONTINUOUS
10
0.5502686614173228
20
-0.0028082283464567
11
0.5501036220472441
21
-0.0026883070866142
0
LINE
8
BLACK
6
CONTINUOUS
10
0.5501036220472441
20
-0.0026883070866142
11
0.5495406299212598
21
-0.0024551181102362
0
LINE
8
BLACK
6
CONTINUOUS
10
0.5495406299212598
20
-0.0024551181102362
11
0.5488976377952756
21
-0.001812125984252
0
LINE
8
BLACK
6
CONTINUOUS
10
0.5488976377952756
20
-0.001812125984252
11
0.5487922834645669
21
-0.0017355905511811
0
LINE
8
BLACK
6
CONTINUOUS
10
0.5487922834645669
20
-0.0017355905511811
11
0.5487783858267716
21
-0.001692874015748
0
LINE
8
BLACK
6
CONTINUOUS
10
0.5487783858267716
20
-0.001692874015748
11
0.5487259842519685
21
-0.0016404724409449
0
LINE
8
BLACK
6
CONTINUOUS
10
0.5487259842519685
20
-0.0016404724409449
11
0.5482850787401574
21
-0.000576062992126
0
LINE
8
BLACK
6
CONTINUOUS
10
0.5482850787401574
20
-0.000576062992126
11
0.5482850787401574
21
-0.0001745669291339
0
LINE
8
BLACK
6
CONTINUOUS
10
0.5482850787401574
20
-0.0001745669291339
11
0.5482283464566929
21
0.
0
LINE
8
BLACK
6
CONTINUOUS
10
0.5482283464566929
20
0.
11
0.5482283464566929
21
0.0044153543307087
0
LINE
8
BLACK
6
CONTINUOUS
10
0.5482283464566929
20
0.0044153543307087
11
0.5468468897637795
21
0.0131373228346457
0
LINE
8
BLACK
6
CONTINUOUS
10
0.5468468897637795
20
0.0131373228346457
11
0.5441180708661417
21
0.0215358267716535
0
LINE
8
BLACK
6
CONTINUOUS
10
0.5441180708661417
20
0.0215358267716535
11
0.5401090157480315
21
0.0294040551181102
0
LINE
8
BLACK
6
CONTINUOUS
10
0.5401090157480315
20
0.0294040551181102
11
0.5349184645669292
21
0.0365482283464567
0
LINE
8
BLACK
6
CONTINUOUS
10
0.5349184645669292
20
0.0365482283464567
11
0.5286742125984252
21
0.0427924803149606
0
LINE
8
BLACK
6
CONTINUOUS
10
0.5286742125984252
20
0.0427924803149606
11
0.5215300393700787
21
0.047983031496063
0
LINE
8
BLACK
6
CONTINUOUS
10
0.5215300393700787
20
0.047983031496063
11
0.5136618110236221
21
0.0519920866141732
0
LINE
8
BLACK
6
CONTINUOUS
10
0.5136618110236221
20
0.0519920866141732
11
0.5052633070866142
21
0.054720905511811
0
LINE
8
BLACK
6
CONTINUOUS
10
0.5052633070866142
20
0.054720905511811
11
0.4965413385826771
21
0.0561023622047244
0
LINE
8
BLACK
6
CONTINUOUS
10
0.4965413385826771
20
0.0561023622047244
11
0.4877106299212599
21
0.0561023622047244
0
LINE
8
BLACK
6
CONTINUOUS
10
0.4877106299212599
20
0.0561023622047244
11
0.4789886614173228
21
0.054720905511811
0
LINE
8
BLACK
6
CONTINUOUS
10
0.4789886614173228
20
0.054720905511811
11
0.470590157480315
21
0.0519920866141732
0
LINE
8
BLACK
6
CONTINUOUS
10
0.470590157480315
20
0.0519920866141732
11
0.4627219291338582
21
0.047983031496063
0
LINE
8
BLACK
6
CONTINUOUS
10
0.4627219291338582
20
0.047983031496063
11
0.4555777559055118
21
0.0427924803149606
0
LINE
8
BLACK
6
CONTINUOUS
10
0.4555777559055118
20
0.0427924803149606
11
0.4493335039370079
21
0.0365482283464567
0
LINE
8
BLACK
6
CONTINUOUS
10
0.4493335039370079
20
0.0365482283464567
11
0.4441429527559055
21
0.0294040551181102
0
LINE
8
BLACK
6
CONTINUOUS
10
0.4441429527559055
20
0.0294040551181102
11
0.4401338976377953
21
0.0215358267716535
0
LINE
8
BLACK
6
CONTINUOUS
10
0.4401338976377953
20
0.0215358267716535
11
0.4374050787401575
21
0.0131373228346457
0
LINE
8
BLACK
6
CONTINUOUS
10
0.4374050787401575
20
0.0131373228346457
11
0.4360236220472441
21
0.0044153543307087
0
LINE
8
BLACK
6
CONTINUOUS
10
0.4360236220472441
20
0.0044153543307087
11
0.4360236220472441
21
0.
0
LINE
8
BLACK
6
CONTINUOUS
10
0.4360236220472441
20
0.
11
0.4359668897637795
21
-0.0001745669291339
0
LINE
8
BLACK
6
CONTINUOUS
10
0.4359668897637795
20
-0.0001745669291339
11
0.4359668897637795
21
-0.000576062992126
0
LINE
8
BLACK
6
CONTINUOUS
10
0.4359668897637795
20
-0.000576062992126
11
0.4355259842519685
21
-0.0016404724409449
0
LINE
8
BLACK
6
CONTINUOUS
10
0.4355259842519685
20
-0.0016404724409449
11
0.4354735433070866
21
-0.001692874015748
0
LINE
8
BLACK
6
CONTINUOUS
10
0.4354735433070866
20
-0.001692874015748
11
0.43545968503937
21
-0.0017355905511811
0
LINE
8
BLACK
6
CONTINUOUS
10
0.43545968503937
20
-0.0017355905511811
11
0.4353542913385827
21
-0.001812125984252
0
LINE
8
BLACK
6
CONTINUOUS
10
0.4353542913385827
20
-0.001812125984252
11
0.4347113385826771
21
-0.0024551181102362
0
LINE
8
BLACK
6
CONTINUOUS
10
0.4347113385826771
20
-0.0024551181102362
11
0.4341483070866142
21
-0.0026883070866142
0
LINE
8
BLACK
6
CONTINUOUS
10
0.4341483070866142
20
-0.0026883070866142
11
0.4339833070866141
21
-0.0028082283464567
0
LINE
8
BLACK
6
CONTINUOUS
10
0.4339833070866141
20
-0.0028082283464567
11
0.4338588976377953
21
-0.0028082283464567
0
LINE
8
BLACK
6
CONTINUOUS
10
0.4338588976377953
20
-0.0028082283464567
11
0.4336469291338583
21
-0.0028960236220472
0
LINE
8
BLACK
6
CONTINUOUS
10
0.4336469291338583
20
-0.0028960236220472
11
0.4330708661417323
21
-0.0029527559055118
0
LINE
8
BLACK
6
CONTINUOUS
10
0.4330708661417323
20
-0.0029527559055118
11
0.1574803149606299
21
-0.0029527559055118
0
LINE
8
BLACK
6
CONTINUOUS
10
0.1574803149606299
20
-0.0029527559055118
11
0.1569042519685039
21
-0.0028960236220472
0
LINE
8
BLACK
6
CONTINUOUS
10
0.1569042519685039
20
-0.0028960236220472
11
0.1566922834645669
21
-0.0028082283464567
0
LINE
8
BLACK
6
CONTINUOUS
10
0.1566922834645669
20
-0.0028082283464567
11
0.156567874015748
21
-0.0028082283464567
0
LINE
8
BLACK
6
CONTINUOUS
10
0.156567874015748
20
-0.0028082283464567
11
0.1564028346456693
21
-0.0026883070866142
0
LINE
8
BLACK
6
CONTINUOUS
10
0.1564028346456693
20
-0.0026883070866142
11
0.155839842519685
21
-0.0024551181102362
0
LINE
8
BLACK
6
CONTINUOUS
10
0.155839842519685
20
-0.0024551181102362
11
0.1551968503937008
21
-0.001812125984252
0
LINE
8
BLACK
6
CONTINUOUS
10
0.1551968503937008
20
-0.001812125984252
11
0.1550914960629921
21
-0.0017355905511811
0
LINE
8
BLACK
6
CONTINUOUS
10
0.1550914960629921
20
-0.0017355905511811
11
0.1550775984251968
21
-0.001692874015748
0
LINE
8
BLACK
6
CONTINUOUS
10
0.1550775984251968
20
-0.001692874015748
11
0.1550251968503937
21
-0.0016404724409449
0
LINE
8
BLACK
6
CONTINUOUS
10
0.1550251968503937
20
-0.0016404724409449
11
0.1545842913385827
21
-0.000576062992126
0
LINE
8
BLACK
6
CONTINUOUS
10
0.1545842913385827
20
-0.000576062992126
11
0.1545842913385827
21
-0.0001745669291339
0
LINE
8
BLACK
6
CONTINUOUS
10
0.1545842913385827
20
-0.0001745669291339
11
0.1545275590551181
21
0.
0
LINE
8
BLACK
6
CONTINUOUS
10
0.1545275590551181
20
0.
11
0.1545275590551181
21
0.0044153543307087
0
LINE
8
BLACK
6
CONTINUOUS
10
0.1545275590551181
20
0.0044153543307087
11
0.1531461023622047
21
0.0131373228346457
0
LINE
8
BLACK
6
CONTINUOUS
10
0.1531461023622047
20
0.0131373228346457
11
0.1504172834645669
21
0.0215358267716535
0
LINE
8
BLACK
6
CONTINUOUS
10
0.1504172834645669
20
0.0215358267716535
11
0.1464082283464567
21
0.0294040551181102
0
LINE
8
BLACK
6
CONTINUOUS
10
0.1464082283464567
20
0.0294040551181102
11
0.1412176771653543
21
0.0365482283464567
0
LINE
8
BLACK
6
CONTINUOUS
10
0.1412176771653543
20
0.0365482283464567
11
0.1349734251968504
21
0.0427924803149606
0
LINE
8
BLACK
6
CONTINUOUS
10
0.1349734251968504
20
0.0427924803149606
11
0.1278292519685039
21
0.047983031496063
0
LINE
8
BLACK
6
CONTINUOUS
10
0.1278292519685039
20
0.047983031496063
11
0.1199610236220472
21
0.0519920866141732
0
LINE
8
BLACK
6
CONTINUOUS
10
0.1199610236220472
20
0.0519920866141732
11
0.1115625196850394
21
0.054720905511811
0
LINE
8
BLACK
6
CONTINUOUS
10
0.1115625196850394
20
0.054720905511811
11
0.1028405511811024
21
0.0561023622047244
0
LINE
8
BLACK
6
CONTINUOUS
10
0.1028405511811024
20
0.0561023622047244
11
0.094009842519685
21
0.0561023622047244
0
LINE
8
BLACK
6
CONTINUOUS
10
0.094009842519685
20
0.0561023622047244
11
0.085287874015748
21
0.054720905511811
0
LINE
8
BLACK
6
CONTINUOUS
10
0.085287874015748
20
0.054720905511811
11
0.0768893700787402
21
0.0519920866141732
0
LINE
8
BLACK
6
CONTINUOUS
10
0.0768893700787402
20
0.0519920866141732
11
0.0690211417322835
21
0.047983031496063
0
LINE
8
BLACK
6
CONTINUOUS
10
0.0690211417322835
20
0.047983031496063
11
0.061876968503937
21
0.0427924803149606
0
LINE
8
BLACK
6
CONTINUOUS
10
0.061876968503937
20
0.0427924803149606
11
0.0556327165354331
21
0.0365482283464567
0
LINE
8
BLACK
6
CONTINUOUS
10
0.0556327165354331
20
0.0365482283464567
11
0.0504421653543307
21
0.0294040551181102
0
LINE
8
BLACK
6
CONTINUOUS
10
0.0504421653543307
20
0.0294040551181102
11
0.0464331102362205
21
0.0215358267716535
0
LINE
8
BLACK
6
CONTINUOUS
10
0.0464331102362205
20
0.0215358267716535
11
0.0437042913385827
21
0.0131373228346457
0
LINE
8
BLACK
6
CONTINUOUS
10
0.0437042913385827
20
0.0131373228346457
11
0.0423228346456693
21
0.0044153543307087
0
LINE
8
BLACK
6
CONTINUOUS
10
0.0423228346456693
20
0.0044153543307087
11
0.0423228346456693
21
0.
0
LINE
8
BLACK
6
CONTINUOUS
10
0.0423228346456693
20
0.
11
0.0422661023622047
21
-0.0001745669291339
0
LINE
8
BLACK
6
CONTINUOUS
10
0.0422661023622047
20
-0.0001745669291339
11
0.0422661023622047
21
-0.000576062992126
0
LINE
8
BLACK
6
CONTINUOUS
10
0.0422661023622047
20
-0.000576062992126
11
0.0418251968503937
21
-0.0016404724409449
0
LINE
8
BLACK
6
CONTINUOUS
10
0.0418251968503937
20
-0.0016404724409449
11
0.0417727559055118
21
-0.001692874015748
0
LINE
8
BLACK
6
CONTINUOUS
10
0.0417727559055118
20
-0.001692874015748
11
0.0417588976377953
21
-0.0017355905511811
0
LINE
8
BLACK
6
CONTINUOUS
10
0.0417588976377953
20
-0.0017355905511811
11
0.0416535039370079
21
-0.001812125984252
0
LINE
8
BLACK
6
CONTINUOUS
10
0.0416535039370079
20
-0.001812125984252
11
0.0410105511811024
21
-0.0024551181102362
0
LINE
8
BLACK
6
CONTINUOUS
10
0.0410105511811024
20
-0.0024551181102362
11
0.0404475196850394
21
-0.0026883070866142
0
LINE
8
BLACK
6
CONTINUOUS
10
0.0404475196850394
20
-0.0026883070866142
11
0.0402825196850394
21
-0.0028082283464567
0
LINE
8
BLACK
6
CONTINUOUS
10
0.0402825196850394
20
-0.0028082283464567
11
0.0401581102362205
21
-0.0028082283464567
0
LINE
8
BLACK
6
CONTINUOUS
10
0.0401581102362205
20
-0.0028082283464567
11
0.0399461417322835
21
-0.0028960236220472
0
LINE
8
BLACK
6
CONTINUOUS
10
0.0399461417322835
20
-0.0028960236220472
11
0.0393700787401575
21
-0.0029527559055118
0
LINE
8
BLACK
6
CONTINUOUS
10
0.0393700787401575
20
-0.0029527559055118
11
0.
21
-0.0029527559055118
0
LINE
8
BLACK
6
CONTINUOUS
10
0.
20
-0.0029527559055118
11
-0.000576062992126
21
-0.0028960236220472
0
LINE
8
BLACK
6
CONTINUOUS
10
-0.000576062992126
20
-0.0028960236220472
11
-0.0016404724409449
21
-0.0024551181102362
0
LINE
8
BLACK
6
CONTINUOUS
10
-0.0016404724409449
20
-0.0024551181102362
11
-0.0024551181102362
21
-0.0016404724409449
0
LINE
8
BLACK
6
CONTINUOUS
10
-0.0024551181102362
20
-0.0016404724409449
11
-0.0028960236220472
21
-0.000576062992126
0
LINE
8
BLACK
6
CONTINUOUS
10
-0.0028960236220472
20
-0.000576062992126
11
-0.0029527559055118
21
0.
0
LINE
8
BLACK
6
CONTINUOUS
10
-0.0029527559055118
20
0.
11
-0.0029527559055118
21
0.984251968503937
0
LINE
8
BLACK
6
CONTINUOUS
10
-0.0029527559055118
20
0.984251968503937
11
-0.0028960236220472
21
0.984828031496063
0
LINE
8
BLACK
6
CONTINUOUS
10
-0.0028960236220472
20
0.984828031496063
11
-0.0024551181102362
21
0.9858924409448818
0
LINE
8
BLACK
6
CONTINUOUS
10
-0.0024551181102362
20
0.9858924409448818
11
-0.0016404724409449
21
0.9867070866141732
0
LINE
8
BLACK
6
CONTINUOUS
10
-0.0016404724409449
20
0.9867070866141732
11
-0.000576062992126
21
0.9871479921259843
0
LINE
8
BLACK
6
CONTINUOUS
10
-0.000576062992126
20
0.9871479921259843
11
0.
21
0.9872047244094488
0
LINE
8
BLACK
6
CONTINUOUS
10
0.
20
0.9872047244094488
11
0.0393700787401575
21
0.9872047244094488
0
LINE
8
BLACK
6
CONTINUOUS
10
0.0393700787401575
20
0.9872047244094488
11
0.0399461417322835
21
0.9871479921259843
0
LINE
8
BLACK
6
CONTINUOUS
10
0.0029527559055118
20
0.9812992125984251
11
0.0029527559055118
21
0.0029527559055118
0
LINE
8
BLACK
6
CONTINUOUS
10
0.0029527559055118
20
0.0029527559055118
11
0.0366385826771654
21
0.0029527559055118
0
LINE
8
BLACK
6
CONTINUOUS
10
0.0366385826771654
20
0.0029527559055118
11
0.0371098818897638
21
0.009241811023622
0
LINE
8
BLACK
6
CONTINUOUS
10
0.0371098818897638
20
0.009241811023622
11
0.0391721653543307
21
0.018277125984252
0
LINE
8
BLACK
6
CONTINUOUS
10
0.0391721653543307
20
0.018277125984252
11
0.042558031496063
21
0.0269042125984252
0
LINE
8
BLACK
6
CONTINUOUS
10
0.042558031496063
20
0.0269042125984252
11
0.0471918897637795
21
0.0349302755905512
0
LINE
8
BLACK
6
CONTINUOUS
10
0.0471918897637795
20
0.0349302755905512
11
0.0529701968503937
21
0.042176062992126
0
LINE
8
BLACK
6
CONTINUOUS
10
0.0529701968503937
20
0.042176062992126
11
0.059763937007874
21
0.0484797244094488
0
LINE
8
BLACK
6
CONTINUOUS
10
0.059763937007874
20
0.0484797244094488
11
0.0674212598425197
21
0.0537003937007874
0
LINE
8
BLACK
6
CONTINUOUS
10
0.0674212598425197
20
0.0537003937007874
11
0.0757711811023622
21
0.0577214960629921
0
LINE
8
BLACK
6
CONTINUOUS
10
0.0757711811023622
20
0.0577214960629921
11
0.0846271653543307
21
0.0604531889763779
0
LINE
8
BLACK
6
CONTINUOUS
10
0.0846271653543307
20
0.0604531889763779
11
0.0937913385826772
21
0.0618344881889764
0
LINE
8
BLACK
6
CONTINUOUS
10
0.0937913385826772
20
0.0618344881889764
11
0.1030590551181102
21
0.0618344881889764
0
LINE
8
BLACK
6
CONTINUOUS
10
0.1030590551181102
20
0.0618344881889764
11
0.1122232283464567
21
0.0604531889763779
0
LINE
8
BLACK
6
CONTINUOUS
10
0.1122232283464567
20
0.0604531889763779
11
0.1210792125984252
21
0.0577214960629921
0
LINE
8
BLACK
6
CONTINUOUS
10
0.1210792125984252
20
0.0577214960629921
11
0.1294291338582677
21
0.0537003937007874
0
LINE
8
BLACK
6
CONTINUOUS
10
0.1294291338582677
20
0.0537003937007874
11
0.1370864566929134
21
0.0484797244094488
0
LINE
8
BLACK
6
CONTINUOUS
10
0.1370864566929134
20
0.0484797244094488
11
0.1438801968503937
21
0.042176062992126
0
LINE
8
BLACK
6
CONTINUOUS
10
0.1438801968503937
20
0.042176062992126
11
0.1496585039370079
21
0.0349302755905512
0
LINE
8
BLACK
6
CONTINUOUS
10
0.1496585039370079
20
0.0349302755905512
11
0.1542923622047244
21
0.0269042125984252
0
LINE
8
BLACK
6
CONTINUOUS
10
0.1542923622047244
20
0.0269042125984252
11
0.1576782283464567
21
0.018277125984252
0
LINE
8
BLACK
6
CONTINUOUS
10
0.1576782283464567
20
0.018277125984252
11
0.1597405118110236
21
0.009241811023622
0
LINE
8
BLACK
6
CONTINUOUS
10
0.1597405118110236
20
0.009241811023622
11
0.160211811023622
21
0.0029527559055118
0
LINE
8
BLACK
6
CONTINUOUS
10
0.160211811023622
20
0.0029527559055118
11
0.4303393700787401
21
0.0029527559055118
0
LINE
8
BLACK
6
CONTINUOUS
10
0.4303393700787401
20
0.0029527559055118
11
0.4308106692913386
21
0.009241811023622
0
LINE
8
BLACK
6
CONTINUOUS
10
0.4308106692913386
20
0.009241811023622
11
0.4328729527559055
21
0.018277125984252
0
LINE
8
BLACK
6
CONTINUOUS
10
0.4328729527559055
20
0.018277125984252
11
0.4362588188976378
21
0.0269042125984252
0
LINE
8
BLACK
6
CONTINUOUS
10
0.4362588188976378
20
0.0269042125984252
11
0.4408926771653543
21
0.0349302755905512
0
LINE
8
BLACK
6
CONTINUOUS
10
0.4408926771653543
20
0.0349302755905512
11
0.4466709842519685
21
0.042176062992126
0
LINE
8
BLACK
6
CONTINUOUS
10
0.4466709842519685
20
0.042176062992126
11
0.4534647244094488
21
0.0484797244094488
0
LINE
8
BLACK
6
CONTINUOUS
10
0.4534647244094488
20
0.0484797244094488
11
0.4611220472440945
21
0.0537003937007874
0
LINE
8
BLACK
6
CONTINUOUS
10
0.4611220472440945
20
0.0537003937007874
11
0.469471968503937
21
0.0577214960629921
0
LINE
8
BLACK
6
CONTINUOUS
10
0.469471968503937
20
0.0577214960629921
11
0.4783279527559055
21
0.0604531889763779
0
LINE
8
BLACK
6
CONTINUOUS
10
0.4783279527559055
20
0.0604531889763779
11
0.487492125984252
21
0.0618344881889764
0
LINE
8
BLACK
6
CONTINUOUS
10
0.487492125984252
20
0.0618344881889764
11
0.496759842519685
21
0.0618344881889764
0
LINE
8
BLACK
6
CONTINUOUS
10
0.496759842519685
20
0.0618344881889764
11
0.5059240157480315
21
0.0604531889763779
0
LINE
8
BLACK
6
CONTINUOUS
10
0.5059240157480315
20
0.0604531889763779
11
0.51478
21
0.0577214960629921
0
LINE
8
BLACK
6
CONTINUOUS
10
0.51478
20
0.0577214960629921
11
0.5231299212598425
21
0.0537003937007874
0
LINE
8
BLACK
6
CONTINUOUS
10
0.5231299212598425
20
0.0537003937007874
11
0.5307872440944882
21
0.0484797244094488
0
LINE
8
BLACK
6
CONTINUOUS
10
0.5307872440944882
20
0.0484797244094488
11
0.5375809842519685
21
0.042176062992126
0
LINE
8
BLACK
6
CONTINUOUS
10
0.5375809842519685
20
0.042176062992126
11
0.5433592913385826
21
0.0349302755905512
0
LINE
8
BLACK
6
CONTINUOUS
10
0.5433592913385826
20
0.0349302755905512
11
0.5479931496062992
21
0.0269042125984252
0
LINE
8
BLACK
6
CONTINUOUS
10
0.5479931496062992
20
0.0269042125984252
11
0.5513790157480315
21
0.018277125984252
0
LINE
8
BLACK
6
CONTINUOUS
10
0.5513790157480315
20
0.018277125984252
11
0.5534412992125984
21
0.009241811023622
0
LINE
8
BLACK
6
CONTINUOUS
10
0.5534412992125984
20
0.009241811023622
11
0.5539125984251968
21
0.0029527559055118
0
LINE
8
BLACK
6
CONTINUOUS
10
0.5539125984251968
20
0.0029527559055118
11
0.8240401574803149
21
0.0029527559055118
0
LINE
8
BLACK
6
CONTINUOUS
10
0.8240401574803149
20
0.0029527559055118
11
0.8245114566929134
21
0.009241811023622
0
LINE
8
BLACK
6
CONTINUOUS
10
0.8245114566929134
20
0.009241811023622
11
0.8265737401574803
21
0.018277125984252
0
LINE
8
BLACK
6
CONTINUOUS
10
0.8265737401574803
20
0.018277125984252
11
0.8299596062992126
21
0.0269042125984252
0
LINE
8
BLACK
6
CONTINUOUS
10
0.8299596062992126
20
0.0269042125984252
11
0.8345934645669291
21
0.0349302755905512
0
LINE
8
BLACK
6
CONTINUOUS
10
0.8345934645669291
20
0.0349302755905512
11
0.8403717716535433
21
0.042176062992126
0
LINE
8
BLACK
6
CONTINUOUS
10
0.8403717716535433
20
0.042176062992126
11
0.8471655118110236
21
0.0484797244094488
0
LINE
8
BLACK
6
CONTINUOUS
10
0.8471655118110236
20
0.0484797244094488
11
0.8548228346456693
21
0.0537003937007874
0
LINE
8
BLACK
6
CONTINUOUS
10
0.8548228346456693
20
0.0537003937007874
11
0.8631727559055118
21
0.0577214960629921
0
LINE
8
BLACK
6
CONTINUOUS
10
0.8631727559055118
20
0.0577214960629921
11
0.8720287401574803
21
0.0604531889763779
0
LINE
8
BLACK
6
CONTINUOUS
10
0.8720287401574803
20
0.0604531889763779
11
0.8811929133858267
21
0.0618344881889764
0
LINE
8
BLACK
6
CONTINUOUS
10
0.8811929133858267
20
0.0618344881889764
11
0.8904606299212598
21
0.0618344881889764
0
LINE
8
BLACK
6
CONTINUOUS
10
0.8904606299212598
20
0.0618344881889764
11
0.8996248031496062
21
0.0604531889763779
0
LINE
8
BLACK
6
CONTINUOUS
10
0.8996248031496062
20
0.0604531889763779
11
0.9084807874015748
21
0.0577214960629921
0
LINE
8
BLACK
6
CONTINUOUS
10
0.9084807874015748
20
0.0577214960629921
11
0.9168307086614172
21
0.0537003937007874
0
LINE
8
BLACK
6
CONTINUOUS
10
0.9168307086614172
20
0.0537003937007874
11
0.924488031496063
21
0.0484797244094488
0
LINE
8
BLACK
6
CONTINUOUS
10
0.924488031496063
20
0.0484797244094488
11
0.9312817716535433
21
0.042176062992126
0
LINE
8
BLACK
6
CONTINUOUS
10
0.9312817716535433
20
0.042176062992126
11
0.9370600787401575
21
0.0349302755905512
0
LINE
8
BLACK
6
CONTINUOUS
10
0.9370600787401575
20
0.0349302755905512
11
0.941693937007874
21
0.0269042125984252
0
LINE
8
BLACK
6
CONTINUOUS
10
0.941693937007874
20
0.0269042125984252
11
0.9450798031496063
21
0.018277125984252
0
LINE
8
BLACK
6
CONTINUOUS
10
0.9450798031496063
20
0.018277125984252
11
0.9471420866141732
21
0.009241811023622
0
LINE
8
BLACK
6
CONTINUOUS
10
0.9471420866141732
20
0.009241811023622
11
0.9476133858267717
21
0.0029527559055118
0
LINE
8
BLACK
6
CONTINUOUS
10
0.9476133858267717
20
0.0029527559055118
11
1.2177409448818897
21
0.0029527559055118
0
LINE
8
BLACK
6
CONTINUOUS
10
1.2177409448818897
20
0.0029527559055118
11
1.2182122440944883
21
0.009241811023622
0
LINE
8
BLACK
6
CONTINUOUS
10
1.2182122440944883
20
0.009241811023622
11
1.2202745275590552
21
0.018277125984252
0
LINE
8
BLACK
6
CONTINUOUS
10
1.2202745275590552
20
0.018277125984252
11
1.2236603937007873
21
0.0269042125984252
0
LINE
8
BLACK
6
CONTINUOUS
10
1.2236603937007873
20
0.0269042125984252
11
1.2282942519685038
21
0.0349302755905512
0
LINE
8
BLACK
6
CONTINUOUS
10
1.2282942519685038
20
0.0349302755905512
11
1.234072559055118
21
0.042176062992126
0
LINE
8
BLACK
6
CONTINUOUS
10
1.234072559055118
20
0.042176062992126
11
1.2408662992125985
21
0.0484797244094488
0
LINE
8
BLACK
6
CONTINUOUS
10
1.2408662992125985
20
0.0484797244094488
11
1.248523622047244
21
0.0537003937007874
0
LINE
8
BLACK
6
CONTINUOUS
10
1.248523622047244
20
0.0537003937007874
11
1.2568735433070866
21
0.0577214960629921
0
LINE
8
BLACK
6
CONTINUOUS
10
1.2568735433070866
20
0.0577214960629921
11
1.265729527559055
21
0.0604531889763779
0
LINE
8
BLACK
6
CONTINUOUS
10
1.265729527559055
20
0.0604531889763779
11
1.2748937007874015
21
0.0618344881889764
0
LINE
8
BLACK
6
CONTINUOUS
10
1.2748937007874015
20
0.0618344881889764
11
1.2841614173228346
21
0.0618344881889764
0
LINE
8
BLACK
6
CONTINUOUS
10
1.2841614173228346
20
0.0618344881889764
11
1.2933255905511811
21
0.0604531889763779
0
LINE
8
BLACK
6
CONTINUOUS
10
1.2933255905511811
20
0.0604531889763779
11
1.3021815748031496
21
0.0577214960629921
0
LINE
8
BLACK
6
CONTINUOUS
10
1.3021815748031496
20
0.0577214960629921
11
1.3105314960629921
21
0.0537003937007874
0
LINE
8
BLACK
6
CONTINUOUS
10
1.3105314960629921
20
0.0537003937007874
11
1.3181888188976378
21
0.0484797244094488
0
LINE
8
BLACK
6
CONTINUOUS
10
1.3181888188976378
20
0.0484797244094488
11
1.3249825590551181
21
0.042176062992126
0
LINE
8
BLACK
6
CONTINUOUS
10
1.3249825590551181
20
0.042176062992126
11
1.3307608661417323
21
0.0349302755905512
0
LINE
8
BLACK
6
CONTINUOUS
10
1.3307608661417323
20
0.0349302755905512
11
1.3353947244094488
21
0.0269042125984252
0
LINE
8
BLACK
6
CONTINUOUS
10
1.3353947244094488
20
0.0269042125984252
11
1.3387805905511811
21
0.018277125984252
0
LINE
8
BLACK
6
CONTINUOUS
10
1.3387805905511811
20
0.018277125984252
11
1.3408428740157481
21
0.009241811023622
0
LINE
8
BLACK
6
CONTINUOUS
10
1.3408428740157481
20
0.009241811023622
11
1.3413141732283465
21
0.0029527559055118
0
LINE
8
BLACK
6
CONTINUOUS
10
1.3413141732283465
20
0.0029527559055118
11
1.375
21
0.0029527559055118
0
LINE
8
BLACK
6
CONTINUOUS
10
1.375
20
0.0029527559055118
11
1.375
21
0.9812992125984251
0
LINE
8
BLACK
6
CONTINUOUS
10
1.375
20
0.9812992125984251
11
1.3413141732283465
21
0.9812992125984251
0
LINE
8
BLACK
6
CONTINUOUS
10
1.3413141732283465
20
0.9812992125984251
11
1.3408428740157481
21
0.9750101574803149
0
LINE
8
BLACK
6
CONTINUOUS
10
1.3408428740157481
20
0.9750101574803149
11
1.3387805905511811
21
0.965974842519685
0
LINE
8
BLACK
6
CONTINUOUS
10
1.3387805905511811
20
0.965974842519685
11
1.3353947244094488
21
0.9573477559055118
0
LINE
8
BLACK
6
CONTINUOUS
10
1.3353947244094488
20
0.9573477559055118
11
1.3307608661417323
21
0.9493216929133858
0
LINE
8
BLACK
6
CONTINUOUS
10
1.3307608661417323
20
0.9493216929133858
11
1.3249825590551181
21
0.942075905511811
0
LINE
8
BLACK
6
CONTINUOUS
10
1.3249825590551181
20
0.942075905511811
11
1.3181888188976378
21
0.9357722440944881
0
LINE
8
BLACK
6
CONTINUOUS
10
1.3181888188976378
20
0.9357722440944881
11
1.3105314960629921
21
0.9305515748031495
0
LINE
8
BLACK
6
CONTINUOUS
10
1.3105314960629921
20
0.9305515748031495
11
1.3021815748031496
21
0.9265304724409449
0
LINE
8
BLACK
6
CONTINUOUS
10
1.3021815748031496
20
0.9265304724409449
11
1.2933255905511811
21
0.9237987795275591
0
LINE
8
BLACK
6
CONTINUOUS
10
1.2933255905511811
20
0.9237987795275591
11
1.2841614173228346
21
0.9224174803149606
0
LINE
8
BLACK
6
CONTINUOUS
10
1.2841614173228346
20
0.9224174803149606
11
1.2748937007874015
21
0.9224174803149606
0
LINE
8
BLACK
6
CONTINUOUS
10
1.2748937007874015
20
0.9224174803149606
11
1.265729527559055
21
0.9237987795275591
0
LINE
8
BLACK
6
CONTINUOUS
10
1.265729527559055
20
0.9237987795275591
11
1.2568735433070866
21
0.9265304724409449
0
LINE
8
BLACK
6
CONTINUOUS
10
1.2568735433070866
20
0.9265304724409449
11
1.248523622047244
21
0.9305515748031495
0
LINE
8
BLACK
6
CONTINUOUS
10
1.248523622047244
20
0.9305515748031495
11
1.2408662992125985
21
0.9357722440944881
0
LINE
8
BLACK
6
CONTINUOUS
10
1.2408662992125985
20
0.9357722440944881
11
1.234072559055118
21
0.942075905511811
0
LINE
8
BLACK
6
CONTINUOUS
10
1.234072559055118
20
0.942075905511811
11
1.2282942519685038
21
0.9493216929133858
0
LINE
8
BLACK
6
CONTINUOUS
10
1.2282942519685038
20
0.9493216929133858
11
1.2236603937007873
21
0.9573477559055118
0
LINE
8
BLACK
6
CONTINUOUS
10
1.2236603937007873
20
0.9573477559055118
11
1.2202745275590552
21
0.965974842519685
0
LINE
8
BLACK
6
CONTINUOUS
10
1.2202745275590552
20
0.965974842519685
11
1.2182122440944883
21
0.9750101574803149
0
LINE
8
BLACK
6
CONTINUOUS
10
1.2182122440944883
20
0.9750101574803149
11
1.2177409448818897
21
0.9812992125984251
0
LINE
8
BLACK
6
CONTINUOUS
10
1.2177409448818897
20
0.9812992125984251
11
0.9476133858267717
21
0.9812992125984251
0
LINE
8
BLACK
6
CONTINUOUS
10
0.9476133858267717
20
0.9812992125984251
11
0.9471420866141732
21
0.9750101574803149
0
LINE
8
BLACK
6
CONTINUOUS
10
0.9471420866141732
20
0.9750101574803149
11
0.9450798031496063
21
0.965974842519685
0
LINE
8
BLACK
6
CONTINUOUS
10
0.9450798031496063
20
0.965974842519685
11
0.941693937007874
21
0.9573477559055118
0
LINE
8
BLACK
6
CONTINUOUS
10
0.941693937007874
20
0.9573477559055118
11
0.9370600787401575
21
0.9493216929133858
0
LINE
8
BLACK
6
CONTINUOUS
10
0.9370600787401575
20
0.9493216929133858
11
0.9312817716535433
21
0.942075905511811
0
LINE
8
BLACK
6
CONTINUOUS
10
0.9312817716535433
20
0.942075905511811
11
0.924488031496063
21
0.9357722440944881
0
LINE
8
BLACK
6
CONTINUOUS
10
0.924488031496063
20
0.9357722440944881
11
0.9168307086614172
21
0.9305515748031495
0
LINE
8
BLACK
6
CONTINUOUS
10
0.9168307086614172
20
0.9305515748031495
11
0.9084807874015748
21
0.9265304724409449
0
LINE
8
BLACK
6
CONTINUOUS
10
0.9084807874015748
20
0.9265304724409449
11
0.8996248031496062
21
0.9237987795275591
0
LINE
8
BLACK
6
CONTINUOUS
10
0.8996248031496062
20
0.9237987795275591
11
0.8904606299212598
21
0.9224174803149606
0
LINE
8
BLACK
6
CONTINUOUS
10
0.8904606299212598
20
0.9224174803149606
11
0.8811929133858267
21
0.9224174803149606
0
LINE
8
BLACK
6
CONTINUOUS
10
0.8811929133858267
20
0.9224174803149606
11
0.8720287401574803
21
0.9237987795275591
0
LINE
8
BLACK
6
CONTINUOUS
10
0.8720287401574803
20
0.9237987795275591
11
0.8631727559055118
21
0.9265304724409449
0
LINE
8
BLACK
6
CONTINUOUS
10
0.8631727559055118
20
0.9265304724409449
11
0.8548228346456693
21
0.9305515748031495
0
LINE
8
BLACK
6
CONTINUOUS
10
0.8548228346456693
20
0.9305515748031495
11
0.8471655118110236
21
0.9357722440944881
0
LINE
8
BLACK
6
CONTINUOUS
10
0.8471655118110236
20
0.9357722440944881
11
0.8403717716535433
21
0.942075905511811
0
LINE
8
BLACK
6
CONTINUOUS
10
0.8403717716535433
20
0.942075905511811
11
0.8345934645669291
21
0.9493216929133858
0
LINE
8
BLACK
6
CONTINUOUS
10
0.8345934645669291
20
0.9493216929133858
11
0.8299596062992126
21
0.9573477559055118
0
LINE
8
BLACK
6
CONTINUOUS
10
0.8299596062992126
20
0.9573477559055118
11
0.8265737401574803
21
0.965974842519685
0
LINE
8
BLACK
6
CONTINUOUS
10
0.8265737401574803
20
0.965974842519685
11
0.8245114566929134
21
0.9750101574803149
0
LINE
8
BLACK
6
CONTINUOUS
10
0.8245114566929134
20
0.9750101574803149
11
0.8240401574803149
21
0.9812992125984251
0
LINE
8
BLACK
6
CONTINUOUS
10
0.8240401574803149
20
0.9812992125984251
11
0.5539125984251968
21
0.9812992125984251
0
LINE
8
BLACK
6
CONTINUOUS
10
0.5539125984251968
20
0.9812992125984251
11
0.5534412992125984
21
0.9750101574803149
0
LINE
8
BLACK
6
CONTINUOUS
10
0.5534412992125984
20
0.9750101574803149
11
0.5513790157480315
21
0.965974842519685
0
LINE
8
BLACK
6
CONTINUOUS
10
0.5513790157480315
20
0.965974842519685
11
0.5479931496062992
21
0.9573477559055118
0
LINE
8
BLACK
6
CONTINUOUS
10
0.5479931496062992
20
0.9573477559055118
11
0.5433592913385826
21
0.9493216929133858
0
LINE
8
BLACK
6
CONTINUOUS
10
0.5433592913385826
20
0.9493216929133858
11
0.5375809842519685
21
0.942075905511811
0
LINE
8
BLACK
6
CONTINUOUS
10
0.5375809842519685
20
0.942075905511811
11
0.5307872440944882
21
0.9357722440944881
0
LINE
8
BLACK
6
CONTINUOUS
10
0.5307872440944882
20
0.9357722440944881
11
0.5231299212598425
21
0.9305515748031495
0
LINE
8
BLACK
6
CONTINUOUS
10
0.5231299212598425
20
0.9305515748031495
11
0.51478
21
0.9265304724409449
0
LINE
8
BLACK
6
CONTINUOUS
10
0.51478
20
0.9265304724409449
11
0.5059240157480315
21
0.9237987795275591
0
LINE
8
BLACK
6
CONTINUOUS
10
0.5059240157480315
20
0.9237987795275591
11
0.496759842519685
21
0.9224174803149606
0
LINE
8
BLACK
6
CONTINUOUS
10
0.496759842519685
20
0.9224174803149606
11
0.487492125984252
21
0.9224174803149606
0
LINE
8
BLACK
6
CONTINUOUS
10
0.487492125984252
20
0.9224174803149606
11
0.4783279527559055
21
0.9237987795275591
0
LINE
8
BLACK
6
CONTINUOUS
10
0.4783279527559055
20
0.9237987795275591
11
0.469471968503937
21
0.9265304724409449
0
LINE
8
BLACK
6
CONTINUOUS
10
0.469471968503937
20
0.9265304724409449
11
0.4611220472440945
21
0.9305515748031495
0
LINE
8
BLACK
6
CONTINUOUS
10
0.4611220472440945
20
0.9305515748031495
11
0.4534647244094488
21
0.9357722440944881
0
LINE
8
BLACK
6
CONTINUOUS
10
0.4534647244094488
20
0.9357722440944881
11
0.4466709842519685
21
0.942075905511811
0
LINE
8
BLACK
6
CONTINUOUS
10
0.4466709842519685
20
0.942075905511811
11
0.4408926771653543
21
0.9493216929133858
0
LINE
8
BLACK
6
CONTINUOUS
10
0.4408926771653543
20
0.9493216929133858
11
0.4362588188976378
21
0.9573477559055118
0
LINE
8
BLACK
6
CONTINUOUS
10
0.4362588188976378
20
0.9573477559055118
11
0.4328729527559055
21
0.965974842519685
0
LINE
8
BLACK
6
CONTINUOUS
10
0.4328729527559055
20
0.965974842519685
11
0.4308106692913386
21
0.9750101574803149
0
LINE
8
BLACK
6
CONTINUOUS
10
0.4308106692913386
20
0.9750101574803149
11
0.4303393700787401
21
0.9812992125984251
0
LINE
8
BLACK
6
CONTINUOUS
10
0.4303393700787401
20
0.9812992125984251
11
0.160211811023622
21
0.9812992125984251
0
LINE
8
BLACK
6
CONTINUOUS
10
0.160211811023622
20
0.9812992125984251
11
0.1597405118110236
21
0.9750101574803149
0
LINE
8
BLACK
6
CONTINUOUS
10
0.1597405118110236
20
0.9750101574803149
11
0.1576782283464567
21
0.965974842519685
0
LINE
8
BLACK
6
CONTINUOUS
10
0.1576782283464567
20
0.965974842519685
11
0.1542923622047244
21
0.9573477559055118
0
LINE
8
BLACK
6
CONTINUOUS
10
0.1542923622047244
20
0.9573477559055118
11
0.1496585039370079
21
0.9493216929133858
0
LINE
8
BLACK
6
CONTINUOUS
10
0.1496585039370079
20
0.9493216929133858
11
0.1438801968503937
21
0.942075905511811
0
LINE
8
BLACK
6
CONTINUOUS
10
0.1438801968503937
20
0.942075905511811
11
0.1370864566929134
21
0.9357722440944881
0
LINE
8
BLACK
6
CONTINUOUS
10
0.1370864566929134
20
0.9357722440944881
11
0.1294291338582677
21
0.9305515748031495
0
LINE
8
BLACK
6
CONTINUOUS
10
0.1294291338582677
20
0.9305515748031495
11
0.1210792125984252
21
0.9265304724409449
0
LINE
8
BLACK
6
CONTINUOUS
10
0.1210792125984252
20
0.9265304724409449
11
0.1122232283464567
21
0.9237987795275591
0
LINE
8
BLACK
6
CONTINUOUS
10
0.1122232283464567
20
0.9237987795275591
11
0.1030590551181102
21
0.9224174803149606
0
LINE
8
BLACK
6
CONTINUOUS
10
0.1030590551181102
20
0.9224174803149606
11
0.0937913385826772
21
0.9224174803149606
0
LINE
8
BLACK
6
CONTINUOUS
10
0.0937913385826772
20
0.9224174803149606
11
0.0846271653543307
21
0.9237987795275591
0
LINE
8
BLACK
6
CONTINUOUS
10
0.0846271653543307
20
0.9237987795275591
11
0.0757711811023622
21
0.9265304724409449
0
LINE
8
BLACK
6
CONTINUOUS
10
0.0757711811023622
20
0.9265304724409449
11
0.0674212598425197
21
0.9305515748031495
0
LINE
8
BLACK
6
CONTINUOUS
10
0.0674212598425197
20
0.9305515748031495
11
0.059763937007874
21
0.9357722440944881
0
LINE
8
BLACK
6
CONTINUOUS
10
0.059763937007874
20
0.9357722440944881
11
0.0529701968503937
21
0.942075905511811
0
LINE
8
BLACK
6
CONTINUOUS
10
0.0529701968503937
20
0.942075905511811
11
0.0471918897637795
21
0.9493216929133858
0
LINE
8
BLACK
6
CONTINUOUS
10
0.0471918897637795
20
0.9493216929133858
11
0.042558031496063
21
0.9573477559055118
0
LINE
8
BLACK
6
CONTINUOUS
10
0.042558031496063
20
0.9573477559055118
11
0.0391721653543307
21
0.965974842519685
0
LINE
8
BLACK
6
CONTINUOUS
10
0.0391721653543307
20
0.965974842519685
11
0.0371098818897638
21
0.9750101574803149
0
LINE
8
BLACK
6
CONTINUOUS
10
0.0371098818897638
20
0.9750101574803149
11
0.0366385826771654
21
0.9812992125984251
0
LINE
8
BLACK
6
CONTINUOUS
10
0.0366385826771654
20
0.9812992125984251
11
0.0029527559055118
21
0.9812992125984251
0
CIRCLE
8
BLACK
10
0.9547244094488189
20
0.7086614173228346
40
0.0068897637795276
0
CIRCLE
8
BLACK
10
0.9547244094488189
20
0.6086614173228346
40
0.0068897637795276
0
CIRCLE
8
BLACK
10
0.9547244094488189
20
0.5086614173228347
40
0.0068897637795276
0
CIRCLE
8
BLACK
10
0.9547244094488189
20
0.4086614173228346
40
0.0068897637795276
0
CIRCLE
8
BLACK
10
0.9547244094488189
20
0.3086614173228346
40
0.0068897637795276
  0
ENDSEC
  0
EOF
