  0
SECTION
  2
HEADER
  9
$ANGBASE
  50
0.0
  9
$ANGDIR
  70
1
  9
$MEASUREMENT
  70
0
  0
ENDSEC
  0
SECTION
  2
TABLES
  0
TABLE
  2
LTYPE
  70
4
  0
LTYPE
  5
40F
  2
CONTINUOUS
  70
0
  3
Solid line
  72
65
  73
0
  40
0.0
  0
LTYPE
  5
410
  2
DASHDOT
 70
0
  3
Dash Dot ____ _ ____ _
 72
65
 73
4
 40
2.0
 49
1.25
 49
-0.25
 49
0.25
 49
-0.25
  0
LTYPE
  5
411
  2
DASHED
 70
0
  3
Dashed __ __ __ __ __
 72
65
 73
2
 40
0.75
 49
0.5
 49
-0.25
  0
LTYPE
  5
43B
  2
DOTTED
 70
0
  3
Dotted .  .  .  .
 72
65
 73
2
 40
0.2
 49
0.0
 49
-0.2
  0
ENDTAB
  0
TABLE
  2
STYLE
  70
4
  0
STYLE
  2
KICAD
  70
0
  40
0
  41
1
  42
1
  50
0
  71
0
  3
isocp.shx
  0
STYLE
  2
KICADB
  70
0
  40
0
  41
1
  42
1
  50
0
  71
0
  3
isocp.shx
  0
STYLE
  2
KICADI
  70
0
  40
0
  41
1
  42
1
  50
15
  71
0
  3
isocp.shx
  0
STYLE
  2
KICADBI
  70
0
  40
0
  41
1
  42
1
  50
15
  71
0
  3
isocp.shx
  0
ENDTAB
  0
TABLE
  2
LAYER
  70
1
  0
LAYER
  2
BLACK
  70
0
  62
7
  6
CONTINUOUS
  0
ENDTAB
  0
ENDSEC
  0
SECTION
  2
ENTITIES
0
LINE
8
BLACK
6
CONTINUOUS
10
-0.017935
20
0.0872604724409449
11
-0.0168705905511811
21
0.0868195669291339
0
LINE
8
BLACK
6
CONTINUOUS
10
-0.0168705905511811
20
0.0868195669291339
11
-0.0160559448818898
21
0.0860049212598425
0
LINE
8
BLACK
6
CONTINUOUS
10
-0.0160559448818898
20
0.0860049212598425
11
-0.0156150393700787
21
0.0849405118110236
0
LINE
8
BLACK
6
CONTINUOUS
10
-0.0156150393700787
20
0.0849405118110236
11
-0.0155583070866142
21
0.0843644488188976
0
LINE
8
BLACK
6
CONTINUOUS
10
-0.0155583070866142
20
0.0843644488188976
11
-0.0155583070866142
21
0.0693663385826772
0
LINE
8
BLACK
6
CONTINUOUS
10
-0.0155583070866142
20
0.0693663385826772
11
-0.0156150393700787
21
0.0687902755905512
0
LINE
8
BLACK
6
CONTINUOUS
10
-0.0156150393700787
20
0.0687902755905512
11
-0.0156556299212598
21
0.0686923228346457
0
LINE
8
BLACK
6
CONTINUOUS
10
-0.0156556299212598
20
0.0686923228346457
11
-0.0156631496062992
21
0.0685864173228346
0
LINE
8
BLACK
6
CONTINUOUS
10
-0.0156631496062992
20
0.0685864173228346
11
-0.0158700393700787
21
0.0680458267716535
0
LINE
8
BLACK
6
CONTINUOUS
10
-0.0158700393700787
20
0.0680458267716535
11
-0.0177448031496063
21
0.0642962992125984
0
LINE
8
BLACK
6
CONTINUOUS
10
-0.0177448031496063
20
0.0642962992125984
11
-0.017900905511811
21
0.0640483070866142
0
LINE
8
BLACK
6
CONTINUOUS
10
-0.017900905511811
20
0.0640483070866142
11
-0.0179307086614173
21
0.0639763385826772
0
LINE
8
BLACK
6
CONTINUOUS
10
-0.0179307086614173
20
0.0639763385826772
11
-0.0179971653543307
21
0.0638953937007874
0
LINE
8
BLACK
6
CONTINUOUS
10
-0.0179971653543307
20
0.0638953937007874
11
-0.0180531496062992
21
0.0638064173228346
0
LINE
8
BLACK
6
CONTINUOUS
10
-0.0180531496062992
20
0.0638064173228346
11
-0.0181122047244094
21
0.0637552362204724
0
LINE
8
BLACK
6
CONTINUOUS
10
-0.0181122047244094
20
0.0637552362204724
11
-0.0182979527559055
21
0.0635288582677165
0
LINE
8
BLACK
6
CONTINUOUS
10
-0.0182979527559055
20
0.0635288582677165
11
-0.0201727559055118
21
0.061654094488189
0
LINE
8
BLACK
6
CONTINUOUS
10
-0.0201727559055118
20
0.061654094488189
11
-0.020399094488189
21
0.0614683858267717
0
LINE
8
BLACK
6
CONTINUOUS
10
-0.020399094488189
20
0.0614683858267717
11
-0.0204502362204724
21
0.0614093700787402
0
LINE
8
BLACK
6
CONTINUOUS
10
-0.0204502362204724
20
0.0614093700787402
11
-0.0205391732283465
21
0.0613534251968504
0
LINE
8
BLACK
6
CONTINUOUS
10
-0.0205391732283465
20
0.0613534251968504
11
-0.0206201968503937
21
0.0612868897637795
0
LINE
8
BLACK
6
CONTINUOUS
10
-0.0206201968503937
20
0.0612868897637795
11
-0.0206922440944882
21
0.0612570866141732
0
LINE
8
BLACK
6
CONTINUOUS
10
-0.0206922440944882
20
0.0612570866141732
11
-0.0209401181102362
21
0.0611010236220472
0
LINE
8
BLACK
6
CONTINUOUS
10
-0.0209401181102362
20
0.0611010236220472
11
-0.0246896456692913
21
0.0592262598425197
0
LINE
8
BLACK
6
CONTINUOUS
10
-0.0246896456692913
20
0.0592262598425197
11
-0.0252302755905512
21
0.0590193700787402
0
LINE
8
BLACK
6
CONTINUOUS
10
-0.0252302755905512
20
0.0590193700787402
11
-0.0253361023622047
21
0.0590118897637795
0
LINE
8
BLACK
6
CONTINUOUS
10
-0.0253361023622047
20
0.0590118897637795
11
-0.025434094488189
21
0.0589712598425197
0
LINE
8
BLACK
6
CONTINUOUS
10
-0.025434094488189
20
0.0589712598425197
11
-0.026010157480315
21
0.0589145275590551
0
LINE
8
BLACK
6
CONTINUOUS
10
-0.026010157480315
20
0.0589145275590551
11
-0.0316344488188976
21
0.0589145275590551
0
LINE
8
BLACK
6
CONTINUOUS
10
-0.0316344488188976
20
0.0589145275590551
11
-0.0322105118110236
21
0.0589712598425197
0
LINE
8
BLACK
6
CONTINUOUS
10
-0.0322105118110236
20
0.0589712598425197
11
-0.0323085039370079
21
0.0590118503937008
0
LINE
8
BLACK
6
CONTINUOUS
10
-0.0323085039370079
20
0.0590118503937008
11
-0.0324143700787402
21
0.0590193700787402
0
LINE
8
BLACK
6
CONTINUOUS
10
-0.0324143700787402
20
0.0590193700787402
11
-0.0329549606299213
21
0.0592262598425197
0
LINE
8
BLACK
6
CONTINUOUS
10
-0.0329549606299213
20
0.0592262598425197
11
-0.0367044881889764
21
0.0611010236220472
0
LINE
8
BLACK
6
CONTINUOUS
10
-0.0367044881889764
20
0.0611010236220472
11
-0.0369525196850394
21
0.061257125984252
0
LINE
8
BLACK
6
CONTINUOUS
10
-0.0369525196850394
20
0.061257125984252
11
-0.0370244488188976
21
0.0612869291338583
0
LINE
8
BLACK
6
CONTINUOUS
10
-0.0370244488188976
20
0.0612869291338583
11
-0.0371054330708661
21
0.0613534251968504
0
LINE
8
BLACK
6
CONTINUOUS
10
-0.0371054330708661
20
0.0613534251968504
11
-0.0371943700787402
21
0.0614093700787402
0
LINE
8
BLACK
6
CONTINUOUS
10
-0.0371943700787402
20
0.0614093700787402
11
-0.0372455511811024
21
0.0614683858267717
0
LINE
8
BLACK
6
CONTINUOUS
10
-0.0372455511811024
20
0.0614683858267717
11
-0.0374718897637795
21
0.0616541338582677
0
LINE
8
BLACK
6
CONTINUOUS
10
-0.0374718897637795
20
0.0616541338582677
11
-0.0393466535433071
21
0.0635288976377953
0
LINE
8
BLACK
6
CONTINUOUS
10
-0.0393466535433071
20
0.0635288976377953
11
-0.0397138582677165
21
0.0639763385826772
0
LINE
8
BLACK
6
CONTINUOUS
10
-0.0397138582677165
20
0.0639763385826772
11
-0.0397544881889764
21
0.0640744094488189
0
LINE
8
BLACK
6
CONTINUOUS
10
-0.0397544881889764
20
0.0640744094488189
11
-0.0398239763779528
21
0.0641545275590551
0
LINE
8
BLACK
6
CONTINUOUS
10
-0.0398239763779528
20
0.0641545275590551
11
-0.0399306299212598
21
0.0643934251968504
0
LINE
8
BLACK
6
CONTINUOUS
10
-0.0399306299212598
20
0.0643934251968504
11
-0.0407951181102362
21
0.0635288976377953
0
LINE
8
BLACK
6
CONTINUOUS
10
-0.0407951181102362
20
0.0635288976377953
11
-0.0410214960629921
21
0.0633431496062992
0
LINE
8
BLACK
6
CONTINUOUS
10
-0.0410214960629921
20
0.0633431496062992
11
-0.0410726377952756
21
0.0632841338582677
0
LINE
8
BLACK
6
CONTINUOUS
10
-0.0410726377952756
20
0.0632841338582677
11
-0.0411616141732283
21
0.063228188976378
0
LINE
8
BLACK
6
CONTINUOUS
10
-0.0411616141732283
20
0.063228188976378
11
-0.0412425590551181
21
0.0631616929133858
0
LINE
8
BLACK
6
CONTINUOUS
10
-0.0412425590551181
20
0.0631616929133858
11
-0.0413145275590551
21
0.0631318897637795
0
LINE
8
BLACK
6
CONTINUOUS
10
-0.0413145275590551
20
0.0631318897637795
11
-0.0415625196850394
21
0.0629757874015748
0
LINE
8
BLACK
6
CONTINUOUS
10
-0.0415625196850394
20
0.0629757874015748
11
-0.0453120472440945
21
0.0611010236220472
0
LINE
8
BLACK
6
CONTINUOUS
10
-0.0453120472440945
20
0.0611010236220472
11
-0.0458526771653543
21
0.0608941338582677
0
LINE
8
BLACK
6
CONTINUOUS
10
-0.0458526771653543
20
0.0608941338582677
11
-0.0459585039370079
21
0.0608866535433071
0
LINE
8
BLACK
6
CONTINUOUS
10
-0.0459585039370079
20
0.0608866535433071
11
-0.0460564960629921
21
0.0608460236220472
0
LINE
8
BLACK
6
CONTINUOUS
10
-0.0460564960629921
20
0.0608460236220472
11
-0.0466325590551181
21
0.0607892913385827
0
LINE
8
BLACK
6
CONTINUOUS
10
-0.0466325590551181
20
0.0607892913385827
11
-0.0503820866141732
21
0.0607892913385827
0
LINE
8
BLACK
6
CONTINUOUS
10
-0.0503820866141732
20
0.0607892913385827
11
-0.0509581496062992
21
0.0608460236220472
0
LINE
8
BLACK
6
CONTINUOUS
10
-0.0509581496062992
20
0.0608460236220472
11
-0.0510561417322835
21
0.0608866141732283
0
LINE
8
BLACK
6
CONTINUOUS
10
-0.0510561417322835
20
0.0608866141732283
11
-0.0511620078740157
21
0.0608941338582677
0
LINE
8
BLACK
6
CONTINUOUS
10
-0.0511620078740157
20
0.0608941338582677
11
-0.0517025984251969
21
0.0611010236220472
0
LINE
8
BLACK
6
CONTINUOUS
10
-0.0517025984251969
20
0.0611010236220472
11
-0.055452125984252
21
0.0629757874015748
0
LINE
8
BLACK
6
CONTINUOUS
10
-0.055452125984252
20
0.0629757874015748
11
-0.055700157480315
21
0.0631318897637795
0
LINE
8
BLACK
6
CONTINUOUS
10
-0.055700157480315
20
0.0631318897637795
11
-0.0557720866141732
21
0.0631616929133858
0
LINE
8
BLACK
6
CONTINUOUS
10
-0.0557720866141732
20
0.0631616929133858
11
-0.0558530708661417
21
0.063228188976378
0
LINE
8
BLACK
6
CONTINUOUS
10
-0.0558530708661417
20
0.063228188976378
11
-0.0559420078740157
21
0.0632841338582677
0
LINE
8
BLACK
6
CONTINUOUS
10
-0.0559420078740157
20
0.0632841338582677
11
-0.055993188976378
21
0.0633431496062992
0
LINE
8
BLACK
6
CONTINUOUS
10
-0.055993188976378
20
0.0633431496062992
11
-0.0562195275590551
21
0.0635288976377953
0
LINE
8
BLACK
6
CONTINUOUS
10
-0.0562195275590551
20
0.0635288976377953
11
-0.0580942913385827
21
0.0654036614173228
0
LINE
8
BLACK
6
CONTINUOUS
10
-0.0580942913385827
20
0.0654036614173228
11
-0.0582800787401575
21
0.0656300393700787
0
LINE
8
BLACK
6
CONTINUOUS
10
-0.0582800787401575
20
0.0656300393700787
11
-0.0583390551181102
21
0.0656811811023622
0
LINE
8
BLACK
6
CONTINUOUS
10
-0.0583390551181102
20
0.0656811811023622
11
-0.0583950393700787
21
0.065770157480315
0
LINE
8
BLACK
6
CONTINUOUS
10
-0.0583950393700787
20
0.065770157480315
11
-0.0584614960629921
21
0.0658511023622047
0
LINE
8
BLACK
6
CONTINUOUS
10
-0.0584614960629921
20
0.0658511023622047
11
-0.0584913385826772
21
0.0659230708661417
0
LINE
8
BLACK
6
CONTINUOUS
10
-0.0584913385826772
20
0.0659230708661417
11
-0.0586474015748032
21
0.066171062992126
0
LINE
8
BLACK
6
CONTINUOUS
10
-0.0586474015748032
20
0.066171062992126
11
-0.0605221653543307
21
0.0699205905511811
0
LINE
8
BLACK
6
CONTINUOUS
10
-0.0605221653543307
20
0.0699205905511811
11
-0.0607290551181102
21
0.0704612204724409
0
LINE
8
BLACK
6
CONTINUOUS
10
-0.0607290551181102
20
0.0704612204724409
11
-0.0607365748031496
21
0.0705670472440945
0
LINE
8
BLACK
6
CONTINUOUS
10
-0.0607365748031496
20
0.0705670472440945
11
-0.0607771653543307
21
0.0706650393700787
0
LINE
8
BLACK
6
CONTINUOUS
10
-0.0607771653543307
20
0.0706650393700787
11
-0.0608338976377953
21
0.0712411023622047
0
LINE
8
BLACK
6
CONTINUOUS
10
-0.0608338976377953
20
0.0712411023622047
11
-0.0608338976377953
21
0.0843644488188976
0
LINE
8
BLACK
6
CONTINUOUS
10
-0.0608338976377953
20
0.0843644488188976
11
-0.0607771653543307
21
0.0849405118110236
0
LINE
8
BLACK
6
CONTINUOUS
10
-0.0607771653543307
20
0.0849405118110236
11
-0.0603362598425197
21
0.0860049212598425
0
LINE
8
BLACK
6
CONTINUOUS
10
-0.0603362598425197
20
0.0860049212598425
11
-0.0595216141732283
21
0.0868195669291339
0
LINE
8
BLACK
6
CONTINUOUS
10
-0.0595216141732283
20
0.0868195669291339
11
-0.0584572047244094
21
0.0872604724409449
0
LINE
8
BLACK
6
CONTINUOUS
10
-0.0584572047244094
20
0.0872604724409449
11
-0.0578811417322835
21
0.0873172047244094
0
LINE
8
BLACK
6
CONTINUOUS
10
-0.0578811417322835
20
0.0873172047244094
11
-0.018511062992126
21
0.0873172047244094
0
LINE
8
BLACK
6
CONTINUOUS
10
-0.018511062992126
20
0.0873172047244094
11
-0.017935
21
0.0872604724409449
0
LINE
8
BLACK
6
CONTINUOUS
10
-0.0361807480314961
20
0.0717202755905512
11
-0.0346779527559055
21
0.0672118503937008
0
LINE
8
BLACK
6
CONTINUOUS
10
-0.0346779527559055
20
0.0672118503937008
11
-0.0336348818897638
21
0.066168779527559
0
LINE
8
BLACK
6
CONTINUOUS
10
-0.0336348818897638
20
0.066168779527559
11
-0.0309374015748031
21
0.0648200393700787
0
LINE
8
BLACK
6
CONTINUOUS
10
-0.0309374015748031
20
0.0648200393700787
11
-0.0267072047244094
21
0.0648200393700787
0
LINE
8
BLACK
6
CONTINUOUS
10
-0.0267072047244094
20
0.0648200393700787
11
-0.0240097244094488
21
0.0661688188976378
0
LINE
8
BLACK
6
CONTINUOUS
10
-0.0240097244094488
20
0.0661688188976378
11
-0.0228125590551181
21
0.0673659448818898
0
LINE
8
BLACK
6
CONTINUOUS
10
-0.0228125590551181
20
0.0673659448818898
11
-0.0214638188976378
21
0.0700633858267717
0
LINE
8
BLACK
6
CONTINUOUS
10
-0.0214638188976378
20
0.0700633858267717
11
-0.0214638188976378
21
0.0814116929133858
0
LINE
8
BLACK
6
CONTINUOUS
10
-0.0214638188976378
20
0.0814116929133858
11
-0.0361807480314961
21
0.0814116929133858
0
LINE
8
BLACK
6
CONTINUOUS
10
-0.0361807480314961
20
0.0814116929133858
11
-0.0361807480314961
21
0.0717202755905512
0
LINE
8
BLACK
6
CONTINUOUS
10
-0.0549283858267717
20
0.0719381496062992
11
-0.0535796456692913
21
0.0692406692913386
0
LINE
8
BLACK
6
CONTINUOUS
10
-0.0535796456692913
20
0.0692406692913386
11
-0.0523825196850394
21
0.0680435433070866
0
LINE
8
BLACK
6
CONTINUOUS
10
-0.0523825196850394
20
0.0680435433070866
11
-0.0496850393700787
21
0.0666948031496063
0
LINE
8
BLACK
6
CONTINUOUS
10
-0.0496850393700787
20
0.0666948031496063
11
-0.0473296062992126
21
0.0666948031496063
0
LINE
8
BLACK
6
CONTINUOUS
10
-0.0473296062992126
20
0.0666948031496063
11
-0.044632125984252
21
0.0680435433070866
0
LINE
8
BLACK
6
CONTINUOUS
10
-0.044632125984252
20
0.0680435433070866
11
-0.043435
21
0.0692406692913386
0
LINE
8
BLACK
6
CONTINUOUS
10
-0.043435
20
0.0692406692913386
11
-0.0420862598425197
21
0.0719381496062992
0
LINE
8
BLACK
6
CONTINUOUS
10
-0.0420862598425197
20
0.0719381496062992
11
-0.0420862598425197
21
0.0814116929133858
0
LINE
8
BLACK
6
CONTINUOUS
10
-0.0420862598425197
20
0.0814116929133858
11
-0.0549283858267717
21
0.0814116929133858
0
LINE
8
BLACK
6
CONTINUOUS
10
-0.0549283858267717
20
0.0814116929133858
11
-0.0549283858267717
21
0.0719381496062992
0
LINE
8
BLACK
6
CONTINUOUS
10
-0.0562406692913386
20
0.1224401181102362
11
-0.0554260236220472
21
0.1216254724409449
0
LINE
8
BLACK
6
CONTINUOUS
10
-0.0554260236220472
20
0.1216254724409449
11
-0.0549851181102362
21
0.120561062992126
0
LINE
8
BLACK
6
CONTINUOUS
10
-0.0549851181102362
20
0.120561062992126
11
-0.0549283858267717
21
0.119985
0
LINE
8
BLACK
6
CONTINUOUS
10
-0.0549283858267717
20
0.119985
11
-0.0549283858267717
21
0.1116891732283465
0
LINE
8
BLACK
6
CONTINUOUS
10
-0.0549283858267717
20
0.1116891732283465
11
-0.018511062992126
21
0.1116891732283465
0
LINE
8
BLACK
6
CONTINUOUS
10
-0.018511062992126
20
0.1116891732283465
11
-0.017935
21
0.1116324409448819
0
LINE
8
BLACK
6
CONTINUOUS
10
-0.017935
20
0.1116324409448819
11
-0.0168705905511811
21
0.1111915354330709
0
LINE
8
BLACK
6
CONTINUOUS
10
-0.0168705905511811
20
0.1111915354330709
11
-0.0160559448818898
21
0.1103768897637795
0
LINE
8
BLACK
6
CONTINUOUS
10
-0.0160559448818898
20
0.1103768897637795
11
-0.0156150393700787
21
0.1093124803149606
0
LINE
8
BLACK
6
CONTINUOUS
10
-0.0156150393700787
20
0.1093124803149606
11
-0.0156150393700787
21
0.1081603543307087
0
LINE
8
BLACK
6
CONTINUOUS
10
-0.0156150393700787
20
0.1081603543307087
11
-0.0160559448818898
21
0.1070959448818898
0
LINE
8
BLACK
6
CONTINUOUS
10
-0.0160559448818898
20
0.1070959448818898
11
-0.0168705905511811
21
0.1062812992125984
0
LINE
8
BLACK
6
CONTINUOUS
10
-0.0168705905511811
20
0.1062812992125984
11
-0.017935
21
0.1058403937007874
0
LINE
8
BLACK
6
CONTINUOUS
10
-0.017935
20
0.1058403937007874
11
-0.018511062992126
21
0.1057836614173228
0
LINE
8
BLACK
6
CONTINUOUS
10
-0.018511062992126
20
0.1057836614173228
11
-0.0549283858267717
21
0.1057836614173228
0
LINE
8
BLACK
6
CONTINUOUS
10
-0.0549283858267717
20
0.1057836614173228
11
-0.0549283858267717
21
0.0974878346456693
0
LINE
8
BLACK
6
CONTINUOUS
10
-0.0549283858267717
20
0.0974878346456693
11
-0.0549851181102362
21
0.0969117716535433
0
LINE
8
BLACK
6
CONTINUOUS
10
-0.0549851181102362
20
0.0969117716535433
11
-0.0554260236220472
21
0.0958473622047244
0
LINE
8
BLACK
6
CONTINUOUS
10
-0.0554260236220472
20
0.0958473622047244
11
-0.0562406692913386
21
0.0950327165354331
0
LINE
8
BLACK
6
CONTINUOUS
10
-0.0562406692913386
20
0.0950327165354331
11
-0.0573050787401575
21
0.094591811023622
0
LINE
8
BLACK
6
CONTINUOUS
10
-0.0573050787401575
20
0.094591811023622
11
-0.0584572047244094
21
0.094591811023622
0
LINE
8
BLACK
6
CONTINUOUS
10
-0.0584572047244094
20
0.094591811023622
11
-0.0595216141732283
21
0.0950327165354331
0
LINE
8
BLACK
6
CONTINUOUS
10
-0.0595216141732283
20
0.0950327165354331
11
-0.0603362598425197
21
0.0958473622047244
0
LINE
8
BLACK
6
CONTINUOUS
10
-0.0603362598425197
20
0.0958473622047244
11
-0.0607771653543307
21
0.0969117716535433
0
LINE
8
BLACK
6
CONTINUOUS
10
-0.0607771653543307
20
0.0969117716535433
11
-0.0608338976377953
21
0.0974878346456693
0
LINE
8
BLACK
6
CONTINUOUS
10
-0.0608338976377953
20
0.0974878346456693
11
-0.0608338976377953
21
0.119985
0
LINE
8
BLACK
6
CONTINUOUS
10
-0.0608338976377953
20
0.119985
11
-0.0607771653543307
21
0.120561062992126
0
LINE
8
BLACK
6
CONTINUOUS
10
-0.0607771653543307
20
0.120561062992126
11
-0.0603362598425197
21
0.1216254724409449
0
LINE
8
BLACK
6
CONTINUOUS
10
-0.0603362598425197
20
0.1216254724409449
11
-0.0595216141732283
21
0.1224401181102362
0
LINE
8
BLACK
6
CONTINUOUS
10
-0.0595216141732283
20
0.1224401181102362
11
-0.0584572047244094
21
0.1228810236220472
0
LINE
8
BLACK
6
CONTINUOUS
10
-0.0584572047244094
20
0.1228810236220472
11
-0.0573050787401575
21
0.1228810236220472
0
LINE
8
BLACK
6
CONTINUOUS
10
-0.0573050787401575
20
0.1228810236220472
11
-0.0562406692913386
21
0.1224401181102362
0
LINE
8
BLACK
6
CONTINUOUS
10
0.7541552755905512
20
0.1448300787401575
11
0.754671220472441
21
0.1448300787401575
0
LINE
8
BLACK
6
CONTINUOUS
10
0.754671220472441
20
0.1448300787401575
11
0.7548001968503937
21
0.1447011023622047
0
LINE
8
BLACK
6
CONTINUOUS
10
0.7548001968503937
20
0.1447011023622047
11
0.7549790551181103
21
0.1446653149606299
0
LINE
8
BLACK
6
CONTINUOUS
10
0.7549790551181103
20
0.1446653149606299
11
0.7554673228346457
21
0.1441760236220472
0
LINE
8
BLACK
6
CONTINUOUS
10
0.7554673228346457
20
0.1441760236220472
11
0.7576196456692913
21
0.1409475196850394
0
LINE
8
BLACK
6
CONTINUOUS
10
0.7576196456692913
20
0.1409475196850394
11
0.7595421653543307
21
0.139025
0
LINE
8
BLACK
6
CONTINUOUS
10
0.7595421653543307
20
0.139025
11
0.7615347244094488
21
0.1380287007874016
0
LINE
8
BLACK
6
CONTINUOUS
10
0.7615347244094488
20
0.1380287007874016
11
0.7620808267716536
21
0.1376048818897638
0
LINE
8
BLACK
6
CONTINUOUS
10
0.7620808267716536
20
0.1376048818897638
11
0.7625096062992126
21
0.1363185039370079
0
LINE
8
BLACK
6
CONTINUOUS
10
0.7625096062992126
20
0.1363185039370079
11
0.761903188976378
21
0.1351056692913386
0
LINE
8
BLACK
6
CONTINUOUS
10
0.761903188976378
20
0.1351056692913386
11
0.760616811023622
21
0.1346768897637795
0
LINE
8
BLACK
6
CONTINUOUS
10
0.760616811023622
20
0.1346768897637795
11
0.7599500787401574
21
0.1348594881889764
0
LINE
8
BLACK
6
CONTINUOUS
10
0.7599500787401574
20
0.1348594881889764
11
0.7577003543307086
21
0.1359843700787401
0
LINE
8
BLACK
6
CONTINUOUS
10
0.7577003543307086
20
0.1359843700787401
11
0.7574761023622048
21
0.1361584251968504
0
LINE
8
BLACK
6
CONTINUOUS
10
0.7574761023622048
20
0.1361584251968504
11
0.7572399212598425
21
0.1363162204724409
0
LINE
8
BLACK
6
CONTINUOUS
10
0.7572399212598425
20
0.1363162204724409
11
0.7557648818897638
21
0.1377912598425197
0
LINE
8
BLACK
6
CONTINUOUS
10
0.7557648818897638
20
0.1377912598425197
11
0.7557648818897638
21
0.121342874015748
0
LINE
8
BLACK
6
CONTINUOUS
10
0.7557648818897638
20
0.121342874015748
11
0.7607424015748031
21
0.121342874015748
0
LINE
8
BLACK
6
CONTINUOUS
10
0.7607424015748031
20
0.121342874015748
11
0.7614203937007874
21
0.121208031496063
0
LINE
8
BLACK
6
CONTINUOUS
10
0.7614203937007874
20
0.121208031496063
11
0.7623792125984252
21
0.1202492125984252
0
LINE
8
BLACK
6
CONTINUOUS
10
0.7623792125984252
20
0.1202492125984252
11
0.7623792125984252
21
0.1188932283464567
0
LINE
8
BLACK
6
CONTINUOUS
10
0.7623792125984252
20
0.1188932283464567
11
0.7614203937007874
21
0.1179344094488189
0
LINE
8
BLACK
6
CONTINUOUS
10
0.7614203937007874
20
0.1179344094488189
11
0.7607424015748031
21
0.1177995669291339
0
LINE
8
BLACK
6
CONTINUOUS
10
0.7607424015748031
20
0.1177995669291339
11
0.747244094488189
21
0.1177995669291339
0
LINE
8
BLACK
6
CONTINUOUS
10
0.747244094488189
20
0.1177995669291339
11
0.7465661023622047
21
0.1179344094488189
0
LINE
8
BLACK
6
CONTINUOUS
10
0.7465661023622047
20
0.1179344094488189
11
0.745607283464567
21
0.1188932283464567
0
LINE
8
BLACK
6
CONTINUOUS
10
0.745607283464567
20
0.1188932283464567
11
0.745607283464567
21
0.1202492125984252
0
LINE
8
BLACK
6
CONTINUOUS
10
0.745607283464567
20
0.1202492125984252
11
0.7465661023622047
21
0.121208031496063
0
LINE
8
BLACK
6
CONTINUOUS
10
0.7465661023622047
20
0.121208031496063
11
0.747244094488189
21
0.121342874015748
0
LINE
8
BLACK
6
CONTINUOUS
10
0.747244094488189
20
0.121342874015748
11
0.7522215748031496
21
0.121342874015748
0
LINE
8
BLACK
6
CONTINUOUS
10
0.7522215748031496
20
0.121342874015748
11
0.7522215748031496
21
0.1431932677165354
0
LINE
8
BLACK
6
CONTINUOUS
10
0.7522215748031496
20
0.1431932677165354
11
0.7523564173228346
21
0.1438712598425197
0
LINE
8
BLACK
6
CONTINUOUS
10
0.7523564173228346
20
0.1438712598425197
11
0.7524853937007874
21
0.1440002755905512
0
LINE
8
BLACK
6
CONTINUOUS
10
0.7524853937007874
20
0.1440002755905512
11
0.7525211811023622
21
0.144179094488189
0
LINE
8
BLACK
6
CONTINUOUS
10
0.7525211811023622
20
0.144179094488189
11
0.7529503937007874
21
0.1444652755905512
0
LINE
8
BLACK
6
CONTINUOUS
10
0.7529503937007874
20
0.1444652755905512
11
0.7533152362204725
21
0.1448300787401575
0
LINE
8
BLACK
6
CONTINUOUS
10
0.7533152362204725
20
0.1448300787401575
11
0.7534976377952756
21
0.1448300787401575
0
LINE
8
BLACK
6
CONTINUOUS
10
0.7534976377952756
20
0.1448300787401575
11
0.7536494094488189
21
0.1449312598425197
0
LINE
8
BLACK
6
CONTINUOUS
10
0.7536494094488189
20
0.1449312598425197
11
0.7541552755905512
21
0.1448300787401575
0
LINE
8
BLACK
6
CONTINUOUS
10
0.781667874015748
20
0.1448300787401575
11
0.7826266929133858
21
0.1438712598425197
0
LINE
8
BLACK
6
CONTINUOUS
10
0.7826266929133858
20
0.1438712598425197
11
0.7826266929133858
21
0.1425152755905512
0
LINE
8
BLACK
6
CONTINUOUS
10
0.7826266929133858
20
0.1425152755905512
11
0.781667874015748
21
0.1415564566929134
0
LINE
8
BLACK
6
CONTINUOUS
10
0.781667874015748
20
0.1415564566929134
11
0.7809898818897638
21
0.1414216141732283
0
LINE
8
BLACK
6
CONTINUOUS
10
0.7809898818897638
20
0.1414216141732283
11
0.7760123622047244
21
0.1414216141732283
0
LINE
8
BLACK
6
CONTINUOUS
10
0.7760123622047244
20
0.1414216141732283
11
0.7760123622047244
21
0.1195712204724409
0
LINE
8
BLACK
6
CONTINUOUS
10
0.7760123622047244
20
0.1195712204724409
11
0.7758775196850394
21
0.1188932283464567
0
LINE
8
BLACK
6
CONTINUOUS
10
0.7758775196850394
20
0.1188932283464567
11
0.7749187007874015
21
0.1179344094488189
0
LINE
8
BLACK
6
CONTINUOUS
10
0.7749187007874015
20
0.1179344094488189
11
0.7735627165354331
21
0.1179344094488189
0
LINE
8
BLACK
6
CONTINUOUS
10
0.7735627165354331
20
0.1179344094488189
11
0.7726038976377952
21
0.1188932283464567
0
LINE
8
BLACK
6
CONTINUOUS
10
0.7726038976377952
20
0.1188932283464567
11
0.7724690551181103
21
0.1195712204724409
0
LINE
8
BLACK
6
CONTINUOUS
10
0.7724690551181103
20
0.1195712204724409
11
0.7724690551181103
21
0.1414216141732283
0
LINE
8
BLACK
6
CONTINUOUS
10
0.7724690551181103
20
0.1414216141732283
11
0.7674915748031496
21
0.1414216141732283
0
LINE
8
BLACK
6
CONTINUOUS
10
0.7674915748031496
20
0.1414216141732283
11
0.7668135826771654
21
0.1415564566929134
0
LINE
8
BLACK
6
CONTINUOUS
10
0.7668135826771654
20
0.1415564566929134
11
0.7658547637795275
21
0.1425152755905512
0
LINE
8
BLACK
6
CONTINUOUS
10
0.7658547637795275
20
0.1425152755905512
11
0.7658547637795275
21
0.1438712598425197
0
LINE
8
BLACK
6
CONTINUOUS
10
0.7658547637795275
20
0.1438712598425197
11
0.7668135826771654
21
0.1448300787401575
0
LINE
8
BLACK
6
CONTINUOUS
10
0.7668135826771654
20
0.1448300787401575
11
0.7674915748031496
21
0.1449649212598425
0
LINE
8
BLACK
6
CONTINUOUS
10
0.7674915748031496
20
0.1449649212598425
11
0.7809898818897638
21
0.1449649212598425
0
LINE
8
BLACK
6
CONTINUOUS
10
0.7809898818897638
20
0.1449649212598425
11
0.781667874015748
21
0.1448300787401575
0
LINE
8
BLACK
6
CONTINUOUS
10
0.8168950393700787
20
0.1518186614173228
11
0.8179603937007874
21
0.1507533070866142
0
LINE
8
BLACK
6
CONTINUOUS
10
0.8179603937007874
20
0.1507533070866142
11
0.8181102362204724
21
0.15
0
LINE
8
BLACK
6
CONTINUOUS
10
0.8181102362204724
20
0.15
11
0.8181102362204724
21
0.1106299212598425
0
LINE
8
BLACK
6
CONTINUOUS
10
0.8181102362204724
20
0.1106299212598425
11
0.8179603937007874
21
0.1098766141732283
0
LINE
8
BLACK
6
CONTINUOUS
10
0.8179603937007874
20
0.1098766141732283
11
0.8168950393700787
21
0.1088112598425197
0
LINE
8
BLACK
6
CONTINUOUS
10
0.8168950393700787
20
0.1088112598425197
11
0.8161417322834645
21
0.1086614173228346
0
LINE
8
BLACK
6
CONTINUOUS
10
0.8161417322834645
20
0.1086614173228346
11
0.7098425196850393
21
0.1086614173228346
0
LINE
8
BLACK
6
CONTINUOUS
10
0.7098425196850393
20
0.1086614173228346
11
0.7090892125984252
21
0.1088112598425197
0
LINE
8
BLACK
6
CONTINUOUS
10
0.7090892125984252
20
0.1088112598425197
11
0.7080238582677165
21
0.1098766141732283
0
LINE
8
BLACK
6
CONTINUOUS
10
0.7080238582677165
20
0.1098766141732283
11
0.7078740157480314
21
0.1106299212598425
0
LINE
8
BLACK
6
CONTINUOUS
10
0.7078740157480314
20
0.1106299212598425
11
0.7078740157480314
21
0.15
0
LINE
8
BLACK
6
CONTINUOUS
10
0.7078740157480314
20
0.15
11
0.7080238582677165
21
0.1507533070866142
0
LINE
8
BLACK
6
CONTINUOUS
10
0.7080238582677165
20
0.1507533070866142
11
0.7090892125984252
21
0.1518186614173228
0
LINE
8
BLACK
6
CONTINUOUS
10
0.7090892125984252
20
0.1518186614173228
11
0.7098425196850393
21
0.1519685039370079
0
LINE
8
BLACK
6
CONTINUOUS
10
0.7098425196850393
20
0.1519685039370079
11
0.8161417322834645
21
0.1519685039370079
0
LINE
8
BLACK
6
CONTINUOUS
10
0.8161417322834645
20
0.1519685039370079
11
0.8168950393700787
21
0.1518186614173228
0
LINE
8
BLACK
6
CONTINUOUS
10
0.7118110236220472
20
0.1480314960629921
11
0.7118110236220472
21
0.1125984251968504
0
LINE
8
BLACK
6
CONTINUOUS
10
0.7118110236220472
20
0.1125984251968504
11
0.8141732283464567
21
0.1125984251968504
0
LINE
8
BLACK
6
CONTINUOUS
10
0.8141732283464567
20
0.1125984251968504
11
0.8141732283464567
21
0.1480314960629921
0
LINE
8
BLACK
6
CONTINUOUS
10
0.8141732283464567
20
0.1480314960629921
11
0.7118110236220472
21
0.1480314960629921
0
LINE
8
BLACK
6
CONTINUOUS
10
-0.0318687401574803
20
0.1655597244094488
11
-0.031054094488189
21
0.1647450787401575
0
LINE
8
BLACK
6
CONTINUOUS
10
-0.031054094488189
20
0.1647450787401575
11
-0.030613188976378
21
0.1636806692913386
0
LINE
8
BLACK
6
CONTINUOUS
10
-0.030613188976378
20
0.1636806692913386
11
-0.0305564566929134
21
0.1631046062992126
0
LINE
8
BLACK
6
CONTINUOUS
10
-0.0305564566929134
20
0.1631046062992126
11
-0.0305564566929134
21
0.1331083464566929
0
LINE
8
BLACK
6
CONTINUOUS
10
-0.0305564566929134
20
0.1331083464566929
11
-0.030613188976378
21
0.1325322834645669
0
LINE
8
BLACK
6
CONTINUOUS
10
-0.030613188976378
20
0.1325322834645669
11
-0.031054094488189
21
0.131467874015748
0
LINE
8
BLACK
6
CONTINUOUS
10
-0.031054094488189
20
0.131467874015748
11
-0.0318687401574803
21
0.1306532283464567
0
LINE
8
BLACK
6
CONTINUOUS
10
-0.0318687401574803
20
0.1306532283464567
11
-0.0329331496062992
21
0.1302123228346457
0
LINE
8
BLACK
6
CONTINUOUS
10
-0.0329331496062992
20
0.1302123228346457
11
-0.0340852755905512
21
0.1302123228346457
0
LINE
8
BLACK
6
CONTINUOUS
10
-0.0340852755905512
20
0.1302123228346457
11
-0.0351496850393701
21
0.1306532283464567
0
LINE
8
BLACK
6
CONTINUOUS
10
-0.0351496850393701
20
0.1306532283464567
11
-0.0359643307086614
21
0.131467874015748
0
LINE
8
BLACK
6
CONTINUOUS
10
-0.0359643307086614
20
0.131467874015748
11
-0.0364052362204724
21
0.1325322834645669
0
LINE
8
BLACK
6
CONTINUOUS
10
-0.0364052362204724
20
0.1325322834645669
11
-0.036461968503937
21
0.1331083464566929
0
LINE
8
BLACK
6
CONTINUOUS
10
-0.036461968503937
20
0.1331083464566929
11
-0.036461968503937
21
0.1631046062992126
0
LINE
8
BLACK
6
CONTINUOUS
10
-0.036461968503937
20
0.1631046062992126
11
-0.0364052362204724
21
0.1636806692913386
0
LINE
8
BLACK
6
CONTINUOUS
10
-0.0364052362204724
20
0.1636806692913386
11
-0.0359643307086614
21
0.1647450787401575
0
LINE
8
BLACK
6
CONTINUOUS
10
-0.0359643307086614
20
0.1647450787401575
11
-0.0351496850393701
21
0.1655597244094488
0
LINE
8
BLACK
6
CONTINUOUS
10
-0.0351496850393701
20
0.1655597244094488
11
-0.0340852755905512
21
0.1660006299212598
0
LINE
8
BLACK
6
CONTINUOUS
10
-0.0340852755905512
20
0.1660006299212598
11
-0.0329331496062992
21
0.1660006299212598
0
LINE
8
BLACK
6
CONTINUOUS
10
-0.0329331496062992
20
0.1660006299212598
11
-0.0318687401574803
21
0.1655597244094488
0
LINE
8
BLACK
6
CONTINUOUS
10
0.0973026377952756
20
0.2958559448818898
11
0.0981172834645669
21
0.2950412992125984
0
LINE
8
BLACK
6
CONTINUOUS
10
0.0981172834645669
20
0.2950412992125984
11
0.098558188976378
21
0.2939768897637795
0
LINE
8
BLACK
6
CONTINUOUS
10
0.098558188976378
20
0.2939768897637795
11
0.0986149212598425
21
0.2934008267716535
0
LINE
8
BLACK
6
CONTINUOUS
10
0.0986149212598425
20
0.2934008267716535
11
0.0986149212598425
21
0.2755361023622047
0
LINE
8
BLACK
6
CONTINUOUS
10
0.0986149212598425
20
0.2755361023622047
11
0.1087158661417323
21
0.2843744094488189
0
LINE
8
BLACK
6
CONTINUOUS
10
0.1087158661417323
20
0.2843744094488189
11
0.108964842519685
21
0.2845524409448819
0
LINE
8
BLACK
6
CONTINUOUS
10
0.108964842519685
20
0.2845524409448819
11
0.1090198031496063
21
0.2846073622047244
0
LINE
8
BLACK
6
CONTINUOUS
10
0.1090198031496063
20
0.2846073622047244
11
0.1090718897637795
21
0.2846289763779528
0
LINE
8
BLACK
6
CONTINUOUS
10
0.1090718897637795
20
0.2846289763779528
11
0.1091867716535433
21
0.284711062992126
0
LINE
8
BLACK
6
CONTINUOUS
10
0.1091867716535433
20
0.284711062992126
11
0.1096409842519685
21
0.2848646850393701
0
LINE
8
BLACK
6
CONTINUOUS
10
0.1096409842519685
20
0.2848646850393701
11
0.1100842125984252
21
0.2850482677165354
0
LINE
8
BLACK
6
CONTINUOUS
10
0.1100842125984252
20
0.2850482677165354
11
0.1101838582677165
21
0.2850482677165354
0
LINE
8
BLACK
6
CONTINUOUS
10
0.1101838582677165
20
0.2850482677165354
11
0.1102781496062992
21
0.285080157480315
0
LINE
8
BLACK
6
CONTINUOUS
10
0.1102781496062992
20
0.285080157480315
11
0.1107566141732283
21
0.2850482677165354
0
LINE
8
BLACK
6
CONTINUOUS
10
0.1107566141732283
20
0.2850482677165354
11
0.1112363385826772
21
0.2850482677165354
0
LINE
8
BLACK
6
CONTINUOUS
10
0.1112363385826772
20
0.2850482677165354
11
0.1113283070866142
21
0.2850101968503937
0
LINE
8
BLACK
6
CONTINUOUS
10
0.1113283070866142
20
0.2850101968503937
11
0.1114276771653543
21
0.2850035433070866
0
LINE
8
BLACK
6
CONTINUOUS
10
0.1114276771653543
20
0.2850035433070866
11
0.1118577952755905
21
0.2847908661417323
0
LINE
8
BLACK
6
CONTINUOUS
10
0.1118577952755905
20
0.2847908661417323
11
0.1123007480314961
21
0.2846073622047244
0
LINE
8
BLACK
6
CONTINUOUS
10
0.1123007480314961
20
0.2846073622047244
11
0.112371062992126
21
0.2845370472440945
0
LINE
8
BLACK
6
CONTINUOUS
10
0.112371062992126
20
0.2845370472440945
11
0.1124604330708661
21
0.2844928346456693
0
LINE
8
BLACK
6
CONTINUOUS
10
0.1124604330708661
20
0.2844928346456693
11
0.1127763779527559
21
0.2841317322834646
0
LINE
8
BLACK
6
CONTINUOUS
10
0.1127763779527559
20
0.2841317322834646
11
0.1131153937007874
21
0.2837927165354331
0
LINE
8
BLACK
6
CONTINUOUS
10
0.1131153937007874
20
0.2837927165354331
11
0.1131535039370079
21
0.283700748031496
0
LINE
8
BLACK
6
CONTINUOUS
10
0.1131535039370079
20
0.283700748031496
11
0.113219094488189
21
0.283625748031496
0
LINE
8
BLACK
6
CONTINUOUS
10
0.113219094488189
20
0.283625748031496
11
0.1133726771653543
21
0.2831715354330709
0
LINE
8
BLACK
6
CONTINUOUS
10
0.1133726771653543
20
0.2831715354330709
11
0.1135562992125984
21
0.2827283070866142
0
LINE
8
BLACK
6
CONTINUOUS
10
0.1135562992125984
20
0.2827283070866142
11
0.1135701181102362
21
0.2825877559055118
0
LINE
8
BLACK
6
CONTINUOUS
10
0.1135701181102362
20
0.2825877559055118
11
0.1135881889763779
21
0.2825343700787402
0
LINE
8
BLACK
6
CONTINUOUS
10
0.1135881889763779
20
0.2825343700787402
11
0.1135829921259842
21
0.2824569291338583
0
LINE
8
BLACK
6
CONTINUOUS
10
0.1135829921259842
20
0.2824569291338583
11
0.113613031496063
21
0.2821522440944882
0
LINE
8
BLACK
6
CONTINUOUS
10
0.113613031496063
20
0.2821522440944882
11
0.113613031496063
21
0.277225
0
LINE
8
BLACK
6
CONTINUOUS
10
0.113613031496063
20
0.277225
11
0.1149617716535433
21
0.2745275196850394
0
LINE
8
BLACK
6
CONTINUOUS
10
0.1149617716535433
20
0.2745275196850394
11
0.1161588976377953
21
0.2733303937007874
0
LINE
8
BLACK
6
CONTINUOUS
10
0.1161588976377953
20
0.2733303937007874
11
0.1188563779527559
21
0.2719816535433071
0
LINE
8
BLACK
6
CONTINUOUS
10
0.1188563779527559
20
0.2719816535433071
11
0.1268361023622047
21
0.2719816535433071
0
LINE
8
BLACK
6
CONTINUOUS
10
0.1268361023622047
20
0.2719816535433071
11
0.1295335826771654
21
0.2733304330708661
0
LINE
8
BLACK
6
CONTINUOUS
10
0.1295335826771654
20
0.2733304330708661
11
0.1307307480314961
21
0.2745275590551181
0
LINE
8
BLACK
6
CONTINUOUS
10
0.1307307480314961
20
0.2745275590551181
11
0.1320794881889764
21
0.277225
0
LINE
8
BLACK
6
CONTINUOUS
10
0.1320794881889764
20
0.277225
11
0.1320794881889764
21
0.2870794881889764
0
LINE
8
BLACK
6
CONTINUOUS
10
0.1320794881889764
20
0.2870794881889764
11
0.1307307480314961
21
0.289776968503937
0
LINE
8
BLACK
6
CONTINUOUS
10
0.1307307480314961
20
0.289776968503937
11
0.1291948031496063
21
0.291312874015748
0
LINE
8
BLACK
6
CONTINUOUS
10
0.1291948031496063
20
0.291312874015748
11
0.1288275590551181
21
0.2917603543307087
0
LINE
8
BLACK
6
CONTINUOUS
10
0.1288275590551181
20
0.2917603543307087
11
0.1283866535433071
21
0.2928247637795275
0
LINE
8
BLACK
6
CONTINUOUS
10
0.1283866535433071
20
0.2928247637795275
11
0.1283866535433071
21
0.2939768503937008
0
LINE
8
BLACK
6
CONTINUOUS
10
0.1283866535433071
20
0.2939768503937008
11
0.1288275196850394
21
0.2950412598425197
0
LINE
8
BLACK
6
CONTINUOUS
10
0.1288275196850394
20
0.2950412598425197
11
0.1296422047244094
21
0.2958559448818898
0
LINE
8
BLACK
6
CONTINUOUS
10
0.1296422047244094
20
0.2958559448818898
11
0.1307066141732283
21
0.2962968503937008
0
LINE
8
BLACK
6
CONTINUOUS
10
0.1307066141732283
20
0.2962968503937008
11
0.1318587007874016
21
0.2962968503937008
0
LINE
8
BLACK
6
CONTINUOUS
10
0.1318587007874016
20
0.2962968503937008
11
0.1329231102362205
21
0.2958559842519685
0
LINE
8
BLACK
6
CONTINUOUS
10
0.1329231102362205
20
0.2958559842519685
11
0.1333705511811024
21
0.295488779527559
0
LINE
8
BLACK
6
CONTINUOUS
10
0.1333705511811024
20
0.295488779527559
11
0.1352453543307087
21
0.2936140157480315
0
LINE
8
BLACK
6
CONTINUOUS
10
0.1352453543307087
20
0.2936140157480315
11
0.1354311023622047
21
0.2933876771653543
0
LINE
8
BLACK
6
CONTINUOUS
10
0.1354311023622047
20
0.2933876771653543
11
0.135490157480315
21
0.2933364566929134
0
LINE
8
BLACK
6
CONTINUOUS
10
0.135490157480315
20
0.2933364566929134
11
0.1355461417322835
21
0.2932475196850394
0
LINE
8
BLACK
6
CONTINUOUS
10
0.1355461417322835
20
0.2932475196850394
11
0.1356125984251969
21
0.2931665354330709
0
LINE
8
BLACK
6
CONTINUOUS
10
0.1356125984251969
20
0.2931665354330709
11
0.1356424015748031
21
0.2930946062992126
0
LINE
8
BLACK
6
CONTINUOUS
10
0.1356424015748031
20
0.2930946062992126
11
0.1357985039370079
21
0.2928465748031496
0
LINE
8
BLACK
6
CONTINUOUS
10
0.1357985039370079
20
0.2928465748031496
11
0.1376732677165354
21
0.2890970472440945
0
LINE
8
BLACK
6
CONTINUOUS
10
0.1376732677165354
20
0.2890970472440945
11
0.137880157480315
21
0.2885564566929134
0
LINE
8
BLACK
6
CONTINUOUS
10
0.137880157480315
20
0.2885564566929134
11
0.1378876771653543
21
0.2884505905511811
0
LINE
8
BLACK
6
CONTINUOUS
10
0.1378876771653543
20
0.2884505905511811
11
0.1379282677165354
21
0.2883525984251968
0
LINE
8
BLACK
6
CONTINUOUS
10
0.1379282677165354
20
0.2883525984251968
11
0.137985
21
0.2877765354330709
0
LINE
8
BLACK
6
CONTINUOUS
10
0.137985
20
0.2877765354330709
11
0.137985
21
0.2765279527559055
0
LINE
8
BLACK
6
CONTINUOUS
10
0.137985
20
0.2765279527559055
11
0.1379282677165354
21
0.2759518897637795
0
LINE
8
BLACK
6
CONTINUOUS
10
0.1379282677165354
20
0.2759518897637795
11
0.1378876771653543
21
0.275853937007874
0
LINE
8
BLACK
6
CONTINUOUS
10
0.1378876771653543
20
0.275853937007874
11
0.137880157480315
21
0.275748031496063
0
LINE
8
BLACK
6
CONTINUOUS
10
0.137880157480315
20
0.275748031496063
11
0.1376732677165354
21
0.2752074409448819
0
LINE
8
BLACK
6
CONTINUOUS
10
0.1376732677165354
20
0.2752074409448819
11
0.1357985039370079
21
0.2714579133858268
0
LINE
8
BLACK
6
CONTINUOUS
10
0.1357985039370079
20
0.2714579133858268
11
0.1356424015748031
21
0.2712099212598425
0
LINE
8
BLACK
6
CONTINUOUS
10
0.1356424015748031
20
0.2712099212598425
11
0.1356125984251969
21
0.2711379527559055
0
LINE
8
BLACK
6
CONTINUOUS
10
0.1356125984251969
20
0.2711379527559055
11
0.1355461417322835
21
0.2710570078740158
0
LINE
8
BLACK
6
CONTINUOUS
10
0.1355461417322835
20
0.2710570078740158
11
0.135490157480315
21
0.270968031496063
0
LINE
8
BLACK
6
CONTINUOUS
10
0.135490157480315
20
0.270968031496063
11
0.1354311023622047
21
0.2709168503937008
0
LINE
8
BLACK
6
CONTINUOUS
10
0.1354311023622047
20
0.2709168503937008
11
0.1352453543307087
21
0.2706904724409449
0
LINE
8
BLACK
6
CONTINUOUS
10
0.1352453543307087
20
0.2706904724409449
11
0.1333705511811024
21
0.2688157086614173
0
LINE
8
BLACK
6
CONTINUOUS
10
0.1333705511811024
20
0.2688157086614173
11
0.1331442125984252
21
0.26863
0
LINE
8
BLACK
6
CONTINUOUS
10
0.1331442125984252
20
0.26863
11
0.1330930708661417
21
0.2685709842519685
0
LINE
8
BLACK
6
CONTINUOUS
10
0.1330930708661417
20
0.2685709842519685
11
0.1330041338582677
21
0.2685150393700788
0
LINE
8
BLACK
6
CONTINUOUS
10
0.1330041338582677
20
0.2685150393700788
11
0.1329231102362205
21
0.2684485039370079
0
LINE
8
BLACK
6
CONTINUOUS
10
0.1329231102362205
20
0.2684485039370079
11
0.132851062992126
21
0.2684187007874015
0
LINE
8
BLACK
6
CONTINUOUS
10
0.132851062992126
20
0.2684187007874015
11
0.132603188976378
21
0.2682626377952756
0
LINE
8
BLACK
6
CONTINUOUS
10
0.132603188976378
20
0.2682626377952756
11
0.1288536614173228
21
0.266387874015748
0
LINE
8
BLACK
6
CONTINUOUS
10
0.1288536614173228
20
0.266387874015748
11
0.128313031496063
21
0.2661809842519685
0
LINE
8
BLACK
6
CONTINUOUS
10
0.128313031496063
20
0.2661809842519685
11
0.1282072047244094
21
0.2661735039370079
0
LINE
8
BLACK
6
CONTINUOUS
10
0.1282072047244094
20
0.2661735039370079
11
0.1281092125984252
21
0.266132874015748
0
LINE
8
BLACK
6
CONTINUOUS
10
0.1281092125984252
20
0.266132874015748
11
0.1275331496062992
21
0.2660761417322834
0
LINE
8
BLACK
6
CONTINUOUS
10
0.1275331496062992
20
0.2660761417322834
11
0.1181593307086614
21
0.2660761417322834
0
LINE
8
BLACK
6
CONTINUOUS
10
0.1181593307086614
20
0.2660761417322834
11
0.1175832677165354
21
0.266132874015748
0
LINE
8
BLACK
6
CONTINUOUS
10
0.1175832677165354
20
0.266132874015748
11
0.1174852755905512
21
0.2661734645669291
0
LINE
8
BLACK
6
CONTINUOUS
10
0.1174852755905512
20
0.2661734645669291
11
0.1173794094488189
21
0.2661809842519685
0
LINE
8
BLACK
6
CONTINUOUS
10
0.1173794094488189
20
0.2661809842519685
11
0.1168388188976378
21
0.266387874015748
0
LINE
8
BLACK
6
CONTINUOUS
10
0.1168388188976378
20
0.266387874015748
11
0.1130892913385827
21
0.2682626377952756
0
LINE
8
BLACK
6
CONTINUOUS
10
0.1130892913385827
20
0.2682626377952756
11
0.1128412598425197
21
0.2684187401574803
0
LINE
8
BLACK
6
CONTINUOUS
10
0.1128412598425197
20
0.2684187401574803
11
0.1127693307086614
21
0.2684485433070866
0
LINE
8
BLACK
6
CONTINUOUS
10
0.1127693307086614
20
0.2684485433070866
11
0.1126883464566929
21
0.2685150393700788
0
LINE
8
BLACK
6
CONTINUOUS
10
0.1126883464566929
20
0.2685150393700788
11
0.1125994094488189
21
0.2685709842519685
0
LINE
8
BLACK
6
CONTINUOUS
10
0.1125994094488189
20
0.2685709842519685
11
0.1125482283464567
21
0.26863
0
LINE
8
BLACK
6
CONTINUOUS
10
0.1125482283464567
20
0.26863
11
0.1123218897637795
21
0.268815748031496
0
LINE
8
BLACK
6
CONTINUOUS
10
0.1123218897637795
20
0.268815748031496
11
0.110447125984252
21
0.2706905118110236
0
LINE
8
BLACK
6
CONTINUOUS
10
0.110447125984252
20
0.2706905118110236
11
0.1102613385826772
21
0.2709168897637795
0
LINE
8
BLACK
6
CONTINUOUS
10
0.1102613385826772
20
0.2709168897637795
11
0.1102023622047244
21
0.270968031496063
0
LINE
8
BLACK
6
CONTINUOUS
10
0.1102023622047244
20
0.270968031496063
11
0.1101463779527559
21
0.2710570078740158
0
LINE
8
BLACK
6
CONTINUOUS
10
0.1101463779527559
20
0.2710570078740158
11
0.1100799212598425
21
0.2711379527559055
0
LINE
8
BLACK
6
CONTINUOUS
10
0.1100799212598425
20
0.2711379527559055
11
0.1100500787401575
21
0.2712099212598425
0
LINE
8
BLACK
6
CONTINUOUS
10
0.1100500787401575
20
0.2712099212598425
11
0.1098940157480315
21
0.2714579133858268
0
LINE
8
BLACK
6
CONTINUOUS
10
0.1098940157480315
20
0.2714579133858268
11
0.1080192519685039
21
0.2752074409448819
0
LINE
8
BLACK
6
CONTINUOUS
10
0.1080192519685039
20
0.2752074409448819
11
0.1078155905511811
21
0.2757396456692913
0
LINE
8
BLACK
6
CONTINUOUS
10
0.1078155905511811
20
0.2757396456692913
11
0.0976065748031496
21
0.2668067322834646
0
LINE
8
BLACK
6
CONTINUOUS
10
0.0976065748031496
20
0.2668067322834646
11
0.0973575590551181
21
0.2666287401574803
0
LINE
8
BLACK
6
CONTINUOUS
10
0.0973575590551181
20
0.2666287401574803
11
0.0973026377952756
21
0.2665737795275591
0
LINE
8
BLACK
6
CONTINUOUS
10
0.0973026377952756
20
0.2665737795275591
11
0.0972505118110236
21
0.2665522047244094
0
LINE
8
BLACK
6
CONTINUOUS
10
0.0972505118110236
20
0.2665522047244094
11
0.0971356692913386
21
0.2664700787401575
0
LINE
8
BLACK
6
CONTINUOUS
10
0.0971356692913386
20
0.2664700787401575
11
0.0966814173228346
21
0.2663164960629921
0
LINE
8
BLACK
6
CONTINUOUS
10
0.0966814173228346
20
0.2663164960629921
11
0.0962382283464567
21
0.266132874015748
0
LINE
8
BLACK
6
CONTINUOUS
10
0.0962382283464567
20
0.266132874015748
11
0.0961385826771654
21
0.266132874015748
0
LINE
8
BLACK
6
CONTINUOUS
10
0.0961385826771654
20
0.266132874015748
11
0.0960442913385827
21
0.2661009842519685
0
LINE
8
BLACK
6
CONTINUOUS
10
0.0960442913385827
20
0.2661009842519685
11
0.0955658267716535
21
0.266132874015748
0
LINE
8
BLACK
6
CONTINUOUS
10
0.0955658267716535
20
0.266132874015748
11
0.0950861023622047
21
0.266132874015748
0
LINE
8
BLACK
6
CONTINUOUS
10
0.0950861023622047
20
0.266132874015748
11
0.094994094488189
21
0.2661709842519685
0
LINE
8
BLACK
6
CONTINUOUS
10
0.094994094488189
20
0.2661709842519685
11
0.0948947637795276
21
0.2661775984251968
0
LINE
8
BLACK
6
CONTINUOUS
10
0.0948947637795276
20
0.2661775984251968
11
0.0944646062992126
21
0.2663903149606299
0
LINE
8
BLACK
6
CONTINUOUS
10
0.0944646062992126
20
0.2663903149606299
11
0.0940216929133858
21
0.2665737795275591
0
LINE
8
BLACK
6
CONTINUOUS
10
0.0940216929133858
20
0.2665737795275591
11
0.0939513385826772
21
0.2666441338582677
0
LINE
8
BLACK
6
CONTINUOUS
10
0.0939513385826772
20
0.2666441338582677
11
0.0938620078740157
21
0.2666883070866142
0
LINE
8
BLACK
6
CONTINUOUS
10
0.0938620078740157
20
0.2666883070866142
11
0.0935460236220472
21
0.2670494488188976
0
LINE
8
BLACK
6
CONTINUOUS
10
0.0935460236220472
20
0.2670494488188976
11
0.0932070472440945
21
0.2673884251968504
0
LINE
8
BLACK
6
CONTINUOUS
10
0.0932070472440945
20
0.2673884251968504
11
0.0931688976377953
21
0.2674804330708661
0
LINE
8
BLACK
6
CONTINUOUS
10
0.0931688976377953
20
0.2674804330708661
11
0.0931033464566929
21
0.2675553937007874
0
LINE
8
BLACK
6
CONTINUOUS
10
0.0931033464566929
20
0.2675553937007874
11
0.0929497244094488
21
0.2680096456692913
0
LINE
8
BLACK
6
CONTINUOUS
10
0.0929497244094488
20
0.2680096456692913
11
0.0927661417322835
21
0.2684528346456693
0
LINE
8
BLACK
6
CONTINUOUS
10
0.0927661417322835
20
0.2684528346456693
11
0.0927522834645669
21
0.2685934251968504
0
LINE
8
BLACK
6
CONTINUOUS
10
0.0927522834645669
20
0.2685934251968504
11
0.0927342519685039
21
0.2686467716535433
0
LINE
8
BLACK
6
CONTINUOUS
10
0.0927342519685039
20
0.2686467716535433
11
0.0927394094488189
21
0.2687242519685039
0
LINE
8
BLACK
6
CONTINUOUS
10
0.0927394094488189
20
0.2687242519685039
11
0.0927094094488189
21
0.2690288976377953
0
LINE
8
BLACK
6
CONTINUOUS
10
0.0927094094488189
20
0.2690288976377953
11
0.0927094094488189
21
0.2934008267716535
0
LINE
8
BLACK
6
CONTINUOUS
10
0.0927094094488189
20
0.2934008267716535
11
0.0927661417322835
21
0.2939768897637795
0
LINE
8
BLACK
6
CONTINUOUS
10
0.0927661417322835
20
0.2939768897637795
11
0.0932070472440945
21
0.2950412992125984
0
LINE
8
BLACK
6
CONTINUOUS
10
0.0932070472440945
20
0.2950412992125984
11
0.0940216929133858
21
0.2958559448818898
0
LINE
8
BLACK
6
CONTINUOUS
10
0.0940216929133858
20
0.2958559448818898
11
0.0950861023622047
21
0.2962968503937008
0
LINE
8
BLACK
6
CONTINUOUS
10
0.0950861023622047
20
0.2962968503937008
11
0.0962382283464567
21
0.2962968503937008
0
LINE
8
BLACK
6
CONTINUOUS
10
0.0962382283464567
20
0.2962968503937008
11
0.0973026377952756
21
0.2958559448818898
0
LINE
8
BLACK
6
CONTINUOUS
10
0.1366727165354331
20
0.3258522047244095
11
0.1374873622047244
21
0.3250375590551181
0
LINE
8
BLACK
6
CONTINUOUS
10
0.1374873622047244
20
0.3250375590551181
11
0.1379282677165354
21
0.3239731496062992
0
LINE
8
BLACK
6
CONTINUOUS
10
0.1379282677165354
20
0.3239731496062992
11
0.137985
21
0.3233970866141732
0
LINE
8
BLACK
6
CONTINUOUS
10
0.137985
20
0.3233970866141732
11
0.137985
21
0.3196475590551181
0
LINE
8
BLACK
6
CONTINUOUS
10
0.137985
20
0.3196475590551181
11
0.1379562598425197
21
0.3193559842519685
0
LINE
8
BLACK
6
CONTINUOUS
10
0.1379562598425197
20
0.3193559842519685
11
0.137961811023622
21
0.3192782283464567
0
LINE
8
BLACK
6
CONTINUOUS
10
0.137961811023622
20
0.3192782283464567
11
0.1379385433070866
21
0.3191759842519685
0
LINE
8
BLACK
6
CONTINUOUS
10
0.1379385433070866
20
0.3191759842519685
11
0.1379282677165354
21
0.3190714960629921
0
LINE
8
BLACK
6
CONTINUOUS
10
0.1379282677165354
20
0.3190714960629921
11
0.1378983858267717
21
0.3189994488188976
0
LINE
8
BLACK
6
CONTINUOUS
10
0.1378983858267717
20
0.3189994488188976
11
0.1378334645669291
21
0.318713779527559
0
LINE
8
BLACK
6
CONTINUOUS
10
0.1378334645669291
20
0.318713779527559
11
0.1359587007874016
21
0.3130895275590551
0
LINE
8
BLACK
6
CONTINUOUS
10
0.1359587007874016
20
0.3130895275590551
11
0.1357227165354331
21
0.3125609448818897
0
LINE
8
BLACK
6
CONTINUOUS
10
0.1357227165354331
20
0.3125609448818897
11
0.1356532283464567
21
0.3124808661417323
0
LINE
8
BLACK
6
CONTINUOUS
10
0.1356532283464567
20
0.3124808661417323
11
0.1356126377952756
21
0.3123827952755905
0
LINE
8
BLACK
6
CONTINUOUS
10
0.1356126377952756
20
0.3123827952755905
11
0.1352453937007874
21
0.3119353543307087
0
LINE
8
BLACK
6
CONTINUOUS
10
0.1352453937007874
20
0.3119353543307087
11
0.1314958267716535
21
0.3081858267716535
0
LINE
8
BLACK
6
CONTINUOUS
10
0.1314958267716535
20
0.3081858267716535
11
0.1310483464566929
21
0.3078185826771653
0
LINE
8
BLACK
6
CONTINUOUS
10
0.1310483464566929
20
0.3078185826771653
11
0.1309502755905512
21
0.3077779921259842
0
LINE
8
BLACK
6
CONTINUOUS
10
0.1309502755905512
20
0.3077779921259842
11
0.1308701968503937
21
0.3077085039370079
0
LINE
8
BLACK
6
CONTINUOUS
10
0.1308701968503937
20
0.3077085039370079
11
0.1303416535433071
21
0.3074725196850394
0
LINE
8
BLACK
6
CONTINUOUS
10
0.1303416535433071
20
0.3074725196850394
11
0.1247173622047244
21
0.3055977559055118
0
LINE
8
BLACK
6
CONTINUOUS
10
0.1247173622047244
20
0.3055977559055118
11
0.1244317716535433
21
0.3055328346456693
0
LINE
8
BLACK
6
CONTINUOUS
10
0.1244317716535433
20
0.3055328346456693
11
0.1243596850393701
21
0.3055029527559055
0
LINE
8
BLACK
6
CONTINUOUS
10
0.1243596850393701
20
0.3055029527559055
11
0.124255157480315
21
0.3054926771653543
0
LINE
8
BLACK
6
CONTINUOUS
10
0.124255157480315
20
0.3054926771653543
11
0.1241529133858268
21
0.3054694094488189
0
LINE
8
BLACK
6
CONTINUOUS
10
0.1241529133858268
20
0.3054694094488189
11
0.124075157480315
21
0.3054749606299212
0
LINE
8
BLACK
6
CONTINUOUS
10
0.124075157480315
20
0.3054749606299212
11
0.1237836220472441
21
0.3054462204724409
0
LINE
8
BLACK
6
CONTINUOUS
10
0.1237836220472441
20
0.3054462204724409
11
0.0956621653543307
21
0.3054462204724409
0
LINE
8
BLACK
6
CONTINUOUS
10
0.0956621653543307
20
0.3054462204724409
11
0.0950861023622047
21
0.3055029527559055
0
LINE
8
BLACK
6
CONTINUOUS
10
0.0950861023622047
20
0.3055029527559055
11
0.0940216929133858
21
0.3059438582677165
0
LINE
8
BLACK
6
CONTINUOUS
10
0.0940216929133858
20
0.3059438582677165
11
0.0932070472440945
21
0.3067585039370079
0
LINE
8
BLACK
6
CONTINUOUS
10
0.0932070472440945
20
0.3067585039370079
11
0.0927661417322835
21
0.3078229133858268
0
LINE
8
BLACK
6
CONTINUOUS
10
0.0927661417322835
20
0.3078229133858268
11
0.0927661417322835
21
0.3089750393700788
0
LINE
8
BLACK
6
CONTINUOUS
10
0.0927661417322835
20
0.3089750393700788
11
0.0932070472440945
21
0.3100394488188976
0
LINE
8
BLACK
6
CONTINUOUS
10
0.0932070472440945
20
0.3100394488188976
11
0.0940216929133858
21
0.310854094488189
0
LINE
8
BLACK
6
CONTINUOUS
10
0.0940216929133858
20
0.310854094488189
11
0.0950861023622047
21
0.311295
0
LINE
8
BLACK
6
CONTINUOUS
10
0.0950861023622047
20
0.311295
11
0.0956621653543307
21
0.3113517322834646
0
LINE
8
BLACK
6
CONTINUOUS
10
0.0956621653543307
20
0.3113517322834646
11
0.1233044881889764
21
0.3113517322834646
0
LINE
8
BLACK
6
CONTINUOUS
10
0.1233044881889764
20
0.3113517322834646
11
0.127812874015748
21
0.3128545669291338
0
LINE
8
BLACK
6
CONTINUOUS
10
0.127812874015748
20
0.3128545669291338
11
0.1305766929133858
21
0.3156183464566929
0
LINE
8
BLACK
6
CONTINUOUS
10
0.1305766929133858
20
0.3156183464566929
11
0.1320794881889764
21
0.3201266929133858
0
LINE
8
BLACK
6
CONTINUOUS
10
0.1320794881889764
20
0.3201266929133858
11
0.1320794881889764
21
0.3233970866141732
0
LINE
8
BLACK
6
CONTINUOUS
10
0.1320794881889764
20
0.3233970866141732
11
0.1321362204724409
21
0.3239731496062992
0
LINE
8
BLACK
6
CONTINUOUS
10
0.1321362204724409
20
0.3239731496062992
11
0.132577125984252
21
0.3250375590551181
0
LINE
8
BLACK
6
CONTINUOUS
10
0.132577125984252
20
0.3250375590551181
11
0.1333917716535433
21
0.3258522047244095
0
LINE
8
BLACK
6
CONTINUOUS
10
0.1333917716535433
20
0.3258522047244095
11
0.1344561811023622
21
0.3262931102362205
0
LINE
8
BLACK
6
CONTINUOUS
10
0.1344561811023622
20
0.3262931102362205
11
0.1356083070866142
21
0.3262931102362205
0
LINE
8
BLACK
6
CONTINUOUS
10
0.1356083070866142
20
0.3262931102362205
11
0.1366727165354331
21
0.3258522047244095
0
LINE
8
BLACK
6
CONTINUOUS
10
0.1808714173228347
20
0.4594958267716535
11
0.1819367716535433
21
0.4584304724409449
0
LINE
8
BLACK
6
CONTINUOUS
10
0.1819367716535433
20
0.4584304724409449
11
0.1820866141732284
21
0.4576771653543307
0
LINE
8
BLACK
6
CONTINUOUS
10
0.1820866141732284
20
0.4576771653543307
11
0.1820866141732284
21
0.1328740157480315
0
LINE
8
BLACK
6
CONTINUOUS
10
0.1820866141732284
20
0.1328740157480315
11
0.1819367716535433
21
0.1321207086614173
0
LINE
8
BLACK
6
CONTINUOUS
10
0.1819367716535433
20
0.1321207086614173
11
0.1808714173228347
21
0.1310553543307087
0
LINE
8
BLACK
6
CONTINUOUS
10
0.1808714173228347
20
0.1310553543307087
11
0.1801181102362205
21
0.1309055118110236
0
LINE
8
BLACK
6
CONTINUOUS
10
0.1801181102362205
20
0.1309055118110236
11
0.0206692913385827
21
0.1309055118110236
0
LINE
8
BLACK
6
CONTINUOUS
10
0.0206692913385827
20
0.1309055118110236
11
0.0199159842519685
21
0.1310553543307087
0
LINE
8
BLACK
6
CONTINUOUS
10
0.0199159842519685
20
0.1310553543307087
11
0.0188506299212598
21
0.1321207086614173
0
LINE
8
BLACK
6
CONTINUOUS
10
0.0188506299212598
20
0.1321207086614173
11
0.0187007874015748
21
0.1328740157480315
0
LINE
8
BLACK
6
CONTINUOUS
10
0.0187007874015748
20
0.1328740157480315
11
0.0187007874015748
21
0.4576771653543307
0
LINE
8
BLACK
6
CONTINUOUS
10
0.0187007874015748
20
0.4576771653543307
11
0.0188506299212598
21
0.4584304724409449
0
LINE
8
BLACK
6
CONTINUOUS
10
0.0188506299212598
20
0.4584304724409449
11
0.0199159842519685
21
0.4594958267716535
0
LINE
8
BLACK
6
CONTINUOUS
10
0.0199159842519685
20
0.4594958267716535
11
0.0206692913385827
21
0.4596456692913386
0
LINE
8
BLACK
6
CONTINUOUS
10
0.0206692913385827
20
0.4596456692913386
11
0.1801181102362205
21
0.4596456692913386
0
LINE
8
BLACK
6
CONTINUOUS
10
0.1801181102362205
20
0.4596456692913386
11
0.1808714173228347
21
0.4594958267716535
0
LINE
8
BLACK
6
CONTINUOUS
10
0.0226377952755905
20
0.4557086614173228
11
0.0226377952755905
21
0.1348425196850394
0
LINE
8
BLACK
6
CONTINUOUS
10
0.0226377952755905
20
0.1348425196850394
11
0.1781496062992126
21
0.1348425196850394
0
LINE
8
BLACK
6
CONTINUOUS
10
0.1781496062992126
20
0.1348425196850394
11
0.1781496062992126
21
0.2007527165354331
0
LINE
8
BLACK
6
CONTINUOUS
10
0.1781496062992126
20
0.2007527165354331
11
0.1511427165354331
21
0.2198494094488189
0
LINE
8
BLACK
6
CONTINUOUS
10
0.1511427165354331
20
0.2198494094488189
11
0.1506141732283464
21
0.2204066929133858
0
LINE
8
BLACK
6
CONTINUOUS
10
0.1506141732283464
20
0.2204066929133858
11
0.1505564173228346
21
0.2207431102362205
0
LINE
8
BLACK
6
CONTINUOUS
10
0.1505564173228346
20
0.2207431102362205
11
0.1503594094488189
21
0.2210217716535433
0
LINE
8
BLACK
6
CONTINUOUS
10
0.1503594094488189
20
0.2210217716535433
11
0.1504340157480315
21
0.2214566929133858
0
LINE
8
BLACK
6
CONTINUOUS
10
0.1504340157480315
20
0.2214566929133858
11
0.1503594094488189
21
0.2218916141732283
0
LINE
8
BLACK
6
CONTINUOUS
10
0.1503594094488189
20
0.2218916141732283
11
0.1505564173228346
21
0.2221703149606299
0
LINE
8
BLACK
6
CONTINUOUS
10
0.1505564173228346
20
0.2221703149606299
11
0.1506141732283464
21
0.2225066929133858
0
LINE
8
BLACK
6
CONTINUOUS
10
0.1506141732283464
20
0.2225066929133858
11
0.1511427165354331
21
0.2230639763779527
0
LINE
8
BLACK
6
CONTINUOUS
10
0.1511427165354331
20
0.2230639763779527
11
0.1781496062992126
21
0.2421607086614173
0
LINE
8
BLACK
6
CONTINUOUS
10
0.1781496062992126
20
0.2421607086614173
11
0.1781496062992126
21
0.4557086614173228
0
LINE
8
BLACK
6
CONTINUOUS
10
0.1781496062992126
20
0.4557086614173228
11
0.0226377952755905
21
0.4557086614173228
0
LINE
8
BLACK
6
CONTINUOUS
10
0.1556888188976378
20
0.2214566929133858
11
0.1781496062992126
21
0.2055745669291339
0
LINE
8
BLACK
6
CONTINUOUS
10
0.1781496062992126
20
0.2055745669291339
11
0.1781496062992126
21
0.2373388582677165
0
LINE
8
BLACK
6
CONTINUOUS
10
0.1781496062992126
20
0.2373388582677165
11
0.1556888188976378
21
0.2214566929133858
0
LINE
8
BLACK
6
CONTINUOUS
10
-0.0460564960629921
20
0.2053707086614173
11
-0.0459585039370079
21
0.2053301181102362
0
LINE
8
BLACK
6
CONTINUOUS
10
-0.0459585039370079
20
0.2053301181102362
11
-0.0458526771653543
21
0.2053225984251968
0
LINE
8
BLACK
6
CONTINUOUS
10
-0.0458526771653543
20
0.2053225984251968
11
-0.0453120472440945
21
0.2051157086614173
0
LINE
8
BLACK
6
CONTINUOUS
10
-0.0453120472440945
20
0.2051157086614173
11
-0.0415625196850394
21
0.2032409448818898
0
LINE
8
BLACK
6
CONTINUOUS
10
-0.0415625196850394
20
0.2032409448818898
11
-0.0413145275590551
21
0.2030848818897638
0
LINE
8
BLACK
6
CONTINUOUS
10
-0.0413145275590551
20
0.2030848818897638
11
-0.0412425590551181
21
0.2030550393700787
0
LINE
8
BLACK
6
CONTINUOUS
10
-0.0412425590551181
20
0.2030550393700787
11
-0.0411616141732283
21
0.2029885826771654
0
LINE
8
BLACK
6
CONTINUOUS
10
-0.0411616141732283
20
0.2029885826771654
11
-0.0410726377952756
21
0.2029325984251968
0
LINE
8
BLACK
6
CONTINUOUS
10
-0.0410726377952756
20
0.2029325984251968
11
-0.0410214960629921
21
0.2028736220472441
0
LINE
8
BLACK
6
CONTINUOUS
10
-0.0410214960629921
20
0.2028736220472441
11
-0.0407951181102362
21
0.2026878346456693
0
LINE
8
BLACK
6
CONTINUOUS
10
-0.0407951181102362
20
0.2026878346456693
11
-0.0389203543307087
21
0.2008130708661417
0
LINE
8
BLACK
6
CONTINUOUS
10
-0.0389203543307087
20
0.2008130708661417
11
-0.0387346062992126
21
0.2005867322834646
0
LINE
8
BLACK
6
CONTINUOUS
10
-0.0387346062992126
20
0.2005867322834646
11
-0.0386755905511811
21
0.2005355511811024
0
LINE
8
BLACK
6
CONTINUOUS
10
-0.0386755905511811
20
0.2005355511811024
11
-0.0386196456692913
21
0.2004466141732283
0
LINE
8
BLACK
6
CONTINUOUS
10
-0.0386196456692913
20
0.2004466141732283
11
-0.0385531496062992
21
0.2003656299212598
0
LINE
8
BLACK
6
CONTINUOUS
10
-0.0385531496062992
20
0.2003656299212598
11
-0.0385233464566929
21
0.2002937007874016
0
LINE
8
BLACK
6
CONTINUOUS
10
-0.0385233464566929
20
0.2002937007874016
11
-0.0383672440944882
21
0.2000456692913386
0
LINE
8
BLACK
6
CONTINUOUS
10
-0.0383672440944882
20
0.2000456692913386
11
-0.0364924803149606
21
0.1962961417322835
0
LINE
8
BLACK
6
CONTINUOUS
10
-0.0364924803149606
20
0.1962961417322835
11
-0.0364763779527559
21
0.1962540551181102
0
LINE
8
BLACK
6
CONTINUOUS
10
-0.0364763779527559
20
0.1962540551181102
11
-0.0364636614173228
21
0.1962368897637795
0
LINE
8
BLACK
6
CONTINUOUS
10
-0.0364636614173228
20
0.1962368897637795
11
-0.0363773622047244
21
0.1959953149606299
0
LINE
8
BLACK
6
CONTINUOUS
10
-0.0363773622047244
20
0.1959953149606299
11
-0.0362855905511811
21
0.1957555511811024
0
LINE
8
BLACK
6
CONTINUOUS
10
-0.0362855905511811
20
0.1957555511811024
11
-0.036284094488189
21
0.1957342913385827
0
LINE
8
BLACK
6
CONTINUOUS
10
-0.036284094488189
20
0.1957342913385827
11
-0.0362688976377953
21
0.1956917716535433
0
LINE
8
BLACK
6
CONTINUOUS
10
-0.0362688976377953
20
0.1956917716535433
11
-0.0344727559055118
21
0.188507125984252
0
LINE
8
BLACK
6
CONTINUOUS
10
-0.0344727559055118
20
0.188507125984252
11
-0.0329572440944882
21
0.1854761417322835
0
LINE
8
BLACK
6
CONTINUOUS
10
-0.0329572440944882
20
0.1854761417322835
11
-0.0317601181102362
21
0.1842790157480315
0
LINE
8
BLACK
6
CONTINUOUS
10
-0.0317601181102362
20
0.1842790157480315
11
-0.0290626377952756
21
0.1829302755905512
0
LINE
8
BLACK
6
CONTINUOUS
10
-0.0290626377952756
20
0.1829302755905512
11
-0.0267072047244094
21
0.1829302755905512
0
LINE
8
BLACK
6
CONTINUOUS
10
-0.0267072047244094
20
0.1829302755905512
11
-0.0240097244094488
21
0.1842790551181102
0
LINE
8
BLACK
6
CONTINUOUS
10
-0.0240097244094488
20
0.1842790551181102
11
-0.0228125590551181
21
0.1854761811023622
0
LINE
8
BLACK
6
CONTINUOUS
10
-0.0228125590551181
20
0.1854761811023622
11
-0.0214638188976378
21
0.1881736220472441
0
LINE
8
BLACK
6
CONTINUOUS
10
-0.0214638188976378
20
0.1881736220472441
11
-0.0214638188976378
21
0.1963712598425197
0
LINE
8
BLACK
6
CONTINUOUS
10
-0.0214638188976378
20
0.1963712598425197
11
-0.0231870472440945
21
0.2015409448818898
0
LINE
8
BLACK
6
CONTINUOUS
10
-0.0231870472440945
20
0.2015409448818898
11
-0.0233153937007874
21
0.2021053937007874
0
LINE
8
BLACK
6
CONTINUOUS
10
-0.0233153937007874
20
0.2021053937007874
11
-0.0232337007874016
21
0.2032546062992126
0
LINE
8
BLACK
6
CONTINUOUS
10
-0.0232337007874016
20
0.2032546062992126
11
-0.0227185039370079
21
0.2042850393700787
0
LINE
8
BLACK
6
CONTINUOUS
10
-0.0227185039370079
20
0.2042850393700787
11
-0.0218481496062992
21
0.2050399212598425
0
LINE
8
BLACK
6
CONTINUOUS
10
-0.0218481496062992
20
0.2050399212598425
11
-0.0207551181102362
21
0.2054042519685039
0
LINE
8
BLACK
6
CONTINUOUS
10
-0.0207551181102362
20
0.2054042519685039
11
-0.019605905511811
21
0.2053225590551181
0
LINE
8
BLACK
6
CONTINUOUS
10
-0.019605905511811
20
0.2053225590551181
11
-0.0185754724409449
21
0.2048073622047244
0
LINE
8
BLACK
6
CONTINUOUS
10
-0.0185754724409449
20
0.2048073622047244
11
-0.0178205905511811
21
0.2039370078740158
0
LINE
8
BLACK
6
CONTINUOUS
10
-0.0178205905511811
20
0.2039370078740158
11
-0.0175846062992126
21
0.2034084251968504
0
LINE
8
BLACK
6
CONTINUOUS
10
-0.0175846062992126
20
0.2034084251968504
11
-0.015709842519685
21
0.1977841732283465
0
LINE
8
BLACK
6
CONTINUOUS
10
-0.015709842519685
20
0.1977841732283465
11
-0.0156449212598425
21
0.1974985433070866
0
LINE
8
BLACK
6
CONTINUOUS
10
-0.0156449212598425
20
0.1974985433070866
11
-0.0156150393700787
21
0.1974264566929134
0
LINE
8
BLACK
6
CONTINUOUS
10
-0.0156150393700787
20
0.1974264566929134
11
-0.0156047637795276
21
0.1973220078740157
0
LINE
8
BLACK
6
CONTINUOUS
10
-0.0156047637795276
20
0.1973220078740157
11
-0.0155814960629921
21
0.1972197244094488
0
LINE
8
BLACK
6
CONTINUOUS
10
-0.0155814960629921
20
0.1972197244094488
11
-0.0155870472440945
21
0.1971420078740158
0
LINE
8
BLACK
6
CONTINUOUS
10
-0.0155870472440945
20
0.1971420078740158
11
-0.0155583070866142
21
0.1968503937007874
0
LINE
8
BLACK
6
CONTINUOUS
10
-0.0155583070866142
20
0.1968503937007874
11
-0.0155583070866142
21
0.1874765748031496
0
LINE
8
BLACK
6
CONTINUOUS
10
-0.0155583070866142
20
0.1874765748031496
11
-0.0156150393700787
21
0.1869005118110236
0
LINE
8
BLACK
6
CONTINUOUS
10
-0.0156150393700787
20
0.1869005118110236
11
-0.0156556299212598
21
0.1868025590551181
0
LINE
8
BLACK
6
CONTINUOUS
10
-0.0156556299212598
20
0.1868025590551181
11
-0.0156631496062992
21
0.1866966535433071
0
LINE
8
BLACK
6
CONTINUOUS
10
-0.0156631496062992
20
0.1866966535433071
11
-0.0158700393700787
21
0.186156062992126
0
LINE
8
BLACK
6
CONTINUOUS
10
-0.0158700393700787
20
0.186156062992126
11
-0.0177448031496063
21
0.1824065354330709
0
LINE
8
BLACK
6
CONTINUOUS
10
-0.0177448031496063
20
0.1824065354330709
11
-0.017900905511811
21
0.1821585433070866
0
LINE
8
BLACK
6
CONTINUOUS
10
-0.017900905511811
20
0.1821585433070866
11
-0.0179307086614173
21
0.1820865748031496
0
LINE
8
BLACK
6
CONTINUOUS
10
-0.0179307086614173
20
0.1820865748031496
11
-0.0179971653543307
21
0.1820056299212598
0
LINE
8
BLACK
6
CONTINUOUS
10
-0.0179971653543307
20
0.1820056299212598
11
-0.0180531496062992
21
0.1819166535433071
0
LINE
8
BLACK
6
CONTINUOUS
10
-0.0180531496062992
20
0.1819166535433071
11
-0.0181122047244094
21
0.1818654724409449
0
LINE
8
BLACK
6
CONTINUOUS
10
-0.0181122047244094
20
0.1818654724409449
11
-0.0182979527559055
21
0.181639094488189
0
LINE
8
BLACK
6
CONTINUOUS
10
-0.0182979527559055
20
0.181639094488189
11
-0.0201727559055118
21
0.1797643307086614
0
LINE
8
BLACK
6
CONTINUOUS
10
-0.0201727559055118
20
0.1797643307086614
11
-0.020399094488189
21
0.1795786220472441
0
LINE
8
BLACK
6
CONTINUOUS
10
-0.020399094488189
20
0.1795786220472441
11
-0.0204502362204724
21
0.1795196062992126
0
LINE
8
BLACK
6
CONTINUOUS
10
-0.0204502362204724
20
0.1795196062992126
11
-0.0205391732283465
21
0.1794636614173228
0
LINE
8
BLACK
6
CONTINUOUS
10
-0.0205391732283465
20
0.1794636614173228
11
-0.0206201968503937
21
0.179397125984252
0
LINE
8
BLACK
6
CONTINUOUS
10
-0.0206201968503937
20
0.179397125984252
11
-0.0206922440944882
21
0.1793673228346457
0
LINE
8
BLACK
6
CONTINUOUS
10
-0.0206922440944882
20
0.1793673228346457
11
-0.0209401181102362
21
0.1792112598425197
0
LINE
8
BLACK
6
CONTINUOUS
10
-0.0209401181102362
20
0.1792112598425197
11
-0.0246896456692913
21
0.1773364960629921
0
LINE
8
BLACK
6
CONTINUOUS
10
-0.0246896456692913
20
0.1773364960629921
11
-0.0252302755905512
21
0.1771296062992126
0
LINE
8
BLACK
6
CONTINUOUS
10
-0.0252302755905512
20
0.1771296062992126
11
-0.0253361023622047
21
0.177122125984252
0
LINE
8
BLACK
6
CONTINUOUS
10
-0.0253361023622047
20
0.177122125984252
11
-0.025434094488189
21
0.1770814960629921
0
LINE
8
BLACK
6
CONTINUOUS
10
-0.025434094488189
20
0.1770814960629921
11
-0.026010157480315
21
0.1770247637795276
0
LINE
8
BLACK
6
CONTINUOUS
10
-0.026010157480315
20
0.1770247637795276
11
-0.0297596850393701
21
0.1770247637795276
0
LINE
8
BLACK
6
CONTINUOUS
10
-0.0297596850393701
20
0.1770247637795276
11
-0.0303357480314961
21
0.1770814960629921
0
LINE
8
BLACK
6
CONTINUOUS
10
-0.0303357480314961
20
0.1770814960629921
11
-0.0304337401574803
21
0.1771220866141732
0
LINE
8
BLACK
6
CONTINUOUS
10
-0.0304337401574803
20
0.1771220866141732
11
-0.0305396062992126
21
0.1771296062992126
0
LINE
8
BLACK
6
CONTINUOUS
10
-0.0305396062992126
20
0.1771296062992126
11
-0.0310801968503937
21
0.1773364960629921
0
LINE
8
BLACK
6
CONTINUOUS
10
-0.0310801968503937
20
0.1773364960629921
11
-0.0348297244094488
21
0.1792112598425197
0
LINE
8
BLACK
6
CONTINUOUS
10
-0.0348297244094488
20
0.1792112598425197
11
-0.0350777559055118
21
0.1793673622047244
0
LINE
8
BLACK
6
CONTINUOUS
10
-0.0350777559055118
20
0.1793673622047244
11
-0.0351496850393701
21
0.1793971653543307
0
LINE
8
BLACK
6
CONTINUOUS
10
-0.0351496850393701
20
0.1793971653543307
11
-0.0352306692913386
21
0.1794636614173228
0
LINE
8
BLACK
6
CONTINUOUS
10
-0.0352306692913386
20
0.1794636614173228
11
-0.0353196062992126
21
0.1795196062992126
0
LINE
8
BLACK
6
CONTINUOUS
10
-0.0353196062992126
20
0.1795196062992126
11
-0.0353707874015748
21
0.1795786220472441
0
LINE
8
BLACK
6
CONTINUOUS
10
-0.0353707874015748
20
0.1795786220472441
11
-0.035597125984252
21
0.1797643700787402
0
LINE
8
BLACK
6
CONTINUOUS
10
-0.035597125984252
20
0.1797643700787402
11
-0.0374718897637795
21
0.1816391338582677
0
LINE
8
BLACK
6
CONTINUOUS
10
-0.0374718897637795
20
0.1816391338582677
11
-0.0376576771653543
21
0.1818655118110236
0
LINE
8
BLACK
6
CONTINUOUS
10
-0.0376576771653543
20
0.1818655118110236
11
-0.0377166535433071
21
0.1819166535433071
0
LINE
8
BLACK
6
CONTINUOUS
10
-0.0377166535433071
20
0.1819166535433071
11
-0.0377726377952756
21
0.1820056299212598
0
LINE
8
BLACK
6
CONTINUOUS
10
-0.0377726377952756
20
0.1820056299212598
11
-0.037839094488189
21
0.1820865748031496
0
LINE
8
BLACK
6
CONTINUOUS
10
-0.037839094488189
20
0.1820865748031496
11
-0.037868937007874
21
0.1821585433070866
0
LINE
8
BLACK
6
CONTINUOUS
10
-0.037868937007874
20
0.1821585433070866
11
-0.038025
21
0.1824065354330709
0
LINE
8
BLACK
6
CONTINUOUS
10
-0.038025
20
0.1824065354330709
11
-0.0398997637795276
21
0.186156062992126
0
LINE
8
BLACK
6
CONTINUOUS
10
-0.0398997637795276
20
0.186156062992126
11
-0.039915905511811
21
0.1861981889763779
0
LINE
8
BLACK
6
CONTINUOUS
10
-0.039915905511811
20
0.1861981889763779
11
-0.0399285826771654
21
0.1862153149606299
0
LINE
8
BLACK
6
CONTINUOUS
10
-0.0399285826771654
20
0.1862153149606299
11
-0.0400150393700787
21
0.1864572834645669
0
LINE
8
BLACK
6
CONTINUOUS
10
-0.0400150393700787
20
0.1864572834645669
11
-0.0401066535433071
21
0.1866966929133858
0
LINE
8
BLACK
6
CONTINUOUS
10
-0.0401066535433071
20
0.1866966929133858
11
-0.040108188976378
21
0.1867179527559055
0
LINE
8
BLACK
6
CONTINUOUS
10
-0.040108188976378
20
0.1867179527559055
11
-0.0401233464566929
21
0.1867604330708661
0
LINE
8
BLACK
6
CONTINUOUS
10
-0.0401233464566929
20
0.1867604330708661
11
-0.0419195275590551
21
0.1939450787401575
0
LINE
8
BLACK
6
CONTINUOUS
10
-0.0419195275590551
20
0.1939450787401575
11
-0.043435
21
0.196976062992126
0
LINE
8
BLACK
6
CONTINUOUS
10
-0.043435
20
0.196976062992126
11
-0.044632125984252
21
0.198173188976378
0
LINE
8
BLACK
6
CONTINUOUS
10
-0.044632125984252
20
0.198173188976378
11
-0.0473296062992126
21
0.1995219291338583
0
LINE
8
BLACK
6
CONTINUOUS
10
-0.0473296062992126
20
0.1995219291338583
11
-0.0496850393700787
21
0.1995219291338583
0
LINE
8
BLACK
6
CONTINUOUS
10
-0.0496850393700787
20
0.1995219291338583
11
-0.0523825196850394
21
0.198173188976378
0
LINE
8
BLACK
6
CONTINUOUS
10
-0.0523825196850394
20
0.198173188976378
11
-0.0535796456692913
21
0.196976062992126
0
LINE
8
BLACK
6
CONTINUOUS
10
-0.0535796456692913
20
0.196976062992126
11
-0.0549283858267717
21
0.1942785826771654
0
LINE
8
BLACK
6
CONTINUOUS
10
-0.0549283858267717
20
0.1942785826771654
11
-0.0549283858267717
21
0.1860809842519685
0
LINE
8
BLACK
6
CONTINUOUS
10
-0.0549283858267717
20
0.1860809842519685
11
-0.053205157480315
21
0.1809112992125984
0
LINE
8
BLACK
6
CONTINUOUS
10
-0.053205157480315
20
0.1809112992125984
11
-0.053076811023622
21
0.1803468503937008
0
LINE
8
BLACK
6
CONTINUOUS
10
-0.053076811023622
20
0.1803468503937008
11
-0.0531585039370079
21
0.1791976377952756
0
LINE
8
BLACK
6
CONTINUOUS
10
-0.0531585039370079
20
0.1791976377952756
11
-0.0536737007874016
21
0.1781671653543307
0
LINE
8
BLACK
6
CONTINUOUS
10
-0.0536737007874016
20
0.1781671653543307
11
-0.054544094488189
21
0.1774122834645669
0
LINE
8
BLACK
6
CONTINUOUS
10
-0.054544094488189
20
0.1774122834645669
11
-0.0556370866141732
21
0.1770479527559055
0
LINE
8
BLACK
6
CONTINUOUS
10
-0.0556370866141732
20
0.1770479527559055
11
-0.0567862992125984
21
0.1771296456692913
0
LINE
8
BLACK
6
CONTINUOUS
10
-0.0567862992125984
20
0.1771296456692913
11
-0.0578167322834646
21
0.1776448818897638
0
LINE
8
BLACK
6
CONTINUOUS
10
-0.0578167322834646
20
0.1776448818897638
11
-0.0585716141732283
21
0.1785152362204724
0
LINE
8
BLACK
6
CONTINUOUS
10
-0.0585716141732283
20
0.1785152362204724
11
-0.0588075984251968
21
0.179043779527559
0
LINE
8
BLACK
6
CONTINUOUS
10
-0.0588075984251968
20
0.179043779527559
11
-0.0606823622047244
21
0.1846680708661417
0
LINE
8
BLACK
6
CONTINUOUS
10
-0.0606823622047244
20
0.1846680708661417
11
-0.0607473228346457
21
0.1849536614173228
0
LINE
8
BLACK
6
CONTINUOUS
10
-0.0607473228346457
20
0.1849536614173228
11
-0.0607771653543307
21
0.185025748031496
0
LINE
8
BLACK
6
CONTINUOUS
10
-0.0607771653543307
20
0.185025748031496
11
-0.0607874803149606
21
0.1851302755905512
0
LINE
8
BLACK
6
CONTINUOUS
10
-0.0607874803149606
20
0.1851302755905512
11
-0.0608107086614173
21
0.1852325196850394
0
LINE
8
BLACK
6
CONTINUOUS
10
-0.0608107086614173
20
0.1852325196850394
11
-0.0608051968503937
21
0.1853102755905512
0
LINE
8
BLACK
6
CONTINUOUS
10
-0.0608051968503937
20
0.1853102755905512
11
-0.0608338976377953
21
0.1856018110236221
0
LINE
8
BLACK
6
CONTINUOUS
10
-0.0608338976377953
20
0.1856018110236221
11
-0.0608338976377953
21
0.1949756299212598
0
LINE
8
BLACK
6
CONTINUOUS
10
-0.0608338976377953
20
0.1949756299212598
11
-0.0607771653543307
21
0.1955516929133858
0
LINE
8
BLACK
6
CONTINUOUS
10
-0.0607771653543307
20
0.1955516929133858
11
-0.0607365748031496
21
0.1956497244094488
0
LINE
8
BLACK
6
CONTINUOUS
10
-0.0607365748031496
20
0.1956497244094488
11
-0.0607290551181102
21
0.1957555118110236
0
LINE
8
BLACK
6
CONTINUOUS
10
-0.0607290551181102
20
0.1957555118110236
11
-0.0605221653543307
21
0.1962961417322835
0
LINE
8
BLACK
6
CONTINUOUS
10
-0.0605221653543307
20
0.1962961417322835
11
-0.0586474015748032
21
0.2000456692913386
0
LINE
8
BLACK
6
CONTINUOUS
10
-0.0586474015748032
20
0.2000456692913386
11
-0.0584913385826772
21
0.2002937007874016
0
LINE
8
BLACK
6
CONTINUOUS
10
-0.0584913385826772
20
0.2002937007874016
11
-0.0584614960629921
21
0.2003656299212598
0
LINE
8
BLACK
6
CONTINUOUS
10
-0.0584614960629921
20
0.2003656299212598
11
-0.0583950393700787
21
0.2004466141732283
0
LINE
8
BLACK
6
CONTINUOUS
10
-0.0583950393700787
20
0.2004466141732283
11
-0.0583390551181102
21
0.2005355511811024
0
LINE
8
BLACK
6
CONTINUOUS
10
-0.0583390551181102
20
0.2005355511811024
11
-0.0582800787401575
21
0.2005867322834646
0
LINE
8
BLACK
6
CONTINUOUS
10
-0.0582800787401575
20
0.2005867322834646
11
-0.0580942913385827
21
0.2008130708661417
0
LINE
8
BLACK
6
CONTINUOUS
10
-0.0580942913385827
20
0.2008130708661417
11
-0.0562195275590551
21
0.2026878346456693
0
LINE
8
BLACK
6
CONTINUOUS
10
-0.0562195275590551
20
0.2026878346456693
11
-0.055993188976378
21
0.2028736220472441
0
LINE
8
BLACK
6
CONTINUOUS
10
-0.055993188976378
20
0.2028736220472441
11
-0.0559420078740157
21
0.2029325984251968
0
LINE
8
BLACK
6
CONTINUOUS
10
-0.0559420078740157
20
0.2029325984251968
11
-0.0558530708661417
21
0.2029885826771654
0
LINE
8
BLACK
6
CONTINUOUS
10
-0.0558530708661417
20
0.2029885826771654
11
-0.0557720866141732
21
0.2030550393700787
0
LINE
8
BLACK
6
CONTINUOUS
10
-0.0557720866141732
20
0.2030550393700787
11
-0.055700157480315
21
0.2030848818897638
0
LINE
8
BLACK
6
CONTINUOUS
10
-0.055700157480315
20
0.2030848818897638
11
-0.055452125984252
21
0.2032409448818898
0
LINE
8
BLACK
6
CONTINUOUS
10
-0.055452125984252
20
0.2032409448818898
11
-0.0517025984251969
21
0.2051157086614173
0
LINE
8
BLACK
6
CONTINUOUS
10
-0.0517025984251969
20
0.2051157086614173
11
-0.0511620078740157
21
0.2053225984251968
0
LINE
8
BLACK
6
CONTINUOUS
10
-0.0511620078740157
20
0.2053225984251968
11
-0.0510561417322835
21
0.205330157480315
0
LINE
8
BLACK
6
CONTINUOUS
10
-0.0510561417322835
20
0.205330157480315
11
-0.0509581496062992
21
0.2053707086614173
0
LINE
8
BLACK
6
CONTINUOUS
10
-0.0509581496062992
20
0.2053707086614173
11
-0.0503820866141732
21
0.2054274409448819
0
LINE
8
BLACK
6
CONTINUOUS
10
-0.0503820866141732
20
0.2054274409448819
11
-0.0466325590551181
21
0.2054274409448819
0
LINE
8
BLACK
6
CONTINUOUS
10
-0.0466325590551181
20
0.2054274409448819
11
-0.0460564960629921
21
0.2053707086614173
0
LINE
8
BLACK
6
CONTINUOUS
10
-0.017935
20
0.2447407874015748
11
-0.0168705905511811
21
0.2442998818897638
0
LINE
8
BLACK
6
CONTINUOUS
10
-0.0168705905511811
20
0.2442998818897638
11
-0.0160559448818898
21
0.2434852362204724
0
LINE
8
BLACK
6
CONTINUOUS
10
-0.0160559448818898
20
0.2434852362204724
11
-0.0156150393700787
21
0.2424208267716535
0
LINE
8
BLACK
6
CONTINUOUS
10
-0.0156150393700787
20
0.2424208267716535
11
-0.0156150393700787
21
0.2412687007874016
0
LINE
8
BLACK
6
CONTINUOUS
10
-0.0156150393700787
20
0.2412687007874016
11
-0.0160559448818898
21
0.2402042913385827
0
LINE
8
BLACK
6
CONTINUOUS
10
-0.0160559448818898
20
0.2402042913385827
11
-0.0168705905511811
21
0.2393896456692913
0
LINE
8
BLACK
6
CONTINUOUS
10
-0.0168705905511811
20
0.2393896456692913
11
-0.017935
21
0.2389487401574803
0
LINE
8
BLACK
6
CONTINUOUS
10
-0.017935
20
0.2389487401574803
11
-0.018511062992126
21
0.2388920078740157
0
LINE
8
BLACK
6
CONTINUOUS
10
-0.018511062992126
20
0.2388920078740157
11
-0.0361807480314961
21
0.2388920078740157
0
LINE
8
BLACK
6
CONTINUOUS
10
-0.0361807480314961
20
0.2388920078740157
11
-0.0361807480314961
21
0.2223003543307087
0
LINE
8
BLACK
6
CONTINUOUS
10
-0.0361807480314961
20
0.2223003543307087
11
-0.018511062992126
21
0.2223003543307087
0
LINE
8
BLACK
6
CONTINUOUS
10
-0.018511062992126
20
0.2223003543307087
11
-0.017935
21
0.2222436220472441
0
LINE
8
BLACK
6
CONTINUOUS
10
-0.017935
20
0.2222436220472441
11
-0.0168705905511811
21
0.2218027165354331
0
LINE
8
BLACK
6
CONTINUOUS
10
-0.0168705905511811
20
0.2218027165354331
11
-0.0160559448818898
21
0.2209880708661417
0
LINE
8
BLACK
6
CONTINUOUS
10
-0.0160559448818898
20
0.2209880708661417
11
-0.0156150393700787
21
0.2199236614173228
0
LINE
8
BLACK
6
CONTINUOUS
10
-0.0156150393700787
20
0.2199236614173228
11
-0.0156150393700787
21
0.2187715354330709
0
LINE
8
BLACK
6
CONTINUOUS
10
-0.0156150393700787
20
0.2187715354330709
11
-0.0160559448818898
21
0.217707125984252
0
LINE
8
BLACK
6
CONTINUOUS
10
-0.0160559448818898
20
0.217707125984252
11
-0.0168705905511811
21
0.2168924803149606
0
LINE
8
BLACK
6
CONTINUOUS
10
-0.0168705905511811
20
0.2168924803149606
11
-0.017935
21
0.2164515748031496
0
LINE
8
BLACK
6
CONTINUOUS
10
-0.017935
20
0.2164515748031496
11
-0.018511062992126
21
0.216394842519685
0
LINE
8
BLACK
6
CONTINUOUS
10
-0.018511062992126
20
0.216394842519685
11
-0.0578811417322835
21
0.216394842519685
0
LINE
8
BLACK
6
CONTINUOUS
10
-0.0578811417322835
20
0.216394842519685
11
-0.0584572047244094
21
0.2164515748031496
0
LINE
8
BLACK
6
CONTINUOUS
10
-0.0584572047244094
20
0.2164515748031496
11
-0.0595216141732283
21
0.2168924803149606
0
LINE
8
BLACK
6
CONTINUOUS
10
-0.0595216141732283
20
0.2168924803149606
11
-0.0603362598425197
21
0.217707125984252
0
LINE
8
BLACK
6
CONTINUOUS
10
-0.0603362598425197
20
0.217707125984252
11
-0.0607771653543307
21
0.2187715354330709
0
LINE
8
BLACK
6
CONTINUOUS
10
-0.0607771653543307
20
0.2187715354330709
11
-0.0607771653543307
21
0.2199236614173228
0
LINE
8
BLACK
6
CONTINUOUS
10
-0.0607771653543307
20
0.2199236614173228
11
-0.0603362598425197
21
0.2209880708661417
0
LINE
8
BLACK
6
CONTINUOUS
10
-0.0603362598425197
20
0.2209880708661417
11
-0.0595216141732283
21
0.2218027165354331
0
LINE
8
BLACK
6
CONTINUOUS
10
-0.0595216141732283
20
0.2218027165354331
11
-0.0584572047244094
21
0.2222436220472441
0
LINE
8
BLACK
6
CONTINUOUS
10
-0.0584572047244094
20
0.2222436220472441
11
-0.0578811417322835
21
0.2223003543307087
0
LINE
8
BLACK
6
CONTINUOUS
10
-0.0578811417322835
20
0.2223003543307087
11
-0.0420862598425197
21
0.2223003543307087
0
LINE
8
BLACK
6
CONTINUOUS
10
-0.0420862598425197
20
0.2223003543307087
11
-0.0420862598425197
21
0.2388920078740157
0
LINE
8
BLACK
6
CONTINUOUS
10
-0.0420862598425197
20
0.2388920078740157
11
-0.0578811417322835
21
0.2388920078740157
0
LINE
8
BLACK
6
CONTINUOUS
10
-0.0578811417322835
20
0.2388920078740157
11
-0.0584572047244094
21
0.2389487401574803
0
LINE
8
BLACK
6
CONTINUOUS
10
-0.0584572047244094
20
0.2389487401574803
11
-0.0595216141732283
21
0.2393896456692913
0
LINE
8
BLACK
6
CONTINUOUS
10
-0.0595216141732283
20
0.2393896456692913
11
-0.0603362598425197
21
0.2402042913385827
0
LINE
8
BLACK
6
CONTINUOUS
10
-0.0603362598425197
20
0.2402042913385827
11
-0.0607771653543307
21
0.2412687007874016
0
LINE
8
BLACK
6
CONTINUOUS
10
-0.0607771653543307
20
0.2412687007874016
11
-0.0607771653543307
21
0.2424208267716535
0
LINE
8
BLACK
6
CONTINUOUS
10
-0.0607771653543307
20
0.2424208267716535
11
-0.0603362598425197
21
0.2434852362204724
0
LINE
8
BLACK
6
CONTINUOUS
10
-0.0603362598425197
20
0.2434852362204724
11
-0.0595216141732283
21
0.2442998818897638
0
LINE
8
BLACK
6
CONTINUOUS
10
-0.0595216141732283
20
0.2442998818897638
11
-0.0584572047244094
21
0.2447407874015748
0
LINE
8
BLACK
6
CONTINUOUS
10
-0.0584572047244094
20
0.2447407874015748
11
-0.0578811417322835
21
0.2447975196850394
0
LINE
8
BLACK
6
CONTINUOUS
10
-0.0578811417322835
20
0.2447975196850394
11
-0.018511062992126
21
0.2447975196850394
0
LINE
8
BLACK
6
CONTINUOUS
10
-0.018511062992126
20
0.2447975196850394
11
-0.017935
21
0.2447407874015748
0
LINE
8
BLACK
6
CONTINUOUS
10
-0.0352834645669291
20
0.2860324803149606
11
-0.0352404330708661
21
0.2860388582677165
0
LINE
8
BLACK
6
CONTINUOUS
10
-0.0352404330708661
20
0.2860388582677165
11
-0.0350249606299213
21
0.2860070078740157
0
LINE
8
BLACK
6
CONTINUOUS
10
-0.0350249606299213
20
0.2860070078740157
11
-0.0348079133858268
21
0.2859856299212598
0
LINE
8
BLACK
6
CONTINUOUS
10
-0.0348079133858268
20
0.2859856299212598
11
-0.0347677165354331
21
0.2859690157480315
0
LINE
8
BLACK
6
CONTINUOUS
10
-0.0347677165354331
20
0.2859690157480315
11
-0.0346678346456693
21
0.2859542125984252
0
LINE
8
BLACK
6
CONTINUOUS
10
-0.0346678346456693
20
0.2859542125984252
11
-0.0271687795275591
21
0.2840794488188976
0
LINE
8
BLACK
6
CONTINUOUS
10
-0.0271687795275591
20
0.2840794488188976
11
-0.0271262992125984
21
0.2840642913385827
0
LINE
8
BLACK
6
CONTINUOUS
10
-0.0271262992125984
20
0.2840642913385827
11
-0.0271050393700787
21
0.2840627559055118
0
LINE
8
BLACK
6
CONTINUOUS
10
-0.0271050393700787
20
0.2840627559055118
11
-0.0268656299212598
21
0.2839711417322834
0
LINE
8
BLACK
6
CONTINUOUS
10
-0.0268656299212598
20
0.2839711417322834
11
-0.0266236614173228
21
0.2838846850393701
0
LINE
8
BLACK
6
CONTINUOUS
10
-0.0266236614173228
20
0.2838846850393701
11
-0.0266065354330709
21
0.2838720078740157
0
LINE
8
BLACK
6
CONTINUOUS
10
-0.0266065354330709
20
0.2838720078740157
11
-0.0265644094488189
21
0.2838558661417322
0
LINE
8
BLACK
6
CONTINUOUS
10
-0.0265644094488189
20
0.2838558661417322
11
-0.0228148818897638
21
0.2819811023622047
0
LINE
8
BLACK
6
CONTINUOUS
10
-0.0228148818897638
20
0.2819811023622047
11
-0.0225670078740157
21
0.2818250787401575
0
LINE
8
BLACK
6
CONTINUOUS
10
-0.0225670078740157
20
0.2818250787401575
11
-0.0224949606299213
21
0.2817952362204724
0
LINE
8
BLACK
6
CONTINUOUS
10
-0.0224949606299213
20
0.2817952362204724
11
-0.022413937007874
21
0.2817287401574803
0
LINE
8
BLACK
6
CONTINUOUS
10
-0.022413937007874
20
0.2817287401574803
11
-0.022325
21
0.2816727559055118
0
LINE
8
BLACK
6
CONTINUOUS
10
-0.022325
20
0.2816727559055118
11
-0.0222738582677165
21
0.2816137795275591
0
LINE
8
BLACK
6
CONTINUOUS
10
-0.0222738582677165
20
0.2816137795275591
11
-0.0220474803149606
21
0.2814279921259842
0
LINE
8
BLACK
6
CONTINUOUS
10
-0.0220474803149606
20
0.2814279921259842
11
-0.0182979133858268
21
0.2776784645669291
0
LINE
8
BLACK
6
CONTINUOUS
10
-0.0182979133858268
20
0.2776784645669291
11
-0.0179306692913386
21
0.2772310236220472
0
LINE
8
BLACK
6
CONTINUOUS
10
-0.0179306692913386
20
0.2772310236220472
11
-0.0178900787401575
21
0.2771329921259842
0
LINE
8
BLACK
6
CONTINUOUS
10
-0.0178900787401575
20
0.2771329921259842
11
-0.0178205905511811
21
0.277052874015748
0
LINE
8
BLACK
6
CONTINUOUS
10
-0.0178205905511811
20
0.277052874015748
11
-0.0175846062992126
21
0.2765242913385827
0
LINE
8
BLACK
6
CONTINUOUS
10
-0.0175846062992126
20
0.2765242913385827
11
-0.015709842519685
21
0.2709000393700787
0
LINE
8
BLACK
6
CONTINUOUS
10
-0.015709842519685
20
0.2709000393700787
11
-0.0156449212598425
21
0.2706144094488189
0
LINE
8
BLACK
6
CONTINUOUS
10
-0.0156449212598425
20
0.2706144094488189
11
-0.0156150393700787
21
0.2705423228346457
0
LINE
8
BLACK
6
CONTINUOUS
10
-0.0156150393700787
20
0.2705423228346457
11
-0.0156047637795276
21
0.270437874015748
0
LINE
8
BLACK
6
CONTINUOUS
10
-0.0156047637795276
20
0.270437874015748
11
-0.0155814960629921
21
0.2703355905511811
0
LINE
8
BLACK
6
CONTINUOUS
10
-0.0155814960629921
20
0.2703355905511811
11
-0.0155870472440945
21
0.270257874015748
0
LINE
8
BLACK
6
CONTINUOUS
10
-0.0155870472440945
20
0.270257874015748
11
-0.0155583070866142
21
0.2699662598425197
0
LINE
8
BLACK
6
CONTINUOUS
10
-0.0155583070866142
20
0.2699662598425197
11
-0.0155583070866142
21
0.2662167322834645
0
LINE
8
BLACK
6
CONTINUOUS
10
-0.0155583070866142
20
0.2662167322834645
11
-0.0155870472440945
21
0.265925157480315
0
LINE
8
BLACK
6
CONTINUOUS
10
-0.0155870472440945
20
0.265925157480315
11
-0.0155814960629921
21
0.2658474015748031
0
LINE
8
BLACK
6
CONTINUOUS
10
-0.0155814960629921
20
0.2658474015748031
11
-0.0156047637795276
21
0.265745157480315
0
LINE
8
BLACK
6
CONTINUOUS
10
-0.0156047637795276
20
0.265745157480315
11
-0.0156150393700787
21
0.2656406692913386
0
LINE
8
BLACK
6
CONTINUOUS
10
-0.0156150393700787
20
0.2656406692913386
11
-0.0156449212598425
21
0.2655686220472441
0
LINE
8
BLACK
6
CONTINUOUS
10
-0.0156449212598425
20
0.2655686220472441
11
-0.015709842519685
21
0.2652829527559055
0
LINE
8
BLACK
6
CONTINUOUS
10
-0.015709842519685
20
0.2652829527559055
11
-0.0175846062992126
21
0.2596587007874016
0
LINE
8
BLACK
6
CONTINUOUS
10
-0.0175846062992126
20
0.2596587007874016
11
-0.0178205905511811
21
0.2591301181102362
0
LINE
8
BLACK
6
CONTINUOUS
10
-0.0178205905511811
20
0.2591301181102362
11
-0.017890157480315
21
0.2590499606299212
0
LINE
8
BLACK
6
CONTINUOUS
10
-0.017890157480315
20
0.2590499606299212
11
-0.0179307086614173
21
0.258951968503937
0
LINE
8
BLACK
6
CONTINUOUS
10
-0.0179307086614173
20
0.258951968503937
11
-0.0182979527559055
21
0.2585044881889764
0
LINE
8
BLACK
6
CONTINUOUS
10
-0.0182979527559055
20
0.2585044881889764
11
-0.0201727559055118
21
0.2566297244094488
0
LINE
8
BLACK
6
CONTINUOUS
10
-0.0201727559055118
20
0.2566297244094488
11
-0.0206201968503937
21
0.2562625196850394
0
LINE
8
BLACK
6
CONTINUOUS
10
-0.0206201968503937
20
0.2562625196850394
11
-0.0212437007874016
21
0.2560042913385827
0
LINE
8
BLACK
6
CONTINUOUS
10
-0.0212437007874016
20
0.2560042913385827
11
-0.0216845669291339
21
0.2558216535433071
0
LINE
8
BLACK
6
CONTINUOUS
10
-0.0216845669291339
20
0.2558216535433071
11
-0.0222606299212598
21
0.2557649212598425
0
LINE
8
BLACK
6
CONTINUOUS
10
-0.0222606299212598
20
0.2557649212598425
11
-0.0353839763779528
21
0.2557649212598425
0
LINE
8
BLACK
6
CONTINUOUS
10
-0.0353839763779528
20
0.2557649212598425
11
-0.0359600393700787
21
0.2558216535433071
0
LINE
8
BLACK
6
CONTINUOUS
10
-0.0359600393700787
20
0.2558216535433071
11
-0.0370244488188976
21
0.2562625590551181
0
LINE
8
BLACK
6
CONTINUOUS
10
-0.0370244488188976
20
0.2562625590551181
11
-0.037839094488189
21
0.2570772047244094
0
LINE
8
BLACK
6
CONTINUOUS
10
-0.037839094488189
20
0.2570772047244094
11
-0.03828
21
0.2581416141732283
0
LINE
8
BLACK
6
CONTINUOUS
10
-0.03828
20
0.2581416141732283
11
-0.03828
21
0.2581416535433071
0
LINE
8
BLACK
6
CONTINUOUS
10
-0.03828
20
0.2581416535433071
11
-0.0383367322834646
21
0.2587176771653543
0
LINE
8
BLACK
6
CONTINUOUS
10
-0.0383367322834646
20
0.2587176771653543
11
-0.0383367322834646
21
0.2662167322834645
0
LINE
8
BLACK
6
CONTINUOUS
10
-0.0383367322834646
20
0.2662167322834645
11
-0.03828
21
0.2667927952755905
0
LINE
8
BLACK
6
CONTINUOUS
10
-0.03828
20
0.2667927952755905
11
-0.037839094488189
21
0.2678572047244094
0
LINE
8
BLACK
6
CONTINUOUS
10
-0.037839094488189
20
0.2678572047244094
11
-0.0370244488188976
21
0.2686718503937008
0
LINE
8
BLACK
6
CONTINUOUS
10
-0.0370244488188976
20
0.2686718503937008
11
-0.0359600393700787
21
0.2691127559055118
0
LINE
8
BLACK
6
CONTINUOUS
10
-0.0359600393700787
20
0.2691127559055118
11
-0.0348079133858268
21
0.2691127559055118
0
LINE
8
BLACK
6
CONTINUOUS
10
-0.0348079133858268
20
0.2691127559055118
11
-0.0337435039370079
21
0.2686718503937008
0
LINE
8
BLACK
6
CONTINUOUS
10
-0.0337435039370079
20
0.2686718503937008
11
-0.0329288582677165
21
0.2678572047244094
0
LINE
8
BLACK
6
CONTINUOUS
10
-0.0329288582677165
20
0.2678572047244094
11
-0.0324879527559055
21
0.2667927952755905
0
LINE
8
BLACK
6
CONTINUOUS
10
-0.0324879527559055
20
0.2667927952755905
11
-0.0324312204724409
21
0.2662167322834645
0
LINE
8
BLACK
6
CONTINUOUS
10
-0.0324312204724409
20
0.2662167322834645
11
-0.0324312204724409
21
0.2616704330708661
0
LINE
8
BLACK
6
CONTINUOUS
10
-0.0324312204724409
20
0.2616704330708661
11
-0.0234837007874016
21
0.2616704330708661
0
LINE
8
BLACK
6
CONTINUOUS
10
-0.0234837007874016
20
0.2616704330708661
11
-0.0229666141732283
21
0.2621875196850393
0
LINE
8
BLACK
6
CONTINUOUS
10
-0.0229666141732283
20
0.2621875196850393
11
-0.0214638188976378
21
0.2666958661417323
0
LINE
8
BLACK
6
CONTINUOUS
10
-0.0214638188976378
20
0.2666958661417323
11
-0.0214638188976378
21
0.269487125984252
0
LINE
8
BLACK
6
CONTINUOUS
10
-0.0214638188976378
20
0.269487125984252
11
-0.0229666141732283
21
0.2739955118110236
0
LINE
8
BLACK
6
CONTINUOUS
10
-0.0229666141732283
20
0.2739955118110236
11
-0.0258844881889764
21
0.2769133464566929
0
LINE
8
BLACK
6
CONTINUOUS
10
-0.0258844881889764
20
0.2769133464566929
11
-0.0289154724409449
21
0.2784288582677165
0
LINE
8
BLACK
6
CONTINUOUS
10
-0.0289154724409449
20
0.2784288582677165
11
-0.0357475196850394
21
0.2801368503937008
0
LINE
8
BLACK
6
CONTINUOUS
10
-0.0357475196850394
20
0.2801368503937008
11
-0.0406447244094488
21
0.2801368503937008
0
LINE
8
BLACK
6
CONTINUOUS
10
-0.0406447244094488
20
0.2801368503937008
11
-0.0474767716535433
21
0.2784288582677165
0
LINE
8
BLACK
6
CONTINUOUS
10
-0.0474767716535433
20
0.2784288582677165
11
-0.0505077559055118
21
0.2769133464566929
0
LINE
8
BLACK
6
CONTINUOUS
10
-0.0505077559055118
20
0.2769133464566929
11
-0.0534255905511811
21
0.2739955511811024
0
LINE
8
BLACK
6
CONTINUOUS
10
-0.0534255905511811
20
0.2739955511811024
11
-0.0549283858267717
21
0.269487125984252
0
LINE
8
BLACK
6
CONTINUOUS
10
-0.0549283858267717
20
0.269487125984252
11
-0.0549283858267717
21
0.2650390157480315
0
LINE
8
BLACK
6
CONTINUOUS
10
-0.0549283858267717
20
0.2650390157480315
11
-0.0533653543307087
21
0.2619129527559055
0
LINE
8
BLACK
6
CONTINUOUS
10
-0.0533653543307087
20
0.2619129527559055
11
-0.0531584645669291
21
0.2613723622047244
0
LINE
8
BLACK
6
CONTINUOUS
10
-0.0531584645669291
20
0.2613723622047244
11
-0.053076811023622
21
0.2602231496062992
0
LINE
8
BLACK
6
CONTINUOUS
10
-0.053076811023622
20
0.2602231496062992
11
-0.0534411417322835
21
0.259130157480315
0
LINE
8
BLACK
6
CONTINUOUS
10
-0.0534411417322835
20
0.259130157480315
11
-0.0541959842519685
21
0.2582598031496063
0
LINE
8
BLACK
6
CONTINUOUS
10
-0.0541959842519685
20
0.2582598031496063
11
-0.0552264960629921
21
0.2577445275590551
0
LINE
8
BLACK
6
CONTINUOUS
10
-0.0552264960629921
20
0.2577445275590551
11
-0.0563757086614173
21
0.257662874015748
0
LINE
8
BLACK
6
CONTINUOUS
10
-0.0563757086614173
20
0.257662874015748
11
-0.0574686614173228
21
0.2580272047244094
0
LINE
8
BLACK
6
CONTINUOUS
10
-0.0574686614173228
20
0.2580272047244094
11
-0.0583390551181102
21
0.2587820472440945
0
LINE
8
BLACK
6
CONTINUOUS
10
-0.0583390551181102
20
0.2587820472440945
11
-0.0586474015748032
21
0.2592719291338583
0
LINE
8
BLACK
6
CONTINUOUS
10
-0.0586474015748032
20
0.2592719291338583
11
-0.0605221653543307
21
0.2630214566929134
0
LINE
8
BLACK
6
CONTINUOUS
10
-0.0605221653543307
20
0.2630214566929134
11
-0.0607290551181102
21
0.2635620866141732
0
LINE
8
BLACK
6
CONTINUOUS
10
-0.0607290551181102
20
0.2635620866141732
11
-0.0607365748031496
21
0.2636679133858268
0
LINE
8
BLACK
6
CONTINUOUS
10
-0.0607365748031496
20
0.2636679133858268
11
-0.0607771653543307
21
0.263765905511811
0
LINE
8
BLACK
6
CONTINUOUS
10
-0.0607771653543307
20
0.263765905511811
11
-0.0608338976377953
21
0.264341968503937
0
LINE
8
BLACK
6
CONTINUOUS
10
-0.0608338976377953
20
0.264341968503937
11
-0.0608338976377953
21
0.2699662598425197
0
LINE
8
BLACK
6
CONTINUOUS
10
-0.0608338976377953
20
0.2699662598425197
11
-0.0608051968503937
21
0.2702578346456693
0
LINE
8
BLACK
6
CONTINUOUS
10
-0.0608051968503937
20
0.2702578346456693
11
-0.0608107086614173
21
0.2703355511811024
0
LINE
8
BLACK
6
CONTINUOUS
10
-0.0608107086614173
20
0.2703355511811024
11
-0.0607874803149606
21
0.2704378346456693
0
LINE
8
BLACK
6
CONTINUOUS
10
-0.0607874803149606
20
0.2704378346456693
11
-0.0607771653543307
21
0.2705423228346457
0
LINE
8
BLACK
6
CONTINUOUS
10
-0.0607771653543307
20
0.2705423228346457
11
-0.0607473228346457
21
0.2706144488188976
0
LINE
8
BLACK
6
CONTINUOUS
10
-0.0607473228346457
20
0.2706144488188976
11
-0.0606823622047244
21
0.2709
0
LINE
8
BLACK
6
CONTINUOUS
10
-0.0606823622047244
20
0.2709
11
-0.0588075984251968
21
0.2765242913385827
0
LINE
8
BLACK
6
CONTINUOUS
10
-0.0588075984251968
20
0.2765242913385827
11
-0.0585716141732283
21
0.2770528346456693
0
LINE
8
BLACK
6
CONTINUOUS
10
-0.0585716141732283
20
0.2770528346456693
11
-0.058502125984252
21
0.2771329921259842
0
LINE
8
BLACK
6
CONTINUOUS
10
-0.058502125984252
20
0.2771329921259842
11
-0.0584614960629921
21
0.2772310236220472
0
LINE
8
BLACK
6
CONTINUOUS
10
-0.0584614960629921
20
0.2772310236220472
11
-0.0580942913385827
21
0.2776784645669291
0
LINE
8
BLACK
6
CONTINUOUS
10
-0.0580942913385827
20
0.2776784645669291
11
-0.0543447637795276
21
0.2814279921259842
0
LINE
8
BLACK
6
CONTINUOUS
10
-0.0543447637795276
20
0.2814279921259842
11
-0.0541183858267716
21
0.2816138582677165
0
LINE
8
BLACK
6
CONTINUOUS
10
-0.0541183858267716
20
0.2816138582677165
11
-0.0540672440944882
21
0.2816727559055118
0
LINE
8
BLACK
6
CONTINUOUS
10
-0.0540672440944882
20
0.2816727559055118
11
-0.0539785039370079
21
0.2817286614173228
0
LINE
8
BLACK
6
CONTINUOUS
10
-0.0539785039370079
20
0.2817286614173228
11
-0.0538973228346457
21
0.2817952362204724
0
LINE
8
BLACK
6
CONTINUOUS
10
-0.0538973228346457
20
0.2817952362204724
11
-0.0538251968503937
21
0.2818251181102362
0
LINE
8
BLACK
6
CONTINUOUS
10
-0.0538251968503937
20
0.2818251181102362
11
-0.0535773622047244
21
0.2819811023622047
0
LINE
8
BLACK
6
CONTINUOUS
10
-0.0535773622047244
20
0.2819811023622047
11
-0.0498278346456693
21
0.2838558661417322
0
LINE
8
BLACK
6
CONTINUOUS
10
-0.0498278346456693
20
0.2838558661417322
11
-0.0497857480314961
21
0.2838720078740157
0
LINE
8
BLACK
6
CONTINUOUS
10
-0.0497857480314961
20
0.2838720078740157
11
-0.0497685826771654
21
0.2838846850393701
0
LINE
8
BLACK
6
CONTINUOUS
10
-0.0497685826771654
20
0.2838846850393701
11
-0.0495270078740157
21
0.2839710236220472
0
LINE
8
BLACK
6
CONTINUOUS
10
-0.0495270078740157
20
0.2839710236220472
11
-0.0492872440944882
21
0.2840627559055118
0
LINE
8
BLACK
6
CONTINUOUS
10
-0.0492872440944882
20
0.2840627559055118
11
-0.0492659842519685
21
0.2840642913385827
0
LINE
8
BLACK
6
CONTINUOUS
10
-0.0492659842519685
20
0.2840642913385827
11
-0.0492234645669291
21
0.2840794488188976
0
LINE
8
BLACK
6
CONTINUOUS
10
-0.0492234645669291
20
0.2840794488188976
11
-0.0417244094488189
21
0.2859542125984252
0
LINE
8
BLACK
6
CONTINUOUS
10
-0.0417244094488189
20
0.2859542125984252
11
-0.0416245669291339
21
0.2859690157480315
0
LINE
8
BLACK
6
CONTINUOUS
10
-0.0416245669291339
20
0.2859690157480315
11
-0.0415843307086614
21
0.2859856299212598
0
LINE
8
BLACK
6
CONTINUOUS
10
-0.0415843307086614
20
0.2859856299212598
11
-0.0413673228346457
21
0.2860070078740157
0
LINE
8
BLACK
6
CONTINUOUS
10
-0.0413673228346457
20
0.2860070078740157
11
-0.041151811023622
21
0.2860388582677165
0
LINE
8
BLACK
6
CONTINUOUS
10
-0.041151811023622
20
0.2860388582677165
11
-0.0411088188976378
21
0.2860324803149606
0
LINE
8
BLACK
6
CONTINUOUS
10
-0.0411088188976378
20
0.2860324803149606
11
-0.0410082677165354
21
0.2860423622047244
0
LINE
8
BLACK
6
CONTINUOUS
10
-0.0410082677165354
20
0.2860423622047244
11
-0.0353839763779528
21
0.2860423622047244
0
LINE
8
BLACK
6
CONTINUOUS
10
-0.0353839763779528
20
0.2860423622047244
11
-0.0352834645669291
21
0.2860324803149606
0
LINE
8
BLACK
6
CONTINUOUS
10
-0.0318687401574803
20
0.3324138582677165
11
-0.031054094488189
21
0.3315992125984252
0
LINE
8
BLACK
6
CONTINUOUS
10
-0.031054094488189
20
0.3315992125984252
11
-0.030613188976378
21
0.3305348031496063
0
LINE
8
BLACK
6
CONTINUOUS
10
-0.030613188976378
20
0.3305348031496063
11
-0.0305564566929134
21
0.3299587401574803
0
LINE
8
BLACK
6
CONTINUOUS
10
-0.0305564566929134
20
0.3299587401574803
11
-0.0305564566929134
21
0.2999624803149606
0
LINE
8
BLACK
6
CONTINUOUS
10
-0.0305564566929134
20
0.2999624803149606
11
-0.030613188976378
21
0.2993864173228347
0
LINE
8
BLACK
6
CONTINUOUS
10
-0.030613188976378
20
0.2993864173228347
11
-0.031054094488189
21
0.2983220078740157
0
LINE
8
BLACK
6
CONTINUOUS
10
-0.031054094488189
20
0.2983220078740157
11
-0.0318687401574803
21
0.2975073622047244
0
LINE
8
BLACK
6
CONTINUOUS
10
-0.0318687401574803
20
0.2975073622047244
11
-0.0329331496062992
21
0.2970664566929134
0
LINE
8
BLACK
6
CONTINUOUS
10
-0.0329331496062992
20
0.2970664566929134
11
-0.0340852755905512
21
0.2970664566929134
0
LINE
8
BLACK
6
CONTINUOUS
10
-0.0340852755905512
20
0.2970664566929134
11
-0.0351496850393701
21
0.2975073622047244
0
LINE
8
BLACK
6
CONTINUOUS
10
-0.0351496850393701
20
0.2975073622047244
11
-0.0359643307086614
21
0.2983220078740157
0
LINE
8
BLACK
6
CONTINUOUS
10
-0.0359643307086614
20
0.2983220078740157
11
-0.0364052362204724
21
0.2993864173228347
0
LINE
8
BLACK
6
CONTINUOUS
10
-0.0364052362204724
20
0.2993864173228347
11
-0.036461968503937
21
0.2999624803149606
0
LINE
8
BLACK
6
CONTINUOUS
10
-0.036461968503937
20
0.2999624803149606
11
-0.036461968503937
21
0.3299587401574803
0
LINE
8
BLACK
6
CONTINUOUS
10
-0.036461968503937
20
0.3299587401574803
11
-0.0364052362204724
21
0.3305348031496063
0
LINE
8
BLACK
6
CONTINUOUS
10
-0.0364052362204724
20
0.3305348031496063
11
-0.0359643307086614
21
0.3315992125984252
0
LINE
8
BLACK
6
CONTINUOUS
10
-0.0359643307086614
20
0.3315992125984252
11
-0.0351496850393701
21
0.3324138582677165
0
LINE
8
BLACK
6
CONTINUOUS
10
-0.0351496850393701
20
0.3324138582677165
11
-0.0340852755905512
21
0.3328547637795276
0
LINE
8
BLACK
6
CONTINUOUS
10
-0.0340852755905512
20
0.3328547637795276
11
-0.0329331496062992
21
0.3328547637795276
0
LINE
8
BLACK
6
CONTINUOUS
10
-0.0329331496062992
20
0.3328547637795276
11
-0.0318687401574803
21
0.3324138582677165
0
LINE
8
BLACK
6
CONTINUOUS
10
-0.017935
20
0.372224842519685
11
-0.0168705905511811
21
0.371783937007874
0
LINE
8
BLACK
6
CONTINUOUS
10
-0.0168705905511811
20
0.371783937007874
11
-0.0160559448818898
21
0.3709692913385827
0
LINE
8
BLACK
6
CONTINUOUS
10
-0.0160559448818898
20
0.3709692913385827
11
-0.0156150393700787
21
0.3699048818897638
0
LINE
8
BLACK
6
CONTINUOUS
10
-0.0156150393700787
20
0.3699048818897638
11
-0.0155583070866142
21
0.3693288188976378
0
LINE
8
BLACK
6
CONTINUOUS
10
-0.0155583070866142
20
0.3693288188976378
11
-0.0155583070866142
21
0.3543307086614173
0
LINE
8
BLACK
6
CONTINUOUS
10
-0.0155583070866142
20
0.3543307086614173
11
-0.0156150393700787
21
0.3537546456692913
0
LINE
8
BLACK
6
CONTINUOUS
10
-0.0156150393700787
20
0.3537546456692913
11
-0.0156556299212598
21
0.3536566929133858
0
LINE
8
BLACK
6
CONTINUOUS
10
-0.0156556299212598
20
0.3536566929133858
11
-0.0156631496062992
21
0.3535507874015748
0
LINE
8
BLACK
6
CONTINUOUS
10
-0.0156631496062992
20
0.3535507874015748
11
-0.0158700393700787
21
0.3530101968503937
0
LINE
8
BLACK
6
CONTINUOUS
10
-0.0158700393700787
20
0.3530101968503937
11
-0.0177448031496063
21
0.3492606692913386
0
LINE
8
BLACK
6
CONTINUOUS
10
-0.0177448031496063
20
0.3492606692913386
11
-0.017900905511811
21
0.3490126771653543
0
LINE
8
BLACK
6
CONTINUOUS
10
-0.017900905511811
20
0.3490126771653543
11
-0.0179307086614173
21
0.3489407086614173
0
LINE
8
BLACK
6
CONTINUOUS
10
-0.0179307086614173
20
0.3489407086614173
11
-0.0179971653543307
21
0.3488597637795275
0
LINE
8
BLACK
6
CONTINUOUS
10
-0.0179971653543307
20
0.3488597637795275
11
-0.0180531496062992
21
0.3487707874015748
0
LINE
8
BLACK
6
CONTINUOUS
10
-0.0180531496062992
20
0.3487707874015748
11
-0.0181122047244094
21
0.3487196062992126
0
LINE
8
BLACK
6
CONTINUOUS
10
-0.0181122047244094
20
0.3487196062992126
11
-0.0182979527559055
21
0.3484932283464567
0
LINE
8
BLACK
6
CONTINUOUS
10
-0.0182979527559055
20
0.3484932283464567
11
-0.0201727559055118
21
0.3466184645669291
0
LINE
8
BLACK
6
CONTINUOUS
10
-0.0201727559055118
20
0.3466184645669291
11
-0.020399094488189
21
0.3464327559055118
0
LINE
8
BLACK
6
CONTINUOUS
10
-0.020399094488189
20
0.3464327559055118
11
-0.0204502362204724
21
0.3463737401574803
0
LINE
8
BLACK
6
CONTINUOUS
10
-0.0204502362204724
20
0.3463737401574803
11
-0.0205391732283465
21
0.3463177952755905
0
LINE
8
BLACK
6
CONTINUOUS
10
-0.0205391732283465
20
0.3463177952755905
11
-0.0206201968503937
21
0.3462512598425197
0
LINE
8
BLACK
6
CONTINUOUS
10
-0.0206201968503937
20
0.3462512598425197
11
-0.0206922440944882
21
0.3462214566929134
0
LINE
8
BLACK
6
CONTINUOUS
10
-0.0206922440944882
20
0.3462214566929134
11
-0.0209401181102362
21
0.3460653937007874
0
LINE
8
BLACK
6
CONTINUOUS
10
-0.0209401181102362
20
0.3460653937007874
11
-0.0246896456692913
21
0.3441906299212598
0
LINE
8
BLACK
6
CONTINUOUS
10
-0.0246896456692913
20
0.3441906299212598
11
-0.0252302755905512
21
0.3439837401574803
0
LINE
8
BLACK
6
CONTINUOUS
10
-0.0252302755905512
20
0.3439837401574803
11
-0.0253361023622047
21
0.3439762598425197
0
LINE
8
BLACK
6
CONTINUOUS
10
-0.0253361023622047
20
0.3439762598425197
11
-0.025434094488189
21
0.3439356299212598
0
LINE
8
BLACK
6
CONTINUOUS
10
-0.025434094488189
20
0.3439356299212598
11
-0.026010157480315
21
0.3438788976377953
0
LINE
8
BLACK
6
CONTINUOUS
10
-0.026010157480315
20
0.3438788976377953
11
-0.0316344488188976
21
0.3438788976377953
0
LINE
8
BLACK
6
CONTINUOUS
10
-0.0316344488188976
20
0.3438788976377953
11
-0.0322105118110236
21
0.3439356299212598
0
LINE
8
BLACK
6
CONTINUOUS
10
-0.0322105118110236
20
0.3439356299212598
11
-0.0323085039370079
21
0.3439762204724409
0
LINE
8
BLACK
6
CONTINUOUS
10
-0.0323085039370079
20
0.3439762204724409
11
-0.0324143700787402
21
0.3439837401574803
0
LINE
8
BLACK
6
CONTINUOUS
10
-0.0324143700787402
20
0.3439837401574803
11
-0.0329549606299213
21
0.3441906299212598
0
LINE
8
BLACK
6
CONTINUOUS
10
-0.0329549606299213
20
0.3441906299212598
11
-0.0367044881889764
21
0.3460653937007874
0
LINE
8
BLACK
6
CONTINUOUS
10
-0.0367044881889764
20
0.3460653937007874
11
-0.0369525196850394
21
0.3462214960629921
0
LINE
8
BLACK
6
CONTINUOUS
10
-0.0369525196850394
20
0.3462214960629921
11
-0.0370244488188976
21
0.3462512992125984
0
LINE
8
BLACK
6
CONTINUOUS
10
-0.0370244488188976
20
0.3462512992125984
11
-0.0371054330708661
21
0.3463177952755905
0
LINE
8
BLACK
6
CONTINUOUS
10
-0.0371054330708661
20
0.3463177952755905
11
-0.0371943700787402
21
0.3463737401574803
0
LINE
8
BLACK
6
CONTINUOUS
10
-0.0371943700787402
20
0.3463737401574803
11
-0.0372455511811024
21
0.3464327559055118
0
LINE
8
BLACK
6
CONTINUOUS
10
-0.0372455511811024
20
0.3464327559055118
11
-0.0374718897637795
21
0.3466185039370079
0
LINE
8
BLACK
6
CONTINUOUS
10
-0.0374718897637795
20
0.3466185039370079
11
-0.0393466535433071
21
0.3484932677165354
0
LINE
8
BLACK
6
CONTINUOUS
10
-0.0393466535433071
20
0.3484932677165354
11
-0.0397138582677165
21
0.3489407086614173
0
LINE
8
BLACK
6
CONTINUOUS
10
-0.0397138582677165
20
0.3489407086614173
11
-0.0397544881889764
21
0.3490387795275591
0
LINE
8
BLACK
6
CONTINUOUS
10
-0.0397544881889764
20
0.3490387795275591
11
-0.0398239763779528
21
0.3491188976377952
0
LINE
8
BLACK
6
CONTINUOUS
10
-0.0398239763779528
20
0.3491188976377952
11
-0.0399306299212598
21
0.3493577952755905
0
LINE
8
BLACK
6
CONTINUOUS
10
-0.0399306299212598
20
0.3493577952755905
11
-0.0407951181102362
21
0.3484932677165354
0
LINE
8
BLACK
6
CONTINUOUS
10
-0.0407951181102362
20
0.3484932677165354
11
-0.0410214960629921
21
0.3483075196850394
0
LINE
8
BLACK
6
CONTINUOUS
10
-0.0410214960629921
20
0.3483075196850394
11
-0.0410726377952756
21
0.3482485039370078
0
LINE
8
BLACK
6
CONTINUOUS
10
-0.0410726377952756
20
0.3482485039370078
11
-0.0411616141732283
21
0.3481925590551181
0
LINE
8
BLACK
6
CONTINUOUS
10
-0.0411616141732283
20
0.3481925590551181
11
-0.0412425590551181
21
0.348126062992126
0
LINE
8
BLACK
6
CONTINUOUS
10
-0.0412425590551181
20
0.348126062992126
11
-0.0413145275590551
21
0.3480962598425197
0
LINE
8
BLACK
6
CONTINUOUS
10
-0.0413145275590551
20
0.3480962598425197
11
-0.0415625196850394
21
0.3479401574803149
0
LINE
8
BLACK
6
CONTINUOUS
10
-0.0415625196850394
20
0.3479401574803149
11
-0.0453120472440945
21
0.3460653937007874
0
LINE
8
BLACK
6
CONTINUOUS
10
-0.0453120472440945
20
0.3460653937007874
11
-0.0458526771653543
21
0.3458585039370078
0
LINE
8
BLACK
6
CONTINUOUS
10
-0.0458526771653543
20
0.3458585039370078
11
-0.0459585039370079
21
0.3458510236220472
0
LINE
8
BLACK
6
CONTINUOUS
10
-0.0459585039370079
20
0.3458510236220472
11
-0.0460564960629921
21
0.3458103937007874
0
LINE
8
BLACK
6
CONTINUOUS
10
-0.0460564960629921
20
0.3458103937007874
11
-0.0466325590551181
21
0.3457536614173228
0
LINE
8
BLACK
6
CONTINUOUS
10
-0.0466325590551181
20
0.3457536614173228
11
-0.0503820866141732
21
0.3457536614173228
0
LINE
8
BLACK
6
CONTINUOUS
10
-0.0503820866141732
20
0.3457536614173228
11
-0.0509581496062992
21
0.3458103937007874
0
LINE
8
BLACK
6
CONTINUOUS
10
-0.0509581496062992
20
0.3458103937007874
11
-0.0510561417322835
21
0.3458509842519685
0
LINE
8
BLACK
6
CONTINUOUS
10
-0.0510561417322835
20
0.3458509842519685
11
-0.0511620078740157
21
0.3458585039370078
0
LINE
8
BLACK
6
CONTINUOUS
10
-0.0511620078740157
20
0.3458585039370078
11
-0.0517025984251969
21
0.3460653937007874
0
LINE
8
BLACK
6
CONTINUOUS
10
-0.0517025984251969
20
0.3460653937007874
11
-0.055452125984252
21
0.3479401574803149
0
LINE
8
BLACK
6
CONTINUOUS
10
-0.055452125984252
20
0.3479401574803149
11
-0.055700157480315
21
0.3480962598425197
0
LINE
8
BLACK
6
CONTINUOUS
10
-0.055700157480315
20
0.3480962598425197
11
-0.0557720866141732
21
0.348126062992126
0
LINE
8
BLACK
6
CONTINUOUS
10
-0.0557720866141732
20
0.348126062992126
11
-0.0558530708661417
21
0.3481925590551181
0
LINE
8
BLACK
6
CONTINUOUS
10
-0.0558530708661417
20
0.3481925590551181
11
-0.0559420078740157
21
0.3482485039370078
0
LINE
8
BLACK
6
CONTINUOUS
10
-0.0559420078740157
20
0.3482485039370078
11
-0.055993188976378
21
0.3483075196850394
0
LINE
8
BLACK
6
CONTINUOUS
10
-0.055993188976378
20
0.3483075196850394
11
-0.0562195275590551
21
0.3484932677165354
0
LINE
8
BLACK
6
CONTINUOUS
10
-0.0562195275590551
20
0.3484932677165354
11
-0.0580942913385827
21
0.350368031496063
0
LINE
8
BLACK
6
CONTINUOUS
10
-0.0580942913385827
20
0.350368031496063
11
-0.0582800787401575
21
0.3505944094488189
0
LINE
8
BLACK
6
CONTINUOUS
10
-0.0582800787401575
20
0.3505944094488189
11
-0.0583390551181102
21
0.3506455511811024
0
LINE
8
BLACK
6
CONTINUOUS
10
-0.0583390551181102
20
0.3506455511811024
11
-0.0583950393700787
21
0.3507345275590551
0
LINE
8
BLACK
6
CONTINUOUS
10
-0.0583950393700787
20
0.3507345275590551
11
-0.0584614960629921
21
0.3508154724409449
0
LINE
8
BLACK
6
CONTINUOUS
10
-0.0584614960629921
20
0.3508154724409449
11
-0.0584913385826772
21
0.3508874409448819
0
LINE
8
BLACK
6
CONTINUOUS
10
-0.0584913385826772
20
0.3508874409448819
11
-0.0586474015748032
21
0.3511354330708661
0
LINE
8
BLACK
6
CONTINUOUS
10
-0.0586474015748032
20
0.3511354330708661
11
-0.0605221653543307
21
0.3548849606299213
0
LINE
8
BLACK
6
CONTINUOUS
10
-0.0605221653543307
20
0.3548849606299213
11
-0.0607290551181102
21
0.3554255905511811
0
LINE
8
BLACK
6
CONTINUOUS
10
-0.0607290551181102
20
0.3554255905511811
11
-0.0607365748031496
21
0.3555314173228347
0
LINE
8
BLACK
6
CONTINUOUS
10
-0.0607365748031496
20
0.3555314173228347
11
-0.0607771653543307
21
0.3556294094488189
0
LINE
8
BLACK
6
CONTINUOUS
10
-0.0607771653543307
20
0.3556294094488189
11
-0.0608338976377953
21
0.3562054724409449
0
LINE
8
BLACK
6
CONTINUOUS
10
-0.0608338976377953
20
0.3562054724409449
11
-0.0608338976377953
21
0.3693288188976378
0
LINE
8
BLACK
6
CONTINUOUS
10
-0.0608338976377953
20
0.3693288188976378
11
-0.0607771653543307
21
0.3699048818897638
0
LINE
8
BLACK
6
CONTINUOUS
10
-0.0607771653543307
20
0.3699048818897638
11
-0.0603362598425197
21
0.3709692913385827
0
LINE
8
BLACK
6
CONTINUOUS
10
-0.0603362598425197
20
0.3709692913385827
11
-0.0595216141732283
21
0.371783937007874
0
LINE
8
BLACK
6
CONTINUOUS
10
-0.0595216141732283
20
0.371783937007874
11
-0.0584572047244094
21
0.372224842519685
0
LINE
8
BLACK
6
CONTINUOUS
10
-0.0584572047244094
20
0.372224842519685
11
-0.0578811417322835
21
0.3722815748031496
0
LINE
8
BLACK
6
CONTINUOUS
10
-0.0578811417322835
20
0.3722815748031496
11
-0.018511062992126
21
0.3722815748031496
0
LINE
8
BLACK
6
CONTINUOUS
10
-0.018511062992126
20
0.3722815748031496
11
-0.017935
21
0.372224842519685
0
LINE
8
BLACK
6
CONTINUOUS
10
-0.0361807480314961
20
0.3566846456692913
11
-0.0346779527559055
21
0.352176220472441
0
LINE
8
BLACK
6
CONTINUOUS
10
-0.0346779527559055
20
0.352176220472441
11
-0.0336348818897638
21
0.3511331496062992
0
LINE
8
BLACK
6
CONTINUOUS
10
-0.0336348818897638
20
0.3511331496062992
11
-0.0309374015748031
21
0.3497844094488189
0
LINE
8
BLACK
6
CONTINUOUS
10
-0.0309374015748031
20
0.3497844094488189
11
-0.0267072047244094
21
0.3497844094488189
0
LINE
8
BLACK
6
CONTINUOUS
10
-0.0267072047244094
20
0.3497844094488189
11
-0.0240097244094488
21
0.351133188976378
0
LINE
8
BLACK
6
CONTINUOUS
10
-0.0240097244094488
20
0.351133188976378
11
-0.0228125590551181
21
0.3523303149606299
0
LINE
8
BLACK
6
CONTINUOUS
10
-0.0228125590551181
20
0.3523303149606299
11
-0.0214638188976378
21
0.3550277559055118
0
LINE
8
BLACK
6
CONTINUOUS
10
-0.0214638188976378
20
0.3550277559055118
11
-0.0214638188976378
21
0.366376062992126
0
LINE
8
BLACK
6
CONTINUOUS
10
-0.0214638188976378
20
0.366376062992126
11
-0.0361807480314961
21
0.366376062992126
0
LINE
8
BLACK
6
CONTINUOUS
10
-0.0361807480314961
20
0.366376062992126
11
-0.0361807480314961
21
0.3566846456692913
0
LINE
8
BLACK
6
CONTINUOUS
10
-0.0549283858267717
20
0.3569025196850394
11
-0.0535796456692913
21
0.3542050393700787
0
LINE
8
BLACK
6
CONTINUOUS
10
-0.0535796456692913
20
0.3542050393700787
11
-0.0523825196850394
21
0.3530079133858268
0
LINE
8
BLACK
6
CONTINUOUS
10
-0.0523825196850394
20
0.3530079133858268
11
-0.0496850393700787
21
0.3516591732283464
0
LINE
8
BLACK
6
CONTINUOUS
10
-0.0496850393700787
20
0.3516591732283464
11
-0.0473296062992126
21
0.3516591732283464
0
LINE
8
BLACK
6
CONTINUOUS
10
-0.0473296062992126
20
0.3516591732283464
11
-0.044632125984252
21
0.3530079133858268
0
LINE
8
BLACK
6
CONTINUOUS
10
-0.044632125984252
20
0.3530079133858268
11
-0.043435
21
0.3542050393700787
0
LINE
8
BLACK
6
CONTINUOUS
10
-0.043435
20
0.3542050393700787
11
-0.0420862598425197
21
0.3569025196850394
0
LINE
8
BLACK
6
CONTINUOUS
10
-0.0420862598425197
20
0.3569025196850394
11
-0.0420862598425197
21
0.366376062992126
0
LINE
8
BLACK
6
CONTINUOUS
10
-0.0420862598425197
20
0.366376062992126
11
-0.0549283858267717
21
0.366376062992126
0
LINE
8
BLACK
6
CONTINUOUS
10
-0.0549283858267717
20
0.366376062992126
11
-0.0549283858267717
21
0.3569025196850394
0
LINE
8
BLACK
6
CONTINUOUS
10
-0.0315319291338583
20
0.4115949212598425
11
-0.0310583858267717
21
0.4115949212598425
0
LINE
8
BLACK
6
CONTINUOUS
10
-0.0310583858267717
20
0.4115949212598425
11
-0.0309603149606299
21
0.4115542913385827
0
LINE
8
BLACK
6
CONTINUOUS
10
-0.0309603149606299
20
0.4115542913385827
11
-0.0308545669291339
21
0.4115467716535433
0
LINE
8
BLACK
6
CONTINUOUS
10
-0.0308545669291339
20
0.4115467716535433
11
-0.0304314566929134
21
0.4113352362204724
0
LINE
8
BLACK
6
CONTINUOUS
10
-0.0304314566929134
20
0.4113352362204724
11
-0.0299939763779528
21
0.4111540157480315
0
LINE
8
BLACK
6
CONTINUOUS
10
-0.0299939763779528
20
0.4111540157480315
11
-0.0299189763779528
21
0.4110790157480315
0
LINE
8
BLACK
6
CONTINUOUS
10
-0.0299189763779528
20
0.4110790157480315
11
-0.029824094488189
21
0.4110315748031496
0
LINE
8
BLACK
6
CONTINUOUS
10
-0.029824094488189
20
0.4110315748031496
11
-0.029514094488189
21
0.4106741338582677
0
LINE
8
BLACK
6
CONTINUOUS
10
-0.029514094488189
20
0.4106741338582677
11
-0.0291793307086614
21
0.4103393700787402
0
LINE
8
BLACK
6
CONTINUOUS
10
-0.0291793307086614
20
0.4103393700787402
11
-0.0291387401574803
21
0.4102413385826771
0
LINE
8
BLACK
6
CONTINUOUS
10
-0.0291387401574803
20
0.4102413385826771
11
-0.0290692125984252
21
0.4101611811023622
0
LINE
8
BLACK
6
CONTINUOUS
10
-0.0290692125984252
20
0.4101611811023622
11
-0.0289196062992126
21
0.4097123622047244
0
LINE
8
BLACK
6
CONTINUOUS
10
-0.0289196062992126
20
0.4097123622047244
11
-0.0287384251968504
21
0.4092749606299212
0
LINE
8
BLACK
6
CONTINUOUS
10
-0.0287384251968504
20
0.4092749606299212
11
-0.0287236220472441
21
0.4091243307086614
0
LINE
8
BLACK
6
CONTINUOUS
10
-0.0287236220472441
20
0.4091243307086614
11
-0.0287048818897638
21
0.4090681889763779
0
LINE
8
BLACK
6
CONTINUOUS
10
-0.0287048818897638
20
0.4090681889763779
11
-0.0287104330708661
21
0.4089904724409449
0
LINE
8
BLACK
6
CONTINUOUS
10
-0.0287104330708661
20
0.4089904724409449
11
-0.0286816929133858
21
0.4086988976377953
0
LINE
8
BLACK
6
CONTINUOUS
10
-0.0286816929133858
20
0.4086988976377953
11
-0.0286816929133858
21
0.3929040157480315
0
LINE
8
BLACK
6
CONTINUOUS
10
-0.0286816929133858
20
0.3929040157480315
11
-0.018511062992126
21
0.3929040157480315
0
LINE
8
BLACK
6
CONTINUOUS
10
-0.018511062992126
20
0.3929040157480315
11
-0.017935
21
0.3928472834645669
0
LINE
8
BLACK
6
CONTINUOUS
10
-0.017935
20
0.3928472834645669
11
-0.0168705905511811
21
0.3924063779527559
0
LINE
8
BLACK
6
CONTINUOUS
10
-0.0168705905511811
20
0.3924063779527559
11
-0.0160559448818898
21
0.3915917322834646
0
LINE
8
BLACK
6
CONTINUOUS
10
-0.0160559448818898
20
0.3915917322834646
11
-0.0156150393700787
21
0.3905273228346456
0
LINE
8
BLACK
6
CONTINUOUS
10
-0.0156150393700787
20
0.3905273228346456
11
-0.0156150393700787
21
0.3893751968503937
0
LINE
8
BLACK
6
CONTINUOUS
10
-0.0156150393700787
20
0.3893751968503937
11
-0.0160559448818898
21
0.3883107874015748
0
LINE
8
BLACK
6
CONTINUOUS
10
-0.0160559448818898
20
0.3883107874015748
11
-0.0168705905511811
21
0.3874961417322835
0
LINE
8
BLACK
6
CONTINUOUS
10
-0.0168705905511811
20
0.3874961417322835
11
-0.017935
21
0.3870552362204724
0
LINE
8
BLACK
6
CONTINUOUS
10
-0.017935
20
0.3870552362204724
11
-0.018511062992126
21
0.3869985039370079
0
LINE
8
BLACK
6
CONTINUOUS
10
-0.018511062992126
20
0.3869985039370079
11
-0.0286816929133858
21
0.3869985039370079
0
LINE
8
BLACK
6
CONTINUOUS
10
-0.0286816929133858
20
0.3869985039370079
11
-0.0286816929133858
21
0.384326968503937
0
LINE
8
BLACK
6
CONTINUOUS
10
-0.0286816929133858
20
0.384326968503937
11
-0.0287384251968504
21
0.383750905511811
0
LINE
8
BLACK
6
CONTINUOUS
10
-0.0287384251968504
20
0.383750905511811
11
-0.0291793307086614
21
0.3826864960629921
0
LINE
8
BLACK
6
CONTINUOUS
10
-0.0291793307086614
20
0.3826864960629921
11
-0.0299939763779528
21
0.3818718503937008
0
LINE
8
BLACK
6
CONTINUOUS
10
-0.0299939763779528
20
0.3818718503937008
11
-0.0310583858267717
21
0.3814309448818898
0
LINE
8
BLACK
6
CONTINUOUS
10
-0.0310583858267717
20
0.3814309448818898
11
-0.0322105118110236
21
0.3814309448818898
0
LINE
8
BLACK
6
CONTINUOUS
10
-0.0322105118110236
20
0.3814309448818898
11
-0.0332749212598425
21
0.3818718503937008
0
LINE
8
BLACK
6
CONTINUOUS
10
-0.0332749212598425
20
0.3818718503937008
11
-0.0340895669291339
21
0.3826864960629921
0
LINE
8
BLACK
6
CONTINUOUS
10
-0.0340895669291339
20
0.3826864960629921
11
-0.0345304724409449
21
0.383750905511811
0
LINE
8
BLACK
6
CONTINUOUS
10
-0.0345304724409449
20
0.383750905511811
11
-0.0345872047244094
21
0.384326968503937
0
LINE
8
BLACK
6
CONTINUOUS
10
-0.0345872047244094
20
0.384326968503937
11
-0.0345872047244094
21
0.3869985039370079
0
LINE
8
BLACK
6
CONTINUOUS
10
-0.0345872047244094
20
0.3869985039370079
11
-0.0447577952755906
21
0.3869985039370079
0
LINE
8
BLACK
6
CONTINUOUS
10
-0.0447577952755906
20
0.3869985039370079
11
-0.0453338582677165
21
0.3870552362204724
0
LINE
8
BLACK
6
CONTINUOUS
10
-0.0453338582677165
20
0.3870552362204724
11
-0.0463982677165354
21
0.3874961417322835
0
LINE
8
BLACK
6
CONTINUOUS
10
-0.0463982677165354
20
0.3874961417322835
11
-0.0472129133858268
21
0.3883107874015748
0
LINE
8
BLACK
6
CONTINUOUS
10
-0.0472129133858268
20
0.3883107874015748
11
-0.0476538188976378
21
0.3893751968503937
0
LINE
8
BLACK
6
CONTINUOUS
10
-0.0476538188976378
20
0.3893751968503937
11
-0.0476538188976378
21
0.3905273228346456
0
LINE
8
BLACK
6
CONTINUOUS
10
-0.0476538188976378
20
0.3905273228346456
11
-0.0472129133858268
21
0.3915917322834646
0
LINE
8
BLACK
6
CONTINUOUS
10
-0.0472129133858268
20
0.3915917322834646
11
-0.0463982677165354
21
0.3924063779527559
0
LINE
8
BLACK
6
CONTINUOUS
10
-0.0463982677165354
20
0.3924063779527559
11
-0.0453338582677165
21
0.3928472834645669
0
LINE
8
BLACK
6
CONTINUOUS
10
-0.0453338582677165
20
0.3928472834645669
11
-0.0447577952755906
21
0.3929040157480315
0
LINE
8
BLACK
6
CONTINUOUS
10
-0.0447577952755906
20
0.3929040157480315
11
-0.0345872047244094
21
0.3929040157480315
0
LINE
8
BLACK
6
CONTINUOUS
10
-0.0345872047244094
20
0.3929040157480315
11
-0.0345872047244094
21
0.4046022047244094
0
LINE
8
BLACK
6
CONTINUOUS
10
-0.0345872047244094
20
0.4046022047244094
11
-0.0588221653543307
21
0.3965238582677165
0
LINE
8
BLACK
6
CONTINUOUS
10
-0.0588221653543307
20
0.3965238582677165
11
-0.0593866141732283
21
0.3963955118110236
0
LINE
8
BLACK
6
CONTINUOUS
10
-0.0593866141732283
20
0.3963955118110236
11
-0.0605358267716535
21
0.3964772047244094
0
LINE
8
BLACK
6
CONTINUOUS
10
-0.0605358267716535
20
0.3964772047244094
11
-0.0615662598425197
21
0.3969924015748031
0
LINE
8
BLACK
6
CONTINUOUS
10
-0.0615662598425197
20
0.3969924015748031
11
-0.0623211417322835
21
0.3978627559055118
0
LINE
8
BLACK
6
CONTINUOUS
10
-0.0623211417322835
20
0.3978627559055118
11
-0.0626854724409449
21
0.3989557874015748
0
LINE
8
BLACK
6
CONTINUOUS
10
-0.0626854724409449
20
0.3989557874015748
11
-0.0626037795275591
21
0.400105
0
LINE
8
BLACK
6
CONTINUOUS
10
-0.0626037795275591
20
0.400105
11
-0.0620885826771654
21
0.4011354330708661
0
LINE
8
BLACK
6
CONTINUOUS
10
-0.0620885826771654
20
0.4011354330708661
11
-0.0612182283464567
21
0.4018903149606299
0
LINE
8
BLACK
6
CONTINUOUS
10
-0.0612182283464567
20
0.4018903149606299
11
-0.0606896456692913
21
0.4021262992125984
0
LINE
8
BLACK
6
CONTINUOUS
10
-0.0606896456692913
20
0.4021262992125984
11
-0.0325682283464567
21
0.4115001181102362
0
LINE
8
BLACK
6
CONTINUOUS
10
-0.0325682283464567
20
0.4115001181102362
11
-0.0322825984251969
21
0.4115650787401575
0
LINE
8
BLACK
6
CONTINUOUS
10
-0.0322825984251969
20
0.4115650787401575
11
-0.0322105118110236
21
0.4115949212598425
0
LINE
8
BLACK
6
CONTINUOUS
10
-0.0322105118110236
20
0.4115949212598425
11
-0.0321512992125984
21
0.4115949212598425
0
LINE
8
BLACK
6
CONTINUOUS
10
-0.0321512992125984
20
0.4115949212598425
11
-0.0320037795275591
21
0.4116284645669291
0
LINE
8
BLACK
6
CONTINUOUS
10
-0.0320037795275591
20
0.4116284645669291
11
-0.0315319291338583
21
0.4115949212598425
0
LINE
8
BLACK
6
CONTINUOUS
10
-0.0334087007874016
20
0.4491370866141732
11
-0.0333656692913386
21
0.4491434645669291
0
LINE
8
BLACK
6
CONTINUOUS
10
-0.0333656692913386
20
0.4491434645669291
11
-0.0331501968503937
21
0.4491116141732283
0
LINE
8
BLACK
6
CONTINUOUS
10
-0.0331501968503937
20
0.4491116141732283
11
-0.0329331496062992
21
0.4490902362204724
0
LINE
8
BLACK
6
CONTINUOUS
10
-0.0329331496062992
20
0.4490902362204724
11
-0.0328929527559055
21
0.4490736220472441
0
LINE
8
BLACK
6
CONTINUOUS
10
-0.0328929527559055
20
0.4490736220472441
11
-0.0327930708661417
21
0.4490588188976378
0
LINE
8
BLACK
6
CONTINUOUS
10
-0.0327930708661417
20
0.4490588188976378
11
-0.0252940157480315
21
0.4471840551181102
0
LINE
8
BLACK
6
CONTINUOUS
10
-0.0252940157480315
20
0.4471840551181102
11
-0.0252515354330709
21
0.4471688976377953
0
LINE
8
BLACK
6
CONTINUOUS
10
-0.0252515354330709
20
0.4471688976377953
11
-0.0252302755905512
21
0.4471673622047244
0
LINE
8
BLACK
6
CONTINUOUS
10
-0.0252302755905512
20
0.4471673622047244
11
-0.0249908661417323
21
0.4470757480314961
0
LINE
8
BLACK
6
CONTINUOUS
10
-0.0249908661417323
20
0.4470757480314961
11
-0.0247488976377953
21
0.4469892913385827
0
LINE
8
BLACK
6
CONTINUOUS
10
-0.0247488976377953
20
0.4469892913385827
11
-0.0247317716535433
21
0.4469766141732283
0
LINE
8
BLACK
6
CONTINUOUS
10
-0.0247317716535433
20
0.4469766141732283
11
-0.0246896456692913
21
0.4469604724409449
0
LINE
8
BLACK
6
CONTINUOUS
10
-0.0246896456692913
20
0.4469604724409449
11
-0.0209401181102362
21
0.4450857086614173
0
LINE
8
BLACK
6
CONTINUOUS
10
-0.0209401181102362
20
0.4450857086614173
11
-0.0206922440944882
21
0.4449296850393701
0
LINE
8
BLACK
6
CONTINUOUS
10
-0.0206922440944882
20
0.4449296850393701
11
-0.0206201968503937
21
0.444899842519685
0
LINE
8
BLACK
6
CONTINUOUS
10
-0.0206201968503937
20
0.444899842519685
11
-0.0205391732283465
21
0.4448333464566929
0
LINE
8
BLACK
6
CONTINUOUS
10
-0.0205391732283465
20
0.4448333464566929
11
-0.0204502362204724
21
0.4447773622047244
0
LINE
8
BLACK
6
CONTINUOUS
10
-0.0204502362204724
20
0.4447773622047244
11
-0.020399094488189
21
0.4447183858267716
0
LINE
8
BLACK
6
CONTINUOUS
10
-0.020399094488189
20
0.4447183858267716
11
-0.0201727559055118
21
0.4445326377952756
0
LINE
8
BLACK
6
CONTINUOUS
10
-0.0201727559055118
20
0.4445326377952756
11
-0.0182979527559055
21
0.442657874015748
0
LINE
8
BLACK
6
CONTINUOUS
10
-0.0182979527559055
20
0.442657874015748
11
-0.0181122047244094
21
0.4424315354330708
0
LINE
8
BLACK
6
CONTINUOUS
10
-0.0181122047244094
20
0.4424315354330708
11
-0.0180531496062992
21
0.4423803149606299
0
LINE
8
BLACK
6
CONTINUOUS
10
-0.0180531496062992
20
0.4423803149606299
11
-0.0179971653543307
21
0.4422913779527559
0
LINE
8
BLACK
6
CONTINUOUS
10
-0.0179971653543307
20
0.4422913779527559
11
-0.0179307086614173
21
0.4422103937007874
0
LINE
8
BLACK
6
CONTINUOUS
10
-0.0179307086614173
20
0.4422103937007874
11
-0.017900905511811
21
0.4421384645669291
0
LINE
8
BLACK
6
CONTINUOUS
10
-0.017900905511811
20
0.4421384645669291
11
-0.0177448031496063
21
0.4418904330708661
0
LINE
8
BLACK
6
CONTINUOUS
10
-0.0177448031496063
20
0.4418904330708661
11
-0.0158700393700787
21
0.438140905511811
0
LINE
8
BLACK
6
CONTINUOUS
10
-0.0158700393700787
20
0.438140905511811
11
-0.0156631496062992
21
0.4376003149606299
0
LINE
8
BLACK
6
CONTINUOUS
10
-0.0156631496062992
20
0.4376003149606299
11
-0.0156556299212598
21
0.4374944488188977
0
LINE
8
BLACK
6
CONTINUOUS
10
-0.0156556299212598
20
0.4374944488188977
11
-0.0156150393700787
21
0.4373964566929134
0
LINE
8
BLACK
6
CONTINUOUS
10
-0.0156150393700787
20
0.4373964566929134
11
-0.0155583070866142
21
0.4368203937007874
0
LINE
8
BLACK
6
CONTINUOUS
10
-0.0155583070866142
20
0.4368203937007874
11
-0.0155583070866142
21
0.4330708661417323
0
LINE
8
BLACK
6
CONTINUOUS
10
-0.0155583070866142
20
0.4330708661417323
11
-0.0156150393700787
21
0.4324948031496063
0
LINE
8
BLACK
6
CONTINUOUS
10
-0.0156150393700787
20
0.4324948031496063
11
-0.0156556299212598
21
0.4323968503937008
0
LINE
8
BLACK
6
CONTINUOUS
10
-0.0156556299212598
20
0.4323968503937008
11
-0.0156631496062992
21
0.4322909448818897
0
LINE
8
BLACK
6
CONTINUOUS
10
-0.0156631496062992
20
0.4322909448818897
11
-0.0158700393700787
21
0.4317503543307086
0
LINE
8
BLACK
6
CONTINUOUS
10
-0.0158700393700787
20
0.4317503543307086
11
-0.0177448031496063
21
0.4280008267716535
0
LINE
8
BLACK
6
CONTINUOUS
10
-0.0177448031496063
20
0.4280008267716535
11
-0.017900905511811
21
0.4277528346456693
0
LINE
8
BLACK
6
CONTINUOUS
10
-0.017900905511811
20
0.4277528346456693
11
-0.0179307086614173
21
0.4276808661417323
0
LINE
8
BLACK
6
CONTINUOUS
10
-0.0179307086614173
20
0.4276808661417323
11
-0.0179971653543307
21
0.4275999212598425
0
LINE
8
BLACK
6
CONTINUOUS
10
-0.0179971653543307
20
0.4275999212598425
11
-0.0180531496062992
21
0.4275109448818897
0
LINE
8
BLACK
6
CONTINUOUS
10
-0.0180531496062992
20
0.4275109448818897
11
-0.0181122047244094
21
0.4274597637795275
0
LINE
8
BLACK
6
CONTINUOUS
10
-0.0181122047244094
20
0.4274597637795275
11
-0.0182979527559055
21
0.4272333858267716
0
LINE
8
BLACK
6
CONTINUOUS
10
-0.0182979527559055
20
0.4272333858267716
11
-0.0201727559055118
21
0.4253586220472441
0
LINE
8
BLACK
6
CONTINUOUS
10
-0.0201727559055118
20
0.4253586220472441
11
-0.020399094488189
21
0.4251729133858267
0
LINE
8
BLACK
6
CONTINUOUS
10
-0.020399094488189
20
0.4251729133858267
11
-0.0204502362204724
21
0.4251138976377953
0
LINE
8
BLACK
6
CONTINUOUS
10
-0.0204502362204724
20
0.4251138976377953
11
-0.0205391732283465
21
0.4250579527559055
0
LINE
8
BLACK
6
CONTINUOUS
10
-0.0205391732283465
20
0.4250579527559055
11
-0.0206201968503937
21
0.4249914173228346
0
LINE
8
BLACK
6
CONTINUOUS
10
-0.0206201968503937
20
0.4249914173228346
11
-0.0206922440944882
21
0.4249616141732284
0
LINE
8
BLACK
6
CONTINUOUS
10
-0.0206922440944882
20
0.4249616141732284
11
-0.0209401181102362
21
0.4248055511811024
0
LINE
8
BLACK
6
CONTINUOUS
10
-0.0209401181102362
20
0.4248055511811024
11
-0.0246896456692913
21
0.4229307874015748
0
LINE
8
BLACK
6
CONTINUOUS
10
-0.0246896456692913
20
0.4229307874015748
11
-0.0247317716535433
21
0.4229146850393701
0
LINE
8
BLACK
6
CONTINUOUS
10
-0.0247317716535433
20
0.4229146850393701
11
-0.0247488976377953
21
0.422901968503937
0
LINE
8
BLACK
6
CONTINUOUS
10
-0.0247488976377953
20
0.422901968503937
11
-0.0249908661417323
21
0.4228155511811024
0
LINE
8
BLACK
6
CONTINUOUS
10
-0.0249908661417323
20
0.4228155511811024
11
-0.0252302755905512
21
0.4227238976377953
0
LINE
8
BLACK
6
CONTINUOUS
10
-0.0252302755905512
20
0.4227238976377953
11
-0.0252515354330709
21
0.4227224015748031
0
LINE
8
BLACK
6
CONTINUOUS
10
-0.0252515354330709
20
0.4227224015748031
11
-0.0252940157480315
21
0.4227072047244094
0
LINE
8
BLACK
6
CONTINUOUS
10
-0.0252940157480315
20
0.4227072047244094
11
-0.0327930708661417
21
0.4208324409448819
0
LINE
8
BLACK
6
CONTINUOUS
10
-0.0327930708661417
20
0.4208324409448819
11
-0.0328929527559055
21
0.4208176771653543
0
LINE
8
BLACK
6
CONTINUOUS
10
-0.0328929527559055
20
0.4208176771653543
11
-0.0329331496062992
21
0.4208010236220472
0
LINE
8
BLACK
6
CONTINUOUS
10
-0.0329331496062992
20
0.4208010236220472
11
-0.0331501968503937
21
0.4207796850393701
0
LINE
8
BLACK
6
CONTINUOUS
10
-0.0331501968503937
20
0.4207796850393701
11
-0.0333656692913386
21
0.4207477952755905
0
LINE
8
BLACK
6
CONTINUOUS
10
-0.0333656692913386
20
0.4207477952755905
11
-0.0334087007874016
21
0.4207542125984252
0
LINE
8
BLACK
6
CONTINUOUS
10
-0.0334087007874016
20
0.4207542125984252
11
-0.0335092125984252
21
0.4207442913385827
0
LINE
8
BLACK
6
CONTINUOUS
10
-0.0335092125984252
20
0.4207442913385827
11
-0.042883031496063
21
0.4207442913385827
0
LINE
8
BLACK
6
CONTINUOUS
10
-0.042883031496063
20
0.4207442913385827
11
-0.0429835826771654
21
0.4207542125984252
0
LINE
8
BLACK
6
CONTINUOUS
10
-0.0429835826771654
20
0.4207542125984252
11
-0.0430265748031496
21
0.4207477952755905
0
LINE
8
BLACK
6
CONTINUOUS
10
-0.0430265748031496
20
0.4207477952755905
11
-0.0432420866141732
21
0.4207796850393701
0
LINE
8
BLACK
6
CONTINUOUS
10
-0.0432420866141732
20
0.4207796850393701
11
-0.043459094488189
21
0.4208010236220472
0
LINE
8
BLACK
6
CONTINUOUS
10
-0.043459094488189
20
0.4208010236220472
11
-0.0434993307086614
21
0.4208176771653543
0
LINE
8
BLACK
6
CONTINUOUS
10
-0.0434993307086614
20
0.4208176771653543
11
-0.0435991732283465
21
0.4208324409448819
0
LINE
8
BLACK
6
CONTINUOUS
10
-0.0435991732283465
20
0.4208324409448819
11
-0.0510982283464567
21
0.4227072047244094
0
LINE
8
BLACK
6
CONTINUOUS
10
-0.0510982283464567
20
0.4227072047244094
11
-0.0511407480314961
21
0.4227224015748031
0
LINE
8
BLACK
6
CONTINUOUS
10
-0.0511407480314961
20
0.4227224015748031
11
-0.0511620078740157
21
0.4227238976377953
0
LINE
8
BLACK
6
CONTINUOUS
10
-0.0511620078740157
20
0.4227238976377953
11
-0.0514017716535433
21
0.4228156692913386
0
LINE
8
BLACK
6
CONTINUOUS
10
-0.0514017716535433
20
0.4228156692913386
11
-0.0516433464566929
21
0.422901968503937
0
LINE
8
BLACK
6
CONTINUOUS
10
-0.0516433464566929
20
0.422901968503937
11
-0.0516605118110236
21
0.4229146850393701
0
LINE
8
BLACK
6
CONTINUOUS
10
-0.0516605118110236
20
0.4229146850393701
11
-0.0517025984251969
21
0.4229307874015748
0
LINE
8
BLACK
6
CONTINUOUS
10
-0.0517025984251969
20
0.4229307874015748
11
-0.055452125984252
21
0.4248055511811024
0
LINE
8
BLACK
6
CONTINUOUS
10
-0.055452125984252
20
0.4248055511811024
11
-0.055700157480315
21
0.4249616535433071
0
LINE
8
BLACK
6
CONTINUOUS
10
-0.055700157480315
20
0.4249616535433071
11
-0.0557720866141732
21
0.4249914566929134
0
LINE
8
BLACK
6
CONTINUOUS
10
-0.0557720866141732
20
0.4249914566929134
11
-0.0558530708661417
21
0.4250579527559055
0
LINE
8
BLACK
6
CONTINUOUS
10
-0.0558530708661417
20
0.4250579527559055
11
-0.0559420078740157
21
0.4251138976377953
0
LINE
8
BLACK
6
CONTINUOUS
10
-0.0559420078740157
20
0.4251138976377953
11
-0.055993188976378
21
0.4251729133858267
0
LINE
8
BLACK
6
CONTINUOUS
10
-0.055993188976378
20
0.4251729133858267
11
-0.0562195275590551
21
0.4253586614173228
0
LINE
8
BLACK
6
CONTINUOUS
10
-0.0562195275590551
20
0.4253586614173228
11
-0.0580942913385827
21
0.4272334251968504
0
LINE
8
BLACK
6
CONTINUOUS
10
-0.0580942913385827
20
0.4272334251968504
11
-0.0582800787401575
21
0.4274598031496063
0
LINE
8
BLACK
6
CONTINUOUS
10
-0.0582800787401575
20
0.4274598031496063
11
-0.0583390551181102
21
0.4275109448818897
0
LINE
8
BLACK
6
CONTINUOUS
10
-0.0583390551181102
20
0.4275109448818897
11
-0.0583950393700787
21
0.4275999212598425
0
LINE
8
BLACK
6
CONTINUOUS
10
-0.0583950393700787
20
0.4275999212598425
11
-0.0584614960629921
21
0.4276808661417323
0
LINE
8
BLACK
6
CONTINUOUS
10
-0.0584614960629921
20
0.4276808661417323
11
-0.0584913385826772
21
0.4277528346456693
0
LINE
8
BLACK
6
CONTINUOUS
10
-0.0584913385826772
20
0.4277528346456693
11
-0.0586474015748032
21
0.4280008267716535
0
LINE
8
BLACK
6
CONTINUOUS
10
-0.0586474015748032
20
0.4280008267716535
11
-0.0605221653543307
21
0.4317503543307086
0
LINE
8
BLACK
6
CONTINUOUS
10
-0.0605221653543307
20
0.4317503543307086
11
-0.0607290551181102
21
0.4322909842519685
0
LINE
8
BLACK
6
CONTINUOUS
10
-0.0607290551181102
20
0.4322909842519685
11
-0.0607365748031496
21
0.432396811023622
0
LINE
8
BLACK
6
CONTINUOUS
10
-0.0607365748031496
20
0.432396811023622
11
-0.0607771653543307
21
0.4324948031496063
0
LINE
8
BLACK
6
CONTINUOUS
10
-0.0607771653543307
20
0.4324948031496063
11
-0.0608338976377953
21
0.4330708661417323
0
LINE
8
BLACK
6
CONTINUOUS
10
-0.0608338976377953
20
0.4330708661417323
11
-0.0608338976377953
21
0.4368203937007874
0
LINE
8
BLACK
6
CONTINUOUS
10
-0.0608338976377953
20
0.4368203937007874
11
-0.0607771653543307
21
0.4373964566929134
0
LINE
8
BLACK
6
CONTINUOUS
10
-0.0607771653543307
20
0.4373964566929134
11
-0.0607365748031496
21
0.4374944881889763
0
LINE
8
BLACK
6
CONTINUOUS
10
-0.0607365748031496
20
0.4374944881889763
11
-0.0607290551181102
21
0.4376002755905511
0
LINE
8
BLACK
6
CONTINUOUS
10
-0.0607290551181102
20
0.4376002755905511
11
-0.0605221653543307
21
0.438140905511811
0
LINE
8
BLACK
6
CONTINUOUS
10
-0.0605221653543307
20
0.438140905511811
11
-0.0586474015748032
21
0.4418904330708661
0
LINE
8
BLACK
6
CONTINUOUS
10
-0.0586474015748032
20
0.4418904330708661
11
-0.0584913385826772
21
0.4421384645669291
0
LINE
8
BLACK
6
CONTINUOUS
10
-0.0584913385826772
20
0.4421384645669291
11
-0.0584614960629921
21
0.4422103937007874
0
LINE
8
BLACK
6
CONTINUOUS
10
-0.0584614960629921
20
0.4422103937007874
11
-0.0583950393700787
21
0.4422913779527559
0
LINE
8
BLACK
6
CONTINUOUS
10
-0.0583950393700787
20
0.4422913779527559
11
-0.0583390551181102
21
0.4423803149606299
0
LINE
8
BLACK
6
CONTINUOUS
10
-0.0583390551181102
20
0.4423803149606299
11
-0.0582800787401575
21
0.4424314960629921
0
LINE
8
BLACK
6
CONTINUOUS
10
-0.0582800787401575
20
0.4424314960629921
11
-0.0580942913385827
21
0.4426578346456693
0
LINE
8
BLACK
6
CONTINUOUS
10
-0.0580942913385827
20
0.4426578346456693
11
-0.0562195275590551
21
0.4445325984251968
0
LINE
8
BLACK
6
CONTINUOUS
10
-0.0562195275590551
20
0.4445325984251968
11
-0.055993188976378
21
0.4447183858267716
0
LINE
8
BLACK
6
CONTINUOUS
10
-0.055993188976378
20
0.4447183858267716
11
-0.0559420078740157
21
0.4447773622047244
0
LINE
8
BLACK
6
CONTINUOUS
10
-0.0559420078740157
20
0.4447773622047244
11
-0.0558530708661417
21
0.4448333464566929
0
LINE
8
BLACK
6
CONTINUOUS
10
-0.0558530708661417
20
0.4448333464566929
11
-0.0557720866141732
21
0.4448998031496063
0
LINE
8
BLACK
6
CONTINUOUS
10
-0.0557720866141732
20
0.4448998031496063
11
-0.055700157480315
21
0.4449296456692913
0
LINE
8
BLACK
6
CONTINUOUS
10
-0.055700157480315
20
0.4449296456692913
11
-0.055452125984252
21
0.4450857086614173
0
LINE
8
BLACK
6
CONTINUOUS
10
-0.055452125984252
20
0.4450857086614173
11
-0.0517025984251969
21
0.4469604724409449
0
LINE
8
BLACK
6
CONTINUOUS
10
-0.0517025984251969
20
0.4469604724409449
11
-0.0516605118110236
21
0.4469766141732283
0
LINE
8
BLACK
6
CONTINUOUS
10
-0.0516605118110236
20
0.4469766141732283
11
-0.0516433464566929
21
0.4469892913385827
0
LINE
8
BLACK
6
CONTINUOUS
10
-0.0516433464566929
20
0.4469892913385827
11
-0.0514017716535433
21
0.4470756299212598
0
LINE
8
BLACK
6
CONTINUOUS
10
-0.0514017716535433
20
0.4470756299212598
11
-0.0511620078740157
21
0.4471673622047244
0
LINE
8
BLACK
6
CONTINUOUS
10
-0.0511620078740157
20
0.4471673622047244
11
-0.0511407480314961
21
0.4471688976377953
0
LINE
8
BLACK
6
CONTINUOUS
10
-0.0511407480314961
20
0.4471688976377953
11
-0.0510982283464567
21
0.4471840551181102
0
LINE
8
BLACK
6
CONTINUOUS
10
-0.0510982283464567
20
0.4471840551181102
11
-0.0435991732283465
21
0.4490588188976378
0
LINE
8
BLACK
6
CONTINUOUS
10
-0.0435991732283465
20
0.4490588188976378
11
-0.0434993307086614
21
0.4490736220472441
0
LINE
8
BLACK
6
CONTINUOUS
10
-0.0434993307086614
20
0.4490736220472441
11
-0.043459094488189
21
0.4490902362204724
0
LINE
8
BLACK
6
CONTINUOUS
10
-0.043459094488189
20
0.4490902362204724
11
-0.0432420866141732
21
0.4491116141732283
0
LINE
8
BLACK
6
CONTINUOUS
10
-0.0432420866141732
20
0.4491116141732283
11
-0.0430265748031496
21
0.4491434645669291
0
LINE
8
BLACK
6
CONTINUOUS
10
-0.0430265748031496
20
0.4491434645669291
11
-0.0429835826771654
21
0.4491370866141732
0
LINE
8
BLACK
6
CONTINUOUS
10
-0.0429835826771654
20
0.4491370866141732
11
-0.042883031496063
21
0.449146968503937
0
LINE
8
BLACK
6
CONTINUOUS
10
-0.042883031496063
20
0.449146968503937
11
-0.0335092125984252
21
0.449146968503937
0
LINE
8
BLACK
6
CONTINUOUS
10
-0.0335092125984252
20
0.449146968503937
11
-0.0334087007874016
21
0.4491370866141732
0
LINE
8
BLACK
6
CONTINUOUS
10
-0.0493515354330709
20
0.4415334645669291
11
-0.0523825196850394
21
0.4400179527559055
0
LINE
8
BLACK
6
CONTINUOUS
10
-0.0523825196850394
20
0.4400179527559055
11
-0.0535796456692913
21
0.4388208267716535
0
LINE
8
BLACK
6
CONTINUOUS
10
-0.0535796456692913
20
0.4388208267716535
11
-0.0549283858267717
21
0.4361233464566929
0
LINE
8
BLACK
6
CONTINUOUS
10
-0.0549283858267717
20
0.4361233464566929
11
-0.0549283858267717
21
0.4337679133858268
0
LINE
8
BLACK
6
CONTINUOUS
10
-0.0549283858267717
20
0.4337679133858268
11
-0.0535796456692913
21
0.4310704330708661
0
LINE
8
BLACK
6
CONTINUOUS
10
-0.0535796456692913
20
0.4310704330708661
11
-0.0523825196850394
21
0.4298733070866141
0
LINE
8
BLACK
6
CONTINUOUS
10
-0.0523825196850394
20
0.4298733070866141
11
-0.0493515354330709
21
0.4283578346456693
0
LINE
8
BLACK
6
CONTINUOUS
10
-0.0493515354330709
20
0.4283578346456693
11
-0.0425194881889764
21
0.4266498031496063
0
LINE
8
BLACK
6
CONTINUOUS
10
-0.0425194881889764
20
0.4266498031496063
11
-0.0338727559055118
21
0.4266498031496063
0
LINE
8
BLACK
6
CONTINUOUS
10
-0.0338727559055118
20
0.4266498031496063
11
-0.0270407086614173
21
0.4283578346456693
0
LINE
8
BLACK
6
CONTINUOUS
10
-0.0270407086614173
20
0.4283578346456693
11
-0.0240097244094488
21
0.4298733464566929
0
LINE
8
BLACK
6
CONTINUOUS
10
-0.0240097244094488
20
0.4298733464566929
11
-0.0228125590551181
21
0.4310704724409449
0
LINE
8
BLACK
6
CONTINUOUS
10
-0.0228125590551181
20
0.4310704724409449
11
-0.0214638188976378
21
0.4337679133858268
0
LINE
8
BLACK
6
CONTINUOUS
10
-0.0214638188976378
20
0.4337679133858268
11
-0.0214638188976378
21
0.4361233464566929
0
LINE
8
BLACK
6
CONTINUOUS
10
-0.0214638188976378
20
0.4361233464566929
11
-0.0228125590551181
21
0.4388208267716535
0
LINE
8
BLACK
6
CONTINUOUS
10
-0.0228125590551181
20
0.4388208267716535
11
-0.0240097244094488
21
0.4400179527559055
0
LINE
8
BLACK
6
CONTINUOUS
10
-0.0240097244094488
20
0.4400179527559055
11
-0.0270407086614173
21
0.4415334645669291
0
LINE
8
BLACK
6
CONTINUOUS
10
-0.0270407086614173
20
0.4415334645669291
11
-0.0338727559055118
21
0.4432414566929134
0
LINE
8
BLACK
6
CONTINUOUS
10
-0.0338727559055118
20
0.4432414566929134
11
-0.0425194881889764
21
0.4432414566929134
0
LINE
8
BLACK
6
CONTINUOUS
10
-0.0425194881889764
20
0.4432414566929134
11
-0.0493515354330709
21
0.4415334645669291
0
LINE
8
BLACK
6
CONTINUOUS
10
-0.017935
20
0.492209842519685
11
-0.0168705905511811
21
0.491768937007874
0
LINE
8
BLACK
6
CONTINUOUS
10
-0.0168705905511811
20
0.491768937007874
11
-0.0160559448818898
21
0.4909542913385826
0
LINE
8
BLACK
6
CONTINUOUS
10
-0.0160559448818898
20
0.4909542913385826
11
-0.0156150393700787
21
0.4898898818897638
0
LINE
8
BLACK
6
CONTINUOUS
10
-0.0156150393700787
20
0.4898898818897638
11
-0.0156150393700787
21
0.4887377559055118
0
LINE
8
BLACK
6
CONTINUOUS
10
-0.0156150393700787
20
0.4887377559055118
11
-0.0160559448818898
21
0.4876733464566929
0
LINE
8
BLACK
6
CONTINUOUS
10
-0.0160559448818898
20
0.4876733464566929
11
-0.0168705905511811
21
0.4868587007874016
0
LINE
8
BLACK
6
CONTINUOUS
10
-0.0168705905511811
20
0.4868587007874016
11
-0.017935
21
0.4864177952755905
0
LINE
8
BLACK
6
CONTINUOUS
10
-0.017935
20
0.4864177952755905
11
-0.018511062992126
21
0.4863610629921259
0
LINE
8
BLACK
6
CONTINUOUS
10
-0.018511062992126
20
0.4863610629921259
11
-0.0445713779527559
21
0.4863610629921259
0
LINE
8
BLACK
6
CONTINUOUS
10
-0.0445713779527559
20
0.4863610629921259
11
-0.0285109842519685
21
0.4788662204724409
0
LINE
8
BLACK
6
CONTINUOUS
10
-0.0285109842519685
20
0.4788662204724409
11
-0.0283
21
0.4787412598425197
0
LINE
8
BLACK
6
CONTINUOUS
10
-0.0283
20
0.4787412598425197
11
-0.0282286220472441
21
0.4787152755905512
0
LINE
8
BLACK
6
CONTINUOUS
10
-0.0282286220472441
20
0.4787152755905512
11
-0.0281781496062992
21
0.4786690551181102
0
LINE
8
BLACK
6
CONTINUOUS
10
-0.0281781496062992
20
0.4786690551181102
11
-0.0280129527559055
21
0.4785711811023622
0
LINE
8
BLACK
6
CONTINUOUS
10
-0.0280129527559055
20
0.4785711811023622
11
-0.0277099212598425
21
0.4782402755905512
0
LINE
8
BLACK
6
CONTINUOUS
10
-0.0277099212598425
20
0.4782402755905512
11
-0.027378937007874
21
0.4779371653543307
0
LINE
8
BLACK
6
CONTINUOUS
10
-0.027378937007874
20
0.4779371653543307
11
-0.0273234645669291
21
0.4778182677165354
0
LINE
8
BLACK
6
CONTINUOUS
10
-0.0273234645669291
20
0.4778182677165354
11
-0.0272348818897638
21
0.4777215354330708
0
LINE
8
BLACK
6
CONTINUOUS
10
-0.0272348818897638
20
0.4777215354330708
11
-0.0270815748031496
21
0.4772999212598425
0
LINE
8
BLACK
6
CONTINUOUS
10
-0.0270815748031496
20
0.4772999212598425
11
-0.0268917322834646
21
0.4768931496062992
0
LINE
8
BLACK
6
CONTINUOUS
10
-0.0268917322834646
20
0.4768931496062992
11
-0.0268859842519685
21
0.4767621259842519
0
LINE
8
BLACK
6
CONTINUOUS
10
-0.0268859842519685
20
0.4767621259842519
11
-0.0268411417322835
21
0.4766388188976378
0
LINE
8
BLACK
6
CONTINUOUS
10
-0.0268411417322835
20
0.4766388188976378
11
-0.0268608661417323
21
0.4761904724409449
0
LINE
8
BLACK
6
CONTINUOUS
10
-0.0268608661417323
20
0.4761904724409449
11
-0.0268411417322835
21
0.475742125984252
0
LINE
8
BLACK
6
CONTINUOUS
10
-0.0268411417322835
20
0.475742125984252
11
-0.0268859842519685
21
0.4756188582677165
0
LINE
8
BLACK
6
CONTINUOUS
10
-0.0268859842519685
20
0.4756188582677165
11
-0.0268917322834646
21
0.4754877952755905
0
LINE
8
BLACK
6
CONTINUOUS
10
-0.0268917322834646
20
0.4754877952755905
11
-0.0270815748031496
21
0.475081062992126
0
LINE
8
BLACK
6
CONTINUOUS
10
-0.0270815748031496
20
0.475081062992126
11
-0.0272348818897638
21
0.4746594094488189
0
LINE
8
BLACK
6
CONTINUOUS
10
-0.0272348818897638
20
0.4746594094488189
11
-0.0273234645669291
21
0.4745627165354331
0
LINE
8
BLACK
6
CONTINUOUS
10
-0.0273234645669291
20
0.4745627165354331
11
-0.027378937007874
21
0.4744437795275591
0
LINE
8
BLACK
6
CONTINUOUS
10
-0.027378937007874
20
0.4744437795275591
11
-0.0277099212598425
21
0.4741407086614173
0
LINE
8
BLACK
6
CONTINUOUS
10
-0.0277099212598425
20
0.4741407086614173
11
-0.0280129527559055
21
0.4738097637795275
0
LINE
8
BLACK
6
CONTINUOUS
10
-0.0280129527559055
20
0.4738097637795275
11
-0.0281781496062992
21
0.4737119291338582
0
LINE
8
BLACK
6
CONTINUOUS
10
-0.0281781496062992
20
0.4737119291338582
11
-0.0282286220472441
21
0.4736656692913386
0
LINE
8
BLACK
6
CONTINUOUS
10
-0.0282286220472441
20
0.4736656692913386
11
-0.0283
21
0.4736397244094488
0
LINE
8
BLACK
6
CONTINUOUS
10
-0.0283
20
0.4736397244094488
11
-0.0285109842519685
21
0.4735147244094488
0
LINE
8
BLACK
6
CONTINUOUS
10
-0.0285109842519685
20
0.4735147244094488
11
-0.0445713779527559
21
0.4660198818897638
0
LINE
8
BLACK
6
CONTINUOUS
10
-0.0445713779527559
20
0.4660198818897638
11
-0.018511062992126
21
0.4660198818897638
0
LINE
8
BLACK
6
CONTINUOUS
10
-0.018511062992126
20
0.4660198818897638
11
-0.017935
21
0.4659631496062992
0
LINE
8
BLACK
6
CONTINUOUS
10
-0.017935
20
0.4659631496062992
11
-0.0168705905511811
21
0.4655222440944882
0
LINE
8
BLACK
6
CONTINUOUS
10
-0.0168705905511811
20
0.4655222440944882
11
-0.0160559448818898
21
0.4647075984251968
0
LINE
8
BLACK
6
CONTINUOUS
10
-0.0160559448818898
20
0.4647075984251968
11
-0.0156150393700787
21
0.463643188976378
0
LINE
8
BLACK
6
CONTINUOUS
10
-0.0156150393700787
20
0.463643188976378
11
-0.0156150393700787
21
0.462491062992126
0
LINE
8
BLACK
6
CONTINUOUS
10
-0.0156150393700787
20
0.462491062992126
11
-0.0160559448818898
21
0.4614266535433071
0
LINE
8
BLACK
6
CONTINUOUS
10
-0.0160559448818898
20
0.4614266535433071
11
-0.0168705905511811
21
0.4606120078740157
0
LINE
8
BLACK
6
CONTINUOUS
10
-0.0168705905511811
20
0.4606120078740157
11
-0.017935
21
0.4601711023622047
0
LINE
8
BLACK
6
CONTINUOUS
10
-0.017935
20
0.4601711023622047
11
-0.018511062992126
21
0.4601143700787401
0
LINE
8
BLACK
6
CONTINUOUS
10
-0.018511062992126
20
0.4601143700787401
11
-0.0578811417322835
21
0.4601143700787401
0
LINE
8
BLACK
6
CONTINUOUS
10
-0.0578811417322835
20
0.4601143700787401
11
-0.0582599606299213
21
0.4601516929133858
0
LINE
8
BLACK
6
CONTINUOUS
10
-0.0582599606299213
20
0.4601516929133858
11
-0.0583294881889764
21
0.4601486220472441
0
LINE
8
BLACK
6
CONTINUOUS
10
-0.0583294881889764
20
0.4601486220472441
11
-0.0583668503937008
21
0.4601622047244094
0
LINE
8
BLACK
6
CONTINUOUS
10
-0.0583668503937008
20
0.4601622047244094
11
-0.0584572047244094
21
0.4601711023622047
0
LINE
8
BLACK
6
CONTINUOUS
10
-0.0584572047244094
20
0.4601711023622047
11
-0.0589307086614173
21
0.4603672440944882
0
LINE
8
BLACK
6
CONTINUOUS
10
-0.0589307086614173
20
0.4603672440944882
11
-0.0594122047244094
21
0.4605423228346456
0
LINE
8
BLACK
6
CONTINUOUS
10
-0.0594122047244094
20
0.4605423228346456
11
-0.0594607874015748
21
0.460586811023622
0
LINE
8
BLACK
6
CONTINUOUS
10
-0.0594607874015748
20
0.460586811023622
11
-0.0595216141732283
21
0.4606120078740157
0
LINE
8
BLACK
6
CONTINUOUS
10
-0.0595216141732283
20
0.4606120078740157
11
-0.0598840551181102
21
0.4609744488188977
0
LINE
8
BLACK
6
CONTINUOUS
10
-0.0598840551181102
20
0.4609744488188977
11
-0.0602618503937008
21
0.4613204330708661
0
LINE
8
BLACK
6
CONTINUOUS
10
-0.0602618503937008
20
0.4613204330708661
11
-0.0602897244094488
21
0.4613801181102362
0
LINE
8
BLACK
6
CONTINUOUS
10
-0.0602897244094488
20
0.4613801181102362
11
-0.0603362598425197
21
0.4614266535433071
0
LINE
8
BLACK
6
CONTINUOUS
10
-0.0603362598425197
20
0.4614266535433071
11
-0.0605323228346457
21
0.4618999606299212
0
LINE
8
BLACK
6
CONTINUOUS
10
-0.0605323228346457
20
0.4618999606299212
11
-0.060749094488189
21
0.4623644488188976
0
LINE
8
BLACK
6
CONTINUOUS
10
-0.060749094488189
20
0.4623644488188976
11
-0.0607520078740157
21
0.4624302755905512
0
LINE
8
BLACK
6
CONTINUOUS
10
-0.0607520078740157
20
0.4624302755905512
11
-0.0607771653543307
21
0.462491062992126
0
LINE
8
BLACK
6
CONTINUOUS
10
-0.0607771653543307
20
0.462491062992126
11
-0.0607771653543307
21
0.4630036220472441
0
LINE
8
BLACK
6
CONTINUOUS
10
-0.0607771653543307
20
0.4630036220472441
11
-0.0607996456692913
21
0.4635154724409449
0
LINE
8
BLACK
6
CONTINUOUS
10
-0.0607996456692913
20
0.4635154724409449
11
-0.0607771653543307
21
0.4635773228346456
0
LINE
8
BLACK
6
CONTINUOUS
10
-0.0607771653543307
20
0.4635773228346456
11
-0.0607771653543307
21
0.463643188976378
0
LINE
8
BLACK
6
CONTINUOUS
10
-0.0607771653543307
20
0.463643188976378
11
-0.060581062992126
21
0.4641166929133858
0
LINE
8
BLACK
6
CONTINUOUS
10
-0.060581062992126
20
0.4641166929133858
11
-0.0604059448818898
21
0.4645981889763779
0
LINE
8
BLACK
6
CONTINUOUS
10
-0.0604059448818898
20
0.4645981889763779
11
-0.0603614960629921
21
0.4646467716535433
0
LINE
8
BLACK
6
CONTINUOUS
10
-0.0603614960629921
20
0.4646467716535433
11
-0.0603362598425197
21
0.4647075984251968
0
LINE
8
BLACK
6
CONTINUOUS
10
-0.0603362598425197
20
0.4647075984251968
11
-0.0599738582677165
21
0.4650700393700787
0
LINE
8
BLACK
6
CONTINUOUS
10
-0.0599738582677165
20
0.4650700393700787
11
-0.0596278346456693
21
0.4654478346456693
0
LINE
8
BLACK
6
CONTINUOUS
10
-0.0596278346456693
20
0.4654478346456693
11
-0.0595498031496063
21
0.465494094488189
0
LINE
8
BLACK
6
CONTINUOUS
10
-0.0595498031496063
20
0.465494094488189
11
-0.0595216141732283
21
0.4655222440944882
0
LINE
8
BLACK
6
CONTINUOUS
10
-0.0595216141732283
20
0.4655222440944882
11
-0.0594572047244094
21
0.4655489763779527
0
LINE
8
BLACK
6
CONTINUOUS
10
-0.0594572047244094
20
0.4655489763779527
11
-0.0591298031496063
21
0.465742874015748
0
LINE
8
BLACK
6
CONTINUOUS
10
-0.0591298031496063
20
0.465742874015748
11
-0.036742125984252
21
0.4761904724409449
0
LINE
8
BLACK
6
CONTINUOUS
10
-0.036742125984252
20
0.4761904724409449
11
-0.0591298031496063
21
0.4866380708661417
0
LINE
8
BLACK
6
CONTINUOUS
10
-0.0591298031496063
20
0.4866380708661417
11
-0.0594572047244094
21
0.4868320078740158
0
LINE
8
BLACK
6
CONTINUOUS
10
-0.0594572047244094
20
0.4868320078740158
11
-0.0595216141732283
21
0.4868587007874016
0
LINE
8
BLACK
6
CONTINUOUS
10
-0.0595216141732283
20
0.4868587007874016
11
-0.0595498031496063
21
0.4868868897637795
0
LINE
8
BLACK
6
CONTINUOUS
10
-0.0595498031496063
20
0.4868868897637795
11
-0.0596278346456693
21
0.4869331102362204
0
LINE
8
BLACK
6
CONTINUOUS
10
-0.0596278346456693
20
0.4869331102362204
11
-0.0599738582677165
21
0.4873109448818898
0
LINE
8
BLACK
6
CONTINUOUS
10
-0.0599738582677165
20
0.4873109448818898
11
-0.0603362598425197
21
0.4876733464566929
0
LINE
8
BLACK
6
CONTINUOUS
10
-0.0603362598425197
20
0.4876733464566929
11
-0.0603614960629921
21
0.4877342125984252
0
LINE
8
BLACK
6
CONTINUOUS
10
-0.0603614960629921
20
0.4877342125984252
11
-0.0604059448818898
21
0.4877827559055118
0
LINE
8
BLACK
6
CONTINUOUS
10
-0.0604059448818898
20
0.4877827559055118
11
-0.060581062992126
21
0.4882642913385827
0
LINE
8
BLACK
6
CONTINUOUS
10
-0.060581062992126
20
0.4882642913385827
11
-0.0607771653543307
21
0.4887377559055118
0
LINE
8
BLACK
6
CONTINUOUS
10
-0.0607771653543307
20
0.4887377559055118
11
-0.0607771653543307
21
0.4888036614173228
0
LINE
8
BLACK
6
CONTINUOUS
10
-0.0607771653543307
20
0.4888036614173228
11
-0.0607996456692913
21
0.4888654724409449
0
LINE
8
BLACK
6
CONTINUOUS
10
-0.0607996456692913
20
0.4888654724409449
11
-0.0607771653543307
21
0.4893773622047244
0
LINE
8
BLACK
6
CONTINUOUS
10
-0.0607771653543307
20
0.4893773622047244
11
-0.0607771653543307
21
0.4898898818897638
0
LINE
8
BLACK
6
CONTINUOUS
10
-0.0607771653543307
20
0.4898898818897638
11
-0.0607520078740157
21
0.4899507086614173
0
LINE
8
BLACK
6
CONTINUOUS
10
-0.0607520078740157
20
0.4899507086614173
11
-0.060749094488189
21
0.4900164960629921
0
LINE
8
BLACK
6
CONTINUOUS
10
-0.060749094488189
20
0.4900164960629921
11
-0.0605323228346457
21
0.4904810236220472
0
LINE
8
BLACK
6
CONTINUOUS
10
-0.0605323228346457
20
0.4904810236220472
11
-0.0603362598425197
21
0.4909542913385826
0
LINE
8
BLACK
6
CONTINUOUS
10
-0.0603362598425197
20
0.4909542913385826
11
-0.0602897244094488
21
0.4910008661417323
0
LINE
8
BLACK
6
CONTINUOUS
10
-0.0602897244094488
20
0.4910008661417323
11
-0.0602618503937008
21
0.4910605118110236
0
LINE
8
BLACK
6
CONTINUOUS
10
-0.0602618503937008
20
0.4910605118110236
11
-0.0598840551181102
21
0.4914065354330708
0
LINE
8
BLACK
6
CONTINUOUS
10
-0.0598840551181102
20
0.4914065354330708
11
-0.0595216141732283
21
0.491768937007874
0
LINE
8
BLACK
6
CONTINUOUS
10
-0.0595216141732283
20
0.491768937007874
11
-0.0594607874015748
21
0.4917941732283465
0
LINE
8
BLACK
6
CONTINUOUS
10
-0.0594607874015748
20
0.4917941732283465
11
-0.0594122047244094
21
0.4918386220472441
0
LINE
8
BLACK
6
CONTINUOUS
10
-0.0594122047244094
20
0.4918386220472441
11
-0.0589307086614173
21
0.4920137401574803
0
LINE
8
BLACK
6
CONTINUOUS
10
-0.0589307086614173
20
0.4920137401574803
11
-0.0584572047244094
21
0.492209842519685
0
LINE
8
BLACK
6
CONTINUOUS
10
-0.0584572047244094
20
0.492209842519685
11
-0.0583668503937008
21
0.492218779527559
0
LINE
8
BLACK
6
CONTINUOUS
10
-0.0583668503937008
20
0.492218779527559
11
-0.0583294881889764
21
0.4922323228346457
0
LINE
8
BLACK
6
CONTINUOUS
10
-0.0583294881889764
20
0.4922323228346457
11
-0.0582599606299213
21
0.4922292913385827
0
LINE
8
BLACK
6
CONTINUOUS
10
-0.0582599606299213
20
0.4922292913385827
11
-0.0578811417322835
21
0.4922665748031496
0
LINE
8
BLACK
6
CONTINUOUS
10
-0.0578811417322835
20
0.4922665748031496
11
-0.018511062992126
21
0.4922665748031496
0
LINE
8
BLACK
6
CONTINUOUS
10
-0.018511062992126
20
0.4922665748031496
11
-0.017935
21
0.492209842519685
0
LINE
8
BLACK
6
CONTINUOUS
10
-0.0460564960629921
20
0.5315799212598425
11
-0.0459585039370079
21
0.5315393307086614
0
LINE
8
BLACK
6
CONTINUOUS
10
-0.0459585039370079
20
0.5315393307086614
11
-0.0458526771653543
21
0.531531811023622
0
LINE
8
BLACK
6
CONTINUOUS
10
-0.0458526771653543
20
0.531531811023622
11
-0.0453120472440945
21
0.5313249212598425
0
LINE
8
BLACK
6
CONTINUOUS
10
-0.0453120472440945
20
0.5313249212598425
11
-0.0415625196850394
21
0.529450157480315
0
LINE
8
BLACK
6
CONTINUOUS
10
-0.0415625196850394
20
0.529450157480315
11
-0.0413145275590551
21
0.529294094488189
0
LINE
8
BLACK
6
CONTINUOUS
10
-0.0413145275590551
20
0.529294094488189
11
-0.0412425590551181
21
0.5292642519685039
0
LINE
8
BLACK
6
CONTINUOUS
10
-0.0412425590551181
20
0.5292642519685039
11
-0.0411616141732283
21
0.5291977952755905
0
LINE
8
BLACK
6
CONTINUOUS
10
-0.0411616141732283
20
0.5291977952755905
11
-0.0410726377952756
21
0.529141811023622
0
LINE
8
BLACK
6
CONTINUOUS
10
-0.0410726377952756
20
0.529141811023622
11
-0.0410214960629921
21
0.5290828346456693
0
LINE
8
BLACK
6
CONTINUOUS
10
-0.0410214960629921
20
0.5290828346456693
11
-0.0407951181102362
21
0.5288970472440945
0
LINE
8
BLACK
6
CONTINUOUS
10
-0.0407951181102362
20
0.5288970472440945
11
-0.0389203543307087
21
0.5270222834645669
0
LINE
8
BLACK
6
CONTINUOUS
10
-0.0389203543307087
20
0.5270222834645669
11
-0.0387346062992126
21
0.5267959448818897
0
LINE
8
BLACK
6
CONTINUOUS
10
-0.0387346062992126
20
0.5267959448818897
11
-0.0386755905511811
21
0.5267447637795275
0
LINE
8
BLACK
6
CONTINUOUS
10
-0.0386755905511811
20
0.5267447637795275
11
-0.0386196456692913
21
0.5266558267716536
0
LINE
8
BLACK
6
CONTINUOUS
10
-0.0386196456692913
20
0.5266558267716536
11
-0.0385531496062992
21
0.526574842519685
0
LINE
8
BLACK
6
CONTINUOUS
10
-0.0385531496062992
20
0.526574842519685
11
-0.0385233464566929
21
0.5265029133858268
0
LINE
8
BLACK
6
CONTINUOUS
10
-0.0385233464566929
20
0.5265029133858268
11
-0.0383672440944882
21
0.5262548818897638
0
LINE
8
BLACK
6
CONTINUOUS
10
-0.0383672440944882
20
0.5262548818897638
11
-0.0364924803149606
21
0.5225053543307087
0
LINE
8
BLACK
6
CONTINUOUS
10
-0.0364924803149606
20
0.5225053543307087
11
-0.0364763779527559
21
0.5224632677165354
0
LINE
8
BLACK
6
CONTINUOUS
10
-0.0364763779527559
20
0.5224632677165354
11
-0.0364636614173228
21
0.5224461023622047
0
LINE
8
BLACK
6
CONTINUOUS
10
-0.0364636614173228
20
0.5224461023622047
11
-0.0363773622047244
21
0.5222045275590551
0
LINE
8
BLACK
6
CONTINUOUS
10
-0.0363773622047244
20
0.5222045275590551
11
-0.0362855905511811
21
0.5219647637795275
0
LINE
8
BLACK
6
CONTINUOUS
10
-0.0362855905511811
20
0.5219647637795275
11
-0.036284094488189
21
0.5219435039370078
0
LINE
8
BLACK
6
CONTINUOUS
10
-0.036284094488189
20
0.5219435039370078
11
-0.0362688976377953
21
0.5219009842519685
0
LINE
8
BLACK
6
CONTINUOUS
10
-0.0362688976377953
20
0.5219009842519685
11
-0.0344727559055118
21
0.5147163385826772
0
LINE
8
BLACK
6
CONTINUOUS
10
-0.0344727559055118
20
0.5147163385826772
11
-0.0329572440944882
21
0.5116853543307086
0
LINE
8
BLACK
6
CONTINUOUS
10
-0.0329572440944882
20
0.5116853543307086
11
-0.0317601181102362
21
0.5104882283464567
0
LINE
8
BLACK
6
CONTINUOUS
10
-0.0317601181102362
20
0.5104882283464567
11
-0.0290626377952756
21
0.5091394881889764
0
LINE
8
BLACK
6
CONTINUOUS
10
-0.0290626377952756
20
0.5091394881889764
11
-0.0267072047244094
21
0.5091394881889764
0
LINE
8
BLACK
6
CONTINUOUS
10
-0.0267072047244094
20
0.5091394881889764
11
-0.0240097244094488
21
0.5104882677165354
0
LINE
8
BLACK
6
CONTINUOUS
10
-0.0240097244094488
20
0.5104882677165354
11
-0.0228125590551181
21
0.5116853937007874
0
LINE
8
BLACK
6
CONTINUOUS
10
-0.0228125590551181
20
0.5116853937007874
11
-0.0214638188976378
21
0.5143828346456693
0
LINE
8
BLACK
6
CONTINUOUS
10
-0.0214638188976378
20
0.5143828346456693
11
-0.0214638188976378
21
0.5225804724409449
0
LINE
8
BLACK
6
CONTINUOUS
10
-0.0214638188976378
20
0.5225804724409449
11
-0.0231870472440945
21
0.527750157480315
0
LINE
8
BLACK
6
CONTINUOUS
10
-0.0231870472440945
20
0.527750157480315
11
-0.0233153937007874
21
0.5283146062992126
0
LINE
8
BLACK
6
CONTINUOUS
10
-0.0233153937007874
20
0.5283146062992126
11
-0.0232337007874016
21
0.5294638188976378
0
LINE
8
BLACK
6
CONTINUOUS
10
-0.0232337007874016
20
0.5294638188976378
11
-0.0227185039370079
21
0.530494251968504
0
LINE
8
BLACK
6
CONTINUOUS
10
-0.0227185039370079
20
0.530494251968504
11
-0.0218481496062992
21
0.5312491338582677
0
LINE
8
BLACK
6
CONTINUOUS
10
-0.0218481496062992
20
0.5312491338582677
11
-0.0207551181102362
21
0.5316134645669292
0
LINE
8
BLACK
6
CONTINUOUS
10
-0.0207551181102362
20
0.5316134645669292
11
-0.019605905511811
21
0.5315317716535433
0
LINE
8
BLACK
6
CONTINUOUS
10
-0.019605905511811
20
0.5315317716535433
11
-0.0185754724409449
21
0.5310165748031496
0
LINE
8
BLACK
6
CONTINUOUS
10
-0.0185754724409449
20
0.5310165748031496
11
-0.0178205905511811
21
0.530146220472441
0
LINE
8
BLACK
6
CONTINUOUS
10
-0.0178205905511811
20
0.530146220472441
11
-0.0175846062992126
21
0.5296176377952756
0
LINE
8
BLACK
6
CONTINUOUS
10
-0.0175846062992126
20
0.5296176377952756
11
-0.015709842519685
21
0.5239933858267717
0
LINE
8
BLACK
6
CONTINUOUS
10
-0.015709842519685
20
0.5239933858267717
11
-0.0156449212598425
21
0.5237077559055118
0
LINE
8
BLACK
6
CONTINUOUS
10
-0.0156449212598425
20
0.5237077559055118
11
-0.0156150393700787
21
0.5236356692913385
0
LINE
8
BLACK
6
CONTINUOUS
10
-0.0156150393700787
20
0.5236356692913385
11
-0.0156047637795276
21
0.5235312204724409
0
LINE
8
BLACK
6
CONTINUOUS
10
-0.0156047637795276
20
0.5235312204724409
11
-0.0155814960629921
21
0.523428937007874
0
LINE
8
BLACK
6
CONTINUOUS
10
-0.0155814960629921
20
0.523428937007874
11
-0.0155870472440945
21
0.523351220472441
0
LINE
8
BLACK
6
CONTINUOUS
10
-0.0155870472440945
20
0.523351220472441
11
-0.0155583070866142
21
0.5230596062992126
0
LINE
8
BLACK
6
CONTINUOUS
10
-0.0155583070866142
20
0.5230596062992126
11
-0.0155583070866142
21
0.5136857874015748
0
LINE
8
BLACK
6
CONTINUOUS
10
-0.0155583070866142
20
0.5136857874015748
11
-0.0156150393700787
21
0.5131097244094488
0
LINE
8
BLACK
6
CONTINUOUS
10
-0.0156150393700787
20
0.5131097244094488
11
-0.0156556299212598
21
0.5130117716535433
0
LINE
8
BLACK
6
CONTINUOUS
10
-0.0156556299212598
20
0.5130117716535433
11
-0.0156631496062992
21
0.5129058661417323
0
LINE
8
BLACK
6
CONTINUOUS
10
-0.0156631496062992
20
0.5129058661417323
11
-0.0158700393700787
21
0.5123652755905511
0
LINE
8
BLACK
6
CONTINUOUS
10
-0.0158700393700787
20
0.5123652755905511
11
-0.0177448031496063
21
0.508615748031496
0
LINE
8
BLACK
6
CONTINUOUS
10
-0.0177448031496063
20
0.508615748031496
11
-0.017900905511811
21
0.5083677559055118
0
LINE
8
BLACK
6
CONTINUOUS
10
-0.017900905511811
20
0.5083677559055118
11
-0.0179307086614173
21
0.5082957874015748
0
LINE
8
BLACK
6
CONTINUOUS
10
-0.0179307086614173
20
0.5082957874015748
11
-0.0179971653543307
21
0.5082148425196851
0
LINE
8
BLACK
6
CONTINUOUS
10
-0.0179971653543307
20
0.5082148425196851
11
-0.0180531496062992
21
0.5081258661417323
0
LINE
8
BLACK
6
CONTINUOUS
10
-0.0180531496062992
20
0.5081258661417323
11
-0.0181122047244094
21
0.50807468503937
0
LINE
8
BLACK
6
CONTINUOUS
10
-0.0181122047244094
20
0.50807468503937
11
-0.0182979527559055
21
0.5078483070866142
0
LINE
8
BLACK
6
CONTINUOUS
10
-0.0182979527559055
20
0.5078483070866142
11
-0.0201727559055118
21
0.5059735433070865
0
LINE
8
BLACK
6
CONTINUOUS
10
-0.0201727559055118
20
0.5059735433070865
11
-0.020399094488189
21
0.5057878346456692
0
LINE
8
BLACK
6
CONTINUOUS
10
-0.020399094488189
20
0.5057878346456692
11
-0.0204502362204724
21
0.5057288188976378
0
LINE
8
BLACK
6
CONTINUOUS
10
-0.0204502362204724
20
0.5057288188976378
11
-0.0205391732283465
21
0.505672874015748
0
LINE
8
BLACK
6
CONTINUOUS
10
-0.0205391732283465
20
0.505672874015748
11
-0.0206201968503937
21
0.5056063385826771
0
LINE
8
BLACK
6
CONTINUOUS
10
-0.0206201968503937
20
0.5056063385826771
11
-0.0206922440944882
21
0.5055765354330709
0
LINE
8
BLACK
6
CONTINUOUS
10
-0.0206922440944882
20
0.5055765354330709
11
-0.0209401181102362
21
0.5054204724409449
0
LINE
8
BLACK
6
CONTINUOUS
10
-0.0209401181102362
20
0.5054204724409449
11
-0.0246896456692913
21
0.5035457086614173
0
LINE
8
BLACK
6
CONTINUOUS
10
-0.0246896456692913
20
0.5035457086614173
11
-0.0252302755905512
21
0.5033388188976378
0
LINE
8
BLACK
6
CONTINUOUS
10
-0.0252302755905512
20
0.5033388188976378
11
-0.0253361023622047
21
0.5033313385826772
0
LINE
8
BLACK
6
CONTINUOUS
10
-0.0253361023622047
20
0.5033313385826772
11
-0.025434094488189
21
0.5032907086614173
0
LINE
8
BLACK
6
CONTINUOUS
10
-0.025434094488189
20
0.5032907086614173
11
-0.026010157480315
21
0.5032339763779528
0
LINE
8
BLACK
6
CONTINUOUS
10
-0.026010157480315
20
0.5032339763779528
11
-0.0297596850393701
21
0.5032339763779528
0
LINE
8
BLACK
6
CONTINUOUS
10
-0.0297596850393701
20
0.5032339763779528
11
-0.0303357480314961
21
0.5032907086614173
0
LINE
8
BLACK
6
CONTINUOUS
10
-0.0303357480314961
20
0.5032907086614173
11
-0.0304337401574803
21
0.5033312992125984
0
LINE
8
BLACK
6
CONTINUOUS
10
-0.0304337401574803
20
0.5033312992125984
11
-0.0305396062992126
21
0.5033388188976378
0
LINE
8
BLACK
6
CONTINUOUS
10
-0.0305396062992126
20
0.5033388188976378
11
-0.0310801968503937
21
0.5035457086614173
0
LINE
8
BLACK
6
CONTINUOUS
10
-0.0310801968503937
20
0.5035457086614173
11
-0.0348297244094488
21
0.5054204724409449
0
LINE
8
BLACK
6
CONTINUOUS
10
-0.0348297244094488
20
0.5054204724409449
11
-0.0350777559055118
21
0.5055765748031495
0
LINE
8
BLACK
6
CONTINUOUS
10
-0.0350777559055118
20
0.5055765748031495
11
-0.0351496850393701
21
0.5056063779527559
0
LINE
8
BLACK
6
CONTINUOUS
10
-0.0351496850393701
20
0.5056063779527559
11
-0.0352306692913386
21
0.505672874015748
0
LINE
8
BLACK
6
CONTINUOUS
10
-0.0352306692913386
20
0.505672874015748
11
-0.0353196062992126
21
0.5057288188976378
0
LINE
8
BLACK
6
CONTINUOUS
10
-0.0353196062992126
20
0.5057288188976378
11
-0.0353707874015748
21
0.5057878346456692
0
LINE
8
BLACK
6
CONTINUOUS
10
-0.0353707874015748
20
0.5057878346456692
11
-0.035597125984252
21
0.5059735826771653
0
LINE
8
BLACK
6
CONTINUOUS
10
-0.035597125984252
20
0.5059735826771653
11
-0.0374718897637795
21
0.5078483464566929
0
LINE
8
BLACK
6
CONTINUOUS
10
-0.0374718897637795
20
0.5078483464566929
11
-0.0376576771653543
21
0.5080747244094488
0
LINE
8
BLACK
6
CONTINUOUS
10
-0.0376576771653543
20
0.5080747244094488
11
-0.0377166535433071
21
0.5081258661417323
0
LINE
8
BLACK
6
CONTINUOUS
10
-0.0377166535433071
20
0.5081258661417323
11
-0.0377726377952756
21
0.5082148425196851
0
LINE
8
BLACK
6
CONTINUOUS
10
-0.0377726377952756
20
0.5082148425196851
11
-0.037839094488189
21
0.5082957874015748
0
LINE
8
BLACK
6
CONTINUOUS
10
-0.037839094488189
20
0.5082957874015748
11
-0.037868937007874
21
0.5083677559055118
0
LINE
8
BLACK
6
CONTINUOUS
10
-0.037868937007874
20
0.5083677559055118
11
-0.038025
21
0.508615748031496
0
LINE
8
BLACK
6
CONTINUOUS
10
-0.038025
20
0.508615748031496
11
-0.0398997637795276
21
0.5123652755905511
0
LINE
8
BLACK
6
CONTINUOUS
10
-0.0398997637795276
20
0.5123652755905511
11
-0.039915905511811
21
0.5124074015748031
0
LINE
8
BLACK
6
CONTINUOUS
10
-0.039915905511811
20
0.5124074015748031
11
-0.0399285826771654
21
0.5124245275590551
0
LINE
8
BLACK
6
CONTINUOUS
10
-0.0399285826771654
20
0.5124245275590551
11
-0.0400150393700787
21
0.5126664960629921
0
LINE
8
BLACK
6
CONTINUOUS
10
-0.0400150393700787
20
0.5126664960629921
11
-0.0401066535433071
21
0.512905905511811
0
LINE
8
BLACK
6
CONTINUOUS
10
-0.0401066535433071
20
0.512905905511811
11
-0.040108188976378
21
0.5129271653543307
0
LINE
8
BLACK
6
CONTINUOUS
10
-0.040108188976378
20
0.5129271653543307
11
-0.0401233464566929
21
0.5129696456692914
0
LINE
8
BLACK
6
CONTINUOUS
10
-0.0401233464566929
20
0.5129696456692914
11
-0.0419195275590551
21
0.5201542913385827
0
LINE
8
BLACK
6
CONTINUOUS
10
-0.0419195275590551
20
0.5201542913385827
11
-0.043435
21
0.5231852755905512
0
LINE
8
BLACK
6
CONTINUOUS
10
-0.043435
20
0.5231852755905512
11
-0.044632125984252
21
0.5243824015748031
0
LINE
8
BLACK
6
CONTINUOUS
10
-0.044632125984252
20
0.5243824015748031
11
-0.0473296062992126
21
0.5257311417322834
0
LINE
8
BLACK
6
CONTINUOUS
10
-0.0473296062992126
20
0.5257311417322834
11
-0.0496850393700787
21
0.5257311417322834
0
LINE
8
BLACK
6
CONTINUOUS
10
-0.0496850393700787
20
0.5257311417322834
11
-0.0523825196850394
21
0.5243824015748031
0
LINE
8
BLACK
6
CONTINUOUS
10
-0.0523825196850394
20
0.5243824015748031
11
-0.0535796456692913
21
0.5231852755905512
0
LINE
8
BLACK
6
CONTINUOUS
10
-0.0535796456692913
20
0.5231852755905512
11
-0.0549283858267717
21
0.5204877952755905
0
LINE
8
BLACK
6
CONTINUOUS
10
-0.0549283858267717
20
0.5204877952755905
11
-0.0549283858267717
21
0.5122901968503937
0
LINE
8
BLACK
6
CONTINUOUS
10
-0.0549283858267717
20
0.5122901968503937
11
-0.053205157480315
21
0.5071205118110236
0
LINE
8
BLACK
6
CONTINUOUS
10
-0.053205157480315
20
0.5071205118110236
11
-0.053076811023622
21
0.506556062992126
0
LINE
8
BLACK
6
CONTINUOUS
10
-0.053076811023622
20
0.506556062992126
11
-0.0531585039370079
21
0.5054068503937008
0
LINE
8
BLACK
6
CONTINUOUS
10
-0.0531585039370079
20
0.5054068503937008
11
-0.0536737007874016
21
0.5043763779527559
0
LINE
8
BLACK
6
CONTINUOUS
10
-0.0536737007874016
20
0.5043763779527559
11
-0.054544094488189
21
0.5036214960629921
0
LINE
8
BLACK
6
CONTINUOUS
10
-0.054544094488189
20
0.5036214960629921
11
-0.0556370866141732
21
0.5032571653543307
0
LINE
8
BLACK
6
CONTINUOUS
10
-0.0556370866141732
20
0.5032571653543307
11
-0.0567862992125984
21
0.5033388582677165
0
LINE
8
BLACK
6
CONTINUOUS
10
-0.0567862992125984
20
0.5033388582677165
11
-0.0578167322834646
21
0.503854094488189
0
LINE
8
BLACK
6
CONTINUOUS
10
-0.0578167322834646
20
0.503854094488189
11
-0.0585716141732283
21
0.5047244488188977
0
LINE
8
BLACK
6
CONTINUOUS
10
-0.0585716141732283
20
0.5047244488188977
11
-0.0588075984251968
21
0.5052529921259843
0
LINE
8
BLACK
6
CONTINUOUS
10
-0.0588075984251968
20
0.5052529921259843
11
-0.0606823622047244
21
0.510877283464567
0
LINE
8
BLACK
6
CONTINUOUS
10
-0.0606823622047244
20
0.510877283464567
11
-0.0607473228346457
21
0.511162874015748
0
LINE
8
BLACK
6
CONTINUOUS
10
-0.0607473228346457
20
0.511162874015748
11
-0.0607771653543307
21
0.5112349606299212
0
LINE
8
BLACK
6
CONTINUOUS
10
-0.0607771653543307
20
0.5112349606299212
11
-0.0607874803149606
21
0.5113394881889763
0
LINE
8
BLACK
6
CONTINUOUS
10
-0.0607874803149606
20
0.5113394881889763
11
-0.0608107086614173
21
0.5114417322834646
0
LINE
8
BLACK
6
CONTINUOUS
10
-0.0608107086614173
20
0.5114417322834646
11
-0.0608051968503937
21
0.5115194881889764
0
LINE
8
BLACK
6
CONTINUOUS
10
-0.0608051968503937
20
0.5115194881889764
11
-0.0608338976377953
21
0.5118110236220472
0
LINE
8
BLACK
6
CONTINUOUS
10
-0.0608338976377953
20
0.5118110236220472
11
-0.0608338976377953
21
0.521184842519685
0
LINE
8
BLACK
6
CONTINUOUS
10
-0.0608338976377953
20
0.521184842519685
11
-0.0607771653543307
21
0.521760905511811
0
LINE
8
BLACK
6
CONTINUOUS
10
-0.0607771653543307
20
0.521760905511811
11
-0.0607365748031496
21
0.521858937007874
0
LINE
8
BLACK
6
CONTINUOUS
10
-0.0607365748031496
20
0.521858937007874
11
-0.0607290551181102
21
0.5219647244094489
0
LINE
8
BLACK
6
CONTINUOUS
10
-0.0607290551181102
20
0.5219647244094489
11
-0.0605221653543307
21
0.5225053543307087
0
LINE
8
BLACK
6
CONTINUOUS
10
-0.0605221653543307
20
0.5225053543307087
11
-0.0586474015748032
21
0.5262548818897638
0
LINE
8
BLACK
6
CONTINUOUS
10
-0.0586474015748032
20
0.5262548818897638
11
-0.0584913385826772
21
0.5265029133858268
0
LINE
8
BLACK
6
CONTINUOUS
10
-0.0584913385826772
20
0.5265029133858268
11
-0.0584614960629921
21
0.526574842519685
0
LINE
8
BLACK
6
CONTINUOUS
10
-0.0584614960629921
20
0.526574842519685
11
-0.0583950393700787
21
0.5266558267716536
0
LINE
8
BLACK
6
CONTINUOUS
10
-0.0583950393700787
20
0.5266558267716536
11
-0.0583390551181102
21
0.5267447637795275
0
LINE
8
BLACK
6
CONTINUOUS
10
-0.0583390551181102
20
0.5267447637795275
11
-0.0582800787401575
21
0.5267959448818897
0
LINE
8
BLACK
6
CONTINUOUS
10
-0.0582800787401575
20
0.5267959448818897
11
-0.0580942913385827
21
0.5270222834645669
0
LINE
8
BLACK
6
CONTINUOUS
10
-0.0580942913385827
20
0.5270222834645669
11
-0.0562195275590551
21
0.5288970472440945
0
LINE
8
BLACK
6
CONTINUOUS
10
-0.0562195275590551
20
0.5288970472440945
11
-0.055993188976378
21
0.5290828346456693
0
LINE
8
BLACK
6
CONTINUOUS
10
-0.055993188976378
20
0.5290828346456693
11
-0.0559420078740157
21
0.529141811023622
0
LINE
8
BLACK
6
CONTINUOUS
10
-0.0559420078740157
20
0.529141811023622
11
-0.0558530708661417
21
0.5291977952755905
0
LINE
8
BLACK
6
CONTINUOUS
10
-0.0558530708661417
20
0.5291977952755905
11
-0.0557720866141732
21
0.5292642519685039
0
LINE
8
BLACK
6
CONTINUOUS
10
-0.0557720866141732
20
0.5292642519685039
11
-0.055700157480315
21
0.529294094488189
0
LINE
8
BLACK
6
CONTINUOUS
10
-0.055700157480315
20
0.529294094488189
11
-0.055452125984252
21
0.529450157480315
0
LINE
8
BLACK
6
CONTINUOUS
10
-0.055452125984252
20
0.529450157480315
11
-0.0517025984251969
21
0.5313249212598425
0
LINE
8
BLACK
6
CONTINUOUS
10
-0.0517025984251969
20
0.5313249212598425
11
-0.0511620078740157
21
0.531531811023622
0
LINE
8
BLACK
6
CONTINUOUS
10
-0.0511620078740157
20
0.531531811023622
11
-0.0510561417322835
21
0.5315393700787402
0
LINE
8
BLACK
6
CONTINUOUS
10
-0.0510561417322835
20
0.5315393700787402
11
-0.0509581496062992
21
0.5315799212598425
0
LINE
8
BLACK
6
CONTINUOUS
10
-0.0509581496062992
20
0.5315799212598425
11
-0.0503820866141732
21
0.531636653543307
0
LINE
8
BLACK
6
CONTINUOUS
10
-0.0503820866141732
20
0.531636653543307
11
-0.0466325590551181
21
0.531636653543307
0
LINE
8
BLACK
6
CONTINUOUS
10
-0.0466325590551181
20
0.531636653543307
11
-0.0460564960629921
21
0.5315799212598425
  0
ENDSEC
  0
EOF
