  0
SECTION
  2
HEADER
  9
$ANGBASE
  50
0.0
  9
$ANGDIR
  70
1
  9
$MEASUREMENT
  70
0
  0
ENDSEC
  0
SECTION
  2
TABLES
  0
TABLE
  2
LTYPE
  70
4
  0
LTYPE
  5
40F
  2
CONTINUOUS
  70
0
  3
Solid line
  72
65
  73
0
  40
0.0
  0
LTYPE
  5
410
  2
DASHDOT
 70
0
  3
Dash Dot ____ _ ____ _
 72
65
 73
4
 40
2.0
 49
1.25
 49
-0.25
 49
0.25
 49
-0.25
  0
LTYPE
  5
411
  2
DASHED
 70
0
  3
Dashed __ __ __ __ __
 72
65
 73
2
 40
0.75
 49
0.5
 49
-0.25
  0
LTYPE
  5
43B
  2
DOTTED
 70
0
  3
Dotted .  .  .  .
 72
65
 73
2
 40
0.2
 49
0.0
 49
-0.2
  0
ENDTAB
  0
TABLE
  2
STYLE
  70
4
  0
STYLE
  2
KICAD
  70
0
  40
0
  41
1
  42
1
  50
0
  71
0
  3
isocp.shx
  0
STYLE
  2
KICADB
  70
0
  40
0
  41
1
  42
1
  50
0
  71
0
  3
isocp.shx
  0
STYLE
  2
KICADI
  70
0
  40
0
  41
1
  42
1
  50
15
  71
0
  3
isocp.shx
  0
STYLE
  2
KICADBI
  70
0
  40
0
  41
1
  42
1
  50
15
  71
0
  3
isocp.shx
  0
ENDTAB
  0
TABLE
  2
LAYER
  70
1
  0
LAYER
  2
BLACK
  70
0
  62
7
  6
CONTINUOUS
  0
ENDTAB
  0
ENDSEC
  0
SECTION
  2
ENTITIES
0
LINE
8
BLACK
6
CONTINUOUS
10
0.9763827952755906
20
0.5059048818897638
11
0.9767469291338583
21
0.5058305905511811
0
LINE
8
BLACK
6
CONTINUOUS
10
0.9767469291338583
20
0.5058305905511811
11
0.9767546062992126
21
0.5058305905511811
0
LINE
8
BLACK
6
CONTINUOUS
10
0.9767546062992126
20
0.5058305905511811
11
0.9767565354330708
21
0.5058286614173229
0
LINE
8
BLACK
6
CONTINUOUS
10
0.9767565354330708
20
0.5058286614173229
11
0.976759094488189
21
0.5058281102362204
0
LINE
8
BLACK
6
CONTINUOUS
10
0.976759094488189
20
0.5058281102362204
11
0.9769607874015748
21
0.5056244094488189
0
LINE
8
BLACK
6
CONTINUOUS
10
0.9769607874015748
20
0.5056244094488189
11
0.9772872834645669
21
0.5052979133858267
0
LINE
8
BLACK
6
CONTINUOUS
10
0.9772872834645669
20
0.5052979133858267
11
0.9772880708661417
21
0.5052938582677166
0
LINE
8
BLACK
6
CONTINUOUS
10
0.9772880708661417
20
0.5052938582677166
11
0.9772891338582677
21
0.5052927952755906
0
LINE
8
BLACK
6
CONTINUOUS
10
0.9772891338582677
20
0.5052927952755906
11
0.9772890944881889
21
0.5052887401574803
0
LINE
8
BLACK
6
CONTINUOUS
10
0.9772890944881889
20
0.5052887401574803
11
0.9773622047244094
21
0.5049212598425197
0
LINE
8
BLACK
6
CONTINUOUS
10
0.9773622047244094
20
0.5049212598425197
11
0.9773622047244094
21
0.065748031496063
0
LINE
8
BLACK
6
CONTINUOUS
10
0.9773622047244094
20
0.065748031496063
11
0.9772872834645669
21
0.0653713779527559
0
LINE
8
BLACK
6
CONTINUOUS
10
0.9772872834645669
20
0.0653713779527559
11
0.9772860236220472
21
0.065370157480315
0
LINE
8
BLACK
6
CONTINUOUS
10
0.9772860236220472
20
0.065370157480315
11
0.9772860236220472
21
0.0653683858267717
0
LINE
8
BLACK
6
CONTINUOUS
10
0.9772860236220472
20
0.0653683858267717
11
0.9770218110236221
21
0.0651059448818898
0
LINE
8
BLACK
6
CONTINUOUS
10
0.9770218110236221
20
0.0651059448818898
11
0.9767546062992126
21
0.0648387007874016
0
LINE
8
BLACK
6
CONTINUOUS
10
0.9767546062992126
20
0.0648387007874016
11
0.9767528346456693
21
0.0648387007874016
0
LINE
8
BLACK
6
CONTINUOUS
10
0.9767528346456693
20
0.0648387007874016
11
0.9767516141732283
21
0.0648374803149606
0
LINE
8
BLACK
6
CONTINUOUS
10
0.9767516141732283
20
0.0648374803149606
11
0.9763747244094488
21
0.0647637795275591
0
LINE
8
BLACK
6
CONTINUOUS
10
0.9763747244094488
20
0.0647637795275591
11
0.8562959842519685
21
0.0651574803149606
0
LINE
8
BLACK
6
CONTINUOUS
10
0.8562959842519685
20
0.0651574803149606
11
0.8559255905511811
21
0.0652324015748031
0
LINE
8
BLACK
6
CONTINUOUS
10
0.8559255905511811
20
0.0652324015748031
11
0.855922559055118
21
0.0652324015748031
0
LINE
8
BLACK
6
CONTINUOUS
10
0.855922559055118
20
0.0652324015748031
11
0.8559217716535433
21
0.0652331889763779
0
LINE
8
BLACK
6
CONTINUOUS
10
0.8559217716535433
20
0.0652331889763779
11
0.8559195669291338
21
0.0652336220472441
0
LINE
8
BLACK
6
CONTINUOUS
10
0.8559195669291338
20
0.0652336220472441
11
0.855654094488189
21
0.0655008661417323
0
LINE
8
BLACK
6
CONTINUOUS
10
0.855654094488189
20
0.0655008661417323
11
0.8553898818897637
21
0.0657650787401575
0
LINE
8
BLACK
6
CONTINUOUS
10
0.8553898818897637
20
0.0657650787401575
11
0.8553894094488189
21
0.0657673228346457
0
LINE
8
BLACK
6
CONTINUOUS
10
0.8553894094488189
20
0.0657673228346457
11
0.8553886614173228
21
0.0657680708661417
0
LINE
8
BLACK
6
CONTINUOUS
10
0.8553886614173228
20
0.0657680708661417
11
0.8553886614173228
21
0.0657711811023622
0
LINE
8
BLACK
6
CONTINUOUS
10
0.8553886614173228
20
0.0657711811023622
11
0.8553149606299213
21
0.0661417322834646
0
LINE
8
BLACK
6
CONTINUOUS
10
0.8553149606299213
20
0.0661417322834646
11
0.8553149606299213
21
0.5055118110236221
0
LINE
8
BLACK
6
CONTINUOUS
10
0.8553149606299213
20
0.5055118110236221
11
0.8553898818897637
21
0.5058884645669292
0
LINE
8
BLACK
6
CONTINUOUS
10
0.8553898818897637
20
0.5058884645669292
11
0.8553916929133858
21
0.5058903149606299
0
LINE
8
BLACK
6
CONTINUOUS
10
0.8553916929133858
20
0.5058903149606299
11
0.8553917322834645
21
0.5058929527559055
0
LINE
8
BLACK
6
CONTINUOUS
10
0.8553917322834645
20
0.5058929527559055
11
0.8556593700787402
21
0.5061579921259842
0
LINE
8
BLACK
6
CONTINUOUS
10
0.8556593700787402
20
0.5061579921259842
11
0.855922559055118
21
0.5064211417322835
0
LINE
8
BLACK
6
CONTINUOUS
10
0.855922559055118
20
0.5064211417322835
11
0.8559251968503937
21
0.5064211417322835
0
LINE
8
BLACK
6
CONTINUOUS
10
0.8559251968503937
20
0.5064211417322835
11
0.8559270472440945
21
0.5064229921259843
0
LINE
8
BLACK
6
CONTINUOUS
10
0.8559270472440945
20
0.5064229921259843
11
0.8563040551181103
21
0.506496062992126
0
LINE
8
BLACK
6
CONTINUOUS
10
0.8563040551181103
20
0.506496062992126
11
0.9763827952755906
21
0.5059048818897638
0
LINE
8
BLACK
6
CONTINUOUS
10
0.8572834645669292
20
0.0671227952755905
11
0.9753937007874015
21
0.0667355511811024
0
LINE
8
BLACK
6
CONTINUOUS
10
0.9753937007874015
20
0.0667355511811024
11
0.9753937007874015
21
0.5039412204724409
0
LINE
8
BLACK
6
CONTINUOUS
10
0.9753937007874015
20
0.5039412204724409
11
0.8572834645669292
21
0.504522716535433
0
LINE
8
BLACK
6
CONTINUOUS
10
0.8572834645669292
20
0.504522716535433
11
0.8572834645669292
21
0.0671227952755905
0
LINE
8
BLACK
6
CONTINUOUS
10
0.5066443700787402
20
0.1506494881889764
11
0.5071770472440945
21
0.150116811023622
0
LINE
8
BLACK
6
CONTINUOUS
10
0.5071770472440945
20
0.150116811023622
11
0.5072519685039369
21
0.149740157480315
0
LINE
8
BLACK
6
CONTINUOUS
10
0.5072519685039369
20
0.149740157480315
11
0.5072519685039369
21
0.092259842519685
0
LINE
8
BLACK
6
CONTINUOUS
10
0.5072519685039369
20
0.092259842519685
11
0.5071770472440945
21
0.091883188976378
0
LINE
8
BLACK
6
CONTINUOUS
10
0.5071770472440945
20
0.091883188976378
11
0.5066443700787402
21
0.0913505118110236
0
LINE
8
BLACK
6
CONTINUOUS
10
0.5066443700787402
20
0.0913505118110236
11
0.506267716535433
21
0.0912755905511811
0
LINE
8
BLACK
6
CONTINUOUS
10
0.506267716535433
20
0.0912755905511811
11
0.3897322834645669
21
0.0912755905511811
0
LINE
8
BLACK
6
CONTINUOUS
10
0.3897322834645669
20
0.0912755905511811
11
0.3893556299212598
21
0.0913505118110236
0
LINE
8
BLACK
6
CONTINUOUS
10
0.3893556299212598
20
0.0913505118110236
11
0.3888229527559055
21
0.091883188976378
0
LINE
8
BLACK
6
CONTINUOUS
10
0.3888229527559055
20
0.091883188976378
11
0.388748031496063
21
0.092259842519685
0
LINE
8
BLACK
6
CONTINUOUS
10
0.388748031496063
20
0.092259842519685
11
0.388748031496063
21
0.149740157480315
0
LINE
8
BLACK
6
CONTINUOUS
10
0.388748031496063
20
0.149740157480315
11
0.3888229527559055
21
0.150116811023622
0
LINE
8
BLACK
6
CONTINUOUS
10
0.3888229527559055
20
0.150116811023622
11
0.3893556299212598
21
0.1506494881889764
0
LINE
8
BLACK
6
CONTINUOUS
10
0.3893556299212598
20
0.1506494881889764
11
0.3897322834645669
21
0.1507244094488189
0
LINE
8
BLACK
6
CONTINUOUS
10
0.3897322834645669
20
0.1507244094488189
11
0.506267716535433
21
0.1507244094488189
0
LINE
8
BLACK
6
CONTINUOUS
10
0.506267716535433
20
0.1507244094488189
11
0.5066443700787402
21
0.1506494881889764
0
LINE
8
BLACK
6
CONTINUOUS
10
0.3907165354330708
20
0.148755905511811
11
0.3907165354330708
21
0.093244094488189
0
LINE
8
BLACK
6
CONTINUOUS
10
0.3907165354330708
20
0.093244094488189
11
0.5052834645669291
21
0.093244094488189
0
LINE
8
BLACK
6
CONTINUOUS
10
0.5052834645669291
20
0.093244094488189
11
0.5052834645669291
21
0.148755905511811
0
LINE
8
BLACK
6
CONTINUOUS
10
0.5052834645669291
20
0.148755905511811
11
0.3907165354330708
21
0.148755905511811
0
LINE
8
BLACK
6
CONTINUOUS
10
0.1371876771653543
20
0.4824053937007874
11
0.1377203543307087
21
0.4818727165354331
0
LINE
8
BLACK
6
CONTINUOUS
10
0.1377203543307087
20
0.4818727165354331
11
0.1377952755905512
21
0.481496062992126
0
LINE
8
BLACK
6
CONTINUOUS
10
0.1377952755905512
20
0.481496062992126
11
0.1377952755905512
21
0.4785433070866142
0
LINE
8
BLACK
6
CONTINUOUS
10
0.1377952755905512
20
0.4785433070866142
11
0.1998031496062992
21
0.4785433070866142
0
LINE
8
BLACK
6
CONTINUOUS
10
0.1998031496062992
20
0.4785433070866142
11
0.2001798031496063
21
0.4784683858267716
0
LINE
8
BLACK
6
CONTINUOUS
10
0.2001798031496063
20
0.4784683858267716
11
0.2007124803149606
21
0.4779357086614173
0
LINE
8
BLACK
6
CONTINUOUS
10
0.2007124803149606
20
0.4779357086614173
11
0.2007874015748032
21
0.4775590551181102
0
LINE
8
BLACK
6
CONTINUOUS
10
0.2007874015748032
20
0.4775590551181102
11
0.2007874015748032
21
0.4017716535433071
0
LINE
8
BLACK
6
CONTINUOUS
10
0.2007874015748032
20
0.4017716535433071
11
0.2431102362204724
21
0.4017716535433071
0
LINE
8
BLACK
6
CONTINUOUS
10
0.2431102362204724
20
0.4017716535433071
11
0.2434868897637795
21
0.4016967322834645
0
LINE
8
BLACK
6
CONTINUOUS
10
0.2434868897637795
20
0.4016967322834645
11
0.2440195669291338
21
0.4011640551181102
0
LINE
8
BLACK
6
CONTINUOUS
10
0.2440195669291338
20
0.4011640551181102
11
0.2440944881889764
21
0.4007874015748031
0
LINE
8
BLACK
6
CONTINUOUS
10
0.2440944881889764
20
0.4007874015748031
11
0.2440944881889764
21
0.189763779527559
0
LINE
8
BLACK
6
CONTINUOUS
10
0.2440944881889764
20
0.189763779527559
11
0.2440195669291338
21
0.189387125984252
0
LINE
8
BLACK
6
CONTINUOUS
10
0.2440195669291338
20
0.189387125984252
11
0.2434868897637795
21
0.1888544488188976
0
LINE
8
BLACK
6
CONTINUOUS
10
0.2434868897637795
20
0.1888544488188976
11
0.2431102362204724
21
0.1887795275590551
0
LINE
8
BLACK
6
CONTINUOUS
10
0.2431102362204724
20
0.1887795275590551
11
0.2007874015748032
21
0.1887795275590551
0
LINE
8
BLACK
6
CONTINUOUS
10
0.2007874015748032
20
0.1887795275590551
11
0.2007874015748032
21
0.112992125984252
0
LINE
8
BLACK
6
CONTINUOUS
10
0.2007874015748032
20
0.112992125984252
11
0.2007124803149606
21
0.1126154724409449
0
LINE
8
BLACK
6
CONTINUOUS
10
0.2007124803149606
20
0.1126154724409449
11
0.2001798031496063
21
0.1120827952755905
0
LINE
8
BLACK
6
CONTINUOUS
10
0.2001798031496063
20
0.1120827952755905
11
0.1998031496062992
21
0.112007874015748
0
LINE
8
BLACK
6
CONTINUOUS
10
0.1998031496062992
20
0.112007874015748
11
0.1377952755905512
21
0.112007874015748
0
LINE
8
BLACK
6
CONTINUOUS
10
0.1377952755905512
20
0.112007874015748
11
0.1377952755905512
21
0.1090551181102362
0
LINE
8
BLACK
6
CONTINUOUS
10
0.1377952755905512
20
0.1090551181102362
11
0.1377203543307087
21
0.1086784645669291
0
LINE
8
BLACK
6
CONTINUOUS
10
0.1377203543307087
20
0.1086784645669291
11
0.1371876771653543
21
0.1081457874015748
0
LINE
8
BLACK
6
CONTINUOUS
10
0.1371876771653543
20
0.1081457874015748
11
0.1368110236220473
21
0.1080708661417323
0
LINE
8
BLACK
6
CONTINUOUS
10
0.1368110236220473
20
0.1080708661417323
11
-0.0088582677165354
21
0.1080708661417323
0
LINE
8
BLACK
6
CONTINUOUS
10
-0.0088582677165354
20
0.1080708661417323
11
-0.0092349212598425
21
0.1081457874015748
0
LINE
8
BLACK
6
CONTINUOUS
10
-0.0092349212598425
20
0.1081457874015748
11
-0.0097675984251969
21
0.1086784645669291
0
LINE
8
BLACK
6
CONTINUOUS
10
-0.0097675984251969
20
0.1086784645669291
11
-0.0098425196850394
21
0.1090551181102362
0
LINE
8
BLACK
6
CONTINUOUS
10
-0.0098425196850394
20
0.1090551181102362
11
-0.0098425196850394
21
0.1881889763779528
0
LINE
8
BLACK
6
CONTINUOUS
10
-0.0098425196850394
20
0.1881889763779528
11
-0.0097675984251969
21
0.1885656299212598
0
LINE
8
BLACK
6
CONTINUOUS
10
-0.0097675984251969
20
0.1885656299212598
11
-0.0092349212598425
21
0.1890983070866142
0
LINE
8
BLACK
6
CONTINUOUS
10
-0.0092349212598425
20
0.1890983070866142
11
-0.0088582677165354
21
0.1891732283464567
0
LINE
8
BLACK
6
CONTINUOUS
10
-0.0088582677165354
20
0.1891732283464567
11
0.
21
0.1891732283464567
0
LINE
8
BLACK
6
CONTINUOUS
10
0.
20
0.1891732283464567
11
0.
21
0.4013779527559055
0
LINE
8
BLACK
6
CONTINUOUS
10
0.
20
0.4013779527559055
11
-0.0088582677165354
21
0.4013779527559055
0
LINE
8
BLACK
6
CONTINUOUS
10
-0.0088582677165354
20
0.4013779527559055
11
-0.0092349212598425
21
0.401452874015748
0
LINE
8
BLACK
6
CONTINUOUS
10
-0.0092349212598425
20
0.401452874015748
11
-0.0097675984251969
21
0.4019855511811024
0
LINE
8
BLACK
6
CONTINUOUS
10
-0.0097675984251969
20
0.4019855511811024
11
-0.0098425196850394
21
0.4023622047244094
0
LINE
8
BLACK
6
CONTINUOUS
10
-0.0098425196850394
20
0.4023622047244094
11
-0.0098425196850394
21
0.481496062992126
0
LINE
8
BLACK
6
CONTINUOUS
10
-0.0098425196850394
20
0.481496062992126
11
-0.0097675984251969
21
0.4818727165354331
0
LINE
8
BLACK
6
CONTINUOUS
10
-0.0097675984251969
20
0.4818727165354331
11
-0.0092349212598425
21
0.4824053937007874
0
LINE
8
BLACK
6
CONTINUOUS
10
-0.0092349212598425
20
0.4824053937007874
11
-0.0088582677165354
21
0.4824803149606299
0
LINE
8
BLACK
6
CONTINUOUS
10
-0.0088582677165354
20
0.4824803149606299
11
0.1368110236220473
21
0.4824803149606299
0
LINE
8
BLACK
6
CONTINUOUS
10
0.1368110236220473
20
0.4824803149606299
11
0.1371876771653543
21
0.4824053937007874
0
LINE
8
BLACK
6
CONTINUOUS
10
-0.0078740157480315
20
0.4805118110236221
11
-0.0078740157480315
21
0.4033464566929134
0
LINE
8
BLACK
6
CONTINUOUS
10
-0.0078740157480315
20
0.4033464566929134
11
0.0009842519685039
21
0.4033464566929134
0
LINE
8
BLACK
6
CONTINUOUS
10
0.0009842519685039
20
0.4033464566929134
11
0.001360905511811
21
0.4032715354330709
0
LINE
8
BLACK
6
CONTINUOUS
10
0.001360905511811
20
0.4032715354330709
11
0.0018935826771654
21
0.4027388582677165
0
LINE
8
BLACK
6
CONTINUOUS
10
0.0018935826771654
20
0.4027388582677165
11
0.0019685039370079
21
0.4023622047244094
0
LINE
8
BLACK
6
CONTINUOUS
10
0.0019685039370079
20
0.4023622047244094
11
0.0019685039370079
21
0.1881889763779528
0
LINE
8
BLACK
6
CONTINUOUS
10
0.0019685039370079
20
0.1881889763779528
11
0.0018935826771654
21
0.1878123228346457
0
LINE
8
BLACK
6
CONTINUOUS
10
0.0018935826771654
20
0.1878123228346457
11
0.001360905511811
21
0.1872796456692913
0
LINE
8
BLACK
6
CONTINUOUS
10
0.001360905511811
20
0.1872796456692913
11
0.0009842519685039
21
0.1872047244094488
0
LINE
8
BLACK
6
CONTINUOUS
10
0.0009842519685039
20
0.1872047244094488
11
-0.0078740157480315
21
0.1872047244094488
0
LINE
8
BLACK
6
CONTINUOUS
10
-0.0078740157480315
20
0.1872047244094488
11
-0.0078740157480315
21
0.1100393700787402
0
LINE
8
BLACK
6
CONTINUOUS
10
-0.0078740157480315
20
0.1100393700787402
11
0.1358267716535433
21
0.1100393700787402
0
LINE
8
BLACK
6
CONTINUOUS
10
0.1358267716535433
20
0.1100393700787402
11
0.1358267716535433
21
0.112992125984252
0
LINE
8
BLACK
6
CONTINUOUS
10
0.1358267716535433
20
0.112992125984252
11
0.1359016929133858
21
0.1133687795275591
0
LINE
8
BLACK
6
CONTINUOUS
10
0.1359016929133858
20
0.1133687795275591
11
0.1364343700787402
21
0.1139014566929134
0
LINE
8
BLACK
6
CONTINUOUS
10
0.1364343700787402
20
0.1139014566929134
11
0.1368110236220473
21
0.1139763779527559
0
LINE
8
BLACK
6
CONTINUOUS
10
0.1368110236220473
20
0.1139763779527559
11
0.1988188976377953
21
0.1139763779527559
0
LINE
8
BLACK
6
CONTINUOUS
10
0.1988188976377953
20
0.1139763779527559
11
0.1988188976377953
21
0.189763779527559
0
LINE
8
BLACK
6
CONTINUOUS
10
0.1988188976377953
20
0.189763779527559
11
0.1988938188976378
21
0.1901404330708661
0
LINE
8
BLACK
6
CONTINUOUS
10
0.1988938188976378
20
0.1901404330708661
11
0.1994264960629921
21
0.1906731102362205
0
LINE
8
BLACK
6
CONTINUOUS
10
0.1994264960629921
20
0.1906731102362205
11
0.1998031496062992
21
0.190748031496063
0
LINE
8
BLACK
6
CONTINUOUS
10
0.1998031496062992
20
0.190748031496063
11
0.2421259842519685
21
0.190748031496063
0
LINE
8
BLACK
6
CONTINUOUS
10
0.2421259842519685
20
0.190748031496063
11
0.2421259842519685
21
0.3998031496062992
0
LINE
8
BLACK
6
CONTINUOUS
10
0.2421259842519685
20
0.3998031496062992
11
0.1998031496062992
21
0.3998031496062992
0
LINE
8
BLACK
6
CONTINUOUS
10
0.1998031496062992
20
0.3998031496062992
11
0.1994264960629921
21
0.3998780708661417
0
LINE
8
BLACK
6
CONTINUOUS
10
0.1994264960629921
20
0.3998780708661417
11
0.1988938188976378
21
0.4004107480314961
0
LINE
8
BLACK
6
CONTINUOUS
10
0.1988938188976378
20
0.4004107480314961
11
0.1988188976377953
21
0.4007874015748031
0
LINE
8
BLACK
6
CONTINUOUS
10
0.1988188976377953
20
0.4007874015748031
11
0.1988188976377953
21
0.4765748031496063
0
LINE
8
BLACK
6
CONTINUOUS
10
0.1988188976377953
20
0.4765748031496063
11
0.1368110236220473
21
0.4765748031496063
0
LINE
8
BLACK
6
CONTINUOUS
10
0.1368110236220473
20
0.4765748031496063
11
0.1364343700787402
21
0.4766497244094488
0
LINE
8
BLACK
6
CONTINUOUS
10
0.1364343700787402
20
0.4766497244094488
11
0.1359016929133858
21
0.4771824015748031
0
LINE
8
BLACK
6
CONTINUOUS
10
0.1359016929133858
20
0.4771824015748031
11
0.1358267716535433
21
0.4775590551181102
0
LINE
8
BLACK
6
CONTINUOUS
10
0.1358267716535433
20
0.4775590551181102
11
0.1358267716535433
21
0.4805118110236221
0
LINE
8
BLACK
6
CONTINUOUS
10
0.1358267716535433
20
0.4805118110236221
11
-0.0078740157480315
21
0.4805118110236221
0
LINE
8
BLACK
6
CONTINUOUS
10
0.455101062992126
20
0.3143935826771653
11
0.4556337401574803
21
0.313860905511811
0
LINE
8
BLACK
6
CONTINUOUS
10
0.4556337401574803
20
0.313860905511811
11
0.4557086614173228
21
0.3134842519685039
0
LINE
8
BLACK
6
CONTINUOUS
10
0.4557086614173228
20
0.3134842519685039
11
0.4557086614173228
21
0.2750984251968504
0
LINE
8
BLACK
6
CONTINUOUS
10
0.4557086614173228
20
0.2750984251968504
11
0.4625984251968504
21
0.2750984251968504
0
LINE
8
BLACK
6
CONTINUOUS
10
0.4625984251968504
20
0.2750984251968504
11
0.4629750787401575
21
0.2750235039370079
0
LINE
8
BLACK
6
CONTINUOUS
10
0.4629750787401575
20
0.2750235039370079
11
0.4635077559055118
21
0.2744908267716535
0
LINE
8
BLACK
6
CONTINUOUS
10
0.4635077559055118
20
0.2744908267716535
11
0.4635826771653543
21
0.2741141732283465
0
LINE
8
BLACK
6
CONTINUOUS
10
0.4635826771653543
20
0.2741141732283465
11
0.4635826771653543
21
0.1914370078740157
0
LINE
8
BLACK
6
CONTINUOUS
10
0.4635826771653543
20
0.1914370078740157
11
0.4635077559055118
21
0.1910603543307087
0
LINE
8
BLACK
6
CONTINUOUS
10
0.4635077559055118
20
0.1910603543307087
11
0.4629750787401575
21
0.1905276771653543
0
LINE
8
BLACK
6
CONTINUOUS
10
0.4629750787401575
20
0.1905276771653543
11
0.4625984251968504
21
0.1904527559055118
0
LINE
8
BLACK
6
CONTINUOUS
10
0.4625984251968504
20
0.1904527559055118
11
0.4557086614173228
21
0.1904527559055118
0
LINE
8
BLACK
6
CONTINUOUS
10
0.4557086614173228
20
0.1904527559055118
11
0.4557086614173228
21
0.1520669291338583
0
LINE
8
BLACK
6
CONTINUOUS
10
0.4557086614173228
20
0.1520669291338583
11
0.4556337401574803
21
0.1516902755905512
0
LINE
8
BLACK
6
CONTINUOUS
10
0.4556337401574803
20
0.1516902755905512
11
0.455101062992126
21
0.1511575984251969
0
LINE
8
BLACK
6
CONTINUOUS
10
0.455101062992126
20
0.1511575984251969
11
0.4547244094488189
21
0.1510826771653543
0
LINE
8
BLACK
6
CONTINUOUS
10
0.4547244094488189
20
0.1510826771653543
11
0.3366141732283465
21
0.1510826771653543
0
LINE
8
BLACK
6
CONTINUOUS
10
0.3366141732283465
20
0.1510826771653543
11
0.3362375196850393
21
0.1511575984251969
0
LINE
8
BLACK
6
CONTINUOUS
10
0.3362375196850393
20
0.1511575984251969
11
0.335704842519685
21
0.1516902755905512
0
LINE
8
BLACK
6
CONTINUOUS
10
0.335704842519685
20
0.1516902755905512
11
0.3356299212598425
21
0.1520669291338583
0
LINE
8
BLACK
6
CONTINUOUS
10
0.3356299212598425
20
0.1520669291338583
11
0.3356299212598425
21
0.1904527559055118
0
LINE
8
BLACK
6
CONTINUOUS
10
0.3356299212598425
20
0.1904527559055118
11
0.3287401574803149
21
0.1904527559055118
0
LINE
8
BLACK
6
CONTINUOUS
10
0.3287401574803149
20
0.1904527559055118
11
0.3283635039370079
21
0.1905276771653543
0
LINE
8
BLACK
6
CONTINUOUS
10
0.3283635039370079
20
0.1905276771653543
11
0.3278308267716535
21
0.1910603543307087
0
LINE
8
BLACK
6
CONTINUOUS
10
0.3278308267716535
20
0.1910603543307087
11
0.327755905511811
21
0.1914370078740157
0
LINE
8
BLACK
6
CONTINUOUS
10
0.327755905511811
20
0.1914370078740157
11
0.327755905511811
21
0.2741141732283465
0
LINE
8
BLACK
6
CONTINUOUS
10
0.327755905511811
20
0.2741141732283465
11
0.3278308267716535
21
0.2744908267716535
0
LINE
8
BLACK
6
CONTINUOUS
10
0.3278308267716535
20
0.2744908267716535
11
0.3283635039370079
21
0.2750235039370079
0
LINE
8
BLACK
6
CONTINUOUS
10
0.3283635039370079
20
0.2750235039370079
11
0.3287401574803149
21
0.2750984251968504
0
LINE
8
BLACK
6
CONTINUOUS
10
0.3287401574803149
20
0.2750984251968504
11
0.3356299212598425
21
0.2750984251968504
0
LINE
8
BLACK
6
CONTINUOUS
10
0.3356299212598425
20
0.2750984251968504
11
0.3356299212598425
21
0.3134842519685039
0
LINE
8
BLACK
6
CONTINUOUS
10
0.3356299212598425
20
0.3134842519685039
11
0.335704842519685
21
0.313860905511811
0
LINE
8
BLACK
6
CONTINUOUS
10
0.335704842519685
20
0.313860905511811
11
0.3362375196850393
21
0.3143935826771653
0
LINE
8
BLACK
6
CONTINUOUS
10
0.3362375196850393
20
0.3143935826771653
11
0.3366141732283465
21
0.3144685039370079
0
LINE
8
BLACK
6
CONTINUOUS
10
0.3366141732283465
20
0.3144685039370079
11
0.4547244094488189
21
0.3144685039370079
0
LINE
8
BLACK
6
CONTINUOUS
10
0.4547244094488189
20
0.3144685039370079
11
0.455101062992126
21
0.3143935826771653
0
LINE
8
BLACK
6
CONTINUOUS
10
0.3375984251968504
20
0.3125
11
0.3375984251968504
21
0.2741141732283465
0
LINE
8
BLACK
6
CONTINUOUS
10
0.3375984251968504
20
0.2741141732283465
11
0.3375235039370079
21
0.2737375196850393
0
LINE
8
BLACK
6
CONTINUOUS
10
0.3375235039370079
20
0.2737375196850393
11
0.3369908267716535
21
0.273204842519685
0
LINE
8
BLACK
6
CONTINUOUS
10
0.3369908267716535
20
0.273204842519685
11
0.3366141732283465
21
0.2731299212598425
0
LINE
8
BLACK
6
CONTINUOUS
10
0.3366141732283465
20
0.2731299212598425
11
0.3297244094488189
21
0.2731299212598425
0
LINE
8
BLACK
6
CONTINUOUS
10
0.3297244094488189
20
0.2731299212598425
11
0.3297244094488189
21
0.1924212598425197
0
LINE
8
BLACK
6
CONTINUOUS
10
0.3297244094488189
20
0.1924212598425197
11
0.3366141732283465
21
0.1924212598425197
0
LINE
8
BLACK
6
CONTINUOUS
10
0.3366141732283465
20
0.1924212598425197
11
0.3369908267716535
21
0.1923463385826772
0
LINE
8
BLACK
6
CONTINUOUS
10
0.3369908267716535
20
0.1923463385826772
11
0.3375235039370079
21
0.1918136614173228
0
LINE
8
BLACK
6
CONTINUOUS
10
0.3375235039370079
20
0.1918136614173228
11
0.3375984251968504
21
0.1914370078740157
0
LINE
8
BLACK
6
CONTINUOUS
10
0.3375984251968504
20
0.1914370078740157
11
0.3375984251968504
21
0.1530511811023622
0
LINE
8
BLACK
6
CONTINUOUS
10
0.3375984251968504
20
0.1530511811023622
11
0.4537401574803149
21
0.1530511811023622
0
LINE
8
BLACK
6
CONTINUOUS
10
0.4537401574803149
20
0.1530511811023622
11
0.4537401574803149
21
0.1914370078740157
0
LINE
8
BLACK
6
CONTINUOUS
10
0.4537401574803149
20
0.1914370078740157
11
0.4538150787401575
21
0.1918136614173228
0
LINE
8
BLACK
6
CONTINUOUS
10
0.4538150787401575
20
0.1918136614173228
11
0.4543477559055118
21
0.1923463385826772
0
LINE
8
BLACK
6
CONTINUOUS
10
0.4543477559055118
20
0.1923463385826772
11
0.4547244094488189
21
0.1924212598425197
0
LINE
8
BLACK
6
CONTINUOUS
10
0.4547244094488189
20
0.1924212598425197
11
0.4616141732283465
21
0.1924212598425197
0
LINE
8
BLACK
6
CONTINUOUS
10
0.4616141732283465
20
0.1924212598425197
11
0.4616141732283465
21
0.2731299212598425
0
LINE
8
BLACK
6
CONTINUOUS
10
0.4616141732283465
20
0.2731299212598425
11
0.4547244094488189
21
0.2731299212598425
0
LINE
8
BLACK
6
CONTINUOUS
10
0.4547244094488189
20
0.2731299212598425
11
0.4543477559055118
21
0.273204842519685
0
LINE
8
BLACK
6
CONTINUOUS
10
0.4543477559055118
20
0.273204842519685
11
0.4538150787401575
21
0.2737375196850393
0
LINE
8
BLACK
6
CONTINUOUS
10
0.4538150787401575
20
0.2737375196850393
11
0.4537401574803149
21
0.2741141732283465
0
LINE
8
BLACK
6
CONTINUOUS
10
0.4537401574803149
20
0.2741141732283465
11
0.4537401574803149
21
0.3125
0
LINE
8
BLACK
6
CONTINUOUS
10
0.4537401574803149
20
0.3125
11
0.3375984251968504
21
0.3125
0
LINE
8
BLACK
6
CONTINUOUS
10
0.5358097244094489
20
0.295299094488189
11
0.5363424015748032
21
0.2947664173228347
0
LINE
8
BLACK
6
CONTINUOUS
10
0.5363424015748032
20
0.2947664173228347
11
0.5364173228346456
21
0.2943897637795275
0
LINE
8
BLACK
6
CONTINUOUS
10
0.5364173228346456
20
0.2943897637795275
11
0.5364173228346456
21
0.1778543307086614
0
LINE
8
BLACK
6
CONTINUOUS
10
0.5364173228346456
20
0.1778543307086614
11
0.5363424015748032
21
0.1774776771653543
0
LINE
8
BLACK
6
CONTINUOUS
10
0.5363424015748032
20
0.1774776771653543
11
0.5358097244094489
21
0.176945
0
LINE
8
BLACK
6
CONTINUOUS
10
0.5358097244094489
20
0.176945
11
0.5354330708661417
21
0.1768700787401575
0
LINE
8
BLACK
6
CONTINUOUS
10
0.5354330708661417
20
0.1768700787401575
11
0.4779527559055118
21
0.1768700787401575
0
LINE
8
BLACK
6
CONTINUOUS
10
0.4779527559055118
20
0.1768700787401575
11
0.4775761023622047
21
0.176945
0
LINE
8
BLACK
6
CONTINUOUS
10
0.4775761023622047
20
0.176945
11
0.4770434251968504
21
0.1774776771653543
0
LINE
8
BLACK
6
CONTINUOUS
10
0.4770434251968504
20
0.1774776771653543
11
0.4769685039370078
21
0.1778543307086614
0
LINE
8
BLACK
6
CONTINUOUS
10
0.4769685039370078
20
0.1778543307086614
11
0.4769685039370078
21
0.2943897637795275
0
LINE
8
BLACK
6
CONTINUOUS
10
0.4769685039370078
20
0.2943897637795275
11
0.4770434251968504
21
0.2947664173228347
0
LINE
8
BLACK
6
CONTINUOUS
10
0.4770434251968504
20
0.2947664173228347
11
0.4775761023622047
21
0.295299094488189
0
LINE
8
BLACK
6
CONTINUOUS
10
0.4775761023622047
20
0.295299094488189
11
0.4779527559055118
21
0.2953740157480315
0
LINE
8
BLACK
6
CONTINUOUS
10
0.4779527559055118
20
0.2953740157480315
11
0.5354330708661417
21
0.2953740157480315
0
LINE
8
BLACK
6
CONTINUOUS
10
0.5354330708661417
20
0.2953740157480315
11
0.5358097244094489
21
0.295299094488189
0
LINE
8
BLACK
6
CONTINUOUS
10
0.4789370078740157
20
0.2934055118110236
11
0.4789370078740157
21
0.1788385826771653
0
LINE
8
BLACK
6
CONTINUOUS
10
0.4789370078740157
20
0.1788385826771653
11
0.5344488188976377
21
0.1788385826771653
0
LINE
8
BLACK
6
CONTINUOUS
10
0.5344488188976377
20
0.1788385826771653
11
0.5344488188976377
21
0.2934055118110236
0
LINE
8
BLACK
6
CONTINUOUS
10
0.5344488188976377
20
0.2934055118110236
11
0.4789370078740157
21
0.2934055118110236
0
LINE
8
BLACK
6
CONTINUOUS
10
0.6017546062992126
20
0.295299094488189
11
0.6022872834645669
21
0.2947664173228347
0
LINE
8
BLACK
6
CONTINUOUS
10
0.6022872834645669
20
0.2947664173228347
11
0.6023622047244095
21
0.2943897637795275
0
LINE
8
BLACK
6
CONTINUOUS
10
0.6023622047244095
20
0.2943897637795275
11
0.6023622047244095
21
0.1778543307086614
0
LINE
8
BLACK
6
CONTINUOUS
10
0.6023622047244095
20
0.1778543307086614
11
0.6022872834645669
21
0.1774776771653543
0
LINE
8
BLACK
6
CONTINUOUS
10
0.6022872834645669
20
0.1774776771653543
11
0.6017546062992126
21
0.176945
0
LINE
8
BLACK
6
CONTINUOUS
10
0.6017546062992126
20
0.176945
11
0.6013779527559054
21
0.1768700787401575
0
LINE
8
BLACK
6
CONTINUOUS
10
0.6013779527559054
20
0.1768700787401575
11
0.5438976377952756
21
0.1768700787401575
0
LINE
8
BLACK
6
CONTINUOUS
10
0.5438976377952756
20
0.1768700787401575
11
0.5435209842519685
21
0.176945
0
LINE
8
BLACK
6
CONTINUOUS
10
0.5435209842519685
20
0.176945
11
0.5429883070866142
21
0.1774776771653543
0
LINE
8
BLACK
6
CONTINUOUS
10
0.5429883070866142
20
0.1774776771653543
11
0.5429133858267716
21
0.1778543307086614
0
LINE
8
BLACK
6
CONTINUOUS
10
0.5429133858267716
20
0.1778543307086614
11
0.5429133858267716
21
0.2943897637795275
0
LINE
8
BLACK
6
CONTINUOUS
10
0.5429133858267716
20
0.2943897637795275
11
0.5429883070866142
21
0.2947664173228347
0
LINE
8
BLACK
6
CONTINUOUS
10
0.5429883070866142
20
0.2947664173228347
11
0.5435209842519685
21
0.295299094488189
0
LINE
8
BLACK
6
CONTINUOUS
10
0.5435209842519685
20
0.295299094488189
11
0.5438976377952756
21
0.2953740157480315
0
LINE
8
BLACK
6
CONTINUOUS
10
0.5438976377952756
20
0.2953740157480315
11
0.6013779527559054
21
0.2953740157480315
0
LINE
8
BLACK
6
CONTINUOUS
10
0.6013779527559054
20
0.2953740157480315
11
0.6017546062992126
21
0.295299094488189
0
LINE
8
BLACK
6
CONTINUOUS
10
0.5448818897637795
20
0.2934055118110236
11
0.5448818897637795
21
0.1788385826771653
0
LINE
8
BLACK
6
CONTINUOUS
10
0.5448818897637795
20
0.1788385826771653
11
0.6003937007874015
21
0.1788385826771653
0
LINE
8
BLACK
6
CONTINUOUS
10
0.6003937007874015
20
0.1788385826771653
11
0.6003937007874015
21
0.2934055118110236
0
LINE
8
BLACK
6
CONTINUOUS
10
0.6003937007874015
20
0.2934055118110236
11
0.5448818897637795
21
0.2934055118110236
0
LINE
8
BLACK
6
CONTINUOUS
10
0.8446679921259842
20
0.3389014566929134
11
0.8452006692913385
21
0.3383687795275591
0
LINE
8
BLACK
6
CONTINUOUS
10
0.8452006692913385
20
0.3383687795275591
11
0.8452755905511811
21
0.3379921259842519
0
LINE
8
BLACK
6
CONTINUOUS
10
0.8452755905511811
20
0.3379921259842519
11
0.8452755905511811
21
0.196259842519685
0
LINE
8
BLACK
6
CONTINUOUS
10
0.8452755905511811
20
0.196259842519685
11
0.8452006692913385
21
0.1958831889763779
0
LINE
8
BLACK
6
CONTINUOUS
10
0.8452006692913385
20
0.1958831889763779
11
0.8446679921259842
21
0.1953505118110236
0
LINE
8
BLACK
6
CONTINUOUS
10
0.8446679921259842
20
0.1953505118110236
11
0.8442913385826771
21
0.1952755905511811
0
LINE
8
BLACK
6
CONTINUOUS
10
0.8442913385826771
20
0.1952755905511811
11
0.612007874015748
21
0.1952755905511811
0
LINE
8
BLACK
6
CONTINUOUS
10
0.612007874015748
20
0.1952755905511811
11
0.6116312204724409
21
0.1953505118110236
0
LINE
8
BLACK
6
CONTINUOUS
10
0.6116312204724409
20
0.1953505118110236
11
0.6110985433070866
21
0.1958831889763779
0
LINE
8
BLACK
6
CONTINUOUS
10
0.6110985433070866
20
0.1958831889763779
11
0.611023622047244
21
0.196259842519685
0
LINE
8
BLACK
6
CONTINUOUS
10
0.611023622047244
20
0.196259842519685
11
0.611023622047244
21
0.3379921259842519
0
LINE
8
BLACK
6
CONTINUOUS
10
0.611023622047244
20
0.3379921259842519
11
0.6110985433070866
21
0.3383687795275591
0
LINE
8
BLACK
6
CONTINUOUS
10
0.6110985433070866
20
0.3383687795275591
11
0.6116312204724409
21
0.3389014566929134
0
LINE
8
BLACK
6
CONTINUOUS
10
0.6116312204724409
20
0.3389014566929134
11
0.612007874015748
21
0.3389763779527559
0
LINE
8
BLACK
6
CONTINUOUS
10
0.612007874015748
20
0.3389763779527559
11
0.8442913385826771
21
0.3389763779527559
0
LINE
8
BLACK
6
CONTINUOUS
10
0.8442913385826771
20
0.3389763779527559
11
0.8446679921259842
21
0.3389014566929134
0
LINE
8
BLACK
6
CONTINUOUS
10
0.6129921259842519
20
0.337007874015748
11
0.6129921259842519
21
0.197244094488189
0
LINE
8
BLACK
6
CONTINUOUS
10
0.6129921259842519
20
0.197244094488189
11
0.8433070866141732
21
0.197244094488189
0
LINE
8
BLACK
6
CONTINUOUS
10
0.8433070866141732
20
0.197244094488189
11
0.8433070866141732
21
0.337007874015748
0
LINE
8
BLACK
6
CONTINUOUS
10
0.8433070866141732
20
0.337007874015748
11
0.6129921259842519
21
0.337007874015748
0
LINE
8
BLACK
6
CONTINUOUS
10
0.5422270472440944
20
0.4511061811023622
11
0.5427597244094488
21
0.4505735039370078
0
LINE
8
BLACK
6
CONTINUOUS
10
0.5427597244094488
20
0.4505735039370078
11
0.5428346456692913
21
0.4501968503937008
0
LINE
8
BLACK
6
CONTINUOUS
10
0.5428346456692913
20
0.4501968503937008
11
0.5428346456692913
21
0.3336614173228347
0
LINE
8
BLACK
6
CONTINUOUS
10
0.5428346456692913
20
0.3336614173228347
11
0.5427597244094488
21
0.3332847637795275
0
LINE
8
BLACK
6
CONTINUOUS
10
0.5427597244094488
20
0.3332847637795275
11
0.5422270472440944
21
0.3327520866141732
0
LINE
8
BLACK
6
CONTINUOUS
10
0.5422270472440944
20
0.3327520866141732
11
0.5418503937007874
21
0.3326771653543307
0
LINE
8
BLACK
6
CONTINUOUS
10
0.5418503937007874
20
0.3326771653543307
11
0.4843700787401575
21
0.3326771653543307
0
LINE
8
BLACK
6
CONTINUOUS
10
0.4843700787401575
20
0.3326771653543307
11
0.4839934251968504
21
0.3327520866141732
0
LINE
8
BLACK
6
CONTINUOUS
10
0.4839934251968504
20
0.3327520866141732
11
0.4834607480314961
21
0.3332847637795275
0
LINE
8
BLACK
6
CONTINUOUS
10
0.4834607480314961
20
0.3332847637795275
11
0.4833858267716535
21
0.3336614173228347
0
LINE
8
BLACK
6
CONTINUOUS
10
0.4833858267716535
20
0.3336614173228347
11
0.4833858267716535
21
0.4501968503937008
0
LINE
8
BLACK
6
CONTINUOUS
10
0.4833858267716535
20
0.4501968503937008
11
0.4834607480314961
21
0.4505735039370078
0
LINE
8
BLACK
6
CONTINUOUS
10
0.4834607480314961
20
0.4505735039370078
11
0.4839934251968504
21
0.4511061811023622
0
LINE
8
BLACK
6
CONTINUOUS
10
0.4839934251968504
20
0.4511061811023622
11
0.4843700787401575
21
0.4511811023622047
0
LINE
8
BLACK
6
CONTINUOUS
10
0.4843700787401575
20
0.4511811023622047
11
0.5418503937007874
21
0.4511811023622047
0
LINE
8
BLACK
6
CONTINUOUS
10
0.5418503937007874
20
0.4511811023622047
11
0.5422270472440944
21
0.4511061811023622
0
LINE
8
BLACK
6
CONTINUOUS
10
0.4853543307086614
20
0.4492125984251968
11
0.4853543307086614
21
0.3346456692913386
0
LINE
8
BLACK
6
CONTINUOUS
10
0.4853543307086614
20
0.3346456692913386
11
0.5408661417322834
21
0.3346456692913386
0
LINE
8
BLACK
6
CONTINUOUS
10
0.5408661417322834
20
0.3346456692913386
11
0.5408661417322834
21
0.4492125984251968
0
LINE
8
BLACK
6
CONTINUOUS
10
0.5408661417322834
20
0.4492125984251968
11
0.4853543307086614
21
0.4492125984251968
0
LINE
8
BLACK
6
CONTINUOUS
10
0.311597125984252
20
0.4530746850393701
11
0.3121298031496063
21
0.4525420078740157
0
LINE
8
BLACK
6
CONTINUOUS
10
0.3121298031496063
20
0.4525420078740157
11
0.3122047244094488
21
0.4521653543307086
0
LINE
8
BLACK
6
CONTINUOUS
10
0.3122047244094488
20
0.4521653543307086
11
0.3122047244094488
21
0.3356299212598425
0
LINE
8
BLACK
6
CONTINUOUS
10
0.3122047244094488
20
0.3356299212598425
11
0.3121298031496063
21
0.3352532677165354
0
LINE
8
BLACK
6
CONTINUOUS
10
0.3121298031496063
20
0.3352532677165354
11
0.311597125984252
21
0.3347205905511811
0
LINE
8
BLACK
6
CONTINUOUS
10
0.311597125984252
20
0.3347205905511811
11
0.3112204724409449
21
0.3346456692913386
0
LINE
8
BLACK
6
CONTINUOUS
10
0.3112204724409449
20
0.3346456692913386
11
0.253740157480315
21
0.3346456692913386
0
LINE
8
BLACK
6
CONTINUOUS
10
0.253740157480315
20
0.3346456692913386
11
0.2533635039370079
21
0.3347205905511811
0
LINE
8
BLACK
6
CONTINUOUS
10
0.2533635039370079
20
0.3347205905511811
11
0.2528308267716535
21
0.3352532677165354
0
LINE
8
BLACK
6
CONTINUOUS
10
0.2528308267716535
20
0.3352532677165354
11
0.252755905511811
21
0.3356299212598425
0
LINE
8
BLACK
6
CONTINUOUS
10
0.252755905511811
20
0.3356299212598425
11
0.252755905511811
21
0.4521653543307086
0
LINE
8
BLACK
6
CONTINUOUS
10
0.252755905511811
20
0.4521653543307086
11
0.2528308267716535
21
0.4525420078740157
0
LINE
8
BLACK
6
CONTINUOUS
10
0.2528308267716535
20
0.4525420078740157
11
0.2533635039370079
21
0.4530746850393701
0
LINE
8
BLACK
6
CONTINUOUS
10
0.2533635039370079
20
0.4530746850393701
11
0.253740157480315
21
0.4531496062992126
0
LINE
8
BLACK
6
CONTINUOUS
10
0.253740157480315
20
0.4531496062992126
11
0.3112204724409449
21
0.4531496062992126
0
LINE
8
BLACK
6
CONTINUOUS
10
0.3112204724409449
20
0.4531496062992126
11
0.311597125984252
21
0.4530746850393701
0
LINE
8
BLACK
6
CONTINUOUS
10
0.2547244094488189
20
0.4511811023622047
11
0.2547244094488189
21
0.3366141732283465
0
LINE
8
BLACK
6
CONTINUOUS
10
0.2547244094488189
20
0.3366141732283465
11
0.3102362204724409
21
0.3366141732283465
0
LINE
8
BLACK
6
CONTINUOUS
10
0.3102362204724409
20
0.3366141732283465
11
0.3102362204724409
21
0.4511811023622047
0
LINE
8
BLACK
6
CONTINUOUS
10
0.3102362204724409
20
0.4511811023622047
11
0.2547244094488189
21
0.4511811023622047
0
LINE
8
BLACK
6
CONTINUOUS
10
0.3847467322834646
20
0.4389605118110236
11
0.3852794094488189
21
0.4384278346456693
0
LINE
8
BLACK
6
CONTINUOUS
10
0.3852794094488189
20
0.4384278346456693
11
0.3853543307086614
21
0.4380511811023622
0
LINE
8
BLACK
6
CONTINUOUS
10
0.3853543307086614
20
0.4380511811023622
11
0.3853543307086614
21
0.3396259842519685
0
LINE
8
BLACK
6
CONTINUOUS
10
0.3853543307086614
20
0.3396259842519685
11
0.3852794094488189
21
0.3392493307086614
0
LINE
8
BLACK
6
CONTINUOUS
10
0.3852794094488189
20
0.3392493307086614
11
0.3847467322834646
21
0.3387166535433071
0
LINE
8
BLACK
6
CONTINUOUS
10
0.3847467322834646
20
0.3387166535433071
11
0.3843700787401575
21
0.3386417322834646
0
LINE
8
BLACK
6
CONTINUOUS
10
0.3843700787401575
20
0.3386417322834646
11
0.329251968503937
21
0.3386417322834646
0
LINE
8
BLACK
6
CONTINUOUS
10
0.329251968503937
20
0.3386417322834646
11
0.3288753149606299
21
0.3387166535433071
0
LINE
8
BLACK
6
CONTINUOUS
10
0.3288753149606299
20
0.3387166535433071
11
0.3283426377952756
21
0.3392493307086614
0
LINE
8
BLACK
6
CONTINUOUS
10
0.3283426377952756
20
0.3392493307086614
11
0.3282677165354331
21
0.3396259842519685
0
LINE
8
BLACK
6
CONTINUOUS
10
0.3282677165354331
20
0.3396259842519685
11
0.3282677165354331
21
0.4380511811023622
0
LINE
8
BLACK
6
CONTINUOUS
10
0.3282677165354331
20
0.4380511811023622
11
0.3283426377952756
21
0.4384278346456693
0
LINE
8
BLACK
6
CONTINUOUS
10
0.3283426377952756
20
0.4384278346456693
11
0.3288753149606299
21
0.4389605118110236
0
LINE
8
BLACK
6
CONTINUOUS
10
0.3288753149606299
20
0.4389605118110236
11
0.329251968503937
21
0.4390354330708661
0
LINE
8
BLACK
6
CONTINUOUS
10
0.329251968503937
20
0.4390354330708661
11
0.3843700787401575
21
0.4390354330708661
0
LINE
8
BLACK
6
CONTINUOUS
10
0.3843700787401575
20
0.4390354330708661
11
0.3847467322834646
21
0.4389605118110236
0
LINE
8
BLACK
6
CONTINUOUS
10
0.3302362204724409
20
0.4370669291338583
11
0.3302362204724409
21
0.3406102362204724
0
LINE
8
BLACK
6
CONTINUOUS
10
0.3302362204724409
20
0.3406102362204724
11
0.3833858267716536
21
0.3406102362204724
0
LINE
8
BLACK
6
CONTINUOUS
10
0.3833858267716536
20
0.3406102362204724
11
0.3833858267716536
21
0.4370669291338583
0
LINE
8
BLACK
6
CONTINUOUS
10
0.3833858267716536
20
0.4370669291338583
11
0.3302362204724409
21
0.4370669291338583
0
LINE
8
BLACK
6
CONTINUOUS
10
0.8003766535433071
20
0.5130156299212598
11
0.8009093307086614
21
0.5124829527559055
0
LINE
8
BLACK
6
CONTINUOUS
10
0.8009093307086614
20
0.5124829527559055
11
0.8009842519685039
21
0.5121062992125984
0
LINE
8
BLACK
6
CONTINUOUS
10
0.8009842519685039
20
0.5121062992125984
11
0.8009842519685039
21
0.3955708661417323
0
LINE
8
BLACK
6
CONTINUOUS
10
0.8009842519685039
20
0.3955708661417323
11
0.8009093307086614
21
0.3951942125984252
0
LINE
8
BLACK
6
CONTINUOUS
10
0.8009093307086614
20
0.3951942125984252
11
0.8003766535433071
21
0.3946615354330709
0
LINE
8
BLACK
6
CONTINUOUS
10
0.8003766535433071
20
0.3946615354330709
11
0.7999999999999999
21
0.3945866141732283
0
LINE
8
BLACK
6
CONTINUOUS
10
0.7999999999999999
20
0.3945866141732283
11
0.74251968503937
21
0.3945866141732283
0
LINE
8
BLACK
6
CONTINUOUS
10
0.74251968503937
20
0.3945866141732283
11
0.742143031496063
21
0.3946615354330709
0
LINE
8
BLACK
6
CONTINUOUS
10
0.742143031496063
20
0.3946615354330709
11
0.7416103543307087
21
0.3951942125984252
0
LINE
8
BLACK
6
CONTINUOUS
10
0.7416103543307087
20
0.3951942125984252
11
0.7415354330708661
21
0.3955708661417323
0
LINE
8
BLACK
6
CONTINUOUS
10
0.7415354330708661
20
0.3955708661417323
11
0.7415354330708661
21
0.5121062992125984
0
LINE
8
BLACK
6
CONTINUOUS
10
0.7415354330708661
20
0.5121062992125984
11
0.7416103543307087
21
0.5124829527559055
0
LINE
8
BLACK
6
CONTINUOUS
10
0.7416103543307087
20
0.5124829527559055
11
0.742143031496063
21
0.5130156299212598
0
LINE
8
BLACK
6
CONTINUOUS
10
0.742143031496063
20
0.5130156299212598
11
0.74251968503937
21
0.5130905511811024
0
LINE
8
BLACK
6
CONTINUOUS
10
0.74251968503937
20
0.5130905511811024
11
0.7999999999999999
21
0.5130905511811024
0
LINE
8
BLACK
6
CONTINUOUS
10
0.7999999999999999
20
0.5130905511811024
11
0.8003766535433071
21
0.5130156299212598
0
LINE
8
BLACK
6
CONTINUOUS
10
0.743503937007874
20
0.5111220472440945
11
0.743503937007874
21
0.3965551181102362
0
LINE
8
BLACK
6
CONTINUOUS
10
0.743503937007874
20
0.3965551181102362
11
0.799015748031496
21
0.3965551181102362
0
LINE
8
BLACK
6
CONTINUOUS
10
0.799015748031496
20
0.3965551181102362
11
0.799015748031496
21
0.5111220472440945
0
LINE
8
BLACK
6
CONTINUOUS
10
0.799015748031496
20
0.5111220472440945
11
0.743503937007874
21
0.5111220472440945
0
LINE
8
BLACK
6
CONTINUOUS
10
0.7322664173228346
20
0.5134093307086615
11
0.7327990944881889
21
0.512876653543307
0
LINE
8
BLACK
6
CONTINUOUS
10
0.7327990944881889
20
0.512876653543307
11
0.7328740157480315
21
0.5125
0
LINE
8
BLACK
6
CONTINUOUS
10
0.7328740157480315
20
0.5125
11
0.7328740157480315
21
0.3959645669291338
0
LINE
8
BLACK
6
CONTINUOUS
10
0.7328740157480315
20
0.3959645669291338
11
0.7327990944881889
21
0.3955879133858268
0
LINE
8
BLACK
6
CONTINUOUS
10
0.7327990944881889
20
0.3955879133858268
11
0.7322664173228346
21
0.3950552362204724
0
LINE
8
BLACK
6
CONTINUOUS
10
0.7322664173228346
20
0.3950552362204724
11
0.7318897637795275
21
0.3949803149606299
0
LINE
8
BLACK
6
CONTINUOUS
10
0.7318897637795275
20
0.3949803149606299
11
0.6744094488188976
21
0.3949803149606299
0
LINE
8
BLACK
6
CONTINUOUS
10
0.6744094488188976
20
0.3949803149606299
11
0.6740327952755906
21
0.3950552362204724
0
LINE
8
BLACK
6
CONTINUOUS
10
0.6740327952755906
20
0.3950552362204724
11
0.6735001181102362
21
0.3955879133858268
0
LINE
8
BLACK
6
CONTINUOUS
10
0.6735001181102362
20
0.3955879133858268
11
0.6734251968503937
21
0.3959645669291338
0
LINE
8
BLACK
6
CONTINUOUS
10
0.6734251968503937
20
0.3959645669291338
11
0.6734251968503937
21
0.5125
0
LINE
8
BLACK
6
CONTINUOUS
10
0.6734251968503937
20
0.5125
11
0.6735001181102362
21
0.512876653543307
0
LINE
8
BLACK
6
CONTINUOUS
10
0.6735001181102362
20
0.512876653543307
11
0.6740327952755906
21
0.5134093307086615
0
LINE
8
BLACK
6
CONTINUOUS
10
0.6740327952755906
20
0.5134093307086615
11
0.6744094488188976
21
0.5134842519685039
0
LINE
8
BLACK
6
CONTINUOUS
10
0.6744094488188976
20
0.5134842519685039
11
0.7318897637795275
21
0.5134842519685039
0
LINE
8
BLACK
6
CONTINUOUS
10
0.7318897637795275
20
0.5134842519685039
11
0.7322664173228346
21
0.5134093307086615
0
LINE
8
BLACK
6
CONTINUOUS
10
0.6753937007874016
20
0.511515748031496
11
0.6753937007874016
21
0.3969488188976378
0
LINE
8
BLACK
6
CONTINUOUS
10
0.6753937007874016
20
0.3969488188976378
11
0.7309055118110236
21
0.3969488188976378
0
LINE
8
BLACK
6
CONTINUOUS
10
0.7309055118110236
20
0.3969488188976378
11
0.7309055118110236
21
0.511515748031496
0
LINE
8
BLACK
6
CONTINUOUS
10
0.7309055118110236
20
0.511515748031496
11
0.6753937007874016
21
0.511515748031496
  0
ENDSEC
  0
EOF
