  0
SECTION
  2
HEADER
  9
$ANGBASE
  50
0.0
  9
$ANGDIR
  70
1
  9
$MEASUREMENT
  70
0
  0
ENDSEC
  0
SECTION
  2
TABLES
  0
TABLE
  2
LTYPE
  70
4
  0
LTYPE
  5
40F
  2
CONTINUOUS
  70
0
  3
Solid line
  72
65
  73
0
  40
0.0
  0
LTYPE
  5
410
  2
DASHDOT
 70
0
  3
Dash Dot ____ _ ____ _
 72
65
 73
4
 40
2.0
 49
1.25
 49
-0.25
 49
0.25
 49
-0.25
  0
LTYPE
  5
411
  2
DASHED
 70
0
  3
Dashed __ __ __ __ __
 72
65
 73
2
 40
0.75
 49
0.5
 49
-0.25
  0
LTYPE
  5
43B
  2
DOTTED
 70
0
  3
Dotted .  .  .  .
 72
65
 73
2
 40
0.2
 49
0.0
 49
-0.2
  0
ENDTAB
  0
TABLE
  2
STYLE
  70
4
  0
STYLE
  2
KICAD
  70
0
  40
0
  41
1
  42
1
  50
0
  71
0
  3
isocp.shx
  0
STYLE
  2
KICADB
  70
0
  40
0
  41
1
  42
1
  50
0
  71
0
  3
isocp.shx
  0
STYLE
  2
KICADI
  70
0
  40
0
  41
1
  42
1
  50
15
  71
0
  3
isocp.shx
  0
STYLE
  2
KICADBI
  70
0
  40
0
  41
1
  42
1
  50
15
  71
0
  3
isocp.shx
  0
ENDTAB
  0
TABLE
  2
LAYER
  70
1
  0
LAYER
  2
BLACK
  70
0
  62
7
  6
CONTINUOUS
  0
ENDTAB
  0
ENDSEC
  0
SECTION
  2
ENTITIES
0
LINE
8
BLACK
6
CONTINUOUS
10
0.4911155118110236
20
0.088117874015748
11
0.4921808661417323
21
0.0870525196850394
0
LINE
8
BLACK
6
CONTINUOUS
10
0.4921808661417323
20
0.0870525196850394
11
0.4923307086614173
21
0.0862992125984252
0
LINE
8
BLACK
6
CONTINUOUS
10
0.4923307086614173
20
0.0862992125984252
11
0.4923307086614173
21
0.0288188976377953
0
LINE
8
BLACK
6
CONTINUOUS
10
0.4923307086614173
20
0.0288188976377953
11
0.4921808661417323
21
0.0280655905511811
0
LINE
8
BLACK
6
CONTINUOUS
10
0.4921808661417323
20
0.0280655905511811
11
0.4911155118110236
21
0.0270002362204724
0
LINE
8
BLACK
6
CONTINUOUS
10
0.4911155118110236
20
0.0270002362204724
11
0.4903622047244094
21
0.0268503937007874
0
LINE
8
BLACK
6
CONTINUOUS
10
0.4903622047244094
20
0.0268503937007874
11
0.3738267716535433
21
0.0268503937007874
0
LINE
8
BLACK
6
CONTINUOUS
10
0.3738267716535433
20
0.0268503937007874
11
0.3730734645669291
21
0.0270002362204724
0
LINE
8
BLACK
6
CONTINUOUS
10
0.3730734645669291
20
0.0270002362204724
11
0.3720081102362205
21
0.0280655905511811
0
LINE
8
BLACK
6
CONTINUOUS
10
0.3720081102362205
20
0.0280655905511811
11
0.3718582677165354
21
0.0288188976377953
0
LINE
8
BLACK
6
CONTINUOUS
10
0.3718582677165354
20
0.0288188976377953
11
0.3718582677165354
21
0.0862992125984252
0
LINE
8
BLACK
6
CONTINUOUS
10
0.3718582677165354
20
0.0862992125984252
11
0.3720081102362205
21
0.0870525196850394
0
LINE
8
BLACK
6
CONTINUOUS
10
0.3720081102362205
20
0.0870525196850394
11
0.3730734645669291
21
0.088117874015748
0
LINE
8
BLACK
6
CONTINUOUS
10
0.3730734645669291
20
0.088117874015748
11
0.3738267716535433
21
0.0882677165354331
0
LINE
8
BLACK
6
CONTINUOUS
10
0.3738267716535433
20
0.0882677165354331
11
0.4903622047244094
21
0.0882677165354331
0
LINE
8
BLACK
6
CONTINUOUS
10
0.4903622047244094
20
0.0882677165354331
11
0.4911155118110236
21
0.088117874015748
0
LINE
8
BLACK
6
CONTINUOUS
10
0.3757952755905511
20
0.0843307086614173
11
0.3757952755905511
21
0.0307874015748031
0
LINE
8
BLACK
6
CONTINUOUS
10
0.3757952755905511
20
0.0307874015748031
11
0.4883937007874016
21
0.0307874015748031
0
LINE
8
BLACK
6
CONTINUOUS
10
0.4883937007874016
20
0.0307874015748031
11
0.4883937007874016
21
0.0843307086614173
0
LINE
8
BLACK
6
CONTINUOUS
10
0.4883937007874016
20
0.0843307086614173
11
0.3757952755905511
21
0.0843307086614173
0
LINE
8
BLACK
6
CONTINUOUS
10
0.0507533070866142
20
0.42111
11
0.0518186614173228
21
0.4200446456692913
0
LINE
8
BLACK
6
CONTINUOUS
10
0.0518186614173228
20
0.4200446456692913
11
0.0519685039370079
21
0.4192913385826771
0
LINE
8
BLACK
6
CONTINUOUS
10
0.0519685039370079
20
0.4192913385826771
11
0.0519685039370079
21
0.0476377952755905
0
LINE
8
BLACK
6
CONTINUOUS
10
0.0519685039370079
20
0.0476377952755905
11
0.0518186614173228
21
0.0468844881889764
0
LINE
8
BLACK
6
CONTINUOUS
10
0.0518186614173228
20
0.0468844881889764
11
0.0507533070866142
21
0.0458191338582677
0
LINE
8
BLACK
6
CONTINUOUS
10
0.0507533070866142
20
0.0458191338582677
11
0.05
21
0.0456692913385827
0
LINE
8
BLACK
6
CONTINUOUS
10
0.05
20
0.0456692913385827
11
-0.2019685039370079
21
0.0456692913385827
0
LINE
8
BLACK
6
CONTINUOUS
10
-0.2019685039370079
20
0.0456692913385827
11
-0.2027218110236221
21
0.0458191338582677
0
LINE
8
BLACK
6
CONTINUOUS
10
-0.2027218110236221
20
0.0458191338582677
11
-0.2037871653543307
21
0.0468844881889764
0
LINE
8
BLACK
6
CONTINUOUS
10
-0.2037871653543307
20
0.0468844881889764
11
-0.2039370078740158
21
0.0476377952755905
0
LINE
8
BLACK
6
CONTINUOUS
10
-0.2039370078740158
20
0.0476377952755905
11
-0.2039370078740158
21
0.4192913385826771
0
LINE
8
BLACK
6
CONTINUOUS
10
-0.2039370078740158
20
0.4192913385826771
11
-0.2037871653543307
21
0.4200446456692913
0
LINE
8
BLACK
6
CONTINUOUS
10
-0.2037871653543307
20
0.4200446456692913
11
-0.2027218110236221
21
0.42111
0
LINE
8
BLACK
6
CONTINUOUS
10
-0.2027218110236221
20
0.42111
11
-0.2019685039370079
21
0.421259842519685
0
LINE
8
BLACK
6
CONTINUOUS
10
-0.2019685039370079
20
0.421259842519685
11
0.05
21
0.421259842519685
0
LINE
8
BLACK
6
CONTINUOUS
10
0.05
20
0.421259842519685
11
0.0507533070866142
21
0.42111
0
LINE
8
BLACK
6
CONTINUOUS
10
-0.2
20
0.4173228346456693
11
-0.2
21
0.0496062992125984
0
LINE
8
BLACK
6
CONTINUOUS
10
-0.2
20
0.0496062992125984
11
0.0480314960629921
21
0.0496062992125984
0
LINE
8
BLACK
6
CONTINUOUS
10
0.0480314960629921
20
0.0496062992125984
11
0.0480314960629921
21
0.4173228346456693
0
LINE
8
BLACK
6
CONTINUOUS
10
0.0480314960629921
20
0.4173228346456693
11
-0.2
21
0.4173228346456693
0
LINE
8
BLACK
6
CONTINUOUS
10
0.7751627559055118
20
0.42111
11
0.7762281102362204
21
0.4200446456692913
0
LINE
8
BLACK
6
CONTINUOUS
10
0.7762281102362204
20
0.4200446456692913
11
0.7763779527559055
21
0.4192913385826771
0
LINE
8
BLACK
6
CONTINUOUS
10
0.7763779527559055
20
0.4192913385826771
11
0.7763779527559055
21
0.0476377952755905
0
LINE
8
BLACK
6
CONTINUOUS
10
0.7763779527559055
20
0.0476377952755905
11
0.7762281102362204
21
0.0468844881889764
0
LINE
8
BLACK
6
CONTINUOUS
10
0.7762281102362204
20
0.0468844881889764
11
0.7751627559055118
21
0.0458191338582677
0
LINE
8
BLACK
6
CONTINUOUS
10
0.7751627559055118
20
0.0458191338582677
11
0.7744094488188976
21
0.0456692913385827
0
LINE
8
BLACK
6
CONTINUOUS
10
0.7744094488188976
20
0.0456692913385827
11
0.5224409448818897
21
0.0456692913385827
0
LINE
8
BLACK
6
CONTINUOUS
10
0.5224409448818897
20
0.0456692913385827
11
0.5216876377952756
21
0.0458191338582677
0
LINE
8
BLACK
6
CONTINUOUS
10
0.5216876377952756
20
0.0458191338582677
11
0.520622283464567
21
0.0468844881889764
0
LINE
8
BLACK
6
CONTINUOUS
10
0.520622283464567
20
0.0468844881889764
11
0.5204724409448819
21
0.0476377952755905
0
LINE
8
BLACK
6
CONTINUOUS
10
0.5204724409448819
20
0.0476377952755905
11
0.5204724409448819
21
0.1718031496062992
0
LINE
8
BLACK
6
CONTINUOUS
10
0.5204724409448819
20
0.1718031496062992
11
0.4653543307086614
21
0.1718031496062992
0
LINE
8
BLACK
6
CONTINUOUS
10
0.4653543307086614
20
0.1718031496062992
11
0.4646010236220472
21
0.1719529921259842
0
LINE
8
BLACK
6
CONTINUOUS
10
0.4646010236220472
20
0.1719529921259842
11
0.4635356692913385
21
0.1730183464566929
0
LINE
8
BLACK
6
CONTINUOUS
10
0.4635356692913385
20
0.1730183464566929
11
0.4633858267716535
21
0.1737716535433071
0
LINE
8
BLACK
6
CONTINUOUS
10
0.4633858267716535
20
0.1737716535433071
11
0.4633858267716535
21
0.2903070866141732
0
LINE
8
BLACK
6
CONTINUOUS
10
0.4633858267716535
20
0.2903070866141732
11
0.4635356692913385
21
0.2910603937007874
0
LINE
8
BLACK
6
CONTINUOUS
10
0.4635356692913385
20
0.2910603937007874
11
0.4646010236220472
21
0.292125748031496
0
LINE
8
BLACK
6
CONTINUOUS
10
0.4646010236220472
20
0.292125748031496
11
0.4653543307086614
21
0.2922755905511811
0
LINE
8
BLACK
6
CONTINUOUS
10
0.4653543307086614
20
0.2922755905511811
11
0.5204724409448819
21
0.2922755905511811
0
LINE
8
BLACK
6
CONTINUOUS
10
0.5204724409448819
20
0.2922755905511811
11
0.5204724409448819
21
0.2998031496062992
0
LINE
8
BLACK
6
CONTINUOUS
10
0.5204724409448819
20
0.2998031496062992
11
0.4653543307086614
21
0.2998031496062992
0
LINE
8
BLACK
6
CONTINUOUS
10
0.4653543307086614
20
0.2998031496062992
11
0.4646010236220472
21
0.2999529921259843
0
LINE
8
BLACK
6
CONTINUOUS
10
0.4646010236220472
20
0.2999529921259843
11
0.4635356692913385
21
0.3010183464566929
0
LINE
8
BLACK
6
CONTINUOUS
10
0.4635356692913385
20
0.3010183464566929
11
0.4633858267716535
21
0.3017716535433071
0
LINE
8
BLACK
6
CONTINUOUS
10
0.4633858267716535
20
0.3017716535433071
11
0.4633858267716535
21
0.4183070866141732
0
LINE
8
BLACK
6
CONTINUOUS
10
0.4633858267716535
20
0.4183070866141732
11
0.4635356692913385
21
0.4190603937007874
0
LINE
8
BLACK
6
CONTINUOUS
10
0.4635356692913385
20
0.4190603937007874
11
0.4646010236220472
21
0.420125748031496
0
LINE
8
BLACK
6
CONTINUOUS
10
0.4646010236220472
20
0.420125748031496
11
0.4653543307086614
21
0.4202755905511811
0
LINE
8
BLACK
6
CONTINUOUS
10
0.4653543307086614
20
0.4202755905511811
11
0.5208532283464566
21
0.4202755905511811
0
LINE
8
BLACK
6
CONTINUOUS
10
0.5208532283464566
20
0.4202755905511811
11
0.5216876377952756
21
0.42111
0
LINE
8
BLACK
6
CONTINUOUS
10
0.5216876377952756
20
0.42111
11
0.5224409448818897
21
0.421259842519685
0
LINE
8
BLACK
6
CONTINUOUS
10
0.5224409448818897
20
0.421259842519685
11
0.7744094488188976
21
0.421259842519685
0
LINE
8
BLACK
6
CONTINUOUS
10
0.7744094488188976
20
0.421259842519685
11
0.7751627559055118
21
0.42111
0
LINE
8
BLACK
6
CONTINUOUS
10
0.5248031496062991
20
0.4173228346456693
11
0.5248031496062991
21
0.3017716535433071
0
LINE
8
BLACK
6
CONTINUOUS
10
0.5248031496062991
20
0.3017716535433071
11
0.5246533070866142
21
0.3010183464566929
0
LINE
8
BLACK
6
CONTINUOUS
10
0.5246533070866142
20
0.3010183464566929
11
0.5244094488188976
21
0.3007744881889764
0
LINE
8
BLACK
6
CONTINUOUS
10
0.5244094488188976
20
0.3007744881889764
11
0.5244094488188976
21
0.291304251968504
0
LINE
8
BLACK
6
CONTINUOUS
10
0.5244094488188976
20
0.291304251968504
11
0.5246533070866142
21
0.2910603937007874
0
LINE
8
BLACK
6
CONTINUOUS
10
0.5246533070866142
20
0.2910603937007874
11
0.5248031496062991
21
0.2903070866141732
0
LINE
8
BLACK
6
CONTINUOUS
10
0.5248031496062991
20
0.2903070866141732
11
0.5248031496062991
21
0.1737716535433071
0
LINE
8
BLACK
6
CONTINUOUS
10
0.5248031496062991
20
0.1737716535433071
11
0.5246533070866142
21
0.1730183464566929
0
LINE
8
BLACK
6
CONTINUOUS
10
0.5246533070866142
20
0.1730183464566929
11
0.5244094488188976
21
0.1727744881889764
0
LINE
8
BLACK
6
CONTINUOUS
10
0.5244094488188976
20
0.1727744881889764
11
0.5244094488188976
21
0.0496062992125984
0
LINE
8
BLACK
6
CONTINUOUS
10
0.5244094488188976
20
0.0496062992125984
11
0.7724409448818897
21
0.0496062992125984
0
LINE
8
BLACK
6
CONTINUOUS
10
0.7724409448818897
20
0.0496062992125984
11
0.7724409448818897
21
0.4173228346456693
0
LINE
8
BLACK
6
CONTINUOUS
10
0.7724409448818897
20
0.4173228346456693
11
0.5248031496062991
21
0.4173228346456693
0
LINE
8
BLACK
6
CONTINUOUS
10
0.4673228346456693
20
0.2883385826771653
11
0.4673228346456693
21
0.175740157480315
0
LINE
8
BLACK
6
CONTINUOUS
10
0.4673228346456693
20
0.175740157480315
11
0.5204724409448819
21
0.175740157480315
0
LINE
8
BLACK
6
CONTINUOUS
10
0.5204724409448819
20
0.175740157480315
11
0.5204724409448819
21
0.2883385826771653
0
LINE
8
BLACK
6
CONTINUOUS
10
0.5204724409448819
20
0.2883385826771653
11
0.4673228346456693
21
0.2883385826771653
0
LINE
8
BLACK
6
CONTINUOUS
10
0.4673228346456693
20
0.4163385826771653
11
0.4673228346456693
21
0.303740157480315
0
LINE
8
BLACK
6
CONTINUOUS
10
0.4673228346456693
20
0.303740157480315
11
0.5204724409448819
21
0.303740157480315
0
LINE
8
BLACK
6
CONTINUOUS
10
0.5204724409448819
20
0.303740157480315
11
0.5204724409448819
21
0.4163385826771653
0
LINE
8
BLACK
6
CONTINUOUS
10
0.5204724409448819
20
0.4163385826771653
11
0.4673228346456693
21
0.4163385826771653
0
LINE
8
BLACK
6
CONTINUOUS
10
0.1974304724409449
20
0.1843068503937008
11
0.1984958267716535
21
0.1832414960629921
0
LINE
8
BLACK
6
CONTINUOUS
10
0.1984958267716535
20
0.1832414960629921
11
0.1986456692913386
21
0.1824881889763779
0
LINE
8
BLACK
6
CONTINUOUS
10
0.1986456692913386
20
0.1824881889763779
11
0.1986456692913386
21
0.0486299212598425
0
LINE
8
BLACK
6
CONTINUOUS
10
0.1986456692913386
20
0.0486299212598425
11
0.1984958267716535
21
0.0478766141732283
0
LINE
8
BLACK
6
CONTINUOUS
10
0.1984958267716535
20
0.0478766141732283
11
0.1974304724409449
21
0.0468112598425197
0
LINE
8
BLACK
6
CONTINUOUS
10
0.1974304724409449
20
0.0468112598425197
11
0.1966771653543307
21
0.0466614173228346
0
LINE
8
BLACK
6
CONTINUOUS
10
0.1966771653543307
20
0.0466614173228346
11
0.119511811023622
21
0.0466614173228346
0
LINE
8
BLACK
6
CONTINUOUS
10
0.119511811023622
20
0.0466614173228346
11
0.1187585039370079
21
0.0468112598425197
0
LINE
8
BLACK
6
CONTINUOUS
10
0.1187585039370079
20
0.0468112598425197
11
0.1176931496062992
21
0.0478766141732283
0
LINE
8
BLACK
6
CONTINUOUS
10
0.1176931496062992
20
0.0478766141732283
11
0.1175433070866142
21
0.0486299212598425
0
LINE
8
BLACK
6
CONTINUOUS
10
0.1175433070866142
20
0.0486299212598425
11
0.1175433070866142
21
0.1824881889763779
0
LINE
8
BLACK
6
CONTINUOUS
10
0.1175433070866142
20
0.1824881889763779
11
0.1176931496062992
21
0.1832414960629921
0
LINE
8
BLACK
6
CONTINUOUS
10
0.1176931496062992
20
0.1832414960629921
11
0.1187585039370079
21
0.1843068503937008
0
LINE
8
BLACK
6
CONTINUOUS
10
0.1187585039370079
20
0.1843068503937008
11
0.119511811023622
21
0.1844566929133858
0
LINE
8
BLACK
6
CONTINUOUS
10
0.119511811023622
20
0.1844566929133858
11
0.1966771653543307
21
0.1844566929133858
0
LINE
8
BLACK
6
CONTINUOUS
10
0.1966771653543307
20
0.1844566929133858
11
0.1974304724409449
21
0.1843068503937008
0
LINE
8
BLACK
6
CONTINUOUS
10
0.1214803149606299
20
0.1805196850393701
11
0.1214803149606299
21
0.0505984251968504
0
LINE
8
BLACK
6
CONTINUOUS
10
0.1214803149606299
20
0.0505984251968504
11
0.1947086614173228
21
0.0505984251968504
0
LINE
8
BLACK
6
CONTINUOUS
10
0.1947086614173228
20
0.0505984251968504
11
0.1947086614173228
21
0.1805196850393701
0
LINE
8
BLACK
6
CONTINUOUS
10
0.1947086614173228
20
0.1805196850393701
11
0.1214803149606299
21
0.1805196850393701
0
LINE
8
BLACK
6
CONTINUOUS
10
0.3537769291338583
20
0.2400863779527559
11
0.3548422834645669
21
0.2390210236220472
0
LINE
8
BLACK
6
CONTINUOUS
10
0.3548422834645669
20
0.2390210236220472
11
0.3549921259842519
21
0.2382677165354331
0
LINE
8
BLACK
6
CONTINUOUS
10
0.3549921259842519
20
0.2382677165354331
11
0.3549921259842519
21
0.0768503937007874
0
LINE
8
BLACK
6
CONTINUOUS
10
0.3549921259842519
20
0.0768503937007874
11
0.3548422834645669
21
0.0760970866141732
0
LINE
8
BLACK
6
CONTINUOUS
10
0.3548422834645669
20
0.0760970866141732
11
0.3537769291338583
21
0.0750317322834646
0
LINE
8
BLACK
6
CONTINUOUS
10
0.3537769291338583
20
0.0750317322834646
11
0.3530236220472441
21
0.0748818897637795
0
LINE
8
BLACK
6
CONTINUOUS
10
0.3530236220472441
20
0.0748818897637795
11
0.2191653543307087
21
0.0748818897637795
0
LINE
8
BLACK
6
CONTINUOUS
10
0.2191653543307087
20
0.0748818897637795
11
0.2184120472440945
21
0.0750317322834646
0
LINE
8
BLACK
6
CONTINUOUS
10
0.2184120472440945
20
0.0750317322834646
11
0.2173466929133858
21
0.0760970866141732
0
LINE
8
BLACK
6
CONTINUOUS
10
0.2173466929133858
20
0.0760970866141732
11
0.2171968503937008
21
0.0768503937007874
0
LINE
8
BLACK
6
CONTINUOUS
10
0.2171968503937008
20
0.0768503937007874
11
0.2171968503937008
21
0.2382677165354331
0
LINE
8
BLACK
6
CONTINUOUS
10
0.2171968503937008
20
0.2382677165354331
11
0.2173466929133858
21
0.2390210236220472
0
LINE
8
BLACK
6
CONTINUOUS
10
0.2173466929133858
20
0.2390210236220472
11
0.2184120472440945
21
0.2400863779527559
0
LINE
8
BLACK
6
CONTINUOUS
10
0.2184120472440945
20
0.2400863779527559
11
0.2191653543307087
21
0.2402362204724409
0
LINE
8
BLACK
6
CONTINUOUS
10
0.2191653543307087
20
0.2402362204724409
11
0.3530236220472441
21
0.2402362204724409
0
LINE
8
BLACK
6
CONTINUOUS
10
0.3530236220472441
20
0.2402362204724409
11
0.3537769291338583
21
0.2400863779527559
0
LINE
8
BLACK
6
CONTINUOUS
10
0.2211338582677165
20
0.2362992125984252
11
0.2211338582677165
21
0.0788188976377953
0
LINE
8
BLACK
6
CONTINUOUS
10
0.2211338582677165
20
0.0788188976377953
11
0.3510551181102362
21
0.0788188976377953
0
LINE
8
BLACK
6
CONTINUOUS
10
0.3510551181102362
20
0.0788188976377953
11
0.3510551181102362
21
0.2362992125984252
0
LINE
8
BLACK
6
CONTINUOUS
10
0.3510551181102362
20
0.2362992125984252
11
0.2211338582677165
21
0.2362992125984252
0
LINE
8
BLACK
6
CONTINUOUS
10
0.1124068503937008
20
0.1835903149606299
11
0.1134722047244094
21
0.1825249606299213
0
LINE
8
BLACK
6
CONTINUOUS
10
0.1134722047244094
20
0.1825249606299213
11
0.1136220472440945
21
0.1817716535433071
0
LINE
8
BLACK
6
CONTINUOUS
10
0.1136220472440945
20
0.1817716535433071
11
0.1136220472440945
21
0.0833464566929134
0
LINE
8
BLACK
6
CONTINUOUS
10
0.1136220472440945
20
0.0833464566929134
11
0.1134722047244094
21
0.0825931496062992
0
LINE
8
BLACK
6
CONTINUOUS
10
0.1134722047244094
20
0.0825931496062992
11
0.1124068503937008
21
0.0815277952755906
0
LINE
8
BLACK
6
CONTINUOUS
10
0.1124068503937008
20
0.0815277952755906
11
0.1116535433070866
21
0.0813779527559055
0
LINE
8
BLACK
6
CONTINUOUS
10
0.1116535433070866
20
0.0813779527559055
11
0.0565354330708661
21
0.0813779527559055
0
LINE
8
BLACK
6
CONTINUOUS
10
0.0565354330708661
20
0.0813779527559055
11
0.055782125984252
21
0.0815277952755906
0
LINE
8
BLACK
6
CONTINUOUS
10
0.055782125984252
20
0.0815277952755906
11
0.0547167716535433
21
0.0825931496062992
0
LINE
8
BLACK
6
CONTINUOUS
10
0.0547167716535433
20
0.0825931496062992
11
0.0545669291338583
21
0.0833464566929134
0
LINE
8
BLACK
6
CONTINUOUS
10
0.0545669291338583
20
0.0833464566929134
11
0.0545669291338583
21
0.1817716535433071
0
LINE
8
BLACK
6
CONTINUOUS
10
0.0545669291338583
20
0.1817716535433071
11
0.0547167716535433
21
0.1825249606299213
0
LINE
8
BLACK
6
CONTINUOUS
10
0.0547167716535433
20
0.1825249606299213
11
0.055782125984252
21
0.1835903149606299
0
LINE
8
BLACK
6
CONTINUOUS
10
0.055782125984252
20
0.1835903149606299
11
0.0565354330708661
21
0.183740157480315
0
LINE
8
BLACK
6
CONTINUOUS
10
0.0565354330708661
20
0.183740157480315
11
0.1116535433070866
21
0.183740157480315
0
LINE
8
BLACK
6
CONTINUOUS
10
0.1116535433070866
20
0.183740157480315
11
0.1124068503937008
21
0.1835903149606299
0
LINE
8
BLACK
6
CONTINUOUS
10
0.058503937007874
20
0.1798031496062992
11
0.058503937007874
21
0.0853149606299213
0
LINE
8
BLACK
6
CONTINUOUS
10
0.058503937007874
20
0.0853149606299213
11
0.1096850393700787
21
0.0853149606299213
0
LINE
8
BLACK
6
CONTINUOUS
10
0.1096850393700787
20
0.0853149606299213
11
0.1096850393700787
21
0.1798031496062992
0
LINE
8
BLACK
6
CONTINUOUS
10
0.1096850393700787
20
0.1798031496062992
11
0.058503937007874
21
0.1798031496062992
0
LINE
8
BLACK
6
CONTINUOUS
10
0.4911155118110236
20
0.1535509448818898
11
0.4921808661417323
21
0.1524855905511811
0
LINE
8
BLACK
6
CONTINUOUS
10
0.4921808661417323
20
0.1524855905511811
11
0.4923307086614173
21
0.1517322834645669
0
LINE
8
BLACK
6
CONTINUOUS
10
0.4923307086614173
20
0.1517322834645669
11
0.4923307086614173
21
0.094251968503937
0
LINE
8
BLACK
6
CONTINUOUS
10
0.4923307086614173
20
0.094251968503937
11
0.4921808661417323
21
0.0934986614173228
0
LINE
8
BLACK
6
CONTINUOUS
10
0.4921808661417323
20
0.0934986614173228
11
0.4911155118110236
21
0.0924333070866142
0
LINE
8
BLACK
6
CONTINUOUS
10
0.4911155118110236
20
0.0924333070866142
11
0.4903622047244094
21
0.0922834645669291
0
LINE
8
BLACK
6
CONTINUOUS
10
0.4903622047244094
20
0.0922834645669291
11
0.3738267716535433
21
0.0922834645669291
0
LINE
8
BLACK
6
CONTINUOUS
10
0.3738267716535433
20
0.0922834645669291
11
0.3730734645669291
21
0.0924333070866142
0
LINE
8
BLACK
6
CONTINUOUS
10
0.3730734645669291
20
0.0924333070866142
11
0.3720081102362205
21
0.0934986614173228
0
LINE
8
BLACK
6
CONTINUOUS
10
0.3720081102362205
20
0.0934986614173228
11
0.3718582677165354
21
0.094251968503937
0
LINE
8
BLACK
6
CONTINUOUS
10
0.3718582677165354
20
0.094251968503937
11
0.3718582677165354
21
0.1517322834645669
0
LINE
8
BLACK
6
CONTINUOUS
10
0.3718582677165354
20
0.1517322834645669
11
0.3720081102362205
21
0.1524855905511811
0
LINE
8
BLACK
6
CONTINUOUS
10
0.3720081102362205
20
0.1524855905511811
11
0.3730734645669291
21
0.1535509448818898
0
LINE
8
BLACK
6
CONTINUOUS
10
0.3730734645669291
20
0.1535509448818898
11
0.3738267716535433
21
0.1537007874015748
0
LINE
8
BLACK
6
CONTINUOUS
10
0.3738267716535433
20
0.1537007874015748
11
0.4903622047244094
21
0.1537007874015748
0
LINE
8
BLACK
6
CONTINUOUS
10
0.4903622047244094
20
0.1537007874015748
11
0.4911155118110236
21
0.1535509448818898
0
LINE
8
BLACK
6
CONTINUOUS
10
0.3757952755905511
20
0.1497637795275591
11
0.3757952755905511
21
0.0962204724409449
0
LINE
8
BLACK
6
CONTINUOUS
10
0.3757952755905511
20
0.0962204724409449
11
0.4883937007874016
21
0.0962204724409449
0
LINE
8
BLACK
6
CONTINUOUS
10
0.4883937007874016
20
0.0962204724409449
11
0.4883937007874016
21
0.1497637795275591
0
LINE
8
BLACK
6
CONTINUOUS
10
0.4883937007874016
20
0.1497637795275591
11
0.3757952755905511
21
0.1497637795275591
0
LINE
8
BLACK
6
CONTINUOUS
10
0.4575879527559055
20
0.2911651181102362
11
0.4586533070866142
21
0.2900997637795276
0
LINE
8
BLACK
6
CONTINUOUS
10
0.4586533070866142
20
0.2900997637795276
11
0.4588031496062992
21
0.2893464566929134
0
LINE
8
BLACK
6
CONTINUOUS
10
0.4588031496062992
20
0.2893464566929134
11
0.4588031496062992
21
0.1728110236220472
0
LINE
8
BLACK
6
CONTINUOUS
10
0.4588031496062992
20
0.1728110236220472
11
0.4586533070866142
21
0.1720577165354331
0
LINE
8
BLACK
6
CONTINUOUS
10
0.4586533070866142
20
0.1720577165354331
11
0.4575879527559055
21
0.1709923622047244
0
LINE
8
BLACK
6
CONTINUOUS
10
0.4575879527559055
20
0.1709923622047244
11
0.4568346456692913
21
0.1708425196850394
0
LINE
8
BLACK
6
CONTINUOUS
10
0.4568346456692913
20
0.1708425196850394
11
0.3993543307086614
21
0.1708425196850394
0
LINE
8
BLACK
6
CONTINUOUS
10
0.3993543307086614
20
0.1708425196850394
11
0.3986010236220472
21
0.1709923622047244
0
LINE
8
BLACK
6
CONTINUOUS
10
0.3986010236220472
20
0.1709923622047244
11
0.3975356692913386
21
0.1720577165354331
0
LINE
8
BLACK
6
CONTINUOUS
10
0.3975356692913386
20
0.1720577165354331
11
0.3973858267716535
21
0.1728110236220472
0
LINE
8
BLACK
6
CONTINUOUS
10
0.3973858267716535
20
0.1728110236220472
11
0.3973858267716535
21
0.2893464566929134
0
LINE
8
BLACK
6
CONTINUOUS
10
0.3973858267716535
20
0.2893464566929134
11
0.3975356692913386
21
0.2900997637795276
0
LINE
8
BLACK
6
CONTINUOUS
10
0.3975356692913386
20
0.2900997637795276
11
0.3986010236220472
21
0.2911651181102362
0
LINE
8
BLACK
6
CONTINUOUS
10
0.3986010236220472
20
0.2911651181102362
11
0.3993543307086614
21
0.2913149606299212
0
LINE
8
BLACK
6
CONTINUOUS
10
0.3993543307086614
20
0.2913149606299212
11
0.4568346456692913
21
0.2913149606299212
0
LINE
8
BLACK
6
CONTINUOUS
10
0.4568346456692913
20
0.2913149606299212
11
0.4575879527559055
21
0.2911651181102362
0
LINE
8
BLACK
6
CONTINUOUS
10
0.4013228346456693
20
0.2873779527559055
11
0.4013228346456693
21
0.1747795275590551
0
LINE
8
BLACK
6
CONTINUOUS
10
0.4013228346456693
20
0.1747795275590551
11
0.4548661417322835
21
0.1747795275590551
0
LINE
8
BLACK
6
CONTINUOUS
10
0.4548661417322835
20
0.1747795275590551
11
0.4548661417322835
21
0.2873779527559055
0
LINE
8
BLACK
6
CONTINUOUS
10
0.4548661417322835
20
0.2873779527559055
11
0.4013228346456693
21
0.2873779527559055
0
LINE
8
BLACK
6
CONTINUOUS
10
0.1385485826771654
20
0.3132359842519685
11
0.139613937007874
21
0.3121706299212598
0
LINE
8
BLACK
6
CONTINUOUS
10
0.139613937007874
20
0.3121706299212598
11
0.1397637795275591
21
0.3114173228346457
0
LINE
8
BLACK
6
CONTINUOUS
10
0.1397637795275591
20
0.3114173228346457
11
0.1397637795275591
21
0.1948818897637795
0
LINE
8
BLACK
6
CONTINUOUS
10
0.1397637795275591
20
0.1948818897637795
11
0.139613937007874
21
0.1941285826771653
0
LINE
8
BLACK
6
CONTINUOUS
10
0.139613937007874
20
0.1941285826771653
11
0.1385485826771654
21
0.1930632283464567
0
LINE
8
BLACK
6
CONTINUOUS
10
0.1385485826771654
20
0.1930632283464567
11
0.1377952755905512
21
0.1929133858267716
0
LINE
8
BLACK
6
CONTINUOUS
10
0.1377952755905512
20
0.1929133858267716
11
0.0803149606299213
21
0.1929133858267716
0
LINE
8
BLACK
6
CONTINUOUS
10
0.0803149606299213
20
0.1929133858267716
11
0.0795616535433071
21
0.1930632283464567
0
LINE
8
BLACK
6
CONTINUOUS
10
0.0795616535433071
20
0.1930632283464567
11
0.0784962992125984
21
0.1941285826771653
0
LINE
8
BLACK
6
CONTINUOUS
10
0.0784962992125984
20
0.1941285826771653
11
0.0783464566929134
21
0.1948818897637795
0
LINE
8
BLACK
6
CONTINUOUS
10
0.0783464566929134
20
0.1948818897637795
11
0.0783464566929134
21
0.3114173228346457
0
LINE
8
BLACK
6
CONTINUOUS
10
0.0783464566929134
20
0.3114173228346457
11
0.0784962992125984
21
0.3121706299212598
0
LINE
8
BLACK
6
CONTINUOUS
10
0.0784962992125984
20
0.3121706299212598
11
0.0795616535433071
21
0.3132359842519685
0
LINE
8
BLACK
6
CONTINUOUS
10
0.0795616535433071
20
0.3132359842519685
11
0.0803149606299213
21
0.3133858267716536
0
LINE
8
BLACK
6
CONTINUOUS
10
0.0803149606299213
20
0.3133858267716536
11
0.1377952755905512
21
0.3133858267716536
0
LINE
8
BLACK
6
CONTINUOUS
10
0.1377952755905512
20
0.3133858267716536
11
0.1385485826771654
21
0.3132359842519685
0
LINE
8
BLACK
6
CONTINUOUS
10
0.0822834645669291
20
0.3094488188976378
11
0.0822834645669291
21
0.1968503937007874
0
LINE
8
BLACK
6
CONTINUOUS
10
0.0822834645669291
20
0.1968503937007874
11
0.1358267716535433
21
0.1968503937007874
0
LINE
8
BLACK
6
CONTINUOUS
10
0.1358267716535433
20
0.1968503937007874
11
0.1358267716535433
21
0.3094488188976378
0
LINE
8
BLACK
6
CONTINUOUS
10
0.1358267716535433
20
0.3094488188976378
11
0.0822834645669291
21
0.3094488188976378
0
LINE
8
BLACK
6
CONTINUOUS
10
0.2095879527559055
20
0.3156454330708661
11
0.2106533070866142
21
0.3145800787401575
0
LINE
8
BLACK
6
CONTINUOUS
10
0.2106533070866142
20
0.3145800787401575
11
0.2108031496062992
21
0.3138267716535433
0
LINE
8
BLACK
6
CONTINUOUS
10
0.2108031496062992
20
0.3138267716535433
11
0.2108031496062992
21
0.1972913385826772
0
LINE
8
BLACK
6
CONTINUOUS
10
0.2108031496062992
20
0.1972913385826772
11
0.2106533070866142
21
0.196538031496063
0
LINE
8
BLACK
6
CONTINUOUS
10
0.2106533070866142
20
0.196538031496063
11
0.2095879527559055
21
0.1954726771653543
0
LINE
8
BLACK
6
CONTINUOUS
10
0.2095879527559055
20
0.1954726771653543
11
0.2088346456692913
21
0.1953228346456693
0
LINE
8
BLACK
6
CONTINUOUS
10
0.2088346456692913
20
0.1953228346456693
11
0.1513543307086614
21
0.1953228346456693
0
LINE
8
BLACK
6
CONTINUOUS
10
0.1513543307086614
20
0.1953228346456693
11
0.1506010236220472
21
0.1954726771653543
0
LINE
8
BLACK
6
CONTINUOUS
10
0.1506010236220472
20
0.1954726771653543
11
0.1495356692913386
21
0.196538031496063
0
LINE
8
BLACK
6
CONTINUOUS
10
0.1495356692913386
20
0.196538031496063
11
0.1493858267716535
21
0.1972913385826772
0
LINE
8
BLACK
6
CONTINUOUS
10
0.1493858267716535
20
0.1972913385826772
11
0.1493858267716535
21
0.3138267716535433
0
LINE
8
BLACK
6
CONTINUOUS
10
0.1493858267716535
20
0.3138267716535433
11
0.1495356692913386
21
0.3145800787401575
0
LINE
8
BLACK
6
CONTINUOUS
10
0.1495356692913386
20
0.3145800787401575
11
0.1506010236220472
21
0.3156454330708661
0
LINE
8
BLACK
6
CONTINUOUS
10
0.1506010236220472
20
0.3156454330708661
11
0.1513543307086614
21
0.3157952755905511
0
LINE
8
BLACK
6
CONTINUOUS
10
0.1513543307086614
20
0.3157952755905511
11
0.2088346456692913
21
0.3157952755905511
0
LINE
8
BLACK
6
CONTINUOUS
10
0.2088346456692913
20
0.3157952755905511
11
0.2095879527559055
21
0.3156454330708661
0
LINE
8
BLACK
6
CONTINUOUS
10
0.1533228346456693
20
0.3118582677165354
11
0.1533228346456693
21
0.199259842519685
0
LINE
8
BLACK
6
CONTINUOUS
10
0.1533228346456693
20
0.199259842519685
11
0.2068661417322835
21
0.199259842519685
0
LINE
8
BLACK
6
CONTINUOUS
10
0.2068661417322835
20
0.199259842519685
11
0.2068661417322835
21
0.3118582677165354
0
LINE
8
BLACK
6
CONTINUOUS
10
0.2068661417322835
20
0.3118582677165354
11
0.1533228346456693
21
0.3118582677165354
0
LINE
8
BLACK
6
CONTINUOUS
10
0.39721
20
0.564117874015748
11
0.3982753543307087
21
0.5630525196850393
0
LINE
8
BLACK
6
CONTINUOUS
10
0.3982753543307087
20
0.5630525196850393
11
0.3984251968503937
21
0.5622992125984252
0
LINE
8
BLACK
6
CONTINUOUS
10
0.3984251968503937
20
0.5622992125984252
11
0.3984251968503937
21
0.4185050393700787
0
LINE
8
BLACK
6
CONTINUOUS
10
0.3984251968503937
20
0.4185050393700787
11
0.3985356692913386
21
0.4190603937007874
0
LINE
8
BLACK
6
CONTINUOUS
10
0.3985356692913386
20
0.4190603937007874
11
0.3996010236220472
21
0.420125748031496
0
LINE
8
BLACK
6
CONTINUOUS
10
0.3996010236220472
20
0.420125748031496
11
0.4003543307086614
21
0.4202755905511811
0
LINE
8
BLACK
6
CONTINUOUS
10
0.4003543307086614
20
0.4202755905511811
11
0.4578346456692913
21
0.4202755905511811
0
LINE
8
BLACK
6
CONTINUOUS
10
0.4578346456692913
20
0.4202755905511811
11
0.4585879527559055
21
0.420125748031496
0
LINE
8
BLACK
6
CONTINUOUS
10
0.4585879527559055
20
0.420125748031496
11
0.4596533070866142
21
0.4190603937007874
0
LINE
8
BLACK
6
CONTINUOUS
10
0.4596533070866142
20
0.4190603937007874
11
0.4598031496062992
21
0.4183070866141732
0
LINE
8
BLACK
6
CONTINUOUS
10
0.4598031496062992
20
0.4183070866141732
11
0.4598031496062992
21
0.3017716535433071
0
LINE
8
BLACK
6
CONTINUOUS
10
0.4598031496062992
20
0.3017716535433071
11
0.4596533070866142
21
0.3010183464566929
0
LINE
8
BLACK
6
CONTINUOUS
10
0.4596533070866142
20
0.3010183464566929
11
0.4585879527559055
21
0.2999529921259843
0
LINE
8
BLACK
6
CONTINUOUS
10
0.4585879527559055
20
0.2999529921259843
11
0.4578346456692913
21
0.2998031496062992
0
LINE
8
BLACK
6
CONTINUOUS
10
0.4578346456692913
20
0.2998031496062992
11
0.4003543307086614
21
0.2998031496062992
0
LINE
8
BLACK
6
CONTINUOUS
10
0.4003543307086614
20
0.2998031496062992
11
0.3996010236220472
21
0.2999529921259843
0
LINE
8
BLACK
6
CONTINUOUS
10
0.3996010236220472
20
0.2999529921259843
11
0.3985356692913386
21
0.3010183464566929
0
LINE
8
BLACK
6
CONTINUOUS
10
0.3985356692913386
20
0.3010183464566929
11
0.3983858267716535
21
0.3017716535433071
0
LINE
8
BLACK
6
CONTINUOUS
10
0.3983858267716535
20
0.3017716535433071
11
0.3983858267716535
21
0.4046209842519685
0
LINE
8
BLACK
6
CONTINUOUS
10
0.3983858267716535
20
0.4046209842519685
11
0.3982753543307087
21
0.4040655905511811
0
LINE
8
BLACK
6
CONTINUOUS
10
0.3982753543307087
20
0.4040655905511811
11
0.39721
21
0.4030002362204724
0
LINE
8
BLACK
6
CONTINUOUS
10
0.39721
20
0.4030002362204724
11
0.3964566929133858
21
0.4028503937007874
0
LINE
8
BLACK
6
CONTINUOUS
10
0.3964566929133858
20
0.4028503937007874
11
0.1759842519685039
21
0.4028503937007874
0
LINE
8
BLACK
6
CONTINUOUS
10
0.1759842519685039
20
0.4028503937007874
11
0.1752309448818898
21
0.4030002362204724
0
LINE
8
BLACK
6
CONTINUOUS
10
0.1752309448818898
20
0.4030002362204724
11
0.1741655905511811
21
0.4040655905511811
0
LINE
8
BLACK
6
CONTINUOUS
10
0.1741655905511811
20
0.4040655905511811
11
0.1740157480314961
21
0.4048188976377953
0
LINE
8
BLACK
6
CONTINUOUS
10
0.1740157480314961
20
0.4048188976377953
11
0.1740157480314961
21
0.5622992125984252
0
LINE
8
BLACK
6
CONTINUOUS
10
0.1740157480314961
20
0.5622992125984252
11
0.1741655905511811
21
0.5630525196850393
0
LINE
8
BLACK
6
CONTINUOUS
10
0.1741655905511811
20
0.5630525196850393
11
0.1752309448818898
21
0.564117874015748
0
LINE
8
BLACK
6
CONTINUOUS
10
0.1752309448818898
20
0.564117874015748
11
0.1759842519685039
21
0.5642677165354331
0
LINE
8
BLACK
6
CONTINUOUS
10
0.1759842519685039
20
0.5642677165354331
11
0.3964566929133858
21
0.5642677165354331
0
LINE
8
BLACK
6
CONTINUOUS
10
0.3964566929133858
20
0.5642677165354331
11
0.39721
21
0.564117874015748
0
LINE
8
BLACK
6
CONTINUOUS
10
0.4023228346456693
20
0.4163385826771653
11
0.4023228346456693
21
0.303740157480315
0
LINE
8
BLACK
6
CONTINUOUS
10
0.4023228346456693
20
0.303740157480315
11
0.4558661417322835
21
0.303740157480315
0
LINE
8
BLACK
6
CONTINUOUS
10
0.4558661417322835
20
0.303740157480315
11
0.4558661417322835
21
0.4163385826771653
0
LINE
8
BLACK
6
CONTINUOUS
10
0.4558661417322835
20
0.4163385826771653
11
0.4023228346456693
21
0.4163385826771653
0
LINE
8
BLACK
6
CONTINUOUS
10
0.1779527559055118
20
0.5603307086614173
11
0.1779527559055118
21
0.4067874015748031
0
LINE
8
BLACK
6
CONTINUOUS
10
0.1779527559055118
20
0.4067874015748031
11
0.3944881889763779
21
0.4067874015748031
0
LINE
8
BLACK
6
CONTINUOUS
10
0.3944881889763779
20
0.4067874015748031
11
0.3944881889763779
21
0.5603307086614173
0
LINE
8
BLACK
6
CONTINUOUS
10
0.3944881889763779
20
0.5603307086614173
11
0.1779527559055118
21
0.5603307086614173
0
LINE
8
BLACK
6
CONTINUOUS
10
0.1635879527559055
20
0.4796454330708662
11
0.1646533070866142
21
0.4785800787401575
0
LINE
8
BLACK
6
CONTINUOUS
10
0.1646533070866142
20
0.4785800787401575
11
0.1648031496062992
21
0.4778267716535433
0
LINE
8
BLACK
6
CONTINUOUS
10
0.1648031496062992
20
0.4778267716535433
11
0.1648031496062992
21
0.3612913385826771
0
LINE
8
BLACK
6
CONTINUOUS
10
0.1648031496062992
20
0.3612913385826771
11
0.1646533070866142
21
0.360538031496063
0
LINE
8
BLACK
6
CONTINUOUS
10
0.1646533070866142
20
0.360538031496063
11
0.1635879527559055
21
0.3594726771653543
0
LINE
8
BLACK
6
CONTINUOUS
10
0.1635879527559055
20
0.3594726771653543
11
0.1628346456692913
21
0.3593228346456693
0
LINE
8
BLACK
6
CONTINUOUS
10
0.1628346456692913
20
0.3593228346456693
11
0.1053543307086614
21
0.3593228346456693
0
LINE
8
BLACK
6
CONTINUOUS
10
0.1053543307086614
20
0.3593228346456693
11
0.1046010236220472
21
0.3594726771653543
0
LINE
8
BLACK
6
CONTINUOUS
10
0.1046010236220472
20
0.3594726771653543
11
0.1035356692913386
21
0.360538031496063
0
LINE
8
BLACK
6
CONTINUOUS
10
0.1035356692913386
20
0.360538031496063
11
0.1033858267716535
21
0.3612913385826771
0
LINE
8
BLACK
6
CONTINUOUS
10
0.1033858267716535
20
0.3612913385826771
11
0.1033858267716535
21
0.4778267716535433
0
LINE
8
BLACK
6
CONTINUOUS
10
0.1033858267716535
20
0.4778267716535433
11
0.1035356692913386
21
0.4785800787401575
0
LINE
8
BLACK
6
CONTINUOUS
10
0.1035356692913386
20
0.4785800787401575
11
0.1046010236220472
21
0.4796454330708662
0
LINE
8
BLACK
6
CONTINUOUS
10
0.1046010236220472
20
0.4796454330708662
11
0.1053543307086614
21
0.4797952755905512
0
LINE
8
BLACK
6
CONTINUOUS
10
0.1053543307086614
20
0.4797952755905512
11
0.1628346456692913
21
0.4797952755905512
0
LINE
8
BLACK
6
CONTINUOUS
10
0.1628346456692913
20
0.4797952755905512
11
0.1635879527559055
21
0.4796454330708662
0
LINE
8
BLACK
6
CONTINUOUS
10
0.1073228346456693
20
0.4758582677165354
11
0.1073228346456693
21
0.363259842519685
0
LINE
8
BLACK
6
CONTINUOUS
10
0.1073228346456693
20
0.363259842519685
11
0.1608661417322835
21
0.363259842519685
0
LINE
8
BLACK
6
CONTINUOUS
10
0.1608661417322835
20
0.363259842519685
11
0.1608661417322835
21
0.4758582677165354
0
LINE
8
BLACK
6
CONTINUOUS
10
0.1608661417322835
20
0.4758582677165354
11
0.1073228346456693
21
0.4758582677165354
0
LINE
8
BLACK
6
CONTINUOUS
10
0.0507533070866142
20
0.8148107874015748
11
0.0518186614173228
21
0.8137454330708661
0
LINE
8
BLACK
6
CONTINUOUS
10
0.0518186614173228
20
0.8137454330708661
11
0.0519685039370079
21
0.812992125984252
0
LINE
8
BLACK
6
CONTINUOUS
10
0.0519685039370079
20
0.812992125984252
11
0.0519685039370079
21
0.550267716535433
0
LINE
8
BLACK
6
CONTINUOUS
10
0.0519685039370079
20
0.550267716535433
11
0.1673622047244094
21
0.550267716535433
0
LINE
8
BLACK
6
CONTINUOUS
10
0.1673622047244094
20
0.550267716535433
11
0.1681155118110236
21
0.550117874015748
0
LINE
8
BLACK
6
CONTINUOUS
10
0.1681155118110236
20
0.550117874015748
11
0.1691808661417323
21
0.5490525196850393
0
LINE
8
BLACK
6
CONTINUOUS
10
0.1691808661417323
20
0.5490525196850393
11
0.1693307086614173
21
0.5482992125984252
0
LINE
8
BLACK
6
CONTINUOUS
10
0.1693307086614173
20
0.5482992125984252
11
0.1693307086614173
21
0.4908188976377952
0
LINE
8
BLACK
6
CONTINUOUS
10
0.1693307086614173
20
0.4908188976377952
11
0.1691808661417323
21
0.4900655905511811
0
LINE
8
BLACK
6
CONTINUOUS
10
0.1691808661417323
20
0.4900655905511811
11
0.1681155118110236
21
0.4890002362204725
0
LINE
8
BLACK
6
CONTINUOUS
10
0.1681155118110236
20
0.4890002362204725
11
0.1673622047244094
21
0.4888503937007874
0
LINE
8
BLACK
6
CONTINUOUS
10
0.1673622047244094
20
0.4888503937007874
11
0.0519685039370079
21
0.4888503937007874
0
LINE
8
BLACK
6
CONTINUOUS
10
0.0519685039370079
20
0.4888503937007874
11
0.0519685039370079
21
0.4413385826771654
0
LINE
8
BLACK
6
CONTINUOUS
10
0.0519685039370079
20
0.4413385826771654
11
0.0518186614173228
21
0.4405852755905512
0
LINE
8
BLACK
6
CONTINUOUS
10
0.0518186614173228
20
0.4405852755905512
11
0.0507533070866142
21
0.4395199212598425
0
LINE
8
BLACK
6
CONTINUOUS
10
0.0507533070866142
20
0.4395199212598425
11
0.05
21
0.4393700787401575
0
LINE
8
BLACK
6
CONTINUOUS
10
0.05
20
0.4393700787401575
11
-0.2019685039370079
21
0.4393700787401575
0
LINE
8
BLACK
6
CONTINUOUS
10
-0.2019685039370079
20
0.4393700787401575
11
-0.2027218110236221
21
0.4395199212598425
0
LINE
8
BLACK
6
CONTINUOUS
10
-0.2027218110236221
20
0.4395199212598425
11
-0.2037871653543307
21
0.4405852755905512
0
LINE
8
BLACK
6
CONTINUOUS
10
-0.2037871653543307
20
0.4405852755905512
11
-0.2039370078740158
21
0.4413385826771654
0
LINE
8
BLACK
6
CONTINUOUS
10
-0.2039370078740158
20
0.4413385826771654
11
-0.2039370078740158
21
0.812992125984252
0
LINE
8
BLACK
6
CONTINUOUS
10
-0.2039370078740158
20
0.812992125984252
11
-0.2037871653543307
21
0.8137454330708661
0
LINE
8
BLACK
6
CONTINUOUS
10
-0.2037871653543307
20
0.8137454330708661
11
-0.2027218110236221
21
0.8148107874015748
0
LINE
8
BLACK
6
CONTINUOUS
10
-0.2027218110236221
20
0.8148107874015748
11
-0.2019685039370079
21
0.8149606299212598
0
LINE
8
BLACK
6
CONTINUOUS
10
-0.2019685039370079
20
0.8149606299212598
11
0.05
21
0.8149606299212598
0
LINE
8
BLACK
6
CONTINUOUS
10
0.05
20
0.8149606299212598
11
0.0507533070866142
21
0.8148107874015748
0
LINE
8
BLACK
6
CONTINUOUS
10
-0.2
20
0.8110236220472441
11
-0.2
21
0.4433070866141732
0
LINE
8
BLACK
6
CONTINUOUS
10
-0.2
20
0.4433070866141732
11
0.0480314960629921
21
0.4433070866141732
0
LINE
8
BLACK
6
CONTINUOUS
10
0.0480314960629921
20
0.4433070866141732
11
0.0480314960629921
21
0.8110236220472441
0
LINE
8
BLACK
6
CONTINUOUS
10
0.0480314960629921
20
0.8110236220472441
11
-0.2
21
0.8110236220472441
0
LINE
8
BLACK
6
CONTINUOUS
10
0.0527952755905512
20
0.5463307086614173
11
0.0527952755905512
21
0.4927874015748032
0
LINE
8
BLACK
6
CONTINUOUS
10
0.0527952755905512
20
0.4927874015748032
11
0.1653937007874016
21
0.4927874015748032
0
LINE
8
BLACK
6
CONTINUOUS
10
0.1653937007874016
20
0.4927874015748032
11
0.1653937007874016
21
0.5463307086614173
0
LINE
8
BLACK
6
CONTINUOUS
10
0.1653937007874016
20
0.5463307086614173
11
0.0527952755905512
21
0.5463307086614173
0
LINE
8
BLACK
6
CONTINUOUS
10
0.7751627559055118
20
0.8148107874015748
11
0.7762281102362204
21
0.8137454330708661
0
LINE
8
BLACK
6
CONTINUOUS
10
0.7762281102362204
20
0.8137454330708661
11
0.7763779527559055
21
0.812992125984252
0
LINE
8
BLACK
6
CONTINUOUS
10
0.7763779527559055
20
0.812992125984252
11
0.7763779527559055
21
0.4413385826771654
0
LINE
8
BLACK
6
CONTINUOUS
10
0.7763779527559055
20
0.4413385826771654
11
0.7762281102362204
21
0.4405852755905512
0
LINE
8
BLACK
6
CONTINUOUS
10
0.7762281102362204
20
0.4405852755905512
11
0.7751627559055118
21
0.4395199212598425
0
LINE
8
BLACK
6
CONTINUOUS
10
0.7751627559055118
20
0.4395199212598425
11
0.7744094488188976
21
0.4393700787401575
0
LINE
8
BLACK
6
CONTINUOUS
10
0.7744094488188976
20
0.4393700787401575
11
0.5224409448818897
21
0.4393700787401575
0
LINE
8
BLACK
6
CONTINUOUS
10
0.5224409448818897
20
0.4393700787401575
11
0.5216876377952756
21
0.4395199212598425
0
LINE
8
BLACK
6
CONTINUOUS
10
0.5216876377952756
20
0.4395199212598425
11
0.520622283464567
21
0.4405852755905512
0
LINE
8
BLACK
6
CONTINUOUS
10
0.520622283464567
20
0.4405852755905512
11
0.5204724409448819
21
0.4413385826771654
0
LINE
8
BLACK
6
CONTINUOUS
10
0.5204724409448819
20
0.4413385826771654
11
0.5204724409448819
21
0.812992125984252
0
LINE
8
BLACK
6
CONTINUOUS
10
0.5204724409448819
20
0.812992125984252
11
0.520622283464567
21
0.8137454330708661
0
LINE
8
BLACK
6
CONTINUOUS
10
0.520622283464567
20
0.8137454330708661
11
0.5216876377952756
21
0.8148107874015748
0
LINE
8
BLACK
6
CONTINUOUS
10
0.5216876377952756
20
0.8148107874015748
11
0.5224409448818897
21
0.8149606299212598
0
LINE
8
BLACK
6
CONTINUOUS
10
0.5224409448818897
20
0.8149606299212598
11
0.7744094488188976
21
0.8149606299212598
0
LINE
8
BLACK
6
CONTINUOUS
10
0.7744094488188976
20
0.8149606299212598
11
0.7751627559055118
21
0.8148107874015748
0
LINE
8
BLACK
6
CONTINUOUS
10
0.5244094488188976
20
0.8110236220472441
11
0.5244094488188976
21
0.4433070866141732
0
LINE
8
BLACK
6
CONTINUOUS
10
0.5244094488188976
20
0.4433070866141732
11
0.7724409448818897
21
0.4433070866141732
0
LINE
8
BLACK
6
CONTINUOUS
10
0.7724409448818897
20
0.4433070866141732
11
0.7724409448818897
21
0.8110236220472441
0
LINE
8
BLACK
6
CONTINUOUS
10
0.7724409448818897
20
0.8110236220472441
11
0.5244094488188976
21
0.8110236220472441
0
LINE
8
BLACK
6
CONTINUOUS
10
0.4685879527559055
20
0.562133622047244
11
0.4696533070866142
21
0.5610682677165354
0
LINE
8
BLACK
6
CONTINUOUS
10
0.4696533070866142
20
0.5610682677165354
11
0.4698031496062992
21
0.5603149606299213
0
LINE
8
BLACK
6
CONTINUOUS
10
0.4698031496062992
20
0.5603149606299213
11
0.4698031496062992
21
0.4437795275590551
0
LINE
8
BLACK
6
CONTINUOUS
10
0.4698031496062992
20
0.4437795275590551
11
0.4696533070866142
21
0.4430262204724409
0
LINE
8
BLACK
6
CONTINUOUS
10
0.4696533070866142
20
0.4430262204724409
11
0.4685879527559055
21
0.4419608661417323
0
LINE
8
BLACK
6
CONTINUOUS
10
0.4685879527559055
20
0.4419608661417323
11
0.4678346456692913
21
0.4418110236220472
0
LINE
8
BLACK
6
CONTINUOUS
10
0.4678346456692913
20
0.4418110236220472
11
0.4103543307086614
21
0.4418110236220472
0
LINE
8
BLACK
6
CONTINUOUS
10
0.4103543307086614
20
0.4418110236220472
11
0.4096010236220473
21
0.4419608661417323
0
LINE
8
BLACK
6
CONTINUOUS
10
0.4096010236220473
20
0.4419608661417323
11
0.4085356692913386
21
0.4430262204724409
0
LINE
8
BLACK
6
CONTINUOUS
10
0.4085356692913386
20
0.4430262204724409
11
0.4083858267716535
21
0.4437795275590551
0
LINE
8
BLACK
6
CONTINUOUS
10
0.4083858267716535
20
0.4437795275590551
11
0.4083858267716535
21
0.5603149606299213
0
LINE
8
BLACK
6
CONTINUOUS
10
0.4083858267716535
20
0.5603149606299213
11
0.4085356692913386
21
0.5610682677165354
0
LINE
8
BLACK
6
CONTINUOUS
10
0.4085356692913386
20
0.5610682677165354
11
0.4096010236220473
21
0.562133622047244
0
LINE
8
BLACK
6
CONTINUOUS
10
0.4096010236220473
20
0.562133622047244
11
0.4103543307086614
21
0.5622834645669291
0
LINE
8
BLACK
6
CONTINUOUS
10
0.4103543307086614
20
0.5622834645669291
11
0.4678346456692913
21
0.5622834645669291
0
LINE
8
BLACK
6
CONTINUOUS
10
0.4678346456692913
20
0.5622834645669291
11
0.4685879527559055
21
0.562133622047244
0
LINE
8
BLACK
6
CONTINUOUS
10
0.4123228346456693
20
0.5583464566929134
11
0.4123228346456693
21
0.445748031496063
0
LINE
8
BLACK
6
CONTINUOUS
10
0.4123228346456693
20
0.445748031496063
11
0.4658661417322835
21
0.445748031496063
0
LINE
8
BLACK
6
CONTINUOUS
10
0.4658661417322835
20
0.445748031496063
11
0.4658661417322835
21
0.5583464566929134
0
LINE
8
BLACK
6
CONTINUOUS
10
0.4658661417322835
20
0.5583464566929134
11
0.4123228346456693
21
0.5583464566929134
0
LINE
8
BLACK
6
CONTINUOUS
10
0.1485879527559055
20
0.6881257480314961
11
0.1496533070866142
21
0.6870603937007874
0
LINE
8
BLACK
6
CONTINUOUS
10
0.1496533070866142
20
0.6870603937007874
11
0.1498031496062992
21
0.6863070866141732
0
LINE
8
BLACK
6
CONTINUOUS
10
0.1498031496062992
20
0.6863070866141732
11
0.1498031496062992
21
0.5697716535433071
0
LINE
8
BLACK
6
CONTINUOUS
10
0.1498031496062992
20
0.5697716535433071
11
0.1496533070866142
21
0.5690183464566929
0
LINE
8
BLACK
6
CONTINUOUS
10
0.1496533070866142
20
0.5690183464566929
11
0.1485879527559055
21
0.5679529921259843
0
LINE
8
BLACK
6
CONTINUOUS
10
0.1485879527559055
20
0.5679529921259843
11
0.1478346456692913
21
0.5678031496062992
0
LINE
8
BLACK
6
CONTINUOUS
10
0.1478346456692913
20
0.5678031496062992
11
0.0903543307086614
21
0.5678031496062992
0
LINE
8
BLACK
6
CONTINUOUS
10
0.0903543307086614
20
0.5678031496062992
11
0.0896010236220472
21
0.5679529921259843
0
LINE
8
BLACK
6
CONTINUOUS
10
0.0896010236220472
20
0.5679529921259843
11
0.0885356692913386
21
0.5690183464566929
0
LINE
8
BLACK
6
CONTINUOUS
10
0.0885356692913386
20
0.5690183464566929
11
0.0883858267716535
21
0.5697716535433071
0
LINE
8
BLACK
6
CONTINUOUS
10
0.0883858267716535
20
0.5697716535433071
11
0.0883858267716535
21
0.6863070866141732
0
LINE
8
BLACK
6
CONTINUOUS
10
0.0883858267716535
20
0.6863070866141732
11
0.0885356692913386
21
0.6870603937007874
0
LINE
8
BLACK
6
CONTINUOUS
10
0.0885356692913386
20
0.6870603937007874
11
0.0896010236220472
21
0.6881257480314961
0
LINE
8
BLACK
6
CONTINUOUS
10
0.0896010236220472
20
0.6881257480314961
11
0.0903543307086614
21
0.688275590551181
0
LINE
8
BLACK
6
CONTINUOUS
10
0.0903543307086614
20
0.688275590551181
11
0.1478346456692913
21
0.688275590551181
0
LINE
8
BLACK
6
CONTINUOUS
10
0.1478346456692913
20
0.688275590551181
11
0.1485879527559055
21
0.6881257480314961
0
LINE
8
BLACK
6
CONTINUOUS
10
0.0923228346456693
20
0.6843385826771653
11
0.0923228346456693
21
0.5717401574803149
0
LINE
8
BLACK
6
CONTINUOUS
10
0.0923228346456693
20
0.5717401574803149
11
0.1458661417322835
21
0.5717401574803149
0
LINE
8
BLACK
6
CONTINUOUS
10
0.1458661417322835
20
0.5717401574803149
11
0.1458661417322835
21
0.6843385826771653
0
LINE
8
BLACK
6
CONTINUOUS
10
0.1458661417322835
20
0.6843385826771653
11
0.0923228346456693
21
0.6843385826771653
0
LINE
8
BLACK
6
CONTINUOUS
10
0.4835879527559055
20
0.6896454330708661
11
0.4846533070866141
21
0.6885800787401575
0
LINE
8
BLACK
6
CONTINUOUS
10
0.4846533070866141
20
0.6885800787401575
11
0.4848031496062992
21
0.6878267716535433
0
LINE
8
BLACK
6
CONTINUOUS
10
0.4848031496062992
20
0.6878267716535433
11
0.4848031496062992
21
0.5712913385826771
0
LINE
8
BLACK
6
CONTINUOUS
10
0.4848031496062992
20
0.5712913385826771
11
0.4846533070866141
21
0.570538031496063
0
LINE
8
BLACK
6
CONTINUOUS
10
0.4846533070866141
20
0.570538031496063
11
0.4835879527559055
21
0.5694726771653543
0
LINE
8
BLACK
6
CONTINUOUS
10
0.4835879527559055
20
0.5694726771653543
11
0.4828346456692914
21
0.5693228346456692
0
LINE
8
BLACK
6
CONTINUOUS
10
0.4828346456692914
20
0.5693228346456692
11
0.4253543307086614
21
0.5693228346456692
0
LINE
8
BLACK
6
CONTINUOUS
10
0.4253543307086614
20
0.5693228346456692
11
0.4246010236220472
21
0.5694726771653543
0
LINE
8
BLACK
6
CONTINUOUS
10
0.4246010236220472
20
0.5694726771653543
11
0.4235356692913386
21
0.570538031496063
0
LINE
8
BLACK
6
CONTINUOUS
10
0.4235356692913386
20
0.570538031496063
11
0.4233858267716535
21
0.5712913385826771
0
LINE
8
BLACK
6
CONTINUOUS
10
0.4233858267716535
20
0.5712913385826771
11
0.4233858267716535
21
0.6878267716535433
0
LINE
8
BLACK
6
CONTINUOUS
10
0.4233858267716535
20
0.6878267716535433
11
0.4235356692913386
21
0.6885800787401575
0
LINE
8
BLACK
6
CONTINUOUS
10
0.4235356692913386
20
0.6885800787401575
11
0.4246010236220472
21
0.6896454330708661
0
LINE
8
BLACK
6
CONTINUOUS
10
0.4246010236220472
20
0.6896454330708661
11
0.4253543307086614
21
0.6897952755905512
0
LINE
8
BLACK
6
CONTINUOUS
10
0.4253543307086614
20
0.6897952755905512
11
0.4828346456692914
21
0.6897952755905512
0
LINE
8
BLACK
6
CONTINUOUS
10
0.4828346456692914
20
0.6897952755905512
11
0.4835879527559055
21
0.6896454330708661
0
LINE
8
BLACK
6
CONTINUOUS
10
0.4273228346456693
20
0.6858582677165355
11
0.4273228346456693
21
0.573259842519685
0
LINE
8
BLACK
6
CONTINUOUS
10
0.4273228346456693
20
0.573259842519685
11
0.4808661417322835
21
0.573259842519685
0
LINE
8
BLACK
6
CONTINUOUS
10
0.4808661417322835
20
0.573259842519685
11
0.4808661417322835
21
0.6858582677165355
0
LINE
8
BLACK
6
CONTINUOUS
10
0.4808661417322835
20
0.6858582677165355
11
0.4273228346456693
21
0.6858582677165355
0
LINE
8
BLACK
6
CONTINUOUS
10
0.2783123622047244
20
0.713117874015748
11
0.2793777165354331
21
0.7120525196850394
0
LINE
8
BLACK
6
CONTINUOUS
10
0.2793777165354331
20
0.7120525196850394
11
0.2795275590551181
21
0.7112992125984252
0
LINE
8
BLACK
6
CONTINUOUS
10
0.2795275590551181
20
0.7112992125984252
11
0.2795275590551181
21
0.6538188976377952
0
LINE
8
BLACK
6
CONTINUOUS
10
0.2795275590551181
20
0.6538188976377952
11
0.2793777165354331
21
0.6530655905511811
0
LINE
8
BLACK
6
CONTINUOUS
10
0.2793777165354331
20
0.6530655905511811
11
0.2783123622047244
21
0.6520002362204724
0
LINE
8
BLACK
6
CONTINUOUS
10
0.2783123622047244
20
0.6520002362204724
11
0.2775590551181102
21
0.6518503937007873
0
LINE
8
BLACK
6
CONTINUOUS
10
0.2775590551181102
20
0.6518503937007873
11
0.1610236220472441
21
0.6518503937007873
0
LINE
8
BLACK
6
CONTINUOUS
10
0.1610236220472441
20
0.6518503937007873
11
0.1602703149606299
21
0.6520002362204724
0
LINE
8
BLACK
6
CONTINUOUS
10
0.1602703149606299
20
0.6520002362204724
11
0.1592049606299213
21
0.6530655905511811
0
LINE
8
BLACK
6
CONTINUOUS
10
0.1592049606299213
20
0.6530655905511811
11
0.1590551181102362
21
0.6538188976377952
0
LINE
8
BLACK
6
CONTINUOUS
10
0.1590551181102362
20
0.6538188976377952
11
0.1590551181102362
21
0.7112992125984252
0
LINE
8
BLACK
6
CONTINUOUS
10
0.1590551181102362
20
0.7112992125984252
11
0.1592049606299213
21
0.7120525196850394
0
LINE
8
BLACK
6
CONTINUOUS
10
0.1592049606299213
20
0.7120525196850394
11
0.1602703149606299
21
0.713117874015748
0
LINE
8
BLACK
6
CONTINUOUS
10
0.1602703149606299
20
0.713117874015748
11
0.1610236220472441
21
0.7132677165354331
0
LINE
8
BLACK
6
CONTINUOUS
10
0.1610236220472441
20
0.7132677165354331
11
0.2775590551181102
21
0.7132677165354331
0
LINE
8
BLACK
6
CONTINUOUS
10
0.2775590551181102
20
0.7132677165354331
11
0.2783123622047244
21
0.713117874015748
0
LINE
8
BLACK
6
CONTINUOUS
10
0.162992125984252
20
0.7093307086614173
11
0.162992125984252
21
0.6557874015748031
0
LINE
8
BLACK
6
CONTINUOUS
10
0.162992125984252
20
0.6557874015748031
11
0.2755905511811024
21
0.6557874015748031
0
LINE
8
BLACK
6
CONTINUOUS
10
0.2755905511811024
20
0.6557874015748031
11
0.2755905511811024
21
0.7093307086614173
0
LINE
8
BLACK
6
CONTINUOUS
10
0.2755905511811024
20
0.7093307086614173
11
0.162992125984252
21
0.7093307086614173
0
LINE
8
BLACK
6
CONTINUOUS
10
0.4121706299212599
20
0.713117874015748
11
0.4132359842519685
21
0.7120525196850394
0
LINE
8
BLACK
6
CONTINUOUS
10
0.4132359842519685
20
0.7120525196850394
11
0.4133858267716535
21
0.7112992125984252
0
LINE
8
BLACK
6
CONTINUOUS
10
0.4133858267716535
20
0.7112992125984252
11
0.4133858267716535
21
0.6538188976377952
0
LINE
8
BLACK
6
CONTINUOUS
10
0.4133858267716535
20
0.6538188976377952
11
0.4132359842519685
21
0.6530655905511811
0
LINE
8
BLACK
6
CONTINUOUS
10
0.4132359842519685
20
0.6530655905511811
11
0.4121706299212599
21
0.6520002362204724
0
LINE
8
BLACK
6
CONTINUOUS
10
0.4121706299212599
20
0.6520002362204724
11
0.4114173228346457
21
0.6518503937007873
0
LINE
8
BLACK
6
CONTINUOUS
10
0.4114173228346457
20
0.6518503937007873
11
0.2948818897637795
21
0.6518503937007873
0
LINE
8
BLACK
6
CONTINUOUS
10
0.2948818897637795
20
0.6518503937007873
11
0.2941285826771654
21
0.6520002362204724
0
LINE
8
BLACK
6
CONTINUOUS
10
0.2941285826771654
20
0.6520002362204724
11
0.2930632283464567
21
0.6530655905511811
0
LINE
8
BLACK
6
CONTINUOUS
10
0.2930632283464567
20
0.6530655905511811
11
0.2929133858267716
21
0.6538188976377952
0
LINE
8
BLACK
6
CONTINUOUS
10
0.2929133858267716
20
0.6538188976377952
11
0.2929133858267716
21
0.7112992125984252
0
LINE
8
BLACK
6
CONTINUOUS
10
0.2929133858267716
20
0.7112992125984252
11
0.2930632283464567
21
0.7120525196850394
0
LINE
8
BLACK
6
CONTINUOUS
10
0.2930632283464567
20
0.7120525196850394
11
0.2941285826771654
21
0.713117874015748
0
LINE
8
BLACK
6
CONTINUOUS
10
0.2941285826771654
20
0.713117874015748
11
0.2948818897637795
21
0.7132677165354331
0
LINE
8
BLACK
6
CONTINUOUS
10
0.2948818897637795
20
0.7132677165354331
11
0.4114173228346457
21
0.7132677165354331
0
LINE
8
BLACK
6
CONTINUOUS
10
0.4114173228346457
20
0.7132677165354331
11
0.4121706299212599
21
0.713117874015748
0
LINE
8
BLACK
6
CONTINUOUS
10
0.2968503937007874
20
0.7093307086614173
11
0.2968503937007874
21
0.6557874015748031
0
LINE
8
BLACK
6
CONTINUOUS
10
0.2968503937007874
20
0.6557874015748031
11
0.4094488188976378
21
0.6557874015748031
0
LINE
8
BLACK
6
CONTINUOUS
10
0.4094488188976378
20
0.6557874015748031
11
0.4094488188976378
21
0.7093307086614173
0
LINE
8
BLACK
6
CONTINUOUS
10
0.4094488188976378
20
0.7093307086614173
11
0.2968503937007874
21
0.7093307086614173
0
LINE
8
BLACK
6
CONTINUOUS
10
0.4835879527559055
20
0.8136454330708661
11
0.4846533070866141
21
0.8125800787401575
0
LINE
8
BLACK
6
CONTINUOUS
10
0.4846533070866141
20
0.8125800787401575
11
0.4848031496062992
21
0.8118267716535433
0
LINE
8
BLACK
6
CONTINUOUS
10
0.4848031496062992
20
0.8118267716535433
11
0.4848031496062992
21
0.6952913385826771
0
LINE
8
BLACK
6
CONTINUOUS
10
0.4848031496062992
20
0.6952913385826771
11
0.4846533070866141
21
0.694538031496063
0
LINE
8
BLACK
6
CONTINUOUS
10
0.4846533070866141
20
0.694538031496063
11
0.4835879527559055
21
0.6934726771653543
0
LINE
8
BLACK
6
CONTINUOUS
10
0.4835879527559055
20
0.6934726771653543
11
0.4828346456692914
21
0.6933228346456692
0
LINE
8
BLACK
6
CONTINUOUS
10
0.4828346456692914
20
0.6933228346456692
11
0.4253543307086614
21
0.6933228346456692
0
LINE
8
BLACK
6
CONTINUOUS
10
0.4253543307086614
20
0.6933228346456692
11
0.4246010236220472
21
0.6934726771653543
0
LINE
8
BLACK
6
CONTINUOUS
10
0.4246010236220472
20
0.6934726771653543
11
0.4235356692913386
21
0.694538031496063
0
LINE
8
BLACK
6
CONTINUOUS
10
0.4235356692913386
20
0.694538031496063
11
0.4233858267716535
21
0.6952913385826771
0
LINE
8
BLACK
6
CONTINUOUS
10
0.4233858267716535
20
0.6952913385826771
11
0.4233858267716535
21
0.8118267716535433
0
LINE
8
BLACK
6
CONTINUOUS
10
0.4233858267716535
20
0.8118267716535433
11
0.4235356692913386
21
0.8125800787401575
0
LINE
8
BLACK
6
CONTINUOUS
10
0.4235356692913386
20
0.8125800787401575
11
0.4246010236220472
21
0.8136454330708661
0
LINE
8
BLACK
6
CONTINUOUS
10
0.4246010236220472
20
0.8136454330708661
11
0.4253543307086614
21
0.8137952755905512
0
LINE
8
BLACK
6
CONTINUOUS
10
0.4253543307086614
20
0.8137952755905512
11
0.4828346456692914
21
0.8137952755905512
0
LINE
8
BLACK
6
CONTINUOUS
10
0.4828346456692914
20
0.8137952755905512
11
0.4835879527559055
21
0.8136454330708661
0
LINE
8
BLACK
6
CONTINUOUS
10
0.4273228346456693
20
0.8098582677165355
11
0.4273228346456693
21
0.697259842519685
0
LINE
8
BLACK
6
CONTINUOUS
10
0.4273228346456693
20
0.697259842519685
11
0.4808661417322835
21
0.697259842519685
0
LINE
8
BLACK
6
CONTINUOUS
10
0.4808661417322835
20
0.697259842519685
11
0.4808661417322835
21
0.8098582677165355
0
LINE
8
BLACK
6
CONTINUOUS
10
0.4808661417322835
20
0.8098582677165355
11
0.4273228346456693
21
0.8098582677165355
0
LINE
8
BLACK
6
CONTINUOUS
10
0.1485879527559055
20
0.8141257480314961
11
0.1496533070866142
21
0.8130603937007874
0
LINE
8
BLACK
6
CONTINUOUS
10
0.1496533070866142
20
0.8130603937007874
11
0.1498031496062992
21
0.8123070866141732
0
LINE
8
BLACK
6
CONTINUOUS
10
0.1498031496062992
20
0.8123070866141732
11
0.1498031496062992
21
0.6957716535433071
0
LINE
8
BLACK
6
CONTINUOUS
10
0.1498031496062992
20
0.6957716535433071
11
0.1496533070866142
21
0.6950183464566929
0
LINE
8
BLACK
6
CONTINUOUS
10
0.1496533070866142
20
0.6950183464566929
11
0.1485879527559055
21
0.6939529921259843
0
LINE
8
BLACK
6
CONTINUOUS
10
0.1485879527559055
20
0.6939529921259843
11
0.1478346456692913
21
0.6938031496062992
0
LINE
8
BLACK
6
CONTINUOUS
10
0.1478346456692913
20
0.6938031496062992
11
0.0903543307086614
21
0.6938031496062992
0
LINE
8
BLACK
6
CONTINUOUS
10
0.0903543307086614
20
0.6938031496062992
11
0.0896010236220472
21
0.6939529921259843
0
LINE
8
BLACK
6
CONTINUOUS
10
0.0896010236220472
20
0.6939529921259843
11
0.0885356692913386
21
0.6950183464566929
0
LINE
8
BLACK
6
CONTINUOUS
10
0.0885356692913386
20
0.6950183464566929
11
0.0883858267716535
21
0.6957716535433071
0
LINE
8
BLACK
6
CONTINUOUS
10
0.0883858267716535
20
0.6957716535433071
11
0.0883858267716535
21
0.8123070866141732
0
LINE
8
BLACK
6
CONTINUOUS
10
0.0883858267716535
20
0.8123070866141732
11
0.0885356692913386
21
0.8130603937007874
0
LINE
8
BLACK
6
CONTINUOUS
10
0.0885356692913386
20
0.8130603937007874
11
0.0896010236220472
21
0.8141257480314961
0
LINE
8
BLACK
6
CONTINUOUS
10
0.0896010236220472
20
0.8141257480314961
11
0.0903543307086614
21
0.814275590551181
0
LINE
8
BLACK
6
CONTINUOUS
10
0.0903543307086614
20
0.814275590551181
11
0.1478346456692913
21
0.814275590551181
0
LINE
8
BLACK
6
CONTINUOUS
10
0.1478346456692913
20
0.814275590551181
11
0.1485879527559055
21
0.8141257480314961
0
LINE
8
BLACK
6
CONTINUOUS
10
0.0923228346456693
20
0.8103385826771653
11
0.0923228346456693
21
0.6977401574803149
0
LINE
8
BLACK
6
CONTINUOUS
10
0.0923228346456693
20
0.6977401574803149
11
0.1458661417322835
21
0.6977401574803149
0
LINE
8
BLACK
6
CONTINUOUS
10
0.1458661417322835
20
0.6977401574803149
11
0.1458661417322835
21
0.8103385826771653
0
LINE
8
BLACK
6
CONTINUOUS
10
0.1458661417322835
20
0.8103385826771653
11
0.0923228346456693
21
0.8103385826771653
0
LINE
8
BLACK
6
CONTINUOUS
10
0.2783123622047244
20
0.806117874015748
11
0.2793777165354331
21
0.8050525196850393
0
LINE
8
BLACK
6
CONTINUOUS
10
0.2793777165354331
20
0.8050525196850393
11
0.2795275590551181
21
0.8042992125984252
0
LINE
8
BLACK
6
CONTINUOUS
10
0.2795275590551181
20
0.8042992125984252
11
0.2795275590551181
21
0.7468188976377953
0
LINE
8
BLACK
6
CONTINUOUS
10
0.2795275590551181
20
0.7468188976377953
11
0.2793777165354331
21
0.746065590551181
0
LINE
8
BLACK
6
CONTINUOUS
10
0.2793777165354331
20
0.746065590551181
11
0.2783123622047244
21
0.7450002362204724
0
LINE
8
BLACK
6
CONTINUOUS
10
0.2783123622047244
20
0.7450002362204724
11
0.2775590551181102
21
0.7448503937007874
0
LINE
8
BLACK
6
CONTINUOUS
10
0.2775590551181102
20
0.7448503937007874
11
0.1610236220472441
21
0.7448503937007874
0
LINE
8
BLACK
6
CONTINUOUS
10
0.1610236220472441
20
0.7448503937007874
11
0.1602703149606299
21
0.7450002362204724
0
LINE
8
BLACK
6
CONTINUOUS
10
0.1602703149606299
20
0.7450002362204724
11
0.1592049606299213
21
0.746065590551181
0
LINE
8
BLACK
6
CONTINUOUS
10
0.1592049606299213
20
0.746065590551181
11
0.1590551181102362
21
0.7468188976377953
0
LINE
8
BLACK
6
CONTINUOUS
10
0.1590551181102362
20
0.7468188976377953
11
0.1590551181102362
21
0.8042992125984252
0
LINE
8
BLACK
6
CONTINUOUS
10
0.1590551181102362
20
0.8042992125984252
11
0.1592049606299213
21
0.8050525196850393
0
LINE
8
BLACK
6
CONTINUOUS
10
0.1592049606299213
20
0.8050525196850393
11
0.1602703149606299
21
0.806117874015748
0
LINE
8
BLACK
6
CONTINUOUS
10
0.1602703149606299
20
0.806117874015748
11
0.1610236220472441
21
0.8062677165354331
0
LINE
8
BLACK
6
CONTINUOUS
10
0.1610236220472441
20
0.8062677165354331
11
0.2775590551181102
21
0.8062677165354331
0
LINE
8
BLACK
6
CONTINUOUS
10
0.2775590551181102
20
0.8062677165354331
11
0.2783123622047244
21
0.806117874015748
0
LINE
8
BLACK
6
CONTINUOUS
10
0.162992125984252
20
0.8023307086614173
11
0.162992125984252
21
0.7487874015748032
0
LINE
8
BLACK
6
CONTINUOUS
10
0.162992125984252
20
0.7487874015748032
11
0.2755905511811024
21
0.7487874015748032
0
LINE
8
BLACK
6
CONTINUOUS
10
0.2755905511811024
20
0.7487874015748032
11
0.2755905511811024
21
0.8023307086614173
0
LINE
8
BLACK
6
CONTINUOUS
10
0.2755905511811024
20
0.8023307086614173
11
0.162992125984252
21
0.8023307086614173
0
LINE
8
BLACK
6
CONTINUOUS
10
0.4121706299212599
20
0.806117874015748
11
0.4132359842519685
21
0.8050525196850393
0
LINE
8
BLACK
6
CONTINUOUS
10
0.4132359842519685
20
0.8050525196850393
11
0.4133858267716535
21
0.8042992125984252
0
LINE
8
BLACK
6
CONTINUOUS
10
0.4133858267716535
20
0.8042992125984252
11
0.4133858267716535
21
0.7468188976377953
0
LINE
8
BLACK
6
CONTINUOUS
10
0.4133858267716535
20
0.7468188976377953
11
0.4132359842519685
21
0.746065590551181
0
LINE
8
BLACK
6
CONTINUOUS
10
0.4132359842519685
20
0.746065590551181
11
0.4121706299212599
21
0.7450002362204724
0
LINE
8
BLACK
6
CONTINUOUS
10
0.4121706299212599
20
0.7450002362204724
11
0.4114173228346457
21
0.7448503937007874
0
LINE
8
BLACK
6
CONTINUOUS
10
0.4114173228346457
20
0.7448503937007874
11
0.2948818897637795
21
0.7448503937007874
0
LINE
8
BLACK
6
CONTINUOUS
10
0.2948818897637795
20
0.7448503937007874
11
0.2941285826771654
21
0.7450002362204724
0
LINE
8
BLACK
6
CONTINUOUS
10
0.2941285826771654
20
0.7450002362204724
11
0.2930632283464567
21
0.746065590551181
0
LINE
8
BLACK
6
CONTINUOUS
10
0.2930632283464567
20
0.746065590551181
11
0.2929133858267716
21
0.7468188976377953
0
LINE
8
BLACK
6
CONTINUOUS
10
0.2929133858267716
20
0.7468188976377953
11
0.2929133858267716
21
0.8042992125984252
0
LINE
8
BLACK
6
CONTINUOUS
10
0.2929133858267716
20
0.8042992125984252
11
0.2930632283464567
21
0.8050525196850393
0
LINE
8
BLACK
6
CONTINUOUS
10
0.2930632283464567
20
0.8050525196850393
11
0.2941285826771654
21
0.806117874015748
0
LINE
8
BLACK
6
CONTINUOUS
10
0.2941285826771654
20
0.806117874015748
11
0.2948818897637795
21
0.8062677165354331
0
LINE
8
BLACK
6
CONTINUOUS
10
0.2948818897637795
20
0.8062677165354331
11
0.4114173228346457
21
0.8062677165354331
0
LINE
8
BLACK
6
CONTINUOUS
10
0.4114173228346457
20
0.8062677165354331
11
0.4121706299212599
21
0.806117874015748
0
LINE
8
BLACK
6
CONTINUOUS
10
0.2968503937007874
20
0.8023307086614173
11
0.2968503937007874
21
0.7487874015748032
0
LINE
8
BLACK
6
CONTINUOUS
10
0.2968503937007874
20
0.7487874015748032
11
0.4094488188976378
21
0.7487874015748032
0
LINE
8
BLACK
6
CONTINUOUS
10
0.4094488188976378
20
0.7487874015748032
11
0.4094488188976378
21
0.8023307086614173
0
LINE
8
BLACK
6
CONTINUOUS
10
0.4094488188976378
20
0.8023307086614173
11
0.2968503937007874
21
0.8023307086614173
  0
ENDSEC
  0
EOF
