  0
SECTION
  2
HEADER
  9
$ANGBASE
  50
0.0
  9
$ANGDIR
  70
1
  9
$MEASUREMENT
  70
0
  0
ENDSEC
  0
SECTION
  2
TABLES
  0
TABLE
  2
LTYPE
  70
4
  0
LTYPE
  5
40F
  2
CONTINUOUS
  70
0
  3
Solid line
  72
65
  73
0
  40
0.0
  0
LTYPE
  5
410
  2
DASHDOT
 70
0
  3
Dash Dot ____ _ ____ _
 72
65
 73
4
 40
2.0
 49
1.25
 49
-0.25
 49
0.25
 49
-0.25
  0
LTYPE
  5
411
  2
DASHED
 70
0
  3
Dashed __ __ __ __ __
 72
65
 73
2
 40
0.75
 49
0.5
 49
-0.25
  0
LTYPE
  5
43B
  2
DOTTED
 70
0
  3
Dotted .  .  .  .
 72
65
 73
2
 40
0.2
 49
0.0
 49
-0.2
  0
ENDTAB
  0
TABLE
  2
STYLE
  70
4
  0
STYLE
  2
KICAD
  70
0
  40
0
  41
1
  42
1
  50
0
  71
0
  3
isocp.shx
  0
STYLE
  2
KICADB
  70
0
  40
0
  41
1
  42
1
  50
0
  71
0
  3
isocp.shx
  0
STYLE
  2
KICADI
  70
0
  40
0
  41
1
  42
1
  50
15
  71
0
  3
isocp.shx
  0
STYLE
  2
KICADBI
  70
0
  40
0
  41
1
  42
1
  50
15
  71
0
  3
isocp.shx
  0
ENDTAB
  0
TABLE
  2
LAYER
  70
1
  0
LAYER
  2
BLACK
  70
0
  62
7
  6
CONTINUOUS
  0
ENDTAB
  0
ENDSEC
  0
SECTION
  2
ENTITIES
0
LINE
8
BLACK
6
CONTINUOUS
10
0.2493738582677165
20
0.1399426377952756
11
0.2528064960629921
21
0.1376490157480315
0
LINE
8
BLACK
6
CONTINUOUS
10
0.2528064960629921
20
0.1376490157480315
11
0.2551001181102362
21
0.1342163779527559
0
LINE
8
BLACK
6
CONTINUOUS
10
0.2551001181102362
20
0.1342163779527559
11
0.2559055118110236
21
0.1301673228346457
0
LINE
8
BLACK
6
CONTINUOUS
10
0.2559055118110236
20
0.1301673228346457
11
0.2559055118110236
21
0.109990157480315
0
LINE
8
BLACK
6
CONTINUOUS
10
0.2559055118110236
20
0.109990157480315
11
0.2551001181102362
21
0.1059411023622047
0
LINE
8
BLACK
6
CONTINUOUS
10
0.2551001181102362
20
0.1059411023622047
11
0.2528064960629921
21
0.1025084645669291
0
LINE
8
BLACK
6
CONTINUOUS
10
0.2528064960629921
20
0.1025084645669291
11
0.2493738582677165
21
0.100214842519685
0
LINE
8
BLACK
6
CONTINUOUS
10
0.2493738582677165
20
0.100214842519685
11
0.2453248031496063
21
0.0994094488188976
0
LINE
8
BLACK
6
CONTINUOUS
10
0.2453248031496063
20
0.0994094488188976
11
0.2281003937007874
21
0.0994094488188976
0
LINE
8
BLACK
6
CONTINUOUS
10
0.2281003937007874
20
0.0994094488188976
11
0.2240513385826772
21
0.100214842519685
0
LINE
8
BLACK
6
CONTINUOUS
10
0.2240513385826772
20
0.100214842519685
11
0.2206187007874016
21
0.1025084645669291
0
LINE
8
BLACK
6
CONTINUOUS
10
0.2206187007874016
20
0.1025084645669291
11
0.2183250787401575
21
0.1059411023622047
0
LINE
8
BLACK
6
CONTINUOUS
10
0.2183250787401575
20
0.1059411023622047
11
0.2175196850393701
21
0.109990157480315
0
LINE
8
BLACK
6
CONTINUOUS
10
0.2175196850393701
20
0.109990157480315
11
0.2175196850393701
21
0.1301673228346457
0
LINE
8
BLACK
6
CONTINUOUS
10
0.2175196850393701
20
0.1301673228346457
11
0.2183250787401575
21
0.1342163779527559
0
LINE
8
BLACK
6
CONTINUOUS
10
0.2183250787401575
20
0.1342163779527559
11
0.2206187007874016
21
0.1376490157480315
0
LINE
8
BLACK
6
CONTINUOUS
10
0.2206187007874016
20
0.1376490157480315
11
0.2240513385826772
21
0.1399426377952756
0
LINE
8
BLACK
6
CONTINUOUS
10
0.2240513385826772
20
0.1399426377952756
11
0.2281003937007874
21
0.140748031496063
0
LINE
8
BLACK
6
CONTINUOUS
10
0.2281003937007874
20
0.140748031496063
11
0.2453248031496063
21
0.140748031496063
0
LINE
8
BLACK
6
CONTINUOUS
10
0.2453248031496063
20
0.140748031496063
11
0.2493738582677165
21
0.1399426377952756
0
LINE
8
BLACK
6
CONTINUOUS
10
0.3113817322834646
20
0.1399426377952756
11
0.3148143700787401
21
0.1376490157480315
0
LINE
8
BLACK
6
CONTINUOUS
10
0.3148143700787401
20
0.1376490157480315
11
0.3171079921259842
21
0.1342163779527559
0
LINE
8
BLACK
6
CONTINUOUS
10
0.3171079921259842
20
0.1342163779527559
11
0.3179133858267716
21
0.1301673228346457
0
LINE
8
BLACK
6
CONTINUOUS
10
0.3179133858267716
20
0.1301673228346457
11
0.3179133858267716
21
0.109990157480315
0
LINE
8
BLACK
6
CONTINUOUS
10
0.3179133858267716
20
0.109990157480315
11
0.3171079921259842
21
0.1059411023622047
0
LINE
8
BLACK
6
CONTINUOUS
10
0.3171079921259842
20
0.1059411023622047
11
0.3148143700787401
21
0.1025084645669291
0
LINE
8
BLACK
6
CONTINUOUS
10
0.3148143700787401
20
0.1025084645669291
11
0.3113817322834646
21
0.100214842519685
0
LINE
8
BLACK
6
CONTINUOUS
10
0.3113817322834646
20
0.100214842519685
11
0.3073326771653543
21
0.0994094488188976
0
LINE
8
BLACK
6
CONTINUOUS
10
0.3073326771653543
20
0.0994094488188976
11
0.2901082677165354
21
0.0994094488188976
0
LINE
8
BLACK
6
CONTINUOUS
10
0.2901082677165354
20
0.0994094488188976
11
0.2860592125984252
21
0.100214842519685
0
LINE
8
BLACK
6
CONTINUOUS
10
0.2860592125984252
20
0.100214842519685
11
0.2826265748031496
21
0.1025084645669291
0
LINE
8
BLACK
6
CONTINUOUS
10
0.2826265748031496
20
0.1025084645669291
11
0.2803329527559055
21
0.1059411023622047
0
LINE
8
BLACK
6
CONTINUOUS
10
0.2803329527559055
20
0.1059411023622047
11
0.2795275590551181
21
0.109990157480315
0
LINE
8
BLACK
6
CONTINUOUS
10
0.2795275590551181
20
0.109990157480315
11
0.2795275590551181
21
0.1301673228346457
0
LINE
8
BLACK
6
CONTINUOUS
10
0.2795275590551181
20
0.1301673228346457
11
0.2803329527559055
21
0.1342163779527559
0
LINE
8
BLACK
6
CONTINUOUS
10
0.2803329527559055
20
0.1342163779527559
11
0.2826265748031496
21
0.1376490157480315
0
LINE
8
BLACK
6
CONTINUOUS
10
0.2826265748031496
20
0.1376490157480315
11
0.2860592125984252
21
0.1399426377952756
0
LINE
8
BLACK
6
CONTINUOUS
10
0.2860592125984252
20
0.1399426377952756
11
0.2901082677165354
21
0.140748031496063
0
LINE
8
BLACK
6
CONTINUOUS
10
0.2901082677165354
20
0.140748031496063
11
0.3073326771653543
21
0.140748031496063
0
LINE
8
BLACK
6
CONTINUOUS
10
0.3073326771653543
20
0.140748031496063
11
0.3113817322834646
21
0.1399426377952756
0
LINE
8
BLACK
6
CONTINUOUS
10
0.3748295669291338
20
0.1409200787401575
11
0.3780227165354331
21
0.1387864960629921
0
LINE
8
BLACK
6
CONTINUOUS
10
0.3780227165354331
20
0.1387864960629921
11
0.3801562992125984
21
0.1355933464566929
0
LINE
8
BLACK
6
CONTINUOUS
10
0.3801562992125984
20
0.1355933464566929
11
0.3809055118110236
21
0.1318267716535433
0
LINE
8
BLACK
6
CONTINUOUS
10
0.3809055118110236
20
0.1318267716535433
11
0.3809055118110236
21
0.1101732283464567
0
LINE
8
BLACK
6
CONTINUOUS
10
0.3809055118110236
20
0.1101732283464567
11
0.3801562992125984
21
0.1064066535433071
0
LINE
8
BLACK
6
CONTINUOUS
10
0.3801562992125984
20
0.1064066535433071
11
0.3780227165354331
21
0.1032135039370079
0
LINE
8
BLACK
6
CONTINUOUS
10
0.3780227165354331
20
0.1032135039370079
11
0.3748295669291338
21
0.1010799212598425
0
LINE
8
BLACK
6
CONTINUOUS
10
0.3748295669291338
20
0.1010799212598425
11
0.3710629921259843
21
0.1003307086614173
0
LINE
8
BLACK
6
CONTINUOUS
10
0.3710629921259843
20
0.1003307086614173
11
0.3553149606299212
21
0.1003307086614173
0
LINE
8
BLACK
6
CONTINUOUS
10
0.3553149606299212
20
0.1003307086614173
11
0.3515483858267717
21
0.1010799212598425
0
LINE
8
BLACK
6
CONTINUOUS
10
0.3515483858267717
20
0.1010799212598425
11
0.3483552362204724
21
0.1032135039370079
0
LINE
8
BLACK
6
CONTINUOUS
10
0.3483552362204724
20
0.1032135039370079
11
0.3462216535433071
21
0.1064066535433071
0
LINE
8
BLACK
6
CONTINUOUS
10
0.3462216535433071
20
0.1064066535433071
11
0.3454724409448819
21
0.1101732283464567
0
LINE
8
BLACK
6
CONTINUOUS
10
0.3454724409448819
20
0.1101732283464567
11
0.3454724409448819
21
0.1318267716535433
0
LINE
8
BLACK
6
CONTINUOUS
10
0.3454724409448819
20
0.1318267716535433
11
0.3462216535433071
21
0.1355933464566929
0
LINE
8
BLACK
6
CONTINUOUS
10
0.3462216535433071
20
0.1355933464566929
11
0.3483552362204724
21
0.1387864960629921
0
LINE
8
BLACK
6
CONTINUOUS
10
0.3483552362204724
20
0.1387864960629921
11
0.3515483858267717
21
0.1409200787401575
0
LINE
8
BLACK
6
CONTINUOUS
10
0.3515483858267717
20
0.1409200787401575
11
0.3553149606299212
21
0.1416692913385827
0
LINE
8
BLACK
6
CONTINUOUS
10
0.3553149606299212
20
0.1416692913385827
11
0.3710629921259843
21
0.1416692913385827
0
LINE
8
BLACK
6
CONTINUOUS
10
0.3710629921259843
20
0.1416692913385827
11
0.3748295669291338
21
0.1409200787401575
0
LINE
8
BLACK
6
CONTINUOUS
10
0.4397901968503937
20
0.1409200787401575
11
0.4429833464566929
21
0.1387864960629921
0
LINE
8
BLACK
6
CONTINUOUS
10
0.4429833464566929
20
0.1387864960629921
11
0.4451169291338583
21
0.1355933464566929
0
LINE
8
BLACK
6
CONTINUOUS
10
0.4451169291338583
20
0.1355933464566929
11
0.4458661417322834
21
0.1318267716535433
0
LINE
8
BLACK
6
CONTINUOUS
10
0.4458661417322834
20
0.1318267716535433
11
0.4458661417322834
21
0.1101732283464567
0
LINE
8
BLACK
6
CONTINUOUS
10
0.4458661417322834
20
0.1101732283464567
11
0.4451169291338583
21
0.1064066535433071
0
LINE
8
BLACK
6
CONTINUOUS
10
0.4451169291338583
20
0.1064066535433071
11
0.4429833464566929
21
0.1032135039370079
0
LINE
8
BLACK
6
CONTINUOUS
10
0.4429833464566929
20
0.1032135039370079
11
0.4397901968503937
21
0.1010799212598425
0
LINE
8
BLACK
6
CONTINUOUS
10
0.4397901968503937
20
0.1010799212598425
11
0.4360236220472441
21
0.1003307086614173
0
LINE
8
BLACK
6
CONTINUOUS
10
0.4360236220472441
20
0.1003307086614173
11
0.4202755905511811
21
0.1003307086614173
0
LINE
8
BLACK
6
CONTINUOUS
10
0.4202755905511811
20
0.1003307086614173
11
0.4165090157480315
21
0.1010799212598425
0
LINE
8
BLACK
6
CONTINUOUS
10
0.4165090157480315
20
0.1010799212598425
11
0.4133158661417323
21
0.1032135039370079
0
LINE
8
BLACK
6
CONTINUOUS
10
0.4133158661417323
20
0.1032135039370079
11
0.4111822834645669
21
0.1064066535433071
0
LINE
8
BLACK
6
CONTINUOUS
10
0.4111822834645669
20
0.1064066535433071
11
0.4104330708661417
21
0.1101732283464567
0
LINE
8
BLACK
6
CONTINUOUS
10
0.4104330708661417
20
0.1101732283464567
11
0.4104330708661417
21
0.1318267716535433
0
LINE
8
BLACK
6
CONTINUOUS
10
0.4104330708661417
20
0.1318267716535433
11
0.4111822834645669
21
0.1355933464566929
0
LINE
8
BLACK
6
CONTINUOUS
10
0.4111822834645669
20
0.1355933464566929
11
0.4133158661417323
21
0.1387864960629921
0
LINE
8
BLACK
6
CONTINUOUS
10
0.4133158661417323
20
0.1387864960629921
11
0.4165090157480315
21
0.1409200787401575
0
LINE
8
BLACK
6
CONTINUOUS
10
0.4165090157480315
20
0.1409200787401575
11
0.4202755905511811
21
0.1416692913385827
0
LINE
8
BLACK
6
CONTINUOUS
10
0.4202755905511811
20
0.1416692913385827
11
0.4360236220472441
21
0.1416692913385827
0
LINE
8
BLACK
6
CONTINUOUS
10
0.4360236220472441
20
0.1416692913385827
11
0.4397901968503937
21
0.1409200787401575
0
LINE
8
BLACK
6
CONTINUOUS
10
0.9714225984251968
20
0.1667792913385827
11
0.9720612204724409
21
0.1663525590551181
0
LINE
8
BLACK
6
CONTINUOUS
10
0.9720612204724409
20
0.1663525590551181
11
0.9724879527559055
21
0.165713937007874
0
LINE
8
BLACK
6
CONTINUOUS
10
0.9724879527559055
20
0.165713937007874
11
0.9726377952755906
21
0.1649606299212598
0
LINE
8
BLACK
6
CONTINUOUS
10
0.9726377952755906
20
0.1649606299212598
11
0.9726377952755906
21
0.1255905511811024
0
LINE
8
BLACK
6
CONTINUOUS
10
0.9726377952755906
20
0.1255905511811024
11
0.9724879527559055
21
0.1248372440944882
0
LINE
8
BLACK
6
CONTINUOUS
10
0.9724879527559055
20
0.1248372440944882
11
0.9720612204724409
21
0.1241986220472441
0
LINE
8
BLACK
6
CONTINUOUS
10
0.9720612204724409
20
0.1241986220472441
11
0.9714225984251968
21
0.1237718897637795
0
LINE
8
BLACK
6
CONTINUOUS
10
0.9714225984251968
20
0.1237718897637795
11
0.9706692913385827
21
0.1236220472440945
0
LINE
8
BLACK
6
CONTINUOUS
10
0.9706692913385827
20
0.1236220472440945
11
0.8718503937007874
21
0.1236220472440945
0
LINE
8
BLACK
6
CONTINUOUS
10
0.8718503937007874
20
0.1236220472440945
11
0.8710970866141732
21
0.1237718897637795
0
LINE
8
BLACK
6
CONTINUOUS
10
0.8710970866141732
20
0.1237718897637795
11
0.8704584645669291
21
0.1241986220472441
0
LINE
8
BLACK
6
CONTINUOUS
10
0.8704584645669291
20
0.1241986220472441
11
0.8700317322834645
21
0.1248372440944882
0
LINE
8
BLACK
6
CONTINUOUS
10
0.8700317322834645
20
0.1248372440944882
11
0.8698818897637796
21
0.1255905511811024
0
LINE
8
BLACK
6
CONTINUOUS
10
0.8698818897637796
20
0.1255905511811024
11
0.8698818897637796
21
0.1649606299212598
0
LINE
8
BLACK
6
CONTINUOUS
10
0.8698818897637796
20
0.1649606299212598
11
0.8700317322834645
21
0.165713937007874
0
LINE
8
BLACK
6
CONTINUOUS
10
0.8700317322834645
20
0.165713937007874
11
0.8704584645669291
21
0.1663525590551181
0
LINE
8
BLACK
6
CONTINUOUS
10
0.8704584645669291
20
0.1663525590551181
11
0.8710970866141732
21
0.1667792913385827
0
LINE
8
BLACK
6
CONTINUOUS
10
0.8710970866141732
20
0.1667792913385827
11
0.8718503937007874
21
0.1669291338582677
0
LINE
8
BLACK
6
CONTINUOUS
10
0.8718503937007874
20
0.1669291338582677
11
0.9706692913385827
21
0.1669291338582677
0
LINE
8
BLACK
6
CONTINUOUS
10
0.9706692913385827
20
0.1669291338582677
11
0.9714225984251968
21
0.1667792913385827
0
LINE
8
BLACK
6
CONTINUOUS
10
0.1099875984251968
20
0.1699618503937008
11
0.1139583070866142
21
0.1682086220472441
0
LINE
8
BLACK
6
CONTINUOUS
10
0.1139583070866142
20
0.1682086220472441
11
0.1170275196850394
21
0.1651394094488189
0
LINE
8
BLACK
6
CONTINUOUS
10
0.1170275196850394
20
0.1651394094488189
11
0.1187807480314961
21
0.1611687007874016
0
LINE
8
BLACK
6
CONTINUOUS
10
0.1187807480314961
20
0.1611687007874016
11
0.1190944881889764
21
0.1584645669291339
0
LINE
8
BLACK
6
CONTINUOUS
10
0.1190944881889764
20
0.1584645669291339
11
0.1190944881889764
21
0.1387795275590551
0
LINE
8
BLACK
6
CONTINUOUS
10
0.1190944881889764
20
0.1387795275590551
11
0.1187807480314961
21
0.1360753937007874
0
LINE
8
BLACK
6
CONTINUOUS
10
0.1187807480314961
20
0.1360753937007874
11
0.1170275196850394
21
0.1321046850393701
0
LINE
8
BLACK
6
CONTINUOUS
10
0.1170275196850394
20
0.1321046850393701
11
0.1139583070866142
21
0.1290354724409449
0
LINE
8
BLACK
6
CONTINUOUS
10
0.1139583070866142
20
0.1290354724409449
11
0.1099875984251968
21
0.1272822440944882
0
LINE
8
BLACK
6
CONTINUOUS
10
0.1099875984251968
20
0.1272822440944882
11
0.1072834645669291
21
0.1269685039370079
0
LINE
8
BLACK
6
CONTINUOUS
10
0.1072834645669291
20
0.1269685039370079
11
0.0206692913385827
21
0.1269685039370079
0
LINE
8
BLACK
6
CONTINUOUS
10
0.0206692913385827
20
0.1269685039370079
11
0.017965157480315
21
0.1272822440944882
0
LINE
8
BLACK
6
CONTINUOUS
10
0.017965157480315
20
0.1272822440944882
11
0.0139944488188976
21
0.1290354724409449
0
LINE
8
BLACK
6
CONTINUOUS
10
0.0139944488188976
20
0.1290354724409449
11
0.0109252362204724
21
0.1321046850393701
0
LINE
8
BLACK
6
CONTINUOUS
10
0.0109252362204724
20
0.1321046850393701
11
0.0091720078740157
21
0.1360753937007874
0
LINE
8
BLACK
6
CONTINUOUS
10
0.0091720078740157
20
0.1360753937007874
11
0.0088582677165354
21
0.1387795275590551
0
LINE
8
BLACK
6
CONTINUOUS
10
0.0088582677165354
20
0.1387795275590551
11
0.0088582677165354
21
0.1584645669291339
0
LINE
8
BLACK
6
CONTINUOUS
10
0.0088582677165354
20
0.1584645669291339
11
0.0091720078740157
21
0.1611687007874016
0
LINE
8
BLACK
6
CONTINUOUS
10
0.0091720078740157
20
0.1611687007874016
11
0.0109252362204724
21
0.1651394094488189
0
LINE
8
BLACK
6
CONTINUOUS
10
0.0109252362204724
20
0.1651394094488189
11
0.0139944488188976
21
0.1682086220472441
0
LINE
8
BLACK
6
CONTINUOUS
10
0.0139944488188976
20
0.1682086220472441
11
0.017965157480315
21
0.1699618503937008
0
LINE
8
BLACK
6
CONTINUOUS
10
0.017965157480315
20
0.1699618503937008
11
0.0206692913385827
21
0.1702755905511811
0
LINE
8
BLACK
6
CONTINUOUS
10
0.0206692913385827
20
0.1702755905511811
11
0.1072834645669291
21
0.1702755905511811
0
LINE
8
BLACK
6
CONTINUOUS
10
0.1072834645669291
20
0.1702755905511811
11
0.1099875984251968
21
0.1699618503937008
0
LINE
8
BLACK
6
CONTINUOUS
10
0.3671864960629921
20
0.215443937007874
11
0.3697409842519685
21
0.2137370472440945
0
LINE
8
BLACK
6
CONTINUOUS
10
0.3697409842519685
20
0.2137370472440945
11
0.371447874015748
21
0.2111825590551181
0
LINE
8
BLACK
6
CONTINUOUS
10
0.371447874015748
20
0.2111825590551181
11
0.3720472440944882
21
0.2081692913385827
0
LINE
8
BLACK
6
CONTINUOUS
10
0.3720472440944882
20
0.2081692913385827
11
0.3720472440944882
21
0.1678149606299213
0
LINE
8
BLACK
6
CONTINUOUS
10
0.3720472440944882
20
0.1678149606299213
11
0.371447874015748
21
0.1648016929133858
0
LINE
8
BLACK
6
CONTINUOUS
10
0.371447874015748
20
0.1648016929133858
11
0.3697409842519685
21
0.1622472047244095
0
LINE
8
BLACK
6
CONTINUOUS
10
0.3697409842519685
20
0.1622472047244095
11
0.3671864960629921
21
0.1605403149606299
0
LINE
8
BLACK
6
CONTINUOUS
10
0.3671864960629921
20
0.1605403149606299
11
0.3641732283464567
21
0.1599409448818898
0
LINE
8
BLACK
6
CONTINUOUS
10
0.3641732283464567
20
0.1599409448818898
11
0.3523622047244094
21
0.1599409448818898
0
LINE
8
BLACK
6
CONTINUOUS
10
0.3523622047244094
20
0.1599409448818898
11
0.349348937007874
21
0.1605403149606299
0
LINE
8
BLACK
6
CONTINUOUS
10
0.349348937007874
20
0.1605403149606299
11
0.3467944488188976
21
0.1622472047244095
0
LINE
8
BLACK
6
CONTINUOUS
10
0.3467944488188976
20
0.1622472047244095
11
0.3450875590551181
21
0.1648016929133858
0
LINE
8
BLACK
6
CONTINUOUS
10
0.3450875590551181
20
0.1648016929133858
11
0.344488188976378
21
0.1678149606299213
0
LINE
8
BLACK
6
CONTINUOUS
10
0.344488188976378
20
0.1678149606299213
11
0.344488188976378
21
0.2081692913385827
0
LINE
8
BLACK
6
CONTINUOUS
10
0.344488188976378
20
0.2081692913385827
11
0.3450875590551181
21
0.2111825590551181
0
LINE
8
BLACK
6
CONTINUOUS
10
0.3450875590551181
20
0.2111825590551181
11
0.3467944488188976
21
0.2137370472440945
0
LINE
8
BLACK
6
CONTINUOUS
10
0.3467944488188976
20
0.2137370472440945
11
0.349348937007874
21
0.215443937007874
0
LINE
8
BLACK
6
CONTINUOUS
10
0.349348937007874
20
0.215443937007874
11
0.3523622047244094
21
0.2160433070866142
0
LINE
8
BLACK
6
CONTINUOUS
10
0.3523622047244094
20
0.2160433070866142
11
0.3641732283464567
21
0.2160433070866142
0
LINE
8
BLACK
6
CONTINUOUS
10
0.3641732283464567
20
0.2160433070866142
11
0.3671864960629921
21
0.215443937007874
0
LINE
8
BLACK
6
CONTINUOUS
10
0.4419896456692913
20
0.215443937007874
11
0.4445441338582677
21
0.2137370472440945
0
LINE
8
BLACK
6
CONTINUOUS
10
0.4445441338582677
20
0.2137370472440945
11
0.4462510236220472
21
0.2111825590551181
0
LINE
8
BLACK
6
CONTINUOUS
10
0.4462510236220472
20
0.2111825590551181
11
0.4468503937007874
21
0.2081692913385827
0
LINE
8
BLACK
6
CONTINUOUS
10
0.4468503937007874
20
0.2081692913385827
11
0.4468503937007874
21
0.1678149606299213
0
LINE
8
BLACK
6
CONTINUOUS
10
0.4468503937007874
20
0.1678149606299213
11
0.4462510236220472
21
0.1648016929133858
0
LINE
8
BLACK
6
CONTINUOUS
10
0.4462510236220472
20
0.1648016929133858
11
0.4445441338582677
21
0.1622472047244095
0
LINE
8
BLACK
6
CONTINUOUS
10
0.4445441338582677
20
0.1622472047244095
11
0.4419896456692913
21
0.1605403149606299
0
LINE
8
BLACK
6
CONTINUOUS
10
0.4419896456692913
20
0.1605403149606299
11
0.4389763779527559
21
0.1599409448818898
0
LINE
8
BLACK
6
CONTINUOUS
10
0.4389763779527559
20
0.1599409448818898
11
0.4271653543307086
21
0.1599409448818898
0
LINE
8
BLACK
6
CONTINUOUS
10
0.4271653543307086
20
0.1599409448818898
11
0.4241520866141732
21
0.1605403149606299
0
LINE
8
BLACK
6
CONTINUOUS
10
0.4241520866141732
20
0.1605403149606299
11
0.4215975984251968
21
0.1622472047244095
0
LINE
8
BLACK
6
CONTINUOUS
10
0.4215975984251968
20
0.1622472047244095
11
0.4198907086614173
21
0.1648016929133858
0
LINE
8
BLACK
6
CONTINUOUS
10
0.4198907086614173
20
0.1648016929133858
11
0.4192913385826771
21
0.1678149606299213
0
LINE
8
BLACK
6
CONTINUOUS
10
0.4192913385826771
20
0.1678149606299213
11
0.4192913385826771
21
0.2081692913385827
0
LINE
8
BLACK
6
CONTINUOUS
10
0.4192913385826771
20
0.2081692913385827
11
0.4198907086614173
21
0.2111825590551181
0
LINE
8
BLACK
6
CONTINUOUS
10
0.4198907086614173
20
0.2111825590551181
11
0.4215975984251968
21
0.2137370472440945
0
LINE
8
BLACK
6
CONTINUOUS
10
0.4215975984251968
20
0.2137370472440945
11
0.4241520866141732
21
0.215443937007874
0
LINE
8
BLACK
6
CONTINUOUS
10
0.4241520866141732
20
0.215443937007874
11
0.4271653543307086
21
0.2160433070866142
0
LINE
8
BLACK
6
CONTINUOUS
10
0.4271653543307086
20
0.2160433070866142
11
0.4389763779527559
21
0.2160433070866142
0
LINE
8
BLACK
6
CONTINUOUS
10
0.4389763779527559
20
0.2160433070866142
11
0.4419896456692913
21
0.215443937007874
0
LINE
8
BLACK
6
CONTINUOUS
10
0.5206786614173228
20
0.2244711417322835
11
0.5241911023622047
21
0.2221241732283465
0
LINE
8
BLACK
6
CONTINUOUS
10
0.5241911023622047
20
0.2221241732283465
11
0.5265380708661417
21
0.2186117322834646
0
LINE
8
BLACK
6
CONTINUOUS
10
0.5265380708661417
20
0.2186117322834646
11
0.5273622047244094
21
0.2144685039370079
0
LINE
8
BLACK
6
CONTINUOUS
10
0.5273622047244094
20
0.2144685039370079
11
0.5273622047244094
21
0.196751968503937
0
LINE
8
BLACK
6
CONTINUOUS
10
0.5273622047244094
20
0.196751968503937
11
0.5265380708661417
21
0.1926087401574803
0
LINE
8
BLACK
6
CONTINUOUS
10
0.5265380708661417
20
0.1926087401574803
11
0.5241911023622047
21
0.1890962992125984
0
LINE
8
BLACK
6
CONTINUOUS
10
0.5241911023622047
20
0.1890962992125984
11
0.5206786614173228
21
0.1867493307086614
0
LINE
8
BLACK
6
CONTINUOUS
10
0.5206786614173228
20
0.1867493307086614
11
0.5165354330708661
21
0.1859251968503937
0
LINE
8
BLACK
6
CONTINUOUS
10
0.5165354330708661
20
0.1859251968503937
11
0.4968503937007874
21
0.1859251968503937
0
LINE
8
BLACK
6
CONTINUOUS
10
0.4968503937007874
20
0.1859251968503937
11
0.4927071653543307
21
0.1867493307086614
0
LINE
8
BLACK
6
CONTINUOUS
10
0.4927071653543307
20
0.1867493307086614
11
0.4891947244094488
21
0.1890962992125984
0
LINE
8
BLACK
6
CONTINUOUS
10
0.4891947244094488
20
0.1890962992125984
11
0.4868477559055118
21
0.1926087401574803
0
LINE
8
BLACK
6
CONTINUOUS
10
0.4868477559055118
20
0.1926087401574803
11
0.4860236220472441
21
0.196751968503937
0
LINE
8
BLACK
6
CONTINUOUS
10
0.4860236220472441
20
0.196751968503937
11
0.4860236220472441
21
0.2144685039370079
0
LINE
8
BLACK
6
CONTINUOUS
10
0.4860236220472441
20
0.2144685039370079
11
0.4868477559055118
21
0.2186117322834646
0
LINE
8
BLACK
6
CONTINUOUS
10
0.4868477559055118
20
0.2186117322834646
11
0.4891947244094488
21
0.2221241732283465
0
LINE
8
BLACK
6
CONTINUOUS
10
0.4891947244094488
20
0.2221241732283465
11
0.4927071653543307
21
0.2244711417322835
0
LINE
8
BLACK
6
CONTINUOUS
10
0.4927071653543307
20
0.2244711417322835
11
0.4968503937007874
21
0.2252952755905512
0
LINE
8
BLACK
6
CONTINUOUS
10
0.4968503937007874
20
0.2252952755905512
11
0.5165354330708661
21
0.2252952755905512
0
LINE
8
BLACK
6
CONTINUOUS
10
0.5165354330708661
20
0.2252952755905512
11
0.5206786614173228
21
0.2244711417322835
0
LINE
8
BLACK
6
CONTINUOUS
10
0.5866235433070865
20
0.2244711417322835
11
0.5901359842519684
21
0.2221241732283465
0
LINE
8
BLACK
6
CONTINUOUS
10
0.5901359842519684
20
0.2221241732283465
11
0.5924829527559055
21
0.2186117322834646
0
LINE
8
BLACK
6
CONTINUOUS
10
0.5924829527559055
20
0.2186117322834646
11
0.5933070866141732
21
0.2144685039370079
0
LINE
8
BLACK
6
CONTINUOUS
10
0.5933070866141732
20
0.2144685039370079
11
0.5933070866141732
21
0.196751968503937
0
LINE
8
BLACK
6
CONTINUOUS
10
0.5933070866141732
20
0.196751968503937
11
0.5924829527559055
21
0.1926087401574803
0
LINE
8
BLACK
6
CONTINUOUS
10
0.5924829527559055
20
0.1926087401574803
11
0.5901359842519684
21
0.1890962992125984
0
LINE
8
BLACK
6
CONTINUOUS
10
0.5901359842519684
20
0.1890962992125984
11
0.5866235433070865
21
0.1867493307086614
0
LINE
8
BLACK
6
CONTINUOUS
10
0.5866235433070865
20
0.1867493307086614
11
0.5824803149606299
21
0.1859251968503937
0
LINE
8
BLACK
6
CONTINUOUS
10
0.5824803149606299
20
0.1859251968503937
11
0.5627952755905512
21
0.1859251968503937
0
LINE
8
BLACK
6
CONTINUOUS
10
0.5627952755905512
20
0.1859251968503937
11
0.5586520472440945
21
0.1867493307086614
0
LINE
8
BLACK
6
CONTINUOUS
10
0.5586520472440945
20
0.1867493307086614
11
0.5551396062992126
21
0.1890962992125984
0
LINE
8
BLACK
6
CONTINUOUS
10
0.5551396062992126
20
0.1890962992125984
11
0.5527926377952755
21
0.1926087401574803
0
LINE
8
BLACK
6
CONTINUOUS
10
0.5527926377952755
20
0.1926087401574803
11
0.5519685039370079
21
0.196751968503937
0
LINE
8
BLACK
6
CONTINUOUS
10
0.5519685039370079
20
0.196751968503937
11
0.5519685039370079
21
0.2144685039370079
0
LINE
8
BLACK
6
CONTINUOUS
10
0.5519685039370079
20
0.2144685039370079
11
0.5527926377952755
21
0.2186117322834646
0
LINE
8
BLACK
6
CONTINUOUS
10
0.5527926377952755
20
0.2186117322834646
11
0.5551396062992126
21
0.2221241732283465
0
LINE
8
BLACK
6
CONTINUOUS
10
0.5551396062992126
20
0.2221241732283465
11
0.5586520472440945
21
0.2244711417322835
0
LINE
8
BLACK
6
CONTINUOUS
10
0.5586520472440945
20
0.2244711417322835
11
0.5627952755905512
21
0.2252952755905512
0
LINE
8
BLACK
6
CONTINUOUS
10
0.5627952755905512
20
0.2252952755905512
11
0.5824803149606299
21
0.2252952755905512
0
LINE
8
BLACK
6
CONTINUOUS
10
0.5824803149606299
20
0.2252952755905512
11
0.5866235433070865
21
0.2244711417322835
0
LINE
8
BLACK
6
CONTINUOUS
10
0.2205329527559055
20
0.2346368503937008
11
0.2230874409448819
21
0.2329299606299212
0
LINE
8
BLACK
6
CONTINUOUS
10
0.2230874409448819
20
0.2329299606299212
11
0.2247943307086614
21
0.2303754724409449
0
LINE
8
BLACK
6
CONTINUOUS
10
0.2247943307086614
20
0.2303754724409449
11
0.2253937007874016
21
0.2273622047244094
0
LINE
8
BLACK
6
CONTINUOUS
10
0.2253937007874016
20
0.2273622047244094
11
0.2253937007874016
21
0.2155511811023622
0
LINE
8
BLACK
6
CONTINUOUS
10
0.2253937007874016
20
0.2155511811023622
11
0.2247943307086614
21
0.2125379133858268
0
LINE
8
BLACK
6
CONTINUOUS
10
0.2247943307086614
20
0.2125379133858268
11
0.2230874409448819
21
0.2099834251968504
0
LINE
8
BLACK
6
CONTINUOUS
10
0.2230874409448819
20
0.2099834251968504
11
0.2205329527559055
21
0.2082765354330709
0
LINE
8
BLACK
6
CONTINUOUS
10
0.2205329527559055
20
0.2082765354330709
11
0.2175196850393701
21
0.2076771653543307
0
LINE
8
BLACK
6
CONTINUOUS
10
0.2175196850393701
20
0.2076771653543307
11
0.1624015748031496
21
0.2076771653543307
0
LINE
8
BLACK
6
CONTINUOUS
10
0.1624015748031496
20
0.2076771653543307
11
0.1593883070866142
21
0.2082765354330709
0
LINE
8
BLACK
6
CONTINUOUS
10
0.1593883070866142
20
0.2082765354330709
11
0.1568338188976378
21
0.2099834251968504
0
LINE
8
BLACK
6
CONTINUOUS
10
0.1568338188976378
20
0.2099834251968504
11
0.1551269291338583
21
0.2125379133858268
0
LINE
8
BLACK
6
CONTINUOUS
10
0.1551269291338583
20
0.2125379133858268
11
0.1545275590551181
21
0.2155511811023622
0
LINE
8
BLACK
6
CONTINUOUS
10
0.1545275590551181
20
0.2155511811023622
11
0.1545275590551181
21
0.2273622047244094
0
LINE
8
BLACK
6
CONTINUOUS
10
0.1545275590551181
20
0.2273622047244094
11
0.1551269291338583
21
0.2303754724409449
0
LINE
8
BLACK
6
CONTINUOUS
10
0.1551269291338583
20
0.2303754724409449
11
0.1568338188976378
21
0.2329299606299212
0
LINE
8
BLACK
6
CONTINUOUS
10
0.1568338188976378
20
0.2329299606299212
11
0.1593883070866142
21
0.2346368503937008
0
LINE
8
BLACK
6
CONTINUOUS
10
0.1593883070866142
20
0.2346368503937008
11
0.1624015748031496
21
0.2352362204724409
0
LINE
8
BLACK
6
CONTINUOUS
10
0.1624015748031496
20
0.2352362204724409
11
0.2175196850393701
21
0.2352362204724409
0
LINE
8
BLACK
6
CONTINUOUS
10
0.2175196850393701
20
0.2352362204724409
11
0.2205329527559055
21
0.2346368503937008
0
LINE
8
BLACK
6
CONTINUOUS
10
0.6690092519685039
20
0.2352553149606299
11
0.6706058267716535
21
0.2341885039370079
0
LINE
8
BLACK
6
CONTINUOUS
10
0.6706058267716535
20
0.2341885039370079
11
0.6716726377952755
21
0.2325919291338583
0
LINE
8
BLACK
6
CONTINUOUS
10
0.6716726377952755
20
0.2325919291338583
11
0.6720472440944881
21
0.2307086614173228
0
LINE
8
BLACK
6
CONTINUOUS
10
0.6720472440944881
20
0.2307086614173228
11
0.6720472440944881
21
0.2248031496062992
0
LINE
8
BLACK
6
CONTINUOUS
10
0.6720472440944881
20
0.2248031496062992
11
0.6716726377952755
21
0.2229198818897638
0
LINE
8
BLACK
6
CONTINUOUS
10
0.6716726377952755
20
0.2229198818897638
11
0.6706058267716535
21
0.2213233070866142
0
LINE
8
BLACK
6
CONTINUOUS
10
0.6706058267716535
20
0.2213233070866142
11
0.6690092519685039
21
0.2202564960629921
0
LINE
8
BLACK
6
CONTINUOUS
10
0.6690092519685039
20
0.2202564960629921
11
0.6671259842519685
21
0.2198818897637795
0
LINE
8
BLACK
6
CONTINUOUS
10
0.6671259842519685
20
0.2198818897637795
11
0.6159448818897638
21
0.2198818897637795
0
LINE
8
BLACK
6
CONTINUOUS
10
0.6159448818897638
20
0.2198818897637795
11
0.6140616141732284
21
0.2202564960629921
0
LINE
8
BLACK
6
CONTINUOUS
10
0.6140616141732284
20
0.2202564960629921
11
0.6124650393700787
21
0.2213233070866142
0
LINE
8
BLACK
6
CONTINUOUS
10
0.6124650393700787
20
0.2213233070866142
11
0.6113982283464566
21
0.2229198818897638
0
LINE
8
BLACK
6
CONTINUOUS
10
0.6113982283464566
20
0.2229198818897638
11
0.611023622047244
21
0.2248031496062992
0
LINE
8
BLACK
6
CONTINUOUS
10
0.611023622047244
20
0.2248031496062992
11
0.611023622047244
21
0.2307086614173228
0
LINE
8
BLACK
6
CONTINUOUS
10
0.611023622047244
20
0.2307086614173228
11
0.6113982283464566
21
0.2325919291338583
0
LINE
8
BLACK
6
CONTINUOUS
10
0.6113982283464566
20
0.2325919291338583
11
0.6124650393700787
21
0.2341885039370079
0
LINE
8
BLACK
6
CONTINUOUS
10
0.6124650393700787
20
0.2341885039370079
11
0.6140616141732284
21
0.2352553149606299
0
LINE
8
BLACK
6
CONTINUOUS
10
0.6140616141732284
20
0.2352553149606299
11
0.6159448818897638
21
0.2356299212598425
0
LINE
8
BLACK
6
CONTINUOUS
10
0.6159448818897638
20
0.2356299212598425
11
0.6671259842519685
21
0.2356299212598425
0
LINE
8
BLACK
6
CONTINUOUS
10
0.6671259842519685
20
0.2356299212598425
11
0.6690092519685039
21
0.2352553149606299
0
LINE
8
BLACK
6
CONTINUOUS
10
0.8422375984251969
20
0.2352553149606299
11
0.8438341732283464
21
0.2341885039370079
0
LINE
8
BLACK
6
CONTINUOUS
10
0.8438341732283464
20
0.2341885039370079
11
0.8449009842519685
21
0.2325919291338583
0
LINE
8
BLACK
6
CONTINUOUS
10
0.8449009842519685
20
0.2325919291338583
11
0.8452755905511811
21
0.2307086614173228
0
LINE
8
BLACK
6
CONTINUOUS
10
0.8452755905511811
20
0.2307086614173228
11
0.8452755905511811
21
0.2248031496062992
0
LINE
8
BLACK
6
CONTINUOUS
10
0.8452755905511811
20
0.2248031496062992
11
0.8449009842519685
21
0.2229198818897638
0
LINE
8
BLACK
6
CONTINUOUS
10
0.8449009842519685
20
0.2229198818897638
11
0.8438341732283464
21
0.2213233070866142
0
LINE
8
BLACK
6
CONTINUOUS
10
0.8438341732283464
20
0.2213233070866142
11
0.8422375984251969
21
0.2202564960629921
0
LINE
8
BLACK
6
CONTINUOUS
10
0.8422375984251969
20
0.2202564960629921
11
0.8403543307086614
21
0.2198818897637795
0
LINE
8
BLACK
6
CONTINUOUS
10
0.8403543307086614
20
0.2198818897637795
11
0.7891732283464566
21
0.2198818897637795
0
LINE
8
BLACK
6
CONTINUOUS
10
0.7891732283464566
20
0.2198818897637795
11
0.7872899606299213
21
0.2202564960629921
0
LINE
8
BLACK
6
CONTINUOUS
10
0.7872899606299213
20
0.2202564960629921
11
0.7856933858267716
21
0.2213233070866142
0
LINE
8
BLACK
6
CONTINUOUS
10
0.7856933858267716
20
0.2213233070866142
11
0.7846265748031496
21
0.2229198818897638
0
LINE
8
BLACK
6
CONTINUOUS
10
0.7846265748031496
20
0.2229198818897638
11
0.784251968503937
21
0.2248031496062992
0
LINE
8
BLACK
6
CONTINUOUS
10
0.784251968503937
20
0.2248031496062992
11
0.784251968503937
21
0.2307086614173228
0
LINE
8
BLACK
6
CONTINUOUS
10
0.784251968503937
20
0.2307086614173228
11
0.7846265748031496
21
0.2325919291338583
0
LINE
8
BLACK
6
CONTINUOUS
10
0.7846265748031496
20
0.2325919291338583
11
0.7856933858267716
21
0.2341885039370079
0
LINE
8
BLACK
6
CONTINUOUS
10
0.7856933858267716
20
0.2341885039370079
11
0.7872899606299213
21
0.2352553149606299
0
LINE
8
BLACK
6
CONTINUOUS
10
0.7872899606299213
20
0.2352553149606299
11
0.7891732283464566
21
0.2356299212598425
0
LINE
8
BLACK
6
CONTINUOUS
10
0.7891732283464566
20
0.2356299212598425
11
0.8403543307086614
21
0.2356299212598425
0
LINE
8
BLACK
6
CONTINUOUS
10
0.8403543307086614
20
0.2356299212598425
11
0.8422375984251969
21
0.2352553149606299
0
LINE
8
BLACK
6
CONTINUOUS
10
0.9714225984251968
20
0.2667792913385827
11
0.9720612204724409
21
0.2663525590551181
0
LINE
8
BLACK
6
CONTINUOUS
10
0.9720612204724409
20
0.2663525590551181
11
0.9724879527559055
21
0.265713937007874
0
LINE
8
BLACK
6
CONTINUOUS
10
0.9724879527559055
20
0.265713937007874
11
0.9726377952755906
21
0.2649606299212598
0
LINE
8
BLACK
6
CONTINUOUS
10
0.9726377952755906
20
0.2649606299212598
11
0.9726377952755906
21
0.2255905511811024
0
LINE
8
BLACK
6
CONTINUOUS
10
0.9726377952755906
20
0.2255905511811024
11
0.9724879527559055
21
0.2248372440944882
0
LINE
8
BLACK
6
CONTINUOUS
10
0.9724879527559055
20
0.2248372440944882
11
0.9720612204724409
21
0.2241986220472441
0
LINE
8
BLACK
6
CONTINUOUS
10
0.9720612204724409
20
0.2241986220472441
11
0.9714225984251968
21
0.2237718897637795
0
LINE
8
BLACK
6
CONTINUOUS
10
0.9714225984251968
20
0.2237718897637795
11
0.9706692913385827
21
0.2236220472440945
0
LINE
8
BLACK
6
CONTINUOUS
10
0.9706692913385827
20
0.2236220472440945
11
0.8718503937007874
21
0.2236220472440945
0
LINE
8
BLACK
6
CONTINUOUS
10
0.8718503937007874
20
0.2236220472440945
11
0.8710970866141732
21
0.2237718897637795
0
LINE
8
BLACK
6
CONTINUOUS
10
0.8710970866141732
20
0.2237718897637795
11
0.8704584645669291
21
0.2241986220472441
0
LINE
8
BLACK
6
CONTINUOUS
10
0.8704584645669291
20
0.2241986220472441
11
0.8700317322834645
21
0.2248372440944882
0
LINE
8
BLACK
6
CONTINUOUS
10
0.8700317322834645
20
0.2248372440944882
11
0.8698818897637796
21
0.2255905511811024
0
LINE
8
BLACK
6
CONTINUOUS
10
0.8698818897637796
20
0.2255905511811024
11
0.8698818897637796
21
0.2649606299212598
0
LINE
8
BLACK
6
CONTINUOUS
10
0.8698818897637796
20
0.2649606299212598
11
0.8700317322834645
21
0.265713937007874
0
LINE
8
BLACK
6
CONTINUOUS
10
0.8700317322834645
20
0.265713937007874
11
0.8704584645669291
21
0.2663525590551181
0
LINE
8
BLACK
6
CONTINUOUS
10
0.8704584645669291
20
0.2663525590551181
11
0.8710970866141732
21
0.2667792913385827
0
LINE
8
BLACK
6
CONTINUOUS
10
0.8710970866141732
20
0.2667792913385827
11
0.8718503937007874
21
0.2669291338582677
0
LINE
8
BLACK
6
CONTINUOUS
10
0.8718503937007874
20
0.2669291338582677
11
0.9706692913385827
21
0.2669291338582677
0
LINE
8
BLACK
6
CONTINUOUS
10
0.9706692913385827
20
0.2669291338582677
11
0.9714225984251968
21
0.2667792913385827
0
LINE
8
BLACK
6
CONTINUOUS
10
0.6690092519685039
20
0.2549403543307087
11
0.6706058267716535
21
0.2538735433070866
0
LINE
8
BLACK
6
CONTINUOUS
10
0.6706058267716535
20
0.2538735433070866
11
0.6716726377952755
21
0.252276968503937
0
LINE
8
BLACK
6
CONTINUOUS
10
0.6716726377952755
20
0.252276968503937
11
0.6720472440944881
21
0.2503937007874016
0
LINE
8
BLACK
6
CONTINUOUS
10
0.6720472440944881
20
0.2503937007874016
11
0.6720472440944881
21
0.2444881889763779
0
LINE
8
BLACK
6
CONTINUOUS
10
0.6720472440944881
20
0.2444881889763779
11
0.6716726377952755
21
0.2426049212598425
0
LINE
8
BLACK
6
CONTINUOUS
10
0.6716726377952755
20
0.2426049212598425
11
0.6706058267716535
21
0.2410083464566929
0
LINE
8
BLACK
6
CONTINUOUS
10
0.6706058267716535
20
0.2410083464566929
11
0.6690092519685039
21
0.2399415354330709
0
LINE
8
BLACK
6
CONTINUOUS
10
0.6690092519685039
20
0.2399415354330709
11
0.6671259842519685
21
0.2395669291338583
0
LINE
8
BLACK
6
CONTINUOUS
10
0.6671259842519685
20
0.2395669291338583
11
0.6159448818897638
21
0.2395669291338583
0
LINE
8
BLACK
6
CONTINUOUS
10
0.6159448818897638
20
0.2395669291338583
11
0.6140616141732284
21
0.2399415354330709
0
LINE
8
BLACK
6
CONTINUOUS
10
0.6140616141732284
20
0.2399415354330709
11
0.6124650393700787
21
0.2410083464566929
0
LINE
8
BLACK
6
CONTINUOUS
10
0.6124650393700787
20
0.2410083464566929
11
0.6113982283464566
21
0.2426049212598425
0
LINE
8
BLACK
6
CONTINUOUS
10
0.6113982283464566
20
0.2426049212598425
11
0.611023622047244
21
0.2444881889763779
0
LINE
8
BLACK
6
CONTINUOUS
10
0.611023622047244
20
0.2444881889763779
11
0.611023622047244
21
0.2503937007874016
0
LINE
8
BLACK
6
CONTINUOUS
10
0.611023622047244
20
0.2503937007874016
11
0.6113982283464566
21
0.252276968503937
0
LINE
8
BLACK
6
CONTINUOUS
10
0.6113982283464566
20
0.252276968503937
11
0.6124650393700787
21
0.2538735433070866
0
LINE
8
BLACK
6
CONTINUOUS
10
0.6124650393700787
20
0.2538735433070866
11
0.6140616141732284
21
0.2549403543307087
0
LINE
8
BLACK
6
CONTINUOUS
10
0.6140616141732284
20
0.2549403543307087
11
0.6159448818897638
21
0.2553149606299213
0
LINE
8
BLACK
6
CONTINUOUS
10
0.6159448818897638
20
0.2553149606299213
11
0.6671259842519685
21
0.2553149606299213
0
LINE
8
BLACK
6
CONTINUOUS
10
0.6671259842519685
20
0.2553149606299213
11
0.6690092519685039
21
0.2549403543307087
0
LINE
8
BLACK
6
CONTINUOUS
10
0.8422375984251969
20
0.2549403543307087
11
0.8438341732283464
21
0.2538735433070866
0
LINE
8
BLACK
6
CONTINUOUS
10
0.8438341732283464
20
0.2538735433070866
11
0.8449009842519685
21
0.252276968503937
0
LINE
8
BLACK
6
CONTINUOUS
10
0.8449009842519685
20
0.252276968503937
11
0.8452755905511811
21
0.2503937007874016
0
LINE
8
BLACK
6
CONTINUOUS
10
0.8452755905511811
20
0.2503937007874016
11
0.8452755905511811
21
0.2444881889763779
0
LINE
8
BLACK
6
CONTINUOUS
10
0.8452755905511811
20
0.2444881889763779
11
0.8449009842519685
21
0.2426049212598425
0
LINE
8
BLACK
6
CONTINUOUS
10
0.8449009842519685
20
0.2426049212598425
11
0.8438341732283464
21
0.2410083464566929
0
LINE
8
BLACK
6
CONTINUOUS
10
0.8438341732283464
20
0.2410083464566929
11
0.8422375984251969
21
0.2399415354330709
0
LINE
8
BLACK
6
CONTINUOUS
10
0.8422375984251969
20
0.2399415354330709
11
0.8403543307086614
21
0.2395669291338583
0
LINE
8
BLACK
6
CONTINUOUS
10
0.8403543307086614
20
0.2395669291338583
11
0.7891732283464566
21
0.2395669291338583
0
LINE
8
BLACK
6
CONTINUOUS
10
0.7891732283464566
20
0.2395669291338583
11
0.7872899606299213
21
0.2399415354330709
0
LINE
8
BLACK
6
CONTINUOUS
10
0.7872899606299213
20
0.2399415354330709
11
0.7856933858267716
21
0.2410083464566929
0
LINE
8
BLACK
6
CONTINUOUS
10
0.7856933858267716
20
0.2410083464566929
11
0.7846265748031496
21
0.2426049212598425
0
LINE
8
BLACK
6
CONTINUOUS
10
0.7846265748031496
20
0.2426049212598425
11
0.784251968503937
21
0.2444881889763779
0
LINE
8
BLACK
6
CONTINUOUS
10
0.784251968503937
20
0.2444881889763779
11
0.784251968503937
21
0.2503937007874016
0
LINE
8
BLACK
6
CONTINUOUS
10
0.784251968503937
20
0.2503937007874016
11
0.7846265748031496
21
0.252276968503937
0
LINE
8
BLACK
6
CONTINUOUS
10
0.7846265748031496
20
0.252276968503937
11
0.7856933858267716
21
0.2538735433070866
0
LINE
8
BLACK
6
CONTINUOUS
10
0.7856933858267716
20
0.2538735433070866
11
0.7872899606299213
21
0.2549403543307087
0
LINE
8
BLACK
6
CONTINUOUS
10
0.7872899606299213
20
0.2549403543307087
11
0.7891732283464566
21
0.2553149606299213
0
LINE
8
BLACK
6
CONTINUOUS
10
0.7891732283464566
20
0.2553149606299213
11
0.8403543307086614
21
0.2553149606299213
0
LINE
8
BLACK
6
CONTINUOUS
10
0.8403543307086614
20
0.2553149606299213
11
0.8422375984251969
21
0.2549403543307087
0
LINE
8
BLACK
6
CONTINUOUS
10
0.5206786614173228
20
0.2854947637795275
11
0.5241911023622047
21
0.2831477952755905
0
LINE
8
BLACK
6
CONTINUOUS
10
0.5241911023622047
20
0.2831477952755905
11
0.5265380708661417
21
0.2796353543307086
0
LINE
8
BLACK
6
CONTINUOUS
10
0.5265380708661417
20
0.2796353543307086
11
0.5273622047244094
21
0.275492125984252
0
LINE
8
BLACK
6
CONTINUOUS
10
0.5273622047244094
20
0.275492125984252
11
0.5273622047244094
21
0.2577755905511811
0
LINE
8
BLACK
6
CONTINUOUS
10
0.5273622047244094
20
0.2577755905511811
11
0.5265380708661417
21
0.2536323622047244
0
LINE
8
BLACK
6
CONTINUOUS
10
0.5265380708661417
20
0.2536323622047244
11
0.5241911023622047
21
0.2501199212598425
0
LINE
8
BLACK
6
CONTINUOUS
10
0.5241911023622047
20
0.2501199212598425
11
0.5206786614173228
21
0.2477729527559055
0
LINE
8
BLACK
6
CONTINUOUS
10
0.5206786614173228
20
0.2477729527559055
11
0.5165354330708661
21
0.2469488188976378
0
LINE
8
BLACK
6
CONTINUOUS
10
0.5165354330708661
20
0.2469488188976378
11
0.4968503937007874
21
0.2469488188976378
0
LINE
8
BLACK
6
CONTINUOUS
10
0.4968503937007874
20
0.2469488188976378
11
0.4927071653543307
21
0.2477729527559055
0
LINE
8
BLACK
6
CONTINUOUS
10
0.4927071653543307
20
0.2477729527559055
11
0.4891947244094488
21
0.2501199212598425
0
LINE
8
BLACK
6
CONTINUOUS
10
0.4891947244094488
20
0.2501199212598425
11
0.4868477559055118
21
0.2536323622047244
0
LINE
8
BLACK
6
CONTINUOUS
10
0.4868477559055118
20
0.2536323622047244
11
0.4860236220472441
21
0.2577755905511811
0
LINE
8
BLACK
6
CONTINUOUS
10
0.4860236220472441
20
0.2577755905511811
11
0.4860236220472441
21
0.275492125984252
0
LINE
8
BLACK
6
CONTINUOUS
10
0.4860236220472441
20
0.275492125984252
11
0.4868477559055118
21
0.2796353543307086
0
LINE
8
BLACK
6
CONTINUOUS
10
0.4868477559055118
20
0.2796353543307086
11
0.4891947244094488
21
0.2831477952755905
0
LINE
8
BLACK
6
CONTINUOUS
10
0.4891947244094488
20
0.2831477952755905
11
0.4927071653543307
21
0.2854947637795275
0
LINE
8
BLACK
6
CONTINUOUS
10
0.4927071653543307
20
0.2854947637795275
11
0.4968503937007874
21
0.2863188976377953
0
LINE
8
BLACK
6
CONTINUOUS
10
0.4968503937007874
20
0.2863188976377953
11
0.5165354330708661
21
0.2863188976377953
0
LINE
8
BLACK
6
CONTINUOUS
10
0.5165354330708661
20
0.2863188976377953
11
0.5206786614173228
21
0.2854947637795275
0
LINE
8
BLACK
6
CONTINUOUS
10
0.5866235433070865
20
0.2854947637795275
11
0.5901359842519684
21
0.2831477952755905
0
LINE
8
BLACK
6
CONTINUOUS
10
0.5901359842519684
20
0.2831477952755905
11
0.5924829527559055
21
0.2796353543307086
0
LINE
8
BLACK
6
CONTINUOUS
10
0.5924829527559055
20
0.2796353543307086
11
0.5933070866141732
21
0.275492125984252
0
LINE
8
BLACK
6
CONTINUOUS
10
0.5933070866141732
20
0.275492125984252
11
0.5933070866141732
21
0.2577755905511811
0
LINE
8
BLACK
6
CONTINUOUS
10
0.5933070866141732
20
0.2577755905511811
11
0.5924829527559055
21
0.2536323622047244
0
LINE
8
BLACK
6
CONTINUOUS
10
0.5924829527559055
20
0.2536323622047244
11
0.5901359842519684
21
0.2501199212598425
0
LINE
8
BLACK
6
CONTINUOUS
10
0.5901359842519684
20
0.2501199212598425
11
0.5866235433070865
21
0.2477729527559055
0
LINE
8
BLACK
6
CONTINUOUS
10
0.5866235433070865
20
0.2477729527559055
11
0.5824803149606299
21
0.2469488188976378
0
LINE
8
BLACK
6
CONTINUOUS
10
0.5824803149606299
20
0.2469488188976378
11
0.5627952755905512
21
0.2469488188976378
0
LINE
8
BLACK
6
CONTINUOUS
10
0.5627952755905512
20
0.2469488188976378
11
0.5586520472440945
21
0.2477729527559055
0
LINE
8
BLACK
6
CONTINUOUS
10
0.5586520472440945
20
0.2477729527559055
11
0.5551396062992126
21
0.2501199212598425
0
LINE
8
BLACK
6
CONTINUOUS
10
0.5551396062992126
20
0.2501199212598425
11
0.5527926377952755
21
0.2536323622047244
0
LINE
8
BLACK
6
CONTINUOUS
10
0.5527926377952755
20
0.2536323622047244
11
0.5519685039370079
21
0.2577755905511811
0
LINE
8
BLACK
6
CONTINUOUS
10
0.5519685039370079
20
0.2577755905511811
11
0.5519685039370079
21
0.275492125984252
0
LINE
8
BLACK
6
CONTINUOUS
10
0.5519685039370079
20
0.275492125984252
11
0.5527926377952755
21
0.2796353543307086
0
LINE
8
BLACK
6
CONTINUOUS
10
0.5527926377952755
20
0.2796353543307086
11
0.5551396062992126
21
0.2831477952755905
0
LINE
8
BLACK
6
CONTINUOUS
10
0.5551396062992126
20
0.2831477952755905
11
0.5586520472440945
21
0.2854947637795275
0
LINE
8
BLACK
6
CONTINUOUS
10
0.5586520472440945
20
0.2854947637795275
11
0.5627952755905512
21
0.2863188976377953
0
LINE
8
BLACK
6
CONTINUOUS
10
0.5627952755905512
20
0.2863188976377953
11
0.5824803149606299
21
0.2863188976377953
0
LINE
8
BLACK
6
CONTINUOUS
10
0.5824803149606299
20
0.2863188976377953
11
0.5866235433070865
21
0.2854947637795275
0
LINE
8
BLACK
6
CONTINUOUS
10
0.3671864960629921
20
0.3050108661417323
11
0.3697409842519685
21
0.3033039763779528
0
LINE
8
BLACK
6
CONTINUOUS
10
0.3697409842519685
20
0.3033039763779528
11
0.371447874015748
21
0.3007494881889763
0
LINE
8
BLACK
6
CONTINUOUS
10
0.371447874015748
20
0.3007494881889763
11
0.3720472440944882
21
0.2977362204724409
0
LINE
8
BLACK
6
CONTINUOUS
10
0.3720472440944882
20
0.2977362204724409
11
0.3720472440944882
21
0.2573818897637795
0
LINE
8
BLACK
6
CONTINUOUS
10
0.3720472440944882
20
0.2573818897637795
11
0.371447874015748
21
0.2543686220472441
0
LINE
8
BLACK
6
CONTINUOUS
10
0.371447874015748
20
0.2543686220472441
11
0.3697409842519685
21
0.2518141338582677
0
LINE
8
BLACK
6
CONTINUOUS
10
0.3697409842519685
20
0.2518141338582677
11
0.3671864960629921
21
0.2501072440944882
0
LINE
8
BLACK
6
CONTINUOUS
10
0.3671864960629921
20
0.2501072440944882
11
0.3641732283464567
21
0.249507874015748
0
LINE
8
BLACK
6
CONTINUOUS
10
0.3641732283464567
20
0.249507874015748
11
0.3523622047244094
21
0.249507874015748
0
LINE
8
BLACK
6
CONTINUOUS
10
0.3523622047244094
20
0.249507874015748
11
0.349348937007874
21
0.2501072440944882
0
LINE
8
BLACK
6
CONTINUOUS
10
0.349348937007874
20
0.2501072440944882
11
0.3467944488188976
21
0.2518141338582677
0
LINE
8
BLACK
6
CONTINUOUS
10
0.3467944488188976
20
0.2518141338582677
11
0.3450875590551181
21
0.2543686220472441
0
LINE
8
BLACK
6
CONTINUOUS
10
0.3450875590551181
20
0.2543686220472441
11
0.344488188976378
21
0.2573818897637795
0
LINE
8
BLACK
6
CONTINUOUS
10
0.344488188976378
20
0.2573818897637795
11
0.344488188976378
21
0.2977362204724409
0
LINE
8
BLACK
6
CONTINUOUS
10
0.344488188976378
20
0.2977362204724409
11
0.3450875590551181
21
0.3007494881889763
0
LINE
8
BLACK
6
CONTINUOUS
10
0.3450875590551181
20
0.3007494881889763
11
0.3467944488188976
21
0.3033039763779528
0
LINE
8
BLACK
6
CONTINUOUS
10
0.3467944488188976
20
0.3033039763779528
11
0.349348937007874
21
0.3050108661417323
0
LINE
8
BLACK
6
CONTINUOUS
10
0.349348937007874
20
0.3050108661417323
11
0.3523622047244094
21
0.3056102362204725
0
LINE
8
BLACK
6
CONTINUOUS
10
0.3523622047244094
20
0.3056102362204725
11
0.3641732283464567
21
0.3056102362204725
0
LINE
8
BLACK
6
CONTINUOUS
10
0.3641732283464567
20
0.3056102362204725
11
0.3671864960629921
21
0.3050108661417323
0
LINE
8
BLACK
6
CONTINUOUS
10
0.4045880708661417
20
0.3050108661417323
11
0.4071425590551181
21
0.3033039763779528
0
LINE
8
BLACK
6
CONTINUOUS
10
0.4071425590551181
20
0.3033039763779528
11
0.4088494488188976
21
0.3007494881889763
0
LINE
8
BLACK
6
CONTINUOUS
10
0.4088494488188976
20
0.3007494881889763
11
0.4094488188976378
21
0.2977362204724409
0
LINE
8
BLACK
6
CONTINUOUS
10
0.4094488188976378
20
0.2977362204724409
11
0.4094488188976378
21
0.2573818897637795
0
LINE
8
BLACK
6
CONTINUOUS
10
0.4094488188976378
20
0.2573818897637795
11
0.4088494488188976
21
0.2543686220472441
0
LINE
8
BLACK
6
CONTINUOUS
10
0.4088494488188976
20
0.2543686220472441
11
0.4071425590551181
21
0.2518141338582677
0
LINE
8
BLACK
6
CONTINUOUS
10
0.4071425590551181
20
0.2518141338582677
11
0.4045880708661417
21
0.2501072440944882
0
LINE
8
BLACK
6
CONTINUOUS
10
0.4045880708661417
20
0.2501072440944882
11
0.4015748031496063
21
0.249507874015748
0
LINE
8
BLACK
6
CONTINUOUS
10
0.4015748031496063
20
0.249507874015748
11
0.389763779527559
21
0.249507874015748
0
LINE
8
BLACK
6
CONTINUOUS
10
0.389763779527559
20
0.249507874015748
11
0.3867505118110236
21
0.2501072440944882
0
LINE
8
BLACK
6
CONTINUOUS
10
0.3867505118110236
20
0.2501072440944882
11
0.3841960236220472
21
0.2518141338582677
0
LINE
8
BLACK
6
CONTINUOUS
10
0.3841960236220472
20
0.2518141338582677
11
0.3824891338582677
21
0.2543686220472441
0
LINE
8
BLACK
6
CONTINUOUS
10
0.3824891338582677
20
0.2543686220472441
11
0.3818897637795275
21
0.2573818897637795
0
LINE
8
BLACK
6
CONTINUOUS
10
0.3818897637795275
20
0.2573818897637795
11
0.3818897637795275
21
0.2977362204724409
0
LINE
8
BLACK
6
CONTINUOUS
10
0.3818897637795275
20
0.2977362204724409
11
0.3824891338582677
21
0.3007494881889763
0
LINE
8
BLACK
6
CONTINUOUS
10
0.3824891338582677
20
0.3007494881889763
11
0.3841960236220472
21
0.3033039763779528
0
LINE
8
BLACK
6
CONTINUOUS
10
0.3841960236220472
20
0.3033039763779528
11
0.3867505118110236
21
0.3050108661417323
0
LINE
8
BLACK
6
CONTINUOUS
10
0.3867505118110236
20
0.3050108661417323
11
0.389763779527559
21
0.3056102362204725
0
LINE
8
BLACK
6
CONTINUOUS
10
0.389763779527559
20
0.3056102362204725
11
0.4015748031496063
21
0.3056102362204725
0
LINE
8
BLACK
6
CONTINUOUS
10
0.4015748031496063
20
0.3056102362204725
11
0.4045880708661417
21
0.3050108661417323
0
LINE
8
BLACK
6
CONTINUOUS
10
0.4419896456692913
20
0.3050108661417323
11
0.4445441338582677
21
0.3033039763779528
0
LINE
8
BLACK
6
CONTINUOUS
10
0.4445441338582677
20
0.3033039763779528
11
0.4462510236220472
21
0.3007494881889763
0
LINE
8
BLACK
6
CONTINUOUS
10
0.4462510236220472
20
0.3007494881889763
11
0.4468503937007874
21
0.2977362204724409
0
LINE
8
BLACK
6
CONTINUOUS
10
0.4468503937007874
20
0.2977362204724409
11
0.4468503937007874
21
0.2573818897637795
0
LINE
8
BLACK
6
CONTINUOUS
10
0.4468503937007874
20
0.2573818897637795
11
0.4462510236220472
21
0.2543686220472441
0
LINE
8
BLACK
6
CONTINUOUS
10
0.4462510236220472
20
0.2543686220472441
11
0.4445441338582677
21
0.2518141338582677
0
LINE
8
BLACK
6
CONTINUOUS
10
0.4445441338582677
20
0.2518141338582677
11
0.4419896456692913
21
0.2501072440944882
0
LINE
8
BLACK
6
CONTINUOUS
10
0.4419896456692913
20
0.2501072440944882
11
0.4389763779527559
21
0.249507874015748
0
LINE
8
BLACK
6
CONTINUOUS
10
0.4389763779527559
20
0.249507874015748
11
0.4271653543307086
21
0.249507874015748
0
LINE
8
BLACK
6
CONTINUOUS
10
0.4271653543307086
20
0.249507874015748
11
0.4241520866141732
21
0.2501072440944882
0
LINE
8
BLACK
6
CONTINUOUS
10
0.4241520866141732
20
0.2501072440944882
11
0.4215975984251968
21
0.2518141338582677
0
LINE
8
BLACK
6
CONTINUOUS
10
0.4215975984251968
20
0.2518141338582677
11
0.4198907086614173
21
0.2543686220472441
0
LINE
8
BLACK
6
CONTINUOUS
10
0.4198907086614173
20
0.2543686220472441
11
0.4192913385826771
21
0.2573818897637795
0
LINE
8
BLACK
6
CONTINUOUS
10
0.4192913385826771
20
0.2573818897637795
11
0.4192913385826771
21
0.2977362204724409
0
LINE
8
BLACK
6
CONTINUOUS
10
0.4192913385826771
20
0.2977362204724409
11
0.4198907086614173
21
0.3007494881889763
0
LINE
8
BLACK
6
CONTINUOUS
10
0.4198907086614173
20
0.3007494881889763
11
0.4215975984251968
21
0.3033039763779528
0
LINE
8
BLACK
6
CONTINUOUS
10
0.4215975984251968
20
0.3033039763779528
11
0.4241520866141732
21
0.3050108661417323
0
LINE
8
BLACK
6
CONTINUOUS
10
0.4241520866141732
20
0.3050108661417323
11
0.4271653543307086
21
0.3056102362204725
0
LINE
8
BLACK
6
CONTINUOUS
10
0.4271653543307086
20
0.3056102362204725
11
0.4389763779527559
21
0.3056102362204725
0
LINE
8
BLACK
6
CONTINUOUS
10
0.4389763779527559
20
0.3056102362204725
11
0.4419896456692913
21
0.3050108661417323
0
LINE
8
BLACK
6
CONTINUOUS
10
0.2205329527559055
20
0.2838494488188976
11
0.2230874409448819
21
0.2821425590551181
0
LINE
8
BLACK
6
CONTINUOUS
10
0.2230874409448819
20
0.2821425590551181
11
0.2247943307086614
21
0.2795880708661417
0
LINE
8
BLACK
6
CONTINUOUS
10
0.2247943307086614
20
0.2795880708661417
11
0.2253937007874016
21
0.2765748031496063
0
LINE
8
BLACK
6
CONTINUOUS
10
0.2253937007874016
20
0.2765748031496063
11
0.2253937007874016
21
0.264763779527559
0
LINE
8
BLACK
6
CONTINUOUS
10
0.2253937007874016
20
0.264763779527559
11
0.2247943307086614
21
0.2617505118110236
0
LINE
8
BLACK
6
CONTINUOUS
10
0.2247943307086614
20
0.2617505118110236
11
0.2230874409448819
21
0.2591960236220472
0
LINE
8
BLACK
6
CONTINUOUS
10
0.2230874409448819
20
0.2591960236220472
11
0.2205329527559055
21
0.2574891338582677
0
LINE
8
BLACK
6
CONTINUOUS
10
0.2205329527559055
20
0.2574891338582677
11
0.2175196850393701
21
0.2568897637795275
0
LINE
8
BLACK
6
CONTINUOUS
10
0.2175196850393701
20
0.2568897637795275
11
0.1624015748031496
21
0.2568897637795275
0
LINE
8
BLACK
6
CONTINUOUS
10
0.1624015748031496
20
0.2568897637795275
11
0.1593883070866142
21
0.2574891338582677
0
LINE
8
BLACK
6
CONTINUOUS
10
0.1593883070866142
20
0.2574891338582677
11
0.1568338188976378
21
0.2591960236220472
0
LINE
8
BLACK
6
CONTINUOUS
10
0.1568338188976378
20
0.2591960236220472
11
0.1551269291338583
21
0.2617505118110236
0
LINE
8
BLACK
6
CONTINUOUS
10
0.1551269291338583
20
0.2617505118110236
11
0.1545275590551181
21
0.264763779527559
0
LINE
8
BLACK
6
CONTINUOUS
10
0.1545275590551181
20
0.264763779527559
11
0.1545275590551181
21
0.2765748031496063
0
LINE
8
BLACK
6
CONTINUOUS
10
0.1545275590551181
20
0.2765748031496063
11
0.1551269291338583
21
0.2795880708661417
0
LINE
8
BLACK
6
CONTINUOUS
10
0.1551269291338583
20
0.2795880708661417
11
0.1568338188976378
21
0.2821425590551181
0
LINE
8
BLACK
6
CONTINUOUS
10
0.1568338188976378
20
0.2821425590551181
11
0.1593883070866142
21
0.2838494488188976
0
LINE
8
BLACK
6
CONTINUOUS
10
0.1593883070866142
20
0.2838494488188976
11
0.1624015748031496
21
0.2844488188976378
0
LINE
8
BLACK
6
CONTINUOUS
10
0.1624015748031496
20
0.2844488188976378
11
0.2175196850393701
21
0.2844488188976378
0
LINE
8
BLACK
6
CONTINUOUS
10
0.2175196850393701
20
0.2844488188976378
11
0.2205329527559055
21
0.2838494488188976
0
LINE
8
BLACK
6
CONTINUOUS
10
0.6690092519685039
20
0.2746253937007874
11
0.6706058267716535
21
0.2735585826771654
0
LINE
8
BLACK
6
CONTINUOUS
10
0.6706058267716535
20
0.2735585826771654
11
0.6716726377952755
21
0.2719620078740158
0
LINE
8
BLACK
6
CONTINUOUS
10
0.6716726377952755
20
0.2719620078740158
11
0.6720472440944881
21
0.2700787401574803
0
LINE
8
BLACK
6
CONTINUOUS
10
0.6720472440944881
20
0.2700787401574803
11
0.6720472440944881
21
0.2641732283464567
0
LINE
8
BLACK
6
CONTINUOUS
10
0.6720472440944881
20
0.2641732283464567
11
0.6716726377952755
21
0.2622899606299213
0
LINE
8
BLACK
6
CONTINUOUS
10
0.6716726377952755
20
0.2622899606299213
11
0.6706058267716535
21
0.2606933858267717
0
LINE
8
BLACK
6
CONTINUOUS
10
0.6706058267716535
20
0.2606933858267717
11
0.6690092519685039
21
0.2596265748031496
0
LINE
8
BLACK
6
CONTINUOUS
10
0.6690092519685039
20
0.2596265748031496
11
0.6671259842519685
21
0.259251968503937
0
LINE
8
BLACK
6
CONTINUOUS
10
0.6671259842519685
20
0.259251968503937
11
0.6159448818897638
21
0.259251968503937
0
LINE
8
BLACK
6
CONTINUOUS
10
0.6159448818897638
20
0.259251968503937
11
0.6140616141732284
21
0.2596265748031496
0
LINE
8
BLACK
6
CONTINUOUS
10
0.6140616141732284
20
0.2596265748031496
11
0.6124650393700787
21
0.2606933858267717
0
LINE
8
BLACK
6
CONTINUOUS
10
0.6124650393700787
20
0.2606933858267717
11
0.6113982283464566
21
0.2622899606299213
0
LINE
8
BLACK
6
CONTINUOUS
10
0.6113982283464566
20
0.2622899606299213
11
0.611023622047244
21
0.2641732283464567
0
LINE
8
BLACK
6
CONTINUOUS
10
0.611023622047244
20
0.2641732283464567
11
0.611023622047244
21
0.2700787401574803
0
LINE
8
BLACK
6
CONTINUOUS
10
0.611023622047244
20
0.2700787401574803
11
0.6113982283464566
21
0.2719620078740158
0
LINE
8
BLACK
6
CONTINUOUS
10
0.6113982283464566
20
0.2719620078740158
11
0.6124650393700787
21
0.2735585826771654
0
LINE
8
BLACK
6
CONTINUOUS
10
0.6124650393700787
20
0.2735585826771654
11
0.6140616141732284
21
0.2746253937007874
0
LINE
8
BLACK
6
CONTINUOUS
10
0.6140616141732284
20
0.2746253937007874
11
0.6159448818897638
21
0.275
0
LINE
8
BLACK
6
CONTINUOUS
10
0.6159448818897638
20
0.275
11
0.6671259842519685
21
0.275
0
LINE
8
BLACK
6
CONTINUOUS
10
0.6671259842519685
20
0.275
11
0.6690092519685039
21
0.2746253937007874
0
LINE
8
BLACK
6
CONTINUOUS
10
0.8422375984251969
20
0.2746253937007874
11
0.8438341732283464
21
0.2735585826771654
0
LINE
8
BLACK
6
CONTINUOUS
10
0.8438341732283464
20
0.2735585826771654
11
0.8449009842519685
21
0.2719620078740158
0
LINE
8
BLACK
6
CONTINUOUS
10
0.8449009842519685
20
0.2719620078740158
11
0.8452755905511811
21
0.2700787401574803
0
LINE
8
BLACK
6
CONTINUOUS
10
0.8452755905511811
20
0.2700787401574803
11
0.8452755905511811
21
0.2641732283464567
0
LINE
8
BLACK
6
CONTINUOUS
10
0.8452755905511811
20
0.2641732283464567
11
0.8449009842519685
21
0.2622899606299213
0
LINE
8
BLACK
6
CONTINUOUS
10
0.8449009842519685
20
0.2622899606299213
11
0.8438341732283464
21
0.2606933858267717
0
LINE
8
BLACK
6
CONTINUOUS
10
0.8438341732283464
20
0.2606933858267717
11
0.8422375984251969
21
0.2596265748031496
0
LINE
8
BLACK
6
CONTINUOUS
10
0.8422375984251969
20
0.2596265748031496
11
0.8403543307086614
21
0.259251968503937
0
LINE
8
BLACK
6
CONTINUOUS
10
0.8403543307086614
20
0.259251968503937
11
0.7891732283464566
21
0.259251968503937
0
LINE
8
BLACK
6
CONTINUOUS
10
0.7891732283464566
20
0.259251968503937
11
0.7872899606299213
21
0.2596265748031496
0
LINE
8
BLACK
6
CONTINUOUS
10
0.7872899606299213
20
0.2596265748031496
11
0.7856933858267716
21
0.2606933858267717
0
LINE
8
BLACK
6
CONTINUOUS
10
0.7856933858267716
20
0.2606933858267717
11
0.7846265748031496
21
0.2622899606299213
0
LINE
8
BLACK
6
CONTINUOUS
10
0.7846265748031496
20
0.2622899606299213
11
0.784251968503937
21
0.2641732283464567
0
LINE
8
BLACK
6
CONTINUOUS
10
0.784251968503937
20
0.2641732283464567
11
0.784251968503937
21
0.2700787401574803
0
LINE
8
BLACK
6
CONTINUOUS
10
0.784251968503937
20
0.2700787401574803
11
0.7846265748031496
21
0.2719620078740158
0
LINE
8
BLACK
6
CONTINUOUS
10
0.7846265748031496
20
0.2719620078740158
11
0.7856933858267716
21
0.2735585826771654
0
LINE
8
BLACK
6
CONTINUOUS
10
0.7856933858267716
20
0.2735585826771654
11
0.7872899606299213
21
0.2746253937007874
0
LINE
8
BLACK
6
CONTINUOUS
10
0.7872899606299213
20
0.2746253937007874
11
0.7891732283464566
21
0.275
0
LINE
8
BLACK
6
CONTINUOUS
10
0.7891732283464566
20
0.275
11
0.8403543307086614
21
0.275
0
LINE
8
BLACK
6
CONTINUOUS
10
0.8403543307086614
20
0.275
11
0.8422375984251969
21
0.2746253937007874
0
LINE
8
BLACK
6
CONTINUOUS
10
0.6690092519685039
20
0.2943104330708661
11
0.6706058267716535
21
0.2932436220472441
0
LINE
8
BLACK
6
CONTINUOUS
10
0.6706058267716535
20
0.2932436220472441
11
0.6716726377952755
21
0.2916470472440945
0
LINE
8
BLACK
6
CONTINUOUS
10
0.6716726377952755
20
0.2916470472440945
11
0.6720472440944881
21
0.2897637795275591
0
LINE
8
BLACK
6
CONTINUOUS
10
0.6720472440944881
20
0.2897637795275591
11
0.6720472440944881
21
0.2838582677165354
0
LINE
8
BLACK
6
CONTINUOUS
10
0.6720472440944881
20
0.2838582677165354
11
0.6716726377952755
21
0.281975
0
LINE
8
BLACK
6
CONTINUOUS
10
0.6716726377952755
20
0.281975
11
0.6706058267716535
21
0.2803784251968504
0
LINE
8
BLACK
6
CONTINUOUS
10
0.6706058267716535
20
0.2803784251968504
11
0.6690092519685039
21
0.2793116141732284
0
LINE
8
BLACK
6
CONTINUOUS
10
0.6690092519685039
20
0.2793116141732284
11
0.6671259842519685
21
0.2789370078740158
0
LINE
8
BLACK
6
CONTINUOUS
10
0.6671259842519685
20
0.2789370078740158
11
0.6159448818897638
21
0.2789370078740158
0
LINE
8
BLACK
6
CONTINUOUS
10
0.6159448818897638
20
0.2789370078740158
11
0.6140616141732284
21
0.2793116141732284
0
LINE
8
BLACK
6
CONTINUOUS
10
0.6140616141732284
20
0.2793116141732284
11
0.6124650393700787
21
0.2803784251968504
0
LINE
8
BLACK
6
CONTINUOUS
10
0.6124650393700787
20
0.2803784251968504
11
0.6113982283464566
21
0.281975
0
LINE
8
BLACK
6
CONTINUOUS
10
0.6113982283464566
20
0.281975
11
0.611023622047244
21
0.2838582677165354
0
LINE
8
BLACK
6
CONTINUOUS
10
0.611023622047244
20
0.2838582677165354
11
0.611023622047244
21
0.2897637795275591
0
LINE
8
BLACK
6
CONTINUOUS
10
0.611023622047244
20
0.2897637795275591
11
0.6113982283464566
21
0.2916470472440945
0
LINE
8
BLACK
6
CONTINUOUS
10
0.6113982283464566
20
0.2916470472440945
11
0.6124650393700787
21
0.2932436220472441
0
LINE
8
BLACK
6
CONTINUOUS
10
0.6124650393700787
20
0.2932436220472441
11
0.6140616141732284
21
0.2943104330708661
0
LINE
8
BLACK
6
CONTINUOUS
10
0.6140616141732284
20
0.2943104330708661
11
0.6159448818897638
21
0.2946850393700787
0
LINE
8
BLACK
6
CONTINUOUS
10
0.6159448818897638
20
0.2946850393700787
11
0.6671259842519685
21
0.2946850393700787
0
LINE
8
BLACK
6
CONTINUOUS
10
0.6671259842519685
20
0.2946850393700787
11
0.6690092519685039
21
0.2943104330708661
0
LINE
8
BLACK
6
CONTINUOUS
10
0.8422375984251969
20
0.2943104330708661
11
0.8438341732283464
21
0.2932436220472441
0
LINE
8
BLACK
6
CONTINUOUS
10
0.8438341732283464
20
0.2932436220472441
11
0.8449009842519685
21
0.2916470472440945
0
LINE
8
BLACK
6
CONTINUOUS
10
0.8449009842519685
20
0.2916470472440945
11
0.8452755905511811
21
0.2897637795275591
0
LINE
8
BLACK
6
CONTINUOUS
10
0.8452755905511811
20
0.2897637795275591
11
0.8452755905511811
21
0.2838582677165354
0
LINE
8
BLACK
6
CONTINUOUS
10
0.8452755905511811
20
0.2838582677165354
11
0.8449009842519685
21
0.281975
0
LINE
8
BLACK
6
CONTINUOUS
10
0.8449009842519685
20
0.281975
11
0.8438341732283464
21
0.2803784251968504
0
LINE
8
BLACK
6
CONTINUOUS
10
0.8438341732283464
20
0.2803784251968504
11
0.8422375984251969
21
0.2793116141732284
0
LINE
8
BLACK
6
CONTINUOUS
10
0.8422375984251969
20
0.2793116141732284
11
0.8403543307086614
21
0.2789370078740158
0
LINE
8
BLACK
6
CONTINUOUS
10
0.8403543307086614
20
0.2789370078740158
11
0.7891732283464566
21
0.2789370078740158
0
LINE
8
BLACK
6
CONTINUOUS
10
0.7891732283464566
20
0.2789370078740158
11
0.7872899606299213
21
0.2793116141732284
0
LINE
8
BLACK
6
CONTINUOUS
10
0.7872899606299213
20
0.2793116141732284
11
0.7856933858267716
21
0.2803784251968504
0
LINE
8
BLACK
6
CONTINUOUS
10
0.7856933858267716
20
0.2803784251968504
11
0.7846265748031496
21
0.281975
0
LINE
8
BLACK
6
CONTINUOUS
10
0.7846265748031496
20
0.281975
11
0.784251968503937
21
0.2838582677165354
0
LINE
8
BLACK
6
CONTINUOUS
10
0.784251968503937
20
0.2838582677165354
11
0.784251968503937
21
0.2897637795275591
0
LINE
8
BLACK
6
CONTINUOUS
10
0.784251968503937
20
0.2897637795275591
11
0.7846265748031496
21
0.2916470472440945
0
LINE
8
BLACK
6
CONTINUOUS
10
0.7846265748031496
20
0.2916470472440945
11
0.7856933858267716
21
0.2932436220472441
0
LINE
8
BLACK
6
CONTINUOUS
10
0.7856933858267716
20
0.2932436220472441
11
0.7872899606299213
21
0.2943104330708661
0
LINE
8
BLACK
6
CONTINUOUS
10
0.7872899606299213
20
0.2943104330708661
11
0.7891732283464566
21
0.2946850393700787
0
LINE
8
BLACK
6
CONTINUOUS
10
0.7891732283464566
20
0.2946850393700787
11
0.8403543307086614
21
0.2946850393700787
0
LINE
8
BLACK
6
CONTINUOUS
10
0.8403543307086614
20
0.2946850393700787
11
0.8422375984251969
21
0.2943104330708661
0
LINE
8
BLACK
6
CONTINUOUS
10
0.6690092519685039
20
0.3139954724409449
11
0.6706058267716535
21
0.3129286614173228
0
LINE
8
BLACK
6
CONTINUOUS
10
0.6706058267716535
20
0.3129286614173228
11
0.6716726377952755
21
0.3113320866141732
0
LINE
8
BLACK
6
CONTINUOUS
10
0.6716726377952755
20
0.3113320866141732
11
0.6720472440944881
21
0.3094488188976378
0
LINE
8
BLACK
6
CONTINUOUS
10
0.6720472440944881
20
0.3094488188976378
11
0.6720472440944881
21
0.3035433070866141
0
LINE
8
BLACK
6
CONTINUOUS
10
0.6720472440944881
20
0.3035433070866141
11
0.6716726377952755
21
0.3016600393700787
0
LINE
8
BLACK
6
CONTINUOUS
10
0.6716726377952755
20
0.3016600393700787
11
0.6706058267716535
21
0.3000634645669291
0
LINE
8
BLACK
6
CONTINUOUS
10
0.6706058267716535
20
0.3000634645669291
11
0.6690092519685039
21
0.2989966535433071
0
LINE
8
BLACK
6
CONTINUOUS
10
0.6690092519685039
20
0.2989966535433071
11
0.6671259842519685
21
0.2986220472440945
0
LINE
8
BLACK
6
CONTINUOUS
10
0.6671259842519685
20
0.2986220472440945
11
0.6159448818897638
21
0.2986220472440945
0
LINE
8
BLACK
6
CONTINUOUS
10
0.6159448818897638
20
0.2986220472440945
11
0.6140616141732284
21
0.2989966535433071
0
LINE
8
BLACK
6
CONTINUOUS
10
0.6140616141732284
20
0.2989966535433071
11
0.6124650393700787
21
0.3000634645669291
0
LINE
8
BLACK
6
CONTINUOUS
10
0.6124650393700787
20
0.3000634645669291
11
0.6113982283464566
21
0.3016600393700787
0
LINE
8
BLACK
6
CONTINUOUS
10
0.6113982283464566
20
0.3016600393700787
11
0.611023622047244
21
0.3035433070866141
0
LINE
8
BLACK
6
CONTINUOUS
10
0.611023622047244
20
0.3035433070866141
11
0.611023622047244
21
0.3094488188976378
0
LINE
8
BLACK
6
CONTINUOUS
10
0.611023622047244
20
0.3094488188976378
11
0.6113982283464566
21
0.3113320866141732
0
LINE
8
BLACK
6
CONTINUOUS
10
0.6113982283464566
20
0.3113320866141732
11
0.6124650393700787
21
0.3129286614173228
0
LINE
8
BLACK
6
CONTINUOUS
10
0.6124650393700787
20
0.3129286614173228
11
0.6140616141732284
21
0.3139954724409449
0
LINE
8
BLACK
6
CONTINUOUS
10
0.6140616141732284
20
0.3139954724409449
11
0.6159448818897638
21
0.3143700787401575
0
LINE
8
BLACK
6
CONTINUOUS
10
0.6159448818897638
20
0.3143700787401575
11
0.6671259842519685
21
0.3143700787401575
0
LINE
8
BLACK
6
CONTINUOUS
10
0.6671259842519685
20
0.3143700787401575
11
0.6690092519685039
21
0.3139954724409449
0
LINE
8
BLACK
6
CONTINUOUS
10
0.8422375984251969
20
0.3139954724409449
11
0.8438341732283464
21
0.3129286614173228
0
LINE
8
BLACK
6
CONTINUOUS
10
0.8438341732283464
20
0.3129286614173228
11
0.8449009842519685
21
0.3113320866141732
0
LINE
8
BLACK
6
CONTINUOUS
10
0.8449009842519685
20
0.3113320866141732
11
0.8452755905511811
21
0.3094488188976378
0
LINE
8
BLACK
6
CONTINUOUS
10
0.8452755905511811
20
0.3094488188976378
11
0.8452755905511811
21
0.3035433070866141
0
LINE
8
BLACK
6
CONTINUOUS
10
0.8452755905511811
20
0.3035433070866141
11
0.8449009842519685
21
0.3016600393700787
0
LINE
8
BLACK
6
CONTINUOUS
10
0.8449009842519685
20
0.3016600393700787
11
0.8438341732283464
21
0.3000634645669291
0
LINE
8
BLACK
6
CONTINUOUS
10
0.8438341732283464
20
0.3000634645669291
11
0.8422375984251969
21
0.2989966535433071
0
LINE
8
BLACK
6
CONTINUOUS
10
0.8422375984251969
20
0.2989966535433071
11
0.8403543307086614
21
0.2986220472440945
0
LINE
8
BLACK
6
CONTINUOUS
10
0.8403543307086614
20
0.2986220472440945
11
0.7891732283464566
21
0.2986220472440945
0
LINE
8
BLACK
6
CONTINUOUS
10
0.7891732283464566
20
0.2986220472440945
11
0.7872899606299213
21
0.2989966535433071
0
LINE
8
BLACK
6
CONTINUOUS
10
0.7872899606299213
20
0.2989966535433071
11
0.7856933858267716
21
0.3000634645669291
0
LINE
8
BLACK
6
CONTINUOUS
10
0.7856933858267716
20
0.3000634645669291
11
0.7846265748031496
21
0.3016600393700787
0
LINE
8
BLACK
6
CONTINUOUS
10
0.7846265748031496
20
0.3016600393700787
11
0.784251968503937
21
0.3035433070866141
0
LINE
8
BLACK
6
CONTINUOUS
10
0.784251968503937
20
0.3035433070866141
11
0.784251968503937
21
0.3094488188976378
0
LINE
8
BLACK
6
CONTINUOUS
10
0.784251968503937
20
0.3094488188976378
11
0.7846265748031496
21
0.3113320866141732
0
LINE
8
BLACK
6
CONTINUOUS
10
0.7846265748031496
20
0.3113320866141732
11
0.7856933858267716
21
0.3129286614173228
0
LINE
8
BLACK
6
CONTINUOUS
10
0.7856933858267716
20
0.3129286614173228
11
0.7872899606299213
21
0.3139954724409449
0
LINE
8
BLACK
6
CONTINUOUS
10
0.7872899606299213
20
0.3139954724409449
11
0.7891732283464566
21
0.3143700787401575
0
LINE
8
BLACK
6
CONTINUOUS
10
0.7891732283464566
20
0.3143700787401575
11
0.8403543307086614
21
0.3143700787401575
0
LINE
8
BLACK
6
CONTINUOUS
10
0.8403543307086614
20
0.3143700787401575
11
0.8422375984251969
21
0.3139954724409449
0
LINE
8
BLACK
6
CONTINUOUS
10
0.2205329527559055
20
0.3330620472440945
11
0.2230874409448819
21
0.331355157480315
0
LINE
8
BLACK
6
CONTINUOUS
10
0.2230874409448819
20
0.331355157480315
11
0.2247943307086614
21
0.3288006692913386
0
LINE
8
BLACK
6
CONTINUOUS
10
0.2247943307086614
20
0.3288006692913386
11
0.2253937007874016
21
0.3257874015748031
0
LINE
8
BLACK
6
CONTINUOUS
10
0.2253937007874016
20
0.3257874015748031
11
0.2253937007874016
21
0.3139763779527559
0
LINE
8
BLACK
6
CONTINUOUS
10
0.2253937007874016
20
0.3139763779527559
11
0.2247943307086614
21
0.3109631102362205
0
LINE
8
BLACK
6
CONTINUOUS
10
0.2247943307086614
20
0.3109631102362205
11
0.2230874409448819
21
0.3084086220472441
0
LINE
8
BLACK
6
CONTINUOUS
10
0.2230874409448819
20
0.3084086220472441
11
0.2205329527559055
21
0.3067017322834645
0
LINE
8
BLACK
6
CONTINUOUS
10
0.2205329527559055
20
0.3067017322834645
11
0.2175196850393701
21
0.3061023622047244
0
LINE
8
BLACK
6
CONTINUOUS
10
0.2175196850393701
20
0.3061023622047244
11
0.1624015748031496
21
0.3061023622047244
0
LINE
8
BLACK
6
CONTINUOUS
10
0.1624015748031496
20
0.3061023622047244
11
0.1593883070866142
21
0.3067017322834645
0
LINE
8
BLACK
6
CONTINUOUS
10
0.1593883070866142
20
0.3067017322834645
11
0.1568338188976378
21
0.3084086220472441
0
LINE
8
BLACK
6
CONTINUOUS
10
0.1568338188976378
20
0.3084086220472441
11
0.1551269291338583
21
0.3109631102362205
0
LINE
8
BLACK
6
CONTINUOUS
10
0.1551269291338583
20
0.3109631102362205
11
0.1545275590551181
21
0.3139763779527559
0
LINE
8
BLACK
6
CONTINUOUS
10
0.1545275590551181
20
0.3139763779527559
11
0.1545275590551181
21
0.3257874015748031
0
LINE
8
BLACK
6
CONTINUOUS
10
0.1545275590551181
20
0.3257874015748031
11
0.1551269291338583
21
0.3288006692913386
0
LINE
8
BLACK
6
CONTINUOUS
10
0.1551269291338583
20
0.3288006692913386
11
0.1568338188976378
21
0.331355157480315
0
LINE
8
BLACK
6
CONTINUOUS
10
0.1568338188976378
20
0.331355157480315
11
0.1593883070866142
21
0.3330620472440945
0
LINE
8
BLACK
6
CONTINUOUS
10
0.1593883070866142
20
0.3330620472440945
11
0.1624015748031496
21
0.3336614173228347
0
LINE
8
BLACK
6
CONTINUOUS
10
0.1624015748031496
20
0.3336614173228347
11
0.2175196850393701
21
0.3336614173228347
0
LINE
8
BLACK
6
CONTINUOUS
10
0.2175196850393701
20
0.3336614173228347
11
0.2205329527559055
21
0.3330620472440945
0
LINE
8
BLACK
6
CONTINUOUS
10
0.9714225984251968
20
0.3667792913385827
11
0.9720612204724409
21
0.3663525590551181
0
LINE
8
BLACK
6
CONTINUOUS
10
0.9720612204724409
20
0.3663525590551181
11
0.9724879527559055
21
0.365713937007874
0
LINE
8
BLACK
6
CONTINUOUS
10
0.9724879527559055
20
0.365713937007874
11
0.9726377952755906
21
0.3649606299212598
0
LINE
8
BLACK
6
CONTINUOUS
10
0.9726377952755906
20
0.3649606299212598
11
0.9726377952755906
21
0.3255905511811024
0
LINE
8
BLACK
6
CONTINUOUS
10
0.9726377952755906
20
0.3255905511811024
11
0.9724879527559055
21
0.3248372440944882
0
LINE
8
BLACK
6
CONTINUOUS
10
0.9724879527559055
20
0.3248372440944882
11
0.9720612204724409
21
0.3241986220472441
0
LINE
8
BLACK
6
CONTINUOUS
10
0.9720612204724409
20
0.3241986220472441
11
0.9714225984251968
21
0.3237718897637795
0
LINE
8
BLACK
6
CONTINUOUS
10
0.9714225984251968
20
0.3237718897637795
11
0.9706692913385827
21
0.3236220472440945
0
LINE
8
BLACK
6
CONTINUOUS
10
0.9706692913385827
20
0.3236220472440945
11
0.8718503937007874
21
0.3236220472440945
0
LINE
8
BLACK
6
CONTINUOUS
10
0.8718503937007874
20
0.3236220472440945
11
0.8710970866141732
21
0.3237718897637795
0
LINE
8
BLACK
6
CONTINUOUS
10
0.8710970866141732
20
0.3237718897637795
11
0.8704584645669291
21
0.3241986220472441
0
LINE
8
BLACK
6
CONTINUOUS
10
0.8704584645669291
20
0.3241986220472441
11
0.8700317322834645
21
0.3248372440944882
0
LINE
8
BLACK
6
CONTINUOUS
10
0.8700317322834645
20
0.3248372440944882
11
0.8698818897637796
21
0.3255905511811024
0
LINE
8
BLACK
6
CONTINUOUS
10
0.8698818897637796
20
0.3255905511811024
11
0.8698818897637796
21
0.3649606299212598
0
LINE
8
BLACK
6
CONTINUOUS
10
0.8698818897637796
20
0.3649606299212598
11
0.8700317322834645
21
0.365713937007874
0
LINE
8
BLACK
6
CONTINUOUS
10
0.8700317322834645
20
0.365713937007874
11
0.8704584645669291
21
0.3663525590551181
0
LINE
8
BLACK
6
CONTINUOUS
10
0.8704584645669291
20
0.3663525590551181
11
0.8710970866141732
21
0.3667792913385827
0
LINE
8
BLACK
6
CONTINUOUS
10
0.8710970866141732
20
0.3667792913385827
11
0.8718503937007874
21
0.3669291338582677
0
LINE
8
BLACK
6
CONTINUOUS
10
0.8718503937007874
20
0.3669291338582677
11
0.9706692913385827
21
0.3669291338582677
0
LINE
8
BLACK
6
CONTINUOUS
10
0.9706692913385827
20
0.3669291338582677
11
0.9714225984251968
21
0.3667792913385827
0
LINE
8
BLACK
6
CONTINUOUS
10
0.3019949212598425
20
0.3644082677165355
11
0.3051880708661417
21
0.36227468503937
0
LINE
8
BLACK
6
CONTINUOUS
10
0.3051880708661417
20
0.36227468503937
11
0.3073216535433071
21
0.3590815354330709
0
LINE
8
BLACK
6
CONTINUOUS
10
0.3073216535433071
20
0.3590815354330709
11
0.3080708661417323
21
0.3553149606299212
0
LINE
8
BLACK
6
CONTINUOUS
10
0.3080708661417323
20
0.3553149606299212
11
0.3080708661417323
21
0.3395669291338583
0
LINE
8
BLACK
6
CONTINUOUS
10
0.3080708661417323
20
0.3395669291338583
11
0.3073216535433071
21
0.3358003543307087
0
LINE
8
BLACK
6
CONTINUOUS
10
0.3073216535433071
20
0.3358003543307087
11
0.3051880708661417
21
0.3326072047244095
0
LINE
8
BLACK
6
CONTINUOUS
10
0.3051880708661417
20
0.3326072047244095
11
0.3019949212598425
21
0.3304736220472441
0
LINE
8
BLACK
6
CONTINUOUS
10
0.3019949212598425
20
0.3304736220472441
11
0.2982283464566929
21
0.3297244094488189
0
LINE
8
BLACK
6
CONTINUOUS
10
0.2982283464566929
20
0.3297244094488189
11
0.2765748031496063
21
0.3297244094488189
0
LINE
8
BLACK
6
CONTINUOUS
10
0.2765748031496063
20
0.3297244094488189
11
0.2728082283464567
21
0.3304736220472441
0
LINE
8
BLACK
6
CONTINUOUS
10
0.2728082283464567
20
0.3304736220472441
11
0.2696150787401575
21
0.3326072047244095
0
LINE
8
BLACK
6
CONTINUOUS
10
0.2696150787401575
20
0.3326072047244095
11
0.2674814960629921
21
0.3358003543307087
0
LINE
8
BLACK
6
CONTINUOUS
10
0.2674814960629921
20
0.3358003543307087
11
0.2667322834645669
21
0.3395669291338583
0
LINE
8
BLACK
6
CONTINUOUS
10
0.2667322834645669
20
0.3395669291338583
11
0.2667322834645669
21
0.3553149606299212
0
LINE
8
BLACK
6
CONTINUOUS
10
0.2667322834645669
20
0.3553149606299212
11
0.2674814960629921
21
0.3590815354330709
0
LINE
8
BLACK
6
CONTINUOUS
10
0.2674814960629921
20
0.3590815354330709
11
0.2696150787401575
21
0.36227468503937
0
LINE
8
BLACK
6
CONTINUOUS
10
0.2696150787401575
20
0.36227468503937
11
0.2728082283464567
21
0.3644082677165355
0
LINE
8
BLACK
6
CONTINUOUS
10
0.2728082283464567
20
0.3644082677165355
11
0.2765748031496063
21
0.3651574803149606
0
LINE
8
BLACK
6
CONTINUOUS
10
0.2765748031496063
20
0.3651574803149606
11
0.2982283464566929
21
0.3651574803149606
0
LINE
8
BLACK
6
CONTINUOUS
10
0.2982283464566929
20
0.3651574803149606
11
0.3019949212598425
21
0.3644082677165355
0
LINE
8
BLACK
6
CONTINUOUS
10
0.455775
20
0.3825602755905512
11
0.4597457086614173
21
0.3808070472440945
0
LINE
8
BLACK
6
CONTINUOUS
10
0.4597457086614173
20
0.3808070472440945
11
0.4628149212598425
21
0.3777378346456693
0
LINE
8
BLACK
6
CONTINUOUS
10
0.4628149212598425
20
0.3777378346456693
11
0.4645681496062992
21
0.3737671259842519
0
LINE
8
BLACK
6
CONTINUOUS
10
0.4645681496062992
20
0.3737671259842519
11
0.4648818897637795
21
0.3710629921259843
0
LINE
8
BLACK
6
CONTINUOUS
10
0.4648818897637795
20
0.3710629921259843
11
0.4648818897637795
21
0.3513779527559055
0
LINE
8
BLACK
6
CONTINUOUS
10
0.4648818897637795
20
0.3513779527559055
11
0.4645681496062992
21
0.3486738188976378
0
LINE
8
BLACK
6
CONTINUOUS
10
0.4645681496062992
20
0.3486738188976378
11
0.4628149212598425
21
0.3447031102362205
0
LINE
8
BLACK
6
CONTINUOUS
10
0.4628149212598425
20
0.3447031102362205
11
0.4597457086614173
21
0.3416338976377953
0
LINE
8
BLACK
6
CONTINUOUS
10
0.4597457086614173
20
0.3416338976377953
11
0.455775
21
0.3398806692913386
0
LINE
8
BLACK
6
CONTINUOUS
10
0.455775
20
0.3398806692913386
11
0.4530708661417323
21
0.3395669291338583
0
LINE
8
BLACK
6
CONTINUOUS
10
0.4530708661417323
20
0.3395669291338583
11
0.4156692913385827
21
0.3395669291338583
0
LINE
8
BLACK
6
CONTINUOUS
10
0.4156692913385827
20
0.3395669291338583
11
0.4129651574803149
21
0.3398806692913386
0
LINE
8
BLACK
6
CONTINUOUS
10
0.4129651574803149
20
0.3398806692913386
11
0.4089944488188976
21
0.3416338976377953
0
LINE
8
BLACK
6
CONTINUOUS
10
0.4089944488188976
20
0.3416338976377953
11
0.4059252362204724
21
0.3447031102362205
0
LINE
8
BLACK
6
CONTINUOUS
10
0.4059252362204724
20
0.3447031102362205
11
0.4041720078740157
21
0.3486738188976378
0
LINE
8
BLACK
6
CONTINUOUS
10
0.4041720078740157
20
0.3486738188976378
11
0.4038582677165354
21
0.3513779527559055
0
LINE
8
BLACK
6
CONTINUOUS
10
0.4038582677165354
20
0.3513779527559055
11
0.4038582677165354
21
0.3710629921259843
0
LINE
8
BLACK
6
CONTINUOUS
10
0.4038582677165354
20
0.3710629921259843
11
0.4041720078740157
21
0.3737671259842519
0
LINE
8
BLACK
6
CONTINUOUS
10
0.4041720078740157
20
0.3737671259842519
11
0.4059252362204724
21
0.3777378346456693
0
LINE
8
BLACK
6
CONTINUOUS
10
0.4059252362204724
20
0.3777378346456693
11
0.4089944488188976
21
0.3808070472440945
0
LINE
8
BLACK
6
CONTINUOUS
10
0.4089944488188976
20
0.3808070472440945
11
0.4129651574803149
21
0.3825602755905512
0
LINE
8
BLACK
6
CONTINUOUS
10
0.4129651574803149
20
0.3825602755905512
11
0.4156692913385827
21
0.3828740157480315
0
LINE
8
BLACK
6
CONTINUOUS
10
0.4156692913385827
20
0.3828740157480315
11
0.4530708661417323
21
0.3828740157480315
0
LINE
8
BLACK
6
CONTINUOUS
10
0.4530708661417323
20
0.3828740157480315
11
0.455775
21
0.3825602755905512
0
LINE
8
BLACK
6
CONTINUOUS
10
0.5270959842519685
20
0.3802782283464567
11
0.5306084251968504
21
0.3779312598425197
0
LINE
8
BLACK
6
CONTINUOUS
10
0.5306084251968504
20
0.3779312598425197
11
0.5329553937007874
21
0.3744188188976378
0
LINE
8
BLACK
6
CONTINUOUS
10
0.5329553937007874
20
0.3744188188976378
11
0.5337795275590551
21
0.3702755905511811
0
LINE
8
BLACK
6
CONTINUOUS
10
0.5337795275590551
20
0.3702755905511811
11
0.5337795275590551
21
0.3525590551181103
0
LINE
8
BLACK
6
CONTINUOUS
10
0.5337795275590551
20
0.3525590551181103
11
0.5329553937007874
21
0.3484158267716536
0
LINE
8
BLACK
6
CONTINUOUS
10
0.5329553937007874
20
0.3484158267716536
11
0.5306084251968504
21
0.3449033858267717
0
LINE
8
BLACK
6
CONTINUOUS
10
0.5306084251968504
20
0.3449033858267717
11
0.5270959842519685
21
0.3425564173228346
0
LINE
8
BLACK
6
CONTINUOUS
10
0.5270959842519685
20
0.3425564173228346
11
0.5229527559055118
21
0.3417322834645669
0
LINE
8
BLACK
6
CONTINUOUS
10
0.5229527559055118
20
0.3417322834645669
11
0.503267716535433
21
0.3417322834645669
0
LINE
8
BLACK
6
CONTINUOUS
10
0.503267716535433
20
0.3417322834645669
11
0.4991244881889764
21
0.3425564173228346
0
LINE
8
BLACK
6
CONTINUOUS
10
0.4991244881889764
20
0.3425564173228346
11
0.4956120472440945
21
0.3449033858267717
0
LINE
8
BLACK
6
CONTINUOUS
10
0.4956120472440945
20
0.3449033858267717
11
0.4932650787401575
21
0.3484158267716536
0
LINE
8
BLACK
6
CONTINUOUS
10
0.4932650787401575
20
0.3484158267716536
11
0.4924409448818898
21
0.3525590551181103
0
LINE
8
BLACK
6
CONTINUOUS
10
0.4924409448818898
20
0.3525590551181103
11
0.4924409448818898
21
0.3702755905511811
0
LINE
8
BLACK
6
CONTINUOUS
10
0.4924409448818898
20
0.3702755905511811
11
0.4932650787401575
21
0.3744188188976378
0
LINE
8
BLACK
6
CONTINUOUS
10
0.4932650787401575
20
0.3744188188976378
11
0.4956120472440945
21
0.3779312598425197
0
LINE
8
BLACK
6
CONTINUOUS
10
0.4956120472440945
20
0.3779312598425197
11
0.4991244881889764
21
0.3802782283464567
0
LINE
8
BLACK
6
CONTINUOUS
10
0.4991244881889764
20
0.3802782283464567
11
0.503267716535433
21
0.3811023622047244
0
LINE
8
BLACK
6
CONTINUOUS
10
0.503267716535433
20
0.3811023622047244
11
0.5229527559055118
21
0.3811023622047244
0
LINE
8
BLACK
6
CONTINUOUS
10
0.5229527559055118
20
0.3811023622047244
11
0.5270959842519685
21
0.3802782283464567
0
LINE
8
BLACK
6
CONTINUOUS
10
0.3676983070866142
20
0.37445968503937
11
0.3702527952755905
21
0.3727527952755905
0
LINE
8
BLACK
6
CONTINUOUS
10
0.3702527952755905
20
0.3727527952755905
11
0.37195968503937
21
0.3701983070866142
0
LINE
8
BLACK
6
CONTINUOUS
10
0.37195968503937
20
0.3701983070866142
11
0.3725590551181102
21
0.3671850393700787
0
LINE
8
BLACK
6
CONTINUOUS
10
0.3725590551181102
20
0.3671850393700787
11
0.3725590551181102
21
0.3553740157480315
0
LINE
8
BLACK
6
CONTINUOUS
10
0.3725590551181102
20
0.3553740157480315
11
0.37195968503937
21
0.352360748031496
0
LINE
8
BLACK
6
CONTINUOUS
10
0.37195968503937
20
0.352360748031496
11
0.3702527952755905
21
0.3498062598425197
0
LINE
8
BLACK
6
CONTINUOUS
10
0.3702527952755905
20
0.3498062598425197
11
0.3676983070866142
21
0.3480993700787401
0
LINE
8
BLACK
6
CONTINUOUS
10
0.3676983070866142
20
0.3480993700787401
11
0.3646850393700787
21
0.3475
0
LINE
8
BLACK
6
CONTINUOUS
10
0.3646850393700787
20
0.3475
11
0.3489370078740157
21
0.3475
0
LINE
8
BLACK
6
CONTINUOUS
10
0.3489370078740157
20
0.3475
11
0.3459237401574803
21
0.3480993700787401
0
LINE
8
BLACK
6
CONTINUOUS
10
0.3459237401574803
20
0.3480993700787401
11
0.3433692519685039
21
0.3498062598425197
0
LINE
8
BLACK
6
CONTINUOUS
10
0.3433692519685039
20
0.3498062598425197
11
0.3416623622047244
21
0.352360748031496
0
LINE
8
BLACK
6
CONTINUOUS
10
0.3416623622047244
20
0.352360748031496
11
0.3410629921259842
21
0.3553740157480315
0
LINE
8
BLACK
6
CONTINUOUS
10
0.3410629921259842
20
0.3553740157480315
11
0.3410629921259842
21
0.3671850393700787
0
LINE
8
BLACK
6
CONTINUOUS
10
0.3410629921259842
20
0.3671850393700787
11
0.3416623622047244
21
0.3701983070866142
0
LINE
8
BLACK
6
CONTINUOUS
10
0.3416623622047244
20
0.3701983070866142
11
0.3433692519685039
21
0.3727527952755905
0
LINE
8
BLACK
6
CONTINUOUS
10
0.3433692519685039
20
0.3727527952755905
11
0.3459237401574803
21
0.37445968503937
0
LINE
8
BLACK
6
CONTINUOUS
10
0.3459237401574803
20
0.37445968503937
11
0.3489370078740157
21
0.3750590551181102
0
LINE
8
BLACK
6
CONTINUOUS
10
0.3489370078740157
20
0.3750590551181102
11
0.3646850393700787
21
0.3750590551181102
0
LINE
8
BLACK
6
CONTINUOUS
10
0.3646850393700787
20
0.3750590551181102
11
0.3676983070866142
21
0.37445968503937
0
LINE
8
BLACK
6
CONTINUOUS
10
0.2205329527559055
20
0.3822746456692913
11
0.2230874409448819
21
0.3805677559055118
0
LINE
8
BLACK
6
CONTINUOUS
10
0.2230874409448819
20
0.3805677559055118
11
0.2247943307086614
21
0.3780132677165354
0
LINE
8
BLACK
6
CONTINUOUS
10
0.2247943307086614
20
0.3780132677165354
11
0.2253937007874016
21
0.375
0
LINE
8
BLACK
6
CONTINUOUS
10
0.2253937007874016
20
0.375
11
0.2253937007874016
21
0.3631889763779527
0
LINE
8
BLACK
6
CONTINUOUS
10
0.2253937007874016
20
0.3631889763779527
11
0.2247943307086614
21
0.3601757086614173
0
LINE
8
BLACK
6
CONTINUOUS
10
0.2247943307086614
20
0.3601757086614173
11
0.2230874409448819
21
0.3576212204724409
0
LINE
8
BLACK
6
CONTINUOUS
10
0.2230874409448819
20
0.3576212204724409
11
0.2205329527559055
21
0.3559143307086614
0
LINE
8
BLACK
6
CONTINUOUS
10
0.2205329527559055
20
0.3559143307086614
11
0.2175196850393701
21
0.3553149606299212
0
LINE
8
BLACK
6
CONTINUOUS
10
0.2175196850393701
20
0.3553149606299212
11
0.1624015748031496
21
0.3553149606299212
0
LINE
8
BLACK
6
CONTINUOUS
10
0.1624015748031496
20
0.3553149606299212
11
0.1593883070866142
21
0.3559143307086614
0
LINE
8
BLACK
6
CONTINUOUS
10
0.1593883070866142
20
0.3559143307086614
11
0.1568338188976378
21
0.3576212204724409
0
LINE
8
BLACK
6
CONTINUOUS
10
0.1568338188976378
20
0.3576212204724409
11
0.1551269291338583
21
0.3601757086614173
0
LINE
8
BLACK
6
CONTINUOUS
10
0.1551269291338583
20
0.3601757086614173
11
0.1545275590551181
21
0.3631889763779527
0
LINE
8
BLACK
6
CONTINUOUS
10
0.1545275590551181
20
0.3631889763779527
11
0.1545275590551181
21
0.375
0
LINE
8
BLACK
6
CONTINUOUS
10
0.1545275590551181
20
0.375
11
0.1551269291338583
21
0.3780132677165354
0
LINE
8
BLACK
6
CONTINUOUS
10
0.1551269291338583
20
0.3780132677165354
11
0.1568338188976378
21
0.3805677559055118
0
LINE
8
BLACK
6
CONTINUOUS
10
0.1568338188976378
20
0.3805677559055118
11
0.1593883070866142
21
0.3822746456692913
0
LINE
8
BLACK
6
CONTINUOUS
10
0.1593883070866142
20
0.3822746456692913
11
0.1624015748031496
21
0.3828740157480315
0
LINE
8
BLACK
6
CONTINUOUS
10
0.1624015748031496
20
0.3828740157480315
11
0.2175196850393701
21
0.3828740157480315
0
LINE
8
BLACK
6
CONTINUOUS
10
0.2175196850393701
20
0.3828740157480315
11
0.2205329527559055
21
0.3822746456692913
0
LINE
8
BLACK
6
CONTINUOUS
10
0.3019949212598425
20
0.4293688976377953
11
0.3051880708661417
21
0.4272353149606299
0
LINE
8
BLACK
6
CONTINUOUS
10
0.3051880708661417
20
0.4272353149606299
11
0.3073216535433071
21
0.4240421653543307
0
LINE
8
BLACK
6
CONTINUOUS
10
0.3073216535433071
20
0.4240421653543307
11
0.3080708661417323
21
0.4202755905511811
0
LINE
8
BLACK
6
CONTINUOUS
10
0.3080708661417323
20
0.4202755905511811
11
0.3080708661417323
21
0.4045275590551181
0
LINE
8
BLACK
6
CONTINUOUS
10
0.3080708661417323
20
0.4045275590551181
11
0.3073216535433071
21
0.4007609842519685
0
LINE
8
BLACK
6
CONTINUOUS
10
0.3073216535433071
20
0.4007609842519685
11
0.3051880708661417
21
0.3975678346456693
0
LINE
8
BLACK
6
CONTINUOUS
10
0.3051880708661417
20
0.3975678346456693
11
0.3019949212598425
21
0.3954342519685039
0
LINE
8
BLACK
6
CONTINUOUS
10
0.3019949212598425
20
0.3954342519685039
11
0.2982283464566929
21
0.3946850393700787
0
LINE
8
BLACK
6
CONTINUOUS
10
0.2982283464566929
20
0.3946850393700787
11
0.2765748031496063
21
0.3946850393700787
0
LINE
8
BLACK
6
CONTINUOUS
10
0.2765748031496063
20
0.3946850393700787
11
0.2728082283464567
21
0.3954342519685039
0
LINE
8
BLACK
6
CONTINUOUS
10
0.2728082283464567
20
0.3954342519685039
11
0.2696150787401575
21
0.3975678346456693
0
LINE
8
BLACK
6
CONTINUOUS
10
0.2696150787401575
20
0.3975678346456693
11
0.2674814960629921
21
0.4007609842519685
0
LINE
8
BLACK
6
CONTINUOUS
10
0.2674814960629921
20
0.4007609842519685
11
0.2667322834645669
21
0.4045275590551181
0
LINE
8
BLACK
6
CONTINUOUS
10
0.2667322834645669
20
0.4045275590551181
11
0.2667322834645669
21
0.4202755905511811
0
LINE
8
BLACK
6
CONTINUOUS
10
0.2667322834645669
20
0.4202755905511811
11
0.2674814960629921
21
0.4240421653543307
0
LINE
8
BLACK
6
CONTINUOUS
10
0.2674814960629921
20
0.4240421653543307
11
0.2696150787401575
21
0.4272353149606299
0
LINE
8
BLACK
6
CONTINUOUS
10
0.2696150787401575
20
0.4272353149606299
11
0.2728082283464567
21
0.4293688976377953
0
LINE
8
BLACK
6
CONTINUOUS
10
0.2728082283464567
20
0.4293688976377953
11
0.2765748031496063
21
0.4301181102362205
0
LINE
8
BLACK
6
CONTINUOUS
10
0.2765748031496063
20
0.4301181102362205
11
0.2982283464566929
21
0.4301181102362205
0
LINE
8
BLACK
6
CONTINUOUS
10
0.2982283464566929
20
0.4301181102362205
11
0.3019949212598425
21
0.4293688976377953
0
LINE
8
BLACK
6
CONTINUOUS
10
0.3676983070866142
20
0.4295777952755905
11
0.3702527952755905
21
0.427870905511811
0
LINE
8
BLACK
6
CONTINUOUS
10
0.3702527952755905
20
0.427870905511811
11
0.37195968503937
21
0.4253164173228347
0
LINE
8
BLACK
6
CONTINUOUS
10
0.37195968503937
20
0.4253164173228347
11
0.3725590551181102
21
0.4223031496062992
0
LINE
8
BLACK
6
CONTINUOUS
10
0.3725590551181102
20
0.4223031496062992
11
0.3725590551181102
21
0.4104921259842519
0
LINE
8
BLACK
6
CONTINUOUS
10
0.3725590551181102
20
0.4104921259842519
11
0.37195968503937
21
0.4074788582677165
0
LINE
8
BLACK
6
CONTINUOUS
10
0.37195968503937
20
0.4074788582677165
11
0.3702527952755905
21
0.4049243700787402
0
LINE
8
BLACK
6
CONTINUOUS
10
0.3702527952755905
20
0.4049243700787402
11
0.3676983070866142
21
0.4032174803149606
0
LINE
8
BLACK
6
CONTINUOUS
10
0.3676983070866142
20
0.4032174803149606
11
0.3646850393700787
21
0.4026181102362205
0
LINE
8
BLACK
6
CONTINUOUS
10
0.3646850393700787
20
0.4026181102362205
11
0.3489370078740157
21
0.4026181102362205
0
LINE
8
BLACK
6
CONTINUOUS
10
0.3489370078740157
20
0.4026181102362205
11
0.3459237401574803
21
0.4032174803149606
0
LINE
8
BLACK
6
CONTINUOUS
10
0.3459237401574803
20
0.4032174803149606
11
0.3433692519685039
21
0.4049243700787402
0
LINE
8
BLACK
6
CONTINUOUS
10
0.3433692519685039
20
0.4049243700787402
11
0.3416623622047244
21
0.4074788582677165
0
LINE
8
BLACK
6
CONTINUOUS
10
0.3416623622047244
20
0.4074788582677165
11
0.3410629921259842
21
0.4104921259842519
0
LINE
8
BLACK
6
CONTINUOUS
10
0.3410629921259842
20
0.4104921259842519
11
0.3410629921259842
21
0.4223031496062992
0
LINE
8
BLACK
6
CONTINUOUS
10
0.3410629921259842
20
0.4223031496062992
11
0.3416623622047244
21
0.4253164173228347
0
LINE
8
BLACK
6
CONTINUOUS
10
0.3416623622047244
20
0.4253164173228347
11
0.3433692519685039
21
0.427870905511811
0
LINE
8
BLACK
6
CONTINUOUS
10
0.3433692519685039
20
0.427870905511811
11
0.3459237401574803
21
0.4295777952755905
0
LINE
8
BLACK
6
CONTINUOUS
10
0.3459237401574803
20
0.4295777952755905
11
0.3489370078740157
21
0.4301771653543307
0
LINE
8
BLACK
6
CONTINUOUS
10
0.3489370078740157
20
0.4301771653543307
11
0.3646850393700787
21
0.4301771653543307
0
LINE
8
BLACK
6
CONTINUOUS
10
0.3646850393700787
20
0.4301771653543307
11
0.3676983070866142
21
0.4295777952755905
0
LINE
8
BLACK
6
CONTINUOUS
10
0.5270959842519685
20
0.4413018503937008
11
0.5306084251968504
21
0.4389548818897638
0
LINE
8
BLACK
6
CONTINUOUS
10
0.5306084251968504
20
0.4389548818897638
11
0.5329553937007874
21
0.4354424409448819
0
LINE
8
BLACK
6
CONTINUOUS
10
0.5329553937007874
20
0.4354424409448819
11
0.5337795275590551
21
0.4312992125984252
0
LINE
8
BLACK
6
CONTINUOUS
10
0.5337795275590551
20
0.4312992125984252
11
0.5337795275590551
21
0.4135826771653543
0
LINE
8
BLACK
6
CONTINUOUS
10
0.5337795275590551
20
0.4135826771653543
11
0.5329553937007874
21
0.4094394488188977
0
LINE
8
BLACK
6
CONTINUOUS
10
0.5329553937007874
20
0.4094394488188977
11
0.5306084251968504
21
0.4059270078740158
0
LINE
8
BLACK
6
CONTINUOUS
10
0.5306084251968504
20
0.4059270078740158
11
0.5270959842519685
21
0.4035800393700787
0
LINE
8
BLACK
6
CONTINUOUS
10
0.5270959842519685
20
0.4035800393700787
11
0.5229527559055118
21
0.402755905511811
0
LINE
8
BLACK
6
CONTINUOUS
10
0.5229527559055118
20
0.402755905511811
11
0.503267716535433
21
0.402755905511811
0
LINE
8
BLACK
6
CONTINUOUS
10
0.503267716535433
20
0.402755905511811
11
0.4991244881889764
21
0.4035800393700787
0
LINE
8
BLACK
6
CONTINUOUS
10
0.4991244881889764
20
0.4035800393700787
11
0.4956120472440945
21
0.4059270078740158
0
LINE
8
BLACK
6
CONTINUOUS
10
0.4956120472440945
20
0.4059270078740158
11
0.4932650787401575
21
0.4094394488188977
0
LINE
8
BLACK
6
CONTINUOUS
10
0.4932650787401575
20
0.4094394488188977
11
0.4924409448818898
21
0.4135826771653543
0
LINE
8
BLACK
6
CONTINUOUS
10
0.4924409448818898
20
0.4135826771653543
11
0.4924409448818898
21
0.4312992125984252
0
LINE
8
BLACK
6
CONTINUOUS
10
0.4924409448818898
20
0.4312992125984252
11
0.4932650787401575
21
0.4354424409448819
0
LINE
8
BLACK
6
CONTINUOUS
10
0.4932650787401575
20
0.4354424409448819
11
0.4956120472440945
21
0.4389548818897638
0
LINE
8
BLACK
6
CONTINUOUS
10
0.4956120472440945
20
0.4389548818897638
11
0.4991244881889764
21
0.4413018503937008
0
LINE
8
BLACK
6
CONTINUOUS
10
0.4991244881889764
20
0.4413018503937008
11
0.503267716535433
21
0.4421259842519685
0
LINE
8
BLACK
6
CONTINUOUS
10
0.503267716535433
20
0.4421259842519685
11
0.5229527559055118
21
0.4421259842519685
0
LINE
8
BLACK
6
CONTINUOUS
10
0.5229527559055118
20
0.4421259842519685
11
0.5270959842519685
21
0.4413018503937008
0
LINE
8
BLACK
6
CONTINUOUS
10
0.7858531889763779
20
0.4383255905511811
11
0.7890463385826771
21
0.4361920078740157
0
LINE
8
BLACK
6
CONTINUOUS
10
0.7890463385826771
20
0.4361920078740157
11
0.7911799212598425
21
0.4329988582677165
0
LINE
8
BLACK
6
CONTINUOUS
10
0.7911799212598425
20
0.4329988582677165
11
0.7919291338582677
21
0.4292322834645669
0
LINE
8
BLACK
6
CONTINUOUS
10
0.7919291338582677
20
0.4292322834645669
11
0.7919291338582677
21
0.4134842519685039
0
LINE
8
BLACK
6
CONTINUOUS
10
0.7919291338582677
20
0.4134842519685039
11
0.7911799212598425
21
0.4097176771653543
0
LINE
8
BLACK
6
CONTINUOUS
10
0.7911799212598425
20
0.4097176771653543
11
0.7890463385826771
21
0.4065245275590551
0
LINE
8
BLACK
6
CONTINUOUS
10
0.7890463385826771
20
0.4065245275590551
11
0.7858531889763779
21
0.4043909448818898
0
LINE
8
BLACK
6
CONTINUOUS
10
0.7858531889763779
20
0.4043909448818898
11
0.7820866141732283
21
0.4036417322834646
0
LINE
8
BLACK
6
CONTINUOUS
10
0.7820866141732283
20
0.4036417322834646
11
0.7604330708661418
21
0.4036417322834646
0
LINE
8
BLACK
6
CONTINUOUS
10
0.7604330708661418
20
0.4036417322834646
11
0.7566664960629921
21
0.4043909448818898
0
LINE
8
BLACK
6
CONTINUOUS
10
0.7566664960629921
20
0.4043909448818898
11
0.7534733464566929
21
0.4065245275590551
0
LINE
8
BLACK
6
CONTINUOUS
10
0.7534733464566929
20
0.4065245275590551
11
0.7513397637795275
21
0.4097176771653543
0
LINE
8
BLACK
6
CONTINUOUS
10
0.7513397637795275
20
0.4097176771653543
11
0.7505905511811023
21
0.4134842519685039
0
LINE
8
BLACK
6
CONTINUOUS
10
0.7505905511811023
20
0.4134842519685039
11
0.7505905511811023
21
0.4292322834645669
0
LINE
8
BLACK
6
CONTINUOUS
10
0.7505905511811023
20
0.4292322834645669
11
0.7513397637795275
21
0.4329988582677165
0
LINE
8
BLACK
6
CONTINUOUS
10
0.7513397637795275
20
0.4329988582677165
11
0.7534733464566929
21
0.4361920078740157
0
LINE
8
BLACK
6
CONTINUOUS
10
0.7534733464566929
20
0.4361920078740157
11
0.7566664960629921
21
0.4383255905511811
0
LINE
8
BLACK
6
CONTINUOUS
10
0.7566664960629921
20
0.4383255905511811
11
0.7604330708661418
21
0.4390748031496063
0
LINE
8
BLACK
6
CONTINUOUS
10
0.7604330708661418
20
0.4390748031496063
11
0.7820866141732283
21
0.4390748031496063
0
LINE
8
BLACK
6
CONTINUOUS
10
0.7820866141732283
20
0.4390748031496063
11
0.7858531889763779
21
0.4383255905511811
0
LINE
8
BLACK
6
CONTINUOUS
10
0.7177429527559055
20
0.4387192913385827
11
0.7209361023622047
21
0.4365857086614173
0
LINE
8
BLACK
6
CONTINUOUS
10
0.7209361023622047
20
0.4365857086614173
11
0.7230696850393701
21
0.4333925590551181
0
LINE
8
BLACK
6
CONTINUOUS
10
0.7230696850393701
20
0.4333925590551181
11
0.7238188976377953
21
0.4296259842519685
0
LINE
8
BLACK
6
CONTINUOUS
10
0.7238188976377953
20
0.4296259842519685
11
0.7238188976377953
21
0.4138779527559055
0
LINE
8
BLACK
6
CONTINUOUS
10
0.7238188976377953
20
0.4138779527559055
11
0.7230696850393701
21
0.4101113779527559
0
LINE
8
BLACK
6
CONTINUOUS
10
0.7230696850393701
20
0.4101113779527559
11
0.7209361023622047
21
0.4069182283464567
0
LINE
8
BLACK
6
CONTINUOUS
10
0.7209361023622047
20
0.4069182283464567
11
0.7177429527559055
21
0.4047846456692913
0
LINE
8
BLACK
6
CONTINUOUS
10
0.7177429527559055
20
0.4047846456692913
11
0.7139763779527559
21
0.4040354330708661
0
LINE
8
BLACK
6
CONTINUOUS
10
0.7139763779527559
20
0.4040354330708661
11
0.6923228346456692
21
0.4040354330708661
0
LINE
8
BLACK
6
CONTINUOUS
10
0.6923228346456692
20
0.4040354330708661
11
0.6885562598425197
21
0.4047846456692913
0
LINE
8
BLACK
6
CONTINUOUS
10
0.6885562598425197
20
0.4047846456692913
11
0.6853631102362204
21
0.4069182283464567
0
LINE
8
BLACK
6
CONTINUOUS
10
0.6853631102362204
20
0.4069182283464567
11
0.6832295275590551
21
0.4101113779527559
0
LINE
8
BLACK
6
CONTINUOUS
10
0.6832295275590551
20
0.4101113779527559
11
0.6824803149606299
21
0.4138779527559055
0
LINE
8
BLACK
6
CONTINUOUS
10
0.6824803149606299
20
0.4138779527559055
11
0.6824803149606299
21
0.4296259842519685
0
LINE
8
BLACK
6
CONTINUOUS
10
0.6824803149606299
20
0.4296259842519685
11
0.6832295275590551
21
0.4333925590551181
0
LINE
8
BLACK
6
CONTINUOUS
10
0.6832295275590551
20
0.4333925590551181
11
0.6853631102362204
21
0.4365857086614173
0
LINE
8
BLACK
6
CONTINUOUS
10
0.6853631102362204
20
0.4365857086614173
11
0.6885562598425197
21
0.4387192913385827
0
LINE
8
BLACK
6
CONTINUOUS
10
0.6885562598425197
20
0.4387192913385827
11
0.6923228346456692
21
0.4394685039370079
0
LINE
8
BLACK
6
CONTINUOUS
10
0.6923228346456692
20
0.4394685039370079
11
0.7139763779527559
21
0.4394685039370079
0
LINE
8
BLACK
6
CONTINUOUS
10
0.7139763779527559
20
0.4394685039370079
11
0.7177429527559055
21
0.4387192913385827
0
LINE
8
BLACK
6
CONTINUOUS
10
0.455775
20
0.4573634251968504
11
0.4597457086614173
21
0.4556101968503937
0
LINE
8
BLACK
6
CONTINUOUS
10
0.4597457086614173
20
0.4556101968503937
11
0.4628149212598425
21
0.4525409842519685
0
LINE
8
BLACK
6
CONTINUOUS
10
0.4628149212598425
20
0.4525409842519685
11
0.4645681496062992
21
0.4485702755905512
0
LINE
8
BLACK
6
CONTINUOUS
10
0.4645681496062992
20
0.4485702755905512
11
0.4648818897637795
21
0.4458661417322834
0
LINE
8
BLACK
6
CONTINUOUS
10
0.4648818897637795
20
0.4458661417322834
11
0.4648818897637795
21
0.4261811023622047
0
LINE
8
BLACK
6
CONTINUOUS
10
0.4648818897637795
20
0.4261811023622047
11
0.4645681496062992
21
0.423476968503937
0
LINE
8
BLACK
6
CONTINUOUS
10
0.4645681496062992
20
0.423476968503937
11
0.4628149212598425
21
0.4195062598425197
0
LINE
8
BLACK
6
CONTINUOUS
10
0.4628149212598425
20
0.4195062598425197
11
0.4597457086614173
21
0.4164370472440945
0
LINE
8
BLACK
6
CONTINUOUS
10
0.4597457086614173
20
0.4164370472440945
11
0.455775
21
0.4146838188976378
0
LINE
8
BLACK
6
CONTINUOUS
10
0.455775
20
0.4146838188976378
11
0.4530708661417323
21
0.4143700787401575
0
LINE
8
BLACK
6
CONTINUOUS
10
0.4530708661417323
20
0.4143700787401575
11
0.4156692913385827
21
0.4143700787401575
0
LINE
8
BLACK
6
CONTINUOUS
10
0.4156692913385827
20
0.4143700787401575
11
0.4129651574803149
21
0.4146838188976378
0
LINE
8
BLACK
6
CONTINUOUS
10
0.4129651574803149
20
0.4146838188976378
11
0.4089944488188976
21
0.4164370472440945
0
LINE
8
BLACK
6
CONTINUOUS
10
0.4089944488188976
20
0.4164370472440945
11
0.4059252362204724
21
0.4195062598425197
0
LINE
8
BLACK
6
CONTINUOUS
10
0.4059252362204724
20
0.4195062598425197
11
0.4041720078740157
21
0.423476968503937
0
LINE
8
BLACK
6
CONTINUOUS
10
0.4041720078740157
20
0.423476968503937
11
0.4038582677165354
21
0.4261811023622047
0
LINE
8
BLACK
6
CONTINUOUS
10
0.4038582677165354
20
0.4261811023622047
11
0.4038582677165354
21
0.4458661417322834
0
LINE
8
BLACK
6
CONTINUOUS
10
0.4038582677165354
20
0.4458661417322834
11
0.4041720078740157
21
0.4485702755905512
0
LINE
8
BLACK
6
CONTINUOUS
10
0.4041720078740157
20
0.4485702755905512
11
0.4059252362204724
21
0.4525409842519685
0
LINE
8
BLACK
6
CONTINUOUS
10
0.4059252362204724
20
0.4525409842519685
11
0.4089944488188976
21
0.4556101968503937
0
LINE
8
BLACK
6
CONTINUOUS
10
0.4089944488188976
20
0.4556101968503937
11
0.4129651574803149
21
0.4573634251968504
0
LINE
8
BLACK
6
CONTINUOUS
10
0.4129651574803149
20
0.4573634251968504
11
0.4156692913385827
21
0.4576771653543307
0
LINE
8
BLACK
6
CONTINUOUS
10
0.4156692913385827
20
0.4576771653543307
11
0.4530708661417323
21
0.4576771653543307
0
LINE
8
BLACK
6
CONTINUOUS
10
0.4530708661417323
20
0.4576771653543307
11
0.455775
21
0.4573634251968504
0
LINE
8
BLACK
6
CONTINUOUS
10
0.1099875984251968
20
0.463268937007874
11
0.1139583070866142
21
0.4615157086614173
0
LINE
8
BLACK
6
CONTINUOUS
10
0.1139583070866142
20
0.4615157086614173
11
0.1170275196850394
21
0.4584464960629921
0
LINE
8
BLACK
6
CONTINUOUS
10
0.1170275196850394
20
0.4584464960629921
11
0.1187807480314961
21
0.4544757874015748
0
LINE
8
BLACK
6
CONTINUOUS
10
0.1187807480314961
20
0.4544757874015748
11
0.1190944881889764
21
0.4517716535433071
0
LINE
8
BLACK
6
CONTINUOUS
10
0.1190944881889764
20
0.4517716535433071
11
0.1190944881889764
21
0.4320866141732284
0
LINE
8
BLACK
6
CONTINUOUS
10
0.1190944881889764
20
0.4320866141732284
11
0.1187807480314961
21
0.4293824803149606
0
LINE
8
BLACK
6
CONTINUOUS
10
0.1187807480314961
20
0.4293824803149606
11
0.1170275196850394
21
0.4254117716535433
0
LINE
8
BLACK
6
CONTINUOUS
10
0.1170275196850394
20
0.4254117716535433
11
0.1139583070866142
21
0.4223425590551181
0
LINE
8
BLACK
6
CONTINUOUS
10
0.1139583070866142
20
0.4223425590551181
11
0.1099875984251968
21
0.4205893307086614
0
LINE
8
BLACK
6
CONTINUOUS
10
0.1099875984251968
20
0.4205893307086614
11
0.1072834645669291
21
0.4202755905511811
0
LINE
8
BLACK
6
CONTINUOUS
10
0.1072834645669291
20
0.4202755905511811
11
0.0206692913385827
21
0.4202755905511811
0
LINE
8
BLACK
6
CONTINUOUS
10
0.0206692913385827
20
0.4202755905511811
11
0.017965157480315
21
0.4205893307086614
0
LINE
8
BLACK
6
CONTINUOUS
10
0.017965157480315
20
0.4205893307086614
11
0.0139944488188976
21
0.4223425590551181
0
LINE
8
BLACK
6
CONTINUOUS
10
0.0139944488188976
20
0.4223425590551181
11
0.0109252362204724
21
0.4254117716535433
0
LINE
8
BLACK
6
CONTINUOUS
10
0.0109252362204724
20
0.4254117716535433
11
0.0091720078740157
21
0.4293824803149606
0
LINE
8
BLACK
6
CONTINUOUS
10
0.0091720078740157
20
0.4293824803149606
11
0.0088582677165354
21
0.4320866141732284
0
LINE
8
BLACK
6
CONTINUOUS
10
0.0088582677165354
20
0.4320866141732284
11
0.0088582677165354
21
0.4517716535433071
0
LINE
8
BLACK
6
CONTINUOUS
10
0.0088582677165354
20
0.4517716535433071
11
0.0091720078740157
21
0.4544757874015748
0
LINE
8
BLACK
6
CONTINUOUS
10
0.0091720078740157
20
0.4544757874015748
11
0.0109252362204724
21
0.4584464960629921
0
LINE
8
BLACK
6
CONTINUOUS
10
0.0109252362204724
20
0.4584464960629921
11
0.0139944488188976
21
0.4615157086614173
0
LINE
8
BLACK
6
CONTINUOUS
10
0.0139944488188976
20
0.4615157086614173
11
0.017965157480315
21
0.463268937007874
0
LINE
8
BLACK
6
CONTINUOUS
10
0.017965157480315
20
0.463268937007874
11
0.0206692913385827
21
0.4635826771653543
0
LINE
8
BLACK
6
CONTINUOUS
10
0.0206692913385827
20
0.4635826771653543
11
0.1072834645669291
21
0.4635826771653543
0
LINE
8
BLACK
6
CONTINUOUS
10
0.1072834645669291
20
0.4635826771653543
11
0.1099875984251968
21
0.463268937007874
0
LINE
8
BLACK
6
CONTINUOUS
10
0.9714225984251968
20
0.4667792913385826
11
0.9720612204724409
21
0.4663525590551181
0
LINE
8
BLACK
6
CONTINUOUS
10
0.9720612204724409
20
0.4663525590551181
11
0.9724879527559055
21
0.465713937007874
0
LINE
8
BLACK
6
CONTINUOUS
10
0.9724879527559055
20
0.465713937007874
11
0.9726377952755906
21
0.4649606299212598
0
LINE
8
BLACK
6
CONTINUOUS
10
0.9726377952755906
20
0.4649606299212598
11
0.9726377952755906
21
0.4255905511811023
0
LINE
8
BLACK
6
CONTINUOUS
10
0.9726377952755906
20
0.4255905511811023
11
0.9724879527559055
21
0.4248372440944882
0
LINE
8
BLACK
6
CONTINUOUS
10
0.9724879527559055
20
0.4248372440944882
11
0.9720612204724409
21
0.4241986220472441
0
LINE
8
BLACK
6
CONTINUOUS
10
0.9720612204724409
20
0.4241986220472441
11
0.9714225984251968
21
0.4237718897637795
0
LINE
8
BLACK
6
CONTINUOUS
10
0.9714225984251968
20
0.4237718897637795
11
0.9706692913385827
21
0.4236220472440945
0
LINE
8
BLACK
6
CONTINUOUS
10
0.9706692913385827
20
0.4236220472440945
11
0.8718503937007874
21
0.4236220472440945
0
LINE
8
BLACK
6
CONTINUOUS
10
0.8718503937007874
20
0.4236220472440945
11
0.8710970866141732
21
0.4237718897637795
0
LINE
8
BLACK
6
CONTINUOUS
10
0.8710970866141732
20
0.4237718897637795
11
0.8704584645669291
21
0.4241986220472441
0
LINE
8
BLACK
6
CONTINUOUS
10
0.8704584645669291
20
0.4241986220472441
11
0.8700317322834645
21
0.4248372440944882
0
LINE
8
BLACK
6
CONTINUOUS
10
0.8700317322834645
20
0.4248372440944882
11
0.8698818897637796
21
0.4255905511811023
0
LINE
8
BLACK
6
CONTINUOUS
10
0.8698818897637796
20
0.4255905511811023
11
0.8698818897637796
21
0.4649606299212598
0
LINE
8
BLACK
6
CONTINUOUS
10
0.8698818897637796
20
0.4649606299212598
11
0.8700317322834645
21
0.465713937007874
0
LINE
8
BLACK
6
CONTINUOUS
10
0.8700317322834645
20
0.465713937007874
11
0.8704584645669291
21
0.4663525590551181
0
LINE
8
BLACK
6
CONTINUOUS
10
0.8704584645669291
20
0.4663525590551181
11
0.8710970866141732
21
0.4667792913385826
0
LINE
8
BLACK
6
CONTINUOUS
10
0.8710970866141732
20
0.4667792913385826
11
0.8718503937007874
21
0.4669291338582677
0
LINE
8
BLACK
6
CONTINUOUS
10
0.8718503937007874
20
0.4669291338582677
11
0.9706692913385827
21
0.4669291338582677
0
LINE
8
BLACK
6
CONTINUOUS
10
0.9706692913385827
20
0.4669291338582677
11
0.9714225984251968
21
0.4667792913385826
0
LINE
8
BLACK
6
CONTINUOUS
10
0.2493738582677165
20
0.4962418503937008
11
0.2528064960629921
21
0.4939482283464567
0
LINE
8
BLACK
6
CONTINUOUS
10
0.2528064960629921
20
0.4939482283464567
11
0.2551001181102362
21
0.4905155905511811
0
LINE
8
BLACK
6
CONTINUOUS
10
0.2551001181102362
20
0.4905155905511811
11
0.2559055118110236
21
0.4864665354330708
0
LINE
8
BLACK
6
CONTINUOUS
10
0.2559055118110236
20
0.4864665354330708
11
0.2559055118110236
21
0.4662893700787402
0
LINE
8
BLACK
6
CONTINUOUS
10
0.2559055118110236
20
0.4662893700787402
11
0.2551001181102362
21
0.4622403149606299
0
LINE
8
BLACK
6
CONTINUOUS
10
0.2551001181102362
20
0.4622403149606299
11
0.2528064960629921
21
0.4588076771653543
0
LINE
8
BLACK
6
CONTINUOUS
10
0.2528064960629921
20
0.4588076771653543
11
0.2493738582677165
21
0.4565140551181102
0
LINE
8
BLACK
6
CONTINUOUS
10
0.2493738582677165
20
0.4565140551181102
11
0.2453248031496063
21
0.4557086614173228
0
LINE
8
BLACK
6
CONTINUOUS
10
0.2453248031496063
20
0.4557086614173228
11
0.2281003937007874
21
0.4557086614173228
0
LINE
8
BLACK
6
CONTINUOUS
10
0.2281003937007874
20
0.4557086614173228
11
0.2240513385826772
21
0.4565140551181102
0
LINE
8
BLACK
6
CONTINUOUS
10
0.2240513385826772
20
0.4565140551181102
11
0.2206187007874016
21
0.4588076771653543
0
LINE
8
BLACK
6
CONTINUOUS
10
0.2206187007874016
20
0.4588076771653543
11
0.2183250787401575
21
0.4622403149606299
0
LINE
8
BLACK
6
CONTINUOUS
10
0.2183250787401575
20
0.4622403149606299
11
0.2175196850393701
21
0.4662893700787402
0
LINE
8
BLACK
6
CONTINUOUS
10
0.2175196850393701
20
0.4662893700787402
11
0.2175196850393701
21
0.4864665354330708
0
LINE
8
BLACK
6
CONTINUOUS
10
0.2175196850393701
20
0.4864665354330708
11
0.2183250787401575
21
0.4905155905511811
0
LINE
8
BLACK
6
CONTINUOUS
10
0.2183250787401575
20
0.4905155905511811
11
0.2206187007874016
21
0.4939482283464567
0
LINE
8
BLACK
6
CONTINUOUS
10
0.2206187007874016
20
0.4939482283464567
11
0.2240513385826772
21
0.4962418503937008
0
LINE
8
BLACK
6
CONTINUOUS
10
0.2240513385826772
20
0.4962418503937008
11
0.2281003937007874
21
0.4970472440944882
0
LINE
8
BLACK
6
CONTINUOUS
10
0.2281003937007874
20
0.4970472440944882
11
0.2453248031496063
21
0.4970472440944882
0
LINE
8
BLACK
6
CONTINUOUS
10
0.2453248031496063
20
0.4970472440944882
11
0.2493738582677165
21
0.4962418503937008
0
LINE
8
BLACK
6
CONTINUOUS
10
0.3113817322834646
20
0.4962418503937008
11
0.3148143700787401
21
0.4939482283464567
0
LINE
8
BLACK
6
CONTINUOUS
10
0.3148143700787401
20
0.4939482283464567
11
0.3171079921259842
21
0.4905155905511811
0
LINE
8
BLACK
6
CONTINUOUS
10
0.3171079921259842
20
0.4905155905511811
11
0.3179133858267716
21
0.4864665354330708
0
LINE
8
BLACK
6
CONTINUOUS
10
0.3179133858267716
20
0.4864665354330708
11
0.3179133858267716
21
0.4662893700787402
0
LINE
8
BLACK
6
CONTINUOUS
10
0.3179133858267716
20
0.4662893700787402
11
0.3171079921259842
21
0.4622403149606299
0
LINE
8
BLACK
6
CONTINUOUS
10
0.3171079921259842
20
0.4622403149606299
11
0.3148143700787401
21
0.4588076771653543
0
LINE
8
BLACK
6
CONTINUOUS
10
0.3148143700787401
20
0.4588076771653543
11
0.3113817322834646
21
0.4565140551181102
0
LINE
8
BLACK
6
CONTINUOUS
10
0.3113817322834646
20
0.4565140551181102
11
0.3073326771653543
21
0.4557086614173228
0
LINE
8
BLACK
6
CONTINUOUS
10
0.3073326771653543
20
0.4557086614173228
11
0.2901082677165354
21
0.4557086614173228
0
LINE
8
BLACK
6
CONTINUOUS
10
0.2901082677165354
20
0.4557086614173228
11
0.2860592125984252
21
0.4565140551181102
0
LINE
8
BLACK
6
CONTINUOUS
10
0.2860592125984252
20
0.4565140551181102
11
0.2826265748031496
21
0.4588076771653543
0
LINE
8
BLACK
6
CONTINUOUS
10
0.2826265748031496
20
0.4588076771653543
11
0.2803329527559055
21
0.4622403149606299
0
LINE
8
BLACK
6
CONTINUOUS
10
0.2803329527559055
20
0.4622403149606299
11
0.2795275590551181
21
0.4662893700787402
0
LINE
8
BLACK
6
CONTINUOUS
10
0.2795275590551181
20
0.4662893700787402
11
0.2795275590551181
21
0.4864665354330708
0
LINE
8
BLACK
6
CONTINUOUS
10
0.2795275590551181
20
0.4864665354330708
11
0.2803329527559055
21
0.4905155905511811
0
LINE
8
BLACK
6
CONTINUOUS
10
0.2803329527559055
20
0.4905155905511811
11
0.2826265748031496
21
0.4939482283464567
0
LINE
8
BLACK
6
CONTINUOUS
10
0.2826265748031496
20
0.4939482283464567
11
0.2860592125984252
21
0.4962418503937008
0
LINE
8
BLACK
6
CONTINUOUS
10
0.2860592125984252
20
0.4962418503937008
11
0.2901082677165354
21
0.4970472440944882
0
LINE
8
BLACK
6
CONTINUOUS
10
0.2901082677165354
20
0.4970472440944882
11
0.3073326771653543
21
0.4970472440944882
0
LINE
8
BLACK
6
CONTINUOUS
10
0.3073326771653543
20
0.4970472440944882
11
0.3113817322834646
21
0.4962418503937008
0
LINE
8
BLACK
6
CONTINUOUS
10
0.7858531889763779
20
0.503286220472441
11
0.7890463385826771
21
0.5011526377952755
0
LINE
8
BLACK
6
CONTINUOUS
10
0.7890463385826771
20
0.5011526377952755
11
0.7911799212598425
21
0.4979594881889763
0
LINE
8
BLACK
6
CONTINUOUS
10
0.7911799212598425
20
0.4979594881889763
11
0.7919291338582677
21
0.4941929133858268
0
LINE
8
BLACK
6
CONTINUOUS
10
0.7919291338582677
20
0.4941929133858268
11
0.7919291338582677
21
0.4784448818897638
0
LINE
8
BLACK
6
CONTINUOUS
10
0.7919291338582677
20
0.4784448818897638
11
0.7911799212598425
21
0.4746783070866142
0
LINE
8
BLACK
6
CONTINUOUS
10
0.7911799212598425
20
0.4746783070866142
11
0.7890463385826771
21
0.4714851574803149
0
LINE
8
BLACK
6
CONTINUOUS
10
0.7890463385826771
20
0.4714851574803149
11
0.7858531889763779
21
0.4693515748031496
0
LINE
8
BLACK
6
CONTINUOUS
10
0.7858531889763779
20
0.4693515748031496
11
0.7820866141732283
21
0.4686023622047244
0
LINE
8
BLACK
6
CONTINUOUS
10
0.7820866141732283
20
0.4686023622047244
11
0.7604330708661418
21
0.4686023622047244
0
LINE
8
BLACK
6
CONTINUOUS
10
0.7604330708661418
20
0.4686023622047244
11
0.7566664960629921
21
0.4693515748031496
0
LINE
8
BLACK
6
CONTINUOUS
10
0.7566664960629921
20
0.4693515748031496
11
0.7534733464566929
21
0.4714851574803149
0
LINE
8
BLACK
6
CONTINUOUS
10
0.7534733464566929
20
0.4714851574803149
11
0.7513397637795275
21
0.4746783070866142
0
LINE
8
BLACK
6
CONTINUOUS
10
0.7513397637795275
20
0.4746783070866142
11
0.7505905511811023
21
0.4784448818897638
0
LINE
8
BLACK
6
CONTINUOUS
10
0.7505905511811023
20
0.4784448818897638
11
0.7505905511811023
21
0.4941929133858268
0
LINE
8
BLACK
6
CONTINUOUS
10
0.7505905511811023
20
0.4941929133858268
11
0.7513397637795275
21
0.4979594881889763
0
LINE
8
BLACK
6
CONTINUOUS
10
0.7513397637795275
20
0.4979594881889763
11
0.7534733464566929
21
0.5011526377952755
0
LINE
8
BLACK
6
CONTINUOUS
10
0.7534733464566929
20
0.5011526377952755
11
0.7566664960629921
21
0.503286220472441
0
LINE
8
BLACK
6
CONTINUOUS
10
0.7566664960629921
20
0.503286220472441
11
0.7604330708661418
21
0.5040354330708662
0
LINE
8
BLACK
6
CONTINUOUS
10
0.7604330708661418
20
0.5040354330708662
11
0.7820866141732283
21
0.5040354330708662
0
LINE
8
BLACK
6
CONTINUOUS
10
0.7820866141732283
20
0.5040354330708662
11
0.7858531889763779
21
0.503286220472441
0
LINE
8
BLACK
6
CONTINUOUS
10
0.7177429527559055
20
0.5036799212598425
11
0.7209361023622047
21
0.5015463385826772
0
LINE
8
BLACK
6
CONTINUOUS
10
0.7209361023622047
20
0.5015463385826772
11
0.7230696850393701
21
0.4983531889763779
0
LINE
8
BLACK
6
CONTINUOUS
10
0.7230696850393701
20
0.4983531889763779
11
0.7238188976377953
21
0.4945866141732284
0
LINE
8
BLACK
6
CONTINUOUS
10
0.7238188976377953
20
0.4945866141732284
11
0.7238188976377953
21
0.4788385826771653
0
LINE
8
BLACK
6
CONTINUOUS
10
0.7238188976377953
20
0.4788385826771653
11
0.7230696850393701
21
0.4750720078740157
0
LINE
8
BLACK
6
CONTINUOUS
10
0.7230696850393701
20
0.4750720078740157
11
0.7209361023622047
21
0.4718788582677165
0
LINE
8
BLACK
6
CONTINUOUS
10
0.7209361023622047
20
0.4718788582677165
11
0.7177429527559055
21
0.4697452755905512
0
LINE
8
BLACK
6
CONTINUOUS
10
0.7177429527559055
20
0.4697452755905512
11
0.7139763779527559
21
0.468996062992126
0
LINE
8
BLACK
6
CONTINUOUS
10
0.7139763779527559
20
0.468996062992126
11
0.6923228346456692
21
0.468996062992126
0
LINE
8
BLACK
6
CONTINUOUS
10
0.6923228346456692
20
0.468996062992126
11
0.6885562598425197
21
0.4697452755905512
0
LINE
8
BLACK
6
CONTINUOUS
10
0.6885562598425197
20
0.4697452755905512
11
0.6853631102362204
21
0.4718788582677165
0
LINE
8
BLACK
6
CONTINUOUS
10
0.6853631102362204
20
0.4718788582677165
11
0.6832295275590551
21
0.4750720078740157
0
LINE
8
BLACK
6
CONTINUOUS
10
0.6832295275590551
20
0.4750720078740157
11
0.6824803149606299
21
0.4788385826771653
0
LINE
8
BLACK
6
CONTINUOUS
10
0.6824803149606299
20
0.4788385826771653
11
0.6824803149606299
21
0.4945866141732284
0
LINE
8
BLACK
6
CONTINUOUS
10
0.6824803149606299
20
0.4945866141732284
11
0.6832295275590551
21
0.4983531889763779
0
LINE
8
BLACK
6
CONTINUOUS
10
0.6832295275590551
20
0.4983531889763779
11
0.6853631102362204
21
0.5015463385826772
0
LINE
8
BLACK
6
CONTINUOUS
10
0.6853631102362204
20
0.5015463385826772
11
0.6885562598425197
21
0.5036799212598425
0
LINE
8
BLACK
6
CONTINUOUS
10
0.6885562598425197
20
0.5036799212598425
11
0.6923228346456692
21
0.5044291338582677
0
LINE
8
BLACK
6
CONTINUOUS
10
0.6923228346456692
20
0.5044291338582677
11
0.7139763779527559
21
0.5044291338582677
0
LINE
8
BLACK
6
CONTINUOUS
10
0.7139763779527559
20
0.5044291338582677
11
0.7177429527559055
21
0.5036799212598425
  0
ENDSEC
  0
EOF
