  0
SECTION
  2
HEADER
  9
$ANGBASE
  50
0.0
  9
$ANGDIR
  70
1
  9
$MEASUREMENT
  70
0
  0
ENDSEC
  0
SECTION
  2
TABLES
  0
TABLE
  2
LTYPE
  70
4
  0
LTYPE
  5
40F
  2
CONTINUOUS
  70
0
  3
Solid line
  72
65
  73
0
  40
0.0
  0
LTYPE
  5
410
  2
DASHDOT
 70
0
  3
Dash Dot ____ _ ____ _
 72
65
 73
4
 40
2.0
 49
1.25
 49
-0.25
 49
0.25
 49
-0.25
  0
LTYPE
  5
411
  2
DASHED
 70
0
  3
Dashed __ __ __ __ __
 72
65
 73
2
 40
0.75
 49
0.5
 49
-0.25
  0
LTYPE
  5
43B
  2
DOTTED
 70
0
  3
Dotted .  .  .  .
 72
65
 73
2
 40
0.2
 49
0.0
 49
-0.2
  0
ENDTAB
  0
TABLE
  2
STYLE
  70
4
  0
STYLE
  2
KICAD
  70
0
  40
0
  41
1
  42
1
  50
0
  71
0
  3
isocp.shx
  0
STYLE
  2
KICADB
  70
0
  40
0
  41
1
  42
1
  50
0
  71
0
  3
isocp.shx
  0
STYLE
  2
KICADI
  70
0
  40
0
  41
1
  42
1
  50
15
  71
0
  3
isocp.shx
  0
STYLE
  2
KICADBI
  70
0
  40
0
  41
1
  42
1
  50
15
  71
0
  3
isocp.shx
  0
ENDTAB
  0
TABLE
  2
LAYER
  70
1
  0
LAYER
  2
BLACK
  70
0
  62
7
  6
CONTINUOUS
  0
ENDTAB
  0
ENDSEC
  0
SECTION
  2
ENTITIES
0
LINE
8
BLACK
6
CONTINUOUS
10
0.7749920866141732
20
0.1698735039370079
11
0.7824790157480315
21
0.1667723228346457
0
LINE
8
BLACK
6
CONTINUOUS
10
0.7824790157480315
20
0.1667723228346457
11
0.7892170472440945
21
0.1622701181102362
0
LINE
8
BLACK
6
CONTINUOUS
10
0.7892170472440945
20
0.1622701181102362
11
0.7949472834645669
21
0.1565398818897638
0
LINE
8
BLACK
6
CONTINUOUS
10
0.7949472834645669
20
0.1565398818897638
11
0.7994494881889763
21
0.1498018503937008
0
LINE
8
BLACK
6
CONTINUOUS
10
0.7994494881889763
20
0.1498018503937008
11
0.8025506692913386
21
0.1423149212598425
0
LINE
8
BLACK
6
CONTINUOUS
10
0.8025506692913386
20
0.1423149212598425
11
0.8041316535433071
21
0.1343668503937008
0
LINE
8
BLACK
6
CONTINUOUS
10
0.8041316535433071
20
0.1343668503937008
11
0.8041316535433071
21
0.1262630708661417
0
LINE
8
BLACK
6
CONTINUOUS
10
0.8041316535433071
20
0.1262630708661417
11
0.8025506692913386
21
0.118315
0
LINE
8
BLACK
6
CONTINUOUS
10
0.8025506692913386
20
0.118315
11
0.7994494881889763
21
0.1108280708661417
0
LINE
8
BLACK
6
CONTINUOUS
10
0.7994494881889763
20
0.1108280708661417
11
0.7949472834645669
21
0.1040900393700787
0
LINE
8
BLACK
6
CONTINUOUS
10
0.7949472834645669
20
0.1040900393700787
11
0.7892170472440945
21
0.0983598031496063
0
LINE
8
BLACK
6
CONTINUOUS
10
0.7892170472440945
20
0.0983598031496063
11
0.7824790157480315
21
0.0938575984251969
0
LINE
8
BLACK
6
CONTINUOUS
10
0.7824790157480315
20
0.0938575984251969
11
0.7749920866141732
21
0.0907564173228346
0
LINE
8
BLACK
6
CONTINUOUS
10
0.7749920866141732
20
0.0907564173228346
11
0.7670440157480315
21
0.0891754330708661
0
LINE
8
BLACK
6
CONTINUOUS
10
0.7670440157480315
20
0.0891754330708661
11
0.7589402362204725
21
0.0891754330708661
0
LINE
8
BLACK
6
CONTINUOUS
10
0.7589402362204725
20
0.0891754330708661
11
0.7509921653543307
21
0.0907564173228346
0
LINE
8
BLACK
6
CONTINUOUS
10
0.7509921653543307
20
0.0907564173228346
11
0.7435052362204724
21
0.0938575984251969
0
LINE
8
BLACK
6
CONTINUOUS
10
0.7435052362204724
20
0.0938575984251969
11
0.7367672047244095
21
0.0983598031496063
0
LINE
8
BLACK
6
CONTINUOUS
10
0.7367672047244095
20
0.0983598031496063
11
0.731036968503937
21
0.1040900393700787
0
LINE
8
BLACK
6
CONTINUOUS
10
0.731036968503937
20
0.1040900393700787
11
0.7265347637795275
21
0.1108280708661417
0
LINE
8
BLACK
6
CONTINUOUS
10
0.7265347637795275
20
0.1108280708661417
11
0.7234335826771653
21
0.118315
0
LINE
8
BLACK
6
CONTINUOUS
10
0.7234335826771653
20
0.118315
11
0.7218525984251968
21
0.1262630708661417
0
LINE
8
BLACK
6
CONTINUOUS
10
0.7218525984251968
20
0.1262630708661417
11
0.7218525984251968
21
0.1343668503937008
0
LINE
8
BLACK
6
CONTINUOUS
10
0.7218525984251968
20
0.1343668503937008
11
0.7234335826771653
21
0.1423149212598425
0
LINE
8
BLACK
6
CONTINUOUS
10
0.7234335826771653
20
0.1423149212598425
11
0.7265347637795275
21
0.1498018503937008
0
LINE
8
BLACK
6
CONTINUOUS
10
0.7265347637795275
20
0.1498018503937008
11
0.731036968503937
21
0.1565398818897638
0
LINE
8
BLACK
6
CONTINUOUS
10
0.731036968503937
20
0.1565398818897638
11
0.7367672047244095
21
0.1622701181102362
0
LINE
8
BLACK
6
CONTINUOUS
10
0.7367672047244095
20
0.1622701181102362
11
0.7435052362204724
21
0.1667723228346457
0
LINE
8
BLACK
6
CONTINUOUS
10
0.7435052362204724
20
0.1667723228346457
11
0.7509921653543307
21
0.1698735039370079
0
LINE
8
BLACK
6
CONTINUOUS
10
0.7509921653543307
20
0.1698735039370079
11
0.7589402362204725
21
0.1714544881889764
0
LINE
8
BLACK
6
CONTINUOUS
10
0.7589402362204725
20
0.1714544881889764
11
0.7670440157480315
21
0.1714544881889764
0
LINE
8
BLACK
6
CONTINUOUS
10
0.7670440157480315
20
0.1714544881889764
11
0.7749920866141732
21
0.1698735039370079
0
LINE
8
BLACK
6
CONTINUOUS
10
0.9714225984251968
20
0.1667792913385827
11
0.9720612204724409
21
0.1663525590551181
0
LINE
8
BLACK
6
CONTINUOUS
10
0.9720612204724409
20
0.1663525590551181
11
0.9724879527559055
21
0.165713937007874
0
LINE
8
BLACK
6
CONTINUOUS
10
0.9724879527559055
20
0.165713937007874
11
0.9726377952755906
21
0.1649606299212598
0
LINE
8
BLACK
6
CONTINUOUS
10
0.9726377952755906
20
0.1649606299212598
11
0.9726377952755906
21
0.1255905511811024
0
LINE
8
BLACK
6
CONTINUOUS
10
0.9726377952755906
20
0.1255905511811024
11
0.9724879527559055
21
0.1248372440944882
0
LINE
8
BLACK
6
CONTINUOUS
10
0.9724879527559055
20
0.1248372440944882
11
0.9720612204724409
21
0.1241986220472441
0
LINE
8
BLACK
6
CONTINUOUS
10
0.9720612204724409
20
0.1241986220472441
11
0.9714225984251968
21
0.1237718897637795
0
LINE
8
BLACK
6
CONTINUOUS
10
0.9714225984251968
20
0.1237718897637795
11
0.9706692913385827
21
0.1236220472440945
0
LINE
8
BLACK
6
CONTINUOUS
10
0.9706692913385827
20
0.1236220472440945
11
0.8718503937007874
21
0.1236220472440945
0
LINE
8
BLACK
6
CONTINUOUS
10
0.8718503937007874
20
0.1236220472440945
11
0.8710970866141732
21
0.1237718897637795
0
LINE
8
BLACK
6
CONTINUOUS
10
0.8710970866141732
20
0.1237718897637795
11
0.8704584645669291
21
0.1241986220472441
0
LINE
8
BLACK
6
CONTINUOUS
10
0.8704584645669291
20
0.1241986220472441
11
0.8700317322834645
21
0.1248372440944882
0
LINE
8
BLACK
6
CONTINUOUS
10
0.8700317322834645
20
0.1248372440944882
11
0.8698818897637796
21
0.1255905511811024
0
LINE
8
BLACK
6
CONTINUOUS
10
0.8698818897637796
20
0.1255905511811024
11
0.8698818897637796
21
0.1649606299212598
0
LINE
8
BLACK
6
CONTINUOUS
10
0.8698818897637796
20
0.1649606299212598
11
0.8700317322834645
21
0.165713937007874
0
LINE
8
BLACK
6
CONTINUOUS
10
0.8700317322834645
20
0.165713937007874
11
0.8704584645669291
21
0.1663525590551181
0
LINE
8
BLACK
6
CONTINUOUS
10
0.8704584645669291
20
0.1663525590551181
11
0.8710970866141732
21
0.1667792913385827
0
LINE
8
BLACK
6
CONTINUOUS
10
0.8710970866141732
20
0.1667792913385827
11
0.8718503937007874
21
0.1669291338582677
0
LINE
8
BLACK
6
CONTINUOUS
10
0.8718503937007874
20
0.1669291338582677
11
0.9706692913385827
21
0.1669291338582677
0
LINE
8
BLACK
6
CONTINUOUS
10
0.9706692913385827
20
0.1669291338582677
11
0.9714225984251968
21
0.1667792913385827
0
LINE
8
BLACK
6
CONTINUOUS
10
0.1099875984251968
20
0.1699618503937008
11
0.1139583070866142
21
0.1682086220472441
0
LINE
8
BLACK
6
CONTINUOUS
10
0.1139583070866142
20
0.1682086220472441
11
0.1170275196850394
21
0.1651394094488189
0
LINE
8
BLACK
6
CONTINUOUS
10
0.1170275196850394
20
0.1651394094488189
11
0.1187807480314961
21
0.1611687007874016
0
LINE
8
BLACK
6
CONTINUOUS
10
0.1187807480314961
20
0.1611687007874016
11
0.1190944881889764
21
0.1584645669291339
0
LINE
8
BLACK
6
CONTINUOUS
10
0.1190944881889764
20
0.1584645669291339
11
0.1190944881889764
21
0.1387795275590551
0
LINE
8
BLACK
6
CONTINUOUS
10
0.1190944881889764
20
0.1387795275590551
11
0.1187807480314961
21
0.1360753937007874
0
LINE
8
BLACK
6
CONTINUOUS
10
0.1187807480314961
20
0.1360753937007874
11
0.1170275196850394
21
0.1321046850393701
0
LINE
8
BLACK
6
CONTINUOUS
10
0.1170275196850394
20
0.1321046850393701
11
0.1139583070866142
21
0.1290354724409449
0
LINE
8
BLACK
6
CONTINUOUS
10
0.1139583070866142
20
0.1290354724409449
11
0.1099875984251968
21
0.1272822440944882
0
LINE
8
BLACK
6
CONTINUOUS
10
0.1099875984251968
20
0.1272822440944882
11
0.1072834645669291
21
0.1269685039370079
0
LINE
8
BLACK
6
CONTINUOUS
10
0.1072834645669291
20
0.1269685039370079
11
0.0206692913385827
21
0.1269685039370079
0
LINE
8
BLACK
6
CONTINUOUS
10
0.0206692913385827
20
0.1269685039370079
11
0.017965157480315
21
0.1272822440944882
0
LINE
8
BLACK
6
CONTINUOUS
10
0.017965157480315
20
0.1272822440944882
11
0.0139944488188976
21
0.1290354724409449
0
LINE
8
BLACK
6
CONTINUOUS
10
0.0139944488188976
20
0.1290354724409449
11
0.0109252362204724
21
0.1321046850393701
0
LINE
8
BLACK
6
CONTINUOUS
10
0.0109252362204724
20
0.1321046850393701
11
0.0091720078740157
21
0.1360753937007874
0
LINE
8
BLACK
6
CONTINUOUS
10
0.0091720078740157
20
0.1360753937007874
11
0.0088582677165354
21
0.1387795275590551
0
LINE
8
BLACK
6
CONTINUOUS
10
0.0088582677165354
20
0.1387795275590551
11
0.0088582677165354
21
0.1584645669291339
0
LINE
8
BLACK
6
CONTINUOUS
10
0.0088582677165354
20
0.1584645669291339
11
0.0091720078740157
21
0.1611687007874016
0
LINE
8
BLACK
6
CONTINUOUS
10
0.0091720078740157
20
0.1611687007874016
11
0.0109252362204724
21
0.1651394094488189
0
LINE
8
BLACK
6
CONTINUOUS
10
0.0109252362204724
20
0.1651394094488189
11
0.0139944488188976
21
0.1682086220472441
0
LINE
8
BLACK
6
CONTINUOUS
10
0.0139944488188976
20
0.1682086220472441
11
0.017965157480315
21
0.1699618503937008
0
LINE
8
BLACK
6
CONTINUOUS
10
0.017965157480315
20
0.1699618503937008
11
0.0206692913385827
21
0.1702755905511811
0
LINE
8
BLACK
6
CONTINUOUS
10
0.0206692913385827
20
0.1702755905511811
11
0.1072834645669291
21
0.1702755905511811
0
LINE
8
BLACK
6
CONTINUOUS
10
0.1072834645669291
20
0.1702755905511811
11
0.1099875984251968
21
0.1699618503937008
0
LINE
8
BLACK
6
CONTINUOUS
10
0.5535562204724409
20
0.3427449606299213
11
0.5557190157480315
21
0.3427449606299213
0
LINE
8
BLACK
6
CONTINUOUS
10
0.5557190157480315
20
0.3427449606299213
11
0.5562285039370078
21
0.342677874015748
0
LINE
8
BLACK
6
CONTINUOUS
10
0.5562285039370078
20
0.342677874015748
11
0.5611922440944882
21
0.341347874015748
0
LINE
8
BLACK
6
CONTINUOUS
10
0.5611922440944882
20
0.341347874015748
11
0.5616670078740157
21
0.341151220472441
0
LINE
8
BLACK
6
CONTINUOUS
10
0.5616670078740157
20
0.341151220472441
11
0.5661173622047244
21
0.3385818110236221
0
LINE
8
BLACK
6
CONTINUOUS
10
0.5661173622047244
20
0.3385818110236221
11
0.5665250393700787
21
0.3382689763779527
0
LINE
8
BLACK
6
CONTINUOUS
10
0.5665250393700787
20
0.3382689763779527
11
0.5701587401574802
21
0.3346352755905512
0
LINE
8
BLACK
6
CONTINUOUS
10
0.5701587401574802
20
0.3346352755905512
11
0.5704715748031496
21
0.3342275984251968
0
LINE
8
BLACK
6
CONTINUOUS
10
0.5704715748031496
20
0.3342275984251968
11
0.5730409842519685
21
0.3297772440944882
0
LINE
8
BLACK
6
CONTINUOUS
10
0.5730409842519685
20
0.3297772440944882
11
0.5732376377952756
21
0.3293024803149606
0
LINE
8
BLACK
6
CONTINUOUS
10
0.5732376377952756
20
0.3293024803149606
11
0.5745676377952755
21
0.3243387401574803
0
LINE
8
BLACK
6
CONTINUOUS
10
0.5745676377952755
20
0.3243387401574803
11
0.5746347244094488
21
0.3238292519685039
0
LINE
8
BLACK
6
CONTINUOUS
10
0.5746347244094488
20
0.3238292519685039
11
0.5746347244094488
21
0.3216664566929134
0
LINE
8
BLACK
6
CONTINUOUS
10
0.5746347244094488
20
0.3216664566929134
11
0.5748031496062992
21
0.321259842519685
0
LINE
8
BLACK
6
CONTINUOUS
10
0.5748031496062992
20
0.321259842519685
11
0.5748031496062992
21
0.2996062992125984
0
LINE
8
BLACK
6
CONTINUOUS
10
0.5748031496062992
20
0.2996062992125984
11
0.5742265748031496
21
0.2982143700787401
0
LINE
8
BLACK
6
CONTINUOUS
10
0.5742265748031496
20
0.2982143700787401
11
0.5728346456692913
21
0.2976377952755905
0
LINE
8
BLACK
6
CONTINUOUS
10
0.5728346456692913
20
0.2976377952755905
11
0.5728346456692913
21
0.2917322834645669
0
LINE
8
BLACK
6
CONTINUOUS
10
0.5728346456692913
20
0.2917322834645669
11
0.5735879527559055
21
0.2915824409448819
0
LINE
8
BLACK
6
CONTINUOUS
10
0.5735879527559055
20
0.2915824409448819
11
0.5742265748031496
21
0.2911557086614173
0
LINE
8
BLACK
6
CONTINUOUS
10
0.5742265748031496
20
0.2911557086614173
11
0.5746533070866141
21
0.2905170866141732
0
LINE
8
BLACK
6
CONTINUOUS
10
0.5746533070866141
20
0.2905170866141732
11
0.5748031496062992
21
0.2897637795275591
0
LINE
8
BLACK
6
CONTINUOUS
10
0.5748031496062992
20
0.2897637795275591
11
0.5748031496062992
21
0.2503937007874016
0
LINE
8
BLACK
6
CONTINUOUS
10
0.5748031496062992
20
0.2503937007874016
11
0.5746533070866141
21
0.2496403937007874
0
LINE
8
BLACK
6
CONTINUOUS
10
0.5746533070866141
20
0.2496403937007874
11
0.5742265748031496
21
0.2490017716535433
0
LINE
8
BLACK
6
CONTINUOUS
10
0.5742265748031496
20
0.2490017716535433
11
0.5735879527559055
21
0.2485750393700787
0
LINE
8
BLACK
6
CONTINUOUS
10
0.5735879527559055
20
0.2485750393700787
11
0.5728346456692913
21
0.2484251968503937
0
LINE
8
BLACK
6
CONTINUOUS
10
0.5728346456692913
20
0.2484251968503937
11
0.5728346456692913
21
0.2425196850393701
0
LINE
8
BLACK
6
CONTINUOUS
10
0.5728346456692913
20
0.2425196850393701
11
0.5742265748031496
21
0.2419431102362205
0
LINE
8
BLACK
6
CONTINUOUS
10
0.5742265748031496
20
0.2419431102362205
11
0.5748031496062992
21
0.2405511811023622
0
LINE
8
BLACK
6
CONTINUOUS
10
0.5748031496062992
20
0.2405511811023622
11
0.5748031496062992
21
0.2188976377952756
0
LINE
8
BLACK
6
CONTINUOUS
10
0.5748031496062992
20
0.2188976377952756
11
0.5746347244094488
21
0.218491062992126
0
LINE
8
BLACK
6
CONTINUOUS
10
0.5746347244094488
20
0.218491062992126
11
0.5746347244094488
21
0.2163282283464567
0
LINE
8
BLACK
6
CONTINUOUS
10
0.5746347244094488
20
0.2163282283464567
11
0.5745676377952755
21
0.2158187401574803
0
LINE
8
BLACK
6
CONTINUOUS
10
0.5745676377952755
20
0.2158187401574803
11
0.5732376377952756
21
0.210855
0
LINE
8
BLACK
6
CONTINUOUS
10
0.5732376377952756
20
0.210855
11
0.5730409842519685
21
0.2103802362204724
0
LINE
8
BLACK
6
CONTINUOUS
10
0.5730409842519685
20
0.2103802362204724
11
0.5704715748031496
21
0.2059298818897638
0
LINE
8
BLACK
6
CONTINUOUS
10
0.5704715748031496
20
0.2059298818897638
11
0.5701587401574802
21
0.2055222047244094
0
LINE
8
BLACK
6
CONTINUOUS
10
0.5701587401574802
20
0.2055222047244094
11
0.5665250393700787
21
0.2018885039370079
0
LINE
8
BLACK
6
CONTINUOUS
10
0.5665250393700787
20
0.2018885039370079
11
0.5661173622047244
21
0.2015756692913386
0
LINE
8
BLACK
6
CONTINUOUS
10
0.5661173622047244
20
0.2015756692913386
11
0.5616670078740157
21
0.1990062598425197
0
LINE
8
BLACK
6
CONTINUOUS
10
0.5616670078740157
20
0.1990062598425197
11
0.5611922440944882
21
0.1988096062992126
0
LINE
8
BLACK
6
CONTINUOUS
10
0.5611922440944882
20
0.1988096062992126
11
0.5562285039370078
21
0.1974796062992126
0
LINE
8
BLACK
6
CONTINUOUS
10
0.5562285039370078
20
0.1974796062992126
11
0.5557190157480315
21
0.1974125196850394
0
LINE
8
BLACK
6
CONTINUOUS
10
0.5557190157480315
20
0.1974125196850394
11
0.5535562204724409
21
0.1974125196850394
0
LINE
8
BLACK
6
CONTINUOUS
10
0.5535562204724409
20
0.1974125196850394
11
0.5531496062992126
21
0.197244094488189
0
LINE
8
BLACK
6
CONTINUOUS
10
0.5531496062992126
20
0.197244094488189
11
0.5334645669291338
21
0.197244094488189
0
LINE
8
BLACK
6
CONTINUOUS
10
0.5334645669291338
20
0.197244094488189
11
0.5330579527559055
21
0.1974125196850394
0
LINE
8
BLACK
6
CONTINUOUS
10
0.5330579527559055
20
0.1974125196850394
11
0.5308951574803149
21
0.1974125196850394
0
LINE
8
BLACK
6
CONTINUOUS
10
0.5308951574803149
20
0.1974125196850394
11
0.5303856692913386
21
0.1974796062992126
0
LINE
8
BLACK
6
CONTINUOUS
10
0.5303856692913386
20
0.1974796062992126
11
0.5254219291338582
21
0.1988096062992126
0
LINE
8
BLACK
6
CONTINUOUS
10
0.5254219291338582
20
0.1988096062992126
11
0.5249471653543307
21
0.1990062598425197
0
LINE
8
BLACK
6
CONTINUOUS
10
0.5249471653543307
20
0.1990062598425197
11
0.520496811023622
21
0.2015756692913386
0
LINE
8
BLACK
6
CONTINUOUS
10
0.520496811023622
20
0.2015756692913386
11
0.5200891338582677
21
0.2018885039370079
0
LINE
8
BLACK
6
CONTINUOUS
10
0.5200891338582677
20
0.2018885039370079
11
0.5164554330708662
21
0.2055222047244094
0
LINE
8
BLACK
6
CONTINUOUS
10
0.5164554330708662
20
0.2055222047244094
11
0.5161425984251968
21
0.2059298818897638
0
LINE
8
BLACK
6
CONTINUOUS
10
0.5161425984251968
20
0.2059298818897638
11
0.5135731889763779
21
0.2103802362204724
0
LINE
8
BLACK
6
CONTINUOUS
10
0.5135731889763779
20
0.2103802362204724
11
0.5133765354330708
21
0.210855
0
LINE
8
BLACK
6
CONTINUOUS
10
0.5133765354330708
20
0.210855
11
0.5120465354330709
21
0.2158187401574803
0
LINE
8
BLACK
6
CONTINUOUS
10
0.5120465354330709
20
0.2158187401574803
11
0.5119794488188977
21
0.2163282283464567
0
LINE
8
BLACK
6
CONTINUOUS
10
0.5119794488188977
20
0.2163282283464567
11
0.5119794488188977
21
0.218491062992126
0
LINE
8
BLACK
6
CONTINUOUS
10
0.5119794488188977
20
0.218491062992126
11
0.5118110236220472
21
0.2188976377952756
0
LINE
8
BLACK
6
CONTINUOUS
10
0.5118110236220472
20
0.2188976377952756
11
0.5118110236220472
21
0.2405511811023622
0
LINE
8
BLACK
6
CONTINUOUS
10
0.5118110236220472
20
0.2405511811023622
11
0.5123875984251969
21
0.2419431102362205
0
LINE
8
BLACK
6
CONTINUOUS
10
0.5123875984251969
20
0.2419431102362205
11
0.5137795275590551
21
0.2425196850393701
0
LINE
8
BLACK
6
CONTINUOUS
10
0.5137795275590551
20
0.2425196850393701
11
0.5137795275590551
21
0.2484251968503937
0
LINE
8
BLACK
6
CONTINUOUS
10
0.5137795275590551
20
0.2484251968503937
11
0.513026220472441
21
0.2485750393700787
0
LINE
8
BLACK
6
CONTINUOUS
10
0.513026220472441
20
0.2485750393700787
11
0.5123875984251969
21
0.2490017716535433
0
LINE
8
BLACK
6
CONTINUOUS
10
0.5123875984251969
20
0.2490017716535433
11
0.5119608661417323
21
0.2496403937007874
0
LINE
8
BLACK
6
CONTINUOUS
10
0.5119608661417323
20
0.2496403937007874
11
0.5118110236220472
21
0.2503937007874016
0
LINE
8
BLACK
6
CONTINUOUS
10
0.5118110236220472
20
0.2503937007874016
11
0.5118110236220472
21
0.2897637795275591
0
LINE
8
BLACK
6
CONTINUOUS
10
0.5118110236220472
20
0.2897637795275591
11
0.5119608661417323
21
0.2905170866141732
0
LINE
8
BLACK
6
CONTINUOUS
10
0.5119608661417323
20
0.2905170866141732
11
0.5123875984251969
21
0.2911557086614173
0
LINE
8
BLACK
6
CONTINUOUS
10
0.5123875984251969
20
0.2911557086614173
11
0.513026220472441
21
0.2915824409448819
0
LINE
8
BLACK
6
CONTINUOUS
10
0.513026220472441
20
0.2915824409448819
11
0.5137795275590551
21
0.2917322834645669
0
LINE
8
BLACK
6
CONTINUOUS
10
0.5137795275590551
20
0.2917322834645669
11
0.5137795275590551
21
0.2976377952755905
0
LINE
8
BLACK
6
CONTINUOUS
10
0.5137795275590551
20
0.2976377952755905
11
0.5123875984251969
21
0.2982143700787401
0
LINE
8
BLACK
6
CONTINUOUS
10
0.5123875984251969
20
0.2982143700787401
11
0.5118110236220472
21
0.2996062992125984
0
LINE
8
BLACK
6
CONTINUOUS
10
0.5118110236220472
20
0.2996062992125984
11
0.5118110236220472
21
0.321259842519685
0
LINE
8
BLACK
6
CONTINUOUS
10
0.5118110236220472
20
0.321259842519685
11
0.5119794488188977
21
0.3216664566929134
0
LINE
8
BLACK
6
CONTINUOUS
10
0.5119794488188977
20
0.3216664566929134
11
0.5119794488188977
21
0.3238292519685039
0
LINE
8
BLACK
6
CONTINUOUS
10
0.5119794488188977
20
0.3238292519685039
11
0.5120465354330709
21
0.3243387401574803
0
LINE
8
BLACK
6
CONTINUOUS
10
0.5120465354330709
20
0.3243387401574803
11
0.5133765354330708
21
0.3293024803149606
0
LINE
8
BLACK
6
CONTINUOUS
10
0.5133765354330708
20
0.3293024803149606
11
0.5135731889763779
21
0.3297772440944882
0
LINE
8
BLACK
6
CONTINUOUS
10
0.5135731889763779
20
0.3297772440944882
11
0.5161425984251968
21
0.3342275984251968
0
LINE
8
BLACK
6
CONTINUOUS
10
0.5161425984251968
20
0.3342275984251968
11
0.5164554330708662
21
0.3346352755905512
0
LINE
8
BLACK
6
CONTINUOUS
10
0.5164554330708662
20
0.3346352755905512
11
0.5200891338582677
21
0.3382689763779527
0
LINE
8
BLACK
6
CONTINUOUS
10
0.5200891338582677
20
0.3382689763779527
11
0.520496811023622
21
0.3385818110236221
0
LINE
8
BLACK
6
CONTINUOUS
10
0.520496811023622
20
0.3385818110236221
11
0.5249471653543307
21
0.341151220472441
0
LINE
8
BLACK
6
CONTINUOUS
10
0.5249471653543307
20
0.341151220472441
11
0.5254219291338582
21
0.341347874015748
0
LINE
8
BLACK
6
CONTINUOUS
10
0.5254219291338582
20
0.341347874015748
11
0.5303856692913386
21
0.342677874015748
0
LINE
8
BLACK
6
CONTINUOUS
10
0.5303856692913386
20
0.342677874015748
11
0.5308951574803149
21
0.3427449606299213
0
LINE
8
BLACK
6
CONTINUOUS
10
0.5308951574803149
20
0.3427449606299213
11
0.5330579527559055
21
0.3427449606299213
0
LINE
8
BLACK
6
CONTINUOUS
10
0.5330579527559055
20
0.3427449606299213
11
0.5334645669291338
21
0.3429133858267717
0
LINE
8
BLACK
6
CONTINUOUS
10
0.5334645669291338
20
0.3429133858267717
11
0.5531496062992126
21
0.3429133858267717
0
LINE
8
BLACK
6
CONTINUOUS
10
0.5531496062992126
20
0.3429133858267717
11
0.5535562204724409
21
0.3427449606299213
0
LINE
8
BLACK
6
CONTINUOUS
10
0.2205329527559055
20
0.2346368503937008
11
0.2230874409448819
21
0.2329299606299212
0
LINE
8
BLACK
6
CONTINUOUS
10
0.2230874409448819
20
0.2329299606299212
11
0.2247943307086614
21
0.2303754724409449
0
LINE
8
BLACK
6
CONTINUOUS
10
0.2247943307086614
20
0.2303754724409449
11
0.2253937007874016
21
0.2273622047244094
0
LINE
8
BLACK
6
CONTINUOUS
10
0.2253937007874016
20
0.2273622047244094
11
0.2253937007874016
21
0.2155511811023622
0
LINE
8
BLACK
6
CONTINUOUS
10
0.2253937007874016
20
0.2155511811023622
11
0.2247943307086614
21
0.2125379133858268
0
LINE
8
BLACK
6
CONTINUOUS
10
0.2247943307086614
20
0.2125379133858268
11
0.2230874409448819
21
0.2099834251968504
0
LINE
8
BLACK
6
CONTINUOUS
10
0.2230874409448819
20
0.2099834251968504
11
0.2205329527559055
21
0.2082765354330709
0
LINE
8
BLACK
6
CONTINUOUS
10
0.2205329527559055
20
0.2082765354330709
11
0.2175196850393701
21
0.2076771653543307
0
LINE
8
BLACK
6
CONTINUOUS
10
0.2175196850393701
20
0.2076771653543307
11
0.1624015748031496
21
0.2076771653543307
0
LINE
8
BLACK
6
CONTINUOUS
10
0.1624015748031496
20
0.2076771653543307
11
0.1593883070866142
21
0.2082765354330709
0
LINE
8
BLACK
6
CONTINUOUS
10
0.1593883070866142
20
0.2082765354330709
11
0.1568338188976378
21
0.2099834251968504
0
LINE
8
BLACK
6
CONTINUOUS
10
0.1568338188976378
20
0.2099834251968504
11
0.1551269291338583
21
0.2125379133858268
0
LINE
8
BLACK
6
CONTINUOUS
10
0.1551269291338583
20
0.2125379133858268
11
0.1545275590551181
21
0.2155511811023622
0
LINE
8
BLACK
6
CONTINUOUS
10
0.1545275590551181
20
0.2155511811023622
11
0.1545275590551181
21
0.2273622047244094
0
LINE
8
BLACK
6
CONTINUOUS
10
0.1545275590551181
20
0.2273622047244094
11
0.1551269291338583
21
0.2303754724409449
0
LINE
8
BLACK
6
CONTINUOUS
10
0.1551269291338583
20
0.2303754724409449
11
0.1568338188976378
21
0.2329299606299212
0
LINE
8
BLACK
6
CONTINUOUS
10
0.1568338188976378
20
0.2329299606299212
11
0.1593883070866142
21
0.2346368503937008
0
LINE
8
BLACK
6
CONTINUOUS
10
0.1593883070866142
20
0.2346368503937008
11
0.1624015748031496
21
0.2352362204724409
0
LINE
8
BLACK
6
CONTINUOUS
10
0.1624015748031496
20
0.2352362204724409
11
0.2175196850393701
21
0.2352362204724409
0
LINE
8
BLACK
6
CONTINUOUS
10
0.2175196850393701
20
0.2352362204724409
11
0.2205329527559055
21
0.2346368503937008
0
LINE
8
BLACK
6
CONTINUOUS
10
0.9714225984251968
20
0.2667792913385827
11
0.9720612204724409
21
0.2663525590551181
0
LINE
8
BLACK
6
CONTINUOUS
10
0.9720612204724409
20
0.2663525590551181
11
0.9724879527559055
21
0.265713937007874
0
LINE
8
BLACK
6
CONTINUOUS
10
0.9724879527559055
20
0.265713937007874
11
0.9726377952755906
21
0.2649606299212598
0
LINE
8
BLACK
6
CONTINUOUS
10
0.9726377952755906
20
0.2649606299212598
11
0.9726377952755906
21
0.2255905511811024
0
LINE
8
BLACK
6
CONTINUOUS
10
0.9726377952755906
20
0.2255905511811024
11
0.9724879527559055
21
0.2248372440944882
0
LINE
8
BLACK
6
CONTINUOUS
10
0.9724879527559055
20
0.2248372440944882
11
0.9720612204724409
21
0.2241986220472441
0
LINE
8
BLACK
6
CONTINUOUS
10
0.9720612204724409
20
0.2241986220472441
11
0.9714225984251968
21
0.2237718897637795
0
LINE
8
BLACK
6
CONTINUOUS
10
0.9714225984251968
20
0.2237718897637795
11
0.9706692913385827
21
0.2236220472440945
0
LINE
8
BLACK
6
CONTINUOUS
10
0.9706692913385827
20
0.2236220472440945
11
0.8718503937007874
21
0.2236220472440945
0
LINE
8
BLACK
6
CONTINUOUS
10
0.8718503937007874
20
0.2236220472440945
11
0.8710970866141732
21
0.2237718897637795
0
LINE
8
BLACK
6
CONTINUOUS
10
0.8710970866141732
20
0.2237718897637795
11
0.8704584645669291
21
0.2241986220472441
0
LINE
8
BLACK
6
CONTINUOUS
10
0.8704584645669291
20
0.2241986220472441
11
0.8700317322834645
21
0.2248372440944882
0
LINE
8
BLACK
6
CONTINUOUS
10
0.8700317322834645
20
0.2248372440944882
11
0.8698818897637796
21
0.2255905511811024
0
LINE
8
BLACK
6
CONTINUOUS
10
0.8698818897637796
20
0.2255905511811024
11
0.8698818897637796
21
0.2649606299212598
0
LINE
8
BLACK
6
CONTINUOUS
10
0.8698818897637796
20
0.2649606299212598
11
0.8700317322834645
21
0.265713937007874
0
LINE
8
BLACK
6
CONTINUOUS
10
0.8700317322834645
20
0.265713937007874
11
0.8704584645669291
21
0.2663525590551181
0
LINE
8
BLACK
6
CONTINUOUS
10
0.8704584645669291
20
0.2663525590551181
11
0.8710970866141732
21
0.2667792913385827
0
LINE
8
BLACK
6
CONTINUOUS
10
0.8710970866141732
20
0.2667792913385827
11
0.8718503937007874
21
0.2669291338582677
0
LINE
8
BLACK
6
CONTINUOUS
10
0.8718503937007874
20
0.2669291338582677
11
0.9706692913385827
21
0.2669291338582677
0
LINE
8
BLACK
6
CONTINUOUS
10
0.9706692913385827
20
0.2669291338582677
11
0.9714225984251968
21
0.2667792913385827
0
LINE
8
BLACK
6
CONTINUOUS
10
0.4511940157480315
20
0.3427449606299213
11
0.453356811023622
21
0.3427449606299213
0
LINE
8
BLACK
6
CONTINUOUS
10
0.453356811023622
20
0.3427449606299213
11
0.4538662992125984
21
0.342677874015748
0
LINE
8
BLACK
6
CONTINUOUS
10
0.4538662992125984
20
0.342677874015748
11
0.4588300393700787
21
0.341347874015748
0
LINE
8
BLACK
6
CONTINUOUS
10
0.4588300393700787
20
0.341347874015748
11
0.4593048031496063
21
0.341151220472441
0
LINE
8
BLACK
6
CONTINUOUS
10
0.4593048031496063
20
0.341151220472441
11
0.4637551574803149
21
0.3385818110236221
0
LINE
8
BLACK
6
CONTINUOUS
10
0.4637551574803149
20
0.3385818110236221
11
0.4641628346456693
21
0.3382689763779527
0
LINE
8
BLACK
6
CONTINUOUS
10
0.4641628346456693
20
0.3382689763779527
11
0.4677965354330709
21
0.3346352755905512
0
LINE
8
BLACK
6
CONTINUOUS
10
0.4677965354330709
20
0.3346352755905512
11
0.4681093700787402
21
0.3342275984251968
0
LINE
8
BLACK
6
CONTINUOUS
10
0.4681093700787402
20
0.3342275984251968
11
0.470678779527559
21
0.3297772440944882
0
LINE
8
BLACK
6
CONTINUOUS
10
0.470678779527559
20
0.3297772440944882
11
0.4708754330708662
21
0.3293024803149606
0
LINE
8
BLACK
6
CONTINUOUS
10
0.4708754330708662
20
0.3293024803149606
11
0.4722054330708662
21
0.3243387401574803
0
LINE
8
BLACK
6
CONTINUOUS
10
0.4722054330708662
20
0.3243387401574803
11
0.4722725196850394
21
0.3238292519685039
0
LINE
8
BLACK
6
CONTINUOUS
10
0.4722725196850394
20
0.3238292519685039
11
0.4722725196850394
21
0.3216664566929134
0
LINE
8
BLACK
6
CONTINUOUS
10
0.4722725196850394
20
0.3216664566929134
11
0.4724409448818898
21
0.321259842519685
0
LINE
8
BLACK
6
CONTINUOUS
10
0.4724409448818898
20
0.321259842519685
11
0.4724409448818898
21
0.3015748031496063
0
LINE
8
BLACK
6
CONTINUOUS
10
0.4724409448818898
20
0.3015748031496063
11
0.4718643700787402
21
0.300182874015748
0
LINE
8
BLACK
6
CONTINUOUS
10
0.4718643700787402
20
0.300182874015748
11
0.4704724409448819
21
0.2996062992125984
0
LINE
8
BLACK
6
CONTINUOUS
10
0.4704724409448819
20
0.2996062992125984
11
0.4704724409448819
21
0.2917322834645669
0
LINE
8
BLACK
6
CONTINUOUS
10
0.4704724409448819
20
0.2917322834645669
11
0.4718643700787402
21
0.2911557086614173
0
LINE
8
BLACK
6
CONTINUOUS
10
0.4718643700787402
20
0.2911557086614173
11
0.4724409448818898
21
0.2897637795275591
0
LINE
8
BLACK
6
CONTINUOUS
10
0.4724409448818898
20
0.2897637795275591
11
0.4724409448818898
21
0.2700787401574803
0
LINE
8
BLACK
6
CONTINUOUS
10
0.4724409448818898
20
0.2700787401574803
11
0.4722725196850394
21
0.2696721653543307
0
LINE
8
BLACK
6
CONTINUOUS
10
0.4722725196850394
20
0.2696721653543307
11
0.4722725196850394
21
0.2675093307086614
0
LINE
8
BLACK
6
CONTINUOUS
10
0.4722725196850394
20
0.2675093307086614
11
0.4722054330708662
21
0.2669998425196851
0
LINE
8
BLACK
6
CONTINUOUS
10
0.4722054330708662
20
0.2669998425196851
11
0.4708754330708662
21
0.2620361023622047
0
LINE
8
BLACK
6
CONTINUOUS
10
0.4708754330708662
20
0.2620361023622047
11
0.470678779527559
21
0.2615613385826772
0
LINE
8
BLACK
6
CONTINUOUS
10
0.470678779527559
20
0.2615613385826772
11
0.4681093700787402
21
0.2571109842519685
0
LINE
8
BLACK
6
CONTINUOUS
10
0.4681093700787402
20
0.2571109842519685
11
0.4677965354330709
21
0.2567033070866142
0
LINE
8
BLACK
6
CONTINUOUS
10
0.4677965354330709
20
0.2567033070866142
11
0.4641628346456693
21
0.2530696062992126
0
LINE
8
BLACK
6
CONTINUOUS
10
0.4641628346456693
20
0.2530696062992126
11
0.4637551574803149
21
0.2527567716535433
0
LINE
8
BLACK
6
CONTINUOUS
10
0.4637551574803149
20
0.2527567716535433
11
0.4593048031496063
21
0.2501873622047244
0
LINE
8
BLACK
6
CONTINUOUS
10
0.4593048031496063
20
0.2501873622047244
11
0.4588300393700787
21
0.2499907086614173
0
LINE
8
BLACK
6
CONTINUOUS
10
0.4588300393700787
20
0.2499907086614173
11
0.4538662992125984
21
0.2486607086614173
0
LINE
8
BLACK
6
CONTINUOUS
10
0.4538662992125984
20
0.2486607086614173
11
0.453356811023622
21
0.2485936220472441
0
LINE
8
BLACK
6
CONTINUOUS
10
0.453356811023622
20
0.2485936220472441
11
0.4511940157480315
21
0.2485936220472441
0
LINE
8
BLACK
6
CONTINUOUS
10
0.4511940157480315
20
0.2485936220472441
11
0.4507874015748031
21
0.2484251968503937
0
LINE
8
BLACK
6
CONTINUOUS
10
0.4507874015748031
20
0.2484251968503937
11
0.4311023622047244
21
0.2484251968503937
0
LINE
8
BLACK
6
CONTINUOUS
10
0.4311023622047244
20
0.2484251968503937
11
0.4306957480314961
21
0.2485936220472441
0
LINE
8
BLACK
6
CONTINUOUS
10
0.4306957480314961
20
0.2485936220472441
11
0.4285329527559055
21
0.2485936220472441
0
LINE
8
BLACK
6
CONTINUOUS
10
0.4285329527559055
20
0.2485936220472441
11
0.4280234645669291
21
0.2486607086614173
0
LINE
8
BLACK
6
CONTINUOUS
10
0.4280234645669291
20
0.2486607086614173
11
0.4230597244094488
21
0.2499907086614173
0
LINE
8
BLACK
6
CONTINUOUS
10
0.4230597244094488
20
0.2499907086614173
11
0.4225849606299212
21
0.2501873622047244
0
LINE
8
BLACK
6
CONTINUOUS
10
0.4225849606299212
20
0.2501873622047244
11
0.4181346062992126
21
0.2527567716535433
0
LINE
8
BLACK
6
CONTINUOUS
10
0.4181346062992126
20
0.2527567716535433
11
0.4177269291338583
21
0.2530696062992126
0
LINE
8
BLACK
6
CONTINUOUS
10
0.4177269291338583
20
0.2530696062992126
11
0.4140932283464567
21
0.2567033070866142
0
LINE
8
BLACK
6
CONTINUOUS
10
0.4140932283464567
20
0.2567033070866142
11
0.4137803937007874
21
0.2571109842519685
0
LINE
8
BLACK
6
CONTINUOUS
10
0.4137803937007874
20
0.2571109842519685
11
0.4112109842519685
21
0.2615613385826772
0
LINE
8
BLACK
6
CONTINUOUS
10
0.4112109842519685
20
0.2615613385826772
11
0.4110143307086614
21
0.2620361023622047
0
LINE
8
BLACK
6
CONTINUOUS
10
0.4110143307086614
20
0.2620361023622047
11
0.4096843307086614
21
0.2669998425196851
0
LINE
8
BLACK
6
CONTINUOUS
10
0.4096843307086614
20
0.2669998425196851
11
0.4096172440944882
21
0.2675093307086614
0
LINE
8
BLACK
6
CONTINUOUS
10
0.4096172440944882
20
0.2675093307086614
11
0.4096172440944882
21
0.2696721653543307
0
LINE
8
BLACK
6
CONTINUOUS
10
0.4096172440944882
20
0.2696721653543307
11
0.4094488188976378
21
0.2700787401574803
0
LINE
8
BLACK
6
CONTINUOUS
10
0.4094488188976378
20
0.2700787401574803
11
0.4094488188976378
21
0.2897637795275591
0
LINE
8
BLACK
6
CONTINUOUS
10
0.4094488188976378
20
0.2897637795275591
11
0.4100253937007874
21
0.2911557086614173
0
LINE
8
BLACK
6
CONTINUOUS
10
0.4100253937007874
20
0.2911557086614173
11
0.4114173228346457
21
0.2917322834645669
0
LINE
8
BLACK
6
CONTINUOUS
10
0.4114173228346457
20
0.2917322834645669
11
0.4114173228346457
21
0.2996062992125984
0
LINE
8
BLACK
6
CONTINUOUS
10
0.4114173228346457
20
0.2996062992125984
11
0.4100253937007874
21
0.300182874015748
0
LINE
8
BLACK
6
CONTINUOUS
10
0.4100253937007874
20
0.300182874015748
11
0.4094488188976378
21
0.3015748031496063
0
LINE
8
BLACK
6
CONTINUOUS
10
0.4094488188976378
20
0.3015748031496063
11
0.4094488188976378
21
0.321259842519685
0
LINE
8
BLACK
6
CONTINUOUS
10
0.4094488188976378
20
0.321259842519685
11
0.4096172440944882
21
0.3216664566929134
0
LINE
8
BLACK
6
CONTINUOUS
10
0.4096172440944882
20
0.3216664566929134
11
0.4096172440944882
21
0.3238292519685039
0
LINE
8
BLACK
6
CONTINUOUS
10
0.4096172440944882
20
0.3238292519685039
11
0.4096843307086614
21
0.3243387401574803
0
LINE
8
BLACK
6
CONTINUOUS
10
0.4096843307086614
20
0.3243387401574803
11
0.4110143307086614
21
0.3293024803149606
0
LINE
8
BLACK
6
CONTINUOUS
10
0.4110143307086614
20
0.3293024803149606
11
0.4112109842519685
21
0.3297772440944882
0
LINE
8
BLACK
6
CONTINUOUS
10
0.4112109842519685
20
0.3297772440944882
11
0.4137803937007874
21
0.3342275984251968
0
LINE
8
BLACK
6
CONTINUOUS
10
0.4137803937007874
20
0.3342275984251968
11
0.4140932283464567
21
0.3346352755905512
0
LINE
8
BLACK
6
CONTINUOUS
10
0.4140932283464567
20
0.3346352755905512
11
0.4177269291338583
21
0.3382689763779527
0
LINE
8
BLACK
6
CONTINUOUS
10
0.4177269291338583
20
0.3382689763779527
11
0.4181346062992126
21
0.3385818110236221
0
LINE
8
BLACK
6
CONTINUOUS
10
0.4181346062992126
20
0.3385818110236221
11
0.4225849606299212
21
0.341151220472441
0
LINE
8
BLACK
6
CONTINUOUS
10
0.4225849606299212
20
0.341151220472441
11
0.4230597244094488
21
0.341347874015748
0
LINE
8
BLACK
6
CONTINUOUS
10
0.4230597244094488
20
0.341347874015748
11
0.4280234645669291
21
0.342677874015748
0
LINE
8
BLACK
6
CONTINUOUS
10
0.4280234645669291
20
0.342677874015748
11
0.4285329527559055
21
0.3427449606299213
0
LINE
8
BLACK
6
CONTINUOUS
10
0.4285329527559055
20
0.3427449606299213
11
0.4306957480314961
21
0.3427449606299213
0
LINE
8
BLACK
6
CONTINUOUS
10
0.4306957480314961
20
0.3427449606299213
11
0.4311023622047244
21
0.3429133858267717
0
LINE
8
BLACK
6
CONTINUOUS
10
0.4311023622047244
20
0.3429133858267717
11
0.4507874015748031
21
0.3429133858267717
0
LINE
8
BLACK
6
CONTINUOUS
10
0.4507874015748031
20
0.3429133858267717
11
0.4511940157480315
21
0.3427449606299213
0
LINE
8
BLACK
6
CONTINUOUS
10
0.2205329527559055
20
0.2838494488188976
11
0.2230874409448819
21
0.2821425590551181
0
LINE
8
BLACK
6
CONTINUOUS
10
0.2230874409448819
20
0.2821425590551181
11
0.2247943307086614
21
0.2795880708661417
0
LINE
8
BLACK
6
CONTINUOUS
10
0.2247943307086614
20
0.2795880708661417
11
0.2253937007874016
21
0.2765748031496063
0
LINE
8
BLACK
6
CONTINUOUS
10
0.2253937007874016
20
0.2765748031496063
11
0.2253937007874016
21
0.264763779527559
0
LINE
8
BLACK
6
CONTINUOUS
10
0.2253937007874016
20
0.264763779527559
11
0.2247943307086614
21
0.2617505118110236
0
LINE
8
BLACK
6
CONTINUOUS
10
0.2247943307086614
20
0.2617505118110236
11
0.2230874409448819
21
0.2591960236220472
0
LINE
8
BLACK
6
CONTINUOUS
10
0.2230874409448819
20
0.2591960236220472
11
0.2205329527559055
21
0.2574891338582677
0
LINE
8
BLACK
6
CONTINUOUS
10
0.2205329527559055
20
0.2574891338582677
11
0.2175196850393701
21
0.2568897637795275
0
LINE
8
BLACK
6
CONTINUOUS
10
0.2175196850393701
20
0.2568897637795275
11
0.1624015748031496
21
0.2568897637795275
0
LINE
8
BLACK
6
CONTINUOUS
10
0.1624015748031496
20
0.2568897637795275
11
0.1593883070866142
21
0.2574891338582677
0
LINE
8
BLACK
6
CONTINUOUS
10
0.1593883070866142
20
0.2574891338582677
11
0.1568338188976378
21
0.2591960236220472
0
LINE
8
BLACK
6
CONTINUOUS
10
0.1568338188976378
20
0.2591960236220472
11
0.1551269291338583
21
0.2617505118110236
0
LINE
8
BLACK
6
CONTINUOUS
10
0.1551269291338583
20
0.2617505118110236
11
0.1545275590551181
21
0.264763779527559
0
LINE
8
BLACK
6
CONTINUOUS
10
0.1545275590551181
20
0.264763779527559
11
0.1545275590551181
21
0.2765748031496063
0
LINE
8
BLACK
6
CONTINUOUS
10
0.1545275590551181
20
0.2765748031496063
11
0.1551269291338583
21
0.2795880708661417
0
LINE
8
BLACK
6
CONTINUOUS
10
0.1551269291338583
20
0.2795880708661417
11
0.1568338188976378
21
0.2821425590551181
0
LINE
8
BLACK
6
CONTINUOUS
10
0.1568338188976378
20
0.2821425590551181
11
0.1593883070866142
21
0.2838494488188976
0
LINE
8
BLACK
6
CONTINUOUS
10
0.1593883070866142
20
0.2838494488188976
11
0.1624015748031496
21
0.2844488188976378
0
LINE
8
BLACK
6
CONTINUOUS
10
0.1624015748031496
20
0.2844488188976378
11
0.2175196850393701
21
0.2844488188976378
0
LINE
8
BLACK
6
CONTINUOUS
10
0.2175196850393701
20
0.2844488188976378
11
0.2205329527559055
21
0.2838494488188976
0
LINE
8
BLACK
6
CONTINUOUS
10
0.2205329527559055
20
0.3330620472440945
11
0.2230874409448819
21
0.331355157480315
0
LINE
8
BLACK
6
CONTINUOUS
10
0.2230874409448819
20
0.331355157480315
11
0.2247943307086614
21
0.3288006692913386
0
LINE
8
BLACK
6
CONTINUOUS
10
0.2247943307086614
20
0.3288006692913386
11
0.2253937007874016
21
0.3257874015748031
0
LINE
8
BLACK
6
CONTINUOUS
10
0.2253937007874016
20
0.3257874015748031
11
0.2253937007874016
21
0.3139763779527559
0
LINE
8
BLACK
6
CONTINUOUS
10
0.2253937007874016
20
0.3139763779527559
11
0.2247943307086614
21
0.3109631102362205
0
LINE
8
BLACK
6
CONTINUOUS
10
0.2247943307086614
20
0.3109631102362205
11
0.2230874409448819
21
0.3084086220472441
0
LINE
8
BLACK
6
CONTINUOUS
10
0.2230874409448819
20
0.3084086220472441
11
0.2205329527559055
21
0.3067017322834645
0
LINE
8
BLACK
6
CONTINUOUS
10
0.2205329527559055
20
0.3067017322834645
11
0.2175196850393701
21
0.3061023622047244
0
LINE
8
BLACK
6
CONTINUOUS
10
0.2175196850393701
20
0.3061023622047244
11
0.1624015748031496
21
0.3061023622047244
0
LINE
8
BLACK
6
CONTINUOUS
10
0.1624015748031496
20
0.3061023622047244
11
0.1593883070866142
21
0.3067017322834645
0
LINE
8
BLACK
6
CONTINUOUS
10
0.1593883070866142
20
0.3067017322834645
11
0.1568338188976378
21
0.3084086220472441
0
LINE
8
BLACK
6
CONTINUOUS
10
0.1568338188976378
20
0.3084086220472441
11
0.1551269291338583
21
0.3109631102362205
0
LINE
8
BLACK
6
CONTINUOUS
10
0.1551269291338583
20
0.3109631102362205
11
0.1545275590551181
21
0.3139763779527559
0
LINE
8
BLACK
6
CONTINUOUS
10
0.1545275590551181
20
0.3139763779527559
11
0.1545275590551181
21
0.3257874015748031
0
LINE
8
BLACK
6
CONTINUOUS
10
0.1545275590551181
20
0.3257874015748031
11
0.1551269291338583
21
0.3288006692913386
0
LINE
8
BLACK
6
CONTINUOUS
10
0.1551269291338583
20
0.3288006692913386
11
0.1568338188976378
21
0.331355157480315
0
LINE
8
BLACK
6
CONTINUOUS
10
0.1568338188976378
20
0.331355157480315
11
0.1593883070866142
21
0.3330620472440945
0
LINE
8
BLACK
6
CONTINUOUS
10
0.1593883070866142
20
0.3330620472440945
11
0.1624015748031496
21
0.3336614173228347
0
LINE
8
BLACK
6
CONTINUOUS
10
0.1624015748031496
20
0.3336614173228347
11
0.2175196850393701
21
0.3336614173228347
0
LINE
8
BLACK
6
CONTINUOUS
10
0.2175196850393701
20
0.3336614173228347
11
0.2205329527559055
21
0.3330620472440945
0
LINE
8
BLACK
6
CONTINUOUS
10
0.9714225984251968
20
0.3667792913385827
11
0.9720612204724409
21
0.3663525590551181
0
LINE
8
BLACK
6
CONTINUOUS
10
0.9720612204724409
20
0.3663525590551181
11
0.9724879527559055
21
0.365713937007874
0
LINE
8
BLACK
6
CONTINUOUS
10
0.9724879527559055
20
0.365713937007874
11
0.9726377952755906
21
0.3649606299212598
0
LINE
8
BLACK
6
CONTINUOUS
10
0.9726377952755906
20
0.3649606299212598
11
0.9726377952755906
21
0.3255905511811024
0
LINE
8
BLACK
6
CONTINUOUS
10
0.9726377952755906
20
0.3255905511811024
11
0.9724879527559055
21
0.3248372440944882
0
LINE
8
BLACK
6
CONTINUOUS
10
0.9724879527559055
20
0.3248372440944882
11
0.9720612204724409
21
0.3241986220472441
0
LINE
8
BLACK
6
CONTINUOUS
10
0.9720612204724409
20
0.3241986220472441
11
0.9714225984251968
21
0.3237718897637795
0
LINE
8
BLACK
6
CONTINUOUS
10
0.9714225984251968
20
0.3237718897637795
11
0.9706692913385827
21
0.3236220472440945
0
LINE
8
BLACK
6
CONTINUOUS
10
0.9706692913385827
20
0.3236220472440945
11
0.8718503937007874
21
0.3236220472440945
0
LINE
8
BLACK
6
CONTINUOUS
10
0.8718503937007874
20
0.3236220472440945
11
0.8710970866141732
21
0.3237718897637795
0
LINE
8
BLACK
6
CONTINUOUS
10
0.8710970866141732
20
0.3237718897637795
11
0.8704584645669291
21
0.3241986220472441
0
LINE
8
BLACK
6
CONTINUOUS
10
0.8704584645669291
20
0.3241986220472441
11
0.8700317322834645
21
0.3248372440944882
0
LINE
8
BLACK
6
CONTINUOUS
10
0.8700317322834645
20
0.3248372440944882
11
0.8698818897637796
21
0.3255905511811024
0
LINE
8
BLACK
6
CONTINUOUS
10
0.8698818897637796
20
0.3255905511811024
11
0.8698818897637796
21
0.3649606299212598
0
LINE
8
BLACK
6
CONTINUOUS
10
0.8698818897637796
20
0.3649606299212598
11
0.8700317322834645
21
0.365713937007874
0
LINE
8
BLACK
6
CONTINUOUS
10
0.8700317322834645
20
0.365713937007874
11
0.8704584645669291
21
0.3663525590551181
0
LINE
8
BLACK
6
CONTINUOUS
10
0.8704584645669291
20
0.3663525590551181
11
0.8710970866141732
21
0.3667792913385827
0
LINE
8
BLACK
6
CONTINUOUS
10
0.8710970866141732
20
0.3667792913385827
11
0.8718503937007874
21
0.3669291338582677
0
LINE
8
BLACK
6
CONTINUOUS
10
0.8718503937007874
20
0.3669291338582677
11
0.9706692913385827
21
0.3669291338582677
0
LINE
8
BLACK
6
CONTINUOUS
10
0.9706692913385827
20
0.3669291338582677
11
0.9714225984251968
21
0.3667792913385827
0
LINE
8
BLACK
6
CONTINUOUS
10
0.2205329527559055
20
0.3822746456692913
11
0.2230874409448819
21
0.3805677559055118
0
LINE
8
BLACK
6
CONTINUOUS
10
0.2230874409448819
20
0.3805677559055118
11
0.2247943307086614
21
0.3780132677165354
0
LINE
8
BLACK
6
CONTINUOUS
10
0.2247943307086614
20
0.3780132677165354
11
0.2253937007874016
21
0.375
0
LINE
8
BLACK
6
CONTINUOUS
10
0.2253937007874016
20
0.375
11
0.2253937007874016
21
0.3631889763779527
0
LINE
8
BLACK
6
CONTINUOUS
10
0.2253937007874016
20
0.3631889763779527
11
0.2247943307086614
21
0.3601757086614173
0
LINE
8
BLACK
6
CONTINUOUS
10
0.2247943307086614
20
0.3601757086614173
11
0.2230874409448819
21
0.3576212204724409
0
LINE
8
BLACK
6
CONTINUOUS
10
0.2230874409448819
20
0.3576212204724409
11
0.2205329527559055
21
0.3559143307086614
0
LINE
8
BLACK
6
CONTINUOUS
10
0.2205329527559055
20
0.3559143307086614
11
0.2175196850393701
21
0.3553149606299212
0
LINE
8
BLACK
6
CONTINUOUS
10
0.2175196850393701
20
0.3553149606299212
11
0.1624015748031496
21
0.3553149606299212
0
LINE
8
BLACK
6
CONTINUOUS
10
0.1624015748031496
20
0.3553149606299212
11
0.1593883070866142
21
0.3559143307086614
0
LINE
8
BLACK
6
CONTINUOUS
10
0.1593883070866142
20
0.3559143307086614
11
0.1568338188976378
21
0.3576212204724409
0
LINE
8
BLACK
6
CONTINUOUS
10
0.1568338188976378
20
0.3576212204724409
11
0.1551269291338583
21
0.3601757086614173
0
LINE
8
BLACK
6
CONTINUOUS
10
0.1551269291338583
20
0.3601757086614173
11
0.1545275590551181
21
0.3631889763779527
0
LINE
8
BLACK
6
CONTINUOUS
10
0.1545275590551181
20
0.3631889763779527
11
0.1545275590551181
21
0.375
0
LINE
8
BLACK
6
CONTINUOUS
10
0.1545275590551181
20
0.375
11
0.1551269291338583
21
0.3780132677165354
0
LINE
8
BLACK
6
CONTINUOUS
10
0.1551269291338583
20
0.3780132677165354
11
0.1568338188976378
21
0.3805677559055118
0
LINE
8
BLACK
6
CONTINUOUS
10
0.1568338188976378
20
0.3805677559055118
11
0.1593883070866142
21
0.3822746456692913
0
LINE
8
BLACK
6
CONTINUOUS
10
0.1593883070866142
20
0.3822746456692913
11
0.1624015748031496
21
0.3828740157480315
0
LINE
8
BLACK
6
CONTINUOUS
10
0.1624015748031496
20
0.3828740157480315
11
0.2175196850393701
21
0.3828740157480315
0
LINE
8
BLACK
6
CONTINUOUS
10
0.2175196850393701
20
0.3828740157480315
11
0.2205329527559055
21
0.3822746456692913
0
LINE
8
BLACK
6
CONTINUOUS
10
0.1099875984251968
20
0.463268937007874
11
0.1139583070866142
21
0.4615157086614173
0
LINE
8
BLACK
6
CONTINUOUS
10
0.1139583070866142
20
0.4615157086614173
11
0.1170275196850394
21
0.4584464960629921
0
LINE
8
BLACK
6
CONTINUOUS
10
0.1170275196850394
20
0.4584464960629921
11
0.1187807480314961
21
0.4544757874015748
0
LINE
8
BLACK
6
CONTINUOUS
10
0.1187807480314961
20
0.4544757874015748
11
0.1190944881889764
21
0.4517716535433071
0
LINE
8
BLACK
6
CONTINUOUS
10
0.1190944881889764
20
0.4517716535433071
11
0.1190944881889764
21
0.4320866141732284
0
LINE
8
BLACK
6
CONTINUOUS
10
0.1190944881889764
20
0.4320866141732284
11
0.1187807480314961
21
0.4293824803149606
0
LINE
8
BLACK
6
CONTINUOUS
10
0.1187807480314961
20
0.4293824803149606
11
0.1170275196850394
21
0.4254117716535433
0
LINE
8
BLACK
6
CONTINUOUS
10
0.1170275196850394
20
0.4254117716535433
11
0.1139583070866142
21
0.4223425590551181
0
LINE
8
BLACK
6
CONTINUOUS
10
0.1139583070866142
20
0.4223425590551181
11
0.1099875984251968
21
0.4205893307086614
0
LINE
8
BLACK
6
CONTINUOUS
10
0.1099875984251968
20
0.4205893307086614
11
0.1072834645669291
21
0.4202755905511811
0
LINE
8
BLACK
6
CONTINUOUS
10
0.1072834645669291
20
0.4202755905511811
11
0.0206692913385827
21
0.4202755905511811
0
LINE
8
BLACK
6
CONTINUOUS
10
0.0206692913385827
20
0.4202755905511811
11
0.017965157480315
21
0.4205893307086614
0
LINE
8
BLACK
6
CONTINUOUS
10
0.017965157480315
20
0.4205893307086614
11
0.0139944488188976
21
0.4223425590551181
0
LINE
8
BLACK
6
CONTINUOUS
10
0.0139944488188976
20
0.4223425590551181
11
0.0109252362204724
21
0.4254117716535433
0
LINE
8
BLACK
6
CONTINUOUS
10
0.0109252362204724
20
0.4254117716535433
11
0.0091720078740157
21
0.4293824803149606
0
LINE
8
BLACK
6
CONTINUOUS
10
0.0091720078740157
20
0.4293824803149606
11
0.0088582677165354
21
0.4320866141732284
0
LINE
8
BLACK
6
CONTINUOUS
10
0.0088582677165354
20
0.4320866141732284
11
0.0088582677165354
21
0.4517716535433071
0
LINE
8
BLACK
6
CONTINUOUS
10
0.0088582677165354
20
0.4517716535433071
11
0.0091720078740157
21
0.4544757874015748
0
LINE
8
BLACK
6
CONTINUOUS
10
0.0091720078740157
20
0.4544757874015748
11
0.0109252362204724
21
0.4584464960629921
0
LINE
8
BLACK
6
CONTINUOUS
10
0.0109252362204724
20
0.4584464960629921
11
0.0139944488188976
21
0.4615157086614173
0
LINE
8
BLACK
6
CONTINUOUS
10
0.0139944488188976
20
0.4615157086614173
11
0.017965157480315
21
0.463268937007874
0
LINE
8
BLACK
6
CONTINUOUS
10
0.017965157480315
20
0.463268937007874
11
0.0206692913385827
21
0.4635826771653543
0
LINE
8
BLACK
6
CONTINUOUS
10
0.0206692913385827
20
0.4635826771653543
11
0.1072834645669291
21
0.4635826771653543
0
LINE
8
BLACK
6
CONTINUOUS
10
0.1072834645669291
20
0.4635826771653543
11
0.1099875984251968
21
0.463268937007874
0
LINE
8
BLACK
6
CONTINUOUS
10
0.9714225984251968
20
0.4667792913385826
11
0.9720612204724409
21
0.4663525590551181
0
LINE
8
BLACK
6
CONTINUOUS
10
0.9720612204724409
20
0.4663525590551181
11
0.9724879527559055
21
0.465713937007874
0
LINE
8
BLACK
6
CONTINUOUS
10
0.9724879527559055
20
0.465713937007874
11
0.9726377952755906
21
0.4649606299212598
0
LINE
8
BLACK
6
CONTINUOUS
10
0.9726377952755906
20
0.4649606299212598
11
0.9726377952755906
21
0.4255905511811023
0
LINE
8
BLACK
6
CONTINUOUS
10
0.9726377952755906
20
0.4255905511811023
11
0.9724879527559055
21
0.4248372440944882
0
LINE
8
BLACK
6
CONTINUOUS
10
0.9724879527559055
20
0.4248372440944882
11
0.9720612204724409
21
0.4241986220472441
0
LINE
8
BLACK
6
CONTINUOUS
10
0.9720612204724409
20
0.4241986220472441
11
0.9714225984251968
21
0.4237718897637795
0
LINE
8
BLACK
6
CONTINUOUS
10
0.9714225984251968
20
0.4237718897637795
11
0.9706692913385827
21
0.4236220472440945
0
LINE
8
BLACK
6
CONTINUOUS
10
0.9706692913385827
20
0.4236220472440945
11
0.8718503937007874
21
0.4236220472440945
0
LINE
8
BLACK
6
CONTINUOUS
10
0.8718503937007874
20
0.4236220472440945
11
0.8710970866141732
21
0.4237718897637795
0
LINE
8
BLACK
6
CONTINUOUS
10
0.8710970866141732
20
0.4237718897637795
11
0.8704584645669291
21
0.4241986220472441
0
LINE
8
BLACK
6
CONTINUOUS
10
0.8704584645669291
20
0.4241986220472441
11
0.8700317322834645
21
0.4248372440944882
0
LINE
8
BLACK
6
CONTINUOUS
10
0.8700317322834645
20
0.4248372440944882
11
0.8698818897637796
21
0.4255905511811023
0
LINE
8
BLACK
6
CONTINUOUS
10
0.8698818897637796
20
0.4255905511811023
11
0.8698818897637796
21
0.4649606299212598
0
LINE
8
BLACK
6
CONTINUOUS
10
0.8698818897637796
20
0.4649606299212598
11
0.8700317322834645
21
0.465713937007874
0
LINE
8
BLACK
6
CONTINUOUS
10
0.8700317322834645
20
0.465713937007874
11
0.8704584645669291
21
0.4663525590551181
0
LINE
8
BLACK
6
CONTINUOUS
10
0.8704584645669291
20
0.4663525590551181
11
0.8710970866141732
21
0.4667792913385826
0
LINE
8
BLACK
6
CONTINUOUS
10
0.8710970866141732
20
0.4667792913385826
11
0.8718503937007874
21
0.4669291338582677
0
LINE
8
BLACK
6
CONTINUOUS
10
0.8718503937007874
20
0.4669291338582677
11
0.9706692913385827
21
0.4669291338582677
0
LINE
8
BLACK
6
CONTINUOUS
10
0.9706692913385827
20
0.4669291338582677
11
0.9714225984251968
21
0.4667792913385826
  0
ENDSEC
  0
EOF
