  0
SECTION
  2
HEADER
  9
$ANGBASE
  50
0.0
  9
$ANGDIR
  70
1
  9
$MEASUREMENT
  70
0
  0
ENDSEC
  0
SECTION
  2
TABLES
  0
TABLE
  2
LTYPE
  70
4
  0
LTYPE
  5
40F
  2
CONTINUOUS
  70
0
  3
Solid line
  72
65
  73
0
  40
0.0
  0
LTYPE
  5
410
  2
DASHDOT
 70
0
  3
Dash Dot ____ _ ____ _
 72
65
 73
4
 40
2.0
 49
1.25
 49
-0.25
 49
0.25
 49
-0.25
  0
LTYPE
  5
411
  2
DASHED
 70
0
  3
Dashed __ __ __ __ __
 72
65
 73
2
 40
0.75
 49
0.5
 49
-0.25
  0
LTYPE
  5
43B
  2
DOTTED
 70
0
  3
Dotted .  .  .  .
 72
65
 73
2
 40
0.2
 49
0.0
 49
-0.2
  0
ENDTAB
  0
TABLE
  2
STYLE
  70
4
  0
STYLE
  2
KICAD
  70
0
  40
0
  41
1
  42
1
  50
0
  71
0
  3
isocp.shx
  0
STYLE
  2
KICADB
  70
0
  40
0
  41
1
  42
1
  50
0
  71
0
  3
isocp.shx
  0
STYLE
  2
KICADI
  70
0
  40
0
  41
1
  42
1
  50
15
  71
0
  3
isocp.shx
  0
STYLE
  2
KICADBI
  70
0
  40
0
  41
1
  42
1
  50
15
  71
0
  3
isocp.shx
  0
ENDTAB
  0
TABLE
  2
LAYER
  70
1
  0
LAYER
  2
BLACK
  70
0
  62
7
  6
CONTINUOUS
  0
ENDTAB
  0
ENDSEC
  0
SECTION
  2
ENTITIES
0
LINE
8
BLACK
6
CONTINUOUS
10
0.7486484645669291
20
0.1057468503937008
11
0.7518416141732284
21
0.1036132677165354
0
LINE
8
BLACK
6
CONTINUOUS
10
0.7518416141732284
20
0.1036132677165354
11
0.7539751968503937
21
0.1004201181102362
0
LINE
8
BLACK
6
CONTINUOUS
10
0.7539751968503937
20
0.1004201181102362
11
0.7547244094488189
21
0.0966535433070866
0
LINE
8
BLACK
6
CONTINUOUS
10
0.7547244094488189
20
0.0966535433070866
11
0.7547244094488189
21
0.0769685039370079
0
LINE
8
BLACK
6
CONTINUOUS
10
0.7547244094488189
20
0.0769685039370079
11
0.7539751968503937
21
0.0732019291338583
0
LINE
8
BLACK
6
CONTINUOUS
10
0.7539751968503937
20
0.0732019291338583
11
0.7518416141732284
21
0.0700087795275591
0
LINE
8
BLACK
6
CONTINUOUS
10
0.7518416141732284
20
0.0700087795275591
11
0.7486484645669291
21
0.0678751968503937
0
LINE
8
BLACK
6
CONTINUOUS
10
0.7486484645669291
20
0.0678751968503937
11
0.7448818897637796
21
0.0671259842519685
0
LINE
8
BLACK
6
CONTINUOUS
10
0.7448818897637796
20
0.0671259842519685
11
0.658267716535433
21
0.0671259842519685
0
LINE
8
BLACK
6
CONTINUOUS
10
0.658267716535433
20
0.0671259842519685
11
0.6545011417322835
21
0.0678751968503937
0
LINE
8
BLACK
6
CONTINUOUS
10
0.6545011417322835
20
0.0678751968503937
11
0.6513079921259842
21
0.0700087795275591
0
LINE
8
BLACK
6
CONTINUOUS
10
0.6513079921259842
20
0.0700087795275591
11
0.6491744094488189
21
0.0732019291338583
0
LINE
8
BLACK
6
CONTINUOUS
10
0.6491744094488189
20
0.0732019291338583
11
0.6484251968503937
21
0.0769685039370079
0
LINE
8
BLACK
6
CONTINUOUS
10
0.6484251968503937
20
0.0769685039370079
11
0.6484251968503937
21
0.0966535433070866
0
LINE
8
BLACK
6
CONTINUOUS
10
0.6484251968503937
20
0.0966535433070866
11
0.6491744094488189
21
0.1004201181102362
0
LINE
8
BLACK
6
CONTINUOUS
10
0.6491744094488189
20
0.1004201181102362
11
0.6513079921259842
21
0.1036132677165354
0
LINE
8
BLACK
6
CONTINUOUS
10
0.6513079921259842
20
0.1036132677165354
11
0.6545011417322835
21
0.1057468503937008
0
LINE
8
BLACK
6
CONTINUOUS
10
0.6545011417322835
20
0.1057468503937008
11
0.658267716535433
21
0.106496062992126
0
LINE
8
BLACK
6
CONTINUOUS
10
0.658267716535433
20
0.106496062992126
11
0.7448818897637796
21
0.106496062992126
0
LINE
8
BLACK
6
CONTINUOUS
10
0.7448818897637796
20
0.106496062992126
11
0.7486484645669291
21
0.1057468503937008
0
LINE
8
BLACK
6
CONTINUOUS
10
0.6054095669291338
20
0.1710071653543307
11
0.6073254330708662
21
0.1697270078740157
0
LINE
8
BLACK
6
CONTINUOUS
10
0.6073254330708662
20
0.1697270078740157
11
0.6086055905511811
21
0.1678111417322835
0
LINE
8
BLACK
6
CONTINUOUS
10
0.6086055905511811
20
0.1678111417322835
11
0.6090551181102362
21
0.1655511811023622
0
LINE
8
BLACK
6
CONTINUOUS
10
0.6090551181102362
20
0.1655511811023622
11
0.6090551181102362
21
0.153740157480315
0
LINE
8
BLACK
6
CONTINUOUS
10
0.6090551181102362
20
0.153740157480315
11
0.6086055905511811
21
0.1514801968503937
0
LINE
8
BLACK
6
CONTINUOUS
10
0.6086055905511811
20
0.1514801968503937
11
0.6073254330708662
21
0.1495643307086614
0
LINE
8
BLACK
6
CONTINUOUS
10
0.6073254330708662
20
0.1495643307086614
11
0.6054095669291338
21
0.1482841732283464
0
LINE
8
BLACK
6
CONTINUOUS
10
0.6054095669291338
20
0.1482841732283464
11
0.6031496062992125
21
0.1478346456692913
0
LINE
8
BLACK
6
CONTINUOUS
10
0.6031496062992125
20
0.1478346456692913
11
0.5480314960629921
21
0.1478346456692913
0
LINE
8
BLACK
6
CONTINUOUS
10
0.5480314960629921
20
0.1478346456692913
11
0.5457715354330709
21
0.1482841732283464
0
LINE
8
BLACK
6
CONTINUOUS
10
0.5457715354330709
20
0.1482841732283464
11
0.5438556692913386
21
0.1495643307086614
0
LINE
8
BLACK
6
CONTINUOUS
10
0.5438556692913386
20
0.1495643307086614
11
0.5425755118110236
21
0.1514801968503937
0
LINE
8
BLACK
6
CONTINUOUS
10
0.5425755118110236
20
0.1514801968503937
11
0.5421259842519685
21
0.153740157480315
0
LINE
8
BLACK
6
CONTINUOUS
10
0.5421259842519685
20
0.153740157480315
11
0.5421259842519685
21
0.1655511811023622
0
LINE
8
BLACK
6
CONTINUOUS
10
0.5421259842519685
20
0.1655511811023622
11
0.5425755118110236
21
0.1678111417322835
0
LINE
8
BLACK
6
CONTINUOUS
10
0.5425755118110236
20
0.1678111417322835
11
0.5438556692913386
21
0.1697270078740157
0
LINE
8
BLACK
6
CONTINUOUS
10
0.5438556692913386
20
0.1697270078740157
11
0.5457715354330709
21
0.1710071653543307
0
LINE
8
BLACK
6
CONTINUOUS
10
0.5457715354330709
20
0.1710071653543307
11
0.5480314960629921
21
0.1714566929133858
0
LINE
8
BLACK
6
CONTINUOUS
10
0.5480314960629921
20
0.1714566929133858
11
0.6031496062992125
21
0.1714566929133858
0
LINE
8
BLACK
6
CONTINUOUS
10
0.6031496062992125
20
0.1714566929133858
11
0.6054095669291338
21
0.1710071653543307
0
LINE
8
BLACK
6
CONTINUOUS
10
0.6054095669291338
20
0.2202197637795276
11
0.6073254330708662
21
0.2189396062992126
0
LINE
8
BLACK
6
CONTINUOUS
10
0.6073254330708662
20
0.2189396062992126
11
0.6086055905511811
21
0.2170237401574803
0
LINE
8
BLACK
6
CONTINUOUS
10
0.6086055905511811
20
0.2170237401574803
11
0.6090551181102362
21
0.214763779527559
0
LINE
8
BLACK
6
CONTINUOUS
10
0.6090551181102362
20
0.214763779527559
11
0.6090551181102362
21
0.2029527559055118
0
LINE
8
BLACK
6
CONTINUOUS
10
0.6090551181102362
20
0.2029527559055118
11
0.6086055905511811
21
0.2006927952755906
0
LINE
8
BLACK
6
CONTINUOUS
10
0.6086055905511811
20
0.2006927952755906
11
0.6073254330708662
21
0.1987769291338583
0
LINE
8
BLACK
6
CONTINUOUS
10
0.6073254330708662
20
0.1987769291338583
11
0.6054095669291338
21
0.1974967716535433
0
LINE
8
BLACK
6
CONTINUOUS
10
0.6054095669291338
20
0.1974967716535433
11
0.6031496062992125
21
0.1970472440944882
0
LINE
8
BLACK
6
CONTINUOUS
10
0.6031496062992125
20
0.1970472440944882
11
0.5480314960629921
21
0.1970472440944882
0
LINE
8
BLACK
6
CONTINUOUS
10
0.5480314960629921
20
0.1970472440944882
11
0.5457715354330709
21
0.1974967716535433
0
LINE
8
BLACK
6
CONTINUOUS
10
0.5457715354330709
20
0.1974967716535433
11
0.5438556692913386
21
0.1987769291338583
0
LINE
8
BLACK
6
CONTINUOUS
10
0.5438556692913386
20
0.1987769291338583
11
0.5425755118110236
21
0.2006927952755906
0
LINE
8
BLACK
6
CONTINUOUS
10
0.5425755118110236
20
0.2006927952755906
11
0.5421259842519685
21
0.2029527559055118
0
LINE
8
BLACK
6
CONTINUOUS
10
0.5421259842519685
20
0.2029527559055118
11
0.5421259842519685
21
0.214763779527559
0
LINE
8
BLACK
6
CONTINUOUS
10
0.5421259842519685
20
0.214763779527559
11
0.5425755118110236
21
0.2170237401574803
0
LINE
8
BLACK
6
CONTINUOUS
10
0.5425755118110236
20
0.2170237401574803
11
0.5438556692913386
21
0.2189396062992126
0
LINE
8
BLACK
6
CONTINUOUS
10
0.5438556692913386
20
0.2189396062992126
11
0.5457715354330709
21
0.2202197637795276
0
LINE
8
BLACK
6
CONTINUOUS
10
0.5457715354330709
20
0.2202197637795276
11
0.5480314960629921
21
0.2206692913385827
0
LINE
8
BLACK
6
CONTINUOUS
10
0.5480314960629921
20
0.2206692913385827
11
0.6031496062992125
21
0.2206692913385827
0
LINE
8
BLACK
6
CONTINUOUS
10
0.6031496062992125
20
0.2206692913385827
11
0.6054095669291338
21
0.2202197637795276
0
LINE
8
BLACK
6
CONTINUOUS
10
0.6054095669291338
20
0.2694323622047244
11
0.6073254330708662
21
0.2681522047244094
0
LINE
8
BLACK
6
CONTINUOUS
10
0.6073254330708662
20
0.2681522047244094
11
0.6086055905511811
21
0.2662363385826771
0
LINE
8
BLACK
6
CONTINUOUS
10
0.6086055905511811
20
0.2662363385826771
11
0.6090551181102362
21
0.2639763779527559
0
LINE
8
BLACK
6
CONTINUOUS
10
0.6090551181102362
20
0.2639763779527559
11
0.6090551181102362
21
0.2521653543307086
0
LINE
8
BLACK
6
CONTINUOUS
10
0.6090551181102362
20
0.2521653543307086
11
0.6086055905511811
21
0.2499053937007874
0
LINE
8
BLACK
6
CONTINUOUS
10
0.6086055905511811
20
0.2499053937007874
11
0.6073254330708662
21
0.2479895275590551
0
LINE
8
BLACK
6
CONTINUOUS
10
0.6073254330708662
20
0.2479895275590551
11
0.6054095669291338
21
0.2467093700787402
0
LINE
8
BLACK
6
CONTINUOUS
10
0.6054095669291338
20
0.2467093700787402
11
0.6031496062992125
21
0.246259842519685
0
LINE
8
BLACK
6
CONTINUOUS
10
0.6031496062992125
20
0.246259842519685
11
0.5480314960629921
21
0.246259842519685
0
LINE
8
BLACK
6
CONTINUOUS
10
0.5480314960629921
20
0.246259842519685
11
0.5457715354330709
21
0.2467093700787402
0
LINE
8
BLACK
6
CONTINUOUS
10
0.5457715354330709
20
0.2467093700787402
11
0.5438556692913386
21
0.2479895275590551
0
LINE
8
BLACK
6
CONTINUOUS
10
0.5438556692913386
20
0.2479895275590551
11
0.5425755118110236
21
0.2499053937007874
0
LINE
8
BLACK
6
CONTINUOUS
10
0.5425755118110236
20
0.2499053937007874
11
0.5421259842519685
21
0.2521653543307086
0
LINE
8
BLACK
6
CONTINUOUS
10
0.5421259842519685
20
0.2521653543307086
11
0.5421259842519685
21
0.2639763779527559
0
LINE
8
BLACK
6
CONTINUOUS
10
0.5421259842519685
20
0.2639763779527559
11
0.5425755118110236
21
0.2662363385826771
0
LINE
8
BLACK
6
CONTINUOUS
10
0.5425755118110236
20
0.2662363385826771
11
0.5438556692913386
21
0.2681522047244094
0
LINE
8
BLACK
6
CONTINUOUS
10
0.5438556692913386
20
0.2681522047244094
11
0.5457715354330709
21
0.2694323622047244
0
LINE
8
BLACK
6
CONTINUOUS
10
0.5457715354330709
20
0.2694323622047244
11
0.5480314960629921
21
0.2698818897637795
0
LINE
8
BLACK
6
CONTINUOUS
10
0.5480314960629921
20
0.2698818897637795
11
0.6031496062992125
21
0.2698818897637795
0
LINE
8
BLACK
6
CONTINUOUS
10
0.6031496062992125
20
0.2698818897637795
11
0.6054095669291338
21
0.2694323622047244
0
LINE
8
BLACK
6
CONTINUOUS
10
0.6054095669291338
20
0.3186449606299213
11
0.6073254330708662
21
0.3173648031496063
0
LINE
8
BLACK
6
CONTINUOUS
10
0.6073254330708662
20
0.3173648031496063
11
0.6086055905511811
21
0.315448937007874
0
LINE
8
BLACK
6
CONTINUOUS
10
0.6086055905511811
20
0.315448937007874
11
0.6090551181102362
21
0.3131889763779527
0
LINE
8
BLACK
6
CONTINUOUS
10
0.6090551181102362
20
0.3131889763779527
11
0.6090551181102362
21
0.3013779527559055
0
LINE
8
BLACK
6
CONTINUOUS
10
0.6090551181102362
20
0.3013779527559055
11
0.6086055905511811
21
0.2991179921259842
0
LINE
8
BLACK
6
CONTINUOUS
10
0.6086055905511811
20
0.2991179921259842
11
0.6073254330708662
21
0.2972021259842519
0
LINE
8
BLACK
6
CONTINUOUS
10
0.6073254330708662
20
0.2972021259842519
11
0.6054095669291338
21
0.295921968503937
0
LINE
8
BLACK
6
CONTINUOUS
10
0.6054095669291338
20
0.295921968503937
11
0.6031496062992125
21
0.2954724409448819
0
LINE
8
BLACK
6
CONTINUOUS
10
0.6031496062992125
20
0.2954724409448819
11
0.5480314960629921
21
0.2954724409448819
0
LINE
8
BLACK
6
CONTINUOUS
10
0.5480314960629921
20
0.2954724409448819
11
0.5457715354330709
21
0.295921968503937
0
LINE
8
BLACK
6
CONTINUOUS
10
0.5457715354330709
20
0.295921968503937
11
0.5438556692913386
21
0.2972021259842519
0
LINE
8
BLACK
6
CONTINUOUS
10
0.5438556692913386
20
0.2972021259842519
11
0.5425755118110236
21
0.2991179921259842
0
LINE
8
BLACK
6
CONTINUOUS
10
0.5425755118110236
20
0.2991179921259842
11
0.5421259842519685
21
0.3013779527559055
0
LINE
8
BLACK
6
CONTINUOUS
10
0.5421259842519685
20
0.3013779527559055
11
0.5421259842519685
21
0.3131889763779527
0
LINE
8
BLACK
6
CONTINUOUS
10
0.5421259842519685
20
0.3131889763779527
11
0.5425755118110236
21
0.315448937007874
0
LINE
8
BLACK
6
CONTINUOUS
10
0.5425755118110236
20
0.315448937007874
11
0.5438556692913386
21
0.3173648031496063
0
LINE
8
BLACK
6
CONTINUOUS
10
0.5438556692913386
20
0.3173648031496063
11
0.5457715354330709
21
0.3186449606299213
0
LINE
8
BLACK
6
CONTINUOUS
10
0.5457715354330709
20
0.3186449606299213
11
0.5480314960629921
21
0.3190944881889763
0
LINE
8
BLACK
6
CONTINUOUS
10
0.5480314960629921
20
0.3190944881889763
11
0.6031496062992125
21
0.3190944881889763
0
LINE
8
BLACK
6
CONTINUOUS
10
0.6031496062992125
20
0.3190944881889763
11
0.6054095669291338
21
0.3186449606299213
0
LINE
8
BLACK
6
CONTINUOUS
10
0.7486484645669291
20
0.399053937007874
11
0.7518416141732284
21
0.3969203543307087
0
LINE
8
BLACK
6
CONTINUOUS
10
0.7518416141732284
20
0.3969203543307087
11
0.7539751968503937
21
0.3937272047244094
0
LINE
8
BLACK
6
CONTINUOUS
10
0.7539751968503937
20
0.3937272047244094
11
0.7547244094488189
21
0.3899606299212598
0
LINE
8
BLACK
6
CONTINUOUS
10
0.7547244094488189
20
0.3899606299212598
11
0.7547244094488189
21
0.3702755905511811
0
LINE
8
BLACK
6
CONTINUOUS
10
0.7547244094488189
20
0.3702755905511811
11
0.7539751968503937
21
0.3665090157480315
0
LINE
8
BLACK
6
CONTINUOUS
10
0.7539751968503937
20
0.3665090157480315
11
0.7518416141732284
21
0.3633158661417323
0
LINE
8
BLACK
6
CONTINUOUS
10
0.7518416141732284
20
0.3633158661417323
11
0.7486484645669291
21
0.3611822834645669
0
LINE
8
BLACK
6
CONTINUOUS
10
0.7486484645669291
20
0.3611822834645669
11
0.7448818897637796
21
0.3604330708661417
0
LINE
8
BLACK
6
CONTINUOUS
10
0.7448818897637796
20
0.3604330708661417
11
0.658267716535433
21
0.3604330708661417
0
LINE
8
BLACK
6
CONTINUOUS
10
0.658267716535433
20
0.3604330708661417
11
0.6545011417322835
21
0.3611822834645669
0
LINE
8
BLACK
6
CONTINUOUS
10
0.6545011417322835
20
0.3611822834645669
11
0.6513079921259842
21
0.3633158661417323
0
LINE
8
BLACK
6
CONTINUOUS
10
0.6513079921259842
20
0.3633158661417323
11
0.6491744094488189
21
0.3665090157480315
0
LINE
8
BLACK
6
CONTINUOUS
10
0.6491744094488189
20
0.3665090157480315
11
0.6484251968503937
21
0.3702755905511811
0
LINE
8
BLACK
6
CONTINUOUS
10
0.6484251968503937
20
0.3702755905511811
11
0.6484251968503937
21
0.3899606299212598
0
LINE
8
BLACK
6
CONTINUOUS
10
0.6484251968503937
20
0.3899606299212598
11
0.6491744094488189
21
0.3937272047244094
0
LINE
8
BLACK
6
CONTINUOUS
10
0.6491744094488189
20
0.3937272047244094
11
0.6513079921259842
21
0.3969203543307087
0
LINE
8
BLACK
6
CONTINUOUS
10
0.6513079921259842
20
0.3969203543307087
11
0.6545011417322835
21
0.399053937007874
0
LINE
8
BLACK
6
CONTINUOUS
10
0.6545011417322835
20
0.399053937007874
11
0.658267716535433
21
0.3998031496062992
0
LINE
8
BLACK
6
CONTINUOUS
10
0.658267716535433
20
0.3998031496062992
11
0.7448818897637796
21
0.3998031496062992
0
LINE
8
BLACK
6
CONTINUOUS
10
0.7448818897637796
20
0.3998031496062992
11
0.7486484645669291
21
0.399053937007874
0
LINE
8
BLACK
6
CONTINUOUS
10
0.7486484645669291
20
0.4994476377952756
11
0.7518416141732284
21
0.4973140551181102
0
LINE
8
BLACK
6
CONTINUOUS
10
0.7518416141732284
20
0.4973140551181102
11
0.7539751968503937
21
0.494120905511811
0
LINE
8
BLACK
6
CONTINUOUS
10
0.7539751968503937
20
0.494120905511811
11
0.7547244094488189
21
0.4903543307086614
0
LINE
8
BLACK
6
CONTINUOUS
10
0.7547244094488189
20
0.4903543307086614
11
0.7547244094488189
21
0.4706692913385827
0
LINE
8
BLACK
6
CONTINUOUS
10
0.7547244094488189
20
0.4706692913385827
11
0.7539751968503937
21
0.4669027165354331
0
LINE
8
BLACK
6
CONTINUOUS
10
0.7539751968503937
20
0.4669027165354331
11
0.7518416141732284
21
0.4637095669291338
0
LINE
8
BLACK
6
CONTINUOUS
10
0.7518416141732284
20
0.4637095669291338
11
0.7486484645669291
21
0.4615759842519685
0
LINE
8
BLACK
6
CONTINUOUS
10
0.7486484645669291
20
0.4615759842519685
11
0.7448818897637796
21
0.4608267716535433
0
LINE
8
BLACK
6
CONTINUOUS
10
0.7448818897637796
20
0.4608267716535433
11
0.658267716535433
21
0.4608267716535433
0
LINE
8
BLACK
6
CONTINUOUS
10
0.658267716535433
20
0.4608267716535433
11
0.6545011417322835
21
0.4615759842519685
0
LINE
8
BLACK
6
CONTINUOUS
10
0.6545011417322835
20
0.4615759842519685
11
0.6513079921259842
21
0.4637095669291338
0
LINE
8
BLACK
6
CONTINUOUS
10
0.6513079921259842
20
0.4637095669291338
11
0.6491744094488189
21
0.4669027165354331
0
LINE
8
BLACK
6
CONTINUOUS
10
0.6491744094488189
20
0.4669027165354331
11
0.6484251968503937
21
0.4706692913385827
0
LINE
8
BLACK
6
CONTINUOUS
10
0.6484251968503937
20
0.4706692913385827
11
0.6484251968503937
21
0.4903543307086614
0
LINE
8
BLACK
6
CONTINUOUS
10
0.6484251968503937
20
0.4903543307086614
11
0.6491744094488189
21
0.494120905511811
0
LINE
8
BLACK
6
CONTINUOUS
10
0.6491744094488189
20
0.494120905511811
11
0.6513079921259842
21
0.4973140551181102
0
LINE
8
BLACK
6
CONTINUOUS
10
0.6513079921259842
20
0.4973140551181102
11
0.6545011417322835
21
0.4994476377952756
0
LINE
8
BLACK
6
CONTINUOUS
10
0.6545011417322835
20
0.4994476377952756
11
0.658267716535433
21
0.5001968503937008
0
LINE
8
BLACK
6
CONTINUOUS
10
0.658267716535433
20
0.5001968503937008
11
0.7448818897637796
21
0.5001968503937008
0
LINE
8
BLACK
6
CONTINUOUS
10
0.7448818897637796
20
0.5001968503937008
11
0.7486484645669291
21
0.4994476377952756
0
LINE
8
BLACK
6
CONTINUOUS
10
0.6054095669291338
20
0.5647079527559055
11
0.6073254330708662
21
0.5634277952755905
0
LINE
8
BLACK
6
CONTINUOUS
10
0.6073254330708662
20
0.5634277952755905
11
0.6086055905511811
21
0.5615119291338583
0
LINE
8
BLACK
6
CONTINUOUS
10
0.6086055905511811
20
0.5615119291338583
11
0.6090551181102362
21
0.559251968503937
0
LINE
8
BLACK
6
CONTINUOUS
10
0.6090551181102362
20
0.559251968503937
11
0.6090551181102362
21
0.5474409448818898
0
LINE
8
BLACK
6
CONTINUOUS
10
0.6090551181102362
20
0.5474409448818898
11
0.6086055905511811
21
0.5451809842519685
0
LINE
8
BLACK
6
CONTINUOUS
10
0.6086055905511811
20
0.5451809842519685
11
0.6073254330708662
21
0.5432651181102363
0
LINE
8
BLACK
6
CONTINUOUS
10
0.6073254330708662
20
0.5432651181102363
11
0.6054095669291338
21
0.5419849606299213
0
LINE
8
BLACK
6
CONTINUOUS
10
0.6054095669291338
20
0.5419849606299213
11
0.6031496062992125
21
0.5415354330708662
0
LINE
8
BLACK
6
CONTINUOUS
10
0.6031496062992125
20
0.5415354330708662
11
0.5480314960629921
21
0.5415354330708662
0
LINE
8
BLACK
6
CONTINUOUS
10
0.5480314960629921
20
0.5415354330708662
11
0.5457715354330709
21
0.5419849606299213
0
LINE
8
BLACK
6
CONTINUOUS
10
0.5457715354330709
20
0.5419849606299213
11
0.5438556692913386
21
0.5432651181102363
0
LINE
8
BLACK
6
CONTINUOUS
10
0.5438556692913386
20
0.5432651181102363
11
0.5425755118110236
21
0.5451809842519685
0
LINE
8
BLACK
6
CONTINUOUS
10
0.5425755118110236
20
0.5451809842519685
11
0.5421259842519685
21
0.5474409448818898
0
LINE
8
BLACK
6
CONTINUOUS
10
0.5421259842519685
20
0.5474409448818898
11
0.5421259842519685
21
0.559251968503937
0
LINE
8
BLACK
6
CONTINUOUS
10
0.5421259842519685
20
0.559251968503937
11
0.5425755118110236
21
0.5615119291338583
0
LINE
8
BLACK
6
CONTINUOUS
10
0.5425755118110236
20
0.5615119291338583
11
0.5438556692913386
21
0.5634277952755905
0
LINE
8
BLACK
6
CONTINUOUS
10
0.5438556692913386
20
0.5634277952755905
11
0.5457715354330709
21
0.5647079527559055
0
LINE
8
BLACK
6
CONTINUOUS
10
0.5457715354330709
20
0.5647079527559055
11
0.5480314960629921
21
0.5651574803149606
0
LINE
8
BLACK
6
CONTINUOUS
10
0.5480314960629921
20
0.5651574803149606
11
0.6031496062992125
21
0.5651574803149606
0
LINE
8
BLACK
6
CONTINUOUS
10
0.6031496062992125
20
0.5651574803149606
11
0.6054095669291338
21
0.5647079527559055
0
LINE
8
BLACK
6
CONTINUOUS
10
0.6054095669291338
20
0.6139205511811023
11
0.6073254330708662
21
0.6126403937007874
0
LINE
8
BLACK
6
CONTINUOUS
10
0.6073254330708662
20
0.6126403937007874
11
0.6086055905511811
21
0.6107245275590552
0
LINE
8
BLACK
6
CONTINUOUS
10
0.6086055905511811
20
0.6107245275590552
11
0.6090551181102362
21
0.6084645669291339
0
LINE
8
BLACK
6
CONTINUOUS
10
0.6090551181102362
20
0.6084645669291339
11
0.6090551181102362
21
0.5966535433070866
0
LINE
8
BLACK
6
CONTINUOUS
10
0.6090551181102362
20
0.5966535433070866
11
0.6086055905511811
21
0.5943935826771654
0
LINE
8
BLACK
6
CONTINUOUS
10
0.6086055905511811
20
0.5943935826771654
11
0.6073254330708662
21
0.592477716535433
0
LINE
8
BLACK
6
CONTINUOUS
10
0.6073254330708662
20
0.592477716535433
11
0.6054095669291338
21
0.5911975590551181
0
LINE
8
BLACK
6
CONTINUOUS
10
0.6054095669291338
20
0.5911975590551181
11
0.6031496062992125
21
0.590748031496063
0
LINE
8
BLACK
6
CONTINUOUS
10
0.6031496062992125
20
0.590748031496063
11
0.5480314960629921
21
0.590748031496063
0
LINE
8
BLACK
6
CONTINUOUS
10
0.5480314960629921
20
0.590748031496063
11
0.5457715354330709
21
0.5911975590551181
0
LINE
8
BLACK
6
CONTINUOUS
10
0.5457715354330709
20
0.5911975590551181
11
0.5438556692913386
21
0.592477716535433
0
LINE
8
BLACK
6
CONTINUOUS
10
0.5438556692913386
20
0.592477716535433
11
0.5425755118110236
21
0.5943935826771654
0
LINE
8
BLACK
6
CONTINUOUS
10
0.5425755118110236
20
0.5943935826771654
11
0.5421259842519685
21
0.5966535433070866
0
LINE
8
BLACK
6
CONTINUOUS
10
0.5421259842519685
20
0.5966535433070866
11
0.5421259842519685
21
0.6084645669291339
0
LINE
8
BLACK
6
CONTINUOUS
10
0.5421259842519685
20
0.6084645669291339
11
0.5425755118110236
21
0.6107245275590552
0
LINE
8
BLACK
6
CONTINUOUS
10
0.5425755118110236
20
0.6107245275590552
11
0.5438556692913386
21
0.6126403937007874
0
LINE
8
BLACK
6
CONTINUOUS
10
0.5438556692913386
20
0.6126403937007874
11
0.5457715354330709
21
0.6139205511811023
0
LINE
8
BLACK
6
CONTINUOUS
10
0.5457715354330709
20
0.6139205511811023
11
0.5480314960629921
21
0.6143700787401575
0
LINE
8
BLACK
6
CONTINUOUS
10
0.5480314960629921
20
0.6143700787401575
11
0.6031496062992125
21
0.6143700787401575
0
LINE
8
BLACK
6
CONTINUOUS
10
0.6031496062992125
20
0.6143700787401575
11
0.6054095669291338
21
0.6139205511811023
0
LINE
8
BLACK
6
CONTINUOUS
10
0.6054095669291338
20
0.6631331496062992
11
0.6073254330708662
21
0.6618529921259843
0
LINE
8
BLACK
6
CONTINUOUS
10
0.6073254330708662
20
0.6618529921259843
11
0.6086055905511811
21
0.6599371259842519
0
LINE
8
BLACK
6
CONTINUOUS
10
0.6086055905511811
20
0.6599371259842519
11
0.6090551181102362
21
0.6576771653543307
0
LINE
8
BLACK
6
CONTINUOUS
10
0.6090551181102362
20
0.6576771653543307
11
0.6090551181102362
21
0.6458661417322834
0
LINE
8
BLACK
6
CONTINUOUS
10
0.6090551181102362
20
0.6458661417322834
11
0.6086055905511811
21
0.6436061811023622
0
LINE
8
BLACK
6
CONTINUOUS
10
0.6086055905511811
20
0.6436061811023622
11
0.6073254330708662
21
0.6416903149606299
0
LINE
8
BLACK
6
CONTINUOUS
10
0.6073254330708662
20
0.6416903149606299
11
0.6054095669291338
21
0.6404101574803149
0
LINE
8
BLACK
6
CONTINUOUS
10
0.6054095669291338
20
0.6404101574803149
11
0.6031496062992125
21
0.6399606299212598
0
LINE
8
BLACK
6
CONTINUOUS
10
0.6031496062992125
20
0.6399606299212598
11
0.5480314960629921
21
0.6399606299212598
0
LINE
8
BLACK
6
CONTINUOUS
10
0.5480314960629921
20
0.6399606299212598
11
0.5457715354330709
21
0.6404101574803149
0
LINE
8
BLACK
6
CONTINUOUS
10
0.5457715354330709
20
0.6404101574803149
11
0.5438556692913386
21
0.6416903149606299
0
LINE
8
BLACK
6
CONTINUOUS
10
0.5438556692913386
20
0.6416903149606299
11
0.5425755118110236
21
0.6436061811023622
0
LINE
8
BLACK
6
CONTINUOUS
10
0.5425755118110236
20
0.6436061811023622
11
0.5421259842519685
21
0.6458661417322834
0
LINE
8
BLACK
6
CONTINUOUS
10
0.5421259842519685
20
0.6458661417322834
11
0.5421259842519685
21
0.6576771653543307
0
LINE
8
BLACK
6
CONTINUOUS
10
0.5421259842519685
20
0.6576771653543307
11
0.5425755118110236
21
0.6599371259842519
0
LINE
8
BLACK
6
CONTINUOUS
10
0.5425755118110236
20
0.6599371259842519
11
0.5438556692913386
21
0.6618529921259843
0
LINE
8
BLACK
6
CONTINUOUS
10
0.5438556692913386
20
0.6618529921259843
11
0.5457715354330709
21
0.6631331496062992
0
LINE
8
BLACK
6
CONTINUOUS
10
0.5457715354330709
20
0.6631331496062992
11
0.5480314960629921
21
0.6635826771653544
0
LINE
8
BLACK
6
CONTINUOUS
10
0.5480314960629921
20
0.6635826771653544
11
0.6031496062992125
21
0.6635826771653544
0
LINE
8
BLACK
6
CONTINUOUS
10
0.6031496062992125
20
0.6635826771653544
11
0.6054095669291338
21
0.6631331496062992
0
LINE
8
BLACK
6
CONTINUOUS
10
0.6054095669291338
20
0.7123457480314961
11
0.6073254330708662
21
0.7110655905511811
0
LINE
8
BLACK
6
CONTINUOUS
10
0.6073254330708662
20
0.7110655905511811
11
0.6086055905511811
21
0.7091497244094488
0
LINE
8
BLACK
6
CONTINUOUS
10
0.6086055905511811
20
0.7091497244094488
11
0.6090551181102362
21
0.7068897637795275
0
LINE
8
BLACK
6
CONTINUOUS
10
0.6090551181102362
20
0.7068897637795275
11
0.6090551181102362
21
0.6950787401574803
0
LINE
8
BLACK
6
CONTINUOUS
10
0.6090551181102362
20
0.6950787401574803
11
0.6086055905511811
21
0.692818779527559
0
LINE
8
BLACK
6
CONTINUOUS
10
0.6086055905511811
20
0.692818779527559
11
0.6073254330708662
21
0.6909029133858268
0
LINE
8
BLACK
6
CONTINUOUS
10
0.6073254330708662
20
0.6909029133858268
11
0.6054095669291338
21
0.6896227559055118
0
LINE
8
BLACK
6
CONTINUOUS
10
0.6054095669291338
20
0.6896227559055118
11
0.6031496062992125
21
0.6891732283464567
0
LINE
8
BLACK
6
CONTINUOUS
10
0.6031496062992125
20
0.6891732283464567
11
0.5480314960629921
21
0.6891732283464567
0
LINE
8
BLACK
6
CONTINUOUS
10
0.5480314960629921
20
0.6891732283464567
11
0.5457715354330709
21
0.6896227559055118
0
LINE
8
BLACK
6
CONTINUOUS
10
0.5457715354330709
20
0.6896227559055118
11
0.5438556692913386
21
0.6909029133858268
0
LINE
8
BLACK
6
CONTINUOUS
10
0.5438556692913386
20
0.6909029133858268
11
0.5425755118110236
21
0.692818779527559
0
LINE
8
BLACK
6
CONTINUOUS
10
0.5425755118110236
20
0.692818779527559
11
0.5421259842519685
21
0.6950787401574803
0
LINE
8
BLACK
6
CONTINUOUS
10
0.5421259842519685
20
0.6950787401574803
11
0.5421259842519685
21
0.7068897637795275
0
LINE
8
BLACK
6
CONTINUOUS
10
0.5421259842519685
20
0.7068897637795275
11
0.5425755118110236
21
0.7091497244094488
0
LINE
8
BLACK
6
CONTINUOUS
10
0.5425755118110236
20
0.7091497244094488
11
0.5438556692913386
21
0.7110655905511811
0
LINE
8
BLACK
6
CONTINUOUS
10
0.5438556692913386
20
0.7110655905511811
11
0.5457715354330709
21
0.7123457480314961
0
LINE
8
BLACK
6
CONTINUOUS
10
0.5457715354330709
20
0.7123457480314961
11
0.5480314960629921
21
0.7127952755905511
0
LINE
8
BLACK
6
CONTINUOUS
10
0.5480314960629921
20
0.7127952755905511
11
0.6031496062992125
21
0.7127952755905511
0
LINE
8
BLACK
6
CONTINUOUS
10
0.6031496062992125
20
0.7127952755905511
11
0.6054095669291338
21
0.7123457480314961
0
LINE
8
BLACK
6
CONTINUOUS
10
0.7486484645669291
20
0.7927547244094488
11
0.7518416141732284
21
0.7906211417322835
0
LINE
8
BLACK
6
CONTINUOUS
10
0.7518416141732284
20
0.7906211417322835
11
0.7539751968503937
21
0.7874279921259842
0
LINE
8
BLACK
6
CONTINUOUS
10
0.7539751968503937
20
0.7874279921259842
11
0.7547244094488189
21
0.7836614173228347
0
LINE
8
BLACK
6
CONTINUOUS
10
0.7547244094488189
20
0.7836614173228347
11
0.7547244094488189
21
0.7639763779527559
0
LINE
8
BLACK
6
CONTINUOUS
10
0.7547244094488189
20
0.7639763779527559
11
0.7539751968503937
21
0.7602098031496063
0
LINE
8
BLACK
6
CONTINUOUS
10
0.7539751968503937
20
0.7602098031496063
11
0.7518416141732284
21
0.757016653543307
0
LINE
8
BLACK
6
CONTINUOUS
10
0.7518416141732284
20
0.757016653543307
11
0.7486484645669291
21
0.7548830708661417
0
LINE
8
BLACK
6
CONTINUOUS
10
0.7486484645669291
20
0.7548830708661417
11
0.7448818897637796
21
0.7541338582677165
0
LINE
8
BLACK
6
CONTINUOUS
10
0.7448818897637796
20
0.7541338582677165
11
0.658267716535433
21
0.7541338582677165
0
LINE
8
BLACK
6
CONTINUOUS
10
0.658267716535433
20
0.7541338582677165
11
0.6545011417322835
21
0.7548830708661417
0
LINE
8
BLACK
6
CONTINUOUS
10
0.6545011417322835
20
0.7548830708661417
11
0.6513079921259842
21
0.757016653543307
0
LINE
8
BLACK
6
CONTINUOUS
10
0.6513079921259842
20
0.757016653543307
11
0.6491744094488189
21
0.7602098031496063
0
LINE
8
BLACK
6
CONTINUOUS
10
0.6491744094488189
20
0.7602098031496063
11
0.6484251968503937
21
0.7639763779527559
0
LINE
8
BLACK
6
CONTINUOUS
10
0.6484251968503937
20
0.7639763779527559
11
0.6484251968503937
21
0.7836614173228347
0
LINE
8
BLACK
6
CONTINUOUS
10
0.6484251968503937
20
0.7836614173228347
11
0.6491744094488189
21
0.7874279921259842
0
LINE
8
BLACK
6
CONTINUOUS
10
0.6491744094488189
20
0.7874279921259842
11
0.6513079921259842
21
0.7906211417322835
0
LINE
8
BLACK
6
CONTINUOUS
10
0.6513079921259842
20
0.7906211417322835
11
0.6545011417322835
21
0.7927547244094488
0
LINE
8
BLACK
6
CONTINUOUS
10
0.6545011417322835
20
0.7927547244094488
11
0.658267716535433
21
0.793503937007874
0
LINE
8
BLACK
6
CONTINUOUS
10
0.658267716535433
20
0.793503937007874
11
0.7448818897637796
21
0.793503937007874
0
LINE
8
BLACK
6
CONTINUOUS
10
0.7448818897637796
20
0.793503937007874
11
0.7486484645669291
21
0.7927547244094488
  0
ENDSEC
  0
EOF
