  0
SECTION
  2
HEADER
  9
$ANGBASE
  50
0.0
  9
$ANGDIR
  70
1
  9
$MEASUREMENT
  70
0
  0
ENDSEC
  0
SECTION
  2
TABLES
  0
TABLE
  2
LTYPE
  70
4
  0
LTYPE
  5
40F
  2
CONTINUOUS
  70
0
  3
Solid line
  72
65
  73
0
  40
0.0
  0
LTYPE
  5
410
  2
DASHDOT
 70
0
  3
Dash Dot ____ _ ____ _
 72
65
 73
4
 40
2.0
 49
1.25
 49
-0.25
 49
0.25
 49
-0.25
  0
LTYPE
  5
411
  2
DASHED
 70
0
  3
Dashed __ __ __ __ __
 72
65
 73
2
 40
0.75
 49
0.5
 49
-0.25
  0
LTYPE
  5
43B
  2
DOTTED
 70
0
  3
Dotted .  .  .  .
 72
65
 73
2
 40
0.2
 49
0.0
 49
-0.2
  0
ENDTAB
  0
TABLE
  2
STYLE
  70
4
  0
STYLE
  2
KICAD
  70
0
  40
0
  41
1
  42
1
  50
0
  71
0
  3
isocp.shx
  0
STYLE
  2
KICADB
  70
0
  40
0
  41
1
  42
1
  50
0
  71
0
  3
isocp.shx
  0
STYLE
  2
KICADI
  70
0
  40
0
  41
1
  42
1
  50
15
  71
0
  3
isocp.shx
  0
STYLE
  2
KICADBI
  70
0
  40
0
  41
1
  42
1
  50
15
  71
0
  3
isocp.shx
  0
ENDTAB
  0
TABLE
  2
LAYER
  70
1
  0
LAYER
  2
BLACK
  70
0
  62
7
  6
CONTINUOUS
  0
ENDTAB
  0
ENDSEC
  0
SECTION
  2
ENTITIES
0
LINE
8
BLACK
6
CONTINUOUS
10
0.2620968503937008
20
0.5700714566929134
11
0.2638982283464567
21
0.5679925590551181
0
LINE
8
BLACK
6
CONTINUOUS
10
0.2638982283464567
20
0.5679925590551181
11
0.2642897244094488
21
0.5652698031496063
0
LINE
8
BLACK
6
CONTINUOUS
10
0.2642897244094488
20
0.5652698031496063
11
0.2639677952755906
21
0.5640963779527559
0
LINE
8
BLACK
6
CONTINUOUS
10
0.2639677952755906
20
0.5640963779527559
11
0.2620182677165354
21
0.559389842519685
0
LINE
8
BLACK
6
CONTINUOUS
10
0.2620182677165354
20
0.559389842519685
11
0.2620181496062992
21
0.5593893700787401
0
LINE
8
BLACK
6
CONTINUOUS
10
0.2620181496062992
20
0.5593893700787401
11
0.2608070866141732
21
0.553301062992126
0
LINE
8
BLACK
6
CONTINUOUS
10
0.2608070866141732
20
0.553301062992126
11
0.2608070866141732
21
0.4919745669291338
0
LINE
8
BLACK
6
CONTINUOUS
10
0.2608070866141732
20
0.4919745669291338
11
0.2620181496062992
21
0.4858862598425197
0
LINE
8
BLACK
6
CONTINUOUS
10
0.2620181496062992
20
0.4858862598425197
11
0.2620182677165354
21
0.4858857874015748
0
LINE
8
BLACK
6
CONTINUOUS
10
0.2620182677165354
20
0.4858857874015748
11
0.264393779527559
21
0.4801507086614173
0
LINE
8
BLACK
6
CONTINUOUS
10
0.264393779527559
20
0.4801507086614173
11
0.2643940551181102
21
0.4801501968503937
0
LINE
8
BLACK
6
CONTINUOUS
10
0.2643940551181102
20
0.4801501968503937
11
0.2678429133858268
21
0.4749886614173228
0
LINE
8
BLACK
6
CONTINUOUS
10
0.2678429133858268
20
0.4749886614173228
11
0.267843031496063
21
0.4749885039370079
0
LINE
8
BLACK
6
CONTINUOUS
10
0.267843031496063
20
0.4749885039370079
11
0.2722325590551181
21
0.4705989763779527
0
LINE
8
BLACK
6
CONTINUOUS
10
0.2722325590551181
20
0.4705989763779527
11
0.2722327165354331
21
0.4705988582677165
0
LINE
8
BLACK
6
CONTINUOUS
10
0.2722327165354331
20
0.4705988582677165
11
0.2773942519685039
21
0.46715
0
LINE
8
BLACK
6
CONTINUOUS
10
0.2773942519685039
20
0.46715
11
0.2773947637795275
21
0.4671497244094488
0
LINE
8
BLACK
6
CONTINUOUS
10
0.2773947637795275
20
0.4671497244094488
11
0.283129842519685
21
0.4647742125984252
0
LINE
8
BLACK
6
CONTINUOUS
10
0.283129842519685
20
0.4647742125984252
11
0.2831300393700787
21
0.4647741338582677
0
LINE
8
BLACK
6
CONTINUOUS
10
0.2831300393700787
20
0.4647741338582677
11
0.2892186220472441
21
0.463563031496063
0
LINE
8
BLACK
6
CONTINUOUS
10
0.2892186220472441
20
0.463563031496063
11
0.2892187401574803
21
0.4635629921259842
0
LINE
8
BLACK
6
CONTINUOUS
10
0.2892187401574803
20
0.4635629921259842
11
0.2892188188976378
21
0.4635629921259842
0
LINE
8
BLACK
6
CONTINUOUS
10
0.2892188188976378
20
0.4635629921259842
11
0.3584190551181102
21
0.4635629921259842
0
LINE
8
BLACK
6
CONTINUOUS
10
0.3584190551181102
20
0.4635629921259842
11
0.358419094488189
21
0.463563031496063
0
LINE
8
BLACK
6
CONTINUOUS
10
0.358419094488189
20
0.463563031496063
11
0.3645077559055118
21
0.4647741338582677
0
LINE
8
BLACK
6
CONTINUOUS
10
0.3645077559055118
20
0.4647741338582677
11
0.3702432677165354
21
0.4671498425196851
0
LINE
8
BLACK
6
CONTINUOUS
10
0.3702432677165354
20
0.4671498425196851
11
0.3754050787401575
21
0.4705988582677165
0
LINE
8
BLACK
6
CONTINUOUS
10
0.3754050787401575
20
0.4705988582677165
11
0.379794842519685
21
0.4749886220472441
0
LINE
8
BLACK
6
CONTINUOUS
10
0.379794842519685
20
0.4749886220472441
11
0.3832438582677165
21
0.4801504330708661
0
LINE
8
BLACK
6
CONTINUOUS
10
0.3832438582677165
20
0.4801504330708661
11
0.3856195669291339
21
0.4858859448818897
0
LINE
8
BLACK
6
CONTINUOUS
10
0.3856195669291339
20
0.4858859448818897
11
0.3868307086614173
21
0.4919747244094488
0
LINE
8
BLACK
6
CONTINUOUS
10
0.3868307086614173
20
0.4919747244094488
11
0.3868307086614173
21
0.4950787401574803
0
LINE
8
BLACK
6
CONTINUOUS
10
0.3868307086614173
20
0.4950787401574803
11
0.3868307086614173
21
0.4976729133858268
0
LINE
8
BLACK
6
CONTINUOUS
10
0.3868307086614173
20
0.4976729133858268
11
0.3868307086614173
21
0.5527910236220472
0
LINE
8
BLACK
6
CONTINUOUS
10
0.3868307086614173
20
0.5527910236220472
11
0.3868307086614173
21
0.5533008661417322
0
LINE
8
BLACK
6
CONTINUOUS
10
0.3868307086614173
20
0.5533008661417322
11
0.3868307086614173
21
0.5533009842519685
0
LINE
8
BLACK
6
CONTINUOUS
10
0.3868307086614173
20
0.5533009842519685
11
0.3868306692913386
21
0.553301062992126
0
LINE
8
BLACK
6
CONTINUOUS
10
0.3868306692913386
20
0.553301062992126
11
0.3865554330708662
21
0.5546847637795276
0
LINE
8
BLACK
6
CONTINUOUS
10
0.3865554330708662
20
0.5546847637795276
11
0.3856195669291339
21
0.5593896456692913
0
LINE
8
BLACK
6
CONTINUOUS
10
0.3856195669291339
20
0.5593896456692913
11
0.38367
21
0.5640963779527559
0
LINE
8
BLACK
6
CONTINUOUS
10
0.38367
20
0.5640963779527559
11
0.3833759448818898
21
0.5668313779527558
0
LINE
8
BLACK
6
CONTINUOUS
10
0.3833759448818898
20
0.5668313779527558
11
0.3846072440944882
21
0.5692911811023622
0
LINE
8
BLACK
6
CONTINUOUS
10
0.3846072440944882
20
0.5692911811023622
11
0.3869729527559055
21
0.5706948031496063
0
LINE
8
BLACK
6
CONTINUOUS
10
0.3869729527559055
20
0.5706948031496063
11
0.3881802755905512
21
0.5708464566929133
0
LINE
8
BLACK
6
CONTINUOUS
10
0.3881802755905512
20
0.5708464566929133
11
0.412151968503937
21
0.5708464566929133
0
LINE
8
BLACK
6
CONTINUOUS
10
0.412151968503937
20
0.5708464566929133
11
0.4147912992125984
21
0.5700714566929134
0
LINE
8
BLACK
6
CONTINUOUS
10
0.4147912992125984
20
0.5700714566929134
11
0.4165926771653543
21
0.5679925590551181
0
LINE
8
BLACK
6
CONTINUOUS
10
0.4165926771653543
20
0.5679925590551181
11
0.4168527559055118
21
0.5672818503937008
0
LINE
8
BLACK
6
CONTINUOUS
10
0.4168527559055118
20
0.5672818503937008
11
0.4174165354330708
21
0.5652698031496063
0
LINE
8
BLACK
6
CONTINUOUS
10
0.4174165354330708
20
0.5652698031496063
11
0.4177402755905512
21
0.5641143307086613
0
LINE
8
BLACK
6
CONTINUOUS
10
0.4177402755905512
20
0.5641143307086613
11
0.4220328346456693
21
0.5542319291338582
0
LINE
8
BLACK
6
CONTINUOUS
10
0.4220328346456693
20
0.5542319291338582
11
0.4220327952755906
21
0.5542319291338582
0
LINE
8
BLACK
6
CONTINUOUS
10
0.4220327952755906
20
0.5542319291338582
11
0.427631062992126
21
0.5450259448818897
0
LINE
8
BLACK
6
CONTINUOUS
10
0.427631062992126
20
0.5450259448818897
11
0.4344307874015748
21
0.5366679527559055
0
LINE
8
BLACK
6
CONTINUOUS
10
0.4344307874015748
20
0.5366679527559055
11
0.4423055118110236
21
0.5293134251968504
0
LINE
8
BLACK
6
CONTINUOUS
10
0.4423055118110236
20
0.5293134251968504
11
0.4511076771653543
21
0.5231001968503937
0
LINE
8
BLACK
6
CONTINUOUS
10
0.4511076771653543
20
0.5231001968503937
11
0.4511079133858268
21
0.5231000393700788
0
LINE
8
BLACK
6
CONTINUOUS
10
0.4511079133858268
20
0.5231000393700788
11
0.4511079921259842
21
0.5231
0
LINE
8
BLACK
6
CONTINUOUS
10
0.4511079921259842
20
0.5231
11
0.4606746456692913
21
0.5181429527559055
0
LINE
8
BLACK
6
CONTINUOUS
10
0.4606746456692913
20
0.5181429527559055
11
0.4606747637795275
21
0.5181429133858267
0
LINE
8
BLACK
6
CONTINUOUS
10
0.4606747637795275
20
0.5181429133858267
11
0.4708269291338583
21
0.5145348031496063
0
LINE
8
BLACK
6
CONTINUOUS
10
0.4708269291338583
20
0.5145348031496063
11
0.4708275590551181
21
0.5145346062992125
0
LINE
8
BLACK
6
CONTINUOUS
10
0.4708275590551181
20
0.5145346062992125
11
0.478317125984252
21
0.5129783070866142
0
LINE
8
BLACK
6
CONTINUOUS
10
0.478317125984252
20
0.5129783070866142
11
0.4813763779527559
21
0.5123425984251968
0
LINE
8
BLACK
6
CONTINUOUS
10
0.4813763779527559
20
0.5123425984251968
11
0.4813764173228346
21
0.5123425590551181
0
LINE
8
BLACK
6
CONTINUOUS
10
0.4813764173228346
20
0.5123425590551181
11
0.4820646062992126
21
0.5122955118110236
0
LINE
8
BLACK
6
CONTINUOUS
10
0.4820646062992126
20
0.5122955118110236
11
0.4921259842519685
21
0.511607283464567
0
LINE
8
BLACK
6
CONTINUOUS
10
0.4921259842519685
20
0.511607283464567
11
0.5028755118110236
21
0.5123425590551181
0
LINE
8
BLACK
6
CONTINUOUS
10
0.5028755118110236
20
0.5123425590551181
11
0.5076228346456693
21
0.513329094488189
0
LINE
8
BLACK
6
CONTINUOUS
10
0.5076228346456693
20
0.513329094488189
11
0.5134243700787402
21
0.5145346062992125
0
LINE
8
BLACK
6
CONTINUOUS
10
0.5134243700787402
20
0.5145346062992125
11
0.5134246062992126
21
0.5145347244094488
0
LINE
8
BLACK
6
CONTINUOUS
10
0.5134246062992126
20
0.5145347244094488
11
0.5134248031496063
21
0.5145347244094488
0
LINE
8
BLACK
6
CONTINUOUS
10
0.5134248031496063
20
0.5145347244094488
11
0.5235773228346456
21
0.5181429527559055
0
LINE
8
BLACK
6
CONTINUOUS
10
0.5235773228346456
20
0.5181429527559055
11
0.5331439763779527
21
0.5231
0
LINE
8
BLACK
6
CONTINUOUS
10
0.5331439763779527
20
0.5231
11
0.5419465354330708
21
0.5293135039370078
0
LINE
8
BLACK
6
CONTINUOUS
10
0.5419465354330708
20
0.5293135039370078
11
0.5498210236220472
21
0.5366677952755905
0
LINE
8
BLACK
6
CONTINUOUS
10
0.5498210236220472
20
0.5366677952755905
11
0.5566207874015748
21
0.5450257874015748
0
LINE
8
BLACK
6
CONTINUOUS
10
0.5566207874015748
20
0.5450257874015748
11
0.562219094488189
21
0.5542318503937008
0
LINE
8
BLACK
6
CONTINUOUS
10
0.562219094488189
20
0.5542318503937008
11
0.562449842519685
21
0.554763031496063
0
LINE
8
BLACK
6
CONTINUOUS
10
0.562449842519685
20
0.554763031496063
11
0.5665116535433071
21
0.5641143307086613
0
LINE
8
BLACK
6
CONTINUOUS
10
0.5665116535433071
20
0.5641143307086613
11
0.5665117322834645
21
0.5641144881889764
0
LINE
8
BLACK
6
CONTINUOUS
10
0.5665117322834645
20
0.5641144881889764
11
0.5673991338582677
21
0.5672817322834646
0
LINE
8
BLACK
6
CONTINUOUS
10
0.5673991338582677
20
0.5672817322834646
11
0.5688574803149606
21
0.5696140551181103
0
LINE
8
BLACK
6
CONTINUOUS
10
0.5688574803149606
20
0.5696140551181103
11
0.5713452755905511
21
0.5707877559055118
0
LINE
8
BLACK
6
CONTINUOUS
10
0.5713452755905511
20
0.5707877559055118
11
0.5720999999999999
21
0.5708464566929133
0
LINE
8
BLACK
6
CONTINUOUS
10
0.5720999999999999
20
0.5708464566929133
11
0.8058527559055118
21
0.5708464566929133
0
LINE
8
BLACK
6
CONTINUOUS
10
0.8058527559055118
20
0.5708464566929133
11
0.8084920866141732
21
0.5700714566929134
0
LINE
8
BLACK
6
CONTINUOUS
10
0.8084920866141732
20
0.5700714566929134
11
0.8102934645669291
21
0.5679925590551181
0
LINE
8
BLACK
6
CONTINUOUS
10
0.8102934645669291
20
0.5679925590551181
11
0.8105535433070866
21
0.5672818503937008
0
LINE
8
BLACK
6
CONTINUOUS
10
0.8105535433070866
20
0.5672818503937008
11
0.8111173228346457
21
0.5652698031496063
0
LINE
8
BLACK
6
CONTINUOUS
10
0.8111173228346457
20
0.5652698031496063
11
0.8114410629921259
21
0.5641143307086613
0
LINE
8
BLACK
6
CONTINUOUS
10
0.8114410629921259
20
0.5641143307086613
11
0.8157336220472441
21
0.5542319291338582
0
LINE
8
BLACK
6
CONTINUOUS
10
0.8157336220472441
20
0.5542319291338582
11
0.8157335826771653
21
0.5542319291338582
0
LINE
8
BLACK
6
CONTINUOUS
10
0.8157335826771653
20
0.5542319291338582
11
0.8213318503937008
21
0.5450259448818897
0
LINE
8
BLACK
6
CONTINUOUS
10
0.8213318503937008
20
0.5450259448818897
11
0.8281315748031496
21
0.5366679527559055
0
LINE
8
BLACK
6
CONTINUOUS
10
0.8281315748031496
20
0.5366679527559055
11
0.8360062992125984
21
0.5293134251968504
0
LINE
8
BLACK
6
CONTINUOUS
10
0.8360062992125984
20
0.5293134251968504
11
0.8448084645669292
21
0.5231001968503937
0
LINE
8
BLACK
6
CONTINUOUS
10
0.8448084645669292
20
0.5231001968503937
11
0.8448087007874016
21
0.5231000393700788
0
LINE
8
BLACK
6
CONTINUOUS
10
0.8448087007874016
20
0.5231000393700788
11
0.8448087795275591
21
0.5231
0
LINE
8
BLACK
6
CONTINUOUS
10
0.8448087795275591
20
0.5231
11
0.8543754330708662
21
0.5181429527559055
0
LINE
8
BLACK
6
CONTINUOUS
10
0.8543754330708662
20
0.5181429527559055
11
0.8543755511811023
21
0.5181429133858267
0
LINE
8
BLACK
6
CONTINUOUS
10
0.8543755511811023
20
0.5181429133858267
11
0.864527716535433
21
0.5145348031496063
0
LINE
8
BLACK
6
CONTINUOUS
10
0.864527716535433
20
0.5145348031496063
11
0.8645283464566929
21
0.5145346062992125
0
LINE
8
BLACK
6
CONTINUOUS
10
0.8645283464566929
20
0.5145346062992125
11
0.8720179133858268
21
0.5129783070866142
0
LINE
8
BLACK
6
CONTINUOUS
10
0.8720179133858268
20
0.5129783070866142
11
0.8750771653543307
21
0.5123425984251968
0
LINE
8
BLACK
6
CONTINUOUS
10
0.8750771653543307
20
0.5123425984251968
11
0.8750772047244094
21
0.5123425590551181
0
LINE
8
BLACK
6
CONTINUOUS
10
0.8750772047244094
20
0.5123425590551181
11
0.8757653937007874
21
0.5122955118110236
0
LINE
8
BLACK
6
CONTINUOUS
10
0.8757653937007874
20
0.5122955118110236
11
0.8858267716535433
21
0.511607283464567
0
LINE
8
BLACK
6
CONTINUOUS
10
0.8858267716535433
20
0.511607283464567
11
0.8965762992125984
21
0.5123425590551181
0
LINE
8
BLACK
6
CONTINUOUS
10
0.8965762992125984
20
0.5123425590551181
11
0.901323622047244
21
0.513329094488189
0
LINE
8
BLACK
6
CONTINUOUS
10
0.901323622047244
20
0.513329094488189
11
0.907125157480315
21
0.5145346062992125
0
LINE
8
BLACK
6
CONTINUOUS
10
0.907125157480315
20
0.5145346062992125
11
0.9071253937007874
21
0.5145347244094488
0
LINE
8
BLACK
6
CONTINUOUS
10
0.9071253937007874
20
0.5145347244094488
11
0.907125590551181
21
0.5145347244094488
0
LINE
8
BLACK
6
CONTINUOUS
10
0.907125590551181
20
0.5145347244094488
11
0.9172781102362204
21
0.5181429527559055
0
LINE
8
BLACK
6
CONTINUOUS
10
0.9172781102362204
20
0.5181429527559055
11
0.9268447637795275
21
0.5231
0
LINE
8
BLACK
6
CONTINUOUS
10
0.9268447637795275
20
0.5231
11
0.9356473228346457
21
0.5293135039370078
0
LINE
8
BLACK
6
CONTINUOUS
10
0.9356473228346457
20
0.5293135039370078
11
0.943521811023622
21
0.5366677952755905
0
LINE
8
BLACK
6
CONTINUOUS
10
0.943521811023622
20
0.5366677952755905
11
0.9503215748031496
21
0.5450257874015748
0
LINE
8
BLACK
6
CONTINUOUS
10
0.9503215748031496
20
0.5450257874015748
11
0.9554941732283464
21
0.5535318503937008
0
LINE
8
BLACK
6
CONTINUOUS
10
0.9554941732283464
20
0.5535318503937008
11
0.9575276771653544
21
0.5553842519685039
0
LINE
8
BLACK
6
CONTINUOUS
10
0.9575276771653544
20
0.5553842519685039
11
0.9602398818897637
21
0.5558432283464567
0
LINE
8
BLACK
6
CONTINUOUS
10
0.9602398818897637
20
0.5558432283464567
11
0.9627696850393701
21
0.554763031496063
0
LINE
8
BLACK
6
CONTINUOUS
10
0.9627696850393701
20
0.554763031496063
11
0.9643138976377953
21
0.5524865748031496
0
LINE
8
BLACK
6
CONTINUOUS
10
0.9643138976377953
20
0.5524865748031496
11
0.9645472440944882
21
0.5509952755905512
0
LINE
8
BLACK
6
CONTINUOUS
10
0.9645472440944882
20
0.5509952755905512
11
0.9645472440944882
21
0.4665354330708661
0
LINE
8
BLACK
6
CONTINUOUS
10
0.9645472440944882
20
0.4665354330708661
11
0.9706692913385827
21
0.4665354330708661
0
LINE
8
BLACK
6
CONTINUOUS
10
0.9706692913385827
20
0.4665354330708661
11
0.9706692913385827
21
0.4271653543307086
0
LINE
8
BLACK
6
CONTINUOUS
10
0.9706692913385827
20
0.4271653543307086
11
0.9645472440944882
21
0.4271653543307086
0
LINE
8
BLACK
6
CONTINUOUS
10
0.9645472440944882
20
0.4271653543307086
11
0.9645472440944882
21
0.383248031496063
0
LINE
8
BLACK
6
CONTINUOUS
10
0.9645472440944882
20
0.383248031496063
11
0.9637722440944881
21
0.3806087007874016
0
LINE
8
BLACK
6
CONTINUOUS
10
0.9637722440944881
20
0.3806087007874016
11
0.9616933464566929
21
0.3788073228346457
0
LINE
8
BLACK
6
CONTINUOUS
10
0.9616933464566929
20
0.3788073228346457
11
0.9596653543307087
21
0.3783661417322834
0
LINE
8
BLACK
6
CONTINUOUS
10
0.9596653543307087
20
0.3783661417322834
11
0.8700843700787402
21
0.3783661417322834
0
LINE
8
BLACK
6
CONTINUOUS
10
0.8700843700787402
20
0.3783661417322834
11
0.8700833464566929
21
0.378366062992126
0
LINE
8
BLACK
6
CONTINUOUS
10
0.8700833464566929
20
0.378366062992126
11
0.8690949606299212
21
0.3782514566929134
0
LINE
8
BLACK
6
CONTINUOUS
10
0.8690949606299212
20
0.3782514566929134
11
0.8690948031496063
21
0.3782513779527559
0
LINE
8
BLACK
6
CONTINUOUS
10
0.8690948031496063
20
0.3782513779527559
11
0.8650486220472441
21
0.376464842519685
0
LINE
8
BLACK
6
CONTINUOUS
10
0.8650486220472441
20
0.376464842519685
11
0.8619210236220473
21
0.3733372440944882
0
LINE
8
BLACK
6
CONTINUOUS
10
0.8619210236220473
20
0.3733372440944882
11
0.8601344488188977
21
0.3692911023622047
0
LINE
8
BLACK
6
CONTINUOUS
10
0.8601344488188977
20
0.3692911023622047
11
0.8601344488188977
21
0.3692910236220472
0
LINE
8
BLACK
6
CONTINUOUS
10
0.8601344488188977
20
0.3692910236220472
11
0.8600196850393701
21
0.3683018503937008
0
LINE
8
BLACK
6
CONTINUOUS
10
0.8600196850393701
20
0.3683018503937008
11
0.8600139763779527
21
0.368202874015748
0
LINE
8
BLACK
6
CONTINUOUS
10
0.8600139763779527
20
0.368202874015748
11
0.8600054330708661
21
0.3681790157480315
0
LINE
8
BLACK
6
CONTINUOUS
10
0.8600054330708661
20
0.3681790157480315
11
0.8600034251968504
21
0.3681616535433071
0
LINE
8
BLACK
6
CONTINUOUS
10
0.8600034251968504
20
0.3681616535433071
11
0.8599994094488189
21
0.368162125984252
0
LINE
8
BLACK
6
CONTINUOUS
10
0.8599994094488189
20
0.368162125984252
11
0.8590881496062992
21
0.3656125984251968
0
LINE
8
BLACK
6
CONTINUOUS
10
0.8590881496062992
20
0.3656125984251968
11
0.8569088976377952
21
0.3639340157480315
0
LINE
8
BLACK
6
CONTINUOUS
10
0.8569088976377952
20
0.3639340157480315
11
0.8551401968503937
21
0.3636023622047244
0
LINE
8
BLACK
6
CONTINUOUS
10
0.8551401968503937
20
0.3636023622047244
11
0.8027035826771654
21
0.3636023622047244
0
LINE
8
BLACK
6
CONTINUOUS
10
0.8027035826771654
20
0.3636023622047244
11
0.8000642519685039
21
0.3643773622047244
0
LINE
8
BLACK
6
CONTINUOUS
10
0.8000642519685039
20
0.3643773622047244
11
0.798262874015748
21
0.3664562598425197
0
LINE
8
BLACK
6
CONTINUOUS
10
0.798262874015748
20
0.3664562598425197
11
0.7978713779527559
21
0.3691790157480315
0
LINE
8
BLACK
6
CONTINUOUS
10
0.7978713779527559
20
0.3691790157480315
11
0.7981155118110236
21
0.3700688188976378
0
LINE
8
BLACK
6
CONTINUOUS
10
0.7981155118110236
20
0.3700688188976378
11
0.7981028346456692
21
0.3700726377952756
0
LINE
8
BLACK
6
CONTINUOUS
10
0.7981028346456692
20
0.3700726377952756
11
0.7981722834645669
21
0.3703017716535433
0
LINE
8
BLACK
6
CONTINUOUS
10
0.7981722834645669
20
0.3703017716535433
11
0.7981724409448818
21
0.3703020472440945
0
LINE
8
BLACK
6
CONTINUOUS
10
0.7981724409448818
20
0.3703020472440945
11
0.7992322834645669
21
0.3756301968503937
0
LINE
8
BLACK
6
CONTINUOUS
10
0.7992322834645669
20
0.3756301968503937
11
0.7992322834645669
21
0.3810627165354331
0
LINE
8
BLACK
6
CONTINUOUS
10
0.7992322834645669
20
0.3810627165354331
11
0.7992322834645669
21
0.3810628346456693
0
LINE
8
BLACK
6
CONTINUOUS
10
0.7992322834645669
20
0.3810628346456693
11
0.7981724803149606
21
0.3863906692913386
0
LINE
8
BLACK
6
CONTINUOUS
10
0.7981724803149606
20
0.3863906692913386
11
0.7981724409448818
21
0.3863907086614173
0
LINE
8
BLACK
6
CONTINUOUS
10
0.7981724409448818
20
0.3863907086614173
11
0.7981724409448818
21
0.3863908661417323
0
LINE
8
BLACK
6
CONTINUOUS
10
0.7981724409448818
20
0.3863908661417323
11
0.7980547244094488
21
0.3866750393700787
0
LINE
8
BLACK
6
CONTINUOUS
10
0.7980547244094488
20
0.3866750393700787
11
0.7960936220472441
21
0.3914096456692913
0
LINE
8
BLACK
6
CONTINUOUS
10
0.7960936220472441
20
0.3914096456692913
11
0.7960933464566929
21
0.3914101574803149
0
LINE
8
BLACK
6
CONTINUOUS
10
0.7960933464566929
20
0.3914101574803149
11
0.7930753543307086
21
0.3959268503937008
0
LINE
8
BLACK
6
CONTINUOUS
10
0.7930753543307086
20
0.3959268503937008
11
0.7930752362204724
21
0.3959270078740157
0
LINE
8
BLACK
6
CONTINUOUS
10
0.7930752362204724
20
0.3959270078740157
11
0.7892340551181102
21
0.3997681889763779
0
LINE
8
BLACK
6
CONTINUOUS
10
0.7892340551181102
20
0.3997681889763779
11
0.7892338976377953
21
0.3997683070866141
0
LINE
8
BLACK
6
CONTINUOUS
10
0.7892338976377953
20
0.3997683070866141
11
0.7847172047244094
21
0.4027862992125984
0
LINE
8
BLACK
6
CONTINUOUS
10
0.7847172047244094
20
0.4027862992125984
11
0.7847166929133859
21
0.4027865748031496
0
LINE
8
BLACK
6
CONTINUOUS
10
0.7847166929133859
20
0.4027865748031496
11
0.7796981102362205
21
0.4048653149606299
0
LINE
8
BLACK
6
CONTINUOUS
10
0.7796981102362205
20
0.4048653149606299
11
0.7796977165354331
21
0.4048654330708661
0
LINE
8
BLACK
6
CONTINUOUS
10
0.7796977165354331
20
0.4048654330708661
11
0.7743698818897637
21
0.4059251968503937
0
LINE
8
BLACK
6
CONTINUOUS
10
0.7743698818897637
20
0.4059251968503937
11
0.7743698031496062
21
0.4059251968503937
0
LINE
8
BLACK
6
CONTINUOUS
10
0.7743698031496062
20
0.4059251968503937
11
0.7689372834645669
21
0.4059251968503937
0
LINE
8
BLACK
6
CONTINUOUS
10
0.7689372834645669
20
0.4059251968503937
11
0.7689372047244094
21
0.4059251968503937
0
LINE
8
BLACK
6
CONTINUOUS
10
0.7689372047244094
20
0.4059251968503937
11
0.7636093307086614
21
0.4048654330708661
0
LINE
8
BLACK
6
CONTINUOUS
10
0.7636093307086614
20
0.4048654330708661
11
0.763608937007874
21
0.4048653149606299
0
LINE
8
BLACK
6
CONTINUOUS
10
0.763608937007874
20
0.4048653149606299
11
0.7585903543307086
21
0.4027865748031496
0
LINE
8
BLACK
6
CONTINUOUS
10
0.7585903543307086
20
0.4027865748031496
11
0.758589842519685
21
0.4027862992125984
0
LINE
8
BLACK
6
CONTINUOUS
10
0.758589842519685
20
0.4027862992125984
11
0.7540731496062992
21
0.3997683070866141
0
LINE
8
BLACK
6
CONTINUOUS
10
0.7540731496062992
20
0.3997683070866141
11
0.7540729921259842
21
0.3997681889763779
0
LINE
8
BLACK
6
CONTINUOUS
10
0.7540729921259842
20
0.3997681889763779
11
0.753785905511811
21
0.399481062992126
0
LINE
8
BLACK
6
CONTINUOUS
10
0.753785905511811
20
0.399481062992126
11
0.7513716141732283
21
0.3981627559055118
0
LINE
8
BLACK
6
CONTINUOUS
10
0.7513716141732283
20
0.3981627559055118
11
0.7503338976377952
21
0.3980511811023622
0
LINE
8
BLACK
6
CONTINUOUS
10
0.7503338976377952
20
0.3980511811023622
11
0.6648492913385826
21
0.3980511811023622
0
LINE
8
BLACK
6
CONTINUOUS
10
0.6648492913385826
20
0.3980511811023622
11
0.6622099606299212
21
0.3988261811023622
0
LINE
8
BLACK
6
CONTINUOUS
10
0.6622099606299212
20
0.3988261811023622
11
0.6604085826771653
21
0.4009050787401575
0
LINE
8
BLACK
6
CONTINUOUS
10
0.6604085826771653
20
0.4009050787401575
11
0.6600170866141732
21
0.4036278346456693
0
LINE
8
BLACK
6
CONTINUOUS
10
0.6600170866141732
20
0.4036278346456693
11
0.660790157480315
21
0.4056453149606299
0
LINE
8
BLACK
6
CONTINUOUS
10
0.660790157480315
20
0.4056453149606299
11
0.6638098818897638
21
0.4101646850393701
0
LINE
8
BLACK
6
CONTINUOUS
10
0.6638098818897638
20
0.4101646850393701
11
0.6638098818897638
21
0.4101647244094488
0
LINE
8
BLACK
6
CONTINUOUS
10
0.6638098818897638
20
0.4101647244094488
11
0.6638100393700788
21
0.4101649212598425
0
LINE
8
BLACK
6
CONTINUOUS
10
0.6638100393700788
20
0.4101649212598425
11
0.6658889763779527
21
0.415183937007874
0
LINE
8
BLACK
6
CONTINUOUS
10
0.6658889763779527
20
0.415183937007874
11
0.6669488188976378
21
0.4205120866141732
0
LINE
8
BLACK
6
CONTINUOUS
10
0.6669488188976378
20
0.4205120866141732
11
0.6669488188976378
21
0.4259446062992126
0
LINE
8
BLACK
6
CONTINUOUS
10
0.6669488188976378
20
0.4259446062992126
11
0.6669488188976378
21
0.4259447244094488
0
LINE
8
BLACK
6
CONTINUOUS
10
0.6669488188976378
20
0.4259447244094488
11
0.6658890157480315
21
0.4312725590551181
0
LINE
8
BLACK
6
CONTINUOUS
10
0.6658890157480315
20
0.4312725590551181
11
0.6658889763779527
21
0.4312725984251968
0
LINE
8
BLACK
6
CONTINUOUS
10
0.6658889763779527
20
0.4312725984251968
11
0.6658889763779527
21
0.4312727559055118
0
LINE
8
BLACK
6
CONTINUOUS
10
0.6658889763779527
20
0.4312727559055118
11
0.6658888976377952
21
0.4312729527559055
0
LINE
8
BLACK
6
CONTINUOUS
10
0.6658888976377952
20
0.4312729527559055
11
0.6638101574803149
21
0.4362915354330709
0
LINE
8
BLACK
6
CONTINUOUS
10
0.6638101574803149
20
0.4362915354330709
11
0.6638098818897638
21
0.4362920472440945
0
LINE
8
BLACK
6
CONTINUOUS
10
0.6638098818897638
20
0.4362920472440945
11
0.6607918897637796
21
0.4408087401574803
0
LINE
8
BLACK
6
CONTINUOUS
10
0.6607918897637796
20
0.4408087401574803
11
0.6607917716535433
21
0.4408088976377952
0
LINE
8
BLACK
6
CONTINUOUS
10
0.6607917716535433
20
0.4408088976377952
11
0.6569505905511811
21
0.4446500787401575
0
LINE
8
BLACK
6
CONTINUOUS
10
0.6569505905511811
20
0.4446500787401575
11
0.6569504330708661
21
0.4446501968503937
0
LINE
8
BLACK
6
CONTINUOUS
10
0.6569504330708661
20
0.4446501968503937
11
0.6524337401574803
21
0.4476681889763779
0
LINE
8
BLACK
6
CONTINUOUS
10
0.6524337401574803
20
0.4476681889763779
11
0.6524332283464567
21
0.4476684645669291
0
LINE
8
BLACK
6
CONTINUOUS
10
0.6524332283464567
20
0.4476684645669291
11
0.6474146456692913
21
0.4497472047244094
0
LINE
8
BLACK
6
CONTINUOUS
10
0.6474146456692913
20
0.4497472047244094
11
0.6474142519685039
21
0.4497473228346456
0
LINE
8
BLACK
6
CONTINUOUS
10
0.6474142519685039
20
0.4497473228346456
11
0.6420864173228347
21
0.4508070866141732
0
LINE
8
BLACK
6
CONTINUOUS
10
0.6420864173228347
20
0.4508070866141732
11
0.6420863385826772
21
0.4508070866141732
0
LINE
8
BLACK
6
CONTINUOUS
10
0.6420863385826772
20
0.4508070866141732
11
0.6366538188976378
21
0.4508070866141732
0
LINE
8
BLACK
6
CONTINUOUS
10
0.6366538188976378
20
0.4508070866141732
11
0.6366537401574803
21
0.4508070866141732
0
LINE
8
BLACK
6
CONTINUOUS
10
0.6366537401574803
20
0.4508070866141732
11
0.6313258661417323
21
0.4497473228346456
0
LINE
8
BLACK
6
CONTINUOUS
10
0.6313258661417323
20
0.4497473228346456
11
0.6313254724409448
21
0.4497472047244094
0
LINE
8
BLACK
6
CONTINUOUS
10
0.6313254724409448
20
0.4497472047244094
11
0.6263068897637795
21
0.4476684645669291
0
LINE
8
BLACK
6
CONTINUOUS
10
0.6263068897637795
20
0.4476684645669291
11
0.6263063779527559
21
0.4476681889763779
0
LINE
8
BLACK
6
CONTINUOUS
10
0.6263063779527559
20
0.4476681889763779
11
0.62178968503937
21
0.4446501968503937
0
LINE
8
BLACK
6
CONTINUOUS
10
0.62178968503937
20
0.4446501968503937
11
0.6217895275590551
21
0.4446500787401575
0
LINE
8
BLACK
6
CONTINUOUS
10
0.6217895275590551
20
0.4446500787401575
11
0.6215024409448818
21
0.4443629527559055
0
LINE
8
BLACK
6
CONTINUOUS
10
0.6215024409448818
20
0.4443629527559055
11
0.6190881496062992
21
0.4430446456692913
0
LINE
8
BLACK
6
CONTINUOUS
10
0.6190881496062992
20
0.4430446456692913
11
0.6180504330708662
21
0.4429330708661417
0
LINE
8
BLACK
6
CONTINUOUS
10
0.6180504330708662
20
0.4429330708661417
11
0.3989806299212598
21
0.4429330708661417
0
LINE
8
BLACK
6
CONTINUOUS
10
0.3989806299212598
20
0.4429330708661417
11
0.3939689763779528
21
0.4415902362204724
0
LINE
8
BLACK
6
CONTINUOUS
10
0.3939689763779528
20
0.4415902362204724
11
0.3894758267716535
21
0.438996062992126
0
LINE
8
BLACK
6
CONTINUOUS
10
0.3894758267716535
20
0.438996062992126
11
0.3894757086614173
21
0.4389959842519685
0
LINE
8
BLACK
6
CONTINUOUS
10
0.3894757086614173
20
0.4389959842519685
11
0.2914962598425197
21
0.3410164960629921
0
LINE
8
BLACK
6
CONTINUOUS
10
0.2914962598425197
20
0.3410164960629921
11
0.289081968503937
21
0.3396981889763779
0
LINE
8
BLACK
6
CONTINUOUS
10
0.289081968503937
20
0.3396981889763779
11
0.2880442519685039
21
0.3395866141732283
0
LINE
8
BLACK
6
CONTINUOUS
10
0.2880442519685039
20
0.3395866141732283
11
0.2302968503937008
21
0.3395866141732283
0
LINE
8
BLACK
6
CONTINUOUS
10
0.2302968503937008
20
0.3395866141732283
11
0.2276575196850394
21
0.3403616141732284
0
LINE
8
BLACK
6
CONTINUOUS
10
0.2276575196850394
20
0.3403616141732284
11
0.2273979133858268
21
0.3405405511811024
0
LINE
8
BLACK
6
CONTINUOUS
10
0.2273979133858268
20
0.3405405511811024
11
0.2259010236220472
21
0.3416453149606299
0
LINE
8
BLACK
6
CONTINUOUS
10
0.2259010236220472
20
0.3416453149606299
11
0.2259007874015748
21
0.3416454330708661
0
LINE
8
BLACK
6
CONTINUOUS
10
0.2259007874015748
20
0.3416454330708661
11
0.2208543307086614
21
0.3434112992125984
0
LINE
8
BLACK
6
CONTINUOUS
10
0.2208543307086614
20
0.3434112992125984
11
0.2196562992125984
21
0.3435236220472441
0
LINE
8
BLACK
6
CONTINUOUS
10
0.2196562992125984
20
0.3435236220472441
11
0.2196561417322835
21
0.3435236220472441
0
LINE
8
BLACK
6
CONTINUOUS
10
0.2196561417322835
20
0.3435236220472441
11
0.1602651181102362
21
0.3435236220472441
0
LINE
8
BLACK
6
CONTINUOUS
10
0.1602651181102362
20
0.3435236220472441
11
0.1602649606299213
21
0.3435236220472441
0
LINE
8
BLACK
6
CONTINUOUS
10
0.1602649606299213
20
0.3435236220472441
11
0.1590669291338583
21
0.3434112992125984
0
LINE
8
BLACK
6
CONTINUOUS
10
0.1590669291338583
20
0.3434112992125984
11
0.1590668503937008
21
0.3434112992125984
0
LINE
8
BLACK
6
CONTINUOUS
10
0.1590668503937008
20
0.3434112992125984
11
0.1540204330708661
21
0.3416454330708661
0
LINE
8
BLACK
6
CONTINUOUS
10
0.1540204330708661
20
0.3416454330708661
11
0.1540201968503937
21
0.3416453149606299
0
LINE
8
BLACK
6
CONTINUOUS
10
0.1540201968503937
20
0.3416453149606299
11
0.1525233464566929
21
0.3405405511811024
0
LINE
8
BLACK
6
CONTINUOUS
10
0.1525233464566929
20
0.3405405511811024
11
0.1517196850393701
21
0.3402470472440945
0
LINE
8
BLACK
6
CONTINUOUS
10
0.1517196850393701
20
0.3402470472440945
11
0.1509998031496063
21
0.3397843700787401
0
LINE
8
BLACK
6
CONTINUOUS
10
0.1509998031496063
20
0.3397843700787401
11
0.150098031496063
21
0.3396547244094488
0
LINE
8
BLACK
6
CONTINUOUS
10
0.150098031496063
20
0.3396547244094488
11
0.1499395275590551
21
0.339596811023622
0
LINE
8
BLACK
6
CONTINUOUS
10
0.1499395275590551
20
0.339596811023622
11
0.1496244094488189
21
0.3395866141732283
0
LINE
8
BLACK
6
CONTINUOUS
10
0.1496244094488189
20
0.3395866141732283
11
0.1443117716535433
21
0.3395866141732283
0
LINE
8
BLACK
6
CONTINUOUS
10
0.1443117716535433
20
0.3395866141732283
11
0.1416724409448819
21
0.3403616141732284
0
LINE
8
BLACK
6
CONTINUOUS
10
0.1416724409448819
20
0.3403616141732284
11
0.139871062992126
21
0.3424405118110236
0
LINE
8
BLACK
6
CONTINUOUS
10
0.139871062992126
20
0.3424405118110236
11
0.1394795669291339
21
0.3451632677165354
0
LINE
8
BLACK
6
CONTINUOUS
10
0.1394795669291339
20
0.3451632677165354
11
0.1406222834645669
21
0.3476654724409449
0
LINE
8
BLACK
6
CONTINUOUS
10
0.1406222834645669
20
0.3476654724409449
11
0.1408597637795276
21
0.3479205118110236
0
LINE
8
BLACK
6
CONTINUOUS
10
0.1408597637795276
20
0.3479205118110236
11
0.144453188976378
21
0.3515139763779527
0
LINE
8
BLACK
6
CONTINUOUS
10
0.144453188976378
20
0.3515139763779527
11
0.1444533070866142
21
0.351514094488189
0
LINE
8
BLACK
6
CONTINUOUS
10
0.1444533070866142
20
0.351514094488189
11
0.1474714566929134
21
0.356031062992126
0
LINE
8
BLACK
6
CONTINUOUS
10
0.1474714566929134
20
0.356031062992126
11
0.1495503937007874
21
0.3610500787401575
0
LINE
8
BLACK
6
CONTINUOUS
10
0.1495503937007874
20
0.3610500787401575
11
0.1506102362204724
21
0.3663782283464567
0
LINE
8
BLACK
6
CONTINUOUS
10
0.1506102362204724
20
0.3663782283464567
11
0.1506102362204724
21
0.3718107480314961
0
LINE
8
BLACK
6
CONTINUOUS
10
0.1506102362204724
20
0.3718107480314961
11
0.1506102362204724
21
0.3718108661417323
0
LINE
8
BLACK
6
CONTINUOUS
10
0.1506102362204724
20
0.3718108661417323
11
0.1495504330708661
21
0.3771387007874016
0
LINE
8
BLACK
6
CONTINUOUS
10
0.1495504330708661
20
0.3771387007874016
11
0.1495503937007874
21
0.3771387401574803
0
LINE
8
BLACK
6
CONTINUOUS
10
0.1495503937007874
20
0.3771387401574803
11
0.1495503937007874
21
0.3771388976377953
0
LINE
8
BLACK
6
CONTINUOUS
10
0.1495503937007874
20
0.3771388976377953
11
0.1488593307086614
21
0.3788073228346457
0
LINE
8
BLACK
6
CONTINUOUS
10
0.1488593307086614
20
0.3788073228346457
11
0.1474715748031496
21
0.3821576771653543
0
LINE
8
BLACK
6
CONTINUOUS
10
0.1474715748031496
20
0.3821576771653543
11
0.1474712992125984
21
0.3821581889763779
0
LINE
8
BLACK
6
CONTINUOUS
10
0.1474712992125984
20
0.3821581889763779
11
0.1444533070866142
21
0.3866748818897638
0
LINE
8
BLACK
6
CONTINUOUS
10
0.1444533070866142
20
0.3866748818897638
11
0.144453188976378
21
0.3866750393700787
0
LINE
8
BLACK
6
CONTINUOUS
10
0.144453188976378
20
0.3866750393700787
11
0.1406120078740157
21
0.3905162204724409
0
LINE
8
BLACK
6
CONTINUOUS
10
0.1406120078740157
20
0.3905162204724409
11
0.1406118503937008
21
0.3905163385826771
0
LINE
8
BLACK
6
CONTINUOUS
10
0.1406118503937008
20
0.3905163385826771
11
0.1360951574803149
21
0.3935343307086614
0
LINE
8
BLACK
6
CONTINUOUS
10
0.1360951574803149
20
0.3935343307086614
11
0.1360946456692913
21
0.3935346062992126
0
LINE
8
BLACK
6
CONTINUOUS
10
0.1360946456692913
20
0.3935346062992126
11
0.131076062992126
21
0.3956133464566929
0
LINE
8
BLACK
6
CONTINUOUS
10
0.131076062992126
20
0.3956133464566929
11
0.1310756692913386
21
0.3956134645669291
0
LINE
8
BLACK
6
CONTINUOUS
10
0.1310756692913386
20
0.3956134645669291
11
0.1257478346456693
21
0.3966732283464567
0
LINE
8
BLACK
6
CONTINUOUS
10
0.1257478346456693
20
0.3966732283464567
11
0.1257477559055118
21
0.3966732283464567
0
LINE
8
BLACK
6
CONTINUOUS
10
0.1257477559055118
20
0.3966732283464567
11
0.1203152362204724
21
0.3966732283464567
0
LINE
8
BLACK
6
CONTINUOUS
10
0.1203152362204724
20
0.3966732283464567
11
0.120315157480315
21
0.3966732283464567
0
LINE
8
BLACK
6
CONTINUOUS
10
0.120315157480315
20
0.3966732283464567
11
0.1149872834645669
21
0.3956134645669291
0
LINE
8
BLACK
6
CONTINUOUS
10
0.1149872834645669
20
0.3956134645669291
11
0.1149868897637795
21
0.3956133464566929
0
LINE
8
BLACK
6
CONTINUOUS
10
0.1149868897637795
20
0.3956133464566929
11
0.1099683070866142
21
0.3935346062992126
0
LINE
8
BLACK
6
CONTINUOUS
10
0.1099683070866142
20
0.3935346062992126
11
0.1099677952755905
21
0.3935343307086614
0
LINE
8
BLACK
6
CONTINUOUS
10
0.1099677952755905
20
0.3935343307086614
11
0.1054511023622047
21
0.3905163385826771
0
LINE
8
BLACK
6
CONTINUOUS
10
0.1054511023622047
20
0.3905163385826771
11
0.1054509448818898
21
0.3905162204724409
0
LINE
8
BLACK
6
CONTINUOUS
10
0.1054509448818898
20
0.3905162204724409
11
0.1016097637795276
21
0.3866750393700787
0
LINE
8
BLACK
6
CONTINUOUS
10
0.1016097637795276
20
0.3866750393700787
11
0.1016095275590551
21
0.3866747244094488
0
LINE
8
BLACK
6
CONTINUOUS
10
0.1016095275590551
20
0.3866747244094488
11
0.0985915748031496
21
0.382158031496063
0
LINE
8
BLACK
6
CONTINUOUS
10
0.0985915748031496
20
0.382158031496063
11
0.0985915354330709
21
0.3821579921259842
0
LINE
8
BLACK
6
CONTINUOUS
10
0.0985915354330709
20
0.3821579921259842
11
0.0969012992125984
21
0.3780774409448819
0
LINE
8
BLACK
6
CONTINUOUS
10
0.0969012992125984
20
0.3780774409448819
11
0.095843031496063
21
0.3764937007874016
0
LINE
8
BLACK
6
CONTINUOUS
10
0.095843031496063
20
0.3764937007874016
11
0.0643500393700787
21
0.3450006692913386
0
LINE
8
BLACK
6
CONTINUOUS
10
0.0643500393700787
20
0.3450006692913386
11
0.0643499606299213
21
0.3450005511811023
0
LINE
8
BLACK
6
CONTINUOUS
10
0.0643499606299213
20
0.3450005511811023
11
0.0620198818897638
21
0.3409646456692914
0
LINE
8
BLACK
6
CONTINUOUS
10
0.0620198818897638
20
0.3409646456692914
11
0.062019842519685
21
0.3409646850393701
0
LINE
8
BLACK
6
CONTINUOUS
10
0.062019842519685
20
0.3409646850393701
11
0.0614967322834646
21
0.3400585433070866
0
LINE
8
BLACK
6
CONTINUOUS
10
0.0614967322834646
20
0.3400585433070866
11
0.0614966929133858
21
0.3400584645669291
0
LINE
8
BLACK
6
CONTINUOUS
10
0.0614966929133858
20
0.3400584645669291
11
0.0600196850393701
21
0.3345462598425197
0
LINE
8
BLACK
6
CONTINUOUS
10
0.0600196850393701
20
0.3345462598425197
11
0.0600196850393701
21
0.2597430708661417
0
LINE
8
BLACK
6
CONTINUOUS
10
0.0600196850393701
20
0.2597430708661417
11
0.0600196850393701
21
0.2540364566929134
0
LINE
8
BLACK
6
CONTINUOUS
10
0.0600196850393701
20
0.2540364566929134
11
0.0614966929133858
21
0.2485242125984252
0
LINE
8
BLACK
6
CONTINUOUS
10
0.0614966929133858
20
0.2485242125984252
11
0.06435
21
0.2435820866141732
0
LINE
8
BLACK
6
CONTINUOUS
10
0.06435
20
0.2435820866141732
11
0.1038183070866142
21
0.204113779527559
0
LINE
8
BLACK
6
CONTINUOUS
10
0.1038183070866142
20
0.204113779527559
11
0.1075983858267717
21
0.2019313779527559
0
LINE
8
BLACK
6
CONTINUOUS
10
0.1075983858267717
20
0.2019313779527559
11
0.1087604330708661
21
0.2012604724409449
0
LINE
8
BLACK
6
CONTINUOUS
10
0.1087604330708661
20
0.2012604724409449
11
0.1142726377952756
21
0.1997834645669291
0
LINE
8
BLACK
6
CONTINUOUS
10
0.1142726377952756
20
0.1997834645669291
11
0.1529329133858268
21
0.1997834645669291
0
LINE
8
BLACK
6
CONTINUOUS
10
0.1529329133858268
20
0.1997834645669291
11
0.1545453149606299
21
0.1995094881889764
0
LINE
8
BLACK
6
CONTINUOUS
10
0.1545453149606299
20
0.1995094881889764
11
0.1590668503937008
21
0.1979273622047244
0
LINE
8
BLACK
6
CONTINUOUS
10
0.1590668503937008
20
0.1979273622047244
11
0.1590669291338583
21
0.1979273228346457
0
LINE
8
BLACK
6
CONTINUOUS
10
0.1590669291338583
20
0.1979273228346457
11
0.1602649606299213
21
0.1978149606299213
0
LINE
8
BLACK
6
CONTINUOUS
10
0.1602649606299213
20
0.1978149606299213
11
0.1602651181102362
21
0.1978149606299213
0
LINE
8
BLACK
6
CONTINUOUS
10
0.1602651181102362
20
0.1978149606299213
11
0.2196562992125984
21
0.1978149606299213
0
LINE
8
BLACK
6
CONTINUOUS
10
0.2196562992125984
20
0.1978149606299213
11
0.2208542913385827
21
0.1979273228346457
0
LINE
8
BLACK
6
CONTINUOUS
10
0.2208542913385827
20
0.1979273228346457
11
0.2208543700787401
21
0.1979273228346457
0
LINE
8
BLACK
6
CONTINUOUS
10
0.2208543700787401
20
0.1979273228346457
11
0.2233775590551181
21
0.1988102755905512
0
LINE
8
BLACK
6
CONTINUOUS
10
0.2233775590551181
20
0.1988102755905512
11
0.2259008661417323
21
0.1996931889763779
0
LINE
8
BLACK
6
CONTINUOUS
10
0.2259008661417323
20
0.1996931889763779
11
0.2302027559055118
21
0.2028681102362205
0
LINE
8
BLACK
6
CONTINUOUS
10
0.2302027559055118
20
0.2028681102362205
11
0.2333776771653543
21
0.20717
0
LINE
8
BLACK
6
CONTINUOUS
10
0.2333776771653543
20
0.20717
11
0.2345263779527559
21
0.2104527952755905
0
LINE
8
BLACK
6
CONTINUOUS
10
0.2345263779527559
20
0.2104527952755905
11
0.2351435433070866
21
0.2122164960629921
0
LINE
8
BLACK
6
CONTINUOUS
10
0.2351435433070866
20
0.2122164960629921
11
0.2351435433070866
21
0.2122165748031496
0
LINE
8
BLACK
6
CONTINUOUS
10
0.2351435433070866
20
0.2122165748031496
11
0.235255905511811
21
0.2134146062992126
0
LINE
8
BLACK
6
CONTINUOUS
10
0.235255905511811
20
0.2134146062992126
11
0.235255905511811
21
0.2294988188976378
0
LINE
8
BLACK
6
CONTINUOUS
10
0.235255905511811
20
0.2294988188976378
11
0.2351435433070866
21
0.2306968503937008
0
LINE
8
BLACK
6
CONTINUOUS
10
0.2351435433070866
20
0.2306968503937008
11
0.2351435433070866
21
0.2306969291338583
0
LINE
8
BLACK
6
CONTINUOUS
10
0.2351435433070866
20
0.2306969291338583
11
0.2334665748031496
21
0.2354892913385827
0
LINE
8
BLACK
6
CONTINUOUS
10
0.2334665748031496
20
0.2354892913385827
11
0.2333776771653543
21
0.2357433858267717
0
LINE
8
BLACK
6
CONTINUOUS
10
0.2333776771653543
20
0.2357433858267717
11
0.2302027559055118
21
0.2400452755905512
0
LINE
8
BLACK
6
CONTINUOUS
10
0.2302027559055118
20
0.2400452755905512
11
0.2284394881889764
21
0.2413466141732283
0
LINE
8
BLACK
6
CONTINUOUS
10
0.2284394881889764
20
0.2413466141732283
11
0.2273711811023622
21
0.2421350787401575
0
LINE
8
BLACK
6
CONTINUOUS
10
0.2273711811023622
20
0.2421350787401575
11
0.2267207874015748
21
0.2429916929133858
0
LINE
8
BLACK
6
CONTINUOUS
10
0.2267207874015748
20
0.2429916929133858
11
0.2259665748031496
21
0.2437582677165354
0
LINE
8
BLACK
6
CONTINUOUS
10
0.2259665748031496
20
0.2437582677165354
11
0.2259011417322835
21
0.2440712598425197
0
LINE
8
BLACK
6
CONTINUOUS
10
0.2259011417322835
20
0.2440712598425197
11
0.2257077559055118
21
0.2443259448818897
0
LINE
8
BLACK
6
CONTINUOUS
10
0.2257077559055118
20
0.2443259448818897
11
0.2256237007874016
21
0.2453983464566929
0
LINE
8
BLACK
6
CONTINUOUS
10
0.2256237007874016
20
0.2453983464566929
11
0.2254037007874016
21
0.2464508661417323
0
LINE
8
BLACK
6
CONTINUOUS
10
0.2254037007874016
20
0.2464508661417323
11
0.2255178346456693
21
0.2467495275590551
0
LINE
8
BLACK
6
CONTINUOUS
10
0.2255178346456693
20
0.2467495275590551
11
0.225492874015748
21
0.2470683070866142
0
LINE
8
BLACK
6
CONTINUOUS
10
0.225492874015748
20
0.2470683070866142
11
0.2260018897637795
21
0.2480157480314961
0
LINE
8
BLACK
6
CONTINUOUS
10
0.2260018897637795
20
0.2480157480314961
11
0.226385905511811
21
0.2490203149606299
0
LINE
8
BLACK
6
CONTINUOUS
10
0.226385905511811
20
0.2490203149606299
11
0.2267161811023622
21
0.2493453149606299
0
LINE
8
BLACK
6
CONTINUOUS
10
0.2267161811023622
20
0.2493453149606299
11
0.2267947637795276
21
0.2494914960629921
0
LINE
8
BLACK
6
CONTINUOUS
10
0.2267947637795276
20
0.2494914960629921
11
0.2273759448818898
21
0.2499944881889764
0
LINE
8
BLACK
6
CONTINUOUS
10
0.2273759448818898
20
0.2499944881889764
11
0.2274031102362205
21
0.2500145275590551
0
LINE
8
BLACK
6
CONTINUOUS
10
0.2274031102362205
20
0.2500145275590551
11
0.2299881496062992
21
0.2509548031496063
0
LINE
8
BLACK
6
CONTINUOUS
10
0.2299881496062992
20
0.2509548031496063
11
0.2302968503937008
21
0.2509645669291338
0
LINE
8
BLACK
6
CONTINUOUS
10
0.2302968503937008
20
0.2509645669291338
11
0.2412592519685039
21
0.2509645669291338
0
LINE
8
BLACK
6
CONTINUOUS
10
0.2412592519685039
20
0.2509645669291338
11
0.2438985826771654
21
0.2501895669291339
0
LINE
8
BLACK
6
CONTINUOUS
10
0.2438985826771654
20
0.2501895669291339
11
0.2439714960629921
21
0.250141811023622
0
LINE
8
BLACK
6
CONTINUOUS
10
0.2439714960629921
20
0.250141811023622
11
0.2483536220472441
21
0.2472137401574803
0
LINE
8
BLACK
6
CONTINUOUS
10
0.2483536220472441
20
0.2472137401574803
11
0.2483541338582677
21
0.2472134645669291
0
LINE
8
BLACK
6
CONTINUOUS
10
0.2483541338582677
20
0.2472134645669291
11
0.2533727165354331
21
0.2451347244094488
0
LINE
8
BLACK
6
CONTINUOUS
10
0.2533727165354331
20
0.2451347244094488
11
0.2533729133858268
21
0.2451346456692913
0
LINE
8
BLACK
6
CONTINUOUS
10
0.2533729133858268
20
0.2451346456692913
11
0.2533730708661417
21
0.2451346456692913
0
LINE
8
BLACK
6
CONTINUOUS
10
0.2533730708661417
20
0.2451346456692913
11
0.2533731102362204
21
0.2451346062992126
0
LINE
8
BLACK
6
CONTINUOUS
10
0.2533731102362204
20
0.2451346062992126
11
0.2587009448818898
21
0.2440748031496063
0
LINE
8
BLACK
6
CONTINUOUS
10
0.2587009448818898
20
0.2440748031496063
11
0.258701062992126
21
0.2440748031496063
0
LINE
8
BLACK
6
CONTINUOUS
10
0.258701062992126
20
0.2440748031496063
11
0.2641336614173228
21
0.2440748031496063
0
LINE
8
BLACK
6
CONTINUOUS
10
0.2641336614173228
20
0.2440748031496063
11
0.2677181496062992
21
0.2447878346456693
0
LINE
8
BLACK
6
CONTINUOUS
10
0.2677181496062992
20
0.2447878346456693
11
0.2694617322834645
21
0.2451346456692913
0
LINE
8
BLACK
6
CONTINUOUS
10
0.2694617322834645
20
0.2451346456692913
11
0.2744807480314961
21
0.2472135826771653
0
LINE
8
BLACK
6
CONTINUOUS
10
0.2744807480314961
20
0.2472135826771653
11
0.278997716535433
21
0.2502317322834646
0
LINE
8
BLACK
6
CONTINUOUS
10
0.278997716535433
20
0.2502317322834646
11
0.27914
21
0.2503740157480315
0
LINE
8
BLACK
6
CONTINUOUS
10
0.27914
20
0.2503740157480315
11
0.2792849606299213
21
0.250518937007874
0
LINE
8
BLACK
6
CONTINUOUS
10
0.2792849606299213
20
0.250518937007874
11
0.2816992519685039
21
0.2518372440944882
0
LINE
8
BLACK
6
CONTINUOUS
10
0.2816992519685039
20
0.2518372440944882
11
0.282736968503937
21
0.2519488188976378
0
LINE
8
BLACK
6
CONTINUOUS
10
0.282736968503937
20
0.2519488188976378
11
0.3317279527559055
21
0.2519488188976378
0
LINE
8
BLACK
6
CONTINUOUS
10
0.3317279527559055
20
0.2519488188976378
11
0.331728031496063
21
0.2519488188976378
0
LINE
8
BLACK
6
CONTINUOUS
10
0.331728031496063
20
0.2519488188976378
11
0.3367396062992126
21
0.2532916535433071
0
LINE
8
BLACK
6
CONTINUOUS
10
0.3367396062992126
20
0.2532916535433071
11
0.3412328346456693
21
0.2558858267716536
0
LINE
8
BLACK
6
CONTINUOUS
10
0.3412328346456693
20
0.2558858267716536
11
0.3854722440944882
21
0.3001252362204724
0
LINE
8
BLACK
6
CONTINUOUS
10
0.3854722440944882
20
0.3001252362204724
11
0.3865323622047244
21
0.3007041338582677
0
LINE
8
BLACK
6
CONTINUOUS
10
0.3865323622047244
20
0.3007041338582677
11
0.3875488582677165
21
0.3013573622047244
0
LINE
8
BLACK
6
CONTINUOUS
10
0.3875488582677165
20
0.3013573622047244
11
0.3877929527559055
21
0.3013924803149606
0
LINE
8
BLACK
6
CONTINUOUS
10
0.3877929527559055
20
0.3013924803149606
11
0.3878865354330708
21
0.3014435433070866
0
LINE
8
BLACK
6
CONTINUOUS
10
0.3878865354330708
20
0.3014435433070866
11
0.3889242519685039
21
0.3015551181102362
0
LINE
8
BLACK
6
CONTINUOUS
10
0.3889242519685039
20
0.3015551181102362
11
0.3953123622047244
21
0.3015551181102362
0
LINE
8
BLACK
6
CONTINUOUS
10
0.3953123622047244
20
0.3015551181102362
11
0.3979516929133858
21
0.3007801181102362
0
LINE
8
BLACK
6
CONTINUOUS
10
0.3979516929133858
20
0.3007801181102362
11
0.3997530708661417
21
0.298701220472441
0
LINE
8
BLACK
6
CONTINUOUS
10
0.3997530708661417
20
0.298701220472441
11
0.3997766535433071
21
0.2986487007874016
0
LINE
8
BLACK
6
CONTINUOUS
10
0.3997766535433071
20
0.2986487007874016
11
0.4002103937007874
21
0.2976664173228347
0
LINE
8
BLACK
6
CONTINUOUS
10
0.4002103937007874
20
0.2976664173228347
11
0.4002215748031496
21
0.2976411023622047
0
LINE
8
BLACK
6
CONTINUOUS
10
0.4002215748031496
20
0.2976411023622047
11
0.4005786220472441
21
0.2949135826771653
0
LINE
8
BLACK
6
CONTINUOUS
10
0.4005786220472441
20
0.2949135826771653
11
0.4002215748031496
21
0.2936975196850394
0
LINE
8
BLACK
6
CONTINUOUS
10
0.4002215748031496
20
0.2936975196850394
11
0.3997013779527559
21
0.2925193700787401
0
LINE
8
BLACK
6
CONTINUOUS
10
0.3997013779527559
20
0.2925193700787401
11
0.3995866141732283
21
0.2915302755905512
0
LINE
8
BLACK
6
CONTINUOUS
10
0.3995866141732283
20
0.2915302755905512
11
0.3995866141732283
21
0.2486277165354331
0
LINE
8
BLACK
6
CONTINUOUS
10
0.3995866141732283
20
0.2486277165354331
11
0.3995866929133858
21
0.2486266929133858
0
LINE
8
BLACK
6
CONTINUOUS
10
0.3995866929133858
20
0.2486266929133858
11
0.3997012992125984
21
0.2476383070866142
0
LINE
8
BLACK
6
CONTINUOUS
10
0.3997012992125984
20
0.2476383070866142
11
0.3997013779527559
21
0.2476381496062992
0
LINE
8
BLACK
6
CONTINUOUS
10
0.3997013779527559
20
0.2476381496062992
11
0.4014879133858268
21
0.243591968503937
0
LINE
8
BLACK
6
CONTINUOUS
10
0.4014879133858268
20
0.243591968503937
11
0.4014879527559055
21
0.2435919291338583
0
LINE
8
BLACK
6
CONTINUOUS
10
0.4014879527559055
20
0.2435919291338583
11
0.4046155511811024
21
0.2404643307086614
0
LINE
8
BLACK
6
CONTINUOUS
10
0.4046155511811024
20
0.2404643307086614
11
0.4086617716535433
21
0.2386777559055118
0
LINE
8
BLACK
6
CONTINUOUS
10
0.4086617716535433
20
0.2386777559055118
11
0.4096509842519685
21
0.2385629921259843
0
LINE
8
BLACK
6
CONTINUOUS
10
0.4096509842519685
20
0.2385629921259843
11
0.4722387401574803
21
0.238563031496063
0
LINE
8
BLACK
6
CONTINUOUS
10
0.4722387401574803
20
0.238563031496063
11
0.4722393307086614
21
0.2385631102362205
0
LINE
8
BLACK
6
CONTINUOUS
10
0.4722393307086614
20
0.2385631102362205
11
0.4722394488188976
21
0.2385631102362205
0
LINE
8
BLACK
6
CONTINUOUS
10
0.4722394488188976
20
0.2385631102362205
11
0.4732278346456693
21
0.2386777165354331
0
LINE
8
BLACK
6
CONTINUOUS
10
0.4732278346456693
20
0.2386777165354331
11
0.473227874015748
21
0.2386777559055118
0
LINE
8
BLACK
6
CONTINUOUS
10
0.473227874015748
20
0.2386777559055118
11
0.4732279921259843
21
0.2386777559055118
0
LINE
8
BLACK
6
CONTINUOUS
10
0.4732279921259843
20
0.2386777559055118
11
0.4772742125984252
21
0.2404643307086614
0
LINE
8
BLACK
6
CONTINUOUS
10
0.4772742125984252
20
0.2404643307086614
11
0.4804018110236221
21
0.2435919291338583
0
LINE
8
BLACK
6
CONTINUOUS
10
0.4804018110236221
20
0.2435919291338583
11
0.4815663385826772
21
0.2462293307086614
0
LINE
8
BLACK
6
CONTINUOUS
10
0.4815663385826772
20
0.2462293307086614
11
0.4821115354330708
21
0.2474640551181102
0
LINE
8
BLACK
6
CONTINUOUS
10
0.4821115354330708
20
0.2474640551181102
11
0.4838865748031496
21
0.2495654724409449
0
LINE
8
BLACK
6
CONTINUOUS
10
0.4838865748031496
20
0.2495654724409449
11
0.4865159448818898
21
0.2503736220472441
0
LINE
8
BLACK
6
CONTINUOUS
10
0.4865159448818898
20
0.2503736220472441
11
0.4865774409448819
21
0.2503740157480315
0
LINE
8
BLACK
6
CONTINUOUS
10
0.4865774409448819
20
0.2503740157480315
11
0.4976745669291339
21
0.2503740157480315
0
LINE
8
BLACK
6
CONTINUOUS
10
0.4976745669291339
20
0.2503740157480315
11
0.498376968503937
21
0.2501677559055118
0
LINE
8
BLACK
6
CONTINUOUS
10
0.498376968503937
20
0.2501677559055118
11
0.4991090157480315
21
0.2501585039370079
0
LINE
8
BLACK
6
CONTINUOUS
10
0.4991090157480315
20
0.2501585039370079
11
0.4996694488188976
21
0.2497882677165354
0
LINE
8
BLACK
6
CONTINUOUS
10
0.4996694488188976
20
0.2497882677165354
11
0.5003138976377952
21
0.2495990157480315
0
LINE
8
BLACK
6
CONTINUOUS
10
0.5003138976377952
20
0.2495990157480315
11
0.5007932283464567
21
0.2490458661417323
0
LINE
8
BLACK
6
CONTINUOUS
10
0.5007932283464567
20
0.2490458661417323
11
0.5014041338582677
21
0.2486422440944882
0
LINE
8
BLACK
6
CONTINUOUS
10
0.5014041338582677
20
0.2486422440944882
11
0.5020798818897637
21
0.2475609448818898
0
LINE
8
BLACK
6
CONTINUOUS
10
0.5020798818897637
20
0.2475609448818898
11
0.5021152755905511
21
0.2475201181102362
0
LINE
8
BLACK
6
CONTINUOUS
10
0.5021152755905511
20
0.2475201181102362
11
0.5021392913385827
21
0.2474666535433071
0
LINE
8
BLACK
6
CONTINUOUS
10
0.5021392913385827
20
0.2474666535433071
11
0.5022509842519685
21
0.2472137401574803
0
LINE
8
BLACK
6
CONTINUOUS
10
0.5022509842519685
20
0.2472137401574803
11
0.5025837795275591
21
0.24646
0
LINE
8
BLACK
6
CONTINUOUS
10
0.5025837795275591
20
0.24646
11
0.5029408267716535
21
0.2437324803149606
0
LINE
8
BLACK
6
CONTINUOUS
10
0.5029408267716535
20
0.2437324803149606
11
0.5025837795275591
21
0.2425164173228346
0
LINE
8
BLACK
6
CONTINUOUS
10
0.5025837795275591
20
0.2425164173228346
11
0.5020635826771653
21
0.2413382677165354
0
LINE
8
BLACK
6
CONTINUOUS
10
0.5020635826771653
20
0.2413382677165354
11
0.5019488188976378
21
0.2403491732283465
0
LINE
8
BLACK
6
CONTINUOUS
10
0.5019488188976378
20
0.2403491732283465
11
0.5019488188976378
21
0.1974466141732283
0
LINE
8
BLACK
6
CONTINUOUS
10
0.5019488188976378
20
0.1974466141732283
11
0.5019488976377953
21
0.1974455905511811
0
LINE
8
BLACK
6
CONTINUOUS
10
0.5019488976377953
20
0.1974455905511811
11
0.5020635039370078
21
0.1964572047244094
0
LINE
8
BLACK
6
CONTINUOUS
10
0.5020635039370078
20
0.1964572047244094
11
0.5020635826771653
21
0.1964570472440945
0
LINE
8
BLACK
6
CONTINUOUS
10
0.5020635826771653
20
0.1964570472440945
11
0.5038501181102362
21
0.1924108661417323
0
LINE
8
BLACK
6
CONTINUOUS
10
0.5038501181102362
20
0.1924108661417323
11
0.5038501574803149
21
0.1924108267716535
0
LINE
8
BLACK
6
CONTINUOUS
10
0.5038501574803149
20
0.1924108267716535
11
0.5069777559055118
21
0.1892832283464567
0
LINE
8
BLACK
6
CONTINUOUS
10
0.5069777559055118
20
0.1892832283464567
11
0.5110239763779527
21
0.1874966535433071
0
LINE
8
BLACK
6
CONTINUOUS
10
0.5110239763779527
20
0.1874966535433071
11
0.5120131889763779
21
0.1873818897637795
0
LINE
8
BLACK
6
CONTINUOUS
10
0.5120131889763779
20
0.1873818897637795
11
0.5183267716535434
21
0.1873819291338583
0
LINE
8
BLACK
6
CONTINUOUS
10
0.5183267716535434
20
0.1873819291338583
11
0.5186687007874016
21
0.1872815354330709
0
LINE
8
BLACK
6
CONTINUOUS
10
0.5186687007874016
20
0.1872815354330709
11
0.5190215354330708
21
0.1873322440944882
0
LINE
8
BLACK
6
CONTINUOUS
10
0.5190215354330708
20
0.1873322440944882
11
0.5199678740157481
21
0.1869000787401575
0
LINE
8
BLACK
6
CONTINUOUS
10
0.5199678740157481
20
0.1869000787401575
11
0.5209661023622048
21
0.186606968503937
0
LINE
8
BLACK
6
CONTINUOUS
10
0.5209661023622048
20
0.186606968503937
11
0.5211994881889763
21
0.1863375984251968
0
LINE
8
BLACK
6
CONTINUOUS
10
0.5211994881889763
20
0.1863375984251968
11
0.5215237401574803
21
0.1861895275590551
0
LINE
8
BLACK
6
CONTINUOUS
10
0.5215237401574803
20
0.1861895275590551
11
0.5220861811023622
21
0.1853142913385827
0
LINE
8
BLACK
6
CONTINUOUS
10
0.5220861811023622
20
0.1853142913385827
11
0.5227674803149606
21
0.1845280708661417
0
LINE
8
BLACK
6
CONTINUOUS
10
0.5227674803149606
20
0.1845280708661417
11
0.5228575196850394
21
0.184114094488189
0
LINE
8
BLACK
6
CONTINUOUS
10
0.5228575196850394
20
0.184114094488189
11
0.5230109055118111
21
0.1838754330708662
0
LINE
8
BLACK
6
CONTINUOUS
10
0.5230109055118111
20
0.1838754330708662
11
0.5232086614173228
21
0.1825000393700787
0
LINE
8
BLACK
6
CONTINUOUS
10
0.5232086614173228
20
0.1825000393700787
11
0.5232086614173228
21
0.1756503543307087
0
LINE
8
BLACK
6
CONTINUOUS
10
0.5232086614173228
20
0.1756503543307087
11
0.5224336614173228
21
0.1730110236220472
0
LINE
8
BLACK
6
CONTINUOUS
10
0.5224336614173228
20
0.1730110236220472
11
0.521778779527559
21
0.1721983464566929
0
LINE
8
BLACK
6
CONTINUOUS
10
0.521778779527559
20
0.1721983464566929
11
0.5214916535433071
21
0.1719112598425197
0
LINE
8
BLACK
6
CONTINUOUS
10
0.5214916535433071
20
0.1719112598425197
11
0.5214915354330708
21
0.1719111023622047
0
LINE
8
BLACK
6
CONTINUOUS
10
0.5214915354330708
20
0.1719111023622047
11
0.5184735433070866
21
0.1673944094488189
0
LINE
8
BLACK
6
CONTINUOUS
10
0.5184735433070866
20
0.1673944094488189
11
0.5184732677165355
21
0.1673938976377953
0
LINE
8
BLACK
6
CONTINUOUS
10
0.5184732677165355
20
0.1673938976377953
11
0.5163945275590551
21
0.1623753149606299
0
LINE
8
BLACK
6
CONTINUOUS
10
0.5163945275590551
20
0.1623753149606299
11
0.5163944094488189
21
0.1623749212598425
0
LINE
8
BLACK
6
CONTINUOUS
10
0.5163944094488189
20
0.1623749212598425
11
0.5153346456692913
21
0.1570470866141732
0
LINE
8
BLACK
6
CONTINUOUS
10
0.5153346456692913
20
0.1570470866141732
11
0.5153346456692913
21
0.157046968503937
0
LINE
8
BLACK
6
CONTINUOUS
10
0.5153346456692913
20
0.157046968503937
11
0.5153346456692913
21
0.1516144488188976
0
LINE
8
BLACK
6
CONTINUOUS
10
0.5153346456692913
20
0.1516144488188976
11
0.5153346456692913
21
0.1516143700787402
0
LINE
8
BLACK
6
CONTINUOUS
10
0.5153346456692913
20
0.1516143700787402
11
0.5153346062992126
21
0.1516143700787402
0
LINE
8
BLACK
6
CONTINUOUS
10
0.5153346062992126
20
0.1516143700787402
11
0.5163944094488189
21
0.1462865354330709
0
LINE
8
BLACK
6
CONTINUOUS
10
0.5163944094488189
20
0.1462865354330709
11
0.5163945275590551
21
0.1462861417322835
0
LINE
8
BLACK
6
CONTINUOUS
10
0.5163945275590551
20
0.1462861417322835
11
0.5184732677165355
21
0.1412675590551181
0
LINE
8
BLACK
6
CONTINUOUS
10
0.5184732677165355
20
0.1412675590551181
11
0.5184735433070866
21
0.1412670472440945
0
LINE
8
BLACK
6
CONTINUOUS
10
0.5184735433070866
20
0.1412670472440945
11
0.5214915354330708
21
0.1367503543307086
0
LINE
8
BLACK
6
CONTINUOUS
10
0.5214915354330708
20
0.1367503543307086
11
0.5214916535433071
21
0.1367501968503937
0
LINE
8
BLACK
6
CONTINUOUS
10
0.5214916535433071
20
0.1367501968503937
11
0.5253328346456693
21
0.1329090157480315
0
LINE
8
BLACK
6
CONTINUOUS
10
0.5253328346456693
20
0.1329090157480315
11
0.5253329921259843
21
0.1329088976377953
0
LINE
8
BLACK
6
CONTINUOUS
10
0.5253329921259843
20
0.1329088976377953
11
0.52984968503937
21
0.129890905511811
0
LINE
8
BLACK
6
CONTINUOUS
10
0.52984968503937
20
0.129890905511811
11
0.5298501968503937
21
0.1298906299212598
0
LINE
8
BLACK
6
CONTINUOUS
10
0.5298501968503937
20
0.1298906299212598
11
0.5321049606299213
21
0.1289566929133858
0
LINE
8
BLACK
6
CONTINUOUS
10
0.5321049606299213
20
0.1289566929133858
11
0.5348689763779527
21
0.127811811023622
0
LINE
8
BLACK
6
CONTINUOUS
10
0.5348689763779527
20
0.127811811023622
11
0.5348691338582677
21
0.127811811023622
0
LINE
8
BLACK
6
CONTINUOUS
10
0.5348691338582677
20
0.127811811023622
11
0.5348691732283465
21
0.1278117716535433
0
LINE
8
BLACK
6
CONTINUOUS
10
0.5348691732283465
20
0.1278117716535433
11
0.5401970078740157
21
0.126751968503937
0
LINE
8
BLACK
6
CONTINUOUS
10
0.5401970078740157
20
0.126751968503937
11
0.540197125984252
21
0.126751968503937
0
LINE
8
BLACK
6
CONTINUOUS
10
0.540197125984252
20
0.126751968503937
11
0.5456297244094488
21
0.126751968503937
0
LINE
8
BLACK
6
CONTINUOUS
10
0.5456297244094488
20
0.126751968503937
11
0.5492142125984252
21
0.127465
0
LINE
8
BLACK
6
CONTINUOUS
10
0.5492142125984252
20
0.127465
11
0.5509577952755905
21
0.127811811023622
0
LINE
8
BLACK
6
CONTINUOUS
10
0.5509577952755905
20
0.127811811023622
11
0.5559768110236221
21
0.1298907480314961
0
LINE
8
BLACK
6
CONTINUOUS
10
0.5559768110236221
20
0.1298907480314961
11
0.5604937795275591
21
0.1329088976377953
0
LINE
8
BLACK
6
CONTINUOUS
10
0.5604937795275591
20
0.1329088976377953
11
0.5643351968503937
21
0.1367503149606299
0
LINE
8
BLACK
6
CONTINUOUS
10
0.5643351968503937
20
0.1367503149606299
11
0.5673533464566929
21
0.1412672834645669
0
LINE
8
BLACK
6
CONTINUOUS
10
0.5673533464566929
20
0.1412672834645669
11
0.5694322834645669
21
0.1462862992125984
0
LINE
8
BLACK
6
CONTINUOUS
10
0.5694322834645669
20
0.1462862992125984
11
0.5704921259842519
21
0.1516144488188976
0
LINE
8
BLACK
6
CONTINUOUS
10
0.5704921259842519
20
0.1516144488188976
11
0.5704921259842519
21
0.157046968503937
0
LINE
8
BLACK
6
CONTINUOUS
10
0.5704921259842519
20
0.157046968503937
11
0.5704921259842519
21
0.1570470866141732
0
LINE
8
BLACK
6
CONTINUOUS
10
0.5704921259842519
20
0.1570470866141732
11
0.5694323228346456
21
0.1623749212598425
0
LINE
8
BLACK
6
CONTINUOUS
10
0.5694323228346456
20
0.1623749212598425
11
0.5694322834645669
21
0.1623749606299213
0
LINE
8
BLACK
6
CONTINUOUS
10
0.5694322834645669
20
0.1623749606299213
11
0.5694322834645669
21
0.1623751181102362
0
LINE
8
BLACK
6
CONTINUOUS
10
0.5694322834645669
20
0.1623751181102362
11
0.5694322047244095
21
0.1623753149606299
0
LINE
8
BLACK
6
CONTINUOUS
10
0.5694322047244095
20
0.1623753149606299
11
0.5673534645669291
21
0.1673938976377953
0
LINE
8
BLACK
6
CONTINUOUS
10
0.5673534645669291
20
0.1673938976377953
11
0.567353188976378
21
0.1673944094488189
0
LINE
8
BLACK
6
CONTINUOUS
10
0.567353188976378
20
0.1673944094488189
11
0.5643351968503937
21
0.1719111023622047
0
LINE
8
BLACK
6
CONTINUOUS
10
0.5643351968503937
20
0.1719111023622047
11
0.5643350787401574
21
0.1719112598425197
0
LINE
8
BLACK
6
CONTINUOUS
10
0.5643350787401574
20
0.1719112598425197
11
0.5640479921259842
21
0.1721983464566929
0
LINE
8
BLACK
6
CONTINUOUS
10
0.5640479921259842
20
0.1721983464566929
11
0.5634690944881889
21
0.1732585039370079
0
LINE
8
BLACK
6
CONTINUOUS
10
0.5634690944881889
20
0.1732585039370079
11
0.5628158661417323
21
0.1742749606299213
0
LINE
8
BLACK
6
CONTINUOUS
10
0.5628158661417323
20
0.1742749606299213
11
0.562780748031496
21
0.174519094488189
0
LINE
8
BLACK
6
CONTINUOUS
10
0.562780748031496
20
0.174519094488189
11
0.56272968503937
21
0.1746126377952756
0
LINE
8
BLACK
6
CONTINUOUS
10
0.56272968503937
20
0.1746126377952756
11
0.5626181102362204
21
0.1756503543307087
0
LINE
8
BLACK
6
CONTINUOUS
10
0.5626181102362204
20
0.1756503543307087
11
0.5626181102362204
21
0.1825000393700787
0
LINE
8
BLACK
6
CONTINUOUS
10
0.5626181102362204
20
0.1825000393700787
11
0.5633931102362204
21
0.1851393700787402
0
LINE
8
BLACK
6
CONTINUOUS
10
0.5633931102362204
20
0.1851393700787402
11
0.5654720078740157
21
0.186940748031496
0
LINE
8
BLACK
6
CONTINUOUS
10
0.5654720078740157
20
0.186940748031496
11
0.5675
21
0.1873819291338583
0
LINE
8
BLACK
6
CONTINUOUS
10
0.5675
20
0.1873819291338583
11
0.5746006299212598
21
0.1873819291338583
0
LINE
8
BLACK
6
CONTINUOUS
10
0.5746006299212598
20
0.1873819291338583
11
0.5746009448818897
21
0.1873819291338583
0
LINE
8
BLACK
6
CONTINUOUS
10
0.5746009448818897
20
0.1873819291338583
11
0.5746015354330708
21
0.1873820078740157
0
LINE
8
BLACK
6
CONTINUOUS
10
0.5746015354330708
20
0.1873820078740157
11
0.5746016535433071
21
0.1873820078740157
0
LINE
8
BLACK
6
CONTINUOUS
10
0.5746016535433071
20
0.1873820078740157
11
0.5755900393700787
21
0.1874966141732284
0
LINE
8
BLACK
6
CONTINUOUS
10
0.5755900393700787
20
0.1874966141732284
11
0.5755900787401574
21
0.1874966535433071
0
LINE
8
BLACK
6
CONTINUOUS
10
0.5755900787401574
20
0.1874966535433071
11
0.5755901968503937
21
0.1874966535433071
0
LINE
8
BLACK
6
CONTINUOUS
10
0.5755901968503937
20
0.1874966535433071
11
0.5796364173228347
21
0.1892832283464567
0
LINE
8
BLACK
6
CONTINUOUS
10
0.5796364173228347
20
0.1892832283464567
11
0.5827640157480315
21
0.1924108267716535
0
LINE
8
BLACK
6
CONTINUOUS
10
0.5827640157480315
20
0.1924108267716535
11
0.5845505905511811
21
0.1964570472440945
0
LINE
8
BLACK
6
CONTINUOUS
10
0.5845505905511811
20
0.1964570472440945
11
0.5846653543307087
21
0.1974462598425197
0
LINE
8
BLACK
6
CONTINUOUS
10
0.5846653543307087
20
0.1974462598425197
11
0.5846653149606299
21
0.2320373228346457
0
LINE
8
BLACK
6
CONTINUOUS
10
0.5846653149606299
20
0.2320373228346457
11
0.5854402755905511
21
0.2346766141732284
0
LINE
8
BLACK
6
CONTINUOUS
10
0.5854402755905511
20
0.2346766141732284
11
0.5875191732283465
21
0.2364779921259842
0
LINE
8
BLACK
6
CONTINUOUS
10
0.5875191732283465
20
0.2364779921259842
11
0.590241968503937
21
0.2368694881889764
0
LINE
8
BLACK
6
CONTINUOUS
10
0.590241968503937
20
0.2368694881889764
11
0.5927441732283465
21
0.2357267716535433
0
LINE
8
BLACK
6
CONTINUOUS
10
0.5927441732283465
20
0.2357267716535433
11
0.5929992125984251
21
0.2354892913385827
0
LINE
8
BLACK
6
CONTINUOUS
10
0.5929992125984251
20
0.2354892913385827
11
0.6393511023622047
21
0.1891374015748031
0
LINE
8
BLACK
6
CONTINUOUS
10
0.6393511023622047
20
0.1891374015748031
11
0.6393511811023622
21
0.1891372834645669
0
LINE
8
BLACK
6
CONTINUOUS
10
0.6393511811023622
20
0.1891372834645669
11
0.6422868897637796
21
0.1862015748031496
0
LINE
8
BLACK
6
CONTINUOUS
10
0.6422868897637796
20
0.1862015748031496
11
0.6450151574803149
21
0.1846264173228346
0
LINE
8
BLACK
6
CONTINUOUS
10
0.6450151574803149
20
0.1846264173228346
11
0.6458823228346456
21
0.1841257480314961
0
LINE
8
BLACK
6
CONTINUOUS
10
0.6458823228346456
20
0.1841257480314961
11
0.6458823622047244
21
0.1841257480314961
0
LINE
8
BLACK
6
CONTINUOUS
10
0.6458823622047244
20
0.1841257480314961
11
0.6458824015748031
21
0.1841257086614173
0
LINE
8
BLACK
6
CONTINUOUS
10
0.6458824015748031
20
0.1841257086614173
11
0.6498926377952756
21
0.1830511417322835
0
LINE
8
BLACK
6
CONTINUOUS
10
0.6498926377952756
20
0.1830511417322835
11
0.649892716535433
21
0.1830511417322835
0
LINE
8
BLACK
6
CONTINUOUS
10
0.649892716535433
20
0.1830511417322835
11
0.6543434251968504
21
0.1830511417322835
0
LINE
8
BLACK
6
CONTINUOUS
10
0.6543434251968504
20
0.1830511417322835
11
0.6543440551181102
21
0.1830511811023622
0
LINE
8
BLACK
6
CONTINUOUS
10
0.6543440551181102
20
0.1830511811023622
11
0.6913164566929134
21
0.1830511811023622
0
LINE
8
BLACK
6
CONTINUOUS
10
0.6913164566929134
20
0.1830511811023622
11
0.6939557874015748
21
0.1822761811023622
0
LINE
8
BLACK
6
CONTINUOUS
10
0.6939557874015748
20
0.1822761811023622
11
0.6957571653543307
21
0.1801972834645669
0
LINE
8
BLACK
6
CONTINUOUS
10
0.6957571653543307
20
0.1801972834645669
11
0.6961486614173228
21
0.1774745275590551
0
LINE
8
BLACK
6
CONTINUOUS
10
0.6961486614173228
20
0.1774745275590551
11
0.6950059448818897
21
0.1749723228346457
0
LINE
8
BLACK
6
CONTINUOUS
10
0.6950059448818897
20
0.1749723228346457
11
0.6942662598425197
21
0.1742793700787401
0
LINE
8
BLACK
6
CONTINUOUS
10
0.6942662598425197
20
0.1742793700787401
11
0.6904361023622048
21
0.1713749212598425
0
LINE
8
BLACK
6
CONTINUOUS
10
0.6904361023622048
20
0.1713749212598425
11
0.6868361811023622
21
0.1666277165354331
0
LINE
8
BLACK
6
CONTINUOUS
10
0.6868361811023622
20
0.1666277165354331
11
0.6846504724409449
21
0.1610851181102362
0
LINE
8
BLACK
6
CONTINUOUS
10
0.6846504724409449
20
0.1610851181102362
11
0.6844168503937008
21
0.1591396456692913
0
LINE
8
BLACK
6
CONTINUOUS
10
0.6844168503937008
20
0.1591396456692913
11
0.6842322834645669
21
0.1576024409448819
0
LINE
8
BLACK
6
CONTINUOUS
10
0.6842322834645669
20
0.1576024409448819
11
0.6842322834645669
21
0.1030274803149606
0
LINE
8
BLACK
6
CONTINUOUS
10
0.6842322834645669
20
0.1030274803149606
11
0.684453779527559
21
0.1011829133858268
0
LINE
8
BLACK
6
CONTINUOUS
10
0.684453779527559
20
0.1011829133858268
11
0.6846504724409449
21
0.099544842519685
0
LINE
8
BLACK
6
CONTINUOUS
10
0.6846504724409449
20
0.099544842519685
11
0.6868361811023622
21
0.0940022440944882
0
LINE
8
BLACK
6
CONTINUOUS
10
0.6868361811023622
20
0.0940022440944882
11
0.6904361023622048
21
0.0892550393700787
0
LINE
8
BLACK
6
CONTINUOUS
10
0.6904361023622048
20
0.0892550393700787
11
0.6951833070866141
21
0.0856551181102362
0
LINE
8
BLACK
6
CONTINUOUS
10
0.6951833070866141
20
0.0856551181102362
11
0.6951833464566929
21
0.0856551181102362
0
LINE
8
BLACK
6
CONTINUOUS
10
0.6951833464566929
20
0.0856551181102362
11
0.6951833858267716
21
0.0856550787401575
0
LINE
8
BLACK
6
CONTINUOUS
10
0.6951833858267716
20
0.0856550787401575
11
0.7007258267716535
21
0.0834694094488189
0
LINE
8
BLACK
6
CONTINUOUS
10
0.7007258267716535
20
0.0834694094488189
11
0.7042085826771654
21
0.0830511811023622
0
LINE
8
BLACK
6
CONTINUOUS
10
0.7042085826771654
20
0.0830511811023622
11
0.7335588188976377
21
0.0830511811023622
0
LINE
8
BLACK
6
CONTINUOUS
10
0.7335588188976377
20
0.0830511811023622
11
0.7361981496062991
21
0.0822761811023622
0
LINE
8
BLACK
6
CONTINUOUS
10
0.7361981496062991
20
0.0822761811023622
11
0.7379995275590551
21
0.0801972834645669
0
LINE
8
BLACK
6
CONTINUOUS
10
0.7379995275590551
20
0.0801972834645669
11
0.7383910236220472
21
0.0774745275590551
0
LINE
8
BLACK
6
CONTINUOUS
10
0.7383910236220472
20
0.0774745275590551
11
0.7380690944881889
21
0.0763011023622047
0
LINE
8
BLACK
6
CONTINUOUS
10
0.7380690944881889
20
0.0763011023622047
11
0.736866968503937
21
0.073398937007874
0
LINE
8
BLACK
6
CONTINUOUS
10
0.736866968503937
20
0.073398937007874
11
0.7368668503937008
21
0.0733985433070866
0
LINE
8
BLACK
6
CONTINUOUS
10
0.7368668503937008
20
0.0733985433070866
11
0.7358070866141733
21
0.0680707086614173
0
LINE
8
BLACK
6
CONTINUOUS
10
0.7358070866141733
20
0.0680707086614173
11
0.7358070866141733
21
0.0680705905511811
0
LINE
8
BLACK
6
CONTINUOUS
10
0.7358070866141733
20
0.0680705905511811
11
0.7358070866141733
21
0.0626380708661417
0
LINE
8
BLACK
6
CONTINUOUS
10
0.7358070866141733
20
0.0626380708661417
11
0.7358070866141733
21
0.0626379921259843
0
LINE
8
BLACK
6
CONTINUOUS
10
0.7358070866141733
20
0.0626379921259843
11
0.7358070472440945
21
0.0626379921259843
0
LINE
8
BLACK
6
CONTINUOUS
10
0.7358070472440945
20
0.0626379921259843
11
0.7368668503937008
21
0.057310157480315
0
LINE
8
BLACK
6
CONTINUOUS
10
0.7368668503937008
20
0.057310157480315
11
0.736866968503937
21
0.0573097637795276
0
LINE
8
BLACK
6
CONTINUOUS
10
0.736866968503937
20
0.0573097637795276
11
0.7389457086614173
21
0.0522911811023622
0
LINE
8
BLACK
6
CONTINUOUS
10
0.7389457086614173
20
0.0522911811023622
11
0.7389459842519684
21
0.0522906692913386
0
LINE
8
BLACK
6
CONTINUOUS
10
0.7389459842519684
20
0.0522906692913386
11
0.7419639763779527
21
0.0477739763779528
0
LINE
8
BLACK
6
CONTINUOUS
10
0.7419639763779527
20
0.0477739763779528
11
0.741964094488189
21
0.0477738188976378
0
LINE
8
BLACK
6
CONTINUOUS
10
0.741964094488189
20
0.0477738188976378
11
0.7458052755905512
21
0.0439326377952756
0
LINE
8
BLACK
6
CONTINUOUS
10
0.7458052755905512
20
0.0439326377952756
11
0.7458054330708661
21
0.0439325196850394
0
LINE
8
BLACK
6
CONTINUOUS
10
0.7458054330708661
20
0.0439325196850394
11
0.750322125984252
21
0.0409145275590551
0
LINE
8
BLACK
6
CONTINUOUS
10
0.750322125984252
20
0.0409145275590551
11
0.7503226377952755
21
0.0409142519685039
0
LINE
8
BLACK
6
CONTINUOUS
10
0.7503226377952755
20
0.0409142519685039
11
0.7536019291338583
21
0.0395559448818898
0
LINE
8
BLACK
6
CONTINUOUS
10
0.7536019291338583
20
0.0395559448818898
11
0.7553414173228347
21
0.0388354330708661
0
LINE
8
BLACK
6
CONTINUOUS
10
0.7553414173228347
20
0.0388354330708661
11
0.7553415748031496
21
0.0388354330708661
0
LINE
8
BLACK
6
CONTINUOUS
10
0.7553415748031496
20
0.0388354330708661
11
0.7553416141732283
21
0.0388353937007874
0
LINE
8
BLACK
6
CONTINUOUS
10
0.7553416141732283
20
0.0388353937007874
11
0.7606694488188976
21
0.0377755905511811
0
LINE
8
BLACK
6
CONTINUOUS
10
0.7606694488188976
20
0.0377755905511811
11
0.7606695669291338
21
0.0377755905511811
0
LINE
8
BLACK
6
CONTINUOUS
10
0.7606695669291338
20
0.0377755905511811
11
0.7661021653543307
21
0.0377755905511811
0
LINE
8
BLACK
6
CONTINUOUS
10
0.7661021653543307
20
0.0377755905511811
11
0.7696866535433071
21
0.0384886220472441
0
LINE
8
BLACK
6
CONTINUOUS
10
0.7696866535433071
20
0.0384886220472441
11
0.7714302362204725
21
0.0388354330708661
0
LINE
8
BLACK
6
CONTINUOUS
10
0.7714302362204725
20
0.0388354330708661
11
0.7764492519685039
21
0.0409143700787402
0
LINE
8
BLACK
6
CONTINUOUS
10
0.7764492519685039
20
0.0409143700787402
11
0.7809662204724409
21
0.0439325196850394
0
LINE
8
BLACK
6
CONTINUOUS
10
0.7809662204724409
20
0.0439325196850394
11
0.7848076377952756
21
0.047773937007874
0
LINE
8
BLACK
6
CONTINUOUS
10
0.7848076377952756
20
0.047773937007874
11
0.7878257874015748
21
0.052290905511811
0
LINE
8
BLACK
6
CONTINUOUS
10
0.7878257874015748
20
0.052290905511811
11
0.7899047244094488
21
0.0573099212598425
0
LINE
8
BLACK
6
CONTINUOUS
10
0.7899047244094488
20
0.0573099212598425
11
0.7909645669291339
21
0.0626380708661417
0
LINE
8
BLACK
6
CONTINUOUS
10
0.7909645669291339
20
0.0626380708661417
11
0.7909645669291339
21
0.0680705905511811
0
LINE
8
BLACK
6
CONTINUOUS
10
0.7909645669291339
20
0.0680705905511811
11
0.7909645669291339
21
0.0680707086614173
0
LINE
8
BLACK
6
CONTINUOUS
10
0.7909645669291339
20
0.0680707086614173
11
0.7899047637795276
21
0.0733985433070866
0
LINE
8
BLACK
6
CONTINUOUS
10
0.7899047637795276
20
0.0733985433070866
11
0.7899047244094488
21
0.0733985826771654
0
LINE
8
BLACK
6
CONTINUOUS
10
0.7899047244094488
20
0.0733985826771654
11
0.7899047244094488
21
0.0733987401574803
0
LINE
8
BLACK
6
CONTINUOUS
10
0.7899047244094488
20
0.0733987401574803
11
0.7899046456692913
21
0.073398937007874
0
LINE
8
BLACK
6
CONTINUOUS
10
0.7899046456692913
20
0.073398937007874
11
0.7887025590551181
21
0.0763011023622047
0
LINE
8
BLACK
6
CONTINUOUS
10
0.7887025590551181
20
0.0763011023622047
11
0.7884085039370079
21
0.0790361023622047
0
LINE
8
BLACK
6
CONTINUOUS
10
0.7884085039370079
20
0.0790361023622047
11
0.789639842519685
21
0.081495905511811
0
LINE
8
BLACK
6
CONTINUOUS
10
0.789639842519685
20
0.081495905511811
11
0.7920055511811024
21
0.0828995275590551
0
LINE
8
BLACK
6
CONTINUOUS
10
0.7920055511811024
20
0.0828995275590551
11
0.7932128346456693
21
0.0830511811023622
0
LINE
8
BLACK
6
CONTINUOUS
10
0.7932128346456693
20
0.0830511811023622
11
0.8217754724409448
21
0.0830511811023622
0
LINE
8
BLACK
6
CONTINUOUS
10
0.8217754724409448
20
0.0830511811023622
11
0.8217756692913386
21
0.0830511811023622
0
LINE
8
BLACK
6
CONTINUOUS
10
0.8217756692913386
20
0.0830511811023622
11
0.8252584251968503
21
0.0834694094488189
0
LINE
8
BLACK
6
CONTINUOUS
10
0.8252584251968503
20
0.0834694094488189
11
0.8308008661417323
21
0.0856550787401575
0
LINE
8
BLACK
6
CONTINUOUS
10
0.8308008661417323
20
0.0856550787401575
11
0.8355481102362204
21
0.0892550393700787
0
LINE
8
BLACK
6
CONTINUOUS
10
0.8355481102362204
20
0.0892550393700787
11
0.8391480708661417
21
0.0940022834645669
0
LINE
8
BLACK
6
CONTINUOUS
10
0.8391480708661417
20
0.0940022834645669
11
0.8413337401574803
21
0.0995447244094488
0
LINE
8
BLACK
6
CONTINUOUS
10
0.8413337401574803
20
0.0995447244094488
11
0.841751968503937
21
0.1030274803149606
0
LINE
8
BLACK
6
CONTINUOUS
10
0.841751968503937
20
0.1030274803149606
11
0.841751968503937
21
0.1576024409448819
0
LINE
8
BLACK
6
CONTINUOUS
10
0.841751968503937
20
0.1576024409448819
11
0.8413337401574803
21
0.1610851968503937
0
LINE
8
BLACK
6
CONTINUOUS
10
0.8413337401574803
20
0.1610851968503937
11
0.8391480708661417
21
0.1666276377952756
0
LINE
8
BLACK
6
CONTINUOUS
10
0.8391480708661417
20
0.1666276377952756
11
0.839148031496063
21
0.1666276771653543
0
LINE
8
BLACK
6
CONTINUOUS
10
0.839148031496063
20
0.1666276771653543
11
0.839148031496063
21
0.1666277165354331
0
LINE
8
BLACK
6
CONTINUOUS
10
0.839148031496063
20
0.1666277165354331
11
0.8355481102362204
21
0.1713749212598425
0
LINE
8
BLACK
6
CONTINUOUS
10
0.8355481102362204
20
0.1713749212598425
11
0.8308006692913386
21
0.174975
0
LINE
8
BLACK
6
CONTINUOUS
10
0.8308006692913386
20
0.174975
11
0.8306475590551181
21
0.1750611023622047
0
LINE
8
BLACK
6
CONTINUOUS
10
0.8306475590551181
20
0.1750611023622047
11
0.8305351574803149
21
0.1751763779527559
0
LINE
8
BLACK
6
CONTINUOUS
10
0.8305351574803149
20
0.1751763779527559
11
0.8305348031496063
21
0.1751766141732283
0
LINE
8
BLACK
6
CONTINUOUS
10
0.8305348031496063
20
0.1751766141732283
11
0.830534842519685
21
0.1751766929133858
0
LINE
8
BLACK
6
CONTINUOUS
10
0.830534842519685
20
0.1751766929133858
11
0.8287269291338583
21
0.1770303149606299
0
LINE
8
BLACK
6
CONTINUOUS
10
0.8287269291338583
20
0.1770303149606299
11
0.8281758267716536
21
0.1797253543307087
0
LINE
8
BLACK
6
CONTINUOUS
10
0.8281758267716536
20
0.1797253543307087
11
0.8291692519685039
21
0.1822904724409449
0
LINE
8
BLACK
6
CONTINUOUS
10
0.8291692519685039
20
0.1822904724409449
11
0.8295882677165354
21
0.1827679921259842
0
LINE
8
BLACK
6
CONTINUOUS
10
0.8295882677165354
20
0.1827679921259842
11
0.8311228346456693
21
0.1843025196850394
0
LINE
8
BLACK
6
CONTINUOUS
10
0.8311228346456693
20
0.1843025196850394
11
0.8342353149606299
21
0.1896935433070866
0
LINE
8
BLACK
6
CONTINUOUS
10
0.8342353149606299
20
0.1896935433070866
11
0.8358464566929134
21
0.1957064173228346
0
LINE
8
BLACK
6
CONTINUOUS
10
0.8358464566929134
20
0.1957064173228346
11
0.8358464566929134
21
0.2019313779527559
0
LINE
8
BLACK
6
CONTINUOUS
10
0.8358464566929134
20
0.2019313779527559
11
0.8342353149606299
21
0.2079442519685039
0
LINE
8
BLACK
6
CONTINUOUS
10
0.8342353149606299
20
0.2079442519685039
11
0.834235157480315
21
0.2079445275590551
0
LINE
8
BLACK
6
CONTINUOUS
10
0.834235157480315
20
0.2079445275590551
11
0.8311229921259843
21
0.2133350393700787
0
LINE
8
BLACK
6
CONTINUOUS
10
0.8311229921259843
20
0.2133350393700787
11
0.8311227559055118
21
0.2133353543307087
0
LINE
8
BLACK
6
CONTINUOUS
10
0.8311227559055118
20
0.2133353543307087
11
0.8267211417322834
21
0.217736968503937
0
LINE
8
BLACK
6
CONTINUOUS
10
0.8267211417322834
20
0.217736968503937
11
0.8267208267716535
21
0.2177372047244094
0
LINE
8
BLACK
6
CONTINUOUS
10
0.8267208267716535
20
0.2177372047244094
11
0.8213303149606299
21
0.2208493700787401
0
LINE
8
BLACK
6
CONTINUOUS
10
0.8213303149606299
20
0.2208493700787401
11
0.8213301574803149
21
0.2208494488188976
0
LINE
8
BLACK
6
CONTINUOUS
10
0.8213301574803149
20
0.2208494488188976
11
0.8213300787401575
21
0.2208494881889764
0
LINE
8
BLACK
6
CONTINUOUS
10
0.8213300787401575
20
0.2208494881889764
11
0.8153172047244094
21
0.2224606299212598
0
LINE
8
BLACK
6
CONTINUOUS
10
0.8153172047244094
20
0.2224606299212598
11
0.8090922440944882
21
0.2224606299212598
0
LINE
8
BLACK
6
CONTINUOUS
10
0.8090922440944882
20
0.2224606299212598
11
0.8030793700787401
21
0.2208494881889764
0
LINE
8
BLACK
6
CONTINUOUS
10
0.8030793700787401
20
0.2208494881889764
11
0.8030790944881889
21
0.2208493700787401
0
LINE
8
BLACK
6
CONTINUOUS
10
0.8030790944881889
20
0.2208493700787401
11
0.7976885826771654
21
0.2177372047244094
0
LINE
8
BLACK
6
CONTINUOUS
10
0.7976885826771654
20
0.2177372047244094
11
0.7976882677165354
21
0.217736968503937
0
LINE
8
BLACK
6
CONTINUOUS
10
0.7976882677165354
20
0.217736968503937
11
0.7959678346456692
21
0.2160164960629921
0
LINE
8
BLACK
6
CONTINUOUS
10
0.7959678346456692
20
0.2160164960629921
11
0.7935535433070866
21
0.2146981889763779
0
LINE
8
BLACK
6
CONTINUOUS
10
0.7935535433070866
20
0.2146981889763779
11
0.7925158267716536
21
0.2145866141732283
0
LINE
8
BLACK
6
CONTINUOUS
10
0.7925158267716536
20
0.2145866141732283
11
0.6605218110236221
21
0.2145866141732283
0
LINE
8
BLACK
6
CONTINUOUS
10
0.6605218110236221
20
0.2145866141732283
11
0.6578824803149607
21
0.2153616141732284
0
LINE
8
BLACK
6
CONTINUOUS
10
0.6578824803149607
20
0.2153616141732284
11
0.6570698031496063
21
0.2160164960629921
0
LINE
8
BLACK
6
CONTINUOUS
10
0.6570698031496063
20
0.2160164960629921
11
0.6244440551181102
21
0.2486422440944882
0
LINE
8
BLACK
6
CONTINUOUS
10
0.6244440551181102
20
0.2486422440944882
11
0.5903902755905511
21
0.282696062992126
0
LINE
8
BLACK
6
CONTINUOUS
10
0.5903902755905511
20
0.282696062992126
11
0.5903761023622047
21
0.2827042519685039
0
LINE
8
BLACK
6
CONTINUOUS
10
0.5903761023622047
20
0.2827042519685039
11
0.5901974015748032
21
0.2828074409448819
0
LINE
8
BLACK
6
CONTINUOUS
10
0.5901974015748032
20
0.2828074409448819
11
0.5882991732283465
21
0.2847982677165354
0
LINE
8
BLACK
6
CONTINUOUS
10
0.5882991732283465
20
0.2847982677165354
11
0.5877786220472441
21
0.2874993307086614
0
LINE
8
BLACK
6
CONTINUOUS
10
0.5877786220472441
20
0.2874993307086614
11
0.5887302755905511
21
0.2899608661417323
0
LINE
8
BLACK
6
CONTINUOUS
10
0.5887302755905511
20
0.2899608661417323
11
0.5902893700787402
21
0.2920435826771653
0
LINE
8
BLACK
6
CONTINUOUS
10
0.5902893700787402
20
0.2920435826771653
11
0.5902895275590551
21
0.2920438582677165
0
LINE
8
BLACK
6
CONTINUOUS
10
0.5902895275590551
20
0.2920438582677165
11
0.5922675590551181
21
0.2973472834645669
0
LINE
8
BLACK
6
CONTINUOUS
10
0.5922675590551181
20
0.2973472834645669
11
0.5922676377952756
21
0.2973475590551181
0
LINE
8
BLACK
6
CONTINUOUS
10
0.5922676377952756
20
0.2973475590551181
11
0.5925196456692913
21
0.2996911811023622
0
LINE
8
BLACK
6
CONTINUOUS
10
0.5925196456692913
20
0.2996911811023622
11
0.59251968503937
21
0.2996918503937008
0
LINE
8
BLACK
6
CONTINUOUS
10
0.59251968503937
20
0.2996918503937008
11
0.59251968503937
21
0.3114173228346457
0
LINE
8
BLACK
6
CONTINUOUS
10
0.59251968503937
20
0.3114173228346457
11
0.5728346456692913
21
0.3114173228346457
0
LINE
8
BLACK
6
CONTINUOUS
10
0.5728346456692913
20
0.3114173228346457
11
0.5728346456692913
21
0.3015748031496063
0
LINE
8
BLACK
6
CONTINUOUS
10
0.5728346456692913
20
0.3015748031496063
11
0.5551181102362205
21
0.3015748031496063
0
LINE
8
BLACK
6
CONTINUOUS
10
0.5551181102362205
20
0.3015748031496063
11
0.5551181102362205
21
0.2897637795275591
0
LINE
8
BLACK
6
CONTINUOUS
10
0.5551181102362205
20
0.2897637795275591
11
0.5728346456692913
21
0.2897637795275591
0
LINE
8
BLACK
6
CONTINUOUS
10
0.5728346456692913
20
0.2897637795275591
11
0.5728346456692913
21
0.274015748031496
0
LINE
8
BLACK
6
CONTINUOUS
10
0.5728346456692913
20
0.274015748031496
11
0.5807086614173228
21
0.274015748031496
0
LINE
8
BLACK
6
CONTINUOUS
10
0.5807086614173228
20
0.274015748031496
11
0.5814767322834645
21
0.2739401181102362
0
LINE
8
BLACK
6
CONTINUOUS
10
0.5814767322834645
20
0.2739401181102362
11
0.5828959448818898
21
0.2733522440944882
0
LINE
8
BLACK
6
CONTINUOUS
10
0.5828959448818898
20
0.2733522440944882
11
0.5834925590551181
21
0.2728626377952756
0
LINE
8
BLACK
6
CONTINUOUS
10
0.5834925590551181
20
0.2728626377952756
11
0.6535992519685039
21
0.202755905511811
0
LINE
8
BLACK
6
CONTINUOUS
10
0.6535992519685039
20
0.202755905511811
11
0.8011365748031496
21
0.202755905511811
0
LINE
8
BLACK
6
CONTINUOUS
10
0.8011365748031496
20
0.202755905511811
11
0.8012927559055117
21
0.203338779527559
0
LINE
8
BLACK
6
CONTINUOUS
10
0.8012927559055117
20
0.203338779527559
11
0.8028344094488189
21
0.2060089763779528
0
LINE
8
BLACK
6
CONTINUOUS
10
0.8028344094488189
20
0.2060089763779528
11
0.8050146456692914
21
0.2081892125984252
0
LINE
8
BLACK
6
CONTINUOUS
10
0.8050146456692914
20
0.2081892125984252
11
0.807684842519685
21
0.2097308661417323
0
LINE
8
BLACK
6
CONTINUOUS
10
0.807684842519685
20
0.2097308661417323
11
0.8106630708661418
21
0.2105288582677165
0
LINE
8
BLACK
6
CONTINUOUS
10
0.8106630708661418
20
0.2105288582677165
11
0.8137463779527558
21
0.2105288582677165
0
LINE
8
BLACK
6
CONTINUOUS
10
0.8137463779527558
20
0.2105288582677165
11
0.8167246062992126
21
0.2097308661417323
0
LINE
8
BLACK
6
CONTINUOUS
10
0.8167246062992126
20
0.2097308661417323
11
0.8193948031496063
21
0.2081892125984252
0
LINE
8
BLACK
6
CONTINUOUS
10
0.8193948031496063
20
0.2081892125984252
11
0.8215750393700787
21
0.2060089763779528
0
LINE
8
BLACK
6
CONTINUOUS
10
0.8215750393700787
20
0.2060089763779528
11
0.8231166929133859
21
0.203338779527559
0
LINE
8
BLACK
6
CONTINUOUS
10
0.8231166929133859
20
0.203338779527559
11
0.82391468503937
21
0.2003605511811024
0
LINE
8
BLACK
6
CONTINUOUS
10
0.82391468503937
20
0.2003605511811024
11
0.82391468503937
21
0.1972772440944882
0
LINE
8
BLACK
6
CONTINUOUS
10
0.82391468503937
20
0.1972772440944882
11
0.8231166929133859
21
0.1942990157480315
0
LINE
8
BLACK
6
CONTINUOUS
10
0.8231166929133859
20
0.1942990157480315
11
0.8215750393700787
21
0.1916288188976378
0
LINE
8
BLACK
6
CONTINUOUS
10
0.8215750393700787
20
0.1916288188976378
11
0.8193948031496063
21
0.1894485826771654
0
LINE
8
BLACK
6
CONTINUOUS
10
0.8193948031496063
20
0.1894485826771654
11
0.8167246062992126
21
0.1879069291338583
0
LINE
8
BLACK
6
CONTINUOUS
10
0.8167246062992126
20
0.1879069291338583
11
0.8137463779527558
21
0.187108937007874
0
LINE
8
BLACK
6
CONTINUOUS
10
0.8137463779527558
20
0.187108937007874
11
0.8106630708661418
21
0.187108937007874
0
LINE
8
BLACK
6
CONTINUOUS
10
0.8106630708661418
20
0.187108937007874
11
0.807684842519685
21
0.1879069291338583
0
LINE
8
BLACK
6
CONTINUOUS
10
0.807684842519685
20
0.1879069291338583
11
0.8050146456692914
21
0.1894485826771654
0
LINE
8
BLACK
6
CONTINUOUS
10
0.8050146456692914
20
0.1894485826771654
11
0.8028344094488189
21
0.1916288188976378
0
LINE
8
BLACK
6
CONTINUOUS
10
0.8028344094488189
20
0.1916288188976378
11
0.8012927559055117
21
0.1942990157480315
0
LINE
8
BLACK
6
CONTINUOUS
10
0.8012927559055117
20
0.1942990157480315
11
0.8011365748031496
21
0.1948818897637795
0
LINE
8
BLACK
6
CONTINUOUS
10
0.8011365748031496
20
0.1948818897637795
11
0.6519685039370079
21
0.1948818897637795
0
LINE
8
BLACK
6
CONTINUOUS
10
0.6519685039370079
20
0.1948818897637795
11
0.6512004330708662
21
0.1949575196850394
0
LINE
8
BLACK
6
CONTINUOUS
10
0.6512004330708662
20
0.1949575196850394
11
0.6497812204724409
21
0.1955453543307087
0
LINE
8
BLACK
6
CONTINUOUS
10
0.6497812204724409
20
0.1955453543307087
11
0.6491846456692913
21
0.196035
0
LINE
8
BLACK
6
CONTINUOUS
10
0.6491846456692913
20
0.196035
11
0.5790778740157481
21
0.2661417322834645
0
LINE
8
BLACK
6
CONTINUOUS
10
0.5790778740157481
20
0.2661417322834645
11
0.5728346456692913
21
0.2661417322834645
0
LINE
8
BLACK
6
CONTINUOUS
10
0.5728346456692913
20
0.2661417322834645
11
0.5728346456692913
21
0.2503937007874016
0
LINE
8
BLACK
6
CONTINUOUS
10
0.5728346456692913
20
0.2503937007874016
11
0.5137795275590551
21
0.2503937007874016
0
LINE
8
BLACK
6
CONTINUOUS
10
0.5137795275590551
20
0.2503937007874016
11
0.5137795275590551
21
0.2622047244094488
0
LINE
8
BLACK
6
CONTINUOUS
10
0.5137795275590551
20
0.2622047244094488
11
0.4704724409448819
21
0.2622047244094488
0
LINE
8
BLACK
6
CONTINUOUS
10
0.4704724409448819
20
0.2622047244094488
11
0.4704724409448819
21
0.2503937007874016
0
LINE
8
BLACK
6
CONTINUOUS
10
0.4704724409448819
20
0.2503937007874016
11
0.4114173228346457
21
0.2503937007874016
0
LINE
8
BLACK
6
CONTINUOUS
10
0.4114173228346457
20
0.2503937007874016
11
0.4114173228346457
21
0.2897637795275591
0
LINE
8
BLACK
6
CONTINUOUS
10
0.4114173228346457
20
0.2897637795275591
11
0.4704724409448819
21
0.2897637795275591
0
LINE
8
BLACK
6
CONTINUOUS
10
0.4704724409448819
20
0.2897637795275591
11
0.4704724409448819
21
0.2779527559055118
0
LINE
8
BLACK
6
CONTINUOUS
10
0.4704724409448819
20
0.2779527559055118
11
0.5137795275590551
21
0.2779527559055118
0
LINE
8
BLACK
6
CONTINUOUS
10
0.5137795275590551
20
0.2779527559055118
11
0.5137795275590551
21
0.2897637795275591
0
LINE
8
BLACK
6
CONTINUOUS
10
0.5137795275590551
20
0.2897637795275591
11
0.5314960629921259
21
0.2897637795275591
0
LINE
8
BLACK
6
CONTINUOUS
10
0.5314960629921259
20
0.2897637795275591
11
0.5314960629921259
21
0.3015748031496063
0
LINE
8
BLACK
6
CONTINUOUS
10
0.5314960629921259
20
0.3015748031496063
11
0.5137795275590551
21
0.3015748031496063
0
LINE
8
BLACK
6
CONTINUOUS
10
0.5137795275590551
20
0.3015748031496063
11
0.5137795275590551
21
0.3409448818897638
0
LINE
8
BLACK
6
CONTINUOUS
10
0.5137795275590551
20
0.3409448818897638
11
0.5728346456692913
21
0.3409448818897638
0
LINE
8
BLACK
6
CONTINUOUS
10
0.5728346456692913
20
0.3409448818897638
11
0.5728346456692913
21
0.3311023622047244
0
LINE
8
BLACK
6
CONTINUOUS
10
0.5728346456692913
20
0.3311023622047244
11
0.59251968503937
21
0.3311023622047244
0
LINE
8
BLACK
6
CONTINUOUS
10
0.59251968503937
20
0.3311023622047244
11
0.59251968503937
21
0.342827874015748
0
LINE
8
BLACK
6
CONTINUOUS
10
0.59251968503937
20
0.342827874015748
11
0.5925196456692913
21
0.3428285433070866
0
LINE
8
BLACK
6
CONTINUOUS
10
0.5925196456692913
20
0.3428285433070866
11
0.5922676377952756
21
0.3451721653543307
0
LINE
8
BLACK
6
CONTINUOUS
10
0.5922676377952756
20
0.3451721653543307
11
0.5922675590551181
21
0.3451724409448819
0
LINE
8
BLACK
6
CONTINUOUS
10
0.5922675590551181
20
0.3451724409448819
11
0.5902895275590551
21
0.3504758661417323
0
LINE
8
BLACK
6
CONTINUOUS
10
0.5902895275590551
20
0.3504758661417323
11
0.5902894881889764
21
0.3504759448818898
0
LINE
8
BLACK
6
CONTINUOUS
10
0.5902894881889764
20
0.3504759448818898
11
0.5900212598425196
21
0.3508342519685039
0
LINE
8
BLACK
6
CONTINUOUS
10
0.5900212598425196
20
0.3508342519685039
11
0.58906
21
0.3534116141732284
0
LINE
8
BLACK
6
CONTINUOUS
10
0.58906
20
0.3534116141732284
11
0.5896447244094488
21
0.3560995275590551
0
LINE
8
BLACK
6
CONTINUOUS
10
0.5896447244094488
20
0.3560995275590551
11
0.591589842519685
21
0.3580446062992126
0
LINE
8
BLACK
6
CONTINUOUS
10
0.591589842519685
20
0.3580446062992126
11
0.5939294488188976
21
0.3586417322834646
0
LINE
8
BLACK
6
CONTINUOUS
10
0.5939294488188976
20
0.3586417322834646
11
0.6291972047244094
21
0.3586417322834646
0
LINE
8
BLACK
6
CONTINUOUS
10
0.6291972047244094
20
0.3586417322834646
11
0.6318365354330708
21
0.3578667322834646
0
LINE
8
BLACK
6
CONTINUOUS
10
0.6318365354330708
20
0.3578667322834646
11
0.6336379133858268
21
0.3557878346456693
0
LINE
8
BLACK
6
CONTINUOUS
10
0.6336379133858268
20
0.3557878346456693
11
0.6340294094488189
21
0.3530650787401575
0
LINE
8
BLACK
6
CONTINUOUS
10
0.6340294094488189
20
0.3530650787401575
11
0.6339128346456693
21
0.3524967716535433
0
LINE
8
BLACK
6
CONTINUOUS
10
0.6339128346456693
20
0.3524967716535433
11
0.6334448818897638
21
0.3507502755905512
0
LINE
8
BLACK
6
CONTINUOUS
10
0.6334448818897638
20
0.3507502755905512
11
0.6334448818897638
21
0.3445253149606299
0
LINE
8
BLACK
6
CONTINUOUS
10
0.6334448818897638
20
0.3445253149606299
11
0.6347682283464566
21
0.3395866141732283
0
LINE
8
BLACK
6
CONTINUOUS
10
0.6347682283464566
20
0.3395866141732283
11
0.6350560236220473
21
0.3385124803149606
0
LINE
8
BLACK
6
CONTINUOUS
10
0.6350560236220473
20
0.3385124803149606
11
0.6350561417322834
21
0.3385122047244095
0
LINE
8
BLACK
6
CONTINUOUS
10
0.6350561417322834
20
0.3385122047244095
11
0.6381683070866142
21
0.3331216929133858
0
LINE
8
BLACK
6
CONTINUOUS
10
0.6381683070866142
20
0.3331216929133858
11
0.6381684645669291
21
0.3331214960629921
0
LINE
8
BLACK
6
CONTINUOUS
10
0.6381684645669291
20
0.3331214960629921
11
0.6381685039370079
21
0.3331214173228346
0
LINE
8
BLACK
6
CONTINUOUS
10
0.6381685039370079
20
0.3331214173228346
11
0.6425702362204724
21
0.32871968503937
0
LINE
8
BLACK
6
CONTINUOUS
10
0.6425702362204724
20
0.32871968503937
11
0.6425703149606299
21
0.3287196456692913
0
LINE
8
BLACK
6
CONTINUOUS
10
0.6425703149606299
20
0.3287196456692913
11
0.6425704724409449
21
0.3287195275590551
0
LINE
8
BLACK
6
CONTINUOUS
10
0.6425704724409449
20
0.3287195275590551
11
0.6479609842519685
21
0.3256073228346457
0
LINE
8
BLACK
6
CONTINUOUS
10
0.6479609842519685
20
0.3256073228346457
11
0.6479611023622047
21
0.3256072834645669
0
LINE
8
BLACK
6
CONTINUOUS
10
0.6479611023622047
20
0.3256072834645669
11
0.6479611417322835
21
0.3256072834645669
0
LINE
8
BLACK
6
CONTINUOUS
10
0.6479611417322835
20
0.3256072834645669
11
0.6479612598425196
21
0.3256072047244095
0
LINE
8
BLACK
6
CONTINUOUS
10
0.6479612598425196
20
0.3256072047244095
11
0.6479736614173228
21
0.3256038976377953
0
LINE
8
BLACK
6
CONTINUOUS
10
0.6479736614173228
20
0.3256038976377953
11
0.6479829133858268
21
0.3255982677165354
0
LINE
8
BLACK
6
CONTINUOUS
10
0.6479829133858268
20
0.3255982677165354
11
0.6482567322834646
21
0.325484842519685
0
LINE
8
BLACK
6
CONTINUOUS
10
0.6482567322834646
20
0.325484842519685
11
0.6482390157480314
21
0.3254421653543307
0
LINE
8
BLACK
6
CONTINUOUS
10
0.6482390157480314
20
0.3254421653543307
11
0.6503224803149606
21
0.3241723228346456
0
LINE
8
BLACK
6
CONTINUOUS
10
0.6503224803149606
20
0.3241723228346456
11
0.6511316929133858
21
0.322958031496063
0
LINE
8
BLACK
6
CONTINUOUS
10
0.6511316929133858
20
0.322958031496063
11
0.6570866141732283
21
0.3102362204724409
0
LINE
8
BLACK
6
CONTINUOUS
10
0.6570866141732283
20
0.3102362204724409
11
0.6706832677165354
21
0.3080760236220472
0
LINE
8
BLACK
6
CONTINUOUS
10
0.6706832677165354
20
0.3080760236220472
11
0.6731683070866141
21
0.3068964960629921
0
LINE
8
BLACK
6
CONTINUOUS
10
0.6731683070866141
20
0.3068964960629921
11
0.6746211811023622
21
0.3045607086614173
0
LINE
8
BLACK
6
CONTINUOUS
10
0.6746211811023622
20
0.3045607086614173
11
0.6745805905511811
21
0.3018102362204724
0
LINE
8
BLACK
6
CONTINUOUS
10
0.6745805905511811
20
0.3018102362204724
11
0.6741451181102363
21
0.3008137007874016
0
LINE
8
BLACK
6
CONTINUOUS
10
0.6741451181102363
20
0.3008137007874016
11
0.6716701968503936
21
0.296526968503937
0
LINE
8
BLACK
6
CONTINUOUS
10
0.6716701968503936
20
0.296526968503937
11
0.6716701968503936
21
0.2965269291338583
0
LINE
8
BLACK
6
CONTINUOUS
10
0.6716701968503936
20
0.2965269291338583
11
0.6700590551181103
21
0.2905140551181102
0
LINE
8
BLACK
6
CONTINUOUS
10
0.6700590551181103
20
0.2905140551181102
11
0.6700590551181103
21
0.284289094488189
0
LINE
8
BLACK
6
CONTINUOUS
10
0.6700590551181103
20
0.284289094488189
11
0.6715651181102362
21
0.2786684645669291
0
LINE
8
BLACK
6
CONTINUOUS
10
0.6715651181102362
20
0.2786684645669291
11
0.6716701968503936
21
0.2782762598425197
0
LINE
8
BLACK
6
CONTINUOUS
10
0.6716701968503936
20
0.2782762598425197
11
0.6716703149606299
21
0.2782759842519685
0
LINE
8
BLACK
6
CONTINUOUS
10
0.6716703149606299
20
0.2782759842519685
11
0.6747824803149606
21
0.2728854724409449
0
LINE
8
BLACK
6
CONTINUOUS
10
0.6747824803149606
20
0.2728854724409449
11
0.6747826377952756
21
0.2728852755905512
0
LINE
8
BLACK
6
CONTINUOUS
10
0.6747826377952756
20
0.2728852755905512
11
0.6747826771653543
21
0.2728851968503937
0
LINE
8
BLACK
6
CONTINUOUS
10
0.6747826771653543
20
0.2728851968503937
11
0.6791844094488189
21
0.2684834645669291
0
LINE
8
BLACK
6
CONTINUOUS
10
0.6791844094488189
20
0.2684834645669291
11
0.6791844881889764
21
0.2684834251968504
0
LINE
8
BLACK
6
CONTINUOUS
10
0.6791844881889764
20
0.2684834251968504
11
0.6791846456692914
21
0.2684833070866142
0
LINE
8
BLACK
6
CONTINUOUS
10
0.6791846456692914
20
0.2684833070866142
11
0.679499094488189
21
0.2683017716535433
0
LINE
8
BLACK
6
CONTINUOUS
10
0.679499094488189
20
0.2683017716535433
11
0.6845754330708661
21
0.2653709842519685
0
LINE
8
BLACK
6
CONTINUOUS
10
0.6845754330708661
20
0.2653709842519685
11
0.6905883070866141
21
0.263759842519685
0
LINE
8
BLACK
6
CONTINUOUS
10
0.6905883070866141
20
0.263759842519685
11
0.6905883858267716
21
0.263759842519685
0
LINE
8
BLACK
6
CONTINUOUS
10
0.6905883858267716
20
0.263759842519685
11
0.6968131889763779
21
0.263759842519685
0
LINE
8
BLACK
6
CONTINUOUS
10
0.6968131889763779
20
0.263759842519685
11
0.6968132677165354
21
0.263759842519685
0
LINE
8
BLACK
6
CONTINUOUS
10
0.6968132677165354
20
0.263759842519685
11
0.7028261417322834
21
0.2653709842519685
0
LINE
8
BLACK
6
CONTINUOUS
10
0.7028261417322834
20
0.2653709842519685
11
0.7082171653543307
21
0.2684834645669291
0
LINE
8
BLACK
6
CONTINUOUS
10
0.7082171653543307
20
0.2684834645669291
11
0.7082173622047244
21
0.2684837007874016
0
LINE
8
BLACK
6
CONTINUOUS
10
0.7082173622047244
20
0.2684837007874016
11
0.7084426377952756
21
0.2686564960629921
0
LINE
8
BLACK
6
CONTINUOUS
10
0.7084426377952756
20
0.2686564960629921
11
0.7110083464566929
21
0.2696484251968504
0
LINE
8
BLACK
6
CONTINUOUS
10
0.7110083464566929
20
0.2696484251968504
11
0.7114146062992126
21
0.2696653543307087
0
LINE
8
BLACK
6
CONTINUOUS
10
0.7114146062992126
20
0.2696653543307087
11
0.8551377952755905
21
0.2696653543307087
0
LINE
8
BLACK
6
CONTINUOUS
10
0.8551377952755905
20
0.2696653543307087
11
0.8577771259842519
21
0.2688903543307087
0
LINE
8
BLACK
6
CONTINUOUS
10
0.8577771259842519
20
0.2688903543307087
11
0.8595785039370079
21
0.2668114566929134
0
LINE
8
BLACK
6
CONTINUOUS
10
0.8595785039370079
20
0.2668114566929134
11
0.8600196850393701
21
0.2647834645669291
0
LINE
8
BLACK
6
CONTINUOUS
10
0.8600196850393701
20
0.2647834645669291
11
0.8600196850393701
21
0.2253993700787401
0
LINE
8
BLACK
6
CONTINUOUS
10
0.8600196850393701
20
0.2253993700787401
11
0.8600197637795275
21
0.2253983464566929
0
LINE
8
BLACK
6
CONTINUOUS
10
0.8600197637795275
20
0.2253983464566929
11
0.8601343700787402
21
0.2244099606299212
0
LINE
8
BLACK
6
CONTINUOUS
10
0.8601343700787402
20
0.2244099606299212
11
0.8601344488188977
21
0.2244098031496063
0
LINE
8
BLACK
6
CONTINUOUS
10
0.8601344488188977
20
0.2244098031496063
11
0.8619209842519685
21
0.2203636220472441
0
LINE
8
BLACK
6
CONTINUOUS
10
0.8619209842519685
20
0.2203636220472441
11
0.8619210236220473
21
0.2203635826771654
0
LINE
8
BLACK
6
CONTINUOUS
10
0.8619210236220473
20
0.2203635826771654
11
0.8650486220472441
21
0.2172359842519685
0
LINE
8
BLACK
6
CONTINUOUS
10
0.8650486220472441
20
0.2172359842519685
11
0.8690948425196851
21
0.2154494094488189
0
LINE
8
BLACK
6
CONTINUOUS
10
0.8690948425196851
20
0.2154494094488189
11
0.8700840551181103
21
0.2153346456692913
0
LINE
8
BLACK
6
CONTINUOUS
10
0.8700840551181103
20
0.2153346456692913
11
0.9596653543307087
21
0.2153346850393701
0
LINE
8
BLACK
6
CONTINUOUS
10
0.9596653543307087
20
0.2153346850393701
11
0.9623046850393701
21
0.2145596850393701
0
LINE
8
BLACK
6
CONTINUOUS
10
0.9623046850393701
20
0.2145596850393701
11
0.964106062992126
21
0.2124808267716535
0
LINE
8
BLACK
6
CONTINUOUS
10
0.964106062992126
20
0.2124808267716535
11
0.9645472440944882
21
0.2104527952755905
0
LINE
8
BLACK
6
CONTINUOUS
10
0.9645472440944882
20
0.2104527952755905
11
0.9645472440944882
21
0.1665354330708661
0
LINE
8
BLACK
6
CONTINUOUS
10
0.9645472440944882
20
0.1665354330708661
11
0.9706692913385827
21
0.1665354330708661
0
LINE
8
BLACK
6
CONTINUOUS
10
0.9706692913385827
20
0.1665354330708661
11
0.9706692913385827
21
0.1271653543307087
0
LINE
8
BLACK
6
CONTINUOUS
10
0.9706692913385827
20
0.1271653543307087
11
0.9645472440944882
21
0.1271653543307087
0
LINE
8
BLACK
6
CONTINUOUS
10
0.9645472440944882
20
0.1271653543307087
11
0.9645472440944882
21
0.0395559448818898
0
LINE
8
BLACK
6
CONTINUOUS
10
0.9645472440944882
20
0.0395559448818898
11
0.9637722440944881
21
0.0369166141732283
0
LINE
8
BLACK
6
CONTINUOUS
10
0.9637722440944881
20
0.0369166141732283
11
0.9616933464566929
21
0.0351152362204724
0
LINE
8
BLACK
6
CONTINUOUS
10
0.9616933464566929
20
0.0351152362204724
11
0.9589705905511811
21
0.0347237401574803
0
LINE
8
BLACK
6
CONTINUOUS
10
0.9589705905511811
20
0.0347237401574803
11
0.9564683858267716
21
0.0358664566929134
0
LINE
8
BLACK
6
CONTINUOUS
10
0.9564683858267716
20
0.0358664566929134
11
0.9554941732283464
21
0.0370194094488189
0
LINE
8
BLACK
6
CONTINUOUS
10
0.9554941732283464
20
0.0370194094488189
11
0.9503216535433071
21
0.0455252755905512
0
LINE
8
BLACK
6
CONTINUOUS
10
0.9503216535433071
20
0.0455252755905512
11
0.9435219291338582
21
0.0538832677165354
0
LINE
8
BLACK
6
CONTINUOUS
10
0.9435219291338582
20
0.0538832677165354
11
0.9356472047244094
21
0.0612377952755905
0
LINE
8
BLACK
6
CONTINUOUS
10
0.9356472047244094
20
0.0612377952755905
11
0.9268450393700787
21
0.0674510236220472
0
LINE
8
BLACK
6
CONTINUOUS
10
0.9268450393700787
20
0.0674510236220472
11
0.9268448031496063
21
0.0674511811023622
0
LINE
8
BLACK
6
CONTINUOUS
10
0.9268448031496063
20
0.0674511811023622
11
0.9172779527559055
21
0.0724083070866142
0
LINE
8
BLACK
6
CONTINUOUS
10
0.9172779527559055
20
0.0724083070866142
11
0.9071257874015748
21
0.0760164173228347
0
LINE
8
BLACK
6
CONTINUOUS
10
0.9071257874015748
20
0.0760164173228347
11
0.907125157480315
21
0.0760166141732283
0
LINE
8
BLACK
6
CONTINUOUS
10
0.907125157480315
20
0.0760166141732283
11
0.8965763779527559
21
0.0782086220472441
0
LINE
8
BLACK
6
CONTINUOUS
10
0.8965763779527559
20
0.0782086220472441
11
0.8965762992125984
21
0.0782086614173228
0
LINE
8
BLACK
6
CONTINUOUS
10
0.8965762992125984
20
0.0782086614173228
11
0.8858267716535433
21
0.0789438976377953
0
LINE
8
BLACK
6
CONTINUOUS
10
0.8858267716535433
20
0.0789438976377953
11
0.8750772047244094
21
0.0782086614173228
0
LINE
8
BLACK
6
CONTINUOUS
10
0.8750772047244094
20
0.0782086614173228
11
0.8750771259842519
21
0.0782086220472441
0
LINE
8
BLACK
6
CONTINUOUS
10
0.8750771259842519
20
0.0782086220472441
11
0.8645283464566929
21
0.0760166141732283
0
LINE
8
BLACK
6
CONTINUOUS
10
0.8645283464566929
20
0.0760166141732283
11
0.864527716535433
21
0.0760164173228347
0
LINE
8
BLACK
6
CONTINUOUS
10
0.864527716535433
20
0.0760164173228347
11
0.8543755511811023
21
0.0724083070866142
0
LINE
8
BLACK
6
CONTINUOUS
10
0.8543755511811023
20
0.0724083070866142
11
0.8448087007874016
21
0.0674511811023622
0
LINE
8
BLACK
6
CONTINUOUS
10
0.8448087007874016
20
0.0674511811023622
11
0.8448084645669292
21
0.0674510236220472
0
LINE
8
BLACK
6
CONTINUOUS
10
0.8448084645669292
20
0.0674510236220472
11
0.8360062992125984
21
0.0612377952755905
0
LINE
8
BLACK
6
CONTINUOUS
10
0.8360062992125984
20
0.0612377952755905
11
0.8281315748031496
21
0.0538832677165354
0
LINE
8
BLACK
6
CONTINUOUS
10
0.8281315748031496
20
0.0538832677165354
11
0.8213318503937008
21
0.0455252755905512
0
LINE
8
BLACK
6
CONTINUOUS
10
0.8213318503937008
20
0.0455252755905512
11
0.8157335826771653
21
0.0363192913385827
0
LINE
8
BLACK
6
CONTINUOUS
10
0.8157335826771653
20
0.0363192913385827
11
0.8114410629921259
21
0.0264368897637795
0
LINE
8
BLACK
6
CONTINUOUS
10
0.8114410629921259
20
0.0264368897637795
11
0.8105536220472441
21
0.0232694881889764
0
LINE
8
BLACK
6
CONTINUOUS
10
0.8105536220472441
20
0.0232694881889764
11
0.8090952755905512
21
0.020937125984252
0
LINE
8
BLACK
6
CONTINUOUS
10
0.8090952755905512
20
0.020937125984252
11
0.8066074803149607
21
0.0197634251968504
0
LINE
8
BLACK
6
CONTINUOUS
10
0.8066074803149607
20
0.0197634251968504
11
0.8058527559055118
21
0.0197047244094488
0
LINE
8
BLACK
6
CONTINUOUS
10
0.8058527559055118
20
0.0197047244094488
11
0.5720999999999999
21
0.0197047244094488
0
LINE
8
BLACK
6
CONTINUOUS
10
0.5720999999999999
20
0.0197047244094488
11
0.5694606692913385
21
0.0204797244094488
0
LINE
8
BLACK
6
CONTINUOUS
10
0.5694606692913385
20
0.0204797244094488
11
0.5676592913385826
21
0.0225586220472441
0
LINE
8
BLACK
6
CONTINUOUS
10
0.5676592913385826
20
0.0225586220472441
11
0.5673991338582677
21
0.0232694881889764
0
LINE
8
BLACK
6
CONTINUOUS
10
0.5673991338582677
20
0.0232694881889764
11
0.5665117322834645
21
0.0264366929133858
0
LINE
8
BLACK
6
CONTINUOUS
10
0.5665117322834645
20
0.0264366929133858
11
0.5661622440944881
21
0.0272412598425197
0
LINE
8
BLACK
6
CONTINUOUS
10
0.5661622440944881
20
0.0272412598425197
11
0.5636042519685039
21
0.0331303543307087
0
LINE
8
BLACK
6
CONTINUOUS
10
0.5636042519685039
20
0.0331303543307087
11
0.562219094488189
21
0.0363192913385827
0
LINE
8
BLACK
6
CONTINUOUS
10
0.562219094488189
20
0.0363192913385827
11
0.5622191338582677
21
0.0363192913385827
0
LINE
8
BLACK
6
CONTINUOUS
10
0.5622191338582677
20
0.0363192913385827
11
0.5566208661417322
21
0.0455252755905512
0
LINE
8
BLACK
6
CONTINUOUS
10
0.5566208661417322
20
0.0455252755905512
11
0.5498211417322835
21
0.0538832677165354
0
LINE
8
BLACK
6
CONTINUOUS
10
0.5498211417322835
20
0.0538832677165354
11
0.5419464173228347
21
0.0612377952755905
0
LINE
8
BLACK
6
CONTINUOUS
10
0.5419464173228347
20
0.0612377952755905
11
0.5331442519685039
21
0.0674510236220472
0
LINE
8
BLACK
6
CONTINUOUS
10
0.5331442519685039
20
0.0674510236220472
11
0.5331440157480315
21
0.0674511811023622
0
LINE
8
BLACK
6
CONTINUOUS
10
0.5331440157480315
20
0.0674511811023622
11
0.5235771653543307
21
0.0724083070866142
0
LINE
8
BLACK
6
CONTINUOUS
10
0.5235771653543307
20
0.0724083070866142
11
0.513425
21
0.0760164173228347
0
LINE
8
BLACK
6
CONTINUOUS
10
0.513425
20
0.0760164173228347
11
0.5134243700787402
21
0.0760166141732283
0
LINE
8
BLACK
6
CONTINUOUS
10
0.5134243700787402
20
0.0760166141732283
11
0.5028755905511811
21
0.0782086220472441
0
LINE
8
BLACK
6
CONTINUOUS
10
0.5028755905511811
20
0.0782086220472441
11
0.5028755118110236
21
0.0782086614173228
0
LINE
8
BLACK
6
CONTINUOUS
10
0.5028755118110236
20
0.0782086614173228
11
0.4921259842519685
21
0.0789438976377953
0
LINE
8
BLACK
6
CONTINUOUS
10
0.4921259842519685
20
0.0789438976377953
11
0.4813764173228346
21
0.0782086614173228
0
LINE
8
BLACK
6
CONTINUOUS
10
0.4813764173228346
20
0.0782086614173228
11
0.4813763385826771
21
0.0782086220472441
0
LINE
8
BLACK
6
CONTINUOUS
10
0.4813763385826771
20
0.0782086220472441
11
0.4708275590551181
21
0.0760166141732283
0
LINE
8
BLACK
6
CONTINUOUS
10
0.4708275590551181
20
0.0760166141732283
11
0.4708269291338583
21
0.0760164173228347
0
LINE
8
BLACK
6
CONTINUOUS
10
0.4708269291338583
20
0.0760164173228347
11
0.4606747637795275
21
0.0724083070866142
0
LINE
8
BLACK
6
CONTINUOUS
10
0.4606747637795275
20
0.0724083070866142
11
0.4511079133858268
21
0.0674511811023622
0
LINE
8
BLACK
6
CONTINUOUS
10
0.4511079133858268
20
0.0674511811023622
11
0.4511076771653543
21
0.0674510236220472
0
LINE
8
BLACK
6
CONTINUOUS
10
0.4511076771653543
20
0.0674510236220472
11
0.4423055118110236
21
0.0612377952755905
0
LINE
8
BLACK
6
CONTINUOUS
10
0.4423055118110236
20
0.0612377952755905
11
0.4344307874015748
21
0.0538832677165354
0
LINE
8
BLACK
6
CONTINUOUS
10
0.4344307874015748
20
0.0538832677165354
11
0.427631062992126
21
0.0455252755905512
0
LINE
8
BLACK
6
CONTINUOUS
10
0.427631062992126
20
0.0455252755905512
11
0.4220327952755906
21
0.0363192913385827
0
LINE
8
BLACK
6
CONTINUOUS
10
0.4220327952755906
20
0.0363192913385827
11
0.4177402755905512
21
0.0264368897637795
0
LINE
8
BLACK
6
CONTINUOUS
10
0.4177402755905512
20
0.0264368897637795
11
0.4168528346456693
21
0.0232694881889764
0
LINE
8
BLACK
6
CONTINUOUS
10
0.4168528346456693
20
0.0232694881889764
11
0.4153944881889763
21
0.020937125984252
0
LINE
8
BLACK
6
CONTINUOUS
10
0.4153944881889763
20
0.020937125984252
11
0.4129066929133858
21
0.0197634251968504
0
LINE
8
BLACK
6
CONTINUOUS
10
0.4129066929133858
20
0.0197634251968504
11
0.412151968503937
21
0.0197047244094488
0
LINE
8
BLACK
6
CONTINUOUS
10
0.412151968503937
20
0.0197047244094488
11
0.387239094488189
21
0.0197047244094488
0
LINE
8
BLACK
6
CONTINUOUS
10
0.387239094488189
20
0.0197047244094488
11
0.3845997637795275
21
0.0204797244094488
0
LINE
8
BLACK
6
CONTINUOUS
10
0.3845997637795275
20
0.0204797244094488
11
0.3827983858267717
21
0.0225586220472441
0
LINE
8
BLACK
6
CONTINUOUS
10
0.3827983858267717
20
0.0225586220472441
11
0.3824068897637795
21
0.0252813779527559
0
LINE
8
BLACK
6
CONTINUOUS
10
0.3824068897637795
20
0.0252813779527559
11
0.3831346850393701
21
0.0271808267716535
0
LINE
8
BLACK
6
CONTINUOUS
10
0.3831346850393701
20
0.0271808267716535
11
0.383130748031496
21
0.0271829133858268
0
LINE
8
BLACK
6
CONTINUOUS
10
0.383130748031496
20
0.0271829133858268
11
0.3831476377952756
21
0.0272145669291339
0
LINE
8
BLACK
6
CONTINUOUS
10
0.3831476377952756
20
0.0272145669291339
11
0.3831799606299213
21
0.0272988582677165
0
LINE
8
BLACK
6
CONTINUOUS
10
0.3831799606299213
20
0.0272988582677165
11
0.3832437007874016
21
0.0273942913385827
0
LINE
8
BLACK
6
CONTINUOUS
10
0.3832437007874016
20
0.0273942913385827
11
0.3832437007874016
21
0.0273943307086614
0
LINE
8
BLACK
6
CONTINUOUS
10
0.3832437007874016
20
0.0273943307086614
11
0.3832438582677165
21
0.0273945275590551
0
LINE
8
BLACK
6
CONTINUOUS
10
0.3832438582677165
20
0.0273945275590551
11
0.3856195669291339
21
0.0331300393700787
0
LINE
8
BLACK
6
CONTINUOUS
10
0.3856195669291339
20
0.0331300393700787
11
0.3868307086614173
21
0.0392188188976378
0
LINE
8
BLACK
6
CONTINUOUS
10
0.3868307086614173
20
0.0392188188976378
11
0.3868307086614173
21
0.0423228346456693
0
LINE
8
BLACK
6
CONTINUOUS
10
0.3868307086614173
20
0.0423228346456693
11
0.3868307086614173
21
0.0449170078740157
0
LINE
8
BLACK
6
CONTINUOUS
10
0.3868307086614173
20
0.0449170078740157
11
0.3868307086614173
21
0.1000351181102362
0
LINE
8
BLACK
6
CONTINUOUS
10
0.3868307086614173
20
0.1000351181102362
11
0.3868307086614173
21
0.1005449606299213
0
LINE
8
BLACK
6
CONTINUOUS
10
0.3868307086614173
20
0.1005449606299213
11
0.3868307086614173
21
0.1005450787401575
0
LINE
8
BLACK
6
CONTINUOUS
10
0.3868307086614173
20
0.1005450787401575
11
0.3868306692913386
21
0.100545157480315
0
LINE
8
BLACK
6
CONTINUOUS
10
0.3868306692913386
20
0.100545157480315
11
0.3856196062992126
21
0.1066334645669291
0
LINE
8
BLACK
6
CONTINUOUS
10
0.3856196062992126
20
0.1066334645669291
11
0.3856195669291339
21
0.1066337401574803
0
LINE
8
BLACK
6
CONTINUOUS
10
0.3856195669291339
20
0.1066337401574803
11
0.3856194881889763
21
0.106633937007874
0
LINE
8
BLACK
6
CONTINUOUS
10
0.3856194881889763
20
0.106633937007874
11
0.3832439763779528
21
0.1123690157480315
0
LINE
8
BLACK
6
CONTINUOUS
10
0.3832439763779528
20
0.1123690157480315
11
0.3832437007874016
21
0.1123695275590551
0
LINE
8
BLACK
6
CONTINUOUS
10
0.3832437007874016
20
0.1123695275590551
11
0.379794842519685
21
0.117531062992126
0
LINE
8
BLACK
6
CONTINUOUS
10
0.379794842519685
20
0.117531062992126
11
0.3797947244094488
21
0.1175312204724409
0
LINE
8
BLACK
6
CONTINUOUS
10
0.3797947244094488
20
0.1175312204724409
11
0.3754051968503937
21
0.1219207480314961
0
LINE
8
BLACK
6
CONTINUOUS
10
0.3754051968503937
20
0.1219207480314961
11
0.3754050393700787
21
0.1219208661417323
0
LINE
8
BLACK
6
CONTINUOUS
10
0.3754050393700787
20
0.1219208661417323
11
0.3702435039370079
21
0.1253697244094488
0
LINE
8
BLACK
6
CONTINUOUS
10
0.3702435039370079
20
0.1253697244094488
11
0.3702429921259842
21
0.12537
0
LINE
8
BLACK
6
CONTINUOUS
10
0.3702429921259842
20
0.12537
11
0.3645079133858268
21
0.1277455118110236
0
LINE
8
BLACK
6
CONTINUOUS
10
0.3645079133858268
20
0.1277455118110236
11
0.3645074409448819
21
0.1277456299212598
0
LINE
8
BLACK
6
CONTINUOUS
10
0.3645074409448819
20
0.1277456299212598
11
0.358419094488189
21
0.1289566929133858
0
LINE
8
BLACK
6
CONTINUOUS
10
0.358419094488189
20
0.1289566929133858
11
0.3584189763779527
21
0.1289566929133858
0
LINE
8
BLACK
6
CONTINUOUS
10
0.3584189763779527
20
0.1289566929133858
11
0.3579091338582677
21
0.1289566929133858
0
LINE
8
BLACK
6
CONTINUOUS
10
0.3579091338582677
20
0.1289566929133858
11
0.2949170078740158
21
0.1289566929133858
0
LINE
8
BLACK
6
CONTINUOUS
10
0.2949170078740158
20
0.1289566929133858
11
0.2923228346456693
21
0.1289566929133858
0
LINE
8
BLACK
6
CONTINUOUS
10
0.2923228346456693
20
0.1289566929133858
11
0.2892188188976378
21
0.1289566929133858
0
LINE
8
BLACK
6
CONTINUOUS
10
0.2892188188976378
20
0.1289566929133858
11
0.2892187007874016
21
0.1289566929133858
0
LINE
8
BLACK
6
CONTINUOUS
10
0.2892187007874016
20
0.1289566929133858
11
0.2831303149606299
21
0.1277456299212598
0
LINE
8
BLACK
6
CONTINUOUS
10
0.2831303149606299
20
0.1277456299212598
11
0.283129842519685
21
0.1277455118110236
0
LINE
8
BLACK
6
CONTINUOUS
10
0.283129842519685
20
0.1277455118110236
11
0.2773947637795275
21
0.12537
0
LINE
8
BLACK
6
CONTINUOUS
10
0.2773947637795275
20
0.12537
11
0.2773942519685039
21
0.1253697244094488
0
LINE
8
BLACK
6
CONTINUOUS
10
0.2773942519685039
20
0.1253697244094488
11
0.2722327165354331
21
0.1219208661417323
0
LINE
8
BLACK
6
CONTINUOUS
10
0.2722327165354331
20
0.1219208661417323
11
0.2722325590551181
21
0.1219207480314961
0
LINE
8
BLACK
6
CONTINUOUS
10
0.2722325590551181
20
0.1219207480314961
11
0.267843031496063
21
0.1175312204724409
0
LINE
8
BLACK
6
CONTINUOUS
10
0.267843031496063
20
0.1175312204724409
11
0.2678429133858268
21
0.117531062992126
0
LINE
8
BLACK
6
CONTINUOUS
10
0.2678429133858268
20
0.117531062992126
11
0.2643940551181102
21
0.1123695275590551
0
LINE
8
BLACK
6
CONTINUOUS
10
0.2643940551181102
20
0.1123695275590551
11
0.264393779527559
21
0.1123690157480315
0
LINE
8
BLACK
6
CONTINUOUS
10
0.264393779527559
20
0.1123690157480315
11
0.2620182677165354
21
0.106633937007874
0
LINE
8
BLACK
6
CONTINUOUS
10
0.2620182677165354
20
0.106633937007874
11
0.2620181496062992
21
0.1066334645669291
0
LINE
8
BLACK
6
CONTINUOUS
10
0.2620181496062992
20
0.1066334645669291
11
0.2608070866141732
21
0.100545157480315
0
LINE
8
BLACK
6
CONTINUOUS
10
0.2608070866141732
20
0.100545157480315
11
0.2608070866141732
21
0.0392186614173228
0
LINE
8
BLACK
6
CONTINUOUS
10
0.2608070866141732
20
0.0392186614173228
11
0.2620181496062992
21
0.0331303543307087
0
LINE
8
BLACK
6
CONTINUOUS
10
0.2620181496062992
20
0.0331303543307087
11
0.2620182677165354
21
0.0331298818897638
0
LINE
8
BLACK
6
CONTINUOUS
10
0.2620182677165354
20
0.0331298818897638
11
0.264393779527559
21
0.0273948031496063
0
LINE
8
BLACK
6
CONTINUOUS
10
0.264393779527559
20
0.0273948031496063
11
0.2643940551181102
21
0.0273942913385827
0
LINE
8
BLACK
6
CONTINUOUS
10
0.2643940551181102
20
0.0273942913385827
11
0.2644578346456693
21
0.0272988582677165
0
LINE
8
BLACK
6
CONTINUOUS
10
0.2644578346456693
20
0.0272988582677165
11
0.2644758661417323
21
0.0272412598425197
0
LINE
8
BLACK
6
CONTINUOUS
10
0.2644758661417323
20
0.0272412598425197
11
0.2645070472440945
21
0.0271829133858268
0
LINE
8
BLACK
6
CONTINUOUS
10
0.2645070472440945
20
0.0271829133858268
11
0.2644959842519685
21
0.0271770078740157
0
LINE
8
BLACK
6
CONTINUOUS
10
0.2644959842519685
20
0.0271770078740157
11
0.2652798031496063
21
0.0246737401574803
0
LINE
8
BLACK
6
CONTINUOUS
10
0.2652798031496063
20
0.0246737401574803
11
0.2645520472440945
21
0.0220209842519685
0
LINE
8
BLACK
6
CONTINUOUS
10
0.2645520472440945
20
0.0220209842519685
11
0.2625056692913386
21
0.0201827952755906
0
LINE
8
BLACK
6
CONTINUOUS
10
0.2625056692913386
20
0.0201827952755906
11
0.2603987007874016
21
0.0197047244094488
0
LINE
8
BLACK
6
CONTINUOUS
10
0.2603987007874016
20
0.0197047244094488
11
0.1783992125984252
21
0.0197047244094488
0
LINE
8
BLACK
6
CONTINUOUS
10
0.1783992125984252
20
0.0197047244094488
11
0.1757598818897638
21
0.0204797244094488
0
LINE
8
BLACK
6
CONTINUOUS
10
0.1757598818897638
20
0.0204797244094488
11
0.1739585039370079
21
0.0225586220472441
0
LINE
8
BLACK
6
CONTINUOUS
10
0.1739585039370079
20
0.0225586220472441
11
0.1736983464566929
21
0.0232694881889764
0
LINE
8
BLACK
6
CONTINUOUS
10
0.1736983464566929
20
0.0232694881889764
11
0.1728109448818897
21
0.0264366929133858
0
LINE
8
BLACK
6
CONTINUOUS
10
0.1728109448818897
20
0.0264366929133858
11
0.1724614566929134
21
0.0272412598425197
0
LINE
8
BLACK
6
CONTINUOUS
10
0.1724614566929134
20
0.0272412598425197
11
0.1699034645669291
21
0.0331303543307087
0
LINE
8
BLACK
6
CONTINUOUS
10
0.1699034645669291
20
0.0331303543307087
11
0.1685183070866142
21
0.0363192913385827
0
LINE
8
BLACK
6
CONTINUOUS
10
0.1685183070866142
20
0.0363192913385827
11
0.1685183464566929
21
0.0363192913385827
0
LINE
8
BLACK
6
CONTINUOUS
10
0.1685183464566929
20
0.0363192913385827
11
0.1629200787401575
21
0.0455252755905512
0
LINE
8
BLACK
6
CONTINUOUS
10
0.1629200787401575
20
0.0455252755905512
11
0.1561203543307087
21
0.0538832677165354
0
LINE
8
BLACK
6
CONTINUOUS
10
0.1561203543307087
20
0.0538832677165354
11
0.1482456299212598
21
0.0612377952755905
0
LINE
8
BLACK
6
CONTINUOUS
10
0.1482456299212598
20
0.0612377952755905
11
0.1394434645669291
21
0.0674510236220472
0
LINE
8
BLACK
6
CONTINUOUS
10
0.1394434645669291
20
0.0674510236220472
11
0.1394432283464567
21
0.0674511811023622
0
LINE
8
BLACK
6
CONTINUOUS
10
0.1394432283464567
20
0.0674511811023622
11
0.1298763779527559
21
0.0724083070866142
0
LINE
8
BLACK
6
CONTINUOUS
10
0.1298763779527559
20
0.0724083070866142
11
0.1197242125984252
21
0.0760164173228347
0
LINE
8
BLACK
6
CONTINUOUS
10
0.1197242125984252
20
0.0760164173228347
11
0.1197235826771653
21
0.0760166141732283
0
LINE
8
BLACK
6
CONTINUOUS
10
0.1197235826771653
20
0.0760166141732283
11
0.1091748031496063
21
0.0782086220472441
0
LINE
8
BLACK
6
CONTINUOUS
10
0.1091748031496063
20
0.0782086220472441
11
0.1091747244094488
21
0.0782086614173228
0
LINE
8
BLACK
6
CONTINUOUS
10
0.1091747244094488
20
0.0782086614173228
11
0.0984251968503937
21
0.0789438976377953
0
LINE
8
BLACK
6
CONTINUOUS
10
0.0984251968503937
20
0.0789438976377953
11
0.0876756299212598
21
0.0782086614173228
0
LINE
8
BLACK
6
CONTINUOUS
10
0.0876756299212598
20
0.0782086614173228
11
0.0876755511811024
21
0.0782086220472441
0
LINE
8
BLACK
6
CONTINUOUS
10
0.0876755511811024
20
0.0782086220472441
11
0.0771267716535433
21
0.0760166141732283
0
LINE
8
BLACK
6
CONTINUOUS
10
0.0771267716535433
20
0.0760166141732283
11
0.0771261417322835
21
0.0760164173228347
0
LINE
8
BLACK
6
CONTINUOUS
10
0.0771261417322835
20
0.0760164173228347
11
0.0669739763779528
21
0.0724083070866142
0
LINE
8
BLACK
6
CONTINUOUS
10
0.0669739763779528
20
0.0724083070866142
11
0.057407125984252
21
0.0674511811023622
0
LINE
8
BLACK
6
CONTINUOUS
10
0.057407125984252
20
0.0674511811023622
11
0.0574068897637795
21
0.0674510236220472
0
LINE
8
BLACK
6
CONTINUOUS
10
0.0574068897637795
20
0.0674510236220472
11
0.0486047244094488
21
0.0612377952755905
0
LINE
8
BLACK
6
CONTINUOUS
10
0.0486047244094488
20
0.0612377952755905
11
0.04073
21
0.0538832677165354
0
LINE
8
BLACK
6
CONTINUOUS
10
0.04073
20
0.0538832677165354
11
0.0339302755905512
21
0.0455252755905512
0
LINE
8
BLACK
6
CONTINUOUS
10
0.0339302755905512
20
0.0455252755905512
11
0.0287577952755905
21
0.0370194094488189
0
LINE
8
BLACK
6
CONTINUOUS
10
0.0287577952755905
20
0.0370194094488189
11
0.0267242913385827
21
0.035166968503937
0
LINE
8
BLACK
6
CONTINUOUS
10
0.0267242913385827
20
0.035166968503937
11
0.0240120472440945
21
0.0347079921259843
0
LINE
8
BLACK
6
CONTINUOUS
10
0.0240120472440945
20
0.0347079921259843
11
0.0214822834645669
21
0.0357881889763779
0
LINE
8
BLACK
6
CONTINUOUS
10
0.0214822834645669
20
0.0357881889763779
11
0.0199380708661417
21
0.0380646456692913
0
LINE
8
BLACK
6
CONTINUOUS
10
0.0199380708661417
20
0.0380646456692913
11
0.0197047244094488
21
0.0395559448818898
0
LINE
8
BLACK
6
CONTINUOUS
10
0.0197047244094488
20
0.0395559448818898
11
0.0197047244094488
21
0.1291288976377953
0
LINE
8
BLACK
6
CONTINUOUS
10
0.0197047244094488
20
0.1291288976377953
11
0.0169027165354331
21
0.1296862204724409
0
LINE
8
BLACK
6
CONTINUOUS
10
0.0169027165354331
20
0.1296862204724409
11
0.0137095669291339
21
0.1318198031496063
0
LINE
8
BLACK
6
CONTINUOUS
10
0.0137095669291339
20
0.1318198031496063
11
0.0115759842519685
21
0.1350129527559055
0
LINE
8
BLACK
6
CONTINUOUS
10
0.0115759842519685
20
0.1350129527559055
11
0.0108267716535433
21
0.1387795275590551
0
LINE
8
BLACK
6
CONTINUOUS
10
0.0108267716535433
20
0.1387795275590551
11
0.0108267716535433
21
0.1584645669291339
0
LINE
8
BLACK
6
CONTINUOUS
10
0.0108267716535433
20
0.1584645669291339
11
0.0115759842519685
21
0.1622311417322835
0
LINE
8
BLACK
6
CONTINUOUS
10
0.0115759842519685
20
0.1622311417322835
11
0.0137095669291339
21
0.1654242913385827
0
LINE
8
BLACK
6
CONTINUOUS
10
0.0137095669291339
20
0.1654242913385827
11
0.0169027165354331
21
0.167557874015748
0
LINE
8
BLACK
6
CONTINUOUS
10
0.0169027165354331
20
0.167557874015748
11
0.0197047244094488
21
0.1681152362204724
0
LINE
8
BLACK
6
CONTINUOUS
10
0.0197047244094488
20
0.1681152362204724
11
0.0197047244094488
21
0.4224359842519685
0
LINE
8
BLACK
6
CONTINUOUS
10
0.0197047244094488
20
0.4224359842519685
11
0.0169027165354331
21
0.4229933070866141
0
LINE
8
BLACK
6
CONTINUOUS
10
0.0169027165354331
20
0.4229933070866141
11
0.0137095669291339
21
0.4251268897637795
0
LINE
8
BLACK
6
CONTINUOUS
10
0.0137095669291339
20
0.4251268897637795
11
0.0115759842519685
21
0.4283200393700787
0
LINE
8
BLACK
6
CONTINUOUS
10
0.0115759842519685
20
0.4283200393700787
11
0.0108267716535433
21
0.4320866141732284
0
LINE
8
BLACK
6
CONTINUOUS
10
0.0108267716535433
20
0.4320866141732284
11
0.0108267716535433
21
0.4517716535433071
0
LINE
8
BLACK
6
CONTINUOUS
10
0.0108267716535433
20
0.4517716535433071
11
0.0115759842519685
21
0.4555382283464567
0
LINE
8
BLACK
6
CONTINUOUS
10
0.0115759842519685
20
0.4555382283464567
11
0.0137095669291339
21
0.4587313779527559
0
LINE
8
BLACK
6
CONTINUOUS
10
0.0137095669291339
20
0.4587313779527559
11
0.0169027165354331
21
0.4608649606299213
0
LINE
8
BLACK
6
CONTINUOUS
10
0.0169027165354331
20
0.4608649606299213
11
0.0197047244094488
21
0.4614223228346457
0
LINE
8
BLACK
6
CONTINUOUS
10
0.0197047244094488
20
0.4614223228346457
11
0.0197047244094488
21
0.5509952755905512
0
LINE
8
BLACK
6
CONTINUOUS
10
0.0197047244094488
20
0.5509952755905512
11
0.0204797244094488
21
0.5536346062992126
0
LINE
8
BLACK
6
CONTINUOUS
10
0.0204797244094488
20
0.5536346062992126
11
0.0225586220472441
21
0.5554359842519685
0
LINE
8
BLACK
6
CONTINUOUS
10
0.0225586220472441
20
0.5554359842519685
11
0.0252813779527559
21
0.5558274803149607
0
LINE
8
BLACK
6
CONTINUOUS
10
0.0252813779527559
20
0.5558274803149607
11
0.0277835826771654
21
0.5546847637795276
0
LINE
8
BLACK
6
CONTINUOUS
10
0.0277835826771654
20
0.5546847637795276
11
0.0287577952755905
21
0.553531811023622
0
LINE
8
BLACK
6
CONTINUOUS
10
0.0287577952755905
20
0.553531811023622
11
0.0339302755905512
21
0.5450259448818897
0
LINE
8
BLACK
6
CONTINUOUS
10
0.0339302755905512
20
0.5450259448818897
11
0.04073
21
0.5366679527559055
0
LINE
8
BLACK
6
CONTINUOUS
10
0.04073
20
0.5366679527559055
11
0.0486047244094488
21
0.5293134251968504
0
LINE
8
BLACK
6
CONTINUOUS
10
0.0486047244094488
20
0.5293134251968504
11
0.0574068897637795
21
0.5231001968503937
0
LINE
8
BLACK
6
CONTINUOUS
10
0.0574068897637795
20
0.5231001968503937
11
0.057407125984252
21
0.5231000393700788
0
LINE
8
BLACK
6
CONTINUOUS
10
0.057407125984252
20
0.5231000393700788
11
0.0574072047244094
21
0.5231
0
LINE
8
BLACK
6
CONTINUOUS
10
0.0574072047244094
20
0.5231
11
0.0669738582677165
21
0.5181429527559055
0
LINE
8
BLACK
6
CONTINUOUS
10
0.0669738582677165
20
0.5181429527559055
11
0.0669739763779528
21
0.5181429133858267
0
LINE
8
BLACK
6
CONTINUOUS
10
0.0669739763779528
20
0.5181429133858267
11
0.0771261417322835
21
0.5145348031496063
0
LINE
8
BLACK
6
CONTINUOUS
10
0.0771261417322835
20
0.5145348031496063
11
0.0771267716535433
21
0.5145346062992125
0
LINE
8
BLACK
6
CONTINUOUS
10
0.0771267716535433
20
0.5145346062992125
11
0.0846163385826772
21
0.5129783070866142
0
LINE
8
BLACK
6
CONTINUOUS
10
0.0846163385826772
20
0.5129783070866142
11
0.0876755905511811
21
0.5123425984251968
0
LINE
8
BLACK
6
CONTINUOUS
10
0.0876755905511811
20
0.5123425984251968
11
0.0876756299212598
21
0.5123425590551181
0
LINE
8
BLACK
6
CONTINUOUS
10
0.0876756299212598
20
0.5123425590551181
11
0.0883638188976378
21
0.5122955118110236
0
LINE
8
BLACK
6
CONTINUOUS
10
0.0883638188976378
20
0.5122955118110236
11
0.0984251968503937
21
0.511607283464567
0
LINE
8
BLACK
6
CONTINUOUS
10
0.0984251968503937
20
0.511607283464567
11
0.1091747244094488
21
0.5123425590551181
0
LINE
8
BLACK
6
CONTINUOUS
10
0.1091747244094488
20
0.5123425590551181
11
0.1139220472440945
21
0.513329094488189
0
LINE
8
BLACK
6
CONTINUOUS
10
0.1139220472440945
20
0.513329094488189
11
0.1197235826771653
21
0.5145346062992125
0
LINE
8
BLACK
6
CONTINUOUS
10
0.1197235826771653
20
0.5145346062992125
11
0.1197238188976378
21
0.5145347244094488
0
LINE
8
BLACK
6
CONTINUOUS
10
0.1197238188976378
20
0.5145347244094488
11
0.1197240157480315
21
0.5145347244094488
0
LINE
8
BLACK
6
CONTINUOUS
10
0.1197240157480315
20
0.5145347244094488
11
0.1298765354330709
21
0.5181429527559055
0
LINE
8
BLACK
6
CONTINUOUS
10
0.1298765354330709
20
0.5181429527559055
11
0.1394431889763779
21
0.5231
0
LINE
8
BLACK
6
CONTINUOUS
10
0.1394431889763779
20
0.5231
11
0.1482457480314961
21
0.5293135039370078
0
LINE
8
BLACK
6
CONTINUOUS
10
0.1482457480314961
20
0.5293135039370078
11
0.1561202362204724
21
0.5366677952755905
0
LINE
8
BLACK
6
CONTINUOUS
10
0.1561202362204724
20
0.5366677952755905
11
0.16292
21
0.5450257874015748
0
LINE
8
BLACK
6
CONTINUOUS
10
0.16292
20
0.5450257874015748
11
0.1685183070866142
21
0.5542318503937008
0
LINE
8
BLACK
6
CONTINUOUS
10
0.1685183070866142
20
0.5542318503937008
11
0.1687490551181102
21
0.554763031496063
0
LINE
8
BLACK
6
CONTINUOUS
10
0.1687490551181102
20
0.554763031496063
11
0.1728108661417323
21
0.5641143307086613
0
LINE
8
BLACK
6
CONTINUOUS
10
0.1728108661417323
20
0.5641143307086613
11
0.1728109448818897
21
0.5641144881889764
0
LINE
8
BLACK
6
CONTINUOUS
10
0.1728109448818897
20
0.5641144881889764
11
0.1736983464566929
21
0.5672817322834646
0
LINE
8
BLACK
6
CONTINUOUS
10
0.1736983464566929
20
0.5672817322834646
11
0.1751566929133858
21
0.5696140551181103
0
LINE
8
BLACK
6
CONTINUOUS
10
0.1751566929133858
20
0.5696140551181103
11
0.1776444881889764
21
0.5707877559055118
0
LINE
8
BLACK
6
CONTINUOUS
10
0.1776444881889764
20
0.5707877559055118
11
0.1783992125984252
21
0.5708464566929133
0
LINE
8
BLACK
6
CONTINUOUS
10
0.1783992125984252
20
0.5708464566929133
11
0.2594575196850394
21
0.5708464566929133
0
LINE
8
BLACK
6
CONTINUOUS
10
0.2594575196850394
20
0.5708464566929133
11
0.2620968503937008
21
0.5700714566929134
0
LINE
8
BLACK
6
CONTINUOUS
10
0.8238453149606298
20
0.1649988188976378
11
0.8270384645669291
21
0.1628652362204724
0
LINE
8
BLACK
6
CONTINUOUS
10
0.8270384645669291
20
0.1628652362204724
11
0.8291720472440944
21
0.1596720866141732
0
LINE
8
BLACK
6
CONTINUOUS
10
0.8291720472440944
20
0.1596720866141732
11
0.8299212598425196
21
0.1559055118110236
0
LINE
8
BLACK
6
CONTINUOUS
10
0.8299212598425196
20
0.1559055118110236
11
0.8299212598425196
21
0.1047244094488189
0
LINE
8
BLACK
6
CONTINUOUS
10
0.8299212598425196
20
0.1047244094488189
11
0.8291720472440944
21
0.1009578346456693
0
LINE
8
BLACK
6
CONTINUOUS
10
0.8291720472440944
20
0.1009578346456693
11
0.8270384645669291
21
0.0977646850393701
0
LINE
8
BLACK
6
CONTINUOUS
10
0.8270384645669291
20
0.0977646850393701
11
0.8238453149606298
21
0.0956311023622047
0
LINE
8
BLACK
6
CONTINUOUS
10
0.8238453149606298
20
0.0956311023622047
11
0.8200787401574803
21
0.0948818897637795
0
LINE
8
BLACK
6
CONTINUOUS
10
0.8200787401574803
20
0.0948818897637795
11
0.7708661417322834
21
0.0948818897637795
0
LINE
8
BLACK
6
CONTINUOUS
10
0.7708661417322834
20
0.0948818897637795
11
0.7708661417322834
21
0.0790642913385827
0
LINE
8
BLACK
6
CONTINUOUS
10
0.7708661417322834
20
0.0790642913385827
11
0.7729726377952756
21
0.0778480708661417
0
LINE
8
BLACK
6
CONTINUOUS
10
0.7729726377952756
20
0.0778480708661417
11
0.7758795669291338
21
0.0749411417322835
0
LINE
8
BLACK
6
CONTINUOUS
10
0.7758795669291338
20
0.0749411417322835
11
0.7779351181102362
21
0.0713808267716535
0
LINE
8
BLACK
6
CONTINUOUS
10
0.7779351181102362
20
0.0713808267716535
11
0.7789991338582677
21
0.067409842519685
0
LINE
8
BLACK
6
CONTINUOUS
10
0.7789991338582677
20
0.067409842519685
11
0.7789991338582677
21
0.0632988188976378
0
LINE
8
BLACK
6
CONTINUOUS
10
0.7789991338582677
20
0.0632988188976378
11
0.7779351181102362
21
0.0593278346456693
0
LINE
8
BLACK
6
CONTINUOUS
10
0.7779351181102362
20
0.0593278346456693
11
0.7758795669291338
21
0.0557675196850394
0
LINE
8
BLACK
6
CONTINUOUS
10
0.7758795669291338
20
0.0557675196850394
11
0.7729726377952756
21
0.0528605905511811
0
LINE
8
BLACK
6
CONTINUOUS
10
0.7729726377952756
20
0.0528605905511811
11
0.7694123228346457
21
0.0508050393700787
0
LINE
8
BLACK
6
CONTINUOUS
10
0.7694123228346457
20
0.0508050393700787
11
0.7654413385826772
21
0.0497410236220472
0
LINE
8
BLACK
6
CONTINUOUS
10
0.7654413385826772
20
0.0497410236220472
11
0.7613303149606299
21
0.0497410236220472
0
LINE
8
BLACK
6
CONTINUOUS
10
0.7613303149606299
20
0.0497410236220472
11
0.7573593307086613
21
0.0508050393700787
0
LINE
8
BLACK
6
CONTINUOUS
10
0.7573593307086613
20
0.0508050393700787
11
0.7537990157480314
21
0.0528605905511811
0
LINE
8
BLACK
6
CONTINUOUS
10
0.7537990157480314
20
0.0528605905511811
11
0.7508920866141732
21
0.0557675196850394
0
LINE
8
BLACK
6
CONTINUOUS
10
0.7508920866141732
20
0.0557675196850394
11
0.7488365354330708
21
0.0593278346456693
0
LINE
8
BLACK
6
CONTINUOUS
10
0.7488365354330708
20
0.0593278346456693
11
0.7477725196850393
21
0.0632988188976378
0
LINE
8
BLACK
6
CONTINUOUS
10
0.7477725196850393
20
0.0632988188976378
11
0.7477725196850393
21
0.067409842519685
0
LINE
8
BLACK
6
CONTINUOUS
10
0.7477725196850393
20
0.067409842519685
11
0.7488365354330708
21
0.0713808267716535
0
LINE
8
BLACK
6
CONTINUOUS
10
0.7488365354330708
20
0.0713808267716535
11
0.7508920866141732
21
0.0749411417322835
0
LINE
8
BLACK
6
CONTINUOUS
10
0.7508920866141732
20
0.0749411417322835
11
0.7537990157480314
21
0.0778480708661417
0
LINE
8
BLACK
6
CONTINUOUS
10
0.7537990157480314
20
0.0778480708661417
11
0.7551181102362204
21
0.0786096850393701
0
LINE
8
BLACK
6
CONTINUOUS
10
0.7551181102362204
20
0.0786096850393701
11
0.7551181102362204
21
0.0948818897637795
0
LINE
8
BLACK
6
CONTINUOUS
10
0.7551181102362204
20
0.0948818897637795
11
0.7059055118110236
21
0.0948818897637795
0
LINE
8
BLACK
6
CONTINUOUS
10
0.7059055118110236
20
0.0948818897637795
11
0.702138937007874
21
0.0956311023622047
0
LINE
8
BLACK
6
CONTINUOUS
10
0.702138937007874
20
0.0956311023622047
11
0.6989457874015748
21
0.0977646850393701
0
LINE
8
BLACK
6
CONTINUOUS
10
0.6989457874015748
20
0.0977646850393701
11
0.6968122047244094
21
0.1009578346456693
0
LINE
8
BLACK
6
CONTINUOUS
10
0.6968122047244094
20
0.1009578346456693
11
0.6960629921259842
21
0.1047244094488189
0
LINE
8
BLACK
6
CONTINUOUS
10
0.6960629921259842
20
0.1047244094488189
11
0.6960629921259842
21
0.1559055118110236
0
LINE
8
BLACK
6
CONTINUOUS
10
0.6960629921259842
20
0.1559055118110236
11
0.6968122047244094
21
0.1596720866141732
0
LINE
8
BLACK
6
CONTINUOUS
10
0.6968122047244094
20
0.1596720866141732
11
0.6989457874015748
21
0.1628652362204724
0
LINE
8
BLACK
6
CONTINUOUS
10
0.6989457874015748
20
0.1628652362204724
11
0.702138937007874
21
0.1649988188976378
0
LINE
8
BLACK
6
CONTINUOUS
10
0.702138937007874
20
0.1649988188976378
11
0.7059055118110236
21
0.165748031496063
0
LINE
8
BLACK
6
CONTINUOUS
10
0.7059055118110236
20
0.165748031496063
11
0.8200787401574803
21
0.165748031496063
0
LINE
8
BLACK
6
CONTINUOUS
10
0.8200787401574803
20
0.165748031496063
11
0.8238453149606298
21
0.1649988188976378
0
LINE
8
BLACK
6
CONTINUOUS
10
0.5728346456692913
20
0.1992125984251968
11
0.5507874015748031
21
0.1992125984251968
0
LINE
8
BLACK
6
CONTINUOUS
10
0.5507874015748031
20
0.1992125984251968
11
0.5507874015748031
21
0.1678133464566929
0
LINE
8
BLACK
6
CONTINUOUS
10
0.5507874015748031
20
0.1678133464566929
11
0.5525001968503936
21
0.1668244488188976
0
LINE
8
BLACK
6
CONTINUOUS
10
0.5525001968503936
20
0.1668244488188976
11
0.5554071259842519
21
0.1639175196850394
0
LINE
8
BLACK
6
CONTINUOUS
10
0.5554071259842519
20
0.1639175196850394
11
0.5574626771653544
21
0.1603572047244095
0
LINE
8
BLACK
6
CONTINUOUS
10
0.5574626771653544
20
0.1603572047244095
11
0.5585266929133859
21
0.1563862204724409
0
LINE
8
BLACK
6
CONTINUOUS
10
0.5585266929133859
20
0.1563862204724409
11
0.5585266929133859
21
0.1522751968503937
0
LINE
8
BLACK
6
CONTINUOUS
10
0.5585266929133859
20
0.1522751968503937
11
0.5574626771653544
21
0.1483042125984252
0
LINE
8
BLACK
6
CONTINUOUS
10
0.5574626771653544
20
0.1483042125984252
11
0.5554071259842519
21
0.1447438976377953
0
LINE
8
BLACK
6
CONTINUOUS
10
0.5554071259842519
20
0.1447438976377953
11
0.5525001968503936
21
0.141836968503937
0
LINE
8
BLACK
6
CONTINUOUS
10
0.5525001968503936
20
0.141836968503937
11
0.5489398818897637
21
0.1397814173228346
0
LINE
8
BLACK
6
CONTINUOUS
10
0.5489398818897637
20
0.1397814173228346
11
0.5449688976377952
21
0.1387174015748031
0
LINE
8
BLACK
6
CONTINUOUS
10
0.5449688976377952
20
0.1387174015748031
11
0.540857874015748
21
0.1387174015748031
0
LINE
8
BLACK
6
CONTINUOUS
10
0.540857874015748
20
0.1387174015748031
11
0.5368868897637795
21
0.1397814173228346
0
LINE
8
BLACK
6
CONTINUOUS
10
0.5368868897637795
20
0.1397814173228346
11
0.5333265748031496
21
0.141836968503937
0
LINE
8
BLACK
6
CONTINUOUS
10
0.5333265748031496
20
0.141836968503937
11
0.5304196456692913
21
0.1447438976377953
0
LINE
8
BLACK
6
CONTINUOUS
10
0.5304196456692913
20
0.1447438976377953
11
0.528364094488189
21
0.1483042125984252
0
LINE
8
BLACK
6
CONTINUOUS
10
0.528364094488189
20
0.1483042125984252
11
0.5273000787401575
21
0.1522751968503937
0
LINE
8
BLACK
6
CONTINUOUS
10
0.5273000787401575
20
0.1522751968503937
11
0.5273000787401575
21
0.1563862204724409
0
LINE
8
BLACK
6
CONTINUOUS
10
0.5273000787401575
20
0.1563862204724409
11
0.528364094488189
21
0.1603572047244095
0
LINE
8
BLACK
6
CONTINUOUS
10
0.528364094488189
20
0.1603572047244095
11
0.5304196456692913
21
0.1639175196850394
0
LINE
8
BLACK
6
CONTINUOUS
10
0.5304196456692913
20
0.1639175196850394
11
0.5333265748031496
21
0.1668244488188976
0
LINE
8
BLACK
6
CONTINUOUS
10
0.5333265748031496
20
0.1668244488188976
11
0.5350393700787401
21
0.1678133464566929
0
LINE
8
BLACK
6
CONTINUOUS
10
0.5350393700787401
20
0.1678133464566929
11
0.5350393700787401
21
0.1992125984251968
0
LINE
8
BLACK
6
CONTINUOUS
10
0.5350393700787401
20
0.1992125984251968
11
0.5137795275590551
21
0.1992125984251968
0
LINE
8
BLACK
6
CONTINUOUS
10
0.5137795275590551
20
0.1992125984251968
11
0.5137795275590551
21
0.2385826771653543
0
LINE
8
BLACK
6
CONTINUOUS
10
0.5137795275590551
20
0.2385826771653543
11
0.5728346456692913
21
0.2385826771653543
0
LINE
8
BLACK
6
CONTINUOUS
10
0.5728346456692913
20
0.2385826771653543
11
0.5728346456692913
21
0.1992125984251968
0
LINE
8
BLACK
6
CONTINUOUS
10
0.1290579921259843
20
0.3836437795275591
11
0.1326183070866142
21
0.3815882283464567
0
LINE
8
BLACK
6
CONTINUOUS
10
0.1326183070866142
20
0.3815882283464567
11
0.1355252362204724
21
0.3786812992125984
0
LINE
8
BLACK
6
CONTINUOUS
10
0.1355252362204724
20
0.3786812992125984
11
0.1375807874015748
21
0.3751209842519685
0
LINE
8
BLACK
6
CONTINUOUS
10
0.1375807874015748
20
0.3751209842519685
11
0.1386448031496063
21
0.37115
0
LINE
8
BLACK
6
CONTINUOUS
10
0.1386448031496063
20
0.37115
11
0.1386448031496063
21
0.3670389763779527
0
LINE
8
BLACK
6
CONTINUOUS
10
0.1386448031496063
20
0.3670389763779527
11
0.1375807874015748
21
0.3630679921259842
0
LINE
8
BLACK
6
CONTINUOUS
10
0.1375807874015748
20
0.3630679921259842
11
0.1355252362204724
21
0.3595076771653543
0
LINE
8
BLACK
6
CONTINUOUS
10
0.1355252362204724
20
0.3595076771653543
11
0.1326183070866142
21
0.3566007480314961
0
LINE
8
BLACK
6
CONTINUOUS
10
0.1326183070866142
20
0.3566007480314961
11
0.1290579921259843
21
0.3545451968503937
0
LINE
8
BLACK
6
CONTINUOUS
10
0.1290579921259843
20
0.3545451968503937
11
0.1250870078740157
21
0.3534811811023622
0
LINE
8
BLACK
6
CONTINUOUS
10
0.1250870078740157
20
0.3534811811023622
11
0.1209759842519685
21
0.3534811811023622
0
LINE
8
BLACK
6
CONTINUOUS
10
0.1209759842519685
20
0.3534811811023622
11
0.1181561417322835
21
0.3542367716535433
0
LINE
8
BLACK
6
CONTINUOUS
10
0.1181561417322835
20
0.3542367716535433
11
0.0915354330708661
21
0.3276160236220472
0
LINE
8
BLACK
6
CONTINUOUS
10
0.0915354330708661
20
0.3276160236220472
11
0.0915354330708661
21
0.2609666929133858
0
LINE
8
BLACK
6
CONTINUOUS
10
0.0915354330708661
20
0.2609666929133858
11
0.1212029133858268
21
0.2312992125984252
0
LINE
8
BLACK
6
CONTINUOUS
10
0.1212029133858268
20
0.2312992125984252
11
0.1580661811023622
21
0.2312992125984252
0
LINE
8
BLACK
6
CONTINUOUS
10
0.1580661811023622
20
0.2312992125984252
11
0.1582257480314961
21
0.231538031496063
0
LINE
8
BLACK
6
CONTINUOUS
10
0.1582257480314961
20
0.231538031496063
11
0.1601416141732283
21
0.232818188976378
0
LINE
8
BLACK
6
CONTINUOUS
10
0.1601416141732283
20
0.232818188976378
11
0.1624015748031496
21
0.2332677165354331
0
LINE
8
BLACK
6
CONTINUOUS
10
0.1624015748031496
20
0.2332677165354331
11
0.2175196850393701
21
0.2332677165354331
0
LINE
8
BLACK
6
CONTINUOUS
10
0.2175196850393701
20
0.2332677165354331
11
0.2197796456692913
21
0.232818188976378
0
LINE
8
BLACK
6
CONTINUOUS
10
0.2197796456692913
20
0.232818188976378
11
0.2216955118110236
21
0.231538031496063
0
LINE
8
BLACK
6
CONTINUOUS
10
0.2216955118110236
20
0.231538031496063
11
0.2229756692913386
21
0.2296221653543307
0
LINE
8
BLACK
6
CONTINUOUS
10
0.2229756692913386
20
0.2296221653543307
11
0.2234251968503937
21
0.2273622047244094
0
LINE
8
BLACK
6
CONTINUOUS
10
0.2234251968503937
20
0.2273622047244094
11
0.2234251968503937
21
0.2155511811023622
0
LINE
8
BLACK
6
CONTINUOUS
10
0.2234251968503937
20
0.2155511811023622
11
0.2229756692913386
21
0.213291220472441
0
LINE
8
BLACK
6
CONTINUOUS
10
0.2229756692913386
20
0.213291220472441
11
0.2216955118110236
21
0.2113753543307087
0
LINE
8
BLACK
6
CONTINUOUS
10
0.2216955118110236
20
0.2113753543307087
11
0.2197796456692913
21
0.2100951968503937
0
LINE
8
BLACK
6
CONTINUOUS
10
0.2197796456692913
20
0.2100951968503937
11
0.2175196850393701
21
0.2096456692913386
0
LINE
8
BLACK
6
CONTINUOUS
10
0.2175196850393701
20
0.2096456692913386
11
0.1624015748031496
21
0.2096456692913386
0
LINE
8
BLACK
6
CONTINUOUS
10
0.1624015748031496
20
0.2096456692913386
11
0.1601416141732283
21
0.2100951968503937
0
LINE
8
BLACK
6
CONTINUOUS
10
0.1601416141732283
20
0.2100951968503937
11
0.1582257480314961
21
0.2113753543307087
0
LINE
8
BLACK
6
CONTINUOUS
10
0.1582257480314961
20
0.2113753543307087
11
0.1580661811023622
21
0.2116141732283464
0
LINE
8
BLACK
6
CONTINUOUS
10
0.1580661811023622
20
0.2116141732283464
11
0.1171259842519685
21
0.2116141732283464
0
LINE
8
BLACK
6
CONTINUOUS
10
0.1171259842519685
20
0.2116141732283464
11
0.1152057874015748
21
0.2118033070866142
0
LINE
8
BLACK
6
CONTINUOUS
10
0.1152057874015748
20
0.2118033070866142
11
0.1116577559055118
21
0.2132729527559055
0
LINE
8
BLACK
6
CONTINUOUS
10
0.1116577559055118
20
0.2132729527559055
11
0.1116575590551181
21
0.2132731496062992
0
LINE
8
BLACK
6
CONTINUOUS
10
0.1116575590551181
20
0.2132731496062992
11
0.1101662598425197
21
0.214496968503937
0
LINE
8
BLACK
6
CONTINUOUS
10
0.1101662598425197
20
0.214496968503937
11
0.074733188976378
21
0.2499300393700787
0
LINE
8
BLACK
6
CONTINUOUS
10
0.074733188976378
20
0.2499300393700787
11
0.0735093307086614
21
0.2514213779527559
0
LINE
8
BLACK
6
CONTINUOUS
10
0.0735093307086614
20
0.2514213779527559
11
0.0735091732283464
21
0.2514215354330709
0
LINE
8
BLACK
6
CONTINUOUS
10
0.0735091732283464
20
0.2514215354330709
11
0.0720395275590551
21
0.2549695669291339
0
LINE
8
BLACK
6
CONTINUOUS
10
0.0720395275590551
20
0.2549695669291339
11
0.0718503937007874
21
0.2568897637795275
0
LINE
8
BLACK
6
CONTINUOUS
10
0.0718503937007874
20
0.2568897637795275
11
0.0718503937007874
21
0.3316929133858267
0
LINE
8
BLACK
6
CONTINUOUS
10
0.0718503937007874
20
0.3316929133858267
11
0.0720395275590551
21
0.3336131102362205
0
LINE
8
BLACK
6
CONTINUOUS
10
0.0720395275590551
20
0.3336131102362205
11
0.0735091732283464
21
0.3371611417322835
0
LINE
8
BLACK
6
CONTINUOUS
10
0.0735091732283464
20
0.3371611417322835
11
0.0735093307086614
21
0.3371613385826772
0
LINE
8
BLACK
6
CONTINUOUS
10
0.0735093307086614
20
0.3371613385826772
11
0.074733188976378
21
0.3386526377952756
0
LINE
8
BLACK
6
CONTINUOUS
10
0.074733188976378
20
0.3386526377952756
11
0.1074868503937008
21
0.3714062992125984
0
LINE
8
BLACK
6
CONTINUOUS
10
0.1074868503937008
20
0.3714062992125984
11
0.1084822047244094
21
0.3751209842519685
0
LINE
8
BLACK
6
CONTINUOUS
10
0.1084822047244094
20
0.3751209842519685
11
0.1105377559055118
21
0.3786812992125984
0
LINE
8
BLACK
6
CONTINUOUS
10
0.1105377559055118
20
0.3786812992125984
11
0.1134446850393701
21
0.3815882283464567
0
LINE
8
BLACK
6
CONTINUOUS
10
0.1134446850393701
20
0.3815882283464567
11
0.117005
21
0.3836437795275591
0
LINE
8
BLACK
6
CONTINUOUS
10
0.117005
20
0.3836437795275591
11
0.1209759842519685
21
0.3847077952755906
0
LINE
8
BLACK
6
CONTINUOUS
10
0.1209759842519685
20
0.3847077952755906
11
0.1250870078740157
21
0.3847077952755906
0
LINE
8
BLACK
6
CONTINUOUS
10
0.1250870078740157
20
0.3847077952755906
11
0.1290579921259843
21
0.3836437795275591
0
LINE
8
BLACK
6
CONTINUOUS
10
0.6982206692913385
20
0.2983135433070866
11
0.7008908661417322
21
0.2967718897637795
0
LINE
8
BLACK
6
CONTINUOUS
10
0.7008908661417322
20
0.2967718897637795
11
0.7030711023622047
21
0.2945916535433071
0
LINE
8
BLACK
6
CONTINUOUS
10
0.7030711023622047
20
0.2945916535433071
11
0.7038127559055118
21
0.2933070866141732
0
LINE
8
BLACK
6
CONTINUOUS
10
0.7038127559055118
20
0.2933070866141732
11
0.8807086614173228
21
0.2933070866141732
0
LINE
8
BLACK
6
CONTINUOUS
10
0.8807086614173228
20
0.2933070866141732
11
0.8818607874015748
21
0.2931936220472441
0
LINE
8
BLACK
6
CONTINUOUS
10
0.8818607874015748
20
0.2931936220472441
11
0.8827425590551181
21
0.2928283858267716
0
LINE
8
BLACK
6
CONTINUOUS
10
0.8827425590551181
20
0.2928283858267716
11
0.8839895669291339
21
0.2923118503937008
0
LINE
8
BLACK
6
CONTINUOUS
10
0.8839895669291339
20
0.2923118503937008
11
0.8848844881889764
21
0.2915774015748032
0
LINE
8
BLACK
6
CONTINUOUS
10
0.8848844881889764
20
0.2915774015748032
11
0.9099264566929134
21
0.2665354330708661
0
LINE
8
BLACK
6
CONTINUOUS
10
0.9099264566929134
20
0.2665354330708661
11
0.9706692913385827
21
0.2665354330708661
0
LINE
8
BLACK
6
CONTINUOUS
10
0.9706692913385827
20
0.2665354330708661
11
0.9706692913385827
21
0.2271653543307087
0
LINE
8
BLACK
6
CONTINUOUS
10
0.9706692913385827
20
0.2271653543307087
11
0.8718503937007874
21
0.2271653543307087
0
LINE
8
BLACK
6
CONTINUOUS
10
0.8718503937007874
20
0.2271653543307087
11
0.8718503937007874
21
0.2665354330708661
0
LINE
8
BLACK
6
CONTINUOUS
10
0.8718503937007874
20
0.2665354330708661
11
0.8932231496062992
21
0.2665354330708661
0
LINE
8
BLACK
6
CONTINUOUS
10
0.8932231496062992
20
0.2665354330708661
11
0.8782625196850393
21
0.281496062992126
0
LINE
8
BLACK
6
CONTINUOUS
10
0.8782625196850393
20
0.281496062992126
11
0.7038127559055118
21
0.281496062992126
0
LINE
8
BLACK
6
CONTINUOUS
10
0.7038127559055118
20
0.281496062992126
11
0.7030711023622047
21
0.2802114960629921
0
LINE
8
BLACK
6
CONTINUOUS
10
0.7030711023622047
20
0.2802114960629921
11
0.7008908661417322
21
0.2780312598425197
0
LINE
8
BLACK
6
CONTINUOUS
10
0.7008908661417322
20
0.2780312598425197
11
0.6982206692913385
21
0.2764896062992126
0
LINE
8
BLACK
6
CONTINUOUS
10
0.6982206692913385
20
0.2764896062992126
11
0.6952424409448819
21
0.2756916141732283
0
LINE
8
BLACK
6
CONTINUOUS
10
0.6952424409448819
20
0.2756916141732283
11
0.6921591338582677
21
0.2756916141732283
0
LINE
8
BLACK
6
CONTINUOUS
10
0.6921591338582677
20
0.2756916141732283
11
0.689180905511811
21
0.2764896062992126
0
LINE
8
BLACK
6
CONTINUOUS
10
0.689180905511811
20
0.2764896062992126
11
0.6865107086614173
21
0.2780312598425197
0
LINE
8
BLACK
6
CONTINUOUS
10
0.6865107086614173
20
0.2780312598425197
11
0.6843304724409449
21
0.2802114960629921
0
LINE
8
BLACK
6
CONTINUOUS
10
0.6843304724409449
20
0.2802114960629921
11
0.6827888188976378
21
0.2828816929133858
0
LINE
8
BLACK
6
CONTINUOUS
10
0.6827888188976378
20
0.2828816929133858
11
0.6819908267716536
21
0.2858599212598425
0
LINE
8
BLACK
6
CONTINUOUS
10
0.6819908267716536
20
0.2858599212598425
11
0.6819908267716536
21
0.2889432283464567
0
LINE
8
BLACK
6
CONTINUOUS
10
0.6819908267716536
20
0.2889432283464567
11
0.6827888188976378
21
0.2919214566929134
0
LINE
8
BLACK
6
CONTINUOUS
10
0.6827888188976378
20
0.2919214566929134
11
0.6843304724409449
21
0.2945916535433071
0
LINE
8
BLACK
6
CONTINUOUS
10
0.6843304724409449
20
0.2945916535433071
11
0.6865107086614173
21
0.2967718897637795
0
LINE
8
BLACK
6
CONTINUOUS
10
0.6865107086614173
20
0.2967718897637795
11
0.689180905511811
21
0.2983135433070866
0
LINE
8
BLACK
6
CONTINUOUS
10
0.689180905511811
20
0.2983135433070866
11
0.6921591338582677
21
0.2991115354330708
0
LINE
8
BLACK
6
CONTINUOUS
10
0.6921591338582677
20
0.2991115354330708
11
0.6952424409448819
21
0.2991115354330708
0
LINE
8
BLACK
6
CONTINUOUS
10
0.6952424409448819
20
0.2991115354330708
11
0.6982206692913385
21
0.2983135433070866
0
LINE
8
BLACK
6
CONTINUOUS
10
0.6453965748031496
20
0.4377776377952756
11
0.6489568897637795
21
0.4357220866141732
0
LINE
8
BLACK
6
CONTINUOUS
10
0.6489568897637795
20
0.4357220866141732
11
0.6518638188976378
21
0.432815157480315
0
LINE
8
BLACK
6
CONTINUOUS
10
0.6518638188976378
20
0.432815157480315
11
0.6539193700787401
21
0.429254842519685
0
LINE
8
BLACK
6
CONTINUOUS
10
0.6539193700787401
20
0.429254842519685
11
0.6549833858267716
21
0.4252838582677165
0
LINE
8
BLACK
6
CONTINUOUS
10
0.6549833858267716
20
0.4252838582677165
11
0.6549833858267716
21
0.4211728346456693
0
LINE
8
BLACK
6
CONTINUOUS
10
0.6549833858267716
20
0.4211728346456693
11
0.6539193700787401
21
0.4172018503937008
0
LINE
8
BLACK
6
CONTINUOUS
10
0.6539193700787401
20
0.4172018503937008
11
0.6518638188976378
21
0.4136415354330709
0
LINE
8
BLACK
6
CONTINUOUS
10
0.6518638188976378
20
0.4136415354330709
11
0.6489568897637795
21
0.4107346062992126
0
LINE
8
BLACK
6
CONTINUOUS
10
0.6489568897637795
20
0.4107346062992126
11
0.6453965748031496
21
0.4086790551181102
0
LINE
8
BLACK
6
CONTINUOUS
10
0.6453965748031496
20
0.4086790551181102
11
0.6414255905511811
21
0.4076150393700788
0
LINE
8
BLACK
6
CONTINUOUS
10
0.6414255905511811
20
0.4076150393700788
11
0.6373145669291338
21
0.4076150393700788
0
LINE
8
BLACK
6
CONTINUOUS
10
0.6373145669291338
20
0.4076150393700788
11
0.6333435826771654
21
0.4086790551181102
0
LINE
8
BLACK
6
CONTINUOUS
10
0.6333435826771654
20
0.4086790551181102
11
0.6297832677165354
21
0.4107346062992126
0
LINE
8
BLACK
6
CONTINUOUS
10
0.6297832677165354
20
0.4107346062992126
11
0.6268763385826771
21
0.4136415354330709
0
LINE
8
BLACK
6
CONTINUOUS
10
0.6268763385826771
20
0.4136415354330709
11
0.6258874409448819
21
0.4153543307086614
0
LINE
8
BLACK
6
CONTINUOUS
10
0.6258874409448819
20
0.4153543307086614
11
0.4048363385826771
21
0.4153543307086614
0
LINE
8
BLACK
6
CONTINUOUS
10
0.4048363385826771
20
0.4153543307086614
11
0.3037961023622047
21
0.3143141338582677
0
LINE
8
BLACK
6
CONTINUOUS
10
0.3037961023622047
20
0.3143141338582677
11
0.3026029133858268
21
0.3133348818897638
0
LINE
8
BLACK
6
CONTINUOUS
10
0.3026029133858268
20
0.3133348818897638
11
0.2997644881889764
21
0.3121591732283465
0
LINE
8
BLACK
6
CONTINUOUS
10
0.2997644881889764
20
0.3121591732283465
11
0.2982283464566929
21
0.312007874015748
0
LINE
8
BLACK
6
CONTINUOUS
10
0.2982283464566929
20
0.312007874015748
11
0.2230336614173228
21
0.312007874015748
0
LINE
8
BLACK
6
CONTINUOUS
10
0.2230336614173228
20
0.312007874015748
11
0.2229756692913386
21
0.3117164173228346
0
LINE
8
BLACK
6
CONTINUOUS
10
0.2229756692913386
20
0.3117164173228346
11
0.2216955118110236
21
0.3098005511811023
0
LINE
8
BLACK
6
CONTINUOUS
10
0.2216955118110236
20
0.3098005511811023
11
0.2197796456692913
21
0.3085203937007874
0
LINE
8
BLACK
6
CONTINUOUS
10
0.2197796456692913
20
0.3085203937007874
11
0.2175196850393701
21
0.3080708661417323
0
LINE
8
BLACK
6
CONTINUOUS
10
0.2175196850393701
20
0.3080708661417323
11
0.1624015748031496
21
0.3080708661417323
0
LINE
8
BLACK
6
CONTINUOUS
10
0.1624015748031496
20
0.3080708661417323
11
0.1601416141732283
21
0.3085203937007874
0
LINE
8
BLACK
6
CONTINUOUS
10
0.1601416141732283
20
0.3085203937007874
11
0.1582257480314961
21
0.3098005511811023
0
LINE
8
BLACK
6
CONTINUOUS
10
0.1582257480314961
20
0.3098005511811023
11
0.1569455905511811
21
0.3117164173228346
0
LINE
8
BLACK
6
CONTINUOUS
10
0.1569455905511811
20
0.3117164173228346
11
0.1568875984251968
21
0.312007874015748
0
LINE
8
BLACK
6
CONTINUOUS
10
0.1568875984251968
20
0.312007874015748
11
0.1412536614173228
21
0.312007874015748
0
LINE
8
BLACK
6
CONTINUOUS
10
0.1412536614173228
20
0.312007874015748
11
0.1328740157480315
21
0.3036282677165354
0
LINE
8
BLACK
6
CONTINUOUS
10
0.1328740157480315
20
0.3036282677165354
11
0.1328740157480315
21
0.2841519291338583
0
LINE
8
BLACK
6
CONTINUOUS
10
0.1328740157480315
20
0.2841519291338583
11
0.134586811023622
21
0.283163031496063
0
LINE
8
BLACK
6
CONTINUOUS
10
0.134586811023622
20
0.283163031496063
11
0.1374937401574803
21
0.2802561023622047
0
LINE
8
BLACK
6
CONTINUOUS
10
0.1374937401574803
20
0.2802561023622047
11
0.1395492913385827
21
0.2766957874015748
0
LINE
8
BLACK
6
CONTINUOUS
10
0.1395492913385827
20
0.2766957874015748
11
0.1406133070866142
21
0.2727248031496063
0
LINE
8
BLACK
6
CONTINUOUS
10
0.1406133070866142
20
0.2727248031496063
11
0.1406133070866142
21
0.268613779527559
0
LINE
8
BLACK
6
CONTINUOUS
10
0.1406133070866142
20
0.268613779527559
11
0.1395492913385827
21
0.2646427952755905
0
LINE
8
BLACK
6
CONTINUOUS
10
0.1395492913385827
20
0.2646427952755905
11
0.1374937401574803
21
0.2610824803149606
0
LINE
8
BLACK
6
CONTINUOUS
10
0.1374937401574803
20
0.2610824803149606
11
0.134586811023622
21
0.2581755511811024
0
LINE
8
BLACK
6
CONTINUOUS
10
0.134586811023622
20
0.2581755511811024
11
0.1310264960629921
21
0.25612
0
LINE
8
BLACK
6
CONTINUOUS
10
0.1310264960629921
20
0.25612
11
0.1270555118110236
21
0.2550559842519685
0
LINE
8
BLACK
6
CONTINUOUS
10
0.1270555118110236
20
0.2550559842519685
11
0.1229444881889764
21
0.2550559842519685
0
LINE
8
BLACK
6
CONTINUOUS
10
0.1229444881889764
20
0.2550559842519685
11
0.1189735039370079
21
0.25612
0
LINE
8
BLACK
6
CONTINUOUS
10
0.1189735039370079
20
0.25612
11
0.115413188976378
21
0.2581755511811024
0
LINE
8
BLACK
6
CONTINUOUS
10
0.115413188976378
20
0.2581755511811024
11
0.1125062598425197
21
0.2610824803149606
0
LINE
8
BLACK
6
CONTINUOUS
10
0.1125062598425197
20
0.2610824803149606
11
0.1104507086614173
21
0.2646427952755905
0
LINE
8
BLACK
6
CONTINUOUS
10
0.1104507086614173
20
0.2646427952755905
11
0.1093866929133858
21
0.268613779527559
0
LINE
8
BLACK
6
CONTINUOUS
10
0.1093866929133858
20
0.268613779527559
11
0.1093866929133858
21
0.2727248031496063
0
LINE
8
BLACK
6
CONTINUOUS
10
0.1093866929133858
20
0.2727248031496063
11
0.1104507086614173
21
0.2766957874015748
0
LINE
8
BLACK
6
CONTINUOUS
10
0.1104507086614173
20
0.2766957874015748
11
0.1125062598425197
21
0.2802561023622047
0
LINE
8
BLACK
6
CONTINUOUS
10
0.1125062598425197
20
0.2802561023622047
11
0.115413188976378
21
0.283163031496063
0
LINE
8
BLACK
6
CONTINUOUS
10
0.115413188976378
20
0.283163031496063
11
0.1171259842519685
21
0.2841519291338583
0
LINE
8
BLACK
6
CONTINUOUS
10
0.1171259842519685
20
0.2841519291338583
11
0.1171259842519685
21
0.3068897637795275
0
LINE
8
BLACK
6
CONTINUOUS
10
0.1171259842519685
20
0.3068897637795275
11
0.1172772834645669
21
0.308425905511811
0
LINE
8
BLACK
6
CONTINUOUS
10
0.1172772834645669
20
0.308425905511811
11
0.1184529921259842
21
0.3112643307086614
0
LINE
8
BLACK
6
CONTINUOUS
10
0.1184529921259842
20
0.3112643307086614
11
0.1194322440944882
21
0.3124575196850394
0
LINE
8
BLACK
6
CONTINUOUS
10
0.1194322440944882
20
0.3124575196850394
11
0.1324243307086614
21
0.3254496456692914
0
LINE
8
BLACK
6
CONTINUOUS
10
0.1324243307086614
20
0.3254496456692914
11
0.1336175590551181
21
0.3264288976377953
0
LINE
8
BLACK
6
CONTINUOUS
10
0.1336175590551181
20
0.3264288976377953
11
0.1364559842519685
21
0.3276046062992126
0
LINE
8
BLACK
6
CONTINUOUS
10
0.1364559842519685
20
0.3276046062992126
11
0.137992125984252
21
0.327755905511811
0
LINE
8
BLACK
6
CONTINUOUS
10
0.137992125984252
20
0.327755905511811
11
0.1568875984251968
21
0.327755905511811
0
LINE
8
BLACK
6
CONTINUOUS
10
0.1568875984251968
20
0.327755905511811
11
0.1569455905511811
21
0.3280473622047244
0
LINE
8
BLACK
6
CONTINUOUS
10
0.1569455905511811
20
0.3280473622047244
11
0.1582257480314961
21
0.3299632283464567
0
LINE
8
BLACK
6
CONTINUOUS
10
0.1582257480314961
20
0.3299632283464567
11
0.1601416141732283
21
0.3312433858267717
0
LINE
8
BLACK
6
CONTINUOUS
10
0.1601416141732283
20
0.3312433858267717
11
0.1624015748031496
21
0.3316929133858267
0
LINE
8
BLACK
6
CONTINUOUS
10
0.1624015748031496
20
0.3316929133858267
11
0.2175196850393701
21
0.3316929133858267
0
LINE
8
BLACK
6
CONTINUOUS
10
0.2175196850393701
20
0.3316929133858267
11
0.2197796456692913
21
0.3312433858267717
0
LINE
8
BLACK
6
CONTINUOUS
10
0.2197796456692913
20
0.3312433858267717
11
0.2216955118110236
21
0.3299632283464567
0
LINE
8
BLACK
6
CONTINUOUS
10
0.2216955118110236
20
0.3299632283464567
11
0.2229756692913386
21
0.3280473622047244
0
LINE
8
BLACK
6
CONTINUOUS
10
0.2229756692913386
20
0.3280473622047244
11
0.2230336614173228
21
0.327755905511811
0
LINE
8
BLACK
6
CONTINUOUS
10
0.2230336614173228
20
0.327755905511811
11
0.2949668503937008
21
0.327755905511811
0
LINE
8
BLACK
6
CONTINUOUS
10
0.2949668503937008
20
0.327755905511811
11
0.3960070472440945
21
0.4287961417322835
0
LINE
8
BLACK
6
CONTINUOUS
10
0.3960070472440945
20
0.4287961417322835
11
0.3972002362204725
21
0.4297753543307086
0
LINE
8
BLACK
6
CONTINUOUS
10
0.3972002362204725
20
0.4297753543307086
11
0.4000386614173228
21
0.430951062992126
0
LINE
8
BLACK
6
CONTINUOUS
10
0.4000386614173228
20
0.430951062992126
11
0.4015748031496063
21
0.4311023622047244
0
LINE
8
BLACK
6
CONTINUOUS
10
0.4015748031496063
20
0.4311023622047244
11
0.6258874409448819
21
0.4311023622047244
0
LINE
8
BLACK
6
CONTINUOUS
10
0.6258874409448819
20
0.4311023622047244
11
0.6268763385826771
21
0.432815157480315
0
LINE
8
BLACK
6
CONTINUOUS
10
0.6268763385826771
20
0.432815157480315
11
0.6297832677165354
21
0.4357220866141732
0
LINE
8
BLACK
6
CONTINUOUS
10
0.6297832677165354
20
0.4357220866141732
11
0.6333435826771654
21
0.4377776377952756
0
LINE
8
BLACK
6
CONTINUOUS
10
0.6333435826771654
20
0.4377776377952756
11
0.6373145669291338
21
0.4388416535433071
0
LINE
8
BLACK
6
CONTINUOUS
10
0.6373145669291338
20
0.4388416535433071
11
0.6414255905511811
21
0.4388416535433071
0
LINE
8
BLACK
6
CONTINUOUS
10
0.6414255905511811
20
0.4388416535433071
11
0.6453965748031496
21
0.4377776377952756
0
LINE
8
BLACK
6
CONTINUOUS
10
0.7776800393700787
20
0.3928957480314961
11
0.7812403543307086
21
0.3908401968503937
0
LINE
8
BLACK
6
CONTINUOUS
10
0.7812403543307086
20
0.3908401968503937
11
0.7841472834645669
21
0.3879332677165354
0
LINE
8
BLACK
6
CONTINUOUS
10
0.7841472834645669
20
0.3879332677165354
11
0.7862028346456693
21
0.3843729527559055
0
LINE
8
BLACK
6
CONTINUOUS
10
0.7862028346456693
20
0.3843729527559055
11
0.7872668503937008
21
0.380401968503937
0
LINE
8
BLACK
6
CONTINUOUS
10
0.7872668503937008
20
0.380401968503937
11
0.7872668503937008
21
0.3762909448818897
0
LINE
8
BLACK
6
CONTINUOUS
10
0.7872668503937008
20
0.3762909448818897
11
0.7862028346456693
21
0.3723199606299212
0
LINE
8
BLACK
6
CONTINUOUS
10
0.7862028346456693
20
0.3723199606299212
11
0.7841472834645669
21
0.3687596456692913
0
LINE
8
BLACK
6
CONTINUOUS
10
0.7841472834645669
20
0.3687596456692913
11
0.7812403543307086
21
0.3658527165354331
0
LINE
8
BLACK
6
CONTINUOUS
10
0.7812403543307086
20
0.3658527165354331
11
0.7776800393700787
21
0.3637971653543307
0
LINE
8
BLACK
6
CONTINUOUS
10
0.7776800393700787
20
0.3637971653543307
11
0.7737090551181102
21
0.3627331496062992
0
LINE
8
BLACK
6
CONTINUOUS
10
0.7737090551181102
20
0.3627331496062992
11
0.769598031496063
21
0.3627331496062992
0
LINE
8
BLACK
6
CONTINUOUS
10
0.769598031496063
20
0.3627331496062992
11
0.7656270472440945
21
0.3637971653543307
0
LINE
8
BLACK
6
CONTINUOUS
10
0.7656270472440945
20
0.3637971653543307
11
0.7620667322834646
21
0.3658527165354331
0
LINE
8
BLACK
6
CONTINUOUS
10
0.7620667322834646
20
0.3658527165354331
11
0.7591598031496063
21
0.3687596456692913
0
LINE
8
BLACK
6
CONTINUOUS
10
0.7591598031496063
20
0.3687596456692913
11
0.758170905511811
21
0.3704724409448819
0
LINE
8
BLACK
6
CONTINUOUS
10
0.758170905511811
20
0.3704724409448819
11
0.501293031496063
21
0.3704724409448819
0
LINE
8
BLACK
6
CONTINUOUS
10
0.501293031496063
20
0.3704724409448819
11
0.4704724409448819
21
0.3396518897637795
0
LINE
8
BLACK
6
CONTINUOUS
10
0.4704724409448819
20
0.3396518897637795
11
0.4704724409448819
21
0.3015748031496063
0
LINE
8
BLACK
6
CONTINUOUS
10
0.4704724409448819
20
0.3015748031496063
11
0.4114173228346457
21
0.3015748031496063
0
LINE
8
BLACK
6
CONTINUOUS
10
0.4114173228346457
20
0.3015748031496063
11
0.4114173228346457
21
0.3133858267716536
0
LINE
8
BLACK
6
CONTINUOUS
10
0.4114173228346457
20
0.3133858267716536
11
0.3820016535433071
21
0.3133858267716536
0
LINE
8
BLACK
6
CONTINUOUS
10
0.3820016535433071
20
0.3133858267716536
11
0.3347016141732284
21
0.2660857874015748
0
LINE
8
BLACK
6
CONTINUOUS
10
0.3347016141732284
20
0.2660857874015748
11
0.3335084251968504
21
0.2651065354330708
0
LINE
8
BLACK
6
CONTINUOUS
10
0.3335084251968504
20
0.2651065354330708
11
0.33067
21
0.2639308267716535
0
LINE
8
BLACK
6
CONTINUOUS
10
0.33067
20
0.2639308267716535
11
0.3291338582677165
21
0.2637795275590551
0
LINE
8
BLACK
6
CONTINUOUS
10
0.3291338582677165
20
0.2637795275590551
11
0.2748999606299213
21
0.2637795275590551
0
LINE
8
BLACK
6
CONTINUOUS
10
0.2748999606299213
20
0.2637795275590551
11
0.273911062992126
21
0.2620667322834646
0
LINE
8
BLACK
6
CONTINUOUS
10
0.273911062992126
20
0.2620667322834646
11
0.2710041338582677
21
0.2591598031496063
0
LINE
8
BLACK
6
CONTINUOUS
10
0.2710041338582677
20
0.2591598031496063
11
0.2674438188976378
21
0.2571042519685039
0
LINE
8
BLACK
6
CONTINUOUS
10
0.2674438188976378
20
0.2571042519685039
11
0.2634728346456693
21
0.2560402362204725
0
LINE
8
BLACK
6
CONTINUOUS
10
0.2634728346456693
20
0.2560402362204725
11
0.259361811023622
21
0.2560402362204725
0
LINE
8
BLACK
6
CONTINUOUS
10
0.259361811023622
20
0.2560402362204725
11
0.2553908267716535
21
0.2571042519685039
0
LINE
8
BLACK
6
CONTINUOUS
10
0.2553908267716535
20
0.2571042519685039
11
0.2518305118110236
21
0.2591598031496063
0
LINE
8
BLACK
6
CONTINUOUS
10
0.2518305118110236
20
0.2591598031496063
11
0.2489235826771654
21
0.2620667322834646
0
LINE
8
BLACK
6
CONTINUOUS
10
0.2489235826771654
20
0.2620667322834646
11
0.2485029527559055
21
0.2627952755905512
0
LINE
8
BLACK
6
CONTINUOUS
10
0.2485029527559055
20
0.2627952755905512
11
0.2230336614173228
21
0.2627952755905512
0
LINE
8
BLACK
6
CONTINUOUS
10
0.2230336614173228
20
0.2627952755905512
11
0.2229756692913386
21
0.2625038188976378
0
LINE
8
BLACK
6
CONTINUOUS
10
0.2229756692913386
20
0.2625038188976378
11
0.2216955118110236
21
0.2605879527559055
0
LINE
8
BLACK
6
CONTINUOUS
10
0.2216955118110236
20
0.2605879527559055
11
0.2197796456692913
21
0.2593077952755906
0
LINE
8
BLACK
6
CONTINUOUS
10
0.2197796456692913
20
0.2593077952755906
11
0.2175196850393701
21
0.2588582677165354
0
LINE
8
BLACK
6
CONTINUOUS
10
0.2175196850393701
20
0.2588582677165354
11
0.1624015748031496
21
0.2588582677165354
0
LINE
8
BLACK
6
CONTINUOUS
10
0.1624015748031496
20
0.2588582677165354
11
0.1601416141732283
21
0.2593077952755906
0
LINE
8
BLACK
6
CONTINUOUS
10
0.1601416141732283
20
0.2593077952755906
11
0.1582257480314961
21
0.2605879527559055
0
LINE
8
BLACK
6
CONTINUOUS
10
0.1582257480314961
20
0.2605879527559055
11
0.1569455905511811
21
0.2625038188976378
0
LINE
8
BLACK
6
CONTINUOUS
10
0.1569455905511811
20
0.2625038188976378
11
0.156496062992126
21
0.264763779527559
0
LINE
8
BLACK
6
CONTINUOUS
10
0.156496062992126
20
0.264763779527559
11
0.156496062992126
21
0.2765748031496063
0
LINE
8
BLACK
6
CONTINUOUS
10
0.156496062992126
20
0.2765748031496063
11
0.1569455905511811
21
0.2788347637795275
0
LINE
8
BLACK
6
CONTINUOUS
10
0.1569455905511811
20
0.2788347637795275
11
0.1582257480314961
21
0.2807506299212598
0
LINE
8
BLACK
6
CONTINUOUS
10
0.1582257480314961
20
0.2807506299212598
11
0.1601416141732283
21
0.2820307874015748
0
LINE
8
BLACK
6
CONTINUOUS
10
0.1601416141732283
20
0.2820307874015748
11
0.1624015748031496
21
0.2824803149606299
0
LINE
8
BLACK
6
CONTINUOUS
10
0.1624015748031496
20
0.2824803149606299
11
0.2175196850393701
21
0.2824803149606299
0
LINE
8
BLACK
6
CONTINUOUS
10
0.2175196850393701
20
0.2824803149606299
11
0.2197796456692913
21
0.2820307874015748
0
LINE
8
BLACK
6
CONTINUOUS
10
0.2197796456692913
20
0.2820307874015748
11
0.2216955118110236
21
0.2807506299212598
0
LINE
8
BLACK
6
CONTINUOUS
10
0.2216955118110236
20
0.2807506299212598
11
0.2229756692913386
21
0.2788347637795275
0
LINE
8
BLACK
6
CONTINUOUS
10
0.2229756692913386
20
0.2788347637795275
11
0.2230336614173228
21
0.2785433070866142
0
LINE
8
BLACK
6
CONTINUOUS
10
0.2230336614173228
20
0.2785433070866142
11
0.2473664566929134
21
0.2785433070866142
0
LINE
8
BLACK
6
CONTINUOUS
10
0.2473664566929134
20
0.2785433070866142
11
0.2489235826771654
21
0.2812403543307087
0
LINE
8
BLACK
6
CONTINUOUS
10
0.2489235826771654
20
0.2812403543307087
11
0.2518305118110236
21
0.2841472834645669
0
LINE
8
BLACK
6
CONTINUOUS
10
0.2518305118110236
20
0.2841472834645669
11
0.2553908267716535
21
0.2862028346456693
0
LINE
8
BLACK
6
CONTINUOUS
10
0.2553908267716535
20
0.2862028346456693
11
0.259361811023622
21
0.2872668503937008
0
LINE
8
BLACK
6
CONTINUOUS
10
0.259361811023622
20
0.2872668503937008
11
0.2634728346456693
21
0.2872668503937008
0
LINE
8
BLACK
6
CONTINUOUS
10
0.2634728346456693
20
0.2872668503937008
11
0.2674438188976378
21
0.2862028346456693
0
LINE
8
BLACK
6
CONTINUOUS
10
0.2674438188976378
20
0.2862028346456693
11
0.2710041338582677
21
0.2841472834645669
0
LINE
8
BLACK
6
CONTINUOUS
10
0.2710041338582677
20
0.2841472834645669
11
0.273911062992126
21
0.2812403543307087
0
LINE
8
BLACK
6
CONTINUOUS
10
0.273911062992126
20
0.2812403543307087
11
0.2748999606299213
21
0.2795275590551181
0
LINE
8
BLACK
6
CONTINUOUS
10
0.2748999606299213
20
0.2795275590551181
11
0.3258723622047244
21
0.2795275590551181
0
LINE
8
BLACK
6
CONTINUOUS
10
0.3258723622047244
20
0.2795275590551181
11
0.3731724015748031
21
0.3268275984251968
0
LINE
8
BLACK
6
CONTINUOUS
10
0.3731724015748031
20
0.3268275984251968
11
0.3743655905511811
21
0.3278068503937008
0
LINE
8
BLACK
6
CONTINUOUS
10
0.3743655905511811
20
0.3278068503937008
11
0.3772040157480315
21
0.3289825590551181
0
LINE
8
BLACK
6
CONTINUOUS
10
0.3772040157480315
20
0.3289825590551181
11
0.378740157480315
21
0.3291338582677165
0
LINE
8
BLACK
6
CONTINUOUS
10
0.378740157480315
20
0.3291338582677165
11
0.4114173228346457
21
0.3291338582677165
0
LINE
8
BLACK
6
CONTINUOUS
10
0.4114173228346457
20
0.3291338582677165
11
0.4114173228346457
21
0.3409448818897638
0
LINE
8
BLACK
6
CONTINUOUS
10
0.4114173228346457
20
0.3409448818897638
11
0.4494944094488189
21
0.3409448818897638
0
LINE
8
BLACK
6
CONTINUOUS
10
0.4494944094488189
20
0.3409448818897638
11
0.4924637401574803
21
0.3839142519685039
0
LINE
8
BLACK
6
CONTINUOUS
10
0.4924637401574803
20
0.3839142519685039
11
0.4936569291338583
21
0.3848934645669291
0
LINE
8
BLACK
6
CONTINUOUS
10
0.4936569291338583
20
0.3848934645669291
11
0.4964953543307086
21
0.3860691732283464
0
LINE
8
BLACK
6
CONTINUOUS
10
0.4964953543307086
20
0.3860691732283464
11
0.4980314960629921
21
0.3862204724409449
0
LINE
8
BLACK
6
CONTINUOUS
10
0.4980314960629921
20
0.3862204724409449
11
0.758170905511811
21
0.3862204724409449
0
LINE
8
BLACK
6
CONTINUOUS
10
0.758170905511811
20
0.3862204724409449
11
0.7591598031496063
21
0.3879332677165354
0
LINE
8
BLACK
6
CONTINUOUS
10
0.7591598031496063
20
0.3879332677165354
11
0.7620667322834646
21
0.3908401968503937
0
LINE
8
BLACK
6
CONTINUOUS
10
0.7620667322834646
20
0.3908401968503937
11
0.7656270472440945
21
0.3928957480314961
0
LINE
8
BLACK
6
CONTINUOUS
10
0.7656270472440945
20
0.3928957480314961
11
0.769598031496063
21
0.3939597637795276
0
LINE
8
BLACK
6
CONTINUOUS
10
0.769598031496063
20
0.3939597637795276
11
0.7737090551181102
21
0.3939597637795276
0
LINE
8
BLACK
6
CONTINUOUS
10
0.7737090551181102
20
0.3939597637795276
11
0.7776800393700787
21
0.3928957480314961
0
LINE
8
BLACK
6
CONTINUOUS
10
0.8987883070866142
20
0.3145596850393701
11
0.9005896850393701
21
0.3124807874015748
0
LINE
8
BLACK
6
CONTINUOUS
10
0.9005896850393701
20
0.3124807874015748
11
0.9009811811023621
21
0.309758031496063
0
LINE
8
BLACK
6
CONTINUOUS
10
0.9009811811023621
20
0.309758031496063
11
0.8998384645669291
21
0.3072558267716535
0
LINE
8
BLACK
6
CONTINUOUS
10
0.8998384645669291
20
0.3072558267716535
11
0.8993740944881889
21
0.3067879133858268
0
LINE
8
BLACK
6
CONTINUOUS
10
0.8993740944881889
20
0.3067879133858268
11
0.8953609842519685
21
0.3032563385826771
0
LINE
8
BLACK
6
CONTINUOUS
10
0.8953609842519685
20
0.3032563385826771
11
0.8946963385826772
21
0.3029466535433071
0
LINE
8
BLACK
6
CONTINUOUS
10
0.8946963385826772
20
0.3029466535433071
11
0.8941395275590551
21
0.3024694488188976
0
LINE
8
BLACK
6
CONTINUOUS
10
0.8941395275590551
20
0.3024694488188976
11
0.8934753149606299
21
0.3023776771653543
0
LINE
8
BLACK
6
CONTINUOUS
10
0.8934753149606299
20
0.3023776771653543
11
0.8928676377952756
21
0.3020944881889764
0
LINE
8
BLACK
6
CONTINUOUS
10
0.8928676377952756
20
0.3020944881889764
11
0.8921409842519685
21
0.3021933070866142
0
LINE
8
BLACK
6
CONTINUOUS
10
0.8921409842519685
20
0.3021933070866142
11
0.8914146456692913
21
0.3020929133858268
0
LINE
8
BLACK
6
CONTINUOUS
10
0.8914146456692913
20
0.3020929133858268
11
0.8901975196850394
21
0.3024575196850394
0
LINE
8
BLACK
6
CONTINUOUS
10
0.8901975196850394
20
0.3024575196850394
11
0.8901419291338583
21
0.3024650787401575
0
LINE
8
BLACK
6
CONTINUOUS
10
0.8901419291338583
20
0.3024650787401575
11
0.8900988188976378
21
0.3024870866141732
0
LINE
8
BLACK
6
CONTINUOUS
10
0.8900988188976378
20
0.3024870866141732
11
0.8900835826771654
21
0.3024916535433071
0
LINE
8
BLACK
6
CONTINUOUS
10
0.8900835826771654
20
0.3024916535433071
11
0.8898847244094488
21
0.3025838188976378
0
LINE
8
BLACK
6
CONTINUOUS
10
0.8898847244094488
20
0.3025838188976378
11
0.8875546062992126
21
0.3039290944881889
0
LINE
8
BLACK
6
CONTINUOUS
10
0.8875546062992126
20
0.3039290944881889
11
0.8866012992125984
21
0.3041845275590551
0
LINE
8
BLACK
6
CONTINUOUS
10
0.8866012992125984
20
0.3041845275590551
11
0.8830436614173228
21
0.3051377952755905
0
LINE
8
BLACK
6
CONTINUOUS
10
0.8830436614173228
20
0.3051377952755905
11
0.8830436220472441
21
0.3051377952755905
0
LINE
8
BLACK
6
CONTINUOUS
10
0.8830436220472441
20
0.3051377952755905
11
0.8781764173228346
21
0.3051377952755905
0
LINE
8
BLACK
6
CONTINUOUS
10
0.8781764173228346
20
0.3051377952755905
11
0.877921811023622
21
0.3052125590551181
0
LINE
8
BLACK
6
CONTINUOUS
10
0.877921811023622
20
0.3052125590551181
11
0.8776607874015748
21
0.3051651181102362
0
LINE
8
BLACK
6
CONTINUOUS
10
0.8776607874015748
20
0.3051651181102362
11
0.8766186614173228
21
0.3055952362204724
0
LINE
8
BLACK
6
CONTINUOUS
10
0.8766186614173228
20
0.3055952362204724
11
0.8755370866141732
21
0.3059127952755906
0
LINE
8
BLACK
6
CONTINUOUS
10
0.8755370866141732
20
0.3059127952755906
11
0.8753033070866142
21
0.3061380708661417
0
LINE
8
BLACK
6
CONTINUOUS
10
0.8753033070866142
20
0.3061380708661417
11
0.8751180314960629
21
0.3062145275590551
0
LINE
8
BLACK
6
CONTINUOUS
10
0.8751180314960629
20
0.3062145275590551
11
0.8741698818897637
21
0.3072303149606299
0
LINE
8
BLACK
6
CONTINUOUS
10
0.8741698818897637
20
0.3072303149606299
11
0.8738683464566929
21
0.3076634251968504
0
LINE
8
BLACK
6
CONTINUOUS
10
0.8738683464566929
20
0.3076634251968504
11
0.8729963385826771
21
0.3102723228346457
0
LINE
8
BLACK
6
CONTINUOUS
10
0.8729963385826771
20
0.3102723228346457
11
0.8736731889763779
21
0.3129385039370078
0
LINE
8
BLACK
6
CONTINUOUS
10
0.8736731889763779
20
0.3129385039370078
11
0.875684094488189
21
0.3148155118110236
0
LINE
8
BLACK
6
CONTINUOUS
10
0.875684094488189
20
0.3148155118110236
11
0.8778747244094488
21
0.3153346850393701
0
LINE
8
BLACK
6
CONTINUOUS
10
0.8778747244094488
20
0.3153346850393701
11
0.8961490551181102
21
0.3153346850393701
0
LINE
8
BLACK
6
CONTINUOUS
10
0.8961490551181102
20
0.3153346850393701
11
0.8987883070866142
21
0.3145596850393701
0
LINE
8
BLACK
6
CONTINUOUS
10
0.9706692913385827
20
0.3271653543307086
11
0.8718503937007874
21
0.3271653543307086
0
LINE
8
BLACK
6
CONTINUOUS
10
0.8718503937007874
20
0.3271653543307086
11
0.8718503937007874
21
0.3419291338582677
0
LINE
8
BLACK
6
CONTINUOUS
10
0.8718503937007874
20
0.3419291338582677
11
0.6673122440944882
21
0.3419291338582677
0
LINE
8
BLACK
6
CONTINUOUS
10
0.6673122440944882
20
0.3419291338582677
11
0.6664569291338582
21
0.340447716535433
0
LINE
8
BLACK
6
CONTINUOUS
10
0.6664569291338582
20
0.340447716535433
11
0.6642766929133858
21
0.3382674803149606
0
LINE
8
BLACK
6
CONTINUOUS
10
0.6642766929133858
20
0.3382674803149606
11
0.6616064960629922
21
0.3367258267716535
0
LINE
8
BLACK
6
CONTINUOUS
10
0.6616064960629922
20
0.3367258267716535
11
0.6586282677165354
21
0.3359278346456693
0
LINE
8
BLACK
6
CONTINUOUS
10
0.6586282677165354
20
0.3359278346456693
11
0.6555449606299213
21
0.3359278346456693
0
LINE
8
BLACK
6
CONTINUOUS
10
0.6555449606299213
20
0.3359278346456693
11
0.6525667322834645
21
0.3367258267716535
0
LINE
8
BLACK
6
CONTINUOUS
10
0.6525667322834645
20
0.3367258267716535
11
0.6498965354330708
21
0.3382674803149606
0
LINE
8
BLACK
6
CONTINUOUS
10
0.6498965354330708
20
0.3382674803149606
11
0.6477162992125984
21
0.340447716535433
0
LINE
8
BLACK
6
CONTINUOUS
10
0.6477162992125984
20
0.340447716535433
11
0.6461746456692913
21
0.3431179133858268
0
LINE
8
BLACK
6
CONTINUOUS
10
0.6461746456692913
20
0.3431179133858268
11
0.6453766535433071
21
0.3460961417322835
0
LINE
8
BLACK
6
CONTINUOUS
10
0.6453766535433071
20
0.3460961417322835
11
0.6453766535433071
21
0.3491794488188976
0
LINE
8
BLACK
6
CONTINUOUS
10
0.6453766535433071
20
0.3491794488188976
11
0.6461746456692913
21
0.3521576771653543
0
LINE
8
BLACK
6
CONTINUOUS
10
0.6461746456692913
20
0.3521576771653543
11
0.6477162992125984
21
0.354827874015748
0
LINE
8
BLACK
6
CONTINUOUS
10
0.6477162992125984
20
0.354827874015748
11
0.6498965354330708
21
0.3570081102362205
0
LINE
8
BLACK
6
CONTINUOUS
10
0.6498965354330708
20
0.3570081102362205
11
0.6525667322834645
21
0.3585497637795276
0
LINE
8
BLACK
6
CONTINUOUS
10
0.6525667322834645
20
0.3585497637795276
11
0.6555449606299213
21
0.3593477559055118
0
LINE
8
BLACK
6
CONTINUOUS
10
0.6555449606299213
20
0.3593477559055118
11
0.6586282677165354
21
0.3593477559055118
0
LINE
8
BLACK
6
CONTINUOUS
10
0.6586282677165354
20
0.3593477559055118
11
0.6616064960629922
21
0.3585497637795276
0
LINE
8
BLACK
6
CONTINUOUS
10
0.6616064960629922
20
0.3585497637795276
11
0.6642766929133858
21
0.3570081102362205
0
LINE
8
BLACK
6
CONTINUOUS
10
0.6642766929133858
20
0.3570081102362205
11
0.6664569291338582
21
0.354827874015748
0
LINE
8
BLACK
6
CONTINUOUS
10
0.6664569291338582
20
0.354827874015748
11
0.6679985826771654
21
0.3521576771653543
0
LINE
8
BLACK
6
CONTINUOUS
10
0.6679985826771654
20
0.3521576771653543
11
0.6681020078740157
21
0.3517716535433071
0
LINE
8
BLACK
6
CONTINUOUS
10
0.6681020078740157
20
0.3517716535433071
11
0.8718503937007874
21
0.3517716535433071
0
LINE
8
BLACK
6
CONTINUOUS
10
0.8718503937007874
20
0.3517716535433071
11
0.8718503937007874
21
0.3665354330708661
0
LINE
8
BLACK
6
CONTINUOUS
10
0.8718503937007874
20
0.3665354330708661
11
0.9706692913385827
21
0.3665354330708661
0
LINE
8
BLACK
6
CONTINUOUS
10
0.9706692913385827
20
0.3665354330708661
11
0.9706692913385827
21
0.3271653543307086
0
CIRCLE
8
BLACK
10
0.9401574803149606
20
0.397244094488189
40
0.0059055118110236
0
CIRCLE
8
BLACK
10
0.0610236220472441
20
0.202755905511811
40
0.0078740157480315
0
CIRCLE
8
BLACK
10
0.1751968503937008
20
0.5236220472440944
40
0.0078740157480315
0
CIRCLE
8
BLACK
10
0.6181102362204725
20
0.0433070866141732
40
0.0078740157480315
0
CIRCLE
8
BLACK
10
0.7322834645669292
20
0.547244094488189
40
0.0078740157480315
0
CIRCLE
8
BLACK
10
0.1732283464566929
20
0.0767716535433071
40
0.0078740157480315
0
CIRCLE
8
BLACK
10
0.0551181102362205
20
0.3858267716535433
40
0.0078740157480315
0
CIRCLE
8
BLACK
10
0.8287401574803149
20
0.5003937007874015
40
0.0059055118110236
0
CIRCLE
8
BLACK
10
0.6161417322834646
20
0.1515748031496063
40
0.0078740157480315
0
CIRCLE
8
BLACK
10
0.8858267716535433
20
0.1992125984251968
40
0.0059055118110236
0
CIRCLE
8
BLACK
10
0.6377952755905512
20
0.547244094488189
40
0.0078740157480315
0
CIRCLE
8
BLACK
10
0.4960629921259843
20
0.4901574803149606
40
0.0078740157480315
0
CIRCLE
8
BLACK
10
0.8295275590551181
20
0.397244094488189
40
0.0059055118110236
0
CIRCLE
8
BLACK
10
0.3956692913385826
20
0.2322834645669291
40
0.0059055118110236
0
CIRCLE
8
BLACK
10
0.5826771653543307
20
0.4901574803149606
40
0.0078740157480315
0
CIRCLE
8
BLACK
10
0.8866141732283465
20
0.0984251968503937
40
0.0059055118110236
0
CIRCLE
8
BLACK
10
0.5429133858267716
20
0.1543307086614173
40
0.0078740157480315
0
CIRCLE
8
BLACK
10
0.1230314960629921
20
0.3690944881889764
40
0.0078740157480315
0
CIRCLE
8
BLACK
10
0.6937007874015748
20
0.2874015748031496
40
0.0059055118110236
0
CIRCLE
8
BLACK
10
0.6570866141732283
20
0.3476377952755905
40
0.0059055118110236
0
CIRCLE
8
BLACK
10
0.7633858267716536
20
0.0653543307086614
40
0.0078740157480315
0
CIRCLE
8
BLACK
10
0.125
20
0.2706692913385827
40
0.0078740157480315
0
CIRCLE
8
BLACK
10
0.6393700787401575
20
0.4232283464566929
40
0.0078740157480315
0
CIRCLE
8
BLACK
10
0.2614173228346456
20
0.2716535433070866
40
0.0078740157480315
0
CIRCLE
8
BLACK
10
0.7716535433070866
20
0.3783464566929134
40
0.0078740157480315
0
CIRCLE
8
BLACK
10
0.8122047244094488
20
0.1988188976377953
40
0.0059055118110236
  0
ENDSEC
  0
EOF
