  0
SECTION
  2
HEADER
  9
$ANGBASE
  50
0.0
  9
$ANGDIR
  70
1
  9
$MEASUREMENT
  70
0
  0
ENDSEC
  0
SECTION
  2
TABLES
  0
TABLE
  2
LTYPE
  70
4
  0
LTYPE
  5
40F
  2
CONTINUOUS
  70
0
  3
Solid line
  72
65
  73
0
  40
0.0
  0
LTYPE
  5
410
  2
DASHDOT
 70
0
  3
Dash Dot ____ _ ____ _
 72
65
 73
4
 40
2.0
 49
1.25
 49
-0.25
 49
0.25
 49
-0.25
  0
LTYPE
  5
411
  2
DASHED
 70
0
  3
Dashed __ __ __ __ __
 72
65
 73
2
 40
0.75
 49
0.5
 49
-0.25
  0
LTYPE
  5
43B
  2
DOTTED
 70
0
  3
Dotted .  .  .  .
 72
65
 73
2
 40
0.2
 49
0.0
 49
-0.2
  0
ENDTAB
  0
TABLE
  2
STYLE
  70
4
  0
STYLE
  2
KICAD
  70
0
  40
0
  41
1
  42
1
  50
0
  71
0
  3
isocp.shx
  0
STYLE
  2
KICADB
  70
0
  40
0
  41
1
  42
1
  50
0
  71
0
  3
isocp.shx
  0
STYLE
  2
KICADI
  70
0
  40
0
  41
1
  42
1
  50
15
  71
0
  3
isocp.shx
  0
STYLE
  2
KICADBI
  70
0
  40
0
  41
1
  42
1
  50
15
  71
0
  3
isocp.shx
  0
ENDTAB
  0
TABLE
  2
LAYER
  70
1
  0
LAYER
  2
BLACK
  70
0
  62
7
  6
CONTINUOUS
  0
ENDTAB
  0
ENDSEC
  0
SECTION
  2
ENTITIES
0
LINE
8
BLACK
6
CONTINUOUS
10
0.777008031496063
20
0.1886954330708661
11
0.7859681889763779
21
0.185784094488189
0
LINE
8
BLACK
6
CONTINUOUS
10
0.7859681889763779
20
0.185784094488189
11
0.7943625984251969
21
0.1815069291338583
0
LINE
8
BLACK
6
CONTINUOUS
10
0.7943625984251969
20
0.1815069291338583
11
0.8019845669291339
21
0.1759692519685039
0
LINE
8
BLACK
6
CONTINUOUS
10
0.8019845669291339
20
0.1759692519685039
11
0.8086464173228346
21
0.1693074015748031
0
LINE
8
BLACK
6
CONTINUOUS
10
0.8086464173228346
20
0.1693074015748031
11
0.814184094488189
21
0.1616854330708661
0
LINE
8
BLACK
6
CONTINUOUS
10
0.814184094488189
20
0.1616854330708661
11
0.8184612598425197
21
0.1532910236220472
0
LINE
8
BLACK
6
CONTINUOUS
10
0.8184612598425197
20
0.1532910236220472
11
0.8213725984251968
21
0.1443308661417323
0
LINE
8
BLACK
6
CONTINUOUS
10
0.8213725984251968
20
0.1443308661417323
11
0.8228464173228346
21
0.1350255905511811
0
LINE
8
BLACK
6
CONTINUOUS
10
0.8228464173228346
20
0.1350255905511811
11
0.8228464173228346
21
0.1256043307086614
0
LINE
8
BLACK
6
CONTINUOUS
10
0.8228464173228346
20
0.1256043307086614
11
0.8213725984251968
21
0.1162990551181102
0
LINE
8
BLACK
6
CONTINUOUS
10
0.8213725984251968
20
0.1162990551181102
11
0.8184612598425197
21
0.1073388976377953
0
LINE
8
BLACK
6
CONTINUOUS
10
0.8184612598425197
20
0.1073388976377953
11
0.814184094488189
21
0.0989444881889764
0
LINE
8
BLACK
6
CONTINUOUS
10
0.814184094488189
20
0.0989444881889764
11
0.8086464173228346
21
0.0913225196850394
0
LINE
8
BLACK
6
CONTINUOUS
10
0.8086464173228346
20
0.0913225196850394
11
0.8019845669291339
21
0.0846606692913386
0
LINE
8
BLACK
6
CONTINUOUS
10
0.8019845669291339
20
0.0846606692913386
11
0.7943625984251969
21
0.0791229921259843
0
LINE
8
BLACK
6
CONTINUOUS
10
0.7943625984251969
20
0.0791229921259843
11
0.7859681889763779
21
0.0748458267716535
0
LINE
8
BLACK
6
CONTINUOUS
10
0.7859681889763779
20
0.0748458267716535
11
0.777008031496063
21
0.0719344881889764
0
LINE
8
BLACK
6
CONTINUOUS
10
0.777008031496063
20
0.0719344881889764
11
0.7677027559055118
21
0.0704606692913386
0
LINE
8
BLACK
6
CONTINUOUS
10
0.7677027559055118
20
0.0704606692913386
11
0.7582814960629921
21
0.0704606692913386
0
LINE
8
BLACK
6
CONTINUOUS
10
0.7582814960629921
20
0.0704606692913386
11
0.7489762204724409
21
0.0719344881889764
0
LINE
8
BLACK
6
CONTINUOUS
10
0.7489762204724409
20
0.0719344881889764
11
0.740016062992126
21
0.0748458267716535
0
LINE
8
BLACK
6
CONTINUOUS
10
0.740016062992126
20
0.0748458267716535
11
0.7316216535433071
21
0.0791229921259843
0
LINE
8
BLACK
6
CONTINUOUS
10
0.7316216535433071
20
0.0791229921259843
11
0.7239996850393701
21
0.0846606692913386
0
LINE
8
BLACK
6
CONTINUOUS
10
0.7239996850393701
20
0.0846606692913386
11
0.7173378346456692
21
0.0913225196850394
0
LINE
8
BLACK
6
CONTINUOUS
10
0.7173378346456692
20
0.0913225196850394
11
0.711800157480315
21
0.0989444881889764
0
LINE
8
BLACK
6
CONTINUOUS
10
0.711800157480315
20
0.0989444881889764
11
0.7075229921259842
21
0.1073388976377953
0
LINE
8
BLACK
6
CONTINUOUS
10
0.7075229921259842
20
0.1073388976377953
11
0.7046116535433071
21
0.1162990551181102
0
LINE
8
BLACK
6
CONTINUOUS
10
0.7046116535433071
20
0.1162990551181102
11
0.7031378346456693
21
0.1256043307086614
0
LINE
8
BLACK
6
CONTINUOUS
10
0.7031378346456693
20
0.1256043307086614
11
0.7031378346456693
21
0.1348852362204724
0
LINE
8
BLACK
6
CONTINUOUS
10
0.7031378346456693
20
0.1348852362204724
11
0.7031378346456693
21
0.1350255905511811
0
LINE
8
BLACK
6
CONTINUOUS
10
0.7031378346456693
20
0.1350255905511811
11
0.7046116535433071
21
0.1443308661417323
0
LINE
8
BLACK
6
CONTINUOUS
10
0.7046116535433071
20
0.1443308661417323
11
0.7075229921259842
21
0.1532910236220472
0
LINE
8
BLACK
6
CONTINUOUS
10
0.7075229921259842
20
0.1532910236220472
11
0.711800157480315
21
0.1616854330708661
0
LINE
8
BLACK
6
CONTINUOUS
10
0.711800157480315
20
0.1616854330708661
11
0.7173378346456692
21
0.1693074015748031
0
LINE
8
BLACK
6
CONTINUOUS
10
0.7173378346456692
20
0.1693074015748031
11
0.7239996850393701
21
0.1759692519685039
0
LINE
8
BLACK
6
CONTINUOUS
10
0.7239996850393701
20
0.1759692519685039
11
0.7316216535433071
21
0.1815069291338583
0
LINE
8
BLACK
6
CONTINUOUS
10
0.7316216535433071
20
0.1815069291338583
11
0.740016062992126
21
0.185784094488189
0
LINE
8
BLACK
6
CONTINUOUS
10
0.740016062992126
20
0.185784094488189
11
0.7489762204724409
21
0.1886954330708661
0
LINE
8
BLACK
6
CONTINUOUS
10
0.7489762204724409
20
0.1886954330708661
11
0.7582814960629921
21
0.1901692519685039
0
LINE
8
BLACK
6
CONTINUOUS
10
0.7582814960629921
20
0.1901692519685039
11
0.7677027559055118
21
0.1901692519685039
0
LINE
8
BLACK
6
CONTINUOUS
10
0.7677027559055118
20
0.1901692519685039
11
0.777008031496063
21
0.1886954330708661
0
LINE
8
BLACK
6
CONTINUOUS
10
0.7049212598425196
20
0.1257446850393701
11
0.7063511417322834
21
0.1167166535433071
0
LINE
8
BLACK
6
CONTINUOUS
10
0.7063511417322834
20
0.1167166535433071
11
0.7091757480314961
21
0.1080235039370079
0
LINE
8
BLACK
6
CONTINUOUS
10
0.7091757480314961
20
0.1080235039370079
11
0.7133254724409449
21
0.0998792125984252
0
LINE
8
BLACK
6
CONTINUOUS
10
0.7133254724409449
20
0.0998792125984252
11
0.7186981496062992
21
0.0924843307086614
0
LINE
8
BLACK
6
CONTINUOUS
10
0.7186981496062992
20
0.0924843307086614
11
0.7251614960629921
21
0.0860209842519685
0
LINE
8
BLACK
6
CONTINUOUS
10
0.7251614960629921
20
0.0860209842519685
11
0.7325563779527559
21
0.0806483070866142
0
LINE
8
BLACK
6
CONTINUOUS
10
0.7325563779527559
20
0.0806483070866142
11
0.7407006692913386
21
0.0764985826771653
0
LINE
8
BLACK
6
CONTINUOUS
10
0.7407006692913386
20
0.0764985826771653
11
0.7493938188976378
21
0.0736739763779528
0
LINE
8
BLACK
6
CONTINUOUS
10
0.7493938188976378
20
0.0736739763779528
11
0.7584218503937008
21
0.072244094488189
0
LINE
8
BLACK
6
CONTINUOUS
10
0.7584218503937008
20
0.072244094488189
11
0.7675624015748032
21
0.072244094488189
0
LINE
8
BLACK
6
CONTINUOUS
10
0.7675624015748032
20
0.072244094488189
11
0.7765904330708662
21
0.0736739763779528
0
LINE
8
BLACK
6
CONTINUOUS
10
0.7765904330708662
20
0.0736739763779528
11
0.7852835826771654
21
0.0764985826771653
0
LINE
8
BLACK
6
CONTINUOUS
10
0.7852835826771654
20
0.0764985826771653
11
0.793427874015748
21
0.0806483070866142
0
LINE
8
BLACK
6
CONTINUOUS
10
0.793427874015748
20
0.0806483070866142
11
0.8008227559055118
21
0.0860209842519685
0
LINE
8
BLACK
6
CONTINUOUS
10
0.8008227559055118
20
0.0860209842519685
11
0.8072861023622047
21
0.0924843307086614
0
LINE
8
BLACK
6
CONTINUOUS
10
0.8072861023622047
20
0.0924843307086614
11
0.812658779527559
21
0.0998792125984252
0
LINE
8
BLACK
6
CONTINUOUS
10
0.812658779527559
20
0.0998792125984252
11
0.8168085039370079
21
0.1080235039370079
0
LINE
8
BLACK
6
CONTINUOUS
10
0.8168085039370079
20
0.1080235039370079
11
0.8196331102362204
21
0.1167166535433071
0
LINE
8
BLACK
6
CONTINUOUS
10
0.8196331102362204
20
0.1167166535433071
11
0.8210629921259842
21
0.1257446850393701
0
LINE
8
BLACK
6
CONTINUOUS
10
0.8210629921259842
20
0.1257446850393701
11
0.8210629921259842
21
0.1348852362204724
0
LINE
8
BLACK
6
CONTINUOUS
10
0.8210629921259842
20
0.1348852362204724
11
0.8196331102362204
21
0.1439132677165354
0
LINE
8
BLACK
6
CONTINUOUS
10
0.8196331102362204
20
0.1439132677165354
11
0.8168085039370079
21
0.1526064173228346
0
LINE
8
BLACK
6
CONTINUOUS
10
0.8168085039370079
20
0.1526064173228346
11
0.812658779527559
21
0.1607507086614173
0
LINE
8
BLACK
6
CONTINUOUS
10
0.812658779527559
20
0.1607507086614173
11
0.8072861023622047
21
0.1681455905511811
0
LINE
8
BLACK
6
CONTINUOUS
10
0.8072861023622047
20
0.1681455905511811
11
0.8008227559055118
21
0.174608937007874
0
LINE
8
BLACK
6
CONTINUOUS
10
0.8008227559055118
20
0.174608937007874
11
0.793427874015748
21
0.1799816141732283
0
LINE
8
BLACK
6
CONTINUOUS
10
0.793427874015748
20
0.1799816141732283
11
0.7852835826771654
21
0.1841313385826772
0
LINE
8
BLACK
6
CONTINUOUS
10
0.7852835826771654
20
0.1841313385826772
11
0.7765904330708662
21
0.1869559448818898
0
LINE
8
BLACK
6
CONTINUOUS
10
0.7765904330708662
20
0.1869559448818898
11
0.7675624015748032
21
0.1883858267716536
0
LINE
8
BLACK
6
CONTINUOUS
10
0.7675624015748032
20
0.1883858267716536
11
0.7584218503937008
21
0.1883858267716536
0
LINE
8
BLACK
6
CONTINUOUS
10
0.7584218503937008
20
0.1883858267716536
11
0.7493938188976378
21
0.1869559448818898
0
LINE
8
BLACK
6
CONTINUOUS
10
0.7493938188976378
20
0.1869559448818898
11
0.7407006692913386
21
0.1841313385826772
0
LINE
8
BLACK
6
CONTINUOUS
10
0.7407006692913386
20
0.1841313385826772
11
0.7325563779527559
21
0.1799816141732283
0
LINE
8
BLACK
6
CONTINUOUS
10
0.7325563779527559
20
0.1799816141732283
11
0.7251614960629921
21
0.174608937007874
0
LINE
8
BLACK
6
CONTINUOUS
10
0.7251614960629921
20
0.174608937007874
11
0.7186981496062992
21
0.1681455905511811
0
LINE
8
BLACK
6
CONTINUOUS
10
0.7186981496062992
20
0.1681455905511811
11
0.7133254724409449
21
0.1607507086614173
0
LINE
8
BLACK
6
CONTINUOUS
10
0.7133254724409449
20
0.1607507086614173
11
0.7091757480314961
21
0.1526064173228346
0
LINE
8
BLACK
6
CONTINUOUS
10
0.7091757480314961
20
0.1526064173228346
11
0.7063511417322834
21
0.1439132677165354
0
LINE
8
BLACK
6
CONTINUOUS
10
0.7063511417322834
20
0.1439132677165354
11
0.7049212598425196
21
0.1348852362204724
0
LINE
8
BLACK
6
CONTINUOUS
10
0.7049212598425196
20
0.1348852362204724
11
0.7049212598425196
21
0.1257446850393701
0
LINE
8
BLACK
6
CONTINUOUS
10
0.1371876771653543
20
0.4824053937007874
11
0.1377203543307087
21
0.4818727165354331
0
LINE
8
BLACK
6
CONTINUOUS
10
0.1377203543307087
20
0.4818727165354331
11
0.1377952755905512
21
0.481496062992126
0
LINE
8
BLACK
6
CONTINUOUS
10
0.1377952755905512
20
0.481496062992126
11
0.1377952755905512
21
0.4785433070866142
0
LINE
8
BLACK
6
CONTINUOUS
10
0.1377952755905512
20
0.4785433070866142
11
0.1998031496062992
21
0.4785433070866142
0
LINE
8
BLACK
6
CONTINUOUS
10
0.1998031496062992
20
0.4785433070866142
11
0.2001798031496063
21
0.4784683858267716
0
LINE
8
BLACK
6
CONTINUOUS
10
0.2001798031496063
20
0.4784683858267716
11
0.2007124803149606
21
0.4779357086614173
0
LINE
8
BLACK
6
CONTINUOUS
10
0.2007124803149606
20
0.4779357086614173
11
0.2007874015748032
21
0.4775590551181102
0
LINE
8
BLACK
6
CONTINUOUS
10
0.2007874015748032
20
0.4775590551181102
11
0.2007874015748032
21
0.4017716535433071
0
LINE
8
BLACK
6
CONTINUOUS
10
0.2007874015748032
20
0.4017716535433071
11
0.2431102362204724
21
0.4017716535433071
0
LINE
8
BLACK
6
CONTINUOUS
10
0.2431102362204724
20
0.4017716535433071
11
0.2434868897637795
21
0.4016967322834645
0
LINE
8
BLACK
6
CONTINUOUS
10
0.2434868897637795
20
0.4016967322834645
11
0.2440195669291338
21
0.4011640551181102
0
LINE
8
BLACK
6
CONTINUOUS
10
0.2440195669291338
20
0.4011640551181102
11
0.2440944881889764
21
0.4007874015748031
0
LINE
8
BLACK
6
CONTINUOUS
10
0.2440944881889764
20
0.4007874015748031
11
0.2440944881889764
21
0.189763779527559
0
LINE
8
BLACK
6
CONTINUOUS
10
0.2440944881889764
20
0.189763779527559
11
0.2440195669291338
21
0.189387125984252
0
LINE
8
BLACK
6
CONTINUOUS
10
0.2440195669291338
20
0.189387125984252
11
0.2434868897637795
21
0.1888544488188976
0
LINE
8
BLACK
6
CONTINUOUS
10
0.2434868897637795
20
0.1888544488188976
11
0.2431102362204724
21
0.1887795275590551
0
LINE
8
BLACK
6
CONTINUOUS
10
0.2431102362204724
20
0.1887795275590551
11
0.2007874015748032
21
0.1887795275590551
0
LINE
8
BLACK
6
CONTINUOUS
10
0.2007874015748032
20
0.1887795275590551
11
0.2007874015748032
21
0.112992125984252
0
LINE
8
BLACK
6
CONTINUOUS
10
0.2007874015748032
20
0.112992125984252
11
0.2007124803149606
21
0.1126154724409449
0
LINE
8
BLACK
6
CONTINUOUS
10
0.2007124803149606
20
0.1126154724409449
11
0.2001798031496063
21
0.1120827952755905
0
LINE
8
BLACK
6
CONTINUOUS
10
0.2001798031496063
20
0.1120827952755905
11
0.1998031496062992
21
0.112007874015748
0
LINE
8
BLACK
6
CONTINUOUS
10
0.1998031496062992
20
0.112007874015748
11
0.1377952755905512
21
0.112007874015748
0
LINE
8
BLACK
6
CONTINUOUS
10
0.1377952755905512
20
0.112007874015748
11
0.1377952755905512
21
0.1090551181102362
0
LINE
8
BLACK
6
CONTINUOUS
10
0.1377952755905512
20
0.1090551181102362
11
0.1377203543307087
21
0.1086784645669291
0
LINE
8
BLACK
6
CONTINUOUS
10
0.1377203543307087
20
0.1086784645669291
11
0.1371876771653543
21
0.1081457874015748
0
LINE
8
BLACK
6
CONTINUOUS
10
0.1371876771653543
20
0.1081457874015748
11
0.1368110236220473
21
0.1080708661417323
0
LINE
8
BLACK
6
CONTINUOUS
10
0.1368110236220473
20
0.1080708661417323
11
-0.0088582677165354
21
0.1080708661417323
0
LINE
8
BLACK
6
CONTINUOUS
10
-0.0088582677165354
20
0.1080708661417323
11
-0.0092349212598425
21
0.1081457874015748
0
LINE
8
BLACK
6
CONTINUOUS
10
-0.0092349212598425
20
0.1081457874015748
11
-0.0097675984251969
21
0.1086784645669291
0
LINE
8
BLACK
6
CONTINUOUS
10
-0.0097675984251969
20
0.1086784645669291
11
-0.0098425196850394
21
0.1090551181102362
0
LINE
8
BLACK
6
CONTINUOUS
10
-0.0098425196850394
20
0.1090551181102362
11
-0.0098425196850394
21
0.1881889763779528
0
LINE
8
BLACK
6
CONTINUOUS
10
-0.0098425196850394
20
0.1881889763779528
11
-0.0097675984251969
21
0.1885656299212598
0
LINE
8
BLACK
6
CONTINUOUS
10
-0.0097675984251969
20
0.1885656299212598
11
-0.0092349212598425
21
0.1890983070866142
0
LINE
8
BLACK
6
CONTINUOUS
10
-0.0092349212598425
20
0.1890983070866142
11
-0.0088582677165354
21
0.1891732283464567
0
LINE
8
BLACK
6
CONTINUOUS
10
-0.0088582677165354
20
0.1891732283464567
11
0.
21
0.1891732283464567
0
LINE
8
BLACK
6
CONTINUOUS
10
0.
20
0.1891732283464567
11
0.
21
0.4013779527559055
0
LINE
8
BLACK
6
CONTINUOUS
10
0.
20
0.4013779527559055
11
-0.0088582677165354
21
0.4013779527559055
0
LINE
8
BLACK
6
CONTINUOUS
10
-0.0088582677165354
20
0.4013779527559055
11
-0.0092349212598425
21
0.401452874015748
0
LINE
8
BLACK
6
CONTINUOUS
10
-0.0092349212598425
20
0.401452874015748
11
-0.0097675984251969
21
0.4019855511811024
0
LINE
8
BLACK
6
CONTINUOUS
10
-0.0097675984251969
20
0.4019855511811024
11
-0.0098425196850394
21
0.4023622047244094
0
LINE
8
BLACK
6
CONTINUOUS
10
-0.0098425196850394
20
0.4023622047244094
11
-0.0098425196850394
21
0.481496062992126
0
LINE
8
BLACK
6
CONTINUOUS
10
-0.0098425196850394
20
0.481496062992126
11
-0.0097675984251969
21
0.4818727165354331
0
LINE
8
BLACK
6
CONTINUOUS
10
-0.0097675984251969
20
0.4818727165354331
11
-0.0092349212598425
21
0.4824053937007874
0
LINE
8
BLACK
6
CONTINUOUS
10
-0.0092349212598425
20
0.4824053937007874
11
-0.0088582677165354
21
0.4824803149606299
0
LINE
8
BLACK
6
CONTINUOUS
10
-0.0088582677165354
20
0.4824803149606299
11
0.1368110236220473
21
0.4824803149606299
0
LINE
8
BLACK
6
CONTINUOUS
10
0.1368110236220473
20
0.4824803149606299
11
0.1371876771653543
21
0.4824053937007874
0
LINE
8
BLACK
6
CONTINUOUS
10
-0.0078740157480315
20
0.4805118110236221
11
-0.0078740157480315
21
0.4033464566929134
0
LINE
8
BLACK
6
CONTINUOUS
10
-0.0078740157480315
20
0.4033464566929134
11
0.0009842519685039
21
0.4033464566929134
0
LINE
8
BLACK
6
CONTINUOUS
10
0.0009842519685039
20
0.4033464566929134
11
0.001360905511811
21
0.4032715354330709
0
LINE
8
BLACK
6
CONTINUOUS
10
0.001360905511811
20
0.4032715354330709
11
0.0018935826771654
21
0.4027388582677165
0
LINE
8
BLACK
6
CONTINUOUS
10
0.0018935826771654
20
0.4027388582677165
11
0.0019685039370079
21
0.4023622047244094
0
LINE
8
BLACK
6
CONTINUOUS
10
0.0019685039370079
20
0.4023622047244094
11
0.0019685039370079
21
0.1881889763779528
0
LINE
8
BLACK
6
CONTINUOUS
10
0.0019685039370079
20
0.1881889763779528
11
0.0018935826771654
21
0.1878123228346457
0
LINE
8
BLACK
6
CONTINUOUS
10
0.0018935826771654
20
0.1878123228346457
11
0.001360905511811
21
0.1872796456692913
0
LINE
8
BLACK
6
CONTINUOUS
10
0.001360905511811
20
0.1872796456692913
11
0.0009842519685039
21
0.1872047244094488
0
LINE
8
BLACK
6
CONTINUOUS
10
0.0009842519685039
20
0.1872047244094488
11
-0.0078740157480315
21
0.1872047244094488
0
LINE
8
BLACK
6
CONTINUOUS
10
-0.0078740157480315
20
0.1872047244094488
11
-0.0078740157480315
21
0.1100393700787402
0
LINE
8
BLACK
6
CONTINUOUS
10
-0.0078740157480315
20
0.1100393700787402
11
0.1358267716535433
21
0.1100393700787402
0
LINE
8
BLACK
6
CONTINUOUS
10
0.1358267716535433
20
0.1100393700787402
11
0.1358267716535433
21
0.112992125984252
0
LINE
8
BLACK
6
CONTINUOUS
10
0.1358267716535433
20
0.112992125984252
11
0.1359016929133858
21
0.1133687795275591
0
LINE
8
BLACK
6
CONTINUOUS
10
0.1359016929133858
20
0.1133687795275591
11
0.1364343700787402
21
0.1139014566929134
0
LINE
8
BLACK
6
CONTINUOUS
10
0.1364343700787402
20
0.1139014566929134
11
0.1368110236220473
21
0.1139763779527559
0
LINE
8
BLACK
6
CONTINUOUS
10
0.1368110236220473
20
0.1139763779527559
11
0.1988188976377953
21
0.1139763779527559
0
LINE
8
BLACK
6
CONTINUOUS
10
0.1988188976377953
20
0.1139763779527559
11
0.1988188976377953
21
0.189763779527559
0
LINE
8
BLACK
6
CONTINUOUS
10
0.1988188976377953
20
0.189763779527559
11
0.1988938188976378
21
0.1901404330708661
0
LINE
8
BLACK
6
CONTINUOUS
10
0.1988938188976378
20
0.1901404330708661
11
0.1994264960629921
21
0.1906731102362205
0
LINE
8
BLACK
6
CONTINUOUS
10
0.1994264960629921
20
0.1906731102362205
11
0.1998031496062992
21
0.190748031496063
0
LINE
8
BLACK
6
CONTINUOUS
10
0.1998031496062992
20
0.190748031496063
11
0.2421259842519685
21
0.190748031496063
0
LINE
8
BLACK
6
CONTINUOUS
10
0.2421259842519685
20
0.190748031496063
11
0.2421259842519685
21
0.3998031496062992
0
LINE
8
BLACK
6
CONTINUOUS
10
0.2421259842519685
20
0.3998031496062992
11
0.1998031496062992
21
0.3998031496062992
0
LINE
8
BLACK
6
CONTINUOUS
10
0.1998031496062992
20
0.3998031496062992
11
0.1994264960629921
21
0.3998780708661417
0
LINE
8
BLACK
6
CONTINUOUS
10
0.1994264960629921
20
0.3998780708661417
11
0.1988938188976378
21
0.4004107480314961
0
LINE
8
BLACK
6
CONTINUOUS
10
0.1988938188976378
20
0.4004107480314961
11
0.1988188976377953
21
0.4007874015748031
0
LINE
8
BLACK
6
CONTINUOUS
10
0.1988188976377953
20
0.4007874015748031
11
0.1988188976377953
21
0.4765748031496063
0
LINE
8
BLACK
6
CONTINUOUS
10
0.1988188976377953
20
0.4765748031496063
11
0.1368110236220473
21
0.4765748031496063
0
LINE
8
BLACK
6
CONTINUOUS
10
0.1368110236220473
20
0.4765748031496063
11
0.1364343700787402
21
0.4766497244094488
0
LINE
8
BLACK
6
CONTINUOUS
10
0.1364343700787402
20
0.4766497244094488
11
0.1359016929133858
21
0.4771824015748031
0
LINE
8
BLACK
6
CONTINUOUS
10
0.1359016929133858
20
0.4771824015748031
11
0.1358267716535433
21
0.4775590551181102
0
LINE
8
BLACK
6
CONTINUOUS
10
0.1358267716535433
20
0.4775590551181102
11
0.1358267716535433
21
0.4805118110236221
0
LINE
8
BLACK
6
CONTINUOUS
10
0.1358267716535433
20
0.4805118110236221
11
-0.0078740157480315
21
0.4805118110236221
0
LINE
8
BLACK
6
CONTINUOUS
10
0.5928963385826772
20
0.3615392519685039
11
0.5934290157480315
21
0.3610065748031496
0
LINE
8
BLACK
6
CONTINUOUS
10
0.5934290157480315
20
0.3610065748031496
11
0.593503937007874
21
0.3606299212598425
0
LINE
8
BLACK
6
CONTINUOUS
10
0.593503937007874
20
0.3606299212598425
11
0.593503937007874
21
0.1795275590551181
0
LINE
8
BLACK
6
CONTINUOUS
10
0.593503937007874
20
0.1795275590551181
11
0.5934290157480315
21
0.179150905511811
0
LINE
8
BLACK
6
CONTINUOUS
10
0.5934290157480315
20
0.179150905511811
11
0.5928963385826772
21
0.1786182283464567
0
LINE
8
BLACK
6
CONTINUOUS
10
0.5928963385826772
20
0.1786182283464567
11
0.59251968503937
21
0.1785433070866142
0
LINE
8
BLACK
6
CONTINUOUS
10
0.59251968503937
20
0.1785433070866142
11
0.4940944881889764
21
0.1785433070866142
0
LINE
8
BLACK
6
CONTINUOUS
10
0.4940944881889764
20
0.1785433070866142
11
0.4937178346456693
21
0.1786182283464567
0
LINE
8
BLACK
6
CONTINUOUS
10
0.4937178346456693
20
0.1786182283464567
11
0.4931851574803149
21
0.179150905511811
0
LINE
8
BLACK
6
CONTINUOUS
10
0.4931851574803149
20
0.179150905511811
11
0.4931102362204725
21
0.1795275590551181
0
LINE
8
BLACK
6
CONTINUOUS
10
0.4931102362204725
20
0.1795275590551181
11
0.4931102362204725
21
0.3606299212598425
0
LINE
8
BLACK
6
CONTINUOUS
10
0.4931102362204725
20
0.3606299212598425
11
0.4931851574803149
21
0.3610065748031496
0
LINE
8
BLACK
6
CONTINUOUS
10
0.4931851574803149
20
0.3610065748031496
11
0.4937178346456693
21
0.3615392519685039
0
LINE
8
BLACK
6
CONTINUOUS
10
0.4937178346456693
20
0.3615392519685039
11
0.4940944881889764
21
0.3616141732283464
0
LINE
8
BLACK
6
CONTINUOUS
10
0.4940944881889764
20
0.3616141732283464
11
0.59251968503937
21
0.3616141732283464
0
LINE
8
BLACK
6
CONTINUOUS
10
0.59251968503937
20
0.3616141732283464
11
0.5928963385826772
21
0.3615392519685039
0
LINE
8
BLACK
6
CONTINUOUS
10
0.4950787401574803
20
0.3596456692913386
11
0.4950787401574803
21
0.180511811023622
0
LINE
8
BLACK
6
CONTINUOUS
10
0.4950787401574803
20
0.180511811023622
11
0.5915354330708661
21
0.180511811023622
0
LINE
8
BLACK
6
CONTINUOUS
10
0.5915354330708661
20
0.180511811023622
11
0.5915354330708661
21
0.3596456692913386
0
LINE
8
BLACK
6
CONTINUOUS
10
0.5915354330708661
20
0.3596456692913386
11
0.4950787401574803
21
0.3596456692913386
0
LINE
8
BLACK
6
CONTINUOUS
10
0.4905341338582677
20
0.3615392519685039
11
0.491066811023622
21
0.3610065748031496
0
LINE
8
BLACK
6
CONTINUOUS
10
0.491066811023622
20
0.3610065748031496
11
0.4911417322834646
21
0.3606299212598425
0
LINE
8
BLACK
6
CONTINUOUS
10
0.4911417322834646
20
0.3606299212598425
11
0.4911417322834646
21
0.2307086614173228
0
LINE
8
BLACK
6
CONTINUOUS
10
0.4911417322834646
20
0.2307086614173228
11
0.491066811023622
21
0.2303320078740158
0
LINE
8
BLACK
6
CONTINUOUS
10
0.491066811023622
20
0.2303320078740158
11
0.4905341338582677
21
0.2297993307086614
0
LINE
8
BLACK
6
CONTINUOUS
10
0.4905341338582677
20
0.2297993307086614
11
0.4901574803149606
21
0.2297244094488189
0
LINE
8
BLACK
6
CONTINUOUS
10
0.4901574803149606
20
0.2297244094488189
11
0.3917322834645669
21
0.2297244094488189
0
LINE
8
BLACK
6
CONTINUOUS
10
0.3917322834645669
20
0.2297244094488189
11
0.3913556299212598
21
0.2297993307086614
0
LINE
8
BLACK
6
CONTINUOUS
10
0.3913556299212598
20
0.2297993307086614
11
0.3908229527559055
21
0.2303320078740158
0
LINE
8
BLACK
6
CONTINUOUS
10
0.3908229527559055
20
0.2303320078740158
11
0.390748031496063
21
0.2307086614173228
0
LINE
8
BLACK
6
CONTINUOUS
10
0.390748031496063
20
0.2307086614173228
11
0.390748031496063
21
0.3606299212598425
0
LINE
8
BLACK
6
CONTINUOUS
10
0.390748031496063
20
0.3606299212598425
11
0.3908229527559055
21
0.3610065748031496
0
LINE
8
BLACK
6
CONTINUOUS
10
0.3908229527559055
20
0.3610065748031496
11
0.3913556299212598
21
0.3615392519685039
0
LINE
8
BLACK
6
CONTINUOUS
10
0.3913556299212598
20
0.3615392519685039
11
0.3917322834645669
21
0.3616141732283464
0
LINE
8
BLACK
6
CONTINUOUS
10
0.3917322834645669
20
0.3616141732283464
11
0.4901574803149606
21
0.3616141732283464
0
LINE
8
BLACK
6
CONTINUOUS
10
0.4901574803149606
20
0.3616141732283464
11
0.4905341338582677
21
0.3615392519685039
0
LINE
8
BLACK
6
CONTINUOUS
10
0.3927165354330708
20
0.3596456692913386
11
0.3927165354330708
21
0.2316929133858268
0
LINE
8
BLACK
6
CONTINUOUS
10
0.3927165354330708
20
0.2316929133858268
11
0.4891732283464567
21
0.2316929133858268
0
LINE
8
BLACK
6
CONTINUOUS
10
0.4891732283464567
20
0.2316929133858268
11
0.4891732283464567
21
0.3596456692913386
0
LINE
8
BLACK
6
CONTINUOUS
10
0.4891732283464567
20
0.3596456692913386
11
0.3927165354330708
21
0.3596456692913386
  0
ENDSEC
  0
EOF
