  0
SECTION
  2
HEADER
  9
$ANGBASE
  50
0.0
  9
$ANGDIR
  70
1
  9
$MEASUREMENT
  70
0
  0
ENDSEC
  0
SECTION
  2
TABLES
  0
TABLE
  2
LTYPE
  70
4
  0
LTYPE
  5
40F
  2
CONTINUOUS
  70
0
  3
Solid line
  72
65
  73
0
  40
0.0
  0
LTYPE
  5
410
  2
DASHDOT
 70
0
  3
Dash Dot ____ _ ____ _
 72
65
 73
4
 40
2.0
 49
1.25
 49
-0.25
 49
0.25
 49
-0.25
  0
LTYPE
  5
411
  2
DASHED
 70
0
  3
Dashed __ __ __ __ __
 72
65
 73
2
 40
0.75
 49
0.5
 49
-0.25
  0
LTYPE
  5
43B
  2
DOTTED
 70
0
  3
Dotted .  .  .  .
 72
65
 73
2
 40
0.2
 49
0.0
 49
-0.2
  0
ENDTAB
  0
TABLE
  2
STYLE
  70
4
  0
STYLE
  2
KICAD
  70
0
  40
0
  41
1
  42
1
  50
0
  71
0
  3
isocp.shx
  0
STYLE
  2
KICADB
  70
0
  40
0
  41
1
  42
1
  50
0
  71
0
  3
isocp.shx
  0
STYLE
  2
KICADI
  70
0
  40
0
  41
1
  42
1
  50
15
  71
0
  3
isocp.shx
  0
STYLE
  2
KICADBI
  70
0
  40
0
  41
1
  42
1
  50
15
  71
0
  3
isocp.shx
  0
ENDTAB
  0
TABLE
  2
LAYER
  70
1
  0
LAYER
  2
BLACK
  70
0
  62
7
  6
CONTINUOUS
  0
ENDTAB
  0
ENDSEC
  0
SECTION
  2
ENTITIES
0
LINE
8
BLACK
6
CONTINUOUS
10
0.2742617322834646
20
0.1007286220472441
11
0.2770291338582677
21
0.0988795275590551
0
LINE
8
BLACK
6
CONTINUOUS
10
0.2770291338582677
20
0.0988795275590551
11
0.2788782283464567
21
0.096112125984252
0
LINE
8
BLACK
6
CONTINUOUS
10
0.2788782283464567
20
0.096112125984252
11
0.2795275196850394
21
0.0928477165354331
0
LINE
8
BLACK
6
CONTINUOUS
10
0.2795275196850394
20
0.0928477165354331
11
0.2795275590551181
21
0.0469160236220472
0
LINE
8
BLACK
6
CONTINUOUS
10
0.2795275590551181
20
0.0469160236220472
11
0.2788782283464567
21
0.0436516535433071
0
LINE
8
BLACK
6
CONTINUOUS
10
0.2788782283464567
20
0.0436516535433071
11
0.2770291338582677
21
0.0408842519685039
0
LINE
8
BLACK
6
CONTINUOUS
10
0.2770291338582677
20
0.0408842519685039
11
0.2742617322834646
21
0.039035157480315
0
LINE
8
BLACK
6
CONTINUOUS
10
0.2742617322834646
20
0.039035157480315
11
0.2709973228346457
21
0.0383858661417323
0
LINE
8
BLACK
6
CONTINUOUS
10
0.2709973228346457
20
0.0383858661417323
11
0.2349081496062992
21
0.0383858267716535
0
LINE
8
BLACK
6
CONTINUOUS
10
0.2349081496062992
20
0.0383858267716535
11
0.231643779527559
21
0.039035157480315
0
LINE
8
BLACK
6
CONTINUOUS
10
0.231643779527559
20
0.039035157480315
11
0.2288763779527559
21
0.0408842519685039
0
LINE
8
BLACK
6
CONTINUOUS
10
0.2288763779527559
20
0.0408842519685039
11
0.2270272834645669
21
0.0436516535433071
0
LINE
8
BLACK
6
CONTINUOUS
10
0.2270272834645669
20
0.0436516535433071
11
0.2263779921259843
21
0.046916062992126
0
LINE
8
BLACK
6
CONTINUOUS
10
0.2263779921259843
20
0.046916062992126
11
0.2263779527559055
21
0.0928477559055118
0
LINE
8
BLACK
6
CONTINUOUS
10
0.2263779527559055
20
0.0928477559055118
11
0.2270272834645669
21
0.096112125984252
0
LINE
8
BLACK
6
CONTINUOUS
10
0.2270272834645669
20
0.096112125984252
11
0.2288763779527559
21
0.0988795275590551
0
LINE
8
BLACK
6
CONTINUOUS
10
0.2288763779527559
20
0.0988795275590551
11
0.231643779527559
21
0.1007286220472441
0
LINE
8
BLACK
6
CONTINUOUS
10
0.231643779527559
20
0.1007286220472441
11
0.2349081889763779
21
0.1013779133858268
0
LINE
8
BLACK
6
CONTINUOUS
10
0.2349081889763779
20
0.1013779133858268
11
0.2709973622047244
21
0.1013779527559055
0
LINE
8
BLACK
6
CONTINUOUS
10
0.2709973622047244
20
0.1013779527559055
11
0.2742617322834646
21
0.1007286220472441
0
LINE
8
BLACK
6
CONTINUOUS
10
0.4159940157480315
20
0.1007286220472441
11
0.4187614173228346
21
0.0988795275590551
0
LINE
8
BLACK
6
CONTINUOUS
10
0.4187614173228346
20
0.0988795275590551
11
0.4206105118110236
21
0.096112125984252
0
LINE
8
BLACK
6
CONTINUOUS
10
0.4206105118110236
20
0.096112125984252
11
0.4212598031496063
21
0.0928477165354331
0
LINE
8
BLACK
6
CONTINUOUS
10
0.4212598031496063
20
0.0928477165354331
11
0.421259842519685
21
0.0469160236220472
0
LINE
8
BLACK
6
CONTINUOUS
10
0.421259842519685
20
0.0469160236220472
11
0.4206105118110236
21
0.0436516535433071
0
LINE
8
BLACK
6
CONTINUOUS
10
0.4206105118110236
20
0.0436516535433071
11
0.4187614173228346
21
0.0408842519685039
0
LINE
8
BLACK
6
CONTINUOUS
10
0.4187614173228346
20
0.0408842519685039
11
0.4159940157480315
21
0.039035157480315
0
LINE
8
BLACK
6
CONTINUOUS
10
0.4159940157480315
20
0.039035157480315
11
0.4127296062992126
21
0.0383858661417323
0
LINE
8
BLACK
6
CONTINUOUS
10
0.4127296062992126
20
0.0383858661417323
11
0.3766404330708661
21
0.0383858267716535
0
LINE
8
BLACK
6
CONTINUOUS
10
0.3766404330708661
20
0.0383858267716535
11
0.373376062992126
21
0.039035157480315
0
LINE
8
BLACK
6
CONTINUOUS
10
0.373376062992126
20
0.039035157480315
11
0.3706086614173228
21
0.0408842519685039
0
LINE
8
BLACK
6
CONTINUOUS
10
0.3706086614173228
20
0.0408842519685039
11
0.3687595669291339
21
0.0436516535433071
0
LINE
8
BLACK
6
CONTINUOUS
10
0.3687595669291339
20
0.0436516535433071
11
0.3681102755905512
21
0.046916062992126
0
LINE
8
BLACK
6
CONTINUOUS
10
0.3681102755905512
20
0.046916062992126
11
0.3681102362204725
21
0.0928477559055118
0
LINE
8
BLACK
6
CONTINUOUS
10
0.3681102362204725
20
0.0928477559055118
11
0.3687595669291339
21
0.096112125984252
0
LINE
8
BLACK
6
CONTINUOUS
10
0.3687595669291339
20
0.096112125984252
11
0.3706086614173228
21
0.0988795275590551
0
LINE
8
BLACK
6
CONTINUOUS
10
0.3706086614173228
20
0.0988795275590551
11
0.373376062992126
21
0.1007286220472441
0
LINE
8
BLACK
6
CONTINUOUS
10
0.373376062992126
20
0.1007286220472441
11
0.3766404724409449
21
0.1013779133858268
0
LINE
8
BLACK
6
CONTINUOUS
10
0.3766404724409449
20
0.1013779133858268
11
0.4127296456692913
21
0.1013779527559055
0
LINE
8
BLACK
6
CONTINUOUS
10
0.4127296456692913
20
0.1013779527559055
11
0.4159940157480315
21
0.1007286220472441
0
LINE
8
BLACK
6
CONTINUOUS
10
0.9736825590551181
20
0.1738100787401575
11
0.9762370472440944
21
0.1721031889763779
0
LINE
8
BLACK
6
CONTINUOUS
10
0.9762370472440944
20
0.1721031889763779
11
0.977943937007874
21
0.1695487007874016
0
LINE
8
BLACK
6
CONTINUOUS
10
0.977943937007874
20
0.1695487007874016
11
0.9785433070866142
21
0.1665354330708661
0
LINE
8
BLACK
6
CONTINUOUS
10
0.9785433070866142
20
0.1665354330708661
11
0.9785433070866142
21
0.1271653543307087
0
LINE
8
BLACK
6
CONTINUOUS
10
0.9785433070866142
20
0.1271653543307087
11
0.977943937007874
21
0.1241520866141732
0
LINE
8
BLACK
6
CONTINUOUS
10
0.977943937007874
20
0.1241520866141732
11
0.9762370472440944
21
0.1215975984251969
0
LINE
8
BLACK
6
CONTINUOUS
10
0.9762370472440944
20
0.1215975984251969
11
0.9736825590551181
21
0.1198907086614173
0
LINE
8
BLACK
6
CONTINUOUS
10
0.9736825590551181
20
0.1198907086614173
11
0.9706692913385827
21
0.1192913385826772
0
LINE
8
BLACK
6
CONTINUOUS
10
0.9706692913385827
20
0.1192913385826772
11
0.8718503937007874
21
0.1192913385826772
0
LINE
8
BLACK
6
CONTINUOUS
10
0.8718503937007874
20
0.1192913385826772
11
0.868837125984252
21
0.1198907086614173
0
LINE
8
BLACK
6
CONTINUOUS
10
0.868837125984252
20
0.1198907086614173
11
0.8662826377952756
21
0.1215975984251969
0
LINE
8
BLACK
6
CONTINUOUS
10
0.8662826377952756
20
0.1215975984251969
11
0.8645757480314961
21
0.1241520866141732
0
LINE
8
BLACK
6
CONTINUOUS
10
0.8645757480314961
20
0.1241520866141732
11
0.8639763779527558
21
0.1271653543307087
0
LINE
8
BLACK
6
CONTINUOUS
10
0.8639763779527558
20
0.1271653543307087
11
0.8639763779527558
21
0.1665354330708661
0
LINE
8
BLACK
6
CONTINUOUS
10
0.8639763779527558
20
0.1665354330708661
11
0.8645757480314961
21
0.1695487007874016
0
LINE
8
BLACK
6
CONTINUOUS
10
0.8645757480314961
20
0.1695487007874016
11
0.8662826377952756
21
0.1721031889763779
0
LINE
8
BLACK
6
CONTINUOUS
10
0.8662826377952756
20
0.1721031889763779
11
0.868837125984252
21
0.1738100787401575
0
LINE
8
BLACK
6
CONTINUOUS
10
0.868837125984252
20
0.1738100787401575
11
0.8718503937007874
21
0.1744094488188976
0
LINE
8
BLACK
6
CONTINUOUS
10
0.8718503937007874
20
0.1744094488188976
11
0.9706692913385827
21
0.1744094488188976
0
LINE
8
BLACK
6
CONTINUOUS
10
0.9706692913385827
20
0.1744094488188976
11
0.9736825590551181
21
0.1738100787401575
0
LINE
8
BLACK
6
CONTINUOUS
10
0.1105771653543307
20
0.1758722440944882
11
0.1155618503937008
21
0.174128031496063
0
LINE
8
BLACK
6
CONTINUOUS
10
0.1155618503937008
20
0.174128031496063
11
0.1198109448818898
21
0.1709920472440945
0
LINE
8
BLACK
6
CONTINUOUS
10
0.1198109448818898
20
0.1709920472440945
11
0.1229469291338583
21
0.1667429527559055
0
LINE
8
BLACK
6
CONTINUOUS
10
0.1229469291338583
20
0.1667429527559055
11
0.1246911417322835
21
0.1617582677165354
0
LINE
8
BLACK
6
CONTINUOUS
10
0.1246911417322835
20
0.1617582677165354
11
0.125
21
0.1584645669291339
0
LINE
8
BLACK
6
CONTINUOUS
10
0.125
20
0.1584645669291339
11
0.125
21
0.1387795275590551
0
LINE
8
BLACK
6
CONTINUOUS
10
0.125
20
0.1387795275590551
11
0.1246911417322835
21
0.1354858267716536
0
LINE
8
BLACK
6
CONTINUOUS
10
0.1246911417322835
20
0.1354858267716536
11
0.1229469291338583
21
0.1305011417322835
0
LINE
8
BLACK
6
CONTINUOUS
10
0.1229469291338583
20
0.1305011417322835
11
0.1198109448818898
21
0.1262520472440945
0
LINE
8
BLACK
6
CONTINUOUS
10
0.1198109448818898
20
0.1262520472440945
11
0.1155618503937008
21
0.123116062992126
0
LINE
8
BLACK
6
CONTINUOUS
10
0.1155618503937008
20
0.123116062992126
11
0.1105771653543307
21
0.1213718503937008
0
LINE
8
BLACK
6
CONTINUOUS
10
0.1105771653543307
20
0.1213718503937008
11
0.1072834645669291
21
0.1210629921259842
0
LINE
8
BLACK
6
CONTINUOUS
10
0.1072834645669291
20
0.1210629921259842
11
0.0206692913385827
21
0.1210629921259842
0
LINE
8
BLACK
6
CONTINUOUS
10
0.0206692913385827
20
0.1210629921259842
11
0.0173755905511811
21
0.1213718503937008
0
LINE
8
BLACK
6
CONTINUOUS
10
0.0173755905511811
20
0.1213718503937008
11
0.012390905511811
21
0.123116062992126
0
LINE
8
BLACK
6
CONTINUOUS
10
0.012390905511811
20
0.123116062992126
11
0.008141811023622
21
0.1262520472440945
0
LINE
8
BLACK
6
CONTINUOUS
10
0.008141811023622
20
0.1262520472440945
11
0.0050058267716535
21
0.1305011417322835
0
LINE
8
BLACK
6
CONTINUOUS
10
0.0050058267716535
20
0.1305011417322835
11
0.0032616141732283
21
0.1354858267716536
0
LINE
8
BLACK
6
CONTINUOUS
10
0.0032616141732283
20
0.1354858267716536
11
0.0029527559055118
21
0.1387795275590551
0
LINE
8
BLACK
6
CONTINUOUS
10
0.0029527559055118
20
0.1387795275590551
11
0.0029527559055118
21
0.1584645669291339
0
LINE
8
BLACK
6
CONTINUOUS
10
0.0029527559055118
20
0.1584645669291339
11
0.0032616141732283
21
0.1617582677165354
0
LINE
8
BLACK
6
CONTINUOUS
10
0.0032616141732283
20
0.1617582677165354
11
0.0050058267716535
21
0.1667429527559055
0
LINE
8
BLACK
6
CONTINUOUS
10
0.0050058267716535
20
0.1667429527559055
11
0.008141811023622
21
0.1709920472440945
0
LINE
8
BLACK
6
CONTINUOUS
10
0.008141811023622
20
0.1709920472440945
11
0.012390905511811
21
0.174128031496063
0
LINE
8
BLACK
6
CONTINUOUS
10
0.012390905511811
20
0.174128031496063
11
0.0173755905511811
21
0.1758722440944882
0
LINE
8
BLACK
6
CONTINUOUS
10
0.0173755905511811
20
0.1758722440944882
11
0.0206692913385827
21
0.1761811023622047
0
LINE
8
BLACK
6
CONTINUOUS
10
0.0206692913385827
20
0.1761811023622047
11
0.1072834645669291
21
0.1761811023622047
0
LINE
8
BLACK
6
CONTINUOUS
10
0.1072834645669291
20
0.1761811023622047
11
0.1105771653543307
21
0.1758722440944882
0
LINE
8
BLACK
6
CONTINUOUS
10
0.2917579133858267
20
0.1798033464566929
11
0.2963537401574803
21
0.1774616535433071
0
LINE
8
BLACK
6
CONTINUOUS
10
0.2963537401574803
20
0.1774616535433071
11
0.3000010236220472
21
0.1738143700787401
0
LINE
8
BLACK
6
CONTINUOUS
10
0.3000010236220472
20
0.1738143700787401
11
0.302342716535433
21
0.1692185433070866
0
LINE
8
BLACK
6
CONTINUOUS
10
0.302342716535433
20
0.1692185433070866
11
0.3031496062992126
21
0.1641240157480315
0
LINE
8
BLACK
6
CONTINUOUS
10
0.3031496062992126
20
0.1641240157480315
11
0.3031496062992126
21
0.1468996062992126
0
LINE
8
BLACK
6
CONTINUOUS
10
0.3031496062992126
20
0.1468996062992126
11
0.302342716535433
21
0.1418050787401575
0
LINE
8
BLACK
6
CONTINUOUS
10
0.302342716535433
20
0.1418050787401575
11
0.3000010236220472
21
0.1372092519685039
0
LINE
8
BLACK
6
CONTINUOUS
10
0.3000010236220472
20
0.1372092519685039
11
0.2963537401574803
21
0.133561968503937
0
LINE
8
BLACK
6
CONTINUOUS
10
0.2963537401574803
20
0.133561968503937
11
0.2917579133858267
21
0.1312202755905512
0
LINE
8
BLACK
6
CONTINUOUS
10
0.2917579133858267
20
0.1312202755905512
11
0.2866633858267716
21
0.1304133858267716
0
LINE
8
BLACK
6
CONTINUOUS
10
0.2866633858267716
20
0.1304133858267716
11
0.2664862204724409
21
0.1304133858267716
0
LINE
8
BLACK
6
CONTINUOUS
10
0.2664862204724409
20
0.1304133858267716
11
0.2613916929133858
21
0.1312202755905512
0
LINE
8
BLACK
6
CONTINUOUS
10
0.2613916929133858
20
0.1312202755905512
11
0.2567958661417323
21
0.133561968503937
0
LINE
8
BLACK
6
CONTINUOUS
10
0.2567958661417323
20
0.133561968503937
11
0.2531485826771653
21
0.1372092519685039
0
LINE
8
BLACK
6
CONTINUOUS
10
0.2531485826771653
20
0.1372092519685039
11
0.2508068897637795
21
0.1418050787401575
0
LINE
8
BLACK
6
CONTINUOUS
10
0.2508068897637795
20
0.1418050787401575
11
0.25
21
0.1468996062992126
0
LINE
8
BLACK
6
CONTINUOUS
10
0.25
20
0.1468996062992126
11
0.25
21
0.1641240157480315
0
LINE
8
BLACK
6
CONTINUOUS
10
0.25
20
0.1641240157480315
11
0.2508068897637795
21
0.1692185433070866
0
LINE
8
BLACK
6
CONTINUOUS
10
0.2508068897637795
20
0.1692185433070866
11
0.2531485826771653
21
0.1738143700787401
0
LINE
8
BLACK
6
CONTINUOUS
10
0.2531485826771653
20
0.1738143700787401
11
0.2567958661417323
21
0.1774616535433071
0
LINE
8
BLACK
6
CONTINUOUS
10
0.2567958661417323
20
0.1774616535433071
11
0.2613916929133858
21
0.1798033464566929
0
LINE
8
BLACK
6
CONTINUOUS
10
0.2613916929133858
20
0.1798033464566929
11
0.2664862204724409
21
0.1806102362204724
0
LINE
8
BLACK
6
CONTINUOUS
10
0.2664862204724409
20
0.1806102362204724
11
0.2866633858267716
21
0.1806102362204724
0
LINE
8
BLACK
6
CONTINUOUS
10
0.2866633858267716
20
0.1806102362204724
11
0.2917579133858267
21
0.1798033464566929
0
LINE
8
BLACK
6
CONTINUOUS
10
0.3681050393700787
20
0.2213759842519685
11
0.3721801968503937
21
0.2193837401574803
0
LINE
8
BLACK
6
CONTINUOUS
10
0.3721801968503937
20
0.2193837401574803
11
0.3753876771653543
21
0.2161762598425197
0
LINE
8
BLACK
6
CONTINUOUS
10
0.3753876771653543
20
0.2161762598425197
11
0.3773799212598425
21
0.2121011023622047
0
LINE
8
BLACK
6
CONTINUOUS
10
0.3773799212598425
20
0.2121011023622047
11
0.3779527559055118
21
0.2081692913385827
0
LINE
8
BLACK
6
CONTINUOUS
10
0.3779527559055118
20
0.2081692913385827
11
0.3779527559055118
21
0.1678149606299213
0
LINE
8
BLACK
6
CONTINUOUS
10
0.3779527559055118
20
0.1678149606299213
11
0.3773799212598425
21
0.1638831496062992
0
LINE
8
BLACK
6
CONTINUOUS
10
0.3773799212598425
20
0.1638831496062992
11
0.3753876771653543
21
0.1598079921259843
0
LINE
8
BLACK
6
CONTINUOUS
10
0.3753876771653543
20
0.1598079921259843
11
0.3721801968503937
21
0.1566005118110236
0
LINE
8
BLACK
6
CONTINUOUS
10
0.3721801968503937
20
0.1566005118110236
11
0.3681050393700787
21
0.1546082677165354
0
LINE
8
BLACK
6
CONTINUOUS
10
0.3681050393700787
20
0.1546082677165354
11
0.3641732283464567
21
0.1540354330708661
0
LINE
8
BLACK
6
CONTINUOUS
10
0.3641732283464567
20
0.1540354330708661
11
0.3523622047244094
21
0.1540354330708661
0
LINE
8
BLACK
6
CONTINUOUS
10
0.3523622047244094
20
0.1540354330708661
11
0.3484303937007874
21
0.1546082677165354
0
LINE
8
BLACK
6
CONTINUOUS
10
0.3484303937007874
20
0.1546082677165354
11
0.3443552362204724
21
0.1566005118110236
0
LINE
8
BLACK
6
CONTINUOUS
10
0.3443552362204724
20
0.1566005118110236
11
0.3411477559055118
21
0.1598079921259843
0
LINE
8
BLACK
6
CONTINUOUS
10
0.3411477559055118
20
0.1598079921259843
11
0.3391555118110236
21
0.1638831496062992
0
LINE
8
BLACK
6
CONTINUOUS
10
0.3391555118110236
20
0.1638831496062992
11
0.3385826771653543
21
0.1678149606299213
0
LINE
8
BLACK
6
CONTINUOUS
10
0.3385826771653543
20
0.1678149606299213
11
0.3385826771653543
21
0.2081692913385827
0
LINE
8
BLACK
6
CONTINUOUS
10
0.3385826771653543
20
0.2081692913385827
11
0.3391555118110236
21
0.2121011023622047
0
LINE
8
BLACK
6
CONTINUOUS
10
0.3391555118110236
20
0.2121011023622047
11
0.3411477559055118
21
0.2161762598425197
0
LINE
8
BLACK
6
CONTINUOUS
10
0.3411477559055118
20
0.2161762598425197
11
0.3443552362204724
21
0.2193837401574803
0
LINE
8
BLACK
6
CONTINUOUS
10
0.3443552362204724
20
0.2193837401574803
11
0.3484303937007874
21
0.2213759842519685
0
LINE
8
BLACK
6
CONTINUOUS
10
0.3484303937007874
20
0.2213759842519685
11
0.3523622047244094
21
0.2219488188976378
0
LINE
8
BLACK
6
CONTINUOUS
10
0.3523622047244094
20
0.2219488188976378
11
0.3641732283464567
21
0.2219488188976378
0
LINE
8
BLACK
6
CONTINUOUS
10
0.3641732283464567
20
0.2219488188976378
11
0.3681050393700787
21
0.2213759842519685
0
LINE
8
BLACK
6
CONTINUOUS
10
0.442908188976378
20
0.2213759842519685
11
0.4469833464566929
21
0.2193837401574803
0
LINE
8
BLACK
6
CONTINUOUS
10
0.4469833464566929
20
0.2193837401574803
11
0.4501908267716535
21
0.2161762598425197
0
LINE
8
BLACK
6
CONTINUOUS
10
0.4501908267716535
20
0.2161762598425197
11
0.4521830708661417
21
0.2121011023622047
0
LINE
8
BLACK
6
CONTINUOUS
10
0.4521830708661417
20
0.2121011023622047
11
0.452755905511811
21
0.2081692913385827
0
LINE
8
BLACK
6
CONTINUOUS
10
0.452755905511811
20
0.2081692913385827
11
0.452755905511811
21
0.1678149606299213
0
LINE
8
BLACK
6
CONTINUOUS
10
0.452755905511811
20
0.1678149606299213
11
0.4521830708661417
21
0.1638831496062992
0
LINE
8
BLACK
6
CONTINUOUS
10
0.4521830708661417
20
0.1638831496062992
11
0.4501908267716535
21
0.1598079921259843
0
LINE
8
BLACK
6
CONTINUOUS
10
0.4501908267716535
20
0.1598079921259843
11
0.4469833464566929
21
0.1566005118110236
0
LINE
8
BLACK
6
CONTINUOUS
10
0.4469833464566929
20
0.1566005118110236
11
0.442908188976378
21
0.1546082677165354
0
LINE
8
BLACK
6
CONTINUOUS
10
0.442908188976378
20
0.1546082677165354
11
0.4389763779527559
21
0.1540354330708661
0
LINE
8
BLACK
6
CONTINUOUS
10
0.4389763779527559
20
0.1540354330708661
11
0.4271653543307086
21
0.1540354330708661
0
LINE
8
BLACK
6
CONTINUOUS
10
0.4271653543307086
20
0.1540354330708661
11
0.4232335433070866
21
0.1546082677165354
0
LINE
8
BLACK
6
CONTINUOUS
10
0.4232335433070866
20
0.1546082677165354
11
0.4191583858267716
21
0.1566005118110236
0
LINE
8
BLACK
6
CONTINUOUS
10
0.4191583858267716
20
0.1566005118110236
11
0.415950905511811
21
0.1598079921259843
0
LINE
8
BLACK
6
CONTINUOUS
10
0.415950905511811
20
0.1598079921259843
11
0.4139586614173228
21
0.1638831496062992
0
LINE
8
BLACK
6
CONTINUOUS
10
0.4139586614173228
20
0.1638831496062992
11
0.4133858267716535
21
0.1678149606299213
0
LINE
8
BLACK
6
CONTINUOUS
10
0.4133858267716535
20
0.1678149606299213
11
0.4133858267716535
21
0.2081692913385827
0
LINE
8
BLACK
6
CONTINUOUS
10
0.4133858267716535
20
0.2081692913385827
11
0.4139586614173228
21
0.2121011023622047
0
LINE
8
BLACK
6
CONTINUOUS
10
0.4139586614173228
20
0.2121011023622047
11
0.415950905511811
21
0.2161762598425197
0
LINE
8
BLACK
6
CONTINUOUS
10
0.415950905511811
20
0.2161762598425197
11
0.4191583858267716
21
0.2193837401574803
0
LINE
8
BLACK
6
CONTINUOUS
10
0.4191583858267716
20
0.2193837401574803
11
0.4232335433070866
21
0.2213759842519685
0
LINE
8
BLACK
6
CONTINUOUS
10
0.4232335433070866
20
0.2213759842519685
11
0.4271653543307086
21
0.2219488188976378
0
LINE
8
BLACK
6
CONTINUOUS
10
0.4271653543307086
20
0.2219488188976378
11
0.4389763779527559
21
0.2219488188976378
0
LINE
8
BLACK
6
CONTINUOUS
10
0.4389763779527559
20
0.2219488188976378
11
0.442908188976378
21
0.2213759842519685
0
LINE
8
BLACK
6
CONTINUOUS
10
0.5218760236220472
20
0.2294096456692913
11
0.5264718503937008
21
0.2270679527559055
0
LINE
8
BLACK
6
CONTINUOUS
10
0.5264718503937008
20
0.2270679527559055
11
0.5301191338582677
21
0.2234206692913386
0
LINE
8
BLACK
6
CONTINUOUS
10
0.5301191338582677
20
0.2234206692913386
11
0.5324608267716535
21
0.218824842519685
0
LINE
8
BLACK
6
CONTINUOUS
10
0.5324608267716535
20
0.218824842519685
11
0.533267716535433
21
0.2137303149606299
0
LINE
8
BLACK
6
CONTINUOUS
10
0.533267716535433
20
0.2137303149606299
11
0.533267716535433
21
0.196505905511811
0
LINE
8
BLACK
6
CONTINUOUS
10
0.533267716535433
20
0.196505905511811
11
0.5324608267716535
21
0.1914113779527559
0
LINE
8
BLACK
6
CONTINUOUS
10
0.5324608267716535
20
0.1914113779527559
11
0.5301191338582677
21
0.1868155511811024
0
LINE
8
BLACK
6
CONTINUOUS
10
0.5301191338582677
20
0.1868155511811024
11
0.5264718503937008
21
0.1831682677165354
0
LINE
8
BLACK
6
CONTINUOUS
10
0.5264718503937008
20
0.1831682677165354
11
0.5218760236220472
21
0.1808265748031496
0
LINE
8
BLACK
6
CONTINUOUS
10
0.5218760236220472
20
0.1808265748031496
11
0.5167814960629921
21
0.1800196850393701
0
LINE
8
BLACK
6
CONTINUOUS
10
0.5167814960629921
20
0.1800196850393701
11
0.4966043307086614
21
0.1800196850393701
0
LINE
8
BLACK
6
CONTINUOUS
10
0.4966043307086614
20
0.1800196850393701
11
0.4915098031496063
21
0.1808265748031496
0
LINE
8
BLACK
6
CONTINUOUS
10
0.4915098031496063
20
0.1808265748031496
11
0.4869139763779528
21
0.1831682677165354
0
LINE
8
BLACK
6
CONTINUOUS
10
0.4869139763779528
20
0.1831682677165354
11
0.4832666929133858
21
0.1868155511811024
0
LINE
8
BLACK
6
CONTINUOUS
10
0.4832666929133858
20
0.1868155511811024
11
0.480925
21
0.1914113779527559
0
LINE
8
BLACK
6
CONTINUOUS
10
0.480925
20
0.1914113779527559
11
0.4801181102362205
21
0.196505905511811
0
LINE
8
BLACK
6
CONTINUOUS
10
0.4801181102362205
20
0.196505905511811
11
0.4801181102362205
21
0.2137303149606299
0
LINE
8
BLACK
6
CONTINUOUS
10
0.4801181102362205
20
0.2137303149606299
11
0.480925
21
0.218824842519685
0
LINE
8
BLACK
6
CONTINUOUS
10
0.480925
20
0.218824842519685
11
0.4832666929133858
21
0.2234206692913386
0
LINE
8
BLACK
6
CONTINUOUS
10
0.4832666929133858
20
0.2234206692913386
11
0.4869139763779528
21
0.2270679527559055
0
LINE
8
BLACK
6
CONTINUOUS
10
0.4869139763779528
20
0.2270679527559055
11
0.4915098031496063
21
0.2294096456692913
0
LINE
8
BLACK
6
CONTINUOUS
10
0.4915098031496063
20
0.2294096456692913
11
0.4966043307086614
21
0.2302165354330709
0
LINE
8
BLACK
6
CONTINUOUS
10
0.4966043307086614
20
0.2302165354330709
11
0.5167814960629921
21
0.2302165354330709
0
LINE
8
BLACK
6
CONTINUOUS
10
0.5167814960629921
20
0.2302165354330709
11
0.5218760236220472
21
0.2294096456692913
0
LINE
8
BLACK
6
CONTINUOUS
10
0.587820905511811
20
0.2294096456692913
11
0.5924167322834646
21
0.2270679527559055
0
LINE
8
BLACK
6
CONTINUOUS
10
0.5924167322834646
20
0.2270679527559055
11
0.5960640157480315
21
0.2234206692913386
0
LINE
8
BLACK
6
CONTINUOUS
10
0.5960640157480315
20
0.2234206692913386
11
0.5984057086614173
21
0.218824842519685
0
LINE
8
BLACK
6
CONTINUOUS
10
0.5984057086614173
20
0.218824842519685
11
0.5992125984251968
21
0.2137303149606299
0
LINE
8
BLACK
6
CONTINUOUS
10
0.5992125984251968
20
0.2137303149606299
11
0.5992125984251968
21
0.196505905511811
0
LINE
8
BLACK
6
CONTINUOUS
10
0.5992125984251968
20
0.196505905511811
11
0.5984057086614173
21
0.1914113779527559
0
LINE
8
BLACK
6
CONTINUOUS
10
0.5984057086614173
20
0.1914113779527559
11
0.5960640157480315
21
0.1868155511811024
0
LINE
8
BLACK
6
CONTINUOUS
10
0.5960640157480315
20
0.1868155511811024
11
0.5924167322834646
21
0.1831682677165354
0
LINE
8
BLACK
6
CONTINUOUS
10
0.5924167322834646
20
0.1831682677165354
11
0.587820905511811
21
0.1808265748031496
0
LINE
8
BLACK
6
CONTINUOUS
10
0.587820905511811
20
0.1808265748031496
11
0.5827263779527559
21
0.1800196850393701
0
LINE
8
BLACK
6
CONTINUOUS
10
0.5827263779527559
20
0.1800196850393701
11
0.5625492125984252
21
0.1800196850393701
0
LINE
8
BLACK
6
CONTINUOUS
10
0.5625492125984252
20
0.1800196850393701
11
0.55745468503937
21
0.1808265748031496
0
LINE
8
BLACK
6
CONTINUOUS
10
0.55745468503937
20
0.1808265748031496
11
0.5528588582677165
21
0.1831682677165354
0
LINE
8
BLACK
6
CONTINUOUS
10
0.5528588582677165
20
0.1831682677165354
11
0.5492115748031496
21
0.1868155511811024
0
LINE
8
BLACK
6
CONTINUOUS
10
0.5492115748031496
20
0.1868155511811024
11
0.5468698818897638
21
0.1914113779527559
0
LINE
8
BLACK
6
CONTINUOUS
10
0.5468698818897638
20
0.1914113779527559
11
0.5460629921259842
21
0.196505905511811
0
LINE
8
BLACK
6
CONTINUOUS
10
0.5460629921259842
20
0.196505905511811
11
0.5460629921259842
21
0.2137303149606299
0
LINE
8
BLACK
6
CONTINUOUS
10
0.5460629921259842
20
0.2137303149606299
11
0.5468698818897638
21
0.218824842519685
0
LINE
8
BLACK
6
CONTINUOUS
10
0.5468698818897638
20
0.218824842519685
11
0.5492115748031496
21
0.2234206692913386
0
LINE
8
BLACK
6
CONTINUOUS
10
0.5492115748031496
20
0.2234206692913386
11
0.5528588582677165
21
0.2270679527559055
0
LINE
8
BLACK
6
CONTINUOUS
10
0.5528588582677165
20
0.2270679527559055
11
0.55745468503937
21
0.2294096456692913
0
LINE
8
BLACK
6
CONTINUOUS
10
0.55745468503937
20
0.2294096456692913
11
0.5625492125984252
21
0.2302165354330709
0
LINE
8
BLACK
6
CONTINUOUS
10
0.5625492125984252
20
0.2302165354330709
11
0.5827263779527559
21
0.2302165354330709
0
LINE
8
BLACK
6
CONTINUOUS
10
0.5827263779527559
20
0.2302165354330709
11
0.587820905511811
21
0.2294096456692913
0
LINE
8
BLACK
6
CONTINUOUS
10
0.2917579133858267
20
0.2418112204724409
11
0.2963537401574803
21
0.2394695275590551
0
LINE
8
BLACK
6
CONTINUOUS
10
0.2963537401574803
20
0.2394695275590551
11
0.3000010236220472
21
0.2358222440944882
0
LINE
8
BLACK
6
CONTINUOUS
10
0.3000010236220472
20
0.2358222440944882
11
0.302342716535433
21
0.2312264173228346
0
LINE
8
BLACK
6
CONTINUOUS
10
0.302342716535433
20
0.2312264173228346
11
0.3031496062992126
21
0.2261318897637795
0
LINE
8
BLACK
6
CONTINUOUS
10
0.3031496062992126
20
0.2261318897637795
11
0.3031496062992126
21
0.2089074803149606
0
LINE
8
BLACK
6
CONTINUOUS
10
0.3031496062992126
20
0.2089074803149606
11
0.302342716535433
21
0.2038129527559055
0
LINE
8
BLACK
6
CONTINUOUS
10
0.302342716535433
20
0.2038129527559055
11
0.3000010236220472
21
0.199217125984252
0
LINE
8
BLACK
6
CONTINUOUS
10
0.3000010236220472
20
0.199217125984252
11
0.2963537401574803
21
0.195569842519685
0
LINE
8
BLACK
6
CONTINUOUS
10
0.2963537401574803
20
0.195569842519685
11
0.2917579133858267
21
0.1932281496062992
0
LINE
8
BLACK
6
CONTINUOUS
10
0.2917579133858267
20
0.1932281496062992
11
0.2866633858267716
21
0.1924212598425197
0
LINE
8
BLACK
6
CONTINUOUS
10
0.2866633858267716
20
0.1924212598425197
11
0.2664862204724409
21
0.1924212598425197
0
LINE
8
BLACK
6
CONTINUOUS
10
0.2664862204724409
20
0.1924212598425197
11
0.2613916929133858
21
0.1932281496062992
0
LINE
8
BLACK
6
CONTINUOUS
10
0.2613916929133858
20
0.1932281496062992
11
0.2567958661417323
21
0.195569842519685
0
LINE
8
BLACK
6
CONTINUOUS
10
0.2567958661417323
20
0.195569842519685
11
0.2531485826771653
21
0.199217125984252
0
LINE
8
BLACK
6
CONTINUOUS
10
0.2531485826771653
20
0.199217125984252
11
0.2508068897637795
21
0.2038129527559055
0
LINE
8
BLACK
6
CONTINUOUS
10
0.2508068897637795
20
0.2038129527559055
11
0.25
21
0.2089074803149606
0
LINE
8
BLACK
6
CONTINUOUS
10
0.25
20
0.2089074803149606
11
0.25
21
0.2261318897637795
0
LINE
8
BLACK
6
CONTINUOUS
10
0.25
20
0.2261318897637795
11
0.2508068897637795
21
0.2312264173228346
0
LINE
8
BLACK
6
CONTINUOUS
10
0.2508068897637795
20
0.2312264173228346
11
0.2531485826771653
21
0.2358222440944882
0
LINE
8
BLACK
6
CONTINUOUS
10
0.2531485826771653
20
0.2358222440944882
11
0.2567958661417323
21
0.2394695275590551
0
LINE
8
BLACK
6
CONTINUOUS
10
0.2567958661417323
20
0.2394695275590551
11
0.2613916929133858
21
0.2418112204724409
0
LINE
8
BLACK
6
CONTINUOUS
10
0.2613916929133858
20
0.2418112204724409
11
0.2664862204724409
21
0.2426181102362205
0
LINE
8
BLACK
6
CONTINUOUS
10
0.2664862204724409
20
0.2426181102362205
11
0.2866633858267716
21
0.2426181102362205
0
LINE
8
BLACK
6
CONTINUOUS
10
0.2866633858267716
20
0.2426181102362205
11
0.2917579133858267
21
0.2418112204724409
0
LINE
8
BLACK
6
CONTINUOUS
10
0.2214514960629921
20
0.2405688976377953
11
0.2255266535433071
21
0.2385766535433071
0
LINE
8
BLACK
6
CONTINUOUS
10
0.2255266535433071
20
0.2385766535433071
11
0.2287341338582677
21
0.2353691732283464
0
LINE
8
BLACK
6
CONTINUOUS
10
0.2287341338582677
20
0.2353691732283464
11
0.2307263779527559
21
0.2312940157480315
0
LINE
8
BLACK
6
CONTINUOUS
10
0.2307263779527559
20
0.2312940157480315
11
0.2312992125984252
21
0.2273622047244094
0
LINE
8
BLACK
6
CONTINUOUS
10
0.2312992125984252
20
0.2273622047244094
11
0.2312992125984252
21
0.2155511811023622
0
LINE
8
BLACK
6
CONTINUOUS
10
0.2312992125984252
20
0.2155511811023622
11
0.2307263779527559
21
0.2116193700787402
0
LINE
8
BLACK
6
CONTINUOUS
10
0.2307263779527559
20
0.2116193700787402
11
0.2287341338582677
21
0.2075442125984252
0
LINE
8
BLACK
6
CONTINUOUS
10
0.2287341338582677
20
0.2075442125984252
11
0.2255266535433071
21
0.2043367322834646
0
LINE
8
BLACK
6
CONTINUOUS
10
0.2255266535433071
20
0.2043367322834646
11
0.2214514960629921
21
0.2023444881889764
0
LINE
8
BLACK
6
CONTINUOUS
10
0.2214514960629921
20
0.2023444881889764
11
0.2175196850393701
21
0.2017716535433071
0
LINE
8
BLACK
6
CONTINUOUS
10
0.2175196850393701
20
0.2017716535433071
11
0.1624015748031496
21
0.2017716535433071
0
LINE
8
BLACK
6
CONTINUOUS
10
0.1624015748031496
20
0.2017716535433071
11
0.1584697637795276
21
0.2023444881889764
0
LINE
8
BLACK
6
CONTINUOUS
10
0.1584697637795276
20
0.2023444881889764
11
0.1543946062992126
21
0.2043367322834646
0
LINE
8
BLACK
6
CONTINUOUS
10
0.1543946062992126
20
0.2043367322834646
11
0.151187125984252
21
0.2075442125984252
0
LINE
8
BLACK
6
CONTINUOUS
10
0.151187125984252
20
0.2075442125984252
11
0.1491948818897638
21
0.2116193700787402
0
LINE
8
BLACK
6
CONTINUOUS
10
0.1491948818897638
20
0.2116193700787402
11
0.1486220472440945
21
0.2155511811023622
0
LINE
8
BLACK
6
CONTINUOUS
10
0.1486220472440945
20
0.2155511811023622
11
0.1486220472440945
21
0.2273622047244094
0
LINE
8
BLACK
6
CONTINUOUS
10
0.1486220472440945
20
0.2273622047244094
11
0.1491948818897638
21
0.2312940157480315
0
LINE
8
BLACK
6
CONTINUOUS
10
0.1491948818897638
20
0.2312940157480315
11
0.151187125984252
21
0.2353691732283464
0
LINE
8
BLACK
6
CONTINUOUS
10
0.151187125984252
20
0.2353691732283464
11
0.1543946062992126
21
0.2385766535433071
0
LINE
8
BLACK
6
CONTINUOUS
10
0.1543946062992126
20
0.2385766535433071
11
0.1584697637795276
21
0.2405688976377953
0
LINE
8
BLACK
6
CONTINUOUS
10
0.1584697637795276
20
0.2405688976377953
11
0.1624015748031496
21
0.2411417322834646
0
LINE
8
BLACK
6
CONTINUOUS
10
0.1624015748031496
20
0.2411417322834646
11
0.2175196850393701
21
0.2411417322834646
0
LINE
8
BLACK
6
CONTINUOUS
10
0.2175196850393701
20
0.2411417322834646
11
0.2214514960629921
21
0.2405688976377953
0
LINE
8
BLACK
6
CONTINUOUS
10
0.668170748031496
20
0.3196762204724409
11
0.6707252362204724
21
0.3179693307086614
0
LINE
8
BLACK
6
CONTINUOUS
10
0.6707252362204724
20
0.3179693307086614
11
0.6724321259842519
21
0.315414842519685
0
LINE
8
BLACK
6
CONTINUOUS
10
0.6724321259842519
20
0.315414842519685
11
0.6730314960629921
21
0.3124015748031496
0
LINE
8
BLACK
6
CONTINUOUS
10
0.6730314960629921
20
0.3124015748031496
11
0.6730314960629921
21
0.3005905511811023
0
LINE
8
BLACK
6
CONTINUOUS
10
0.6730314960629921
20
0.3005905511811023
11
0.6724321259842519
21
0.2975772834645669
0
LINE
8
BLACK
6
CONTINUOUS
10
0.6724321259842519
20
0.2975772834645669
11
0.6718148818897638
21
0.2966535433070866
0
LINE
8
BLACK
6
CONTINUOUS
10
0.6718148818897638
20
0.2966535433070866
11
0.6724321259842519
21
0.2957298031496063
0
LINE
8
BLACK
6
CONTINUOUS
10
0.6724321259842519
20
0.2957298031496063
11
0.6730314960629921
21
0.2927165354330709
0
LINE
8
BLACK
6
CONTINUOUS
10
0.6730314960629921
20
0.2927165354330709
11
0.6730314960629921
21
0.2809055118110236
0
LINE
8
BLACK
6
CONTINUOUS
10
0.6730314960629921
20
0.2809055118110236
11
0.6724321259842519
21
0.2778922440944882
0
LINE
8
BLACK
6
CONTINUOUS
10
0.6724321259842519
20
0.2778922440944882
11
0.6718148818897638
21
0.2769685039370079
0
LINE
8
BLACK
6
CONTINUOUS
10
0.6718148818897638
20
0.2769685039370079
11
0.6724321259842519
21
0.2760447637795276
0
LINE
8
BLACK
6
CONTINUOUS
10
0.6724321259842519
20
0.2760447637795276
11
0.6730314960629921
21
0.2730314960629921
0
LINE
8
BLACK
6
CONTINUOUS
10
0.6730314960629921
20
0.2730314960629921
11
0.6730314960629921
21
0.2612204724409449
0
LINE
8
BLACK
6
CONTINUOUS
10
0.6730314960629921
20
0.2612204724409449
11
0.6724321259842519
21
0.2582072047244094
0
LINE
8
BLACK
6
CONTINUOUS
10
0.6724321259842519
20
0.2582072047244094
11
0.6718148818897638
21
0.2572834645669291
0
LINE
8
BLACK
6
CONTINUOUS
10
0.6718148818897638
20
0.2572834645669291
11
0.6724321259842519
21
0.2563597244094488
0
LINE
8
BLACK
6
CONTINUOUS
10
0.6724321259842519
20
0.2563597244094488
11
0.6730314960629921
21
0.2533464566929134
0
LINE
8
BLACK
6
CONTINUOUS
10
0.6730314960629921
20
0.2533464566929134
11
0.6730314960629921
21
0.2415354330708661
0
LINE
8
BLACK
6
CONTINUOUS
10
0.6730314960629921
20
0.2415354330708661
11
0.6724321259842519
21
0.2385221653543307
0
LINE
8
BLACK
6
CONTINUOUS
10
0.6724321259842519
20
0.2385221653543307
11
0.6718148818897638
21
0.2375984251968504
0
LINE
8
BLACK
6
CONTINUOUS
10
0.6718148818897638
20
0.2375984251968504
11
0.6724321259842519
21
0.2366746850393701
0
LINE
8
BLACK
6
CONTINUOUS
10
0.6724321259842519
20
0.2366746850393701
11
0.6730314960629921
21
0.2336614173228346
0
LINE
8
BLACK
6
CONTINUOUS
10
0.6730314960629921
20
0.2336614173228346
11
0.6730314960629921
21
0.2218503937007874
0
LINE
8
BLACK
6
CONTINUOUS
10
0.6730314960629921
20
0.2218503937007874
11
0.6724321259842519
21
0.218837125984252
0
LINE
8
BLACK
6
CONTINUOUS
10
0.6724321259842519
20
0.218837125984252
11
0.6707252362204724
21
0.2162826377952756
0
LINE
8
BLACK
6
CONTINUOUS
10
0.6707252362204724
20
0.2162826377952756
11
0.668170748031496
21
0.2145757480314961
0
LINE
8
BLACK
6
CONTINUOUS
10
0.668170748031496
20
0.2145757480314961
11
0.6651574803149606
21
0.2139763779527559
0
LINE
8
BLACK
6
CONTINUOUS
10
0.6651574803149606
20
0.2139763779527559
11
0.6218503937007874
21
0.2139763779527559
0
LINE
8
BLACK
6
CONTINUOUS
10
0.6218503937007874
20
0.2139763779527559
11
0.618837125984252
21
0.2145757480314961
0
LINE
8
BLACK
6
CONTINUOUS
10
0.618837125984252
20
0.2145757480314961
11
0.6162826377952756
21
0.2162826377952756
0
LINE
8
BLACK
6
CONTINUOUS
10
0.6162826377952756
20
0.2162826377952756
11
0.6145757480314961
21
0.218837125984252
0
LINE
8
BLACK
6
CONTINUOUS
10
0.6145757480314961
20
0.218837125984252
11
0.6139763779527558
21
0.2218503937007874
0
LINE
8
BLACK
6
CONTINUOUS
10
0.6139763779527558
20
0.2218503937007874
11
0.6139763779527558
21
0.2336614173228346
0
LINE
8
BLACK
6
CONTINUOUS
10
0.6139763779527558
20
0.2336614173228346
11
0.6145757480314961
21
0.2366746850393701
0
LINE
8
BLACK
6
CONTINUOUS
10
0.6145757480314961
20
0.2366746850393701
11
0.6151929527559055
21
0.2375984251968504
0
LINE
8
BLACK
6
CONTINUOUS
10
0.6151929527559055
20
0.2375984251968504
11
0.6145757480314961
21
0.2385221653543307
0
LINE
8
BLACK
6
CONTINUOUS
10
0.6145757480314961
20
0.2385221653543307
11
0.6139763779527558
21
0.2415354330708661
0
LINE
8
BLACK
6
CONTINUOUS
10
0.6139763779527558
20
0.2415354330708661
11
0.6139763779527558
21
0.2533464566929134
0
LINE
8
BLACK
6
CONTINUOUS
10
0.6139763779527558
20
0.2533464566929134
11
0.6145757480314961
21
0.2563597244094488
0
LINE
8
BLACK
6
CONTINUOUS
10
0.6145757480314961
20
0.2563597244094488
11
0.6151929527559055
21
0.2572834645669291
0
LINE
8
BLACK
6
CONTINUOUS
10
0.6151929527559055
20
0.2572834645669291
11
0.6145757480314961
21
0.2582072047244094
0
LINE
8
BLACK
6
CONTINUOUS
10
0.6145757480314961
20
0.2582072047244094
11
0.6139763779527558
21
0.2612204724409449
0
LINE
8
BLACK
6
CONTINUOUS
10
0.6139763779527558
20
0.2612204724409449
11
0.6139763779527558
21
0.2730314960629921
0
LINE
8
BLACK
6
CONTINUOUS
10
0.6139763779527558
20
0.2730314960629921
11
0.6145757480314961
21
0.2760447637795276
0
LINE
8
BLACK
6
CONTINUOUS
10
0.6145757480314961
20
0.2760447637795276
11
0.6151929527559055
21
0.2769685039370079
0
LINE
8
BLACK
6
CONTINUOUS
10
0.6151929527559055
20
0.2769685039370079
11
0.6145757480314961
21
0.2778922440944882
0
LINE
8
BLACK
6
CONTINUOUS
10
0.6145757480314961
20
0.2778922440944882
11
0.6139763779527558
21
0.2809055118110236
0
LINE
8
BLACK
6
CONTINUOUS
10
0.6139763779527558
20
0.2809055118110236
11
0.6139763779527558
21
0.2927165354330709
0
LINE
8
BLACK
6
CONTINUOUS
10
0.6139763779527558
20
0.2927165354330709
11
0.6145757480314961
21
0.2957298031496063
0
LINE
8
BLACK
6
CONTINUOUS
10
0.6145757480314961
20
0.2957298031496063
11
0.6151929527559055
21
0.2966535433070866
0
LINE
8
BLACK
6
CONTINUOUS
10
0.6151929527559055
20
0.2966535433070866
11
0.6145757480314961
21
0.2975772834645669
0
LINE
8
BLACK
6
CONTINUOUS
10
0.6145757480314961
20
0.2975772834645669
11
0.6139763779527558
21
0.3005905511811023
0
LINE
8
BLACK
6
CONTINUOUS
10
0.6139763779527558
20
0.3005905511811023
11
0.6139763779527558
21
0.3124015748031496
0
LINE
8
BLACK
6
CONTINUOUS
10
0.6139763779527558
20
0.3124015748031496
11
0.6145757480314961
21
0.315414842519685
0
LINE
8
BLACK
6
CONTINUOUS
10
0.6145757480314961
20
0.315414842519685
11
0.6162826377952756
21
0.3179693307086614
0
LINE
8
BLACK
6
CONTINUOUS
10
0.6162826377952756
20
0.3179693307086614
11
0.618837125984252
21
0.3196762204724409
0
LINE
8
BLACK
6
CONTINUOUS
10
0.618837125984252
20
0.3196762204724409
11
0.6218503937007874
21
0.3202755905511811
0
LINE
8
BLACK
6
CONTINUOUS
10
0.6218503937007874
20
0.3202755905511811
11
0.6651574803149606
21
0.3202755905511811
0
LINE
8
BLACK
6
CONTINUOUS
10
0.6651574803149606
20
0.3202755905511811
11
0.668170748031496
21
0.3196762204724409
0
LINE
8
BLACK
6
CONTINUOUS
10
0.8374620866141732
20
0.3196762204724409
11
0.8400165748031496
21
0.3179693307086614
0
LINE
8
BLACK
6
CONTINUOUS
10
0.8400165748031496
20
0.3179693307086614
11
0.8417234645669291
21
0.315414842519685
0
LINE
8
BLACK
6
CONTINUOUS
10
0.8417234645669291
20
0.315414842519685
11
0.8423228346456693
21
0.3124015748031496
0
LINE
8
BLACK
6
CONTINUOUS
10
0.8423228346456693
20
0.3124015748031496
11
0.8423228346456693
21
0.3005905511811023
0
LINE
8
BLACK
6
CONTINUOUS
10
0.8423228346456693
20
0.3005905511811023
11
0.8417234645669291
21
0.2975772834645669
0
LINE
8
BLACK
6
CONTINUOUS
10
0.8417234645669291
20
0.2975772834645669
11
0.8411062204724409
21
0.2966535433070866
0
LINE
8
BLACK
6
CONTINUOUS
10
0.8411062204724409
20
0.2966535433070866
11
0.8417234645669291
21
0.2957298031496063
0
LINE
8
BLACK
6
CONTINUOUS
10
0.8417234645669291
20
0.2957298031496063
11
0.8423228346456693
21
0.2927165354330709
0
LINE
8
BLACK
6
CONTINUOUS
10
0.8423228346456693
20
0.2927165354330709
11
0.8423228346456693
21
0.2809055118110236
0
LINE
8
BLACK
6
CONTINUOUS
10
0.8423228346456693
20
0.2809055118110236
11
0.8417234645669291
21
0.2778922440944882
0
LINE
8
BLACK
6
CONTINUOUS
10
0.8417234645669291
20
0.2778922440944882
11
0.8411062204724409
21
0.2769685039370079
0
LINE
8
BLACK
6
CONTINUOUS
10
0.8411062204724409
20
0.2769685039370079
11
0.8417234645669291
21
0.2760447637795276
0
LINE
8
BLACK
6
CONTINUOUS
10
0.8417234645669291
20
0.2760447637795276
11
0.8423228346456693
21
0.2730314960629921
0
LINE
8
BLACK
6
CONTINUOUS
10
0.8423228346456693
20
0.2730314960629921
11
0.8423228346456693
21
0.2612204724409449
0
LINE
8
BLACK
6
CONTINUOUS
10
0.8423228346456693
20
0.2612204724409449
11
0.8417234645669291
21
0.2582072047244094
0
LINE
8
BLACK
6
CONTINUOUS
10
0.8417234645669291
20
0.2582072047244094
11
0.8411062204724409
21
0.2572834645669291
0
LINE
8
BLACK
6
CONTINUOUS
10
0.8411062204724409
20
0.2572834645669291
11
0.8417234645669291
21
0.2563597244094488
0
LINE
8
BLACK
6
CONTINUOUS
10
0.8417234645669291
20
0.2563597244094488
11
0.8423228346456693
21
0.2533464566929134
0
LINE
8
BLACK
6
CONTINUOUS
10
0.8423228346456693
20
0.2533464566929134
11
0.8423228346456693
21
0.2415354330708661
0
LINE
8
BLACK
6
CONTINUOUS
10
0.8423228346456693
20
0.2415354330708661
11
0.8417234645669291
21
0.2385221653543307
0
LINE
8
BLACK
6
CONTINUOUS
10
0.8417234645669291
20
0.2385221653543307
11
0.8411062204724409
21
0.2375984251968504
0
LINE
8
BLACK
6
CONTINUOUS
10
0.8411062204724409
20
0.2375984251968504
11
0.8417234645669291
21
0.2366746850393701
0
LINE
8
BLACK
6
CONTINUOUS
10
0.8417234645669291
20
0.2366746850393701
11
0.8423228346456693
21
0.2336614173228346
0
LINE
8
BLACK
6
CONTINUOUS
10
0.8423228346456693
20
0.2336614173228346
11
0.8423228346456693
21
0.2218503937007874
0
LINE
8
BLACK
6
CONTINUOUS
10
0.8423228346456693
20
0.2218503937007874
11
0.8417234645669291
21
0.218837125984252
0
LINE
8
BLACK
6
CONTINUOUS
10
0.8417234645669291
20
0.218837125984252
11
0.8400165748031496
21
0.2162826377952756
0
LINE
8
BLACK
6
CONTINUOUS
10
0.8400165748031496
20
0.2162826377952756
11
0.8374620866141732
21
0.2145757480314961
0
LINE
8
BLACK
6
CONTINUOUS
10
0.8374620866141732
20
0.2145757480314961
11
0.8344488188976378
21
0.2139763779527559
0
LINE
8
BLACK
6
CONTINUOUS
10
0.8344488188976378
20
0.2139763779527559
11
0.7911417322834645
21
0.2139763779527559
0
LINE
8
BLACK
6
CONTINUOUS
10
0.7911417322834645
20
0.2139763779527559
11
0.7881284645669291
21
0.2145757480314961
0
LINE
8
BLACK
6
CONTINUOUS
10
0.7881284645669291
20
0.2145757480314961
11
0.7855739763779528
21
0.2162826377952756
0
LINE
8
BLACK
6
CONTINUOUS
10
0.7855739763779528
20
0.2162826377952756
11
0.7838670866141733
21
0.218837125984252
0
LINE
8
BLACK
6
CONTINUOUS
10
0.7838670866141733
20
0.218837125984252
11
0.783267716535433
21
0.2218503937007874
0
LINE
8
BLACK
6
CONTINUOUS
10
0.783267716535433
20
0.2218503937007874
11
0.783267716535433
21
0.2336614173228346
0
LINE
8
BLACK
6
CONTINUOUS
10
0.783267716535433
20
0.2336614173228346
11
0.7838670866141733
21
0.2366746850393701
0
LINE
8
BLACK
6
CONTINUOUS
10
0.7838670866141733
20
0.2366746850393701
11
0.7844842913385827
21
0.2375984251968504
0
LINE
8
BLACK
6
CONTINUOUS
10
0.7844842913385827
20
0.2375984251968504
11
0.7838670866141733
21
0.2385221653543307
0
LINE
8
BLACK
6
CONTINUOUS
10
0.7838670866141733
20
0.2385221653543307
11
0.783267716535433
21
0.2415354330708661
0
LINE
8
BLACK
6
CONTINUOUS
10
0.783267716535433
20
0.2415354330708661
11
0.783267716535433
21
0.2533464566929134
0
LINE
8
BLACK
6
CONTINUOUS
10
0.783267716535433
20
0.2533464566929134
11
0.7838670866141733
21
0.2563597244094488
0
LINE
8
BLACK
6
CONTINUOUS
10
0.7838670866141733
20
0.2563597244094488
11
0.7844842913385827
21
0.2572834645669291
0
LINE
8
BLACK
6
CONTINUOUS
10
0.7844842913385827
20
0.2572834645669291
11
0.7838670866141733
21
0.2582072047244094
0
LINE
8
BLACK
6
CONTINUOUS
10
0.7838670866141733
20
0.2582072047244094
11
0.783267716535433
21
0.2612204724409449
0
LINE
8
BLACK
6
CONTINUOUS
10
0.783267716535433
20
0.2612204724409449
11
0.783267716535433
21
0.2730314960629921
0
LINE
8
BLACK
6
CONTINUOUS
10
0.783267716535433
20
0.2730314960629921
11
0.7838670866141733
21
0.2760447637795276
0
LINE
8
BLACK
6
CONTINUOUS
10
0.7838670866141733
20
0.2760447637795276
11
0.7844842913385827
21
0.2769685039370079
0
LINE
8
BLACK
6
CONTINUOUS
10
0.7844842913385827
20
0.2769685039370079
11
0.7838670866141733
21
0.2778922440944882
0
LINE
8
BLACK
6
CONTINUOUS
10
0.7838670866141733
20
0.2778922440944882
11
0.783267716535433
21
0.2809055118110236
0
LINE
8
BLACK
6
CONTINUOUS
10
0.783267716535433
20
0.2809055118110236
11
0.783267716535433
21
0.2927165354330709
0
LINE
8
BLACK
6
CONTINUOUS
10
0.783267716535433
20
0.2927165354330709
11
0.7838670866141733
21
0.2957298031496063
0
LINE
8
BLACK
6
CONTINUOUS
10
0.7838670866141733
20
0.2957298031496063
11
0.7844842913385827
21
0.2966535433070866
0
LINE
8
BLACK
6
CONTINUOUS
10
0.7844842913385827
20
0.2966535433070866
11
0.7838670866141733
21
0.2975772834645669
0
LINE
8
BLACK
6
CONTINUOUS
10
0.7838670866141733
20
0.2975772834645669
11
0.783267716535433
21
0.3005905511811023
0
LINE
8
BLACK
6
CONTINUOUS
10
0.783267716535433
20
0.3005905511811023
11
0.783267716535433
21
0.3124015748031496
0
LINE
8
BLACK
6
CONTINUOUS
10
0.783267716535433
20
0.3124015748031496
11
0.7838670866141733
21
0.315414842519685
0
LINE
8
BLACK
6
CONTINUOUS
10
0.7838670866141733
20
0.315414842519685
11
0.7855739763779528
21
0.3179693307086614
0
LINE
8
BLACK
6
CONTINUOUS
10
0.7855739763779528
20
0.3179693307086614
11
0.7881284645669291
21
0.3196762204724409
0
LINE
8
BLACK
6
CONTINUOUS
10
0.7881284645669291
20
0.3196762204724409
11
0.7911417322834645
21
0.3202755905511811
0
LINE
8
BLACK
6
CONTINUOUS
10
0.7911417322834645
20
0.3202755905511811
11
0.8344488188976378
21
0.3202755905511811
0
LINE
8
BLACK
6
CONTINUOUS
10
0.8344488188976378
20
0.3202755905511811
11
0.8374620866141732
21
0.3196762204724409
0
LINE
8
BLACK
6
CONTINUOUS
10
0.9736825590551181
20
0.2738100787401574
11
0.9762370472440944
21
0.272103188976378
0
LINE
8
BLACK
6
CONTINUOUS
10
0.9762370472440944
20
0.272103188976378
11
0.977943937007874
21
0.2695487007874016
0
LINE
8
BLACK
6
CONTINUOUS
10
0.977943937007874
20
0.2695487007874016
11
0.9785433070866142
21
0.2665354330708661
0
LINE
8
BLACK
6
CONTINUOUS
10
0.9785433070866142
20
0.2665354330708661
11
0.9785433070866142
21
0.2271653543307087
0
LINE
8
BLACK
6
CONTINUOUS
10
0.9785433070866142
20
0.2271653543307087
11
0.977943937007874
21
0.2241520866141732
0
LINE
8
BLACK
6
CONTINUOUS
10
0.977943937007874
20
0.2241520866141732
11
0.9762370472440944
21
0.2215975984251969
0
LINE
8
BLACK
6
CONTINUOUS
10
0.9762370472440944
20
0.2215975984251969
11
0.9736825590551181
21
0.2198907086614173
0
LINE
8
BLACK
6
CONTINUOUS
10
0.9736825590551181
20
0.2198907086614173
11
0.9706692913385827
21
0.2192913385826772
0
LINE
8
BLACK
6
CONTINUOUS
10
0.9706692913385827
20
0.2192913385826772
11
0.8718503937007874
21
0.2192913385826772
0
LINE
8
BLACK
6
CONTINUOUS
10
0.8718503937007874
20
0.2192913385826772
11
0.868837125984252
21
0.2198907086614173
0
LINE
8
BLACK
6
CONTINUOUS
10
0.868837125984252
20
0.2198907086614173
11
0.8662826377952756
21
0.2215975984251969
0
LINE
8
BLACK
6
CONTINUOUS
10
0.8662826377952756
20
0.2215975984251969
11
0.8645757480314961
21
0.2241520866141732
0
LINE
8
BLACK
6
CONTINUOUS
10
0.8645757480314961
20
0.2241520866141732
11
0.8639763779527558
21
0.2271653543307087
0
LINE
8
BLACK
6
CONTINUOUS
10
0.8639763779527558
20
0.2271653543307087
11
0.8639763779527558
21
0.2665354330708661
0
LINE
8
BLACK
6
CONTINUOUS
10
0.8639763779527558
20
0.2665354330708661
11
0.8645757480314961
21
0.2695487007874016
0
LINE
8
BLACK
6
CONTINUOUS
10
0.8645757480314961
20
0.2695487007874016
11
0.8662826377952756
21
0.272103188976378
0
LINE
8
BLACK
6
CONTINUOUS
10
0.8662826377952756
20
0.272103188976378
11
0.868837125984252
21
0.2738100787401574
0
LINE
8
BLACK
6
CONTINUOUS
10
0.868837125984252
20
0.2738100787401574
11
0.8718503937007874
21
0.2744094488188976
0
LINE
8
BLACK
6
CONTINUOUS
10
0.8718503937007874
20
0.2744094488188976
11
0.9706692913385827
21
0.2744094488188976
0
LINE
8
BLACK
6
CONTINUOUS
10
0.9706692913385827
20
0.2744094488188976
11
0.9736825590551181
21
0.2738100787401574
0
LINE
8
BLACK
6
CONTINUOUS
10
0.5218760236220472
20
0.2914175196850394
11
0.5264718503937008
21
0.2890758267716536
0
LINE
8
BLACK
6
CONTINUOUS
10
0.5264718503937008
20
0.2890758267716536
11
0.5301191338582677
21
0.2854285433070866
0
LINE
8
BLACK
6
CONTINUOUS
10
0.5301191338582677
20
0.2854285433070866
11
0.5324608267716535
21
0.2808327165354331
0
LINE
8
BLACK
6
CONTINUOUS
10
0.5324608267716535
20
0.2808327165354331
11
0.533267716535433
21
0.275738188976378
0
LINE
8
BLACK
6
CONTINUOUS
10
0.533267716535433
20
0.275738188976378
11
0.533267716535433
21
0.2585137795275591
0
LINE
8
BLACK
6
CONTINUOUS
10
0.533267716535433
20
0.2585137795275591
11
0.5324608267716535
21
0.253419251968504
0
LINE
8
BLACK
6
CONTINUOUS
10
0.5324608267716535
20
0.253419251968504
11
0.5301191338582677
21
0.2488234251968504
0
LINE
8
BLACK
6
CONTINUOUS
10
0.5301191338582677
20
0.2488234251968504
11
0.5264718503937008
21
0.2451761417322835
0
LINE
8
BLACK
6
CONTINUOUS
10
0.5264718503937008
20
0.2451761417322835
11
0.5218760236220472
21
0.2428344488188976
0
LINE
8
BLACK
6
CONTINUOUS
10
0.5218760236220472
20
0.2428344488188976
11
0.5167814960629921
21
0.2420275590551181
0
LINE
8
BLACK
6
CONTINUOUS
10
0.5167814960629921
20
0.2420275590551181
11
0.4966043307086614
21
0.2420275590551181
0
LINE
8
BLACK
6
CONTINUOUS
10
0.4966043307086614
20
0.2420275590551181
11
0.4915098031496063
21
0.2428344488188976
0
LINE
8
BLACK
6
CONTINUOUS
10
0.4915098031496063
20
0.2428344488188976
11
0.4869139763779528
21
0.2451761417322835
0
LINE
8
BLACK
6
CONTINUOUS
10
0.4869139763779528
20
0.2451761417322835
11
0.4832666929133858
21
0.2488234251968504
0
LINE
8
BLACK
6
CONTINUOUS
10
0.4832666929133858
20
0.2488234251968504
11
0.480925
21
0.253419251968504
0
LINE
8
BLACK
6
CONTINUOUS
10
0.480925
20
0.253419251968504
11
0.4801181102362205
21
0.2585137795275591
0
LINE
8
BLACK
6
CONTINUOUS
10
0.4801181102362205
20
0.2585137795275591
11
0.4801181102362205
21
0.275738188976378
0
LINE
8
BLACK
6
CONTINUOUS
10
0.4801181102362205
20
0.275738188976378
11
0.480925
21
0.2808327165354331
0
LINE
8
BLACK
6
CONTINUOUS
10
0.480925
20
0.2808327165354331
11
0.4832666929133858
21
0.2854285433070866
0
LINE
8
BLACK
6
CONTINUOUS
10
0.4832666929133858
20
0.2854285433070866
11
0.4869139763779528
21
0.2890758267716536
0
LINE
8
BLACK
6
CONTINUOUS
10
0.4869139763779528
20
0.2890758267716536
11
0.4915098031496063
21
0.2914175196850394
0
LINE
8
BLACK
6
CONTINUOUS
10
0.4915098031496063
20
0.2914175196850394
11
0.4966043307086614
21
0.2922244094488189
0
LINE
8
BLACK
6
CONTINUOUS
10
0.4966043307086614
20
0.2922244094488189
11
0.5167814960629921
21
0.2922244094488189
0
LINE
8
BLACK
6
CONTINUOUS
10
0.5167814960629921
20
0.2922244094488189
11
0.5218760236220472
21
0.2914175196850394
0
LINE
8
BLACK
6
CONTINUOUS
10
0.587820905511811
20
0.2914175196850394
11
0.5924167322834646
21
0.2890758267716536
0
LINE
8
BLACK
6
CONTINUOUS
10
0.5924167322834646
20
0.2890758267716536
11
0.5960640157480315
21
0.2854285433070866
0
LINE
8
BLACK
6
CONTINUOUS
10
0.5960640157480315
20
0.2854285433070866
11
0.5984057086614173
21
0.2808327165354331
0
LINE
8
BLACK
6
CONTINUOUS
10
0.5984057086614173
20
0.2808327165354331
11
0.5992125984251968
21
0.275738188976378
0
LINE
8
BLACK
6
CONTINUOUS
10
0.5992125984251968
20
0.275738188976378
11
0.5992125984251968
21
0.2585137795275591
0
LINE
8
BLACK
6
CONTINUOUS
10
0.5992125984251968
20
0.2585137795275591
11
0.5984057086614173
21
0.253419251968504
0
LINE
8
BLACK
6
CONTINUOUS
10
0.5984057086614173
20
0.253419251968504
11
0.5960640157480315
21
0.2488234251968504
0
LINE
8
BLACK
6
CONTINUOUS
10
0.5960640157480315
20
0.2488234251968504
11
0.5924167322834646
21
0.2451761417322835
0
LINE
8
BLACK
6
CONTINUOUS
10
0.5924167322834646
20
0.2451761417322835
11
0.587820905511811
21
0.2428344488188976
0
LINE
8
BLACK
6
CONTINUOUS
10
0.587820905511811
20
0.2428344488188976
11
0.5827263779527559
21
0.2420275590551181
0
LINE
8
BLACK
6
CONTINUOUS
10
0.5827263779527559
20
0.2420275590551181
11
0.5625492125984252
21
0.2420275590551181
0
LINE
8
BLACK
6
CONTINUOUS
10
0.5625492125984252
20
0.2420275590551181
11
0.55745468503937
21
0.2428344488188976
0
LINE
8
BLACK
6
CONTINUOUS
10
0.55745468503937
20
0.2428344488188976
11
0.5528588582677165
21
0.2451761417322835
0
LINE
8
BLACK
6
CONTINUOUS
10
0.5528588582677165
20
0.2451761417322835
11
0.5492115748031496
21
0.2488234251968504
0
LINE
8
BLACK
6
CONTINUOUS
10
0.5492115748031496
20
0.2488234251968504
11
0.5468698818897638
21
0.253419251968504
0
LINE
8
BLACK
6
CONTINUOUS
10
0.5468698818897638
20
0.253419251968504
11
0.5460629921259842
21
0.2585137795275591
0
LINE
8
BLACK
6
CONTINUOUS
10
0.5460629921259842
20
0.2585137795275591
11
0.5460629921259842
21
0.275738188976378
0
LINE
8
BLACK
6
CONTINUOUS
10
0.5460629921259842
20
0.275738188976378
11
0.5468698818897638
21
0.2808327165354331
0
LINE
8
BLACK
6
CONTINUOUS
10
0.5468698818897638
20
0.2808327165354331
11
0.5492115748031496
21
0.2854285433070866
0
LINE
8
BLACK
6
CONTINUOUS
10
0.5492115748031496
20
0.2854285433070866
11
0.5528588582677165
21
0.2890758267716536
0
LINE
8
BLACK
6
CONTINUOUS
10
0.5528588582677165
20
0.2890758267716536
11
0.55745468503937
21
0.2914175196850394
0
LINE
8
BLACK
6
CONTINUOUS
10
0.55745468503937
20
0.2914175196850394
11
0.5625492125984252
21
0.2922244094488189
0
LINE
8
BLACK
6
CONTINUOUS
10
0.5625492125984252
20
0.2922244094488189
11
0.5827263779527559
21
0.2922244094488189
0
LINE
8
BLACK
6
CONTINUOUS
10
0.5827263779527559
20
0.2922244094488189
11
0.587820905511811
21
0.2914175196850394
0
LINE
8
BLACK
6
CONTINUOUS
10
0.3681050393700787
20
0.3109429133858267
11
0.3721801968503937
21
0.3089506692913386
0
LINE
8
BLACK
6
CONTINUOUS
10
0.3721801968503937
20
0.3089506692913386
11
0.3753876771653543
21
0.3057431889763779
0
LINE
8
BLACK
6
CONTINUOUS
10
0.3753876771653543
20
0.3057431889763779
11
0.3769685039370079
21
0.3025096062992126
0
LINE
8
BLACK
6
CONTINUOUS
10
0.3769685039370079
20
0.3025096062992126
11
0.3785493307086614
21
0.3057431889763779
0
LINE
8
BLACK
6
CONTINUOUS
10
0.3785493307086614
20
0.3057431889763779
11
0.381756811023622
21
0.3089506692913386
0
LINE
8
BLACK
6
CONTINUOUS
10
0.381756811023622
20
0.3089506692913386
11
0.385831968503937
21
0.3109429133858267
0
LINE
8
BLACK
6
CONTINUOUS
10
0.385831968503937
20
0.3109429133858267
11
0.389763779527559
21
0.3115157480314961
0
LINE
8
BLACK
6
CONTINUOUS
10
0.389763779527559
20
0.3115157480314961
11
0.4015748031496063
21
0.3115157480314961
0
LINE
8
BLACK
6
CONTINUOUS
10
0.4015748031496063
20
0.3115157480314961
11
0.4055066141732284
21
0.3109429133858267
0
LINE
8
BLACK
6
CONTINUOUS
10
0.4055066141732284
20
0.3109429133858267
11
0.4095817716535433
21
0.3089506692913386
0
LINE
8
BLACK
6
CONTINUOUS
10
0.4095817716535433
20
0.3089506692913386
11
0.4127892519685039
21
0.3057431889763779
0
LINE
8
BLACK
6
CONTINUOUS
10
0.4127892519685039
20
0.3057431889763779
11
0.4143700787401575
21
0.3025096062992126
0
LINE
8
BLACK
6
CONTINUOUS
10
0.4143700787401575
20
0.3025096062992126
11
0.415950905511811
21
0.3057431889763779
0
LINE
8
BLACK
6
CONTINUOUS
10
0.415950905511811
20
0.3057431889763779
11
0.4191583858267716
21
0.3089506692913386
0
LINE
8
BLACK
6
CONTINUOUS
10
0.4191583858267716
20
0.3089506692913386
11
0.4232335433070866
21
0.3109429133858267
0
LINE
8
BLACK
6
CONTINUOUS
10
0.4232335433070866
20
0.3109429133858267
11
0.4271653543307086
21
0.3115157480314961
0
LINE
8
BLACK
6
CONTINUOUS
10
0.4271653543307086
20
0.3115157480314961
11
0.4389763779527559
21
0.3115157480314961
0
LINE
8
BLACK
6
CONTINUOUS
10
0.4389763779527559
20
0.3115157480314961
11
0.442908188976378
21
0.3109429133858267
0
LINE
8
BLACK
6
CONTINUOUS
10
0.442908188976378
20
0.3109429133858267
11
0.4469833464566929
21
0.3089506692913386
0
LINE
8
BLACK
6
CONTINUOUS
10
0.4469833464566929
20
0.3089506692913386
11
0.4501908267716535
21
0.3057431889763779
0
LINE
8
BLACK
6
CONTINUOUS
10
0.4501908267716535
20
0.3057431889763779
11
0.4521830708661417
21
0.301668031496063
0
LINE
8
BLACK
6
CONTINUOUS
10
0.4521830708661417
20
0.301668031496063
11
0.452755905511811
21
0.2977362204724409
0
LINE
8
BLACK
6
CONTINUOUS
10
0.452755905511811
20
0.2977362204724409
11
0.452755905511811
21
0.2573818897637795
0
LINE
8
BLACK
6
CONTINUOUS
10
0.452755905511811
20
0.2573818897637795
11
0.4521830708661417
21
0.2534500787401575
0
LINE
8
BLACK
6
CONTINUOUS
10
0.4521830708661417
20
0.2534500787401575
11
0.4501908267716535
21
0.2493749212598425
0
LINE
8
BLACK
6
CONTINUOUS
10
0.4501908267716535
20
0.2493749212598425
11
0.4469833464566929
21
0.2461674409448819
0
LINE
8
BLACK
6
CONTINUOUS
10
0.4469833464566929
20
0.2461674409448819
11
0.442908188976378
21
0.2441751968503937
0
LINE
8
BLACK
6
CONTINUOUS
10
0.442908188976378
20
0.2441751968503937
11
0.4389763779527559
21
0.2436023622047244
0
LINE
8
BLACK
6
CONTINUOUS
10
0.4389763779527559
20
0.2436023622047244
11
0.4271653543307086
21
0.2436023622047244
0
LINE
8
BLACK
6
CONTINUOUS
10
0.4271653543307086
20
0.2436023622047244
11
0.4232335433070866
21
0.2441751968503937
0
LINE
8
BLACK
6
CONTINUOUS
10
0.4232335433070866
20
0.2441751968503937
11
0.4191583858267716
21
0.2461674409448819
0
LINE
8
BLACK
6
CONTINUOUS
10
0.4191583858267716
20
0.2461674409448819
11
0.415950905511811
21
0.2493749212598425
0
LINE
8
BLACK
6
CONTINUOUS
10
0.415950905511811
20
0.2493749212598425
11
0.4143700787401575
21
0.2526085433070866
0
LINE
8
BLACK
6
CONTINUOUS
10
0.4143700787401575
20
0.2526085433070866
11
0.4127892519685039
21
0.2493749212598425
0
LINE
8
BLACK
6
CONTINUOUS
10
0.4127892519685039
20
0.2493749212598425
11
0.4095817716535433
21
0.2461674409448819
0
LINE
8
BLACK
6
CONTINUOUS
10
0.4095817716535433
20
0.2461674409448819
11
0.4055066141732284
21
0.2441751968503937
0
LINE
8
BLACK
6
CONTINUOUS
10
0.4055066141732284
20
0.2441751968503937
11
0.4015748031496063
21
0.2436023622047244
0
LINE
8
BLACK
6
CONTINUOUS
10
0.4015748031496063
20
0.2436023622047244
11
0.389763779527559
21
0.2436023622047244
0
LINE
8
BLACK
6
CONTINUOUS
10
0.389763779527559
20
0.2436023622047244
11
0.385831968503937
21
0.2441751968503937
0
LINE
8
BLACK
6
CONTINUOUS
10
0.385831968503937
20
0.2441751968503937
11
0.381756811023622
21
0.2461674409448819
0
LINE
8
BLACK
6
CONTINUOUS
10
0.381756811023622
20
0.2461674409448819
11
0.3785493307086614
21
0.2493749212598425
0
LINE
8
BLACK
6
CONTINUOUS
10
0.3785493307086614
20
0.2493749212598425
11
0.3769685039370079
21
0.2526085433070866
0
LINE
8
BLACK
6
CONTINUOUS
10
0.3769685039370079
20
0.2526085433070866
11
0.3753876771653543
21
0.2493749212598425
0
LINE
8
BLACK
6
CONTINUOUS
10
0.3753876771653543
20
0.2493749212598425
11
0.3721801968503937
21
0.2461674409448819
0
LINE
8
BLACK
6
CONTINUOUS
10
0.3721801968503937
20
0.2461674409448819
11
0.3681050393700787
21
0.2441751968503937
0
LINE
8
BLACK
6
CONTINUOUS
10
0.3681050393700787
20
0.2441751968503937
11
0.3641732283464567
21
0.2436023622047244
0
LINE
8
BLACK
6
CONTINUOUS
10
0.3641732283464567
20
0.2436023622047244
11
0.3523622047244094
21
0.2436023622047244
0
LINE
8
BLACK
6
CONTINUOUS
10
0.3523622047244094
20
0.2436023622047244
11
0.3484303937007874
21
0.2441751968503937
0
LINE
8
BLACK
6
CONTINUOUS
10
0.3484303937007874
20
0.2441751968503937
11
0.3443552362204724
21
0.2461674409448819
0
LINE
8
BLACK
6
CONTINUOUS
10
0.3443552362204724
20
0.2461674409448819
11
0.3411477559055118
21
0.2493749212598425
0
LINE
8
BLACK
6
CONTINUOUS
10
0.3411477559055118
20
0.2493749212598425
11
0.3391555118110236
21
0.2534500787401575
0
LINE
8
BLACK
6
CONTINUOUS
10
0.3391555118110236
20
0.2534500787401575
11
0.3385826771653543
21
0.2573818897637795
0
LINE
8
BLACK
6
CONTINUOUS
10
0.3385826771653543
20
0.2573818897637795
11
0.3385826771653543
21
0.2977362204724409
0
LINE
8
BLACK
6
CONTINUOUS
10
0.3385826771653543
20
0.2977362204724409
11
0.3391555118110236
21
0.301668031496063
0
LINE
8
BLACK
6
CONTINUOUS
10
0.3391555118110236
20
0.301668031496063
11
0.3411477559055118
21
0.3057431889763779
0
LINE
8
BLACK
6
CONTINUOUS
10
0.3411477559055118
20
0.3057431889763779
11
0.3443552362204724
21
0.3089506692913386
0
LINE
8
BLACK
6
CONTINUOUS
10
0.3443552362204724
20
0.3089506692913386
11
0.3484303937007874
21
0.3109429133858267
0
LINE
8
BLACK
6
CONTINUOUS
10
0.3484303937007874
20
0.3109429133858267
11
0.3523622047244094
21
0.3115157480314961
0
LINE
8
BLACK
6
CONTINUOUS
10
0.3523622047244094
20
0.3115157480314961
11
0.3641732283464567
21
0.3115157480314961
0
LINE
8
BLACK
6
CONTINUOUS
10
0.3641732283464567
20
0.3115157480314961
11
0.3681050393700787
21
0.3109429133858267
0
LINE
8
BLACK
6
CONTINUOUS
10
0.2214514960629921
20
0.2897814960629921
11
0.2255266535433071
21
0.2877892519685039
0
LINE
8
BLACK
6
CONTINUOUS
10
0.2255266535433071
20
0.2877892519685039
11
0.2287341338582677
21
0.2845817716535433
0
LINE
8
BLACK
6
CONTINUOUS
10
0.2287341338582677
20
0.2845817716535433
11
0.2307263779527559
21
0.2805066141732284
0
LINE
8
BLACK
6
CONTINUOUS
10
0.2307263779527559
20
0.2805066141732284
11
0.2312992125984252
21
0.2765748031496063
0
LINE
8
BLACK
6
CONTINUOUS
10
0.2312992125984252
20
0.2765748031496063
11
0.2312992125984252
21
0.264763779527559
0
LINE
8
BLACK
6
CONTINUOUS
10
0.2312992125984252
20
0.264763779527559
11
0.2307263779527559
21
0.260831968503937
0
LINE
8
BLACK
6
CONTINUOUS
10
0.2307263779527559
20
0.260831968503937
11
0.2287341338582677
21
0.256756811023622
0
LINE
8
BLACK
6
CONTINUOUS
10
0.2287341338582677
20
0.256756811023622
11
0.2255266535433071
21
0.2535493307086614
0
LINE
8
BLACK
6
CONTINUOUS
10
0.2255266535433071
20
0.2535493307086614
11
0.2214514960629921
21
0.2515570866141732
0
LINE
8
BLACK
6
CONTINUOUS
10
0.2214514960629921
20
0.2515570866141732
11
0.2175196850393701
21
0.2509842519685039
0
LINE
8
BLACK
6
CONTINUOUS
10
0.2175196850393701
20
0.2509842519685039
11
0.1624015748031496
21
0.2509842519685039
0
LINE
8
BLACK
6
CONTINUOUS
10
0.1624015748031496
20
0.2509842519685039
11
0.1584697637795276
21
0.2515570866141732
0
LINE
8
BLACK
6
CONTINUOUS
10
0.1584697637795276
20
0.2515570866141732
11
0.1543946062992126
21
0.2535493307086614
0
LINE
8
BLACK
6
CONTINUOUS
10
0.1543946062992126
20
0.2535493307086614
11
0.151187125984252
21
0.256756811023622
0
LINE
8
BLACK
6
CONTINUOUS
10
0.151187125984252
20
0.256756811023622
11
0.1491948818897638
21
0.260831968503937
0
LINE
8
BLACK
6
CONTINUOUS
10
0.1491948818897638
20
0.260831968503937
11
0.1486220472440945
21
0.264763779527559
0
LINE
8
BLACK
6
CONTINUOUS
10
0.1486220472440945
20
0.264763779527559
11
0.1486220472440945
21
0.2765748031496063
0
LINE
8
BLACK
6
CONTINUOUS
10
0.1486220472440945
20
0.2765748031496063
11
0.1491948818897638
21
0.2805066141732284
0
LINE
8
BLACK
6
CONTINUOUS
10
0.1491948818897638
20
0.2805066141732284
11
0.151187125984252
21
0.2845817716535433
0
LINE
8
BLACK
6
CONTINUOUS
10
0.151187125984252
20
0.2845817716535433
11
0.1543946062992126
21
0.2877892519685039
0
LINE
8
BLACK
6
CONTINUOUS
10
0.1543946062992126
20
0.2877892519685039
11
0.1584697637795276
21
0.2897814960629921
0
LINE
8
BLACK
6
CONTINUOUS
10
0.1584697637795276
20
0.2897814960629921
11
0.1624015748031496
21
0.2903543307086614
0
LINE
8
BLACK
6
CONTINUOUS
10
0.1624015748031496
20
0.2903543307086614
11
0.2175196850393701
21
0.2903543307086614
0
LINE
8
BLACK
6
CONTINUOUS
10
0.2175196850393701
20
0.2903543307086614
11
0.2214514960629921
21
0.2897814960629921
0
LINE
8
BLACK
6
CONTINUOUS
10
0.2214514960629921
20
0.338994094488189
11
0.2255266535433071
21
0.3370018503937008
0
LINE
8
BLACK
6
CONTINUOUS
10
0.2255266535433071
20
0.3370018503937008
11
0.2287341338582677
21
0.3337943700787401
0
LINE
8
BLACK
6
CONTINUOUS
10
0.2287341338582677
20
0.3337943700787401
11
0.2307263779527559
21
0.3297192125984252
0
LINE
8
BLACK
6
CONTINUOUS
10
0.2307263779527559
20
0.3297192125984252
11
0.2312992125984252
21
0.3257874015748031
0
LINE
8
BLACK
6
CONTINUOUS
10
0.2312992125984252
20
0.3257874015748031
11
0.2312992125984252
21
0.3139763779527559
0
LINE
8
BLACK
6
CONTINUOUS
10
0.2312992125984252
20
0.3139763779527559
11
0.2307263779527559
21
0.3100445669291338
0
LINE
8
BLACK
6
CONTINUOUS
10
0.2307263779527559
20
0.3100445669291338
11
0.2287341338582677
21
0.3059694094488189
0
LINE
8
BLACK
6
CONTINUOUS
10
0.2287341338582677
20
0.3059694094488189
11
0.2255266535433071
21
0.3027619291338582
0
LINE
8
BLACK
6
CONTINUOUS
10
0.2255266535433071
20
0.3027619291338582
11
0.2214514960629921
21
0.3007696850393701
0
LINE
8
BLACK
6
CONTINUOUS
10
0.2214514960629921
20
0.3007696850393701
11
0.2175196850393701
21
0.3001968503937008
0
LINE
8
BLACK
6
CONTINUOUS
10
0.2175196850393701
20
0.3001968503937008
11
0.1624015748031496
21
0.3001968503937008
0
LINE
8
BLACK
6
CONTINUOUS
10
0.1624015748031496
20
0.3001968503937008
11
0.1584697637795276
21
0.3007696850393701
0
LINE
8
BLACK
6
CONTINUOUS
10
0.1584697637795276
20
0.3007696850393701
11
0.1543946062992126
21
0.3027619291338582
0
LINE
8
BLACK
6
CONTINUOUS
10
0.1543946062992126
20
0.3027619291338582
11
0.151187125984252
21
0.3059694094488189
0
LINE
8
BLACK
6
CONTINUOUS
10
0.151187125984252
20
0.3059694094488189
11
0.1491948818897638
21
0.3100445669291338
0
LINE
8
BLACK
6
CONTINUOUS
10
0.1491948818897638
20
0.3100445669291338
11
0.1486220472440945
21
0.3139763779527559
0
LINE
8
BLACK
6
CONTINUOUS
10
0.1486220472440945
20
0.3139763779527559
11
0.1486220472440945
21
0.3257874015748031
0
LINE
8
BLACK
6
CONTINUOUS
10
0.1486220472440945
20
0.3257874015748031
11
0.1491948818897638
21
0.3297192125984252
0
LINE
8
BLACK
6
CONTINUOUS
10
0.1491948818897638
20
0.3297192125984252
11
0.151187125984252
21
0.3337943700787401
0
LINE
8
BLACK
6
CONTINUOUS
10
0.151187125984252
20
0.3337943700787401
11
0.1543946062992126
21
0.3370018503937008
0
LINE
8
BLACK
6
CONTINUOUS
10
0.1543946062992126
20
0.3370018503937008
11
0.1584697637795276
21
0.338994094488189
0
LINE
8
BLACK
6
CONTINUOUS
10
0.1584697637795276
20
0.338994094488189
11
0.1624015748031496
21
0.3395669291338583
0
LINE
8
BLACK
6
CONTINUOUS
10
0.1624015748031496
20
0.3395669291338583
11
0.2175196850393701
21
0.3395669291338583
0
LINE
8
BLACK
6
CONTINUOUS
10
0.2175196850393701
20
0.3395669291338583
11
0.2214514960629921
21
0.338994094488189
0
LINE
8
BLACK
6
CONTINUOUS
10
0.9736825590551181
20
0.3738100787401575
11
0.9762370472440944
21
0.372103188976378
0
LINE
8
BLACK
6
CONTINUOUS
10
0.9762370472440944
20
0.372103188976378
11
0.977943937007874
21
0.3695487007874015
0
LINE
8
BLACK
6
CONTINUOUS
10
0.977943937007874
20
0.3695487007874015
11
0.9785433070866142
21
0.3665354330708661
0
LINE
8
BLACK
6
CONTINUOUS
10
0.9785433070866142
20
0.3665354330708661
11
0.9785433070866142
21
0.3271653543307086
0
LINE
8
BLACK
6
CONTINUOUS
10
0.9785433070866142
20
0.3271653543307086
11
0.977943937007874
21
0.3241520866141732
0
LINE
8
BLACK
6
CONTINUOUS
10
0.977943937007874
20
0.3241520866141732
11
0.9762370472440944
21
0.3215975984251969
0
LINE
8
BLACK
6
CONTINUOUS
10
0.9762370472440944
20
0.3215975984251969
11
0.9736825590551181
21
0.3198907086614173
0
LINE
8
BLACK
6
CONTINUOUS
10
0.9736825590551181
20
0.3198907086614173
11
0.9706692913385827
21
0.3192913385826772
0
LINE
8
BLACK
6
CONTINUOUS
10
0.9706692913385827
20
0.3192913385826772
11
0.8718503937007874
21
0.3192913385826772
0
LINE
8
BLACK
6
CONTINUOUS
10
0.8718503937007874
20
0.3192913385826772
11
0.868837125984252
21
0.3198907086614173
0
LINE
8
BLACK
6
CONTINUOUS
10
0.868837125984252
20
0.3198907086614173
11
0.8662826377952756
21
0.3215975984251969
0
LINE
8
BLACK
6
CONTINUOUS
10
0.8662826377952756
20
0.3215975984251969
11
0.8645757480314961
21
0.3241520866141732
0
LINE
8
BLACK
6
CONTINUOUS
10
0.8645757480314961
20
0.3241520866141732
11
0.8639763779527558
21
0.3271653543307086
0
LINE
8
BLACK
6
CONTINUOUS
10
0.8639763779527558
20
0.3271653543307086
11
0.8639763779527558
21
0.3665354330708661
0
LINE
8
BLACK
6
CONTINUOUS
10
0.8639763779527558
20
0.3665354330708661
11
0.8645757480314961
21
0.3695487007874015
0
LINE
8
BLACK
6
CONTINUOUS
10
0.8645757480314961
20
0.3695487007874015
11
0.8662826377952756
21
0.372103188976378
0
LINE
8
BLACK
6
CONTINUOUS
10
0.8662826377952756
20
0.372103188976378
11
0.868837125984252
21
0.3738100787401575
0
LINE
8
BLACK
6
CONTINUOUS
10
0.868837125984252
20
0.3738100787401575
11
0.8718503937007874
21
0.3744094488188976
0
LINE
8
BLACK
6
CONTINUOUS
10
0.8718503937007874
20
0.3744094488188976
11
0.9706692913385827
21
0.3744094488188976
0
LINE
8
BLACK
6
CONTINUOUS
10
0.9706692913385827
20
0.3744094488188976
11
0.9736825590551181
21
0.3738100787401575
0
LINE
8
BLACK
6
CONTINUOUS
10
0.4648833464566929
20
0.3858966929133858
11
0.4674378346456693
21
0.3841898031496063
0
LINE
8
BLACK
6
CONTINUOUS
10
0.4674378346456693
20
0.3841898031496063
11
0.4691447244094488
21
0.3816353149606299
0
LINE
8
BLACK
6
CONTINUOUS
10
0.4691447244094488
20
0.3816353149606299
11
0.469744094488189
21
0.3786220472440945
0
LINE
8
BLACK
6
CONTINUOUS
10
0.469744094488189
20
0.3786220472440945
11
0.469744094488189
21
0.3436220472440945
0
LINE
8
BLACK
6
CONTINUOUS
10
0.469744094488189
20
0.3436220472440945
11
0.4691447244094488
21
0.340608779527559
0
LINE
8
BLACK
6
CONTINUOUS
10
0.4691447244094488
20
0.340608779527559
11
0.4674378346456693
21
0.3380542913385827
0
LINE
8
BLACK
6
CONTINUOUS
10
0.4674378346456693
20
0.3380542913385827
11
0.4648833464566929
21
0.3363474015748031
0
LINE
8
BLACK
6
CONTINUOUS
10
0.4648833464566929
20
0.3363474015748031
11
0.4618700787401575
21
0.335748031496063
0
LINE
8
BLACK
6
CONTINUOUS
10
0.4618700787401575
20
0.335748031496063
11
0.4068700787401575
21
0.335748031496063
0
LINE
8
BLACK
6
CONTINUOUS
10
0.4068700787401575
20
0.335748031496063
11
0.403856811023622
21
0.3363474015748031
0
LINE
8
BLACK
6
CONTINUOUS
10
0.403856811023622
20
0.3363474015748031
11
0.4013023228346457
21
0.3380542913385827
0
LINE
8
BLACK
6
CONTINUOUS
10
0.4013023228346457
20
0.3380542913385827
11
0.3995954330708661
21
0.340608779527559
0
LINE
8
BLACK
6
CONTINUOUS
10
0.3995954330708661
20
0.340608779527559
11
0.398996062992126
21
0.3436220472440945
0
LINE
8
BLACK
6
CONTINUOUS
10
0.398996062992126
20
0.3436220472440945
11
0.398996062992126
21
0.3786220472440945
0
LINE
8
BLACK
6
CONTINUOUS
10
0.398996062992126
20
0.3786220472440945
11
0.3995954330708661
21
0.3816353149606299
0
LINE
8
BLACK
6
CONTINUOUS
10
0.3995954330708661
20
0.3816353149606299
11
0.4013023228346457
21
0.3841898031496063
0
LINE
8
BLACK
6
CONTINUOUS
10
0.4013023228346457
20
0.3841898031496063
11
0.403856811023622
21
0.3858966929133858
0
LINE
8
BLACK
6
CONTINUOUS
10
0.403856811023622
20
0.3858966929133858
11
0.4068700787401575
21
0.386496062992126
0
LINE
8
BLACK
6
CONTINUOUS
10
0.4068700787401575
20
0.386496062992126
11
0.4618700787401575
21
0.386496062992126
0
LINE
8
BLACK
6
CONTINUOUS
10
0.4618700787401575
20
0.386496062992126
11
0.4648833464566929
21
0.3858966929133858
0
LINE
8
BLACK
6
CONTINUOUS
10
0.5282933464566929
20
0.3852167322834645
11
0.5328891732283464
21
0.3828750393700787
0
LINE
8
BLACK
6
CONTINUOUS
10
0.5328891732283464
20
0.3828750393700787
11
0.5365364566929134
21
0.3792277559055118
0
LINE
8
BLACK
6
CONTINUOUS
10
0.5365364566929134
20
0.3792277559055118
11
0.5388781496062992
21
0.3746319291338582
0
LINE
8
BLACK
6
CONTINUOUS
10
0.5388781496062992
20
0.3746319291338582
11
0.5396850393700787
21
0.3695374015748031
0
LINE
8
BLACK
6
CONTINUOUS
10
0.5396850393700787
20
0.3695374015748031
11
0.5396850393700787
21
0.3523129921259843
0
LINE
8
BLACK
6
CONTINUOUS
10
0.5396850393700787
20
0.3523129921259843
11
0.5388781496062992
21
0.3472184645669291
0
LINE
8
BLACK
6
CONTINUOUS
10
0.5388781496062992
20
0.3472184645669291
11
0.5365364566929134
21
0.3426226377952756
0
LINE
8
BLACK
6
CONTINUOUS
10
0.5365364566929134
20
0.3426226377952756
11
0.5328891732283464
21
0.3389753543307086
0
LINE
8
BLACK
6
CONTINUOUS
10
0.5328891732283464
20
0.3389753543307086
11
0.5282933464566929
21
0.3366336614173228
0
LINE
8
BLACK
6
CONTINUOUS
10
0.5282933464566929
20
0.3366336614173228
11
0.5231988188976378
21
0.3358267716535433
0
LINE
8
BLACK
6
CONTINUOUS
10
0.5231988188976378
20
0.3358267716535433
11
0.5030216535433071
21
0.3358267716535433
0
LINE
8
BLACK
6
CONTINUOUS
10
0.5030216535433071
20
0.3358267716535433
11
0.497927125984252
21
0.3366336614173228
0
LINE
8
BLACK
6
CONTINUOUS
10
0.497927125984252
20
0.3366336614173228
11
0.4933312992125984
21
0.3389753543307086
0
LINE
8
BLACK
6
CONTINUOUS
10
0.4933312992125984
20
0.3389753543307086
11
0.4896840157480315
21
0.3426226377952756
0
LINE
8
BLACK
6
CONTINUOUS
10
0.4896840157480315
20
0.3426226377952756
11
0.4873423228346457
21
0.3472184645669291
0
LINE
8
BLACK
6
CONTINUOUS
10
0.4873423228346457
20
0.3472184645669291
11
0.4865354330708661
21
0.3523129921259843
0
LINE
8
BLACK
6
CONTINUOUS
10
0.4865354330708661
20
0.3523129921259843
11
0.4865354330708661
21
0.3695374015748031
0
LINE
8
BLACK
6
CONTINUOUS
10
0.4865354330708661
20
0.3695374015748031
11
0.4873423228346457
21
0.3746319291338582
0
LINE
8
BLACK
6
CONTINUOUS
10
0.4873423228346457
20
0.3746319291338582
11
0.4896840157480315
21
0.3792277559055118
0
LINE
8
BLACK
6
CONTINUOUS
10
0.4896840157480315
20
0.3792277559055118
11
0.4933312992125984
21
0.3828750393700787
0
LINE
8
BLACK
6
CONTINUOUS
10
0.4933312992125984
20
0.3828750393700787
11
0.497927125984252
21
0.3852167322834645
0
LINE
8
BLACK
6
CONTINUOUS
10
0.497927125984252
20
0.3852167322834645
11
0.5030216535433071
21
0.3860236220472441
0
LINE
8
BLACK
6
CONTINUOUS
10
0.5030216535433071
20
0.3860236220472441
11
0.5231988188976378
21
0.3860236220472441
0
LINE
8
BLACK
6
CONTINUOUS
10
0.5231988188976378
20
0.3860236220472441
11
0.5282933464566929
21
0.3852167322834645
0
LINE
8
BLACK
6
CONTINUOUS
10
0.2981735039370079
20
0.3842686220472441
11
0.3025635433070866
21
0.3820317716535433
0
LINE
8
BLACK
6
CONTINUOUS
10
0.3025635433070866
20
0.3820317716535433
11
0.3060475196850393
21
0.3785477952755905
0
LINE
8
BLACK
6
CONTINUOUS
10
0.3060475196850393
20
0.3785477952755905
11
0.3082843700787402
21
0.3741577559055118
0
LINE
8
BLACK
6
CONTINUOUS
10
0.3082843700787402
20
0.3741577559055118
11
0.3090551181102362
21
0.3692913385826772
0
LINE
8
BLACK
6
CONTINUOUS
10
0.3090551181102362
20
0.3692913385826772
11
0.3090551181102362
21
0.3535433070866142
0
LINE
8
BLACK
6
CONTINUOUS
10
0.3090551181102362
20
0.3535433070866142
11
0.3082843700787402
21
0.3486768897637795
0
LINE
8
BLACK
6
CONTINUOUS
10
0.3082843700787402
20
0.3486768897637795
11
0.3060475196850393
21
0.3442868503937008
0
LINE
8
BLACK
6
CONTINUOUS
10
0.3060475196850393
20
0.3442868503937008
11
0.3025635433070866
21
0.340802874015748
0
LINE
8
BLACK
6
CONTINUOUS
10
0.3025635433070866
20
0.340802874015748
11
0.2981735039370079
21
0.3385660236220472
0
LINE
8
BLACK
6
CONTINUOUS
10
0.2981735039370079
20
0.3385660236220472
11
0.2933070866141732
21
0.3377952755905512
0
LINE
8
BLACK
6
CONTINUOUS
10
0.2933070866141732
20
0.3377952755905512
11
0.2716535433070866
21
0.3377952755905512
0
LINE
8
BLACK
6
CONTINUOUS
10
0.2716535433070866
20
0.3377952755905512
11
0.266787125984252
21
0.3385660236220472
0
LINE
8
BLACK
6
CONTINUOUS
10
0.266787125984252
20
0.3385660236220472
11
0.2623970866141732
21
0.340802874015748
0
LINE
8
BLACK
6
CONTINUOUS
10
0.2623970866141732
20
0.340802874015748
11
0.2589131102362205
21
0.3442868503937008
0
LINE
8
BLACK
6
CONTINUOUS
10
0.2589131102362205
20
0.3442868503937008
11
0.2566762598425197
21
0.3486768897637795
0
LINE
8
BLACK
6
CONTINUOUS
10
0.2566762598425197
20
0.3486768897637795
11
0.2559055118110236
21
0.3535433070866142
0
LINE
8
BLACK
6
CONTINUOUS
10
0.2559055118110236
20
0.3535433070866142
11
0.2559055118110236
21
0.3692913385826772
0
LINE
8
BLACK
6
CONTINUOUS
10
0.2559055118110236
20
0.3692913385826772
11
0.2566762598425197
21
0.3741577559055118
0
LINE
8
BLACK
6
CONTINUOUS
10
0.2566762598425197
20
0.3741577559055118
11
0.2589131102362205
21
0.3785477952755905
0
LINE
8
BLACK
6
CONTINUOUS
10
0.2589131102362205
20
0.3785477952755905
11
0.2623970866141732
21
0.3820317716535433
0
LINE
8
BLACK
6
CONTINUOUS
10
0.2623970866141732
20
0.3820317716535433
11
0.266787125984252
21
0.3842686220472441
0
LINE
8
BLACK
6
CONTINUOUS
10
0.266787125984252
20
0.3842686220472441
11
0.2716535433070866
21
0.3850393700787402
0
LINE
8
BLACK
6
CONTINUOUS
10
0.2716535433070866
20
0.3850393700787402
11
0.2933070866141732
21
0.3850393700787402
0
LINE
8
BLACK
6
CONTINUOUS
10
0.2933070866141732
20
0.3850393700787402
11
0.2981735039370079
21
0.3842686220472441
0
LINE
8
BLACK
6
CONTINUOUS
10
0.3686168503937008
20
0.3803917322834646
11
0.3726920078740157
21
0.3783994881889764
0
LINE
8
BLACK
6
CONTINUOUS
10
0.3726920078740157
20
0.3783994881889764
11
0.3758994881889764
21
0.3751920078740157
0
LINE
8
BLACK
6
CONTINUOUS
10
0.3758994881889764
20
0.3751920078740157
11
0.3778917322834646
21
0.3711168503937008
0
LINE
8
BLACK
6
CONTINUOUS
10
0.3778917322834646
20
0.3711168503937008
11
0.3784645669291338
21
0.3671850393700787
0
LINE
8
BLACK
6
CONTINUOUS
10
0.3784645669291338
20
0.3671850393700787
11
0.3784645669291338
21
0.3553740157480315
0
LINE
8
BLACK
6
CONTINUOUS
10
0.3784645669291338
20
0.3553740157480315
11
0.3778917322834646
21
0.3514422047244095
0
LINE
8
BLACK
6
CONTINUOUS
10
0.3778917322834646
20
0.3514422047244095
11
0.3758994881889764
21
0.3473670472440945
0
LINE
8
BLACK
6
CONTINUOUS
10
0.3758994881889764
20
0.3473670472440945
11
0.3726920078740157
21
0.3441595669291339
0
LINE
8
BLACK
6
CONTINUOUS
10
0.3726920078740157
20
0.3441595669291339
11
0.3686168503937008
21
0.3421673228346457
0
LINE
8
BLACK
6
CONTINUOUS
10
0.3686168503937008
20
0.3421673228346457
11
0.3646850393700787
21
0.3415944881889764
0
LINE
8
BLACK
6
CONTINUOUS
10
0.3646850393700787
20
0.3415944881889764
11
0.3489370078740157
21
0.3415944881889764
0
LINE
8
BLACK
6
CONTINUOUS
10
0.3489370078740157
20
0.3415944881889764
11
0.3450051968503937
21
0.3421673228346457
0
LINE
8
BLACK
6
CONTINUOUS
10
0.3450051968503937
20
0.3421673228346457
11
0.3409300393700787
21
0.3441595669291339
0
LINE
8
BLACK
6
CONTINUOUS
10
0.3409300393700787
20
0.3441595669291339
11
0.3377225590551181
21
0.3473670472440945
0
LINE
8
BLACK
6
CONTINUOUS
10
0.3377225590551181
20
0.3473670472440945
11
0.3357303149606299
21
0.3514422047244095
0
LINE
8
BLACK
6
CONTINUOUS
10
0.3357303149606299
20
0.3514422047244095
11
0.3351574803149606
21
0.3553740157480315
0
LINE
8
BLACK
6
CONTINUOUS
10
0.3351574803149606
20
0.3553740157480315
11
0.3351574803149606
21
0.3671850393700787
0
LINE
8
BLACK
6
CONTINUOUS
10
0.3351574803149606
20
0.3671850393700787
11
0.3357303149606299
21
0.3711168503937008
0
LINE
8
BLACK
6
CONTINUOUS
10
0.3357303149606299
20
0.3711168503937008
11
0.3377225590551181
21
0.3751920078740157
0
LINE
8
BLACK
6
CONTINUOUS
10
0.3377225590551181
20
0.3751920078740157
11
0.3409300393700787
21
0.3783994881889764
0
LINE
8
BLACK
6
CONTINUOUS
10
0.3409300393700787
20
0.3783994881889764
11
0.3450051968503937
21
0.3803917322834646
0
LINE
8
BLACK
6
CONTINUOUS
10
0.3450051968503937
20
0.3803917322834646
11
0.3489370078740157
21
0.3809645669291338
0
LINE
8
BLACK
6
CONTINUOUS
10
0.3489370078740157
20
0.3809645669291338
11
0.3646850393700787
21
0.3809645669291338
0
LINE
8
BLACK
6
CONTINUOUS
10
0.3646850393700787
20
0.3809645669291338
11
0.3686168503937008
21
0.3803917322834646
0
LINE
8
BLACK
6
CONTINUOUS
10
0.2214514960629921
20
0.3882066929133858
11
0.2255266535433071
21
0.3862144488188976
0
LINE
8
BLACK
6
CONTINUOUS
10
0.2255266535433071
20
0.3862144488188976
11
0.2287341338582677
21
0.383006968503937
0
LINE
8
BLACK
6
CONTINUOUS
10
0.2287341338582677
20
0.383006968503937
11
0.2307263779527559
21
0.3789318110236221
0
LINE
8
BLACK
6
CONTINUOUS
10
0.2307263779527559
20
0.3789318110236221
11
0.2312992125984252
21
0.375
0
LINE
8
BLACK
6
CONTINUOUS
10
0.2312992125984252
20
0.375
11
0.2312992125984252
21
0.3631889763779527
0
LINE
8
BLACK
6
CONTINUOUS
10
0.2312992125984252
20
0.3631889763779527
11
0.2307263779527559
21
0.3592571653543307
0
LINE
8
BLACK
6
CONTINUOUS
10
0.2307263779527559
20
0.3592571653543307
11
0.2287341338582677
21
0.3551820078740157
0
LINE
8
BLACK
6
CONTINUOUS
10
0.2287341338582677
20
0.3551820078740157
11
0.2255266535433071
21
0.3519745275590551
0
LINE
8
BLACK
6
CONTINUOUS
10
0.2255266535433071
20
0.3519745275590551
11
0.2214514960629921
21
0.3499822834645669
0
LINE
8
BLACK
6
CONTINUOUS
10
0.2214514960629921
20
0.3499822834645669
11
0.2175196850393701
21
0.3494094488188976
0
LINE
8
BLACK
6
CONTINUOUS
10
0.2175196850393701
20
0.3494094488188976
11
0.1624015748031496
21
0.3494094488188976
0
LINE
8
BLACK
6
CONTINUOUS
10
0.1624015748031496
20
0.3494094488188976
11
0.1584697637795276
21
0.3499822834645669
0
LINE
8
BLACK
6
CONTINUOUS
10
0.1584697637795276
20
0.3499822834645669
11
0.1543946062992126
21
0.3519745275590551
0
LINE
8
BLACK
6
CONTINUOUS
10
0.1543946062992126
20
0.3519745275590551
11
0.151187125984252
21
0.3551820078740157
0
LINE
8
BLACK
6
CONTINUOUS
10
0.151187125984252
20
0.3551820078740157
11
0.1491948818897638
21
0.3592571653543307
0
LINE
8
BLACK
6
CONTINUOUS
10
0.1491948818897638
20
0.3592571653543307
11
0.1486220472440945
21
0.3631889763779527
0
LINE
8
BLACK
6
CONTINUOUS
10
0.1486220472440945
20
0.3631889763779527
11
0.1486220472440945
21
0.375
0
LINE
8
BLACK
6
CONTINUOUS
10
0.1486220472440945
20
0.375
11
0.1491948818897638
21
0.3789318110236221
0
LINE
8
BLACK
6
CONTINUOUS
10
0.1491948818897638
20
0.3789318110236221
11
0.151187125984252
21
0.383006968503937
0
LINE
8
BLACK
6
CONTINUOUS
10
0.151187125984252
20
0.383006968503937
11
0.1543946062992126
21
0.3862144488188976
0
LINE
8
BLACK
6
CONTINUOUS
10
0.1543946062992126
20
0.3862144488188976
11
0.1584697637795276
21
0.3882066929133858
0
LINE
8
BLACK
6
CONTINUOUS
10
0.1584697637795276
20
0.3882066929133858
11
0.1624015748031496
21
0.3887795275590551
0
LINE
8
BLACK
6
CONTINUOUS
10
0.1624015748031496
20
0.3887795275590551
11
0.2175196850393701
21
0.3887795275590551
0
LINE
8
BLACK
6
CONTINUOUS
10
0.2175196850393701
20
0.3887795275590551
11
0.2214514960629921
21
0.3882066929133858
0
LINE
8
BLACK
6
CONTINUOUS
10
0.3686168503937008
20
0.4355098425196851
11
0.3726920078740157
21
0.4335175984251968
0
LINE
8
BLACK
6
CONTINUOUS
10
0.3726920078740157
20
0.4335175984251968
11
0.3758994881889764
21
0.4303101181102362
0
LINE
8
BLACK
6
CONTINUOUS
10
0.3758994881889764
20
0.4303101181102362
11
0.3778917322834646
21
0.4262349606299213
0
LINE
8
BLACK
6
CONTINUOUS
10
0.3778917322834646
20
0.4262349606299213
11
0.3784645669291338
21
0.4223031496062992
0
LINE
8
BLACK
6
CONTINUOUS
10
0.3784645669291338
20
0.4223031496062992
11
0.3784645669291338
21
0.4104921259842519
0
LINE
8
BLACK
6
CONTINUOUS
10
0.3784645669291338
20
0.4104921259842519
11
0.3778917322834646
21
0.4065603149606299
0
LINE
8
BLACK
6
CONTINUOUS
10
0.3778917322834646
20
0.4065603149606299
11
0.3758994881889764
21
0.4024851574803149
0
LINE
8
BLACK
6
CONTINUOUS
10
0.3758994881889764
20
0.4024851574803149
11
0.3726920078740157
21
0.3992776771653543
0
LINE
8
BLACK
6
CONTINUOUS
10
0.3726920078740157
20
0.3992776771653543
11
0.3686168503937008
21
0.3972854330708661
0
LINE
8
BLACK
6
CONTINUOUS
10
0.3686168503937008
20
0.3972854330708661
11
0.3646850393700787
21
0.3967125984251968
0
LINE
8
BLACK
6
CONTINUOUS
10
0.3646850393700787
20
0.3967125984251968
11
0.3489370078740157
21
0.3967125984251968
0
LINE
8
BLACK
6
CONTINUOUS
10
0.3489370078740157
20
0.3967125984251968
11
0.3450051968503937
21
0.3972854330708661
0
LINE
8
BLACK
6
CONTINUOUS
10
0.3450051968503937
20
0.3972854330708661
11
0.3409300393700787
21
0.3992776771653543
0
LINE
8
BLACK
6
CONTINUOUS
10
0.3409300393700787
20
0.3992776771653543
11
0.3377225590551181
21
0.4024851574803149
0
LINE
8
BLACK
6
CONTINUOUS
10
0.3377225590551181
20
0.4024851574803149
11
0.3357303149606299
21
0.4065603149606299
0
LINE
8
BLACK
6
CONTINUOUS
10
0.3357303149606299
20
0.4065603149606299
11
0.3351574803149606
21
0.4104921259842519
0
LINE
8
BLACK
6
CONTINUOUS
10
0.3351574803149606
20
0.4104921259842519
11
0.3351574803149606
21
0.4223031496062992
0
LINE
8
BLACK
6
CONTINUOUS
10
0.3351574803149606
20
0.4223031496062992
11
0.3357303149606299
21
0.4262349606299213
0
LINE
8
BLACK
6
CONTINUOUS
10
0.3357303149606299
20
0.4262349606299213
11
0.3377225590551181
21
0.4303101181102362
0
LINE
8
BLACK
6
CONTINUOUS
10
0.3377225590551181
20
0.4303101181102362
11
0.3409300393700787
21
0.4335175984251968
0
LINE
8
BLACK
6
CONTINUOUS
10
0.3409300393700787
20
0.4335175984251968
11
0.3450051968503937
21
0.4355098425196851
0
LINE
8
BLACK
6
CONTINUOUS
10
0.3450051968503937
20
0.4355098425196851
11
0.3489370078740157
21
0.4360826771653543
0
LINE
8
BLACK
6
CONTINUOUS
10
0.3489370078740157
20
0.4360826771653543
11
0.3646850393700787
21
0.4360826771653543
0
LINE
8
BLACK
6
CONTINUOUS
10
0.3646850393700787
20
0.4360826771653543
11
0.3686168503937008
21
0.4355098425196851
0
LINE
8
BLACK
6
CONTINUOUS
10
0.7864429527559055
20
0.4471261811023622
11
0.7910387795275591
21
0.4447844881889764
0
LINE
8
BLACK
6
CONTINUOUS
10
0.7910387795275591
20
0.4447844881889764
11
0.794686062992126
21
0.4411372047244094
0
LINE
8
BLACK
6
CONTINUOUS
10
0.794686062992126
20
0.4411372047244094
11
0.7970277559055118
21
0.4365413779527559
0
LINE
8
BLACK
6
CONTINUOUS
10
0.7970277559055118
20
0.4365413779527559
11
0.7978346456692913
21
0.4314468503937008
0
LINE
8
BLACK
6
CONTINUOUS
10
0.7978346456692913
20
0.4314468503937008
11
0.7978346456692913
21
0.4142224409448819
0
LINE
8
BLACK
6
CONTINUOUS
10
0.7978346456692913
20
0.4142224409448819
11
0.7970277559055118
21
0.4091279133858268
0
LINE
8
BLACK
6
CONTINUOUS
10
0.7970277559055118
20
0.4091279133858268
11
0.794686062992126
21
0.4045320866141732
0
LINE
8
BLACK
6
CONTINUOUS
10
0.794686062992126
20
0.4045320866141732
11
0.7910387795275591
21
0.4008848031496063
0
LINE
8
BLACK
6
CONTINUOUS
10
0.7910387795275591
20
0.4008848031496063
11
0.7864429527559055
21
0.3985431102362205
0
LINE
8
BLACK
6
CONTINUOUS
10
0.7864429527559055
20
0.3985431102362205
11
0.7813484251968503
21
0.3977362204724409
0
LINE
8
BLACK
6
CONTINUOUS
10
0.7813484251968503
20
0.3977362204724409
11
0.7611712598425197
21
0.3977362204724409
0
LINE
8
BLACK
6
CONTINUOUS
10
0.7611712598425197
20
0.3977362204724409
11
0.7560767322834645
21
0.3985431102362205
0
LINE
8
BLACK
6
CONTINUOUS
10
0.7560767322834645
20
0.3985431102362205
11
0.751480905511811
21
0.4008848031496063
0
LINE
8
BLACK
6
CONTINUOUS
10
0.751480905511811
20
0.4008848031496063
11
0.7478336220472441
21
0.4045320866141732
0
LINE
8
BLACK
6
CONTINUOUS
10
0.7478336220472441
20
0.4045320866141732
11
0.7454919291338582
21
0.4091279133858268
0
LINE
8
BLACK
6
CONTINUOUS
10
0.7454919291338582
20
0.4091279133858268
11
0.7446850393700787
21
0.4142224409448819
0
LINE
8
BLACK
6
CONTINUOUS
10
0.7446850393700787
20
0.4142224409448819
11
0.7446850393700787
21
0.4314468503937008
0
LINE
8
BLACK
6
CONTINUOUS
10
0.7446850393700787
20
0.4314468503937008
11
0.7454919291338582
21
0.4365413779527559
0
LINE
8
BLACK
6
CONTINUOUS
10
0.7454919291338582
20
0.4365413779527559
11
0.7478336220472441
21
0.4411372047244094
0
LINE
8
BLACK
6
CONTINUOUS
10
0.7478336220472441
20
0.4411372047244094
11
0.751480905511811
21
0.4447844881889764
0
LINE
8
BLACK
6
CONTINUOUS
10
0.751480905511811
20
0.4447844881889764
11
0.7560767322834645
21
0.4471261811023622
0
LINE
8
BLACK
6
CONTINUOUS
10
0.7560767322834645
20
0.4471261811023622
11
0.7611712598425197
21
0.4479330708661417
0
LINE
8
BLACK
6
CONTINUOUS
10
0.7611712598425197
20
0.4479330708661417
11
0.7813484251968503
21
0.4479330708661417
0
LINE
8
BLACK
6
CONTINUOUS
10
0.7813484251968503
20
0.4479330708661417
11
0.7864429527559055
21
0.4471261811023622
0
LINE
8
BLACK
6
CONTINUOUS
10
0.5282933464566929
20
0.4472246062992126
11
0.5328891732283464
21
0.4448829133858268
0
LINE
8
BLACK
6
CONTINUOUS
10
0.5328891732283464
20
0.4448829133858268
11
0.5365364566929134
21
0.4412356299212598
0
LINE
8
BLACK
6
CONTINUOUS
10
0.5365364566929134
20
0.4412356299212598
11
0.5388781496062992
21
0.4366398031496063
0
LINE
8
BLACK
6
CONTINUOUS
10
0.5388781496062992
20
0.4366398031496063
11
0.5396850393700787
21
0.4315452755905512
0
LINE
8
BLACK
6
CONTINUOUS
10
0.5396850393700787
20
0.4315452755905512
11
0.5396850393700787
21
0.4143208661417322
0
LINE
8
BLACK
6
CONTINUOUS
10
0.5396850393700787
20
0.4143208661417322
11
0.5388781496062992
21
0.4092263385826772
0
LINE
8
BLACK
6
CONTINUOUS
10
0.5388781496062992
20
0.4092263385826772
11
0.5365364566929134
21
0.4046305118110236
0
LINE
8
BLACK
6
CONTINUOUS
10
0.5365364566929134
20
0.4046305118110236
11
0.5328891732283464
21
0.4009832283464567
0
LINE
8
BLACK
6
CONTINUOUS
10
0.5328891732283464
20
0.4009832283464567
11
0.5282933464566929
21
0.3986415354330708
0
LINE
8
BLACK
6
CONTINUOUS
10
0.5282933464566929
20
0.3986415354330708
11
0.5231988188976378
21
0.3978346456692913
0
LINE
8
BLACK
6
CONTINUOUS
10
0.5231988188976378
20
0.3978346456692913
11
0.5030216535433071
21
0.3978346456692913
0
LINE
8
BLACK
6
CONTINUOUS
10
0.5030216535433071
20
0.3978346456692913
11
0.497927125984252
21
0.3986415354330708
0
LINE
8
BLACK
6
CONTINUOUS
10
0.497927125984252
20
0.3986415354330708
11
0.4933312992125984
21
0.4009832283464567
0
LINE
8
BLACK
6
CONTINUOUS
10
0.4933312992125984
20
0.4009832283464567
11
0.4896840157480315
21
0.4046305118110236
0
LINE
8
BLACK
6
CONTINUOUS
10
0.4896840157480315
20
0.4046305118110236
11
0.4873423228346457
21
0.4092263385826772
0
LINE
8
BLACK
6
CONTINUOUS
10
0.4873423228346457
20
0.4092263385826772
11
0.4865354330708661
21
0.4143208661417322
0
LINE
8
BLACK
6
CONTINUOUS
10
0.4865354330708661
20
0.4143208661417322
11
0.4865354330708661
21
0.4315452755905512
0
LINE
8
BLACK
6
CONTINUOUS
10
0.4865354330708661
20
0.4315452755905512
11
0.4873423228346457
21
0.4366398031496063
0
LINE
8
BLACK
6
CONTINUOUS
10
0.4873423228346457
20
0.4366398031496063
11
0.4896840157480315
21
0.4412356299212598
0
LINE
8
BLACK
6
CONTINUOUS
10
0.4896840157480315
20
0.4412356299212598
11
0.4933312992125984
21
0.4448829133858268
0
LINE
8
BLACK
6
CONTINUOUS
10
0.4933312992125984
20
0.4448829133858268
11
0.497927125984252
21
0.4472246062992126
0
LINE
8
BLACK
6
CONTINUOUS
10
0.497927125984252
20
0.4472246062992126
11
0.5030216535433071
21
0.4480314960629921
0
LINE
8
BLACK
6
CONTINUOUS
10
0.5030216535433071
20
0.4480314960629921
11
0.5231988188976378
21
0.4480314960629921
0
LINE
8
BLACK
6
CONTINUOUS
10
0.5231988188976378
20
0.4480314960629921
11
0.5282933464566929
21
0.4472246062992126
0
LINE
8
BLACK
6
CONTINUOUS
10
0.7183327165354331
20
0.4475198818897638
11
0.7229285433070866
21
0.445178188976378
0
LINE
8
BLACK
6
CONTINUOUS
10
0.7229285433070866
20
0.445178188976378
11
0.7265758267716536
21
0.441530905511811
0
LINE
8
BLACK
6
CONTINUOUS
10
0.7265758267716536
20
0.441530905511811
11
0.7289175196850394
21
0.4369350787401575
0
LINE
8
BLACK
6
CONTINUOUS
10
0.7289175196850394
20
0.4369350787401575
11
0.7297244094488189
21
0.4318405511811024
0
LINE
8
BLACK
6
CONTINUOUS
10
0.7297244094488189
20
0.4318405511811024
11
0.7297244094488189
21
0.4146161417322834
0
LINE
8
BLACK
6
CONTINUOUS
10
0.7297244094488189
20
0.4146161417322834
11
0.7289175196850394
21
0.4095216141732284
0
LINE
8
BLACK
6
CONTINUOUS
10
0.7289175196850394
20
0.4095216141732284
11
0.7265758267716536
21
0.4049257874015748
0
LINE
8
BLACK
6
CONTINUOUS
10
0.7265758267716536
20
0.4049257874015748
11
0.7229285433070866
21
0.4012785039370079
0
LINE
8
BLACK
6
CONTINUOUS
10
0.7229285433070866
20
0.4012785039370079
11
0.7183327165354331
21
0.3989368110236221
0
LINE
8
BLACK
6
CONTINUOUS
10
0.7183327165354331
20
0.3989368110236221
11
0.7132381889763779
21
0.3981299212598425
0
LINE
8
BLACK
6
CONTINUOUS
10
0.7132381889763779
20
0.3981299212598425
11
0.6930610236220472
21
0.3981299212598425
0
LINE
8
BLACK
6
CONTINUOUS
10
0.6930610236220472
20
0.3981299212598425
11
0.6879664960629921
21
0.3989368110236221
0
LINE
8
BLACK
6
CONTINUOUS
10
0.6879664960629921
20
0.3989368110236221
11
0.6833706692913386
21
0.4012785039370079
0
LINE
8
BLACK
6
CONTINUOUS
10
0.6833706692913386
20
0.4012785039370079
11
0.6797233858267716
21
0.4049257874015748
0
LINE
8
BLACK
6
CONTINUOUS
10
0.6797233858267716
20
0.4049257874015748
11
0.6773816929133858
21
0.4095216141732284
0
LINE
8
BLACK
6
CONTINUOUS
10
0.6773816929133858
20
0.4095216141732284
11
0.6765748031496063
21
0.4146161417322834
0
LINE
8
BLACK
6
CONTINUOUS
10
0.6765748031496063
20
0.4146161417322834
11
0.6765748031496063
21
0.4318405511811024
0
LINE
8
BLACK
6
CONTINUOUS
10
0.6765748031496063
20
0.4318405511811024
11
0.6773816929133858
21
0.4369350787401575
0
LINE
8
BLACK
6
CONTINUOUS
10
0.6773816929133858
20
0.4369350787401575
11
0.6797233858267716
21
0.441530905511811
0
LINE
8
BLACK
6
CONTINUOUS
10
0.6797233858267716
20
0.441530905511811
11
0.6833706692913386
21
0.445178188976378
0
LINE
8
BLACK
6
CONTINUOUS
10
0.6833706692913386
20
0.445178188976378
11
0.6879664960629921
21
0.4475198818897638
0
LINE
8
BLACK
6
CONTINUOUS
10
0.6879664960629921
20
0.4475198818897638
11
0.6930610236220472
21
0.4483267716535433
0
LINE
8
BLACK
6
CONTINUOUS
10
0.6930610236220472
20
0.4483267716535433
11
0.7132381889763779
21
0.4483267716535433
0
LINE
8
BLACK
6
CONTINUOUS
10
0.7132381889763779
20
0.4483267716535433
11
0.7183327165354331
21
0.4475198818897638
0
LINE
8
BLACK
6
CONTINUOUS
10
0.2981735039370079
20
0.4492292519685039
11
0.3025635433070866
21
0.4469924015748031
0
LINE
8
BLACK
6
CONTINUOUS
10
0.3025635433070866
20
0.4469924015748031
11
0.3060475196850393
21
0.4435084251968504
0
LINE
8
BLACK
6
CONTINUOUS
10
0.3060475196850393
20
0.4435084251968504
11
0.3082843700787402
21
0.4391183858267717
0
LINE
8
BLACK
6
CONTINUOUS
10
0.3082843700787402
20
0.4391183858267717
11
0.3090551181102362
21
0.434251968503937
0
LINE
8
BLACK
6
CONTINUOUS
10
0.3090551181102362
20
0.434251968503937
11
0.3090551181102362
21
0.418503937007874
0
LINE
8
BLACK
6
CONTINUOUS
10
0.3090551181102362
20
0.418503937007874
11
0.3082843700787402
21
0.4136375196850394
0
LINE
8
BLACK
6
CONTINUOUS
10
0.3082843700787402
20
0.4136375196850394
11
0.3060475196850393
21
0.4092474803149606
0
LINE
8
BLACK
6
CONTINUOUS
10
0.3060475196850393
20
0.4092474803149606
11
0.3025635433070866
21
0.4057635039370079
0
LINE
8
BLACK
6
CONTINUOUS
10
0.3025635433070866
20
0.4057635039370079
11
0.2981735039370079
21
0.4035266535433071
0
LINE
8
BLACK
6
CONTINUOUS
10
0.2981735039370079
20
0.4035266535433071
11
0.2933070866141732
21
0.402755905511811
0
LINE
8
BLACK
6
CONTINUOUS
10
0.2933070866141732
20
0.402755905511811
11
0.2716535433070866
21
0.402755905511811
0
LINE
8
BLACK
6
CONTINUOUS
10
0.2716535433070866
20
0.402755905511811
11
0.266787125984252
21
0.4035266535433071
0
LINE
8
BLACK
6
CONTINUOUS
10
0.266787125984252
20
0.4035266535433071
11
0.2623970866141732
21
0.4057635039370079
0
LINE
8
BLACK
6
CONTINUOUS
10
0.2623970866141732
20
0.4057635039370079
11
0.2589131102362205
21
0.4092474803149606
0
LINE
8
BLACK
6
CONTINUOUS
10
0.2589131102362205
20
0.4092474803149606
11
0.2566762598425197
21
0.4136375196850394
0
LINE
8
BLACK
6
CONTINUOUS
10
0.2566762598425197
20
0.4136375196850394
11
0.2559055118110236
21
0.418503937007874
0
LINE
8
BLACK
6
CONTINUOUS
10
0.2559055118110236
20
0.418503937007874
11
0.2559055118110236
21
0.434251968503937
0
LINE
8
BLACK
6
CONTINUOUS
10
0.2559055118110236
20
0.434251968503937
11
0.2566762598425197
21
0.4391183858267717
0
LINE
8
BLACK
6
CONTINUOUS
10
0.2566762598425197
20
0.4391183858267717
11
0.2589131102362205
21
0.4435084251968504
0
LINE
8
BLACK
6
CONTINUOUS
10
0.2589131102362205
20
0.4435084251968504
11
0.2623970866141732
21
0.4469924015748031
0
LINE
8
BLACK
6
CONTINUOUS
10
0.2623970866141732
20
0.4469924015748031
11
0.266787125984252
21
0.4492292519685039
0
LINE
8
BLACK
6
CONTINUOUS
10
0.266787125984252
20
0.4492292519685039
11
0.2716535433070866
21
0.45
0
LINE
8
BLACK
6
CONTINUOUS
10
0.2716535433070866
20
0.45
11
0.2933070866141732
21
0.45
0
LINE
8
BLACK
6
CONTINUOUS
10
0.2933070866141732
20
0.45
11
0.2981735039370079
21
0.4492292519685039
0
LINE
8
BLACK
6
CONTINUOUS
10
0.4648833464566929
20
0.4608966929133858
11
0.4674378346456693
21
0.4591898031496063
0
LINE
8
BLACK
6
CONTINUOUS
10
0.4674378346456693
20
0.4591898031496063
11
0.4691447244094488
21
0.4566353149606299
0
LINE
8
BLACK
6
CONTINUOUS
10
0.4691447244094488
20
0.4566353149606299
11
0.469744094488189
21
0.4536220472440945
0
LINE
8
BLACK
6
CONTINUOUS
10
0.469744094488189
20
0.4536220472440945
11
0.469744094488189
21
0.4186220472440945
0
LINE
8
BLACK
6
CONTINUOUS
10
0.469744094488189
20
0.4186220472440945
11
0.4691447244094488
21
0.415608779527559
0
LINE
8
BLACK
6
CONTINUOUS
10
0.4691447244094488
20
0.415608779527559
11
0.4674378346456693
21
0.4130542913385827
0
LINE
8
BLACK
6
CONTINUOUS
10
0.4674378346456693
20
0.4130542913385827
11
0.4648833464566929
21
0.4113474015748032
0
LINE
8
BLACK
6
CONTINUOUS
10
0.4648833464566929
20
0.4113474015748032
11
0.4618700787401575
21
0.410748031496063
0
LINE
8
BLACK
6
CONTINUOUS
10
0.4618700787401575
20
0.410748031496063
11
0.4068700787401575
21
0.410748031496063
0
LINE
8
BLACK
6
CONTINUOUS
10
0.4068700787401575
20
0.410748031496063
11
0.403856811023622
21
0.4113474015748032
0
LINE
8
BLACK
6
CONTINUOUS
10
0.403856811023622
20
0.4113474015748032
11
0.4013023228346457
21
0.4130542913385827
0
LINE
8
BLACK
6
CONTINUOUS
10
0.4013023228346457
20
0.4130542913385827
11
0.3995954330708661
21
0.415608779527559
0
LINE
8
BLACK
6
CONTINUOUS
10
0.3995954330708661
20
0.415608779527559
11
0.398996062992126
21
0.4186220472440945
0
LINE
8
BLACK
6
CONTINUOUS
10
0.398996062992126
20
0.4186220472440945
11
0.398996062992126
21
0.4536220472440945
0
LINE
8
BLACK
6
CONTINUOUS
10
0.398996062992126
20
0.4536220472440945
11
0.3995954330708661
21
0.4566353149606299
0
LINE
8
BLACK
6
CONTINUOUS
10
0.3995954330708661
20
0.4566353149606299
11
0.4013023228346457
21
0.4591898031496063
0
LINE
8
BLACK
6
CONTINUOUS
10
0.4013023228346457
20
0.4591898031496063
11
0.403856811023622
21
0.4608966929133858
0
LINE
8
BLACK
6
CONTINUOUS
10
0.403856811023622
20
0.4608966929133858
11
0.4068700787401575
21
0.461496062992126
0
LINE
8
BLACK
6
CONTINUOUS
10
0.4068700787401575
20
0.461496062992126
11
0.4618700787401575
21
0.461496062992126
0
LINE
8
BLACK
6
CONTINUOUS
10
0.4618700787401575
20
0.461496062992126
11
0.4648833464566929
21
0.4608966929133858
0
LINE
8
BLACK
6
CONTINUOUS
10
0.1105771653543307
20
0.4691793307086614
11
0.1155618503937008
21
0.4674351181102362
0
LINE
8
BLACK
6
CONTINUOUS
10
0.1155618503937008
20
0.4674351181102362
11
0.1198109448818898
21
0.4642991338582677
0
LINE
8
BLACK
6
CONTINUOUS
10
0.1198109448818898
20
0.4642991338582677
11
0.1229469291338583
21
0.4600500393700787
0
LINE
8
BLACK
6
CONTINUOUS
10
0.1229469291338583
20
0.4600500393700787
11
0.1246911417322835
21
0.4550653543307087
0
LINE
8
BLACK
6
CONTINUOUS
10
0.1246911417322835
20
0.4550653543307087
11
0.125
21
0.4517716535433071
0
LINE
8
BLACK
6
CONTINUOUS
10
0.125
20
0.4517716535433071
11
0.125
21
0.4320866141732284
0
LINE
8
BLACK
6
CONTINUOUS
10
0.125
20
0.4320866141732284
11
0.1246911417322835
21
0.4287929133858268
0
LINE
8
BLACK
6
CONTINUOUS
10
0.1246911417322835
20
0.4287929133858268
11
0.1229469291338583
21
0.4238082283464567
0
LINE
8
BLACK
6
CONTINUOUS
10
0.1229469291338583
20
0.4238082283464567
11
0.1198109448818898
21
0.4195591338582677
0
LINE
8
BLACK
6
CONTINUOUS
10
0.1198109448818898
20
0.4195591338582677
11
0.1155618503937008
21
0.4164231496062992
0
LINE
8
BLACK
6
CONTINUOUS
10
0.1155618503937008
20
0.4164231496062992
11
0.1105771653543307
21
0.414678937007874
0
LINE
8
BLACK
6
CONTINUOUS
10
0.1105771653543307
20
0.414678937007874
11
0.1072834645669291
21
0.4143700787401575
0
LINE
8
BLACK
6
CONTINUOUS
10
0.1072834645669291
20
0.4143700787401575
11
0.0206692913385827
21
0.4143700787401575
0
LINE
8
BLACK
6
CONTINUOUS
10
0.0206692913385827
20
0.4143700787401575
11
0.0173755905511811
21
0.414678937007874
0
LINE
8
BLACK
6
CONTINUOUS
10
0.0173755905511811
20
0.414678937007874
11
0.012390905511811
21
0.4164231496062992
0
LINE
8
BLACK
6
CONTINUOUS
10
0.012390905511811
20
0.4164231496062992
11
0.008141811023622
21
0.4195591338582677
0
LINE
8
BLACK
6
CONTINUOUS
10
0.008141811023622
20
0.4195591338582677
11
0.0050058267716535
21
0.4238082283464567
0
LINE
8
BLACK
6
CONTINUOUS
10
0.0050058267716535
20
0.4238082283464567
11
0.0032616141732283
21
0.4287929133858268
0
LINE
8
BLACK
6
CONTINUOUS
10
0.0032616141732283
20
0.4287929133858268
11
0.0029527559055118
21
0.4320866141732284
0
LINE
8
BLACK
6
CONTINUOUS
10
0.0029527559055118
20
0.4320866141732284
11
0.0029527559055118
21
0.4517716535433071
0
LINE
8
BLACK
6
CONTINUOUS
10
0.0029527559055118
20
0.4517716535433071
11
0.0032616141732283
21
0.4550653543307087
0
LINE
8
BLACK
6
CONTINUOUS
10
0.0032616141732283
20
0.4550653543307087
11
0.0050058267716535
21
0.4600500393700787
0
LINE
8
BLACK
6
CONTINUOUS
10
0.0050058267716535
20
0.4600500393700787
11
0.008141811023622
21
0.4642991338582677
0
LINE
8
BLACK
6
CONTINUOUS
10
0.008141811023622
20
0.4642991338582677
11
0.012390905511811
21
0.4674351181102362
0
LINE
8
BLACK
6
CONTINUOUS
10
0.012390905511811
20
0.4674351181102362
11
0.0173755905511811
21
0.4691793307086614
0
LINE
8
BLACK
6
CONTINUOUS
10
0.0173755905511811
20
0.4691793307086614
11
0.0206692913385827
21
0.469488188976378
0
LINE
8
BLACK
6
CONTINUOUS
10
0.0206692913385827
20
0.469488188976378
11
0.1072834645669291
21
0.469488188976378
0
LINE
8
BLACK
6
CONTINUOUS
10
0.1072834645669291
20
0.469488188976378
11
0.1105771653543307
21
0.4691793307086614
0
LINE
8
BLACK
6
CONTINUOUS
10
0.9736825590551181
20
0.4738100787401575
11
0.9762370472440944
21
0.4721031889763779
0
LINE
8
BLACK
6
CONTINUOUS
10
0.9762370472440944
20
0.4721031889763779
11
0.977943937007874
21
0.4695487007874016
0
LINE
8
BLACK
6
CONTINUOUS
10
0.977943937007874
20
0.4695487007874016
11
0.9785433070866142
21
0.4665354330708661
0
LINE
8
BLACK
6
CONTINUOUS
10
0.9785433070866142
20
0.4665354330708661
11
0.9785433070866142
21
0.4271653543307086
0
LINE
8
BLACK
6
CONTINUOUS
10
0.9785433070866142
20
0.4271653543307086
11
0.977943937007874
21
0.4241520866141732
0
LINE
8
BLACK
6
CONTINUOUS
10
0.977943937007874
20
0.4241520866141732
11
0.9762370472440944
21
0.4215975984251968
0
LINE
8
BLACK
6
CONTINUOUS
10
0.9762370472440944
20
0.4215975984251968
11
0.9736825590551181
21
0.4198907086614173
0
LINE
8
BLACK
6
CONTINUOUS
10
0.9736825590551181
20
0.4198907086614173
11
0.9706692913385827
21
0.4192913385826771
0
LINE
8
BLACK
6
CONTINUOUS
10
0.9706692913385827
20
0.4192913385826771
11
0.8718503937007874
21
0.4192913385826771
0
LINE
8
BLACK
6
CONTINUOUS
10
0.8718503937007874
20
0.4192913385826771
11
0.868837125984252
21
0.4198907086614173
0
LINE
8
BLACK
6
CONTINUOUS
10
0.868837125984252
20
0.4198907086614173
11
0.8662826377952756
21
0.4215975984251968
0
LINE
8
BLACK
6
CONTINUOUS
10
0.8662826377952756
20
0.4215975984251968
11
0.8645757480314961
21
0.4241520866141732
0
LINE
8
BLACK
6
CONTINUOUS
10
0.8645757480314961
20
0.4241520866141732
11
0.8639763779527558
21
0.4271653543307086
0
LINE
8
BLACK
6
CONTINUOUS
10
0.8639763779527558
20
0.4271653543307086
11
0.8639763779527558
21
0.4665354330708661
0
LINE
8
BLACK
6
CONTINUOUS
10
0.8639763779527558
20
0.4665354330708661
11
0.8645757480314961
21
0.4695487007874016
0
LINE
8
BLACK
6
CONTINUOUS
10
0.8645757480314961
20
0.4695487007874016
11
0.8662826377952756
21
0.4721031889763779
0
LINE
8
BLACK
6
CONTINUOUS
10
0.8662826377952756
20
0.4721031889763779
11
0.868837125984252
21
0.4738100787401575
0
LINE
8
BLACK
6
CONTINUOUS
10
0.868837125984252
20
0.4738100787401575
11
0.8718503937007874
21
0.4744094488188976
0
LINE
8
BLACK
6
CONTINUOUS
10
0.8718503937007874
20
0.4744094488188976
11
0.9706692913385827
21
0.4744094488188976
0
LINE
8
BLACK
6
CONTINUOUS
10
0.9706692913385827
20
0.4744094488188976
11
0.9736825590551181
21
0.4738100787401575
0
LINE
8
BLACK
6
CONTINUOUS
10
0.7864429527559055
20
0.5091340551181103
11
0.7910387795275591
21
0.5067923622047243
0
LINE
8
BLACK
6
CONTINUOUS
10
0.7910387795275591
20
0.5067923622047243
11
0.794686062992126
21
0.5031450787401575
0
LINE
8
BLACK
6
CONTINUOUS
10
0.794686062992126
20
0.5031450787401575
11
0.7970277559055118
21
0.4985492519685039
0
LINE
8
BLACK
6
CONTINUOUS
10
0.7970277559055118
20
0.4985492519685039
11
0.7978346456692913
21
0.4934547244094488
0
LINE
8
BLACK
6
CONTINUOUS
10
0.7978346456692913
20
0.4934547244094488
11
0.7978346456692913
21
0.4762303149606299
0
LINE
8
BLACK
6
CONTINUOUS
10
0.7978346456692913
20
0.4762303149606299
11
0.7970277559055118
21
0.4711357874015748
0
LINE
8
BLACK
6
CONTINUOUS
10
0.7970277559055118
20
0.4711357874015748
11
0.794686062992126
21
0.4665399606299213
0
LINE
8
BLACK
6
CONTINUOUS
10
0.794686062992126
20
0.4665399606299213
11
0.7910387795275591
21
0.4628926771653543
0
LINE
8
BLACK
6
CONTINUOUS
10
0.7910387795275591
20
0.4628926771653543
11
0.7864429527559055
21
0.4605509842519685
0
LINE
8
BLACK
6
CONTINUOUS
10
0.7864429527559055
20
0.4605509842519685
11
0.7813484251968503
21
0.459744094488189
0
LINE
8
BLACK
6
CONTINUOUS
10
0.7813484251968503
20
0.459744094488189
11
0.7611712598425197
21
0.459744094488189
0
LINE
8
BLACK
6
CONTINUOUS
10
0.7611712598425197
20
0.459744094488189
11
0.7560767322834645
21
0.4605509842519685
0
LINE
8
BLACK
6
CONTINUOUS
10
0.7560767322834645
20
0.4605509842519685
11
0.751480905511811
21
0.4628926771653543
0
LINE
8
BLACK
6
CONTINUOUS
10
0.751480905511811
20
0.4628926771653543
11
0.7478336220472441
21
0.4665399606299213
0
LINE
8
BLACK
6
CONTINUOUS
10
0.7478336220472441
20
0.4665399606299213
11
0.7454919291338582
21
0.4711357874015748
0
LINE
8
BLACK
6
CONTINUOUS
10
0.7454919291338582
20
0.4711357874015748
11
0.7446850393700787
21
0.4762303149606299
0
LINE
8
BLACK
6
CONTINUOUS
10
0.7446850393700787
20
0.4762303149606299
11
0.7446850393700787
21
0.4934547244094488
0
LINE
8
BLACK
6
CONTINUOUS
10
0.7446850393700787
20
0.4934547244094488
11
0.7454919291338582
21
0.4985492519685039
0
LINE
8
BLACK
6
CONTINUOUS
10
0.7454919291338582
20
0.4985492519685039
11
0.7478336220472441
21
0.5031450787401575
0
LINE
8
BLACK
6
CONTINUOUS
10
0.7478336220472441
20
0.5031450787401575
11
0.751480905511811
21
0.5067923622047243
0
LINE
8
BLACK
6
CONTINUOUS
10
0.751480905511811
20
0.5067923622047243
11
0.7560767322834645
21
0.5091340551181103
0
LINE
8
BLACK
6
CONTINUOUS
10
0.7560767322834645
20
0.5091340551181103
11
0.7611712598425197
21
0.5099409448818898
0
LINE
8
BLACK
6
CONTINUOUS
10
0.7611712598425197
20
0.5099409448818898
11
0.7813484251968503
21
0.5099409448818898
0
LINE
8
BLACK
6
CONTINUOUS
10
0.7813484251968503
20
0.5099409448818898
11
0.7864429527559055
21
0.5091340551181103
0
LINE
8
BLACK
6
CONTINUOUS
10
0.7183327165354331
20
0.5095277559055118
11
0.7229285433070866
21
0.507186062992126
0
LINE
8
BLACK
6
CONTINUOUS
10
0.7229285433070866
20
0.507186062992126
11
0.7265758267716536
21
0.503538779527559
0
LINE
8
BLACK
6
CONTINUOUS
10
0.7265758267716536
20
0.503538779527559
11
0.7289175196850394
21
0.4989429527559055
0
LINE
8
BLACK
6
CONTINUOUS
10
0.7289175196850394
20
0.4989429527559055
11
0.7297244094488189
21
0.4938484251968504
0
LINE
8
BLACK
6
CONTINUOUS
10
0.7297244094488189
20
0.4938484251968504
11
0.7297244094488189
21
0.4766240157480315
0
LINE
8
BLACK
6
CONTINUOUS
10
0.7297244094488189
20
0.4766240157480315
11
0.7289175196850394
21
0.4715294881889764
0
LINE
8
BLACK
6
CONTINUOUS
10
0.7289175196850394
20
0.4715294881889764
11
0.7265758267716536
21
0.4669336614173228
0
LINE
8
BLACK
6
CONTINUOUS
10
0.7265758267716536
20
0.4669336614173228
11
0.7229285433070866
21
0.4632863779527559
0
LINE
8
BLACK
6
CONTINUOUS
10
0.7229285433070866
20
0.4632863779527559
11
0.7183327165354331
21
0.4609446850393701
0
LINE
8
BLACK
6
CONTINUOUS
10
0.7183327165354331
20
0.4609446850393701
11
0.7132381889763779
21
0.4601377952755906
0
LINE
8
BLACK
6
CONTINUOUS
10
0.7132381889763779
20
0.4601377952755906
11
0.6930610236220472
21
0.4601377952755906
0
LINE
8
BLACK
6
CONTINUOUS
10
0.6930610236220472
20
0.4601377952755906
11
0.6879664960629921
21
0.4609446850393701
0
LINE
8
BLACK
6
CONTINUOUS
10
0.6879664960629921
20
0.4609446850393701
11
0.6833706692913386
21
0.4632863779527559
0
LINE
8
BLACK
6
CONTINUOUS
10
0.6833706692913386
20
0.4632863779527559
11
0.6797233858267716
21
0.4669336614173228
0
LINE
8
BLACK
6
CONTINUOUS
10
0.6797233858267716
20
0.4669336614173228
11
0.6773816929133858
21
0.4715294881889764
0
LINE
8
BLACK
6
CONTINUOUS
10
0.6773816929133858
20
0.4715294881889764
11
0.6765748031496063
21
0.4766240157480315
0
LINE
8
BLACK
6
CONTINUOUS
10
0.6765748031496063
20
0.4766240157480315
11
0.6765748031496063
21
0.4938484251968504
0
LINE
8
BLACK
6
CONTINUOUS
10
0.6765748031496063
20
0.4938484251968504
11
0.6773816929133858
21
0.4989429527559055
0
LINE
8
BLACK
6
CONTINUOUS
10
0.6773816929133858
20
0.4989429527559055
11
0.6797233858267716
21
0.503538779527559
0
LINE
8
BLACK
6
CONTINUOUS
10
0.6797233858267716
20
0.503538779527559
11
0.6833706692913386
21
0.507186062992126
0
LINE
8
BLACK
6
CONTINUOUS
10
0.6833706692913386
20
0.507186062992126
11
0.6879664960629921
21
0.5095277559055118
0
LINE
8
BLACK
6
CONTINUOUS
10
0.6879664960629921
20
0.5095277559055118
11
0.6930610236220472
21
0.5103346456692913
0
LINE
8
BLACK
6
CONTINUOUS
10
0.6930610236220472
20
0.5103346456692913
11
0.7132381889763779
21
0.5103346456692913
0
LINE
8
BLACK
6
CONTINUOUS
10
0.7132381889763779
20
0.5103346456692913
11
0.7183327165354331
21
0.5095277559055118
0
LINE
8
BLACK
6
CONTINUOUS
10
0.2742617322834646
20
0.5534845275590551
11
0.2770291338582677
21
0.5516354330708662
0
LINE
8
BLACK
6
CONTINUOUS
10
0.2770291338582677
20
0.5516354330708662
11
0.2788782283464567
21
0.548868031496063
0
LINE
8
BLACK
6
CONTINUOUS
10
0.2788782283464567
20
0.548868031496063
11
0.2795275196850394
21
0.5456036220472441
0
LINE
8
BLACK
6
CONTINUOUS
10
0.2795275196850394
20
0.5456036220472441
11
0.2795275590551181
21
0.4996719291338583
0
LINE
8
BLACK
6
CONTINUOUS
10
0.2795275590551181
20
0.4996719291338583
11
0.2788782283464567
21
0.4964075590551181
0
LINE
8
BLACK
6
CONTINUOUS
10
0.2788782283464567
20
0.4964075590551181
11
0.2770291338582677
21
0.4936401574803149
0
LINE
8
BLACK
6
CONTINUOUS
10
0.2770291338582677
20
0.4936401574803149
11
0.2742617322834646
21
0.491791062992126
0
LINE
8
BLACK
6
CONTINUOUS
10
0.2742617322834646
20
0.491791062992126
11
0.2709973228346457
21
0.4911417716535433
0
LINE
8
BLACK
6
CONTINUOUS
10
0.2709973228346457
20
0.4911417716535433
11
0.2349081496062992
21
0.4911417322834646
0
LINE
8
BLACK
6
CONTINUOUS
10
0.2349081496062992
20
0.4911417322834646
11
0.231643779527559
21
0.491791062992126
0
LINE
8
BLACK
6
CONTINUOUS
10
0.231643779527559
20
0.491791062992126
11
0.2288763779527559
21
0.4936401574803149
0
LINE
8
BLACK
6
CONTINUOUS
10
0.2288763779527559
20
0.4936401574803149
11
0.2270272834645669
21
0.4964075590551181
0
LINE
8
BLACK
6
CONTINUOUS
10
0.2270272834645669
20
0.4964075590551181
11
0.2263779921259843
21
0.499671968503937
0
LINE
8
BLACK
6
CONTINUOUS
10
0.2263779921259843
20
0.499671968503937
11
0.2263779527559055
21
0.5456036614173229
0
LINE
8
BLACK
6
CONTINUOUS
10
0.2263779527559055
20
0.5456036614173229
11
0.2270272834645669
21
0.548868031496063
0
LINE
8
BLACK
6
CONTINUOUS
10
0.2270272834645669
20
0.548868031496063
11
0.2288763779527559
21
0.5516354330708662
0
LINE
8
BLACK
6
CONTINUOUS
10
0.2288763779527559
20
0.5516354330708662
11
0.231643779527559
21
0.5534845275590551
0
LINE
8
BLACK
6
CONTINUOUS
10
0.231643779527559
20
0.5534845275590551
11
0.2349081889763779
21
0.5541338188976378
0
LINE
8
BLACK
6
CONTINUOUS
10
0.2349081889763779
20
0.5541338188976378
11
0.2709973622047244
21
0.5541338582677166
0
LINE
8
BLACK
6
CONTINUOUS
10
0.2709973622047244
20
0.5541338582677166
11
0.2742617322834646
21
0.5534845275590551
0
LINE
8
BLACK
6
CONTINUOUS
10
0.4159940157480315
20
0.5534845275590551
11
0.4187614173228346
21
0.5516354330708662
0
LINE
8
BLACK
6
CONTINUOUS
10
0.4187614173228346
20
0.5516354330708662
11
0.4206105118110236
21
0.548868031496063
0
LINE
8
BLACK
6
CONTINUOUS
10
0.4206105118110236
20
0.548868031496063
11
0.4212598031496063
21
0.5456036220472441
0
LINE
8
BLACK
6
CONTINUOUS
10
0.4212598031496063
20
0.5456036220472441
11
0.421259842519685
21
0.4996719291338583
0
LINE
8
BLACK
6
CONTINUOUS
10
0.421259842519685
20
0.4996719291338583
11
0.4206105118110236
21
0.4964075590551181
0
LINE
8
BLACK
6
CONTINUOUS
10
0.4206105118110236
20
0.4964075590551181
11
0.4187614173228346
21
0.4936401574803149
0
LINE
8
BLACK
6
CONTINUOUS
10
0.4187614173228346
20
0.4936401574803149
11
0.4159940157480315
21
0.491791062992126
0
LINE
8
BLACK
6
CONTINUOUS
10
0.4159940157480315
20
0.491791062992126
11
0.4127296062992126
21
0.4911417716535433
0
LINE
8
BLACK
6
CONTINUOUS
10
0.4127296062992126
20
0.4911417716535433
11
0.3766404330708661
21
0.4911417322834646
0
LINE
8
BLACK
6
CONTINUOUS
10
0.3766404330708661
20
0.4911417322834646
11
0.373376062992126
21
0.491791062992126
0
LINE
8
BLACK
6
CONTINUOUS
10
0.373376062992126
20
0.491791062992126
11
0.3706086614173228
21
0.4936401574803149
0
LINE
8
BLACK
6
CONTINUOUS
10
0.3706086614173228
20
0.4936401574803149
11
0.3687595669291339
21
0.4964075590551181
0
LINE
8
BLACK
6
CONTINUOUS
10
0.3687595669291339
20
0.4964075590551181
11
0.3681102755905512
21
0.499671968503937
0
LINE
8
BLACK
6
CONTINUOUS
10
0.3681102755905512
20
0.499671968503937
11
0.3681102362204725
21
0.5456036614173229
0
LINE
8
BLACK
6
CONTINUOUS
10
0.3681102362204725
20
0.5456036614173229
11
0.3687595669291339
21
0.548868031496063
0
LINE
8
BLACK
6
CONTINUOUS
10
0.3687595669291339
20
0.548868031496063
11
0.3706086614173228
21
0.5516354330708662
0
LINE
8
BLACK
6
CONTINUOUS
10
0.3706086614173228
20
0.5516354330708662
11
0.373376062992126
21
0.5534845275590551
0
LINE
8
BLACK
6
CONTINUOUS
10
0.373376062992126
20
0.5534845275590551
11
0.3766404724409449
21
0.5541338188976378
0
LINE
8
BLACK
6
CONTINUOUS
10
0.3766404724409449
20
0.5541338188976378
11
0.4127296456692913
21
0.5541338582677166
0
LINE
8
BLACK
6
CONTINUOUS
10
0.4127296456692913
20
0.5541338582677166
11
0.4159940157480315
21
0.5534845275590551
  0
ENDSEC
  0
EOF
