  0
SECTION
  2
HEADER
  9
$ANGBASE
  50
0.0
  9
$ANGDIR
  70
1
  9
$MEASUREMENT
  70
0
  0
ENDSEC
  0
SECTION
  2
TABLES
  0
TABLE
  2
LTYPE
  70
4
  0
LTYPE
  5
40F
  2
CONTINUOUS
  70
0
  3
Solid line
  72
65
  73
0
  40
0.0
  0
LTYPE
  5
410
  2
DASHDOT
 70
0
  3
Dash Dot ____ _ ____ _
 72
65
 73
4
 40
2.0
 49
1.25
 49
-0.25
 49
0.25
 49
-0.25
  0
LTYPE
  5
411
  2
DASHED
 70
0
  3
Dashed __ __ __ __ __
 72
65
 73
2
 40
0.75
 49
0.5
 49
-0.25
  0
LTYPE
  5
43B
  2
DOTTED
 70
0
  3
Dotted .  .  .  .
 72
65
 73
2
 40
0.2
 49
0.0
 49
-0.2
  0
ENDTAB
  0
TABLE
  2
STYLE
  70
4
  0
STYLE
  2
KICAD
  70
0
  40
0
  41
1
  42
1
  50
0
  71
0
  3
isocp.shx
  0
STYLE
  2
KICADB
  70
0
  40
0
  41
1
  42
1
  50
0
  71
0
  3
isocp.shx
  0
STYLE
  2
KICADI
  70
0
  40
0
  41
1
  42
1
  50
15
  71
0
  3
isocp.shx
  0
STYLE
  2
KICADBI
  70
0
  40
0
  41
1
  42
1
  50
15
  71
0
  3
isocp.shx
  0
ENDTAB
  0
TABLE
  2
LAYER
  70
1
  0
LAYER
  2
BLACK
  70
0
  62
7
  6
CONTINUOUS
  0
ENDTAB
  0
ENDSEC
  0
SECTION
  2
ENTITIES
0
LINE
8
BLACK
6
CONTINUOUS
10
0.4553126377952756
20
0.1031036614173228
11
0.456591062992126
21
0.1018252362204724
0
LINE
8
BLACK
6
CONTINUOUS
10
0.456591062992126
20
0.1018252362204724
11
0.456591062992126
21
0.1000172834645669
0
LINE
8
BLACK
6
CONTINUOUS
10
0.456591062992126
20
0.1000172834645669
11
0.4553126377952756
21
0.0987388582677165
0
LINE
8
BLACK
6
CONTINUOUS
10
0.4553126377952756
20
0.0987388582677165
11
0.4544086614173228
21
0.0985590551181102
0
LINE
8
BLACK
6
CONTINUOUS
10
0.4544086614173228
20
0.0985590551181102
11
0.4425897244094488
21
0.0985590551181102
0
LINE
8
BLACK
6
CONTINUOUS
10
0.4425897244094488
20
0.0985590551181102
11
0.4425897244094488
21
0.084244842519685
0
LINE
8
BLACK
6
CONTINUOUS
10
0.4425897244094488
20
0.084244842519685
11
0.4600462204724409
21
0.1017013385826772
0
LINE
8
BLACK
6
CONTINUOUS
10
0.4600462204724409
20
0.1017013385826772
11
0.4604936614173228
21
0.1020685433070866
0
LINE
8
BLACK
6
CONTINUOUS
10
0.4604936614173228
20
0.1020685433070866
11
0.4615580708661417
21
0.1025094488188976
0
LINE
8
BLACK
6
CONTINUOUS
10
0.4615580708661417
20
0.1025094488188976
11
0.462710157480315
21
0.1025094488188976
0
LINE
8
BLACK
6
CONTINUOUS
10
0.462710157480315
20
0.1025094488188976
11
0.4637746062992126
21
0.1020685433070866
0
LINE
8
BLACK
6
CONTINUOUS
10
0.4637746062992126
20
0.1020685433070866
11
0.4645892519685039
21
0.1012538976377953
0
LINE
8
BLACK
6
CONTINUOUS
10
0.4645892519685039
20
0.1012538976377953
11
0.465030157480315
21
0.1001894488188976
0
LINE
8
BLACK
6
CONTINUOUS
10
0.465030157480315
20
0.1001894488188976
11
0.465030157480315
21
0.0990373622047244
0
LINE
8
BLACK
6
CONTINUOUS
10
0.465030157480315
20
0.0990373622047244
11
0.4645892519685039
21
0.0979729527559055
0
LINE
8
BLACK
6
CONTINUOUS
10
0.4645892519685039
20
0.0979729527559055
11
0.4642220472440945
21
0.0975255118110236
0
LINE
8
BLACK
6
CONTINUOUS
10
0.4642220472440945
20
0.0975255118110236
11
0.44916
21
0.0824635039370079
0
LINE
8
BLACK
6
CONTINUOUS
10
0.44916
20
0.0824635039370079
11
0.4644963385826771
21
0.062015
0
LINE
8
BLACK
6
CONTINUOUS
10
0.4644963385826771
20
0.062015
11
0.4647966141732283
21
0.0615201181102362
0
LINE
8
BLACK
6
CONTINUOUS
10
0.4647966141732283
20
0.0615201181102362
11
0.4650825196850394
21
0.0604040157480315
0
LINE
8
BLACK
6
CONTINUOUS
10
0.4650825196850394
20
0.0604040157480315
11
0.4649195669291338
21
0.0592635433070866
0
LINE
8
BLACK
6
CONTINUOUS
10
0.4649195669291338
20
0.0592635433070866
11
0.4643325984251969
21
0.0582721653543307
0
LINE
8
BLACK
6
CONTINUOUS
10
0.4643325984251969
20
0.0582721653543307
11
0.463410905511811
21
0.0575808661417323
0
LINE
8
BLACK
6
CONTINUOUS
10
0.463410905511811
20
0.0575808661417323
11
0.4622948425196851
21
0.0572949606299213
0
LINE
8
BLACK
6
CONTINUOUS
10
0.4622948425196851
20
0.0572949606299213
11
0.4611543307086614
21
0.057457874015748
0
LINE
8
BLACK
6
CONTINUOUS
10
0.4611543307086614
20
0.057457874015748
11
0.4601629527559055
21
0.0580448818897638
0
LINE
8
BLACK
6
CONTINUOUS
10
0.4601629527559055
20
0.0580448818897638
11
0.4597719291338583
21
0.0584716929133858
0
LINE
8
BLACK
6
CONTINUOUS
10
0.4597719291338583
20
0.0584716929133858
11
0.4449417716535433
21
0.0782452755905512
0
LINE
8
BLACK
6
CONTINUOUS
10
0.4449417716535433
20
0.0782452755905512
11
0.4425897244094488
21
0.075893188976378
0
LINE
8
BLACK
6
CONTINUOUS
10
0.4425897244094488
20
0.075893188976378
11
0.4425897244094488
21
0.0602433464566929
0
LINE
8
BLACK
6
CONTINUOUS
10
0.4425897244094488
20
0.0602433464566929
11
0.4425329921259842
21
0.0596672834645669
0
LINE
8
BLACK
6
CONTINUOUS
10
0.4425329921259842
20
0.0596672834645669
11
0.4420920866141732
21
0.058602874015748
0
LINE
8
BLACK
6
CONTINUOUS
10
0.4420920866141732
20
0.058602874015748
11
0.4412774409448819
21
0.0577882283464567
0
LINE
8
BLACK
6
CONTINUOUS
10
0.4412774409448819
20
0.0577882283464567
11
0.440213031496063
21
0.0573473228346457
0
LINE
8
BLACK
6
CONTINUOUS
10
0.440213031496063
20
0.0573473228346457
11
0.439060905511811
21
0.0573473228346457
0
LINE
8
BLACK
6
CONTINUOUS
10
0.439060905511811
20
0.0573473228346457
11
0.4379964960629921
21
0.0577882283464567
0
LINE
8
BLACK
6
CONTINUOUS
10
0.4379964960629921
20
0.0577882283464567
11
0.4371818503937008
21
0.058602874015748
0
LINE
8
BLACK
6
CONTINUOUS
10
0.4371818503937008
20
0.058602874015748
11
0.4367409448818897
21
0.0596672834645669
0
LINE
8
BLACK
6
CONTINUOUS
10
0.4367409448818897
20
0.0596672834645669
11
0.4366842125984252
21
0.0602433464566929
0
LINE
8
BLACK
6
CONTINUOUS
10
0.4366842125984252
20
0.0602433464566929
11
0.4366842125984252
21
0.0996134251968504
0
LINE
8
BLACK
6
CONTINUOUS
10
0.4366842125984252
20
0.0996134251968504
11
0.4367409448818897
21
0.1001894881889764
0
LINE
8
BLACK
6
CONTINUOUS
10
0.4367409448818897
20
0.1001894881889764
11
0.4371818503937008
21
0.1012538976377953
0
LINE
8
BLACK
6
CONTINUOUS
10
0.4371818503937008
20
0.1012538976377953
11
0.4379964960629921
21
0.1020685433070866
0
LINE
8
BLACK
6
CONTINUOUS
10
0.4379964960629921
20
0.1020685433070866
11
0.439060905511811
21
0.1025094488188976
0
LINE
8
BLACK
6
CONTINUOUS
10
0.439060905511811
20
0.1025094488188976
11
0.4400931496062992
21
0.1025094488188976
0
LINE
8
BLACK
6
CONTINUOUS
10
0.4400931496062992
20
0.1025094488188976
11
0.4406873622047244
21
0.1031036614173228
0
LINE
8
BLACK
6
CONTINUOUS
10
0.4406873622047244
20
0.1031036614173228
11
0.4415913385826771
21
0.1032834645669291
0
LINE
8
BLACK
6
CONTINUOUS
10
0.4415913385826771
20
0.1032834645669291
11
0.4544086614173228
21
0.1032834645669291
0
LINE
8
BLACK
6
CONTINUOUS
10
0.4544086614173228
20
0.1032834645669291
11
0.4553126377952756
21
0.1031036614173228
0
LINE
8
BLACK
6
CONTINUOUS
10
0.3203662992125984
20
0.0827758661417323
11
0.3203662992125984
21
0.0808926377952756
0
LINE
8
BLACK
6
CONTINUOUS
10
0.3203662992125984
20
0.0808926377952756
11
0.319832874015748
21
0.0800943307086614
0
LINE
8
BLACK
6
CONTINUOUS
10
0.319832874015748
20
0.0800943307086614
11
0.3129054330708662
21
0.0731669291338583
0
LINE
8
BLACK
6
CONTINUOUS
10
0.3129054330708662
20
0.0731669291338583
11
0.3200614566929134
21
0.0636255905511811
0
LINE
8
BLACK
6
CONTINUOUS
10
0.3200614566929134
20
0.0636255905511811
11
0.3204765748031496
21
0.0627598818897638
0
LINE
8
BLACK
6
CONTINUOUS
10
0.3204765748031496
20
0.0627598818897638
11
0.3202102362204725
21
0.0608955511811024
0
LINE
8
BLACK
6
CONTINUOUS
10
0.3202102362204725
20
0.0608955511811024
11
0.3187036220472441
21
0.0597655905511811
0
LINE
8
BLACK
6
CONTINUOUS
10
0.3187036220472441
20
0.0597655905511811
11
0.3168392913385827
21
0.0600319291338583
0
LINE
8
BLACK
6
CONTINUOUS
10
0.3168392913385827
20
0.0600319291338583
11
0.3161244488188976
21
0.0606728346456693
0
LINE
8
BLACK
6
CONTINUOUS
10
0.3161244488188976
20
0.0606728346456693
11
0.3093902755905512
21
0.0696517716535433
0
LINE
8
BLACK
6
CONTINUOUS
10
0.3093902755905512
20
0.0696517716535433
11
0.309305
21
0.0695664566929134
0
LINE
8
BLACK
6
CONTINUOUS
10
0.309305
20
0.0695664566929134
11
0.309305
21
0.0621492125984252
0
LINE
8
BLACK
6
CONTINUOUS
10
0.309305
20
0.0621492125984252
11
0.3091176771653543
21
0.0612075590551181
0
LINE
8
BLACK
6
CONTINUOUS
10
0.3091176771653543
20
0.0612075590551181
11
0.3077860236220472
21
0.059875905511811
0
LINE
8
BLACK
6
CONTINUOUS
10
0.3077860236220472
20
0.059875905511811
11
0.3059027165354331
21
0.059875905511811
0
LINE
8
BLACK
6
CONTINUOUS
10
0.3059027165354331
20
0.059875905511811
11
0.304571062992126
21
0.0612075590551181
0
LINE
8
BLACK
6
CONTINUOUS
10
0.304571062992126
20
0.0612075590551181
11
0.3043837401574803
21
0.0621492125984252
0
LINE
8
BLACK
6
CONTINUOUS
10
0.3043837401574803
20
0.0621492125984252
11
0.3043837401574803
21
0.0818342519685039
0
LINE
8
BLACK
6
CONTINUOUS
10
0.3043837401574803
20
0.0818342519685039
11
0.304571062992126
21
0.082775905511811
0
LINE
8
BLACK
6
CONTINUOUS
10
0.304571062992126
20
0.082775905511811
11
0.3059027165354331
21
0.0841075590551181
0
LINE
8
BLACK
6
CONTINUOUS
10
0.3059027165354331
20
0.0841075590551181
11
0.3077860236220472
21
0.0841075590551181
0
LINE
8
BLACK
6
CONTINUOUS
10
0.3077860236220472
20
0.0841075590551181
11
0.3091176771653543
21
0.082775905511811
0
LINE
8
BLACK
6
CONTINUOUS
10
0.3091176771653543
20
0.082775905511811
11
0.309305
21
0.0818342519685039
0
LINE
8
BLACK
6
CONTINUOUS
10
0.309305
20
0.0818342519685039
11
0.309305
21
0.0765261417322835
0
LINE
8
BLACK
6
CONTINUOUS
10
0.309305
20
0.0765261417322835
11
0.316353031496063
21
0.0835741732283465
0
LINE
8
BLACK
6
CONTINUOUS
10
0.316353031496063
20
0.0835741732283465
11
0.3171513385826771
21
0.0841075984251968
0
LINE
8
BLACK
6
CONTINUOUS
10
0.3171513385826771
20
0.0841075984251968
11
0.3190345669291338
21
0.0841075984251968
0
LINE
8
BLACK
6
CONTINUOUS
10
0.3190345669291338
20
0.0841075984251968
11
0.3203662992125984
21
0.0827758661417323
0
LINE
8
BLACK
6
CONTINUOUS
10
0.2318722440944882
20
0.0849397637795276
11
0.2326122047244094
21
0.0846931102362205
0
LINE
8
BLACK
6
CONTINUOUS
10
0.2326122047244094
20
0.0846931102362205
11
0.2326944094488189
21
0.0845287007874016
0
LINE
8
BLACK
6
CONTINUOUS
10
0.2326944094488189
20
0.0845287007874016
11
0.2328588582677165
21
0.0844464566929134
0
LINE
8
BLACK
6
CONTINUOUS
10
0.2328588582677165
20
0.0844464566929134
11
0.2333343700787401
21
0.0836123622047244
0
LINE
8
BLACK
6
CONTINUOUS
10
0.2333343700787401
20
0.0836123622047244
11
0.239896062992126
21
0.0639273622047244
0
LINE
8
BLACK
6
CONTINUOUS
10
0.239896062992126
20
0.0639273622047244
11
0.2400161023622047
21
0.0629747637795276
0
LINE
8
BLACK
6
CONTINUOUS
10
0.2400161023622047
20
0.0629747637795276
11
0.2391738976377953
21
0.0612903543307087
0
LINE
8
BLACK
6
CONTINUOUS
10
0.2391738976377953
20
0.0612903543307087
11
0.2373872440944882
21
0.0606948031496063
0
LINE
8
BLACK
6
CONTINUOUS
10
0.2373872440944882
20
0.0606948031496063
11
0.2357028346456693
21
0.0615370078740157
0
LINE
8
BLACK
6
CONTINUOUS
10
0.2357028346456693
20
0.0615370078740157
11
0.2352273228346457
21
0.0623711023622047
0
LINE
8
BLACK
6
CONTINUOUS
10
0.2352273228346457
20
0.0623711023622047
11
0.2339133858267717
21
0.066312874015748
0
LINE
8
BLACK
6
CONTINUOUS
10
0.2339133858267717
20
0.066312874015748
11
0.2280866535433071
21
0.066312874015748
0
LINE
8
BLACK
6
CONTINUOUS
10
0.2280866535433071
20
0.066312874015748
11
0.2267727165354331
21
0.0623711023622047
0
LINE
8
BLACK
6
CONTINUOUS
10
0.2267727165354331
20
0.0623711023622047
11
0.2262972047244095
21
0.0615370078740157
0
LINE
8
BLACK
6
CONTINUOUS
10
0.2262972047244095
20
0.0615370078740157
11
0.2246127952755906
21
0.0606948031496063
0
LINE
8
BLACK
6
CONTINUOUS
10
0.2246127952755906
20
0.0606948031496063
11
0.2228261417322835
21
0.0612903543307087
0
LINE
8
BLACK
6
CONTINUOUS
10
0.2228261417322835
20
0.0612903543307087
11
0.221983937007874
21
0.0629747637795276
0
LINE
8
BLACK
6
CONTINUOUS
10
0.221983937007874
20
0.0629747637795276
11
0.2221039763779528
21
0.0639273228346457
0
LINE
8
BLACK
6
CONTINUOUS
10
0.2221039763779528
20
0.0639273228346457
11
0.2286656299212598
21
0.0836123622047244
0
LINE
8
BLACK
6
CONTINUOUS
10
0.2286656299212598
20
0.0836123622047244
11
0.2291411417322834
21
0.0844464566929134
0
LINE
8
BLACK
6
CONTINUOUS
10
0.2291411417322834
20
0.0844464566929134
11
0.2293055511811024
21
0.0845287007874016
0
LINE
8
BLACK
6
CONTINUOUS
10
0.2293055511811024
20
0.0845287007874016
11
0.2293877952755906
21
0.0846931102362205
0
LINE
8
BLACK
6
CONTINUOUS
10
0.2293877952755906
20
0.0846931102362205
11
0.2301277559055118
21
0.0849397637795276
0
LINE
8
BLACK
6
CONTINUOUS
10
0.2301277559055118
20
0.0849397637795276
11
0.2308255511811023
21
0.0852886614173228
0
LINE
8
BLACK
6
CONTINUOUS
10
0.2308255511811023
20
0.0852886614173228
11
0.231
21
0.0852305118110236
0
LINE
8
BLACK
6
CONTINUOUS
10
0.231
20
0.0852305118110236
11
0.2311744488188976
21
0.0852886614173228
0
LINE
8
BLACK
6
CONTINUOUS
10
0.2311744488188976
20
0.0852886614173228
11
0.2318722440944882
21
0.0849397637795276
0
LINE
8
BLACK
6
CONTINUOUS
10
0.2297270472440945
20
0.0712341338582677
11
0.2322729921259842
21
0.0712341338582677
0
LINE
8
BLACK
6
CONTINUOUS
10
0.2322729921259842
20
0.0712341338582677
11
0.231
21
0.075053031496063
0
LINE
8
BLACK
6
CONTINUOUS
10
0.231
20
0.075053031496063
11
0.2297270472440945
21
0.0712341338582677
0
LINE
8
BLACK
6
CONTINUOUS
10
0.250576062992126
20
0.1548960236220472
11
0.2516404724409449
21
0.1544551181102362
0
LINE
8
BLACK
6
CONTINUOUS
10
0.2516404724409449
20
0.1544551181102362
11
0.2524551181102362
21
0.1536404724409449
0
LINE
8
BLACK
6
CONTINUOUS
10
0.2524551181102362
20
0.1536404724409449
11
0.2528960236220472
21
0.152576062992126
0
LINE
8
BLACK
6
CONTINUOUS
10
0.2528960236220472
20
0.152576062992126
11
0.2528960236220472
21
0.151423937007874
0
LINE
8
BLACK
6
CONTINUOUS
10
0.2528960236220472
20
0.151423937007874
11
0.2524551181102362
21
0.1503595275590551
0
LINE
8
BLACK
6
CONTINUOUS
10
0.2524551181102362
20
0.1503595275590551
11
0.2516404724409449
21
0.1495448818897638
0
LINE
8
BLACK
6
CONTINUOUS
10
0.2516404724409449
20
0.1495448818897638
11
0.250576062992126
21
0.1491039763779528
0
LINE
8
BLACK
6
CONTINUOUS
10
0.250576062992126
20
0.1491039763779528
11
0.25
21
0.1490472440944882
0
LINE
8
BLACK
6
CONTINUOUS
10
0.25
20
0.1490472440944882
11
0.2129527559055118
21
0.1490472440944882
0
LINE
8
BLACK
6
CONTINUOUS
10
0.2129527559055118
20
0.1490472440944882
11
0.2129527559055118
21
0.0949527559055118
0
LINE
8
BLACK
6
CONTINUOUS
10
0.2129527559055118
20
0.0949527559055118
11
0.25
21
0.0949527559055118
0
LINE
8
BLACK
6
CONTINUOUS
10
0.25
20
0.0949527559055118
11
0.250576062992126
21
0.0948960236220472
0
LINE
8
BLACK
6
CONTINUOUS
10
0.250576062992126
20
0.0948960236220472
11
0.2516404724409449
21
0.0944551181102362
0
LINE
8
BLACK
6
CONTINUOUS
10
0.2516404724409449
20
0.0944551181102362
11
0.2524551181102362
21
0.0936404724409449
0
LINE
8
BLACK
6
CONTINUOUS
10
0.2524551181102362
20
0.0936404724409449
11
0.2528960236220472
21
0.092576062992126
0
LINE
8
BLACK
6
CONTINUOUS
10
0.2528960236220472
20
0.092576062992126
11
0.2528960236220472
21
0.091423937007874
0
LINE
8
BLACK
6
CONTINUOUS
10
0.2528960236220472
20
0.091423937007874
11
0.2524551181102362
21
0.0903595275590551
0
LINE
8
BLACK
6
CONTINUOUS
10
0.2524551181102362
20
0.0903595275590551
11
0.2516404724409449
21
0.0895448818897638
0
LINE
8
BLACK
6
CONTINUOUS
10
0.2516404724409449
20
0.0895448818897638
11
0.250576062992126
21
0.0891039763779528
0
LINE
8
BLACK
6
CONTINUOUS
10
0.250576062992126
20
0.0891039763779528
11
0.25
21
0.0890472440944882
0
LINE
8
BLACK
6
CONTINUOUS
10
0.25
20
0.0890472440944882
11
0.2122195275590551
21
0.0890472440944882
0
LINE
8
BLACK
6
CONTINUOUS
10
0.2122195275590551
20
0.0890472440944882
11
0.2116124803149606
21
0.0875816929133858
0
LINE
8
BLACK
6
CONTINUOUS
10
0.2116124803149606
20
0.0875816929133858
11
0.2094183070866142
21
0.0853875196850394
0
LINE
8
BLACK
6
CONTINUOUS
10
0.2094183070866142
20
0.0853875196850394
11
0.2065514960629921
21
0.0842000393700787
0
LINE
8
BLACK
6
CONTINUOUS
10
0.2065514960629921
20
0.0842000393700787
11
0.2034485039370079
21
0.0842000393700787
0
LINE
8
BLACK
6
CONTINUOUS
10
0.2034485039370079
20
0.0842000393700787
11
0.2005816929133858
21
0.0853875196850394
0
LINE
8
BLACK
6
CONTINUOUS
10
0.2005816929133858
20
0.0853875196850394
11
0.1983875196850394
21
0.0875816929133858
0
LINE
8
BLACK
6
CONTINUOUS
10
0.1983875196850394
20
0.0875816929133858
11
0.1972000393700787
21
0.0904485039370079
0
LINE
8
BLACK
6
CONTINUOUS
10
0.1972000393700787
20
0.0904485039370079
11
0.1972000393700787
21
0.0928479921259843
0
LINE
8
BLACK
6
CONTINUOUS
10
0.1972000393700787
20
0.0928479921259843
11
0.1972000393700787
21
0.0935514960629921
0
LINE
8
BLACK
6
CONTINUOUS
10
0.1972000393700787
20
0.0935514960629921
11
0.1983875196850394
21
0.0964183070866142
0
LINE
8
BLACK
6
CONTINUOUS
10
0.1983875196850394
20
0.0964183070866142
11
0.2005816929133858
21
0.0986124803149606
0
LINE
8
BLACK
6
CONTINUOUS
10
0.2005816929133858
20
0.0986124803149606
11
0.2034485039370079
21
0.0997999606299213
0
LINE
8
BLACK
6
CONTINUOUS
10
0.2034485039370079
20
0.0997999606299213
11
0.2065514960629921
21
0.0997999606299213
0
LINE
8
BLACK
6
CONTINUOUS
10
0.2065514960629921
20
0.0997999606299213
11
0.2070472440944882
21
0.0995946456692913
0
LINE
8
BLACK
6
CONTINUOUS
10
0.2070472440944882
20
0.0995946456692913
11
0.2070472440944882
21
0.152
0
LINE
8
BLACK
6
CONTINUOUS
10
0.2070472440944882
20
0.152
11
0.2071039763779527
21
0.152576062992126
0
LINE
8
BLACK
6
CONTINUOUS
10
0.2071039763779527
20
0.152576062992126
11
0.2075448818897638
21
0.1536404724409449
0
LINE
8
BLACK
6
CONTINUOUS
10
0.2075448818897638
20
0.1536404724409449
11
0.2083595275590551
21
0.1544551181102362
0
LINE
8
BLACK
6
CONTINUOUS
10
0.2083595275590551
20
0.1544551181102362
11
0.209423937007874
21
0.1548960236220472
0
LINE
8
BLACK
6
CONTINUOUS
10
0.209423937007874
20
0.1548960236220472
11
0.21
21
0.1549527559055118
0
LINE
8
BLACK
6
CONTINUOUS
10
0.21
20
0.1549527559055118
11
0.25
21
0.1549527559055118
0
LINE
8
BLACK
6
CONTINUOUS
10
0.25
20
0.1549527559055118
11
0.250576062992126
21
0.1548960236220472
0
LINE
8
BLACK
6
CONTINUOUS
10
0.2029527559055118
20
0.0911520078740157
11
0.2041520078740157
21
0.0899527559055118
0
LINE
8
BLACK
6
CONTINUOUS
10
0.2041520078740157
20
0.0899527559055118
11
0.2058479921259843
21
0.0899527559055118
0
LINE
8
BLACK
6
CONTINUOUS
10
0.2058479921259843
20
0.0899527559055118
11
0.2070472440944882
21
0.0911520078740157
0
LINE
8
BLACK
6
CONTINUOUS
10
0.2070472440944882
20
0.0911520078740157
11
0.2070472440944882
21
0.0928479921259843
0
LINE
8
BLACK
6
CONTINUOUS
10
0.2070472440944882
20
0.0928479921259843
11
0.2058479921259843
21
0.0940472440944882
0
LINE
8
BLACK
6
CONTINUOUS
10
0.2058479921259843
20
0.0940472440944882
11
0.2041520078740157
21
0.0940472440944882
0
LINE
8
BLACK
6
CONTINUOUS
10
0.2041520078740157
20
0.0940472440944882
11
0.2029527559055118
21
0.0928479921259843
0
LINE
8
BLACK
6
CONTINUOUS
10
0.2029527559055118
20
0.0928479921259843
11
0.2029527559055118
21
0.0911520078740157
0
LINE
8
BLACK
6
CONTINUOUS
10
0.330576062992126
20
0.1548960236220472
11
0.3316404724409449
21
0.1544551181102362
0
LINE
8
BLACK
6
CONTINUOUS
10
0.3316404724409449
20
0.1544551181102362
11
0.3324551181102362
21
0.1536404724409449
0
LINE
8
BLACK
6
CONTINUOUS
10
0.3324551181102362
20
0.1536404724409449
11
0.3328960236220472
21
0.152576062992126
0
LINE
8
BLACK
6
CONTINUOUS
10
0.3328960236220472
20
0.152576062992126
11
0.3329527559055118
21
0.152
0
LINE
8
BLACK
6
CONTINUOUS
10
0.3329527559055118
20
0.152
11
0.3329527559055118
21
0.092
0
LINE
8
BLACK
6
CONTINUOUS
10
0.3329527559055118
20
0.092
11
0.3328960236220472
21
0.091423937007874
0
LINE
8
BLACK
6
CONTINUOUS
10
0.3328960236220472
20
0.091423937007874
11
0.3324551181102362
21
0.0903595275590551
0
LINE
8
BLACK
6
CONTINUOUS
10
0.3324551181102362
20
0.0903595275590551
11
0.3316404724409449
21
0.0895448818897638
0
LINE
8
BLACK
6
CONTINUOUS
10
0.3316404724409449
20
0.0895448818897638
11
0.330576062992126
21
0.0891039763779528
0
LINE
8
BLACK
6
CONTINUOUS
10
0.330576062992126
20
0.0891039763779528
11
0.33
21
0.0890472440944882
0
LINE
8
BLACK
6
CONTINUOUS
10
0.33
20
0.0890472440944882
11
0.29
21
0.0890472440944882
0
LINE
8
BLACK
6
CONTINUOUS
10
0.29
20
0.0890472440944882
11
0.289423937007874
21
0.0891039763779528
0
LINE
8
BLACK
6
CONTINUOUS
10
0.289423937007874
20
0.0891039763779528
11
0.2883595275590551
21
0.0895448818897638
0
LINE
8
BLACK
6
CONTINUOUS
10
0.2883595275590551
20
0.0895448818897638
11
0.2875448818897638
21
0.0903595275590551
0
LINE
8
BLACK
6
CONTINUOUS
10
0.2875448818897638
20
0.0903595275590551
11
0.2871039763779528
21
0.091423937007874
0
LINE
8
BLACK
6
CONTINUOUS
10
0.2871039763779528
20
0.091423937007874
11
0.2871039763779528
21
0.092576062992126
0
LINE
8
BLACK
6
CONTINUOUS
10
0.2871039763779528
20
0.092576062992126
11
0.2875448818897638
21
0.0936404724409449
0
LINE
8
BLACK
6
CONTINUOUS
10
0.2875448818897638
20
0.0936404724409449
11
0.2883595275590551
21
0.0944551181102362
0
LINE
8
BLACK
6
CONTINUOUS
10
0.2883595275590551
20
0.0944551181102362
11
0.289423937007874
21
0.0948960236220472
0
LINE
8
BLACK
6
CONTINUOUS
10
0.289423937007874
20
0.0948960236220472
11
0.29
21
0.0949527559055118
0
LINE
8
BLACK
6
CONTINUOUS
10
0.29
20
0.0949527559055118
11
0.3270472440944882
21
0.0949527559055118
0
LINE
8
BLACK
6
CONTINUOUS
10
0.3270472440944882
20
0.0949527559055118
11
0.3270472440944882
21
0.1490472440944882
0
LINE
8
BLACK
6
CONTINUOUS
10
0.3270472440944882
20
0.1490472440944882
11
0.29
21
0.1490472440944882
0
LINE
8
BLACK
6
CONTINUOUS
10
0.29
20
0.1490472440944882
11
0.289423937007874
21
0.1491039763779528
0
LINE
8
BLACK
6
CONTINUOUS
10
0.289423937007874
20
0.1491039763779528
11
0.2883595275590551
21
0.1495448818897638
0
LINE
8
BLACK
6
CONTINUOUS
10
0.2883595275590551
20
0.1495448818897638
11
0.2875448818897638
21
0.1503595275590551
0
LINE
8
BLACK
6
CONTINUOUS
10
0.2875448818897638
20
0.1503595275590551
11
0.2871039763779528
21
0.151423937007874
0
LINE
8
BLACK
6
CONTINUOUS
10
0.2871039763779528
20
0.151423937007874
11
0.2871039763779528
21
0.152576062992126
0
LINE
8
BLACK
6
CONTINUOUS
10
0.2871039763779528
20
0.152576062992126
11
0.2875448818897638
21
0.1536404724409449
0
LINE
8
BLACK
6
CONTINUOUS
10
0.2875448818897638
20
0.1536404724409449
11
0.2883595275590551
21
0.1544551181102362
0
LINE
8
BLACK
6
CONTINUOUS
10
0.2883595275590551
20
0.1544551181102362
11
0.289423937007874
21
0.1548960236220472
0
LINE
8
BLACK
6
CONTINUOUS
10
0.289423937007874
20
0.1548960236220472
11
0.29
21
0.1549527559055118
0
LINE
8
BLACK
6
CONTINUOUS
10
0.29
20
0.1549527559055118
11
0.33
21
0.1549527559055118
0
LINE
8
BLACK
6
CONTINUOUS
10
0.33
20
0.1549527559055118
11
0.330576062992126
21
0.1548960236220472
0
LINE
8
BLACK
6
CONTINUOUS
10
0.255918031496063
20
0.1442749606299213
11
0.256396062992126
21
0.1439485433070866
0
LINE
8
BLACK
6
CONTINUOUS
10
0.256396062992126
20
0.1439485433070866
11
0.2790472440944882
21
0.1249745669291339
0
LINE
8
BLACK
6
CONTINUOUS
10
0.2790472440944882
20
0.1249745669291339
11
0.2790472440944882
21
0.1416850393700787
0
LINE
8
BLACK
6
CONTINUOUS
10
0.2790472440944882
20
0.1416850393700787
11
0.2791039763779528
21
0.1422611023622047
0
LINE
8
BLACK
6
CONTINUOUS
10
0.2791039763779528
20
0.1422611023622047
11
0.2795448818897638
21
0.1433255118110236
0
LINE
8
BLACK
6
CONTINUOUS
10
0.2795448818897638
20
0.1433255118110236
11
0.2803595275590551
21
0.1441401574803149
0
LINE
8
BLACK
6
CONTINUOUS
10
0.2803595275590551
20
0.1441401574803149
11
0.281423937007874
21
0.144581062992126
0
LINE
8
BLACK
6
CONTINUOUS
10
0.281423937007874
20
0.144581062992126
11
0.282576062992126
21
0.144581062992126
0
LINE
8
BLACK
6
CONTINUOUS
10
0.282576062992126
20
0.144581062992126
11
0.2836404724409449
21
0.1441401574803149
0
LINE
8
BLACK
6
CONTINUOUS
10
0.2836404724409449
20
0.1441401574803149
11
0.2844551181102362
21
0.1433255118110236
0
LINE
8
BLACK
6
CONTINUOUS
10
0.2844551181102362
20
0.1433255118110236
11
0.2848960236220472
21
0.1422611023622047
0
LINE
8
BLACK
6
CONTINUOUS
10
0.2848960236220472
20
0.1422611023622047
11
0.2849527559055118
21
0.1416850393700787
0
LINE
8
BLACK
6
CONTINUOUS
10
0.2849527559055118
20
0.1416850393700787
11
0.2849527559055118
21
0.1023149606299213
0
LINE
8
BLACK
6
CONTINUOUS
10
0.2849527559055118
20
0.1023149606299213
11
0.2848960236220472
21
0.1017388976377953
0
LINE
8
BLACK
6
CONTINUOUS
10
0.2848960236220472
20
0.1017388976377953
11
0.2844551181102362
21
0.1006744881889764
0
LINE
8
BLACK
6
CONTINUOUS
10
0.2844551181102362
20
0.1006744881889764
11
0.2836404724409449
21
0.099859842519685
0
LINE
8
BLACK
6
CONTINUOUS
10
0.2836404724409449
20
0.099859842519685
11
0.282576062992126
21
0.099418937007874
0
LINE
8
BLACK
6
CONTINUOUS
10
0.282576062992126
20
0.099418937007874
11
0.281423937007874
21
0.099418937007874
0
LINE
8
BLACK
6
CONTINUOUS
10
0.281423937007874
20
0.099418937007874
11
0.2803595275590551
21
0.099859842519685
0
LINE
8
BLACK
6
CONTINUOUS
10
0.2803595275590551
20
0.099859842519685
11
0.2795448818897638
21
0.1006744881889764
0
LINE
8
BLACK
6
CONTINUOUS
10
0.2795448818897638
20
0.1006744881889764
11
0.2791039763779528
21
0.1017388976377953
0
LINE
8
BLACK
6
CONTINUOUS
10
0.2791039763779528
20
0.1017388976377953
11
0.2790472440944882
21
0.1023149606299213
0
LINE
8
BLACK
6
CONTINUOUS
10
0.2790472440944882
20
0.1023149606299213
11
0.2790472440944882
21
0.1190400393700787
0
LINE
8
BLACK
6
CONTINUOUS
10
0.2790472440944882
20
0.1190400393700787
11
0.2558725590551181
21
0.1000319291338583
0
LINE
8
BLACK
6
CONTINUOUS
10
0.2558725590551181
20
0.1000319291338583
11
0.2556919291338582
21
0.0999113385826772
0
LINE
8
BLACK
6
CONTINUOUS
10
0.2556919291338582
20
0.0999113385826772
11
0.2556404724409449
21
0.099859842519685
0
LINE
8
BLACK
6
CONTINUOUS
10
0.2556404724409449
20
0.099859842519685
11
0.2555729921259842
21
0.0998319291338583
0
LINE
8
BLACK
6
CONTINUOUS
10
0.2555729921259842
20
0.0998319291338583
11
0.2553911811023622
21
0.0997104724409449
0
LINE
8
BLACK
6
CONTINUOUS
10
0.2553911811023622
20
0.0997104724409449
11
0.2549764566929134
21
0.0995848031496063
0
LINE
8
BLACK
6
CONTINUOUS
10
0.2549764566929134
20
0.0995848031496063
11
0.254576062992126
21
0.099418937007874
0
LINE
8
BLACK
6
CONTINUOUS
10
0.254576062992126
20
0.099418937007874
11
0.2544291338582677
21
0.099418937007874
0
LINE
8
BLACK
6
CONTINUOUS
10
0.2544291338582677
20
0.099418937007874
11
0.2542885826771654
21
0.0993763385826772
0
LINE
8
BLACK
6
CONTINUOUS
10
0.2542885826771654
20
0.0993763385826772
11
0.2538574015748031
21
0.099418937007874
0
LINE
8
BLACK
6
CONTINUOUS
10
0.2538574015748031
20
0.099418937007874
11
0.253423937007874
21
0.099418937007874
0
LINE
8
BLACK
6
CONTINUOUS
10
0.253423937007874
20
0.099418937007874
11
0.2532881496062992
21
0.0994751968503937
0
LINE
8
BLACK
6
CONTINUOUS
10
0.2532881496062992
20
0.0994751968503937
11
0.2531420866141732
21
0.0994896062992126
0
LINE
8
BLACK
6
CONTINUOUS
10
0.2531420866141732
20
0.0994896062992126
11
0.2527599606299212
21
0.0996939763779528
0
LINE
8
BLACK
6
CONTINUOUS
10
0.2527599606299212
20
0.0996939763779528
11
0.2523595275590551
21
0.099859842519685
0
LINE
8
BLACK
6
CONTINUOUS
10
0.2523595275590551
20
0.099859842519685
11
0.2522557086614173
21
0.0999636614173228
0
LINE
8
BLACK
6
CONTINUOUS
10
0.2522557086614173
20
0.0999636614173228
11
0.2521261417322835
21
0.1000329527559055
0
LINE
8
BLACK
6
CONTINUOUS
10
0.2521261417322835
20
0.1000329527559055
11
0.251851220472441
21
0.1003681496062992
0
LINE
8
BLACK
6
CONTINUOUS
10
0.251851220472441
20
0.1003681496062992
11
0.2515448818897638
21
0.1006744881889764
0
LINE
8
BLACK
6
CONTINUOUS
10
0.2515448818897638
20
0.1006744881889764
11
0.2514886614173228
21
0.1008102362204724
0
LINE
8
BLACK
6
CONTINUOUS
10
0.2514886614173228
20
0.1008102362204724
11
0.2513955118110236
21
0.1009237795275591
0
LINE
8
BLACK
6
CONTINUOUS
10
0.2513955118110236
20
0.1009237795275591
11
0.2512698031496063
21
0.1013385039370079
0
LINE
8
BLACK
6
CONTINUOUS
10
0.2512698031496063
20
0.1013385039370079
11
0.2511039763779527
21
0.1017388976377953
0
LINE
8
BLACK
6
CONTINUOUS
10
0.2511039763779527
20
0.1017388976377953
11
0.2510825196850394
21
0.1019565748031496
0
LINE
8
BLACK
6
CONTINUOUS
10
0.2510825196850394
20
0.1019565748031496
11
0.2510613779527559
21
0.1020263779527559
0
LINE
8
BLACK
6
CONTINUOUS
10
0.2510613779527559
20
0.1020263779527559
11
0.2510685039370079
21
0.1020988188976378
0
LINE
8
BLACK
6
CONTINUOUS
10
0.2510685039370079
20
0.1020988188976378
11
0.2510472440944882
21
0.1023149606299213
0
LINE
8
BLACK
6
CONTINUOUS
10
0.2510472440944882
20
0.1023149606299213
11
0.2510472440944882
21
0.1416850393700787
0
LINE
8
BLACK
6
CONTINUOUS
10
0.2510472440944882
20
0.1416850393700787
11
0.2511039763779527
21
0.1422611023622047
0
LINE
8
BLACK
6
CONTINUOUS
10
0.2511039763779527
20
0.1422611023622047
11
0.2515448818897638
21
0.1433255118110236
0
LINE
8
BLACK
6
CONTINUOUS
10
0.2515448818897638
20
0.1433255118110236
11
0.2523595275590551
21
0.1441401574803149
0
LINE
8
BLACK
6
CONTINUOUS
10
0.2523595275590551
20
0.1441401574803149
11
0.253423937007874
21
0.144581062992126
0
LINE
8
BLACK
6
CONTINUOUS
10
0.253423937007874
20
0.144581062992126
11
0.2543728346456693
21
0.144581062992126
0
LINE
8
BLACK
6
CONTINUOUS
10
0.2543728346456693
20
0.144581062992126
11
0.2548189763779528
21
0.1446204724409449
0
LINE
8
BLACK
6
CONTINUOUS
10
0.2548189763779528
20
0.1446204724409449
11
0.255918031496063
21
0.1442749606299213
0
LINE
8
BLACK
6
CONTINUOUS
10
0.2569527559055118
20
0.1085557874015748
11
0.2733731102362205
21
0.122023937007874
0
LINE
8
BLACK
6
CONTINUOUS
10
0.2733731102362205
20
0.122023937007874
11
0.2569527559055118
21
0.1357786220472441
0
LINE
8
BLACK
6
CONTINUOUS
10
0.2569527559055118
20
0.1357786220472441
11
0.2569527559055118
21
0.1085557874015748
0
LINE
8
BLACK
6
CONTINUOUS
10
0.1824554724409449
20
0.2112872834645669
11
0.182665905511811
21
0.2112723228346457
0
LINE
8
BLACK
6
CONTINUOUS
10
0.182665905511811
20
0.2112723228346457
11
0.1829970078740157
21
0.2111067716535433
0
LINE
8
BLACK
6
CONTINUOUS
10
0.1829970078740157
20
0.2111067716535433
11
0.1833482677165354
21
0.2109896850393701
0
LINE
8
BLACK
6
CONTINUOUS
10
0.1833482677165354
20
0.2109896850393701
11
0.1835075984251968
21
0.2108514960629921
0
LINE
8
BLACK
6
CONTINUOUS
10
0.1835075984251968
20
0.2108514960629921
11
0.1836963385826772
21
0.210757125984252
0
LINE
8
BLACK
6
CONTINUOUS
10
0.1836963385826772
20
0.210757125984252
11
0.1839389763779528
21
0.2104774015748032
0
LINE
8
BLACK
6
CONTINUOUS
10
0.1839389763779528
20
0.2104774015748032
11
0.1842186614173228
21
0.2102348031496063
0
LINE
8
BLACK
6
CONTINUOUS
10
0.1842186614173228
20
0.2102348031496063
11
0.1843129527559055
21
0.2100461811023622
0
LINE
8
BLACK
6
CONTINUOUS
10
0.1843129527559055
20
0.2100461811023622
11
0.1844512204724409
21
0.2098867716535433
0
LINE
8
BLACK
6
CONTINUOUS
10
0.1844512204724409
20
0.2098867716535433
11
0.1846872047244094
21
0.209358188976378
0
LINE
8
BLACK
6
CONTINUOUS
10
0.1846872047244094
20
0.209358188976378
11
0.1978105511811024
21
0.1699881102362205
0
LINE
8
BLACK
6
CONTINUOUS
10
0.1978105511811024
20
0.1699881102362205
11
0.1979388976377953
21
0.1694237007874016
0
LINE
8
BLACK
6
CONTINUOUS
10
0.1979388976377953
20
0.1694237007874016
11
0.1978572047244095
21
0.1682744881889764
0
LINE
8
BLACK
6
CONTINUOUS
10
0.1978572047244095
20
0.1682744881889764
11
0.1973420078740157
21
0.1672440157480315
0
LINE
8
BLACK
6
CONTINUOUS
10
0.1973420078740157
20
0.1672440157480315
11
0.1964716141732283
21
0.1664891338582677
0
LINE
8
BLACK
6
CONTINUOUS
10
0.1964716141732283
20
0.1664891338582677
11
0.1953786220472441
21
0.1661248031496063
0
LINE
8
BLACK
6
CONTINUOUS
10
0.1953786220472441
20
0.1661248031496063
11
0.1942294094488189
21
0.1662064960629921
0
LINE
8
BLACK
6
CONTINUOUS
10
0.1942294094488189
20
0.1662064960629921
11
0.1931989763779527
21
0.1667217322834646
0
LINE
8
BLACK
6
CONTINUOUS
10
0.1931989763779527
20
0.1667217322834646
11
0.192444094488189
21
0.1675920866141732
0
LINE
8
BLACK
6
CONTINUOUS
10
0.192444094488189
20
0.1675920866141732
11
0.1922081102362205
21
0.1681206299212598
0
LINE
8
BLACK
6
CONTINUOUS
10
0.1922081102362205
20
0.1681206299212598
11
0.1891315748031496
21
0.1773502362204724
0
LINE
8
BLACK
6
CONTINUOUS
10
0.1891315748031496
20
0.1773502362204724
11
0.1868110236220472
21
0.1773502362204724
0
LINE
8
BLACK
6
CONTINUOUS
10
0.1868110236220472
20
0.1773502362204724
11
0.1868110236220472
21
0.1285433070866142
0
LINE
8
BLACK
6
CONTINUOUS
10
0.1868110236220472
20
0.1285433070866142
11
0.1866312204724409
21
0.1276393307086614
0
LINE
8
BLACK
6
CONTINUOUS
10
0.1866312204724409
20
0.1276393307086614
11
0.1853527952755905
21
0.126360905511811
0
LINE
8
BLACK
6
CONTINUOUS
10
0.1853527952755905
20
0.126360905511811
11
0.1844488188976378
21
0.1261811023622047
0
LINE
8
BLACK
6
CONTINUOUS
10
0.1844488188976378
20
0.1261811023622047
11
0.1273622047244095
21
0.1261811023622047
0
LINE
8
BLACK
6
CONTINUOUS
10
0.1273622047244095
20
0.1261811023622047
11
0.1264582283464567
21
0.126360905511811
0
LINE
8
BLACK
6
CONTINUOUS
10
0.1264582283464567
20
0.126360905511811
11
0.1251798031496063
21
0.1276393307086614
0
LINE
8
BLACK
6
CONTINUOUS
10
0.1251798031496063
20
0.1276393307086614
11
0.1251798031496063
21
0.1294472834645669
0
LINE
8
BLACK
6
CONTINUOUS
10
0.1251798031496063
20
0.1294472834645669
11
0.1264582283464567
21
0.1307257086614173
0
LINE
8
BLACK
6
CONTINUOUS
10
0.1264582283464567
20
0.1307257086614173
11
0.1273622047244095
21
0.1309055118110236
0
LINE
8
BLACK
6
CONTINUOUS
10
0.1273622047244095
20
0.1309055118110236
11
0.1820866141732284
21
0.1309055118110236
0
LINE
8
BLACK
6
CONTINUOUS
10
0.1820866141732284
20
0.1309055118110236
11
0.1820866141732284
21
0.1773502362204724
0
LINE
8
BLACK
6
CONTINUOUS
10
0.1820866141732284
20
0.1773502362204724
11
0.1746403937007874
21
0.1773502362204724
0
LINE
8
BLACK
6
CONTINUOUS
10
0.1746403937007874
20
0.1773502362204724
11
0.1715638582677165
21
0.1681206299212598
0
LINE
8
BLACK
6
CONTINUOUS
10
0.1715638582677165
20
0.1681206299212598
11
0.171327874015748
21
0.1675920472440945
0
LINE
8
BLACK
6
CONTINUOUS
10
0.171327874015748
20
0.1675920472440945
11
0.1705729921259843
21
0.1667216929133858
0
LINE
8
BLACK
6
CONTINUOUS
10
0.1705729921259843
20
0.1667216929133858
11
0.1695425590551181
21
0.1662064960629921
0
LINE
8
BLACK
6
CONTINUOUS
10
0.1695425590551181
20
0.1662064960629921
11
0.1683933464566929
21
0.1661248031496063
0
LINE
8
BLACK
6
CONTINUOUS
10
0.1683933464566929
20
0.1661248031496063
11
0.1673003149606299
21
0.1664891338582677
0
LINE
8
BLACK
6
CONTINUOUS
10
0.1673003149606299
20
0.1664891338582677
11
0.1664299606299213
21
0.1672440157480315
0
LINE
8
BLACK
6
CONTINUOUS
10
0.1664299606299213
20
0.1672440157480315
11
0.1659147637795275
21
0.1682744488188976
0
LINE
8
BLACK
6
CONTINUOUS
10
0.1659147637795275
20
0.1682744488188976
11
0.1658330708661417
21
0.1694236614173228
0
LINE
8
BLACK
6
CONTINUOUS
10
0.1658330708661417
20
0.1694236614173228
11
0.1659614173228346
21
0.1699881102362205
0
LINE
8
BLACK
6
CONTINUOUS
10
0.1659614173228346
20
0.1699881102362205
11
0.1790847637795276
21
0.209358188976378
0
LINE
8
BLACK
6
CONTINUOUS
10
0.1790847637795276
20
0.209358188976378
11
0.1793207480314961
21
0.2098867322834645
0
LINE
8
BLACK
6
CONTINUOUS
10
0.1793207480314961
20
0.2098867322834645
11
0.179458937007874
21
0.2100461023622047
0
LINE
8
BLACK
6
CONTINUOUS
10
0.179458937007874
20
0.2100461023622047
11
0.1795533070866142
21
0.2102348031496063
0
LINE
8
BLACK
6
CONTINUOUS
10
0.1795533070866142
20
0.2102348031496063
11
0.1798331496062992
21
0.2104775590551181
0
LINE
8
BLACK
6
CONTINUOUS
10
0.1798331496062992
20
0.2104775590551181
11
0.1800756299212598
21
0.2107570866141732
0
LINE
8
BLACK
6
CONTINUOUS
10
0.1800756299212598
20
0.2107570866141732
11
0.1802641732283465
21
0.2108513779527559
0
LINE
8
BLACK
6
CONTINUOUS
10
0.1802641732283465
20
0.2108513779527559
11
0.1804236614173228
21
0.2109896850393701
0
LINE
8
BLACK
6
CONTINUOUS
10
0.1804236614173228
20
0.2109896850393701
11
0.1807750393700787
21
0.2111068110236221
0
LINE
8
BLACK
6
CONTINUOUS
10
0.1807750393700787
20
0.2111068110236221
11
0.181106062992126
21
0.2112723228346457
0
LINE
8
BLACK
6
CONTINUOUS
10
0.181106062992126
20
0.2112723228346457
11
0.1813164566929134
21
0.2112872834645669
0
LINE
8
BLACK
6
CONTINUOUS
10
0.1813164566929134
20
0.2112872834645669
11
0.1815166929133858
21
0.2113540157480315
0
LINE
8
BLACK
6
CONTINUOUS
10
0.1815166929133858
20
0.2113540157480315
11
0.1818859842519685
21
0.2113277952755905
0
LINE
8
BLACK
6
CONTINUOUS
10
0.1818859842519685
20
0.2113277952755905
11
0.1822552755905512
21
0.2113540157480315
0
LINE
8
BLACK
6
CONTINUOUS
10
0.1822552755905512
20
0.2113540157480315
11
0.1824554724409449
21
0.2112872834645669
0
LINE
8
BLACK
6
CONTINUOUS
10
0.1868110236220472
20
0.1832557480314961
11
0.1871630708661417
21
0.1832557480314961
0
LINE
8
BLACK
6
CONTINUOUS
10
0.1871630708661417
20
0.1832557480314961
11
0.1868110236220472
21
0.1843119291338583
0
LINE
8
BLACK
6
CONTINUOUS
10
0.1868110236220472
20
0.1843119291338583
11
0.1868110236220472
21
0.1832557480314961
0
LINE
8
BLACK
6
CONTINUOUS
10
0.1766088976377953
20
0.1832557480314961
11
0.1820866141732284
21
0.1832557480314961
0
LINE
8
BLACK
6
CONTINUOUS
10
0.1820866141732284
20
0.1832557480314961
11
0.1820866141732284
21
0.1984851574803149
0
LINE
8
BLACK
6
CONTINUOUS
10
0.1820866141732284
20
0.1984851574803149
11
0.1818859842519685
21
0.1990870472440945
0
LINE
8
BLACK
6
CONTINUOUS
10
0.1818859842519685
20
0.1990870472440945
11
0.1766088976377953
21
0.1832557480314961
0
LINE
8
BLACK
6
CONTINUOUS
10
0.4553126377952756
20
0.1432611417322835
11
0.456591062992126
21
0.1419827165354331
0
LINE
8
BLACK
6
CONTINUOUS
10
0.456591062992126
20
0.1419827165354331
11
0.456591062992126
21
0.1401747637795276
0
LINE
8
BLACK
6
CONTINUOUS
10
0.456591062992126
20
0.1401747637795276
11
0.4553126377952756
21
0.1388963385826772
0
LINE
8
BLACK
6
CONTINUOUS
10
0.4553126377952756
20
0.1388963385826772
11
0.4544086614173228
21
0.1387165354330709
0
LINE
8
BLACK
6
CONTINUOUS
10
0.4544086614173228
20
0.1387165354330709
11
0.4415913385826771
21
0.1387165354330709
0
LINE
8
BLACK
6
CONTINUOUS
10
0.4415913385826771
20
0.1387165354330709
11
0.4406873622047244
21
0.1388963385826772
0
LINE
8
BLACK
6
CONTINUOUS
10
0.4406873622047244
20
0.1388963385826772
11
0.439408937007874
21
0.1401747637795276
0
LINE
8
BLACK
6
CONTINUOUS
10
0.439408937007874
20
0.1401747637795276
11
0.439408937007874
21
0.1419827165354331
0
LINE
8
BLACK
6
CONTINUOUS
10
0.439408937007874
20
0.1419827165354331
11
0.4406873622047244
21
0.1432611417322835
0
LINE
8
BLACK
6
CONTINUOUS
10
0.4406873622047244
20
0.1432611417322835
11
0.4415913385826771
21
0.1434409448818898
0
LINE
8
BLACK
6
CONTINUOUS
10
0.4415913385826771
20
0.1434409448818898
11
0.4544086614173228
21
0.1434409448818898
0
LINE
8
BLACK
6
CONTINUOUS
10
0.4544086614173228
20
0.1434409448818898
11
0.4553126377952756
21
0.1432611417322835
0
LINE
8
BLACK
6
CONTINUOUS
10
0.209773188976378
20
0.2108795669291338
11
0.2105878346456693
21
0.2100649212598425
0
LINE
8
BLACK
6
CONTINUOUS
10
0.2105878346456693
20
0.2100649212598425
11
0.2110287401574803
21
0.2090005118110236
0
LINE
8
BLACK
6
CONTINUOUS
10
0.2110287401574803
20
0.2090005118110236
11
0.2110854724409449
21
0.2084244488188976
0
LINE
8
BLACK
6
CONTINUOUS
10
0.2110854724409449
20
0.2084244488188976
11
0.2110854724409449
21
0.172007125984252
0
LINE
8
BLACK
6
CONTINUOUS
10
0.2110854724409449
20
0.172007125984252
11
0.2268803543307087
21
0.172007125984252
0
LINE
8
BLACK
6
CONTINUOUS
10
0.2268803543307087
20
0.172007125984252
11
0.2274564173228346
21
0.1719503937007874
0
LINE
8
BLACK
6
CONTINUOUS
10
0.2274564173228346
20
0.1719503937007874
11
0.2285208267716535
21
0.1715094881889764
0
LINE
8
BLACK
6
CONTINUOUS
10
0.2285208267716535
20
0.1715094881889764
11
0.2293354724409449
21
0.170694842519685
0
LINE
8
BLACK
6
CONTINUOUS
10
0.2293354724409449
20
0.170694842519685
11
0.2297763779527559
21
0.1696304330708661
0
LINE
8
BLACK
6
CONTINUOUS
10
0.2297763779527559
20
0.1696304330708661
11
0.2297763779527559
21
0.1684783070866142
0
LINE
8
BLACK
6
CONTINUOUS
10
0.2297763779527559
20
0.1684783070866142
11
0.2293354724409449
21
0.1674138976377953
0
LINE
8
BLACK
6
CONTINUOUS
10
0.2293354724409449
20
0.1674138976377953
11
0.2285208267716535
21
0.1665992519685039
0
LINE
8
BLACK
6
CONTINUOUS
10
0.2285208267716535
20
0.1665992519685039
11
0.2274564173228346
21
0.1661583464566929
0
LINE
8
BLACK
6
CONTINUOUS
10
0.2274564173228346
20
0.1661583464566929
11
0.2268803543307087
21
0.1661016141732283
0
LINE
8
BLACK
6
CONTINUOUS
10
0.2268803543307087
20
0.1661016141732283
11
0.2081327165354331
21
0.1661016141732283
0
LINE
8
BLACK
6
CONTINUOUS
10
0.2081327165354331
20
0.1661016141732283
11
0.2075566535433071
21
0.1661583464566929
0
LINE
8
BLACK
6
CONTINUOUS
10
0.2075566535433071
20
0.1661583464566929
11
0.2064922440944882
21
0.1665992519685039
0
LINE
8
BLACK
6
CONTINUOUS
10
0.2064922440944882
20
0.1665992519685039
11
0.2056775984251968
21
0.1674138976377953
0
LINE
8
BLACK
6
CONTINUOUS
10
0.2056775984251968
20
0.1674138976377953
11
0.2052366929133858
21
0.1684783070866142
0
LINE
8
BLACK
6
CONTINUOUS
10
0.2052366929133858
20
0.1684783070866142
11
0.2051799606299212
21
0.1690543700787402
0
LINE
8
BLACK
6
CONTINUOUS
10
0.2051799606299212
20
0.1690543700787402
11
0.2051799606299212
21
0.2084244488188976
0
LINE
8
BLACK
6
CONTINUOUS
10
0.2051799606299212
20
0.2084244488188976
11
0.2052366929133858
21
0.2090005118110236
0
LINE
8
BLACK
6
CONTINUOUS
10
0.2052366929133858
20
0.2090005118110236
11
0.2056775984251968
21
0.2100649212598425
0
LINE
8
BLACK
6
CONTINUOUS
10
0.2056775984251968
20
0.2100649212598425
11
0.2064922440944882
21
0.2108795669291338
0
LINE
8
BLACK
6
CONTINUOUS
10
0.2064922440944882
20
0.2108795669291338
11
0.2075566535433071
21
0.2113204724409449
0
LINE
8
BLACK
6
CONTINUOUS
10
0.2075566535433071
20
0.2113204724409449
11
0.2087087795275591
21
0.2113204724409449
0
LINE
8
BLACK
6
CONTINUOUS
10
0.2087087795275591
20
0.2113204724409449
11
0.209773188976378
21
0.2108795669291338
0
LINE
8
BLACK
6
CONTINUOUS
10
0.2593274409448819
20
0.2113204724409449
11
0.2603918503937008
21
0.2108795669291338
0
LINE
8
BLACK
6
CONTINUOUS
10
0.2603918503937008
20
0.2108795669291338
11
0.2612064960629921
21
0.2100649212598425
0
LINE
8
BLACK
6
CONTINUOUS
10
0.2612064960629921
20
0.2100649212598425
11
0.2616474015748032
21
0.2090005118110236
0
LINE
8
BLACK
6
CONTINUOUS
10
0.2616474015748032
20
0.2090005118110236
11
0.2616474015748032
21
0.2078483858267716
0
LINE
8
BLACK
6
CONTINUOUS
10
0.2616474015748032
20
0.2078483858267716
11
0.2612064960629921
21
0.2067839763779528
0
LINE
8
BLACK
6
CONTINUOUS
10
0.2612064960629921
20
0.2067839763779528
11
0.2603918503937008
21
0.2059693307086614
0
LINE
8
BLACK
6
CONTINUOUS
10
0.2603918503937008
20
0.2059693307086614
11
0.2593274409448819
21
0.2055284251968504
0
LINE
8
BLACK
6
CONTINUOUS
10
0.2593274409448819
20
0.2055284251968504
11
0.2587513779527559
21
0.2054716929133858
0
LINE
8
BLACK
6
CONTINUOUS
10
0.2587513779527559
20
0.2054716929133858
11
0.2429564960629921
21
0.2054716929133858
0
LINE
8
BLACK
6
CONTINUOUS
10
0.2429564960629921
20
0.2054716929133858
11
0.2429564960629921
21
0.1926295669291339
0
LINE
8
BLACK
6
CONTINUOUS
10
0.2429564960629921
20
0.1926295669291339
11
0.2531270866141732
21
0.1926295669291339
0
LINE
8
BLACK
6
CONTINUOUS
10
0.2531270866141732
20
0.1926295669291339
11
0.2537031496062992
21
0.1925728346456693
0
LINE
8
BLACK
6
CONTINUOUS
10
0.2537031496062992
20
0.1925728346456693
11
0.2547675590551181
21
0.1921319291338583
0
LINE
8
BLACK
6
CONTINUOUS
10
0.2547675590551181
20
0.1921319291338583
11
0.2555822047244095
21
0.1913172834645669
0
LINE
8
BLACK
6
CONTINUOUS
10
0.2555822047244095
20
0.1913172834645669
11
0.2560231102362205
21
0.190252874015748
0
LINE
8
BLACK
6
CONTINUOUS
10
0.2560231102362205
20
0.190252874015748
11
0.2560231102362205
21
0.1891007480314961
0
LINE
8
BLACK
6
CONTINUOUS
10
0.2560231102362205
20
0.1891007480314961
11
0.2555822047244095
21
0.1880363385826772
0
LINE
8
BLACK
6
CONTINUOUS
10
0.2555822047244095
20
0.1880363385826772
11
0.2547675590551181
21
0.1872216929133858
0
LINE
8
BLACK
6
CONTINUOUS
10
0.2547675590551181
20
0.1872216929133858
11
0.2537031496062992
21
0.1867807874015748
0
LINE
8
BLACK
6
CONTINUOUS
10
0.2537031496062992
20
0.1867807874015748
11
0.2531270866141732
21
0.1867240551181102
0
LINE
8
BLACK
6
CONTINUOUS
10
0.2531270866141732
20
0.1867240551181102
11
0.2429564960629921
21
0.1867240551181102
0
LINE
8
BLACK
6
CONTINUOUS
10
0.2429564960629921
20
0.1867240551181102
11
0.2429564960629921
21
0.172007125984252
0
LINE
8
BLACK
6
CONTINUOUS
10
0.2429564960629921
20
0.172007125984252
11
0.2587513779527559
21
0.172007125984252
0
LINE
8
BLACK
6
CONTINUOUS
10
0.2587513779527559
20
0.172007125984252
11
0.2593274409448819
21
0.1719503937007874
0
LINE
8
BLACK
6
CONTINUOUS
10
0.2593274409448819
20
0.1719503937007874
11
0.2603918503937008
21
0.1715094881889764
0
LINE
8
BLACK
6
CONTINUOUS
10
0.2603918503937008
20
0.1715094881889764
11
0.2612064960629921
21
0.170694842519685
0
LINE
8
BLACK
6
CONTINUOUS
10
0.2612064960629921
20
0.170694842519685
11
0.2616474015748032
21
0.1696304330708661
0
LINE
8
BLACK
6
CONTINUOUS
10
0.2616474015748032
20
0.1696304330708661
11
0.2616474015748032
21
0.1684783070866142
0
LINE
8
BLACK
6
CONTINUOUS
10
0.2616474015748032
20
0.1684783070866142
11
0.2612064960629921
21
0.1674138976377953
0
LINE
8
BLACK
6
CONTINUOUS
10
0.2612064960629921
20
0.1674138976377953
11
0.2603918503937008
21
0.1665992519685039
0
LINE
8
BLACK
6
CONTINUOUS
10
0.2603918503937008
20
0.1665992519685039
11
0.2593274409448819
21
0.1661583464566929
0
LINE
8
BLACK
6
CONTINUOUS
10
0.2593274409448819
20
0.1661583464566929
11
0.2587513779527559
21
0.1661016141732283
0
LINE
8
BLACK
6
CONTINUOUS
10
0.2587513779527559
20
0.1661016141732283
11
0.2400037401574803
21
0.1661016141732283
0
LINE
8
BLACK
6
CONTINUOUS
10
0.2400037401574803
20
0.1661016141732283
11
0.2394276771653543
21
0.1661583464566929
0
LINE
8
BLACK
6
CONTINUOUS
10
0.2394276771653543
20
0.1661583464566929
11
0.2383632677165354
21
0.1665992519685039
0
LINE
8
BLACK
6
CONTINUOUS
10
0.2383632677165354
20
0.1665992519685039
11
0.2375486220472441
21
0.1674138976377953
0
LINE
8
BLACK
6
CONTINUOUS
10
0.2375486220472441
20
0.1674138976377953
11
0.2371077165354331
21
0.1684783070866142
0
LINE
8
BLACK
6
CONTINUOUS
10
0.2371077165354331
20
0.1684783070866142
11
0.2370509842519685
21
0.1690543700787402
0
LINE
8
BLACK
6
CONTINUOUS
10
0.2370509842519685
20
0.1690543700787402
11
0.2370509842519685
21
0.2084244488188976
0
LINE
8
BLACK
6
CONTINUOUS
10
0.2370509842519685
20
0.2084244488188976
11
0.2371077165354331
21
0.2090005118110236
0
LINE
8
BLACK
6
CONTINUOUS
10
0.2371077165354331
20
0.2090005118110236
11
0.2375486220472441
21
0.2100649212598425
0
LINE
8
BLACK
6
CONTINUOUS
10
0.2375486220472441
20
0.2100649212598425
11
0.2383632677165354
21
0.2108795669291338
0
LINE
8
BLACK
6
CONTINUOUS
10
0.2383632677165354
20
0.2108795669291338
11
0.2394276771653543
21
0.2113204724409449
0
LINE
8
BLACK
6
CONTINUOUS
10
0.2394276771653543
20
0.2113204724409449
11
0.2400037401574803
21
0.2113772047244094
0
LINE
8
BLACK
6
CONTINUOUS
10
0.2400037401574803
20
0.2113772047244094
11
0.2587513779527559
21
0.2113772047244094
0
LINE
8
BLACK
6
CONTINUOUS
10
0.2587513779527559
20
0.2113772047244094
11
0.2593274409448819
21
0.2113204724409449
0
LINE
8
BLACK
6
CONTINUOUS
10
0.2911984645669291
20
0.2113204724409449
11
0.2912964566929134
21
0.2112798818897638
0
LINE
8
BLACK
6
CONTINUOUS
10
0.2912964566929134
20
0.2112798818897638
11
0.2914022834645669
21
0.2112723622047244
0
LINE
8
BLACK
6
CONTINUOUS
10
0.2914022834645669
20
0.2112723622047244
11
0.2919429133858268
21
0.2110654724409449
0
LINE
8
BLACK
6
CONTINUOUS
10
0.2919429133858268
20
0.2110654724409449
11
0.2956924409448819
21
0.2091907086614173
0
LINE
8
BLACK
6
CONTINUOUS
10
0.2956924409448819
20
0.2091907086614173
11
0.2959404330708661
21
0.2090346456692913
0
LINE
8
BLACK
6
CONTINUOUS
10
0.2959404330708661
20
0.2090346456692913
11
0.2960124015748031
21
0.2090048031496063
0
LINE
8
BLACK
6
CONTINUOUS
10
0.2960124015748031
20
0.2090048031496063
11
0.2960933464566929
21
0.2089383464566929
0
LINE
8
BLACK
6
CONTINUOUS
10
0.2960933464566929
20
0.2089383464566929
11
0.2961823228346457
21
0.2088823622047244
0
LINE
8
BLACK
6
CONTINUOUS
10
0.2961823228346457
20
0.2088823622047244
11
0.2962334645669291
21
0.2088233858267717
0
LINE
8
BLACK
6
CONTINUOUS
10
0.2962334645669291
20
0.2088233858267717
11
0.296459842519685
21
0.2086375984251969
0
LINE
8
BLACK
6
CONTINUOUS
10
0.296459842519685
20
0.2086375984251969
11
0.2983346062992126
21
0.2067628346456693
0
LINE
8
BLACK
6
CONTINUOUS
10
0.2983346062992126
20
0.2067628346456693
11
0.2985203543307087
21
0.2065364960629921
0
LINE
8
BLACK
6
CONTINUOUS
10
0.2985203543307087
20
0.2065364960629921
11
0.2985793700787401
21
0.2064853149606299
0
LINE
8
BLACK
6
CONTINUOUS
10
0.2985793700787401
20
0.2064853149606299
11
0.2986353149606299
21
0.2063963779527559
0
LINE
8
BLACK
6
CONTINUOUS
10
0.2986353149606299
20
0.2063963779527559
11
0.298701811023622
21
0.2063153937007874
0
LINE
8
BLACK
6
CONTINUOUS
10
0.298701811023622
20
0.2063153937007874
11
0.2987316141732284
21
0.2062434645669291
0
LINE
8
BLACK
6
CONTINUOUS
10
0.2987316141732284
20
0.2062434645669291
11
0.2988877165354331
21
0.2059954330708661
0
LINE
8
BLACK
6
CONTINUOUS
10
0.2988877165354331
20
0.2059954330708661
11
0.3007624803149606
21
0.202245905511811
0
LINE
8
BLACK
6
CONTINUOUS
10
0.3007624803149606
20
0.202245905511811
11
0.3009693700787401
21
0.2017053149606299
0
LINE
8
BLACK
6
CONTINUOUS
10
0.3009693700787401
20
0.2017053149606299
11
0.3009768897637795
21
0.2015994488188976
0
LINE
8
BLACK
6
CONTINUOUS
10
0.3009768897637795
20
0.2015994488188976
11
0.3010174803149606
21
0.2015014566929134
0
LINE
8
BLACK
6
CONTINUOUS
10
0.3010174803149606
20
0.2015014566929134
11
0.3010742125984252
21
0.2009253937007874
0
LINE
8
BLACK
6
CONTINUOUS
10
0.3010742125984252
20
0.2009253937007874
11
0.3010742125984252
21
0.1953011023622047
0
LINE
8
BLACK
6
CONTINUOUS
10
0.3010742125984252
20
0.1953011023622047
11
0.3010174803149606
21
0.1947250393700787
0
LINE
8
BLACK
6
CONTINUOUS
10
0.3010174803149606
20
0.1947250393700787
11
0.3009768897637795
21
0.1946270866141732
0
LINE
8
BLACK
6
CONTINUOUS
10
0.3009768897637795
20
0.1946270866141732
11
0.3009693700787401
21
0.1945211811023622
0
LINE
8
BLACK
6
CONTINUOUS
10
0.3009693700787401
20
0.1945211811023622
11
0.3007624803149606
21
0.1939805905511811
0
LINE
8
BLACK
6
CONTINUOUS
10
0.3007624803149606
20
0.1939805905511811
11
0.2988877165354331
21
0.190231062992126
0
LINE
8
BLACK
6
CONTINUOUS
10
0.2988877165354331
20
0.190231062992126
11
0.2987316141732284
21
0.1899830708661417
0
LINE
8
BLACK
6
CONTINUOUS
10
0.2987316141732284
20
0.1899830708661417
11
0.298701811023622
21
0.1899111023622047
0
LINE
8
BLACK
6
CONTINUOUS
10
0.298701811023622
20
0.1899111023622047
11
0.2986353149606299
21
0.189830157480315
0
LINE
8
BLACK
6
CONTINUOUS
10
0.2986353149606299
20
0.189830157480315
11
0.2985793700787401
21
0.1897411811023622
0
LINE
8
BLACK
6
CONTINUOUS
10
0.2985793700787401
20
0.1897411811023622
11
0.2985203543307087
21
0.1896900393700787
0
LINE
8
BLACK
6
CONTINUOUS
10
0.2985203543307087
20
0.1896900393700787
11
0.2983346062992126
21
0.1894636614173228
0
LINE
8
BLACK
6
CONTINUOUS
10
0.2983346062992126
20
0.1894636614173228
11
0.296459842519685
21
0.1875888976377953
0
LINE
8
BLACK
6
CONTINUOUS
10
0.296459842519685
20
0.1875888976377953
11
0.2962334645669291
21
0.1874031496062992
0
LINE
8
BLACK
6
CONTINUOUS
10
0.2962334645669291
20
0.1874031496062992
11
0.2961823228346457
21
0.1873441338582677
0
LINE
8
BLACK
6
CONTINUOUS
10
0.2961823228346457
20
0.1873441338582677
11
0.2960933464566929
21
0.1872881889763779
0
LINE
8
BLACK
6
CONTINUOUS
10
0.2960933464566929
20
0.1872881889763779
11
0.2960124015748031
21
0.1872216929133858
0
LINE
8
BLACK
6
CONTINUOUS
10
0.2960124015748031
20
0.1872216929133858
11
0.2959404330708661
21
0.1871918897637795
0
LINE
8
BLACK
6
CONTINUOUS
10
0.2959404330708661
20
0.1871918897637795
11
0.2956924409448819
21
0.1870357874015748
0
LINE
8
BLACK
6
CONTINUOUS
10
0.2956924409448819
20
0.1870357874015748
11
0.2919429133858268
21
0.1851610236220472
0
LINE
8
BLACK
6
CONTINUOUS
10
0.2919429133858268
20
0.1851610236220472
11
0.2914022834645669
21
0.1849541338582677
0
LINE
8
BLACK
6
CONTINUOUS
10
0.2914022834645669
20
0.1849541338582677
11
0.2912964566929134
21
0.1849466535433071
0
LINE
8
BLACK
6
CONTINUOUS
10
0.2912964566929134
20
0.1849466535433071
11
0.2911984645669291
21
0.1849060236220472
0
LINE
8
BLACK
6
CONTINUOUS
10
0.2911984645669291
20
0.1849060236220472
11
0.2906662992125984
21
0.1848536220472441
0
LINE
8
BLACK
6
CONTINUOUS
10
0.2906662992125984
20
0.1848536220472441
11
0.3005404724409449
21
0.1707476377952756
0
LINE
8
BLACK
6
CONTINUOUS
10
0.3005404724409449
20
0.1707476377952756
11
0.3008243307086614
21
0.1702431889763779
0
LINE
8
BLACK
6
CONTINUOUS
10
0.3008243307086614
20
0.1702431889763779
11
0.3010735039370079
21
0.1691183464566929
0
LINE
8
BLACK
6
CONTINUOUS
10
0.3010735039370079
20
0.1691183464566929
11
0.3008733070866141
21
0.1679837795275591
0
LINE
8
BLACK
6
CONTINUOUS
10
0.3008733070866141
20
0.1679837795275591
11
0.3002541338582677
21
0.1670122047244094
0
LINE
8
BLACK
6
CONTINUOUS
10
0.3002541338582677
20
0.1670122047244094
11
0.2993102755905512
21
0.1663514960629921
0
LINE
8
BLACK
6
CONTINUOUS
10
0.2993102755905512
20
0.1663514960629921
11
0.2981854330708661
21
0.1661022834645669
0
LINE
8
BLACK
6
CONTINUOUS
10
0.2981854330708661
20
0.1661022834645669
11
0.297050905511811
21
0.1663025196850394
0
LINE
8
BLACK
6
CONTINUOUS
10
0.297050905511811
20
0.1663025196850394
11
0.2960792913385827
21
0.1669216929133858
0
LINE
8
BLACK
6
CONTINUOUS
10
0.2960792913385827
20
0.1669216929133858
11
0.2957024803149606
21
0.167361062992126
0
LINE
8
BLACK
6
CONTINUOUS
10
0.2957024803149606
20
0.167361062992126
11
0.2834607480314961
21
0.1848492913385827
0
LINE
8
BLACK
6
CONTINUOUS
10
0.2834607480314961
20
0.1848492913385827
11
0.2785770472440945
21
0.1848492913385827
0
LINE
8
BLACK
6
CONTINUOUS
10
0.2785770472440945
20
0.1848492913385827
11
0.2785770472440945
21
0.1690543700787402
0
LINE
8
BLACK
6
CONTINUOUS
10
0.2785770472440945
20
0.1690543700787402
11
0.2785203149606299
21
0.1684783070866142
0
LINE
8
BLACK
6
CONTINUOUS
10
0.2785203149606299
20
0.1684783070866142
11
0.2780794094488189
21
0.1674138976377953
0
LINE
8
BLACK
6
CONTINUOUS
10
0.2780794094488189
20
0.1674138976377953
11
0.2772647637795276
21
0.1665992519685039
0
LINE
8
BLACK
6
CONTINUOUS
10
0.2772647637795276
20
0.1665992519685039
11
0.2762003543307087
21
0.1661583464566929
0
LINE
8
BLACK
6
CONTINUOUS
10
0.2762003543307087
20
0.1661583464566929
11
0.2750482283464567
21
0.1661583464566929
0
LINE
8
BLACK
6
CONTINUOUS
10
0.2750482283464567
20
0.1661583464566929
11
0.2739838188976378
21
0.1665992519685039
0
LINE
8
BLACK
6
CONTINUOUS
10
0.2739838188976378
20
0.1665992519685039
11
0.2731691732283464
21
0.1674138976377953
0
LINE
8
BLACK
6
CONTINUOUS
10
0.2731691732283464
20
0.1674138976377953
11
0.2727282677165354
21
0.1684783070866142
0
LINE
8
BLACK
6
CONTINUOUS
10
0.2727282677165354
20
0.1684783070866142
11
0.2726715354330709
21
0.1690543700787402
0
LINE
8
BLACK
6
CONTINUOUS
10
0.2726715354330709
20
0.1690543700787402
11
0.2726715354330709
21
0.2084244488188976
0
LINE
8
BLACK
6
CONTINUOUS
10
0.2726715354330709
20
0.2084244488188976
11
0.2727282677165354
21
0.2090005118110236
0
LINE
8
BLACK
6
CONTINUOUS
10
0.2727282677165354
20
0.2090005118110236
11
0.2731691732283464
21
0.2100649212598425
0
LINE
8
BLACK
6
CONTINUOUS
10
0.2731691732283464
20
0.2100649212598425
11
0.2739838188976378
21
0.2108795669291338
0
LINE
8
BLACK
6
CONTINUOUS
10
0.2739838188976378
20
0.2108795669291338
11
0.2750482283464567
21
0.2113204724409449
0
LINE
8
BLACK
6
CONTINUOUS
10
0.2750482283464567
20
0.2113204724409449
11
0.2756242913385827
21
0.2113772047244094
0
LINE
8
BLACK
6
CONTINUOUS
10
0.2756242913385827
20
0.2113772047244094
11
0.2906224015748031
21
0.2113772047244094
0
LINE
8
BLACK
6
CONTINUOUS
10
0.2906224015748031
20
0.2113772047244094
11
0.2911984645669291
21
0.2113204724409449
0
LINE
8
BLACK
6
CONTINUOUS
10
0.2785770472440945
20
0.1907548031496063
11
0.2899253543307087
21
0.1907548031496063
0
LINE
8
BLACK
6
CONTINUOUS
10
0.2899253543307087
20
0.1907548031496063
11
0.2926228346456693
21
0.1921035433070866
0
LINE
8
BLACK
6
CONTINUOUS
10
0.2926228346456693
20
0.1921035433070866
11
0.2938199606299213
21
0.1933006692913386
0
LINE
8
BLACK
6
CONTINUOUS
10
0.2938199606299213
20
0.1933006692913386
11
0.2951687007874016
21
0.1959981496062992
0
LINE
8
BLACK
6
CONTINUOUS
10
0.2951687007874016
20
0.1959981496062992
11
0.2951687007874016
21
0.2002283464566929
0
LINE
8
BLACK
6
CONTINUOUS
10
0.2951687007874016
20
0.2002283464566929
11
0.2938199606299213
21
0.2029258267716536
0
LINE
8
BLACK
6
CONTINUOUS
10
0.2938199606299213
20
0.2029258267716536
11
0.2926228346456693
21
0.2041229527559055
0
LINE
8
BLACK
6
CONTINUOUS
10
0.2926228346456693
20
0.2041229527559055
11
0.2899253543307087
21
0.2054716929133858
0
LINE
8
BLACK
6
CONTINUOUS
10
0.2899253543307087
20
0.2054716929133858
11
0.2785770472440945
21
0.2054716929133858
0
LINE
8
BLACK
6
CONTINUOUS
10
0.2785770472440945
20
0.2054716929133858
11
0.2785770472440945
21
0.1907548031496063
0
LINE
8
BLACK
6
CONTINUOUS
10
0.3364343700787402
20
0.2651756299212598
11
0.3366141732283465
21
0.2642716535433071
0
LINE
8
BLACK
6
CONTINUOUS
10
0.3366141732283465
20
0.2642716535433071
11
0.3366141732283465
21
0.2327755905511811
0
LINE
8
BLACK
6
CONTINUOUS
10
0.3366141732283465
20
0.2327755905511811
11
0.3366141732283465
21
0.2012795275590551
0
LINE
8
BLACK
6
CONTINUOUS
10
0.3366141732283465
20
0.2012795275590551
11
0.3364343700787402
21
0.2003755511811024
0
LINE
8
BLACK
6
CONTINUOUS
10
0.3364343700787402
20
0.2003755511811024
11
0.3351559448818898
21
0.199097125984252
0
LINE
8
BLACK
6
CONTINUOUS
10
0.3351559448818898
20
0.199097125984252
11
0.3333479921259843
21
0.199097125984252
0
LINE
8
BLACK
6
CONTINUOUS
10
0.3333479921259843
20
0.199097125984252
11
0.3320695669291339
21
0.2003755511811024
0
LINE
8
BLACK
6
CONTINUOUS
10
0.3320695669291339
20
0.2003755511811024
11
0.3318897637795276
21
0.2012795275590551
0
LINE
8
BLACK
6
CONTINUOUS
10
0.3318897637795276
20
0.2012795275590551
11
0.3318897637795276
21
0.205473937007874
0
LINE
8
BLACK
6
CONTINUOUS
10
0.3318897637795276
20
0.205473937007874
11
0.3318672440944882
21
0.2054716929133858
0
LINE
8
BLACK
6
CONTINUOUS
10
0.3318672440944882
20
0.2054716929133858
11
0.3235714173228346
21
0.2054716929133858
0
LINE
8
BLACK
6
CONTINUOUS
10
0.3235714173228346
20
0.2054716929133858
11
0.3235714173228346
21
0.1690543700787402
0
LINE
8
BLACK
6
CONTINUOUS
10
0.3235714173228346
20
0.1690543700787402
11
0.3235146850393701
21
0.1684783070866142
0
LINE
8
BLACK
6
CONTINUOUS
10
0.3235146850393701
20
0.1684783070866142
11
0.3230737795275591
21
0.1674138976377953
0
LINE
8
BLACK
6
CONTINUOUS
10
0.3230737795275591
20
0.1674138976377953
11
0.3222591338582677
21
0.1665992519685039
0
LINE
8
BLACK
6
CONTINUOUS
10
0.3222591338582677
20
0.1665992519685039
11
0.3211947244094488
21
0.1661583464566929
0
LINE
8
BLACK
6
CONTINUOUS
10
0.3211947244094488
20
0.1661583464566929
11
0.3200425984251968
21
0.1661583464566929
0
LINE
8
BLACK
6
CONTINUOUS
10
0.3200425984251968
20
0.1661583464566929
11
0.3189781889763779
21
0.1665992519685039
0
LINE
8
BLACK
6
CONTINUOUS
10
0.3189781889763779
20
0.1665992519685039
11
0.3181635433070866
21
0.1674138976377953
0
LINE
8
BLACK
6
CONTINUOUS
10
0.3181635433070866
20
0.1674138976377953
11
0.3177226377952756
21
0.1684783070866142
0
LINE
8
BLACK
6
CONTINUOUS
10
0.3177226377952756
20
0.1684783070866142
11
0.317665905511811
21
0.1690543700787402
0
LINE
8
BLACK
6
CONTINUOUS
10
0.317665905511811
20
0.1690543700787402
11
0.317665905511811
21
0.2054716929133858
0
LINE
8
BLACK
6
CONTINUOUS
10
0.317665905511811
20
0.2054716929133858
11
0.3093700787401575
21
0.2054716929133858
0
LINE
8
BLACK
6
CONTINUOUS
10
0.3093700787401575
20
0.2054716929133858
11
0.3087940157480315
21
0.2055284251968504
0
LINE
8
BLACK
6
CONTINUOUS
10
0.3087940157480315
20
0.2055284251968504
11
0.3077296062992126
21
0.2059693307086614
0
LINE
8
BLACK
6
CONTINUOUS
10
0.3077296062992126
20
0.2059693307086614
11
0.3069149606299212
21
0.2067839763779528
0
LINE
8
BLACK
6
CONTINUOUS
10
0.3069149606299212
20
0.2067839763779528
11
0.3064740551181102
21
0.2078483858267716
0
LINE
8
BLACK
6
CONTINUOUS
10
0.3064740551181102
20
0.2078483858267716
11
0.3064740551181102
21
0.2090005118110236
0
LINE
8
BLACK
6
CONTINUOUS
10
0.3064740551181102
20
0.2090005118110236
11
0.3069149606299212
21
0.2100649212598425
0
LINE
8
BLACK
6
CONTINUOUS
10
0.3069149606299212
20
0.2100649212598425
11
0.3077296062992126
21
0.2108795669291338
0
LINE
8
BLACK
6
CONTINUOUS
10
0.3077296062992126
20
0.2108795669291338
11
0.3087940157480315
21
0.2113204724409449
0
LINE
8
BLACK
6
CONTINUOUS
10
0.3087940157480315
20
0.2113204724409449
11
0.3093700787401575
21
0.2113772047244094
0
LINE
8
BLACK
6
CONTINUOUS
10
0.3093700787401575
20
0.2113772047244094
11
0.3318672440944882
21
0.2113772047244094
0
LINE
8
BLACK
6
CONTINUOUS
10
0.3318672440944882
20
0.2113772047244094
11
0.3318897637795276
21
0.211375
0
LINE
8
BLACK
6
CONTINUOUS
10
0.3318897637795276
20
0.211375
11
0.3318897637795276
21
0.2327755905511811
0
LINE
8
BLACK
6
CONTINUOUS
10
0.3318897637795276
20
0.2327755905511811
11
0.3318897637795276
21
0.2642716535433071
0
LINE
8
BLACK
6
CONTINUOUS
10
0.3318897637795276
20
0.2642716535433071
11
0.3320695669291339
21
0.2651756299212598
0
LINE
8
BLACK
6
CONTINUOUS
10
0.3320695669291339
20
0.2651756299212598
11
0.3333479921259843
21
0.2664540551181102
0
LINE
8
BLACK
6
CONTINUOUS
10
0.3333479921259843
20
0.2664540551181102
11
0.3351559448818898
21
0.2664540551181102
0
LINE
8
BLACK
6
CONTINUOUS
10
0.3351559448818898
20
0.2664540551181102
11
0.3364343700787402
21
0.2651756299212598
0
LINE
8
BLACK
6
CONTINUOUS
10
0.0185209842519685
20
0.4129118503937008
11
0.0187007874015748
21
0.412007874015748
0
LINE
8
BLACK
6
CONTINUOUS
10
0.0187007874015748
20
0.412007874015748
11
0.0187007874015748
21
0.1785433070866142
0
LINE
8
BLACK
6
CONTINUOUS
10
0.0187007874015748
20
0.1785433070866142
11
0.0185209842519685
21
0.1776393307086614
0
LINE
8
BLACK
6
CONTINUOUS
10
0.0185209842519685
20
0.1776393307086614
11
0.0172425590551181
21
0.176360905511811
0
LINE
8
BLACK
6
CONTINUOUS
10
0.0172425590551181
20
0.176360905511811
11
0.0154346062992126
21
0.176360905511811
0
LINE
8
BLACK
6
CONTINUOUS
10
0.0154346062992126
20
0.176360905511811
11
0.0141561811023622
21
0.1776393307086614
0
LINE
8
BLACK
6
CONTINUOUS
10
0.0141561811023622
20
0.1776393307086614
11
0.0139763779527559
21
0.1785433070866142
0
LINE
8
BLACK
6
CONTINUOUS
10
0.0139763779527559
20
0.1785433070866142
11
0.0139763779527559
21
0.412007874015748
0
LINE
8
BLACK
6
CONTINUOUS
10
0.0139763779527559
20
0.412007874015748
11
0.0141561811023622
21
0.4129118503937008
0
LINE
8
BLACK
6
CONTINUOUS
10
0.0141561811023622
20
0.4129118503937008
11
0.0154346062992126
21
0.4141902755905512
0
LINE
8
BLACK
6
CONTINUOUS
10
0.0154346062992126
20
0.4141902755905512
11
0.0172425590551181
21
0.4141902755905512
0
LINE
8
BLACK
6
CONTINUOUS
10
0.0172425590551181
20
0.4141902755905512
11
0.0185209842519685
21
0.4129118503937008
0
LINE
8
BLACK
6
CONTINUOUS
10
0.8122161417322834
20
0.2139182677165354
11
0.8127371653543307
21
0.2133972440944882
0
LINE
8
BLACK
6
CONTINUOUS
10
0.8127371653543307
20
0.2133972440944882
11
0.8221859842519685
21
0.2004051181102362
0
LINE
8
BLACK
6
CONTINUOUS
10
0.8221859842519685
20
0.2004051181102362
11
0.8226088976377952
21
0.1986473228346457
0
LINE
8
BLACK
6
CONTINUOUS
10
0.8226088976377952
20
0.1986473228346457
11
0.8216649606299212
21
0.1971053543307087
0
LINE
8
BLACK
6
CONTINUOUS
10
0.8216649606299212
20
0.1971053543307087
11
0.820275590551181
21
0.1966535433070866
0
LINE
8
BLACK
6
CONTINUOUS
10
0.820275590551181
20
0.1966535433070866
11
0.8013779527559055
21
0.1966535433070866
0
LINE
8
BLACK
6
CONTINUOUS
10
0.8013779527559055
20
0.1966535433070866
11
0.7997076377952755
21
0.1973454330708661
0
LINE
8
BLACK
6
CONTINUOUS
10
0.7997076377952755
20
0.1973454330708661
11
0.799015748031496
21
0.199015748031496
0
LINE
8
BLACK
6
CONTINUOUS
10
0.799015748031496
20
0.199015748031496
11
0.7994675590551181
21
0.2004051181102362
0
LINE
8
BLACK
6
CONTINUOUS
10
0.7994675590551181
20
0.2004051181102362
11
0.8089163779527558
21
0.2133972440944882
0
LINE
8
BLACK
6
CONTINUOUS
10
0.8089163779527558
20
0.2133972440944882
11
0.8104583464566929
21
0.2143411811023622
0
LINE
8
BLACK
6
CONTINUOUS
10
0.8104583464566929
20
0.2143411811023622
11
0.8122161417322834
21
0.2139182677165354
0
LINE
8
BLACK
6
CONTINUOUS
10
0.4592690157480315
20
0.2651756299212598
11
0.4594488188976378
21
0.2642716535433071
0
LINE
8
BLACK
6
CONTINUOUS
10
0.4594488188976378
20
0.2642716535433071
11
0.4594488188976378
21
0.2327755905511811
0
LINE
8
BLACK
6
CONTINUOUS
10
0.4594488188976378
20
0.2327755905511811
11
0.4594488188976378
21
0.2012795275590551
0
LINE
8
BLACK
6
CONTINUOUS
10
0.4594488188976378
20
0.2012795275590551
11
0.4592690157480315
21
0.2003755511811024
0
LINE
8
BLACK
6
CONTINUOUS
10
0.4592690157480315
20
0.2003755511811024
11
0.4579905905511811
21
0.199097125984252
0
LINE
8
BLACK
6
CONTINUOUS
10
0.4579905905511811
20
0.199097125984252
11
0.4561826377952756
21
0.199097125984252
0
LINE
8
BLACK
6
CONTINUOUS
10
0.4561826377952756
20
0.199097125984252
11
0.4549042125984252
21
0.2003755511811024
0
LINE
8
BLACK
6
CONTINUOUS
10
0.4549042125984252
20
0.2003755511811024
11
0.4547244094488189
21
0.2012795275590551
0
LINE
8
BLACK
6
CONTINUOUS
10
0.4547244094488189
20
0.2012795275590551
11
0.4547244094488189
21
0.2327755905511811
0
LINE
8
BLACK
6
CONTINUOUS
10
0.4547244094488189
20
0.2327755905511811
11
0.4547244094488189
21
0.2642716535433071
0
LINE
8
BLACK
6
CONTINUOUS
10
0.4547244094488189
20
0.2642716535433071
11
0.4549042125984252
21
0.2651756299212598
0
LINE
8
BLACK
6
CONTINUOUS
10
0.4549042125984252
20
0.2651756299212598
11
0.4561826377952756
21
0.2664540551181102
0
LINE
8
BLACK
6
CONTINUOUS
10
0.4561826377952756
20
0.2664540551181102
11
0.4579905905511811
21
0.2664540551181102
0
LINE
8
BLACK
6
CONTINUOUS
10
0.4579905905511811
20
0.2664540551181102
11
0.4592690157480315
21
0.2651756299212598
0
LINE
8
BLACK
6
CONTINUOUS
10
0.6658137007874015
20
0.2144629921259842
11
0.6666283464566929
21
0.2136483464566929
0
LINE
8
BLACK
6
CONTINUOUS
10
0.6666283464566929
20
0.2136483464566929
11
0.667069251968504
21
0.212583937007874
0
LINE
8
BLACK
6
CONTINUOUS
10
0.667069251968504
20
0.212583937007874
11
0.6671259842519685
21
0.212007874015748
0
LINE
8
BLACK
6
CONTINUOUS
10
0.6671259842519685
20
0.212007874015748
11
0.6671259842519685
21
0.2061023622047244
0
LINE
8
BLACK
6
CONTINUOUS
10
0.6671259842519685
20
0.2061023622047244
11
0.7891732283464566
21
0.2061023622047244
0
LINE
8
BLACK
6
CONTINUOUS
10
0.7891732283464566
20
0.2061023622047244
11
0.7891732283464566
21
0.212007874015748
0
LINE
8
BLACK
6
CONTINUOUS
10
0.7891732283464566
20
0.212007874015748
11
0.7892299606299212
21
0.212583937007874
0
LINE
8
BLACK
6
CONTINUOUS
10
0.7892299606299212
20
0.212583937007874
11
0.7896708661417323
21
0.2136483464566929
0
LINE
8
BLACK
6
CONTINUOUS
10
0.7896708661417323
20
0.2136483464566929
11
0.7904855118110236
21
0.2144629921259842
0
LINE
8
BLACK
6
CONTINUOUS
10
0.7904855118110236
20
0.2144629921259842
11
0.7915499212598425
21
0.2149038976377953
0
LINE
8
BLACK
6
CONTINUOUS
10
0.7915499212598425
20
0.2149038976377953
11
0.7927020472440944
21
0.2149038976377953
0
LINE
8
BLACK
6
CONTINUOUS
10
0.7927020472440944
20
0.2149038976377953
11
0.7937664566929133
21
0.2144629921259842
0
LINE
8
BLACK
6
CONTINUOUS
10
0.7937664566929133
20
0.2144629921259842
11
0.7945811023622047
21
0.2136483464566929
0
LINE
8
BLACK
6
CONTINUOUS
10
0.7945811023622047
20
0.2136483464566929
11
0.7950220078740158
21
0.212583937007874
0
LINE
8
BLACK
6
CONTINUOUS
10
0.7950220078740158
20
0.212583937007874
11
0.7950787401574803
21
0.212007874015748
0
LINE
8
BLACK
6
CONTINUOUS
10
0.7950787401574803
20
0.212007874015748
11
0.7950787401574803
21
0.2031496062992126
0
LINE
8
BLACK
6
CONTINUOUS
10
0.7950787401574803
20
0.2031496062992126
11
0.7950220078740158
21
0.2025735433070866
0
LINE
8
BLACK
6
CONTINUOUS
10
0.7950220078740158
20
0.2025735433070866
11
0.7945811023622047
21
0.2015091338582677
0
LINE
8
BLACK
6
CONTINUOUS
10
0.7945811023622047
20
0.2015091338582677
11
0.7937664566929133
21
0.2006944881889764
0
LINE
8
BLACK
6
CONTINUOUS
10
0.7937664566929133
20
0.2006944881889764
11
0.7927020472440944
21
0.2002535826771653
0
LINE
8
BLACK
6
CONTINUOUS
10
0.7927020472440944
20
0.2002535826771653
11
0.7921259842519685
21
0.2001968503937008
0
LINE
8
BLACK
6
CONTINUOUS
10
0.7921259842519685
20
0.2001968503937008
11
0.6641732283464566
21
0.2001968503937008
0
LINE
8
BLACK
6
CONTINUOUS
10
0.6641732283464566
20
0.2001968503937008
11
0.6635971653543307
21
0.2002535826771653
0
LINE
8
BLACK
6
CONTINUOUS
10
0.6635971653543307
20
0.2002535826771653
11
0.6625327559055117
21
0.2006944881889764
0
LINE
8
BLACK
6
CONTINUOUS
10
0.6625327559055117
20
0.2006944881889764
11
0.6617181102362204
21
0.2015091338582677
0
LINE
8
BLACK
6
CONTINUOUS
10
0.6617181102362204
20
0.2015091338582677
11
0.6612772047244094
21
0.2025735433070866
0
LINE
8
BLACK
6
CONTINUOUS
10
0.6612772047244094
20
0.2025735433070866
11
0.6612204724409448
21
0.2031496062992126
0
LINE
8
BLACK
6
CONTINUOUS
10
0.6612204724409448
20
0.2031496062992126
11
0.6612204724409448
21
0.212007874015748
0
LINE
8
BLACK
6
CONTINUOUS
10
0.6612204724409448
20
0.212007874015748
11
0.6612772047244094
21
0.212583937007874
0
LINE
8
BLACK
6
CONTINUOUS
10
0.6612772047244094
20
0.212583937007874
11
0.6617181102362204
21
0.2136483464566929
0
LINE
8
BLACK
6
CONTINUOUS
10
0.6617181102362204
20
0.2136483464566929
11
0.6625327559055117
21
0.2144629921259842
0
LINE
8
BLACK
6
CONTINUOUS
10
0.6625327559055117
20
0.2144629921259842
11
0.6635971653543307
21
0.2149038976377953
0
LINE
8
BLACK
6
CONTINUOUS
10
0.6635971653543307
20
0.2149038976377953
11
0.6647492913385826
21
0.2149038976377953
0
LINE
8
BLACK
6
CONTINUOUS
10
0.6647492913385826
20
0.2149038976377953
11
0.6658137007874015
21
0.2144629921259842
0
LINE
8
BLACK
6
CONTINUOUS
10
0.4887965748031496
20
0.2434346456692913
11
0.4889763779527559
21
0.2425306692913386
0
LINE
8
BLACK
6
CONTINUOUS
10
0.4889763779527559
20
0.2425306692913386
11
0.4889763779527559
21
0.2297134251968504
0
LINE
8
BLACK
6
CONTINUOUS
10
0.4889763779527559
20
0.2297134251968504
11
0.4887965748031496
21
0.2288094488188976
0
LINE
8
BLACK
6
CONTINUOUS
10
0.4887965748031496
20
0.2288094488188976
11
0.4875181496062992
21
0.2275310236220472
0
LINE
8
BLACK
6
CONTINUOUS
10
0.4875181496062992
20
0.2275310236220472
11
0.4857101968503937
21
0.2275310236220472
0
LINE
8
BLACK
6
CONTINUOUS
10
0.4857101968503937
20
0.2275310236220472
11
0.4844317716535433
21
0.2288094488188976
0
LINE
8
BLACK
6
CONTINUOUS
10
0.4844317716535433
20
0.2288094488188976
11
0.484251968503937
21
0.2297134251968504
0
LINE
8
BLACK
6
CONTINUOUS
10
0.484251968503937
20
0.2297134251968504
11
0.484251968503937
21
0.2425306692913386
0
LINE
8
BLACK
6
CONTINUOUS
10
0.484251968503937
20
0.2425306692913386
11
0.4844317716535433
21
0.2434346456692913
0
LINE
8
BLACK
6
CONTINUOUS
10
0.4844317716535433
20
0.2434346456692913
11
0.4857101968503937
21
0.2447130708661417
0
LINE
8
BLACK
6
CONTINUOUS
10
0.4857101968503937
20
0.2447130708661417
11
0.4875181496062992
21
0.2447130708661417
0
LINE
8
BLACK
6
CONTINUOUS
10
0.4875181496062992
20
0.2447130708661417
11
0.4887965748031496
21
0.2434346456692913
0
LINE
8
BLACK
6
CONTINUOUS
10
0.5289540551181102
20
0.2434346456692913
11
0.5291338582677165
21
0.2425306692913386
0
LINE
8
BLACK
6
CONTINUOUS
10
0.5291338582677165
20
0.2425306692913386
11
0.5291338582677165
21
0.2297134251968504
0
LINE
8
BLACK
6
CONTINUOUS
10
0.5291338582677165
20
0.2297134251968504
11
0.5289540551181102
21
0.2288094488188976
0
LINE
8
BLACK
6
CONTINUOUS
10
0.5289540551181102
20
0.2288094488188976
11
0.5276756299212598
21
0.2275310236220472
0
LINE
8
BLACK
6
CONTINUOUS
10
0.5276756299212598
20
0.2275310236220472
11
0.5258676771653543
21
0.2275310236220472
0
LINE
8
BLACK
6
CONTINUOUS
10
0.5258676771653543
20
0.2275310236220472
11
0.5245892519685039
21
0.2288094488188976
0
LINE
8
BLACK
6
CONTINUOUS
10
0.5245892519685039
20
0.2288094488188976
11
0.5244094488188976
21
0.2297134251968504
0
LINE
8
BLACK
6
CONTINUOUS
10
0.5244094488188976
20
0.2297134251968504
11
0.5244094488188976
21
0.2425306692913386
0
LINE
8
BLACK
6
CONTINUOUS
10
0.5244094488188976
20
0.2425306692913386
11
0.5245892519685039
21
0.2434346456692913
0
LINE
8
BLACK
6
CONTINUOUS
10
0.5245892519685039
20
0.2434346456692913
11
0.5258676771653543
21
0.2447130708661417
0
LINE
8
BLACK
6
CONTINUOUS
10
0.5258676771653543
20
0.2447130708661417
11
0.5276756299212598
21
0.2447130708661417
0
LINE
8
BLACK
6
CONTINUOUS
10
0.5276756299212598
20
0.2447130708661417
11
0.5289540551181102
21
0.2434346456692913
0
LINE
8
BLACK
6
CONTINUOUS
10
0.5547414566929134
20
0.2434346456692913
11
0.5549212598425197
21
0.2425306692913386
0
LINE
8
BLACK
6
CONTINUOUS
10
0.5549212598425197
20
0.2425306692913386
11
0.5549212598425197
21
0.2297134251968504
0
LINE
8
BLACK
6
CONTINUOUS
10
0.5549212598425197
20
0.2297134251968504
11
0.5547414566929134
21
0.2288094488188976
0
LINE
8
BLACK
6
CONTINUOUS
10
0.5547414566929134
20
0.2288094488188976
11
0.553463031496063
21
0.2275310236220472
0
LINE
8
BLACK
6
CONTINUOUS
10
0.553463031496063
20
0.2275310236220472
11
0.5516550787401575
21
0.2275310236220472
0
LINE
8
BLACK
6
CONTINUOUS
10
0.5516550787401575
20
0.2275310236220472
11
0.5503766535433071
21
0.2288094488188976
0
LINE
8
BLACK
6
CONTINUOUS
10
0.5503766535433071
20
0.2288094488188976
11
0.5501968503937008
21
0.2297134251968504
0
LINE
8
BLACK
6
CONTINUOUS
10
0.5501968503937008
20
0.2297134251968504
11
0.5501968503937008
21
0.2425306692913386
0
LINE
8
BLACK
6
CONTINUOUS
10
0.5501968503937008
20
0.2425306692913386
11
0.5503766535433071
21
0.2434346456692913
0
LINE
8
BLACK
6
CONTINUOUS
10
0.5503766535433071
20
0.2434346456692913
11
0.5516550787401575
21
0.2447130708661417
0
LINE
8
BLACK
6
CONTINUOUS
10
0.5516550787401575
20
0.2447130708661417
11
0.553463031496063
21
0.2447130708661417
0
LINE
8
BLACK
6
CONTINUOUS
10
0.553463031496063
20
0.2447130708661417
11
0.5547414566929134
21
0.2434346456692913
0
LINE
8
BLACK
6
CONTINUOUS
10
0.594898937007874
20
0.2434346456692913
11
0.5950787401574803
21
0.2425306692913386
0
LINE
8
BLACK
6
CONTINUOUS
10
0.5950787401574803
20
0.2425306692913386
11
0.5950787401574803
21
0.2297134251968504
0
LINE
8
BLACK
6
CONTINUOUS
10
0.5950787401574803
20
0.2297134251968504
11
0.594898937007874
21
0.2288094488188976
0
LINE
8
BLACK
6
CONTINUOUS
10
0.594898937007874
20
0.2288094488188976
11
0.5936205118110236
21
0.2275310236220472
0
LINE
8
BLACK
6
CONTINUOUS
10
0.5936205118110236
20
0.2275310236220472
11
0.5918125590551181
21
0.2275310236220472
0
LINE
8
BLACK
6
CONTINUOUS
10
0.5918125590551181
20
0.2275310236220472
11
0.5905341338582677
21
0.2288094488188976
0
LINE
8
BLACK
6
CONTINUOUS
10
0.5905341338582677
20
0.2288094488188976
11
0.5903543307086614
21
0.2297134251968504
0
LINE
8
BLACK
6
CONTINUOUS
10
0.5903543307086614
20
0.2297134251968504
11
0.5903543307086614
21
0.2425306692913386
0
LINE
8
BLACK
6
CONTINUOUS
10
0.5903543307086614
20
0.2425306692913386
11
0.5905341338582677
21
0.2434346456692913
0
LINE
8
BLACK
6
CONTINUOUS
10
0.5905341338582677
20
0.2434346456692913
11
0.5918125590551181
21
0.2447130708661417
0
LINE
8
BLACK
6
CONTINUOUS
10
0.5918125590551181
20
0.2447130708661417
11
0.5936205118110236
21
0.2447130708661417
0
LINE
8
BLACK
6
CONTINUOUS
10
0.5936205118110236
20
0.2447130708661417
11
0.594898937007874
21
0.2434346456692913
0
LINE
8
BLACK
6
CONTINUOUS
10
0.4700206299212598
20
0.2947948818897638
11
0.4704724409448819
21
0.2934055118110236
0
LINE
8
BLACK
6
CONTINUOUS
10
0.4704724409448819
20
0.2934055118110236
11
0.4704724409448819
21
0.274507874015748
0
LINE
8
BLACK
6
CONTINUOUS
10
0.4704724409448819
20
0.274507874015748
11
0.4697805511811023
21
0.2728375590551181
0
LINE
8
BLACK
6
CONTINUOUS
10
0.4697805511811023
20
0.2728375590551181
11
0.4681102362204724
21
0.2721456692913386
0
LINE
8
BLACK
6
CONTINUOUS
10
0.4681102362204724
20
0.2721456692913386
11
0.4667208661417322
21
0.2725974803149606
0
LINE
8
BLACK
6
CONTINUOUS
10
0.4667208661417322
20
0.2725974803149606
11
0.4537287401574803
21
0.2820462992125984
0
LINE
8
BLACK
6
CONTINUOUS
10
0.4537287401574803
20
0.2820462992125984
11
0.4527848031496063
21
0.2835882677165354
0
LINE
8
BLACK
6
CONTINUOUS
10
0.4527848031496063
20
0.2835882677165354
11
0.4532077165354331
21
0.285346062992126
0
LINE
8
BLACK
6
CONTINUOUS
10
0.4532077165354331
20
0.285346062992126
11
0.4537287401574803
21
0.2858670866141732
0
LINE
8
BLACK
6
CONTINUOUS
10
0.4537287401574803
20
0.2858670866141732
11
0.4667208661417322
21
0.295315905511811
0
LINE
8
BLACK
6
CONTINUOUS
10
0.4667208661417322
20
0.295315905511811
11
0.4684786614173228
21
0.2957388188976378
0
LINE
8
BLACK
6
CONTINUOUS
10
0.4684786614173228
20
0.2957388188976378
11
0.4700206299212598
21
0.2947948818897638
0
LINE
8
BLACK
6
CONTINUOUS
10
0.7927020472440944
20
0.3339983858267717
11
0.7937664566929133
21
0.3335574803149606
0
LINE
8
BLACK
6
CONTINUOUS
10
0.7937664566929133
20
0.3335574803149606
11
0.7945811023622047
21
0.3327428346456693
0
LINE
8
BLACK
6
CONTINUOUS
10
0.7945811023622047
20
0.3327428346456693
11
0.7950220078740158
21
0.3316784251968504
0
LINE
8
BLACK
6
CONTINUOUS
10
0.7950220078740158
20
0.3316784251968504
11
0.7950787401574803
21
0.3311023622047244
0
LINE
8
BLACK
6
CONTINUOUS
10
0.7950787401574803
20
0.3311023622047244
11
0.7950787401574803
21
0.322244094488189
0
LINE
8
BLACK
6
CONTINUOUS
10
0.7950787401574803
20
0.322244094488189
11
0.7950220078740158
21
0.321668031496063
0
LINE
8
BLACK
6
CONTINUOUS
10
0.7950220078740158
20
0.321668031496063
11
0.7945811023622047
21
0.3206036220472441
0
LINE
8
BLACK
6
CONTINUOUS
10
0.7945811023622047
20
0.3206036220472441
11
0.7937664566929133
21
0.3197889763779527
0
LINE
8
BLACK
6
CONTINUOUS
10
0.7937664566929133
20
0.3197889763779527
11
0.7927020472440944
21
0.3193480708661417
0
LINE
8
BLACK
6
CONTINUOUS
10
0.7927020472440944
20
0.3193480708661417
11
0.7915499212598425
21
0.3193480708661417
0
LINE
8
BLACK
6
CONTINUOUS
10
0.7915499212598425
20
0.3193480708661417
11
0.7904855118110236
21
0.3197889763779527
0
LINE
8
BLACK
6
CONTINUOUS
10
0.7904855118110236
20
0.3197889763779527
11
0.7896708661417323
21
0.3206036220472441
0
LINE
8
BLACK
6
CONTINUOUS
10
0.7896708661417323
20
0.3206036220472441
11
0.7892299606299212
21
0.321668031496063
0
LINE
8
BLACK
6
CONTINUOUS
10
0.7892299606299212
20
0.321668031496063
11
0.7891732283464566
21
0.322244094488189
0
LINE
8
BLACK
6
CONTINUOUS
10
0.7891732283464566
20
0.322244094488189
11
0.7891732283464566
21
0.3281496062992126
0
LINE
8
BLACK
6
CONTINUOUS
10
0.7891732283464566
20
0.3281496062992126
11
0.6671259842519685
21
0.3281496062992126
0
LINE
8
BLACK
6
CONTINUOUS
10
0.6671259842519685
20
0.3281496062992126
11
0.6671259842519685
21
0.322244094488189
0
LINE
8
BLACK
6
CONTINUOUS
10
0.6671259842519685
20
0.322244094488189
11
0.667069251968504
21
0.321668031496063
0
LINE
8
BLACK
6
CONTINUOUS
10
0.667069251968504
20
0.321668031496063
11
0.6666283464566929
21
0.3206036220472441
0
LINE
8
BLACK
6
CONTINUOUS
10
0.6666283464566929
20
0.3206036220472441
11
0.6658137007874015
21
0.3197889763779527
0
LINE
8
BLACK
6
CONTINUOUS
10
0.6658137007874015
20
0.3197889763779527
11
0.6647492913385826
21
0.3193480708661417
0
LINE
8
BLACK
6
CONTINUOUS
10
0.6647492913385826
20
0.3193480708661417
11
0.6635971653543307
21
0.3193480708661417
0
LINE
8
BLACK
6
CONTINUOUS
10
0.6635971653543307
20
0.3193480708661417
11
0.6625327559055117
21
0.3197889763779527
0
LINE
8
BLACK
6
CONTINUOUS
10
0.6625327559055117
20
0.3197889763779527
11
0.6617181102362204
21
0.3206036220472441
0
LINE
8
BLACK
6
CONTINUOUS
10
0.6617181102362204
20
0.3206036220472441
11
0.6612772047244094
21
0.321668031496063
0
LINE
8
BLACK
6
CONTINUOUS
10
0.6612772047244094
20
0.321668031496063
11
0.6612204724409448
21
0.322244094488189
0
LINE
8
BLACK
6
CONTINUOUS
10
0.6612204724409448
20
0.322244094488189
11
0.6612204724409448
21
0.3311023622047244
0
LINE
8
BLACK
6
CONTINUOUS
10
0.6612204724409448
20
0.3311023622047244
11
0.6612772047244094
21
0.3316784251968504
0
LINE
8
BLACK
6
CONTINUOUS
10
0.6612772047244094
20
0.3316784251968504
11
0.6617181102362204
21
0.3327428346456693
0
LINE
8
BLACK
6
CONTINUOUS
10
0.6617181102362204
20
0.3327428346456693
11
0.6625327559055117
21
0.3335574803149606
0
LINE
8
BLACK
6
CONTINUOUS
10
0.6625327559055117
20
0.3335574803149606
11
0.6635971653543307
21
0.3339983858267717
0
LINE
8
BLACK
6
CONTINUOUS
10
0.6635971653543307
20
0.3339983858267717
11
0.6641732283464566
21
0.3340551181102362
0
LINE
8
BLACK
6
CONTINUOUS
10
0.6641732283464566
20
0.3340551181102362
11
0.7921259842519685
21
0.3340551181102362
0
LINE
8
BLACK
6
CONTINUOUS
10
0.7921259842519685
20
0.3340551181102362
11
0.7927020472440944
21
0.3339983858267717
0
LINE
8
BLACK
6
CONTINUOUS
10
0.4649461417322834
20
0.3415180708661417
11
0.4660105511811024
21
0.3410771653543307
0
LINE
8
BLACK
6
CONTINUOUS
10
0.4660105511811024
20
0.3410771653543307
11
0.4668251968503937
21
0.3402625196850393
0
LINE
8
BLACK
6
CONTINUOUS
10
0.4668251968503937
20
0.3402625196850393
11
0.4672661023622047
21
0.3391981102362205
0
LINE
8
BLACK
6
CONTINUOUS
10
0.4672661023622047
20
0.3391981102362205
11
0.4672661023622047
21
0.3380459842519685
0
LINE
8
BLACK
6
CONTINUOUS
10
0.4672661023622047
20
0.3380459842519685
11
0.4668251968503937
21
0.3369815748031496
0
LINE
8
BLACK
6
CONTINUOUS
10
0.4668251968503937
20
0.3369815748031496
11
0.4660105511811024
21
0.3361669291338583
0
LINE
8
BLACK
6
CONTINUOUS
10
0.4660105511811024
20
0.3361669291338583
11
0.4649461417322834
21
0.3357260236220472
0
LINE
8
BLACK
6
CONTINUOUS
10
0.4649461417322834
20
0.3357260236220472
11
0.4643700787401575
21
0.3356692913385826
0
LINE
8
BLACK
6
CONTINUOUS
10
0.4643700787401575
20
0.3356692913385826
11
0.4043700787401575
21
0.3356692913385826
0
LINE
8
BLACK
6
CONTINUOUS
10
0.4043700787401575
20
0.3356692913385826
11
0.4037940157480315
21
0.3357260236220472
0
LINE
8
BLACK
6
CONTINUOUS
10
0.4037940157480315
20
0.3357260236220472
11
0.4027296062992126
21
0.3361669291338583
0
LINE
8
BLACK
6
CONTINUOUS
10
0.4027296062992126
20
0.3361669291338583
11
0.4019149606299213
21
0.3369815748031496
0
LINE
8
BLACK
6
CONTINUOUS
10
0.4019149606299213
20
0.3369815748031496
11
0.4014740551181102
21
0.3380459842519685
0
LINE
8
BLACK
6
CONTINUOUS
10
0.4014740551181102
20
0.3380459842519685
11
0.4014740551181102
21
0.3391981102362205
0
LINE
8
BLACK
6
CONTINUOUS
10
0.4014740551181102
20
0.3391981102362205
11
0.4019149606299213
21
0.3402625196850393
0
LINE
8
BLACK
6
CONTINUOUS
10
0.4019149606299213
20
0.3402625196850393
11
0.4027296062992126
21
0.3410771653543307
0
LINE
8
BLACK
6
CONTINUOUS
10
0.4027296062992126
20
0.3410771653543307
11
0.4037940157480315
21
0.3415180708661417
0
LINE
8
BLACK
6
CONTINUOUS
10
0.4037940157480315
20
0.3415180708661417
11
0.4043700787401575
21
0.3415748031496063
0
LINE
8
BLACK
6
CONTINUOUS
10
0.4043700787401575
20
0.3415748031496063
11
0.4643700787401575
21
0.3415748031496063
0
LINE
8
BLACK
6
CONTINUOUS
10
0.4643700787401575
20
0.3415748031496063
11
0.4649461417322834
21
0.3415180708661417
0
LINE
8
BLACK
6
CONTINUOUS
10
0.3353713779527559
20
0.4173016141732284
11
0.3355511811023622
21
0.4163976377952756
0
LINE
8
BLACK
6
CONTINUOUS
10
0.3355511811023622
20
0.4163976377952756
11
0.3355511811023622
21
0.3415944881889764
0
LINE
8
BLACK
6
CONTINUOUS
10
0.3355511811023622
20
0.3415944881889764
11
0.3780708661417323
21
0.3415944881889764
0
LINE
8
BLACK
6
CONTINUOUS
10
0.3780708661417323
20
0.3415944881889764
11
0.3780708661417323
21
0.4163976377952756
0
LINE
8
BLACK
6
CONTINUOUS
10
0.3780708661417323
20
0.4163976377952756
11
0.3782506692913385
21
0.4173016141732284
0
LINE
8
BLACK
6
CONTINUOUS
10
0.3782506692913385
20
0.4173016141732284
11
0.3795290944881889
21
0.4185800393700787
0
LINE
8
BLACK
6
CONTINUOUS
10
0.3795290944881889
20
0.4185800393700787
11
0.3813370472440945
21
0.4185800393700787
0
LINE
8
BLACK
6
CONTINUOUS
10
0.3813370472440945
20
0.4185800393700787
11
0.3826154724409448
21
0.4173016141732284
0
LINE
8
BLACK
6
CONTINUOUS
10
0.3826154724409448
20
0.4173016141732284
11
0.3827952755905512
21
0.4163976377952756
0
LINE
8
BLACK
6
CONTINUOUS
10
0.3827952755905512
20
0.4163976377952756
11
0.3827952755905512
21
0.3392322834645669
0
LINE
8
BLACK
6
CONTINUOUS
10
0.3827952755905512
20
0.3392322834645669
11
0.3826154724409448
21
0.3383283070866142
0
LINE
8
BLACK
6
CONTINUOUS
10
0.3826154724409448
20
0.3383283070866142
11
0.3813370472440945
21
0.3370498818897638
0
LINE
8
BLACK
6
CONTINUOUS
10
0.3813370472440945
20
0.3370498818897638
11
0.3804330708661417
21
0.3368700787401575
0
LINE
8
BLACK
6
CONTINUOUS
10
0.3804330708661417
20
0.3368700787401575
11
0.3331889763779528
21
0.3368700787401575
0
LINE
8
BLACK
6
CONTINUOUS
10
0.3331889763779528
20
0.3368700787401575
11
0.332285
21
0.3370498818897638
0
LINE
8
BLACK
6
CONTINUOUS
10
0.332285
20
0.3370498818897638
11
0.3310065748031496
21
0.3383283070866142
0
LINE
8
BLACK
6
CONTINUOUS
10
0.3310065748031496
20
0.3383283070866142
11
0.3308267716535433
21
0.3392322834645669
0
LINE
8
BLACK
6
CONTINUOUS
10
0.3308267716535433
20
0.3392322834645669
11
0.3308267716535433
21
0.4163976377952756
0
LINE
8
BLACK
6
CONTINUOUS
10
0.3308267716535433
20
0.4163976377952756
11
0.3310065748031496
21
0.4173016141732284
0
LINE
8
BLACK
6
CONTINUOUS
10
0.3310065748031496
20
0.4173016141732284
11
0.332285
21
0.4185800393700787
0
LINE
8
BLACK
6
CONTINUOUS
10
0.332285
20
0.4185800393700787
11
0.3340929527559055
21
0.4185800393700787
0
LINE
8
BLACK
6
CONTINUOUS
10
0.3340929527559055
20
0.4185800393700787
11
0.3353713779527559
21
0.4173016141732284
0
LINE
8
BLACK
6
CONTINUOUS
10
0.4065524803149606
20
0.4145260236220472
11
0.4067322834645669
21
0.4136220472440945
0
LINE
8
BLACK
6
CONTINUOUS
10
0.4067322834645669
20
0.4136220472440945
11
0.4067322834645669
21
0.3836220472440945
0
LINE
8
BLACK
6
CONTINUOUS
10
0.4067322834645669
20
0.3836220472440945
11
0.4065524803149606
21
0.3827180708661417
0
LINE
8
BLACK
6
CONTINUOUS
10
0.4065524803149606
20
0.3827180708661417
11
0.4052740551181102
21
0.3814396456692913
0
LINE
8
BLACK
6
CONTINUOUS
10
0.4052740551181102
20
0.3814396456692913
11
0.4034661023622047
21
0.3814396456692913
0
LINE
8
BLACK
6
CONTINUOUS
10
0.4034661023622047
20
0.3814396456692913
11
0.4021876771653543
21
0.3827180708661417
0
LINE
8
BLACK
6
CONTINUOUS
10
0.4021876771653543
20
0.3827180708661417
11
0.402007874015748
21
0.3836220472440945
0
LINE
8
BLACK
6
CONTINUOUS
10
0.402007874015748
20
0.3836220472440945
11
0.402007874015748
21
0.4136220472440945
0
LINE
8
BLACK
6
CONTINUOUS
10
0.402007874015748
20
0.4136220472440945
11
0.4021876771653543
21
0.4145260236220472
0
LINE
8
BLACK
6
CONTINUOUS
10
0.4021876771653543
20
0.4145260236220472
11
0.4034661023622047
21
0.4158044488188976
0
LINE
8
BLACK
6
CONTINUOUS
10
0.4034661023622047
20
0.4158044488188976
11
0.4052740551181102
21
0.4158044488188976
0
LINE
8
BLACK
6
CONTINUOUS
10
0.4052740551181102
20
0.4158044488188976
11
0.4065524803149606
21
0.4145260236220472
0
LINE
8
BLACK
6
CONTINUOUS
10
0.4665524803149606
20
0.4145260236220472
11
0.4667322834645669
21
0.4136220472440945
0
LINE
8
BLACK
6
CONTINUOUS
10
0.4667322834645669
20
0.4136220472440945
11
0.4667322834645669
21
0.3836220472440945
0
LINE
8
BLACK
6
CONTINUOUS
10
0.4667322834645669
20
0.3836220472440945
11
0.4665524803149606
21
0.3827180708661417
0
LINE
8
BLACK
6
CONTINUOUS
10
0.4665524803149606
20
0.3827180708661417
11
0.4652740551181102
21
0.3814396456692913
0
LINE
8
BLACK
6
CONTINUOUS
10
0.4652740551181102
20
0.3814396456692913
11
0.4634661023622047
21
0.3814396456692913
0
LINE
8
BLACK
6
CONTINUOUS
10
0.4634661023622047
20
0.3814396456692913
11
0.4621876771653543
21
0.3827180708661417
0
LINE
8
BLACK
6
CONTINUOUS
10
0.4621876771653543
20
0.3827180708661417
11
0.462007874015748
21
0.3836220472440945
0
LINE
8
BLACK
6
CONTINUOUS
10
0.462007874015748
20
0.3836220472440945
11
0.462007874015748
21
0.4136220472440945
0
LINE
8
BLACK
6
CONTINUOUS
10
0.462007874015748
20
0.4136220472440945
11
0.4621876771653543
21
0.4145260236220472
0
LINE
8
BLACK
6
CONTINUOUS
10
0.4621876771653543
20
0.4145260236220472
11
0.4634661023622047
21
0.4158044488188976
0
LINE
8
BLACK
6
CONTINUOUS
10
0.4634661023622047
20
0.4158044488188976
11
0.4652740551181102
21
0.4158044488188976
0
LINE
8
BLACK
6
CONTINUOUS
10
0.4652740551181102
20
0.4158044488188976
11
0.4665524803149606
21
0.4145260236220472
0
LINE
8
BLACK
6
CONTINUOUS
10
0.2640918503937008
20
0.4041424803149606
11
0.2642716535433071
21
0.4032385039370079
0
LINE
8
BLACK
6
CONTINUOUS
10
0.2642716535433071
20
0.4032385039370079
11
0.2642716535433071
21
0.3845567716535433
0
LINE
8
BLACK
6
CONTINUOUS
10
0.2642716535433071
20
0.3845567716535433
11
0.2640918503937008
21
0.3836527952755905
0
LINE
8
BLACK
6
CONTINUOUS
10
0.2640918503937008
20
0.3836527952755905
11
0.2628134251968504
21
0.3823743700787401
0
LINE
8
BLACK
6
CONTINUOUS
10
0.2628134251968504
20
0.3823743700787401
11
0.2610054724409449
21
0.3823743700787401
0
LINE
8
BLACK
6
CONTINUOUS
10
0.2610054724409449
20
0.3823743700787401
11
0.2597270472440945
21
0.3836527952755905
0
LINE
8
BLACK
6
CONTINUOUS
10
0.2597270472440945
20
0.3836527952755905
11
0.2595472440944882
21
0.3845567716535433
0
LINE
8
BLACK
6
CONTINUOUS
10
0.2595472440944882
20
0.3845567716535433
11
0.2595472440944882
21
0.4032385039370079
0
LINE
8
BLACK
6
CONTINUOUS
10
0.2595472440944882
20
0.4032385039370079
11
0.2597270472440945
21
0.4041424803149606
0
LINE
8
BLACK
6
CONTINUOUS
10
0.2597270472440945
20
0.4041424803149606
11
0.2610054724409449
21
0.405420905511811
0
LINE
8
BLACK
6
CONTINUOUS
10
0.2610054724409449
20
0.405420905511811
11
0.2628134251968504
21
0.405420905511811
0
LINE
8
BLACK
6
CONTINUOUS
10
0.2628134251968504
20
0.405420905511811
11
0.2640918503937008
21
0.4041424803149606
0
LINE
8
BLACK
6
CONTINUOUS
10
0.3052335826771653
20
0.4041424803149606
11
0.3054133858267716
21
0.4032385039370079
0
LINE
8
BLACK
6
CONTINUOUS
10
0.3054133858267716
20
0.4032385039370079
11
0.3054133858267716
21
0.3845567716535433
0
LINE
8
BLACK
6
CONTINUOUS
10
0.3054133858267716
20
0.3845567716535433
11
0.3052335826771653
21
0.3836527952755905
0
LINE
8
BLACK
6
CONTINUOUS
10
0.3052335826771653
20
0.3836527952755905
11
0.3039551574803149
21
0.3823743700787401
0
LINE
8
BLACK
6
CONTINUOUS
10
0.3039551574803149
20
0.3823743700787401
11
0.3021472047244094
21
0.3823743700787401
0
LINE
8
BLACK
6
CONTINUOUS
10
0.3021472047244094
20
0.3823743700787401
11
0.300868779527559
21
0.3836527952755905
0
LINE
8
BLACK
6
CONTINUOUS
10
0.300868779527559
20
0.3836527952755905
11
0.3006889763779527
21
0.3845567716535433
0
LINE
8
BLACK
6
CONTINUOUS
10
0.3006889763779527
20
0.3845567716535433
11
0.3006889763779527
21
0.4032385039370079
0
LINE
8
BLACK
6
CONTINUOUS
10
0.3006889763779527
20
0.4032385039370079
11
0.300868779527559
21
0.4041424803149606
0
LINE
8
BLACK
6
CONTINUOUS
10
0.300868779527559
20
0.4041424803149606
11
0.3021472047244094
21
0.405420905511811
0
LINE
8
BLACK
6
CONTINUOUS
10
0.3021472047244094
20
0.405420905511811
11
0.3039551574803149
21
0.405420905511811
0
LINE
8
BLACK
6
CONTINUOUS
10
0.3039551574803149
20
0.405420905511811
11
0.3052335826771653
21
0.4041424803149606
0
LINE
8
BLACK
6
CONTINUOUS
10
0.4952138976377953
20
0.3992417322834645
11
0.4953937007874016
21
0.3983377559055118
0
LINE
8
BLACK
6
CONTINUOUS
10
0.4953937007874016
20
0.3983377559055118
11
0.4953937007874016
21
0.3855205118110236
0
LINE
8
BLACK
6
CONTINUOUS
10
0.4953937007874016
20
0.3855205118110236
11
0.4952138976377953
21
0.3846165354330708
0
LINE
8
BLACK
6
CONTINUOUS
10
0.4952138976377953
20
0.3846165354330708
11
0.4939354724409449
21
0.3833381102362204
0
LINE
8
BLACK
6
CONTINUOUS
10
0.4939354724409449
20
0.3833381102362204
11
0.4921275196850394
21
0.3833381102362204
0
LINE
8
BLACK
6
CONTINUOUS
10
0.4921275196850394
20
0.3833381102362204
11
0.490849094488189
21
0.3846165354330708
0
LINE
8
BLACK
6
CONTINUOUS
10
0.490849094488189
20
0.3846165354330708
11
0.4906692913385827
21
0.3855205118110236
0
LINE
8
BLACK
6
CONTINUOUS
10
0.4906692913385827
20
0.3855205118110236
11
0.4906692913385827
21
0.3983377559055118
0
LINE
8
BLACK
6
CONTINUOUS
10
0.4906692913385827
20
0.3983377559055118
11
0.490849094488189
21
0.3992417322834645
0
LINE
8
BLACK
6
CONTINUOUS
10
0.490849094488189
20
0.3992417322834645
11
0.4921275196850394
21
0.4005201574803149
0
LINE
8
BLACK
6
CONTINUOUS
10
0.4921275196850394
20
0.4005201574803149
11
0.4939354724409449
21
0.4005201574803149
0
LINE
8
BLACK
6
CONTINUOUS
10
0.4939354724409449
20
0.4005201574803149
11
0.4952138976377953
21
0.3992417322834645
0
LINE
8
BLACK
6
CONTINUOUS
10
0.5353713779527559
20
0.3992417322834645
11
0.5355511811023622
21
0.3983377559055118
0
LINE
8
BLACK
6
CONTINUOUS
10
0.5355511811023622
20
0.3983377559055118
11
0.5355511811023622
21
0.3855205118110236
0
LINE
8
BLACK
6
CONTINUOUS
10
0.5355511811023622
20
0.3855205118110236
11
0.5353713779527559
21
0.3846165354330708
0
LINE
8
BLACK
6
CONTINUOUS
10
0.5353713779527559
20
0.3846165354330708
11
0.5340929527559055
21
0.3833381102362204
0
LINE
8
BLACK
6
CONTINUOUS
10
0.5340929527559055
20
0.3833381102362204
11
0.532285
21
0.3833381102362204
0
LINE
8
BLACK
6
CONTINUOUS
10
0.532285
20
0.3833381102362204
11
0.5310065748031496
21
0.3846165354330708
0
LINE
8
BLACK
6
CONTINUOUS
10
0.5310065748031496
20
0.3846165354330708
11
0.5308267716535433
21
0.3855205118110236
0
LINE
8
BLACK
6
CONTINUOUS
10
0.5308267716535433
20
0.3855205118110236
11
0.5308267716535433
21
0.3983377559055118
0
LINE
8
BLACK
6
CONTINUOUS
10
0.5308267716535433
20
0.3983377559055118
11
0.5310065748031496
21
0.3992417322834645
0
LINE
8
BLACK
6
CONTINUOUS
10
0.5310065748031496
20
0.3992417322834645
11
0.532285
21
0.4005201574803149
0
LINE
8
BLACK
6
CONTINUOUS
10
0.532285
20
0.4005201574803149
11
0.5340929527559055
21
0.4005201574803149
0
LINE
8
BLACK
6
CONTINUOUS
10
0.5340929527559055
20
0.4005201574803149
11
0.5353713779527559
21
0.3992417322834645
0
LINE
8
BLACK
6
CONTINUOUS
10
0.1853527952755905
20
0.4641902755905511
11
0.1866312204724409
21
0.4629118503937008
0
LINE
8
BLACK
6
CONTINUOUS
10
0.1866312204724409
20
0.4629118503937008
11
0.1868110236220472
21
0.462007874015748
0
LINE
8
BLACK
6
CONTINUOUS
10
0.1868110236220472
20
0.462007874015748
11
0.1868110236220472
21
0.393503937007874
0
LINE
8
BLACK
6
CONTINUOUS
10
0.1868110236220472
20
0.393503937007874
11
0.2234251968503937
21
0.393503937007874
0
LINE
8
BLACK
6
CONTINUOUS
10
0.2234251968503937
20
0.393503937007874
11
0.2243291732283464
21
0.3933241338582677
0
LINE
8
BLACK
6
CONTINUOUS
10
0.2243291732283464
20
0.3933241338582677
11
0.2256075984251968
21
0.3920457086614173
0
LINE
8
BLACK
6
CONTINUOUS
10
0.2256075984251968
20
0.3920457086614173
11
0.2256075984251968
21
0.3902377559055118
0
LINE
8
BLACK
6
CONTINUOUS
10
0.2256075984251968
20
0.3902377559055118
11
0.2243291732283464
21
0.3889593307086614
0
LINE
8
BLACK
6
CONTINUOUS
10
0.2243291732283464
20
0.3889593307086614
11
0.2234251968503937
21
0.3887795275590551
0
LINE
8
BLACK
6
CONTINUOUS
10
0.2234251968503937
20
0.3887795275590551
11
0.1844488188976378
21
0.3887795275590551
0
LINE
8
BLACK
6
CONTINUOUS
10
0.1844488188976378
20
0.3887795275590551
11
0.183544842519685
21
0.3889593307086614
0
LINE
8
BLACK
6
CONTINUOUS
10
0.183544842519685
20
0.3889593307086614
11
0.1822664173228346
21
0.3902377559055118
0
LINE
8
BLACK
6
CONTINUOUS
10
0.1822664173228346
20
0.3902377559055118
11
0.1820866141732284
21
0.3911417322834645
0
LINE
8
BLACK
6
CONTINUOUS
10
0.1820866141732284
20
0.3911417322834645
11
0.1820866141732284
21
0.4596456692913386
0
LINE
8
BLACK
6
CONTINUOUS
10
0.1820866141732284
20
0.4596456692913386
11
0.1273622047244095
21
0.4596456692913386
0
LINE
8
BLACK
6
CONTINUOUS
10
0.1273622047244095
20
0.4596456692913386
11
0.1264582283464567
21
0.4598254724409448
0
LINE
8
BLACK
6
CONTINUOUS
10
0.1264582283464567
20
0.4598254724409448
11
0.1251798031496063
21
0.4611038976377952
0
LINE
8
BLACK
6
CONTINUOUS
10
0.1251798031496063
20
0.4611038976377952
11
0.1251798031496063
21
0.4629118503937008
0
LINE
8
BLACK
6
CONTINUOUS
10
0.1251798031496063
20
0.4629118503937008
11
0.1264582283464567
21
0.4641902755905511
0
LINE
8
BLACK
6
CONTINUOUS
10
0.1264582283464567
20
0.4641902755905511
11
0.1273622047244095
21
0.4643700787401575
0
LINE
8
BLACK
6
CONTINUOUS
10
0.1273622047244095
20
0.4643700787401575
11
0.1844488188976378
21
0.4643700787401575
0
LINE
8
BLACK
6
CONTINUOUS
10
0.1844488188976378
20
0.4643700787401575
11
0.1853527952755905
21
0.4641902755905511
0
LINE
8
BLACK
6
CONTINUOUS
10
0.7533635039370079
20
0.4611511811023622
11
0.7535433070866142
21
0.4602472047244094
0
LINE
8
BLACK
6
CONTINUOUS
10
0.7535433070866142
20
0.4602472047244094
11
0.7535433070866142
21
0.4474299606299212
0
LINE
8
BLACK
6
CONTINUOUS
10
0.7535433070866142
20
0.4474299606299212
11
0.7533635039370079
21
0.4465259842519685
0
LINE
8
BLACK
6
CONTINUOUS
10
0.7533635039370079
20
0.4465259842519685
11
0.7520850787401575
21
0.4452475590551181
0
LINE
8
BLACK
6
CONTINUOUS
10
0.7520850787401575
20
0.4452475590551181
11
0.750277125984252
21
0.4452475590551181
0
LINE
8
BLACK
6
CONTINUOUS
10
0.750277125984252
20
0.4452475590551181
11
0.7489987007874016
21
0.4465259842519685
0
LINE
8
BLACK
6
CONTINUOUS
10
0.7489987007874016
20
0.4465259842519685
11
0.7488188976377953
21
0.4474299606299212
0
LINE
8
BLACK
6
CONTINUOUS
10
0.7488188976377953
20
0.4474299606299212
11
0.7488188976377953
21
0.4602472047244094
0
LINE
8
BLACK
6
CONTINUOUS
10
0.7488188976377953
20
0.4602472047244094
11
0.7489987007874016
21
0.4611511811023622
0
LINE
8
BLACK
6
CONTINUOUS
10
0.7489987007874016
20
0.4611511811023622
11
0.750277125984252
21
0.4624296062992126
0
LINE
8
BLACK
6
CONTINUOUS
10
0.750277125984252
20
0.4624296062992126
11
0.7520850787401575
21
0.4624296062992126
0
LINE
8
BLACK
6
CONTINUOUS
10
0.7520850787401575
20
0.4624296062992126
11
0.7533635039370079
21
0.4611511811023622
0
LINE
8
BLACK
6
CONTINUOUS
10
0.7935209842519685
20
0.4611511811023622
11
0.7937007874015748
21
0.4602472047244094
0
LINE
8
BLACK
6
CONTINUOUS
10
0.7937007874015748
20
0.4602472047244094
11
0.7937007874015748
21
0.4474299606299212
0
LINE
8
BLACK
6
CONTINUOUS
10
0.7937007874015748
20
0.4474299606299212
11
0.7935209842519685
21
0.4465259842519685
0
LINE
8
BLACK
6
CONTINUOUS
10
0.7935209842519685
20
0.4465259842519685
11
0.7922425590551181
21
0.4452475590551181
0
LINE
8
BLACK
6
CONTINUOUS
10
0.7922425590551181
20
0.4452475590551181
11
0.7904346062992126
21
0.4452475590551181
0
LINE
8
BLACK
6
CONTINUOUS
10
0.7904346062992126
20
0.4452475590551181
11
0.7891561811023622
21
0.4465259842519685
0
LINE
8
BLACK
6
CONTINUOUS
10
0.7891561811023622
20
0.4465259842519685
11
0.7889763779527559
21
0.4474299606299212
0
LINE
8
BLACK
6
CONTINUOUS
10
0.7889763779527559
20
0.4474299606299212
11
0.7889763779527559
21
0.4602472047244094
0
LINE
8
BLACK
6
CONTINUOUS
10
0.7889763779527559
20
0.4602472047244094
11
0.7891561811023622
21
0.4611511811023622
0
LINE
8
BLACK
6
CONTINUOUS
10
0.7891561811023622
20
0.4611511811023622
11
0.7904346062992126
21
0.4624296062992126
0
LINE
8
BLACK
6
CONTINUOUS
10
0.7904346062992126
20
0.4624296062992126
11
0.7922425590551181
21
0.4624296062992126
0
LINE
8
BLACK
6
CONTINUOUS
10
0.7922425590551181
20
0.4624296062992126
11
0.7935209842519685
21
0.4611511811023622
0
LINE
8
BLACK
6
CONTINUOUS
10
0.6852532677165354
20
0.4615448818897638
11
0.6854330708661417
21
0.460640905511811
0
LINE
8
BLACK
6
CONTINUOUS
10
0.6854330708661417
20
0.460640905511811
11
0.6854330708661417
21
0.4478236614173228
0
LINE
8
BLACK
6
CONTINUOUS
10
0.6854330708661417
20
0.4478236614173228
11
0.6852532677165354
21
0.4469196850393701
0
LINE
8
BLACK
6
CONTINUOUS
10
0.6852532677165354
20
0.4469196850393701
11
0.683974842519685
21
0.4456412598425197
0
LINE
8
BLACK
6
CONTINUOUS
10
0.683974842519685
20
0.4456412598425197
11
0.6821668897637795
21
0.4456412598425197
0
LINE
8
BLACK
6
CONTINUOUS
10
0.6821668897637795
20
0.4456412598425197
11
0.6808884645669291
21
0.4469196850393701
0
LINE
8
BLACK
6
CONTINUOUS
10
0.6808884645669291
20
0.4469196850393701
11
0.6807086614173228
21
0.4478236614173228
0
LINE
8
BLACK
6
CONTINUOUS
10
0.6807086614173228
20
0.4478236614173228
11
0.6807086614173228
21
0.460640905511811
0
LINE
8
BLACK
6
CONTINUOUS
10
0.6807086614173228
20
0.460640905511811
11
0.6808884645669291
21
0.4615448818897638
0
LINE
8
BLACK
6
CONTINUOUS
10
0.6808884645669291
20
0.4615448818897638
11
0.6821668897637795
21
0.4628233070866142
0
LINE
8
BLACK
6
CONTINUOUS
10
0.6821668897637795
20
0.4628233070866142
11
0.683974842519685
21
0.4628233070866142
0
LINE
8
BLACK
6
CONTINUOUS
10
0.683974842519685
20
0.4628233070866142
11
0.6852532677165354
21
0.4615448818897638
0
LINE
8
BLACK
6
CONTINUOUS
10
0.7254107480314961
20
0.4615448818897638
11
0.7255905511811024
21
0.460640905511811
0
LINE
8
BLACK
6
CONTINUOUS
10
0.7255905511811024
20
0.460640905511811
11
0.7255905511811024
21
0.4478236614173228
0
LINE
8
BLACK
6
CONTINUOUS
10
0.7255905511811024
20
0.4478236614173228
11
0.7254107480314961
21
0.4469196850393701
0
LINE
8
BLACK
6
CONTINUOUS
10
0.7254107480314961
20
0.4469196850393701
11
0.7241323228346457
21
0.4456412598425197
0
LINE
8
BLACK
6
CONTINUOUS
10
0.7241323228346457
20
0.4456412598425197
11
0.7223243700787402
21
0.4456412598425197
0
LINE
8
BLACK
6
CONTINUOUS
10
0.7223243700787402
20
0.4456412598425197
11
0.7210459448818898
21
0.4469196850393701
0
LINE
8
BLACK
6
CONTINUOUS
10
0.7210459448818898
20
0.4469196850393701
11
0.7208661417322835
21
0.4478236614173228
0
LINE
8
BLACK
6
CONTINUOUS
10
0.7208661417322835
20
0.4478236614173228
11
0.7208661417322835
21
0.460640905511811
0
LINE
8
BLACK
6
CONTINUOUS
10
0.7208661417322835
20
0.460640905511811
11
0.7210459448818898
21
0.4615448818897638
0
LINE
8
BLACK
6
CONTINUOUS
10
0.7210459448818898
20
0.4615448818897638
11
0.7223243700787402
21
0.4628233070866142
0
LINE
8
BLACK
6
CONTINUOUS
10
0.7223243700787402
20
0.4628233070866142
11
0.7241323228346457
21
0.4628233070866142
0
LINE
8
BLACK
6
CONTINUOUS
10
0.7241323228346457
20
0.4628233070866142
11
0.7254107480314961
21
0.4615448818897638
0
LINE
8
BLACK
6
CONTINUOUS
10
0.4649461417322834
20
0.4615180708661417
11
0.4660105511811024
21
0.4610771653543307
0
LINE
8
BLACK
6
CONTINUOUS
10
0.4660105511811024
20
0.4610771653543307
11
0.4668251968503937
21
0.4602625196850393
0
LINE
8
BLACK
6
CONTINUOUS
10
0.4668251968503937
20
0.4602625196850393
11
0.4672661023622047
21
0.4591981102362205
0
LINE
8
BLACK
6
CONTINUOUS
10
0.4672661023622047
20
0.4591981102362205
11
0.4672661023622047
21
0.4580459842519685
0
LINE
8
BLACK
6
CONTINUOUS
10
0.4672661023622047
20
0.4580459842519685
11
0.4668251968503937
21
0.4569815748031496
0
LINE
8
BLACK
6
CONTINUOUS
10
0.4668251968503937
20
0.4569815748031496
11
0.4660105511811024
21
0.4561669291338583
0
LINE
8
BLACK
6
CONTINUOUS
10
0.4660105511811024
20
0.4561669291338583
11
0.4649461417322834
21
0.4557260236220472
0
LINE
8
BLACK
6
CONTINUOUS
10
0.4649461417322834
20
0.4557260236220472
11
0.4643700787401575
21
0.4556692913385827
0
LINE
8
BLACK
6
CONTINUOUS
10
0.4643700787401575
20
0.4556692913385827
11
0.4043700787401575
21
0.4556692913385827
0
LINE
8
BLACK
6
CONTINUOUS
10
0.4043700787401575
20
0.4556692913385827
11
0.4037940157480315
21
0.4557260236220472
0
LINE
8
BLACK
6
CONTINUOUS
10
0.4037940157480315
20
0.4557260236220472
11
0.4027296062992126
21
0.4561669291338583
0
LINE
8
BLACK
6
CONTINUOUS
10
0.4027296062992126
20
0.4561669291338583
11
0.4019149606299213
21
0.4569815748031496
0
LINE
8
BLACK
6
CONTINUOUS
10
0.4019149606299213
20
0.4569815748031496
11
0.4014740551181102
21
0.4580459842519685
0
LINE
8
BLACK
6
CONTINUOUS
10
0.4014740551181102
20
0.4580459842519685
11
0.4014740551181102
21
0.4591981102362205
0
LINE
8
BLACK
6
CONTINUOUS
10
0.4014740551181102
20
0.4591981102362205
11
0.4019149606299213
21
0.4602625196850393
0
LINE
8
BLACK
6
CONTINUOUS
10
0.4019149606299213
20
0.4602625196850393
11
0.4027296062992126
21
0.4610771653543307
0
LINE
8
BLACK
6
CONTINUOUS
10
0.4027296062992126
20
0.4610771653543307
11
0.4037940157480315
21
0.4615180708661417
0
LINE
8
BLACK
6
CONTINUOUS
10
0.4037940157480315
20
0.4615180708661417
11
0.4043700787401575
21
0.4615748031496063
0
LINE
8
BLACK
6
CONTINUOUS
10
0.4043700787401575
20
0.4615748031496063
11
0.4643700787401575
21
0.4615748031496063
0
LINE
8
BLACK
6
CONTINUOUS
10
0.4643700787401575
20
0.4615748031496063
11
0.4649461417322834
21
0.4615180708661417
0
LINE
8
BLACK
6
CONTINUOUS
10
0.4361593307086614
20
0.5292338976377953
11
0.4369739763779528
21
0.5284192519685039
0
LINE
8
BLACK
6
CONTINUOUS
10
0.4369739763779528
20
0.5284192519685039
11
0.4374148818897638
21
0.527354842519685
0
LINE
8
BLACK
6
CONTINUOUS
10
0.4374148818897638
20
0.527354842519685
11
0.4374716141732283
21
0.526778779527559
0
LINE
8
BLACK
6
CONTINUOUS
10
0.4374716141732283
20
0.526778779527559
11
0.4374716141732283
21
0.5114101968503937
0
LINE
8
BLACK
6
CONTINUOUS
10
0.4374716141732283
20
0.5114101968503937
11
0.4549281102362205
21
0.5288666929133858
0
LINE
8
BLACK
6
CONTINUOUS
10
0.4549281102362205
20
0.5288666929133858
11
0.4553755511811023
21
0.5292338976377953
0
LINE
8
BLACK
6
CONTINUOUS
10
0.4553755511811023
20
0.5292338976377953
11
0.4564399606299213
21
0.5296748031496062
0
LINE
8
BLACK
6
CONTINUOUS
10
0.4564399606299213
20
0.5296748031496062
11
0.4575920472440945
21
0.5296748031496062
0
LINE
8
BLACK
6
CONTINUOUS
10
0.4575920472440945
20
0.5296748031496062
11
0.4586564960629921
21
0.5292338976377953
0
LINE
8
BLACK
6
CONTINUOUS
10
0.4586564960629921
20
0.5292338976377953
11
0.4594711417322834
21
0.5284192519685039
0
LINE
8
BLACK
6
CONTINUOUS
10
0.4594711417322834
20
0.5284192519685039
11
0.4599120472440945
21
0.5273548031496063
0
LINE
8
BLACK
6
CONTINUOUS
10
0.4599120472440945
20
0.5273548031496063
11
0.4599120472440945
21
0.526202716535433
0
LINE
8
BLACK
6
CONTINUOUS
10
0.4599120472440945
20
0.526202716535433
11
0.4594711417322834
21
0.5251383070866141
0
LINE
8
BLACK
6
CONTINUOUS
10
0.4594711417322834
20
0.5251383070866141
11
0.459103937007874
21
0.5246908661417323
0
LINE
8
BLACK
6
CONTINUOUS
10
0.459103937007874
20
0.5246908661417323
11
0.4440418897637795
21
0.5096288582677165
0
LINE
8
BLACK
6
CONTINUOUS
10
0.4440418897637795
20
0.5096288582677165
11
0.4593782283464567
21
0.4891803543307087
0
LINE
8
BLACK
6
CONTINUOUS
10
0.4593782283464567
20
0.4891803543307087
11
0.4596785039370079
21
0.4886854724409448
0
LINE
8
BLACK
6
CONTINUOUS
10
0.4596785039370079
20
0.4886854724409448
11
0.4599644094488189
21
0.4875693700787401
0
LINE
8
BLACK
6
CONTINUOUS
10
0.4599644094488189
20
0.4875693700787401
11
0.4598014566929134
21
0.4864288976377953
0
LINE
8
BLACK
6
CONTINUOUS
10
0.4598014566929134
20
0.4864288976377953
11
0.4592144881889764
21
0.4854375196850393
0
LINE
8
BLACK
6
CONTINUOUS
10
0.4592144881889764
20
0.4854375196850393
11
0.4582927952755905
21
0.4847462204724409
0
LINE
8
BLACK
6
CONTINUOUS
10
0.4582927952755905
20
0.4847462204724409
11
0.4571767322834646
21
0.4844603149606299
0
LINE
8
BLACK
6
CONTINUOUS
10
0.4571767322834646
20
0.4844603149606299
11
0.4560362204724409
21
0.4846232283464567
0
LINE
8
BLACK
6
CONTINUOUS
10
0.4560362204724409
20
0.4846232283464567
11
0.455044842519685
21
0.4852102362204724
0
LINE
8
BLACK
6
CONTINUOUS
10
0.455044842519685
20
0.4852102362204724
11
0.4546538188976378
21
0.4856370472440945
0
LINE
8
BLACK
6
CONTINUOUS
10
0.4546538188976378
20
0.4856370472440945
11
0.4398236614173228
21
0.5054106299212598
0
LINE
8
BLACK
6
CONTINUOUS
10
0.4398236614173228
20
0.5054106299212598
11
0.4374716141732283
21
0.5030585433070865
0
LINE
8
BLACK
6
CONTINUOUS
10
0.4374716141732283
20
0.5030585433070865
11
0.4374716141732283
21
0.4874087007874016
0
LINE
8
BLACK
6
CONTINUOUS
10
0.4374716141732283
20
0.4874087007874016
11
0.4374148818897638
21
0.4868326377952756
0
LINE
8
BLACK
6
CONTINUOUS
10
0.4374148818897638
20
0.4868326377952756
11
0.4369739763779528
21
0.4857682283464567
0
LINE
8
BLACK
6
CONTINUOUS
10
0.4369739763779528
20
0.4857682283464567
11
0.4361593307086614
21
0.4849535826771653
0
LINE
8
BLACK
6
CONTINUOUS
10
0.4361593307086614
20
0.4849535826771653
11
0.4350949212598425
21
0.4845126771653543
0
LINE
8
BLACK
6
CONTINUOUS
10
0.4350949212598425
20
0.4845126771653543
11
0.4339427952755905
21
0.4845126771653543
0
LINE
8
BLACK
6
CONTINUOUS
10
0.4339427952755905
20
0.4845126771653543
11
0.4328783858267716
21
0.4849535826771653
0
LINE
8
BLACK
6
CONTINUOUS
10
0.4328783858267716
20
0.4849535826771653
11
0.4320637401574803
21
0.4857682283464567
0
LINE
8
BLACK
6
CONTINUOUS
10
0.4320637401574803
20
0.4857682283464567
11
0.4316228346456693
21
0.4868326377952756
0
LINE
8
BLACK
6
CONTINUOUS
10
0.4316228346456693
20
0.4868326377952756
11
0.4315661023622047
21
0.4874087007874016
0
LINE
8
BLACK
6
CONTINUOUS
10
0.4315661023622047
20
0.4874087007874016
11
0.4315661023622047
21
0.526778779527559
0
LINE
8
BLACK
6
CONTINUOUS
10
0.4315661023622047
20
0.526778779527559
11
0.4316228346456693
21
0.527354842519685
0
LINE
8
BLACK
6
CONTINUOUS
10
0.4316228346456693
20
0.527354842519685
11
0.4320637401574803
21
0.5284192519685039
0
LINE
8
BLACK
6
CONTINUOUS
10
0.4320637401574803
20
0.5284192519685039
11
0.4328783858267716
21
0.5292338976377953
0
LINE
8
BLACK
6
CONTINUOUS
10
0.4328783858267716
20
0.5292338976377953
11
0.4339427952755905
21
0.5296748031496062
0
LINE
8
BLACK
6
CONTINUOUS
10
0.4339427952755905
20
0.5296748031496062
11
0.4350949212598425
21
0.5296748031496062
0
LINE
8
BLACK
6
CONTINUOUS
10
0.4350949212598425
20
0.5296748031496062
11
0.4361593307086614
21
0.5292338976377953
  0
ENDSEC
  0
EOF
