  0
SECTION
  2
HEADER
  9
$ANGBASE
  50
0.0
  9
$ANGDIR
  70
1
  9
$MEASUREMENT
  70
0
  0
ENDSEC
  0
SECTION
  2
TABLES
  0
TABLE
  2
LTYPE
  70
4
  0
LTYPE
  5
40F
  2
CONTINUOUS
  70
0
  3
Solid line
  72
65
  73
0
  40
0.0
  0
LTYPE
  5
410
  2
DASHDOT
 70
0
  3
Dash Dot ____ _ ____ _
 72
65
 73
4
 40
2.0
 49
1.25
 49
-0.25
 49
0.25
 49
-0.25
  0
LTYPE
  5
411
  2
DASHED
 70
0
  3
Dashed __ __ __ __ __
 72
65
 73
2
 40
0.75
 49
0.5
 49
-0.25
  0
LTYPE
  5
43B
  2
DOTTED
 70
0
  3
Dotted .  .  .  .
 72
65
 73
2
 40
0.2
 49
0.0
 49
-0.2
  0
ENDTAB
  0
TABLE
  2
STYLE
  70
4
  0
STYLE
  2
KICAD
  70
0
  40
0
  41
1
  42
1
  50
0
  71
0
  3
isocp.shx
  0
STYLE
  2
KICADB
  70
0
  40
0
  41
1
  42
1
  50
0
  71
0
  3
isocp.shx
  0
STYLE
  2
KICADI
  70
0
  40
0
  41
1
  42
1
  50
15
  71
0
  3
isocp.shx
  0
STYLE
  2
KICADBI
  70
0
  40
0
  41
1
  42
1
  50
15
  71
0
  3
isocp.shx
  0
ENDTAB
  0
TABLE
  2
LAYER
  70
1
  0
LAYER
  2
BLACK
  70
0
  62
7
  6
CONTINUOUS
  0
ENDTAB
  0
ENDSEC
  0
SECTION
  2
ENTITIES
0
LINE
8
BLACK
6
CONTINUOUS
10
-0.8922296062992126
20
-0.8706515748031496
11
-0.8881544488188976
21
-0.8726438188976378
0
LINE
8
BLACK
6
CONTINUOUS
10
-0.8881544488188976
20
-0.8726438188976378
11
-0.8849469685039369
21
-0.8758512992125984
0
LINE
8
BLACK
6
CONTINUOUS
10
-0.8849469685039369
20
-0.8758512992125984
11
-0.8829547244094488
21
-0.8799264566929134
0
LINE
8
BLACK
6
CONTINUOUS
10
-0.8829547244094488
20
-0.8799264566929134
11
-0.8823818897637795
21
-0.8838582677165354
0
LINE
8
BLACK
6
CONTINUOUS
10
-0.8823818897637795
20
-0.8838582677165354
11
-0.8823818897637795
21
-0.8956692913385826
0
LINE
8
BLACK
6
CONTINUOUS
10
-0.8823818897637795
20
-0.8956692913385826
11
-0.8829547244094488
21
-0.8996011023622047
0
LINE
8
BLACK
6
CONTINUOUS
10
-0.8829547244094488
20
-0.8996011023622047
11
-0.8849469685039369
21
-0.9036762598425196
0
LINE
8
BLACK
6
CONTINUOUS
10
-0.8849469685039369
20
-0.9036762598425196
11
-0.8881544488188976
21
-0.9068837401574803
0
LINE
8
BLACK
6
CONTINUOUS
10
-0.8881544488188976
20
-0.9068837401574803
11
-0.8913880708661417
21
-0.9084645669291338
0
LINE
8
BLACK
6
CONTINUOUS
10
-0.8913880708661417
20
-0.9084645669291338
11
-0.8881544488188976
21
-0.9100453937007874
0
LINE
8
BLACK
6
CONTINUOUS
10
-0.8881544488188976
20
-0.9100453937007874
11
-0.8849469685039369
21
-0.9132528740157481
0
LINE
8
BLACK
6
CONTINUOUS
10
-0.8849469685039369
20
-0.9132528740157481
11
-0.8829547244094488
21
-0.917328031496063
0
LINE
8
BLACK
6
CONTINUOUS
10
-0.8829547244094488
20
-0.917328031496063
11
-0.8823818897637795
21
-0.9212598425196851
0
LINE
8
BLACK
6
CONTINUOUS
10
-0.8823818897637795
20
-0.9212598425196851
11
-0.8823818897637795
21
-0.9330708661417323
0
LINE
8
BLACK
6
CONTINUOUS
10
-0.8823818897637795
20
-0.9330708661417323
11
-0.8829547244094488
21
-0.9370026771653543
0
LINE
8
BLACK
6
CONTINUOUS
10
-0.8829547244094488
20
-0.9370026771653543
11
-0.8849469685039369
21
-0.9410778346456693
0
LINE
8
BLACK
6
CONTINUOUS
10
-0.8849469685039369
20
-0.9410778346456693
11
-0.8881544488188976
21
-0.94428531496063
0
LINE
8
BLACK
6
CONTINUOUS
10
-0.8881544488188976
20
-0.94428531496063
11
-0.8913880708661417
21
-0.9458661417322834
0
LINE
8
BLACK
6
CONTINUOUS
10
-0.8913880708661417
20
-0.9458661417322834
11
-0.8881544488188976
21
-0.9474469685039369
0
LINE
8
BLACK
6
CONTINUOUS
10
-0.8881544488188976
20
-0.9474469685039369
11
-0.8849469685039369
21
-0.9506544488188976
0
LINE
8
BLACK
6
CONTINUOUS
10
-0.8849469685039369
20
-0.9506544488188976
11
-0.8829547244094488
21
-0.9547296062992126
0
LINE
8
BLACK
6
CONTINUOUS
10
-0.8829547244094488
20
-0.9547296062992126
11
-0.8823818897637795
21
-0.9586614173228346
0
LINE
8
BLACK
6
CONTINUOUS
10
-0.8823818897637795
20
-0.9586614173228346
11
-0.8823818897637795
21
-0.9704724409448818
0
LINE
8
BLACK
6
CONTINUOUS
10
-0.8823818897637795
20
-0.9704724409448818
11
-0.8829547244094488
21
-0.9744042519685039
0
LINE
8
BLACK
6
CONTINUOUS
10
-0.8829547244094488
20
-0.9744042519685039
11
-0.8849469685039369
21
-0.9784794094488188
0
LINE
8
BLACK
6
CONTINUOUS
10
-0.8849469685039369
20
-0.9784794094488188
11
-0.8881544488188976
21
-0.9816868897637795
0
LINE
8
BLACK
6
CONTINUOUS
10
-0.8881544488188976
20
-0.9816868897637795
11
-0.8922296062992126
21
-0.9836791338582677
0
LINE
8
BLACK
6
CONTINUOUS
10
-0.8922296062992126
20
-0.9836791338582677
11
-0.8961614173228346
21
-0.984251968503937
0
LINE
8
BLACK
6
CONTINUOUS
10
-0.8961614173228346
20
-0.984251968503937
11
-0.9365157480314961
21
-0.984251968503937
0
LINE
8
BLACK
6
CONTINUOUS
10
-0.9365157480314961
20
-0.984251968503937
11
-0.9404475590551181
21
-0.9836791338582677
0
LINE
8
BLACK
6
CONTINUOUS
10
-0.9404475590551181
20
-0.9836791338582677
11
-0.9445227165354331
21
-0.9816868897637795
0
LINE
8
BLACK
6
CONTINUOUS
10
-0.9445227165354331
20
-0.9816868897637795
11
-0.9477301968503937
21
-0.9784794094488188
0
LINE
8
BLACK
6
CONTINUOUS
10
-0.9477301968503937
20
-0.9784794094488188
11
-0.9497224409448819
21
-0.9744042519685039
0
LINE
8
BLACK
6
CONTINUOUS
10
-0.9497224409448819
20
-0.9744042519685039
11
-0.9502952755905512
21
-0.9704724409448818
0
LINE
8
BLACK
6
CONTINUOUS
10
-0.9502952755905512
20
-0.9704724409448818
11
-0.9502952755905512
21
-0.9586614173228346
0
LINE
8
BLACK
6
CONTINUOUS
10
-0.9502952755905512
20
-0.9586614173228346
11
-0.9497224409448819
21
-0.9547296062992126
0
LINE
8
BLACK
6
CONTINUOUS
10
-0.9497224409448819
20
-0.9547296062992126
11
-0.9477301968503937
21
-0.9506544488188976
0
LINE
8
BLACK
6
CONTINUOUS
10
-0.9477301968503937
20
-0.9506544488188976
11
-0.9445227165354331
21
-0.9474469685039369
0
LINE
8
BLACK
6
CONTINUOUS
10
-0.9445227165354331
20
-0.9474469685039369
11
-0.9412891338582677
21
-0.9458661417322834
0
LINE
8
BLACK
6
CONTINUOUS
10
-0.9412891338582677
20
-0.9458661417322834
11
-0.9445227165354331
21
-0.94428531496063
0
LINE
8
BLACK
6
CONTINUOUS
10
-0.9445227165354331
20
-0.94428531496063
11
-0.9477301968503937
21
-0.9410778346456693
0
LINE
8
BLACK
6
CONTINUOUS
10
-0.9477301968503937
20
-0.9410778346456693
11
-0.9497224409448819
21
-0.9370026771653543
0
LINE
8
BLACK
6
CONTINUOUS
10
-0.9497224409448819
20
-0.9370026771653543
11
-0.9502952755905512
21
-0.9330708661417323
0
LINE
8
BLACK
6
CONTINUOUS
10
-0.9502952755905512
20
-0.9330708661417323
11
-0.9502952755905512
21
-0.9212598425196851
0
LINE
8
BLACK
6
CONTINUOUS
10
-0.9502952755905512
20
-0.9212598425196851
11
-0.9497224409448819
21
-0.917328031496063
0
LINE
8
BLACK
6
CONTINUOUS
10
-0.9497224409448819
20
-0.917328031496063
11
-0.9477301968503937
21
-0.9132528740157481
0
LINE
8
BLACK
6
CONTINUOUS
10
-0.9477301968503937
20
-0.9132528740157481
11
-0.9445227165354331
21
-0.9100453937007874
0
LINE
8
BLACK
6
CONTINUOUS
10
-0.9445227165354331
20
-0.9100453937007874
11
-0.9412891338582677
21
-0.9084645669291338
0
LINE
8
BLACK
6
CONTINUOUS
10
-0.9412891338582677
20
-0.9084645669291338
11
-0.9445227165354331
21
-0.9068837401574803
0
LINE
8
BLACK
6
CONTINUOUS
10
-0.9445227165354331
20
-0.9068837401574803
11
-0.9477301968503937
21
-0.9036762598425196
0
LINE
8
BLACK
6
CONTINUOUS
10
-0.9477301968503937
20
-0.9036762598425196
11
-0.9497224409448819
21
-0.8996011023622047
0
LINE
8
BLACK
6
CONTINUOUS
10
-0.9497224409448819
20
-0.8996011023622047
11
-0.9502952755905512
21
-0.8956692913385826
0
LINE
8
BLACK
6
CONTINUOUS
10
-0.9502952755905512
20
-0.8956692913385826
11
-0.9502952755905512
21
-0.8838582677165354
0
LINE
8
BLACK
6
CONTINUOUS
10
-0.9502952755905512
20
-0.8838582677165354
11
-0.9497224409448819
21
-0.8799264566929134
0
LINE
8
BLACK
6
CONTINUOUS
10
-0.9497224409448819
20
-0.8799264566929134
11
-0.9477301968503937
21
-0.8758512992125984
0
LINE
8
BLACK
6
CONTINUOUS
10
-0.9477301968503937
20
-0.8758512992125984
11
-0.9445227165354331
21
-0.8726438188976378
0
LINE
8
BLACK
6
CONTINUOUS
10
-0.9445227165354331
20
-0.8726438188976378
11
-0.9404475590551181
21
-0.8706515748031496
0
LINE
8
BLACK
6
CONTINUOUS
10
-0.9404475590551181
20
-0.8706515748031496
11
-0.9365157480314961
21
-0.8700787401574803
0
LINE
8
BLACK
6
CONTINUOUS
10
-0.9365157480314961
20
-0.8700787401574803
11
-0.8961614173228346
21
-0.8700787401574803
0
LINE
8
BLACK
6
CONTINUOUS
10
-0.8961614173228346
20
-0.8700787401574803
11
-0.8922296062992126
21
-0.8706515748031496
0
LINE
8
BLACK
6
CONTINUOUS
10
-0.8026626771653543
20
-0.9454547244094488
11
-0.7985875196850394
21
-0.9474469685039369
0
LINE
8
BLACK
6
CONTINUOUS
10
-0.7985875196850394
20
-0.9474469685039369
11
-0.7953800393700787
21
-0.9506544488188976
0
LINE
8
BLACK
6
CONTINUOUS
10
-0.7953800393700787
20
-0.9506544488188976
11
-0.7933877952755906
21
-0.9547296062992126
0
LINE
8
BLACK
6
CONTINUOUS
10
-0.7933877952755906
20
-0.9547296062992126
11
-0.7928149606299213
21
-0.9586614173228346
0
LINE
8
BLACK
6
CONTINUOUS
10
-0.7928149606299213
20
-0.9586614173228346
11
-0.7928149606299213
21
-0.9704724409448818
0
LINE
8
BLACK
6
CONTINUOUS
10
-0.7928149606299213
20
-0.9704724409448818
11
-0.7933877952755906
21
-0.9744042519685039
0
LINE
8
BLACK
6
CONTINUOUS
10
-0.7933877952755906
20
-0.9744042519685039
11
-0.7953800393700787
21
-0.9784794094488188
0
LINE
8
BLACK
6
CONTINUOUS
10
-0.7953800393700787
20
-0.9784794094488188
11
-0.7985875196850394
21
-0.9816868897637795
0
LINE
8
BLACK
6
CONTINUOUS
10
-0.7985875196850394
20
-0.9816868897637795
11
-0.8026626771653543
21
-0.9836791338582677
0
LINE
8
BLACK
6
CONTINUOUS
10
-0.8026626771653543
20
-0.9836791338582677
11
-0.8065944881889764
21
-0.984251968503937
0
LINE
8
BLACK
6
CONTINUOUS
10
-0.8065944881889764
20
-0.984251968503937
11
-0.8469488188976377
21
-0.984251968503937
0
LINE
8
BLACK
6
CONTINUOUS
10
-0.8469488188976377
20
-0.984251968503937
11
-0.8508806299212598
21
-0.9836791338582677
0
LINE
8
BLACK
6
CONTINUOUS
10
-0.8508806299212598
20
-0.9836791338582677
11
-0.8549557874015747
21
-0.9816868897637795
0
LINE
8
BLACK
6
CONTINUOUS
10
-0.8549557874015747
20
-0.9816868897637795
11
-0.8581632677165354
21
-0.9784794094488188
0
LINE
8
BLACK
6
CONTINUOUS
10
-0.8581632677165354
20
-0.9784794094488188
11
-0.8601555118110236
21
-0.9744042519685039
0
LINE
8
BLACK
6
CONTINUOUS
10
-0.8601555118110236
20
-0.9744042519685039
11
-0.8607283464566929
21
-0.9704724409448818
0
LINE
8
BLACK
6
CONTINUOUS
10
-0.8607283464566929
20
-0.9704724409448818
11
-0.8607283464566929
21
-0.9586614173228346
0
LINE
8
BLACK
6
CONTINUOUS
10
-0.8607283464566929
20
-0.9586614173228346
11
-0.8601555118110236
21
-0.9547296062992126
0
LINE
8
BLACK
6
CONTINUOUS
10
-0.8601555118110236
20
-0.9547296062992126
11
-0.8581632677165354
21
-0.9506544488188976
0
LINE
8
BLACK
6
CONTINUOUS
10
-0.8581632677165354
20
-0.9506544488188976
11
-0.8549557874015747
21
-0.9474469685039369
0
LINE
8
BLACK
6
CONTINUOUS
10
-0.8549557874015747
20
-0.9474469685039369
11
-0.8508806299212598
21
-0.9454547244094488
0
LINE
8
BLACK
6
CONTINUOUS
10
-0.8508806299212598
20
-0.9454547244094488
11
-0.8469488188976377
21
-0.9448818897637795
0
LINE
8
BLACK
6
CONTINUOUS
10
-0.8469488188976377
20
-0.9448818897637795
11
-0.8065944881889764
21
-0.9448818897637795
0
LINE
8
BLACK
6
CONTINUOUS
10
-0.8065944881889764
20
-0.9448818897637795
11
-0.8026626771653543
21
-0.9454547244094488
0
LINE
8
BLACK
6
CONTINUOUS
10
-2.029872125984252
20
-0.8746650787401574
11
-2.0271047244094489
21
-0.8765141732283465
0
LINE
8
BLACK
6
CONTINUOUS
10
-2.0271047244094489
20
-0.8765141732283465
11
-2.0252556299212596
21
-0.8792815748031496
0
LINE
8
BLACK
6
CONTINUOUS
10
-2.0252556299212596
20
-0.8792815748031496
11
-2.0246063385826769
21
-0.8825459842519685
0
LINE
8
BLACK
6
CONTINUOUS
10
-2.0246063385826769
20
-0.8825459842519685
11
-2.0246062992125982
21
-0.9284776771653543
0
LINE
8
BLACK
6
CONTINUOUS
10
-2.0246062992125982
20
-0.9284776771653543
11
-2.0252556299212596
21
-0.9317420472440945
0
LINE
8
BLACK
6
CONTINUOUS
10
-2.0252556299212596
20
-0.9317420472440945
11
-2.0271047244094489
21
-0.9345094488188976
0
LINE
8
BLACK
6
CONTINUOUS
10
-2.0271047244094489
20
-0.9345094488188976
11
-2.029872125984252
21
-0.9363585433070866
0
LINE
8
BLACK
6
CONTINUOUS
10
-2.029872125984252
20
-0.9363585433070866
11
-2.0331365354330706
21
-0.9370078346456693
0
LINE
8
BLACK
6
CONTINUOUS
10
-2.0331365354330706
20
-0.9370078346456693
11
-2.0692257086614174
21
-0.937007874015748
0
LINE
8
BLACK
6
CONTINUOUS
10
-2.0692257086614174
20
-0.937007874015748
11
-2.0724900787401572
21
-0.9363585433070866
0
LINE
8
BLACK
6
CONTINUOUS
10
-2.0724900787401572
20
-0.9363585433070866
11
-2.0752574803149604
21
-0.9345094488188976
0
LINE
8
BLACK
6
CONTINUOUS
10
-2.0752574803149604
20
-0.9345094488188976
11
-2.0771065748031496
21
-0.9317420472440945
0
LINE
8
BLACK
6
CONTINUOUS
10
-2.0771065748031496
20
-0.9317420472440945
11
-2.0777558661417324
21
-0.9284776377952756
0
LINE
8
BLACK
6
CONTINUOUS
10
-2.0777558661417324
20
-0.9284776377952756
11
-2.0777559055118111
21
-0.8825459448818898
0
LINE
8
BLACK
6
CONTINUOUS
10
-2.0777559055118111
20
-0.8825459448818898
11
-2.0771065748031496
21
-0.8792815748031496
0
LINE
8
BLACK
6
CONTINUOUS
10
-2.0771065748031496
20
-0.8792815748031496
11
-2.0752574803149604
21
-0.8765141732283465
0
LINE
8
BLACK
6
CONTINUOUS
10
-2.0752574803149604
20
-0.8765141732283465
11
-2.0724900787401572
21
-0.8746650787401574
0
LINE
8
BLACK
6
CONTINUOUS
10
-2.0724900787401572
20
-0.8746650787401574
11
-2.0692256692913387
21
-0.8740157874015748
0
LINE
8
BLACK
6
CONTINUOUS
10
-2.0692256692913387
20
-0.8740157874015748
11
-2.0331364960629923
21
-0.8740157480314961
0
LINE
8
BLACK
6
CONTINUOUS
10
-2.0331364960629923
20
-0.8740157480314961
11
-2.029872125984252
21
-0.8746650787401574
0
LINE
8
BLACK
6
CONTINUOUS
10
-1.8881398425196849
20
-0.8746650787401574
11
-1.8853724409448818
21
-0.8765141732283465
0
LINE
8
BLACK
6
CONTINUOUS
10
-1.8853724409448818
20
-0.8765141732283465
11
-1.8835233464566929
21
-0.8792815748031496
0
LINE
8
BLACK
6
CONTINUOUS
10
-1.8835233464566929
20
-0.8792815748031496
11
-1.8828740551181102
21
-0.8825459842519685
0
LINE
8
BLACK
6
CONTINUOUS
10
-1.8828740551181102
20
-0.8825459842519685
11
-1.8828740157480315
21
-0.9284776771653543
0
LINE
8
BLACK
6
CONTINUOUS
10
-1.8828740157480315
20
-0.9284776771653543
11
-1.8835233464566929
21
-0.9317420472440945
0
LINE
8
BLACK
6
CONTINUOUS
10
-1.8835233464566929
20
-0.9317420472440945
11
-1.8853724409448818
21
-0.9345094488188976
0
LINE
8
BLACK
6
CONTINUOUS
10
-1.8853724409448818
20
-0.9345094488188976
11
-1.8881398425196849
21
-0.9363585433070866
0
LINE
8
BLACK
6
CONTINUOUS
10
-1.8881398425196849
20
-0.9363585433070866
11
-1.8914042519685039
21
-0.9370078346456693
0
LINE
8
BLACK
6
CONTINUOUS
10
-1.8914042519685039
20
-0.9370078346456693
11
-1.9274934251968503
21
-0.937007874015748
0
LINE
8
BLACK
6
CONTINUOUS
10
-1.9274934251968503
20
-0.937007874015748
11
-1.9307577952755905
21
-0.9363585433070866
0
LINE
8
BLACK
6
CONTINUOUS
10
-1.9307577952755905
20
-0.9363585433070866
11
-1.9335251968503937
21
-0.9345094488188976
0
LINE
8
BLACK
6
CONTINUOUS
10
-1.9335251968503937
20
-0.9345094488188976
11
-1.9353742913385827
21
-0.9317420472440945
0
LINE
8
BLACK
6
CONTINUOUS
10
-1.9353742913385827
20
-0.9317420472440945
11
-1.9360235826771652
21
-0.9284776377952756
0
LINE
8
BLACK
6
CONTINUOUS
10
-1.9360235826771652
20
-0.9284776377952756
11
-1.936023622047244
21
-0.8825459448818898
0
LINE
8
BLACK
6
CONTINUOUS
10
-1.936023622047244
20
-0.8825459448818898
11
-1.9353742913385827
21
-0.8792815748031496
0
LINE
8
BLACK
6
CONTINUOUS
10
-1.9353742913385827
20
-0.8792815748031496
11
-1.9335251968503937
21
-0.8765141732283465
0
LINE
8
BLACK
6
CONTINUOUS
10
-1.9335251968503937
20
-0.8765141732283465
11
-1.9307577952755905
21
-0.8746650787401574
0
LINE
8
BLACK
6
CONTINUOUS
10
-1.9307577952755905
20
-0.8746650787401574
11
-1.9274933858267715
21
-0.8740157874015748
0
LINE
8
BLACK
6
CONTINUOUS
10
-1.9274933858267715
20
-0.8740157874015748
11
-1.8914042125984252
21
-0.8740157480314961
0
LINE
8
BLACK
6
CONTINUOUS
10
-1.8914042125984252
20
-0.8740157480314961
11
-1.8881398425196849
21
-0.8746650787401574
0
LINE
8
BLACK
6
CONTINUOUS
10
-0.6388523228346457
20
-0.8649801181102362
11
-0.6342564960629921
21
-0.867321811023622
0
LINE
8
BLACK
6
CONTINUOUS
10
-0.6342564960629921
20
-0.867321811023622
11
-0.6306092125984252
21
-0.8709690944881889
0
LINE
8
BLACK
6
CONTINUOUS
10
-0.6306092125984252
20
-0.8709690944881889
11
-0.6282675196850394
21
-0.8755649212598425
0
LINE
8
BLACK
6
CONTINUOUS
10
-0.6282675196850394
20
-0.8755649212598425
11
-0.6274606299212598
21
-0.8806594488188976
0
LINE
8
BLACK
6
CONTINUOUS
10
-0.6274606299212598
20
-0.8806594488188976
11
-0.6274606299212598
21
-0.8978838582677166
0
LINE
8
BLACK
6
CONTINUOUS
10
-0.6274606299212598
20
-0.8978838582677166
11
-0.6282675196850394
21
-0.9029783858267716
0
LINE
8
BLACK
6
CONTINUOUS
10
-0.6282675196850394
20
-0.9029783858267716
11
-0.6306092125984252
21
-0.9075742125984252
0
LINE
8
BLACK
6
CONTINUOUS
10
-0.6306092125984252
20
-0.9075742125984252
11
-0.6342564960629921
21
-0.9112214960629921
0
LINE
8
BLACK
6
CONTINUOUS
10
-0.6342564960629921
20
-0.9112214960629921
11
-0.6388523228346457
21
-0.9135631889763779
0
LINE
8
BLACK
6
CONTINUOUS
10
-0.6388523228346457
20
-0.9135631889763779
11
-0.6439468503937008
21
-0.9143700787401574
0
LINE
8
BLACK
6
CONTINUOUS
10
-0.6439468503937008
20
-0.9143700787401574
11
-0.6641240157480315
21
-0.9143700787401574
0
LINE
8
BLACK
6
CONTINUOUS
10
-0.6641240157480315
20
-0.9143700787401574
11
-0.6692185433070866
21
-0.9135631889763779
0
LINE
8
BLACK
6
CONTINUOUS
10
-0.6692185433070866
20
-0.9135631889763779
11
-0.6738143700787401
21
-0.9112214960629921
0
LINE
8
BLACK
6
CONTINUOUS
10
-0.6738143700787401
20
-0.9112214960629921
11
-0.6774616535433071
21
-0.9075742125984252
0
LINE
8
BLACK
6
CONTINUOUS
10
-0.6774616535433071
20
-0.9075742125984252
11
-0.6798033464566929
21
-0.9029783858267716
0
LINE
8
BLACK
6
CONTINUOUS
10
-0.6798033464566929
20
-0.9029783858267716
11
-0.6806102362204725
21
-0.8978838582677166
0
LINE
8
BLACK
6
CONTINUOUS
10
-0.6806102362204725
20
-0.8978838582677166
11
-0.6806102362204725
21
-0.8806594488188976
0
LINE
8
BLACK
6
CONTINUOUS
10
-0.6806102362204725
20
-0.8806594488188976
11
-0.6798033464566929
21
-0.8755649212598425
0
LINE
8
BLACK
6
CONTINUOUS
10
-0.6798033464566929
20
-0.8755649212598425
11
-0.6774616535433071
21
-0.8709690944881889
0
LINE
8
BLACK
6
CONTINUOUS
10
-0.6774616535433071
20
-0.8709690944881889
11
-0.6738143700787401
21
-0.867321811023622
0
LINE
8
BLACK
6
CONTINUOUS
10
-0.6738143700787401
20
-0.867321811023622
11
-0.6692185433070866
21
-0.8649801181102362
0
LINE
8
BLACK
6
CONTINUOUS
10
-0.6692185433070866
20
-0.8649801181102362
11
-0.6641240157480315
21
-0.8641732283464567
0
LINE
8
BLACK
6
CONTINUOUS
10
-0.6641240157480315
20
-0.8641732283464567
11
-0.6439468503937008
21
-0.8641732283464567
0
LINE
8
BLACK
6
CONTINUOUS
10
-0.6439468503937008
20
-0.8641732283464567
11
-0.6388523228346457
21
-0.8649801181102362
0
LINE
8
BLACK
6
CONTINUOUS
10
-0.8026626771653543
20
-0.8706515748031496
11
-0.7985875196850394
21
-0.8726438188976378
0
LINE
8
BLACK
6
CONTINUOUS
10
-0.7985875196850394
20
-0.8726438188976378
11
-0.7953800393700787
21
-0.8758512992125984
0
LINE
8
BLACK
6
CONTINUOUS
10
-0.7953800393700787
20
-0.8758512992125984
11
-0.7933877952755906
21
-0.8799264566929134
0
LINE
8
BLACK
6
CONTINUOUS
10
-0.7933877952755906
20
-0.8799264566929134
11
-0.7928149606299213
21
-0.8838582677165354
0
LINE
8
BLACK
6
CONTINUOUS
10
-0.7928149606299213
20
-0.8838582677165354
11
-0.7928149606299213
21
-0.8956692913385826
0
LINE
8
BLACK
6
CONTINUOUS
10
-0.7928149606299213
20
-0.8956692913385826
11
-0.7933877952755906
21
-0.8996011023622047
0
LINE
8
BLACK
6
CONTINUOUS
10
-0.7933877952755906
20
-0.8996011023622047
11
-0.7953800393700787
21
-0.9036762598425196
0
LINE
8
BLACK
6
CONTINUOUS
10
-0.7953800393700787
20
-0.9036762598425196
11
-0.7985875196850394
21
-0.9068837401574803
0
LINE
8
BLACK
6
CONTINUOUS
10
-0.7985875196850394
20
-0.9068837401574803
11
-0.8026626771653543
21
-0.9088759842519685
0
LINE
8
BLACK
6
CONTINUOUS
10
-0.8026626771653543
20
-0.9088759842519685
11
-0.8065944881889764
21
-0.9094488188976377
0
LINE
8
BLACK
6
CONTINUOUS
10
-0.8065944881889764
20
-0.9094488188976377
11
-0.8469488188976377
21
-0.9094488188976377
0
LINE
8
BLACK
6
CONTINUOUS
10
-0.8469488188976377
20
-0.9094488188976377
11
-0.8508806299212598
21
-0.9088759842519685
0
LINE
8
BLACK
6
CONTINUOUS
10
-0.8508806299212598
20
-0.9088759842519685
11
-0.8549557874015747
21
-0.9068837401574803
0
LINE
8
BLACK
6
CONTINUOUS
10
-0.8549557874015747
20
-0.9068837401574803
11
-0.8581632677165354
21
-0.9036762598425196
0
LINE
8
BLACK
6
CONTINUOUS
10
-0.8581632677165354
20
-0.9036762598425196
11
-0.8601555118110236
21
-0.8996011023622047
0
LINE
8
BLACK
6
CONTINUOUS
10
-0.8601555118110236
20
-0.8996011023622047
11
-0.8607283464566929
21
-0.8956692913385826
0
LINE
8
BLACK
6
CONTINUOUS
10
-0.8607283464566929
20
-0.8956692913385826
11
-0.8607283464566929
21
-0.8838582677165354
0
LINE
8
BLACK
6
CONTINUOUS
10
-0.8607283464566929
20
-0.8838582677165354
11
-0.8601555118110236
21
-0.8799264566929134
0
LINE
8
BLACK
6
CONTINUOUS
10
-0.8601555118110236
20
-0.8799264566929134
11
-0.8581632677165354
21
-0.8758512992125984
0
LINE
8
BLACK
6
CONTINUOUS
10
-0.8581632677165354
20
-0.8758512992125984
11
-0.8549557874015747
21
-0.8726438188976378
0
LINE
8
BLACK
6
CONTINUOUS
10
-0.8549557874015747
20
-0.8726438188976378
11
-0.8508806299212598
21
-0.8706515748031496
0
LINE
8
BLACK
6
CONTINUOUS
10
-0.8508806299212598
20
-0.8706515748031496
11
-0.8469488188976377
21
-0.8700787401574803
0
LINE
8
BLACK
6
CONTINUOUS
10
-0.8469488188976377
20
-0.8700787401574803
11
-0.8065944881889764
21
-0.8700787401574803
0
LINE
8
BLACK
6
CONTINUOUS
10
-0.8065944881889764
20
-0.8700787401574803
11
-0.8026626771653543
21
-0.8706515748031496
0
LINE
8
BLACK
6
CONTINUOUS
10
-1.4907224015748031
20
-0.8344683070866141
11
-1.4861265748031496
21
-0.8368099999999999
0
LINE
8
BLACK
6
CONTINUOUS
10
-1.4861265748031496
20
-0.8368099999999999
11
-1.4824792913385827
21
-0.8404572834645669
0
LINE
8
BLACK
6
CONTINUOUS
10
-1.4824792913385827
20
-0.8404572834645669
11
-1.4801375984251968
21
-0.8450531102362204
0
LINE
8
BLACK
6
CONTINUOUS
10
-1.4801375984251968
20
-0.8450531102362204
11
-1.4793307086614174
21
-0.8501476377952756
0
LINE
8
BLACK
6
CONTINUOUS
10
-1.4793307086614174
20
-0.8501476377952756
11
-1.4793307086614174
21
-0.8673720472440944
0
LINE
8
BLACK
6
CONTINUOUS
10
-1.4793307086614174
20
-0.8673720472440944
11
-1.4801375984251968
21
-0.8724665748031496
0
LINE
8
BLACK
6
CONTINUOUS
10
-1.4801375984251968
20
-0.8724665748031496
11
-1.4824792913385827
21
-0.8770624015748031
0
LINE
8
BLACK
6
CONTINUOUS
10
-1.4824792913385827
20
-0.8770624015748031
11
-1.4861265748031496
21
-0.8807096850393701
0
LINE
8
BLACK
6
CONTINUOUS
10
-1.4861265748031496
20
-0.8807096850393701
11
-1.4907224015748031
21
-0.8830513779527559
0
LINE
8
BLACK
6
CONTINUOUS
10
-1.4907224015748031
20
-0.8830513779527559
11
-1.4958169291338583
21
-0.8838582677165354
0
LINE
8
BLACK
6
CONTINUOUS
10
-1.4958169291338583
20
-0.8838582677165354
11
-1.5159940944881889
21
-0.8838582677165354
0
LINE
8
BLACK
6
CONTINUOUS
10
-1.5159940944881889
20
-0.8838582677165354
11
-1.5210886220472442
21
-0.8830513779527559
0
LINE
8
BLACK
6
CONTINUOUS
10
-1.5210886220472442
20
-0.8830513779527559
11
-1.5256844488188976
21
-0.8807096850393701
0
LINE
8
BLACK
6
CONTINUOUS
10
-1.5256844488188976
20
-0.8807096850393701
11
-1.5293317322834645
21
-0.8770624015748031
0
LINE
8
BLACK
6
CONTINUOUS
10
-1.5293317322834645
20
-0.8770624015748031
11
-1.5316734251968505
21
-0.8724665748031496
0
LINE
8
BLACK
6
CONTINUOUS
10
-1.5316734251968505
20
-0.8724665748031496
11
-1.5324803149606299
21
-0.8673720472440944
0
LINE
8
BLACK
6
CONTINUOUS
10
-1.5324803149606299
20
-0.8673720472440944
11
-1.5324803149606299
21
-0.8501476377952756
0
LINE
8
BLACK
6
CONTINUOUS
10
-1.5324803149606299
20
-0.8501476377952756
11
-1.5316734251968505
21
-0.8450531102362204
0
LINE
8
BLACK
6
CONTINUOUS
10
-1.5316734251968505
20
-0.8450531102362204
11
-1.5293317322834645
21
-0.8404572834645669
0
LINE
8
BLACK
6
CONTINUOUS
10
-1.5293317322834645
20
-0.8404572834645669
11
-1.5256844488188976
21
-0.8368099999999999
0
LINE
8
BLACK
6
CONTINUOUS
10
-1.5256844488188976
20
-0.8368099999999999
11
-1.5210886220472442
21
-0.8344683070866141
0
LINE
8
BLACK
6
CONTINUOUS
10
-1.5210886220472442
20
-0.8344683070866141
11
-1.5159940944881889
21
-0.8336614173228346
0
LINE
8
BLACK
6
CONTINUOUS
10
-1.5159940944881889
20
-0.8336614173228346
11
-1.4958169291338583
21
-0.8336614173228346
0
LINE
8
BLACK
6
CONTINUOUS
10
-1.4958169291338583
20
-0.8336614173228346
11
-1.4907224015748031
21
-0.8344683070866141
0
LINE
8
BLACK
6
CONTINUOUS
10
-1.2938720078740158
20
-0.8334840551181102
11
-1.2892761811023621
21
-0.835825748031496
0
LINE
8
BLACK
6
CONTINUOUS
10
-1.2892761811023621
20
-0.835825748031496
11
-1.2856288976377952
21
-0.839473031496063
0
LINE
8
BLACK
6
CONTINUOUS
10
-1.2856288976377952
20
-0.839473031496063
11
-1.2832872047244095
21
-0.8440688582677165
0
LINE
8
BLACK
6
CONTINUOUS
10
-1.2832872047244095
20
-0.8440688582677165
11
-1.2824803149606299
21
-0.8491633858267716
0
LINE
8
BLACK
6
CONTINUOUS
10
-1.2824803149606299
20
-0.8491633858267716
11
-1.2824803149606299
21
-0.8663877952755905
0
LINE
8
BLACK
6
CONTINUOUS
10
-1.2824803149606299
20
-0.8663877952755905
11
-1.2832872047244095
21
-0.8714823228346457
0
LINE
8
BLACK
6
CONTINUOUS
10
-1.2832872047244095
20
-0.8714823228346457
11
-1.2856288976377952
21
-0.8760781496062992
0
LINE
8
BLACK
6
CONTINUOUS
10
-1.2856288976377952
20
-0.8760781496062992
11
-1.2892761811023621
21
-0.8797254330708661
0
LINE
8
BLACK
6
CONTINUOUS
10
-1.2892761811023621
20
-0.8797254330708661
11
-1.2938720078740158
21
-0.882067125984252
0
LINE
8
BLACK
6
CONTINUOUS
10
-1.2938720078740158
20
-0.882067125984252
11
-1.2989665354330708
21
-0.8828740157480315
0
LINE
8
BLACK
6
CONTINUOUS
10
-1.2989665354330708
20
-0.8828740157480315
11
-1.3191437007874016
21
-0.8828740157480315
0
LINE
8
BLACK
6
CONTINUOUS
10
-1.3191437007874016
20
-0.8828740157480315
11
-1.3242382283464567
21
-0.882067125984252
0
LINE
8
BLACK
6
CONTINUOUS
10
-1.3242382283464567
20
-0.882067125984252
11
-1.3288340551181101
21
-0.8797254330708661
0
LINE
8
BLACK
6
CONTINUOUS
10
-1.3288340551181101
20
-0.8797254330708661
11
-1.332481338582677
21
-0.8760781496062992
0
LINE
8
BLACK
6
CONTINUOUS
10
-1.332481338582677
20
-0.8760781496062992
11
-1.334823031496063
21
-0.8714823228346457
0
LINE
8
BLACK
6
CONTINUOUS
10
-1.334823031496063
20
-0.8714823228346457
11
-1.3356299212598426
21
-0.8663877952755905
0
LINE
8
BLACK
6
CONTINUOUS
10
-1.3356299212598426
20
-0.8663877952755905
11
-1.3356299212598426
21
-0.8491633858267716
0
LINE
8
BLACK
6
CONTINUOUS
10
-1.3356299212598426
20
-0.8491633858267716
11
-1.334823031496063
21
-0.8440688582677165
0
LINE
8
BLACK
6
CONTINUOUS
10
-1.334823031496063
20
-0.8440688582677165
11
-1.332481338582677
21
-0.839473031496063
0
LINE
8
BLACK
6
CONTINUOUS
10
-1.332481338582677
20
-0.839473031496063
11
-1.3288340551181101
21
-0.835825748031496
0
LINE
8
BLACK
6
CONTINUOUS
10
-1.3288340551181101
20
-0.835825748031496
11
-1.3242382283464567
21
-0.8334840551181102
0
LINE
8
BLACK
6
CONTINUOUS
10
-1.3242382283464567
20
-0.8334840551181102
11
-1.3191437007874016
21
-0.8326771653543307
0
LINE
8
BLACK
6
CONTINUOUS
10
-1.3191437007874016
20
-0.8326771653543307
11
-1.2989665354330708
21
-0.8326771653543307
0
LINE
8
BLACK
6
CONTINUOUS
10
-1.2989665354330708
20
-0.8326771653543307
11
-1.2938720078740158
21
-0.8334840551181102
0
LINE
8
BLACK
6
CONTINUOUS
10
0.3244585826771653
20
-0.8156099606299212
11
0.3272259842519685
21
-0.8174590551181102
0
LINE
8
BLACK
6
CONTINUOUS
10
0.3272259842519685
20
-0.8174590551181102
11
0.3290750787401575
21
-0.8202264566929134
0
LINE
8
BLACK
6
CONTINUOUS
10
0.3290750787401575
20
-0.8202264566929134
11
0.3297243700787402
21
-0.8234908661417323
0
LINE
8
BLACK
6
CONTINUOUS
10
0.3297243700787402
20
-0.8234908661417323
11
0.3297244094488189
21
-0.8694225590551181
0
LINE
8
BLACK
6
CONTINUOUS
10
0.3297244094488189
20
-0.8694225590551181
11
0.3290750787401575
21
-0.8726869291338583
0
LINE
8
BLACK
6
CONTINUOUS
10
0.3290750787401575
20
-0.8726869291338583
11
0.3272259842519685
21
-0.8754543307086614
0
LINE
8
BLACK
6
CONTINUOUS
10
0.3272259842519685
20
-0.8754543307086614
11
0.3244585826771653
21
-0.8773034251968503
0
LINE
8
BLACK
6
CONTINUOUS
10
0.3244585826771653
20
-0.8773034251968503
11
0.3211941732283464
21
-0.8779527165354331
0
LINE
8
BLACK
6
CONTINUOUS
10
0.3211941732283464
20
-0.8779527165354331
11
0.285105
21
-0.8779527559055118
0
LINE
8
BLACK
6
CONTINUOUS
10
0.285105
20
-0.8779527559055118
11
0.2818406299212599
21
-0.8773034251968503
0
LINE
8
BLACK
6
CONTINUOUS
10
0.2818406299212599
20
-0.8773034251968503
11
0.2790732283464567
21
-0.8754543307086614
0
LINE
8
BLACK
6
CONTINUOUS
10
0.2790732283464567
20
-0.8754543307086614
11
0.2772241338582677
21
-0.8726869291338583
0
LINE
8
BLACK
6
CONTINUOUS
10
0.2772241338582677
20
-0.8726869291338583
11
0.2765748425196851
21
-0.8694225196850394
0
LINE
8
BLACK
6
CONTINUOUS
10
0.2765748425196851
20
-0.8694225196850394
11
0.2765748031496063
21
-0.8234908267716535
0
LINE
8
BLACK
6
CONTINUOUS
10
0.2765748031496063
20
-0.8234908267716535
11
0.2772241338582677
21
-0.8202264566929134
0
LINE
8
BLACK
6
CONTINUOUS
10
0.2772241338582677
20
-0.8202264566929134
11
0.2790732283464567
21
-0.8174590551181102
0
LINE
8
BLACK
6
CONTINUOUS
10
0.2790732283464567
20
-0.8174590551181102
11
0.2818406299212599
21
-0.8156099606299212
0
LINE
8
BLACK
6
CONTINUOUS
10
0.2818406299212599
20
-0.8156099606299212
11
0.2851050393700787
21
-0.8149606692913386
0
LINE
8
BLACK
6
CONTINUOUS
10
0.2851050393700787
20
-0.8149606692913386
11
0.3211942125984252
21
-0.8149606299212598
0
LINE
8
BLACK
6
CONTINUOUS
10
0.3211942125984252
20
-0.8149606299212598
11
0.3244585826771653
21
-0.8156099606299212
0
LINE
8
BLACK
6
CONTINUOUS
10
0.4661908661417323
20
-0.8156099606299212
11
0.4689582677165354
21
-0.8174590551181102
0
LINE
8
BLACK
6
CONTINUOUS
10
0.4689582677165354
20
-0.8174590551181102
11
0.4708073622047244
21
-0.8202264566929134
0
LINE
8
BLACK
6
CONTINUOUS
10
0.4708073622047244
20
-0.8202264566929134
11
0.4714566535433071
21
-0.8234908661417323
0
LINE
8
BLACK
6
CONTINUOUS
10
0.4714566535433071
20
-0.8234908661417323
11
0.4714566929133858
21
-0.8694225590551181
0
LINE
8
BLACK
6
CONTINUOUS
10
0.4714566929133858
20
-0.8694225590551181
11
0.4708073622047244
21
-0.8726869291338583
0
LINE
8
BLACK
6
CONTINUOUS
10
0.4708073622047244
20
-0.8726869291338583
11
0.4689582677165354
21
-0.8754543307086614
0
LINE
8
BLACK
6
CONTINUOUS
10
0.4689582677165354
20
-0.8754543307086614
11
0.4661908661417323
21
-0.8773034251968503
0
LINE
8
BLACK
6
CONTINUOUS
10
0.4661908661417323
20
-0.8773034251968503
11
0.4629264566929134
21
-0.8779527165354331
0
LINE
8
BLACK
6
CONTINUOUS
10
0.4629264566929134
20
-0.8779527165354331
11
0.4268372834645669
21
-0.8779527559055118
0
LINE
8
BLACK
6
CONTINUOUS
10
0.4268372834645669
20
-0.8779527559055118
11
0.4235729133858268
21
-0.8773034251968503
0
LINE
8
BLACK
6
CONTINUOUS
10
0.4235729133858268
20
-0.8773034251968503
11
0.4208055118110236
21
-0.8754543307086614
0
LINE
8
BLACK
6
CONTINUOUS
10
0.4208055118110236
20
-0.8754543307086614
11
0.4189564173228346
21
-0.8726869291338583
0
LINE
8
BLACK
6
CONTINUOUS
10
0.4189564173228346
20
-0.8726869291338583
11
0.418307125984252
21
-0.8694225196850394
0
LINE
8
BLACK
6
CONTINUOUS
10
0.418307125984252
20
-0.8694225196850394
11
0.4183070866141732
21
-0.8234908267716535
0
LINE
8
BLACK
6
CONTINUOUS
10
0.4183070866141732
20
-0.8234908267716535
11
0.4189564173228346
21
-0.8202264566929134
0
LINE
8
BLACK
6
CONTINUOUS
10
0.4189564173228346
20
-0.8202264566929134
11
0.4208055118110236
21
-0.8174590551181102
0
LINE
8
BLACK
6
CONTINUOUS
10
0.4208055118110236
20
-0.8174590551181102
11
0.4235729133858268
21
-0.8156099606299212
0
LINE
8
BLACK
6
CONTINUOUS
10
0.4235729133858268
20
-0.8156099606299212
11
0.4268373228346456
21
-0.8149606692913386
0
LINE
8
BLACK
6
CONTINUOUS
10
0.4268373228346456
20
-0.8149606692913386
11
0.4629264960629921
21
-0.8149606299212598
0
LINE
8
BLACK
6
CONTINUOUS
10
0.4629264960629921
20
-0.8149606299212598
11
0.4661908661417323
21
-0.8156099606299212
0
LINE
8
BLACK
6
CONTINUOUS
10
-1.1003988976377952
20
-0.8352185039370078
11
-1.0963237401574804
21
-0.8372107480314961
0
LINE
8
BLACK
6
CONTINUOUS
10
-1.0963237401574804
20
-0.8372107480314961
11
-1.0931162598425197
21
-0.8404182283464566
0
LINE
8
BLACK
6
CONTINUOUS
10
-1.0931162598425197
20
-0.8404182283464566
11
-1.0911240157480315
21
-0.8444933858267716
0
LINE
8
BLACK
6
CONTINUOUS
10
-1.0911240157480315
20
-0.8444933858267716
11
-1.0905511811023623
21
-0.8484251968503936
0
LINE
8
BLACK
6
CONTINUOUS
10
-1.0905511811023623
20
-0.8484251968503936
11
-1.0905511811023623
21
-0.860236220472441
0
LINE
8
BLACK
6
CONTINUOUS
10
-1.0905511811023623
20
-0.860236220472441
11
-1.0911240157480315
21
-0.864168031496063
0
LINE
8
BLACK
6
CONTINUOUS
10
-1.0911240157480315
20
-0.864168031496063
11
-1.0931162598425197
21
-0.868243188976378
0
LINE
8
BLACK
6
CONTINUOUS
10
-1.0931162598425197
20
-0.868243188976378
11
-1.0963237401574804
21
-0.8714506692913385
0
LINE
8
BLACK
6
CONTINUOUS
10
-1.0963237401574804
20
-0.8714506692913385
11
-1.1003988976377952
21
-0.8734429133858268
0
LINE
8
BLACK
6
CONTINUOUS
10
-1.1003988976377952
20
-0.8734429133858268
11
-1.1043307086614174
21
-0.8740157480314961
0
LINE
8
BLACK
6
CONTINUOUS
10
-1.1043307086614174
20
-0.8740157480314961
11
-1.1200787401574803
21
-0.8740157480314961
0
LINE
8
BLACK
6
CONTINUOUS
10
-1.1200787401574803
20
-0.8740157480314961
11
-1.1240105511811023
21
-0.8734429133858268
0
LINE
8
BLACK
6
CONTINUOUS
10
-1.1240105511811023
20
-0.8734429133858268
11
-1.1280857086614173
21
-0.8714506692913385
0
LINE
8
BLACK
6
CONTINUOUS
10
-1.1280857086614173
20
-0.8714506692913385
11
-1.131293188976378
21
-0.868243188976378
0
LINE
8
BLACK
6
CONTINUOUS
10
-1.131293188976378
20
-0.868243188976378
11
-1.1332854330708662
21
-0.864168031496063
0
LINE
8
BLACK
6
CONTINUOUS
10
-1.1332854330708662
20
-0.864168031496063
11
-1.1338582677165354
21
-0.860236220472441
0
LINE
8
BLACK
6
CONTINUOUS
10
-1.1338582677165354
20
-0.860236220472441
11
-1.1338582677165354
21
-0.8484251968503936
0
LINE
8
BLACK
6
CONTINUOUS
10
-1.1338582677165354
20
-0.8484251968503936
11
-1.1332854330708662
21
-0.8444933858267716
0
LINE
8
BLACK
6
CONTINUOUS
10
-1.1332854330708662
20
-0.8444933858267716
11
-1.131293188976378
21
-0.8404182283464566
0
LINE
8
BLACK
6
CONTINUOUS
10
-1.131293188976378
20
-0.8404182283464566
11
-1.1280857086614173
21
-0.8372107480314961
0
LINE
8
BLACK
6
CONTINUOUS
10
-1.1280857086614173
20
-0.8372107480314961
11
-1.1240105511811023
21
-0.8352185039370078
0
LINE
8
BLACK
6
CONTINUOUS
10
-1.1240105511811023
20
-0.8352185039370078
11
-1.1200787401574803
21
-0.8346456692913385
0
LINE
8
BLACK
6
CONTINUOUS
10
-1.1200787401574803
20
-0.8346456692913385
11
-1.1043307086614174
21
-0.8346456692913385
0
LINE
8
BLACK
6
CONTINUOUS
10
-1.1043307086614174
20
-0.8346456692913385
11
-1.1003988976377952
21
-0.8352185039370078
0
LINE
8
BLACK
6
CONTINUOUS
10
-0.6388523228346457
20
-0.8029722440944882
11
-0.6342564960629921
21
-0.805313937007874
0
LINE
8
BLACK
6
CONTINUOUS
10
-0.6342564960629921
20
-0.805313937007874
11
-0.6306092125984252
21
-0.8089612204724409
0
LINE
8
BLACK
6
CONTINUOUS
10
-0.6306092125984252
20
-0.8089612204724409
11
-0.6282675196850394
21
-0.8135570472440945
0
LINE
8
BLACK
6
CONTINUOUS
10
-0.6282675196850394
20
-0.8135570472440945
11
-0.6274606299212598
21
-0.8186515748031495
0
LINE
8
BLACK
6
CONTINUOUS
10
-0.6274606299212598
20
-0.8186515748031495
11
-0.6274606299212598
21
-0.8358759842519685
0
LINE
8
BLACK
6
CONTINUOUS
10
-0.6274606299212598
20
-0.8358759842519685
11
-0.6282675196850394
21
-0.8409705118110236
0
LINE
8
BLACK
6
CONTINUOUS
10
-0.6282675196850394
20
-0.8409705118110236
11
-0.6306092125984252
21
-0.8455663385826772
0
LINE
8
BLACK
6
CONTINUOUS
10
-0.6306092125984252
20
-0.8455663385826772
11
-0.6342564960629921
21
-0.849213622047244
0
LINE
8
BLACK
6
CONTINUOUS
10
-0.6342564960629921
20
-0.849213622047244
11
-0.6388523228346457
21
-0.8515553149606299
0
LINE
8
BLACK
6
CONTINUOUS
10
-0.6388523228346457
20
-0.8515553149606299
11
-0.6439468503937008
21
-0.8523622047244094
0
LINE
8
BLACK
6
CONTINUOUS
10
-0.6439468503937008
20
-0.8523622047244094
11
-0.6641240157480315
21
-0.8523622047244094
0
LINE
8
BLACK
6
CONTINUOUS
10
-0.6641240157480315
20
-0.8523622047244094
11
-0.6692185433070866
21
-0.8515553149606299
0
LINE
8
BLACK
6
CONTINUOUS
10
-0.6692185433070866
20
-0.8515553149606299
11
-0.6738143700787401
21
-0.849213622047244
0
LINE
8
BLACK
6
CONTINUOUS
10
-0.6738143700787401
20
-0.849213622047244
11
-0.6774616535433071
21
-0.8455663385826772
0
LINE
8
BLACK
6
CONTINUOUS
10
-0.6774616535433071
20
-0.8455663385826772
11
-0.6798033464566929
21
-0.8409705118110236
0
LINE
8
BLACK
6
CONTINUOUS
10
-0.6798033464566929
20
-0.8409705118110236
11
-0.6806102362204725
21
-0.8358759842519685
0
LINE
8
BLACK
6
CONTINUOUS
10
-0.6806102362204725
20
-0.8358759842519685
11
-0.6806102362204725
21
-0.8186515748031495
0
LINE
8
BLACK
6
CONTINUOUS
10
-0.6806102362204725
20
-0.8186515748031495
11
-0.6798033464566929
21
-0.8135570472440945
0
LINE
8
BLACK
6
CONTINUOUS
10
-0.6798033464566929
20
-0.8135570472440945
11
-0.6774616535433071
21
-0.8089612204724409
0
LINE
8
BLACK
6
CONTINUOUS
10
-0.6774616535433071
20
-0.8089612204724409
11
-0.6738143700787401
21
-0.805313937007874
0
LINE
8
BLACK
6
CONTINUOUS
10
-0.6738143700787401
20
-0.805313937007874
11
-0.6692185433070866
21
-0.8029722440944882
0
LINE
8
BLACK
6
CONTINUOUS
10
-0.6692185433070866
20
-0.8029722440944882
11
-0.6641240157480315
21
-0.8021653543307087
0
LINE
8
BLACK
6
CONTINUOUS
10
-0.6641240157480315
20
-0.8021653543307087
11
-0.6439468503937008
21
-0.8021653543307087
0
LINE
8
BLACK
6
CONTINUOUS
10
-0.6439468503937008
20
-0.8021653543307087
11
-0.6388523228346457
21
-0.8029722440944882
0
LINE
8
BLACK
6
CONTINUOUS
10
-1.4907224015748031
20
-0.7724604330708661
11
-1.4861265748031496
21
-0.7748021259842519
0
LINE
8
BLACK
6
CONTINUOUS
10
-1.4861265748031496
20
-0.7748021259842519
11
-1.4824792913385827
21
-0.7784494094488189
0
LINE
8
BLACK
6
CONTINUOUS
10
-1.4824792913385827
20
-0.7784494094488189
11
-1.4801375984251968
21
-0.7830452362204724
0
LINE
8
BLACK
6
CONTINUOUS
10
-1.4801375984251968
20
-0.7830452362204724
11
-1.4793307086614174
21
-0.7881397637795275
0
LINE
8
BLACK
6
CONTINUOUS
10
-1.4793307086614174
20
-0.7881397637795275
11
-1.4793307086614174
21
-0.8053641732283464
0
LINE
8
BLACK
6
CONTINUOUS
10
-1.4793307086614174
20
-0.8053641732283464
11
-1.4801375984251968
21
-0.8104587007874016
0
LINE
8
BLACK
6
CONTINUOUS
10
-1.4801375984251968
20
-0.8104587007874016
11
-1.4824792913385827
21
-0.8150545275590551
0
LINE
8
BLACK
6
CONTINUOUS
10
-1.4824792913385827
20
-0.8150545275590551
11
-1.4861265748031496
21
-0.8187018110236221
0
LINE
8
BLACK
6
CONTINUOUS
10
-1.4861265748031496
20
-0.8187018110236221
11
-1.4907224015748031
21
-0.8210435039370079
0
LINE
8
BLACK
6
CONTINUOUS
10
-1.4907224015748031
20
-0.8210435039370079
11
-1.4958169291338583
21
-0.8218503937007874
0
LINE
8
BLACK
6
CONTINUOUS
10
-1.4958169291338583
20
-0.8218503937007874
11
-1.5159940944881889
21
-0.8218503937007874
0
LINE
8
BLACK
6
CONTINUOUS
10
-1.5159940944881889
20
-0.8218503937007874
11
-1.5210886220472442
21
-0.8210435039370079
0
LINE
8
BLACK
6
CONTINUOUS
10
-1.5210886220472442
20
-0.8210435039370079
11
-1.5256844488188976
21
-0.8187018110236221
0
LINE
8
BLACK
6
CONTINUOUS
10
-1.5256844488188976
20
-0.8187018110236221
11
-1.5293317322834645
21
-0.8150545275590551
0
LINE
8
BLACK
6
CONTINUOUS
10
-1.5293317322834645
20
-0.8150545275590551
11
-1.5316734251968505
21
-0.8104587007874016
0
LINE
8
BLACK
6
CONTINUOUS
10
-1.5316734251968505
20
-0.8104587007874016
11
-1.5324803149606299
21
-0.8053641732283464
0
LINE
8
BLACK
6
CONTINUOUS
10
-1.5324803149606299
20
-0.8053641732283464
11
-1.5324803149606299
21
-0.7881397637795275
0
LINE
8
BLACK
6
CONTINUOUS
10
-1.5324803149606299
20
-0.7881397637795275
11
-1.5316734251968505
21
-0.7830452362204724
0
LINE
8
BLACK
6
CONTINUOUS
10
-1.5316734251968505
20
-0.7830452362204724
11
-1.5293317322834645
21
-0.7784494094488189
0
LINE
8
BLACK
6
CONTINUOUS
10
-1.5293317322834645
20
-0.7784494094488189
11
-1.5256844488188976
21
-0.7748021259842519
0
LINE
8
BLACK
6
CONTINUOUS
10
-1.5256844488188976
20
-0.7748021259842519
11
-1.5210886220472442
21
-0.7724604330708661
0
LINE
8
BLACK
6
CONTINUOUS
10
-1.5210886220472442
20
-0.7724604330708661
11
-1.5159940944881889
21
-0.7716535433070866
0
LINE
8
BLACK
6
CONTINUOUS
10
-1.5159940944881889
20
-0.7716535433070866
11
-1.4958169291338583
21
-0.7716535433070866
0
LINE
8
BLACK
6
CONTINUOUS
10
-1.4958169291338583
20
-0.7716535433070866
11
-1.4907224015748031
21
-0.7724604330708661
0
LINE
8
BLACK
6
CONTINUOUS
10
-1.2938720078740158
20
-0.7714761811023622
11
-1.2892761811023621
21
-0.773817874015748
0
LINE
8
BLACK
6
CONTINUOUS
10
-1.2892761811023621
20
-0.773817874015748
11
-1.2856288976377952
21
-0.777465157480315
0
LINE
8
BLACK
6
CONTINUOUS
10
-1.2856288976377952
20
-0.777465157480315
11
-1.2832872047244095
21
-0.7820609842519685
0
LINE
8
BLACK
6
CONTINUOUS
10
-1.2832872047244095
20
-0.7820609842519685
11
-1.2824803149606299
21
-0.7871555118110236
0
LINE
8
BLACK
6
CONTINUOUS
10
-1.2824803149606299
20
-0.7871555118110236
11
-1.2824803149606299
21
-0.8043799212598425
0
LINE
8
BLACK
6
CONTINUOUS
10
-1.2824803149606299
20
-0.8043799212598425
11
-1.2832872047244095
21
-0.8094744488188976
0
LINE
8
BLACK
6
CONTINUOUS
10
-1.2832872047244095
20
-0.8094744488188976
11
-1.2856288976377952
21
-0.8140702755905511
0
LINE
8
BLACK
6
CONTINUOUS
10
-1.2856288976377952
20
-0.8140702755905511
11
-1.2892761811023621
21
-0.8177175590551181
0
LINE
8
BLACK
6
CONTINUOUS
10
-1.2892761811023621
20
-0.8177175590551181
11
-1.2938720078740158
21
-0.8200592519685039
0
LINE
8
BLACK
6
CONTINUOUS
10
-1.2938720078740158
20
-0.8200592519685039
11
-1.2989665354330708
21
-0.8208661417322834
0
LINE
8
BLACK
6
CONTINUOUS
10
-1.2989665354330708
20
-0.8208661417322834
11
-1.3191437007874016
21
-0.8208661417322834
0
LINE
8
BLACK
6
CONTINUOUS
10
-1.3191437007874016
20
-0.8208661417322834
11
-1.3242382283464567
21
-0.8200592519685039
0
LINE
8
BLACK
6
CONTINUOUS
10
-1.3242382283464567
20
-0.8200592519685039
11
-1.3288340551181101
21
-0.8177175590551181
0
LINE
8
BLACK
6
CONTINUOUS
10
-1.3288340551181101
20
-0.8177175590551181
11
-1.332481338582677
21
-0.8140702755905511
0
LINE
8
BLACK
6
CONTINUOUS
10
-1.332481338582677
20
-0.8140702755905511
11
-1.334823031496063
21
-0.8094744488188976
0
LINE
8
BLACK
6
CONTINUOUS
10
-1.334823031496063
20
-0.8094744488188976
11
-1.3356299212598426
21
-0.8043799212598425
0
LINE
8
BLACK
6
CONTINUOUS
10
-1.3356299212598426
20
-0.8043799212598425
11
-1.3356299212598426
21
-0.7871555118110236
0
LINE
8
BLACK
6
CONTINUOUS
10
-1.3356299212598426
20
-0.7871555118110236
11
-1.334823031496063
21
-0.7820609842519685
0
LINE
8
BLACK
6
CONTINUOUS
10
-1.334823031496063
20
-0.7820609842519685
11
-1.332481338582677
21
-0.777465157480315
0
LINE
8
BLACK
6
CONTINUOUS
10
-1.332481338582677
20
-0.777465157480315
11
-1.3288340551181101
21
-0.773817874015748
0
LINE
8
BLACK
6
CONTINUOUS
10
-1.3288340551181101
20
-0.773817874015748
11
-1.3242382283464567
21
-0.7714761811023622
0
LINE
8
BLACK
6
CONTINUOUS
10
-1.3242382283464567
20
-0.7714761811023622
11
-1.3191437007874016
21
-0.7706692913385826
0
LINE
8
BLACK
6
CONTINUOUS
10
-1.3191437007874016
20
-0.7706692913385826
11
-1.2989665354330708
21
-0.7706692913385826
0
LINE
8
BLACK
6
CONTINUOUS
10
-1.2989665354330708
20
-0.7706692913385826
11
-1.2938720078740158
21
-0.7714761811023622
0
LINE
8
BLACK
6
CONTINUOUS
10
-1.1003988976377952
20
-0.7801003937007874
11
-1.0963237401574804
21
-0.7820926377952756
0
LINE
8
BLACK
6
CONTINUOUS
10
-1.0963237401574804
20
-0.7820926377952756
11
-1.0931162598425197
21
-0.7853001181102363
0
LINE
8
BLACK
6
CONTINUOUS
10
-1.0931162598425197
20
-0.7853001181102363
11
-1.0911240157480315
21
-0.7893752755905512
0
LINE
8
BLACK
6
CONTINUOUS
10
-1.0911240157480315
20
-0.7893752755905512
11
-1.0905511811023623
21
-0.7933070866141733
0
LINE
8
BLACK
6
CONTINUOUS
10
-1.0905511811023623
20
-0.7933070866141733
11
-1.0905511811023623
21
-0.8051181102362205
0
LINE
8
BLACK
6
CONTINUOUS
10
-1.0905511811023623
20
-0.8051181102362205
11
-1.0911240157480315
21
-0.8090499212598425
0
LINE
8
BLACK
6
CONTINUOUS
10
-1.0911240157480315
20
-0.8090499212598425
11
-1.0931162598425197
21
-0.8131250787401575
0
LINE
8
BLACK
6
CONTINUOUS
10
-1.0931162598425197
20
-0.8131250787401575
11
-1.0963237401574804
21
-0.8163325590551181
0
LINE
8
BLACK
6
CONTINUOUS
10
-1.0963237401574804
20
-0.8163325590551181
11
-1.1003988976377952
21
-0.8183248031496063
0
LINE
8
BLACK
6
CONTINUOUS
10
-1.1003988976377952
20
-0.8183248031496063
11
-1.1043307086614174
21
-0.8188976377952756
0
LINE
8
BLACK
6
CONTINUOUS
10
-1.1043307086614174
20
-0.8188976377952756
11
-1.1200787401574803
21
-0.8188976377952756
0
LINE
8
BLACK
6
CONTINUOUS
10
-1.1200787401574803
20
-0.8188976377952756
11
-1.1240105511811023
21
-0.8183248031496063
0
LINE
8
BLACK
6
CONTINUOUS
10
-1.1240105511811023
20
-0.8183248031496063
11
-1.1280857086614173
21
-0.8163325590551181
0
LINE
8
BLACK
6
CONTINUOUS
10
-1.1280857086614173
20
-0.8163325590551181
11
-1.131293188976378
21
-0.8131250787401575
0
LINE
8
BLACK
6
CONTINUOUS
10
-1.131293188976378
20
-0.8131250787401575
11
-1.1332854330708662
21
-0.8090499212598425
0
LINE
8
BLACK
6
CONTINUOUS
10
-1.1332854330708662
20
-0.8090499212598425
11
-1.1338582677165354
21
-0.8051181102362205
0
LINE
8
BLACK
6
CONTINUOUS
10
-1.1338582677165354
20
-0.8051181102362205
11
-1.1338582677165354
21
-0.7933070866141733
0
LINE
8
BLACK
6
CONTINUOUS
10
-1.1338582677165354
20
-0.7933070866141733
11
-1.1332854330708662
21
-0.7893752755905512
0
LINE
8
BLACK
6
CONTINUOUS
10
-1.1332854330708662
20
-0.7893752755905512
11
-1.131293188976378
21
-0.7853001181102363
0
LINE
8
BLACK
6
CONTINUOUS
10
-1.131293188976378
20
-0.7853001181102363
11
-1.1280857086614173
21
-0.7820926377952756
0
LINE
8
BLACK
6
CONTINUOUS
10
-1.1280857086614173
20
-0.7820926377952756
11
-1.1240105511811023
21
-0.7801003937007874
0
LINE
8
BLACK
6
CONTINUOUS
10
-1.1240105511811023
20
-0.7801003937007874
11
-1.1200787401574803
21
-0.7795275590551181
0
LINE
8
BLACK
6
CONTINUOUS
10
-1.1200787401574803
20
-0.7795275590551181
11
-1.1043307086614174
21
-0.7795275590551181
0
LINE
8
BLACK
6
CONTINUOUS
10
-1.1043307086614174
20
-0.7795275590551181
11
-1.1003988976377952
21
-0.7801003937007874
0
LINE
8
BLACK
6
CONTINUOUS
10
0.5830964960629921
20
-0.7517911417322835
11
0.5876923228346457
21
-0.7541328346456693
0
LINE
8
BLACK
6
CONTINUOUS
10
0.5876923228346457
20
-0.7541328346456693
11
0.5913396062992126
21
-0.7577801181102362
0
LINE
8
BLACK
6
CONTINUOUS
10
0.5913396062992126
20
-0.7577801181102362
11
0.5936812992125984
21
-0.7623759448818898
0
LINE
8
BLACK
6
CONTINUOUS
10
0.5936812992125984
20
-0.7623759448818898
11
0.5944881889763779
21
-0.7674704724409449
0
LINE
8
BLACK
6
CONTINUOUS
10
0.5944881889763779
20
-0.7674704724409449
11
0.5944881889763779
21
-0.7876476377952756
0
LINE
8
BLACK
6
CONTINUOUS
10
0.5944881889763779
20
-0.7876476377952756
11
0.5936812992125984
21
-0.7927421653543307
0
LINE
8
BLACK
6
CONTINUOUS
10
0.5936812992125984
20
-0.7927421653543307
11
0.5913396062992126
21
-0.7973379921259842
0
LINE
8
BLACK
6
CONTINUOUS
10
0.5913396062992126
20
-0.7973379921259842
11
0.5876923228346457
21
-0.8009852755905512
0
LINE
8
BLACK
6
CONTINUOUS
10
0.5876923228346457
20
-0.8009852755905512
11
0.5830964960629921
21
-0.803326968503937
0
LINE
8
BLACK
6
CONTINUOUS
10
0.5830964960629921
20
-0.803326968503937
11
0.578001968503937
21
-0.8041338582677166
0
LINE
8
BLACK
6
CONTINUOUS
10
0.578001968503937
20
-0.8041338582677166
11
0.5607775590551181
21
-0.8041338582677166
0
LINE
8
BLACK
6
CONTINUOUS
10
0.5607775590551181
20
-0.8041338582677166
11
0.555683031496063
21
-0.803326968503937
0
LINE
8
BLACK
6
CONTINUOUS
10
0.555683031496063
20
-0.803326968503937
11
0.5510872047244094
21
-0.8009852755905512
0
LINE
8
BLACK
6
CONTINUOUS
10
0.5510872047244094
20
-0.8009852755905512
11
0.5474399212598425
21
-0.7973379921259842
0
LINE
8
BLACK
6
CONTINUOUS
10
0.5474399212598425
20
-0.7973379921259842
11
0.5450982283464567
21
-0.7927421653543307
0
LINE
8
BLACK
6
CONTINUOUS
10
0.5450982283464567
20
-0.7927421653543307
11
0.5442913385826772
21
-0.7876476377952756
0
LINE
8
BLACK
6
CONTINUOUS
10
0.5442913385826772
20
-0.7876476377952756
11
0.5442913385826772
21
-0.7674704724409449
0
LINE
8
BLACK
6
CONTINUOUS
10
0.5442913385826772
20
-0.7674704724409449
11
0.5450982283464567
21
-0.7623759448818898
0
LINE
8
BLACK
6
CONTINUOUS
10
0.5450982283464567
20
-0.7623759448818898
11
0.5474399212598425
21
-0.7577801181102362
0
LINE
8
BLACK
6
CONTINUOUS
10
0.5474399212598425
20
-0.7577801181102362
11
0.5510872047244094
21
-0.7541328346456693
0
LINE
8
BLACK
6
CONTINUOUS
10
0.5510872047244094
20
-0.7541328346456693
11
0.555683031496063
21
-0.7517911417322835
0
LINE
8
BLACK
6
CONTINUOUS
10
0.555683031496063
20
-0.7517911417322835
11
0.5607775590551181
21
-0.7509842519685039
0
LINE
8
BLACK
6
CONTINUOUS
10
0.5607775590551181
20
-0.7509842519685039
11
0.578001968503937
21
-0.7509842519685039
0
LINE
8
BLACK
6
CONTINUOUS
10
0.578001968503937
20
-0.7509842519685039
11
0.5830964960629921
21
-0.7517911417322835
0
LINE
8
BLACK
6
CONTINUOUS
10
0.6451043700787401
20
-0.7517911417322835
11
0.6497001968503937
21
-0.7541328346456693
0
LINE
8
BLACK
6
CONTINUOUS
10
0.6497001968503937
20
-0.7541328346456693
11
0.6533474803149606
21
-0.7577801181102362
0
LINE
8
BLACK
6
CONTINUOUS
10
0.6533474803149606
20
-0.7577801181102362
11
0.6556891732283464
21
-0.7623759448818898
0
LINE
8
BLACK
6
CONTINUOUS
10
0.6556891732283464
20
-0.7623759448818898
11
0.6564960629921259
21
-0.7674704724409449
0
LINE
8
BLACK
6
CONTINUOUS
10
0.6564960629921259
20
-0.7674704724409449
11
0.6564960629921259
21
-0.7876476377952756
0
LINE
8
BLACK
6
CONTINUOUS
10
0.6564960629921259
20
-0.7876476377952756
11
0.6556891732283464
21
-0.7927421653543307
0
LINE
8
BLACK
6
CONTINUOUS
10
0.6556891732283464
20
-0.7927421653543307
11
0.6533474803149606
21
-0.7973379921259842
0
LINE
8
BLACK
6
CONTINUOUS
10
0.6533474803149606
20
-0.7973379921259842
11
0.6497001968503937
21
-0.8009852755905512
0
LINE
8
BLACK
6
CONTINUOUS
10
0.6497001968503937
20
-0.8009852755905512
11
0.6451043700787401
21
-0.803326968503937
0
LINE
8
BLACK
6
CONTINUOUS
10
0.6451043700787401
20
-0.803326968503937
11
0.6400098425196851
21
-0.8041338582677166
0
LINE
8
BLACK
6
CONTINUOUS
10
0.6400098425196851
20
-0.8041338582677166
11
0.6227854330708661
21
-0.8041338582677166
0
LINE
8
BLACK
6
CONTINUOUS
10
0.6227854330708661
20
-0.8041338582677166
11
0.6176909055118111
21
-0.803326968503937
0
LINE
8
BLACK
6
CONTINUOUS
10
0.6176909055118111
20
-0.803326968503937
11
0.6130950787401575
21
-0.8009852755905512
0
LINE
8
BLACK
6
CONTINUOUS
10
0.6130950787401575
20
-0.8009852755905512
11
0.6094477952755906
21
-0.7973379921259842
0
LINE
8
BLACK
6
CONTINUOUS
10
0.6094477952755906
20
-0.7973379921259842
11
0.6071061023622047
21
-0.7927421653543307
0
LINE
8
BLACK
6
CONTINUOUS
10
0.6071061023622047
20
-0.7927421653543307
11
0.6062992125984252
21
-0.7876476377952756
0
LINE
8
BLACK
6
CONTINUOUS
10
0.6062992125984252
20
-0.7876476377952756
11
0.6062992125984252
21
-0.7674704724409449
0
LINE
8
BLACK
6
CONTINUOUS
10
0.6062992125984252
20
-0.7674704724409449
11
0.6071061023622047
21
-0.7623759448818898
0
LINE
8
BLACK
6
CONTINUOUS
10
0.6071061023622047
20
-0.7623759448818898
11
0.6094477952755906
21
-0.7577801181102362
0
LINE
8
BLACK
6
CONTINUOUS
10
0.6094477952755906
20
-0.7577801181102362
11
0.6130950787401575
21
-0.7541328346456693
0
LINE
8
BLACK
6
CONTINUOUS
10
0.6130950787401575
20
-0.7541328346456693
11
0.6176909055118111
21
-0.7517911417322835
0
LINE
8
BLACK
6
CONTINUOUS
10
0.6176909055118111
20
-0.7517911417322835
11
0.6227854330708661
21
-0.7509842519685039
0
LINE
8
BLACK
6
CONTINUOUS
10
0.6227854330708661
20
-0.7509842519685039
11
0.6400098425196851
21
-0.7509842519685039
0
LINE
8
BLACK
6
CONTINUOUS
10
0.6400098425196851
20
-0.7509842519685039
11
0.6451043700787401
21
-0.7517911417322835
0
LINE
8
BLACK
6
CONTINUOUS
10
-1.9916887007874016
20
-0.673014842519685
11
-1.9872986614173227
21
-0.6752516929133858
0
LINE
8
BLACK
6
CONTINUOUS
10
-1.9872986614173227
20
-0.6752516929133858
11
-1.9838146850393701
21
-0.6787356692913386
0
LINE
8
BLACK
6
CONTINUOUS
10
-1.9838146850393701
20
-0.6787356692913386
11
-1.9815778346456692
21
-0.6831257086614173
0
LINE
8
BLACK
6
CONTINUOUS
10
-1.9815778346456692
20
-0.6831257086614173
11
-1.9808070866141732
21
-0.687992125984252
0
LINE
8
BLACK
6
CONTINUOUS
10
-1.9808070866141732
20
-0.687992125984252
11
-1.9808070866141732
21
-0.7096456692913385
0
LINE
8
BLACK
6
CONTINUOUS
10
-1.9808070866141732
20
-0.7096456692913385
11
-1.9815778346456692
21
-0.7145120866141732
0
LINE
8
BLACK
6
CONTINUOUS
10
-1.9815778346456692
20
-0.7145120866141732
11
-1.9838146850393701
21
-0.718902125984252
0
LINE
8
BLACK
6
CONTINUOUS
10
-1.9838146850393701
20
-0.718902125984252
11
-1.9872986614173227
21
-0.7223861023622047
0
LINE
8
BLACK
6
CONTINUOUS
10
-1.9872986614173227
20
-0.7223861023622047
11
-1.9916887007874016
21
-0.7246229527559055
0
LINE
8
BLACK
6
CONTINUOUS
10
-1.9916887007874016
20
-0.7246229527559055
11
-1.9965551181102361
21
-0.7253937007874015
0
LINE
8
BLACK
6
CONTINUOUS
10
-1.9965551181102361
20
-0.7253937007874015
11
-2.0123031496062991
21
-0.7253937007874015
0
LINE
8
BLACK
6
CONTINUOUS
10
-2.0123031496062991
20
-0.7253937007874015
11
-2.0171695669291339
21
-0.7246229527559055
0
LINE
8
BLACK
6
CONTINUOUS
10
-2.0171695669291339
20
-0.7246229527559055
11
-2.0215596062992125
21
-0.7223861023622047
0
LINE
8
BLACK
6
CONTINUOUS
10
-2.0215596062992125
20
-0.7223861023622047
11
-2.0250435826771653
21
-0.718902125984252
0
LINE
8
BLACK
6
CONTINUOUS
10
-2.0250435826771653
20
-0.718902125984252
11
-2.027280433070866
21
-0.7145120866141732
0
LINE
8
BLACK
6
CONTINUOUS
10
-2.027280433070866
20
-0.7145120866141732
11
-2.028051181102362
21
-0.7096456692913385
0
LINE
8
BLACK
6
CONTINUOUS
10
-2.028051181102362
20
-0.7096456692913385
11
-2.028051181102362
21
-0.687992125984252
0
LINE
8
BLACK
6
CONTINUOUS
10
-2.028051181102362
20
-0.687992125984252
11
-2.027280433070866
21
-0.6831257086614173
0
LINE
8
BLACK
6
CONTINUOUS
10
-2.027280433070866
20
-0.6831257086614173
11
-2.0250435826771653
21
-0.6787356692913386
0
LINE
8
BLACK
6
CONTINUOUS
10
-2.0250435826771653
20
-0.6787356692913386
11
-2.0215596062992125
21
-0.6752516929133858
0
LINE
8
BLACK
6
CONTINUOUS
10
-2.0215596062992125
20
-0.6752516929133858
11
-2.0171695669291339
21
-0.673014842519685
0
LINE
8
BLACK
6
CONTINUOUS
10
-2.0171695669291339
20
-0.673014842519685
11
-2.0123031496062991
21
-0.672244094488189
0
LINE
8
BLACK
6
CONTINUOUS
10
-2.0123031496062991
20
-0.672244094488189
11
-1.9965551181102361
21
-0.672244094488189
0
LINE
8
BLACK
6
CONTINUOUS
10
-1.9965551181102361
20
-0.672244094488189
11
-1.9916887007874016
21
-0.673014842519685
0
LINE
8
BLACK
6
CONTINUOUS
10
-1.9267280708661416
20
-0.673014842519685
11
-1.922338031496063
21
-0.6752516929133858
0
LINE
8
BLACK
6
CONTINUOUS
10
-1.922338031496063
20
-0.6752516929133858
11
-1.9188540551181101
21
-0.6787356692913386
0
LINE
8
BLACK
6
CONTINUOUS
10
-1.9188540551181101
20
-0.6787356692913386
11
-1.9166172047244094
21
-0.6831257086614173
0
LINE
8
BLACK
6
CONTINUOUS
10
-1.9166172047244094
20
-0.6831257086614173
11
-1.9158464566929134
21
-0.687992125984252
0
LINE
8
BLACK
6
CONTINUOUS
10
-1.9158464566929134
20
-0.687992125984252
11
-1.9158464566929134
21
-0.7096456692913385
0
LINE
8
BLACK
6
CONTINUOUS
10
-1.9158464566929134
20
-0.7096456692913385
11
-1.9166172047244094
21
-0.7145120866141732
0
LINE
8
BLACK
6
CONTINUOUS
10
-1.9166172047244094
20
-0.7145120866141732
11
-1.9188540551181101
21
-0.718902125984252
0
LINE
8
BLACK
6
CONTINUOUS
10
-1.9188540551181101
20
-0.718902125984252
11
-1.922338031496063
21
-0.7223861023622047
0
LINE
8
BLACK
6
CONTINUOUS
10
-1.922338031496063
20
-0.7223861023622047
11
-1.9267280708661416
21
-0.7246229527559055
0
LINE
8
BLACK
6
CONTINUOUS
10
-1.9267280708661416
20
-0.7246229527559055
11
-1.9315944881889764
21
-0.7253937007874015
0
LINE
8
BLACK
6
CONTINUOUS
10
-1.9315944881889764
20
-0.7253937007874015
11
-1.9473425196850394
21
-0.7253937007874015
0
LINE
8
BLACK
6
CONTINUOUS
10
-1.9473425196850394
20
-0.7253937007874015
11
-1.9522089370078739
21
-0.7246229527559055
0
LINE
8
BLACK
6
CONTINUOUS
10
-1.9522089370078739
20
-0.7246229527559055
11
-1.9565989763779528
21
-0.7223861023622047
0
LINE
8
BLACK
6
CONTINUOUS
10
-1.9565989763779528
20
-0.7223861023622047
11
-1.9600829527559054
21
-0.718902125984252
0
LINE
8
BLACK
6
CONTINUOUS
10
-1.9600829527559054
20
-0.718902125984252
11
-1.9623198031496063
21
-0.7145120866141732
0
LINE
8
BLACK
6
CONTINUOUS
10
-1.9623198031496063
20
-0.7145120866141732
11
-1.9630905511811023
21
-0.7096456692913385
0
LINE
8
BLACK
6
CONTINUOUS
10
-1.9630905511811023
20
-0.7096456692913385
11
-1.9630905511811023
21
-0.687992125984252
0
LINE
8
BLACK
6
CONTINUOUS
10
-1.9630905511811023
20
-0.687992125984252
11
-1.9623198031496063
21
-0.6831257086614173
0
LINE
8
BLACK
6
CONTINUOUS
10
-1.9623198031496063
20
-0.6831257086614173
11
-1.9600829527559054
21
-0.6787356692913386
0
LINE
8
BLACK
6
CONTINUOUS
10
-1.9600829527559054
20
-0.6787356692913386
11
-1.9565989763779528
21
-0.6752516929133858
0
LINE
8
BLACK
6
CONTINUOUS
10
-1.9565989763779528
20
-0.6752516929133858
11
-1.9522089370078739
21
-0.673014842519685
0
LINE
8
BLACK
6
CONTINUOUS
10
-1.9522089370078739
20
-0.673014842519685
11
-1.9473425196850394
21
-0.672244094488189
0
LINE
8
BLACK
6
CONTINUOUS
10
-1.9473425196850394
20
-0.672244094488189
11
-1.9315944881889764
21
-0.672244094488189
0
LINE
8
BLACK
6
CONTINUOUS
10
-1.9315944881889764
20
-0.672244094488189
11
-1.9267280708661416
21
-0.673014842519685
0
LINE
8
BLACK
6
CONTINUOUS
10
0.1900211417322835
20
-0.5488277165354331
11
0.1925756299212598
21
-0.5505346062992126
0
LINE
8
BLACK
6
CONTINUOUS
10
0.1925756299212598
20
-0.5505346062992126
11
0.1942825196850394
21
-0.553089094488189
0
LINE
8
BLACK
6
CONTINUOUS
10
0.1942825196850394
20
-0.553089094488189
11
0.1948818897637795
21
-0.5561023622047244
0
LINE
8
BLACK
6
CONTINUOUS
10
0.1948818897637795
20
-0.5561023622047244
11
0.1948818897637795
21
-0.5659448818897638
0
LINE
8
BLACK
6
CONTINUOUS
10
0.1948818897637795
20
-0.5659448818897638
11
0.1942825196850394
21
-0.5689581496062992
0
LINE
8
BLACK
6
CONTINUOUS
10
0.1942825196850394
20
-0.5689581496062992
11
0.1930075984251969
21
-0.5708661417322834
0
LINE
8
BLACK
6
CONTINUOUS
10
0.1930075984251969
20
-0.5708661417322834
11
0.1942825196850394
21
-0.5727741338582677
0
LINE
8
BLACK
6
CONTINUOUS
10
0.1942825196850394
20
-0.5727741338582677
11
0.1948818897637795
21
-0.5757874015748031
0
LINE
8
BLACK
6
CONTINUOUS
10
0.1948818897637795
20
-0.5757874015748031
11
0.1948818897637795
21
-0.5856299212598425
0
LINE
8
BLACK
6
CONTINUOUS
10
0.1948818897637795
20
-0.5856299212598425
11
0.1942825196850394
21
-0.5886431889763779
0
LINE
8
BLACK
6
CONTINUOUS
10
0.1942825196850394
20
-0.5886431889763779
11
0.1930075984251969
21
-0.5905511811023622
0
LINE
8
BLACK
6
CONTINUOUS
10
0.1930075984251969
20
-0.5905511811023622
11
0.1942825196850394
21
-0.5924591732283464
0
LINE
8
BLACK
6
CONTINUOUS
10
0.1942825196850394
20
-0.5924591732283464
11
0.1948818897637795
21
-0.5954724409448818
0
LINE
8
BLACK
6
CONTINUOUS
10
0.1948818897637795
20
-0.5954724409448818
11
0.1948818897637795
21
-0.6053149606299213
0
LINE
8
BLACK
6
CONTINUOUS
10
0.1948818897637795
20
-0.6053149606299213
11
0.1942825196850394
21
-0.6083282283464567
0
LINE
8
BLACK
6
CONTINUOUS
10
0.1942825196850394
20
-0.6083282283464567
11
0.1930075984251969
21
-0.610236220472441
0
LINE
8
BLACK
6
CONTINUOUS
10
0.1930075984251969
20
-0.610236220472441
11
0.1942825196850394
21
-0.6121442125984252
0
LINE
8
BLACK
6
CONTINUOUS
10
0.1942825196850394
20
-0.6121442125984252
11
0.1948818897637795
21
-0.6151574803149606
0
LINE
8
BLACK
6
CONTINUOUS
10
0.1948818897637795
20
-0.6151574803149606
11
0.1948818897637795
21
-0.625
0
LINE
8
BLACK
6
CONTINUOUS
10
0.1948818897637795
20
-0.625
11
0.1942825196850394
21
-0.6280132677165354
0
LINE
8
BLACK
6
CONTINUOUS
10
0.1942825196850394
20
-0.6280132677165354
11
0.1930075984251969
21
-0.6299212598425197
0
LINE
8
BLACK
6
CONTINUOUS
10
0.1930075984251969
20
-0.6299212598425197
11
0.1942825196850394
21
-0.6318292519685039
0
LINE
8
BLACK
6
CONTINUOUS
10
0.1942825196850394
20
-0.6318292519685039
11
0.1948818897637795
21
-0.6348425196850394
0
LINE
8
BLACK
6
CONTINUOUS
10
0.1948818897637795
20
-0.6348425196850394
11
0.1948818897637795
21
-0.6446850393700787
0
LINE
8
BLACK
6
CONTINUOUS
10
0.1948818897637795
20
-0.6446850393700787
11
0.1942825196850394
21
-0.6476983070866141
0
LINE
8
BLACK
6
CONTINUOUS
10
0.1942825196850394
20
-0.6476983070866141
11
0.1925756299212598
21
-0.6502527952755905
0
LINE
8
BLACK
6
CONTINUOUS
10
0.1925756299212598
20
-0.6502527952755905
11
0.1900211417322835
21
-0.6519596850393701
0
LINE
8
BLACK
6
CONTINUOUS
10
0.1900211417322835
20
-0.6519596850393701
11
0.187007874015748
21
-0.6525590551181102
0
LINE
8
BLACK
6
CONTINUOUS
10
0.187007874015748
20
-0.6525590551181102
11
0.1437007874015748
21
-0.6525590551181102
0
LINE
8
BLACK
6
CONTINUOUS
10
0.1437007874015748
20
-0.6525590551181102
11
0.1406875196850394
21
-0.6519596850393701
0
LINE
8
BLACK
6
CONTINUOUS
10
0.1406875196850394
20
-0.6519596850393701
11
0.138133031496063
21
-0.6502527952755905
0
LINE
8
BLACK
6
CONTINUOUS
10
0.138133031496063
20
-0.6502527952755905
11
0.1364261417322835
21
-0.6476983070866141
0
LINE
8
BLACK
6
CONTINUOUS
10
0.1364261417322835
20
-0.6476983070866141
11
0.1358267716535433
21
-0.6446850393700787
0
LINE
8
BLACK
6
CONTINUOUS
10
0.1358267716535433
20
-0.6446850393700787
11
0.1358267716535433
21
-0.6348425196850394
0
LINE
8
BLACK
6
CONTINUOUS
10
0.1358267716535433
20
-0.6348425196850394
11
0.1364261417322835
21
-0.6318292519685039
0
LINE
8
BLACK
6
CONTINUOUS
10
0.1364261417322835
20
-0.6318292519685039
11
0.1377010236220473
21
-0.6299212598425197
0
LINE
8
BLACK
6
CONTINUOUS
10
0.1377010236220473
20
-0.6299212598425197
11
0.1364261417322835
21
-0.6280132677165354
0
LINE
8
BLACK
6
CONTINUOUS
10
0.1364261417322835
20
-0.6280132677165354
11
0.1358267716535433
21
-0.625
0
LINE
8
BLACK
6
CONTINUOUS
10
0.1358267716535433
20
-0.625
11
0.1358267716535433
21
-0.6151574803149606
0
LINE
8
BLACK
6
CONTINUOUS
10
0.1358267716535433
20
-0.6151574803149606
11
0.1364261417322835
21
-0.6121442125984252
0
LINE
8
BLACK
6
CONTINUOUS
10
0.1364261417322835
20
-0.6121442125984252
11
0.1377010236220473
21
-0.610236220472441
0
LINE
8
BLACK
6
CONTINUOUS
10
0.1377010236220473
20
-0.610236220472441
11
0.1364261417322835
21
-0.6083282283464567
0
LINE
8
BLACK
6
CONTINUOUS
10
0.1364261417322835
20
-0.6083282283464567
11
0.1358267716535433
21
-0.6053149606299213
0
LINE
8
BLACK
6
CONTINUOUS
10
0.1358267716535433
20
-0.6053149606299213
11
0.1358267716535433
21
-0.5954724409448818
0
LINE
8
BLACK
6
CONTINUOUS
10
0.1358267716535433
20
-0.5954724409448818
11
0.1364261417322835
21
-0.5924591732283464
0
LINE
8
BLACK
6
CONTINUOUS
10
0.1364261417322835
20
-0.5924591732283464
11
0.1377010236220473
21
-0.5905511811023622
0
LINE
8
BLACK
6
CONTINUOUS
10
0.1377010236220473
20
-0.5905511811023622
11
0.1364261417322835
21
-0.5886431889763779
0
LINE
8
BLACK
6
CONTINUOUS
10
0.1364261417322835
20
-0.5886431889763779
11
0.1358267716535433
21
-0.5856299212598425
0
LINE
8
BLACK
6
CONTINUOUS
10
0.1358267716535433
20
-0.5856299212598425
11
0.1358267716535433
21
-0.5757874015748031
0
LINE
8
BLACK
6
CONTINUOUS
10
0.1358267716535433
20
-0.5757874015748031
11
0.1364261417322835
21
-0.5727741338582677
0
LINE
8
BLACK
6
CONTINUOUS
10
0.1364261417322835
20
-0.5727741338582677
11
0.1377010236220473
21
-0.5708661417322834
0
LINE
8
BLACK
6
CONTINUOUS
10
0.1377010236220473
20
-0.5708661417322834
11
0.1364261417322835
21
-0.5689581496062992
0
LINE
8
BLACK
6
CONTINUOUS
10
0.1364261417322835
20
-0.5689581496062992
11
0.1358267716535433
21
-0.5659448818897638
0
LINE
8
BLACK
6
CONTINUOUS
10
0.1358267716535433
20
-0.5659448818897638
11
0.1358267716535433
21
-0.5561023622047244
0
LINE
8
BLACK
6
CONTINUOUS
10
0.1358267716535433
20
-0.5561023622047244
11
0.1364261417322835
21
-0.553089094488189
0
LINE
8
BLACK
6
CONTINUOUS
10
0.1364261417322835
20
-0.553089094488189
11
0.138133031496063
21
-0.5505346062992126
0
LINE
8
BLACK
6
CONTINUOUS
10
0.138133031496063
20
-0.5505346062992126
11
0.1406875196850394
21
-0.5488277165354331
0
LINE
8
BLACK
6
CONTINUOUS
10
0.1406875196850394
20
-0.5488277165354331
11
0.1437007874015748
21
-0.5482283464566929
0
LINE
8
BLACK
6
CONTINUOUS
10
0.1437007874015748
20
-0.5482283464566929
11
0.187007874015748
21
-0.5482283464566929
0
LINE
8
BLACK
6
CONTINUOUS
10
0.187007874015748
20
-0.5482283464566929
11
0.1900211417322835
21
-0.5488277165354331
0
LINE
8
BLACK
6
CONTINUOUS
10
0.3593124803149606
20
-0.5488277165354331
11
0.361866968503937
21
-0.5505346062992126
0
LINE
8
BLACK
6
CONTINUOUS
10
0.361866968503937
20
-0.5505346062992126
11
0.3635738582677165
21
-0.553089094488189
0
LINE
8
BLACK
6
CONTINUOUS
10
0.3635738582677165
20
-0.553089094488189
11
0.3641732283464567
21
-0.5561023622047244
0
LINE
8
BLACK
6
CONTINUOUS
10
0.3641732283464567
20
-0.5561023622047244
11
0.3641732283464567
21
-0.5659448818897638
0
LINE
8
BLACK
6
CONTINUOUS
10
0.3641732283464567
20
-0.5659448818897638
11
0.3635738582677165
21
-0.5689581496062992
0
LINE
8
BLACK
6
CONTINUOUS
10
0.3635738582677165
20
-0.5689581496062992
11
0.362298937007874
21
-0.5708661417322834
0
LINE
8
BLACK
6
CONTINUOUS
10
0.362298937007874
20
-0.5708661417322834
11
0.3635738582677165
21
-0.5727741338582677
0
LINE
8
BLACK
6
CONTINUOUS
10
0.3635738582677165
20
-0.5727741338582677
11
0.3641732283464567
21
-0.5757874015748031
0
LINE
8
BLACK
6
CONTINUOUS
10
0.3641732283464567
20
-0.5757874015748031
11
0.3641732283464567
21
-0.5856299212598425
0
LINE
8
BLACK
6
CONTINUOUS
10
0.3641732283464567
20
-0.5856299212598425
11
0.3635738582677165
21
-0.5886431889763779
0
LINE
8
BLACK
6
CONTINUOUS
10
0.3635738582677165
20
-0.5886431889763779
11
0.362298937007874
21
-0.5905511811023622
0
LINE
8
BLACK
6
CONTINUOUS
10
0.362298937007874
20
-0.5905511811023622
11
0.3635738582677165
21
-0.5924591732283464
0
LINE
8
BLACK
6
CONTINUOUS
10
0.3635738582677165
20
-0.5924591732283464
11
0.3641732283464567
21
-0.5954724409448818
0
LINE
8
BLACK
6
CONTINUOUS
10
0.3641732283464567
20
-0.5954724409448818
11
0.3641732283464567
21
-0.6053149606299213
0
LINE
8
BLACK
6
CONTINUOUS
10
0.3641732283464567
20
-0.6053149606299213
11
0.3635738582677165
21
-0.6083282283464567
0
LINE
8
BLACK
6
CONTINUOUS
10
0.3635738582677165
20
-0.6083282283464567
11
0.362298937007874
21
-0.610236220472441
0
LINE
8
BLACK
6
CONTINUOUS
10
0.362298937007874
20
-0.610236220472441
11
0.3635738582677165
21
-0.6121442125984252
0
LINE
8
BLACK
6
CONTINUOUS
10
0.3635738582677165
20
-0.6121442125984252
11
0.3641732283464567
21
-0.6151574803149606
0
LINE
8
BLACK
6
CONTINUOUS
10
0.3641732283464567
20
-0.6151574803149606
11
0.3641732283464567
21
-0.625
0
LINE
8
BLACK
6
CONTINUOUS
10
0.3641732283464567
20
-0.625
11
0.3635738582677165
21
-0.6280132677165354
0
LINE
8
BLACK
6
CONTINUOUS
10
0.3635738582677165
20
-0.6280132677165354
11
0.362298937007874
21
-0.6299212598425197
0
LINE
8
BLACK
6
CONTINUOUS
10
0.362298937007874
20
-0.6299212598425197
11
0.3635738582677165
21
-0.6318292519685039
0
LINE
8
BLACK
6
CONTINUOUS
10
0.3635738582677165
20
-0.6318292519685039
11
0.3641732283464567
21
-0.6348425196850394
0
LINE
8
BLACK
6
CONTINUOUS
10
0.3641732283464567
20
-0.6348425196850394
11
0.3641732283464567
21
-0.6446850393700787
0
LINE
8
BLACK
6
CONTINUOUS
10
0.3641732283464567
20
-0.6446850393700787
11
0.3635738582677165
21
-0.6476983070866141
0
LINE
8
BLACK
6
CONTINUOUS
10
0.3635738582677165
20
-0.6476983070866141
11
0.361866968503937
21
-0.6502527952755905
0
LINE
8
BLACK
6
CONTINUOUS
10
0.361866968503937
20
-0.6502527952755905
11
0.3593124803149606
21
-0.6519596850393701
0
LINE
8
BLACK
6
CONTINUOUS
10
0.3593124803149606
20
-0.6519596850393701
11
0.3562992125984252
21
-0.6525590551181102
0
LINE
8
BLACK
6
CONTINUOUS
10
0.3562992125984252
20
-0.6525590551181102
11
0.312992125984252
21
-0.6525590551181102
0
LINE
8
BLACK
6
CONTINUOUS
10
0.312992125984252
20
-0.6525590551181102
11
0.3099788582677165
21
-0.6519596850393701
0
LINE
8
BLACK
6
CONTINUOUS
10
0.3099788582677165
20
-0.6519596850393701
11
0.3074243700787401
21
-0.6502527952755905
0
LINE
8
BLACK
6
CONTINUOUS
10
0.3074243700787401
20
-0.6502527952755905
11
0.3057174803149606
21
-0.6476983070866141
0
LINE
8
BLACK
6
CONTINUOUS
10
0.3057174803149606
20
-0.6476983070866141
11
0.3051181102362205
21
-0.6446850393700787
0
LINE
8
BLACK
6
CONTINUOUS
10
0.3051181102362205
20
-0.6446850393700787
11
0.3051181102362205
21
-0.6348425196850394
0
LINE
8
BLACK
6
CONTINUOUS
10
0.3051181102362205
20
-0.6348425196850394
11
0.3057174803149606
21
-0.6318292519685039
0
LINE
8
BLACK
6
CONTINUOUS
10
0.3057174803149606
20
-0.6318292519685039
11
0.3069923622047244
21
-0.6299212598425197
0
LINE
8
BLACK
6
CONTINUOUS
10
0.3069923622047244
20
-0.6299212598425197
11
0.3057174803149606
21
-0.6280132677165354
0
LINE
8
BLACK
6
CONTINUOUS
10
0.3057174803149606
20
-0.6280132677165354
11
0.3051181102362205
21
-0.625
0
LINE
8
BLACK
6
CONTINUOUS
10
0.3051181102362205
20
-0.625
11
0.3051181102362205
21
-0.6151574803149606
0
LINE
8
BLACK
6
CONTINUOUS
10
0.3051181102362205
20
-0.6151574803149606
11
0.3057174803149606
21
-0.6121442125984252
0
LINE
8
BLACK
6
CONTINUOUS
10
0.3057174803149606
20
-0.6121442125984252
11
0.3069923622047244
21
-0.610236220472441
0
LINE
8
BLACK
6
CONTINUOUS
10
0.3069923622047244
20
-0.610236220472441
11
0.3057174803149606
21
-0.6083282283464567
0
LINE
8
BLACK
6
CONTINUOUS
10
0.3057174803149606
20
-0.6083282283464567
11
0.3051181102362205
21
-0.6053149606299213
0
LINE
8
BLACK
6
CONTINUOUS
10
0.3051181102362205
20
-0.6053149606299213
11
0.3051181102362205
21
-0.5954724409448818
0
LINE
8
BLACK
6
CONTINUOUS
10
0.3051181102362205
20
-0.5954724409448818
11
0.3057174803149606
21
-0.5924591732283464
0
LINE
8
BLACK
6
CONTINUOUS
10
0.3057174803149606
20
-0.5924591732283464
11
0.3069923622047244
21
-0.5905511811023622
0
LINE
8
BLACK
6
CONTINUOUS
10
0.3069923622047244
20
-0.5905511811023622
11
0.3057174803149606
21
-0.5886431889763779
0
LINE
8
BLACK
6
CONTINUOUS
10
0.3057174803149606
20
-0.5886431889763779
11
0.3051181102362205
21
-0.5856299212598425
0
LINE
8
BLACK
6
CONTINUOUS
10
0.3051181102362205
20
-0.5856299212598425
11
0.3051181102362205
21
-0.5757874015748031
0
LINE
8
BLACK
6
CONTINUOUS
10
0.3051181102362205
20
-0.5757874015748031
11
0.3057174803149606
21
-0.5727741338582677
0
LINE
8
BLACK
6
CONTINUOUS
10
0.3057174803149606
20
-0.5727741338582677
11
0.3069923622047244
21
-0.5708661417322834
0
LINE
8
BLACK
6
CONTINUOUS
10
0.3069923622047244
20
-0.5708661417322834
11
0.3057174803149606
21
-0.5689581496062992
0
LINE
8
BLACK
6
CONTINUOUS
10
0.3057174803149606
20
-0.5689581496062992
11
0.3051181102362205
21
-0.5659448818897638
0
LINE
8
BLACK
6
CONTINUOUS
10
0.3051181102362205
20
-0.5659448818897638
11
0.3051181102362205
21
-0.5561023622047244
0
LINE
8
BLACK
6
CONTINUOUS
10
0.3051181102362205
20
-0.5561023622047244
11
0.3057174803149606
21
-0.553089094488189
0
LINE
8
BLACK
6
CONTINUOUS
10
0.3057174803149606
20
-0.553089094488189
11
0.3074243700787401
21
-0.5505346062992126
0
LINE
8
BLACK
6
CONTINUOUS
10
0.3074243700787401
20
-0.5505346062992126
11
0.3099788582677165
21
-0.5488277165354331
0
LINE
8
BLACK
6
CONTINUOUS
10
0.3099788582677165
20
-0.5488277165354331
11
0.312992125984252
21
-0.5482283464566929
0
LINE
8
BLACK
6
CONTINUOUS
10
0.312992125984252
20
-0.5482283464566929
11
0.3562992125984252
21
-0.5482283464566929
0
LINE
8
BLACK
6
CONTINUOUS
10
0.3562992125984252
20
-0.5482283464566929
11
0.3593124803149606
21
-0.5488277165354331
0
LINE
8
BLACK
6
CONTINUOUS
10
0.4580964960629921
20
-0.5775785433070866
11
0.4626923228346457
21
-0.5799202362204724
0
LINE
8
BLACK
6
CONTINUOUS
10
0.4626923228346457
20
-0.5799202362204724
11
0.4663396062992126
21
-0.5835675196850394
0
LINE
8
BLACK
6
CONTINUOUS
10
0.4663396062992126
20
-0.5835675196850394
11
0.4686812992125984
21
-0.5881633464566929
0
LINE
8
BLACK
6
CONTINUOUS
10
0.4686812992125984
20
-0.5881633464566929
11
0.469488188976378
21
-0.593257874015748
0
LINE
8
BLACK
6
CONTINUOUS
10
0.469488188976378
20
-0.593257874015748
11
0.469488188976378
21
-0.6104822834645669
0
LINE
8
BLACK
6
CONTINUOUS
10
0.469488188976378
20
-0.6104822834645669
11
0.4686812992125984
21
-0.6155768110236221
0
LINE
8
BLACK
6
CONTINUOUS
10
0.4686812992125984
20
-0.6155768110236221
11
0.4663396062992126
21
-0.6201726377952755
0
LINE
8
BLACK
6
CONTINUOUS
10
0.4663396062992126
20
-0.6201726377952755
11
0.4626923228346457
21
-0.6238199212598425
0
LINE
8
BLACK
6
CONTINUOUS
10
0.4626923228346457
20
-0.6238199212598425
11
0.4580964960629921
21
-0.6261616141732284
0
LINE
8
BLACK
6
CONTINUOUS
10
0.4580964960629921
20
-0.6261616141732284
11
0.453001968503937
21
-0.6269685039370079
0
LINE
8
BLACK
6
CONTINUOUS
10
0.453001968503937
20
-0.6269685039370079
11
0.4328248031496063
21
-0.6269685039370079
0
LINE
8
BLACK
6
CONTINUOUS
10
0.4328248031496063
20
-0.6269685039370079
11
0.4277302755905512
21
-0.6261616141732284
0
LINE
8
BLACK
6
CONTINUOUS
10
0.4277302755905512
20
-0.6261616141732284
11
0.4231344488188976
21
-0.6238199212598425
0
LINE
8
BLACK
6
CONTINUOUS
10
0.4231344488188976
20
-0.6238199212598425
11
0.4194871653543307
21
-0.6201726377952755
0
LINE
8
BLACK
6
CONTINUOUS
10
0.4194871653543307
20
-0.6201726377952755
11
0.4171454724409449
21
-0.6155768110236221
0
LINE
8
BLACK
6
CONTINUOUS
10
0.4171454724409449
20
-0.6155768110236221
11
0.4163385826771653
21
-0.6104822834645669
0
LINE
8
BLACK
6
CONTINUOUS
10
0.4163385826771653
20
-0.6104822834645669
11
0.4163385826771653
21
-0.593257874015748
0
LINE
8
BLACK
6
CONTINUOUS
10
0.4163385826771653
20
-0.593257874015748
11
0.4171454724409449
21
-0.5881633464566929
0
LINE
8
BLACK
6
CONTINUOUS
10
0.4171454724409449
20
-0.5881633464566929
11
0.4194871653543307
21
-0.5835675196850394
0
LINE
8
BLACK
6
CONTINUOUS
10
0.4194871653543307
20
-0.5835675196850394
11
0.4231344488188976
21
-0.5799202362204724
0
LINE
8
BLACK
6
CONTINUOUS
10
0.4231344488188976
20
-0.5799202362204724
11
0.4277302755905512
21
-0.5775785433070866
0
LINE
8
BLACK
6
CONTINUOUS
10
0.4277302755905512
20
-0.5775785433070866
11
0.4328248031496063
21
-0.5767716535433071
0
LINE
8
BLACK
6
CONTINUOUS
10
0.4328248031496063
20
-0.5767716535433071
11
0.453001968503937
21
-0.5767716535433071
0
LINE
8
BLACK
6
CONTINUOUS
10
0.453001968503937
20
-0.5767716535433071
11
0.4580964960629921
21
-0.5775785433070866
0
LINE
8
BLACK
6
CONTINUOUS
10
0.6451043700787401
20
-0.5775785433070866
11
0.6497001968503937
21
-0.5799202362204724
0
LINE
8
BLACK
6
CONTINUOUS
10
0.6497001968503937
20
-0.5799202362204724
11
0.6533474803149606
21
-0.5835675196850394
0
LINE
8
BLACK
6
CONTINUOUS
10
0.6533474803149606
20
-0.5835675196850394
11
0.6556891732283464
21
-0.5881633464566929
0
LINE
8
BLACK
6
CONTINUOUS
10
0.6556891732283464
20
-0.5881633464566929
11
0.6564960629921259
21
-0.593257874015748
0
LINE
8
BLACK
6
CONTINUOUS
10
0.6564960629921259
20
-0.593257874015748
11
0.6564960629921259
21
-0.6104822834645669
0
LINE
8
BLACK
6
CONTINUOUS
10
0.6564960629921259
20
-0.6104822834645669
11
0.6556891732283464
21
-0.6155768110236221
0
LINE
8
BLACK
6
CONTINUOUS
10
0.6556891732283464
20
-0.6155768110236221
11
0.6533474803149606
21
-0.6201726377952755
0
LINE
8
BLACK
6
CONTINUOUS
10
0.6533474803149606
20
-0.6201726377952755
11
0.6497001968503937
21
-0.6238199212598425
0
LINE
8
BLACK
6
CONTINUOUS
10
0.6497001968503937
20
-0.6238199212598425
11
0.6451043700787401
21
-0.6261616141732284
0
LINE
8
BLACK
6
CONTINUOUS
10
0.6451043700787401
20
-0.6261616141732284
11
0.6400098425196851
21
-0.6269685039370079
0
LINE
8
BLACK
6
CONTINUOUS
10
0.6400098425196851
20
-0.6269685039370079
11
0.6198326771653543
21
-0.6269685039370079
0
LINE
8
BLACK
6
CONTINUOUS
10
0.6198326771653543
20
-0.6269685039370079
11
0.6147381496062992
21
-0.6261616141732284
0
LINE
8
BLACK
6
CONTINUOUS
10
0.6147381496062992
20
-0.6261616141732284
11
0.6101423228346456
21
-0.6238199212598425
0
LINE
8
BLACK
6
CONTINUOUS
10
0.6101423228346456
20
-0.6238199212598425
11
0.6064950393700788
21
-0.6201726377952755
0
LINE
8
BLACK
6
CONTINUOUS
10
0.6064950393700788
20
-0.6201726377952755
11
0.6041533464566929
21
-0.6155768110236221
0
LINE
8
BLACK
6
CONTINUOUS
10
0.6041533464566929
20
-0.6155768110236221
11
0.6033464566929134
21
-0.6104822834645669
0
LINE
8
BLACK
6
CONTINUOUS
10
0.6033464566929134
20
-0.6104822834645669
11
0.6033464566929134
21
-0.593257874015748
0
LINE
8
BLACK
6
CONTINUOUS
10
0.6033464566929134
20
-0.593257874015748
11
0.6041533464566929
21
-0.5881633464566929
0
LINE
8
BLACK
6
CONTINUOUS
10
0.6041533464566929
20
-0.5881633464566929
11
0.6064950393700788
21
-0.5835675196850394
0
LINE
8
BLACK
6
CONTINUOUS
10
0.6064950393700788
20
-0.5835675196850394
11
0.6101423228346456
21
-0.5799202362204724
0
LINE
8
BLACK
6
CONTINUOUS
10
0.6101423228346456
20
-0.5799202362204724
11
0.6147381496062992
21
-0.5775785433070866
0
LINE
8
BLACK
6
CONTINUOUS
10
0.6147381496062992
20
-0.5775785433070866
11
0.6198326771653543
21
-0.5767716535433071
0
LINE
8
BLACK
6
CONTINUOUS
10
0.6198326771653543
20
-0.5767716535433071
11
0.6400098425196851
21
-0.5767716535433071
0
LINE
8
BLACK
6
CONTINUOUS
10
0.6400098425196851
20
-0.5767716535433071
11
0.6451043700787401
21
-0.5775785433070866
0
LINE
8
BLACK
6
CONTINUOUS
10
0.4580964960629921
20
-0.5155706692913385
11
0.4626923228346457
21
-0.5179123622047244
0
LINE
8
BLACK
6
CONTINUOUS
10
0.4626923228346457
20
-0.5179123622047244
11
0.4663396062992126
21
-0.5215596456692914
0
LINE
8
BLACK
6
CONTINUOUS
10
0.4663396062992126
20
-0.5215596456692914
11
0.4686812992125984
21
-0.5261554724409448
0
LINE
8
BLACK
6
CONTINUOUS
10
0.4686812992125984
20
-0.5261554724409448
11
0.469488188976378
21
-0.53125
0
LINE
8
BLACK
6
CONTINUOUS
10
0.469488188976378
20
-0.53125
11
0.469488188976378
21
-0.5484744094488189
0
LINE
8
BLACK
6
CONTINUOUS
10
0.469488188976378
20
-0.5484744094488189
11
0.4686812992125984
21
-0.553568937007874
0
LINE
8
BLACK
6
CONTINUOUS
10
0.4686812992125984
20
-0.553568937007874
11
0.4663396062992126
21
-0.5581647637795275
0
LINE
8
BLACK
6
CONTINUOUS
10
0.4663396062992126
20
-0.5581647637795275
11
0.4626923228346457
21
-0.5618120472440945
0
LINE
8
BLACK
6
CONTINUOUS
10
0.4626923228346457
20
-0.5618120472440945
11
0.4580964960629921
21
-0.5641537401574803
0
LINE
8
BLACK
6
CONTINUOUS
10
0.4580964960629921
20
-0.5641537401574803
11
0.453001968503937
21
-0.5649606299212598
0
LINE
8
BLACK
6
CONTINUOUS
10
0.453001968503937
20
-0.5649606299212598
11
0.4328248031496063
21
-0.5649606299212598
0
LINE
8
BLACK
6
CONTINUOUS
10
0.4328248031496063
20
-0.5649606299212598
11
0.4277302755905512
21
-0.5641537401574803
0
LINE
8
BLACK
6
CONTINUOUS
10
0.4277302755905512
20
-0.5641537401574803
11
0.4231344488188976
21
-0.5618120472440945
0
LINE
8
BLACK
6
CONTINUOUS
10
0.4231344488188976
20
-0.5618120472440945
11
0.4194871653543307
21
-0.5581647637795275
0
LINE
8
BLACK
6
CONTINUOUS
10
0.4194871653543307
20
-0.5581647637795275
11
0.4171454724409449
21
-0.553568937007874
0
LINE
8
BLACK
6
CONTINUOUS
10
0.4171454724409449
20
-0.553568937007874
11
0.4163385826771653
21
-0.5484744094488189
0
LINE
8
BLACK
6
CONTINUOUS
10
0.4163385826771653
20
-0.5484744094488189
11
0.4163385826771653
21
-0.53125
0
LINE
8
BLACK
6
CONTINUOUS
10
0.4163385826771653
20
-0.53125
11
0.4171454724409449
21
-0.5261554724409448
0
LINE
8
BLACK
6
CONTINUOUS
10
0.4171454724409449
20
-0.5261554724409448
11
0.4194871653543307
21
-0.5215596456692914
0
LINE
8
BLACK
6
CONTINUOUS
10
0.4194871653543307
20
-0.5215596456692914
11
0.4231344488188976
21
-0.5179123622047244
0
LINE
8
BLACK
6
CONTINUOUS
10
0.4231344488188976
20
-0.5179123622047244
11
0.4277302755905512
21
-0.5155706692913385
0
LINE
8
BLACK
6
CONTINUOUS
10
0.4277302755905512
20
-0.5155706692913385
11
0.4328248031496063
21
-0.514763779527559
0
LINE
8
BLACK
6
CONTINUOUS
10
0.4328248031496063
20
-0.514763779527559
11
0.453001968503937
21
-0.514763779527559
0
LINE
8
BLACK
6
CONTINUOUS
10
0.453001968503937
20
-0.514763779527559
11
0.4580964960629921
21
-0.5155706692913385
0
LINE
8
BLACK
6
CONTINUOUS
10
0.6451043700787401
20
-0.5155706692913385
11
0.6497001968503937
21
-0.5179123622047244
0
LINE
8
BLACK
6
CONTINUOUS
10
0.6497001968503937
20
-0.5179123622047244
11
0.6533474803149606
21
-0.5215596456692914
0
LINE
8
BLACK
6
CONTINUOUS
10
0.6533474803149606
20
-0.5215596456692914
11
0.6556891732283464
21
-0.5261554724409448
0
LINE
8
BLACK
6
CONTINUOUS
10
0.6556891732283464
20
-0.5261554724409448
11
0.6564960629921259
21
-0.53125
0
LINE
8
BLACK
6
CONTINUOUS
10
0.6564960629921259
20
-0.53125
11
0.6564960629921259
21
-0.5484744094488189
0
LINE
8
BLACK
6
CONTINUOUS
10
0.6564960629921259
20
-0.5484744094488189
11
0.6556891732283464
21
-0.553568937007874
0
LINE
8
BLACK
6
CONTINUOUS
10
0.6556891732283464
20
-0.553568937007874
11
0.6533474803149606
21
-0.5581647637795275
0
LINE
8
BLACK
6
CONTINUOUS
10
0.6533474803149606
20
-0.5581647637795275
11
0.6497001968503937
21
-0.5618120472440945
0
LINE
8
BLACK
6
CONTINUOUS
10
0.6497001968503937
20
-0.5618120472440945
11
0.6451043700787401
21
-0.5641537401574803
0
LINE
8
BLACK
6
CONTINUOUS
10
0.6451043700787401
20
-0.5641537401574803
11
0.6400098425196851
21
-0.5649606299212598
0
LINE
8
BLACK
6
CONTINUOUS
10
0.6400098425196851
20
-0.5649606299212598
11
0.6198326771653543
21
-0.5649606299212598
0
LINE
8
BLACK
6
CONTINUOUS
10
0.6198326771653543
20
-0.5649606299212598
11
0.6147381496062992
21
-0.5641537401574803
0
LINE
8
BLACK
6
CONTINUOUS
10
0.6147381496062992
20
-0.5641537401574803
11
0.6101423228346456
21
-0.5618120472440945
0
LINE
8
BLACK
6
CONTINUOUS
10
0.6101423228346456
20
-0.5618120472440945
11
0.6064950393700788
21
-0.5581647637795275
0
LINE
8
BLACK
6
CONTINUOUS
10
0.6064950393700788
20
-0.5581647637795275
11
0.6041533464566929
21
-0.553568937007874
0
LINE
8
BLACK
6
CONTINUOUS
10
0.6041533464566929
20
-0.553568937007874
11
0.6033464566929134
21
-0.5484744094488189
0
LINE
8
BLACK
6
CONTINUOUS
10
0.6033464566929134
20
-0.5484744094488189
11
0.6033464566929134
21
-0.53125
0
LINE
8
BLACK
6
CONTINUOUS
10
0.6033464566929134
20
-0.53125
11
0.6041533464566929
21
-0.5261554724409448
0
LINE
8
BLACK
6
CONTINUOUS
10
0.6041533464566929
20
-0.5261554724409448
11
0.6064950393700788
21
-0.5215596456692914
0
LINE
8
BLACK
6
CONTINUOUS
10
0.6064950393700788
20
-0.5215596456692914
11
0.6101423228346456
21
-0.5179123622047244
0
LINE
8
BLACK
6
CONTINUOUS
10
0.6101423228346456
20
-0.5179123622047244
11
0.6147381496062992
21
-0.5155706692913385
0
LINE
8
BLACK
6
CONTINUOUS
10
0.6147381496062992
20
-0.5155706692913385
11
0.6198326771653543
21
-0.514763779527559
0
LINE
8
BLACK
6
CONTINUOUS
10
0.6198326771653543
20
-0.514763779527559
11
0.6400098425196851
21
-0.514763779527559
0
LINE
8
BLACK
6
CONTINUOUS
10
0.6400098425196851
20
-0.514763779527559
11
0.6451043700787401
21
-0.5155706692913385
0
LINE
8
BLACK
6
CONTINUOUS
10
-0.4792701968503937
20
-0.3293395275590551
11
-0.4767157086614173
21
-0.3310464173228346
0
LINE
8
BLACK
6
CONTINUOUS
10
-0.4767157086614173
20
-0.3310464173228346
11
-0.4763779527559055
21
-0.3315518897637795
0
LINE
8
BLACK
6
CONTINUOUS
10
-0.4763779527559055
20
-0.3315518897637795
11
-0.4760401968503937
21
-0.3310464173228346
0
LINE
8
BLACK
6
CONTINUOUS
10
-0.4760401968503937
20
-0.3310464173228346
11
-0.4734857086614173
21
-0.3293395275590551
0
LINE
8
BLACK
6
CONTINUOUS
10
-0.4734857086614173
20
-0.3293395275590551
11
-0.4704724409448819
21
-0.3287401574803149
0
LINE
8
BLACK
6
CONTINUOUS
10
-0.4704724409448819
20
-0.3287401574803149
11
-0.4311023622047244
21
-0.3287401574803149
0
LINE
8
BLACK
6
CONTINUOUS
10
-0.4311023622047244
20
-0.3287401574803149
11
-0.428089094488189
21
-0.3293395275590551
0
LINE
8
BLACK
6
CONTINUOUS
10
-0.428089094488189
20
-0.3293395275590551
11
-0.4255346062992126
21
-0.3310464173228346
0
LINE
8
BLACK
6
CONTINUOUS
10
-0.4255346062992126
20
-0.3310464173228346
11
-0.4238277165354331
21
-0.333600905511811
0
LINE
8
BLACK
6
CONTINUOUS
10
-0.4238277165354331
20
-0.333600905511811
11
-0.4232283464566929
21
-0.3366141732283465
0
LINE
8
BLACK
6
CONTINUOUS
10
-0.4232283464566929
20
-0.3366141732283465
11
-0.4232283464566929
21
-0.3956692913385826
0
LINE
8
BLACK
6
CONTINUOUS
10
-0.4232283464566929
20
-0.3956692913385826
11
-0.4238277165354331
21
-0.3986825590551181
0
LINE
8
BLACK
6
CONTINUOUS
10
-0.4238277165354331
20
-0.3986825590551181
11
-0.4255346062992126
21
-0.4012370472440945
0
LINE
8
BLACK
6
CONTINUOUS
10
-0.4255346062992126
20
-0.4012370472440945
11
-0.428089094488189
21
-0.402943937007874
0
LINE
8
BLACK
6
CONTINUOUS
10
-0.428089094488189
20
-0.402943937007874
11
-0.4311023622047244
21
-0.4035433070866142
0
LINE
8
BLACK
6
CONTINUOUS
10
-0.4311023622047244
20
-0.4035433070866142
11
-0.4704724409448819
21
-0.4035433070866142
0
LINE
8
BLACK
6
CONTINUOUS
10
-0.4704724409448819
20
-0.4035433070866142
11
-0.4734857086614173
21
-0.402943937007874
0
LINE
8
BLACK
6
CONTINUOUS
10
-0.4734857086614173
20
-0.402943937007874
11
-0.4760401968503937
21
-0.4012370472440945
0
LINE
8
BLACK
6
CONTINUOUS
10
-0.4760401968503937
20
-0.4012370472440945
11
-0.4763779527559055
21
-0.4007315354330709
0
LINE
8
BLACK
6
CONTINUOUS
10
-0.4763779527559055
20
-0.4007315354330709
11
-0.4767157086614173
21
-0.4012370472440945
0
LINE
8
BLACK
6
CONTINUOUS
10
-0.4767157086614173
20
-0.4012370472440945
11
-0.4792701968503937
21
-0.402943937007874
0
LINE
8
BLACK
6
CONTINUOUS
10
-0.4792701968503937
20
-0.402943937007874
11
-0.4822834645669291
21
-0.4035433070866142
0
LINE
8
BLACK
6
CONTINUOUS
10
-0.4822834645669291
20
-0.4035433070866142
11
-0.5216535433070866
21
-0.4035433070866142
0
LINE
8
BLACK
6
CONTINUOUS
10
-0.5216535433070866
20
-0.4035433070866142
11
-0.524666811023622
21
-0.402943937007874
0
LINE
8
BLACK
6
CONTINUOUS
10
-0.524666811023622
20
-0.402943937007874
11
-0.5272212992125984
21
-0.4012370472440945
0
LINE
8
BLACK
6
CONTINUOUS
10
-0.5272212992125984
20
-0.4012370472440945
11
-0.5289281889763779
21
-0.3986825590551181
0
LINE
8
BLACK
6
CONTINUOUS
10
-0.5289281889763779
20
-0.3986825590551181
11
-0.5295275590551181
21
-0.3956692913385826
0
LINE
8
BLACK
6
CONTINUOUS
10
-0.5295275590551181
20
-0.3956692913385826
11
-0.5295275590551181
21
-0.3366141732283465
0
LINE
8
BLACK
6
CONTINUOUS
10
-0.5295275590551181
20
-0.3366141732283465
11
-0.5289281889763779
21
-0.333600905511811
0
LINE
8
BLACK
6
CONTINUOUS
10
-0.5289281889763779
20
-0.333600905511811
11
-0.5272212992125984
21
-0.3310464173228346
0
LINE
8
BLACK
6
CONTINUOUS
10
-0.5272212992125984
20
-0.3310464173228346
11
-0.524666811023622
21
-0.3293395275590551
0
LINE
8
BLACK
6
CONTINUOUS
10
-0.524666811023622
20
-0.3293395275590551
11
-0.5216535433070866
21
-0.3287401574803149
0
LINE
8
BLACK
6
CONTINUOUS
10
-0.5216535433070866
20
-0.3287401574803149
11
-0.4822834645669291
21
-0.3287401574803149
0
LINE
8
BLACK
6
CONTINUOUS
10
-0.4822834645669291
20
-0.3287401574803149
11
-0.4792701968503937
21
-0.3293395275590551
0
LINE
8
BLACK
6
CONTINUOUS
10
-0.4792701968503937
20
-0.1895757480314961
11
-0.4767157086614173
21
-0.1912826377952756
0
LINE
8
BLACK
6
CONTINUOUS
10
-0.4767157086614173
20
-0.1912826377952756
11
-0.4763779527559055
21
-0.1917881102362205
0
LINE
8
BLACK
6
CONTINUOUS
10
-0.4763779527559055
20
-0.1917881102362205
11
-0.4760401968503937
21
-0.1912826377952756
0
LINE
8
BLACK
6
CONTINUOUS
10
-0.4760401968503937
20
-0.1912826377952756
11
-0.4734857086614173
21
-0.1895757480314961
0
LINE
8
BLACK
6
CONTINUOUS
10
-0.4734857086614173
20
-0.1895757480314961
11
-0.4704724409448819
21
-0.1889763779527559
0
LINE
8
BLACK
6
CONTINUOUS
10
-0.4704724409448819
20
-0.1889763779527559
11
-0.4311023622047244
21
-0.1889763779527559
0
LINE
8
BLACK
6
CONTINUOUS
10
-0.4311023622047244
20
-0.1889763779527559
11
-0.428089094488189
21
-0.1895757480314961
0
LINE
8
BLACK
6
CONTINUOUS
10
-0.428089094488189
20
-0.1895757480314961
11
-0.4255346062992126
21
-0.1912826377952756
0
LINE
8
BLACK
6
CONTINUOUS
10
-0.4255346062992126
20
-0.1912826377952756
11
-0.4238277165354331
21
-0.193837125984252
0
LINE
8
BLACK
6
CONTINUOUS
10
-0.4238277165354331
20
-0.193837125984252
11
-0.4232283464566929
21
-0.1968503937007874
0
LINE
8
BLACK
6
CONTINUOUS
10
-0.4232283464566929
20
-0.1968503937007874
11
-0.4232283464566929
21
-0.2559055118110236
0
LINE
8
BLACK
6
CONTINUOUS
10
-0.4232283464566929
20
-0.2559055118110236
11
-0.4238277165354331
21
-0.258918779527559
0
LINE
8
BLACK
6
CONTINUOUS
10
-0.4238277165354331
20
-0.258918779527559
11
-0.4255346062992126
21
-0.2614732677165355
0
LINE
8
BLACK
6
CONTINUOUS
10
-0.4255346062992126
20
-0.2614732677165355
11
-0.428089094488189
21
-0.263180157480315
0
LINE
8
BLACK
6
CONTINUOUS
10
-0.428089094488189
20
-0.263180157480315
11
-0.4311023622047244
21
-0.2637795275590551
0
LINE
8
BLACK
6
CONTINUOUS
10
-0.4311023622047244
20
-0.2637795275590551
11
-0.4704724409448819
21
-0.2637795275590551
0
LINE
8
BLACK
6
CONTINUOUS
10
-0.4704724409448819
20
-0.2637795275590551
11
-0.4734857086614173
21
-0.263180157480315
0
LINE
8
BLACK
6
CONTINUOUS
10
-0.4734857086614173
20
-0.263180157480315
11
-0.4760401968503937
21
-0.2614732677165355
0
LINE
8
BLACK
6
CONTINUOUS
10
-0.4760401968503937
20
-0.2614732677165355
11
-0.4763779527559055
21
-0.2609677559055118
0
LINE
8
BLACK
6
CONTINUOUS
10
-0.4763779527559055
20
-0.2609677559055118
11
-0.4767157086614173
21
-0.2614732677165355
0
LINE
8
BLACK
6
CONTINUOUS
10
-0.4767157086614173
20
-0.2614732677165355
11
-0.4792701968503937
21
-0.263180157480315
0
LINE
8
BLACK
6
CONTINUOUS
10
-0.4792701968503937
20
-0.263180157480315
11
-0.4822834645669291
21
-0.2637795275590551
0
LINE
8
BLACK
6
CONTINUOUS
10
-0.4822834645669291
20
-0.2637795275590551
11
-0.5216535433070866
21
-0.2637795275590551
0
LINE
8
BLACK
6
CONTINUOUS
10
-0.5216535433070866
20
-0.2637795275590551
11
-0.524666811023622
21
-0.263180157480315
0
LINE
8
BLACK
6
CONTINUOUS
10
-0.524666811023622
20
-0.263180157480315
11
-0.5272212992125984
21
-0.2614732677165355
0
LINE
8
BLACK
6
CONTINUOUS
10
-0.5272212992125984
20
-0.2614732677165355
11
-0.5289281889763779
21
-0.258918779527559
0
LINE
8
BLACK
6
CONTINUOUS
10
-0.5289281889763779
20
-0.258918779527559
11
-0.5295275590551181
21
-0.2559055118110236
0
LINE
8
BLACK
6
CONTINUOUS
10
-0.5295275590551181
20
-0.2559055118110236
11
-0.5295275590551181
21
-0.1968503937007874
0
LINE
8
BLACK
6
CONTINUOUS
10
-0.5295275590551181
20
-0.1968503937007874
11
-0.5289281889763779
21
-0.193837125984252
0
LINE
8
BLACK
6
CONTINUOUS
10
-0.5289281889763779
20
-0.193837125984252
11
-0.5272212992125984
21
-0.1912826377952756
0
LINE
8
BLACK
6
CONTINUOUS
10
-0.5272212992125984
20
-0.1912826377952756
11
-0.524666811023622
21
-0.1895757480314961
0
LINE
8
BLACK
6
CONTINUOUS
10
-0.524666811023622
20
-0.1895757480314961
11
-0.5216535433070866
21
-0.1889763779527559
0
LINE
8
BLACK
6
CONTINUOUS
10
-0.5216535433070866
20
-0.1889763779527559
11
-0.4822834645669291
21
-0.1889763779527559
0
LINE
8
BLACK
6
CONTINUOUS
10
-0.4822834645669291
20
-0.1889763779527559
11
-0.4792701968503937
21
-0.1895757480314961
0
LINE
8
BLACK
6
CONTINUOUS
10
-0.4733646850393701
20
-0.0320954330708661
11
-0.4708101968503937
21
-0.0338023228346457
0
LINE
8
BLACK
6
CONTINUOUS
10
-0.4708101968503937
20
-0.0338023228346457
11
-0.4704724409448819
21
-0.0343077952755906
0
LINE
8
BLACK
6
CONTINUOUS
10
-0.4704724409448819
20
-0.0343077952755906
11
-0.4701346850393701
21
-0.0338023228346457
0
LINE
8
BLACK
6
CONTINUOUS
10
-0.4701346850393701
20
-0.0338023228346457
11
-0.4675801968503937
21
-0.0320954330708661
0
LINE
8
BLACK
6
CONTINUOUS
10
-0.4675801968503937
20
-0.0320954330708661
11
-0.4645669291338583
21
-0.031496062992126
0
LINE
8
BLACK
6
CONTINUOUS
10
-0.4645669291338583
20
-0.031496062992126
11
-0.4251968503937008
21
-0.031496062992126
0
LINE
8
BLACK
6
CONTINUOUS
10
-0.4251968503937008
20
-0.031496062992126
11
-0.4221835826771653
21
-0.0320954330708661
0
LINE
8
BLACK
6
CONTINUOUS
10
-0.4221835826771653
20
-0.0320954330708661
11
-0.419629094488189
21
-0.0338023228346457
0
LINE
8
BLACK
6
CONTINUOUS
10
-0.419629094488189
20
-0.0338023228346457
11
-0.4192913385826771
21
-0.0343077952755906
0
LINE
8
BLACK
6
CONTINUOUS
10
-0.4192913385826771
20
-0.0343077952755906
11
-0.4189535826771654
21
-0.0338023228346457
0
LINE
8
BLACK
6
CONTINUOUS
10
-0.4189535826771654
20
-0.0338023228346457
11
-0.416399094488189
21
-0.0320954330708661
0
LINE
8
BLACK
6
CONTINUOUS
10
-0.416399094488189
20
-0.0320954330708661
11
-0.4133858267716535
21
-0.031496062992126
0
LINE
8
BLACK
6
CONTINUOUS
10
-0.4133858267716535
20
-0.031496062992126
11
-0.3740157480314961
21
-0.031496062992126
0
LINE
8
BLACK
6
CONTINUOUS
10
-0.3740157480314961
20
-0.031496062992126
11
-0.3710024803149606
21
-0.0320954330708661
0
LINE
8
BLACK
6
CONTINUOUS
10
-0.3710024803149606
20
-0.0320954330708661
11
-0.3684479921259842
21
-0.0338023228346457
0
LINE
8
BLACK
6
CONTINUOUS
10
-0.3684479921259842
20
-0.0338023228346457
11
-0.3667411023622047
21
-0.036356811023622
0
LINE
8
BLACK
6
CONTINUOUS
10
-0.3667411023622047
20
-0.036356811023622
11
-0.3661417322834646
21
-0.0393700787401575
0
LINE
8
BLACK
6
CONTINUOUS
10
-0.3661417322834646
20
-0.0393700787401575
11
-0.3661417322834646
21
-0.0984251968503937
0
LINE
8
BLACK
6
CONTINUOUS
10
-0.3661417322834646
20
-0.0984251968503937
11
-0.3667411023622047
21
-0.1014384645669291
0
LINE
8
BLACK
6
CONTINUOUS
10
-0.3667411023622047
20
-0.1014384645669291
11
-0.3684479921259842
21
-0.1039929527559055
0
LINE
8
BLACK
6
CONTINUOUS
10
-0.3684479921259842
20
-0.1039929527559055
11
-0.3710024803149606
21
-0.105699842519685
0
LINE
8
BLACK
6
CONTINUOUS
10
-0.3710024803149606
20
-0.105699842519685
11
-0.3740157480314961
21
-0.1062992125984252
0
LINE
8
BLACK
6
CONTINUOUS
10
-0.3740157480314961
20
-0.1062992125984252
11
-0.4133858267716535
21
-0.1062992125984252
0
LINE
8
BLACK
6
CONTINUOUS
10
-0.4133858267716535
20
-0.1062992125984252
11
-0.416399094488189
21
-0.105699842519685
0
LINE
8
BLACK
6
CONTINUOUS
10
-0.416399094488189
20
-0.105699842519685
11
-0.4189535826771654
21
-0.1039929527559055
0
LINE
8
BLACK
6
CONTINUOUS
10
-0.4189535826771654
20
-0.1039929527559055
11
-0.4192913385826771
21
-0.1034874409448819
0
LINE
8
BLACK
6
CONTINUOUS
10
-0.4192913385826771
20
-0.1034874409448819
11
-0.419629094488189
21
-0.1039929527559055
0
LINE
8
BLACK
6
CONTINUOUS
10
-0.419629094488189
20
-0.1039929527559055
11
-0.4221835826771653
21
-0.105699842519685
0
LINE
8
BLACK
6
CONTINUOUS
10
-0.4221835826771653
20
-0.105699842519685
11
-0.4251968503937008
21
-0.1062992125984252
0
LINE
8
BLACK
6
CONTINUOUS
10
-0.4251968503937008
20
-0.1062992125984252
11
-0.4645669291338583
21
-0.1062992125984252
0
LINE
8
BLACK
6
CONTINUOUS
10
-0.4645669291338583
20
-0.1062992125984252
11
-0.4675801968503937
21
-0.105699842519685
0
LINE
8
BLACK
6
CONTINUOUS
10
-0.4675801968503937
20
-0.105699842519685
11
-0.4701346850393701
21
-0.1039929527559055
0
LINE
8
BLACK
6
CONTINUOUS
10
-0.4701346850393701
20
-0.1039929527559055
11
-0.4704724409448819
21
-0.1034874409448819
0
LINE
8
BLACK
6
CONTINUOUS
10
-0.4704724409448819
20
-0.1034874409448819
11
-0.4708101968503937
21
-0.1039929527559055
0
LINE
8
BLACK
6
CONTINUOUS
10
-0.4708101968503937
20
-0.1039929527559055
11
-0.4733646850393701
21
-0.105699842519685
0
LINE
8
BLACK
6
CONTINUOUS
10
-0.4733646850393701
20
-0.105699842519685
11
-0.4763779527559055
21
-0.1062992125984252
0
LINE
8
BLACK
6
CONTINUOUS
10
-0.4763779527559055
20
-0.1062992125984252
11
-0.515748031496063
21
-0.1062992125984252
0
LINE
8
BLACK
6
CONTINUOUS
10
-0.515748031496063
20
-0.1062992125984252
11
-0.5187612992125984
21
-0.105699842519685
0
LINE
8
BLACK
6
CONTINUOUS
10
-0.5187612992125984
20
-0.105699842519685
11
-0.5213157874015748
21
-0.1039929527559055
0
LINE
8
BLACK
6
CONTINUOUS
10
-0.5213157874015748
20
-0.1039929527559055
11
-0.5230226771653543
21
-0.1014384645669291
0
LINE
8
BLACK
6
CONTINUOUS
10
-0.5230226771653543
20
-0.1014384645669291
11
-0.5236220472440944
21
-0.0984251968503937
0
LINE
8
BLACK
6
CONTINUOUS
10
-0.5236220472440944
20
-0.0984251968503937
11
-0.5236220472440944
21
-0.0393700787401575
0
LINE
8
BLACK
6
CONTINUOUS
10
-0.5236220472440944
20
-0.0393700787401575
11
-0.5230226771653543
21
-0.036356811023622
0
LINE
8
BLACK
6
CONTINUOUS
10
-0.5230226771653543
20
-0.036356811023622
11
-0.5213157874015748
21
-0.0338023228346457
0
LINE
8
BLACK
6
CONTINUOUS
10
-0.5213157874015748
20
-0.0338023228346457
11
-0.5187612992125984
21
-0.0320954330708661
0
LINE
8
BLACK
6
CONTINUOUS
10
-0.5187612992125984
20
-0.0320954330708661
11
-0.515748031496063
21
-0.031496062992126
0
LINE
8
BLACK
6
CONTINUOUS
10
-0.515748031496063
20
-0.031496062992126
11
-0.4763779527559055
21
-0.031496062992126
0
LINE
8
BLACK
6
CONTINUOUS
10
-0.4763779527559055
20
-0.031496062992126
11
-0.4733646850393701
21
-0.0320954330708661
0
LINE
8
BLACK
6
CONTINUOUS
10
0.9667243700787401
20
0.3482199606299213
11
0.9742112992125984
21
0.345118779527559
0
LINE
8
BLACK
6
CONTINUOUS
10
0.9742112992125984
20
0.345118779527559
11
0.9809493307086614
21
0.3406165748031496
0
LINE
8
BLACK
6
CONTINUOUS
10
0.9809493307086614
20
0.3406165748031496
11
0.9866795669291338
21
0.3348863385826771
0
LINE
8
BLACK
6
CONTINUOUS
10
0.9866795669291338
20
0.3348863385826771
11
0.9911817716535433
21
0.3281483070866142
0
LINE
8
BLACK
6
CONTINUOUS
10
0.9911817716535433
20
0.3281483070866142
11
0.9942829527559055
21
0.3206613779527559
0
LINE
8
BLACK
6
CONTINUOUS
10
0.9942829527559055
20
0.3206613779527559
11
0.995863937007874
21
0.3127133070866142
0
LINE
8
BLACK
6
CONTINUOUS
10
0.995863937007874
20
0.3127133070866142
11
0.995863937007874
21
0.3046095275590551
0
LINE
8
BLACK
6
CONTINUOUS
10
0.995863937007874
20
0.3046095275590551
11
0.9942829527559055
21
0.2966614566929134
0
LINE
8
BLACK
6
CONTINUOUS
10
0.9942829527559055
20
0.2966614566929134
11
0.9911817716535433
21
0.2891745275590551
0
LINE
8
BLACK
6
CONTINUOUS
10
0.9911817716535433
20
0.2891745275590551
11
0.9866795669291338
21
0.2824364960629921
0
LINE
8
BLACK
6
CONTINUOUS
10
0.9866795669291338
20
0.2824364960629921
11
0.9809493307086614
21
0.2767062598425197
0
LINE
8
BLACK
6
CONTINUOUS
10
0.9809493307086614
20
0.2767062598425197
11
0.9742112992125984
21
0.2722040551181102
0
LINE
8
BLACK
6
CONTINUOUS
10
0.9742112992125984
20
0.2722040551181102
11
0.9667243700787401
21
0.269102874015748
0
LINE
8
BLACK
6
CONTINUOUS
10
0.9667243700787401
20
0.269102874015748
11
0.9587762992125984
21
0.2675218897637795
0
LINE
8
BLACK
6
CONTINUOUS
10
0.9587762992125984
20
0.2675218897637795
11
0.9506725196850393
21
0.2675218897637795
0
LINE
8
BLACK
6
CONTINUOUS
10
0.9506725196850393
20
0.2675218897637795
11
0.9427244488188976
21
0.269102874015748
0
LINE
8
BLACK
6
CONTINUOUS
10
0.9427244488188976
20
0.269102874015748
11
0.9352375196850393
21
0.2722040551181102
0
LINE
8
BLACK
6
CONTINUOUS
10
0.9352375196850393
20
0.2722040551181102
11
0.9284994881889763
21
0.2767062598425197
0
LINE
8
BLACK
6
CONTINUOUS
10
0.9284994881889763
20
0.2767062598425197
11
0.9227692519685039
21
0.2824364960629921
0
LINE
8
BLACK
6
CONTINUOUS
10
0.9227692519685039
20
0.2824364960629921
11
0.9182670472440945
21
0.2891745275590551
0
LINE
8
BLACK
6
CONTINUOUS
10
0.9182670472440945
20
0.2891745275590551
11
0.9151658661417322
21
0.2966614566929134
0
LINE
8
BLACK
6
CONTINUOUS
10
0.9151658661417322
20
0.2966614566929134
11
0.9135848818897637
21
0.3046095275590551
0
LINE
8
BLACK
6
CONTINUOUS
10
0.9135848818897637
20
0.3046095275590551
11
0.9135848818897637
21
0.3127133070866142
0
LINE
8
BLACK
6
CONTINUOUS
10
0.9135848818897637
20
0.3127133070866142
11
0.9151658661417322
21
0.3206613779527559
0
LINE
8
BLACK
6
CONTINUOUS
10
0.9151658661417322
20
0.3206613779527559
11
0.9182670472440945
21
0.3281483070866142
0
LINE
8
BLACK
6
CONTINUOUS
10
0.9182670472440945
20
0.3281483070866142
11
0.9227692519685039
21
0.3348863385826771
0
LINE
8
BLACK
6
CONTINUOUS
10
0.9227692519685039
20
0.3348863385826771
11
0.9284994881889763
21
0.3406165748031496
0
LINE
8
BLACK
6
CONTINUOUS
10
0.9284994881889763
20
0.3406165748031496
11
0.9352375196850393
21
0.345118779527559
0
LINE
8
BLACK
6
CONTINUOUS
10
0.9352375196850393
20
0.345118779527559
11
0.9427244488188976
21
0.3482199606299213
0
LINE
8
BLACK
6
CONTINUOUS
10
0.9427244488188976
20
0.3482199606299213
11
0.9506725196850393
21
0.3498009448818897
0
LINE
8
BLACK
6
CONTINUOUS
10
0.9506725196850393
20
0.3498009448818897
11
0.9587762992125984
21
0.3498009448818897
0
LINE
8
BLACK
6
CONTINUOUS
10
0.9587762992125984
20
0.3498009448818897
11
0.9667243700787401
21
0.3482199606299213
0
LINE
8
BLACK
6
CONTINUOUS
10
0.9667243700787401
20
0.4482199606299213
11
0.9742112992125984
21
0.4451187795275591
0
LINE
8
BLACK
6
CONTINUOUS
10
0.9742112992125984
20
0.4451187795275591
11
0.9809493307086614
21
0.4406165748031496
0
LINE
8
BLACK
6
CONTINUOUS
10
0.9809493307086614
20
0.4406165748031496
11
0.9866795669291338
21
0.4348863385826772
0
LINE
8
BLACK
6
CONTINUOUS
10
0.9866795669291338
20
0.4348863385826772
11
0.9911817716535433
21
0.4281483070866142
0
LINE
8
BLACK
6
CONTINUOUS
10
0.9911817716535433
20
0.4281483070866142
11
0.9942829527559055
21
0.4206613779527559
0
LINE
8
BLACK
6
CONTINUOUS
10
0.9942829527559055
20
0.4206613779527559
11
0.995863937007874
21
0.4127133070866142
0
LINE
8
BLACK
6
CONTINUOUS
10
0.995863937007874
20
0.4127133070866142
11
0.995863937007874
21
0.4046095275590551
0
LINE
8
BLACK
6
CONTINUOUS
10
0.995863937007874
20
0.4046095275590551
11
0.9942829527559055
21
0.3966614566929134
0
LINE
8
BLACK
6
CONTINUOUS
10
0.9942829527559055
20
0.3966614566929134
11
0.9911817716535433
21
0.3891745275590551
0
LINE
8
BLACK
6
CONTINUOUS
10
0.9911817716535433
20
0.3891745275590551
11
0.9866795669291338
21
0.3824364960629921
0
LINE
8
BLACK
6
CONTINUOUS
10
0.9866795669291338
20
0.3824364960629921
11
0.9809493307086614
21
0.3767062598425197
0
LINE
8
BLACK
6
CONTINUOUS
10
0.9809493307086614
20
0.3767062598425197
11
0.9742112992125984
21
0.3722040551181102
0
LINE
8
BLACK
6
CONTINUOUS
10
0.9742112992125984
20
0.3722040551181102
11
0.9667243700787401
21
0.369102874015748
0
LINE
8
BLACK
6
CONTINUOUS
10
0.9667243700787401
20
0.369102874015748
11
0.9587762992125984
21
0.3675218897637795
0
LINE
8
BLACK
6
CONTINUOUS
10
0.9587762992125984
20
0.3675218897637795
11
0.9506725196850393
21
0.3675218897637795
0
LINE
8
BLACK
6
CONTINUOUS
10
0.9506725196850393
20
0.3675218897637795
11
0.9427244488188976
21
0.369102874015748
0
LINE
8
BLACK
6
CONTINUOUS
10
0.9427244488188976
20
0.369102874015748
11
0.9352375196850393
21
0.3722040551181102
0
LINE
8
BLACK
6
CONTINUOUS
10
0.9352375196850393
20
0.3722040551181102
11
0.9284994881889763
21
0.3767062598425197
0
LINE
8
BLACK
6
CONTINUOUS
10
0.9284994881889763
20
0.3767062598425197
11
0.9227692519685039
21
0.3824364960629921
0
LINE
8
BLACK
6
CONTINUOUS
10
0.9227692519685039
20
0.3824364960629921
11
0.9182670472440945
21
0.3891745275590551
0
LINE
8
BLACK
6
CONTINUOUS
10
0.9182670472440945
20
0.3891745275590551
11
0.9151658661417322
21
0.3966614566929134
0
LINE
8
BLACK
6
CONTINUOUS
10
0.9151658661417322
20
0.3966614566929134
11
0.9135848818897637
21
0.4046095275590551
0
LINE
8
BLACK
6
CONTINUOUS
10
0.9135848818897637
20
0.4046095275590551
11
0.9135848818897637
21
0.4127133070866142
0
LINE
8
BLACK
6
CONTINUOUS
10
0.9135848818897637
20
0.4127133070866142
11
0.9151658661417322
21
0.4206613779527559
0
LINE
8
BLACK
6
CONTINUOUS
10
0.9151658661417322
20
0.4206613779527559
11
0.9182670472440945
21
0.4281483070866142
0
LINE
8
BLACK
6
CONTINUOUS
10
0.9182670472440945
20
0.4281483070866142
11
0.9227692519685039
21
0.4348863385826772
0
LINE
8
BLACK
6
CONTINUOUS
10
0.9227692519685039
20
0.4348863385826772
11
0.9284994881889763
21
0.4406165748031496
0
LINE
8
BLACK
6
CONTINUOUS
10
0.9284994881889763
20
0.4406165748031496
11
0.9352375196850393
21
0.4451187795275591
0
LINE
8
BLACK
6
CONTINUOUS
10
0.9352375196850393
20
0.4451187795275591
11
0.9427244488188976
21
0.4482199606299213
0
LINE
8
BLACK
6
CONTINUOUS
10
0.9427244488188976
20
0.4482199606299213
11
0.9506725196850393
21
0.4498009448818898
0
LINE
8
BLACK
6
CONTINUOUS
10
0.9506725196850393
20
0.4498009448818898
11
0.9587762992125984
21
0.4498009448818898
0
LINE
8
BLACK
6
CONTINUOUS
10
0.9587762992125984
20
0.4498009448818898
11
0.9667243700787401
21
0.4482199606299213
0
LINE
8
BLACK
6
CONTINUOUS
10
-0.2427692913385827
20
0.5006753937007874
11
-0.2377846062992126
21
0.4989311811023622
0
LINE
8
BLACK
6
CONTINUOUS
10
-0.2377846062992126
20
0.4989311811023622
11
-0.2335355118110236
21
0.4957951968503937
0
LINE
8
BLACK
6
CONTINUOUS
10
-0.2335355118110236
20
0.4957951968503937
11
-0.2303995275590551
21
0.4915461023622047
0
LINE
8
BLACK
6
CONTINUOUS
10
-0.2303995275590551
20
0.4915461023622047
11
-0.2286553149606299
21
0.4865614173228346
0
LINE
8
BLACK
6
CONTINUOUS
10
-0.2286553149606299
20
0.4865614173228346
11
-0.2283464566929134
21
0.483267716535433
0
LINE
8
BLACK
6
CONTINUOUS
10
-0.2283464566929134
20
0.483267716535433
11
-0.2283464566929134
21
0.4635826771653543
0
LINE
8
BLACK
6
CONTINUOUS
10
-0.2283464566929134
20
0.4635826771653543
11
-0.2286553149606299
21
0.4602889763779527
0
LINE
8
BLACK
6
CONTINUOUS
10
-0.2286553149606299
20
0.4602889763779527
11
-0.2303995275590551
21
0.4553042913385827
0
LINE
8
BLACK
6
CONTINUOUS
10
-0.2303995275590551
20
0.4553042913385827
11
-0.2335355118110236
21
0.4510551968503937
0
LINE
8
BLACK
6
CONTINUOUS
10
-0.2335355118110236
20
0.4510551968503937
11
-0.2377846062992126
21
0.4479192125984252
0
LINE
8
BLACK
6
CONTINUOUS
10
-0.2377846062992126
20
0.4479192125984252
11
-0.2427692913385827
21
0.446175
0
LINE
8
BLACK
6
CONTINUOUS
10
-0.2427692913385827
20
0.446175
11
-0.2460629921259843
21
0.4458661417322834
0
LINE
8
BLACK
6
CONTINUOUS
10
-0.2460629921259843
20
0.4458661417322834
11
-0.3326771653543307
21
0.4458661417322834
0
LINE
8
BLACK
6
CONTINUOUS
10
-0.3326771653543307
20
0.4458661417322834
11
-0.3359708661417323
21
0.446175
0
LINE
8
BLACK
6
CONTINUOUS
10
-0.3359708661417323
20
0.446175
11
-0.3409555511811024
21
0.4479192125984252
0
LINE
8
BLACK
6
CONTINUOUS
10
-0.3409555511811024
20
0.4479192125984252
11
-0.3452046456692913
21
0.4510551968503937
0
LINE
8
BLACK
6
CONTINUOUS
10
-0.3452046456692913
20
0.4510551968503937
11
-0.3483406299212599
21
0.4553042913385827
0
LINE
8
BLACK
6
CONTINUOUS
10
-0.3483406299212599
20
0.4553042913385827
11
-0.350084842519685
21
0.4602889763779527
0
LINE
8
BLACK
6
CONTINUOUS
10
-0.350084842519685
20
0.4602889763779527
11
-0.3503937007874016
21
0.4635826771653543
0
LINE
8
BLACK
6
CONTINUOUS
10
-0.3503937007874016
20
0.4635826771653543
11
-0.3503937007874016
21
0.483267716535433
0
LINE
8
BLACK
6
CONTINUOUS
10
-0.3503937007874016
20
0.483267716535433
11
-0.350084842519685
21
0.4865614173228346
0
LINE
8
BLACK
6
CONTINUOUS
10
-0.350084842519685
20
0.4865614173228346
11
-0.3483406299212599
21
0.4915461023622047
0
LINE
8
BLACK
6
CONTINUOUS
10
-0.3483406299212599
20
0.4915461023622047
11
-0.3452046456692913
21
0.4957951968503937
0
LINE
8
BLACK
6
CONTINUOUS
10
-0.3452046456692913
20
0.4957951968503937
11
-0.3409555511811024
21
0.4989311811023622
0
LINE
8
BLACK
6
CONTINUOUS
10
-0.3409555511811024
20
0.4989311811023622
11
-0.3359708661417323
21
0.5006753937007874
0
LINE
8
BLACK
6
CONTINUOUS
10
-0.3359708661417323
20
0.5006753937007874
11
-0.3326771653543307
21
0.5009842519685039
0
LINE
8
BLACK
6
CONTINUOUS
10
-0.3326771653543307
20
0.5009842519685039
11
-0.2460629921259843
21
0.5009842519685039
0
LINE
8
BLACK
6
CONTINUOUS
10
-0.2460629921259843
20
0.5009842519685039
11
-0.2427692913385827
21
0.5006753937007874
0
LINE
8
BLACK
6
CONTINUOUS
10
0.9667243700787401
20
0.5482199606299213
11
0.9742112992125984
21
0.545118779527559
0
LINE
8
BLACK
6
CONTINUOUS
10
0.9742112992125984
20
0.545118779527559
11
0.9809493307086614
21
0.5406165748031496
0
LINE
8
BLACK
6
CONTINUOUS
10
0.9809493307086614
20
0.5406165748031496
11
0.9866795669291338
21
0.5348863385826772
0
LINE
8
BLACK
6
CONTINUOUS
10
0.9866795669291338
20
0.5348863385826772
11
0.9911817716535433
21
0.5281483070866142
0
LINE
8
BLACK
6
CONTINUOUS
10
0.9911817716535433
20
0.5281483070866142
11
0.9942829527559055
21
0.5206613779527559
0
LINE
8
BLACK
6
CONTINUOUS
10
0.9942829527559055
20
0.5206613779527559
11
0.995863937007874
21
0.5127133070866141
0
LINE
8
BLACK
6
CONTINUOUS
10
0.995863937007874
20
0.5127133070866141
11
0.995863937007874
21
0.5046095275590551
0
LINE
8
BLACK
6
CONTINUOUS
10
0.995863937007874
20
0.5046095275590551
11
0.9942829527559055
21
0.4966614566929134
0
LINE
8
BLACK
6
CONTINUOUS
10
0.9942829527559055
20
0.4966614566929134
11
0.9911817716535433
21
0.4891745275590551
0
LINE
8
BLACK
6
CONTINUOUS
10
0.9911817716535433
20
0.4891745275590551
11
0.9866795669291338
21
0.4824364960629921
0
LINE
8
BLACK
6
CONTINUOUS
10
0.9866795669291338
20
0.4824364960629921
11
0.9809493307086614
21
0.4767062598425197
0
LINE
8
BLACK
6
CONTINUOUS
10
0.9809493307086614
20
0.4767062598425197
11
0.9742112992125984
21
0.4722040551181102
0
LINE
8
BLACK
6
CONTINUOUS
10
0.9742112992125984
20
0.4722040551181102
11
0.9667243700787401
21
0.469102874015748
0
LINE
8
BLACK
6
CONTINUOUS
10
0.9667243700787401
20
0.469102874015748
11
0.9587762992125984
21
0.4675218897637795
0
LINE
8
BLACK
6
CONTINUOUS
10
0.9587762992125984
20
0.4675218897637795
11
0.9506725196850393
21
0.4675218897637795
0
LINE
8
BLACK
6
CONTINUOUS
10
0.9506725196850393
20
0.4675218897637795
11
0.9427244488188976
21
0.469102874015748
0
LINE
8
BLACK
6
CONTINUOUS
10
0.9427244488188976
20
0.469102874015748
11
0.9352375196850393
21
0.4722040551181102
0
LINE
8
BLACK
6
CONTINUOUS
10
0.9352375196850393
20
0.4722040551181102
11
0.9284994881889763
21
0.4767062598425197
0
LINE
8
BLACK
6
CONTINUOUS
10
0.9284994881889763
20
0.4767062598425197
11
0.9227692519685039
21
0.4824364960629921
0
LINE
8
BLACK
6
CONTINUOUS
10
0.9227692519685039
20
0.4824364960629921
11
0.9182670472440945
21
0.4891745275590551
0
LINE
8
BLACK
6
CONTINUOUS
10
0.9182670472440945
20
0.4891745275590551
11
0.9151658661417322
21
0.4966614566929134
0
LINE
8
BLACK
6
CONTINUOUS
10
0.9151658661417322
20
0.4966614566929134
11
0.9135848818897637
21
0.5046095275590551
0
LINE
8
BLACK
6
CONTINUOUS
10
0.9135848818897637
20
0.5046095275590551
11
0.9135848818897637
21
0.5127133070866141
0
LINE
8
BLACK
6
CONTINUOUS
10
0.9135848818897637
20
0.5127133070866141
11
0.9151658661417322
21
0.5206613779527559
0
LINE
8
BLACK
6
CONTINUOUS
10
0.9151658661417322
20
0.5206613779527559
11
0.9182670472440945
21
0.5281483070866142
0
LINE
8
BLACK
6
CONTINUOUS
10
0.9182670472440945
20
0.5281483070866142
11
0.9227692519685039
21
0.5348863385826772
0
LINE
8
BLACK
6
CONTINUOUS
10
0.9227692519685039
20
0.5348863385826772
11
0.9284994881889763
21
0.5406165748031496
0
LINE
8
BLACK
6
CONTINUOUS
10
0.9284994881889763
20
0.5406165748031496
11
0.9352375196850393
21
0.545118779527559
0
LINE
8
BLACK
6
CONTINUOUS
10
0.9352375196850393
20
0.545118779527559
11
0.9427244488188976
21
0.5482199606299213
0
LINE
8
BLACK
6
CONTINUOUS
10
0.9427244488188976
20
0.5482199606299213
11
0.9506725196850393
21
0.5498009448818898
0
LINE
8
BLACK
6
CONTINUOUS
10
0.9506725196850393
20
0.5498009448818898
11
0.9587762992125984
21
0.5498009448818898
0
LINE
8
BLACK
6
CONTINUOUS
10
0.9587762992125984
20
0.5498009448818898
11
0.9667243700787401
21
0.5482199606299213
0
LINE
8
BLACK
6
CONTINUOUS
10
-0.1318949606299213
20
0.5653720472440945
11
-0.1278198031496063
21
0.5633798031496063
0
LINE
8
BLACK
6
CONTINUOUS
10
-0.1278198031496063
20
0.5633798031496063
11
-0.1246123228346457
21
0.5601723228346457
0
LINE
8
BLACK
6
CONTINUOUS
10
-0.1246123228346457
20
0.5601723228346457
11
-0.1226200787401575
21
0.5560971653543307
0
LINE
8
BLACK
6
CONTINUOUS
10
-0.1226200787401575
20
0.5560971653543307
11
-0.1220472440944882
21
0.5521653543307087
0
LINE
8
BLACK
6
CONTINUOUS
10
-0.1220472440944882
20
0.5521653543307087
11
-0.1220472440944882
21
0.5403543307086615
0
LINE
8
BLACK
6
CONTINUOUS
10
-0.1220472440944882
20
0.5403543307086615
11
-0.1226200787401575
21
0.5364225196850394
0
LINE
8
BLACK
6
CONTINUOUS
10
-0.1226200787401575
20
0.5364225196850394
11
-0.1246123228346457
21
0.5323473622047245
0
LINE
8
BLACK
6
CONTINUOUS
10
-0.1246123228346457
20
0.5323473622047245
11
-0.1278198031496063
21
0.5291398818897638
0
LINE
8
BLACK
6
CONTINUOUS
10
-0.1278198031496063
20
0.5291398818897638
11
-0.1318949606299213
21
0.5271476377952756
0
LINE
8
BLACK
6
CONTINUOUS
10
-0.1318949606299213
20
0.5271476377952756
11
-0.1358267716535433
21
0.5265748031496063
0
LINE
8
BLACK
6
CONTINUOUS
10
-0.1358267716535433
20
0.5265748031496063
11
-0.1909448818897638
21
0.5265748031496063
0
LINE
8
BLACK
6
CONTINUOUS
10
-0.1909448818897638
20
0.5265748031496063
11
-0.1948766929133858
21
0.5271476377952756
0
LINE
8
BLACK
6
CONTINUOUS
10
-0.1948766929133858
20
0.5271476377952756
11
-0.1989518503937008
21
0.5291398818897638
0
LINE
8
BLACK
6
CONTINUOUS
10
-0.1989518503937008
20
0.5291398818897638
11
-0.2021593307086614
21
0.5323473622047245
0
LINE
8
BLACK
6
CONTINUOUS
10
-0.2021593307086614
20
0.5323473622047245
11
-0.2041515748031496
21
0.5364225196850394
0
LINE
8
BLACK
6
CONTINUOUS
10
-0.2041515748031496
20
0.5364225196850394
11
-0.2047244094488189
21
0.5403543307086615
0
LINE
8
BLACK
6
CONTINUOUS
10
-0.2047244094488189
20
0.5403543307086615
11
-0.2047244094488189
21
0.5521653543307087
0
LINE
8
BLACK
6
CONTINUOUS
10
-0.2047244094488189
20
0.5521653543307087
11
-0.2041515748031496
21
0.5560971653543307
0
LINE
8
BLACK
6
CONTINUOUS
10
-0.2041515748031496
20
0.5560971653543307
11
-0.2021593307086614
21
0.5601723228346457
0
LINE
8
BLACK
6
CONTINUOUS
10
-0.2021593307086614
20
0.5601723228346457
11
-0.1989518503937008
21
0.5633798031496063
0
LINE
8
BLACK
6
CONTINUOUS
10
-0.1989518503937008
20
0.5633798031496063
11
-0.1948766929133858
21
0.5653720472440945
0
LINE
8
BLACK
6
CONTINUOUS
10
-0.1948766929133858
20
0.5653720472440945
11
-0.1909448818897638
21
0.5659448818897638
0
LINE
8
BLACK
6
CONTINUOUS
10
-0.1909448818897638
20
0.5659448818897638
11
-0.1358267716535433
21
0.5659448818897638
0
LINE
8
BLACK
6
CONTINUOUS
10
-0.1358267716535433
20
0.5659448818897638
11
-0.1318949606299213
21
0.5653720472440945
0
LINE
8
BLACK
6
CONTINUOUS
10
0.9667243700787401
20
0.6482199606299213
11
0.9742112992125984
21
0.645118779527559
0
LINE
8
BLACK
6
CONTINUOUS
10
0.9742112992125984
20
0.645118779527559
11
0.9809493307086614
21
0.6406165748031496
0
LINE
8
BLACK
6
CONTINUOUS
10
0.9809493307086614
20
0.6406165748031496
11
0.9866795669291338
21
0.6348863385826772
0
LINE
8
BLACK
6
CONTINUOUS
10
0.9866795669291338
20
0.6348863385826772
11
0.9911817716535433
21
0.6281483070866142
0
LINE
8
BLACK
6
CONTINUOUS
10
0.9911817716535433
20
0.6281483070866142
11
0.9942829527559055
21
0.6206613779527559
0
LINE
8
BLACK
6
CONTINUOUS
10
0.9942829527559055
20
0.6206613779527559
11
0.995863937007874
21
0.6127133070866142
0
LINE
8
BLACK
6
CONTINUOUS
10
0.995863937007874
20
0.6127133070866142
11
0.995863937007874
21
0.6046095275590551
0
LINE
8
BLACK
6
CONTINUOUS
10
0.995863937007874
20
0.6046095275590551
11
0.9942829527559055
21
0.5966614566929134
0
LINE
8
BLACK
6
CONTINUOUS
10
0.9942829527559055
20
0.5966614566929134
11
0.9911817716535433
21
0.5891745275590551
0
LINE
8
BLACK
6
CONTINUOUS
10
0.9911817716535433
20
0.5891745275590551
11
0.9866795669291338
21
0.5824364960629921
0
LINE
8
BLACK
6
CONTINUOUS
10
0.9866795669291338
20
0.5824364960629921
11
0.9809493307086614
21
0.5767062598425197
0
LINE
8
BLACK
6
CONTINUOUS
10
0.9809493307086614
20
0.5767062598425197
11
0.9742112992125984
21
0.5722040551181102
0
LINE
8
BLACK
6
CONTINUOUS
10
0.9742112992125984
20
0.5722040551181102
11
0.9667243700787401
21
0.569102874015748
0
LINE
8
BLACK
6
CONTINUOUS
10
0.9667243700787401
20
0.569102874015748
11
0.9587762992125984
21
0.5675218897637795
0
LINE
8
BLACK
6
CONTINUOUS
10
0.9587762992125984
20
0.5675218897637795
11
0.9506725196850393
21
0.5675218897637795
0
LINE
8
BLACK
6
CONTINUOUS
10
0.9506725196850393
20
0.5675218897637795
11
0.9427244488188976
21
0.569102874015748
0
LINE
8
BLACK
6
CONTINUOUS
10
0.9427244488188976
20
0.569102874015748
11
0.9352375196850393
21
0.5722040551181102
0
LINE
8
BLACK
6
CONTINUOUS
10
0.9352375196850393
20
0.5722040551181102
11
0.9284994881889763
21
0.5767062598425197
0
LINE
8
BLACK
6
CONTINUOUS
10
0.9284994881889763
20
0.5767062598425197
11
0.9227692519685039
21
0.5824364960629921
0
LINE
8
BLACK
6
CONTINUOUS
10
0.9227692519685039
20
0.5824364960629921
11
0.9182670472440945
21
0.5891745275590551
0
LINE
8
BLACK
6
CONTINUOUS
10
0.9182670472440945
20
0.5891745275590551
11
0.9151658661417322
21
0.5966614566929134
0
LINE
8
BLACK
6
CONTINUOUS
10
0.9151658661417322
20
0.5966614566929134
11
0.9135848818897637
21
0.6046095275590551
0
LINE
8
BLACK
6
CONTINUOUS
10
0.9135848818897637
20
0.6046095275590551
11
0.9135848818897637
21
0.6127133070866142
0
LINE
8
BLACK
6
CONTINUOUS
10
0.9135848818897637
20
0.6127133070866142
11
0.9151658661417322
21
0.6206613779527559
0
LINE
8
BLACK
6
CONTINUOUS
10
0.9151658661417322
20
0.6206613779527559
11
0.9182670472440945
21
0.6281483070866142
0
LINE
8
BLACK
6
CONTINUOUS
10
0.9182670472440945
20
0.6281483070866142
11
0.9227692519685039
21
0.6348863385826772
0
LINE
8
BLACK
6
CONTINUOUS
10
0.9227692519685039
20
0.6348863385826772
11
0.9284994881889763
21
0.6406165748031496
0
LINE
8
BLACK
6
CONTINUOUS
10
0.9284994881889763
20
0.6406165748031496
11
0.9352375196850393
21
0.645118779527559
0
LINE
8
BLACK
6
CONTINUOUS
10
0.9352375196850393
20
0.645118779527559
11
0.9427244488188976
21
0.6482199606299213
0
LINE
8
BLACK
6
CONTINUOUS
10
0.9427244488188976
20
0.6482199606299213
11
0.9506725196850393
21
0.6498009448818898
0
LINE
8
BLACK
6
CONTINUOUS
10
0.9506725196850393
20
0.6498009448818898
11
0.9587762992125984
21
0.6498009448818898
0
LINE
8
BLACK
6
CONTINUOUS
10
0.9587762992125984
20
0.6498009448818898
11
0.9667243700787401
21
0.6482199606299213
0
LINE
8
BLACK
6
CONTINUOUS
10
-0.1318949606299213
20
0.6145846456692913
11
-0.1278198031496063
21
0.6125924015748031
0
LINE
8
BLACK
6
CONTINUOUS
10
-0.1278198031496063
20
0.6125924015748031
11
-0.1246123228346457
21
0.6093849212598426
0
LINE
8
BLACK
6
CONTINUOUS
10
-0.1246123228346457
20
0.6093849212598426
11
-0.1226200787401575
21
0.6053097637795275
0
LINE
8
BLACK
6
CONTINUOUS
10
-0.1226200787401575
20
0.6053097637795275
11
-0.1220472440944882
21
0.6013779527559054
0
LINE
8
BLACK
6
CONTINUOUS
10
-0.1220472440944882
20
0.6013779527559054
11
-0.1220472440944882
21
0.5895669291338582
0
LINE
8
BLACK
6
CONTINUOUS
10
-0.1220472440944882
20
0.5895669291338582
11
-0.1226200787401575
21
0.5856351181102362
0
LINE
8
BLACK
6
CONTINUOUS
10
-0.1226200787401575
20
0.5856351181102362
11
-0.1246123228346457
21
0.5815599606299212
0
LINE
8
BLACK
6
CONTINUOUS
10
-0.1246123228346457
20
0.5815599606299212
11
-0.1278198031496063
21
0.5783524803149607
0
LINE
8
BLACK
6
CONTINUOUS
10
-0.1278198031496063
20
0.5783524803149607
11
-0.1318949606299213
21
0.5763602362204724
0
LINE
8
BLACK
6
CONTINUOUS
10
-0.1318949606299213
20
0.5763602362204724
11
-0.1358267716535433
21
0.5757874015748031
0
LINE
8
BLACK
6
CONTINUOUS
10
-0.1358267716535433
20
0.5757874015748031
11
-0.1909448818897638
21
0.5757874015748031
0
LINE
8
BLACK
6
CONTINUOUS
10
-0.1909448818897638
20
0.5757874015748031
11
-0.1948766929133858
21
0.5763602362204724
0
LINE
8
BLACK
6
CONTINUOUS
10
-0.1948766929133858
20
0.5763602362204724
11
-0.1989518503937008
21
0.5783524803149607
0
LINE
8
BLACK
6
CONTINUOUS
10
-0.1989518503937008
20
0.5783524803149607
11
-0.2021593307086614
21
0.5815599606299212
0
LINE
8
BLACK
6
CONTINUOUS
10
-0.2021593307086614
20
0.5815599606299212
11
-0.2041515748031496
21
0.5856351181102362
0
LINE
8
BLACK
6
CONTINUOUS
10
-0.2041515748031496
20
0.5856351181102362
11
-0.2047244094488189
21
0.5895669291338582
0
LINE
8
BLACK
6
CONTINUOUS
10
-0.2047244094488189
20
0.5895669291338582
11
-0.2047244094488189
21
0.6013779527559054
0
LINE
8
BLACK
6
CONTINUOUS
10
-0.2047244094488189
20
0.6013779527559054
11
-0.2041515748031496
21
0.6053097637795275
0
LINE
8
BLACK
6
CONTINUOUS
10
-0.2041515748031496
20
0.6053097637795275
11
-0.2021593307086614
21
0.6093849212598426
0
LINE
8
BLACK
6
CONTINUOUS
10
-0.2021593307086614
20
0.6093849212598426
11
-0.1989518503937008
21
0.6125924015748031
0
LINE
8
BLACK
6
CONTINUOUS
10
-0.1989518503937008
20
0.6125924015748031
11
-0.1948766929133858
21
0.6145846456692913
0
LINE
8
BLACK
6
CONTINUOUS
10
-0.1948766929133858
20
0.6145846456692913
11
-0.1909448818897638
21
0.6151574803149606
0
LINE
8
BLACK
6
CONTINUOUS
10
-0.1909448818897638
20
0.6151574803149606
11
-0.1358267716535433
21
0.6151574803149606
0
LINE
8
BLACK
6
CONTINUOUS
10
-0.1358267716535433
20
0.6151574803149606
11
-0.1318949606299213
21
0.6145846456692913
0
LINE
8
BLACK
6
CONTINUOUS
10
-0.5006433070866142
20
0.663076968503937
11
-0.4956586220472441
21
0.6613327559055118
0
LINE
8
BLACK
6
CONTINUOUS
10
-0.4956586220472441
20
0.6613327559055118
11
-0.4914095275590551
21
0.6581967716535433
0
LINE
8
BLACK
6
CONTINUOUS
10
-0.4914095275590551
20
0.6581967716535433
11
-0.4882735433070866
21
0.6539476771653543
0
LINE
8
BLACK
6
CONTINUOUS
10
-0.4882735433070866
20
0.6539476771653543
11
-0.4865293307086614
21
0.6489629921259842
0
LINE
8
BLACK
6
CONTINUOUS
10
-0.4865293307086614
20
0.6489629921259842
11
-0.4862204724409449
21
0.6456692913385826
0
LINE
8
BLACK
6
CONTINUOUS
10
-0.4862204724409449
20
0.6456692913385826
11
-0.4862204724409449
21
0.5944881889763779
0
LINE
8
BLACK
6
CONTINUOUS
10
-0.4862204724409449
20
0.5944881889763779
11
-0.4865293307086614
21
0.5911944881889764
0
LINE
8
BLACK
6
CONTINUOUS
10
-0.4865293307086614
20
0.5911944881889764
11
-0.4882735433070866
21
0.5862098031496062
0
LINE
8
BLACK
6
CONTINUOUS
10
-0.4882735433070866
20
0.5862098031496062
11
-0.4914095275590551
21
0.5819607086614174
0
LINE
8
BLACK
6
CONTINUOUS
10
-0.4914095275590551
20
0.5819607086614174
11
-0.4956586220472441
21
0.5788247244094488
0
LINE
8
BLACK
6
CONTINUOUS
10
-0.4956586220472441
20
0.5788247244094488
11
-0.5006433070866142
21
0.5770805118110236
0
LINE
8
BLACK
6
CONTINUOUS
10
-0.5006433070866142
20
0.5770805118110236
11
-0.5039370078740157
21
0.5767716535433071
0
LINE
8
BLACK
6
CONTINUOUS
10
-0.5039370078740157
20
0.5767716535433071
11
-0.6181102362204725
21
0.5767716535433071
0
LINE
8
BLACK
6
CONTINUOUS
10
-0.6181102362204725
20
0.5767716535433071
11
-0.621403937007874
21
0.5770805118110236
0
LINE
8
BLACK
6
CONTINUOUS
10
-0.621403937007874
20
0.5770805118110236
11
-0.6263886220472441
21
0.5788247244094488
0
LINE
8
BLACK
6
CONTINUOUS
10
-0.6263886220472441
20
0.5788247244094488
11
-0.6306377165354331
21
0.5819607086614174
0
LINE
8
BLACK
6
CONTINUOUS
10
-0.6306377165354331
20
0.5819607086614174
11
-0.6337737007874016
21
0.5862098031496062
0
LINE
8
BLACK
6
CONTINUOUS
10
-0.6337737007874016
20
0.5862098031496062
11
-0.6355179133858267
21
0.5911944881889764
0
LINE
8
BLACK
6
CONTINUOUS
10
-0.6355179133858267
20
0.5911944881889764
11
-0.6358267716535433
21
0.5944881889763779
0
LINE
8
BLACK
6
CONTINUOUS
10
-0.6358267716535433
20
0.5944881889763779
11
-0.6358267716535433
21
0.6456692913385826
0
LINE
8
BLACK
6
CONTINUOUS
10
-0.6358267716535433
20
0.6456692913385826
11
-0.6355179133858267
21
0.6489629921259842
0
LINE
8
BLACK
6
CONTINUOUS
10
-0.6355179133858267
20
0.6489629921259842
11
-0.6337737007874016
21
0.6539476771653543
0
LINE
8
BLACK
6
CONTINUOUS
10
-0.6337737007874016
20
0.6539476771653543
11
-0.6306377165354331
21
0.6581967716535433
0
LINE
8
BLACK
6
CONTINUOUS
10
-0.6306377165354331
20
0.6581967716535433
11
-0.6263886220472441
21
0.6613327559055118
0
LINE
8
BLACK
6
CONTINUOUS
10
-0.6263886220472441
20
0.6613327559055118
11
-0.621403937007874
21
0.663076968503937
0
LINE
8
BLACK
6
CONTINUOUS
10
-0.621403937007874
20
0.663076968503937
11
-0.6181102362204725
21
0.6633858267716535
0
LINE
8
BLACK
6
CONTINUOUS
10
-0.6181102362204725
20
0.6633858267716535
11
-0.5039370078740157
21
0.6633858267716535
0
LINE
8
BLACK
6
CONTINUOUS
10
-0.5039370078740157
20
0.6633858267716535
11
-0.5006433070866142
21
0.663076968503937
0
LINE
8
BLACK
6
CONTINUOUS
10
-0.1318949606299213
20
0.6637972440944881
11
-0.1278198031496063
21
0.661805
0
LINE
8
BLACK
6
CONTINUOUS
10
-0.1278198031496063
20
0.661805
11
-0.1246123228346457
21
0.6585975196850393
0
LINE
8
BLACK
6
CONTINUOUS
10
-0.1246123228346457
20
0.6585975196850393
11
-0.1226200787401575
21
0.6545223622047244
0
LINE
8
BLACK
6
CONTINUOUS
10
-0.1226200787401575
20
0.6545223622047244
11
-0.1220472440944882
21
0.6505905511811023
0
LINE
8
BLACK
6
CONTINUOUS
10
-0.1220472440944882
20
0.6505905511811023
11
-0.1220472440944882
21
0.6387795275590551
0
LINE
8
BLACK
6
CONTINUOUS
10
-0.1220472440944882
20
0.6387795275590551
11
-0.1226200787401575
21
0.634847716535433
0
LINE
8
BLACK
6
CONTINUOUS
10
-0.1226200787401575
20
0.634847716535433
11
-0.1246123228346457
21
0.6307725590551181
0
LINE
8
BLACK
6
CONTINUOUS
10
-0.1246123228346457
20
0.6307725590551181
11
-0.1278198031496063
21
0.6275650787401574
0
LINE
8
BLACK
6
CONTINUOUS
10
-0.1278198031496063
20
0.6275650787401574
11
-0.1318949606299213
21
0.6255728346456693
0
LINE
8
BLACK
6
CONTINUOUS
10
-0.1318949606299213
20
0.6255728346456693
11
-0.1358267716535433
21
0.625
0
LINE
8
BLACK
6
CONTINUOUS
10
-0.1358267716535433
20
0.625
11
-0.1909448818897638
21
0.625
0
LINE
8
BLACK
6
CONTINUOUS
10
-0.1909448818897638
20
0.625
11
-0.1948766929133858
21
0.6255728346456693
0
LINE
8
BLACK
6
CONTINUOUS
10
-0.1948766929133858
20
0.6255728346456693
11
-0.1989518503937008
21
0.6275650787401574
0
LINE
8
BLACK
6
CONTINUOUS
10
-0.1989518503937008
20
0.6275650787401574
11
-0.2021593307086614
21
0.6307725590551181
0
LINE
8
BLACK
6
CONTINUOUS
10
-0.2021593307086614
20
0.6307725590551181
11
-0.2041515748031496
21
0.634847716535433
0
LINE
8
BLACK
6
CONTINUOUS
10
-0.2041515748031496
20
0.634847716535433
11
-0.2047244094488189
21
0.6387795275590551
0
LINE
8
BLACK
6
CONTINUOUS
10
-0.2047244094488189
20
0.6387795275590551
11
-0.2047244094488189
21
0.6505905511811023
0
LINE
8
BLACK
6
CONTINUOUS
10
-0.2047244094488189
20
0.6505905511811023
11
-0.2041515748031496
21
0.6545223622047244
0
LINE
8
BLACK
6
CONTINUOUS
10
-0.2041515748031496
20
0.6545223622047244
11
-0.2021593307086614
21
0.6585975196850393
0
LINE
8
BLACK
6
CONTINUOUS
10
-0.2021593307086614
20
0.6585975196850393
11
-0.1989518503937008
21
0.661805
0
LINE
8
BLACK
6
CONTINUOUS
10
-0.1989518503937008
20
0.661805
11
-0.1948766929133858
21
0.6637972440944881
0
LINE
8
BLACK
6
CONTINUOUS
10
-0.1948766929133858
20
0.6637972440944881
11
-0.1909448818897638
21
0.6643700787401574
0
LINE
8
BLACK
6
CONTINUOUS
10
-0.1909448818897638
20
0.6643700787401574
11
-0.1358267716535433
21
0.6643700787401574
0
LINE
8
BLACK
6
CONTINUOUS
10
-0.1358267716535433
20
0.6643700787401574
11
-0.1318949606299213
21
0.6637972440944881
0
LINE
8
BLACK
6
CONTINUOUS
10
0.9912022440944882
20
0.7494006299212598
11
0.9937567322834645
21
0.7476937401574802
0
LINE
8
BLACK
6
CONTINUOUS
10
0.9937567322834645
20
0.7476937401574802
11
0.995463622047244
21
0.7451392519685039
0
LINE
8
BLACK
6
CONTINUOUS
10
0.995463622047244
20
0.7451392519685039
11
0.9960629921259843
21
0.7421259842519685
0
LINE
8
BLACK
6
CONTINUOUS
10
0.9960629921259843
20
0.7421259842519685
11
0.9960629921259843
21
0.6751968503937008
0
LINE
8
BLACK
6
CONTINUOUS
10
0.9960629921259843
20
0.6751968503937008
11
0.995463622047244
21
0.6721835826771654
0
LINE
8
BLACK
6
CONTINUOUS
10
0.995463622047244
20
0.6721835826771654
11
0.9937567322834645
21
0.669629094488189
0
LINE
8
BLACK
6
CONTINUOUS
10
0.9937567322834645
20
0.669629094488189
11
0.9912022440944882
21
0.6679222047244094
0
LINE
8
BLACK
6
CONTINUOUS
10
0.9912022440944882
20
0.6679222047244094
11
0.9881889763779528
21
0.6673228346456693
0
LINE
8
BLACK
6
CONTINUOUS
10
0.9881889763779528
20
0.6673228346456693
11
0.9212598425196851
21
0.6673228346456693
0
LINE
8
BLACK
6
CONTINUOUS
10
0.9212598425196851
20
0.6673228346456693
11
0.9182465748031496
21
0.6679222047244094
0
LINE
8
BLACK
6
CONTINUOUS
10
0.9182465748031496
20
0.6679222047244094
11
0.9156920866141732
21
0.669629094488189
0
LINE
8
BLACK
6
CONTINUOUS
10
0.9156920866141732
20
0.669629094488189
11
0.9139851968503937
21
0.6721835826771654
0
LINE
8
BLACK
6
CONTINUOUS
10
0.9139851968503937
20
0.6721835826771654
11
0.9133858267716535
21
0.6751968503937008
0
LINE
8
BLACK
6
CONTINUOUS
10
0.9133858267716535
20
0.6751968503937008
11
0.9133858267716535
21
0.7421259842519685
0
LINE
8
BLACK
6
CONTINUOUS
10
0.9133858267716535
20
0.7421259842519685
11
0.9139851968503937
21
0.7451392519685039
0
LINE
8
BLACK
6
CONTINUOUS
10
0.9139851968503937
20
0.7451392519685039
11
0.9156920866141732
21
0.7476937401574802
0
LINE
8
BLACK
6
CONTINUOUS
10
0.9156920866141732
20
0.7476937401574802
11
0.9182465748031496
21
0.7494006299212598
0
LINE
8
BLACK
6
CONTINUOUS
10
0.9182465748031496
20
0.7494006299212598
11
0.9212598425196851
21
0.75
0
LINE
8
BLACK
6
CONTINUOUS
10
0.9212598425196851
20
0.75
11
0.9881889763779528
21
0.75
0
LINE
8
BLACK
6
CONTINUOUS
10
0.9881889763779528
20
0.75
11
0.9912022440944882
21
0.7494006299212598
0
LINE
8
BLACK
6
CONTINUOUS
10
-0.1318949606299213
20
0.713009842519685
11
-0.1278198031496063
21
0.7110175984251969
0
LINE
8
BLACK
6
CONTINUOUS
10
-0.1278198031496063
20
0.7110175984251969
11
-0.1246123228346457
21
0.7078101181102362
0
LINE
8
BLACK
6
CONTINUOUS
10
-0.1246123228346457
20
0.7078101181102362
11
-0.1226200787401575
21
0.7037349606299212
0
LINE
8
BLACK
6
CONTINUOUS
10
-0.1226200787401575
20
0.7037349606299212
11
-0.1220472440944882
21
0.6998031496062992
0
LINE
8
BLACK
6
CONTINUOUS
10
-0.1220472440944882
20
0.6998031496062992
11
-0.1220472440944882
21
0.687992125984252
0
LINE
8
BLACK
6
CONTINUOUS
10
-0.1220472440944882
20
0.687992125984252
11
-0.1226200787401575
21
0.6840603149606299
0
LINE
8
BLACK
6
CONTINUOUS
10
-0.1226200787401575
20
0.6840603149606299
11
-0.1246123228346457
21
0.679985157480315
0
LINE
8
BLACK
6
CONTINUOUS
10
-0.1246123228346457
20
0.679985157480315
11
-0.1278198031496063
21
0.6767776771653543
0
LINE
8
BLACK
6
CONTINUOUS
10
-0.1278198031496063
20
0.6767776771653543
11
-0.1318949606299213
21
0.6747854330708661
0
LINE
8
BLACK
6
CONTINUOUS
10
-0.1318949606299213
20
0.6747854330708661
11
-0.1358267716535433
21
0.6742125984251969
0
LINE
8
BLACK
6
CONTINUOUS
10
-0.1358267716535433
20
0.6742125984251969
11
-0.1909448818897638
21
0.6742125984251969
0
LINE
8
BLACK
6
CONTINUOUS
10
-0.1909448818897638
20
0.6742125984251969
11
-0.1948766929133858
21
0.6747854330708661
0
LINE
8
BLACK
6
CONTINUOUS
10
-0.1948766929133858
20
0.6747854330708661
11
-0.1989518503937008
21
0.6767776771653543
0
LINE
8
BLACK
6
CONTINUOUS
10
-0.1989518503937008
20
0.6767776771653543
11
-0.2021593307086614
21
0.679985157480315
0
LINE
8
BLACK
6
CONTINUOUS
10
-0.2021593307086614
20
0.679985157480315
11
-0.2041515748031496
21
0.6840603149606299
0
LINE
8
BLACK
6
CONTINUOUS
10
-0.2041515748031496
20
0.6840603149606299
11
-0.2047244094488189
21
0.687992125984252
0
LINE
8
BLACK
6
CONTINUOUS
10
-0.2047244094488189
20
0.687992125984252
11
-0.2047244094488189
21
0.6998031496062992
0
LINE
8
BLACK
6
CONTINUOUS
10
-0.2047244094488189
20
0.6998031496062992
11
-0.2041515748031496
21
0.7037349606299212
0
LINE
8
BLACK
6
CONTINUOUS
10
-0.2041515748031496
20
0.7037349606299212
11
-0.2021593307086614
21
0.7078101181102362
0
LINE
8
BLACK
6
CONTINUOUS
10
-0.2021593307086614
20
0.7078101181102362
11
-0.1989518503937008
21
0.7110175984251969
0
LINE
8
BLACK
6
CONTINUOUS
10
-0.1989518503937008
20
0.7110175984251969
11
-0.1948766929133858
21
0.713009842519685
0
LINE
8
BLACK
6
CONTINUOUS
10
-0.1948766929133858
20
0.713009842519685
11
-0.1909448818897638
21
0.7135826771653543
0
LINE
8
BLACK
6
CONTINUOUS
10
-0.1909448818897638
20
0.7135826771653543
11
-0.1358267716535433
21
0.7135826771653543
0
LINE
8
BLACK
6
CONTINUOUS
10
-0.1358267716535433
20
0.7135826771653543
11
-0.1318949606299213
21
0.713009842519685
0
LINE
8
BLACK
6
CONTINUOUS
10
-0.2427692913385827
20
0.7939824803149607
11
-0.2377846062992126
21
0.7922382677165354
0
LINE
8
BLACK
6
CONTINUOUS
10
-0.2377846062992126
20
0.7922382677165354
11
-0.2335355118110236
21
0.7891022834645669
0
LINE
8
BLACK
6
CONTINUOUS
10
-0.2335355118110236
20
0.7891022834645669
11
-0.2303995275590551
21
0.7848531889763779
0
LINE
8
BLACK
6
CONTINUOUS
10
-0.2303995275590551
20
0.7848531889763779
11
-0.2286553149606299
21
0.7798685039370079
0
LINE
8
BLACK
6
CONTINUOUS
10
-0.2286553149606299
20
0.7798685039370079
11
-0.2283464566929134
21
0.7765748031496063
0
LINE
8
BLACK
6
CONTINUOUS
10
-0.2283464566929134
20
0.7765748031496063
11
-0.2283464566929134
21
0.7568897637795275
0
LINE
8
BLACK
6
CONTINUOUS
10
-0.2283464566929134
20
0.7568897637795275
11
-0.2286553149606299
21
0.753596062992126
0
LINE
8
BLACK
6
CONTINUOUS
10
-0.2286553149606299
20
0.753596062992126
11
-0.2303995275590551
21
0.7486113779527559
0
LINE
8
BLACK
6
CONTINUOUS
10
-0.2303995275590551
20
0.7486113779527559
11
-0.2335355118110236
21
0.7443622834645669
0
LINE
8
BLACK
6
CONTINUOUS
10
-0.2335355118110236
20
0.7443622834645669
11
-0.2377846062992126
21
0.7412262992125984
0
LINE
8
BLACK
6
CONTINUOUS
10
-0.2377846062992126
20
0.7412262992125984
11
-0.2427692913385827
21
0.7394820866141733
0
LINE
8
BLACK
6
CONTINUOUS
10
-0.2427692913385827
20
0.7394820866141733
11
-0.2460629921259843
21
0.7391732283464567
0
LINE
8
BLACK
6
CONTINUOUS
10
-0.2460629921259843
20
0.7391732283464567
11
-0.3326771653543307
21
0.7391732283464567
0
LINE
8
BLACK
6
CONTINUOUS
10
-0.3326771653543307
20
0.7391732283464567
11
-0.3359708661417323
21
0.7394820866141733
0
LINE
8
BLACK
6
CONTINUOUS
10
-0.3359708661417323
20
0.7394820866141733
11
-0.3409555511811024
21
0.7412262992125984
0
LINE
8
BLACK
6
CONTINUOUS
10
-0.3409555511811024
20
0.7412262992125984
11
-0.3452046456692913
21
0.7443622834645669
0
LINE
8
BLACK
6
CONTINUOUS
10
-0.3452046456692913
20
0.7443622834645669
11
-0.3483406299212599
21
0.7486113779527559
0
LINE
8
BLACK
6
CONTINUOUS
10
-0.3483406299212599
20
0.7486113779527559
11
-0.350084842519685
21
0.753596062992126
0
LINE
8
BLACK
6
CONTINUOUS
10
-0.350084842519685
20
0.753596062992126
11
-0.3503937007874016
21
0.7568897637795275
0
LINE
8
BLACK
6
CONTINUOUS
10
-0.3503937007874016
20
0.7568897637795275
11
-0.3503937007874016
21
0.7765748031496063
0
LINE
8
BLACK
6
CONTINUOUS
10
-0.3503937007874016
20
0.7765748031496063
11
-0.350084842519685
21
0.7798685039370079
0
LINE
8
BLACK
6
CONTINUOUS
10
-0.350084842519685
20
0.7798685039370079
11
-0.3483406299212599
21
0.7848531889763779
0
LINE
8
BLACK
6
CONTINUOUS
10
-0.3483406299212599
20
0.7848531889763779
11
-0.3452046456692913
21
0.7891022834645669
0
LINE
8
BLACK
6
CONTINUOUS
10
-0.3452046456692913
20
0.7891022834645669
11
-0.3409555511811024
21
0.7922382677165354
0
LINE
8
BLACK
6
CONTINUOUS
10
-0.3409555511811024
20
0.7922382677165354
11
-0.3359708661417323
21
0.7939824803149607
0
LINE
8
BLACK
6
CONTINUOUS
10
-0.3359708661417323
20
0.7939824803149607
11
-0.3326771653543307
21
0.7942913385826772
0
LINE
8
BLACK
6
CONTINUOUS
10
-0.3326771653543307
20
0.7942913385826772
11
-0.2460629921259843
21
0.7942913385826772
0
LINE
8
BLACK
6
CONTINUOUS
10
-0.2460629921259843
20
0.7942913385826772
11
-0.2427692913385827
21
0.7939824803149607
0
LINE
8
BLACK
6
CONTINUOUS
10
-0.2624543307086614
20
0.9337462598425197
11
-0.2574696456692913
21
0.9320020472440944
0
LINE
8
BLACK
6
CONTINUOUS
10
-0.2574696456692913
20
0.9320020472440944
11
-0.2532205511811024
21
0.9288660629921259
0
LINE
8
BLACK
6
CONTINUOUS
10
-0.2532205511811024
20
0.9288660629921259
11
-0.2500845669291338
21
0.924616968503937
0
LINE
8
BLACK
6
CONTINUOUS
10
-0.2500845669291338
20
0.924616968503937
11
-0.2483403543307087
21
0.9196322834645669
0
LINE
8
BLACK
6
CONTINUOUS
10
-0.2483403543307087
20
0.9196322834645669
11
-0.2480314960629921
21
0.9163385826771653
0
LINE
8
BLACK
6
CONTINUOUS
10
-0.2480314960629921
20
0.9163385826771653
11
-0.2480314960629921
21
0.8966535433070866
0
LINE
8
BLACK
6
CONTINUOUS
10
-0.2480314960629921
20
0.8966535433070866
11
-0.2483403543307087
21
0.893359842519685
0
LINE
8
BLACK
6
CONTINUOUS
10
-0.2483403543307087
20
0.893359842519685
11
-0.2500845669291338
21
0.8883751574803149
0
LINE
8
BLACK
6
CONTINUOUS
10
-0.2500845669291338
20
0.8883751574803149
11
-0.2532205511811024
21
0.8841260629921259
0
LINE
8
BLACK
6
CONTINUOUS
10
-0.2532205511811024
20
0.8841260629921259
11
-0.2574696456692913
21
0.8809900787401574
0
LINE
8
BLACK
6
CONTINUOUS
10
-0.2574696456692913
20
0.8809900787401574
11
-0.2624543307086614
21
0.8792458661417323
0
LINE
8
BLACK
6
CONTINUOUS
10
-0.2624543307086614
20
0.8792458661417323
11
-0.265748031496063
21
0.8789370078740157
0
LINE
8
BLACK
6
CONTINUOUS
10
-0.265748031496063
20
0.8789370078740157
11
-0.3523622047244094
21
0.8789370078740157
0
LINE
8
BLACK
6
CONTINUOUS
10
-0.3523622047244094
20
0.8789370078740157
11
-0.355655905511811
21
0.8792458661417323
0
LINE
8
BLACK
6
CONTINUOUS
10
-0.355655905511811
20
0.8792458661417323
11
-0.3606405905511811
21
0.8809900787401574
0
LINE
8
BLACK
6
CONTINUOUS
10
-0.3606405905511811
20
0.8809900787401574
11
-0.3648896850393701
21
0.8841260629921259
0
LINE
8
BLACK
6
CONTINUOUS
10
-0.3648896850393701
20
0.8841260629921259
11
-0.3680256692913386
21
0.8883751574803149
0
LINE
8
BLACK
6
CONTINUOUS
10
-0.3680256692913386
20
0.8883751574803149
11
-0.3697698818897638
21
0.893359842519685
0
LINE
8
BLACK
6
CONTINUOUS
10
-0.3697698818897638
20
0.893359842519685
11
-0.3700787401574803
21
0.8966535433070866
0
LINE
8
BLACK
6
CONTINUOUS
10
-0.3700787401574803
20
0.8966535433070866
11
-0.3700787401574803
21
0.9163385826771653
0
LINE
8
BLACK
6
CONTINUOUS
10
-0.3700787401574803
20
0.9163385826771653
11
-0.3697698818897638
21
0.9196322834645669
0
LINE
8
BLACK
6
CONTINUOUS
10
-0.3697698818897638
20
0.9196322834645669
11
-0.3680256692913386
21
0.924616968503937
0
LINE
8
BLACK
6
CONTINUOUS
10
-0.3680256692913386
20
0.924616968503937
11
-0.3648896850393701
21
0.9288660629921259
0
LINE
8
BLACK
6
CONTINUOUS
10
-0.3648896850393701
20
0.9288660629921259
11
-0.3606405905511811
21
0.9320020472440944
0
LINE
8
BLACK
6
CONTINUOUS
10
-0.3606405905511811
20
0.9320020472440944
11
-0.355655905511811
21
0.9337462598425197
0
LINE
8
BLACK
6
CONTINUOUS
10
-0.355655905511811
20
0.9337462598425197
11
-0.3523622047244094
21
0.9340551181102362
0
LINE
8
BLACK
6
CONTINUOUS
10
-0.3523622047244094
20
0.9340551181102362
11
-0.265748031496063
21
0.9340551181102362
0
LINE
8
BLACK
6
CONTINUOUS
10
-0.265748031496063
20
0.9340551181102362
11
-0.2624543307086614
21
0.9337462598425197
0
LINE
8
BLACK
6
CONTINUOUS
10
-0.15158
20
0.9984429133858268
11
-0.147504842519685
21
0.9964506692913385
0
LINE
8
BLACK
6
CONTINUOUS
10
-0.147504842519685
20
0.9964506692913385
11
-0.1442973622047244
21
0.993243188976378
0
LINE
8
BLACK
6
CONTINUOUS
10
-0.1442973622047244
20
0.993243188976378
11
-0.1423051181102362
21
0.9891680314960629
0
LINE
8
BLACK
6
CONTINUOUS
10
-0.1423051181102362
20
0.9891680314960629
11
-0.1417322834645669
21
0.985236220472441
0
LINE
8
BLACK
6
CONTINUOUS
10
-0.1417322834645669
20
0.985236220472441
11
-0.1417322834645669
21
0.9734251968503936
0
LINE
8
BLACK
6
CONTINUOUS
10
-0.1417322834645669
20
0.9734251968503936
11
-0.1423051181102362
21
0.9694933858267716
0
LINE
8
BLACK
6
CONTINUOUS
10
-0.1423051181102362
20
0.9694933858267716
11
-0.1442973622047244
21
0.9654182283464566
0
LINE
8
BLACK
6
CONTINUOUS
10
-0.1442973622047244
20
0.9654182283464566
11
-0.147504842519685
21
0.9622107480314961
0
LINE
8
BLACK
6
CONTINUOUS
10
-0.147504842519685
20
0.9622107480314961
11
-0.15158
21
0.9602185039370078
0
LINE
8
BLACK
6
CONTINUOUS
10
-0.15158
20
0.9602185039370078
11
-0.155511811023622
21
0.9596456692913385
0
LINE
8
BLACK
6
CONTINUOUS
10
-0.155511811023622
20
0.9596456692913385
11
-0.2106299212598425
21
0.9596456692913385
0
LINE
8
BLACK
6
CONTINUOUS
10
-0.2106299212598425
20
0.9596456692913385
11
-0.2145617322834646
21
0.9602185039370078
0
LINE
8
BLACK
6
CONTINUOUS
10
-0.2145617322834646
20
0.9602185039370078
11
-0.2186368897637795
21
0.9622107480314961
0
LINE
8
BLACK
6
CONTINUOUS
10
-0.2186368897637795
20
0.9622107480314961
11
-0.2218443700787402
21
0.9654182283464566
0
LINE
8
BLACK
6
CONTINUOUS
10
-0.2218443700787402
20
0.9654182283464566
11
-0.2238366141732283
21
0.9694933858267716
0
LINE
8
BLACK
6
CONTINUOUS
10
-0.2238366141732283
20
0.9694933858267716
11
-0.2244094488188976
21
0.9734251968503936
0
LINE
8
BLACK
6
CONTINUOUS
10
-0.2244094488188976
20
0.9734251968503936
11
-0.2244094488188976
21
0.985236220472441
0
LINE
8
BLACK
6
CONTINUOUS
10
-0.2244094488188976
20
0.985236220472441
11
-0.2238366141732283
21
0.9891680314960629
0
LINE
8
BLACK
6
CONTINUOUS
10
-0.2238366141732283
20
0.9891680314960629
11
-0.2218443700787402
21
0.993243188976378
0
LINE
8
BLACK
6
CONTINUOUS
10
-0.2218443700787402
20
0.993243188976378
11
-0.2186368897637795
21
0.9964506692913385
0
LINE
8
BLACK
6
CONTINUOUS
10
-0.2186368897637795
20
0.9964506692913385
11
-0.2145617322834646
21
0.9984429133858268
0
LINE
8
BLACK
6
CONTINUOUS
10
-0.2145617322834646
20
0.9984429133858268
11
-0.2106299212598425
21
0.9990157480314961
0
LINE
8
BLACK
6
CONTINUOUS
10
-0.2106299212598425
20
0.9990157480314961
11
-0.155511811023622
21
0.9990157480314961
0
LINE
8
BLACK
6
CONTINUOUS
10
-0.155511811023622
20
0.9990157480314961
11
-0.15158
21
0.9984429133858268
0
LINE
8
BLACK
6
CONTINUOUS
10
-0.15158
20
1.0476555118110236
11
-0.147504842519685
21
1.0456632677165354
0
LINE
8
BLACK
6
CONTINUOUS
10
-0.147504842519685
20
1.0456632677165354
11
-0.1442973622047244
21
1.0424557874015747
0
LINE
8
BLACK
6
CONTINUOUS
10
-0.1442973622047244
20
1.0424557874015747
11
-0.1423051181102362
21
1.0383806299212599
0
LINE
8
BLACK
6
CONTINUOUS
10
-0.1423051181102362
20
1.0383806299212599
11
-0.1417322834645669
21
1.0344488188976377
0
LINE
8
BLACK
6
CONTINUOUS
10
-0.1417322834645669
20
1.0344488188976377
11
-0.1417322834645669
21
1.0226377952755905
0
LINE
8
BLACK
6
CONTINUOUS
10
-0.1417322834645669
20
1.0226377952755905
11
-0.1423051181102362
21
1.0187059842519686
0
LINE
8
BLACK
6
CONTINUOUS
10
-0.1423051181102362
20
1.0187059842519686
11
-0.1442973622047244
21
1.0146308267716535
0
LINE
8
BLACK
6
CONTINUOUS
10
-0.1442973622047244
20
1.0146308267716535
11
-0.147504842519685
21
1.0114233464566929
0
LINE
8
BLACK
6
CONTINUOUS
10
-0.147504842519685
20
1.0114233464566929
11
-0.15158
21
1.0094311023622047
0
LINE
8
BLACK
6
CONTINUOUS
10
-0.15158
20
1.0094311023622047
11
-0.155511811023622
21
1.0088582677165354
0
LINE
8
BLACK
6
CONTINUOUS
10
-0.155511811023622
20
1.0088582677165354
11
-0.2106299212598425
21
1.0088582677165354
0
LINE
8
BLACK
6
CONTINUOUS
10
-0.2106299212598425
20
1.0088582677165354
11
-0.2145617322834646
21
1.0094311023622047
0
LINE
8
BLACK
6
CONTINUOUS
10
-0.2145617322834646
20
1.0094311023622047
11
-0.2186368897637795
21
1.0114233464566929
0
LINE
8
BLACK
6
CONTINUOUS
10
-0.2186368897637795
20
1.0114233464566929
11
-0.2218443700787402
21
1.0146308267716535
0
LINE
8
BLACK
6
CONTINUOUS
10
-0.2218443700787402
20
1.0146308267716535
11
-0.2238366141732283
21
1.0187059842519686
0
LINE
8
BLACK
6
CONTINUOUS
10
-0.2238366141732283
20
1.0187059842519686
11
-0.2244094488188976
21
1.0226377952755905
0
LINE
8
BLACK
6
CONTINUOUS
10
-0.2244094488188976
20
1.0226377952755905
11
-0.2244094488188976
21
1.0344488188976377
0
LINE
8
BLACK
6
CONTINUOUS
10
-0.2244094488188976
20
1.0344488188976377
11
-0.2238366141732283
21
1.0383806299212599
0
LINE
8
BLACK
6
CONTINUOUS
10
-0.2238366141732283
20
1.0383806299212599
11
-0.2218443700787402
21
1.0424557874015747
0
LINE
8
BLACK
6
CONTINUOUS
10
-0.2218443700787402
20
1.0424557874015747
11
-0.2186368897637795
21
1.0456632677165354
0
LINE
8
BLACK
6
CONTINUOUS
10
-0.2186368897637795
20
1.0456632677165354
11
-0.2145617322834646
21
1.0476555118110236
0
LINE
8
BLACK
6
CONTINUOUS
10
-0.2145617322834646
20
1.0476555118110236
11
-0.2106299212598425
21
1.0482283464566928
0
LINE
8
BLACK
6
CONTINUOUS
10
-0.2106299212598425
20
1.0482283464566928
11
-0.155511811023622
21
1.0482283464566928
0
LINE
8
BLACK
6
CONTINUOUS
10
-0.155511811023622
20
1.0482283464566928
11
-0.15158
21
1.0476555118110236
0
LINE
8
BLACK
6
CONTINUOUS
10
-0.15158
20
1.0968681102362206
11
-0.147504842519685
21
1.0948758661417322
0
LINE
8
BLACK
6
CONTINUOUS
10
-0.147504842519685
20
1.0948758661417322
11
-0.1442973622047244
21
1.0916683858267717
0
LINE
8
BLACK
6
CONTINUOUS
10
-0.1442973622047244
20
1.0916683858267717
11
-0.1423051181102362
21
1.0875932283464567
0
LINE
8
BLACK
6
CONTINUOUS
10
-0.1423051181102362
20
1.0875932283464567
11
-0.1417322834645669
21
1.0836614173228347
0
LINE
8
BLACK
6
CONTINUOUS
10
-0.1417322834645669
20
1.0836614173228347
11
-0.1417322834645669
21
1.0718503937007873
0
LINE
8
BLACK
6
CONTINUOUS
10
-0.1417322834645669
20
1.0718503937007873
11
-0.1423051181102362
21
1.0679185826771653
0
LINE
8
BLACK
6
CONTINUOUS
10
-0.1423051181102362
20
1.0679185826771653
11
-0.1442973622047244
21
1.0638434251968503
0
LINE
8
BLACK
6
CONTINUOUS
10
-0.1442973622047244
20
1.0638434251968503
11
-0.147504842519685
21
1.0606359448818898
0
LINE
8
BLACK
6
CONTINUOUS
10
-0.147504842519685
20
1.0606359448818898
11
-0.15158
21
1.0586437007874014
0
LINE
8
BLACK
6
CONTINUOUS
10
-0.15158
20
1.0586437007874014
11
-0.155511811023622
21
1.0580708661417322
0
LINE
8
BLACK
6
CONTINUOUS
10
-0.155511811023622
20
1.0580708661417322
11
-0.2106299212598425
21
1.0580708661417322
0
LINE
8
BLACK
6
CONTINUOUS
10
-0.2106299212598425
20
1.0580708661417322
11
-0.2145617322834646
21
1.0586437007874014
0
LINE
8
BLACK
6
CONTINUOUS
10
-0.2145617322834646
20
1.0586437007874014
11
-0.2186368897637795
21
1.0606359448818898
0
LINE
8
BLACK
6
CONTINUOUS
10
-0.2186368897637795
20
1.0606359448818898
11
-0.2218443700787402
21
1.0638434251968503
0
LINE
8
BLACK
6
CONTINUOUS
10
-0.2218443700787402
20
1.0638434251968503
11
-0.2238366141732283
21
1.0679185826771653
0
LINE
8
BLACK
6
CONTINUOUS
10
-0.2238366141732283
20
1.0679185826771653
11
-0.2244094488188976
21
1.0718503937007873
0
LINE
8
BLACK
6
CONTINUOUS
10
-0.2244094488188976
20
1.0718503937007873
11
-0.2244094488188976
21
1.0836614173228347
0
LINE
8
BLACK
6
CONTINUOUS
10
-0.2244094488188976
20
1.0836614173228347
11
-0.2238366141732283
21
1.0875932283464567
0
LINE
8
BLACK
6
CONTINUOUS
10
-0.2238366141732283
20
1.0875932283464567
11
-0.2218443700787402
21
1.0916683858267717
0
LINE
8
BLACK
6
CONTINUOUS
10
-0.2218443700787402
20
1.0916683858267717
11
-0.2186368897637795
21
1.0948758661417322
0
LINE
8
BLACK
6
CONTINUOUS
10
-0.2186368897637795
20
1.0948758661417322
11
-0.2145617322834646
21
1.0968681102362206
0
LINE
8
BLACK
6
CONTINUOUS
10
-0.2145617322834646
20
1.0968681102362206
11
-0.2106299212598425
21
1.0974409448818898
0
LINE
8
BLACK
6
CONTINUOUS
10
-0.2106299212598425
20
1.0974409448818898
11
-0.155511811023622
21
1.0974409448818898
0
LINE
8
BLACK
6
CONTINUOUS
10
-0.155511811023622
20
1.0974409448818898
11
-0.15158
21
1.0968681102362206
0
LINE
8
BLACK
6
CONTINUOUS
10
-0.15158
20
1.1460807086614173
11
-0.147504842519685
21
1.1440884645669291
0
LINE
8
BLACK
6
CONTINUOUS
10
-0.147504842519685
20
1.1440884645669291
11
-0.1442973622047244
21
1.1408809842519685
0
LINE
8
BLACK
6
CONTINUOUS
10
-0.1442973622047244
20
1.1408809842519685
11
-0.1423051181102362
21
1.1368058267716534
0
LINE
8
BLACK
6
CONTINUOUS
10
-0.1423051181102362
20
1.1368058267716534
11
-0.1417322834645669
21
1.1328740157480315
0
LINE
8
BLACK
6
CONTINUOUS
10
-0.1417322834645669
20
1.1328740157480315
11
-0.1417322834645669
21
1.1210629921259843
0
LINE
8
BLACK
6
CONTINUOUS
10
-0.1417322834645669
20
1.1210629921259843
11
-0.1423051181102362
21
1.1171311811023621
0
LINE
8
BLACK
6
CONTINUOUS
10
-0.1423051181102362
20
1.1171311811023621
11
-0.1442973622047244
21
1.1130560236220473
0
LINE
8
BLACK
6
CONTINUOUS
10
-0.1442973622047244
20
1.1130560236220473
11
-0.147504842519685
21
1.1098485433070866
0
LINE
8
BLACK
6
CONTINUOUS
10
-0.147504842519685
20
1.1098485433070866
11
-0.15158
21
1.1078562992125984
0
LINE
8
BLACK
6
CONTINUOUS
10
-0.15158
20
1.1078562992125984
11
-0.155511811023622
21
1.1072834645669292
0
LINE
8
BLACK
6
CONTINUOUS
10
-0.155511811023622
20
1.1072834645669292
11
-0.2106299212598425
21
1.1072834645669292
0
LINE
8
BLACK
6
CONTINUOUS
10
-0.2106299212598425
20
1.1072834645669292
11
-0.2145617322834646
21
1.1078562992125984
0
LINE
8
BLACK
6
CONTINUOUS
10
-0.2145617322834646
20
1.1078562992125984
11
-0.2186368897637795
21
1.1098485433070866
0
LINE
8
BLACK
6
CONTINUOUS
10
-0.2186368897637795
20
1.1098485433070866
11
-0.2218443700787402
21
1.1130560236220473
0
LINE
8
BLACK
6
CONTINUOUS
10
-0.2218443700787402
20
1.1130560236220473
11
-0.2238366141732283
21
1.1171311811023621
0
LINE
8
BLACK
6
CONTINUOUS
10
-0.2238366141732283
20
1.1171311811023621
11
-0.2244094488188976
21
1.1210629921259843
0
LINE
8
BLACK
6
CONTINUOUS
10
-0.2244094488188976
20
1.1210629921259843
11
-0.2244094488188976
21
1.1328740157480315
0
LINE
8
BLACK
6
CONTINUOUS
10
-0.2244094488188976
20
1.1328740157480315
11
-0.2238366141732283
21
1.1368058267716534
0
LINE
8
BLACK
6
CONTINUOUS
10
-0.2238366141732283
20
1.1368058267716534
11
-0.2218443700787402
21
1.1408809842519685
0
LINE
8
BLACK
6
CONTINUOUS
10
-0.2218443700787402
20
1.1408809842519685
11
-0.2186368897637795
21
1.1440884645669291
0
LINE
8
BLACK
6
CONTINUOUS
10
-0.2186368897637795
20
1.1440884645669291
11
-0.2145617322834646
21
1.1460807086614173
0
LINE
8
BLACK
6
CONTINUOUS
10
-0.2145617322834646
20
1.1460807086614173
11
-0.2106299212598425
21
1.1466535433070866
0
LINE
8
BLACK
6
CONTINUOUS
10
-0.2106299212598425
20
1.1466535433070866
11
-0.155511811023622
21
1.1466535433070866
0
LINE
8
BLACK
6
CONTINUOUS
10
-0.155511811023622
20
1.1466535433070866
11
-0.15158
21
1.1460807086614173
0
LINE
8
BLACK
6
CONTINUOUS
10
-0.2624543307086614
20
1.2270533464566928
11
-0.2574696456692913
21
1.2253091338582678
0
LINE
8
BLACK
6
CONTINUOUS
10
-0.2574696456692913
20
1.2253091338582678
11
-0.2532205511811024
21
1.2221731496062991
0
LINE
8
BLACK
6
CONTINUOUS
10
-0.2532205511811024
20
1.2221731496062991
11
-0.2500845669291338
21
1.2179240551181103
0
LINE
8
BLACK
6
CONTINUOUS
10
-0.2500845669291338
20
1.2179240551181103
11
-0.2483403543307087
21
1.2129393700787401
0
LINE
8
BLACK
6
CONTINUOUS
10
-0.2483403543307087
20
1.2129393700787401
11
-0.2480314960629921
21
1.2096456692913387
0
LINE
8
BLACK
6
CONTINUOUS
10
-0.2480314960629921
20
1.2096456692913387
11
-0.2480314960629921
21
1.1899606299212597
0
LINE
8
BLACK
6
CONTINUOUS
10
-0.2480314960629921
20
1.1899606299212597
11
-0.2483403543307087
21
1.1866669291338583
0
LINE
8
BLACK
6
CONTINUOUS
10
-0.2483403543307087
20
1.1866669291338583
11
-0.2500845669291338
21
1.1816822440944881
0
LINE
8
BLACK
6
CONTINUOUS
10
-0.2500845669291338
20
1.1816822440944881
11
-0.2532205511811024
21
1.1774331496062991
0
LINE
8
BLACK
6
CONTINUOUS
10
-0.2532205511811024
20
1.1774331496062991
11
-0.2574696456692913
21
1.1742971653543306
0
LINE
8
BLACK
6
CONTINUOUS
10
-0.2574696456692913
20
1.1742971653543306
11
-0.2624543307086614
21
1.1725529527559055
0
LINE
8
BLACK
6
CONTINUOUS
10
-0.2624543307086614
20
1.1725529527559055
11
-0.265748031496063
21
1.1722440944881889
0
LINE
8
BLACK
6
CONTINUOUS
10
-0.265748031496063
20
1.1722440944881889
11
-0.3523622047244094
21
1.1722440944881889
0
LINE
8
BLACK
6
CONTINUOUS
10
-0.3523622047244094
20
1.1722440944881889
11
-0.355655905511811
21
1.1725529527559055
0
LINE
8
BLACK
6
CONTINUOUS
10
-0.355655905511811
20
1.1725529527559055
11
-0.3606405905511811
21
1.1742971653543306
0
LINE
8
BLACK
6
CONTINUOUS
10
-0.3606405905511811
20
1.1742971653543306
11
-0.3648896850393701
21
1.1774331496062991
0
LINE
8
BLACK
6
CONTINUOUS
10
-0.3648896850393701
20
1.1774331496062991
11
-0.3680256692913386
21
1.1816822440944881
0
LINE
8
BLACK
6
CONTINUOUS
10
-0.3680256692913386
20
1.1816822440944881
11
-0.3697698818897638
21
1.1866669291338583
0
LINE
8
BLACK
6
CONTINUOUS
10
-0.3697698818897638
20
1.1866669291338583
11
-0.3700787401574803
21
1.1899606299212597
0
LINE
8
BLACK
6
CONTINUOUS
10
-0.3700787401574803
20
1.1899606299212597
11
-0.3700787401574803
21
1.2096456692913387
0
LINE
8
BLACK
6
CONTINUOUS
10
-0.3700787401574803
20
1.2096456692913387
11
-0.3697698818897638
21
1.2129393700787401
0
LINE
8
BLACK
6
CONTINUOUS
10
-0.3697698818897638
20
1.2129393700787401
11
-0.3680256692913386
21
1.2179240551181103
0
LINE
8
BLACK
6
CONTINUOUS
10
-0.3680256692913386
20
1.2179240551181103
11
-0.3648896850393701
21
1.2221731496062991
0
LINE
8
BLACK
6
CONTINUOUS
10
-0.3648896850393701
20
1.2221731496062991
11
-0.3606405905511811
21
1.2253091338582678
0
LINE
8
BLACK
6
CONTINUOUS
10
-0.3606405905511811
20
1.2253091338582678
11
-0.355655905511811
21
1.2270533464566928
0
LINE
8
BLACK
6
CONTINUOUS
10
-0.355655905511811
20
1.2270533464566928
11
-0.3523622047244094
21
1.2273622047244095
0
LINE
8
BLACK
6
CONTINUOUS
10
-0.3523622047244094
20
1.2273622047244095
11
-0.265748031496063
21
1.2273622047244095
0
LINE
8
BLACK
6
CONTINUOUS
10
-0.265748031496063
20
1.2273622047244095
11
-0.2624543307086614
21
1.2270533464566928
0
LINE
8
BLACK
6
CONTINUOUS
10
-0.2367853937007874
20
1.3938781496062991
11
-0.2321895669291338
21
1.3915364566929134
0
LINE
8
BLACK
6
CONTINUOUS
10
-0.2321895669291338
20
1.3915364566929134
11
-0.2285422834645669
21
1.3878891732283465
0
LINE
8
BLACK
6
CONTINUOUS
10
-0.2285422834645669
20
1.3878891732283465
11
-0.2262005905511811
21
1.3832933464566928
0
LINE
8
BLACK
6
CONTINUOUS
10
-0.2262005905511811
20
1.3832933464566928
11
-0.2253937007874016
21
1.3781988188976377
0
LINE
8
BLACK
6
CONTINUOUS
10
-0.2253937007874016
20
1.3781988188976377
11
-0.2253937007874016
21
1.358021653543307
0
LINE
8
BLACK
6
CONTINUOUS
10
-0.2253937007874016
20
1.358021653543307
11
-0.2262005905511811
21
1.3529271259842519
0
LINE
8
BLACK
6
CONTINUOUS
10
-0.2262005905511811
20
1.3529271259842519
11
-0.2285422834645669
21
1.3483312992125984
0
LINE
8
BLACK
6
CONTINUOUS
10
-0.2285422834645669
20
1.3483312992125984
11
-0.2321895669291338
21
1.3446840157480315
0
LINE
8
BLACK
6
CONTINUOUS
10
-0.2321895669291338
20
1.3446840157480315
11
-0.2367853937007874
21
1.3423423228346456
0
LINE
8
BLACK
6
CONTINUOUS
10
-0.2367853937007874
20
1.3423423228346456
11
-0.2418799212598425
21
1.3415354330708662
0
LINE
8
BLACK
6
CONTINUOUS
10
-0.2418799212598425
20
1.3415354330708662
11
-0.2591043307086614
21
1.3415354330708662
0
LINE
8
BLACK
6
CONTINUOUS
10
-0.2591043307086614
20
1.3415354330708662
11
-0.2641988582677166
21
1.3423423228346456
0
LINE
8
BLACK
6
CONTINUOUS
10
-0.2641988582677166
20
1.3423423228346456
11
-0.2687946850393701
21
1.3446840157480315
0
LINE
8
BLACK
6
CONTINUOUS
10
-0.2687946850393701
20
1.3446840157480315
11
-0.272441968503937
21
1.3483312992125984
0
LINE
8
BLACK
6
CONTINUOUS
10
-0.272441968503937
20
1.3483312992125984
11
-0.2747836614173229
21
1.3529271259842519
0
LINE
8
BLACK
6
CONTINUOUS
10
-0.2747836614173229
20
1.3529271259842519
11
-0.2755905511811024
21
1.358021653543307
0
LINE
8
BLACK
6
CONTINUOUS
10
-0.2755905511811024
20
1.358021653543307
11
-0.2755905511811024
21
1.3781988188976377
0
LINE
8
BLACK
6
CONTINUOUS
10
-0.2755905511811024
20
1.3781988188976377
11
-0.2747836614173229
21
1.3832933464566928
0
LINE
8
BLACK
6
CONTINUOUS
10
-0.2747836614173229
20
1.3832933464566928
11
-0.272441968503937
21
1.3878891732283465
0
LINE
8
BLACK
6
CONTINUOUS
10
-0.272441968503937
20
1.3878891732283465
11
-0.2687946850393701
21
1.3915364566929134
0
LINE
8
BLACK
6
CONTINUOUS
10
-0.2687946850393701
20
1.3915364566929134
11
-0.2641988582677166
21
1.3938781496062991
0
LINE
8
BLACK
6
CONTINUOUS
10
-0.2641988582677166
20
1.3938781496062991
11
-0.2591043307086614
21
1.3946850393700787
0
LINE
8
BLACK
6
CONTINUOUS
10
-0.2591043307086614
20
1.3946850393700787
11
-0.2418799212598425
21
1.3946850393700787
0
LINE
8
BLACK
6
CONTINUOUS
10
-0.2418799212598425
20
1.3946850393700787
11
-0.2367853937007874
21
1.3938781496062991
0
LINE
8
BLACK
6
CONTINUOUS
10
-0.1747775196850394
20
1.3938781496062991
11
-0.1701816929133858
21
1.3915364566929134
0
LINE
8
BLACK
6
CONTINUOUS
10
-0.1701816929133858
20
1.3915364566929134
11
-0.1665344094488189
21
1.3878891732283465
0
LINE
8
BLACK
6
CONTINUOUS
10
-0.1665344094488189
20
1.3878891732283465
11
-0.1641927165354331
21
1.3832933464566928
0
LINE
8
BLACK
6
CONTINUOUS
10
-0.1641927165354331
20
1.3832933464566928
11
-0.1633858267716535
21
1.3781988188976377
0
LINE
8
BLACK
6
CONTINUOUS
10
-0.1633858267716535
20
1.3781988188976377
11
-0.1633858267716535
21
1.358021653543307
0
LINE
8
BLACK
6
CONTINUOUS
10
-0.1633858267716535
20
1.358021653543307
11
-0.1641927165354331
21
1.3529271259842519
0
LINE
8
BLACK
6
CONTINUOUS
10
-0.1641927165354331
20
1.3529271259842519
11
-0.1665344094488189
21
1.3483312992125984
0
LINE
8
BLACK
6
CONTINUOUS
10
-0.1665344094488189
20
1.3483312992125984
11
-0.1701816929133858
21
1.3446840157480315
0
LINE
8
BLACK
6
CONTINUOUS
10
-0.1701816929133858
20
1.3446840157480315
11
-0.1747775196850394
21
1.3423423228346456
0
LINE
8
BLACK
6
CONTINUOUS
10
-0.1747775196850394
20
1.3423423228346456
11
-0.1798720472440945
21
1.3415354330708662
0
LINE
8
BLACK
6
CONTINUOUS
10
-0.1798720472440945
20
1.3415354330708662
11
-0.1970964566929134
21
1.3415354330708662
0
LINE
8
BLACK
6
CONTINUOUS
10
-0.1970964566929134
20
1.3415354330708662
11
-0.2021909842519685
21
1.3423423228346456
0
LINE
8
BLACK
6
CONTINUOUS
10
-0.2021909842519685
20
1.3423423228346456
11
-0.206786811023622
21
1.3446840157480315
0
LINE
8
BLACK
6
CONTINUOUS
10
-0.206786811023622
20
1.3446840157480315
11
-0.210434094488189
21
1.3483312992125984
0
LINE
8
BLACK
6
CONTINUOUS
10
-0.210434094488189
20
1.3483312992125984
11
-0.2127757874015748
21
1.3529271259842519
0
LINE
8
BLACK
6
CONTINUOUS
10
-0.2127757874015748
20
1.3529271259842519
11
-0.2135826771653543
21
1.358021653543307
0
LINE
8
BLACK
6
CONTINUOUS
10
-0.2135826771653543
20
1.358021653543307
11
-0.2135826771653543
21
1.3781988188976377
0
LINE
8
BLACK
6
CONTINUOUS
10
-0.2135826771653543
20
1.3781988188976377
11
-0.2127757874015748
21
1.3832933464566928
0
LINE
8
BLACK
6
CONTINUOUS
10
-0.2127757874015748
20
1.3832933464566928
11
-0.210434094488189
21
1.3878891732283465
0
LINE
8
BLACK
6
CONTINUOUS
10
-0.210434094488189
20
1.3878891732283465
11
-0.206786811023622
21
1.3915364566929134
0
LINE
8
BLACK
6
CONTINUOUS
10
-0.206786811023622
20
1.3915364566929134
11
-0.2021909842519685
21
1.3938781496062991
0
LINE
8
BLACK
6
CONTINUOUS
10
-0.2021909842519685
20
1.3938781496062991
11
-0.1970964566929134
21
1.3946850393700787
0
LINE
8
BLACK
6
CONTINUOUS
10
-0.1970964566929134
20
1.3946850393700787
11
-0.1798720472440945
21
1.3946850393700787
0
LINE
8
BLACK
6
CONTINUOUS
10
-0.1798720472440945
20
1.3946850393700787
11
-0.1747775196850394
21
1.3938781496062991
0
LINE
8
BLACK
6
CONTINUOUS
10
-0.2367853937007874
20
1.4926970472440944
11
-0.2321895669291338
21
1.4903553543307086
0
LINE
8
BLACK
6
CONTINUOUS
10
-0.2321895669291338
20
1.4903553543307086
11
-0.2285422834645669
21
1.4867080708661418
0
LINE
8
BLACK
6
CONTINUOUS
10
-0.2285422834645669
20
1.4867080708661418
11
-0.2262005905511811
21
1.4821122440944881
0
LINE
8
BLACK
6
CONTINUOUS
10
-0.2262005905511811
20
1.4821122440944881
11
-0.2253937007874016
21
1.477017716535433
0
LINE
8
BLACK
6
CONTINUOUS
10
-0.2253937007874016
20
1.477017716535433
11
-0.2253937007874016
21
1.4568405511811022
0
LINE
8
BLACK
6
CONTINUOUS
10
-0.2253937007874016
20
1.4568405511811022
11
-0.2262005905511811
21
1.4517460236220472
0
LINE
8
BLACK
6
CONTINUOUS
10
-0.2262005905511811
20
1.4517460236220472
11
-0.2285422834645669
21
1.4471501968503937
0
LINE
8
BLACK
6
CONTINUOUS
10
-0.2285422834645669
20
1.4471501968503937
11
-0.2321895669291338
21
1.4435029133858268
0
LINE
8
BLACK
6
CONTINUOUS
10
-0.2321895669291338
20
1.4435029133858268
11
-0.2367853937007874
21
1.4411612204724409
0
LINE
8
BLACK
6
CONTINUOUS
10
-0.2367853937007874
20
1.4411612204724409
11
-0.2418799212598425
21
1.4403543307086615
0
LINE
8
BLACK
6
CONTINUOUS
10
-0.2418799212598425
20
1.4403543307086615
11
-0.2591043307086614
21
1.4403543307086615
0
LINE
8
BLACK
6
CONTINUOUS
10
-0.2591043307086614
20
1.4403543307086615
11
-0.2641988582677166
21
1.4411612204724409
0
LINE
8
BLACK
6
CONTINUOUS
10
-0.2641988582677166
20
1.4411612204724409
11
-0.2687946850393701
21
1.4435029133858268
0
LINE
8
BLACK
6
CONTINUOUS
10
-0.2687946850393701
20
1.4435029133858268
11
-0.272441968503937
21
1.4471501968503937
0
LINE
8
BLACK
6
CONTINUOUS
10
-0.272441968503937
20
1.4471501968503937
11
-0.2747836614173229
21
1.4517460236220472
0
LINE
8
BLACK
6
CONTINUOUS
10
-0.2747836614173229
20
1.4517460236220472
11
-0.2755905511811024
21
1.4568405511811022
0
LINE
8
BLACK
6
CONTINUOUS
10
-0.2755905511811024
20
1.4568405511811022
11
-0.2755905511811024
21
1.477017716535433
0
LINE
8
BLACK
6
CONTINUOUS
10
-0.2755905511811024
20
1.477017716535433
11
-0.2747836614173229
21
1.4821122440944881
0
LINE
8
BLACK
6
CONTINUOUS
10
-0.2747836614173229
20
1.4821122440944881
11
-0.272441968503937
21
1.4867080708661418
0
LINE
8
BLACK
6
CONTINUOUS
10
-0.272441968503937
20
1.4867080708661418
11
-0.2687946850393701
21
1.4903553543307086
0
LINE
8
BLACK
6
CONTINUOUS
10
-0.2687946850393701
20
1.4903553543307086
11
-0.2641988582677166
21
1.4926970472440944
0
LINE
8
BLACK
6
CONTINUOUS
10
-0.2641988582677166
20
1.4926970472440944
11
-0.2591043307086614
21
1.493503937007874
0
LINE
8
BLACK
6
CONTINUOUS
10
-0.2591043307086614
20
1.493503937007874
11
-0.2418799212598425
21
1.493503937007874
0
LINE
8
BLACK
6
CONTINUOUS
10
-0.2418799212598425
20
1.493503937007874
11
-0.2367853937007874
21
1.4926970472440944
0
LINE
8
BLACK
6
CONTINUOUS
10
-0.1747775196850394
20
1.4926970472440944
11
-0.1701816929133858
21
1.4903553543307086
0
LINE
8
BLACK
6
CONTINUOUS
10
-0.1701816929133858
20
1.4903553543307086
11
-0.1665344094488189
21
1.4867080708661418
0
LINE
8
BLACK
6
CONTINUOUS
10
-0.1665344094488189
20
1.4867080708661418
11
-0.1641927165354331
21
1.4821122440944881
0
LINE
8
BLACK
6
CONTINUOUS
10
-0.1641927165354331
20
1.4821122440944881
11
-0.1633858267716535
21
1.477017716535433
0
LINE
8
BLACK
6
CONTINUOUS
10
-0.1633858267716535
20
1.477017716535433
11
-0.1633858267716535
21
1.4568405511811022
0
LINE
8
BLACK
6
CONTINUOUS
10
-0.1633858267716535
20
1.4568405511811022
11
-0.1641927165354331
21
1.4517460236220472
0
LINE
8
BLACK
6
CONTINUOUS
10
-0.1641927165354331
20
1.4517460236220472
11
-0.1665344094488189
21
1.4471501968503937
0
LINE
8
BLACK
6
CONTINUOUS
10
-0.1665344094488189
20
1.4471501968503937
11
-0.1701816929133858
21
1.4435029133858268
0
LINE
8
BLACK
6
CONTINUOUS
10
-0.1701816929133858
20
1.4435029133858268
11
-0.1747775196850394
21
1.4411612204724409
0
LINE
8
BLACK
6
CONTINUOUS
10
-0.1747775196850394
20
1.4411612204724409
11
-0.1798720472440945
21
1.4403543307086615
0
LINE
8
BLACK
6
CONTINUOUS
10
-0.1798720472440945
20
1.4403543307086615
11
-0.1970964566929134
21
1.4403543307086615
0
LINE
8
BLACK
6
CONTINUOUS
10
-0.1970964566929134
20
1.4403543307086615
11
-0.2021909842519685
21
1.4411612204724409
0
LINE
8
BLACK
6
CONTINUOUS
10
-0.2021909842519685
20
1.4411612204724409
11
-0.206786811023622
21
1.4435029133858268
0
LINE
8
BLACK
6
CONTINUOUS
10
-0.206786811023622
20
1.4435029133858268
11
-0.210434094488189
21
1.4471501968503937
0
LINE
8
BLACK
6
CONTINUOUS
10
-0.210434094488189
20
1.4471501968503937
11
-0.2127757874015748
21
1.4517460236220472
0
LINE
8
BLACK
6
CONTINUOUS
10
-0.2127757874015748
20
1.4517460236220472
11
-0.2135826771653543
21
1.4568405511811022
0
LINE
8
BLACK
6
CONTINUOUS
10
-0.2135826771653543
20
1.4568405511811022
11
-0.2135826771653543
21
1.477017716535433
0
LINE
8
BLACK
6
CONTINUOUS
10
-0.2135826771653543
20
1.477017716535433
11
-0.2127757874015748
21
1.4821122440944881
0
LINE
8
BLACK
6
CONTINUOUS
10
-0.2127757874015748
20
1.4821122440944881
11
-0.210434094488189
21
1.4867080708661418
0
LINE
8
BLACK
6
CONTINUOUS
10
-0.210434094488189
20
1.4867080708661418
11
-0.206786811023622
21
1.4903553543307086
0
LINE
8
BLACK
6
CONTINUOUS
10
-0.206786811023622
20
1.4903553543307086
11
-0.2021909842519685
21
1.4926970472440944
0
LINE
8
BLACK
6
CONTINUOUS
10
-0.2021909842519685
20
1.4926970472440944
11
-0.1970964566929134
21
1.493503937007874
0
LINE
8
BLACK
6
CONTINUOUS
10
-0.1970964566929134
20
1.493503937007874
11
-0.1798720472440945
21
1.493503937007874
0
LINE
8
BLACK
6
CONTINUOUS
10
-0.1798720472440945
20
1.493503937007874
11
-0.1747775196850394
21
1.4926970472440944
  0
ENDSEC
  0
EOF
