  0
SECTION
  2
HEADER
  9
$ANGBASE
  50
0.0
  9
$ANGDIR
  70
1
  9
$MEASUREMENT
  70
0
  0
ENDSEC
  0
SECTION
  2
TABLES
  0
TABLE
  2
LTYPE
  70
4
  0
LTYPE
  5
40F
  2
CONTINUOUS
  70
0
  3
Solid line
  72
65
  73
0
  40
0.0
  0
LTYPE
  5
410
  2
DASHDOT
 70
0
  3
Dash Dot ____ _ ____ _
 72
65
 73
4
 40
2.0
 49
1.25
 49
-0.25
 49
0.25
 49
-0.25
  0
LTYPE
  5
411
  2
DASHED
 70
0
  3
Dashed __ __ __ __ __
 72
65
 73
2
 40
0.75
 49
0.5
 49
-0.25
  0
LTYPE
  5
43B
  2
DOTTED
 70
0
  3
Dotted .  .  .  .
 72
65
 73
2
 40
0.2
 49
0.0
 49
-0.2
  0
ENDTAB
  0
TABLE
  2
STYLE
  70
4
  0
STYLE
  2
KICAD
  70
0
  40
0
  41
1
  42
1
  50
0
  71
0
  3
isocp.shx
  0
STYLE
  2
KICADB
  70
0
  40
0
  41
1
  42
1
  50
0
  71
0
  3
isocp.shx
  0
STYLE
  2
KICADI
  70
0
  40
0
  41
1
  42
1
  50
15
  71
0
  3
isocp.shx
  0
STYLE
  2
KICADBI
  70
0
  40
0
  41
1
  42
1
  50
15
  71
0
  3
isocp.shx
  0
ENDTAB
  0
TABLE
  2
LAYER
  70
1
  0
LAYER
  2
BLACK
  70
0
  62
7
  6
CONTINUOUS
  0
ENDTAB
  0
ENDSEC
  0
SECTION
  2
ENTITIES
0
LINE
8
BLACK
6
CONTINUOUS
10
0.7751627559055118
20
0.42111
11
0.7762281102362204
21
0.4200446456692913
0
LINE
8
BLACK
6
CONTINUOUS
10
0.7762281102362204
20
0.4200446456692913
11
0.7763779527559055
21
0.4192913385826771
0
LINE
8
BLACK
6
CONTINUOUS
10
0.7763779527559055
20
0.4192913385826771
11
0.7763779527559055
21
0.0476377952755905
0
LINE
8
BLACK
6
CONTINUOUS
10
0.7763779527559055
20
0.0476377952755905
11
0.7762281102362204
21
0.0468844881889764
0
LINE
8
BLACK
6
CONTINUOUS
10
0.7762281102362204
20
0.0468844881889764
11
0.7751627559055118
21
0.0458191338582677
0
LINE
8
BLACK
6
CONTINUOUS
10
0.7751627559055118
20
0.0458191338582677
11
0.7744094488188976
21
0.0456692913385827
0
LINE
8
BLACK
6
CONTINUOUS
10
0.7744094488188976
20
0.0456692913385827
11
0.5224409448818897
21
0.0456692913385827
0
LINE
8
BLACK
6
CONTINUOUS
10
0.5224409448818897
20
0.0456692913385827
11
0.5216876377952756
21
0.0458191338582677
0
LINE
8
BLACK
6
CONTINUOUS
10
0.5216876377952756
20
0.0458191338582677
11
0.520622283464567
21
0.0468844881889764
0
LINE
8
BLACK
6
CONTINUOUS
10
0.520622283464567
20
0.0468844881889764
11
0.5204724409448819
21
0.0476377952755905
0
LINE
8
BLACK
6
CONTINUOUS
10
0.5204724409448819
20
0.0476377952755905
11
0.5204724409448819
21
0.4192913385826771
0
LINE
8
BLACK
6
CONTINUOUS
10
0.5204724409448819
20
0.4192913385826771
11
0.520622283464567
21
0.4200446456692913
0
LINE
8
BLACK
6
CONTINUOUS
10
0.520622283464567
20
0.4200446456692913
11
0.5216876377952756
21
0.42111
0
LINE
8
BLACK
6
CONTINUOUS
10
0.5216876377952756
20
0.42111
11
0.5224409448818897
21
0.421259842519685
0
LINE
8
BLACK
6
CONTINUOUS
10
0.5224409448818897
20
0.421259842519685
11
0.7744094488188976
21
0.421259842519685
0
LINE
8
BLACK
6
CONTINUOUS
10
0.7744094488188976
20
0.421259842519685
11
0.7751627559055118
21
0.42111
0
LINE
8
BLACK
6
CONTINUOUS
10
0.5244094488188976
20
0.4173228346456693
11
0.5244094488188976
21
0.0496062992125984
0
LINE
8
BLACK
6
CONTINUOUS
10
0.5244094488188976
20
0.0496062992125984
11
0.7724409448818897
21
0.0496062992125984
0
LINE
8
BLACK
6
CONTINUOUS
10
0.7724409448818897
20
0.0496062992125984
11
0.7724409448818897
21
0.4173228346456693
0
LINE
8
BLACK
6
CONTINUOUS
10
0.7724409448818897
20
0.4173228346456693
11
0.5244094488188976
21
0.4173228346456693
0
LINE
8
BLACK
6
CONTINUOUS
10
0.4088635433070866
20
0.3000076377952756
11
0.4099288976377953
21
0.2989422834645669
0
LINE
8
BLACK
6
CONTINUOUS
10
0.4099288976377953
20
0.2989422834645669
11
0.4100787401574803
21
0.2981889763779528
0
LINE
8
BLACK
6
CONTINUOUS
10
0.4100787401574803
20
0.2981889763779528
11
0.4100787401574803
21
0.1682677165354331
0
LINE
8
BLACK
6
CONTINUOUS
10
0.4100787401574803
20
0.1682677165354331
11
0.4099288976377953
21
0.1675144094488189
0
LINE
8
BLACK
6
CONTINUOUS
10
0.4099288976377953
20
0.1675144094488189
11
0.4088635433070866
21
0.1664490551181102
0
LINE
8
BLACK
6
CONTINUOUS
10
0.4088635433070866
20
0.1664490551181102
11
0.4081102362204724
21
0.1662992125984252
0
LINE
8
BLACK
6
CONTINUOUS
10
0.4081102362204724
20
0.1662992125984252
11
0.3096850393700787
21
0.1662992125984252
0
LINE
8
BLACK
6
CONTINUOUS
10
0.3096850393700787
20
0.1662992125984252
11
0.3089317322834645
21
0.1664490551181102
0
LINE
8
BLACK
6
CONTINUOUS
10
0.3089317322834645
20
0.1664490551181102
11
0.3078663779527559
21
0.1675144094488189
0
LINE
8
BLACK
6
CONTINUOUS
10
0.3078663779527559
20
0.1675144094488189
11
0.3077165354330709
21
0.1682677165354331
0
LINE
8
BLACK
6
CONTINUOUS
10
0.3077165354330709
20
0.1682677165354331
11
0.3077165354330709
21
0.2981889763779528
0
LINE
8
BLACK
6
CONTINUOUS
10
0.3077165354330709
20
0.2981889763779528
11
0.3078663779527559
21
0.2989422834645669
0
LINE
8
BLACK
6
CONTINUOUS
10
0.3078663779527559
20
0.2989422834645669
11
0.3089317322834645
21
0.3000076377952756
0
LINE
8
BLACK
6
CONTINUOUS
10
0.3089317322834645
20
0.3000076377952756
11
0.3096850393700787
21
0.3001574803149606
0
LINE
8
BLACK
6
CONTINUOUS
10
0.3096850393700787
20
0.3001574803149606
11
0.4081102362204724
21
0.3001574803149606
0
LINE
8
BLACK
6
CONTINUOUS
10
0.4081102362204724
20
0.3001574803149606
11
0.4088635433070866
21
0.3000076377952756
0
LINE
8
BLACK
6
CONTINUOUS
10
0.3116535433070866
20
0.2962204724409448
11
0.3116535433070866
21
0.1702362204724409
0
LINE
8
BLACK
6
CONTINUOUS
10
0.3116535433070866
20
0.1702362204724409
11
0.4061417322834646
21
0.1702362204724409
0
LINE
8
BLACK
6
CONTINUOUS
10
0.4061417322834646
20
0.1702362204724409
11
0.4061417322834646
21
0.2962204724409448
0
LINE
8
BLACK
6
CONTINUOUS
10
0.4061417322834646
20
0.2962204724409448
11
0.3116535433070866
21
0.2962204724409448
0
LINE
8
BLACK
6
CONTINUOUS
10
0.7751627559055118
20
0.8148107874015748
11
0.7762281102362204
21
0.8137454330708661
0
LINE
8
BLACK
6
CONTINUOUS
10
0.7762281102362204
20
0.8137454330708661
11
0.7763779527559055
21
0.812992125984252
0
LINE
8
BLACK
6
CONTINUOUS
10
0.7763779527559055
20
0.812992125984252
11
0.7763779527559055
21
0.4413385826771654
0
LINE
8
BLACK
6
CONTINUOUS
10
0.7763779527559055
20
0.4413385826771654
11
0.7762281102362204
21
0.4405852755905512
0
LINE
8
BLACK
6
CONTINUOUS
10
0.7762281102362204
20
0.4405852755905512
11
0.7751627559055118
21
0.4395199212598425
0
LINE
8
BLACK
6
CONTINUOUS
10
0.7751627559055118
20
0.4395199212598425
11
0.7744094488188976
21
0.4393700787401575
0
LINE
8
BLACK
6
CONTINUOUS
10
0.7744094488188976
20
0.4393700787401575
11
0.5224409448818897
21
0.4393700787401575
0
LINE
8
BLACK
6
CONTINUOUS
10
0.5224409448818897
20
0.4393700787401575
11
0.5216876377952756
21
0.4395199212598425
0
LINE
8
BLACK
6
CONTINUOUS
10
0.5216876377952756
20
0.4395199212598425
11
0.520622283464567
21
0.4405852755905512
0
LINE
8
BLACK
6
CONTINUOUS
10
0.520622283464567
20
0.4405852755905512
11
0.5204724409448819
21
0.4413385826771654
0
LINE
8
BLACK
6
CONTINUOUS
10
0.5204724409448819
20
0.4413385826771654
11
0.5204724409448819
21
0.812992125984252
0
LINE
8
BLACK
6
CONTINUOUS
10
0.5204724409448819
20
0.812992125984252
11
0.520622283464567
21
0.8137454330708661
0
LINE
8
BLACK
6
CONTINUOUS
10
0.520622283464567
20
0.8137454330708661
11
0.5216876377952756
21
0.8148107874015748
0
LINE
8
BLACK
6
CONTINUOUS
10
0.5216876377952756
20
0.8148107874015748
11
0.5224409448818897
21
0.8149606299212598
0
LINE
8
BLACK
6
CONTINUOUS
10
0.5224409448818897
20
0.8149606299212598
11
0.7744094488188976
21
0.8149606299212598
0
LINE
8
BLACK
6
CONTINUOUS
10
0.7744094488188976
20
0.8149606299212598
11
0.7751627559055118
21
0.8148107874015748
0
LINE
8
BLACK
6
CONTINUOUS
10
0.5244094488188976
20
0.8110236220472441
11
0.5244094488188976
21
0.4433070866141732
0
LINE
8
BLACK
6
CONTINUOUS
10
0.5244094488188976
20
0.4433070866141732
11
0.7724409448818897
21
0.4433070866141732
0
LINE
8
BLACK
6
CONTINUOUS
10
0.7724409448818897
20
0.4433070866141732
11
0.7724409448818897
21
0.8110236220472441
0
LINE
8
BLACK
6
CONTINUOUS
10
0.7724409448818897
20
0.8110236220472441
11
0.5244094488188976
21
0.8110236220472441
0
LINE
8
BLACK
6
CONTINUOUS
10
0.4088635433070866
20
0.6937084251968504
11
0.4099288976377953
21
0.6926430708661417
0
LINE
8
BLACK
6
CONTINUOUS
10
0.4099288976377953
20
0.6926430708661417
11
0.4100787401574803
21
0.6918897637795275
0
LINE
8
BLACK
6
CONTINUOUS
10
0.4100787401574803
20
0.6918897637795275
11
0.4100787401574803
21
0.5619685039370078
0
LINE
8
BLACK
6
CONTINUOUS
10
0.4100787401574803
20
0.5619685039370078
11
0.4099288976377953
21
0.5612151968503937
0
LINE
8
BLACK
6
CONTINUOUS
10
0.4099288976377953
20
0.5612151968503937
11
0.4088635433070866
21
0.560149842519685
0
LINE
8
BLACK
6
CONTINUOUS
10
0.4088635433070866
20
0.560149842519685
11
0.4081102362204724
21
0.5599999999999999
0
LINE
8
BLACK
6
CONTINUOUS
10
0.4081102362204724
20
0.5599999999999999
11
0.3096850393700787
21
0.5599999999999999
0
LINE
8
BLACK
6
CONTINUOUS
10
0.3096850393700787
20
0.5599999999999999
11
0.3089317322834645
21
0.560149842519685
0
LINE
8
BLACK
6
CONTINUOUS
10
0.3089317322834645
20
0.560149842519685
11
0.3078663779527559
21
0.5612151968503937
0
LINE
8
BLACK
6
CONTINUOUS
10
0.3078663779527559
20
0.5612151968503937
11
0.3077165354330709
21
0.5619685039370078
0
LINE
8
BLACK
6
CONTINUOUS
10
0.3077165354330709
20
0.5619685039370078
11
0.3077165354330709
21
0.6918897637795275
0
LINE
8
BLACK
6
CONTINUOUS
10
0.3077165354330709
20
0.6918897637795275
11
0.3078663779527559
21
0.6926430708661417
0
LINE
8
BLACK
6
CONTINUOUS
10
0.3078663779527559
20
0.6926430708661417
11
0.3089317322834645
21
0.6937084251968504
0
LINE
8
BLACK
6
CONTINUOUS
10
0.3089317322834645
20
0.6937084251968504
11
0.3096850393700787
21
0.6938582677165355
0
LINE
8
BLACK
6
CONTINUOUS
10
0.3096850393700787
20
0.6938582677165355
11
0.4081102362204724
21
0.6938582677165355
0
LINE
8
BLACK
6
CONTINUOUS
10
0.4081102362204724
20
0.6938582677165355
11
0.4088635433070866
21
0.6937084251968504
0
LINE
8
BLACK
6
CONTINUOUS
10
0.3116535433070866
20
0.6899212598425196
11
0.3116535433070866
21
0.5639370078740157
0
LINE
8
BLACK
6
CONTINUOUS
10
0.3116535433070866
20
0.5639370078740157
11
0.4061417322834646
21
0.5639370078740157
0
LINE
8
BLACK
6
CONTINUOUS
10
0.4061417322834646
20
0.5639370078740157
11
0.4061417322834646
21
0.6899212598425196
0
LINE
8
BLACK
6
CONTINUOUS
10
0.4061417322834646
20
0.6899212598425196
11
0.3116535433070866
21
0.6899212598425196
  0
ENDSEC
  0
EOF
