<?xml version='1.0' encoding='ASCII' standalone='yes'?>
<svg xmlns:svg="http://www.w3.org/2000/svg" xmlns="http://www.w3.org/2000/svg" xmlns:xlink="http://www.w3.org/1999/xlink" version="1.1" width="297.0022mm" height="210.0072mm" viewBox="0.0000 0.0000 297.0022 210.0072">
<title>SVG Image created as TFI2CADC01-F_Fab0.svg date 2025/09/28 00:46:37 </title>
  <desc>Image generated by PCBNEW </desc>
<g style="fill:#848484; fill-opacity:1.0000;stroke:#848484; stroke-opacity:1.0000; stroke-linecap:round; stroke-linejoin:round;" transform="translate(0 0) scale(1 1)">
</g>
<g style="fill:none;  stroke:#848484; stroke-width:1.4776; stroke-opacity:1;  stroke-linecap:round; stroke-linejoin:round;">
<g transform="rotate(-90.000000 71.8229 145.1552)">
<text x="71.8229" y="150.0806" textLength="163.3582" font-size="13.1343" lengthAdjust="spacingAndGlyphs" text-anchor="middle" opacity="0" stroke-opacity="0">SolderJumper_2_Open</text>
</g>
<g class="stroked-text"><desc>SolderJumper_2_Open</desc>
<path d="M75.8341 223.7267 L76.3032 222.3194 "/>
<path d="M76.3032 222.3194 L76.3032 219.9740 "/>
<path d="M76.3032 219.9740 L75.8341 219.0358 "/>
<path d="M75.8341 219.0358 L75.3650 218.5668 "/>
<path d="M75.3650 218.5668 L74.4269 218.0977 "/>
<path d="M74.4269 218.0977 L73.4887 218.0977 "/>
<path d="M73.4887 218.0977 L72.5505 218.5668 "/>
<path d="M72.5505 218.5668 L72.0814 219.0358 "/>
<path d="M72.0814 219.0358 L71.6124 219.9740 "/>
<path d="M71.6124 219.9740 L71.1433 221.8503 "/>
<path d="M71.1433 221.8503 L70.6742 222.7885 "/>
<path d="M70.6742 222.7885 L70.2051 223.2576 "/>
<path d="M70.2051 223.2576 L69.2670 223.7267 "/>
<path d="M69.2670 223.7267 L68.3288 223.7267 "/>
<path d="M68.3288 223.7267 L67.3906 223.2576 "/>
<path d="M67.3906 223.2576 L66.9215 222.7885 "/>
<path d="M66.9215 222.7885 L66.4525 221.8503 "/>
<path d="M66.4525 221.8503 L66.4525 219.5049 "/>
<path d="M66.4525 219.5049 L66.9215 218.0977 "/>
<path d="M76.3032 212.4687 L75.8341 213.4068 "/>
<path d="M75.8341 213.4068 L75.3650 213.8759 "/>
<path d="M75.3650 213.8759 L74.4269 214.3450 "/>
<path d="M74.4269 214.3450 L71.6124 214.3450 "/>
<path d="M71.6124 214.3450 L70.6742 213.8759 "/>
<path d="M70.6742 213.8759 L70.2051 213.4068 "/>
<path d="M70.2051 213.4068 L69.7360 212.4687 "/>
<path d="M69.7360 212.4687 L69.7360 211.0614 "/>
<path d="M69.7360 211.0614 L70.2051 210.1233 "/>
<path d="M70.2051 210.1233 L70.6742 209.6542 "/>
<path d="M70.6742 209.6542 L71.6124 209.1851 "/>
<path d="M71.6124 209.1851 L74.4269 209.1851 "/>
<path d="M74.4269 209.1851 L75.3650 209.6542 "/>
<path d="M75.3650 209.6542 L75.8341 210.1233 "/>
<path d="M75.8341 210.1233 L76.3032 211.0614 "/>
<path d="M76.3032 211.0614 L76.3032 212.4687 "/>
<path d="M76.3032 203.5561 L75.8341 204.4943 "/>
<path d="M75.8341 204.4943 L74.8959 204.9633 "/>
<path d="M74.8959 204.9633 L66.4525 204.9633 "/>
<path d="M76.3032 195.5817 L66.4525 195.5817 "/>
<path d="M75.8341 195.5817 L76.3032 196.5198 "/>
<path d="M76.3032 196.5198 L76.3032 198.3962 "/>
<path d="M76.3032 198.3962 L75.8341 199.3343 "/>
<path d="M75.8341 199.3343 L75.3650 199.8034 "/>
<path d="M75.3650 199.8034 L74.4269 200.2725 "/>
<path d="M74.4269 200.2725 L71.6124 200.2725 "/>
<path d="M71.6124 200.2725 L70.6742 199.8034 "/>
<path d="M70.6742 199.8034 L70.2051 199.3343 "/>
<path d="M70.2051 199.3343 L69.7360 198.3962 "/>
<path d="M69.7360 198.3962 L69.7360 196.5198 "/>
<path d="M69.7360 196.5198 L70.2051 195.5817 "/>
<path d="M75.8341 187.1382 L76.3032 188.0763 "/>
<path d="M76.3032 188.0763 L76.3032 189.9527 "/>
<path d="M76.3032 189.9527 L75.8341 190.8908 "/>
<path d="M75.8341 190.8908 L74.8959 191.3599 "/>
<path d="M74.8959 191.3599 L71.1433 191.3599 "/>
<path d="M71.1433 191.3599 L70.2051 190.8908 "/>
<path d="M70.2051 190.8908 L69.7360 189.9527 "/>
<path d="M69.7360 189.9527 L69.7360 188.0763 "/>
<path d="M69.7360 188.0763 L70.2051 187.1382 "/>
<path d="M70.2051 187.1382 L71.1433 186.6691 "/>
<path d="M71.1433 186.6691 L72.0814 186.6691 "/>
<path d="M72.0814 186.6691 L73.0196 191.3599 "/>
<path d="M76.3032 182.4473 L69.7360 182.4473 "/>
<path d="M71.6124 182.4473 L70.6742 181.9783 "/>
<path d="M70.6742 181.9783 L70.2051 181.5092 "/>
<path d="M70.2051 181.5092 L69.7360 180.5710 "/>
<path d="M69.7360 180.5710 L69.7360 179.6329 "/>
<path d="M66.4525 173.5348 L73.4887 173.5348 "/>
<path d="M73.4887 173.5348 L74.8959 174.0038 "/>
<path d="M74.8959 174.0038 L75.8341 174.9420 "/>
<path d="M75.8341 174.9420 L76.3032 176.3493 "/>
<path d="M76.3032 176.3493 L76.3032 177.2874 "/>
<path d="M69.7360 164.6222 L76.3032 164.6222 "/>
<path d="M69.7360 168.8439 L74.8959 168.8439 "/>
<path d="M74.8959 168.8439 L75.8341 168.3748 "/>
<path d="M75.8341 168.3748 L76.3032 167.4367 "/>
<path d="M76.3032 167.4367 L76.3032 166.0294 "/>
<path d="M76.3032 166.0294 L75.8341 165.0913 "/>
<path d="M75.8341 165.0913 L75.3650 164.6222 "/>
<path d="M76.3032 159.9313 L69.7360 159.9313 "/>
<path d="M70.6742 159.9313 L70.2051 159.4623 "/>
<path d="M70.2051 159.4623 L69.7360 158.5241 "/>
<path d="M69.7360 158.5241 L69.7360 157.1169 "/>
<path d="M69.7360 157.1169 L70.2051 156.1787 "/>
<path d="M70.2051 156.1787 L71.1433 155.7096 "/>
<path d="M71.1433 155.7096 L76.3032 155.7096 "/>
<path d="M71.1433 155.7096 L70.2051 155.2405 "/>
<path d="M70.2051 155.2405 L69.7360 154.3024 "/>
<path d="M69.7360 154.3024 L69.7360 152.8951 "/>
<path d="M69.7360 152.8951 L70.2051 151.9569 "/>
<path d="M70.2051 151.9569 L71.1433 151.4878 "/>
<path d="M71.1433 151.4878 L76.3032 151.4878 "/>
<path d="M69.7360 146.7970 L79.5868 146.7970 "/>
<path d="M70.2051 146.7970 L69.7360 145.8589 "/>
<path d="M69.7360 145.8589 L69.7360 143.9825 "/>
<path d="M69.7360 143.9825 L70.2051 143.0444 "/>
<path d="M70.2051 143.0444 L70.6742 142.5753 "/>
<path d="M70.6742 142.5753 L71.6124 142.1062 "/>
<path d="M71.6124 142.1062 L74.4269 142.1062 "/>
<path d="M74.4269 142.1062 L75.3650 142.5753 "/>
<path d="M75.3650 142.5753 L75.8341 143.0444 "/>
<path d="M75.8341 143.0444 L76.3032 143.9825 "/>
<path d="M76.3032 143.9825 L76.3032 145.8589 "/>
<path d="M76.3032 145.8589 L75.8341 146.7970 "/>
<path d="M75.8341 134.1318 L76.3032 135.0699 "/>
<path d="M76.3032 135.0699 L76.3032 136.9463 "/>
<path d="M76.3032 136.9463 L75.8341 137.8844 "/>
<path d="M75.8341 137.8844 L74.8959 138.3535 "/>
<path d="M74.8959 138.3535 L71.1433 138.3535 "/>
<path d="M71.1433 138.3535 L70.2051 137.8844 "/>
<path d="M70.2051 137.8844 L69.7360 136.9463 "/>
<path d="M69.7360 136.9463 L69.7360 135.0699 "/>
<path d="M69.7360 135.0699 L70.2051 134.1318 "/>
<path d="M70.2051 134.1318 L71.1433 133.6627 "/>
<path d="M71.1433 133.6627 L72.0814 133.6627 "/>
<path d="M72.0814 133.6627 L73.0196 138.3535 "/>
<path d="M76.3032 129.4409 L69.7360 129.4409 "/>
<path d="M71.6124 129.4409 L70.6742 128.9719 "/>
<path d="M70.6742 128.9719 L70.2051 128.5028 "/>
<path d="M70.2051 128.5028 L69.7360 127.5646 "/>
<path d="M69.7360 127.5646 L69.7360 126.6264 "/>
<path d="M77.2414 125.6883 L77.2414 118.1829 "/>
<path d="M67.3906 116.3066 L66.9215 115.8375 "/>
<path d="M66.9215 115.8375 L66.4525 114.8994 "/>
<path d="M66.4525 114.8994 L66.4525 112.5539 "/>
<path d="M66.4525 112.5539 L66.9215 111.6158 "/>
<path d="M66.9215 111.6158 L67.3906 111.1467 "/>
<path d="M67.3906 111.1467 L68.3288 110.6776 "/>
<path d="M68.3288 110.6776 L69.2670 110.6776 "/>
<path d="M69.2670 110.6776 L70.6742 111.1467 "/>
<path d="M70.6742 111.1467 L76.3032 116.7757 "/>
<path d="M76.3032 116.7757 L76.3032 110.6776 "/>
<path d="M77.2414 108.8013 L77.2414 101.2960 "/>
<path d="M66.4525 97.0742 L66.4525 95.1979 "/>
<path d="M66.4525 95.1979 L66.9215 94.2597 "/>
<path d="M66.9215 94.2597 L67.8597 93.3215 "/>
<path d="M67.8597 93.3215 L69.7360 92.8525 "/>
<path d="M69.7360 92.8525 L73.0196 92.8525 "/>
<path d="M73.0196 92.8525 L74.8959 93.3215 "/>
<path d="M74.8959 93.3215 L75.8341 94.2597 "/>
<path d="M75.8341 94.2597 L76.3032 95.1979 "/>
<path d="M76.3032 95.1979 L76.3032 97.0742 "/>
<path d="M76.3032 97.0742 L75.8341 98.0124 "/>
<path d="M75.8341 98.0124 L74.8959 98.9505 "/>
<path d="M74.8959 98.9505 L73.0196 99.4196 "/>
<path d="M73.0196 99.4196 L69.7360 99.4196 "/>
<path d="M69.7360 99.4196 L67.8597 98.9505 "/>
<path d="M67.8597 98.9505 L66.9215 98.0124 "/>
<path d="M66.9215 98.0124 L66.4525 97.0742 "/>
<path d="M69.7360 88.6307 L79.5868 88.6307 "/>
<path d="M70.2051 88.6307 L69.7360 87.6925 "/>
<path d="M69.7360 87.6925 L69.7360 85.8162 "/>
<path d="M69.7360 85.8162 L70.2051 84.8780 "/>
<path d="M70.2051 84.8780 L70.6742 84.4090 "/>
<path d="M70.6742 84.4090 L71.6124 83.9399 "/>
<path d="M71.6124 83.9399 L74.4269 83.9399 "/>
<path d="M74.4269 83.9399 L75.3650 84.4090 "/>
<path d="M75.3650 84.4090 L75.8341 84.8780 "/>
<path d="M75.8341 84.8780 L76.3032 85.8162 "/>
<path d="M76.3032 85.8162 L76.3032 87.6925 "/>
<path d="M76.3032 87.6925 L75.8341 88.6307 "/>
<path d="M75.8341 75.9655 L76.3032 76.9036 "/>
<path d="M76.3032 76.9036 L76.3032 78.7800 "/>
<path d="M76.3032 78.7800 L75.8341 79.7181 "/>
<path d="M75.8341 79.7181 L74.8959 80.1872 "/>
<path d="M74.8959 80.1872 L71.1433 80.1872 "/>
<path d="M71.1433 80.1872 L70.2051 79.7181 "/>
<path d="M70.2051 79.7181 L69.7360 78.7800 "/>
<path d="M69.7360 78.7800 L69.7360 76.9036 "/>
<path d="M69.7360 76.9036 L70.2051 75.9655 "/>
<path d="M70.2051 75.9655 L71.1433 75.4964 "/>
<path d="M71.1433 75.4964 L72.0814 75.4964 "/>
<path d="M72.0814 75.4964 L73.0196 80.1872 "/>
<path d="M69.7360 71.2746 L76.3032 71.2746 "/>
<path d="M70.6742 71.2746 L70.2051 70.8055 "/>
<path d="M70.2051 70.8055 L69.7360 69.8674 "/>
<path d="M69.7360 69.8674 L69.7360 68.4601 "/>
<path d="M69.7360 68.4601 L70.2051 67.5220 "/>
<path d="M70.2051 67.5220 L71.1433 67.0529 "/>
<path d="M71.1433 67.0529 L76.3032 67.0529 "/>
</g><g transform="rotate(-90.000000 109.2557 46.6478)">
<text x="109.2557" y="51.5731" textLength="163.3582" font-size="13.1343" lengthAdjust="spacingAndGlyphs" text-anchor="middle" opacity="0" stroke-opacity="0">SolderJumper_2_Open</text>
</g>
<g class="stroked-text"><desc>SolderJumper_2_Open</desc>
<path d="M113.2670 125.2192 L113.7360 123.8120 "/>
<path d="M113.7360 123.8120 L113.7360 121.4665 "/>
<path d="M113.7360 121.4665 L113.2670 120.5284 "/>
<path d="M113.2670 120.5284 L112.7979 120.0593 "/>
<path d="M112.7979 120.0593 L111.8597 119.5902 "/>
<path d="M111.8597 119.5902 L110.9215 119.5902 "/>
<path d="M110.9215 119.5902 L109.9834 120.0593 "/>
<path d="M109.9834 120.0593 L109.5143 120.5284 "/>
<path d="M109.5143 120.5284 L109.0452 121.4665 "/>
<path d="M109.0452 121.4665 L108.5761 123.3429 "/>
<path d="M108.5761 123.3429 L108.1070 124.2810 "/>
<path d="M108.1070 124.2810 L107.6380 124.7501 "/>
<path d="M107.6380 124.7501 L106.6998 125.2192 "/>
<path d="M106.6998 125.2192 L105.7616 125.2192 "/>
<path d="M105.7616 125.2192 L104.8235 124.7501 "/>
<path d="M104.8235 124.7501 L104.3544 124.2810 "/>
<path d="M104.3544 124.2810 L103.8853 123.3429 "/>
<path d="M103.8853 123.3429 L103.8853 120.9975 "/>
<path d="M103.8853 120.9975 L104.3544 119.5902 "/>
<path d="M113.7360 113.9612 L113.2670 114.8994 "/>
<path d="M113.2670 114.8994 L112.7979 115.3685 "/>
<path d="M112.7979 115.3685 L111.8597 115.8375 "/>
<path d="M111.8597 115.8375 L109.0452 115.8375 "/>
<path d="M109.0452 115.8375 L108.1070 115.3685 "/>
<path d="M108.1070 115.3685 L107.6380 114.8994 "/>
<path d="M107.6380 114.8994 L107.1689 113.9612 "/>
<path d="M107.1689 113.9612 L107.1689 112.5540 "/>
<path d="M107.1689 112.5540 L107.6380 111.6158 "/>
<path d="M107.6380 111.6158 L108.1070 111.1467 "/>
<path d="M108.1070 111.1467 L109.0452 110.6776 "/>
<path d="M109.0452 110.6776 L111.8597 110.6776 "/>
<path d="M111.8597 110.6776 L112.7979 111.1467 "/>
<path d="M112.7979 111.1467 L113.2670 111.6158 "/>
<path d="M113.2670 111.6158 L113.7360 112.5540 "/>
<path d="M113.7360 112.5540 L113.7360 113.9612 "/>
<path d="M113.7360 105.0486 L113.2670 105.9868 "/>
<path d="M113.2670 105.9868 L112.3288 106.4559 "/>
<path d="M112.3288 106.4559 L103.8853 106.4559 "/>
<path d="M113.7360 97.0742 L103.8853 97.0742 "/>
<path d="M113.2670 97.0742 L113.7360 98.0124 "/>
<path d="M113.7360 98.0124 L113.7360 99.8887 "/>
<path d="M113.7360 99.8887 L113.2670 100.8269 "/>
<path d="M113.2670 100.8269 L112.7979 101.2960 "/>
<path d="M112.7979 101.2960 L111.8597 101.7650 "/>
<path d="M111.8597 101.7650 L109.0452 101.7650 "/>
<path d="M109.0452 101.7650 L108.1070 101.2960 "/>
<path d="M108.1070 101.2960 L107.6380 100.8269 "/>
<path d="M107.6380 100.8269 L107.1689 99.8887 "/>
<path d="M107.1689 99.8887 L107.1689 98.0124 "/>
<path d="M107.1689 98.0124 L107.6380 97.0742 "/>
<path d="M113.2670 88.6307 L113.7360 89.5689 "/>
<path d="M113.7360 89.5689 L113.7360 91.4452 "/>
<path d="M113.7360 91.4452 L113.2670 92.3834 "/>
<path d="M113.2670 92.3834 L112.3288 92.8525 "/>
<path d="M112.3288 92.8525 L108.5761 92.8525 "/>
<path d="M108.5761 92.8525 L107.6380 92.3834 "/>
<path d="M107.6380 92.3834 L107.1689 91.4452 "/>
<path d="M107.1689 91.4452 L107.1689 89.5689 "/>
<path d="M107.1689 89.5689 L107.6380 88.6307 "/>
<path d="M107.6380 88.6307 L108.5761 88.1616 "/>
<path d="M108.5761 88.1616 L109.5143 88.1616 "/>
<path d="M109.5143 88.1616 L110.4524 92.8525 "/>
<path d="M113.7360 83.9399 L107.1689 83.9399 "/>
<path d="M109.0452 83.9399 L108.1070 83.4708 "/>
<path d="M108.1070 83.4708 L107.6380 83.0017 "/>
<path d="M107.6380 83.0017 L107.1689 82.0636 "/>
<path d="M107.1689 82.0636 L107.1689 81.1254 "/>
<path d="M103.8853 75.0273 L110.9215 75.0273 "/>
<path d="M110.9215 75.0273 L112.3288 75.4964 "/>
<path d="M112.3288 75.4964 L113.2670 76.4346 "/>
<path d="M113.2670 76.4346 L113.7360 77.8418 "/>
<path d="M113.7360 77.8418 L113.7360 78.7800 "/>
<path d="M107.1689 66.1147 L113.7360 66.1147 "/>
<path d="M107.1689 70.3365 L112.3288 70.3365 "/>
<path d="M112.3288 70.3365 L113.2670 69.8674 "/>
<path d="M113.2670 69.8674 L113.7360 68.9292 "/>
<path d="M113.7360 68.9292 L113.7360 67.5220 "/>
<path d="M113.7360 67.5220 L113.2670 66.5838 "/>
<path d="M113.2670 66.5838 L112.7979 66.1147 "/>
<path d="M113.7360 61.4239 L107.1689 61.4239 "/>
<path d="M108.1070 61.4239 L107.6380 60.9548 "/>
<path d="M107.6380 60.9548 L107.1689 60.0166 "/>
<path d="M107.1689 60.0166 L107.1689 58.6094 "/>
<path d="M107.1689 58.6094 L107.6380 57.6712 "/>
<path d="M107.6380 57.6712 L108.5761 57.2021 "/>
<path d="M108.5761 57.2021 L113.7360 57.2021 "/>
<path d="M108.5761 57.2021 L107.6380 56.7331 "/>
<path d="M107.6380 56.7331 L107.1689 55.7949 "/>
<path d="M107.1689 55.7949 L107.1689 54.3876 "/>
<path d="M107.1689 54.3876 L107.6380 53.4495 "/>
<path d="M107.6380 53.4495 L108.5761 52.9804 "/>
<path d="M108.5761 52.9804 L113.7360 52.9804 "/>
<path d="M107.1689 48.2896 L117.0196 48.2896 "/>
<path d="M107.6380 48.2896 L107.1689 47.3514 "/>
<path d="M107.1689 47.3514 L107.1689 45.4751 "/>
<path d="M107.1689 45.4751 L107.6380 44.5369 "/>
<path d="M107.6380 44.5369 L108.1070 44.0678 "/>
<path d="M108.1070 44.0678 L109.0452 43.5987 "/>
<path d="M109.0452 43.5987 L111.8597 43.5987 "/>
<path d="M111.8597 43.5987 L112.7979 44.0678 "/>
<path d="M112.7979 44.0678 L113.2670 44.5369 "/>
<path d="M113.2670 44.5369 L113.7360 45.4751 "/>
<path d="M113.7360 45.4751 L113.7360 47.3514 "/>
<path d="M113.7360 47.3514 L113.2670 48.2896 "/>
<path d="M113.2670 35.6243 L113.7360 36.5625 "/>
<path d="M113.7360 36.5625 L113.7360 38.4388 "/>
<path d="M113.7360 38.4388 L113.2670 39.3770 "/>
<path d="M113.2670 39.3770 L112.3288 39.8461 "/>
<path d="M112.3288 39.8461 L108.5761 39.8461 "/>
<path d="M108.5761 39.8461 L107.6380 39.3770 "/>
<path d="M107.6380 39.3770 L107.1689 38.4388 "/>
<path d="M107.1689 38.4388 L107.1689 36.5625 "/>
<path d="M107.1689 36.5625 L107.6380 35.6243 "/>
<path d="M107.6380 35.6243 L108.5761 35.1552 "/>
<path d="M108.5761 35.1552 L109.5143 35.1552 "/>
<path d="M109.5143 35.1552 L110.4524 39.8461 "/>
<path d="M113.7360 30.9335 L107.1689 30.9335 "/>
<path d="M109.0452 30.9335 L108.1070 30.4644 "/>
<path d="M108.1070 30.4644 L107.6380 29.9953 "/>
<path d="M107.6380 29.9953 L107.1689 29.0572 "/>
<path d="M107.1689 29.0572 L107.1689 28.1190 "/>
<path d="M114.6742 27.1808 L114.6742 19.6755 "/>
<path d="M104.8235 17.7991 L104.3544 17.3301 "/>
<path d="M104.3544 17.3301 L103.8853 16.3919 "/>
<path d="M103.8853 16.3919 L103.8853 14.0465 "/>
<path d="M103.8853 14.0465 L104.3544 13.1083 "/>
<path d="M104.3544 13.1083 L104.8235 12.6392 "/>
<path d="M104.8235 12.6392 L105.7616 12.1702 "/>
<path d="M105.7616 12.1702 L106.6998 12.1702 "/>
<path d="M106.6998 12.1702 L108.1070 12.6392 "/>
<path d="M108.1070 12.6392 L113.7360 18.2682 "/>
<path d="M113.7360 18.2682 L113.7360 12.1702 "/>
<path d="M114.6742 10.2938 L114.6742 2.7885 "/>
<path d="M103.8853 -1.4333 L103.8853 -3.3096 "/>
<path d="M103.8853 -3.3096 L104.3544 -4.2478 "/>
<path d="M104.3544 -4.2478 L105.2925 -5.1859 "/>
<path d="M105.2925 -5.1859 L107.1689 -5.6550 "/>
<path d="M107.1689 -5.6550 L110.4524 -5.6550 "/>
<path d="M110.4524 -5.6550 L112.3288 -5.1859 "/>
<path d="M112.3288 -5.1859 L113.2670 -4.2478 "/>
<path d="M113.2670 -4.2478 L113.7360 -3.3096 "/>
<path d="M113.7360 -3.3096 L113.7360 -1.4333 "/>
<path d="M113.7360 -1.4333 L113.2670 -0.4951 "/>
<path d="M113.2670 -0.4951 L112.3288 0.4431 "/>
<path d="M112.3288 0.4431 L110.4524 0.9121 "/>
<path d="M110.4524 0.9121 L107.1689 0.9121 "/>
<path d="M107.1689 0.9121 L105.2925 0.4431 "/>
<path d="M105.2925 0.4431 L104.3544 -0.4951 "/>
<path d="M104.3544 -0.4951 L103.8853 -1.4333 "/>
<path d="M107.1689 -9.8768 L117.0196 -9.8768 "/>
<path d="M107.6380 -9.8768 L107.1689 -10.8149 "/>
<path d="M107.1689 -10.8149 L107.1689 -12.6913 "/>
<path d="M107.1689 -12.6913 L107.6380 -13.6294 "/>
<path d="M107.6380 -13.6294 L108.1070 -14.0985 "/>
<path d="M108.1070 -14.0985 L109.0452 -14.5676 "/>
<path d="M109.0452 -14.5676 L111.8597 -14.5676 "/>
<path d="M111.8597 -14.5676 L112.7979 -14.0985 "/>
<path d="M112.7979 -14.0985 L113.2670 -13.6294 "/>
<path d="M113.2670 -13.6294 L113.7360 -12.6913 "/>
<path d="M113.7360 -12.6913 L113.7360 -10.8149 "/>
<path d="M113.7360 -10.8149 L113.2670 -9.8768 "/>
<path d="M113.2670 -22.5420 L113.7360 -21.6038 "/>
<path d="M113.7360 -21.6038 L113.7360 -19.7275 "/>
<path d="M113.7360 -19.7275 L113.2670 -18.7893 "/>
<path d="M113.2670 -18.7893 L112.3288 -18.3203 "/>
<path d="M112.3288 -18.3203 L108.5761 -18.3203 "/>
<path d="M108.5761 -18.3203 L107.6380 -18.7893 "/>
<path d="M107.6380 -18.7893 L107.1689 -19.7275 "/>
<path d="M107.1689 -19.7275 L107.1689 -21.6038 "/>
<path d="M107.1689 -21.6038 L107.6380 -22.5420 "/>
<path d="M107.6380 -22.5420 L108.5761 -23.0111 "/>
<path d="M108.5761 -23.0111 L109.5143 -23.0111 "/>
<path d="M109.5143 -23.0111 L110.4524 -18.3203 "/>
<path d="M107.1689 -27.2328 L113.7360 -27.2328 "/>
<path d="M108.1070 -27.2328 L107.6380 -27.7019 "/>
<path d="M107.6380 -27.7019 L107.1689 -28.6401 "/>
<path d="M107.1689 -28.6401 L107.1689 -30.0473 "/>
<path d="M107.1689 -30.0473 L107.6380 -30.9855 "/>
<path d="M107.6380 -30.9855 L108.5761 -31.4546 "/>
<path d="M108.5761 -31.4546 L113.7360 -31.4546 "/>
</g><g transform="rotate(-90.000000 201.3996 46.5887)">
<text x="201.3996" y="51.5140" textLength="123.0171" font-size="13.1343" lengthAdjust="spacingAndGlyphs" text-anchor="middle" opacity="0" stroke-opacity="0">SM04B-GHS-TB</text>
</g>
<g class="stroked-text"><desc>SM04B-GHS-TB</desc>
<path d="M205.4108 104.9895 L205.8799 103.5823 "/>
<path d="M205.8799 103.5823 L205.8799 101.2368 "/>
<path d="M205.8799 101.2368 L205.4108 100.2987 "/>
<path d="M205.4108 100.2987 L204.9417 99.8296 "/>
<path d="M204.9417 99.8296 L204.0036 99.3605 "/>
<path d="M204.0036 99.3605 L203.0654 99.3605 "/>
<path d="M203.0654 99.3605 L202.1272 99.8296 "/>
<path d="M202.1272 99.8296 L201.6582 100.2987 "/>
<path d="M201.6582 100.2987 L201.1891 101.2368 "/>
<path d="M201.1891 101.2368 L200.7200 103.1132 "/>
<path d="M200.7200 103.1132 L200.2509 104.0513 "/>
<path d="M200.2509 104.0513 L199.7818 104.5204 "/>
<path d="M199.7818 104.5204 L198.8437 104.9895 "/>
<path d="M198.8437 104.9895 L197.9055 104.9895 "/>
<path d="M197.9055 104.9895 L196.9673 104.5204 "/>
<path d="M196.9673 104.5204 L196.4983 104.0513 "/>
<path d="M196.4983 104.0513 L196.0292 103.1132 "/>
<path d="M196.0292 103.1132 L196.0292 100.7678 "/>
<path d="M196.0292 100.7678 L196.4983 99.3605 "/>
<path d="M205.8799 95.1388 L196.0292 95.1388 "/>
<path d="M196.0292 95.1388 L203.0654 91.8552 "/>
<path d="M203.0654 91.8552 L196.0292 88.5716 "/>
<path d="M196.0292 88.5716 L205.8799 88.5716 "/>
<path d="M196.0292 82.0044 L196.0292 81.0663 "/>
<path d="M196.0292 81.0663 L196.4983 80.1281 "/>
<path d="M196.4983 80.1281 L196.9673 79.6590 "/>
<path d="M196.9673 79.6590 L197.9055 79.1899 "/>
<path d="M197.9055 79.1899 L199.7818 78.7209 "/>
<path d="M199.7818 78.7209 L202.1272 78.7209 "/>
<path d="M202.1272 78.7209 L204.0036 79.1899 "/>
<path d="M204.0036 79.1899 L204.9417 79.6590 "/>
<path d="M204.9417 79.6590 L205.4108 80.1281 "/>
<path d="M205.4108 80.1281 L205.8799 81.0663 "/>
<path d="M205.8799 81.0663 L205.8799 82.0044 "/>
<path d="M205.8799 82.0044 L205.4108 82.9426 "/>
<path d="M205.4108 82.9426 L204.9417 83.4117 "/>
<path d="M204.9417 83.4117 L204.0036 83.8808 "/>
<path d="M204.0036 83.8808 L202.1272 84.3499 "/>
<path d="M202.1272 84.3499 L199.7818 84.3499 "/>
<path d="M199.7818 84.3499 L197.9055 83.8808 "/>
<path d="M197.9055 83.8808 L196.9673 83.4117 "/>
<path d="M196.9673 83.4117 L196.4983 82.9426 "/>
<path d="M196.4983 82.9426 L196.0292 82.0044 "/>
<path d="M199.3127 70.2774 L205.8799 70.2774 "/>
<path d="M195.5601 72.6228 L202.5963 74.9682 "/>
<path d="M202.5963 74.9682 L202.5963 68.8701 "/>
<path d="M200.7200 61.8339 L201.1891 60.4266 "/>
<path d="M201.1891 60.4266 L201.6582 59.9575 "/>
<path d="M201.6582 59.9575 L202.5963 59.4884 "/>
<path d="M202.5963 59.4884 L204.0036 59.4884 "/>
<path d="M204.0036 59.4884 L204.9417 59.9575 "/>
<path d="M204.9417 59.9575 L205.4108 60.4266 "/>
<path d="M205.4108 60.4266 L205.8799 61.3648 "/>
<path d="M205.8799 61.3648 L205.8799 65.1174 "/>
<path d="M205.8799 65.1174 L196.0292 65.1174 "/>
<path d="M196.0292 65.1174 L196.0292 61.8339 "/>
<path d="M196.0292 61.8339 L196.4983 60.8957 "/>
<path d="M196.4983 60.8957 L196.9673 60.4266 "/>
<path d="M196.9673 60.4266 L197.9055 59.9575 "/>
<path d="M197.9055 59.9575 L198.8437 59.9575 "/>
<path d="M198.8437 59.9575 L199.7818 60.4266 "/>
<path d="M199.7818 60.4266 L200.2509 60.8957 "/>
<path d="M200.2509 60.8957 L200.7200 61.8339 "/>
<path d="M200.7200 61.8339 L200.7200 65.1174 "/>
<path d="M202.1272 55.2667 L202.1272 47.7614 "/>
<path d="M196.4983 37.9106 L196.0292 38.8488 "/>
<path d="M196.0292 38.8488 L196.0292 40.2560 "/>
<path d="M196.0292 40.2560 L196.4983 41.6633 "/>
<path d="M196.4983 41.6633 L197.4364 42.6015 "/>
<path d="M197.4364 42.6015 L198.3746 43.0705 "/>
<path d="M198.3746 43.0705 L200.2509 43.5396 "/>
<path d="M200.2509 43.5396 L201.6582 43.5396 "/>
<path d="M201.6582 43.5396 L203.5345 43.0705 "/>
<path d="M203.5345 43.0705 L204.4727 42.6015 "/>
<path d="M204.4727 42.6015 L205.4108 41.6633 "/>
<path d="M205.4108 41.6633 L205.8799 40.2560 "/>
<path d="M205.8799 40.2560 L205.8799 39.3179 "/>
<path d="M205.8799 39.3179 L205.4108 37.9106 "/>
<path d="M205.4108 37.9106 L204.9417 37.4415 "/>
<path d="M204.9417 37.4415 L201.6582 37.4415 "/>
<path d="M201.6582 37.4415 L201.6582 39.3179 "/>
<path d="M205.8799 33.2198 L196.0292 33.2198 "/>
<path d="M200.7200 33.2198 L200.7200 27.5908 "/>
<path d="M205.8799 27.5908 L196.0292 27.5908 "/>
<path d="M205.4108 23.3690 L205.8799 21.9618 "/>
<path d="M205.8799 21.9618 L205.8799 19.6164 "/>
<path d="M205.8799 19.6164 L205.4108 18.6782 "/>
<path d="M205.4108 18.6782 L204.9417 18.2091 "/>
<path d="M204.9417 18.2091 L204.0036 17.7401 "/>
<path d="M204.0036 17.7401 L203.0654 17.7401 "/>
<path d="M203.0654 17.7401 L202.1272 18.2091 "/>
<path d="M202.1272 18.2091 L201.6582 18.6782 "/>
<path d="M201.6582 18.6782 L201.1891 19.6164 "/>
<path d="M201.1891 19.6164 L200.7200 21.4927 "/>
<path d="M200.7200 21.4927 L200.2509 22.4309 "/>
<path d="M200.2509 22.4309 L199.7818 22.9000 "/>
<path d="M199.7818 22.9000 L198.8437 23.3690 "/>
<path d="M198.8437 23.3690 L197.9055 23.3690 "/>
<path d="M197.9055 23.3690 L196.9673 22.9000 "/>
<path d="M196.9673 22.9000 L196.4983 22.4309 "/>
<path d="M196.4983 22.4309 L196.0292 21.4927 "/>
<path d="M196.0292 21.4927 L196.0292 19.1473 "/>
<path d="M196.0292 19.1473 L196.4983 17.7401 "/>
<path d="M202.1272 13.5183 L202.1272 6.0130 "/>
<path d="M196.0292 2.7294 L196.0292 -2.8996 "/>
<path d="M205.8799 -0.0851 L196.0292 -0.0851 "/>
<path d="M200.7200 -9.4668 L201.1891 -10.8740 "/>
<path d="M201.1891 -10.8740 L201.6582 -11.3431 "/>
<path d="M201.6582 -11.3431 L202.5963 -11.8122 "/>
<path d="M202.5963 -11.8122 L204.0036 -11.8122 "/>
<path d="M204.0036 -11.8122 L204.9417 -11.3431 "/>
<path d="M204.9417 -11.3431 L205.4108 -10.8740 "/>
<path d="M205.4108 -10.8740 L205.8799 -9.9359 "/>
<path d="M205.8799 -9.9359 L205.8799 -6.1832 "/>
<path d="M205.8799 -6.1832 L196.0292 -6.1832 "/>
<path d="M196.0292 -6.1832 L196.0292 -9.4668 "/>
<path d="M196.0292 -9.4668 L196.4983 -10.4049 "/>
<path d="M196.4983 -10.4049 L196.9673 -10.8740 "/>
<path d="M196.9673 -10.8740 L197.9055 -11.3431 "/>
<path d="M197.9055 -11.3431 L198.8437 -11.3431 "/>
<path d="M198.8437 -11.3431 L199.7818 -10.8740 "/>
<path d="M199.7818 -10.8740 L200.2509 -10.4049 "/>
<path d="M200.2509 -10.4049 L200.7200 -9.4668 "/>
<path d="M200.7200 -9.4668 L200.7200 -6.1832 "/>
</g><g transform="rotate(-90.000000 162.9817 46.5887)">
<text x="162.9817" y="51.5140" textLength="19.3497" font-size="13.1343" lengthAdjust="spacingAndGlyphs" text-anchor="middle" opacity="0" stroke-opacity="0">J6</text>
</g>
<g class="stroked-text"><desc>J6</desc>
<path d="M157.6113 49.8722 L164.6475 49.8722 "/>
<path d="M164.6475 49.8722 L166.0547 50.3413 "/>
<path d="M166.0547 50.3413 L166.9929 51.2795 "/>
<path d="M166.9929 51.2795 L167.4620 52.6867 "/>
<path d="M167.4620 52.6867 L167.4620 53.6249 "/>
<path d="M157.6113 40.9597 L157.6113 42.8360 "/>
<path d="M157.6113 42.8360 L158.0803 43.7742 "/>
<path d="M158.0803 43.7742 L158.5494 44.2432 "/>
<path d="M158.5494 44.2432 L159.9567 45.1814 "/>
<path d="M159.9567 45.1814 L161.8330 45.6505 "/>
<path d="M161.8330 45.6505 L165.5857 45.6505 "/>
<path d="M165.5857 45.6505 L166.5238 45.1814 "/>
<path d="M166.5238 45.1814 L166.9929 44.7123 "/>
<path d="M166.9929 44.7123 L167.4620 43.7742 "/>
<path d="M167.4620 43.7742 L167.4620 41.8978 "/>
<path d="M167.4620 41.8978 L166.9929 40.9597 "/>
<path d="M166.9929 40.9597 L166.5238 40.4906 "/>
<path d="M166.5238 40.4906 L165.5857 40.0215 "/>
<path d="M165.5857 40.0215 L163.2403 40.0215 "/>
<path d="M163.2403 40.0215 L162.3021 40.4906 "/>
<path d="M162.3021 40.4906 L161.8330 40.9597 "/>
<path d="M161.8330 40.9597 L161.3639 41.8978 "/>
<path d="M161.3639 41.8978 L161.3639 43.7742 "/>
<path d="M161.3639 43.7742 L161.8330 44.7123 "/>
<path d="M161.8330 44.7123 L162.3021 45.1814 "/>
<path d="M162.3021 45.1814 L163.2403 45.6505 "/>
</g><g transform="rotate(-90.000000 162.9817 145.0961)">
<text x="162.9817" y="150.0215" textLength="19.3497" font-size="13.1343" lengthAdjust="spacingAndGlyphs" text-anchor="middle" opacity="0" stroke-opacity="0">J4</text>
</g>
<g class="stroked-text"><desc>J4</desc>
<path d="M157.6113 148.3797 L164.6475 148.3797 "/>
<path d="M164.6475 148.3797 L166.0547 148.8488 "/>
<path d="M166.0547 148.8488 L166.9929 149.7870 "/>
<path d="M166.9929 149.7870 L167.4620 151.1942 "/>
<path d="M167.4620 151.1942 L167.4620 152.1324 "/>
<path d="M160.8948 139.4671 L167.4620 139.4671 "/>
<path d="M157.1422 141.8125 L164.1784 144.1580 "/>
<path d="M164.1784 144.1580 L164.1784 138.0599 "/>
</g></g>
<g style="fill:none;  stroke:#848484; stroke-width:0.9851; stroke-opacity:1;  stroke-linecap:round; stroke-linejoin:round;">
<path d="M147.2205 5.9543 L187.1160 5.9543 "/>
<path d="M147.2205 69.9842 L154.1860 65.0588 "/>
<path d="M147.2205 87.2230 L147.2205 5.9543 "/>
<path d="M147.2205 87.2230 L187.1160 87.2230 "/>
<path d="M154.1860 65.0588 L147.2205 60.1334 "/>
<path d="M187.1160 87.2230 L187.1160 5.9543 "/>
<path d="M147.2205 104.4618 L187.1160 104.4618 "/>
<path d="M147.2205 168.4917 L154.1860 163.5663 "/>
<path d="M147.2205 185.7305 L147.2205 104.4618 "/>
<path d="M147.2205 185.7305 L187.1160 185.7305 "/>
<path d="M154.1860 163.5663 L147.2205 158.6409 "/>
<path d="M187.1160 185.7305 L187.1160 104.4618 "/>
</g> 
<svg:g><svg:g><svg:title>SVG Image created as TFI2CADC01-Edge_Cuts1.svg date 2025/09/28 00:46:37 </svg:title>
  <svg:desc>Image generated by PCBNEW </svg:desc>
<svg:g style="fill:#C2C200; fill-opacity:1.0000;stroke:#C2C200; stroke-opacity:1.0000; stroke-linecap:round; stroke-linejoin:round;" transform="translate(0 0) scale(1 1)">
</svg:g>
<svg:g style="fill:none;  stroke:#C2C200; stroke-width:1.4776; stroke-opacity:1;  stroke-linecap:round; stroke-linejoin:round;">
<svg:path d="M138.6504 203.5111 A14.7761 14.7761 0.0 0 0 109.0981 203.5111"/>
<svg:path d="M237.1578 203.5111 A14.7761 14.7761 0.0 0 0 207.6056 203.5111"/>
<svg:path d="M237.1578 6.4961 L296.2623 6.4961 "/>
<svg:path d="M109.0981 203.5111 L40.1429 203.5111 "/>
<svg:path d="M10.5907 6.4961 A14.7761 14.7761 0.0 0 0 40.1429 6.4961"/>
<svg:path d="M138.6504 6.4961 L207.6056 6.4961 "/>
<svg:path d="M10.5907 203.5111 L0.7399 203.5111 "/>
<svg:path d="M40.1429 6.4961 L109.0981 6.4961 "/>
<svg:path d="M0.7399 203.5111 L0.7399 6.4961 "/>
<svg:path d="M296.2623 203.5111 L237.1578 203.5111 "/>
<svg:path d="M207.6056 203.5111 L138.6504 203.5111 "/>
<svg:path d="M40.1429 203.5111 A14.7761 14.7761 0.0 0 0 10.5907 203.5111"/>
<svg:path d="M0.7399 6.4961 L10.5907 6.4961 "/>
<svg:path d="M207.6056 6.4961 A14.7761 14.7761 0.0 0 0 237.1578 6.4961"/>
<svg:path d="M109.0981 6.4961 A14.7761 14.7761 0.0 0 0 138.6504 6.4961"/>
<svg:path d="M296.2623 6.4961 L296.2623 203.5111 "/>
</svg:g> 
</svg:g></svg:g></svg>
