<?xml version='1.0' encoding='ASCII' standalone='yes'?>
<svg xmlns:svg="http://www.w3.org/2000/svg" xmlns="http://www.w3.org/2000/svg" xmlns:xlink="http://www.w3.org/1999/xlink" version="1.1" width="297.0022mm" height="210.0072mm" viewBox="0.0000 0.0000 297.0022 210.0072">
<title>SVG Image created as TFI2CADC01-B_Fab0.svg date 2025/09/28 00:46:37 </title>
  <desc>Image generated by PCBNEW </desc>
<g style="fill:#000084; fill-opacity:1.0000;stroke:#000084; stroke-opacity:1.0000; stroke-linecap:round; stroke-linejoin:round;" transform="translate(0 0) scale(1 1)">
</g>
<g style="fill:none;  stroke:#000084; stroke-width:0.5910; stroke-opacity:1;  stroke-linecap:round; stroke-linejoin:round;">
<text x="207.9011" y="11.4294" textLength="8.6780" font-size="5.2537" lengthAdjust="spacingAndGlyphs" text-anchor="middle" opacity="0" stroke-opacity="0">R7</text>
<g class="stroked-text"><desc>R7</desc>
<path d="M207.2444 11.2514 L205.9310 9.3750 "/>
<path d="M204.9928 11.2514 L204.9928 7.3111 "/>
<path d="M204.9928 7.3111 L206.4939 7.3111 "/>
<path d="M206.4939 7.3111 L206.8691 7.4987 "/>
<path d="M206.8691 7.4987 L207.0567 7.6863 "/>
<path d="M207.0567 7.6863 L207.2444 8.0616 "/>
<path d="M207.2444 8.0616 L207.2444 8.6245 "/>
<path d="M207.2444 8.6245 L207.0567 8.9998 "/>
<path d="M207.0567 8.9998 L206.8691 9.1874 "/>
<path d="M206.8691 9.1874 L206.4939 9.3750 "/>
<path d="M206.4939 9.3750 L204.9928 9.3750 "/>
<path d="M208.5578 7.3111 L211.1847 7.3111 "/>
<path d="M211.1847 7.3111 L209.4960 11.2514 "/>
</g><g transform="rotate(90.000000 268.9757 140.1708)">
<text x="268.9757" y="142.1409" textLength="8.6780" font-size="5.2537" lengthAdjust="spacingAndGlyphs" text-anchor="middle" opacity="0" stroke-opacity="0">D1</text>
</g>
<g class="stroked-text"><desc>D1</desc>
<path d="M267.1836 137.2624 L271.1239 137.2624 "/>
<path d="M271.1239 137.2624 L271.1239 138.2006 "/>
<path d="M271.1239 138.2006 L270.9363 138.7635 "/>
<path d="M270.9363 138.7635 L270.5610 139.1388 "/>
<path d="M270.5610 139.1388 L270.1857 139.3264 "/>
<path d="M270.1857 139.3264 L269.4352 139.5140 "/>
<path d="M269.4352 139.5140 L268.8723 139.5140 "/>
<path d="M268.8723 139.5140 L268.1218 139.3264 "/>
<path d="M268.1218 139.3264 L267.7465 139.1388 "/>
<path d="M267.7465 139.1388 L267.3712 138.7635 "/>
<path d="M267.3712 138.7635 L267.1836 138.2006 "/>
<path d="M267.1836 138.2006 L267.1836 137.2624 "/>
<path d="M267.1836 143.2667 L267.1836 141.0151 "/>
<path d="M267.1836 142.1409 L271.1239 142.1409 "/>
<path d="M271.1239 142.1409 L270.5610 141.7656 "/>
<path d="M270.5610 141.7656 L270.1857 141.3904 "/>
<path d="M270.1857 141.3904 L269.9981 141.0151 "/>
</g><text x="188.1484" y="191.0794" textLength="8.6780" font-size="5.2537" lengthAdjust="spacingAndGlyphs" text-anchor="middle" opacity="0" stroke-opacity="0">C2</text>
<g class="stroked-text"><desc>C2</desc>
<path d="M187.4917 190.5261 L187.3040 190.7138 "/>
<path d="M187.3040 190.7138 L186.7411 190.9014 "/>
<path d="M186.7411 190.9014 L186.3659 190.9014 "/>
<path d="M186.3659 190.9014 L185.8030 190.7138 "/>
<path d="M185.8030 190.7138 L185.4277 190.3385 "/>
<path d="M185.4277 190.3385 L185.2401 189.9632 "/>
<path d="M185.2401 189.9632 L185.0524 189.2127 "/>
<path d="M185.0524 189.2127 L185.0524 188.6498 "/>
<path d="M185.0524 188.6498 L185.2401 187.8993 "/>
<path d="M185.2401 187.8993 L185.4277 187.5240 "/>
<path d="M185.4277 187.5240 L185.8030 187.1487 "/>
<path d="M185.8030 187.1487 L186.3659 186.9611 "/>
<path d="M186.3659 186.9611 L186.7411 186.9611 "/>
<path d="M186.7411 186.9611 L187.3040 187.1487 "/>
<path d="M187.3040 187.1487 L187.4917 187.3364 "/>
<path d="M188.9927 187.3364 L189.1804 187.1487 "/>
<path d="M189.1804 187.1487 L189.5556 186.9611 "/>
<path d="M189.5556 186.9611 L190.4938 186.9611 "/>
<path d="M190.4938 186.9611 L190.8691 187.1487 "/>
<path d="M190.8691 187.1487 L191.0567 187.3364 "/>
<path d="M191.0567 187.3364 L191.2443 187.7116 "/>
<path d="M191.2443 187.7116 L191.2443 188.0869 "/>
<path d="M191.2443 188.0869 L191.0567 188.6498 "/>
<path d="M191.0567 188.6498 L188.8051 190.9014 "/>
<path d="M188.8051 190.9014 L191.2443 190.9014 "/>
</g></g>
<g style="fill:none;  stroke:#000084; stroke-width:1.4776; stroke-opacity:1;  stroke-linecap:round; stroke-linejoin:round;">
<g transform="rotate(90.000000 287.7315 171.3444)">
<text x="287.7315" y="176.2698" textLength="21.6951" font-size="13.1343" lengthAdjust="spacingAndGlyphs" text-anchor="middle" opacity="0" stroke-opacity="0">D2</text>
</g>
<g class="stroked-text"><desc>D2</desc>
<path d="M283.2512 164.0736 L293.1020 164.0736 "/>
<path d="M293.1020 164.0736 L293.1020 166.4191 "/>
<path d="M293.1020 166.4191 L292.6329 167.8263 "/>
<path d="M292.6329 167.8263 L291.6947 168.7645 "/>
<path d="M291.6947 168.7645 L290.7566 169.2336 "/>
<path d="M290.7566 169.2336 L288.8802 169.7026 "/>
<path d="M288.8802 169.7026 L287.4730 169.7026 "/>
<path d="M287.4730 169.7026 L285.5967 169.2336 "/>
<path d="M285.5967 169.2336 L284.6585 168.7645 "/>
<path d="M284.6585 168.7645 L283.7203 167.8263 "/>
<path d="M283.7203 167.8263 L283.2512 166.4191 "/>
<path d="M283.2512 166.4191 L283.2512 164.0736 "/>
<path d="M292.1638 173.4553 L292.6329 173.9244 "/>
<path d="M292.6329 173.9244 L293.1020 174.8626 "/>
<path d="M293.1020 174.8626 L293.1020 177.2080 "/>
<path d="M293.1020 177.2080 L292.6329 178.1461 "/>
<path d="M292.6329 178.1461 L292.1638 178.6152 "/>
<path d="M292.1638 178.6152 L291.2257 179.0843 "/>
<path d="M291.2257 179.0843 L290.2875 179.0843 "/>
<path d="M290.2875 179.0843 L288.8802 178.6152 "/>
<path d="M288.8802 178.6152 L283.2512 172.9862 "/>
<path d="M283.2512 172.9862 L283.2512 179.0843 "/>
</g></g>
<g style="fill:none;  stroke:#000084; stroke-width:0.5910; stroke-opacity:1;  stroke-linecap:round; stroke-linejoin:round;">
<g transform="rotate(90.000000 172.6354 145.4527)">
<text x="172.6354" y="147.4229" textLength="8.6780" font-size="5.2537" lengthAdjust="spacingAndGlyphs" text-anchor="middle" opacity="0" stroke-opacity="0">R5</text>
</g>
<g class="stroked-text"><desc>R5</desc>
<path d="M170.8433 144.7960 L172.7196 143.4826 "/>
<path d="M170.8433 142.5444 L174.7836 142.5444 "/>
<path d="M174.7836 142.5444 L174.7836 144.0455 "/>
<path d="M174.7836 144.0455 L174.5960 144.4207 "/>
<path d="M174.5960 144.4207 L174.4083 144.6084 "/>
<path d="M174.4083 144.6084 L174.0331 144.7960 "/>
<path d="M174.0331 144.7960 L173.4702 144.7960 "/>
<path d="M173.4702 144.7960 L173.0949 144.6084 "/>
<path d="M173.0949 144.6084 L172.9073 144.4207 "/>
<path d="M172.9073 144.4207 L172.7196 144.0455 "/>
<path d="M172.7196 144.0455 L172.7196 142.5444 "/>
<path d="M174.7836 148.3610 L174.7836 146.4847 "/>
<path d="M174.7836 146.4847 L172.9073 146.2971 "/>
<path d="M172.9073 146.2971 L173.0949 146.4847 "/>
<path d="M173.0949 146.4847 L173.2825 146.8600 "/>
<path d="M173.2825 146.8600 L173.2825 147.7981 "/>
<path d="M173.2825 147.7981 L173.0949 148.1734 "/>
<path d="M173.0949 148.1734 L172.9073 148.3610 "/>
<path d="M172.9073 148.3610 L172.5320 148.5487 "/>
<path d="M172.5320 148.5487 L171.5938 148.5487 "/>
<path d="M171.5938 148.5487 L171.2186 148.3610 "/>
<path d="M171.2186 148.3610 L171.0309 148.1734 "/>
<path d="M171.0309 148.1734 L170.8433 147.7981 "/>
<path d="M170.8433 147.7981 L170.8433 146.8600 "/>
<path d="M170.8433 146.8600 L171.0309 146.4847 "/>
<path d="M171.0309 146.4847 L171.2186 146.2971 "/>
</g><g transform="rotate(90.000000 188.8990 113.4260)">
<text x="188.8990" y="115.3961" textLength="12.4307" font-size="5.2537" lengthAdjust="spacingAndGlyphs" text-anchor="middle" opacity="0" stroke-opacity="0">R16</text>
</g>
<g class="stroked-text"><desc>R16</desc>
<path d="M187.1069 110.8929 L188.9832 109.5795 "/>
<path d="M187.1069 108.6413 L191.0472 108.6413 "/>
<path d="M191.0472 108.6413 L191.0472 110.1424 "/>
<path d="M191.0472 110.1424 L190.8596 110.5177 "/>
<path d="M190.8596 110.5177 L190.6719 110.7053 "/>
<path d="M190.6719 110.7053 L190.2967 110.8929 "/>
<path d="M190.2967 110.8929 L189.7338 110.8929 "/>
<path d="M189.7338 110.8929 L189.3585 110.7053 "/>
<path d="M189.3585 110.7053 L189.1709 110.5177 "/>
<path d="M189.1709 110.5177 L188.9832 110.1424 "/>
<path d="M188.9832 110.1424 L188.9832 108.6413 "/>
<path d="M187.1069 114.6456 L187.1069 112.3940 "/>
<path d="M187.1069 113.5198 L191.0472 113.5198 "/>
<path d="M191.0472 113.5198 L190.4843 113.1445 "/>
<path d="M190.4843 113.1445 L190.1090 112.7693 "/>
<path d="M190.1090 112.7693 L189.9214 112.3940 "/>
<path d="M191.0472 118.0230 L191.0472 117.2725 "/>
<path d="M191.0472 117.2725 L190.8596 116.8972 "/>
<path d="M190.8596 116.8972 L190.6719 116.7096 "/>
<path d="M190.6719 116.7096 L190.1090 116.3343 "/>
<path d="M190.1090 116.3343 L189.3585 116.1467 "/>
<path d="M189.3585 116.1467 L187.8574 116.1467 "/>
<path d="M187.8574 116.1467 L187.4822 116.3343 "/>
<path d="M187.4822 116.3343 L187.2945 116.5219 "/>
<path d="M187.2945 116.5219 L187.1069 116.8972 "/>
<path d="M187.1069 116.8972 L187.1069 117.6477 "/>
<path d="M187.1069 117.6477 L187.2945 118.0230 "/>
<path d="M187.2945 118.0230 L187.4822 118.2106 "/>
<path d="M187.4822 118.2106 L187.8574 118.3983 "/>
<path d="M187.8574 118.3983 L188.7956 118.3983 "/>
<path d="M188.7956 118.3983 L189.1709 118.2106 "/>
<path d="M189.1709 118.2106 L189.3585 118.0230 "/>
<path d="M189.3585 118.0230 L189.5461 117.6477 "/>
<path d="M189.5461 117.6477 L189.5461 116.8972 "/>
<path d="M189.5461 116.8972 L189.3585 116.5219 "/>
<path d="M189.3585 116.5219 L189.1709 116.3343 "/>
<path d="M189.1709 116.3343 L188.7956 116.1467 "/>
</g><text x="188.1484" y="174.7075" textLength="8.6780" font-size="5.2537" lengthAdjust="spacingAndGlyphs" text-anchor="middle" opacity="0" stroke-opacity="0">C3</text>
<g class="stroked-text"><desc>C3</desc>
<path d="M187.4917 174.1542 L187.3040 174.3418 "/>
<path d="M187.3040 174.3418 L186.7411 174.5294 "/>
<path d="M186.7411 174.5294 L186.3659 174.5294 "/>
<path d="M186.3659 174.5294 L185.8030 174.3418 "/>
<path d="M185.8030 174.3418 L185.4277 173.9665 "/>
<path d="M185.4277 173.9665 L185.2401 173.5913 "/>
<path d="M185.2401 173.5913 L185.0524 172.8408 "/>
<path d="M185.0524 172.8408 L185.0524 172.2778 "/>
<path d="M185.0524 172.2778 L185.2401 171.5273 "/>
<path d="M185.2401 171.5273 L185.4277 171.1520 "/>
<path d="M185.4277 171.1520 L185.8030 170.7768 "/>
<path d="M185.8030 170.7768 L186.3659 170.5891 "/>
<path d="M186.3659 170.5891 L186.7411 170.5891 "/>
<path d="M186.7411 170.5891 L187.3040 170.7768 "/>
<path d="M187.3040 170.7768 L187.4917 170.9644 "/>
<path d="M188.8051 170.5891 L191.2443 170.5891 "/>
<path d="M191.2443 170.5891 L189.9309 172.0902 "/>
<path d="M189.9309 172.0902 L190.4938 172.0902 "/>
<path d="M190.4938 172.0902 L190.8691 172.2778 "/>
<path d="M190.8691 172.2778 L191.0567 172.4655 "/>
<path d="M191.0567 172.4655 L191.2443 172.8408 "/>
<path d="M191.2443 172.8408 L191.2443 173.7789 "/>
<path d="M191.2443 173.7789 L191.0567 174.1542 "/>
<path d="M191.0567 174.1542 L190.8691 174.3418 "/>
<path d="M190.8691 174.3418 L190.4938 174.5294 "/>
<path d="M190.4938 174.5294 L189.3680 174.5294 "/>
<path d="M189.3680 174.5294 L188.9927 174.3418 "/>
<path d="M188.9927 174.3418 L188.8051 174.1542 "/>
</g><g transform="rotate(90.000000 266.4638 14.8437)">
<text x="266.4638" y="16.8138" textLength="12.4307" font-size="5.2537" lengthAdjust="spacingAndGlyphs" text-anchor="middle" opacity="0" stroke-opacity="0">R15</text>
</g>
<g class="stroked-text"><desc>R15</desc>
<path d="M264.6717 12.3106 L266.5480 10.9972 "/>
<path d="M264.6717 10.0590 L268.6120 10.0590 "/>
<path d="M268.6120 10.0590 L268.6120 11.5601 "/>
<path d="M268.6120 11.5601 L268.4243 11.9353 "/>
<path d="M268.4243 11.9353 L268.2367 12.1230 "/>
<path d="M268.2367 12.1230 L267.8614 12.3106 "/>
<path d="M267.8614 12.3106 L267.2985 12.3106 "/>
<path d="M267.2985 12.3106 L266.9233 12.1230 "/>
<path d="M266.9233 12.1230 L266.7356 11.9353 "/>
<path d="M266.7356 11.9353 L266.5480 11.5601 "/>
<path d="M266.5480 11.5601 L266.5480 10.0590 "/>
<path d="M264.6717 16.0633 L264.6717 13.8117 "/>
<path d="M264.6717 14.9375 L268.6120 14.9375 "/>
<path d="M268.6120 14.9375 L268.0491 14.5622 "/>
<path d="M268.0491 14.5622 L267.6738 14.1869 "/>
<path d="M267.6738 14.1869 L267.4862 13.8117 "/>
<path d="M268.6120 19.6283 L268.6120 17.7520 "/>
<path d="M268.6120 17.7520 L266.7356 17.5643 "/>
<path d="M266.7356 17.5643 L266.9233 17.7520 "/>
<path d="M266.9233 17.7520 L267.1109 18.1272 "/>
<path d="M267.1109 18.1272 L267.1109 19.0654 "/>
<path d="M267.1109 19.0654 L266.9233 19.4407 "/>
<path d="M266.9233 19.4407 L266.7356 19.6283 "/>
<path d="M266.7356 19.6283 L266.3604 19.8159 "/>
<path d="M266.3604 19.8159 L265.4222 19.8159 "/>
<path d="M265.4222 19.8159 L265.0469 19.6283 "/>
<path d="M265.0469 19.6283 L264.8593 19.4407 "/>
<path d="M264.8593 19.4407 L264.6717 19.0654 "/>
<path d="M264.6717 19.0654 L264.6717 18.1272 "/>
<path d="M264.6717 18.1272 L264.8593 17.7520 "/>
<path d="M264.8593 17.7520 L265.0469 17.5643 "/>
</g><text x="241.3936" y="34.6988" textLength="12.4307" font-size="5.2537" lengthAdjust="spacingAndGlyphs" text-anchor="middle" opacity="0" stroke-opacity="0">R12</text>
<g class="stroked-text"><desc>R12</desc>
<path d="M238.8606 34.5208 L237.5472 32.6445 "/>
<path d="M236.6090 34.5208 L236.6090 30.5805 "/>
<path d="M236.6090 30.5805 L238.1101 30.5805 "/>
<path d="M238.1101 30.5805 L238.4853 30.7681 "/>
<path d="M238.4853 30.7681 L238.6730 30.9558 "/>
<path d="M238.6730 30.9558 L238.8606 31.3310 "/>
<path d="M238.8606 31.3310 L238.8606 31.8939 "/>
<path d="M238.8606 31.8939 L238.6730 32.2692 "/>
<path d="M238.6730 32.2692 L238.4853 32.4568 "/>
<path d="M238.4853 32.4568 L238.1101 32.6445 "/>
<path d="M238.1101 32.6445 L236.6090 32.6445 "/>
<path d="M242.6133 34.5208 L240.3617 34.5208 "/>
<path d="M241.4875 34.5208 L241.4875 30.5805 "/>
<path d="M241.4875 30.5805 L241.1122 31.1434 "/>
<path d="M241.1122 31.1434 L240.7369 31.5187 "/>
<path d="M240.7369 31.5187 L240.3617 31.7063 "/>
<path d="M244.1143 30.9558 L244.3020 30.7681 "/>
<path d="M244.3020 30.7681 L244.6772 30.5805 "/>
<path d="M244.6772 30.5805 L245.6154 30.5805 "/>
<path d="M245.6154 30.5805 L245.9907 30.7681 "/>
<path d="M245.9907 30.7681 L246.1783 30.9558 "/>
<path d="M246.1783 30.9558 L246.3659 31.3310 "/>
<path d="M246.3659 31.3310 L246.3659 31.7063 "/>
<path d="M246.3659 31.7063 L246.1783 32.2692 "/>
<path d="M246.1783 32.2692 L243.9267 34.5208 "/>
<path d="M243.9267 34.5208 L246.3659 34.5208 "/>
</g></g>
<g style="fill:none;  stroke:#000084; stroke-width:1.4776; stroke-opacity:1;  stroke-linecap:round; stroke-linejoin:round;">
<g transform="rotate(90.000000 134.0205 46.5887)">
<text x="134.0205" y="51.5140" textLength="19.3497" font-size="13.1343" lengthAdjust="spacingAndGlyphs" text-anchor="middle" opacity="0" stroke-opacity="0">J5</text>
</g>
<g class="stroked-text"><desc>J5</desc>
<path d="M139.3909 43.3051 L132.3547 43.3051 "/>
<path d="M132.3547 43.3051 L130.9475 42.8360 "/>
<path d="M130.9475 42.8360 L130.0093 41.8978 "/>
<path d="M130.0093 41.8978 L129.5402 40.4906 "/>
<path d="M129.5402 40.4906 L129.5402 39.5524 "/>
<path d="M139.3909 52.6867 L139.3909 47.9959 "/>
<path d="M139.3909 47.9959 L134.7001 47.5268 "/>
<path d="M134.7001 47.5268 L135.1692 47.9959 "/>
<path d="M135.1692 47.9959 L135.6383 48.9341 "/>
<path d="M135.6383 48.9341 L135.6383 51.2795 "/>
<path d="M135.6383 51.2795 L135.1692 52.2177 "/>
<path d="M135.1692 52.2177 L134.7001 52.6867 "/>
<path d="M134.7001 52.6867 L133.7619 53.1558 "/>
<path d="M133.7619 53.1558 L131.4165 53.1558 "/>
<path d="M131.4165 53.1558 L130.4784 52.6867 "/>
<path d="M130.4784 52.6867 L130.0093 52.2177 "/>
<path d="M130.0093 52.2177 L129.5402 51.2795 "/>
<path d="M129.5402 51.2795 L129.5402 48.9341 "/>
<path d="M129.5402 48.9341 L130.0093 47.9959 "/>
<path d="M130.0093 47.9959 L130.4784 47.5268 "/>
</g></g>
<g style="fill:none;  stroke:#000084; stroke-width:0.5910; stroke-opacity:1;  stroke-linecap:round; stroke-linejoin:round;">
<g transform="rotate(90.000000 182.6438 14.9638)">
<text x="182.6438" y="16.9340" textLength="8.6780" font-size="5.2537" lengthAdjust="spacingAndGlyphs" text-anchor="middle" opacity="0" stroke-opacity="0">R8</text>
</g>
<g class="stroked-text"><desc>R8</desc>
<path d="M180.8517 14.3071 L182.7280 12.9937 "/>
<path d="M180.8517 12.0555 L184.7920 12.0555 "/>
<path d="M184.7920 12.0555 L184.7920 13.5566 "/>
<path d="M184.7920 13.5566 L184.6043 13.9319 "/>
<path d="M184.6043 13.9319 L184.4167 14.1195 "/>
<path d="M184.4167 14.1195 L184.0414 14.3071 "/>
<path d="M184.0414 14.3071 L183.4785 14.3071 "/>
<path d="M183.4785 14.3071 L183.1033 14.1195 "/>
<path d="M183.1033 14.1195 L182.9156 13.9319 "/>
<path d="M182.9156 13.9319 L182.7280 13.5566 "/>
<path d="M182.7280 13.5566 L182.7280 12.0555 "/>
<path d="M183.1033 16.5587 L183.2909 16.1834 "/>
<path d="M183.2909 16.1834 L183.4785 15.9958 "/>
<path d="M183.4785 15.9958 L183.8538 15.8082 "/>
<path d="M183.8538 15.8082 L184.0414 15.8082 "/>
<path d="M184.0414 15.8082 L184.4167 15.9958 "/>
<path d="M184.4167 15.9958 L184.6043 16.1834 "/>
<path d="M184.6043 16.1834 L184.7920 16.5587 "/>
<path d="M184.7920 16.5587 L184.7920 17.3092 "/>
<path d="M184.7920 17.3092 L184.6043 17.6845 "/>
<path d="M184.6043 17.6845 L184.4167 17.8721 "/>
<path d="M184.4167 17.8721 L184.0414 18.0598 "/>
<path d="M184.0414 18.0598 L183.8538 18.0598 "/>
<path d="M183.8538 18.0598 L183.4785 17.8721 "/>
<path d="M183.4785 17.8721 L183.2909 17.6845 "/>
<path d="M183.2909 17.6845 L183.1033 17.3092 "/>
<path d="M183.1033 17.3092 L183.1033 16.5587 "/>
<path d="M183.1033 16.5587 L182.9156 16.1834 "/>
<path d="M182.9156 16.1834 L182.7280 15.9958 "/>
<path d="M182.7280 15.9958 L182.3527 15.8082 "/>
<path d="M182.3527 15.8082 L181.6022 15.8082 "/>
<path d="M181.6022 15.8082 L181.2269 15.9958 "/>
<path d="M181.2269 15.9958 L181.0393 16.1834 "/>
<path d="M181.0393 16.1834 L180.8517 16.5587 "/>
<path d="M180.8517 16.5587 L180.8517 17.3092 "/>
<path d="M180.8517 17.3092 L181.0393 17.6845 "/>
<path d="M181.0393 17.6845 L181.2269 17.8721 "/>
<path d="M181.2269 17.8721 L181.6022 18.0598 "/>
<path d="M181.6022 18.0598 L182.3527 18.0598 "/>
<path d="M182.3527 18.0598 L182.7280 17.8721 "/>
<path d="M182.7280 17.8721 L182.9156 17.6845 "/>
<path d="M182.9156 17.6845 L183.1033 17.3092 "/>
</g></g>
<g style="fill:none;  stroke:#000084; stroke-width:1.4776; stroke-opacity:1;  stroke-linecap:round; stroke-linejoin:round;">
<g transform="rotate(90.000000 315.2742 145.0961)">
<text x="315.2742" y="150.0215" textLength="19.3497" font-size="13.1343" lengthAdjust="spacingAndGlyphs" text-anchor="middle" opacity="0" stroke-opacity="0">J1</text>
</g>
<g class="stroked-text"><desc>J1</desc>
<path d="M320.6447 141.8125 L313.6084 141.8125 "/>
<path d="M313.6084 141.8125 L312.2012 141.3435 "/>
<path d="M312.2012 141.3435 L311.2630 140.4053 "/>
<path d="M311.2630 140.4053 L310.7939 138.9980 "/>
<path d="M310.7939 138.9980 L310.7939 138.0599 "/>
<path d="M310.7939 151.6633 L310.7939 146.0343 "/>
<path d="M310.7939 148.8488 L320.6447 148.8488 "/>
<path d="M320.6447 148.8488 L319.2374 147.9106 "/>
<path d="M319.2374 147.9106 L318.2993 146.9725 "/>
<path d="M318.2993 146.9725 L317.8302 146.0343 "/>
</g></g>
<g style="fill:none;  stroke:#000084; stroke-width:0.5910; stroke-opacity:1;  stroke-linecap:round; stroke-linejoin:round;">
<text x="241.3936" y="11.4294" textLength="12.4307" font-size="5.2537" lengthAdjust="spacingAndGlyphs" text-anchor="middle" opacity="0" stroke-opacity="0">R14</text>
<g class="stroked-text"><desc>R14</desc>
<path d="M238.8606 11.2514 L237.5472 9.3750 "/>
<path d="M236.6090 11.2514 L236.6090 7.3111 "/>
<path d="M236.6090 7.3111 L238.1101 7.3111 "/>
<path d="M238.1101 7.3111 L238.4853 7.4987 "/>
<path d="M238.4853 7.4987 L238.6730 7.6863 "/>
<path d="M238.6730 7.6863 L238.8606 8.0616 "/>
<path d="M238.8606 8.0616 L238.8606 8.6245 "/>
<path d="M238.8606 8.6245 L238.6730 8.9998 "/>
<path d="M238.6730 8.9998 L238.4853 9.1874 "/>
<path d="M238.4853 9.1874 L238.1101 9.3750 "/>
<path d="M238.1101 9.3750 L236.6090 9.3750 "/>
<path d="M242.6133 11.2514 L240.3617 11.2514 "/>
<path d="M241.4875 11.2514 L241.4875 7.3111 "/>
<path d="M241.4875 7.3111 L241.1122 7.8740 "/>
<path d="M241.1122 7.8740 L240.7369 8.2492 "/>
<path d="M240.7369 8.2492 L240.3617 8.4369 "/>
<path d="M245.9907 8.6245 L245.9907 11.2514 "/>
<path d="M245.0525 7.1234 L244.1143 9.9379 "/>
<path d="M244.1143 9.9379 L246.5536 9.9379 "/>
</g><g transform="rotate(90.000000 224.6789 164.0884)">
<text x="224.6789" y="166.0585" textLength="8.8657" font-size="5.2537" lengthAdjust="spacingAndGlyphs" text-anchor="middle" opacity="0" stroke-opacity="0">U1</text>
</g>
<g class="stroked-text"><desc>U1</desc>
<path d="M226.8271 161.0862 L223.6373 161.0862 "/>
<path d="M223.6373 161.0862 L223.2620 161.2739 "/>
<path d="M223.2620 161.2739 L223.0744 161.4615 "/>
<path d="M223.0744 161.4615 L222.8868 161.8368 "/>
<path d="M222.8868 161.8368 L222.8868 162.5873 "/>
<path d="M222.8868 162.5873 L223.0744 162.9626 "/>
<path d="M223.0744 162.9626 L223.2620 163.1502 "/>
<path d="M223.2620 163.1502 L223.6373 163.3378 "/>
<path d="M223.6373 163.3378 L226.8271 163.3378 "/>
<path d="M222.8868 167.2781 L222.8868 165.0265 "/>
<path d="M222.8868 166.1523 L226.8271 166.1523 "/>
<path d="M226.8271 166.1523 L226.2642 165.7771 "/>
<path d="M226.2642 165.7771 L225.8889 165.4018 "/>
<path d="M225.8889 165.4018 L225.7013 165.0265 "/>
</g><g transform="rotate(90.000000 266.4638 46.3700)">
<text x="266.4638" y="48.3401" textLength="12.4307" font-size="5.2537" lengthAdjust="spacingAndGlyphs" text-anchor="middle" opacity="0" stroke-opacity="0">R13</text>
</g>
<g class="stroked-text"><desc>R13</desc>
<path d="M264.6717 43.8369 L266.5480 42.5235 "/>
<path d="M264.6717 41.5853 L268.6120 41.5853 "/>
<path d="M268.6120 41.5853 L268.6120 43.0864 "/>
<path d="M268.6120 43.0864 L268.4243 43.4617 "/>
<path d="M268.4243 43.4617 L268.2367 43.6493 "/>
<path d="M268.2367 43.6493 L267.8614 43.8369 "/>
<path d="M267.8614 43.8369 L267.2985 43.8369 "/>
<path d="M267.2985 43.8369 L266.9233 43.6493 "/>
<path d="M266.9233 43.6493 L266.7356 43.4617 "/>
<path d="M266.7356 43.4617 L266.5480 43.0864 "/>
<path d="M266.5480 43.0864 L266.5480 41.5853 "/>
<path d="M264.6717 47.5896 L264.6717 45.3380 "/>
<path d="M264.6717 46.4638 L268.6120 46.4638 "/>
<path d="M268.6120 46.4638 L268.0491 46.0885 "/>
<path d="M268.0491 46.0885 L267.6738 45.7133 "/>
<path d="M267.6738 45.7133 L267.4862 45.3380 "/>
<path d="M268.6120 48.9030 L268.6120 51.3423 "/>
<path d="M268.6120 51.3423 L267.1109 50.0288 "/>
<path d="M267.1109 50.0288 L267.1109 50.5917 "/>
<path d="M267.1109 50.5917 L266.9233 50.9670 "/>
<path d="M266.9233 50.9670 L266.7356 51.1546 "/>
<path d="M266.7356 51.1546 L266.3604 51.3423 "/>
<path d="M266.3604 51.3423 L265.4222 51.3423 "/>
<path d="M265.4222 51.3423 L265.0469 51.1546 "/>
<path d="M265.0469 51.1546 L264.8593 50.9670 "/>
<path d="M264.8593 50.9670 L264.6717 50.5917 "/>
<path d="M264.6717 50.5917 L264.6717 49.4659 "/>
<path d="M264.6717 49.4659 L264.8593 49.0907 "/>
<path d="M264.8593 49.0907 L265.0469 48.9030 "/>
</g><g transform="rotate(90.000000 251.2010 139.5679)">
<text x="251.2010" y="141.5380" textLength="8.6780" font-size="5.2537" lengthAdjust="spacingAndGlyphs" text-anchor="middle" opacity="0" stroke-opacity="0">R1</text>
</g>
<g class="stroked-text"><desc>R1</desc>
<path d="M249.4089 138.9112 L251.2853 137.5977 "/>
<path d="M249.4089 136.6596 L253.3492 136.6596 "/>
<path d="M253.3492 136.6596 L253.3492 138.1606 "/>
<path d="M253.3492 138.1606 L253.1616 138.5359 "/>
<path d="M253.1616 138.5359 L252.9740 138.7235 "/>
<path d="M252.9740 138.7235 L252.5987 138.9112 "/>
<path d="M252.5987 138.9112 L252.0358 138.9112 "/>
<path d="M252.0358 138.9112 L251.6605 138.7235 "/>
<path d="M251.6605 138.7235 L251.4729 138.5359 "/>
<path d="M251.4729 138.5359 L251.2853 138.1606 "/>
<path d="M251.2853 138.1606 L251.2853 136.6596 "/>
<path d="M249.4089 142.6638 L249.4089 140.4122 "/>
<path d="M249.4089 141.5380 L253.3492 141.5380 "/>
<path d="M253.3492 141.5380 L252.7863 141.1628 "/>
<path d="M252.7863 141.1628 L252.4111 140.7875 "/>
<path d="M252.4111 140.7875 L252.2234 140.4122 "/>
</g><g transform="rotate(90.000000 189.1492 145.6931)">
<text x="189.1492" y="147.6632" textLength="8.6780" font-size="5.2537" lengthAdjust="spacingAndGlyphs" text-anchor="middle" opacity="0" stroke-opacity="0">R6</text>
</g>
<g class="stroked-text"><desc>R6</desc>
<path d="M187.3571 145.0364 L189.2334 143.7229 "/>
<path d="M187.3571 142.7848 L191.2974 142.7848 "/>
<path d="M191.2974 142.7848 L191.2974 144.2858 "/>
<path d="M191.2974 144.2858 L191.1098 144.6611 "/>
<path d="M191.1098 144.6611 L190.9221 144.8487 "/>
<path d="M190.9221 144.8487 L190.5469 145.0364 "/>
<path d="M190.5469 145.0364 L189.9840 145.0364 "/>
<path d="M189.9840 145.0364 L189.6087 144.8487 "/>
<path d="M189.6087 144.8487 L189.4211 144.6611 "/>
<path d="M189.4211 144.6611 L189.2334 144.2858 "/>
<path d="M189.2334 144.2858 L189.2334 142.7848 "/>
<path d="M191.2974 148.4138 L191.2974 147.6632 "/>
<path d="M191.2974 147.6632 L191.1098 147.2880 "/>
<path d="M191.1098 147.2880 L190.9221 147.1003 "/>
<path d="M190.9221 147.1003 L190.3592 146.7251 "/>
<path d="M190.3592 146.7251 L189.6087 146.5374 "/>
<path d="M189.6087 146.5374 L188.1076 146.5374 "/>
<path d="M188.1076 146.5374 L187.7324 146.7251 "/>
<path d="M187.7324 146.7251 L187.5447 146.9127 "/>
<path d="M187.5447 146.9127 L187.3571 147.2880 "/>
<path d="M187.3571 147.2880 L187.3571 148.0385 "/>
<path d="M187.3571 148.0385 L187.5447 148.4138 "/>
<path d="M187.5447 148.4138 L187.7324 148.6014 "/>
<path d="M187.7324 148.6014 L188.1076 148.7890 "/>
<path d="M188.1076 148.7890 L189.0458 148.7890 "/>
<path d="M189.0458 148.7890 L189.4211 148.6014 "/>
<path d="M189.4211 148.6014 L189.6087 148.4138 "/>
<path d="M189.6087 148.4138 L189.7963 148.0385 "/>
<path d="M189.7963 148.0385 L189.7963 147.2880 "/>
<path d="M189.7963 147.2880 L189.6087 146.9127 "/>
<path d="M189.6087 146.9127 L189.4211 146.7251 "/>
<path d="M189.4211 146.7251 L189.0458 146.5374 "/>
</g><g transform="rotate(90.000000 262.7106 98.5336)">
<text x="262.7106" y="100.5038" textLength="8.6780" font-size="5.2537" lengthAdjust="spacingAndGlyphs" text-anchor="middle" opacity="0" stroke-opacity="0">R2</text>
</g>
<g class="stroked-text"><desc>R2</desc>
<path d="M260.9185 97.8769 L262.7949 96.5635 "/>
<path d="M260.9185 95.6253 L264.8588 95.6253 "/>
<path d="M264.8588 95.6253 L264.8588 97.1264 "/>
<path d="M264.8588 97.1264 L264.6712 97.5016 "/>
<path d="M264.6712 97.5016 L264.4836 97.6893 "/>
<path d="M264.4836 97.6893 L264.1083 97.8769 "/>
<path d="M264.1083 97.8769 L263.5454 97.8769 "/>
<path d="M263.5454 97.8769 L263.1701 97.6893 "/>
<path d="M263.1701 97.6893 L262.9825 97.5016 "/>
<path d="M262.9825 97.5016 L262.7949 97.1264 "/>
<path d="M262.7949 97.1264 L262.7949 95.6253 "/>
<path d="M264.4836 99.3780 L264.6712 99.5656 "/>
<path d="M264.6712 99.5656 L264.8588 99.9409 "/>
<path d="M264.8588 99.9409 L264.8588 100.8790 "/>
<path d="M264.8588 100.8790 L264.6712 101.2543 "/>
<path d="M264.6712 101.2543 L264.4836 101.4419 "/>
<path d="M264.4836 101.4419 L264.1083 101.6296 "/>
<path d="M264.1083 101.6296 L263.7330 101.6296 "/>
<path d="M263.7330 101.6296 L263.1701 101.4419 "/>
<path d="M263.1701 101.4419 L260.9185 99.1903 "/>
<path d="M260.9185 99.1903 L260.9185 101.6296 "/>
</g><text x="207.9011" y="34.6988" textLength="8.6780" font-size="5.2537" lengthAdjust="spacingAndGlyphs" text-anchor="middle" opacity="0" stroke-opacity="0">R9</text>
<g class="stroked-text"><desc>R9</desc>
<path d="M207.2444 34.5208 L205.9310 32.6445 "/>
<path d="M204.9928 34.5208 L204.9928 30.5805 "/>
<path d="M204.9928 30.5805 L206.4939 30.5805 "/>
<path d="M206.4939 30.5805 L206.8691 30.7681 "/>
<path d="M206.8691 30.7681 L207.0567 30.9558 "/>
<path d="M207.0567 30.9558 L207.2444 31.3310 "/>
<path d="M207.2444 31.3310 L207.2444 31.8939 "/>
<path d="M207.2444 31.8939 L207.0567 32.2692 "/>
<path d="M207.0567 32.2692 L206.8691 32.4568 "/>
<path d="M206.8691 32.4568 L206.4939 32.6445 "/>
<path d="M206.4939 32.6445 L204.9928 32.6445 "/>
<path d="M209.1207 34.5208 L209.8713 34.5208 "/>
<path d="M209.8713 34.5208 L210.2465 34.3332 "/>
<path d="M210.2465 34.3332 L210.4342 34.1455 "/>
<path d="M210.4342 34.1455 L210.8094 33.5826 "/>
<path d="M210.8094 33.5826 L210.9970 32.8321 "/>
<path d="M210.9970 32.8321 L210.9970 31.3310 "/>
<path d="M210.9970 31.3310 L210.8094 30.9558 "/>
<path d="M210.8094 30.9558 L210.6218 30.7681 "/>
<path d="M210.6218 30.7681 L210.2465 30.5805 "/>
<path d="M210.2465 30.5805 L209.4960 30.5805 "/>
<path d="M209.4960 30.5805 L209.1207 30.7681 "/>
<path d="M209.1207 30.7681 L208.9331 30.9558 "/>
<path d="M208.9331 30.9558 L208.7455 31.3310 "/>
<path d="M208.7455 31.3310 L208.7455 32.2692 "/>
<path d="M208.7455 32.2692 L208.9331 32.6445 "/>
<path d="M208.9331 32.6445 L209.1207 32.8321 "/>
<path d="M209.1207 32.8321 L209.4960 33.0197 "/>
<path d="M209.4960 33.0197 L210.2465 33.0197 "/>
<path d="M210.2465 33.0197 L210.6218 32.8321 "/>
<path d="M210.6218 32.8321 L210.8094 32.6445 "/>
<path d="M210.8094 32.6445 L210.9970 32.2692 "/>
</g><text x="268.9659" y="75.4829" textLength="8.6780" font-size="5.2537" lengthAdjust="spacingAndGlyphs" text-anchor="middle" opacity="0" stroke-opacity="0">R3</text>
<g class="stroked-text"><desc>R3</desc>
<path d="M268.3092 75.3048 L266.9957 73.4285 "/>
<path d="M266.0576 75.3048 L266.0576 71.3645 "/>
<path d="M266.0576 71.3645 L267.5586 71.3645 "/>
<path d="M267.5586 71.3645 L267.9339 71.5522 "/>
<path d="M267.9339 71.5522 L268.1215 71.7398 "/>
<path d="M268.1215 71.7398 L268.3092 72.1151 "/>
<path d="M268.3092 72.1151 L268.3092 72.6780 "/>
<path d="M268.3092 72.6780 L268.1215 73.0533 "/>
<path d="M268.1215 73.0533 L267.9339 73.2409 "/>
<path d="M267.9339 73.2409 L267.5586 73.4285 "/>
<path d="M267.5586 73.4285 L266.0576 73.4285 "/>
<path d="M269.6226 71.3645 L272.0618 71.3645 "/>
<path d="M272.0618 71.3645 L270.7484 72.8656 "/>
<path d="M270.7484 72.8656 L271.3113 72.8656 "/>
<path d="M271.3113 72.8656 L271.6866 73.0533 "/>
<path d="M271.6866 73.0533 L271.8742 73.2409 "/>
<path d="M271.8742 73.2409 L272.0618 73.6162 "/>
<path d="M272.0618 73.6162 L272.0618 74.5543 "/>
<path d="M272.0618 74.5543 L271.8742 74.9296 "/>
<path d="M271.8742 74.9296 L271.6866 75.1172 "/>
<path d="M271.6866 75.1172 L271.3113 75.3048 "/>
<path d="M271.3113 75.3048 L270.1855 75.3048 "/>
<path d="M270.1855 75.3048 L269.8102 75.1172 "/>
<path d="M269.8102 75.1172 L269.6226 74.9296 "/>
</g><g transform="rotate(90.000000 172.6354 113.4260)">
<text x="172.6354" y="115.3961" textLength="12.4307" font-size="5.2537" lengthAdjust="spacingAndGlyphs" text-anchor="middle" opacity="0" stroke-opacity="0">R17</text>
</g>
<g class="stroked-text"><desc>R17</desc>
<path d="M170.8433 110.8929 L172.7196 109.5795 "/>
<path d="M170.8433 108.6413 L174.7836 108.6413 "/>
<path d="M174.7836 108.6413 L174.7836 110.1424 "/>
<path d="M174.7836 110.1424 L174.5960 110.5177 "/>
<path d="M174.5960 110.5177 L174.4083 110.7053 "/>
<path d="M174.4083 110.7053 L174.0331 110.8929 "/>
<path d="M174.0331 110.8929 L173.4702 110.8929 "/>
<path d="M173.4702 110.8929 L173.0949 110.7053 "/>
<path d="M173.0949 110.7053 L172.9073 110.5177 "/>
<path d="M172.9073 110.5177 L172.7196 110.1424 "/>
<path d="M172.7196 110.1424 L172.7196 108.6413 "/>
<path d="M170.8433 114.6456 L170.8433 112.3940 "/>
<path d="M170.8433 113.5198 L174.7836 113.5198 "/>
<path d="M174.7836 113.5198 L174.2207 113.1445 "/>
<path d="M174.2207 113.1445 L173.8454 112.7693 "/>
<path d="M173.8454 112.7693 L173.6578 112.3940 "/>
<path d="M174.7836 115.9590 L174.7836 118.5859 "/>
<path d="M174.7836 118.5859 L170.8433 116.8972 "/>
</g></g>
<g style="fill:none;  stroke:#000084; stroke-width:1.4776; stroke-opacity:1;  stroke-linecap:round; stroke-linejoin:round;">
<g transform="rotate(90.000000 134.0205 145.0961)">
<text x="134.0205" y="150.0215" textLength="19.3497" font-size="13.1343" lengthAdjust="spacingAndGlyphs" text-anchor="middle" opacity="0" stroke-opacity="0">J3</text>
</g>
<g class="stroked-text"><desc>J3</desc>
<path d="M139.3909 141.8125 L132.3547 141.8125 "/>
<path d="M132.3547 141.8125 L130.9475 141.3435 "/>
<path d="M130.9475 141.3435 L130.0093 140.4053 "/>
<path d="M130.0093 140.4053 L129.5402 138.9980 "/>
<path d="M129.5402 138.9980 L129.5402 138.0599 "/>
<path d="M139.3909 145.5652 L139.3909 151.6633 "/>
<path d="M139.3909 151.6633 L135.6383 148.3797 "/>
<path d="M135.6383 148.3797 L135.6383 149.7870 "/>
<path d="M135.6383 149.7870 L135.1692 150.7251 "/>
<path d="M135.1692 150.7251 L134.7001 151.1942 "/>
<path d="M134.7001 151.1942 L133.7619 151.6633 "/>
<path d="M133.7619 151.6633 L131.4165 151.6633 "/>
<path d="M131.4165 151.6633 L130.4784 151.1942 "/>
<path d="M130.4784 151.1942 L130.0093 150.7251 "/>
<path d="M130.0093 150.7251 L129.5402 149.7870 "/>
<path d="M129.5402 149.7870 L129.5402 146.9725 "/>
<path d="M129.5402 146.9725 L130.0093 146.0343 "/>
<path d="M130.0093 146.0343 L130.4784 145.5652 "/>
</g><g transform="rotate(90.000000 315.2742 46.5887)">
<text x="315.2742" y="51.5140" textLength="19.3497" font-size="13.1343" lengthAdjust="spacingAndGlyphs" text-anchor="middle" opacity="0" stroke-opacity="0">J2</text>
</g>
<g class="stroked-text"><desc>J2</desc>
<path d="M320.6447 43.3051 L313.6084 43.3051 "/>
<path d="M313.6084 43.3051 L312.2012 42.8360 "/>
<path d="M312.2012 42.8360 L311.2630 41.8978 "/>
<path d="M311.2630 41.8978 L310.7939 40.4906 "/>
<path d="M310.7939 40.4906 L310.7939 39.5524 "/>
<path d="M319.7065 47.5268 L320.1756 47.9959 "/>
<path d="M320.1756 47.9959 L320.6447 48.9341 "/>
<path d="M320.6447 48.9341 L320.6447 51.2795 "/>
<path d="M320.6447 51.2795 L320.1756 52.2177 "/>
<path d="M320.1756 52.2177 L319.7065 52.6867 "/>
<path d="M319.7065 52.6867 L318.7683 53.1558 "/>
<path d="M318.7683 53.1558 L317.8302 53.1558 "/>
<path d="M317.8302 53.1558 L316.4229 52.6867 "/>
<path d="M316.4229 52.6867 L310.7939 47.0578 "/>
<path d="M310.7939 47.0578 L310.7939 53.1558 "/>
</g></g>
<g style="fill:none;  stroke:#000084; stroke-width:1.0343; stroke-opacity:1;  stroke-linecap:round; stroke-linejoin:round;">
<g transform="rotate(90.000000 224.6474 82.5203)">
<text x="224.6474" y="85.9680" textLength="15.5149" font-size="9.1940" lengthAdjust="spacingAndGlyphs" text-anchor="middle" opacity="0" stroke-opacity="0">U2</text>
</g>
<g class="stroked-text"><desc>U2</desc>
<path d="M228.4067 77.2665 L222.8246 77.2665 "/>
<path d="M222.8246 77.2665 L222.1679 77.5949 "/>
<path d="M222.1679 77.5949 L221.8395 77.9232 "/>
<path d="M221.8395 77.9232 L221.5112 78.5800 "/>
<path d="M221.5112 78.5800 L221.5112 79.8934 "/>
<path d="M221.5112 79.8934 L221.8395 80.5501 "/>
<path d="M221.8395 80.5501 L222.1679 80.8785 "/>
<path d="M222.1679 80.8785 L222.8246 81.2068 "/>
<path d="M222.8246 81.2068 L228.4067 81.2068 "/>
<path d="M227.7500 84.1620 L228.0783 84.4904 "/>
<path d="M228.0783 84.4904 L228.4067 85.1471 "/>
<path d="M228.4067 85.1471 L228.4067 86.7889 "/>
<path d="M228.4067 86.7889 L228.0783 87.4456 "/>
<path d="M228.0783 87.4456 L227.7500 87.7740 "/>
<path d="M227.7500 87.7740 L227.0932 88.1023 "/>
<path d="M227.0932 88.1023 L226.4365 88.1023 "/>
<path d="M226.4365 88.1023 L225.4515 87.7740 "/>
<path d="M225.4515 87.7740 L221.5112 83.8337 "/>
<path d="M221.5112 83.8337 L221.5112 88.1023 "/>
</g></g>
<g style="fill:none;  stroke:#000084; stroke-width:0.7881; stroke-opacity:1;  stroke-linecap:round; stroke-linejoin:round;">
<g transform="rotate(90.000000 256.7056 174.5971)">
<text x="256.7056" y="177.0598" textLength="10.9953" font-size="6.5672" lengthAdjust="spacingAndGlyphs" text-anchor="middle" opacity="0" stroke-opacity="0">C1</text>
</g>
<g class="stroked-text"><desc>C1</desc>
<path d="M254.9371 173.7762 L254.7026 173.5417 "/>
<path d="M254.7026 173.5417 L254.4680 172.8381 "/>
<path d="M254.4680 172.8381 L254.4680 172.3690 "/>
<path d="M254.4680 172.3690 L254.7026 171.6654 "/>
<path d="M254.7026 171.6654 L255.1717 171.1963 "/>
<path d="M255.1717 171.1963 L255.6408 170.9618 "/>
<path d="M255.6408 170.9618 L256.5789 170.7272 "/>
<path d="M256.5789 170.7272 L257.2825 170.7272 "/>
<path d="M257.2825 170.7272 L258.2207 170.9618 "/>
<path d="M258.2207 170.9618 L258.6898 171.1963 "/>
<path d="M258.6898 171.1963 L259.1589 171.6654 "/>
<path d="M259.1589 171.6654 L259.3934 172.3690 "/>
<path d="M259.3934 172.3690 L259.3934 172.8381 "/>
<path d="M259.3934 172.8381 L259.1589 173.5417 "/>
<path d="M259.1589 173.5417 L258.9243 173.7762 "/>
<path d="M254.4680 178.4671 L254.4680 175.6526 "/>
<path d="M254.4680 177.0598 L259.3934 177.0598 "/>
<path d="M259.3934 177.0598 L258.6898 176.5908 "/>
<path d="M258.6898 176.5908 L258.2207 176.1217 "/>
<path d="M258.2207 176.1217 L257.9862 175.6526 "/>
</g></g>
<g style="fill:none;  stroke:#000084; stroke-width:0.5910; stroke-opacity:1;  stroke-linecap:round; stroke-linejoin:round;">
<g transform="rotate(90.000000 182.6438 45.9897)">
<text x="182.6438" y="47.9599" textLength="12.4307" font-size="5.2537" lengthAdjust="spacingAndGlyphs" text-anchor="middle" opacity="0" stroke-opacity="0">R10</text>
</g>
<g class="stroked-text"><desc>R10</desc>
<path d="M180.8517 43.4567 L182.7280 42.1433 "/>
<path d="M180.8517 41.2051 L184.7920 41.2051 "/>
<path d="M184.7920 41.2051 L184.7920 42.7062 "/>
<path d="M184.7920 42.7062 L184.6043 43.0814 "/>
<path d="M184.6043 43.0814 L184.4167 43.2691 "/>
<path d="M184.4167 43.2691 L184.0414 43.4567 "/>
<path d="M184.0414 43.4567 L183.4785 43.4567 "/>
<path d="M183.4785 43.4567 L183.1033 43.2691 "/>
<path d="M183.1033 43.2691 L182.9156 43.0814 "/>
<path d="M182.9156 43.0814 L182.7280 42.7062 "/>
<path d="M182.7280 42.7062 L182.7280 41.2051 "/>
<path d="M180.8517 47.2094 L180.8517 44.9578 "/>
<path d="M180.8517 46.0836 L184.7920 46.0836 "/>
<path d="M184.7920 46.0836 L184.2291 45.7083 "/>
<path d="M184.2291 45.7083 L183.8538 45.3330 "/>
<path d="M183.8538 45.3330 L183.6662 44.9578 "/>
<path d="M184.7920 49.6486 L184.7920 50.0239 "/>
<path d="M184.7920 50.0239 L184.6043 50.3991 "/>
<path d="M184.6043 50.3991 L184.4167 50.5868 "/>
<path d="M184.4167 50.5868 L184.0414 50.7744 "/>
<path d="M184.0414 50.7744 L183.2909 50.9620 "/>
<path d="M183.2909 50.9620 L182.3527 50.9620 "/>
<path d="M182.3527 50.9620 L181.6022 50.7744 "/>
<path d="M181.6022 50.7744 L181.2269 50.5868 "/>
<path d="M181.2269 50.5868 L181.0393 50.3991 "/>
<path d="M181.0393 50.3991 L180.8517 50.0239 "/>
<path d="M180.8517 50.0239 L180.8517 49.6486 "/>
<path d="M180.8517 49.6486 L181.0393 49.2733 "/>
<path d="M181.0393 49.2733 L181.2269 49.0857 "/>
<path d="M181.2269 49.0857 L181.6022 48.8981 "/>
<path d="M181.6022 48.8981 L182.3527 48.7104 "/>
<path d="M182.3527 48.7104 L183.2909 48.7104 "/>
<path d="M183.2909 48.7104 L184.0414 48.8981 "/>
<path d="M184.0414 48.8981 L184.4167 49.0857 "/>
<path d="M184.4167 49.0857 L184.6043 49.2733 "/>
<path d="M184.6043 49.2733 L184.7920 49.6486 "/>
</g><g transform="rotate(90.000000 186.3969 77.8943)">
<text x="186.3969" y="79.8645" textLength="8.6780" font-size="5.2537" lengthAdjust="spacingAndGlyphs" text-anchor="middle" opacity="0" stroke-opacity="0">C4</text>
</g>
<g class="stroked-text"><desc>C4</desc>
<path d="M184.9801 77.2376 L184.7924 77.0500 "/>
<path d="M184.7924 77.0500 L184.6048 76.4871 "/>
<path d="M184.6048 76.4871 L184.6048 76.1118 "/>
<path d="M184.6048 76.1118 L184.7924 75.5489 "/>
<path d="M184.7924 75.5489 L185.1677 75.1737 "/>
<path d="M185.1677 75.1737 L185.5430 74.9860 "/>
<path d="M185.5430 74.9860 L186.2935 74.7984 "/>
<path d="M186.2935 74.7984 L186.8564 74.7984 "/>
<path d="M186.8564 74.7984 L187.6069 74.9860 "/>
<path d="M187.6069 74.9860 L187.9822 75.1737 "/>
<path d="M187.9822 75.1737 L188.3575 75.5489 "/>
<path d="M188.3575 75.5489 L188.5451 76.1118 "/>
<path d="M188.5451 76.1118 L188.5451 76.4871 "/>
<path d="M188.5451 76.4871 L188.3575 77.0500 "/>
<path d="M188.3575 77.0500 L188.1698 77.2376 "/>
<path d="M187.2317 80.6150 L184.6048 80.6150 "/>
<path d="M188.7327 79.6769 L185.9182 78.7387 "/>
<path d="M185.9182 78.7387 L185.9182 81.1779 "/>
</g></g>
<g style="fill:none;  stroke:#000084; stroke-width:0.9851; stroke-opacity:1;  stroke-linecap:round; stroke-linejoin:round;">
<path d="M215.7817 5.3958 L215.7817 13.5227 "/>
<path d="M215.7817 13.5227 L200.0205 13.5227 "/>
<path d="M200.0205 5.3958 L215.7817 5.3958 "/>
<path d="M200.0205 13.5227 L200.0205 5.3958 "/>
<path d="M272.9160 135.2454 L269.9608 132.2902 "/>
<path d="M272.9160 148.0514 L272.9160 135.2454 "/>
<path d="M269.9608 132.2902 L265.0354 132.2902 "/>
<path d="M265.0354 132.2902 L265.0354 148.0514 "/>
<path d="M265.0354 148.0514 L272.9160 148.0514 "/>
<path d="M196.0290 185.1690 L196.0290 193.0496 "/>
<path d="M196.0290 193.0496 L180.2678 193.0496 "/>
<path d="M180.2678 185.1690 L196.0290 185.1690 "/>
<path d="M180.2678 193.0496 L180.2678 185.1690 "/>
<path d="M279.6539 163.9406 L279.6539 176.7466 "/>
<path d="M279.6539 176.7466 L270.7883 176.7466 "/>
<path d="M277.1912 171.3287 L275.2211 168.3734 "/>
<path d="M275.2211 168.3734 L275.2211 166.8958 "/>
<path d="M275.2211 168.3734 L273.2509 171.3287 "/>
<path d="M275.2211 171.3287 L275.2211 172.8063 "/>
<path d="M273.2509 168.3734 L277.1912 168.3734 "/>
<path d="M273.2509 171.3287 L277.1912 171.3287 "/>
<path d="M270.7883 163.9406 L279.6539 163.9406 "/>
<path d="M270.7883 176.7466 L270.7883 163.9406 "/>
<path d="M176.6989 137.5721 L176.6989 153.3333 "/>
<path d="M176.6989 153.3333 L168.5720 153.3333 "/>
<path d="M168.5720 137.5721 L176.6989 137.5721 "/>
<path d="M168.5720 153.3333 L168.5720 137.5721 "/>
<path d="M192.9624 105.5454 L192.9624 121.3066 "/>
<path d="M192.9624 121.3066 L184.8356 121.3066 "/>
<path d="M184.8356 105.5454 L192.9624 105.5454 "/>
<path d="M184.8356 121.3066 L184.8356 105.5454 "/>
<path d="M196.0290 168.7970 L196.0290 176.6776 "/>
<path d="M196.0290 176.6776 L180.2678 176.6776 "/>
<path d="M180.2678 168.7970 L196.0290 168.7970 "/>
<path d="M180.2678 176.6776 L180.2678 168.7970 "/>
<path d="M270.5272 6.9631 L270.5272 22.7243 "/>
<path d="M270.5272 22.7243 L262.4004 22.7243 "/>
<path d="M262.4004 6.9631 L270.5272 6.9631 "/>
<path d="M262.4004 22.7243 L262.4004 6.9631 "/>
<path d="M249.2742 28.6652 L249.2742 36.7921 "/>
<path d="M249.2742 36.7921 L233.5130 36.7921 "/>
<path d="M233.5130 28.6652 L249.2742 28.6652 "/>
<path d="M233.5130 36.7921 L233.5130 28.6652 "/>
<path d="M149.7817 5.9543 L149.7817 87.2230 "/>
<path d="M149.7817 5.9543 L109.8862 5.9543 "/>
<path d="M149.7817 23.1931 L142.8162 28.1185 "/>
<path d="M149.7817 87.2230 L109.8862 87.2230 "/>
<path d="M142.8162 28.1185 L149.7817 33.0439 "/>
<path d="M109.8862 5.9543 L109.8862 87.2230 "/>
<path d="M186.7072 7.0832 L186.7072 22.8444 "/>
<path d="M186.7072 22.8444 L178.5804 22.8444 "/>
<path d="M178.5804 7.0832 L186.7072 7.0832 "/>
<path d="M178.5804 22.8444 L178.5804 7.0832 "/>
<path d="M339.4086 185.7305 L339.4086 104.4618 "/>
<path d="M306.4786 163.5663 L299.5130 158.6409 "/>
<path d="M299.5130 104.4618 L339.4086 104.4618 "/>
<path d="M299.5130 168.4917 L306.4786 163.5663 "/>
<path d="M299.5130 185.7305 L339.4086 185.7305 "/>
<path d="M299.5130 185.7305 L299.5130 104.4618 "/>
<path d="M249.2742 5.3958 L249.2742 13.5227 "/>
<path d="M249.2742 13.5227 L233.5130 13.5227 "/>
<path d="M233.5130 5.3958 L249.2742 5.3958 "/>
<path d="M233.5130 13.5227 L233.5130 5.3958 "/>
<path d="M238.9625 156.2078 L238.9625 171.9690 "/>
<path d="M238.9625 171.9690 L214.3356 171.9690 "/>
<path d="M214.3356 171.9690 L210.3953 168.0287 "/>
<path d="M210.3953 156.2078 L238.9625 156.2078 "/>
<path d="M210.3953 168.0287 L210.3953 156.2078 "/>
<path d="M270.5272 38.4894 L270.5272 54.2506 "/>
<path d="M270.5272 54.2506 L262.4004 54.2506 "/>
<path d="M262.4004 38.4894 L270.5272 38.4894 "/>
<path d="M262.4004 54.2506 L262.4004 38.4894 "/>
<path d="M255.2645 131.6873 L255.2645 147.4485 "/>
<path d="M255.2645 147.4485 L247.1376 147.4485 "/>
<path d="M247.1376 131.6873 L255.2645 131.6873 "/>
<path d="M247.1376 147.4485 L247.1376 131.6873 "/>
<path d="M193.2126 137.8125 L193.2126 153.5737 "/>
<path d="M193.2126 153.5737 L185.0858 153.5737 "/>
<path d="M185.0858 137.8125 L193.2126 137.8125 "/>
<path d="M185.0858 153.5737 L185.0858 137.8125 "/>
<path d="M266.7741 90.6530 L266.7741 106.4142 "/>
<path d="M266.7741 106.4142 L258.6472 106.4142 "/>
<path d="M258.6472 90.6530 L266.7741 90.6530 "/>
<path d="M258.6472 106.4142 L258.6472 90.6530 "/>
<path d="M215.7817 28.6652 L215.7817 36.7921 "/>
<path d="M215.7817 36.7921 L200.0205 36.7921 "/>
<path d="M200.0205 28.6652 L215.7817 28.6652 "/>
<path d="M200.0205 36.7921 L200.0205 28.6652 "/>
<path d="M276.8465 69.4493 L276.8465 77.5762 "/>
<path d="M276.8465 77.5762 L261.0853 77.5762 "/>
<path d="M261.0853 69.4493 L276.8465 69.4493 "/>
<path d="M261.0853 77.5762 L261.0853 69.4493 "/>
<path d="M176.6989 105.5454 L176.6989 121.3066 "/>
<path d="M176.6989 121.3066 L168.5720 121.3066 "/>
<path d="M168.5720 105.5454 L176.6989 105.5454 "/>
<path d="M168.5720 121.3066 L168.5720 105.5454 "/>
<path d="M149.7817 104.4618 L149.7817 185.7305 "/>
<path d="M149.7817 104.4618 L109.8862 104.4618 "/>
<path d="M149.7817 121.7006 L142.8162 126.6260 "/>
<path d="M149.7817 185.7305 L109.8862 185.7305 "/>
<path d="M142.8162 126.6260 L149.7817 131.5514 "/>
<path d="M109.8862 104.4618 L109.8862 185.7305 "/>
<path d="M339.4086 87.2230 L339.4086 5.9543 "/>
<path d="M306.4786 65.0588 L299.5130 60.1334 "/>
<path d="M299.5130 5.9543 L339.4086 5.9543 "/>
<path d="M299.5130 69.9842 L306.4786 65.0588 "/>
<path d="M299.5130 87.2230 L339.4086 87.2230 "/>
<path d="M299.5130 87.2230 L299.5130 5.9543 "/>
<path d="M249.2742 77.5949 L249.2742 97.2964 "/>
<path d="M249.2742 97.2964 L200.0205 97.2964 "/>
<path d="M239.4235 67.7441 L249.2742 77.5949 "/>
<path d="M200.0205 67.7441 L239.4235 67.7441 "/>
<path d="M200.0205 97.2964 L200.0205 67.7441 "/>
<path d="M262.8624 164.7464 L262.8624 184.4479 "/>
<path d="M262.8624 184.4479 L250.5489 184.4479 "/>
<path d="M250.5489 164.7464 L262.8624 164.7464 "/>
<path d="M250.5489 184.4479 L250.5489 164.7464 "/>
<path d="M186.7072 38.1091 L186.7072 53.8703 "/>
<path d="M186.7072 53.8703 L178.5804 53.8703 "/>
<path d="M178.5804 38.1091 L186.7072 38.1091 "/>
<path d="M178.5804 53.8703 L178.5804 38.1091 "/>
<path d="M190.3372 70.0137 L190.3372 85.7749 "/>
<path d="M190.3372 85.7749 L182.4566 85.7749 "/>
<path d="M182.4566 70.0137 L190.3372 70.0137 "/>
<path d="M182.4566 85.7749 L182.4566 70.0137 "/>
</g> 
<svg:g><svg:g><svg:title>SVG Image created as TFI2CADC01-Edge_Cuts1.svg date 2025/09/28 00:46:37 </svg:title>
  <svg:desc>Image generated by PCBNEW </svg:desc>
<svg:g style="fill:#C2C200; fill-opacity:1.0000;stroke:#C2C200; stroke-opacity:1.0000; stroke-linecap:round; stroke-linejoin:round;" transform="translate(0 0) scale(1 1)">
</svg:g>
<svg:g style="fill:none;  stroke:#C2C200; stroke-width:1.4776; stroke-opacity:1;  stroke-linecap:round; stroke-linejoin:round;">
<svg:path d="M187.9041 203.5111 A14.7761 14.7761 0.0 0 0 158.3518 203.5111"/>
<svg:path d="M89.3966 203.5111 A14.7761 14.7761 0.0 0 0 59.8444 203.5111"/>
<svg:path d="M59.8444 6.4961 L0.7399 6.4961 "/>
<svg:path d="M187.9041 203.5111 L256.8593 203.5111 "/>
<svg:path d="M256.8593 6.4961 A14.7761 14.7761 0.0 0 0 286.4115 6.4961"/>
<svg:path d="M158.3518 6.4961 L89.3966 6.4961 "/>
<svg:path d="M286.4115 203.5111 L296.2623 203.5111 "/>
<svg:path d="M256.8593 6.4961 L187.9041 6.4961 "/>
<svg:path d="M296.2623 203.5111 L296.2623 6.4961 "/>
<svg:path d="M0.7399 203.5111 L59.8444 203.5111 "/>
<svg:path d="M89.3966 203.5111 L158.3518 203.5111 "/>
<svg:path d="M286.4115 203.5111 A14.7761 14.7761 0.0 0 0 256.8593 203.5111"/>
<svg:path d="M296.2623 6.4961 L286.4115 6.4961 "/>
<svg:path d="M59.8444 6.4961 A14.7761 14.7761 0.0 0 0 89.3966 6.4961"/>
<svg:path d="M158.3518 6.4961 A14.7761 14.7761 0.0 0 0 187.9041 6.4961"/>
<svg:path d="M0.7399 6.4961 L0.7399 203.5111 "/>
</svg:g> 
</svg:g></svg:g></svg>
