<?xml version='1.0' encoding='ASCII' standalone='yes'?>
<svg xmlns:svg="http://www.w3.org/2000/svg" xmlns="http://www.w3.org/2000/svg" xmlns:xlink="http://www.w3.org/1999/xlink" version="1.1" width="297.0022mm" height="210.0072mm" viewBox="0.0000 0.0000 297.0022 210.0072">
<title>SVG Image created as TFI2CADC01-F_Fab0.svg date 2025/10/11 18:07:27 </title>
  <desc>Image generated by PCBNEW </desc>
<g style="fill:#848484; fill-opacity:1.0000;stroke:#848484; stroke-opacity:1.0000; stroke-linecap:round; stroke-linejoin:round;" transform="translate(0 0) scale(1 1)">
</g>
<g style="fill:none;  stroke:#848484; stroke-width:0.7085; stroke-opacity:1;  stroke-linecap:round; stroke-linejoin:round;">
<g transform="rotate(-90.000000 119.5687 123.7506)">
<text x="119.5687" y="126.1124" textLength="10.6282" font-size="6.2982" lengthAdjust="spacingAndGlyphs" text-anchor="middle" opacity="0" stroke-opacity="0">U1</text>
</g>
<g class="stroked-text"><desc>U1</desc>
<path d="M116.9934 127.3496 L120.8174 127.3496 "/>
<path d="M120.8174 127.3496 L121.2672 127.1247 "/>
<path d="M121.2672 127.1247 L121.4922 126.8997 "/>
<path d="M121.4922 126.8997 L121.7171 126.4498 "/>
<path d="M121.7171 126.4498 L121.7171 125.5501 "/>
<path d="M121.7171 125.5501 L121.4922 125.1002 "/>
<path d="M121.4922 125.1002 L121.2672 124.8753 "/>
<path d="M121.2672 124.8753 L120.8174 124.6504 "/>
<path d="M120.8174 124.6504 L116.9934 124.6504 "/>
<path d="M121.7171 119.9267 L121.7171 122.6259 "/>
<path d="M121.7171 121.2763 L116.9934 121.2763 "/>
<path d="M116.9934 121.2763 L117.6682 121.7262 "/>
<path d="M117.6682 121.7262 L118.1181 122.1761 "/>
<path d="M118.1181 122.1761 L118.3431 122.6259 "/>
</g><g transform="rotate(-90.000000 154.7954 76.0121)">
<text x="154.7954" y="78.3740" textLength="10.4033" font-size="6.2982" lengthAdjust="spacingAndGlyphs" text-anchor="middle" opacity="0" stroke-opacity="0">C2</text>
</g>
<g class="stroked-text"><desc>C2</desc>
<path d="M156.4939 76.7994 L156.7188 77.0244 "/>
<path d="M156.7188 77.0244 L156.9438 77.6992 "/>
<path d="M156.9438 77.6992 L156.9438 78.1490 "/>
<path d="M156.9438 78.1490 L156.7188 78.8238 "/>
<path d="M156.7188 78.8238 L156.2690 79.2737 "/>
<path d="M156.2690 79.2737 L155.8191 79.4986 "/>
<path d="M155.8191 79.4986 L154.9194 79.7236 "/>
<path d="M154.9194 79.7236 L154.2445 79.7236 "/>
<path d="M154.2445 79.7236 L153.3448 79.4986 "/>
<path d="M153.3448 79.4986 L152.8949 79.2737 "/>
<path d="M152.8949 79.2737 L152.4451 78.8238 "/>
<path d="M152.4451 78.8238 L152.2201 78.1490 "/>
<path d="M152.2201 78.1490 L152.2201 77.6992 "/>
<path d="M152.2201 77.6992 L152.4451 77.0244 "/>
<path d="M152.4451 77.0244 L152.6700 76.7994 "/>
<path d="M152.6700 74.9999 L152.4451 74.7750 "/>
<path d="M152.4451 74.7750 L152.2201 74.3251 "/>
<path d="M152.2201 74.3251 L152.2201 73.2004 "/>
<path d="M152.2201 73.2004 L152.4451 72.7506 "/>
<path d="M152.4451 72.7506 L152.6700 72.5256 "/>
<path d="M152.6700 72.5256 L153.1199 72.3007 "/>
<path d="M153.1199 72.3007 L153.5697 72.3007 "/>
<path d="M153.5697 72.3007 L154.2445 72.5256 "/>
<path d="M154.2445 72.5256 L156.9438 75.2249 "/>
<path d="M156.9438 75.2249 L156.9438 72.3007 "/>
</g><g transform="rotate(-90.000000 211.7981 57.3242)">
<text x="211.7981" y="59.6860" textLength="10.4033" font-size="6.2982" lengthAdjust="spacingAndGlyphs" text-anchor="middle" opacity="0" stroke-opacity="0">R3</text>
</g>
<g class="stroked-text"><desc>R3</desc>
<path d="M213.9465 58.1114 L211.6972 59.6860 "/>
<path d="M213.9465 60.8107 L209.2229 60.8107 "/>
<path d="M209.2229 60.8107 L209.2229 59.0112 "/>
<path d="M209.2229 59.0112 L209.4478 58.5613 "/>
<path d="M209.4478 58.5613 L209.6727 58.3364 "/>
<path d="M209.6727 58.3364 L210.1226 58.1114 "/>
<path d="M210.1226 58.1114 L210.7974 58.1114 "/>
<path d="M210.7974 58.1114 L211.2473 58.3364 "/>
<path d="M211.2473 58.3364 L211.4722 58.5613 "/>
<path d="M211.4722 58.5613 L211.6972 59.0112 "/>
<path d="M211.6972 59.0112 L211.6972 60.8107 "/>
<path d="M209.2229 56.5369 L209.2229 53.6127 "/>
<path d="M209.2229 53.6127 L211.0223 55.1873 "/>
<path d="M211.0223 55.1873 L211.0223 54.5125 "/>
<path d="M211.0223 54.5125 L211.2473 54.0626 "/>
<path d="M211.2473 54.0626 L211.4722 53.8377 "/>
<path d="M211.4722 53.8377 L211.9221 53.6127 "/>
<path d="M211.9221 53.6127 L213.0468 53.6127 "/>
<path d="M213.0468 53.6127 L213.4966 53.8377 "/>
<path d="M213.4966 53.8377 L213.7216 54.0626 "/>
<path d="M213.7216 54.0626 L213.9465 54.5125 "/>
<path d="M213.9465 54.5125 L213.9465 55.8621 "/>
<path d="M213.9465 55.8621 L213.7216 56.3120 "/>
<path d="M213.7216 56.3120 L213.4966 56.5369 "/>
</g></g>
<g style="fill:none;  stroke:#848484; stroke-width:1.2898; stroke-opacity:1;  stroke-linecap:round; stroke-linejoin:round;">
<g transform="rotate(-90.000000 127.4277 74.0046)">
<text x="127.4277" y="76.9591" textLength="14.2243" font-size="7.8787" lengthAdjust="spacingAndGlyphs" text-anchor="middle" opacity="0" stroke-opacity="0">C1</text>
</g>
<g class="stroked-text"><desc>C1</desc>
<path d="M129.5315 74.9894 L129.8129 75.2708 "/>
<path d="M129.8129 75.2708 L130.0942 76.1150 "/>
<path d="M130.0942 76.1150 L130.0942 76.6777 "/>
<path d="M130.0942 76.6777 L129.8129 77.5219 "/>
<path d="M129.8129 77.5219 L129.2501 78.0847 "/>
<path d="M129.2501 78.0847 L128.6873 78.3660 "/>
<path d="M128.6873 78.3660 L127.5618 78.6474 "/>
<path d="M127.5618 78.6474 L126.7176 78.6474 "/>
<path d="M126.7176 78.6474 L125.5921 78.3660 "/>
<path d="M125.5921 78.3660 L125.0293 78.0847 "/>
<path d="M125.0293 78.0847 L124.4666 77.5219 "/>
<path d="M124.4666 77.5219 L124.1852 76.6777 "/>
<path d="M124.1852 76.6777 L124.1852 76.1150 "/>
<path d="M124.1852 76.1150 L124.4666 75.2708 "/>
<path d="M124.4666 75.2708 L124.7479 74.9894 "/>
<path d="M130.0942 69.3618 L130.0942 72.7384 "/>
<path d="M130.0942 71.0501 L124.1852 71.0501 "/>
<path d="M124.1852 71.0501 L125.0293 71.6128 "/>
<path d="M125.0293 71.6128 L125.5921 72.1756 "/>
<path d="M125.5921 72.1756 L125.8735 72.7384 "/>
</g><g transform="rotate(-90.000000 135.6764 72.5048)">
<text x="135.6764" y="75.4594" textLength="24.3541" font-size="7.8787" lengthAdjust="spacingAndGlyphs" text-anchor="middle" opacity="0" stroke-opacity="0">10uF</text>
</g>
<g class="stroked-text"><desc>10uF</desc>
<path d="M138.3429 78.8360 L138.3429 82.2126 "/>
<path d="M138.3429 80.5243 L132.4339 80.5243 "/>
<path d="M132.4339 80.5243 L133.2780 81.0870 "/>
<path d="M133.2780 81.0870 L133.8408 81.6498 "/>
<path d="M133.8408 81.6498 L134.1222 82.2126 "/>
<path d="M132.4339 75.1780 L132.4339 74.6152 "/>
<path d="M132.4339 74.6152 L132.7153 74.0524 "/>
<path d="M132.7153 74.0524 L132.9966 73.7711 "/>
<path d="M132.9966 73.7711 L133.5594 73.4897 "/>
<path d="M133.5594 73.4897 L134.6849 73.2083 "/>
<path d="M134.6849 73.2083 L136.0919 73.2083 "/>
<path d="M136.0919 73.2083 L137.2174 73.4897 "/>
<path d="M137.2174 73.4897 L137.7802 73.7711 "/>
<path d="M137.7802 73.7711 L138.0616 74.0524 "/>
<path d="M138.0616 74.0524 L138.3429 74.6152 "/>
<path d="M138.3429 74.6152 L138.3429 75.1780 "/>
<path d="M138.3429 75.1780 L138.0616 75.7407 "/>
<path d="M138.0616 75.7407 L137.7802 76.0221 "/>
<path d="M137.7802 76.0221 L137.2174 76.3035 "/>
<path d="M137.2174 76.3035 L136.0919 76.5849 "/>
<path d="M136.0919 76.5849 L134.6849 76.5849 "/>
<path d="M134.6849 76.5849 L133.5594 76.3035 "/>
<path d="M133.5594 76.3035 L132.9966 76.0221 "/>
<path d="M132.9966 76.0221 L132.7153 75.7407 "/>
<path d="M132.7153 75.7407 L132.4339 75.1780 "/>
<path d="M134.4036 68.1434 L138.3429 68.1434 "/>
<path d="M134.4036 70.6758 L137.4988 70.6758 "/>
<path d="M137.4988 70.6758 L138.0616 70.3945 "/>
<path d="M138.0616 70.3945 L138.3429 69.8317 "/>
<path d="M138.3429 69.8317 L138.3429 68.9875 "/>
<path d="M138.3429 68.9875 L138.0616 68.4248 "/>
<path d="M138.0616 68.4248 L137.7802 68.1434 "/>
<path d="M135.2477 63.3599 L135.2477 65.3295 "/>
<path d="M138.3429 65.3295 L132.4339 65.3295 "/>
<path d="M132.4339 65.3295 L132.4339 62.5157 "/>
</g></g>
<g style="fill:none;  stroke:#848484; stroke-width:0.9447; stroke-opacity:1;  stroke-linecap:round; stroke-linejoin:round;">
<text x="108.2083" y="61.5873" textLength="11.1118" font-size="6.2982" lengthAdjust="spacingAndGlyphs" text-anchor="middle" opacity="0" stroke-opacity="0">D2</text>
<g class="stroked-text"><desc>D2</desc>
<path d="M104.7218 61.3616 L104.7218 56.6379 "/>
<path d="M104.7218 56.6379 L105.8465 56.6379 "/>
<path d="M105.8465 56.6379 L106.5213 56.8629 "/>
<path d="M106.5213 56.8629 L106.9711 57.3127 "/>
<path d="M106.9711 57.3127 L107.1961 57.7626 "/>
<path d="M107.1961 57.7626 L107.4210 58.6623 "/>
<path d="M107.4210 58.6623 L107.4210 59.3372 "/>
<path d="M107.4210 59.3372 L107.1961 60.2369 "/>
<path d="M107.1961 60.2369 L106.9711 60.6868 "/>
<path d="M106.9711 60.6868 L106.5213 61.1366 "/>
<path d="M106.5213 61.1366 L105.8465 61.3616 "/>
<path d="M105.8465 61.3616 L104.7218 61.3616 "/>
<path d="M109.2205 57.0878 L109.4454 56.8629 "/>
<path d="M109.4454 56.8629 L109.8953 56.6379 "/>
<path d="M109.8953 56.6379 L111.0200 56.6379 "/>
<path d="M111.0200 56.6379 L111.4699 56.8629 "/>
<path d="M111.4699 56.8629 L111.6948 57.0878 "/>
<path d="M111.6948 57.0878 L111.9197 57.5377 "/>
<path d="M111.9197 57.5377 L111.9197 57.9875 "/>
<path d="M111.9197 57.9875 L111.6948 58.6623 "/>
<path d="M111.6948 58.6623 L108.9956 61.3616 "/>
<path d="M108.9956 61.3616 L111.9197 61.3616 "/>
</g></g>
<g style="fill:none;  stroke:#848484; stroke-width:0.7085; stroke-opacity:1;  stroke-linecap:round; stroke-linejoin:round;">
<g transform="rotate(-90.000000 152.8705 122.7468)">
<text x="152.8705" y="125.1087" textLength="10.4033" font-size="6.2982" lengthAdjust="spacingAndGlyphs" text-anchor="middle" opacity="0" stroke-opacity="0">C3</text>
</g>
<g class="stroked-text"><desc>C3</desc>
<path d="M154.5690 123.5341 L154.7940 123.7590 "/>
<path d="M154.7940 123.7590 L155.0189 124.4338 "/>
<path d="M155.0189 124.4338 L155.0189 124.8837 "/>
<path d="M155.0189 124.8837 L154.7940 125.5585 "/>
<path d="M154.7940 125.5585 L154.3441 126.0084 "/>
<path d="M154.3441 126.0084 L153.8942 126.2333 "/>
<path d="M153.8942 126.2333 L152.9945 126.4583 "/>
<path d="M152.9945 126.4583 L152.3197 126.4583 "/>
<path d="M152.3197 126.4583 L151.4199 126.2333 "/>
<path d="M151.4199 126.2333 L150.9700 126.0084 "/>
<path d="M150.9700 126.0084 L150.5202 125.5585 "/>
<path d="M150.5202 125.5585 L150.2952 124.8837 "/>
<path d="M150.2952 124.8837 L150.2952 124.4338 "/>
<path d="M150.2952 124.4338 L150.5202 123.7590 "/>
<path d="M150.5202 123.7590 L150.7451 123.5341 "/>
<path d="M150.2952 121.9596 L150.2952 119.0354 "/>
<path d="M150.2952 119.0354 L152.0947 120.6099 "/>
<path d="M152.0947 120.6099 L152.0947 119.9351 "/>
<path d="M152.0947 119.9351 L152.3197 119.4853 "/>
<path d="M152.3197 119.4853 L152.5446 119.2603 "/>
<path d="M152.5446 119.2603 L152.9945 119.0354 "/>
<path d="M152.9945 119.0354 L154.1191 119.0354 "/>
<path d="M154.1191 119.0354 L154.5690 119.2603 "/>
<path d="M154.5690 119.2603 L154.7940 119.4853 "/>
<path d="M154.7940 119.4853 L155.0189 119.9351 "/>
<path d="M155.0189 119.9351 L155.0189 121.2848 "/>
<path d="M155.0189 121.2848 L154.7940 121.7346 "/>
<path d="M154.7940 121.7346 L154.5690 121.9596 "/>
</g><g transform="rotate(-90.000000 172.6508 122.7468)">
<text x="172.6508" y="125.1087" textLength="10.4033" font-size="6.2982" lengthAdjust="spacingAndGlyphs" text-anchor="middle" opacity="0" stroke-opacity="0">C4</text>
</g>
<g class="stroked-text"><desc>C4</desc>
<path d="M174.3493 123.5341 L174.5743 123.7590 "/>
<path d="M174.5743 123.7590 L174.7992 124.4338 "/>
<path d="M174.7992 124.4338 L174.7992 124.8837 "/>
<path d="M174.7992 124.8837 L174.5743 125.5585 "/>
<path d="M174.5743 125.5585 L174.1244 126.0084 "/>
<path d="M174.1244 126.0084 L173.6745 126.2333 "/>
<path d="M173.6745 126.2333 L172.7748 126.4583 "/>
<path d="M172.7748 126.4583 L172.1000 126.4583 "/>
<path d="M172.1000 126.4583 L171.2002 126.2333 "/>
<path d="M171.2002 126.2333 L170.7504 126.0084 "/>
<path d="M170.7504 126.0084 L170.3005 125.5585 "/>
<path d="M170.3005 125.5585 L170.0755 124.8837 "/>
<path d="M170.0755 124.8837 L170.0755 124.4338 "/>
<path d="M170.0755 124.4338 L170.3005 123.7590 "/>
<path d="M170.3005 123.7590 L170.5254 123.5341 "/>
<path d="M171.6501 119.4853 L174.7992 119.4853 "/>
<path d="M169.8506 120.6099 L173.2247 121.7346 "/>
<path d="M173.2247 121.7346 L173.2247 118.8105 "/>
</g><g transform="rotate(-90.000000 83.8460 137.6264)">
<text x="83.8460" y="139.9882" textLength="10.4033" font-size="6.2982" lengthAdjust="spacingAndGlyphs" text-anchor="middle" opacity="0" stroke-opacity="0">R4</text>
</g>
<g class="stroked-text"><desc>R4</desc>
<path d="M85.9944 138.4136 L83.7451 139.9882 "/>
<path d="M85.9944 141.1129 L81.2708 141.1129 "/>
<path d="M81.2708 141.1129 L81.2708 139.3134 "/>
<path d="M81.2708 139.3134 L81.4957 138.8635 "/>
<path d="M81.4957 138.8635 L81.7206 138.6386 "/>
<path d="M81.7206 138.6386 L82.1705 138.4136 "/>
<path d="M82.1705 138.4136 L82.8453 138.4136 "/>
<path d="M82.8453 138.4136 L83.2952 138.6386 "/>
<path d="M83.2952 138.6386 L83.5201 138.8635 "/>
<path d="M83.5201 138.8635 L83.7451 139.3134 "/>
<path d="M83.7451 139.3134 L83.7451 141.1129 "/>
<path d="M82.8453 134.3648 L85.9944 134.3648 "/>
<path d="M81.0458 135.4895 L84.4199 136.6141 "/>
<path d="M84.4199 136.6141 L84.4199 133.6900 "/>
</g></g>
<g style="fill:none;  stroke:#848484; stroke-width:1.7714; stroke-opacity:1;  stroke-linecap:round; stroke-linejoin:round;">
<text x="119.9135" y="180.7097" textLength="17.3122" font-size="19.9968" lengthAdjust="spacingAndGlyphs" text-anchor="middle" opacity="0" stroke-opacity="0">K</text>
<g class="stroked-text"><desc>K</desc>
<path d="M115.9856 180.0569 L115.9856 165.0593 "/>
<path d="M124.5556 180.0569 L118.1281 171.4869 "/>
<path d="M124.5556 165.0593 L115.9856 173.6294 "/>
</g><text x="98.0170" y="180.1098" textLength="31.5957" font-size="19.9968" lengthAdjust="spacingAndGlyphs" text-anchor="middle" opacity="0" stroke-opacity="0">D3</text>
<g class="stroked-text"><desc>D3</desc>
<path d="M86.9473 179.4570 L86.9473 164.4594 "/>
<path d="M86.9473 164.4594 L90.5182 164.4594 "/>
<path d="M90.5182 164.4594 L92.6607 165.1736 "/>
<path d="M92.6607 165.1736 L94.0890 166.6019 "/>
<path d="M94.0890 166.6019 L94.8032 168.0303 "/>
<path d="M94.8032 168.0303 L95.5174 170.8870 "/>
<path d="M95.5174 170.8870 L95.5174 173.0295 "/>
<path d="M95.5174 173.0295 L94.8032 175.8862 "/>
<path d="M94.8032 175.8862 L94.0890 177.3145 "/>
<path d="M94.0890 177.3145 L92.6607 178.7429 "/>
<path d="M92.6607 178.7429 L90.5182 179.4570 "/>
<path d="M90.5182 179.4570 L86.9473 179.4570 "/>
<path d="M100.5166 164.4594 L109.8008 164.4594 "/>
<path d="M109.8008 164.4594 L104.8016 170.1728 "/>
<path d="M104.8016 170.1728 L106.9441 170.1728 "/>
<path d="M106.9441 170.1728 L108.3725 170.8870 "/>
<path d="M108.3725 170.8870 L109.0867 171.6011 "/>
<path d="M109.0867 171.6011 L109.8008 173.0295 "/>
<path d="M109.8008 173.0295 L109.8008 176.6003 "/>
<path d="M109.8008 176.6003 L109.0867 178.0287 "/>
<path d="M109.0867 178.0287 L108.3725 178.7429 "/>
<path d="M108.3725 178.7429 L106.9441 179.4570 "/>
<path d="M106.9441 179.4570 L102.6591 179.4570 "/>
<path d="M102.6591 179.4570 L101.2308 178.7429 "/>
<path d="M101.2308 178.7429 L100.5166 178.0287 "/>
</g><g transform="rotate(-90.000000 36.0190 105.0036)">
<text x="36.0190" y="110.9082" textLength="23.1965" font-size="15.7455" lengthAdjust="spacingAndGlyphs" text-anchor="middle" opacity="0" stroke-opacity="0">J2</text>
</g>
<g class="stroked-text"><desc>J2</desc>
<path d="M29.5809 108.9400 L38.0160 108.9400 "/>
<path d="M38.0160 108.9400 L39.7030 109.5023 "/>
<path d="M39.7030 109.5023 L40.8277 110.6270 "/>
<path d="M40.8277 110.6270 L41.3900 112.3140 "/>
<path d="M41.3900 112.3140 L41.3900 113.4387 "/>
<path d="M30.7055 103.8789 L30.1432 103.3166 "/>
<path d="M30.1432 103.3166 L29.5809 102.1919 "/>
<path d="M29.5809 102.1919 L29.5809 99.3802 "/>
<path d="M29.5809 99.3802 L30.1432 98.2555 "/>
<path d="M30.1432 98.2555 L30.7055 97.6932 "/>
<path d="M30.7055 97.6932 L31.8302 97.1308 "/>
<path d="M31.8302 97.1308 L32.9549 97.1308 "/>
<path d="M32.9549 97.1308 L34.6419 97.6932 "/>
<path d="M34.6419 97.6932 L41.3900 104.4412 "/>
<path d="M41.3900 104.4412 L41.3900 97.1308 "/>
</g></g>
<g style="fill:none;  stroke:#848484; stroke-width:0.7085; stroke-opacity:1;  stroke-linecap:round; stroke-linejoin:round;">
<g transform="rotate(-90.000000 232.2279 57.4423)">
<text x="232.2279" y="59.8041" textLength="10.4033" font-size="6.2982" lengthAdjust="spacingAndGlyphs" text-anchor="middle" opacity="0" stroke-opacity="0">R2</text>
</g>
<g class="stroked-text"><desc>R2</desc>
<path d="M234.3763 58.2295 L232.1270 59.8041 "/>
<path d="M234.3763 60.9288 L229.6527 60.9288 "/>
<path d="M229.6527 60.9288 L229.6527 59.1293 "/>
<path d="M229.6527 59.1293 L229.8776 58.6794 "/>
<path d="M229.8776 58.6794 L230.1026 58.4545 "/>
<path d="M230.1026 58.4545 L230.5524 58.2295 "/>
<path d="M230.5524 58.2295 L231.2272 58.2295 "/>
<path d="M231.2272 58.2295 L231.6771 58.4545 "/>
<path d="M231.6771 58.4545 L231.9020 58.6794 "/>
<path d="M231.9020 58.6794 L232.1270 59.1293 "/>
<path d="M232.1270 59.1293 L232.1270 60.9288 "/>
<path d="M230.1026 56.4300 L229.8776 56.2051 "/>
<path d="M229.8776 56.2051 L229.6527 55.7552 "/>
<path d="M229.6527 55.7552 L229.6527 54.6306 "/>
<path d="M229.6527 54.6306 L229.8776 54.1807 "/>
<path d="M229.8776 54.1807 L230.1026 53.9557 "/>
<path d="M230.1026 53.9557 L230.5524 53.7308 "/>
<path d="M230.5524 53.7308 L231.0023 53.7308 "/>
<path d="M231.0023 53.7308 L231.6771 53.9557 "/>
<path d="M231.6771 53.9557 L234.3763 56.6550 "/>
<path d="M234.3763 56.6550 L234.3763 53.7308 "/>
</g><g transform="rotate(-90.000000 85.6174 75.4217)">
<text x="85.6174" y="77.7835" textLength="10.4033" font-size="6.2982" lengthAdjust="spacingAndGlyphs" text-anchor="middle" opacity="0" stroke-opacity="0">R1</text>
</g>
<g class="stroked-text"><desc>R1</desc>
<path d="M87.7658 76.2090 L85.5164 77.7835 "/>
<path d="M87.7658 78.9082 L83.0421 78.9082 "/>
<path d="M83.0421 78.9082 L83.0421 77.1087 "/>
<path d="M83.0421 77.1087 L83.2671 76.6588 "/>
<path d="M83.2671 76.6588 L83.4920 76.4339 "/>
<path d="M83.4920 76.4339 L83.9419 76.2090 "/>
<path d="M83.9419 76.2090 L84.6167 76.2090 "/>
<path d="M84.6167 76.2090 L85.0666 76.4339 "/>
<path d="M85.0666 76.4339 L85.2915 76.6588 "/>
<path d="M85.2915 76.6588 L85.5164 77.1087 "/>
<path d="M85.5164 77.1087 L85.5164 78.9082 "/>
<path d="M87.7658 71.7102 L87.7658 74.4095 "/>
<path d="M87.7658 73.0599 L83.0421 73.0599 "/>
<path d="M83.0421 73.0599 L83.7170 73.5097 "/>
<path d="M83.7170 73.5097 L84.1668 73.9596 "/>
<path d="M84.1668 73.9596 L84.3918 74.4095 "/>
</g></g>
<g style="fill:none;  stroke:#848484; stroke-width:1.7714; stroke-opacity:1;  stroke-linecap:round; stroke-linejoin:round;">
<g transform="rotate(-90.000000 277.2208 107.9559)">
<text x="277.2208" y="113.8605" textLength="23.1965" font-size="15.7455" lengthAdjust="spacingAndGlyphs" text-anchor="middle" opacity="0" stroke-opacity="0">J1</text>
</g>
<g class="stroked-text"><desc>J1</desc>
<path d="M270.7827 111.8923 L279.2178 111.8923 "/>
<path d="M279.2178 111.8923 L280.9048 112.4546 "/>
<path d="M280.9048 112.4546 L282.0295 113.5793 "/>
<path d="M282.0295 113.5793 L282.5918 115.2663 "/>
<path d="M282.5918 115.2663 L282.5918 116.3910 "/>
<path d="M282.5918 100.0831 L282.5918 106.8312 "/>
<path d="M282.5918 103.4572 L270.7827 103.4572 "/>
<path d="M270.7827 103.4572 L272.4697 104.5818 "/>
<path d="M272.4697 104.5818 L273.5944 105.7065 "/>
<path d="M273.5944 105.7065 L274.1567 106.8312 "/>
</g><text x="98.0170" y="44.3046" textLength="31.5957" font-size="19.9968" lengthAdjust="spacingAndGlyphs" text-anchor="middle" opacity="0" stroke-opacity="0">D1</text>
<g class="stroked-text"><desc>D1</desc>
<path d="M86.9473 43.6519 L86.9473 28.6542 "/>
<path d="M86.9473 28.6542 L90.5182 28.6542 "/>
<path d="M90.5182 28.6542 L92.6607 29.3684 "/>
<path d="M92.6607 29.3684 L94.0890 30.7968 "/>
<path d="M94.0890 30.7968 L94.8032 32.2251 "/>
<path d="M94.8032 32.2251 L95.5174 35.0818 "/>
<path d="M95.5174 35.0818 L95.5174 37.2243 "/>
<path d="M95.5174 37.2243 L94.8032 40.0810 "/>
<path d="M94.8032 40.0810 L94.0890 41.5093 "/>
<path d="M94.0890 41.5093 L92.6607 42.9377 "/>
<path d="M92.6607 42.9377 L90.5182 43.6519 "/>
<path d="M90.5182 43.6519 L86.9473 43.6519 "/>
<path d="M109.8008 43.6519 L101.2308 43.6519 "/>
<path d="M105.5158 43.6519 L105.5158 28.6542 "/>
<path d="M105.5158 28.6542 L104.0875 30.7968 "/>
<path d="M104.0875 30.7968 L102.6591 32.2251 "/>
<path d="M102.6591 32.2251 L101.2308 32.9393 "/>
</g><text x="119.9135" y="44.9045" textLength="17.3122" font-size="19.9968" lengthAdjust="spacingAndGlyphs" text-anchor="middle" opacity="0" stroke-opacity="0">K</text>
<g class="stroked-text"><desc>K</desc>
<path d="M115.9856 44.2518 L115.9856 29.2541 "/>
<path d="M124.5556 44.2518 L118.1281 35.6817 "/>
<path d="M124.5556 29.2541 L115.9856 37.8242 "/>
</g></g>
<g style="fill:none;  stroke:#848484; stroke-width:1.1809; stroke-opacity:1;  stroke-linecap:round; stroke-linejoin:round;">
<text x="219.2969" y="116.9899" textLength="16.2966" font-size="9.4473" lengthAdjust="spacingAndGlyphs" text-anchor="middle" opacity="0" stroke-opacity="0">U2</text>
<g class="stroked-text"><desc>U2</desc>
<path d="M213.8985 109.5781 L213.8985 115.3140 "/>
<path d="M213.8985 115.3140 L214.2359 115.9888 "/>
<path d="M214.2359 115.9888 L214.5733 116.3262 "/>
<path d="M214.5733 116.3262 L215.2481 116.6636 "/>
<path d="M215.2481 116.6636 L216.5977 116.6636 "/>
<path d="M216.5977 116.6636 L217.2725 116.3262 "/>
<path d="M217.2725 116.3262 L217.6099 115.9888 "/>
<path d="M217.6099 115.9888 L217.9473 115.3140 "/>
<path d="M217.9473 115.3140 L217.9473 109.5781 "/>
<path d="M220.9839 110.2529 L221.3213 109.9155 "/>
<path d="M221.3213 109.9155 L221.9962 109.5781 "/>
<path d="M221.9962 109.5781 L223.6832 109.5781 "/>
<path d="M223.6832 109.5781 L224.3580 109.9155 "/>
<path d="M224.3580 109.9155 L224.6954 110.2529 "/>
<path d="M224.6954 110.2529 L225.0328 110.9277 "/>
<path d="M225.0328 110.9277 L225.0328 111.6026 "/>
<path d="M225.0328 111.6026 L224.6954 112.6148 "/>
<path d="M224.6954 112.6148 L220.6465 116.6636 "/>
<path d="M220.6465 116.6636 L225.0328 116.6636 "/>
</g><path style="fill:none;  stroke:#848484; stroke-width:1.1809; stroke-opacity:1;  stroke-linecap:round; stroke-linejoin:round;fill:none" d="M 136.6920,119.0270 136.6920,133.1979 102.4454,133.1979 102.4454,114.3033 131.9683,114.3033 Z"/> 
<path d="M150.0717 66.5648 L159.5190 66.5648 "/>
<path d="M150.0717 85.4595 L150.0717 66.5648 "/>
<path d="M159.5190 66.5648 L159.5190 85.4595 "/>
<path d="M159.5190 85.4595 L150.0717 85.4595 "/>
<path d="M207.0745 47.8769 L216.5218 47.8769 "/>
<path d="M207.0745 66.7715 L207.0745 47.8769 "/>
<path d="M216.5218 47.8769 L216.5218 66.7715 "/>
<path d="M216.5218 66.7715 L207.0745 66.7715 "/>
</g>
<g style="fill:none;  stroke:#848484; stroke-width:1.7714; stroke-opacity:1;  stroke-linecap:round; stroke-linejoin:round;">
<path d="M122.1785 56.0075 L140.1757 56.0075 "/>
<path d="M122.1785 68.0055 L122.1785 56.0075 "/>
<path d="M122.1785 92.0017 L122.1785 80.0036 "/>
<path d="M140.1757 56.0075 L140.1757 68.0055 "/>
<path d="M140.1757 80.0036 L140.1757 92.0017 "/>
<path d="M140.1757 92.0017 L122.1785 92.0017 "/>
</g>
<g style="fill:none;  stroke:#848484; stroke-width:1.1809; stroke-opacity:1;  stroke-linecap:round; stroke-linejoin:round;">
<path d="M102.5990 69.2632 L113.2272 69.2632 "/>
<path d="M102.5990 84.6151 L102.5990 69.2632 "/>
<path d="M105.5512 75.7583 L107.9131 79.3010 "/>
<path d="M107.9131 75.7583 L107.9131 73.9869 "/>
<path d="M107.9131 79.3010 L107.9131 81.0724 "/>
<path d="M107.9131 79.3010 L110.2749 75.7583 "/>
<path d="M110.2749 75.7583 L105.5512 75.7583 "/>
<path d="M110.2749 79.3010 L105.5512 79.3010 "/>
<path d="M113.2272 69.2632 L113.2272 84.6151 "/>
<path d="M113.2272 84.6151 L102.5990 84.6151 "/>
<path d="M148.1468 113.2995 L157.5941 113.2995 "/>
<path d="M148.1468 132.1942 L148.1468 113.2995 "/>
<path d="M157.5941 113.2995 L157.5941 132.1942 "/>
<path d="M157.5941 132.1942 L148.1468 132.1942 "/>
<path d="M167.9271 113.2995 L177.3745 113.2995 "/>
<path d="M167.9271 132.1942 L167.9271 113.2995 "/>
<path d="M177.3745 113.2995 L177.3745 132.1942 "/>
<path d="M177.3745 132.1942 L167.9271 132.1942 "/>
<path d="M79.1224 128.1790 L88.5697 128.1790 "/>
<path d="M79.1224 147.0737 L79.1224 128.1790 "/>
<path d="M88.5697 128.1790 L88.5697 147.0737 "/>
<path d="M88.5697 147.0737 L79.1224 147.0737 "/>
</g>
<g style="fill:none;  stroke:#848484; stroke-width:1.7714; stroke-opacity:1;  stroke-linecap:round; stroke-linejoin:round;">
<path d="M68.4941 158.4400 L127.5399 158.4400 "/>
<path d="M68.4941 186.7819 L68.4941 158.4400 "/>
<path d="M127.5399 158.4400 L127.5399 186.7819 "/>
<path d="M127.5399 186.7819 L68.4941 186.7819 "/>
</g>
<g style="fill:none;  stroke:#848484; stroke-width:1.1809; stroke-opacity:1;  stroke-linecap:round; stroke-linejoin:round;">
<path d="M7.0866 56.2909 L7.0866 153.7163 "/>
<path d="M46.5633 82.8615 L54.9136 88.7660 "/>
<path d="M54.9136 56.2909 L7.0866 56.2909 "/>
<path d="M54.9136 56.2909 L54.9136 153.7163 "/>
<path d="M54.9136 76.9569 L46.5633 82.8615 "/>
<path d="M54.9136 153.7163 L7.0866 153.7163 "/>
<path d="M227.5043 47.9950 L236.9516 47.9950 "/>
<path d="M227.5043 66.8896 L227.5043 47.9950 "/>
<path d="M236.9516 47.9950 L236.9516 66.8896 "/>
<path d="M236.9516 66.8896 L227.5043 66.8896 "/>
<path d="M80.7461 65.9744 L90.4887 65.9744 "/>
<path d="M80.7461 84.8690 L80.7461 65.9744 "/>
<path d="M90.4887 65.9744 L90.4887 84.8690 "/>
<path d="M90.4887 84.8690 L80.7461 84.8690 "/>
</g>
<g style="fill:none;  stroke:#848484; stroke-width:1.7714; stroke-opacity:1;  stroke-linecap:round; stroke-linejoin:round;">
<path d="M68.4941 22.6348 L127.5399 22.6348 "/>
<path d="M68.4941 50.9768 L68.4941 22.6348 "/>
<path d="M127.5399 22.6348 L127.5399 50.9768 "/>
<path d="M127.5399 50.9768 L68.4941 50.9768 "/>
</g>
<g style="fill:none;  stroke:#848484; stroke-width:1.1809; stroke-opacity:1;  stroke-linecap:round; stroke-linejoin:round;">
<path d="M201.5832 95.7334 L237.0106 95.7334 "/>
<path d="M201.5832 131.1609 L201.5832 95.7334 "/>
<path d="M225.2015 131.1609 L201.5832 131.1609 "/>
<path d="M237.0106 95.7334 L237.0106 119.3517 "/>
<path d="M237.0106 119.3517 L225.2015 131.1609 "/>
</g> 
<svg:g><svg:g><svg:title>SVG Image created as TFI2CADC01-Edge_Cuts1.svg date 2025/10/11 18:07:27 </svg:title>
  <svg:desc>Image generated by PCBNEW </svg:desc>
<svg:g style="fill:#C2C200; fill-opacity:1.0000;stroke:#C2C200; stroke-opacity:1.0000; stroke-linecap:round; stroke-linejoin:round;" transform="translate(0 0) scale(1 1)">
</svg:g>
<svg:g style="fill:none;  stroke:#C2C200; stroke-width:1.7714; stroke-opacity:1;  stroke-linecap:round; stroke-linejoin:round;">
<svg:path d="M284.3063 16.4350 L296.1154 16.4350 "/>
<svg:path d="M248.8788 16.4350 A17.7137 17.7137 0.0 0 0 284.3063 16.4350"/>
<svg:path d="M248.8788 193.5722 L166.2148 193.5722 "/>
<svg:path d="M12.6959 16.4350 A17.7137 17.7137 0.0 0 0 48.1234 16.4350"/>
<svg:path d="M12.6959 193.5722 L0.8868 193.5722 "/>
<svg:path d="M296.1154 193.5722 L284.3063 193.5722 "/>
<svg:path d="M130.7874 193.5722 L48.1234 193.5722 "/>
<svg:path d="M48.1234 193.5722 A17.7137 17.7137 0.0 0 0 12.6959 193.5722"/>
<svg:path d="M0.8868 16.4350 L12.6959 16.4350 "/>
<svg:path d="M166.2148 16.4350 L248.8788 16.4350 "/>
<svg:path d="M166.2148 193.5722 A17.7137 17.7137 0.0 0 0 130.7874 193.5722"/>
<svg:path d="M284.3063 193.5722 A17.7137 17.7137 0.0 0 0 248.8788 193.5722"/>
<svg:path d="M0.8868 193.5722 L0.8868 16.4350 "/>
<svg:path d="M48.1234 16.4350 L130.7874 16.4350 "/>
<svg:path d="M296.1154 16.4350 L296.1154 193.5722 "/>
<svg:path d="M130.7874 16.4350 A17.7137 17.7137 0.0 0 0 166.2148 16.4350"/>
</svg:g>
<svg:g style="fill:none;  stroke:#C2C200; stroke-width:0.5905; stroke-opacity:1;  stroke-linecap:round; stroke-linejoin:round;">
<svg:path d="M85.0269 164.3446 L85.0269 180.8774 "/>
<svg:path d="M88.5697 184.4201 L107.4643 184.4201 "/>
<svg:path d="M107.4643 160.8018 L88.5697 160.8018 "/>
<svg:path d="M111.0071 180.8774 L111.0071 164.3446 "/>
<svg:path d="M88.5697 160.8018 A3.5427 3.5427 0.0 0 0 85.0269 164.3446"/>
<svg:path d="M85.0269 180.8774 A3.5427 3.5427 0.0 0 0 88.5697 184.4201"/>
<svg:path d="M111.0071 164.3446 A3.5427 3.5427 0.0 0 0 107.4643 160.8018"/>
<svg:path d="M107.4643 184.4201 A3.5427 3.5427 0.0 0 0 111.0071 180.8774"/>
<svg:path d="M85.0269 28.5394 L85.0269 45.0722 "/>
<svg:path d="M88.5697 48.6149 L107.4643 48.6149 "/>
<svg:path d="M107.4643 24.9966 L88.5697 24.9966 "/>
<svg:path d="M111.0071 45.0722 L111.0071 28.5394 "/>
<svg:path d="M88.5697 24.9966 A3.5427 3.5427 0.0 0 0 85.0269 28.5394"/>
<svg:path d="M85.0269 45.0722 A3.5427 3.5427 0.0 0 0 88.5697 48.6149"/>
<svg:path d="M111.0071 28.5394 A3.5427 3.5427 0.0 0 0 107.4643 24.9966"/>
<svg:path d="M107.4643 48.6149 A3.5427 3.5427 0.0 0 0 111.0071 45.0722"/>
</svg:g> 
</svg:g></svg:g></svg>
