<?xml version='1.0' encoding='ASCII' standalone='yes'?>
<svg xmlns:svg="http://www.w3.org/2000/svg" xmlns="http://www.w3.org/2000/svg" xmlns:xlink="http://www.w3.org/1999/xlink" version="1.1" width="297.0022mm" height="210.0072mm" viewBox="0.0000 0.0000 297.0022 210.0072">
<title>SVG Image created as TFI2CADC01-B_Fab0.svg date 2025/10/02 18:08:26 </title>
  <desc>Image generated by PCBNEW </desc>
<g style="fill:#000084; fill-opacity:1.0000;stroke:#000084; stroke-opacity:1.0000; stroke-linecap:round; stroke-linejoin:round;" transform="translate(0 0) scale(1 1)">
</g>
<g style="fill:none;  stroke:#000084; stroke-width:1.2525; stroke-opacity:1;  stroke-linecap:round; stroke-linejoin:round;">
<text x="198.3333" y="393.4993" transform="scale(-1 1) translate(-396.666607 0)" textLength="10.4374" font-size="11.1332" lengthAdjust="spacingAndGlyphs" text-anchor="middle" opacity="0" stroke-opacity="0">K</text>
<g class="stroked-text"><desc>K</desc>
<path d="M200.5202 393.1221 L200.5202 384.7722 "/>
<path d="M195.7488 393.1221 L199.3273 388.3507 "/>
<path d="M195.7488 384.7722 L200.5202 389.5436 "/>
</g><text x="697.6574" y="406.0242" transform="scale(-1 1) translate(-1395.314718 0)" textLength="10.4374" font-size="11.1332" lengthAdjust="spacingAndGlyphs" text-anchor="middle" opacity="0" stroke-opacity="0">K</text>
<g class="stroked-text"><desc>K</desc>
<path d="M699.8442 405.6469 L699.8442 397.2970 "/>
<path d="M695.0729 405.6469 L698.6514 400.8756 "/>
<path d="M695.0729 397.2970 L699.8442 402.0684 "/>
</g></g> 
<svg:g><svg:g><svg:title>SVG Image created as TFI2CADC01-Edge_Cuts1.svg date 2025/10/02 18:08:26 </svg:title>
  <svg:desc>Image generated by PCBNEW </svg:desc>
<svg:g style="fill:#C2C200; fill-opacity:1.0000;stroke:#C2C200; stroke-opacity:1.0000; stroke-linecap:round; stroke-linejoin:round;" transform="translate(0 0) scale(1 1)">
</svg:g>
<svg:g style="fill:none;  stroke:#C2C200; stroke-width:1.2525; stroke-opacity:1;  stroke-linecap:round; stroke-linejoin:round;">
<svg:path d="M202.7755 209.3774 L261.2248 209.3774 "/>
<svg:path d="M286.2745 209.3774 L294.6244 209.3774 "/>
<svg:path d="M286.2745 209.3774 A12.5249 12.5249 0.0 0 0 261.2248 209.3774"/>
<svg:path d="M35.7774 209.3774 A12.5249 12.5249 0.0 0 0 10.7277 209.3774"/>
<svg:path d="M177.7257 0.6298 L119.2764 0.6298 "/>
<svg:path d="M94.2267 0.6298 A12.5249 12.5249 0.0 0 0 119.2764 0.6298"/>
<svg:path d="M94.2267 0.6298 L35.7774 0.6298 "/>
<svg:path d="M119.2764 209.3774 L177.7257 209.3774 "/>
<svg:path d="M10.7277 0.6298 A12.5249 12.5249 0.0 0 0 35.7774 0.6298"/>
<svg:path d="M202.7755 209.3774 A12.5249 12.5249 0.0 0 0 177.7257 209.3774"/>
<svg:path d="M261.2248 0.6298 A12.5249 12.5249 0.0 0 0 286.2745 0.6298"/>
<svg:path d="M2.3778 209.3774 L10.7277 209.3774 "/>
<svg:path d="M261.2248 0.6298 L202.7755 0.6298 "/>
<svg:path d="M294.6244 0.6298 L286.2745 0.6298 "/>
<svg:path d="M294.6244 209.3774 L294.6244 0.6298 "/>
<svg:path d="M35.7774 209.3774 L94.2267 209.3774 "/>
<svg:path d="M177.7257 0.6298 A12.5249 12.5249 0.0 0 0 202.7755 0.6298"/>
<svg:path d="M119.2764 209.3774 A12.5249 12.5249 0.0 0 0 94.2267 209.3774"/>
<svg:path d="M10.7277 0.6298 L2.3778 0.6298 "/>
<svg:path d="M2.3778 0.6298 L2.3778 209.3774 "/>
</svg:g>
<svg:g style="fill:none;  stroke:#C2C200; stroke-width:0.4175; stroke-opacity:1;  stroke-linecap:round; stroke-linejoin:round;">
<svg:path d="M224.4852 383.0553 L224.4852 394.7451 "/>
<svg:path d="M221.9802 397.2501 L208.6204 397.2501 "/>
<svg:path d="M208.6204 380.5503 L221.9802 380.5503 "/>
<svg:path d="M206.1154 394.7451 L206.1154 383.0553 "/>
<svg:path d="M224.4852 383.0553 A2.5050 2.5050 0.0 0 0 221.9802 380.5503"/>
<svg:path d="M221.9802 397.2501 A2.5050 2.5050 0.0 0 0 224.4852 394.7451"/>
<svg:path d="M208.6204 380.5503 A2.5050 2.5050 0.0 0 0 206.1154 383.0553"/>
<svg:path d="M206.1154 394.7451 A2.5050 2.5050 0.0 0 0 208.6204 397.2501"/>
<svg:path d="M723.8092 395.5801 L723.8092 407.2700 "/>
<svg:path d="M721.3043 409.7750 L707.9444 409.7750 "/>
<svg:path d="M707.9444 393.0752 L721.3043 393.0752 "/>
<svg:path d="M705.4395 407.2700 L705.4395 395.5801 "/>
<svg:path d="M723.8092 395.5801 A2.5050 2.5050 0.0 0 0 721.3043 393.0752"/>
<svg:path d="M721.3043 409.7750 A2.5050 2.5050 0.0 0 0 723.8092 407.2700"/>
<svg:path d="M707.9444 393.0752 A2.5050 2.5050 0.0 0 0 705.4395 395.5801"/>
<svg:path d="M705.4395 407.2700 A2.5050 2.5050 0.0 0 0 707.9444 409.7750"/>
</svg:g> 
</svg:g></svg:g></svg>
