<?xml version='1.0' encoding='ASCII' standalone='yes'?>
<svg xmlns:svg="http://www.w3.org/2000/svg" xmlns="http://www.w3.org/2000/svg" xmlns:xlink="http://www.w3.org/1999/xlink" version="1.1" width="297.0022mm" height="210.0072mm" viewBox="0.0000 0.0000 297.0022 210.0072">
<title>SVG Image created as TFI2CADC01-B_Fab0.svg date 2025/10/11 18:07:27 </title>
  <desc>Image generated by PCBNEW </desc>
<g style="fill:#000084; fill-opacity:1.0000;stroke:#000084; stroke-opacity:1.0000; stroke-linecap:round; stroke-linejoin:round;" transform="translate(0 0) scale(1 1)">
</g>
<g style="fill:none;  stroke:#000084; stroke-width:1.7714; stroke-opacity:1;  stroke-linecap:round; stroke-linejoin:round;">
<text x="174.9890" y="179.1154" transform="scale(-1 1) translate(-349.978029 0)" textLength="14.7614" font-size="15.7455" lengthAdjust="spacingAndGlyphs" text-anchor="middle" opacity="0" stroke-opacity="0">K</text>
<g class="stroked-text"><desc>K</desc>
<path d="M178.0819 178.5819 L178.0819 166.7727 "/>
<path d="M171.3338 178.5819 L176.3949 171.8338 "/>
<path d="M171.3338 166.7727 L178.0819 173.5208 "/>
</g><text x="174.9890" y="43.3103" transform="scale(-1 1) translate(-349.978029 0)" textLength="14.7614" font-size="15.7455" lengthAdjust="spacingAndGlyphs" text-anchor="middle" opacity="0" stroke-opacity="0">K</text>
<g class="stroked-text"><desc>K</desc>
<path d="M178.0819 42.7767 L178.0819 30.9676 "/>
<path d="M171.3338 42.7767 L176.3949 36.0286 "/>
<path d="M171.3338 30.9676 L178.0819 37.7156 "/>
</g></g>
<g style="fill:none;  stroke:#000084; stroke-width:1.0628; stroke-opacity:1;  stroke-linecap:round; stroke-linejoin:round;">
<text x="67.2542" y="158.0267" textLength="13.9179" font-size="9.4473" lengthAdjust="spacingAndGlyphs" text-anchor="middle" opacity="0" stroke-opacity="0">T1</text>
<g class="stroked-text"><desc>T1</desc>
<path d="M61.8557 150.6210 L65.9046 150.6210 "/>
<path d="M63.8801 157.7065 L63.8801 150.6210 "/>
<path d="M71.9778 157.7065 L67.9290 157.7065 "/>
<path d="M69.9534 157.7065 L69.9534 150.6210 "/>
<path d="M69.9534 150.6210 L69.2786 151.6332 "/>
<path d="M69.2786 151.6332 L68.6038 152.3081 "/>
<path d="M68.6038 152.3081 L67.9290 152.6455 "/>
</g></g>
<g style="fill:none;  stroke:#000084; stroke-width:1.7714; stroke-opacity:1;  stroke-linecap:round; stroke-linejoin:round;">
<g transform="rotate(90.000000 307.0389 105.0036)">
<text x="307.0389" y="110.9082" textLength="147.4737" font-size="15.7455" lengthAdjust="spacingAndGlyphs" text-anchor="middle" opacity="0" stroke-opacity="0">SM04B-GHS-TB</text>
</g>
<g class="stroked-text"><desc>SM04B-GHS-TB</desc>
<path d="M302.2302 34.9922 L301.6679 36.6793 "/>
<path d="M301.6679 36.6793 L301.6679 39.4910 "/>
<path d="M301.6679 39.4910 L302.2302 40.6156 "/>
<path d="M302.2302 40.6156 L302.7925 41.1780 "/>
<path d="M302.7925 41.1780 L303.9172 41.7403 "/>
<path d="M303.9172 41.7403 L305.0419 41.7403 "/>
<path d="M305.0419 41.7403 L306.1666 41.1780 "/>
<path d="M306.1666 41.1780 L306.7289 40.6156 "/>
<path d="M306.7289 40.6156 L307.2913 39.4910 "/>
<path d="M307.2913 39.4910 L307.8536 37.2416 "/>
<path d="M307.8536 37.2416 L308.4159 36.1169 "/>
<path d="M308.4159 36.1169 L308.9783 35.5546 "/>
<path d="M308.9783 35.5546 L310.1030 34.9922 "/>
<path d="M310.1030 34.9922 L311.2276 34.9922 "/>
<path d="M311.2276 34.9922 L312.3523 35.5546 "/>
<path d="M312.3523 35.5546 L312.9147 36.1169 "/>
<path d="M312.9147 36.1169 L313.4770 37.2416 "/>
<path d="M313.4770 37.2416 L313.4770 40.0533 "/>
<path d="M313.4770 40.0533 L312.9147 41.7403 "/>
<path d="M301.6679 46.8014 L313.4770 46.8014 "/>
<path d="M313.4770 46.8014 L305.0419 50.7378 "/>
<path d="M305.0419 50.7378 L313.4770 54.6741 "/>
<path d="M313.4770 54.6741 L301.6679 54.6741 "/>
<path d="M313.4770 62.5469 L313.4770 63.6716 "/>
<path d="M313.4770 63.6716 L312.9147 64.7963 "/>
<path d="M312.9147 64.7963 L312.3523 65.3586 "/>
<path d="M312.3523 65.3586 L311.2276 65.9210 "/>
<path d="M311.2276 65.9210 L308.9783 66.4833 "/>
<path d="M308.9783 66.4833 L306.1666 66.4833 "/>
<path d="M306.1666 66.4833 L303.9172 65.9210 "/>
<path d="M303.9172 65.9210 L302.7925 65.3586 "/>
<path d="M302.7925 65.3586 L302.2302 64.7963 "/>
<path d="M302.2302 64.7963 L301.6679 63.6716 "/>
<path d="M301.6679 63.6716 L301.6679 62.5469 "/>
<path d="M301.6679 62.5469 L302.2302 61.4222 "/>
<path d="M302.2302 61.4222 L302.7925 60.8599 "/>
<path d="M302.7925 60.8599 L303.9172 60.2976 "/>
<path d="M303.9172 60.2976 L306.1666 59.7352 "/>
<path d="M306.1666 59.7352 L308.9783 59.7352 "/>
<path d="M308.9783 59.7352 L311.2276 60.2976 "/>
<path d="M311.2276 60.2976 L312.3523 60.8599 "/>
<path d="M312.3523 60.8599 L312.9147 61.4222 "/>
<path d="M312.9147 61.4222 L313.4770 62.5469 "/>
<path d="M309.5406 76.6054 L301.6679 76.6054 "/>
<path d="M314.0393 73.7937 L305.6042 70.9820 "/>
<path d="M305.6042 70.9820 L305.6042 78.2924 "/>
<path d="M307.8536 86.7275 L307.2913 88.4146 "/>
<path d="M307.2913 88.4146 L306.7289 88.9769 "/>
<path d="M306.7289 88.9769 L305.6042 89.5392 "/>
<path d="M305.6042 89.5392 L303.9172 89.5392 "/>
<path d="M303.9172 89.5392 L302.7925 88.9769 "/>
<path d="M302.7925 88.9769 L302.2302 88.4146 "/>
<path d="M302.2302 88.4146 L301.6679 87.2899 "/>
<path d="M301.6679 87.2899 L301.6679 82.7912 "/>
<path d="M301.6679 82.7912 L313.4770 82.7912 "/>
<path d="M313.4770 82.7912 L313.4770 86.7275 "/>
<path d="M313.4770 86.7275 L312.9147 87.8522 "/>
<path d="M312.9147 87.8522 L312.3523 88.4146 "/>
<path d="M312.3523 88.4146 L311.2276 88.9769 "/>
<path d="M311.2276 88.9769 L310.1030 88.9769 "/>
<path d="M310.1030 88.9769 L308.9783 88.4146 "/>
<path d="M308.9783 88.4146 L308.4159 87.8522 "/>
<path d="M308.4159 87.8522 L307.8536 86.7275 "/>
<path d="M307.8536 86.7275 L307.8536 82.7912 "/>
<path d="M306.1666 94.6003 L306.1666 103.5978 "/>
<path d="M312.9147 115.4069 L313.4770 114.2822 "/>
<path d="M313.4770 114.2822 L313.4770 112.5952 "/>
<path d="M313.4770 112.5952 L312.9147 110.9082 "/>
<path d="M312.9147 110.9082 L311.7900 109.7835 "/>
<path d="M311.7900 109.7835 L310.6653 109.2212 "/>
<path d="M310.6653 109.2212 L308.4159 108.6588 "/>
<path d="M308.4159 108.6588 L306.7289 108.6588 "/>
<path d="M306.7289 108.6588 L304.4796 109.2212 "/>
<path d="M304.4796 109.2212 L303.3549 109.7835 "/>
<path d="M303.3549 109.7835 L302.2302 110.9082 "/>
<path d="M302.2302 110.9082 L301.6679 112.5952 "/>
<path d="M301.6679 112.5952 L301.6679 113.7199 "/>
<path d="M301.6679 113.7199 L302.2302 115.4069 "/>
<path d="M302.2302 115.4069 L302.7925 115.9692 "/>
<path d="M302.7925 115.9692 L306.7289 115.9692 "/>
<path d="M306.7289 115.9692 L306.7289 113.7199 "/>
<path d="M301.6679 121.0303 L313.4770 121.0303 "/>
<path d="M307.8536 121.0303 L307.8536 127.7784 "/>
<path d="M301.6679 127.7784 L313.4770 127.7784 "/>
<path d="M302.2302 132.8394 L301.6679 134.5265 "/>
<path d="M301.6679 134.5265 L301.6679 137.3382 "/>
<path d="M301.6679 137.3382 L302.2302 138.4628 "/>
<path d="M302.2302 138.4628 L302.7925 139.0252 "/>
<path d="M302.7925 139.0252 L303.9172 139.5875 "/>
<path d="M303.9172 139.5875 L305.0419 139.5875 "/>
<path d="M305.0419 139.5875 L306.1666 139.0252 "/>
<path d="M306.1666 139.0252 L306.7289 138.4628 "/>
<path d="M306.7289 138.4628 L307.2913 137.3382 "/>
<path d="M307.2913 137.3382 L307.8536 135.0888 "/>
<path d="M307.8536 135.0888 L308.4159 133.9641 "/>
<path d="M308.4159 133.9641 L308.9783 133.4018 "/>
<path d="M308.9783 133.4018 L310.1030 132.8394 "/>
<path d="M310.1030 132.8394 L311.2276 132.8394 "/>
<path d="M311.2276 132.8394 L312.3523 133.4018 "/>
<path d="M312.3523 133.4018 L312.9147 133.9641 "/>
<path d="M312.9147 133.9641 L313.4770 135.0888 "/>
<path d="M313.4770 135.0888 L313.4770 137.9005 "/>
<path d="M313.4770 137.9005 L312.9147 139.5875 "/>
<path d="M306.1666 144.6486 L306.1666 153.6460 "/>
<path d="M313.4770 157.5824 L313.4770 164.3305 "/>
<path d="M301.6679 160.9565 L313.4770 160.9565 "/>
<path d="M307.8536 172.2033 L307.2913 173.8903 "/>
<path d="M307.2913 173.8903 L306.7289 174.4526 "/>
<path d="M306.7289 174.4526 L305.6042 175.0150 "/>
<path d="M305.6042 175.0150 L303.9172 175.0150 "/>
<path d="M303.9172 175.0150 L302.7925 174.4526 "/>
<path d="M302.7925 174.4526 L302.2302 173.8903 "/>
<path d="M302.2302 173.8903 L301.6679 172.7656 "/>
<path d="M301.6679 172.7656 L301.6679 168.2669 "/>
<path d="M301.6679 168.2669 L313.4770 168.2669 "/>
<path d="M313.4770 168.2669 L313.4770 172.2033 "/>
<path d="M313.4770 172.2033 L312.9147 173.3279 "/>
<path d="M312.9147 173.3279 L312.3523 173.8903 "/>
<path d="M312.3523 173.8903 L311.2276 174.4526 "/>
<path d="M311.2276 174.4526 L310.1030 174.4526 "/>
<path d="M310.1030 174.4526 L308.9783 173.8903 "/>
<path d="M308.9783 173.8903 L308.4159 173.3279 "/>
<path d="M308.4159 173.3279 L307.8536 172.2033 "/>
<path d="M307.8536 172.2033 L307.8536 168.2669 "/>
</g><g transform="rotate(90.000000 260.9832 105.0036)">
<text x="260.9832" y="110.9082" textLength="23.1965" font-size="15.7455" lengthAdjust="spacingAndGlyphs" text-anchor="middle" opacity="0" stroke-opacity="0">J3</text>
</g>
<g class="stroked-text"><desc>J3</desc>
<path d="M267.4213 101.0672 L258.9862 101.0672 "/>
<path d="M258.9862 101.0672 L257.2992 100.5049 "/>
<path d="M257.2992 100.5049 L256.1745 99.3802 "/>
<path d="M256.1745 99.3802 L255.6122 97.6932 "/>
<path d="M255.6122 97.6932 L255.6122 96.5685 "/>
<path d="M267.4213 105.5659 L267.4213 112.8764 "/>
<path d="M267.4213 112.8764 L262.9226 108.9400 "/>
<path d="M262.9226 108.9400 L262.9226 110.6270 "/>
<path d="M262.9226 110.6270 L262.3603 111.7517 "/>
<path d="M262.3603 111.7517 L261.7979 112.3140 "/>
<path d="M261.7979 112.3140 L260.6733 112.8764 "/>
<path d="M260.6733 112.8764 L257.8616 112.8764 "/>
<path d="M257.8616 112.8764 L256.7369 112.3140 "/>
<path d="M256.7369 112.3140 L256.1745 111.7517 "/>
<path d="M256.1745 111.7517 L255.6122 110.6270 "/>
<path d="M255.6122 110.6270 L255.6122 107.2530 "/>
<path d="M255.6122 107.2530 L256.1745 106.1283 "/>
<path d="M256.1745 106.1283 L256.7369 105.5659 "/>
</g><path style="fill:none;  stroke:#000084; stroke-width:1.1809; stroke-opacity:1;  stroke-linecap:round; stroke-linejoin:round;fill:none" d="M 83.1965,160.3885 51.3118,160.3885 51.3118,148.5793 83.1965,148.5793 Z"/> 
</g>
<g style="fill:none;  stroke:#000084; stroke-width:1.1809; stroke-opacity:1;  stroke-linecap:round; stroke-linejoin:round;">
<path d="M289.9156 153.7163 L289.9156 56.2909 "/>
<path d="M250.4389 127.1457 L242.0886 121.2412 "/>
<path d="M242.0886 56.2909 L289.9156 56.2909 "/>
<path d="M242.0886 133.0503 L250.4389 127.1457 "/>
<path d="M242.0886 153.7163 L289.9156 153.7163 "/>
<path d="M242.0886 153.7163 L242.0886 56.2909 "/>
</g> 
<svg:g><svg:g><svg:title>SVG Image created as TFI2CADC01-Edge_Cuts1.svg date 2025/10/11 18:07:27 </svg:title>
  <svg:desc>Image generated by PCBNEW </svg:desc>
<svg:g style="fill:#C2C200; fill-opacity:1.0000;stroke:#C2C200; stroke-opacity:1.0000; stroke-linecap:round; stroke-linejoin:round;" transform="translate(0 0) scale(1 1)">
</svg:g>
<svg:g style="fill:none;  stroke:#C2C200; stroke-width:1.7714; stroke-opacity:1;  stroke-linecap:round; stroke-linejoin:round;">
<svg:path d="M12.6959 16.4350 L0.8868 16.4350 "/>
<svg:path d="M12.6959 16.4350 A17.7137 17.7137 0.0 0 0 48.1234 16.4350"/>
<svg:path d="M48.1234 193.5722 L130.7874 193.5722 "/>
<svg:path d="M248.8788 16.4350 A17.7137 17.7137 0.0 0 0 284.3063 16.4350"/>
<svg:path d="M284.3063 193.5722 L296.1154 193.5722 "/>
<svg:path d="M0.8868 193.5722 L12.6959 193.5722 "/>
<svg:path d="M166.2148 193.5722 L248.8788 193.5722 "/>
<svg:path d="M284.3063 193.5722 A17.7137 17.7137 0.0 0 0 248.8788 193.5722"/>
<svg:path d="M296.1154 16.4350 L284.3063 16.4350 "/>
<svg:path d="M130.7874 16.4350 L48.1234 16.4350 "/>
<svg:path d="M166.2148 193.5722 A17.7137 17.7137 0.0 0 0 130.7874 193.5722"/>
<svg:path d="M48.1234 193.5722 A17.7137 17.7137 0.0 0 0 12.6959 193.5722"/>
<svg:path d="M296.1154 193.5722 L296.1154 16.4350 "/>
<svg:path d="M248.8788 16.4350 L166.2148 16.4350 "/>
<svg:path d="M0.8868 16.4350 L0.8868 193.5722 "/>
<svg:path d="M130.7874 16.4350 A17.7137 17.7137 0.0 0 0 166.2148 16.4350"/>
</svg:g>
<svg:g style="fill:none;  stroke:#C2C200; stroke-width:0.5905; stroke-opacity:1;  stroke-linecap:round; stroke-linejoin:round;">
<svg:path d="M211.9753 164.3446 L211.9753 180.8774 "/>
<svg:path d="M208.4325 184.4201 L189.5379 184.4201 "/>
<svg:path d="M189.5379 160.8018 L208.4325 160.8018 "/>
<svg:path d="M185.9951 180.8774 L185.9951 164.3446 "/>
<svg:path d="M211.9753 164.3446 A3.5427 3.5427 0.0 0 0 208.4325 160.8018"/>
<svg:path d="M208.4325 184.4201 A3.5427 3.5427 0.0 0 0 211.9753 180.8774"/>
<svg:path d="M189.5379 160.8018 A3.5427 3.5427 0.0 0 0 185.9951 164.3446"/>
<svg:path d="M185.9951 180.8774 A3.5427 3.5427 0.0 0 0 189.5379 184.4201"/>
<svg:path d="M211.9753 28.5394 L211.9753 45.0722 "/>
<svg:path d="M208.4325 48.6149 L189.5379 48.6149 "/>
<svg:path d="M189.5379 24.9966 L208.4325 24.9966 "/>
<svg:path d="M185.9951 45.0722 L185.9951 28.5394 "/>
<svg:path d="M211.9753 28.5394 A3.5427 3.5427 0.0 0 0 208.4325 24.9966"/>
<svg:path d="M208.4325 48.6149 A3.5427 3.5427 0.0 0 0 211.9753 45.0722"/>
<svg:path d="M189.5379 24.9966 A3.5427 3.5427 0.0 0 0 185.9951 28.5394"/>
<svg:path d="M185.9951 45.0722 A3.5427 3.5427 0.0 0 0 189.5379 48.6149"/>
</svg:g> 
</svg:g></svg:g></svg>
