<?xml version='1.0' encoding='ASCII' standalone='yes'?>
<svg xmlns:svg="http://www.w3.org/2000/svg" xmlns="http://www.w3.org/2000/svg" xmlns:xlink="http://www.w3.org/1999/xlink" version="1.1" width="297.0022mm" height="210.0072mm" viewBox="0.0000 0.0000 297.0022 210.0072">
<title>SVG Image created as TFI2CADC01-B_Fab0.svg date 2025/10/02 16:12:18 </title>
  <desc>Image generated by PCBNEW </desc>
<g style="fill:#000084; fill-opacity:1.0000;stroke:#000084; stroke-opacity:1.0000; stroke-linecap:round; stroke-linejoin:round;" transform="translate(0 0) scale(1 1)">
</g>
<g style="fill:none;  stroke:#000084; stroke-width:1.2525; stroke-opacity:1;  stroke-linecap:round; stroke-linejoin:round;">
<text x="192.0709" y="485.3483" transform="scale(-1 1) translate(-384.141756 0)" textLength="10.4374" font-size="11.1332" lengthAdjust="spacingAndGlyphs" text-anchor="middle" opacity="0" stroke-opacity="0">K</text>
<g class="stroked-text"><desc>K</desc>
<path d="M194.2578 484.9710 L194.2578 476.6211 "/>
<path d="M189.4864 484.9710 L193.0649 480.1996 "/>
<path d="M189.4864 476.6211 L194.2578 481.3925 "/>
</g><text x="736.9019" y="399.7618" transform="scale(-1 1) translate(-1473.803784 0)" textLength="10.4374" font-size="11.1332" lengthAdjust="spacingAndGlyphs" text-anchor="middle" opacity="0" stroke-opacity="0">K</text>
<g class="stroked-text"><desc>K</desc>
<path d="M739.0888 399.3845 L739.0888 391.0346 "/>
<path d="M734.3174 399.3845 L737.8959 394.6131 "/>
<path d="M734.3174 391.0346 L739.0888 395.8060 "/>
</g></g> 
<svg:g><svg:g><svg:title>SVG Image created as TFI2CADC01-Edge_Cuts1.svg date 2025/10/02 16:12:18 </svg:title>
  <svg:desc>Image generated by PCBNEW </svg:desc>
<svg:g style="fill:#C2C200; fill-opacity:1.0000;stroke:#C2C200; stroke-opacity:1.0000; stroke-linecap:round; stroke-linejoin:round;" transform="translate(0 0) scale(1 1)">
</svg:g>
<svg:g style="fill:none;  stroke:#C2C200; stroke-width:1.2525; stroke-opacity:1;  stroke-linecap:round; stroke-linejoin:round;">
<svg:path d="M202.7755 209.3774 L261.2248 209.3774 "/>
<svg:path d="M286.2745 209.3774 L294.6244 209.3774 "/>
<svg:path d="M286.2745 209.3774 A12.5249 12.5249 0.0 0 0 261.2248 209.3774"/>
<svg:path d="M35.7774 209.3774 A12.5249 12.5249 0.0 0 0 10.7277 209.3774"/>
<svg:path d="M177.7257 0.6298 L119.2764 0.6298 "/>
<svg:path d="M94.2267 0.6298 A12.5249 12.5249 0.0 0 0 119.2764 0.6298"/>
<svg:path d="M94.2267 0.6298 L35.7774 0.6298 "/>
<svg:path d="M119.2764 209.3774 L177.7257 209.3774 "/>
<svg:path d="M10.7277 0.6298 A12.5249 12.5249 0.0 0 0 35.7774 0.6298"/>
<svg:path d="M202.7755 209.3774 A12.5249 12.5249 0.0 0 0 177.7257 209.3774"/>
<svg:path d="M261.2248 0.6298 A12.5249 12.5249 0.0 0 0 286.2745 0.6298"/>
<svg:path d="M2.3778 209.3774 L10.7277 209.3774 "/>
<svg:path d="M261.2248 0.6298 L202.7755 0.6298 "/>
<svg:path d="M294.6244 0.6298 L286.2745 0.6298 "/>
<svg:path d="M294.6244 209.3774 L294.6244 0.6298 "/>
<svg:path d="M35.7774 209.3774 L94.2267 209.3774 "/>
<svg:path d="M177.7257 0.6298 A12.5249 12.5249 0.0 0 0 202.7755 0.6298"/>
<svg:path d="M119.2764 209.3774 A12.5249 12.5249 0.0 0 0 94.2267 209.3774"/>
<svg:path d="M10.7277 0.6298 L2.3778 0.6298 "/>
<svg:path d="M2.3778 0.6298 L2.3778 209.3774 "/>
</svg:g>
<svg:g style="fill:none;  stroke:#C2C200; stroke-width:0.4175; stroke-opacity:1;  stroke-linecap:round; stroke-linejoin:round;">
<svg:path d="M218.2228 474.9042 L218.2228 486.5941 "/>
<svg:path d="M215.7178 489.0990 L202.3580 489.0990 "/>
<svg:path d="M202.3580 472.3992 L215.7178 472.3992 "/>
<svg:path d="M199.8530 486.5941 L199.8530 474.9042 "/>
<svg:path d="M218.2228 474.9042 A2.5050 2.5050 0.0 0 0 215.7178 472.3992"/>
<svg:path d="M215.7178 489.0990 A2.5050 2.5050 0.0 0 0 218.2228 486.5941"/>
<svg:path d="M202.3580 472.3992 A2.5050 2.5050 0.0 0 0 199.8530 474.9042"/>
<svg:path d="M199.8530 486.5941 A2.5050 2.5050 0.0 0 0 202.3580 489.0990"/>
<svg:path d="M763.0538 389.3177 L763.0538 401.0076 "/>
<svg:path d="M760.5488 403.5125 L747.1890 403.5125 "/>
<svg:path d="M747.1890 386.8127 L760.5488 386.8127 "/>
<svg:path d="M744.6840 401.0076 L744.6840 389.3177 "/>
<svg:path d="M763.0538 389.3177 A2.5050 2.5050 0.0 0 0 760.5488 386.8127"/>
<svg:path d="M760.5488 403.5125 A2.5050 2.5050 0.0 0 0 763.0538 401.0076"/>
<svg:path d="M747.1890 386.8127 A2.5050 2.5050 0.0 0 0 744.6840 389.3177"/>
<svg:path d="M744.6840 401.0076 A2.5050 2.5050 0.0 0 0 747.1890 403.5125"/>
</svg:g> 
</svg:g></svg:g></svg>
