<!DOCTYPE svg PUBLIC "-//W3C//DTD SVG 1.1//EN" "http://www.w3.org/Graphics/SVG/1.1/DTD/svg11.dtd">
<svg xmlns="http://www.w3.org/2000/svg" version="1.1" width="96.5mm" height="59.1mm" viewBox="-171.075 87.425 96.5 59.10000000000001">
            <title>Picture generated by PcbDraw </title>
            <desc>Picture generated by PcbDraw</desc>
        <defs><clipPath id="cut-off"><path d=" M 135.0 117.5 A 1.5 1.5 0 0 0 132.0 117.5 L 131.0 117.5 L 131.0 92.5 L 132.0 92.5 A 1.5 1.5 0 0 0 135.0 92.5 L 142.0 92.5 A 1.5 1.5 0 0 0 145.0 92.5 L 152.0 92.5 A 1.5 1.5 0 0 0 155.0 92.5 L 162.0 92.5 A 1.5 1.5 0 0 0 165.0 92.5 L 166.0 92.5 L 166.0 117.5 L 165.0 117.5 A 1.5 1.5 0 0 0 162.0 117.5 L 155.0 117.5 A 1.5 1.5 0 0 0 152.0 117.5 L 145.0 117.5 A 1.5 1.5 0 0 0 142.0 117.5 L 135.0 117.5  M 139.4 139.7 A 0.3 0.3 0 0 0 139.7 140.0 L 141.3 140.0 A 0.3 0.3 0 0 0 141.6 139.7 L 141.6 138.3 A 0.3 0.3 0 0 0 141.3 138.0 L 139.7 138.0 A 0.3 0.3 0 0 0 139.4 138.3 L 139.4 139.7  M 79.6 141.2 A 0.3 0.3 0 0 0 79.9 141.5 L 81.5 141.5 A 0.3 0.3 0 0 0 81.8 141.2 L 81.8 139.8 A 0.3 0.3 0 0 0 81.5 139.5 L 79.9 139.5 A 0.3 0.3 0 0 0 79.6 139.8 L 79.6 141.2 " style="fill-rule: evenodd;"/></clipPath><mask id="pads-mask"><g style="fill:#ffffff; fill-opacity:1.0000;stroke:#ffffff; stroke-opacity:1.0000; stroke-linecap:round; stroke-linejoin:round;" transform="translate(0 0) scale(1 1)">
<path style="fill:#ffffff; fill-opacity:1.0000; stroke:none;fill-rule:evenodd;" d="M 154.2000,98.6500 154.2152,98.5735 154.2586,98.5086 154.3235,98.4652 154.4000,98.4500 156.1000,98.4500 156.1765,98.4652 156.2414,98.5086 156.2848,98.5735 156.3000,98.6500 156.3000,100.3500 156.2848,100.4265 156.2414,100.4914 156.1765,100.5348 156.1000,100.5500 154.4000,100.5500 154.3235,100.5348 154.2586,100.4914 154.2152,100.4265 154.2000,100.3500 Z"/> 
</g>
<g style="fill:#ffffff; fill-opacity:1.0000; stroke:none;">
<circle cx="155.2500" cy="102.0400" r="1.0500"/> 
</g>
<g style="fill:#ffffff; fill-opacity:1.0000; stroke:none;">
<circle cx="155.2500" cy="104.5800" r="1.0500"/> 
</g>
<g style="fill:#ffffff; fill-opacity:1.0000; stroke:none;">
<circle cx="155.2500" cy="107.1200" r="1.0500"/> 
</g>
<g style="fill:#ffffff; fill-opacity:1.0000; stroke:none;">
<circle cx="155.2500" cy="109.6600" r="1.0500"/> 
</g> 
</mask><mask id="pads-mask-silkscreen"><rect x="79.575" y="92.425" width="86.5" height="49.1" fill="white"/><g style="fill:#000000; fill-opacity:1.0000;stroke:#000000; stroke-opacity:1.0000; stroke-linecap:round; stroke-linejoin:round;" transform="translate(0 0) scale(1 1)">
<path style="fill:#000000; fill-opacity:1.0000; stroke:none;fill-rule:evenodd;" d="M 154.2000,98.6500 154.2152,98.5735 154.2586,98.5086 154.3235,98.4652 154.4000,98.4500 156.1000,98.4500 156.1765,98.4652 156.2414,98.5086 156.2848,98.5735 156.3000,98.6500 156.3000,100.3500 156.2848,100.4265 156.2414,100.4914 156.1765,100.5348 156.1000,100.5500 154.4000,100.5500 154.3235,100.5348 154.2586,100.4914 154.2152,100.4265 154.2000,100.3500 Z"/> 
</g>
<g style="fill:#000000; fill-opacity:1.0000; stroke:none;">
<circle cx="155.2500" cy="102.0400" r="1.0500"/> 
</g>
<g style="fill:#000000; fill-opacity:1.0000; stroke:none;">
<circle cx="155.2500" cy="104.5800" r="1.0500"/> 
</g>
<g style="fill:#000000; fill-opacity:1.0000; stroke:none;">
<circle cx="155.2500" cy="107.1200" r="1.0500"/> 
</g>
<g style="fill:#000000; fill-opacity:1.0000; stroke:none;">
<circle cx="155.2500" cy="109.6600" r="1.0500"/> 
</g> 
</mask><mask id="hole-mask"><g><rect x="79.575" y="92.425" fill="white" width="86.5" height="49.1"/><polyline stroke-linecap="round" stroke="black" stroke-width="1.0" points="-0.0 0 0.0 0" transform="translate(155.25 99.5) rotate(-0.0)"/><polyline stroke-linecap="round" stroke="black" stroke-width="1.0" points="-0.0 0 0.0 0" transform="translate(155.25 102.04) rotate(-0.0)"/><polyline stroke-linecap="round" stroke="black" stroke-width="1.0" points="-0.0 0 0.0 0" transform="translate(155.25 104.58) rotate(-0.0)"/><polyline stroke-linecap="round" stroke="black" stroke-width="1.0" points="-0.0 0 0.0 0" transform="translate(155.25 107.12) rotate(-0.0)"/><polyline stroke-linecap="round" stroke="black" stroke-width="1.0" points="-0.0 0 0.0 0" transform="translate(155.25 109.66) rotate(-0.0)"/></g></mask></defs><g transform="scale(-1,1)" id="boardContainer"><g id="substrate" clip-path="url(#cut-off)" mask="url(#hole-mask)"><g id="substrate-board" style="fill:#F6DE39; stroke:#F6DE39;"><path d=" M 135.0 117.5 A 1.5 1.5 0 0 0 132.0 117.5 L 131.0 117.5 L 131.0 92.5 L 132.0 92.5 A 1.5 1.5 0 0 0 135.0 92.5 L 142.0 92.5 A 1.5 1.5 0 0 0 145.0 92.5 L 152.0 92.5 A 1.5 1.5 0 0 0 155.0 92.5 L 162.0 92.5 A 1.5 1.5 0 0 0 165.0 92.5 L 166.0 92.5 L 166.0 117.5 L 165.0 117.5 A 1.5 1.5 0 0 0 162.0 117.5 L 155.0 117.5 A 1.5 1.5 0 0 0 152.0 117.5 L 145.0 117.5 A 1.5 1.5 0 0 0 142.0 117.5 L 135.0 117.5  M 139.4 139.7 A 0.3 0.3 0 0 0 139.7 140.0 L 141.3 140.0 A 0.3 0.3 0 0 0 141.6 139.7 L 141.6 138.3 A 0.3 0.3 0 0 0 141.3 138.0 L 139.7 138.0 A 0.3 0.3 0 0 0 139.4 138.3 L 139.4 139.7  M 79.6 141.2 A 0.3 0.3 0 0 0 79.9 141.5 L 81.5 141.5 A 0.3 0.3 0 0 0 81.8 141.2 L 81.8 139.8 A 0.3 0.3 0 0 0 81.5 139.5 L 79.9 139.5 A 0.3 0.3 0 0 0 79.6 139.8 L 79.6 141.2 " style="fill-rule: evenodd;"/><g style="fill: none;stroke: #F6DE39;stroke-width: 0.1500;stroke-opacity: 1;stroke-linecap: round;stroke-linejoin: round">
<path d="M142.0000 117.5000 L135.0000 117.5000 "/>
<path d="M132.0000 117.5000 L131.0000 117.5000 "/>
<path d="M135.0000 117.5000 A1.5000 1.5000 0.0 0 0 132.0000 117.5000"/>
<path d="M165.0000 117.5000 A1.5000 1.5000 0.0 0 0 162.0000 117.5000"/>
<path d="M145.0000 92.5000 L152.0000 92.5000 "/>
<path d="M152.0000 92.5000 A1.5000 1.5000 0.0 0 0 155.0000 92.5000"/>
<path d="M155.0000 92.5000 L162.0000 92.5000 "/>
<path d="M152.0000 117.5000 L145.0000 117.5000 "/>
<path d="M162.0000 92.5000 A1.5000 1.5000 0.0 0 0 165.0000 92.5000"/>
<path d="M145.0000 117.5000 A1.5000 1.5000 0.0 0 0 142.0000 117.5000"/>
<path d="M132.0000 92.5000 A1.5000 1.5000 0.0 0 0 135.0000 92.5000"/>
<path d="M166.0000 117.5000 L165.0000 117.5000 "/>
<path d="M135.0000 92.5000 L142.0000 92.5000 "/>
<path d="M131.0000 92.5000 L132.0000 92.5000 "/>
<path d="M131.0000 117.5000 L131.0000 92.5000 "/>
<path d="M162.0000 117.5000 L155.0000 117.5000 "/>
<path d="M142.0000 92.5000 A1.5000 1.5000 0.0 0 0 145.0000 92.5000"/>
<path d="M155.0000 117.5000 A1.5000 1.5000 0.0 0 0 152.0000 117.5000"/>
<path d="M165.0000 92.5000 L166.0000 92.5000 "/>
<path d="M166.0000 92.5000 L166.0000 117.5000 "/>
</g>
<g style="fill: none;stroke: #F6DE39;stroke-width: 0.0500;stroke-opacity: 1;stroke-linecap: round;stroke-linejoin: round">
<path d="M139.4000 138.3000 L139.4000 139.7000 "/>
<path d="M139.7000 140.0000 L141.3000 140.0000 "/>
<path d="M141.3000 138.0000 L139.7000 138.0000 "/>
<path d="M141.6000 139.7000 L141.6000 138.3000 "/>
<path d="M139.7000 138.0000 A0.3000 0.3000 0.0 0 0 139.4000 138.3000"/>
<path d="M139.4000 139.7000 A0.3000 0.3000 0.0 0 0 139.7000 140.0000"/>
<path d="M141.6000 138.3000 A0.3000 0.3000 0.0 0 0 141.3000 138.0000"/>
<path d="M141.3000 140.0000 A0.3000 0.3000 0.0 0 0 141.6000 139.7000"/>
<path d="M79.6000 139.8000 L79.6000 141.2000 "/>
<path d="M79.9000 141.5000 L81.5000 141.5000 "/>
<path d="M81.5000 139.5000 L79.9000 139.5000 "/>
<path d="M81.8000 141.2000 L81.8000 139.8000 "/>
<path d="M79.9000 139.5000 A0.3000 0.3000 0.0 0 0 79.6000 139.8000"/>
<path d="M79.6000 141.2000 A0.3000 0.3000 0.0 0 0 79.9000 141.5000"/>
<path d="M81.8000 139.8000 A0.3000 0.3000 0.0 0 0 81.5000 139.5000"/>
<path d="M81.5000 141.5000 A0.3000 0.3000 0.0 0 0 81.8000 141.2000"/>
</g> 
</g><g id="substrate-clad" style="fill:#72786c; stroke:#72786c;"><g style="fill: #72786c;fill-opacity: 1.0000;stroke: #72786c;stroke-opacity: 1.0000;stroke-linecap: round;stroke-linejoin: round" transform="translate(0 0) scale(1 1)">
<path style="fill: #72786c;fill-opacity: 1.0000;stroke: none;fill-rule: evenodd" d="M 154.2000,98.6500 154.2152,98.5735 154.2586,98.5086 154.3235,98.4652 154.4000,98.4500 156.1000,98.4500 156.1765,98.4652 156.2414,98.5086 156.2848,98.5735 156.3000,98.6500 156.3000,100.3500 156.2848,100.4265 156.2414,100.4914 156.1765,100.5348 156.1000,100.5500 154.4000,100.5500 154.3235,100.5348 154.2586,100.4914 154.2152,100.4265 154.2000,100.3500 Z"/> 
</g>
<g style="fill: #72786c;fill-opacity: 1.0000;stroke: none">
<circle cx="155.2500" cy="102.0400" r="1.0500"/> 
</g>
<g style="fill: #72786c;fill-opacity: 1.0000;stroke: none">
<circle cx="155.2500" cy="104.5800" r="1.0500"/> 
</g>
<g style="fill: #72786c;fill-opacity: 1.0000;stroke: none">
<circle cx="155.2500" cy="107.1200" r="1.0500"/> 
</g>
<g style="fill: #72786c;fill-opacity: 1.0000;stroke: none">
<circle cx="155.2500" cy="109.6600" r="1.0500"/> 
</g> 
</g><g id="substrate-copper" style="fill:#E0CA32; stroke:#E0CA32;"><g style="fill: #E0CA32;fill-opacity: 1.0000;stroke: #E0CA32;stroke-opacity: 1.0000;stroke-linecap: round;stroke-linejoin: round" transform="translate(0 0) scale(1 1)">
<path style="fill: #E0CA32;fill-opacity: 1.0000;stroke: none;fill-rule: evenodd" d="M 154.4000,100.3500 154.4000,98.6500 156.1000,98.6500 156.1000,100.3500 Z"/> 
</g>
<g style="fill: #E0CA32;fill-opacity: 1.0000;stroke: none">
<circle cx="155.2500" cy="102.0400" r="0.8500"/> 
</g>
<g style="fill: #E0CA32;fill-opacity: 1.0000;stroke: none">
<circle cx="155.2500" cy="104.5800" r="0.8500"/> 
</g>
<g style="fill: #E0CA32;fill-opacity: 1.0000;stroke: none">
<circle cx="155.2500" cy="107.1200" r="0.8500"/> 
</g>
<g style="fill: #E0CA32;fill-opacity: 1.0000;stroke: none">
<circle cx="155.2500" cy="109.6600" r="0.8500"/> 
</g> 
</g><g id="substrate-pads" style="fill:#E0DAD5; stroke:#E0DAD5;" mask="url(#pads-mask)"><g style="fill: #E0DAD5;fill-opacity: 1.0000;stroke: #E0DAD5;stroke-opacity: 1.0000;stroke-linecap: round;stroke-linejoin: round" transform="translate(0 0) scale(1 1)">
<path style="fill: #E0DAD5;fill-opacity: 1.0000;stroke: none;fill-rule: evenodd" d="M 154.4000,100.3500 154.4000,98.6500 156.1000,98.6500 156.1000,100.3500 Z"/> 
</g>
<g style="fill: #E0DAD5;fill-opacity: 1.0000;stroke: none">
<circle cx="155.2500" cy="102.0400" r="0.8500"/> 
</g>
<g style="fill: #E0DAD5;fill-opacity: 1.0000;stroke: none">
<circle cx="155.2500" cy="104.5800" r="0.8500"/> 
</g>
<g style="fill: #E0DAD5;fill-opacity: 1.0000;stroke: none">
<circle cx="155.2500" cy="107.1200" r="0.8500"/> 
</g>
<g style="fill: #E0DAD5;fill-opacity: 1.0000;stroke: none">
<circle cx="155.2500" cy="109.6600" r="0.8500"/> 
</g> 
</g><g id="substrate-outline" style="fill:#000000; stroke:#000000; stroke-width: 0.15"><g style="fill: none;stroke: #000000;stroke-width: #000000;stroke-opacity: 1;stroke-linecap: round;stroke-linejoin: round">
<path d="M142.0000 117.5000 L135.0000 117.5000 "/>
<path d="M132.0000 117.5000 L131.0000 117.5000 "/>
<path d="M135.0000 117.5000 A1.5000 1.5000 0.0 0 0 132.0000 117.5000"/>
<path d="M165.0000 117.5000 A1.5000 1.5000 0.0 0 0 162.0000 117.5000"/>
<path d="M145.0000 92.5000 L152.0000 92.5000 "/>
<path d="M152.0000 92.5000 A1.5000 1.5000 0.0 0 0 155.0000 92.5000"/>
<path d="M155.0000 92.5000 L162.0000 92.5000 "/>
<path d="M152.0000 117.5000 L145.0000 117.5000 "/>
<path d="M162.0000 92.5000 A1.5000 1.5000 0.0 0 0 165.0000 92.5000"/>
<path d="M145.0000 117.5000 A1.5000 1.5000 0.0 0 0 142.0000 117.5000"/>
<path d="M132.0000 92.5000 A1.5000 1.5000 0.0 0 0 135.0000 92.5000"/>
<path d="M166.0000 117.5000 L165.0000 117.5000 "/>
<path d="M135.0000 92.5000 L142.0000 92.5000 "/>
<path d="M131.0000 92.5000 L132.0000 92.5000 "/>
<path d="M131.0000 117.5000 L131.0000 92.5000 "/>
<path d="M162.0000 117.5000 L155.0000 117.5000 "/>
<path d="M142.0000 92.5000 A1.5000 1.5000 0.0 0 0 145.0000 92.5000"/>
<path d="M155.0000 117.5000 A1.5000 1.5000 0.0 0 0 152.0000 117.5000"/>
<path d="M165.0000 92.5000 L166.0000 92.5000 "/>
<path d="M166.0000 92.5000 L166.0000 117.5000 "/>
</g>
<g style="fill: none;stroke: #000000;stroke-width: #000000;stroke-opacity: 1;stroke-linecap: round;stroke-linejoin: round">
<path d="M139.4000 138.3000 L139.4000 139.7000 "/>
<path d="M139.7000 140.0000 L141.3000 140.0000 "/>
<path d="M141.3000 138.0000 L139.7000 138.0000 "/>
<path d="M141.6000 139.7000 L141.6000 138.3000 "/>
<path d="M139.7000 138.0000 A0.3000 0.3000 0.0 0 0 139.4000 138.3000"/>
<path d="M139.4000 139.7000 A0.3000 0.3000 0.0 0 0 139.7000 140.0000"/>
<path d="M141.6000 138.3000 A0.3000 0.3000 0.0 0 0 141.3000 138.0000"/>
<path d="M141.3000 140.0000 A0.3000 0.3000 0.0 0 0 141.6000 139.7000"/>
<path d="M79.6000 139.8000 L79.6000 141.2000 "/>
<path d="M79.9000 141.5000 L81.5000 141.5000 "/>
<path d="M81.5000 139.5000 L79.9000 139.5000 "/>
<path d="M81.8000 141.2000 L81.8000 139.8000 "/>
<path d="M79.9000 139.5000 A0.3000 0.3000 0.0 0 0 79.6000 139.8000"/>
<path d="M79.6000 141.2000 A0.3000 0.3000 0.0 0 0 79.9000 141.5000"/>
<path d="M81.8000 139.8000 A0.3000 0.3000 0.0 0 0 81.5000 139.5000"/>
<path d="M81.5000 141.5000 A0.3000 0.3000 0.0 0 0 81.8000 141.2000"/>
</g> 
<path d="M -0.5 0.0 A 0.5 0.5 0 1 1 0.5 0.0 L 0.5 -0.0 A 0.5 0.5 0 1 1 -0.5 -0.0 Z" transform="translate(155.25 99.5) rotate(-0.0)"/><path d="M -0.5 0.0 A 0.5 0.5 0 1 1 0.5 0.0 L 0.5 -0.0 A 0.5 0.5 0 1 1 -0.5 -0.0 Z" transform="translate(155.25 102.04) rotate(-0.0)"/><path d="M -0.5 0.0 A 0.5 0.5 0 1 1 0.5 0.0 L 0.5 -0.0 A 0.5 0.5 0 1 1 -0.5 -0.0 Z" transform="translate(155.25 104.58) rotate(-0.0)"/><path d="M -0.5 0.0 A 0.5 0.5 0 1 1 0.5 0.0 L 0.5 -0.0 A 0.5 0.5 0 1 1 -0.5 -0.0 Z" transform="translate(155.25 107.12) rotate(-0.0)"/><path d="M -0.5 0.0 A 0.5 0.5 0 1 1 0.5 0.0 L 0.5 -0.0 A 0.5 0.5 0 1 1 -0.5 -0.0 Z" transform="translate(155.25 109.66) rotate(-0.0)"/></g></g></g><g transform="scale(-1,1)" id="componentContainer"><!--Package_TO_SOT_SMD:SOT-23-5.back:U1--><!--Diode_SMD:D_SOD-523.back:D2--><!--Resistor_SMD:R_0603_1608Metric.back:R1--></g></svg>