<!DOCTYPE svg PUBLIC "-//W3C//DTD SVG 1.1//EN" "http://www.w3.org/Graphics/SVG/1.1/DTD/svg11.dtd">
<svg xmlns="http://www.w3.org/2000/svg" version="1.1" width="101.2mm" height="68.6mm" viewBox="-171.075 87.425 101.2 68.60000000000001">
            <title>Picture generated by PcbDraw </title>
            <desc>Picture generated by PcbDraw</desc>
        <defs><clipPath id="cut-off"><path d=" M 135.0 117.5 A 1.5 1.5 0 0 0 132.0 117.5 L 131.0 117.5 L 131.0 92.5 L 132.0 92.5 A 1.5 1.5 0 0 0 135.0 92.5 L 142.0 92.5 A 1.5 1.5 0 0 0 145.0 92.5 L 152.0 92.5 A 1.5 1.5 0 0 0 155.0 92.5 L 162.0 92.5 A 1.5 1.5 0 0 0 165.0 92.5 L 166.0 92.5 L 166.0 117.5 L 165.0 117.5 A 1.5 1.5 0 0 0 162.0 117.5 L 155.0 117.5 A 1.5 1.5 0 0 0 152.0 117.5 L 145.0 117.5 A 1.5 1.5 0 0 0 142.0 117.5 L 135.0 117.5  M 140.15 150.7 A 0.3 0.3 0 0 0 140.45 151.0 L 142.05 151.0 A 0.3 0.3 0 0 0 142.35 150.7 L 142.35 149.3 A 0.3 0.3 0 0 0 142.05 149.0 L 140.45 149.0 A 0.3 0.3 0 0 0 140.15 149.3 L 140.15 150.7  M 74.9 140.45 A 0.3 0.3 0 0 0 75.2 140.75 L 76.8 140.75 A 0.3 0.3 0 0 0 77.1 140.45 L 77.1 139.05 A 0.3 0.3 0 0 0 76.8 138.75 L 75.2 138.75 A 0.3 0.3 0 0 0 74.9 139.05 L 74.9 140.45 " style="fill-rule: evenodd;"/></clipPath><mask id="pads-mask"><g style="fill:#ffffff; fill-opacity:1.0000;stroke:#ffffff; stroke-opacity:1.0000; stroke-linecap:round; stroke-linejoin:round;" transform="translate(0 0) scale(1 1)">
<path style="fill:#ffffff; fill-opacity:1.0000; stroke:none;fill-rule:evenodd;" d="M 154.2000,98.6500 154.2152,98.5735 154.2586,98.5086 154.3235,98.4652 154.4000,98.4500 156.1000,98.4500 156.1765,98.4652 156.2414,98.5086 156.2848,98.5735 156.3000,98.6500 156.3000,100.3500 156.2848,100.4265 156.2414,100.4914 156.1765,100.5348 156.1000,100.5500 154.4000,100.5500 154.3235,100.5348 154.2586,100.4914 154.2152,100.4265 154.2000,100.3500 Z"/> 
</g>
<g style="fill:#ffffff; fill-opacity:1.0000; stroke:none;">
<circle cx="155.2500" cy="102.0400" r="1.0500"/> 
</g>
<g style="fill:#ffffff; fill-opacity:1.0000; stroke:none;">
<circle cx="155.2500" cy="104.5800" r="1.0500"/> 
</g>
<g style="fill:#ffffff; fill-opacity:1.0000; stroke:none;">
<circle cx="155.2500" cy="107.1200" r="1.0500"/> 
</g>
<g style="fill:#ffffff; fill-opacity:1.0000; stroke:none;">
<circle cx="155.2500" cy="109.6600" r="1.0500"/> 
</g> 
</mask><mask id="pads-mask-silkscreen"><rect x="74.875" y="92.425" width="91.2" height="58.6" fill="white"/><g style="fill:#000000; fill-opacity:1.0000;stroke:#000000; stroke-opacity:1.0000; stroke-linecap:round; stroke-linejoin:round;" transform="translate(0 0) scale(1 1)">
<path style="fill:#000000; fill-opacity:1.0000; stroke:none;fill-rule:evenodd;" d="M 154.2000,98.6500 154.2152,98.5735 154.2586,98.5086 154.3235,98.4652 154.4000,98.4500 156.1000,98.4500 156.1765,98.4652 156.2414,98.5086 156.2848,98.5735 156.3000,98.6500 156.3000,100.3500 156.2848,100.4265 156.2414,100.4914 156.1765,100.5348 156.1000,100.5500 154.4000,100.5500 154.3235,100.5348 154.2586,100.4914 154.2152,100.4265 154.2000,100.3500 Z"/> 
</g>
<g style="fill:#000000; fill-opacity:1.0000; stroke:none;">
<circle cx="155.2500" cy="102.0400" r="1.0500"/> 
</g>
<g style="fill:#000000; fill-opacity:1.0000; stroke:none;">
<circle cx="155.2500" cy="104.5800" r="1.0500"/> 
</g>
<g style="fill:#000000; fill-opacity:1.0000; stroke:none;">
<circle cx="155.2500" cy="107.1200" r="1.0500"/> 
</g>
<g style="fill:#000000; fill-opacity:1.0000; stroke:none;">
<circle cx="155.2500" cy="109.6600" r="1.0500"/> 
</g> 
</mask><mask id="hole-mask"><g><rect x="74.875" y="92.425" fill="white" width="91.2" height="58.6"/><polyline stroke-linecap="round" stroke="black" stroke-width="1.0" points="-0.0 0 0.0 0" transform="translate(155.25 99.5) rotate(-0.0)"/><polyline stroke-linecap="round" stroke="black" stroke-width="1.0" points="-0.0 0 0.0 0" transform="translate(155.25 102.04) rotate(-0.0)"/><polyline stroke-linecap="round" stroke="black" stroke-width="1.0" points="-0.0 0 0.0 0" transform="translate(155.25 104.58) rotate(-0.0)"/><polyline stroke-linecap="round" stroke="black" stroke-width="1.0" points="-0.0 0 0.0 0" transform="translate(155.25 107.12) rotate(-0.0)"/><polyline stroke-linecap="round" stroke="black" stroke-width="1.0" points="-0.0 0 0.0 0" transform="translate(155.25 109.66) rotate(-0.0)"/></g></mask></defs><g transform="scale(-1,1)" id="boardContainer"><g id="substrate" clip-path="url(#cut-off)" mask="url(#hole-mask)"><g id="substrate-board" style="fill:#F6DE39; stroke:#F6DE39;"><path d=" M 135.0 117.5 A 1.5 1.5 0 0 0 132.0 117.5 L 131.0 117.5 L 131.0 92.5 L 132.0 92.5 A 1.5 1.5 0 0 0 135.0 92.5 L 142.0 92.5 A 1.5 1.5 0 0 0 145.0 92.5 L 152.0 92.5 A 1.5 1.5 0 0 0 155.0 92.5 L 162.0 92.5 A 1.5 1.5 0 0 0 165.0 92.5 L 166.0 92.5 L 166.0 117.5 L 165.0 117.5 A 1.5 1.5 0 0 0 162.0 117.5 L 155.0 117.5 A 1.5 1.5 0 0 0 152.0 117.5 L 145.0 117.5 A 1.5 1.5 0 0 0 142.0 117.5 L 135.0 117.5  M 140.15 150.7 A 0.3 0.3 0 0 0 140.45 151.0 L 142.05 151.0 A 0.3 0.3 0 0 0 142.35 150.7 L 142.35 149.3 A 0.3 0.3 0 0 0 142.05 149.0 L 140.45 149.0 A 0.3 0.3 0 0 0 140.15 149.3 L 140.15 150.7  M 74.9 140.45 A 0.3 0.3 0 0 0 75.2 140.75 L 76.8 140.75 A 0.3 0.3 0 0 0 77.1 140.45 L 77.1 139.05 A 0.3 0.3 0 0 0 76.8 138.75 L 75.2 138.75 A 0.3 0.3 0 0 0 74.9 139.05 L 74.9 140.45 " style="fill-rule: evenodd;"/><g style="fill: none;stroke: #F6DE39;stroke-width: 0.1500;stroke-opacity: 1;stroke-linecap: round;stroke-linejoin: round">
<path d="M142.0000 117.5000 L135.0000 117.5000 "/>
<path d="M132.0000 117.5000 L131.0000 117.5000 "/>
<path d="M135.0000 117.5000 A1.5000 1.5000 0.0 0 0 132.0000 117.5000"/>
<path d="M165.0000 117.5000 A1.5000 1.5000 0.0 0 0 162.0000 117.5000"/>
<path d="M145.0000 92.5000 L152.0000 92.5000 "/>
<path d="M152.0000 92.5000 A1.5000 1.5000 0.0 0 0 155.0000 92.5000"/>
<path d="M155.0000 92.5000 L162.0000 92.5000 "/>
<path d="M152.0000 117.5000 L145.0000 117.5000 "/>
<path d="M162.0000 92.5000 A1.5000 1.5000 0.0 0 0 165.0000 92.5000"/>
<path d="M145.0000 117.5000 A1.5000 1.5000 0.0 0 0 142.0000 117.5000"/>
<path d="M132.0000 92.5000 A1.5000 1.5000 0.0 0 0 135.0000 92.5000"/>
<path d="M166.0000 117.5000 L165.0000 117.5000 "/>
<path d="M135.0000 92.5000 L142.0000 92.5000 "/>
<path d="M131.0000 92.5000 L132.0000 92.5000 "/>
<path d="M131.0000 117.5000 L131.0000 92.5000 "/>
<path d="M162.0000 117.5000 L155.0000 117.5000 "/>
<path d="M142.0000 92.5000 A1.5000 1.5000 0.0 0 0 145.0000 92.5000"/>
<path d="M155.0000 117.5000 A1.5000 1.5000 0.0 0 0 152.0000 117.5000"/>
<path d="M165.0000 92.5000 L166.0000 92.5000 "/>
<path d="M166.0000 92.5000 L166.0000 117.5000 "/>
</g>
<g style="fill: none;stroke: #F6DE39;stroke-width: 0.0500;stroke-opacity: 1;stroke-linecap: round;stroke-linejoin: round">
<path d="M140.1500 149.3000 L140.1500 150.7000 "/>
<path d="M140.4500 151.0000 L142.0500 151.0000 "/>
<path d="M142.0500 149.0000 L140.4500 149.0000 "/>
<path d="M142.3500 150.7000 L142.3500 149.3000 "/>
<path d="M140.4500 149.0000 A0.3000 0.3000 0.0 0 0 140.1500 149.3000"/>
<path d="M140.1500 150.7000 A0.3000 0.3000 0.0 0 0 140.4500 151.0000"/>
<path d="M142.3500 149.3000 A0.3000 0.3000 0.0 0 0 142.0500 149.0000"/>
<path d="M142.0500 151.0000 A0.3000 0.3000 0.0 0 0 142.3500 150.7000"/>
<path d="M74.9000 139.0500 L74.9000 140.4500 "/>
<path d="M75.2000 140.7500 L76.8000 140.7500 "/>
<path d="M76.8000 138.7500 L75.2000 138.7500 "/>
<path d="M77.1000 140.4500 L77.1000 139.0500 "/>
<path d="M75.2000 138.7500 A0.3000 0.3000 0.0 0 0 74.9000 139.0500"/>
<path d="M74.9000 140.4500 A0.3000 0.3000 0.0 0 0 75.2000 140.7500"/>
<path d="M77.1000 139.0500 A0.3000 0.3000 0.0 0 0 76.8000 138.7500"/>
<path d="M76.8000 140.7500 A0.3000 0.3000 0.0 0 0 77.1000 140.4500"/>
</g> 
</g><g id="substrate-clad" style="fill:#72786c; stroke:#72786c;"><g style="fill: #72786c;fill-opacity: 1.0000;stroke: #72786c;stroke-opacity: 1.0000;stroke-linecap: round;stroke-linejoin: round" transform="translate(0 0) scale(1 1)">
<path style="fill: #72786c;fill-opacity: 1.0000;stroke: none;fill-rule: evenodd" d="M 154.2000,98.6500 154.2152,98.5735 154.2586,98.5086 154.3235,98.4652 154.4000,98.4500 156.1000,98.4500 156.1765,98.4652 156.2414,98.5086 156.2848,98.5735 156.3000,98.6500 156.3000,100.3500 156.2848,100.4265 156.2414,100.4914 156.1765,100.5348 156.1000,100.5500 154.4000,100.5500 154.3235,100.5348 154.2586,100.4914 154.2152,100.4265 154.2000,100.3500 Z"/> 
</g>
<g style="fill: #72786c;fill-opacity: 1.0000;stroke: none">
<circle cx="155.2500" cy="102.0400" r="1.0500"/> 
</g>
<g style="fill: #72786c;fill-opacity: 1.0000;stroke: none">
<circle cx="155.2500" cy="104.5800" r="1.0500"/> 
</g>
<g style="fill: #72786c;fill-opacity: 1.0000;stroke: none">
<circle cx="155.2500" cy="107.1200" r="1.0500"/> 
</g>
<g style="fill: #72786c;fill-opacity: 1.0000;stroke: none">
<circle cx="155.2500" cy="109.6600" r="1.0500"/> 
</g> 
</g><g id="substrate-copper" style="fill:#E0CA32; stroke:#E0CA32;"><g style="fill: #E0CA32;fill-opacity: 1.0000;stroke: #E0CA32;stroke-opacity: 1.0000;stroke-linecap: round;stroke-linejoin: round" transform="translate(0 0) scale(1 1)">
<path style="fill: #E0CA32;fill-opacity: 1.0000;stroke: none;fill-rule: evenodd" d="M 154.4000,100.3500 154.4000,98.6500 156.1000,98.6500 156.1000,100.3500 Z"/> 
</g>
<g style="fill: #E0CA32;fill-opacity: 1.0000;stroke: none">
<circle cx="155.2500" cy="102.0400" r="0.8500"/> 
</g>
<g style="fill: #E0CA32;fill-opacity: 1.0000;stroke: none">
<circle cx="155.2500" cy="104.5800" r="0.8500"/> 
</g>
<g style="fill: #E0CA32;fill-opacity: 1.0000;stroke: none">
<circle cx="155.2500" cy="107.1200" r="0.8500"/> 
</g>
<g style="fill: #E0CA32;fill-opacity: 1.0000;stroke: none">
<circle cx="155.2500" cy="109.6600" r="0.8500"/> 
</g> 
</g><g id="substrate-pads" style="fill:#E0DAD5; stroke:#E0DAD5;" mask="url(#pads-mask)"><g style="fill: #E0DAD5;fill-opacity: 1.0000;stroke: #E0DAD5;stroke-opacity: 1.0000;stroke-linecap: round;stroke-linejoin: round" transform="translate(0 0) scale(1 1)">
<path style="fill: #E0DAD5;fill-opacity: 1.0000;stroke: none;fill-rule: evenodd" d="M 154.4000,100.3500 154.4000,98.6500 156.1000,98.6500 156.1000,100.3500 Z"/> 
</g>
<g style="fill: #E0DAD5;fill-opacity: 1.0000;stroke: none">
<circle cx="155.2500" cy="102.0400" r="0.8500"/> 
</g>
<g style="fill: #E0DAD5;fill-opacity: 1.0000;stroke: none">
<circle cx="155.2500" cy="104.5800" r="0.8500"/> 
</g>
<g style="fill: #E0DAD5;fill-opacity: 1.0000;stroke: none">
<circle cx="155.2500" cy="107.1200" r="0.8500"/> 
</g>
<g style="fill: #E0DAD5;fill-opacity: 1.0000;stroke: none">
<circle cx="155.2500" cy="109.6600" r="0.8500"/> 
</g> 
</g><g id="substrate-outline" style="fill:#000000; stroke:#000000; stroke-width: 0.15"><g style="fill: none;stroke: #000000;stroke-width: #000000;stroke-opacity: 1;stroke-linecap: round;stroke-linejoin: round">
<path d="M142.0000 117.5000 L135.0000 117.5000 "/>
<path d="M132.0000 117.5000 L131.0000 117.5000 "/>
<path d="M135.0000 117.5000 A1.5000 1.5000 0.0 0 0 132.0000 117.5000"/>
<path d="M165.0000 117.5000 A1.5000 1.5000 0.0 0 0 162.0000 117.5000"/>
<path d="M145.0000 92.5000 L152.0000 92.5000 "/>
<path d="M152.0000 92.5000 A1.5000 1.5000 0.0 0 0 155.0000 92.5000"/>
<path d="M155.0000 92.5000 L162.0000 92.5000 "/>
<path d="M152.0000 117.5000 L145.0000 117.5000 "/>
<path d="M162.0000 92.5000 A1.5000 1.5000 0.0 0 0 165.0000 92.5000"/>
<path d="M145.0000 117.5000 A1.5000 1.5000 0.0 0 0 142.0000 117.5000"/>
<path d="M132.0000 92.5000 A1.5000 1.5000 0.0 0 0 135.0000 92.5000"/>
<path d="M166.0000 117.5000 L165.0000 117.5000 "/>
<path d="M135.0000 92.5000 L142.0000 92.5000 "/>
<path d="M131.0000 92.5000 L132.0000 92.5000 "/>
<path d="M131.0000 117.5000 L131.0000 92.5000 "/>
<path d="M162.0000 117.5000 L155.0000 117.5000 "/>
<path d="M142.0000 92.5000 A1.5000 1.5000 0.0 0 0 145.0000 92.5000"/>
<path d="M155.0000 117.5000 A1.5000 1.5000 0.0 0 0 152.0000 117.5000"/>
<path d="M165.0000 92.5000 L166.0000 92.5000 "/>
<path d="M166.0000 92.5000 L166.0000 117.5000 "/>
</g>
<g style="fill: none;stroke: #000000;stroke-width: #000000;stroke-opacity: 1;stroke-linecap: round;stroke-linejoin: round">
<path d="M140.1500 149.3000 L140.1500 150.7000 "/>
<path d="M140.4500 151.0000 L142.0500 151.0000 "/>
<path d="M142.0500 149.0000 L140.4500 149.0000 "/>
<path d="M142.3500 150.7000 L142.3500 149.3000 "/>
<path d="M140.4500 149.0000 A0.3000 0.3000 0.0 0 0 140.1500 149.3000"/>
<path d="M140.1500 150.7000 A0.3000 0.3000 0.0 0 0 140.4500 151.0000"/>
<path d="M142.3500 149.3000 A0.3000 0.3000 0.0 0 0 142.0500 149.0000"/>
<path d="M142.0500 151.0000 A0.3000 0.3000 0.0 0 0 142.3500 150.7000"/>
<path d="M74.9000 139.0500 L74.9000 140.4500 "/>
<path d="M75.2000 140.7500 L76.8000 140.7500 "/>
<path d="M76.8000 138.7500 L75.2000 138.7500 "/>
<path d="M77.1000 140.4500 L77.1000 139.0500 "/>
<path d="M75.2000 138.7500 A0.3000 0.3000 0.0 0 0 74.9000 139.0500"/>
<path d="M74.9000 140.4500 A0.3000 0.3000 0.0 0 0 75.2000 140.7500"/>
<path d="M77.1000 139.0500 A0.3000 0.3000 0.0 0 0 76.8000 138.7500"/>
<path d="M76.8000 140.7500 A0.3000 0.3000 0.0 0 0 77.1000 140.4500"/>
</g> 
<path d="M -0.5 0.0 A 0.5 0.5 0 1 1 0.5 0.0 L 0.5 -0.0 A 0.5 0.5 0 1 1 -0.5 -0.0 Z" transform="translate(155.25 99.5) rotate(-0.0)"/><path d="M -0.5 0.0 A 0.5 0.5 0 1 1 0.5 0.0 L 0.5 -0.0 A 0.5 0.5 0 1 1 -0.5 -0.0 Z" transform="translate(155.25 102.04) rotate(-0.0)"/><path d="M -0.5 0.0 A 0.5 0.5 0 1 1 0.5 0.0 L 0.5 -0.0 A 0.5 0.5 0 1 1 -0.5 -0.0 Z" transform="translate(155.25 104.58) rotate(-0.0)"/><path d="M -0.5 0.0 A 0.5 0.5 0 1 1 0.5 0.0 L 0.5 -0.0 A 0.5 0.5 0 1 1 -0.5 -0.0 Z" transform="translate(155.25 107.12) rotate(-0.0)"/><path d="M -0.5 0.0 A 0.5 0.5 0 1 1 0.5 0.0 L 0.5 -0.0 A 0.5 0.5 0 1 1 -0.5 -0.0 Z" transform="translate(155.25 109.66) rotate(-0.0)"/></g></g></g><g transform="scale(-1,1)" id="componentContainer"><!--Package_TO_SOT_SMD:SOT-23-5.back:U1--><!--Package_TO_SOT_SMD:SOT-23.back:Q1--><!--Diode_SMD:D_SOD-523.back:D2--><!--Resistor_SMD:R_0603_1608Metric.back:R1--></g></svg>