%TF.GenerationSoftware,KiCad,Pcbnew,9.0.1+1*%
%TF.CreationDate,2025-10-02T15:41:18+00:00*%
%TF.ProjectId,TFI2CADC01,54464932-4341-4444-9330-312e6b696361,rev?*%
%TF.SameCoordinates,PX7cee6c0PY700e860*%
%TF.FileFunction,Legend,Top*%
%TF.FilePolarity,Positive*%
%FSLAX46Y46*%
G04 Gerber Fmt 4.6, Leading zero omitted, Abs format (unit mm)*
G04 Created by KiCad (PCBNEW 9.0.1+1) date 2025-10-02 15:41:18*
%MOMM*%
%LPD*%
G01*
G04 APERTURE LIST*
%ADD10C,0.150000*%
%ADD11C,0.120000*%
G04 APERTURE END LIST*
D10*
X-24124405Y-18854819D02*
X-24124405Y-19664342D01*
X-24124405Y-19664342D02*
X-24076786Y-19759580D01*
X-24076786Y-19759580D02*
X-24029167Y-19807200D01*
X-24029167Y-19807200D02*
X-23933929Y-19854819D01*
X-23933929Y-19854819D02*
X-23743453Y-19854819D01*
X-23743453Y-19854819D02*
X-23648215Y-19807200D01*
X-23648215Y-19807200D02*
X-23600596Y-19759580D01*
X-23600596Y-19759580D02*
X-23552977Y-19664342D01*
X-23552977Y-19664342D02*
X-23552977Y-18854819D01*
X-22552977Y-19854819D02*
X-23124405Y-19854819D01*
X-22838691Y-19854819D02*
X-22838691Y-18854819D01*
X-22838691Y-18854819D02*
X-22933929Y-18997676D01*
X-22933929Y-18997676D02*
X-23029167Y-19092914D01*
X-23029167Y-19092914D02*
X-23124405Y-19140533D01*
X-18383334Y-41404819D02*
X-18383334Y-42119104D01*
X-18383334Y-42119104D02*
X-18430953Y-42261961D01*
X-18430953Y-42261961D02*
X-18526191Y-42357200D01*
X-18526191Y-42357200D02*
X-18669048Y-42404819D01*
X-18669048Y-42404819D02*
X-18764286Y-42404819D01*
X-17907143Y-42404819D02*
X-17907143Y-41404819D01*
X-17907143Y-41404819D02*
X-17526191Y-41404819D01*
X-17526191Y-41404819D02*
X-17430953Y-41452438D01*
X-17430953Y-41452438D02*
X-17383334Y-41500057D01*
X-17383334Y-41500057D02*
X-17335715Y-41595295D01*
X-17335715Y-41595295D02*
X-17335715Y-41738152D01*
X-17335715Y-41738152D02*
X-17383334Y-41833390D01*
X-17383334Y-41833390D02*
X-17430953Y-41881009D01*
X-17430953Y-41881009D02*
X-17526191Y-41928628D01*
X-17526191Y-41928628D02*
X-17907143Y-41928628D01*
X-16430953Y-41404819D02*
X-16907143Y-41404819D01*
X-16907143Y-41404819D02*
X-16954762Y-41881009D01*
X-16954762Y-41881009D02*
X-16907143Y-41833390D01*
X-16907143Y-41833390D02*
X-16811905Y-41785771D01*
X-16811905Y-41785771D02*
X-16573810Y-41785771D01*
X-16573810Y-41785771D02*
X-16478572Y-41833390D01*
X-16478572Y-41833390D02*
X-16430953Y-41881009D01*
X-16430953Y-41881009D02*
X-16383334Y-41976247D01*
X-16383334Y-41976247D02*
X-16383334Y-42214342D01*
X-16383334Y-42214342D02*
X-16430953Y-42309580D01*
X-16430953Y-42309580D02*
X-16478572Y-42357200D01*
X-16478572Y-42357200D02*
X-16573810Y-42404819D01*
X-16573810Y-42404819D02*
X-16811905Y-42404819D01*
X-16811905Y-42404819D02*
X-16907143Y-42357200D01*
X-16907143Y-42357200D02*
X-16954762Y-42309580D01*
X-15283333Y-43204819D02*
X-14664286Y-43204819D01*
X-14664286Y-43204819D02*
X-14997619Y-43585771D01*
X-14997619Y-43585771D02*
X-14854762Y-43585771D01*
X-14854762Y-43585771D02*
X-14759524Y-43633390D01*
X-14759524Y-43633390D02*
X-14711905Y-43681009D01*
X-14711905Y-43681009D02*
X-14664286Y-43776247D01*
X-14664286Y-43776247D02*
X-14664286Y-44014342D01*
X-14664286Y-44014342D02*
X-14711905Y-44109580D01*
X-14711905Y-44109580D02*
X-14759524Y-44157200D01*
X-14759524Y-44157200D02*
X-14854762Y-44204819D01*
X-14854762Y-44204819D02*
X-15140476Y-44204819D01*
X-15140476Y-44204819D02*
X-15235714Y-44157200D01*
X-15235714Y-44157200D02*
X-15283333Y-44109580D01*
X-19864286Y-44204819D02*
X-20435714Y-44204819D01*
X-20150000Y-44204819D02*
X-20150000Y-43204819D01*
X-20150000Y-43204819D02*
X-20245238Y-43347676D01*
X-20245238Y-43347676D02*
X-20340476Y-43442914D01*
X-20340476Y-43442914D02*
X-20435714Y-43490533D01*
X-14583334Y18545181D02*
X-14583334Y17830896D01*
X-14583334Y17830896D02*
X-14630953Y17688039D01*
X-14630953Y17688039D02*
X-14726191Y17592800D01*
X-14726191Y17592800D02*
X-14869048Y17545181D01*
X-14869048Y17545181D02*
X-14964286Y17545181D01*
X-13678572Y18211848D02*
X-13678572Y17545181D01*
X-13916667Y18592800D02*
X-14154762Y17878515D01*
X-14154762Y17878515D02*
X-13535715Y17878515D01*
X-33322920Y-21441666D02*
X-33275300Y-21489285D01*
X-33275300Y-21489285D02*
X-33227681Y-21632142D01*
X-33227681Y-21632142D02*
X-33227681Y-21727380D01*
X-33227681Y-21727380D02*
X-33275300Y-21870237D01*
X-33275300Y-21870237D02*
X-33370539Y-21965475D01*
X-33370539Y-21965475D02*
X-33465777Y-22013094D01*
X-33465777Y-22013094D02*
X-33656253Y-22060713D01*
X-33656253Y-22060713D02*
X-33799110Y-22060713D01*
X-33799110Y-22060713D02*
X-33989586Y-22013094D01*
X-33989586Y-22013094D02*
X-34084824Y-21965475D01*
X-34084824Y-21965475D02*
X-34180062Y-21870237D01*
X-34180062Y-21870237D02*
X-34227681Y-21727380D01*
X-34227681Y-21727380D02*
X-34227681Y-21632142D01*
X-34227681Y-21632142D02*
X-34180062Y-21489285D01*
X-34180062Y-21489285D02*
X-34132443Y-21441666D01*
X-34132443Y-21060713D02*
X-34180062Y-21013094D01*
X-34180062Y-21013094D02*
X-34227681Y-20917856D01*
X-34227681Y-20917856D02*
X-34227681Y-20679761D01*
X-34227681Y-20679761D02*
X-34180062Y-20584523D01*
X-34180062Y-20584523D02*
X-34132443Y-20536904D01*
X-34132443Y-20536904D02*
X-34037205Y-20489285D01*
X-34037205Y-20489285D02*
X-33941967Y-20489285D01*
X-33941967Y-20489285D02*
X-33799110Y-20536904D01*
X-33799110Y-20536904D02*
X-33227681Y-21108332D01*
X-33227681Y-21108332D02*
X-33227681Y-20489285D01*
X-5741667Y35725181D02*
X-6075000Y36201372D01*
X-6313095Y35725181D02*
X-6313095Y36725181D01*
X-6313095Y36725181D02*
X-5932143Y36725181D01*
X-5932143Y36725181D02*
X-5836905Y36677562D01*
X-5836905Y36677562D02*
X-5789286Y36629943D01*
X-5789286Y36629943D02*
X-5741667Y36534705D01*
X-5741667Y36534705D02*
X-5741667Y36391848D01*
X-5741667Y36391848D02*
X-5789286Y36296610D01*
X-5789286Y36296610D02*
X-5836905Y36248991D01*
X-5836905Y36248991D02*
X-5932143Y36201372D01*
X-5932143Y36201372D02*
X-6313095Y36201372D01*
X-5408333Y36725181D02*
X-4789286Y36725181D01*
X-4789286Y36725181D02*
X-5122619Y36344229D01*
X-5122619Y36344229D02*
X-4979762Y36344229D01*
X-4979762Y36344229D02*
X-4884524Y36296610D01*
X-4884524Y36296610D02*
X-4836905Y36248991D01*
X-4836905Y36248991D02*
X-4789286Y36153753D01*
X-4789286Y36153753D02*
X-4789286Y35915658D01*
X-4789286Y35915658D02*
X-4836905Y35820420D01*
X-4836905Y35820420D02*
X-4884524Y35772800D01*
X-4884524Y35772800D02*
X-4979762Y35725181D01*
X-4979762Y35725181D02*
X-5265476Y35725181D01*
X-5265476Y35725181D02*
X-5360714Y35772800D01*
X-5360714Y35772800D02*
X-5408333Y35820420D01*
X-38322920Y-21466666D02*
X-38275300Y-21514285D01*
X-38275300Y-21514285D02*
X-38227681Y-21657142D01*
X-38227681Y-21657142D02*
X-38227681Y-21752380D01*
X-38227681Y-21752380D02*
X-38275300Y-21895237D01*
X-38275300Y-21895237D02*
X-38370539Y-21990475D01*
X-38370539Y-21990475D02*
X-38465777Y-22038094D01*
X-38465777Y-22038094D02*
X-38656253Y-22085713D01*
X-38656253Y-22085713D02*
X-38799110Y-22085713D01*
X-38799110Y-22085713D02*
X-38989586Y-22038094D01*
X-38989586Y-22038094D02*
X-39084824Y-21990475D01*
X-39084824Y-21990475D02*
X-39180062Y-21895237D01*
X-39180062Y-21895237D02*
X-39227681Y-21752380D01*
X-39227681Y-21752380D02*
X-39227681Y-21657142D01*
X-39227681Y-21657142D02*
X-39180062Y-21514285D01*
X-39180062Y-21514285D02*
X-39132443Y-21466666D01*
X-38227681Y-20514285D02*
X-38227681Y-21085713D01*
X-38227681Y-20799999D02*
X-39227681Y-20799999D01*
X-39227681Y-20799999D02*
X-39084824Y-20895237D01*
X-39084824Y-20895237D02*
X-38989586Y-20990475D01*
X-38989586Y-20990475D02*
X-38941967Y-21085713D01*
X3654761Y-30150057D02*
X3559523Y-30102438D01*
X3559523Y-30102438D02*
X3464285Y-30007200D01*
X3464285Y-30007200D02*
X3321428Y-29864342D01*
X3321428Y-29864342D02*
X3226190Y-29816723D01*
X3226190Y-29816723D02*
X3130952Y-29816723D01*
X3178571Y-30054819D02*
X3083333Y-30007200D01*
X3083333Y-30007200D02*
X2988095Y-29911961D01*
X2988095Y-29911961D02*
X2940476Y-29721485D01*
X2940476Y-29721485D02*
X2940476Y-29388152D01*
X2940476Y-29388152D02*
X2988095Y-29197676D01*
X2988095Y-29197676D02*
X3083333Y-29102438D01*
X3083333Y-29102438D02*
X3178571Y-29054819D01*
X3178571Y-29054819D02*
X3369047Y-29054819D01*
X3369047Y-29054819D02*
X3464285Y-29102438D01*
X3464285Y-29102438D02*
X3559523Y-29197676D01*
X3559523Y-29197676D02*
X3607142Y-29388152D01*
X3607142Y-29388152D02*
X3607142Y-29721485D01*
X3607142Y-29721485D02*
X3559523Y-29911961D01*
X3559523Y-29911961D02*
X3464285Y-30007200D01*
X3464285Y-30007200D02*
X3369047Y-30054819D01*
X3369047Y-30054819D02*
X3178571Y-30054819D01*
X4559523Y-30054819D02*
X3988095Y-30054819D01*
X4273809Y-30054819D02*
X4273809Y-29054819D01*
X4273809Y-29054819D02*
X4178571Y-29197676D01*
X4178571Y-29197676D02*
X4083333Y-29292914D01*
X4083333Y-29292914D02*
X3988095Y-29340533D01*
X-26495181Y-21738094D02*
X-27495181Y-21738094D01*
X-27495181Y-21738094D02*
X-27495181Y-21499999D01*
X-27495181Y-21499999D02*
X-27447562Y-21357142D01*
X-27447562Y-21357142D02*
X-27352324Y-21261904D01*
X-27352324Y-21261904D02*
X-27257086Y-21214285D01*
X-27257086Y-21214285D02*
X-27066610Y-21166666D01*
X-27066610Y-21166666D02*
X-26923753Y-21166666D01*
X-26923753Y-21166666D02*
X-26733277Y-21214285D01*
X-26733277Y-21214285D02*
X-26638039Y-21261904D01*
X-26638039Y-21261904D02*
X-26542800Y-21357142D01*
X-26542800Y-21357142D02*
X-26495181Y-21499999D01*
X-26495181Y-21499999D02*
X-26495181Y-21738094D01*
X-27399943Y-20785713D02*
X-27447562Y-20738094D01*
X-27447562Y-20738094D02*
X-27495181Y-20642856D01*
X-27495181Y-20642856D02*
X-27495181Y-20404761D01*
X-27495181Y-20404761D02*
X-27447562Y-20309523D01*
X-27447562Y-20309523D02*
X-27399943Y-20261904D01*
X-27399943Y-20261904D02*
X-27304705Y-20214285D01*
X-27304705Y-20214285D02*
X-27209467Y-20214285D01*
X-27209467Y-20214285D02*
X-27066610Y-20261904D01*
X-27066610Y-20261904D02*
X-26495181Y-20833332D01*
X-26495181Y-20833332D02*
X-26495181Y-20214285D01*
X-2645181Y15416667D02*
X-1930896Y15416667D01*
X-1930896Y15416667D02*
X-1788039Y15369048D01*
X-1788039Y15369048D02*
X-1692800Y15273810D01*
X-1692800Y15273810D02*
X-1645181Y15130953D01*
X-1645181Y15130953D02*
X-1645181Y15035715D01*
X-2549943Y15845239D02*
X-2597562Y15892858D01*
X-2597562Y15892858D02*
X-2645181Y15988096D01*
X-2645181Y15988096D02*
X-2645181Y16226191D01*
X-2645181Y16226191D02*
X-2597562Y16321429D01*
X-2597562Y16321429D02*
X-2549943Y16369048D01*
X-2549943Y16369048D02*
X-2454705Y16416667D01*
X-2454705Y16416667D02*
X-2359467Y16416667D01*
X-2359467Y16416667D02*
X-2216610Y16369048D01*
X-2216610Y16369048D02*
X-1645181Y15797620D01*
X-1645181Y15797620D02*
X-1645181Y16416667D01*
X28301666Y20815181D02*
X28301666Y20100896D01*
X28301666Y20100896D02*
X28254047Y19958039D01*
X28254047Y19958039D02*
X28158809Y19862800D01*
X28158809Y19862800D02*
X28015952Y19815181D01*
X28015952Y19815181D02*
X27920714Y19815181D01*
X29301666Y19815181D02*
X28730238Y19815181D01*
X29015952Y19815181D02*
X29015952Y20815181D01*
X29015952Y20815181D02*
X28920714Y20672324D01*
X28920714Y20672324D02*
X28825476Y20577086D01*
X28825476Y20577086D02*
X28730238Y20529467D01*
X-14822920Y-21966666D02*
X-14775300Y-22014285D01*
X-14775300Y-22014285D02*
X-14727681Y-22157142D01*
X-14727681Y-22157142D02*
X-14727681Y-22252380D01*
X-14727681Y-22252380D02*
X-14775300Y-22395237D01*
X-14775300Y-22395237D02*
X-14870539Y-22490475D01*
X-14870539Y-22490475D02*
X-14965777Y-22538094D01*
X-14965777Y-22538094D02*
X-15156253Y-22585713D01*
X-15156253Y-22585713D02*
X-15299110Y-22585713D01*
X-15299110Y-22585713D02*
X-15489586Y-22538094D01*
X-15489586Y-22538094D02*
X-15584824Y-22490475D01*
X-15584824Y-22490475D02*
X-15680062Y-22395237D01*
X-15680062Y-22395237D02*
X-15727681Y-22252380D01*
X-15727681Y-22252380D02*
X-15727681Y-22157142D01*
X-15727681Y-22157142D02*
X-15680062Y-22014285D01*
X-15680062Y-22014285D02*
X-15632443Y-21966666D01*
X-15727681Y-21633332D02*
X-15727681Y-21014285D01*
X-15727681Y-21014285D02*
X-15346729Y-21347618D01*
X-15346729Y-21347618D02*
X-15346729Y-21204761D01*
X-15346729Y-21204761D02*
X-15299110Y-21109523D01*
X-15299110Y-21109523D02*
X-15251491Y-21061904D01*
X-15251491Y-21061904D02*
X-15156253Y-21014285D01*
X-15156253Y-21014285D02*
X-14918158Y-21014285D01*
X-14918158Y-21014285D02*
X-14822920Y-21061904D01*
X-14822920Y-21061904D02*
X-14775300Y-21109523D01*
X-14775300Y-21109523D02*
X-14727681Y-21204761D01*
X-14727681Y-21204761D02*
X-14727681Y-21490475D01*
X-14727681Y-21490475D02*
X-14775300Y-21585713D01*
X-14775300Y-21585713D02*
X-14822920Y-21633332D01*
X17789580Y-14666666D02*
X17837200Y-14714285D01*
X17837200Y-14714285D02*
X17884819Y-14857142D01*
X17884819Y-14857142D02*
X17884819Y-14952380D01*
X17884819Y-14952380D02*
X17837200Y-15095237D01*
X17837200Y-15095237D02*
X17741961Y-15190475D01*
X17741961Y-15190475D02*
X17646723Y-15238094D01*
X17646723Y-15238094D02*
X17456247Y-15285713D01*
X17456247Y-15285713D02*
X17313390Y-15285713D01*
X17313390Y-15285713D02*
X17122914Y-15238094D01*
X17122914Y-15238094D02*
X17027676Y-15190475D01*
X17027676Y-15190475D02*
X16932438Y-15095237D01*
X16932438Y-15095237D02*
X16884819Y-14952380D01*
X16884819Y-14952380D02*
X16884819Y-14857142D01*
X16884819Y-14857142D02*
X16932438Y-14714285D01*
X16932438Y-14714285D02*
X16980057Y-14666666D01*
X17218152Y-13809523D02*
X17884819Y-13809523D01*
X16837200Y-14047618D02*
X17551485Y-14285713D01*
X17551485Y-14285713D02*
X17551485Y-13666666D01*
X10179580Y-14666666D02*
X10227200Y-14714285D01*
X10227200Y-14714285D02*
X10274819Y-14857142D01*
X10274819Y-14857142D02*
X10274819Y-14952380D01*
X10274819Y-14952380D02*
X10227200Y-15095237D01*
X10227200Y-15095237D02*
X10131961Y-15190475D01*
X10131961Y-15190475D02*
X10036723Y-15238094D01*
X10036723Y-15238094D02*
X9846247Y-15285713D01*
X9846247Y-15285713D02*
X9703390Y-15285713D01*
X9703390Y-15285713D02*
X9512914Y-15238094D01*
X9512914Y-15238094D02*
X9417676Y-15190475D01*
X9417676Y-15190475D02*
X9322438Y-15095237D01*
X9322438Y-15095237D02*
X9274819Y-14952380D01*
X9274819Y-14952380D02*
X9274819Y-14857142D01*
X9274819Y-14857142D02*
X9322438Y-14714285D01*
X9322438Y-14714285D02*
X9370057Y-14666666D01*
X9274819Y-13761904D02*
X9274819Y-14238094D01*
X9274819Y-14238094D02*
X9751009Y-14285713D01*
X9751009Y-14285713D02*
X9703390Y-14238094D01*
X9703390Y-14238094D02*
X9655771Y-14142856D01*
X9655771Y-14142856D02*
X9655771Y-13904761D01*
X9655771Y-13904761D02*
X9703390Y-13809523D01*
X9703390Y-13809523D02*
X9751009Y-13761904D01*
X9751009Y-13761904D02*
X9846247Y-13714285D01*
X9846247Y-13714285D02*
X10084342Y-13714285D01*
X10084342Y-13714285D02*
X10179580Y-13761904D01*
X10179580Y-13761904D02*
X10227200Y-13809523D01*
X10227200Y-13809523D02*
X10274819Y-13904761D01*
X10274819Y-13904761D02*
X10274819Y-14142856D01*
X10274819Y-14142856D02*
X10227200Y-14238094D01*
X10227200Y-14238094D02*
X10179580Y-14285713D01*
X15083333Y-18774819D02*
X14750000Y-18298628D01*
X14511905Y-18774819D02*
X14511905Y-17774819D01*
X14511905Y-17774819D02*
X14892857Y-17774819D01*
X14892857Y-17774819D02*
X14988095Y-17822438D01*
X14988095Y-17822438D02*
X15035714Y-17870057D01*
X15035714Y-17870057D02*
X15083333Y-17965295D01*
X15083333Y-17965295D02*
X15083333Y-18108152D01*
X15083333Y-18108152D02*
X15035714Y-18203390D01*
X15035714Y-18203390D02*
X14988095Y-18251009D01*
X14988095Y-18251009D02*
X14892857Y-18298628D01*
X14892857Y-18298628D02*
X14511905Y-18298628D01*
X15940476Y-18108152D02*
X15940476Y-18774819D01*
X15702381Y-17727200D02*
X15464286Y-18441485D01*
X15464286Y-18441485D02*
X16083333Y-18441485D01*
X-3145181Y26416667D02*
X-2430896Y26416667D01*
X-2430896Y26416667D02*
X-2288039Y26369048D01*
X-2288039Y26369048D02*
X-2192800Y26273810D01*
X-2192800Y26273810D02*
X-2145181Y26130953D01*
X-2145181Y26130953D02*
X-2145181Y26035715D01*
X-3145181Y26797620D02*
X-3145181Y27416667D01*
X-3145181Y27416667D02*
X-2764229Y27083334D01*
X-2764229Y27083334D02*
X-2764229Y27226191D01*
X-2764229Y27226191D02*
X-2716610Y27321429D01*
X-2716610Y27321429D02*
X-2668991Y27369048D01*
X-2668991Y27369048D02*
X-2573753Y27416667D01*
X-2573753Y27416667D02*
X-2335658Y27416667D01*
X-2335658Y27416667D02*
X-2240420Y27369048D01*
X-2240420Y27369048D02*
X-2192800Y27321429D01*
X-2192800Y27321429D02*
X-2145181Y27226191D01*
X-2145181Y27226191D02*
X-2145181Y26940477D01*
X-2145181Y26940477D02*
X-2192800Y26845239D01*
X-2192800Y26845239D02*
X-2240420Y26797620D01*
X10008333Y-27274819D02*
X9675000Y-26798628D01*
X9436905Y-27274819D02*
X9436905Y-26274819D01*
X9436905Y-26274819D02*
X9817857Y-26274819D01*
X9817857Y-26274819D02*
X9913095Y-26322438D01*
X9913095Y-26322438D02*
X9960714Y-26370057D01*
X9960714Y-26370057D02*
X10008333Y-26465295D01*
X10008333Y-26465295D02*
X10008333Y-26608152D01*
X10008333Y-26608152D02*
X9960714Y-26703390D01*
X9960714Y-26703390D02*
X9913095Y-26751009D01*
X9913095Y-26751009D02*
X9817857Y-26798628D01*
X9817857Y-26798628D02*
X9436905Y-26798628D01*
X10865476Y-26274819D02*
X10675000Y-26274819D01*
X10675000Y-26274819D02*
X10579762Y-26322438D01*
X10579762Y-26322438D02*
X10532143Y-26370057D01*
X10532143Y-26370057D02*
X10436905Y-26512914D01*
X10436905Y-26512914D02*
X10389286Y-26703390D01*
X10389286Y-26703390D02*
X10389286Y-27084342D01*
X10389286Y-27084342D02*
X10436905Y-27179580D01*
X10436905Y-27179580D02*
X10484524Y-27227200D01*
X10484524Y-27227200D02*
X10579762Y-27274819D01*
X10579762Y-27274819D02*
X10770238Y-27274819D01*
X10770238Y-27274819D02*
X10865476Y-27227200D01*
X10865476Y-27227200D02*
X10913095Y-27179580D01*
X10913095Y-27179580D02*
X10960714Y-27084342D01*
X10960714Y-27084342D02*
X10960714Y-26846247D01*
X10960714Y-26846247D02*
X10913095Y-26751009D01*
X10913095Y-26751009D02*
X10865476Y-26703390D01*
X10865476Y-26703390D02*
X10770238Y-26655771D01*
X10770238Y-26655771D02*
X10579762Y-26655771D01*
X10579762Y-26655771D02*
X10484524Y-26703390D01*
X10484524Y-26703390D02*
X10436905Y-26751009D01*
X10436905Y-26751009D02*
X10389286Y-26846247D01*
X3008333Y-26024819D02*
X2675000Y-25548628D01*
X2436905Y-26024819D02*
X2436905Y-25024819D01*
X2436905Y-25024819D02*
X2817857Y-25024819D01*
X2817857Y-25024819D02*
X2913095Y-25072438D01*
X2913095Y-25072438D02*
X2960714Y-25120057D01*
X2960714Y-25120057D02*
X3008333Y-25215295D01*
X3008333Y-25215295D02*
X3008333Y-25358152D01*
X3008333Y-25358152D02*
X2960714Y-25453390D01*
X2960714Y-25453390D02*
X2913095Y-25501009D01*
X2913095Y-25501009D02*
X2817857Y-25548628D01*
X2817857Y-25548628D02*
X2436905Y-25548628D01*
X3913095Y-25024819D02*
X3436905Y-25024819D01*
X3436905Y-25024819D02*
X3389286Y-25501009D01*
X3389286Y-25501009D02*
X3436905Y-25453390D01*
X3436905Y-25453390D02*
X3532143Y-25405771D01*
X3532143Y-25405771D02*
X3770238Y-25405771D01*
X3770238Y-25405771D02*
X3865476Y-25453390D01*
X3865476Y-25453390D02*
X3913095Y-25501009D01*
X3913095Y-25501009D02*
X3960714Y-25596247D01*
X3960714Y-25596247D02*
X3960714Y-25834342D01*
X3960714Y-25834342D02*
X3913095Y-25929580D01*
X3913095Y-25929580D02*
X3865476Y-25977200D01*
X3865476Y-25977200D02*
X3770238Y-26024819D01*
X3770238Y-26024819D02*
X3532143Y-26024819D01*
X3532143Y-26024819D02*
X3436905Y-25977200D01*
X3436905Y-25977200D02*
X3389286Y-25929580D01*
X-5741667Y38235181D02*
X-6075000Y38711372D01*
X-6313095Y38235181D02*
X-6313095Y39235181D01*
X-6313095Y39235181D02*
X-5932143Y39235181D01*
X-5932143Y39235181D02*
X-5836905Y39187562D01*
X-5836905Y39187562D02*
X-5789286Y39139943D01*
X-5789286Y39139943D02*
X-5741667Y39044705D01*
X-5741667Y39044705D02*
X-5741667Y38901848D01*
X-5741667Y38901848D02*
X-5789286Y38806610D01*
X-5789286Y38806610D02*
X-5836905Y38758991D01*
X-5836905Y38758991D02*
X-5932143Y38711372D01*
X-5932143Y38711372D02*
X-6313095Y38711372D01*
X-5360714Y39139943D02*
X-5313095Y39187562D01*
X-5313095Y39187562D02*
X-5217857Y39235181D01*
X-5217857Y39235181D02*
X-4979762Y39235181D01*
X-4979762Y39235181D02*
X-4884524Y39187562D01*
X-4884524Y39187562D02*
X-4836905Y39139943D01*
X-4836905Y39139943D02*
X-4789286Y39044705D01*
X-4789286Y39044705D02*
X-4789286Y38949467D01*
X-4789286Y38949467D02*
X-4836905Y38806610D01*
X-4836905Y38806610D02*
X-5408333Y38235181D01*
X-5408333Y38235181D02*
X-4789286Y38235181D01*
X-54954167Y-16024819D02*
X-55287500Y-15548628D01*
X-55525595Y-16024819D02*
X-55525595Y-15024819D01*
X-55525595Y-15024819D02*
X-55144643Y-15024819D01*
X-55144643Y-15024819D02*
X-55049405Y-15072438D01*
X-55049405Y-15072438D02*
X-55001786Y-15120057D01*
X-55001786Y-15120057D02*
X-54954167Y-15215295D01*
X-54954167Y-15215295D02*
X-54954167Y-15358152D01*
X-54954167Y-15358152D02*
X-55001786Y-15453390D01*
X-55001786Y-15453390D02*
X-55049405Y-15501009D01*
X-55049405Y-15501009D02*
X-55144643Y-15548628D01*
X-55144643Y-15548628D02*
X-55525595Y-15548628D01*
X-54001786Y-16024819D02*
X-54573214Y-16024819D01*
X-54287500Y-16024819D02*
X-54287500Y-15024819D01*
X-54287500Y-15024819D02*
X-54382738Y-15167676D01*
X-54382738Y-15167676D02*
X-54477976Y-15262914D01*
X-54477976Y-15262914D02*
X-54573214Y-15310533D01*
X5588095Y-12154819D02*
X5588095Y-12964342D01*
X5588095Y-12964342D02*
X5635714Y-13059580D01*
X5635714Y-13059580D02*
X5683333Y-13107200D01*
X5683333Y-13107200D02*
X5778571Y-13154819D01*
X5778571Y-13154819D02*
X5969047Y-13154819D01*
X5969047Y-13154819D02*
X6064285Y-13107200D01*
X6064285Y-13107200D02*
X6111904Y-13059580D01*
X6111904Y-13059580D02*
X6159523Y-12964342D01*
X6159523Y-12964342D02*
X6159523Y-12154819D01*
X6540476Y-12154819D02*
X7159523Y-12154819D01*
X7159523Y-12154819D02*
X6826190Y-12535771D01*
X6826190Y-12535771D02*
X6969047Y-12535771D01*
X6969047Y-12535771D02*
X7064285Y-12583390D01*
X7064285Y-12583390D02*
X7111904Y-12631009D01*
X7111904Y-12631009D02*
X7159523Y-12726247D01*
X7159523Y-12726247D02*
X7159523Y-12964342D01*
X7159523Y-12964342D02*
X7111904Y-13059580D01*
X7111904Y-13059580D02*
X7064285Y-13107200D01*
X7064285Y-13107200D02*
X6969047Y-13154819D01*
X6969047Y-13154819D02*
X6683333Y-13154819D01*
X6683333Y-13154819D02*
X6588095Y-13107200D01*
X6588095Y-13107200D02*
X6540476Y-13059580D01*
D11*
%TO.C,U1*%
X-23362500Y-20240000D02*
X-24162500Y-20240000D01*
X-23362500Y-20240000D02*
X-22562500Y-20240000D01*
X-23362500Y-23360000D02*
X-24162500Y-23360000D01*
X-23362500Y-23360000D02*
X-22562500Y-23360000D01*
X-24662500Y-20290000D02*
X-24902500Y-19960000D01*
X-24422500Y-19960000D01*
X-24662500Y-20290000D01*
G36*
X-24662500Y-20290000D02*
G01*
X-24902500Y-19960000D01*
X-24422500Y-19960000D01*
X-24662500Y-20290000D01*
G37*
%TO.C,JP5*%
X-19600000Y-42750000D02*
X-15500000Y-42750000D01*
X-19600000Y-44750000D02*
X-19600000Y-42750000D01*
X-15500000Y-42750000D02*
X-15500000Y-44750000D01*
X-15500000Y-44750000D02*
X-19600000Y-44750000D01*
%TO.C,J4*%
X-16150000Y16850000D02*
X-12350000Y16850000D01*
X-12350000Y14650000D01*
X-16150000Y14650000D01*
X-16150000Y16850000D01*
%TO.C,C2*%
X-35622500Y-21112221D02*
X-35622500Y-21437779D01*
X-34602500Y-21112221D02*
X-34602500Y-21437779D01*
%TO.C,R3*%
X-5737779Y35260000D02*
X-5412221Y35260000D01*
X-5737779Y34240000D02*
X-5412221Y34240000D01*
%TO.C,C1*%
X-40622500Y-21137221D02*
X-40622500Y-21462779D01*
X-39602500Y-21137221D02*
X-39602500Y-21462779D01*
%TO.C,Q1*%
X3750000Y-30440000D02*
X3100000Y-30440000D01*
X3750000Y-30440000D02*
X4400000Y-30440000D01*
X3750000Y-33560000D02*
X3100000Y-33560000D01*
X3750000Y-33560000D02*
X4400000Y-33560000D01*
X2587500Y-30490000D02*
X2347500Y-30160000D01*
X2827500Y-30160000D01*
X2587500Y-30490000D01*
G36*
X2587500Y-30490000D02*
G01*
X2347500Y-30160000D01*
X2827500Y-30160000D01*
X2587500Y-30490000D01*
G37*
%TO.C,D2*%
X-28850000Y-21700000D02*
X-28850000Y-19740000D01*
X-27650000Y-19740000D02*
X-28850000Y-19740000D01*
X-27650000Y-21700000D02*
X-27650000Y-19740000D01*
%TO.C,J2*%
X-8560000Y18715000D02*
X-8560000Y12785000D01*
X-5740000Y19985000D02*
X-4290000Y19985000D01*
X-5740000Y11515000D02*
X-4290000Y11515000D01*
X-4290000Y19985000D02*
X-4290000Y18185000D01*
X-4290000Y18185000D02*
X-3300000Y18185000D01*
X-4290000Y11515000D02*
X-4290000Y13315000D01*
%TO.C,J1*%
X22980000Y19270000D02*
X24250000Y19270000D01*
X22980000Y18000000D02*
X22980000Y19270000D01*
X25327358Y15890000D02*
X25640000Y15890000D01*
X25327358Y15030000D02*
X25640000Y15030000D01*
X25327358Y13350000D02*
X25640000Y13350000D01*
X25327358Y12490000D02*
X25640000Y12490000D01*
X25327358Y10810000D02*
X25640000Y10810000D01*
X25327358Y9950000D02*
X25640000Y9950000D01*
X25327358Y8270000D02*
X25640000Y8270000D01*
X25327358Y7410000D02*
X25640000Y7410000D01*
X25410000Y18430000D02*
X25640000Y18430000D01*
X25410000Y17570000D02*
X25640000Y17570000D01*
X25640000Y19380000D02*
X25640000Y6460000D01*
X25640000Y16730000D02*
X28400000Y16730000D01*
X25640000Y14190000D02*
X28400000Y14190000D01*
X25640000Y11650000D02*
X28400000Y11650000D01*
X25640000Y9110000D02*
X28400000Y9110000D01*
X25640000Y6460000D02*
X28400000Y6460000D01*
X28400000Y19380000D02*
X25640000Y19380000D01*
X28400000Y15890000D02*
X34400000Y15890000D01*
X28400000Y13350000D02*
X34400000Y13350000D01*
X28400000Y10810000D02*
X34400000Y10810000D01*
X28400000Y8270000D02*
X34400000Y8270000D01*
X28400000Y6460000D02*
X28400000Y19380000D01*
X34400000Y15890000D02*
X34400000Y15030000D01*
X34400000Y15030000D02*
X28400000Y15030000D01*
X34400000Y13350000D02*
X34400000Y12490000D01*
X34400000Y12490000D02*
X28400000Y12490000D01*
X34400000Y10810000D02*
X34400000Y9950000D01*
X34400000Y9950000D02*
X28400000Y9950000D01*
X34400000Y8270000D02*
X34400000Y7410000D01*
X34400000Y7410000D02*
X28400000Y7410000D01*
X28400000Y18430000D02*
X34400000Y18430000D01*
X34400000Y17570000D01*
X28400000Y17570000D01*
X28400000Y18430000D01*
G36*
X28400000Y18430000D02*
G01*
X34400000Y18430000D01*
X34400000Y17570000D01*
X28400000Y17570000D01*
X28400000Y18430000D01*
G37*
%TO.C,C3*%
X-17122500Y-21637221D02*
X-17122500Y-21962779D01*
X-16102500Y-21637221D02*
X-16102500Y-21962779D01*
%TO.C,C4*%
X15490000Y-14337221D02*
X15490000Y-14662779D01*
X16510000Y-14337221D02*
X16510000Y-14662779D01*
%TO.C,C5*%
X10740000Y-14662779D02*
X10740000Y-14337221D01*
X11760000Y-14662779D02*
X11760000Y-14337221D01*
%TO.C,R4*%
X15087221Y-19240000D02*
X15412779Y-19240000D01*
X15087221Y-20260000D02*
X15412779Y-20260000D01*
%TO.C,J3*%
X-9060000Y29715000D02*
X-9060000Y23785000D01*
X-6240000Y30985000D02*
X-4790000Y30985000D01*
X-6240000Y22515000D02*
X-4790000Y22515000D01*
X-4790000Y30985000D02*
X-4790000Y29185000D01*
X-4790000Y29185000D02*
X-3800000Y29185000D01*
X-4790000Y22515000D02*
X-4790000Y24315000D01*
%TO.C,R6*%
X10012221Y-27740000D02*
X10337779Y-27740000D01*
X10012221Y-28760000D02*
X10337779Y-28760000D01*
%TO.C,R5*%
X3012221Y-26490000D02*
X3337779Y-26490000D01*
X3012221Y-27510000D02*
X3337779Y-27510000D01*
%TO.C,R2*%
X-5737779Y37770000D02*
X-5412221Y37770000D01*
X-5737779Y36750000D02*
X-5412221Y36750000D01*
%TO.C,R1*%
X-55024758Y-16477500D02*
X-54550242Y-16477500D01*
X-55024758Y-17522500D02*
X-54550242Y-17522500D01*
D10*
%TO.C,U3*%
X4725000Y-13625000D02*
X4725000Y-13850000D01*
X4725000Y-13625000D02*
X7975000Y-13625000D01*
X4725000Y-16875000D02*
X4725000Y-16650000D01*
X4725000Y-16875000D02*
X7975000Y-16875000D01*
X7975000Y-13625000D02*
X7975000Y-13850000D01*
X7975000Y-16875000D02*
X7975000Y-16650000D01*
D11*
X4250000Y-13850000D02*
X4010000Y-13520000D01*
X4490000Y-13520000D01*
X4250000Y-13850000D01*
G36*
X4250000Y-13850000D02*
G01*
X4010000Y-13520000D01*
X4490000Y-13520000D01*
X4250000Y-13850000D01*
G37*
%TD*%
M02*
