M48
; DRILL file {KiCad 9.0.1+1} date 2025-09-26T18:57:13+0000
; FORMAT={3:3/ absolute / metric / suppress leading zeros}
; #@! TF.CreationDate,2025-09-26T18:57:13+00:00
; #@! TF.GenerationSoftware,Kicad,Pcbnew,9.0.1+1
; #@! TF.FileFunction,Plated,1,2,PTH
FMAT,2
METRIC,TZ
; #@! TA.AperFunction,Plated,PTH,ViaDrill
T1C0.400
%
G90
G05
T1
X-4184Y18224
X-4184Y3724
X-4163Y13705
X-4163Y10911
X-3909Y8218
X-3084Y18224
X-3084Y3724
X-2995Y10911
X-2893Y13705
X-384Y8924
X764Y1564
X1013Y9764
X1069Y18582
X1069Y17413
X1374Y5831
X2288Y11978
X2412Y9793
X2770Y8330
X4371Y10555
X4870Y13930
X5321Y9852
X5336Y14975
X5438Y3951
X5692Y8230
X6352Y15985
X6520Y7624
X7318Y6491
X7724Y8726
X8145Y18495
X8537Y7761
X9045Y1462
X9200Y4125
X9350Y8422
X9816Y13724
X9883Y10036
X10939Y14730
X11788Y7507
X12996Y5738
X13071Y15368
X15192Y2275
X16487Y7805
X16919Y15889
X16919Y5856
X17216Y17524
X17884Y18582
X17916Y10924
X18544Y3646
X18748Y18582
X18916Y10924
M30
