%TF.GenerationSoftware,KiCad,Pcbnew,9.0.7+1*%
%TF.CreationDate,2026-03-29T19:00:22+00:00*%
%TF.ProjectId,TFI2CADC01,54464932-4341-4444-9330-312e6b696361,rev?*%
%TF.SameCoordinates,PX81b3200PY6b49d20*%
%TF.FileFunction,Legend,Top*%
%TF.FilePolarity,Positive*%
%FSLAX46Y46*%
G04 Gerber Fmt 4.6, Leading zero omitted, Abs format (unit mm)*
G04 Created by KiCad (PCBNEW 9.0.7+1) date 2026-03-29 19:00:22*
%MOMM*%
%LPD*%
G01*
G04 APERTURE LIST*
%ADD10C,0.150000*%
%ADD11C,0.120000*%
G04 APERTURE END LIST*
D10*
X7278019Y5359496D02*
X8087542Y5359496D01*
X8087542Y5359496D02*
X8182780Y5407115D01*
X8182780Y5407115D02*
X8230400Y5454734D01*
X8230400Y5454734D02*
X8278019Y5549972D01*
X8278019Y5549972D02*
X8278019Y5740448D01*
X8278019Y5740448D02*
X8230400Y5835686D01*
X8230400Y5835686D02*
X8182780Y5883305D01*
X8182780Y5883305D02*
X8087542Y5930924D01*
X8087542Y5930924D02*
X7278019Y5930924D01*
X8278019Y6930924D02*
X8278019Y6359496D01*
X8278019Y6645210D02*
X7278019Y6645210D01*
X7278019Y6645210D02*
X7420876Y6549972D01*
X7420876Y6549972D02*
X7516114Y6454734D01*
X7516114Y6454734D02*
X7563733Y6359496D01*
X13447733Y11705420D02*
X13400114Y11657800D01*
X13400114Y11657800D02*
X13257257Y11610181D01*
X13257257Y11610181D02*
X13162019Y11610181D01*
X13162019Y11610181D02*
X13019162Y11657800D01*
X13019162Y11657800D02*
X12923924Y11753039D01*
X12923924Y11753039D02*
X12876305Y11848277D01*
X12876305Y11848277D02*
X12828686Y12038753D01*
X12828686Y12038753D02*
X12828686Y12181610D01*
X12828686Y12181610D02*
X12876305Y12372086D01*
X12876305Y12372086D02*
X12923924Y12467324D01*
X12923924Y12467324D02*
X13019162Y12562562D01*
X13019162Y12562562D02*
X13162019Y12610181D01*
X13162019Y12610181D02*
X13257257Y12610181D01*
X13257257Y12610181D02*
X13400114Y12562562D01*
X13400114Y12562562D02*
X13447733Y12514943D01*
X13828686Y12514943D02*
X13876305Y12562562D01*
X13876305Y12562562D02*
X13971543Y12610181D01*
X13971543Y12610181D02*
X14209638Y12610181D01*
X14209638Y12610181D02*
X14304876Y12562562D01*
X14304876Y12562562D02*
X14352495Y12514943D01*
X14352495Y12514943D02*
X14400114Y12419705D01*
X14400114Y12419705D02*
X14400114Y12324467D01*
X14400114Y12324467D02*
X14352495Y12181610D01*
X14352495Y12181610D02*
X13781067Y11610181D01*
X13781067Y11610181D02*
X14400114Y11610181D01*
X17664133Y13286581D02*
X17330800Y13762772D01*
X17092705Y13286581D02*
X17092705Y14286581D01*
X17092705Y14286581D02*
X17473657Y14286581D01*
X17473657Y14286581D02*
X17568895Y14238962D01*
X17568895Y14238962D02*
X17616514Y14191343D01*
X17616514Y14191343D02*
X17664133Y14096105D01*
X17664133Y14096105D02*
X17664133Y13953248D01*
X17664133Y13953248D02*
X17616514Y13858010D01*
X17616514Y13858010D02*
X17568895Y13810391D01*
X17568895Y13810391D02*
X17473657Y13762772D01*
X17473657Y13762772D02*
X17092705Y13762772D01*
X17997467Y14286581D02*
X18616514Y14286581D01*
X18616514Y14286581D02*
X18283181Y13905629D01*
X18283181Y13905629D02*
X18426038Y13905629D01*
X18426038Y13905629D02*
X18521276Y13858010D01*
X18521276Y13858010D02*
X18568895Y13810391D01*
X18568895Y13810391D02*
X18616514Y13715153D01*
X18616514Y13715153D02*
X18616514Y13477058D01*
X18616514Y13477058D02*
X18568895Y13381820D01*
X18568895Y13381820D02*
X18521276Y13334200D01*
X18521276Y13334200D02*
X18426038Y13286581D01*
X18426038Y13286581D02*
X18140324Y13286581D01*
X18140324Y13286581D02*
X18045086Y13334200D01*
X18045086Y13334200D02*
X17997467Y13381820D01*
X10933133Y12315020D02*
X10885514Y12267400D01*
X10885514Y12267400D02*
X10742657Y12219781D01*
X10742657Y12219781D02*
X10647419Y12219781D01*
X10647419Y12219781D02*
X10504562Y12267400D01*
X10504562Y12267400D02*
X10409324Y12362639D01*
X10409324Y12362639D02*
X10361705Y12457877D01*
X10361705Y12457877D02*
X10314086Y12648353D01*
X10314086Y12648353D02*
X10314086Y12791210D01*
X10314086Y12791210D02*
X10361705Y12981686D01*
X10361705Y12981686D02*
X10409324Y13076924D01*
X10409324Y13076924D02*
X10504562Y13172162D01*
X10504562Y13172162D02*
X10647419Y13219781D01*
X10647419Y13219781D02*
X10742657Y13219781D01*
X10742657Y13219781D02*
X10885514Y13172162D01*
X10885514Y13172162D02*
X10933133Y13124543D01*
X11885514Y12219781D02*
X11314086Y12219781D01*
X11599800Y12219781D02*
X11599800Y13219781D01*
X11599800Y13219781D02*
X11504562Y13076924D01*
X11504562Y13076924D02*
X11409324Y12981686D01*
X11409324Y12981686D02*
X11314086Y12934067D01*
X13648687Y3470389D02*
X13581343Y3470389D01*
X13581343Y3470389D02*
X13446656Y3537733D01*
X13446656Y3537733D02*
X13379313Y3605076D01*
X13379313Y3605076D02*
X13311969Y3739763D01*
X13311969Y3739763D02*
X13311969Y3874450D01*
X13311969Y3874450D02*
X13345641Y3975465D01*
X13345641Y3975465D02*
X13446656Y4143824D01*
X13446656Y4143824D02*
X13547671Y4244839D01*
X13547671Y4244839D02*
X13716030Y4345855D01*
X13716030Y4345855D02*
X13817045Y4379526D01*
X13817045Y4379526D02*
X13951732Y4379526D01*
X13951732Y4379526D02*
X14086419Y4312183D01*
X14086419Y4312183D02*
X14153763Y4244839D01*
X14153763Y4244839D02*
X14221106Y4110152D01*
X14221106Y4110152D02*
X14221106Y4042809D01*
X14524152Y3874450D02*
X14961885Y3436717D01*
X14961885Y3436717D02*
X14456809Y3403046D01*
X14456809Y3403046D02*
X14557824Y3302030D01*
X14557824Y3302030D02*
X14591496Y3201015D01*
X14591496Y3201015D02*
X14591496Y3133672D01*
X14591496Y3133672D02*
X14557824Y3032656D01*
X14557824Y3032656D02*
X14389465Y2864298D01*
X14389465Y2864298D02*
X14288450Y2830626D01*
X14288450Y2830626D02*
X14221106Y2830626D01*
X14221106Y2830626D02*
X14120091Y2864298D01*
X14120091Y2864298D02*
X13918061Y3066328D01*
X13918061Y3066328D02*
X13884389Y3167343D01*
X13884389Y3167343D02*
X13884389Y3234687D01*
X15066180Y8342334D02*
X15113800Y8294715D01*
X15113800Y8294715D02*
X15161419Y8151858D01*
X15161419Y8151858D02*
X15161419Y8056620D01*
X15161419Y8056620D02*
X15113800Y7913763D01*
X15113800Y7913763D02*
X15018561Y7818525D01*
X15018561Y7818525D02*
X14923323Y7770906D01*
X14923323Y7770906D02*
X14732847Y7723287D01*
X14732847Y7723287D02*
X14589990Y7723287D01*
X14589990Y7723287D02*
X14399514Y7770906D01*
X14399514Y7770906D02*
X14304276Y7818525D01*
X14304276Y7818525D02*
X14209038Y7913763D01*
X14209038Y7913763D02*
X14161419Y8056620D01*
X14161419Y8056620D02*
X14161419Y8151858D01*
X14161419Y8151858D02*
X14209038Y8294715D01*
X14209038Y8294715D02*
X14256657Y8342334D01*
X14494752Y9199477D02*
X15161419Y9199477D01*
X14113800Y8961382D02*
X14828085Y8723287D01*
X14828085Y8723287D02*
X14828085Y9342334D01*
X12380933Y2542381D02*
X12047600Y3018572D01*
X11809505Y2542381D02*
X11809505Y3542381D01*
X11809505Y3542381D02*
X12190457Y3542381D01*
X12190457Y3542381D02*
X12285695Y3494762D01*
X12285695Y3494762D02*
X12333314Y3447143D01*
X12333314Y3447143D02*
X12380933Y3351905D01*
X12380933Y3351905D02*
X12380933Y3209048D01*
X12380933Y3209048D02*
X12333314Y3113810D01*
X12333314Y3113810D02*
X12285695Y3066191D01*
X12285695Y3066191D02*
X12190457Y3018572D01*
X12190457Y3018572D02*
X11809505Y3018572D01*
X13238076Y3209048D02*
X13238076Y2542381D01*
X12999981Y3590000D02*
X12761886Y2875715D01*
X12761886Y2875715D02*
X13380933Y2875715D01*
X6145305Y916781D02*
X6145305Y1916781D01*
X6145305Y1916781D02*
X6383400Y1916781D01*
X6383400Y1916781D02*
X6526257Y1869162D01*
X6526257Y1869162D02*
X6621495Y1773924D01*
X6621495Y1773924D02*
X6669114Y1678686D01*
X6669114Y1678686D02*
X6716733Y1488210D01*
X6716733Y1488210D02*
X6716733Y1345353D01*
X6716733Y1345353D02*
X6669114Y1154877D01*
X6669114Y1154877D02*
X6621495Y1059639D01*
X6621495Y1059639D02*
X6526257Y964400D01*
X6526257Y964400D02*
X6383400Y916781D01*
X6383400Y916781D02*
X6145305Y916781D01*
X7050067Y1916781D02*
X7669114Y1916781D01*
X7669114Y1916781D02*
X7335781Y1535829D01*
X7335781Y1535829D02*
X7478638Y1535829D01*
X7478638Y1535829D02*
X7573876Y1488210D01*
X7573876Y1488210D02*
X7621495Y1440591D01*
X7621495Y1440591D02*
X7669114Y1345353D01*
X7669114Y1345353D02*
X7669114Y1107258D01*
X7669114Y1107258D02*
X7621495Y1012020D01*
X7621495Y1012020D02*
X7573876Y964400D01*
X7573876Y964400D02*
X7478638Y916781D01*
X7478638Y916781D02*
X7192924Y916781D01*
X7192924Y916781D02*
X7097686Y964400D01*
X7097686Y964400D02*
X7050067Y1012020D01*
X784266Y13372181D02*
X784266Y12657896D01*
X784266Y12657896D02*
X736647Y12515039D01*
X736647Y12515039D02*
X641409Y12419800D01*
X641409Y12419800D02*
X498552Y12372181D01*
X498552Y12372181D02*
X403314Y12372181D01*
X1212838Y13276943D02*
X1260457Y13324562D01*
X1260457Y13324562D02*
X1355695Y13372181D01*
X1355695Y13372181D02*
X1593790Y13372181D01*
X1593790Y13372181D02*
X1689028Y13324562D01*
X1689028Y13324562D02*
X1736647Y13276943D01*
X1736647Y13276943D02*
X1784266Y13181705D01*
X1784266Y13181705D02*
X1784266Y13086467D01*
X1784266Y13086467D02*
X1736647Y12943610D01*
X1736647Y12943610D02*
X1165219Y12372181D01*
X1165219Y12372181D02*
X1784266Y12372181D01*
X19670733Y13235781D02*
X19337400Y13711972D01*
X19099305Y13235781D02*
X19099305Y14235781D01*
X19099305Y14235781D02*
X19480257Y14235781D01*
X19480257Y14235781D02*
X19575495Y14188162D01*
X19575495Y14188162D02*
X19623114Y14140543D01*
X19623114Y14140543D02*
X19670733Y14045305D01*
X19670733Y14045305D02*
X19670733Y13902448D01*
X19670733Y13902448D02*
X19623114Y13807210D01*
X19623114Y13807210D02*
X19575495Y13759591D01*
X19575495Y13759591D02*
X19480257Y13711972D01*
X19480257Y13711972D02*
X19099305Y13711972D01*
X20051686Y14140543D02*
X20099305Y14188162D01*
X20099305Y14188162D02*
X20194543Y14235781D01*
X20194543Y14235781D02*
X20432638Y14235781D01*
X20432638Y14235781D02*
X20527876Y14188162D01*
X20527876Y14188162D02*
X20575495Y14140543D01*
X20575495Y14140543D02*
X20623114Y14045305D01*
X20623114Y14045305D02*
X20623114Y13950067D01*
X20623114Y13950067D02*
X20575495Y13807210D01*
X20575495Y13807210D02*
X20004067Y13235781D01*
X20004067Y13235781D02*
X20623114Y13235781D01*
X20486019Y3015467D02*
X21200304Y3015467D01*
X21200304Y3015467D02*
X21343161Y2967848D01*
X21343161Y2967848D02*
X21438400Y2872610D01*
X21438400Y2872610D02*
X21486019Y2729753D01*
X21486019Y2729753D02*
X21486019Y2634515D01*
X21486019Y4015467D02*
X21486019Y3444039D01*
X21486019Y3729753D02*
X20486019Y3729753D01*
X20486019Y3729753D02*
X20628876Y3634515D01*
X20628876Y3634515D02*
X20724114Y3539277D01*
X20724114Y3539277D02*
X20771733Y3444039D01*
X5992905Y13210381D02*
X5992905Y14210381D01*
X5992905Y14210381D02*
X6231000Y14210381D01*
X6231000Y14210381D02*
X6373857Y14162762D01*
X6373857Y14162762D02*
X6469095Y14067524D01*
X6469095Y14067524D02*
X6516714Y13972286D01*
X6516714Y13972286D02*
X6564333Y13781810D01*
X6564333Y13781810D02*
X6564333Y13638953D01*
X6564333Y13638953D02*
X6516714Y13448477D01*
X6516714Y13448477D02*
X6469095Y13353239D01*
X6469095Y13353239D02*
X6373857Y13258000D01*
X6373857Y13258000D02*
X6231000Y13210381D01*
X6231000Y13210381D02*
X5992905Y13210381D01*
X7516714Y13210381D02*
X6945286Y13210381D01*
X7231000Y13210381D02*
X7231000Y14210381D01*
X7231000Y14210381D02*
X7135762Y14067524D01*
X7135762Y14067524D02*
X7040524Y13972286D01*
X7040524Y13972286D02*
X6945286Y13924667D01*
X17733095Y4880181D02*
X17733095Y4070658D01*
X17733095Y4070658D02*
X17780714Y3975420D01*
X17780714Y3975420D02*
X17828333Y3927800D01*
X17828333Y3927800D02*
X17923571Y3880181D01*
X17923571Y3880181D02*
X18114047Y3880181D01*
X18114047Y3880181D02*
X18209285Y3927800D01*
X18209285Y3927800D02*
X18256904Y3975420D01*
X18256904Y3975420D02*
X18304523Y4070658D01*
X18304523Y4070658D02*
X18304523Y4880181D01*
X18733095Y4784943D02*
X18780714Y4832562D01*
X18780714Y4832562D02*
X18875952Y4880181D01*
X18875952Y4880181D02*
X19114047Y4880181D01*
X19114047Y4880181D02*
X19209285Y4832562D01*
X19209285Y4832562D02*
X19256904Y4784943D01*
X19256904Y4784943D02*
X19304523Y4689705D01*
X19304523Y4689705D02*
X19304523Y4594467D01*
X19304523Y4594467D02*
X19256904Y4451610D01*
X19256904Y4451610D02*
X18685476Y3880181D01*
X18685476Y3880181D02*
X19304523Y3880181D01*
D11*
%TO.C,U1*%
X8490000Y6822500D02*
X8540000Y6822500D01*
X8490000Y5002500D02*
X8490000Y6822500D01*
X8540000Y5002500D02*
X8490000Y5002500D01*
X10440000Y5002500D02*
X9660000Y5002500D01*
X11560000Y6822500D02*
X11610000Y6822500D01*
X11610000Y6822500D02*
X11610000Y5002500D01*
X11610000Y5002500D02*
X11560000Y5002500D01*
X11890000Y7122500D02*
X11560000Y7362500D01*
X11890000Y7602500D01*
X11890000Y7122500D01*
G36*
X11890000Y7122500D02*
G01*
X11560000Y7362500D01*
X11890000Y7602500D01*
X11890000Y7122500D01*
G37*
%TO.C,C2*%
X12523000Y9814420D02*
X12523000Y10095580D01*
X13543000Y9814420D02*
X13543000Y10095580D01*
%TO.C,R3*%
X17337500Y11774758D02*
X17337500Y11300242D01*
X18382500Y11774758D02*
X18382500Y11300242D01*
%TO.C,C1*%
X10298000Y9863748D02*
X10298000Y10386252D01*
X11768000Y9863748D02*
X11768000Y10386252D01*
%TO.C,D2*%
X8463000Y10576500D02*
X8463000Y8616500D01*
X8463000Y8616500D02*
X9663000Y8616500D01*
X9663000Y10576500D02*
X9663000Y8616500D01*
%TO.C,C3*%
X12360000Y6138080D02*
X12360000Y5856920D01*
X13380000Y6138080D02*
X13380000Y5856920D01*
%TO.C,C4*%
X14035000Y6138080D02*
X14035000Y5856920D01*
X15055000Y6138080D02*
X15055000Y5856920D01*
%TO.C,R4*%
X9812742Y3595900D02*
X10287258Y3595900D01*
X9812742Y2550900D02*
X10287258Y2550900D01*
%TO.C,D3*%
X5315000Y3785000D02*
X5315000Y2315000D01*
X5315000Y2315000D02*
X7600000Y2315000D01*
X7600000Y3785000D02*
X5315000Y3785000D01*
%TO.C,J2*%
X415000Y10465000D02*
X415000Y4535000D01*
X3235000Y11735000D02*
X4685000Y11735000D01*
X3235000Y3265000D02*
X4685000Y3265000D01*
X4685000Y11735000D02*
X4685000Y9935000D01*
X4685000Y9935000D02*
X5675000Y9935000D01*
X4685000Y3265000D02*
X4685000Y5065000D01*
%TO.C,R2*%
X19067500Y11764758D02*
X19067500Y11290242D01*
X20112500Y11764758D02*
X20112500Y11290242D01*
%TO.C,R1*%
X6777500Y9412742D02*
X6777500Y9887258D01*
X7822500Y9412742D02*
X7822500Y9887258D01*
%TO.C,D1*%
X6000000Y11365000D02*
X8285000Y11365000D01*
X8285000Y12835000D02*
X6000000Y12835000D01*
X8285000Y11365000D02*
X8285000Y12835000D01*
%TO.C,U2*%
X16885000Y8395000D02*
X20105000Y8395000D01*
X16885000Y8195000D02*
X16885000Y8395000D01*
X16885000Y5175000D02*
X16885000Y5375000D01*
X20105000Y8395000D02*
X20105000Y8195000D01*
X20105000Y5375000D02*
X20105000Y5175000D01*
X20105000Y5175000D02*
X16885000Y5175000D01*
X20935000Y5045000D02*
X20455000Y5045000D01*
X20695000Y5375000D01*
X20935000Y5045000D01*
G36*
X20935000Y5045000D02*
G01*
X20455000Y5045000D01*
X20695000Y5375000D01*
X20935000Y5045000D01*
G37*
%TD*%
M02*
