%TF.GenerationSoftware,KiCad,Pcbnew,9.0.1+1*%
%TF.CreationDate,2025-10-02T16:49:50+00:00*%
%TF.ProjectId,TFI2CADC01,54464932-4341-4444-9330-312e6b696361,rev?*%
%TF.SameCoordinates,PX7cee6c0PY700e860*%
%TF.FileFunction,Legend,Top*%
%TF.FilePolarity,Positive*%
%FSLAX46Y46*%
G04 Gerber Fmt 4.6, Leading zero omitted, Abs format (unit mm)*
G04 Created by KiCad (PCBNEW 9.0.1+1) date 2025-10-02 16:49:50*
%MOMM*%
%LPD*%
G01*
G04 APERTURE LIST*
%ADD10C,0.150000*%
%ADD11C,0.120000*%
G04 APERTURE END LIST*
D10*
X-22899405Y-20604819D02*
X-22899405Y-21414342D01*
X-22899405Y-21414342D02*
X-22851786Y-21509580D01*
X-22851786Y-21509580D02*
X-22804167Y-21557200D01*
X-22804167Y-21557200D02*
X-22708929Y-21604819D01*
X-22708929Y-21604819D02*
X-22518453Y-21604819D01*
X-22518453Y-21604819D02*
X-22423215Y-21557200D01*
X-22423215Y-21557200D02*
X-22375596Y-21509580D01*
X-22375596Y-21509580D02*
X-22327977Y-21414342D01*
X-22327977Y-21414342D02*
X-22327977Y-20604819D01*
X-21327977Y-21604819D02*
X-21899405Y-21604819D01*
X-21613691Y-21604819D02*
X-21613691Y-20604819D01*
X-21613691Y-20604819D02*
X-21708929Y-20747676D01*
X-21708929Y-20747676D02*
X-21804167Y-20842914D01*
X-21804167Y-20842914D02*
X-21899405Y-20890533D01*
X-12933334Y-3404819D02*
X-12933334Y-4119104D01*
X-12933334Y-4119104D02*
X-12980953Y-4261961D01*
X-12980953Y-4261961D02*
X-13076191Y-4357200D01*
X-13076191Y-4357200D02*
X-13219048Y-4404819D01*
X-13219048Y-4404819D02*
X-13314286Y-4404819D01*
X-12457143Y-4404819D02*
X-12457143Y-3404819D01*
X-12457143Y-3404819D02*
X-12076191Y-3404819D01*
X-12076191Y-3404819D02*
X-11980953Y-3452438D01*
X-11980953Y-3452438D02*
X-11933334Y-3500057D01*
X-11933334Y-3500057D02*
X-11885715Y-3595295D01*
X-11885715Y-3595295D02*
X-11885715Y-3738152D01*
X-11885715Y-3738152D02*
X-11933334Y-3833390D01*
X-11933334Y-3833390D02*
X-11980953Y-3881009D01*
X-11980953Y-3881009D02*
X-12076191Y-3928628D01*
X-12076191Y-3928628D02*
X-12457143Y-3928628D01*
X-11504762Y-3500057D02*
X-11457143Y-3452438D01*
X-11457143Y-3452438D02*
X-11361905Y-3404819D01*
X-11361905Y-3404819D02*
X-11123810Y-3404819D01*
X-11123810Y-3404819D02*
X-11028572Y-3452438D01*
X-11028572Y-3452438D02*
X-10980953Y-3500057D01*
X-10980953Y-3500057D02*
X-10933334Y-3595295D01*
X-10933334Y-3595295D02*
X-10933334Y-3690533D01*
X-10933334Y-3690533D02*
X-10980953Y-3833390D01*
X-10980953Y-3833390D02*
X-11552381Y-4404819D01*
X-11552381Y-4404819D02*
X-10933334Y-4404819D01*
X-14583334Y18545181D02*
X-14583334Y17830896D01*
X-14583334Y17830896D02*
X-14630953Y17688039D01*
X-14630953Y17688039D02*
X-14726191Y17592800D01*
X-14726191Y17592800D02*
X-14869048Y17545181D01*
X-14869048Y17545181D02*
X-14964286Y17545181D01*
X-14154762Y18449943D02*
X-14107143Y18497562D01*
X-14107143Y18497562D02*
X-14011905Y18545181D01*
X-14011905Y18545181D02*
X-13773810Y18545181D01*
X-13773810Y18545181D02*
X-13678572Y18497562D01*
X-13678572Y18497562D02*
X-13630953Y18449943D01*
X-13630953Y18449943D02*
X-13583334Y18354705D01*
X-13583334Y18354705D02*
X-13583334Y18259467D01*
X-13583334Y18259467D02*
X-13630953Y18116610D01*
X-13630953Y18116610D02*
X-14202381Y17545181D01*
X-14202381Y17545181D02*
X-13583334Y17545181D01*
X-31460420Y-21166666D02*
X-31412800Y-21214285D01*
X-31412800Y-21214285D02*
X-31365181Y-21357142D01*
X-31365181Y-21357142D02*
X-31365181Y-21452380D01*
X-31365181Y-21452380D02*
X-31412800Y-21595237D01*
X-31412800Y-21595237D02*
X-31508039Y-21690475D01*
X-31508039Y-21690475D02*
X-31603277Y-21738094D01*
X-31603277Y-21738094D02*
X-31793753Y-21785713D01*
X-31793753Y-21785713D02*
X-31936610Y-21785713D01*
X-31936610Y-21785713D02*
X-32127086Y-21738094D01*
X-32127086Y-21738094D02*
X-32222324Y-21690475D01*
X-32222324Y-21690475D02*
X-32317562Y-21595237D01*
X-32317562Y-21595237D02*
X-32365181Y-21452380D01*
X-32365181Y-21452380D02*
X-32365181Y-21357142D01*
X-32365181Y-21357142D02*
X-32317562Y-21214285D01*
X-32317562Y-21214285D02*
X-32269943Y-21166666D01*
X-32269943Y-20785713D02*
X-32317562Y-20738094D01*
X-32317562Y-20738094D02*
X-32365181Y-20642856D01*
X-32365181Y-20642856D02*
X-32365181Y-20404761D01*
X-32365181Y-20404761D02*
X-32317562Y-20309523D01*
X-32317562Y-20309523D02*
X-32269943Y-20261904D01*
X-32269943Y-20261904D02*
X-32174705Y-20214285D01*
X-32174705Y-20214285D02*
X-32079467Y-20214285D01*
X-32079467Y-20214285D02*
X-31936610Y-20261904D01*
X-31936610Y-20261904D02*
X-31365181Y-20833332D01*
X-31365181Y-20833332D02*
X-31365181Y-20214285D01*
X-5741667Y35725181D02*
X-6075000Y36201372D01*
X-6313095Y35725181D02*
X-6313095Y36725181D01*
X-6313095Y36725181D02*
X-5932143Y36725181D01*
X-5932143Y36725181D02*
X-5836905Y36677562D01*
X-5836905Y36677562D02*
X-5789286Y36629943D01*
X-5789286Y36629943D02*
X-5741667Y36534705D01*
X-5741667Y36534705D02*
X-5741667Y36391848D01*
X-5741667Y36391848D02*
X-5789286Y36296610D01*
X-5789286Y36296610D02*
X-5836905Y36248991D01*
X-5836905Y36248991D02*
X-5932143Y36201372D01*
X-5932143Y36201372D02*
X-6313095Y36201372D01*
X-5408333Y36725181D02*
X-4789286Y36725181D01*
X-4789286Y36725181D02*
X-5122619Y36344229D01*
X-5122619Y36344229D02*
X-4979762Y36344229D01*
X-4979762Y36344229D02*
X-4884524Y36296610D01*
X-4884524Y36296610D02*
X-4836905Y36248991D01*
X-4836905Y36248991D02*
X-4789286Y36153753D01*
X-4789286Y36153753D02*
X-4789286Y35915658D01*
X-4789286Y35915658D02*
X-4836905Y35820420D01*
X-4836905Y35820420D02*
X-4884524Y35772800D01*
X-4884524Y35772800D02*
X-4979762Y35725181D01*
X-4979762Y35725181D02*
X-5265476Y35725181D01*
X-5265476Y35725181D02*
X-5360714Y35772800D01*
X-5360714Y35772800D02*
X-5408333Y35820420D01*
X-12933334Y-6954819D02*
X-12933334Y-7669104D01*
X-12933334Y-7669104D02*
X-12980953Y-7811961D01*
X-12980953Y-7811961D02*
X-13076191Y-7907200D01*
X-13076191Y-7907200D02*
X-13219048Y-7954819D01*
X-13219048Y-7954819D02*
X-13314286Y-7954819D01*
X-12457143Y-7954819D02*
X-12457143Y-6954819D01*
X-12457143Y-6954819D02*
X-12076191Y-6954819D01*
X-12076191Y-6954819D02*
X-11980953Y-7002438D01*
X-11980953Y-7002438D02*
X-11933334Y-7050057D01*
X-11933334Y-7050057D02*
X-11885715Y-7145295D01*
X-11885715Y-7145295D02*
X-11885715Y-7288152D01*
X-11885715Y-7288152D02*
X-11933334Y-7383390D01*
X-11933334Y-7383390D02*
X-11980953Y-7431009D01*
X-11980953Y-7431009D02*
X-12076191Y-7478628D01*
X-12076191Y-7478628D02*
X-12457143Y-7478628D01*
X-11552381Y-6954819D02*
X-10933334Y-6954819D01*
X-10933334Y-6954819D02*
X-11266667Y-7335771D01*
X-11266667Y-7335771D02*
X-11123810Y-7335771D01*
X-11123810Y-7335771D02*
X-11028572Y-7383390D01*
X-11028572Y-7383390D02*
X-10980953Y-7431009D01*
X-10980953Y-7431009D02*
X-10933334Y-7526247D01*
X-10933334Y-7526247D02*
X-10933334Y-7764342D01*
X-10933334Y-7764342D02*
X-10980953Y-7859580D01*
X-10980953Y-7859580D02*
X-11028572Y-7907200D01*
X-11028572Y-7907200D02*
X-11123810Y-7954819D01*
X-11123810Y-7954819D02*
X-11409524Y-7954819D01*
X-11409524Y-7954819D02*
X-11504762Y-7907200D01*
X-11504762Y-7907200D02*
X-11552381Y-7859580D01*
X-36460420Y-21191666D02*
X-36412800Y-21239285D01*
X-36412800Y-21239285D02*
X-36365181Y-21382142D01*
X-36365181Y-21382142D02*
X-36365181Y-21477380D01*
X-36365181Y-21477380D02*
X-36412800Y-21620237D01*
X-36412800Y-21620237D02*
X-36508039Y-21715475D01*
X-36508039Y-21715475D02*
X-36603277Y-21763094D01*
X-36603277Y-21763094D02*
X-36793753Y-21810713D01*
X-36793753Y-21810713D02*
X-36936610Y-21810713D01*
X-36936610Y-21810713D02*
X-37127086Y-21763094D01*
X-37127086Y-21763094D02*
X-37222324Y-21715475D01*
X-37222324Y-21715475D02*
X-37317562Y-21620237D01*
X-37317562Y-21620237D02*
X-37365181Y-21477380D01*
X-37365181Y-21477380D02*
X-37365181Y-21382142D01*
X-37365181Y-21382142D02*
X-37317562Y-21239285D01*
X-37317562Y-21239285D02*
X-37269943Y-21191666D01*
X-36365181Y-20239285D02*
X-36365181Y-20810713D01*
X-36365181Y-20524999D02*
X-37365181Y-20524999D01*
X-37365181Y-20524999D02*
X-37222324Y-20620237D01*
X-37222324Y-20620237D02*
X-37127086Y-20715475D01*
X-37127086Y-20715475D02*
X-37079467Y-20810713D01*
X-26495181Y-21738094D02*
X-27495181Y-21738094D01*
X-27495181Y-21738094D02*
X-27495181Y-21499999D01*
X-27495181Y-21499999D02*
X-27447562Y-21357142D01*
X-27447562Y-21357142D02*
X-27352324Y-21261904D01*
X-27352324Y-21261904D02*
X-27257086Y-21214285D01*
X-27257086Y-21214285D02*
X-27066610Y-21166666D01*
X-27066610Y-21166666D02*
X-26923753Y-21166666D01*
X-26923753Y-21166666D02*
X-26733277Y-21214285D01*
X-26733277Y-21214285D02*
X-26638039Y-21261904D01*
X-26638039Y-21261904D02*
X-26542800Y-21357142D01*
X-26542800Y-21357142D02*
X-26495181Y-21499999D01*
X-26495181Y-21499999D02*
X-26495181Y-21738094D01*
X-27399943Y-20785713D02*
X-27447562Y-20738094D01*
X-27447562Y-20738094D02*
X-27495181Y-20642856D01*
X-27495181Y-20642856D02*
X-27495181Y-20404761D01*
X-27495181Y-20404761D02*
X-27447562Y-20309523D01*
X-27447562Y-20309523D02*
X-27399943Y-20261904D01*
X-27399943Y-20261904D02*
X-27304705Y-20214285D01*
X-27304705Y-20214285D02*
X-27209467Y-20214285D01*
X-27209467Y-20214285D02*
X-27066610Y-20261904D01*
X-27066610Y-20261904D02*
X-26495181Y-20833332D01*
X-26495181Y-20833332D02*
X-26495181Y-20214285D01*
X-2645181Y15416667D02*
X-1930896Y15416667D01*
X-1930896Y15416667D02*
X-1788039Y15369048D01*
X-1788039Y15369048D02*
X-1692800Y15273810D01*
X-1692800Y15273810D02*
X-1645181Y15130953D01*
X-1645181Y15130953D02*
X-1645181Y15035715D01*
X-2645181Y15797620D02*
X-2645181Y16416667D01*
X-2645181Y16416667D02*
X-2264229Y16083334D01*
X-2264229Y16083334D02*
X-2264229Y16226191D01*
X-2264229Y16226191D02*
X-2216610Y16321429D01*
X-2216610Y16321429D02*
X-2168991Y16369048D01*
X-2168991Y16369048D02*
X-2073753Y16416667D01*
X-2073753Y16416667D02*
X-1835658Y16416667D01*
X-1835658Y16416667D02*
X-1740420Y16369048D01*
X-1740420Y16369048D02*
X-1692800Y16321429D01*
X-1692800Y16321429D02*
X-1645181Y16226191D01*
X-1645181Y16226191D02*
X-1645181Y15940477D01*
X-1645181Y15940477D02*
X-1692800Y15845239D01*
X-1692800Y15845239D02*
X-1740420Y15797620D01*
X28301666Y20815181D02*
X28301666Y20100896D01*
X28301666Y20100896D02*
X28254047Y19958039D01*
X28254047Y19958039D02*
X28158809Y19862800D01*
X28158809Y19862800D02*
X28015952Y19815181D01*
X28015952Y19815181D02*
X27920714Y19815181D01*
X29301666Y19815181D02*
X28730238Y19815181D01*
X29015952Y19815181D02*
X29015952Y20815181D01*
X29015952Y20815181D02*
X28920714Y20672324D01*
X28920714Y20672324D02*
X28825476Y20577086D01*
X28825476Y20577086D02*
X28730238Y20529467D01*
X-14822920Y-21966666D02*
X-14775300Y-22014285D01*
X-14775300Y-22014285D02*
X-14727681Y-22157142D01*
X-14727681Y-22157142D02*
X-14727681Y-22252380D01*
X-14727681Y-22252380D02*
X-14775300Y-22395237D01*
X-14775300Y-22395237D02*
X-14870539Y-22490475D01*
X-14870539Y-22490475D02*
X-14965777Y-22538094D01*
X-14965777Y-22538094D02*
X-15156253Y-22585713D01*
X-15156253Y-22585713D02*
X-15299110Y-22585713D01*
X-15299110Y-22585713D02*
X-15489586Y-22538094D01*
X-15489586Y-22538094D02*
X-15584824Y-22490475D01*
X-15584824Y-22490475D02*
X-15680062Y-22395237D01*
X-15680062Y-22395237D02*
X-15727681Y-22252380D01*
X-15727681Y-22252380D02*
X-15727681Y-22157142D01*
X-15727681Y-22157142D02*
X-15680062Y-22014285D01*
X-15680062Y-22014285D02*
X-15632443Y-21966666D01*
X-15727681Y-21633332D02*
X-15727681Y-21014285D01*
X-15727681Y-21014285D02*
X-15346729Y-21347618D01*
X-15346729Y-21347618D02*
X-15346729Y-21204761D01*
X-15346729Y-21204761D02*
X-15299110Y-21109523D01*
X-15299110Y-21109523D02*
X-15251491Y-21061904D01*
X-15251491Y-21061904D02*
X-15156253Y-21014285D01*
X-15156253Y-21014285D02*
X-14918158Y-21014285D01*
X-14918158Y-21014285D02*
X-14822920Y-21061904D01*
X-14822920Y-21061904D02*
X-14775300Y-21109523D01*
X-14775300Y-21109523D02*
X-14727681Y-21204761D01*
X-14727681Y-21204761D02*
X-14727681Y-21490475D01*
X-14727681Y-21490475D02*
X-14775300Y-21585713D01*
X-14775300Y-21585713D02*
X-14822920Y-21633332D01*
X17789580Y-14666666D02*
X17837200Y-14714285D01*
X17837200Y-14714285D02*
X17884819Y-14857142D01*
X17884819Y-14857142D02*
X17884819Y-14952380D01*
X17884819Y-14952380D02*
X17837200Y-15095237D01*
X17837200Y-15095237D02*
X17741961Y-15190475D01*
X17741961Y-15190475D02*
X17646723Y-15238094D01*
X17646723Y-15238094D02*
X17456247Y-15285713D01*
X17456247Y-15285713D02*
X17313390Y-15285713D01*
X17313390Y-15285713D02*
X17122914Y-15238094D01*
X17122914Y-15238094D02*
X17027676Y-15190475D01*
X17027676Y-15190475D02*
X16932438Y-15095237D01*
X16932438Y-15095237D02*
X16884819Y-14952380D01*
X16884819Y-14952380D02*
X16884819Y-14857142D01*
X16884819Y-14857142D02*
X16932438Y-14714285D01*
X16932438Y-14714285D02*
X16980057Y-14666666D01*
X17218152Y-13809523D02*
X17884819Y-13809523D01*
X16837200Y-14047618D02*
X17551485Y-14285713D01*
X17551485Y-14285713D02*
X17551485Y-13666666D01*
X10179580Y-14666666D02*
X10227200Y-14714285D01*
X10227200Y-14714285D02*
X10274819Y-14857142D01*
X10274819Y-14857142D02*
X10274819Y-14952380D01*
X10274819Y-14952380D02*
X10227200Y-15095237D01*
X10227200Y-15095237D02*
X10131961Y-15190475D01*
X10131961Y-15190475D02*
X10036723Y-15238094D01*
X10036723Y-15238094D02*
X9846247Y-15285713D01*
X9846247Y-15285713D02*
X9703390Y-15285713D01*
X9703390Y-15285713D02*
X9512914Y-15238094D01*
X9512914Y-15238094D02*
X9417676Y-15190475D01*
X9417676Y-15190475D02*
X9322438Y-15095237D01*
X9322438Y-15095237D02*
X9274819Y-14952380D01*
X9274819Y-14952380D02*
X9274819Y-14857142D01*
X9274819Y-14857142D02*
X9322438Y-14714285D01*
X9322438Y-14714285D02*
X9370057Y-14666666D01*
X9274819Y-13761904D02*
X9274819Y-14238094D01*
X9274819Y-14238094D02*
X9751009Y-14285713D01*
X9751009Y-14285713D02*
X9703390Y-14238094D01*
X9703390Y-14238094D02*
X9655771Y-14142856D01*
X9655771Y-14142856D02*
X9655771Y-13904761D01*
X9655771Y-13904761D02*
X9703390Y-13809523D01*
X9703390Y-13809523D02*
X9751009Y-13761904D01*
X9751009Y-13761904D02*
X9846247Y-13714285D01*
X9846247Y-13714285D02*
X10084342Y-13714285D01*
X10084342Y-13714285D02*
X10179580Y-13761904D01*
X10179580Y-13761904D02*
X10227200Y-13809523D01*
X10227200Y-13809523D02*
X10274819Y-13904761D01*
X10274819Y-13904761D02*
X10274819Y-14142856D01*
X10274819Y-14142856D02*
X10227200Y-14238094D01*
X10227200Y-14238094D02*
X10179580Y-14285713D01*
X15083333Y-18774819D02*
X14750000Y-18298628D01*
X14511905Y-18774819D02*
X14511905Y-17774819D01*
X14511905Y-17774819D02*
X14892857Y-17774819D01*
X14892857Y-17774819D02*
X14988095Y-17822438D01*
X14988095Y-17822438D02*
X15035714Y-17870057D01*
X15035714Y-17870057D02*
X15083333Y-17965295D01*
X15083333Y-17965295D02*
X15083333Y-18108152D01*
X15083333Y-18108152D02*
X15035714Y-18203390D01*
X15035714Y-18203390D02*
X14988095Y-18251009D01*
X14988095Y-18251009D02*
X14892857Y-18298628D01*
X14892857Y-18298628D02*
X14511905Y-18298628D01*
X15940476Y-18108152D02*
X15940476Y-18774819D01*
X15702381Y-17727200D02*
X15464286Y-18441485D01*
X15464286Y-18441485D02*
X16083333Y-18441485D01*
X-3145181Y26416667D02*
X-2430896Y26416667D01*
X-2430896Y26416667D02*
X-2288039Y26369048D01*
X-2288039Y26369048D02*
X-2192800Y26273810D01*
X-2192800Y26273810D02*
X-2145181Y26130953D01*
X-2145181Y26130953D02*
X-2145181Y26035715D01*
X-2811848Y27321429D02*
X-2145181Y27321429D01*
X-3192800Y27083334D02*
X-2478515Y26845239D01*
X-2478515Y26845239D02*
X-2478515Y27464286D01*
X-12133334Y595181D02*
X-12133334Y-119104D01*
X-12133334Y-119104D02*
X-12180953Y-261961D01*
X-12180953Y-261961D02*
X-12276191Y-357200D01*
X-12276191Y-357200D02*
X-12419048Y-404819D01*
X-12419048Y-404819D02*
X-12514286Y-404819D01*
X-11657143Y-404819D02*
X-11657143Y595181D01*
X-11657143Y595181D02*
X-11276191Y595181D01*
X-11276191Y595181D02*
X-11180953Y547562D01*
X-11180953Y547562D02*
X-11133334Y499943D01*
X-11133334Y499943D02*
X-11085715Y404705D01*
X-11085715Y404705D02*
X-11085715Y261848D01*
X-11085715Y261848D02*
X-11133334Y166610D01*
X-11133334Y166610D02*
X-11180953Y118991D01*
X-11180953Y118991D02*
X-11276191Y71372D01*
X-11276191Y71372D02*
X-11657143Y71372D01*
X-10133334Y-404819D02*
X-10704762Y-404819D01*
X-10419048Y-404819D02*
X-10419048Y595181D01*
X-10419048Y595181D02*
X-10514286Y452324D01*
X-10514286Y452324D02*
X-10609524Y357086D01*
X-10609524Y357086D02*
X-10704762Y309467D01*
X-13614286Y-2204819D02*
X-14185714Y-2204819D01*
X-13900000Y-2204819D02*
X-13900000Y-1204819D01*
X-13900000Y-1204819D02*
X-13995238Y-1347676D01*
X-13995238Y-1347676D02*
X-14090476Y-1442914D01*
X-14090476Y-1442914D02*
X-14185714Y-1490533D01*
X-9033333Y-1204819D02*
X-8414286Y-1204819D01*
X-8414286Y-1204819D02*
X-8747619Y-1585771D01*
X-8747619Y-1585771D02*
X-8604762Y-1585771D01*
X-8604762Y-1585771D02*
X-8509524Y-1633390D01*
X-8509524Y-1633390D02*
X-8461905Y-1681009D01*
X-8461905Y-1681009D02*
X-8414286Y-1776247D01*
X-8414286Y-1776247D02*
X-8414286Y-2014342D01*
X-8414286Y-2014342D02*
X-8461905Y-2109580D01*
X-8461905Y-2109580D02*
X-8509524Y-2157200D01*
X-8509524Y-2157200D02*
X-8604762Y-2204819D01*
X-8604762Y-2204819D02*
X-8890476Y-2204819D01*
X-8890476Y-2204819D02*
X-8985714Y-2157200D01*
X-8985714Y-2157200D02*
X-9033333Y-2109580D01*
X-5741667Y38235181D02*
X-6075000Y38711372D01*
X-6313095Y38235181D02*
X-6313095Y39235181D01*
X-6313095Y39235181D02*
X-5932143Y39235181D01*
X-5932143Y39235181D02*
X-5836905Y39187562D01*
X-5836905Y39187562D02*
X-5789286Y39139943D01*
X-5789286Y39139943D02*
X-5741667Y39044705D01*
X-5741667Y39044705D02*
X-5741667Y38901848D01*
X-5741667Y38901848D02*
X-5789286Y38806610D01*
X-5789286Y38806610D02*
X-5836905Y38758991D01*
X-5836905Y38758991D02*
X-5932143Y38711372D01*
X-5932143Y38711372D02*
X-6313095Y38711372D01*
X-5360714Y39139943D02*
X-5313095Y39187562D01*
X-5313095Y39187562D02*
X-5217857Y39235181D01*
X-5217857Y39235181D02*
X-4979762Y39235181D01*
X-4979762Y39235181D02*
X-4884524Y39187562D01*
X-4884524Y39187562D02*
X-4836905Y39139943D01*
X-4836905Y39139943D02*
X-4789286Y39044705D01*
X-4789286Y39044705D02*
X-4789286Y38949467D01*
X-4789286Y38949467D02*
X-4836905Y38806610D01*
X-4836905Y38806610D02*
X-5408333Y38235181D01*
X-5408333Y38235181D02*
X-4789286Y38235181D01*
X-50254167Y-16774819D02*
X-50587500Y-16298628D01*
X-50825595Y-16774819D02*
X-50825595Y-15774819D01*
X-50825595Y-15774819D02*
X-50444643Y-15774819D01*
X-50444643Y-15774819D02*
X-50349405Y-15822438D01*
X-50349405Y-15822438D02*
X-50301786Y-15870057D01*
X-50301786Y-15870057D02*
X-50254167Y-15965295D01*
X-50254167Y-15965295D02*
X-50254167Y-16108152D01*
X-50254167Y-16108152D02*
X-50301786Y-16203390D01*
X-50301786Y-16203390D02*
X-50349405Y-16251009D01*
X-50349405Y-16251009D02*
X-50444643Y-16298628D01*
X-50444643Y-16298628D02*
X-50825595Y-16298628D01*
X-49301786Y-16774819D02*
X-49873214Y-16774819D01*
X-49587500Y-16774819D02*
X-49587500Y-15774819D01*
X-49587500Y-15774819D02*
X-49682738Y-15917676D01*
X-49682738Y-15917676D02*
X-49777976Y-16012914D01*
X-49777976Y-16012914D02*
X-49873214Y-16060533D01*
X5588095Y-12154819D02*
X5588095Y-12964342D01*
X5588095Y-12964342D02*
X5635714Y-13059580D01*
X5635714Y-13059580D02*
X5683333Y-13107200D01*
X5683333Y-13107200D02*
X5778571Y-13154819D01*
X5778571Y-13154819D02*
X5969047Y-13154819D01*
X5969047Y-13154819D02*
X6064285Y-13107200D01*
X6064285Y-13107200D02*
X6111904Y-13059580D01*
X6111904Y-13059580D02*
X6159523Y-12964342D01*
X6159523Y-12964342D02*
X6159523Y-12154819D01*
X6540476Y-12154819D02*
X7159523Y-12154819D01*
X7159523Y-12154819D02*
X6826190Y-12535771D01*
X6826190Y-12535771D02*
X6969047Y-12535771D01*
X6969047Y-12535771D02*
X7064285Y-12583390D01*
X7064285Y-12583390D02*
X7111904Y-12631009D01*
X7111904Y-12631009D02*
X7159523Y-12726247D01*
X7159523Y-12726247D02*
X7159523Y-12964342D01*
X7159523Y-12964342D02*
X7111904Y-13059580D01*
X7111904Y-13059580D02*
X7064285Y-13107200D01*
X7064285Y-13107200D02*
X6969047Y-13154819D01*
X6969047Y-13154819D02*
X6683333Y-13154819D01*
X6683333Y-13154819D02*
X6588095Y-13107200D01*
X6588095Y-13107200D02*
X6540476Y-13059580D01*
D11*
%TO.C,U1*%
X-22137500Y-21990000D02*
X-22937500Y-21990000D01*
X-22137500Y-21990000D02*
X-21337500Y-21990000D01*
X-22137500Y-25110000D02*
X-22937500Y-25110000D01*
X-22137500Y-25110000D02*
X-21337500Y-25110000D01*
X-23437500Y-22040000D02*
X-23677500Y-21710000D01*
X-23197500Y-21710000D01*
X-23437500Y-22040000D01*
G36*
X-23437500Y-22040000D02*
G01*
X-23677500Y-21710000D01*
X-23197500Y-21710000D01*
X-23437500Y-22040000D01*
G37*
%TO.C,JP2*%
X-13500000Y-4750000D02*
X-10700000Y-4750000D01*
X-13500000Y-6750000D02*
X-13500000Y-4750000D01*
X-10700000Y-4750000D02*
X-10700000Y-6750000D01*
X-10700000Y-6750000D02*
X-13500000Y-6750000D01*
%TO.C,J2*%
X-16150000Y16850000D02*
X-12350000Y16850000D01*
X-12350000Y14650000D01*
X-16150000Y14650000D01*
X-16150000Y16850000D01*
%TO.C,C2*%
X-33760000Y-20837221D02*
X-33760000Y-21162779D01*
X-32740000Y-20837221D02*
X-32740000Y-21162779D01*
%TO.C,R3*%
X-5737779Y35260000D02*
X-5412221Y35260000D01*
X-5737779Y34240000D02*
X-5412221Y34240000D01*
%TO.C,JP3*%
X-13500000Y-8300000D02*
X-10700000Y-8300000D01*
X-13500000Y-10300000D02*
X-13500000Y-8300000D01*
X-10700000Y-8300000D02*
X-10700000Y-10300000D01*
X-10700000Y-10300000D02*
X-13500000Y-10300000D01*
%TO.C,C1*%
X-38760000Y-20862221D02*
X-38760000Y-21187779D01*
X-37740000Y-20862221D02*
X-37740000Y-21187779D01*
%TO.C,D2*%
X-28850000Y-21700000D02*
X-28850000Y-19740000D01*
X-27650000Y-19740000D02*
X-28850000Y-19740000D01*
X-27650000Y-21700000D02*
X-27650000Y-19740000D01*
%TO.C,J3*%
X-8560000Y18715000D02*
X-8560000Y12785000D01*
X-5740000Y19985000D02*
X-4290000Y19985000D01*
X-5740000Y11515000D02*
X-4290000Y11515000D01*
X-4290000Y19985000D02*
X-4290000Y18185000D01*
X-4290000Y18185000D02*
X-3300000Y18185000D01*
X-4290000Y11515000D02*
X-4290000Y13315000D01*
%TO.C,J1*%
X22980000Y19270000D02*
X24250000Y19270000D01*
X22980000Y18000000D02*
X22980000Y19270000D01*
X25327358Y15890000D02*
X25640000Y15890000D01*
X25327358Y15030000D02*
X25640000Y15030000D01*
X25327358Y13350000D02*
X25640000Y13350000D01*
X25327358Y12490000D02*
X25640000Y12490000D01*
X25327358Y10810000D02*
X25640000Y10810000D01*
X25327358Y9950000D02*
X25640000Y9950000D01*
X25327358Y8270000D02*
X25640000Y8270000D01*
X25327358Y7410000D02*
X25640000Y7410000D01*
X25410000Y18430000D02*
X25640000Y18430000D01*
X25410000Y17570000D02*
X25640000Y17570000D01*
X25640000Y19380000D02*
X25640000Y6460000D01*
X25640000Y16730000D02*
X28400000Y16730000D01*
X25640000Y14190000D02*
X28400000Y14190000D01*
X25640000Y11650000D02*
X28400000Y11650000D01*
X25640000Y9110000D02*
X28400000Y9110000D01*
X25640000Y6460000D02*
X28400000Y6460000D01*
X28400000Y19380000D02*
X25640000Y19380000D01*
X28400000Y15890000D02*
X34400000Y15890000D01*
X28400000Y13350000D02*
X34400000Y13350000D01*
X28400000Y10810000D02*
X34400000Y10810000D01*
X28400000Y8270000D02*
X34400000Y8270000D01*
X28400000Y6460000D02*
X28400000Y19380000D01*
X34400000Y15890000D02*
X34400000Y15030000D01*
X34400000Y15030000D02*
X28400000Y15030000D01*
X34400000Y13350000D02*
X34400000Y12490000D01*
X34400000Y12490000D02*
X28400000Y12490000D01*
X34400000Y10810000D02*
X34400000Y9950000D01*
X34400000Y9950000D02*
X28400000Y9950000D01*
X34400000Y8270000D02*
X34400000Y7410000D01*
X34400000Y7410000D02*
X28400000Y7410000D01*
X28400000Y18430000D02*
X34400000Y18430000D01*
X34400000Y17570000D01*
X28400000Y17570000D01*
X28400000Y18430000D01*
G36*
X28400000Y18430000D02*
G01*
X34400000Y18430000D01*
X34400000Y17570000D01*
X28400000Y17570000D01*
X28400000Y18430000D01*
G37*
%TO.C,C3*%
X-17122500Y-21637221D02*
X-17122500Y-21962779D01*
X-16102500Y-21637221D02*
X-16102500Y-21962779D01*
%TO.C,C4*%
X15490000Y-14337221D02*
X15490000Y-14662779D01*
X16510000Y-14337221D02*
X16510000Y-14662779D01*
%TO.C,C5*%
X10740000Y-14662779D02*
X10740000Y-14337221D01*
X11760000Y-14662779D02*
X11760000Y-14337221D01*
%TO.C,R4*%
X15087221Y-19240000D02*
X15412779Y-19240000D01*
X15087221Y-20260000D02*
X15412779Y-20260000D01*
%TO.C,J4*%
X-9060000Y29715000D02*
X-9060000Y23785000D01*
X-6240000Y30985000D02*
X-4790000Y30985000D01*
X-6240000Y22515000D02*
X-4790000Y22515000D01*
X-4790000Y30985000D02*
X-4790000Y29185000D01*
X-4790000Y29185000D02*
X-3800000Y29185000D01*
X-4790000Y22515000D02*
X-4790000Y24315000D01*
%TO.C,JP1*%
X-13350000Y-750000D02*
X-9250000Y-750000D01*
X-13350000Y-2750000D02*
X-13350000Y-750000D01*
X-9250000Y-750000D02*
X-9250000Y-2750000D01*
X-9250000Y-2750000D02*
X-13350000Y-2750000D01*
%TO.C,R2*%
X-5737779Y37770000D02*
X-5412221Y37770000D01*
X-5737779Y36750000D02*
X-5412221Y36750000D01*
%TO.C,R1*%
X-50324758Y-17227500D02*
X-49850242Y-17227500D01*
X-50324758Y-18272500D02*
X-49850242Y-18272500D01*
D10*
%TO.C,U3*%
X4725000Y-13625000D02*
X4725000Y-13850000D01*
X4725000Y-13625000D02*
X7975000Y-13625000D01*
X4725000Y-16875000D02*
X4725000Y-16650000D01*
X4725000Y-16875000D02*
X7975000Y-16875000D01*
X7975000Y-13625000D02*
X7975000Y-13850000D01*
X7975000Y-16875000D02*
X7975000Y-16650000D01*
D11*
X4250000Y-13850000D02*
X4010000Y-13520000D01*
X4490000Y-13520000D01*
X4250000Y-13850000D01*
G36*
X4250000Y-13850000D02*
G01*
X4010000Y-13520000D01*
X4490000Y-13520000D01*
X4250000Y-13850000D01*
G37*
%TD*%
M02*
