M48
; DRILL file {KiCad 9.0.1+1} date 2025-10-11T18:06:46+0000
; FORMAT={3:3/ absolute / metric / suppress leading zeros}
; #@! TF.CreationDate,2025-10-11T18:06:46+00:00
; #@! TF.GenerationSoftware,Kicad,Pcbnew,9.0.1+1
; #@! TF.FileFunction,Plated,1,2,PTH
FMAT,2
METRIC,TZ
; #@! TA.AperFunction,Plated,PTH,ViaDrill
T1C0.300
; #@! TA.AperFunction,Plated,PTH,ViaDrill
T2C0.400
%
G90
G05
T1
X10050Y5900
X16690Y8830
X17620Y7300
X20630Y5050
X21050Y12710
X21070Y10090
X22500Y5060
X22520Y2500
X23880Y10090
T2
X1400Y9800
X1550Y5150
X3125Y9375
X3175Y6875
X4400Y1950
X4450Y13300
X6640Y6900
X12600Y12450
X13790Y3920
X14800Y12450
X15650Y3850
X15700Y1100
X16200Y13900
X16240Y10750
X18600Y13900
X19390Y1660
X19600Y9610
M30
