%TF.GenerationSoftware,KiCad,Pcbnew,9.0.1+1*%
%TF.CreationDate,2025-10-11T18:06:46+00:00*%
%TF.ProjectId,TFI2CADC01,54464932-4341-4444-9330-312e6b696361,rev?*%
%TF.SameCoordinates,PX81b3200PY6b49d20*%
%TF.FileFunction,Copper,L2,Bot*%
%TF.FilePolarity,Positive*%
%FSLAX46Y46*%
G04 Gerber Fmt 4.6, Leading zero omitted, Abs format (unit mm)*
G04 Created by KiCad (PCBNEW 9.0.1+1) date 2025-10-11 18:06:46*
%MOMM*%
%LPD*%
G01*
G04 APERTURE LIST*
G04 Aperture macros list*
%AMRoundRect*
0 Rectangle with rounded corners*
0 $1 Rounding radius*
0 $2 $3 $4 $5 $6 $7 $8 $9 X,Y pos of 4 corners*
0 Add a 4 corners polygon primitive as box body*
4,1,4,$2,$3,$4,$5,$6,$7,$8,$9,$2,$3,0*
0 Add four circle primitives for the rounded corners*
1,1,$1+$1,$2,$3*
1,1,$1+$1,$4,$5*
1,1,$1+$1,$6,$7*
1,1,$1+$1,$8,$9*
0 Add four rect primitives between the rounded corners*
20,1,$1+$1,$2,$3,$4,$5,0*
20,1,$1+$1,$4,$5,$6,$7,0*
20,1,$1+$1,$6,$7,$8,$9,0*
20,1,$1+$1,$8,$9,$2,$3,0*%
G04 Aperture macros list end*
%TA.AperFunction,EtchedComponent*%
%ADD10C,0.000000*%
%TD*%
%TA.AperFunction,SMDPad,CuDef*%
%ADD11R,2.510000X1.000000*%
%TD*%
%TA.AperFunction,SMDPad,CuDef*%
%ADD12R,1.500000X1.000000*%
%TD*%
%TA.AperFunction,SMDPad,CuDef*%
%ADD13RoundRect,0.250000X-1.450000X-0.650000X1.450000X-0.650000X1.450000X0.650000X-1.450000X0.650000X0*%
%TD*%
%TA.AperFunction,SMDPad,CuDef*%
%ADD14RoundRect,0.150000X0.700000X-0.150000X0.700000X0.150000X-0.700000X0.150000X-0.700000X-0.150000X0*%
%TD*%
%TA.AperFunction,SMDPad,CuDef*%
%ADD15RoundRect,0.250000X1.100000X-0.250000X1.100000X0.250000X-1.100000X0.250000X-1.100000X-0.250000X0*%
%TD*%
%TA.AperFunction,ViaPad*%
%ADD16C,0.600000*%
%TD*%
%TA.AperFunction,ViaPad*%
%ADD17C,0.800000*%
%TD*%
%TA.AperFunction,Conductor*%
%ADD18C,0.400000*%
%TD*%
%TA.AperFunction,Conductor*%
%ADD19C,0.500000*%
%TD*%
%TA.AperFunction,Conductor*%
%ADD20C,0.300000*%
%TD*%
%TA.AperFunction,Conductor*%
%ADD21C,0.250000*%
%TD*%
%TA.AperFunction,Conductor*%
%ADD22C,0.200000*%
%TD*%
G04 APERTURE END LIST*
D10*
%TA.AperFunction,EtchedComponent*%
%TO.C,JP1*%
G36*
X14100000Y7260000D02*
G01*
X13500000Y7260000D01*
X13500000Y7760000D01*
X14100000Y7760000D01*
X14100000Y7260000D01*
G37*
%TD.AperFunction*%
%TD*%
D11*
%TO.P,J1,2*%
%TO.N,GND*%
X23400000Y11350000D03*
%TO.P,J1,4*%
%TO.N,/AIN2*%
X23400000Y8810000D03*
%TO.P,J1,6*%
%TO.N,/AIN3*%
X23400000Y6270000D03*
%TO.P,J1,8*%
%TO.N,GND*%
X23400000Y3730000D03*
%TD*%
D12*
%TO.P,JP2,1,A*%
%TO.N,/ADDR*%
X11200000Y6860000D03*
%TO.P,JP2,2,B*%
%TO.N,/SCL*%
X11200000Y8160000D03*
%TD*%
D13*
%TO.P,T1,1,1*%
%TO.N,/ALERT{slash}RDY*%
X19380000Y3310000D03*
%TD*%
D14*
%TO.P,J3,1*%
%TO.N,+5V*%
X4825000Y5625000D03*
%TO.P,J3,2*%
%TO.N,/SCL*%
X4825000Y6875000D03*
%TO.P,J3,3*%
%TO.N,/SDA*%
X4825000Y8125000D03*
%TO.P,J3,4*%
%TO.N,GND*%
X4825000Y9375000D03*
D15*
%TO.P,J3,MP*%
X1625000Y3775000D03*
X1625000Y11225000D03*
%TD*%
D12*
%TO.P,JP1,1,A*%
%TO.N,GND*%
X13800000Y8160000D03*
%TO.P,JP1,2,C*%
%TO.N,/ADDR*%
X13800000Y6860000D03*
%TO.P,JP1,3,B*%
%TO.N,+3V3*%
X13800000Y5560000D03*
%TD*%
D16*
%TO.N,GND*%
X23880000Y10090000D03*
D17*
X1550000Y5150000D03*
X4450000Y13300000D03*
X15700000Y1100000D03*
X18600000Y13900000D03*
X4400000Y1950000D03*
X1400000Y9800000D03*
D16*
X21050000Y12710000D03*
D17*
X15650000Y3850000D03*
D16*
X22500000Y5060000D03*
D17*
X16200000Y13900000D03*
X12600000Y12450000D03*
D16*
X21070000Y10090000D03*
X10050000Y5900000D03*
D17*
X14800000Y12450000D03*
D16*
X22520000Y2500000D03*
D17*
%TO.N,+3V3*%
X13790000Y3920000D03*
%TO.N,+5V*%
X3125000Y9375000D03*
D16*
%TO.N,/AIN3*%
X17620000Y7300000D03*
%TO.N,/AIN2*%
X16690000Y8830000D03*
D17*
%TO.N,/ALERT{slash}RDY*%
X19390000Y1660000D03*
%TO.N,/SDA*%
X3175000Y6875000D03*
X16240000Y10750000D03*
%TO.N,/SCL*%
X6640000Y6900000D03*
X19600000Y9610000D03*
D16*
%TO.N,/ADDR*%
X20630000Y5050000D03*
%TD*%
D18*
%TO.N,GND*%
X1620000Y11220000D02*
X1625000Y11225000D01*
X1620000Y3780000D02*
X1625000Y3775000D01*
%TO.N,+3V3*%
X13790000Y3920000D02*
X13790000Y5550000D01*
X13790000Y5550000D02*
X13800000Y5560000D01*
D19*
%TO.N,+5V*%
X2975000Y5625000D02*
X4825000Y5625000D01*
X3075000Y9425000D02*
X2075000Y8425000D01*
X3125000Y9375000D02*
X3075000Y9425000D01*
X2075000Y8425000D02*
X2075000Y6525000D01*
X2075000Y6525000D02*
X2975000Y5625000D01*
D20*
%TO.N,/AIN3*%
X22370000Y7300000D02*
X23400000Y6270000D01*
X17620000Y7300000D02*
X22370000Y7300000D01*
D21*
%TO.N,/AIN2*%
X16860000Y8810000D02*
X23400000Y8810000D01*
D18*
%TO.N,/ALERT{slash}RDY*%
X19380000Y1670000D02*
X19390000Y1660000D01*
X19380000Y3310000D02*
X19380000Y1670000D01*
%TO.N,/SDA*%
X10200000Y10750000D02*
X16240000Y10750000D01*
X3505000Y8125000D02*
X4825000Y8125000D01*
X7575000Y8125000D02*
X10200000Y10750000D01*
X3175000Y6875000D02*
X3175000Y7795000D01*
X3175000Y7795000D02*
X3505000Y8125000D01*
X4825000Y8125000D02*
X7575000Y8125000D01*
%TO.N,/SCL*%
X6640000Y6900000D02*
X8360000Y6900000D01*
X8360000Y6900000D02*
X9620000Y8160000D01*
X6325000Y6875000D02*
X4825000Y6875000D01*
X11165000Y8125000D02*
X11200000Y8160000D01*
X9620000Y8160000D02*
X11200000Y8160000D01*
X12650000Y9610000D02*
X19600000Y9610000D01*
X11200000Y8160000D02*
X12650000Y9610000D01*
D22*
%TO.N,/ADDR*%
X13800000Y6860000D02*
X14750000Y6860000D01*
X14750000Y6860000D02*
X16560000Y5050000D01*
X16560000Y5050000D02*
X20630000Y5050000D01*
D18*
X11200000Y6860000D02*
X13800000Y6860000D01*
%TD*%
%TA.AperFunction,Conductor*%
%TO.N,GND*%
G36*
X6657260Y14479815D02*
G01*
X6703015Y14427011D01*
X6712959Y14357853D01*
X6704782Y14328048D01*
X6655264Y14208502D01*
X6655261Y14208490D01*
X6624500Y14053847D01*
X6624500Y12496154D01*
X6655261Y12341511D01*
X6655264Y12341499D01*
X6715602Y12195828D01*
X6715609Y12195815D01*
X6803210Y12064712D01*
X6803213Y12064708D01*
X6914707Y11953214D01*
X6914711Y11953211D01*
X7045814Y11865610D01*
X7045827Y11865603D01*
X7191498Y11805265D01*
X7191503Y11805263D01*
X7346153Y11774501D01*
X7346156Y11774500D01*
X7346158Y11774500D01*
X9103844Y11774500D01*
X9103845Y11774501D01*
X9258497Y11805263D01*
X9404179Y11865606D01*
X9535289Y11953211D01*
X9646789Y12064711D01*
X9734394Y12195821D01*
X9794737Y12341503D01*
X9825500Y12496158D01*
X9825500Y12575000D01*
X9825500Y12640892D01*
X9825500Y14040892D01*
X9825500Y14053842D01*
X9825500Y14053845D01*
X9825499Y14053847D01*
X9818508Y14088993D01*
X9794737Y14208497D01*
X9745218Y14328048D01*
X9737749Y14397517D01*
X9769024Y14459996D01*
X9829113Y14495648D01*
X9859779Y14499500D01*
X10468660Y14499500D01*
X10535699Y14479815D01*
X10581454Y14427011D01*
X10588060Y14408959D01*
X10602380Y14357853D01*
X10610603Y14328504D01*
X10719634Y14077491D01*
X10719633Y14077491D01*
X10861829Y13843659D01*
X11034542Y13631366D01*
X11234560Y13444561D01*
X11458135Y13286745D01*
X11458141Y13286741D01*
X11458143Y13286740D01*
X11701136Y13160831D01*
X11701139Y13160830D01*
X11959004Y13069184D01*
X11959020Y13069179D01*
X12149255Y13029649D01*
X12226960Y13013502D01*
X12226961Y13013501D01*
X12244441Y13012306D01*
X12500000Y12994825D01*
X12773038Y13013501D01*
X12893620Y13038559D01*
X13040979Y13069179D01*
X13040985Y13069182D01*
X13040990Y13069182D01*
X13298864Y13160831D01*
X13541857Y13286740D01*
X13765442Y13444563D01*
X13965454Y13631362D01*
X14138168Y13843655D01*
X14280365Y14077489D01*
X14286226Y14090981D01*
X14389396Y14328504D01*
X14389398Y14328508D01*
X14411938Y14408956D01*
X14448980Y14468197D01*
X14512170Y14498009D01*
X14531340Y14499500D01*
X20468660Y14499500D01*
X20535699Y14479815D01*
X20581454Y14427011D01*
X20588060Y14408959D01*
X20602380Y14357853D01*
X20610603Y14328504D01*
X20719634Y14077491D01*
X20719633Y14077491D01*
X20861829Y13843659D01*
X21034542Y13631366D01*
X21234560Y13444561D01*
X21458135Y13286745D01*
X21458141Y13286741D01*
X21458143Y13286740D01*
X21701136Y13160831D01*
X21701139Y13160830D01*
X21959004Y13069184D01*
X21959020Y13069179D01*
X22149255Y13029649D01*
X22226960Y13013502D01*
X22226961Y13013501D01*
X22244441Y13012306D01*
X22500000Y12994825D01*
X22773038Y13013501D01*
X22893620Y13038559D01*
X23040979Y13069179D01*
X23040985Y13069182D01*
X23040990Y13069182D01*
X23298864Y13160831D01*
X23541857Y13286740D01*
X23765442Y13444563D01*
X23965454Y13631362D01*
X24138168Y13843655D01*
X24269552Y14059709D01*
X24321203Y14106760D01*
X24390093Y14118418D01*
X24454350Y14090981D01*
X24493573Y14033159D01*
X24499500Y13995280D01*
X24499500Y9734500D01*
X24479815Y9667461D01*
X24427011Y9621706D01*
X24375500Y9610500D01*
X22100143Y9610500D01*
X22100117Y9610498D01*
X22075012Y9607587D01*
X22075008Y9607585D01*
X21972235Y9562207D01*
X21892794Y9482766D01*
X21847415Y9379994D01*
X21847415Y9379992D01*
X21844500Y9354867D01*
X21844355Y9352353D01*
X21844138Y9351747D01*
X21844087Y9351306D01*
X21843985Y9351318D01*
X21820839Y9286560D01*
X21765486Y9243924D01*
X21720561Y9235500D01*
X20388671Y9235500D01*
X20321632Y9255185D01*
X20275877Y9307989D01*
X20265933Y9377147D01*
X20272134Y9399748D01*
X20271812Y9399845D01*
X20273576Y9405665D01*
X20273580Y9405672D01*
X20300500Y9541007D01*
X20300500Y9678993D01*
X20300500Y9678996D01*
X20273581Y9814323D01*
X20273580Y9814324D01*
X20273580Y9814328D01*
X20270590Y9821546D01*
X20220778Y9941805D01*
X20220771Y9941818D01*
X20144114Y10056542D01*
X20144111Y10056546D01*
X20046545Y10154112D01*
X20046541Y10154115D01*
X19931817Y10230772D01*
X19931804Y10230779D01*
X19804332Y10283579D01*
X19804322Y10283582D01*
X19668995Y10310500D01*
X19668993Y10310500D01*
X19531007Y10310500D01*
X19531005Y10310500D01*
X19395677Y10283582D01*
X19395667Y10283579D01*
X19268195Y10230779D01*
X19268182Y10230772D01*
X19153458Y10154115D01*
X19153454Y10154112D01*
X19146162Y10146819D01*
X19084839Y10113334D01*
X19058481Y10110500D01*
X16887172Y10110500D01*
X16820133Y10130185D01*
X16774378Y10182989D01*
X16764434Y10252147D01*
X16784070Y10303391D01*
X16860771Y10418183D01*
X16860771Y10418184D01*
X16860775Y10418189D01*
X16913580Y10545672D01*
X16940500Y10681007D01*
X16940500Y10818993D01*
X16940500Y10818996D01*
X16913581Y10954323D01*
X16913580Y10954324D01*
X16913580Y10954328D01*
X16913578Y10954333D01*
X16860778Y11081805D01*
X16860771Y11081818D01*
X16784114Y11196542D01*
X16784111Y11196546D01*
X16686545Y11294112D01*
X16686541Y11294115D01*
X16571817Y11370772D01*
X16571804Y11370779D01*
X16444332Y11423579D01*
X16444322Y11423582D01*
X16308995Y11450500D01*
X16308993Y11450500D01*
X16171007Y11450500D01*
X16171005Y11450500D01*
X16035677Y11423582D01*
X16035667Y11423579D01*
X15908195Y11370779D01*
X15908182Y11370772D01*
X15793458Y11294115D01*
X15793454Y11294112D01*
X15786162Y11286819D01*
X15724839Y11253334D01*
X15698481Y11250500D01*
X10134108Y11250500D01*
X10006812Y11216392D01*
X9892686Y11150500D01*
X9892683Y11150498D01*
X7404005Y8661819D01*
X7342682Y8628334D01*
X7316324Y8625500D01*
X5849540Y8625500D01*
X5782501Y8645185D01*
X5775907Y8649730D01*
X5737886Y8677791D01*
X5737880Y8677794D01*
X5609700Y8722647D01*
X5579270Y8725500D01*
X5579266Y8725500D01*
X4070734Y8725500D01*
X4070730Y8725500D01*
X4040300Y8722647D01*
X4040298Y8722647D01*
X3912119Y8677794D01*
X3912113Y8677791D01*
X3874093Y8649730D01*
X3853680Y8642275D01*
X3835395Y8630523D01*
X3812490Y8627230D01*
X3808464Y8625759D01*
X3800460Y8625500D01*
X3665519Y8625500D01*
X3598480Y8645185D01*
X3552725Y8697989D01*
X3542781Y8767147D01*
X3571806Y8830703D01*
X3577838Y8837181D01*
X3669111Y8928455D01*
X3669114Y8928458D01*
X3745775Y9043189D01*
X3798580Y9170672D01*
X3825500Y9306007D01*
X3825500Y9443993D01*
X3825500Y9443996D01*
X3798581Y9579323D01*
X3798580Y9579324D01*
X3798580Y9579328D01*
X3781027Y9621706D01*
X3745778Y9706805D01*
X3745771Y9706818D01*
X3669114Y9821542D01*
X3669111Y9821546D01*
X3571545Y9919112D01*
X3571541Y9919115D01*
X3456817Y9995772D01*
X3456804Y9995779D01*
X3329332Y10048579D01*
X3329322Y10048582D01*
X3193995Y10075500D01*
X3193993Y10075500D01*
X3056007Y10075500D01*
X3056005Y10075500D01*
X2920677Y10048582D01*
X2920667Y10048579D01*
X2793195Y9995779D01*
X2793182Y9995772D01*
X2678458Y9919115D01*
X2678454Y9919112D01*
X2580888Y9821546D01*
X2580882Y9821538D01*
X2504226Y9706814D01*
X2504225Y9706813D01*
X2461293Y9603167D01*
X2434413Y9562940D01*
X1634491Y8763017D01*
X1634489Y8763014D01*
X1575305Y8660502D01*
X1575304Y8660503D01*
X1562017Y8637487D01*
X1562016Y8637485D01*
X1524500Y8497475D01*
X1524500Y6597474D01*
X1524500Y6452526D01*
X1562016Y6312515D01*
X1634490Y6186985D01*
X2636985Y5184490D01*
X2732999Y5129057D01*
X2762515Y5112016D01*
X2902525Y5074500D01*
X3884496Y5074500D01*
X3925451Y5067541D01*
X4040298Y5027355D01*
X4040300Y5027354D01*
X4070730Y5024500D01*
X4070734Y5024500D01*
X5579270Y5024500D01*
X5609699Y5027354D01*
X5609701Y5027354D01*
X5673790Y5049781D01*
X5737882Y5072207D01*
X5847150Y5152850D01*
X5927793Y5262118D01*
X5956970Y5345501D01*
X5972646Y5390299D01*
X5972646Y5390301D01*
X5975500Y5420731D01*
X5975500Y5829270D01*
X5972646Y5859700D01*
X5972646Y5859702D01*
X5930051Y5981428D01*
X5927793Y5987882D01*
X5847150Y6097150D01*
X5802363Y6130204D01*
X5775228Y6150231D01*
X5758708Y6171989D01*
X5739551Y6191460D01*
X5737889Y6199410D01*
X5732977Y6205879D01*
X5730842Y6233118D01*
X5725254Y6259852D01*
X5728153Y6267438D01*
X5727519Y6275535D01*
X5740448Y6299600D01*
X5750202Y6325116D01*
X5758591Y6333371D01*
X5760587Y6337084D01*
X5775349Y6349860D01*
X5776039Y6350369D01*
X5841699Y6374252D01*
X5849540Y6374500D01*
X6127985Y6374500D01*
X6195024Y6354815D01*
X6196876Y6353602D01*
X6308182Y6279229D01*
X6308195Y6279222D01*
X6435667Y6226422D01*
X6435672Y6226420D01*
X6435676Y6226420D01*
X6435677Y6226419D01*
X6571004Y6199500D01*
X6571007Y6199500D01*
X6708995Y6199500D01*
X6800041Y6217611D01*
X6844328Y6226420D01*
X6971811Y6279225D01*
X7086542Y6355886D01*
X7090156Y6359500D01*
X7093838Y6363181D01*
X7155161Y6396666D01*
X7181519Y6399500D01*
X8425890Y6399500D01*
X8425892Y6399500D01*
X8553186Y6433608D01*
X8667314Y6499500D01*
X9790995Y7623181D01*
X9817922Y7637885D01*
X9843741Y7654477D01*
X9849941Y7655369D01*
X9852318Y7656666D01*
X9878676Y7659500D01*
X10040934Y7659500D01*
X10107973Y7639815D01*
X10153728Y7587011D01*
X10154327Y7585677D01*
X10165344Y7560727D01*
X10165628Y7560084D01*
X10174697Y7490805D01*
X10165628Y7459917D01*
X10152415Y7429992D01*
X10149500Y7404869D01*
X10149500Y6315144D01*
X10149502Y6315118D01*
X10152413Y6290013D01*
X10152415Y6290009D01*
X10197793Y6187236D01*
X10197794Y6187235D01*
X10277235Y6107794D01*
X10380009Y6062415D01*
X10405135Y6059500D01*
X11994864Y6059501D01*
X11994879Y6059503D01*
X11994882Y6059503D01*
X12019987Y6062414D01*
X12019988Y6062415D01*
X12019991Y6062415D01*
X12122765Y6107794D01*
X12202206Y6187235D01*
X12231785Y6254225D01*
X12245633Y6285587D01*
X12290719Y6338963D01*
X12357505Y6359490D01*
X12359067Y6359500D01*
X12640934Y6359500D01*
X12658775Y6354261D01*
X12677369Y6354026D01*
X12691604Y6344622D01*
X12707973Y6339815D01*
X12720148Y6325765D01*
X12735665Y6315513D01*
X12752829Y6288048D01*
X12753728Y6287011D01*
X12754338Y6285653D01*
X12757175Y6279229D01*
X12765628Y6260084D01*
X12774697Y6190805D01*
X12765628Y6159917D01*
X12752415Y6129992D01*
X12749500Y6104869D01*
X12749500Y5015144D01*
X12749502Y5015118D01*
X12752413Y4990013D01*
X12752415Y4990009D01*
X12797793Y4887236D01*
X12797794Y4887235D01*
X12877235Y4807794D01*
X12980009Y4762415D01*
X13005135Y4759500D01*
X13165500Y4759501D01*
X13174185Y4756951D01*
X13183147Y4758239D01*
X13207184Y4747262D01*
X13232539Y4739817D01*
X13238467Y4732975D01*
X13246703Y4729214D01*
X13260989Y4706983D01*
X13278294Y4687013D01*
X13280581Y4676498D01*
X13284477Y4670436D01*
X13289500Y4635501D01*
X13289500Y4461519D01*
X13269815Y4394480D01*
X13253181Y4373838D01*
X13245888Y4366546D01*
X13245885Y4366542D01*
X13169228Y4251818D01*
X13169221Y4251805D01*
X13116421Y4124333D01*
X13116418Y4124323D01*
X13089500Y3988996D01*
X13089500Y3988993D01*
X13089500Y3851007D01*
X13089500Y3851005D01*
X13089499Y3851005D01*
X13116418Y3715678D01*
X13116421Y3715668D01*
X13169221Y3588196D01*
X13169228Y3588183D01*
X13245885Y3473459D01*
X13245888Y3473455D01*
X13343454Y3375889D01*
X13343458Y3375886D01*
X13458182Y3299229D01*
X13458195Y3299222D01*
X13515466Y3275500D01*
X13585672Y3246420D01*
X13585676Y3246420D01*
X13585677Y3246419D01*
X13721004Y3219500D01*
X13721007Y3219500D01*
X13858995Y3219500D01*
X13950041Y3237611D01*
X13994328Y3246420D01*
X14121811Y3299225D01*
X14236542Y3375886D01*
X14334114Y3473458D01*
X14410775Y3588189D01*
X14463580Y3715672D01*
X14490500Y3851007D01*
X14490500Y3988993D01*
X14490500Y3988996D01*
X14463581Y4124323D01*
X14463580Y4124324D01*
X14463580Y4124328D01*
X14463578Y4124333D01*
X14410778Y4251805D01*
X14410771Y4251818D01*
X14334114Y4366542D01*
X14334111Y4366546D01*
X14326819Y4373838D01*
X14312115Y4400766D01*
X14295523Y4426584D01*
X14294631Y4432785D01*
X14293334Y4435161D01*
X14290500Y4461519D01*
X14290500Y4635501D01*
X14310185Y4702540D01*
X14362989Y4748295D01*
X14414500Y4759501D01*
X14594856Y4759501D01*
X14594864Y4759501D01*
X14594879Y4759503D01*
X14594882Y4759503D01*
X14619987Y4762414D01*
X14619988Y4762415D01*
X14619991Y4762415D01*
X14722765Y4807794D01*
X14802206Y4887235D01*
X14847585Y4990009D01*
X14850500Y5015135D01*
X14850499Y5893748D01*
X14870183Y5960786D01*
X14922987Y6006541D01*
X14992146Y6016485D01*
X15055702Y5987460D01*
X15062180Y5981428D01*
X16239518Y4804090D01*
X16239520Y4804087D01*
X16314087Y4729520D01*
X16383385Y4689511D01*
X16405411Y4676794D01*
X16405412Y4676794D01*
X16405413Y4676793D01*
X16507273Y4649499D01*
X16507275Y4649499D01*
X16620323Y4649499D01*
X16620339Y4649500D01*
X17559438Y4649500D01*
X17626477Y4629815D01*
X17672232Y4577011D01*
X17682176Y4507853D01*
X17653151Y4444297D01*
X17634363Y4426696D01*
X17537077Y4352923D01*
X17445639Y4232344D01*
X17390122Y4091562D01*
X17384188Y4042147D01*
X17379500Y4003102D01*
X17379500Y2616898D01*
X17385126Y2570046D01*
X17390122Y2528439D01*
X17445639Y2387657D01*
X17537077Y2267078D01*
X17657656Y2175640D01*
X17657657Y2175640D01*
X17657658Y2175639D01*
X17798436Y2120123D01*
X17886898Y2109500D01*
X18632394Y2109500D01*
X18699433Y2089815D01*
X18745188Y2037011D01*
X18755132Y1967853D01*
X18746955Y1938048D01*
X18716421Y1864333D01*
X18716418Y1864323D01*
X18689500Y1728996D01*
X18689500Y1728993D01*
X18689500Y1591007D01*
X18689500Y1591005D01*
X18689499Y1591005D01*
X18716418Y1455678D01*
X18716421Y1455668D01*
X18769221Y1328196D01*
X18769228Y1328183D01*
X18845885Y1213459D01*
X18845888Y1213455D01*
X18943454Y1115889D01*
X18943458Y1115886D01*
X19058182Y1039229D01*
X19058195Y1039222D01*
X19141489Y1004721D01*
X19185672Y986420D01*
X19185676Y986420D01*
X19185677Y986419D01*
X19321004Y959500D01*
X19321007Y959500D01*
X19458995Y959500D01*
X19550041Y977611D01*
X19594328Y986420D01*
X19721811Y1039225D01*
X19836542Y1115886D01*
X19934114Y1213458D01*
X20010775Y1328189D01*
X20063580Y1455672D01*
X20090500Y1591007D01*
X20090500Y1728993D01*
X20090500Y1728996D01*
X20063581Y1864323D01*
X20063580Y1864324D01*
X20063580Y1864328D01*
X20063578Y1864333D01*
X20033045Y1938048D01*
X20025576Y2007517D01*
X20056852Y2069996D01*
X20116941Y2105648D01*
X20147606Y2109500D01*
X20873097Y2109500D01*
X20873102Y2109500D01*
X20961564Y2120123D01*
X21102342Y2175639D01*
X21222922Y2267078D01*
X21314361Y2387658D01*
X21369877Y2528436D01*
X21380500Y2616898D01*
X21380500Y4003102D01*
X21369877Y4091564D01*
X21314361Y4232342D01*
X21314360Y4232343D01*
X21314360Y4232344D01*
X21222922Y4352923D01*
X21102337Y4444365D01*
X21098448Y4446552D01*
X21095593Y4449480D01*
X21095584Y4449486D01*
X21095585Y4449488D01*
X21049664Y4496570D01*
X21035666Y4565024D01*
X21060899Y4630178D01*
X21071542Y4642307D01*
X21110520Y4681284D01*
X21189577Y4818216D01*
X21230500Y4970943D01*
X21230500Y5129057D01*
X21189577Y5281784D01*
X21189573Y5281791D01*
X21110524Y5418710D01*
X21110518Y5418718D01*
X20998717Y5530519D01*
X20998709Y5530525D01*
X20861790Y5609574D01*
X20861786Y5609576D01*
X20861784Y5609577D01*
X20709057Y5650500D01*
X20550943Y5650500D01*
X20398216Y5609577D01*
X20398209Y5609574D01*
X20261290Y5530525D01*
X20261282Y5530519D01*
X20217583Y5486819D01*
X20156260Y5453334D01*
X20129902Y5450500D01*
X16777254Y5450500D01*
X16710215Y5470185D01*
X16689573Y5486819D01*
X15860879Y6315513D01*
X14995913Y7180480D01*
X14995553Y7180688D01*
X14991014Y7183309D01*
X14942799Y7233876D01*
X14929577Y7302483D01*
X14953749Y7365006D01*
X14993350Y7417907D01*
X14993354Y7417914D01*
X15043596Y7552621D01*
X15043598Y7552628D01*
X15049999Y7612156D01*
X15050000Y7612173D01*
X15050000Y7910000D01*
X13924000Y7910000D01*
X13856961Y7929685D01*
X13811206Y7982489D01*
X13800000Y8034000D01*
X13800000Y8286000D01*
X13819685Y8353039D01*
X13872489Y8398794D01*
X13924000Y8410000D01*
X15050000Y8410000D01*
X15050000Y8707828D01*
X15049999Y8707845D01*
X15043598Y8767373D01*
X15043596Y8767380D01*
X14993354Y8902087D01*
X14993353Y8902089D01*
X14986540Y8911190D01*
X14962124Y8976655D01*
X14976976Y9044928D01*
X15026382Y9094333D01*
X15085808Y9109500D01*
X15981609Y9109500D01*
X16048648Y9089815D01*
X16094403Y9037011D01*
X16104347Y8967853D01*
X16101386Y8953418D01*
X16089500Y8909057D01*
X16089500Y8750943D01*
X16123113Y8625500D01*
X16130423Y8598217D01*
X16130426Y8598210D01*
X16209475Y8461291D01*
X16209479Y8461286D01*
X16209480Y8461284D01*
X16321284Y8349480D01*
X16321286Y8349479D01*
X16321290Y8349476D01*
X16458209Y8270426D01*
X16458212Y8270425D01*
X16458213Y8270425D01*
X16458216Y8270423D01*
X16458531Y8270339D01*
X16458766Y8270196D01*
X16465721Y8267315D01*
X16465271Y8266231D01*
X16518191Y8233977D01*
X16538745Y8203134D01*
X16690000Y7880000D01*
X17035355Y7825131D01*
X17098475Y7795171D01*
X17135378Y7735842D01*
X17134347Y7665980D01*
X17123286Y7640668D01*
X17060423Y7531785D01*
X17060423Y7531784D01*
X17019500Y7379057D01*
X17019500Y7220943D01*
X17057754Y7078179D01*
X17060423Y7068217D01*
X17060426Y7068210D01*
X17139475Y6931291D01*
X17139479Y6931286D01*
X17139480Y6931284D01*
X17251284Y6819480D01*
X17251286Y6819479D01*
X17251290Y6819476D01*
X17259277Y6814865D01*
X17388216Y6740423D01*
X17540943Y6699500D01*
X17540945Y6699500D01*
X17699055Y6699500D01*
X17699057Y6699500D01*
X17851784Y6740423D01*
X17988716Y6819480D01*
X17988721Y6819486D01*
X17994443Y6823875D01*
X18059612Y6849070D01*
X18069931Y6849500D01*
X21720500Y6849500D01*
X21787539Y6829815D01*
X21833294Y6777011D01*
X21844500Y6725500D01*
X21844500Y5725144D01*
X21844502Y5725118D01*
X21847413Y5700013D01*
X21847415Y5700009D01*
X21892793Y5597236D01*
X21892794Y5597235D01*
X21972235Y5517794D01*
X22075009Y5472415D01*
X22100135Y5469500D01*
X24375500Y5469501D01*
X24442539Y5449816D01*
X24488294Y5397013D01*
X24499500Y5345501D01*
X24499500Y1004721D01*
X24479815Y937682D01*
X24427011Y891927D01*
X24357853Y881983D01*
X24294297Y911008D01*
X24269552Y940293D01*
X24138170Y1156342D01*
X23965457Y1368635D01*
X23765439Y1555440D01*
X23541864Y1713256D01*
X23541858Y1713260D01*
X23298860Y1839171D01*
X23040995Y1930817D01*
X23040979Y1930822D01*
X22773040Y1986499D01*
X22773038Y1986500D01*
X22500000Y2005175D01*
X22226961Y1986500D01*
X22226959Y1986499D01*
X21959020Y1930822D01*
X21959004Y1930817D01*
X21701139Y1839171D01*
X21458141Y1713260D01*
X21458135Y1713256D01*
X21234560Y1555440D01*
X21034542Y1368635D01*
X20861829Y1156342D01*
X20719633Y922510D01*
X20610603Y671497D01*
X20588062Y591045D01*
X20551020Y531803D01*
X20487830Y501991D01*
X20468660Y500500D01*
X14531340Y500500D01*
X14464301Y520185D01*
X14418546Y572989D01*
X14411938Y591045D01*
X14389398Y671492D01*
X14380521Y691928D01*
X14315548Y841511D01*
X14280365Y922510D01*
X14280366Y922510D01*
X14138170Y1156342D01*
X13965457Y1368635D01*
X13765439Y1555440D01*
X13541864Y1713256D01*
X13541858Y1713260D01*
X13298860Y1839171D01*
X13040995Y1930817D01*
X13040979Y1930822D01*
X12773040Y1986499D01*
X12773038Y1986500D01*
X12500000Y2005175D01*
X12226961Y1986500D01*
X12226959Y1986499D01*
X11959020Y1930822D01*
X11959004Y1930817D01*
X11701139Y1839171D01*
X11458141Y1713260D01*
X11458135Y1713256D01*
X11234560Y1555440D01*
X11034542Y1368635D01*
X10861829Y1156342D01*
X10719633Y922510D01*
X10610603Y671497D01*
X10588062Y591045D01*
X10551020Y531803D01*
X10487830Y501991D01*
X10468660Y500500D01*
X9835873Y500500D01*
X9768834Y520185D01*
X9723079Y572989D01*
X9713135Y642147D01*
X9731621Y690393D01*
X9731521Y690446D01*
X9731950Y691250D01*
X9732771Y693391D01*
X9734390Y695815D01*
X9734390Y695816D01*
X9734394Y695821D01*
X9794737Y841503D01*
X9825500Y996158D01*
X9825500Y1075000D01*
X9825500Y1140892D01*
X9825500Y2540892D01*
X9825500Y2553842D01*
X9825500Y2553845D01*
X9825499Y2553847D01*
X9794738Y2708490D01*
X9794737Y2708497D01*
X9794735Y2708502D01*
X9734397Y2854173D01*
X9734390Y2854186D01*
X9646789Y2985289D01*
X9646786Y2985293D01*
X9535292Y3096787D01*
X9535288Y3096790D01*
X9404185Y3184391D01*
X9404172Y3184398D01*
X9258501Y3244736D01*
X9258489Y3244739D01*
X9103845Y3275500D01*
X9103842Y3275500D01*
X9090892Y3275500D01*
X7490892Y3275500D01*
X7425000Y3275500D01*
X7346158Y3275500D01*
X7346155Y3275500D01*
X7191510Y3244739D01*
X7191498Y3244736D01*
X7045827Y3184398D01*
X7045814Y3184391D01*
X6914711Y3096790D01*
X6914707Y3096787D01*
X6803213Y2985293D01*
X6803210Y2985289D01*
X6715609Y2854186D01*
X6715602Y2854173D01*
X6655264Y2708502D01*
X6655261Y2708490D01*
X6624500Y2553847D01*
X6624500Y996154D01*
X6655261Y841511D01*
X6655264Y841499D01*
X6715602Y695828D01*
X6715609Y695815D01*
X6717229Y693391D01*
X6717687Y691928D01*
X6718479Y690446D01*
X6718198Y690296D01*
X6738107Y626713D01*
X6719622Y559333D01*
X6667644Y512643D01*
X6614127Y500500D01*
X4531340Y500500D01*
X4464301Y520185D01*
X4418546Y572989D01*
X4411938Y591045D01*
X4389398Y671492D01*
X4380521Y691928D01*
X4315548Y841511D01*
X4280365Y922510D01*
X4280366Y922510D01*
X4138170Y1156342D01*
X3965457Y1368635D01*
X3765439Y1555440D01*
X3541864Y1713256D01*
X3541858Y1713260D01*
X3298860Y1839171D01*
X3040995Y1930817D01*
X3040979Y1930822D01*
X2773040Y1986499D01*
X2773038Y1986500D01*
X2500000Y2005175D01*
X2226961Y1986500D01*
X2226959Y1986499D01*
X1959020Y1930822D01*
X1959004Y1930817D01*
X1701139Y1839171D01*
X1458141Y1713260D01*
X1458135Y1713256D01*
X1234560Y1555440D01*
X1034542Y1368635D01*
X861829Y1156342D01*
X730448Y940293D01*
X678797Y893241D01*
X609906Y881583D01*
X545650Y909020D01*
X506427Y966842D01*
X500500Y1004721D01*
X500500Y13995280D01*
X520185Y14062319D01*
X572989Y14108074D01*
X642147Y14118018D01*
X705703Y14088993D01*
X730448Y14059708D01*
X861829Y13843659D01*
X1034542Y13631366D01*
X1234560Y13444561D01*
X1458135Y13286745D01*
X1458141Y13286741D01*
X1458143Y13286740D01*
X1701136Y13160831D01*
X1701139Y13160830D01*
X1959004Y13069184D01*
X1959020Y13069179D01*
X2149255Y13029649D01*
X2226960Y13013502D01*
X2226961Y13013501D01*
X2244441Y13012306D01*
X2500000Y12994825D01*
X2773038Y13013501D01*
X2893620Y13038559D01*
X3040979Y13069179D01*
X3040985Y13069182D01*
X3040990Y13069182D01*
X3298864Y13160831D01*
X3541857Y13286740D01*
X3765442Y13444563D01*
X3965454Y13631362D01*
X4138168Y13843655D01*
X4280365Y14077489D01*
X4286226Y14090981D01*
X4389396Y14328504D01*
X4389398Y14328508D01*
X4411938Y14408956D01*
X4448980Y14468197D01*
X4512170Y14498009D01*
X4531340Y14499500D01*
X6590221Y14499500D01*
X6657260Y14479815D01*
G37*
%TD.AperFunction*%
%TD*%
%TA.AperFunction,NonConductor*%
G36*
X22829223Y7989816D02*
G01*
X22874978Y7937012D01*
X22884922Y7867854D01*
X22855897Y7804298D01*
X22844102Y7792413D01*
X22742169Y7702711D01*
X22725287Y7694845D01*
X22711144Y7682724D01*
X22694273Y7680393D01*
X22678838Y7673200D01*
X22660381Y7675710D01*
X22641932Y7673160D01*
X22611017Y7682421D01*
X22609605Y7682613D01*
X22608510Y7683172D01*
X22608123Y7683288D01*
X22603072Y7685629D01*
X22543887Y7719799D01*
X22519673Y7726287D01*
X22429309Y7750500D01*
X22429308Y7750500D01*
X22305681Y7750500D01*
X22299214Y7752399D01*
X22292584Y7751194D01*
X22266114Y7762119D01*
X22238642Y7770185D01*
X22232704Y7775907D01*
X22227998Y7777849D01*
X22203915Y7803650D01*
X22196256Y7814651D01*
X22174107Y7880917D01*
X22191299Y7948638D01*
X22242376Y7996314D01*
X22298018Y8009501D01*
X22762186Y8009501D01*
X22829223Y7989816D01*
G37*
%TD.AperFunction*%
M02*
