%TF.GenerationSoftware,KiCad,Pcbnew,9.0.1+1*%
%TF.CreationDate,2025-09-28T00:45:56+00:00*%
%TF.ProjectId,TFI2CADC01,54464932-4341-4444-9330-312e6b696361,rev?*%
%TF.SameCoordinates,PX7f50c60PY6dac2c0*%
%TF.FileFunction,Soldermask,Bot*%
%TF.FilePolarity,Negative*%
%FSLAX46Y46*%
G04 Gerber Fmt 4.6, Leading zero omitted, Abs format (unit mm)*
G04 Created by KiCad (PCBNEW 9.0.1+1) date 2025-09-28 00:45:56*
%MOMM*%
%LPD*%
G01*
G04 APERTURE LIST*
G04 Aperture macros list*
%AMRoundRect*
0 Rectangle with rounded corners*
0 $1 Rounding radius*
0 $2 $3 $4 $5 $6 $7 $8 $9 X,Y pos of 4 corners*
0 Add a 4 corners polygon primitive as box body*
4,1,4,$2,$3,$4,$5,$6,$7,$8,$9,$2,$3,0*
0 Add four circle primitives for the rounded corners*
1,1,$1+$1,$2,$3*
1,1,$1+$1,$4,$5*
1,1,$1+$1,$6,$7*
1,1,$1+$1,$8,$9*
0 Add four rect primitives between the rounded corners*
20,1,$1+$1,$2,$3,$4,$5,0*
20,1,$1+$1,$4,$5,$6,$7,0*
20,1,$1+$1,$6,$7,$8,$9,0*
20,1,$1+$1,$8,$9,$2,$3,0*%
G04 Aperture macros list end*
%ADD10RoundRect,0.300000X0.300000X0.375000X-0.300000X0.375000X-0.300000X-0.375000X0.300000X-0.375000X0*%
%ADD11RoundRect,0.318750X-0.356250X0.318750X-0.356250X-0.318750X0.356250X-0.318750X0.356250X0.318750X0*%
%ADD12RoundRect,0.325000X-0.325000X-0.350000X0.325000X-0.350000X0.325000X0.350000X-0.325000X0.350000X0*%
%ADD13RoundRect,0.200000X0.350000X-0.300000X0.350000X0.300000X-0.350000X0.300000X-0.350000X-0.300000X0*%
%ADD14RoundRect,0.300000X-0.375000X0.300000X-0.375000X-0.300000X0.375000X-0.300000X0.375000X0.300000X0*%
%ADD15RoundRect,0.300000X0.375000X-0.300000X0.375000X0.300000X-0.375000X0.300000X-0.375000X-0.300000X0*%
%ADD16RoundRect,0.300000X-0.300000X-0.375000X0.300000X-0.375000X0.300000X0.375000X-0.300000X0.375000X0*%
%ADD17RoundRect,0.250000X-0.800000X0.250000X-0.800000X-0.250000X0.800000X-0.250000X0.800000X0.250000X0*%
%ADD18RoundRect,0.350000X-1.200000X0.350000X-1.200000X-0.350000X1.200000X-0.350000X1.200000X0.350000X0*%
%ADD19RoundRect,0.250000X0.800000X-0.250000X0.800000X0.250000X-0.800000X0.250000X-0.800000X-0.250000X0*%
%ADD20RoundRect,0.350000X1.200000X-0.350000X1.200000X0.350000X-1.200000X0.350000X-1.200000X-0.350000X0*%
%ADD21RoundRect,0.250000X0.250000X-0.612500X0.250000X0.612500X-0.250000X0.612500X-0.250000X-0.612500X0*%
%ADD22RoundRect,0.200000X-0.125000X0.325000X-0.125000X-0.325000X0.125000X-0.325000X0.125000X0.325000X0*%
%ADD23RoundRect,0.200000X-2.200000X0.830000X-2.200000X-0.830000X2.200000X-0.830000X2.200000X0.830000X0*%
%ADD24RoundRect,0.350000X-0.575000X0.350000X-0.575000X-0.350000X0.575000X-0.350000X0.575000X0.350000X0*%
%ADD25RoundRect,0.325000X-0.350000X0.325000X-0.350000X-0.325000X0.350000X-0.325000X0.350000X0.325000X0*%
G04 APERTURE END LIST*
D10*
%TO.C,R7*%
X9795000Y19699200D03*
X8145000Y19699200D03*
%TD*%
D11*
%TO.C,D1*%
X2770000Y7217500D03*
X2770000Y5642500D03*
%TD*%
D12*
%TO.C,C2*%
X10200200Y1462000D03*
X11750200Y1462000D03*
%TD*%
D13*
%TO.C,D2*%
X2136000Y4067000D03*
X2136000Y2667000D03*
%TD*%
D14*
%TO.C,R5*%
X12550000Y6718800D03*
X12550000Y5068800D03*
%TD*%
D15*
%TO.C,R16*%
X10899000Y8320000D03*
X10899000Y9970000D03*
%TD*%
D12*
%TO.C,C3*%
X10200200Y3124000D03*
X11750200Y3124000D03*
%TD*%
D14*
%TO.C,R15*%
X3025000Y19977600D03*
X3025000Y18327600D03*
%TD*%
D16*
%TO.C,R12*%
X4745000Y17337000D03*
X6395000Y17337000D03*
%TD*%
D17*
%TO.C,J5*%
X14620000Y17805000D03*
X14620000Y16555000D03*
X14620000Y15305000D03*
X14620000Y14055000D03*
D18*
X17820000Y19655000D03*
X17820000Y12205000D03*
%TD*%
D14*
%TO.C,R8*%
X11534000Y19965400D03*
X11534000Y18315400D03*
%TD*%
D19*
%TO.C,J1*%
X-80000Y4055000D03*
X-80000Y5305000D03*
X-80000Y6555000D03*
X-80000Y7805000D03*
D20*
X-3280000Y2205000D03*
X-3280000Y9655000D03*
%TD*%
D16*
%TO.C,R14*%
X4745000Y19699200D03*
X6395000Y19699200D03*
%TD*%
D21*
%TO.C,U1*%
X8216800Y2864500D03*
X7266800Y2864500D03*
X6316800Y2864500D03*
X6316800Y5139500D03*
X8216800Y5139500D03*
%TD*%
D15*
%TO.C,R13*%
X3025000Y15127200D03*
X3025000Y16777200D03*
%TD*%
%TO.C,R1*%
X4574400Y5666200D03*
X4574400Y7316200D03*
%TD*%
D14*
%TO.C,R6*%
X10873600Y6694400D03*
X10873600Y5044400D03*
%TD*%
%TO.C,R2*%
X3406000Y11481800D03*
X3406000Y9831800D03*
%TD*%
D10*
%TO.C,R9*%
X9795000Y17337000D03*
X8145000Y17337000D03*
%TD*%
%TO.C,R3*%
X3596000Y13196800D03*
X1946000Y13196800D03*
%TD*%
D15*
%TO.C,R17*%
X12550000Y8320000D03*
X12550000Y9970000D03*
%TD*%
D17*
%TO.C,J3*%
X14620000Y7805000D03*
X14620000Y6555000D03*
X14620000Y5305000D03*
X14620000Y4055000D03*
D18*
X17820000Y9655000D03*
X17820000Y2205000D03*
%TD*%
D19*
%TO.C,J2*%
X-80000Y14055000D03*
X-80000Y15305000D03*
X-80000Y16555000D03*
X-80000Y17805000D03*
D20*
X-3280000Y12205000D03*
X-3280000Y19655000D03*
%TD*%
D22*
%TO.C,U2*%
X5520000Y13707400D03*
X6020000Y13707400D03*
X6520000Y13707400D03*
X7020000Y13707400D03*
X7520000Y13707400D03*
X8020000Y13707400D03*
X8520000Y13707400D03*
X9020000Y13707400D03*
X9020000Y10857400D03*
X8520000Y10857400D03*
X8020000Y10857400D03*
X7520000Y10857400D03*
X7020000Y10857400D03*
X6520000Y10857400D03*
X6020000Y10857400D03*
X5520000Y10857400D03*
D23*
X7270000Y12282400D03*
%TD*%
D24*
%TO.C,C1*%
X4015600Y3885200D03*
X4015600Y1985200D03*
%TD*%
D15*
%TO.C,R10*%
X11534000Y15165800D03*
X11534000Y16815800D03*
%TD*%
D25*
%TO.C,C4*%
X11153000Y13527000D03*
X11153000Y11977000D03*
%TD*%
M02*
