%TF.GenerationSoftware,KiCad,Pcbnew,9.0.1+1*%
%TF.CreationDate,2025-10-02T16:11:36+00:00*%
%TF.ProjectId,TFI2CADC01,54464932-4341-4444-9330-312e6b696361,rev?*%
%TF.SameCoordinates,PX7cee6c0PY700e860*%
%TF.FileFunction,Paste,Top*%
%TF.FilePolarity,Positive*%
%FSLAX46Y46*%
G04 Gerber Fmt 4.6, Leading zero omitted, Abs format (unit mm)*
G04 Created by KiCad (PCBNEW 9.0.1+1) date 2025-10-02 16:11:36*
%MOMM*%
%LPD*%
G01*
G04 APERTURE LIST*
G04 Aperture macros list*
%AMRoundRect*
0 Rectangle with rounded corners*
0 $1 Rounding radius*
0 $2 $3 $4 $5 $6 $7 $8 $9 X,Y pos of 4 corners*
0 Add a 4 corners polygon primitive as box body*
4,1,4,$2,$3,$4,$5,$6,$7,$8,$9,$2,$3,0*
0 Add four circle primitives for the rounded corners*
1,1,$1+$1,$2,$3*
1,1,$1+$1,$4,$5*
1,1,$1+$1,$6,$7*
1,1,$1+$1,$8,$9*
0 Add four rect primitives between the rounded corners*
20,1,$1+$1,$2,$3,$4,$5,0*
20,1,$1+$1,$4,$5,$6,$7,0*
20,1,$1+$1,$6,$7,$8,$9,0*
20,1,$1+$1,$8,$9,$2,$3,0*%
G04 Aperture macros list end*
%ADD10RoundRect,0.150000X-0.512500X-0.150000X0.512500X-0.150000X0.512500X0.150000X-0.512500X0.150000X0*%
%ADD11RoundRect,0.250000X-1.450000X-0.650000X1.450000X-0.650000X1.450000X0.650000X-1.450000X0.650000X0*%
%ADD12RoundRect,0.218750X-0.256250X0.218750X-0.256250X-0.218750X0.256250X-0.218750X0.256250X0.218750X0*%
%ADD13RoundRect,0.218750X-0.218750X-0.256250X0.218750X-0.256250X0.218750X0.256250X-0.218750X0.256250X0*%
%ADD14RoundRect,0.150000X-0.587500X-0.150000X0.587500X-0.150000X0.587500X0.150000X-0.587500X0.150000X0*%
%ADD15RoundRect,0.150000X0.200000X-0.150000X0.200000X0.150000X-0.200000X0.150000X-0.200000X-0.150000X0*%
%ADD16RoundRect,0.150000X-0.700000X0.150000X-0.700000X-0.150000X0.700000X-0.150000X0.700000X0.150000X0*%
%ADD17RoundRect,0.250000X-1.100000X0.250000X-1.100000X-0.250000X1.100000X-0.250000X1.100000X0.250000X0*%
%ADD18RoundRect,0.166667X0.458333X0.583333X-0.458333X0.583333X-0.458333X-0.583333X0.458333X-0.583333X0*%
%ADD19RoundRect,0.166667X-0.458333X-0.583333X0.458333X-0.583333X0.458333X0.583333X-0.458333X0.583333X0*%
%ADD20RoundRect,0.218750X0.256250X-0.218750X0.256250X0.218750X-0.256250X0.218750X-0.256250X-0.218750X0*%
%ADD21RoundRect,0.200000X-0.200000X-0.275000X0.200000X-0.275000X0.200000X0.275000X-0.200000X0.275000X0*%
%ADD22R,1.100000X0.250000*%
G04 APERTURE END LIST*
D10*
%TO.C,U1*%
X-24500000Y-20850000D03*
X-24500000Y-21800000D03*
X-24500000Y-22750000D03*
X-22225000Y-22750000D03*
X-22225000Y-20850000D03*
%TD*%
D11*
%TO.C,J4*%
X-14250000Y15750000D03*
%TD*%
D12*
%TO.C,C2*%
X-35112500Y-20487500D03*
X-35112500Y-22062500D03*
%TD*%
D13*
%TO.C,R3*%
X-6362500Y34750000D03*
X-4787500Y34750000D03*
%TD*%
D12*
%TO.C,C1*%
X-40112500Y-20512500D03*
X-40112500Y-22087500D03*
%TD*%
D14*
%TO.C,Q1*%
X2812500Y-31050000D03*
X2812500Y-32950000D03*
X4687500Y-32000000D03*
%TD*%
D15*
%TO.C,D2*%
X-28250000Y-20300000D03*
X-28250000Y-21700000D03*
%TD*%
D16*
%TO.C,J2*%
X-4150000Y17625000D03*
X-4150000Y16375000D03*
X-4150000Y15125000D03*
X-4150000Y13875000D03*
D17*
X-7350000Y19475000D03*
X-7350000Y12025000D03*
%TD*%
D18*
%TO.C,D3*%
X12050000Y-32500000D03*
D19*
X8450000Y-32500000D03*
%TD*%
D12*
%TO.C,C3*%
X-16612500Y-21012500D03*
X-16612500Y-22587500D03*
%TD*%
%TO.C,C4*%
X16000000Y-13712500D03*
X16000000Y-15287500D03*
%TD*%
D20*
%TO.C,C5*%
X11250000Y-15287500D03*
X11250000Y-13712500D03*
%TD*%
D13*
%TO.C,R4*%
X14462500Y-19750000D03*
X16037500Y-19750000D03*
%TD*%
D16*
%TO.C,J3*%
X-4650000Y28625000D03*
X-4650000Y27375000D03*
X-4650000Y26125000D03*
X-4650000Y24875000D03*
D17*
X-7850000Y30475000D03*
X-7850000Y23025000D03*
%TD*%
D13*
%TO.C,R6*%
X9387500Y-28250000D03*
X10962500Y-28250000D03*
%TD*%
%TO.C,R5*%
X2387500Y-27000000D03*
X3962500Y-27000000D03*
%TD*%
%TO.C,R2*%
X-6362500Y37260000D03*
X-4787500Y37260000D03*
%TD*%
D21*
%TO.C,R1*%
X-55612500Y-17000000D03*
X-53962500Y-17000000D03*
%TD*%
D18*
%TO.C,D1*%
X-53200000Y-22250000D03*
D19*
X-56800000Y-22250000D03*
%TD*%
D22*
%TO.C,U3*%
X4200000Y-14250000D03*
X4200000Y-14750000D03*
X4200000Y-15250000D03*
X4200000Y-15750000D03*
X4200000Y-16250000D03*
X8500000Y-16250000D03*
X8500000Y-15750000D03*
X8500000Y-15250000D03*
X8500000Y-14750000D03*
X8500000Y-14250000D03*
%TD*%
M02*
