%TF.GenerationSoftware,KiCad,Pcbnew,9.0.1+1*%
%TF.CreationDate,2025-10-12T19:03:11+00:00*%
%TF.ProjectId,TFI2CADC01,54464932-4341-4444-9330-312e6b696361,rev?*%
%TF.SameCoordinates,PX81b3200PY6b49d20*%
%TF.FileFunction,Legend,Bot*%
%TF.FilePolarity,Positive*%
%FSLAX46Y46*%
G04 Gerber Fmt 4.6, Leading zero omitted, Abs format (unit mm)*
G04 Created by KiCad (PCBNEW 9.0.1+1) date 2025-10-12 19:03:11*
%MOMM*%
%LPD*%
G01*
G04 APERTURE LIST*
%ADD10C,0.150000*%
%ADD11C,0.125000*%
%ADD12C,0.120000*%
G04 APERTURE END LIST*
D10*
X8754819Y8343334D02*
X9469104Y8343334D01*
X9469104Y8343334D02*
X9611961Y8390953D01*
X9611961Y8390953D02*
X9707200Y8486191D01*
X9707200Y8486191D02*
X9754819Y8629048D01*
X9754819Y8629048D02*
X9754819Y8724286D01*
X9754819Y7867143D02*
X8754819Y7867143D01*
X8754819Y7867143D02*
X8754819Y7486191D01*
X8754819Y7486191D02*
X8802438Y7390953D01*
X8802438Y7390953D02*
X8850057Y7343334D01*
X8850057Y7343334D02*
X8945295Y7295715D01*
X8945295Y7295715D02*
X9088152Y7295715D01*
X9088152Y7295715D02*
X9183390Y7343334D01*
X9183390Y7343334D02*
X9231009Y7390953D01*
X9231009Y7390953D02*
X9278628Y7486191D01*
X9278628Y7486191D02*
X9278628Y7867143D01*
X8850057Y6914762D02*
X8802438Y6867143D01*
X8802438Y6867143D02*
X8754819Y6771905D01*
X8754819Y6771905D02*
X8754819Y6533810D01*
X8754819Y6533810D02*
X8802438Y6438572D01*
X8802438Y6438572D02*
X8850057Y6390953D01*
X8850057Y6390953D02*
X8945295Y6343334D01*
X8945295Y6343334D02*
X9040533Y6343334D01*
X9040533Y6343334D02*
X9183390Y6390953D01*
X9183390Y6390953D02*
X9754819Y6962381D01*
X9754819Y6962381D02*
X9754819Y6343334D01*
X19559104Y12878572D02*
X19559104Y12402382D01*
X19844819Y12973810D02*
X18844819Y12640477D01*
X18844819Y12640477D02*
X19844819Y12307144D01*
X19844819Y11497620D02*
X19844819Y11973810D01*
X19844819Y11973810D02*
X18844819Y11973810D01*
X19321009Y11164286D02*
X19321009Y10830953D01*
X19844819Y10688096D02*
X19844819Y11164286D01*
X19844819Y11164286D02*
X18844819Y11164286D01*
X18844819Y11164286D02*
X18844819Y10688096D01*
X19844819Y9688096D02*
X19368628Y10021429D01*
X19844819Y10259524D02*
X18844819Y10259524D01*
X18844819Y10259524D02*
X18844819Y9878572D01*
X18844819Y9878572D02*
X18892438Y9783334D01*
X18892438Y9783334D02*
X18940057Y9735715D01*
X18940057Y9735715D02*
X19035295Y9688096D01*
X19035295Y9688096D02*
X19178152Y9688096D01*
X19178152Y9688096D02*
X19273390Y9735715D01*
X19273390Y9735715D02*
X19321009Y9783334D01*
X19321009Y9783334D02*
X19368628Y9878572D01*
X19368628Y9878572D02*
X19368628Y10259524D01*
X18844819Y9402381D02*
X18844819Y8830953D01*
X19844819Y9116667D02*
X18844819Y9116667D01*
X18797200Y7783334D02*
X20082914Y8640476D01*
X19844819Y6878572D02*
X19368628Y7211905D01*
X19844819Y7450000D02*
X18844819Y7450000D01*
X18844819Y7450000D02*
X18844819Y7069048D01*
X18844819Y7069048D02*
X18892438Y6973810D01*
X18892438Y6973810D02*
X18940057Y6926191D01*
X18940057Y6926191D02*
X19035295Y6878572D01*
X19035295Y6878572D02*
X19178152Y6878572D01*
X19178152Y6878572D02*
X19273390Y6926191D01*
X19273390Y6926191D02*
X19321009Y6973810D01*
X19321009Y6973810D02*
X19368628Y7069048D01*
X19368628Y7069048D02*
X19368628Y7450000D01*
X19844819Y6450000D02*
X18844819Y6450000D01*
X18844819Y6450000D02*
X18844819Y6211905D01*
X18844819Y6211905D02*
X18892438Y6069048D01*
X18892438Y6069048D02*
X18987676Y5973810D01*
X18987676Y5973810D02*
X19082914Y5926191D01*
X19082914Y5926191D02*
X19273390Y5878572D01*
X19273390Y5878572D02*
X19416247Y5878572D01*
X19416247Y5878572D02*
X19606723Y5926191D01*
X19606723Y5926191D02*
X19701961Y5973810D01*
X19701961Y5973810D02*
X19797200Y6069048D01*
X19797200Y6069048D02*
X19844819Y6211905D01*
X19844819Y6211905D02*
X19844819Y6450000D01*
X19368628Y5259524D02*
X19844819Y5259524D01*
X18844819Y5592857D02*
X19368628Y5259524D01*
X19368628Y5259524D02*
X18844819Y4926191D01*
X10326190Y4380896D02*
X9850000Y4380896D01*
X10421428Y4095181D02*
X10088095Y5095181D01*
X10088095Y5095181D02*
X9754762Y4095181D01*
X8945238Y4095181D02*
X9421428Y4095181D01*
X9421428Y4095181D02*
X9421428Y5095181D01*
X8611904Y4618991D02*
X8278571Y4618991D01*
X8135714Y4095181D02*
X8611904Y4095181D01*
X8611904Y4095181D02*
X8611904Y5095181D01*
X8611904Y5095181D02*
X8135714Y5095181D01*
X7135714Y4095181D02*
X7469047Y4571372D01*
X7707142Y4095181D02*
X7707142Y5095181D01*
X7707142Y5095181D02*
X7326190Y5095181D01*
X7326190Y5095181D02*
X7230952Y5047562D01*
X7230952Y5047562D02*
X7183333Y4999943D01*
X7183333Y4999943D02*
X7135714Y4904705D01*
X7135714Y4904705D02*
X7135714Y4761848D01*
X7135714Y4761848D02*
X7183333Y4666610D01*
X7183333Y4666610D02*
X7230952Y4618991D01*
X7230952Y4618991D02*
X7326190Y4571372D01*
X7326190Y4571372D02*
X7707142Y4571372D01*
X6849999Y5095181D02*
X6278571Y5095181D01*
X6564285Y4095181D02*
X6564285Y5095181D01*
D11*
X8959646Y1548048D02*
X8721551Y1548048D01*
X9007265Y1405191D02*
X8840599Y1905191D01*
X8840599Y1905191D02*
X8673932Y1405191D01*
X6914152Y1379791D02*
X6914152Y1879791D01*
X6628438Y1379791D02*
X6842723Y1665505D01*
X6628438Y1879791D02*
X6914152Y1594077D01*
D10*
X13274819Y11393334D02*
X13989104Y11393334D01*
X13989104Y11393334D02*
X14131961Y11440953D01*
X14131961Y11440953D02*
X14227200Y11536191D01*
X14227200Y11536191D02*
X14274819Y11679048D01*
X14274819Y11679048D02*
X14274819Y11774286D01*
X14274819Y10917143D02*
X13274819Y10917143D01*
X13274819Y10917143D02*
X13274819Y10536191D01*
X13274819Y10536191D02*
X13322438Y10440953D01*
X13322438Y10440953D02*
X13370057Y10393334D01*
X13370057Y10393334D02*
X13465295Y10345715D01*
X13465295Y10345715D02*
X13608152Y10345715D01*
X13608152Y10345715D02*
X13703390Y10393334D01*
X13703390Y10393334D02*
X13751009Y10440953D01*
X13751009Y10440953D02*
X13798628Y10536191D01*
X13798628Y10536191D02*
X13798628Y10917143D01*
X14274819Y9393334D02*
X14274819Y9964762D01*
X14274819Y9679048D02*
X13274819Y9679048D01*
X13274819Y9679048D02*
X13417676Y9774286D01*
X13417676Y9774286D02*
X13512914Y9869524D01*
X13512914Y9869524D02*
X13560533Y9964762D01*
X9233332Y9845181D02*
X9233332Y10845181D01*
X9233332Y10845181D02*
X8852380Y10845181D01*
X8852380Y10845181D02*
X8757142Y10797562D01*
X8757142Y10797562D02*
X8709523Y10749943D01*
X8709523Y10749943D02*
X8661904Y10654705D01*
X8661904Y10654705D02*
X8661904Y10511848D01*
X8661904Y10511848D02*
X8709523Y10416610D01*
X8709523Y10416610D02*
X8757142Y10368991D01*
X8757142Y10368991D02*
X8852380Y10321372D01*
X8852380Y10321372D02*
X9233332Y10321372D01*
X8328570Y10845181D02*
X8090475Y9845181D01*
X8090475Y9845181D02*
X7899999Y10559467D01*
X7899999Y10559467D02*
X7709523Y9845181D01*
X7709523Y9845181D02*
X7471428Y10845181D01*
X6519047Y9845181D02*
X6852380Y10321372D01*
X7090475Y9845181D02*
X7090475Y10845181D01*
X7090475Y10845181D02*
X6709523Y10845181D01*
X6709523Y10845181D02*
X6614285Y10797562D01*
X6614285Y10797562D02*
X6566666Y10749943D01*
X6566666Y10749943D02*
X6519047Y10654705D01*
X6519047Y10654705D02*
X6519047Y10511848D01*
X6519047Y10511848D02*
X6566666Y10416610D01*
X6566666Y10416610D02*
X6614285Y10368991D01*
X6614285Y10368991D02*
X6709523Y10321372D01*
X6709523Y10321372D02*
X7090475Y10321372D01*
D11*
X8969046Y13318048D02*
X8730951Y13318048D01*
X9016665Y13175191D02*
X8849999Y13675191D01*
X8849999Y13675191D02*
X8683332Y13175191D01*
X7030952Y13175191D02*
X7030952Y13675191D01*
X6745238Y13175191D02*
X6959523Y13460905D01*
X6745238Y13675191D02*
X7030952Y13389477D01*
D12*
%TO.C,JP2*%
X10200000Y8910000D02*
X10200000Y6110000D01*
X10200000Y6110000D02*
X12200000Y6110000D01*
X12200000Y8910000D02*
X10200000Y8910000D01*
X12200000Y6110000D02*
X12200000Y8910000D01*
%TO.C,T1*%
X17480000Y2210000D02*
X21280000Y2210000D01*
X21280000Y4410000D01*
X17480000Y4410000D01*
X17480000Y2210000D01*
D10*
%TO.C,D3*%
X6326000Y3662000D02*
X6326000Y2138000D01*
X6326000Y2138000D02*
X7342000Y2138000D01*
X7342000Y3662000D02*
X6326000Y3662000D01*
X7545200Y3400000D02*
X7545200Y2400000D01*
X7646800Y2900000D02*
X8256400Y2400000D01*
X8243700Y3400000D02*
X7646800Y2900000D01*
X8256400Y3400000D02*
X8256400Y2400000D01*
X8358000Y2138000D02*
X9374000Y2138000D01*
X9374000Y3662000D02*
X8358000Y3662000D01*
X9374000Y2138000D02*
X9374000Y3662000D01*
X9628000Y2138000D02*
G75*
G02*
X9374000Y2138000I-127000J0D01*
G01*
X9374000Y2138000D02*
G75*
G02*
X9628000Y2138000I127000J0D01*
G01*
D12*
%TO.C,J3*%
X415000Y4535000D02*
X415000Y10465000D01*
X3235000Y11735000D02*
X4685000Y11735000D01*
X3235000Y3265000D02*
X4685000Y3265000D01*
X4685000Y11735000D02*
X4685000Y9935000D01*
X4685000Y5065000D02*
X5675000Y5065000D01*
X4685000Y3265000D02*
X4685000Y5065000D01*
%TO.C,JP1*%
X12800000Y8910000D02*
X12800000Y4810000D01*
X12800000Y4810000D02*
X14800000Y4810000D01*
X14800000Y8910000D02*
X12800000Y8910000D01*
X14800000Y4810000D02*
X14800000Y8910000D01*
D10*
%TO.C,D1*%
X6323500Y12862000D02*
X6323500Y11338000D01*
X6323500Y11338000D02*
X7339500Y11338000D01*
X7339500Y12862000D02*
X6323500Y12862000D01*
X7542700Y12600000D02*
X7542700Y11600000D01*
X7644300Y12100000D02*
X8253900Y11600000D01*
X8241200Y12600000D02*
X7644300Y12100000D01*
X8253900Y12600000D02*
X8253900Y11600000D01*
X8355500Y11338000D02*
X9371500Y11338000D01*
X9371500Y12862000D02*
X8355500Y12862000D01*
X9371500Y11338000D02*
X9371500Y12862000D01*
X9625500Y11338000D02*
G75*
G02*
X9371500Y11338000I-127000J0D01*
G01*
X9371500Y11338000D02*
G75*
G02*
X9625500Y11338000I127000J0D01*
G01*
%TD*%
M02*
