%TF.GenerationSoftware,KiCad,Pcbnew,9.0.1+1*%
%TF.CreationDate,2025-09-26T18:57:13+00:00*%
%TF.ProjectId,TFI2CADC01,54464932-4341-4444-9330-312e6b696361,rev?*%
%TF.SameCoordinates,PX7f50c60PY6dac2c0*%
%TF.FileFunction,Legend,Top*%
%TF.FilePolarity,Positive*%
%FSLAX46Y46*%
G04 Gerber Fmt 4.6, Leading zero omitted, Abs format (unit mm)*
G04 Created by KiCad (PCBNEW 9.0.1+1) date 2025-09-26 18:57:13*
%MOMM*%
%LPD*%
G01*
G04 APERTURE LIST*
%ADD10C,0.100000*%
%ADD11C,0.150000*%
%ADD12C,0.130000*%
%ADD13C,0.200000*%
G04 APERTURE END LIST*
D10*
X10996000Y8624000D02*
X11596000Y8624000D01*
X11596000Y7324000D01*
X10996000Y7324000D01*
X10996000Y8624000D01*
G36*
X10996000Y8624000D02*
G01*
X11596000Y8624000D01*
X11596000Y7324000D01*
X10996000Y7324000D01*
X10996000Y8624000D01*
G37*
X11661000Y17845000D02*
G75*
G02*
X10661000Y17845000I-500000J0D01*
G01*
X-3083999Y15924000D02*
G75*
G02*
X-1084000Y13924000I-1J-2000000D01*
G01*
X12161000Y18345000D02*
G75*
G02*
X13161000Y18345000I500000J0D01*
G01*
X10796000Y8224000D02*
G75*
G02*
X11796000Y8224000I500000J0D01*
G01*
X12296000Y8224000D02*
G75*
G02*
X13296000Y8224000I500000J0D01*
G01*
X13296000Y7724000D02*
G75*
G02*
X12296000Y7724000I-500000J0D01*
G01*
X-1084000Y7938214D02*
X-1083999Y13909787D01*
X10661000Y18345000D02*
G75*
G02*
X11661000Y18345000I500000J0D01*
G01*
X11796000Y7724000D02*
G75*
G02*
X10796000Y7724000I-500000J0D01*
G01*
X10861000Y18745000D02*
X11461000Y18745000D01*
X11461000Y17445000D01*
X10861000Y17445000D01*
X10861000Y18745000D01*
G36*
X10861000Y18745000D02*
G01*
X11461000Y18745000D01*
X11461000Y17445000D01*
X10861000Y17445000D01*
X10861000Y18745000D01*
G37*
X13161000Y17845000D02*
G75*
G02*
X12161000Y17845000I-500000J0D01*
G01*
X-1098214Y7938213D02*
G75*
G02*
X-3098214Y5938214I-1999986J-13D01*
G01*
D11*
X7561180Y17300191D02*
X7561180Y17109715D01*
X7561180Y17109715D02*
X7513561Y17014477D01*
X7513561Y17014477D02*
X7418323Y16919239D01*
X7418323Y16919239D02*
X7227847Y16871620D01*
X7227847Y16871620D02*
X6894514Y16871620D01*
X6894514Y16871620D02*
X6704038Y16919239D01*
X6704038Y16919239D02*
X6608800Y17014477D01*
X6608800Y17014477D02*
X6561180Y17109715D01*
X6561180Y17109715D02*
X6561180Y17300191D01*
X6561180Y17300191D02*
X6608800Y17395429D01*
X6608800Y17395429D02*
X6704038Y17490667D01*
X6704038Y17490667D02*
X6894514Y17538286D01*
X6894514Y17538286D02*
X7227847Y17538286D01*
X7227847Y17538286D02*
X7418323Y17490667D01*
X7418323Y17490667D02*
X7513561Y17395429D01*
X7513561Y17395429D02*
X7561180Y17300191D01*
X7561180Y16443048D02*
X6751657Y16443048D01*
X6751657Y16443048D02*
X6656419Y16395429D01*
X6656419Y16395429D02*
X6608800Y16347810D01*
X6608800Y16347810D02*
X6561180Y16252572D01*
X6561180Y16252572D02*
X6561180Y16062096D01*
X6561180Y16062096D02*
X6608800Y15966858D01*
X6608800Y15966858D02*
X6656419Y15919239D01*
X6656419Y15919239D02*
X6751657Y15871620D01*
X6751657Y15871620D02*
X7561180Y15871620D01*
X7561180Y15538286D02*
X7561180Y14966858D01*
X6561180Y15252572D02*
X7561180Y15252572D01*
X6561180Y14109715D02*
X6561180Y14681143D01*
X6561180Y14395429D02*
X7561180Y14395429D01*
X7561180Y14395429D02*
X7418323Y14490667D01*
X7418323Y14490667D02*
X7323085Y14585905D01*
X7323085Y14585905D02*
X7275466Y14681143D01*
X-2702319Y13514477D02*
X-1902319Y13514477D01*
X-1978509Y13171621D02*
X-1940414Y13133525D01*
X-1940414Y13133525D02*
X-1902319Y13057335D01*
X-1902319Y13057335D02*
X-1902319Y12866859D01*
X-1902319Y12866859D02*
X-1940414Y12790668D01*
X-1940414Y12790668D02*
X-1978509Y12752573D01*
X-1978509Y12752573D02*
X-2054700Y12714478D01*
X-2054700Y12714478D02*
X-2130890Y12714478D01*
X-2130890Y12714478D02*
X-2245176Y12752573D01*
X-2245176Y12752573D02*
X-2702319Y13209716D01*
X-2702319Y13209716D02*
X-2702319Y12714478D01*
X-2626128Y11914477D02*
X-2664223Y11952573D01*
X-2664223Y11952573D02*
X-2702319Y12066858D01*
X-2702319Y12066858D02*
X-2702319Y12143049D01*
X-2702319Y12143049D02*
X-2664223Y12257335D01*
X-2664223Y12257335D02*
X-2588033Y12333525D01*
X-2588033Y12333525D02*
X-2511843Y12371620D01*
X-2511843Y12371620D02*
X-2359462Y12409716D01*
X-2359462Y12409716D02*
X-2245176Y12409716D01*
X-2245176Y12409716D02*
X-2092795Y12371620D01*
X-2092795Y12371620D02*
X-2016604Y12333525D01*
X-2016604Y12333525D02*
X-1940414Y12257335D01*
X-1940414Y12257335D02*
X-1902319Y12143049D01*
X-1902319Y12143049D02*
X-1902319Y12066858D01*
X-1902319Y12066858D02*
X-1940414Y11952573D01*
X-1940414Y11952573D02*
X-1978509Y11914477D01*
X-2702319Y10962096D02*
X-2168985Y10962096D01*
X-1902319Y10962096D02*
X-1940414Y11000192D01*
X-1940414Y11000192D02*
X-1978509Y10962096D01*
X-1978509Y10962096D02*
X-1940414Y10924001D01*
X-1940414Y10924001D02*
X-1902319Y10962096D01*
X-1902319Y10962096D02*
X-1978509Y10962096D01*
X-2168985Y10581144D02*
X-2702319Y10581144D01*
X-2245176Y10581144D02*
X-2207081Y10543049D01*
X-2207081Y10543049D02*
X-2168985Y10466859D01*
X-2168985Y10466859D02*
X-2168985Y10352573D01*
X-2168985Y10352573D02*
X-2207081Y10276382D01*
X-2207081Y10276382D02*
X-2283271Y10238287D01*
X-2283271Y10238287D02*
X-2702319Y10238287D01*
X-2168985Y9857334D02*
X-2968985Y9857334D01*
X-2207081Y9857334D02*
X-2168985Y9781144D01*
X-2168985Y9781144D02*
X-2168985Y9628763D01*
X-2168985Y9628763D02*
X-2207081Y9552572D01*
X-2207081Y9552572D02*
X-2245176Y9514477D01*
X-2245176Y9514477D02*
X-2321366Y9476382D01*
X-2321366Y9476382D02*
X-2549938Y9476382D01*
X-2549938Y9476382D02*
X-2626128Y9514477D01*
X-2626128Y9514477D02*
X-2664223Y9552572D01*
X-2664223Y9552572D02*
X-2702319Y9628763D01*
X-2702319Y9628763D02*
X-2702319Y9781144D01*
X-2702319Y9781144D02*
X-2664223Y9857334D01*
X-2168985Y8790667D02*
X-2702319Y8790667D01*
X-2168985Y9133524D02*
X-2588033Y9133524D01*
X-2588033Y9133524D02*
X-2664223Y9095429D01*
X-2664223Y9095429D02*
X-2702319Y9019239D01*
X-2702319Y9019239D02*
X-2702319Y8904953D01*
X-2702319Y8904953D02*
X-2664223Y8828762D01*
X-2664223Y8828762D02*
X-2626128Y8790667D01*
X-2168985Y8524000D02*
X-2168985Y8219238D01*
X-1902319Y8409714D02*
X-2588033Y8409714D01*
X-2588033Y8409714D02*
X-2664223Y8371619D01*
X-2664223Y8371619D02*
X-2702319Y8295429D01*
X-2702319Y8295429D02*
X-2702319Y8219238D01*
X-4295036Y14828763D02*
X-4256940Y14866858D01*
X-4256940Y14866858D02*
X-4142655Y14943049D01*
X-4142655Y14943049D02*
X-4066464Y14981144D01*
X-4066464Y14981144D02*
X-3952178Y15019239D01*
X-3952178Y15019239D02*
X-3761702Y15057334D01*
X-3761702Y15057334D02*
X-3609321Y15057334D01*
X-3609321Y15057334D02*
X-3418845Y15019239D01*
X-3418845Y15019239D02*
X-3304559Y14981144D01*
X-3304559Y14981144D02*
X-3228369Y14943049D01*
X-3228369Y14943049D02*
X-3114083Y14866858D01*
X-3114083Y14866858D02*
X-3075988Y14828763D01*
X-3456940Y14524001D02*
X-4256940Y14524001D01*
X-3495036Y14524001D02*
X-3456940Y14447811D01*
X-3456940Y14447811D02*
X-3456940Y14295430D01*
X-3456940Y14295430D02*
X-3495036Y14219239D01*
X-3495036Y14219239D02*
X-3533131Y14181144D01*
X-3533131Y14181144D02*
X-3609321Y14143049D01*
X-3609321Y14143049D02*
X-3837893Y14143049D01*
X-3837893Y14143049D02*
X-3914083Y14181144D01*
X-3914083Y14181144D02*
X-3952178Y14219239D01*
X-3952178Y14219239D02*
X-3990274Y14295430D01*
X-3990274Y14295430D02*
X-3990274Y14447811D01*
X-3990274Y14447811D02*
X-3952178Y14524001D01*
X-3990274Y13457334D02*
X-3571226Y13457334D01*
X-3571226Y13457334D02*
X-3495036Y13495429D01*
X-3495036Y13495429D02*
X-3456940Y13571620D01*
X-3456940Y13571620D02*
X-3456940Y13724001D01*
X-3456940Y13724001D02*
X-3495036Y13800191D01*
X-3952178Y13457334D02*
X-3990274Y13533525D01*
X-3990274Y13533525D02*
X-3990274Y13724001D01*
X-3990274Y13724001D02*
X-3952178Y13800191D01*
X-3952178Y13800191D02*
X-3875988Y13838287D01*
X-3875988Y13838287D02*
X-3799798Y13838287D01*
X-3799798Y13838287D02*
X-3723607Y13800191D01*
X-3723607Y13800191D02*
X-3685512Y13724001D01*
X-3685512Y13724001D02*
X-3685512Y13533525D01*
X-3685512Y13533525D02*
X-3647417Y13457334D01*
X-3952178Y13114477D02*
X-3990274Y13038286D01*
X-3990274Y13038286D02*
X-3990274Y12885905D01*
X-3990274Y12885905D02*
X-3952178Y12809715D01*
X-3952178Y12809715D02*
X-3875988Y12771619D01*
X-3875988Y12771619D02*
X-3837893Y12771619D01*
X-3837893Y12771619D02*
X-3761702Y12809715D01*
X-3761702Y12809715D02*
X-3723607Y12885905D01*
X-3723607Y12885905D02*
X-3723607Y13000191D01*
X-3723607Y13000191D02*
X-3685512Y13076381D01*
X-3685512Y13076381D02*
X-3609321Y13114477D01*
X-3609321Y13114477D02*
X-3571226Y13114477D01*
X-3571226Y13114477D02*
X-3495036Y13076381D01*
X-3495036Y13076381D02*
X-3456940Y13000191D01*
X-3456940Y13000191D02*
X-3456940Y12885905D01*
X-3456940Y12885905D02*
X-3495036Y12809715D01*
X-3952178Y12466858D02*
X-3990274Y12390667D01*
X-3990274Y12390667D02*
X-3990274Y12238286D01*
X-3990274Y12238286D02*
X-3952178Y12162096D01*
X-3952178Y12162096D02*
X-3875988Y12124000D01*
X-3875988Y12124000D02*
X-3837893Y12124000D01*
X-3837893Y12124000D02*
X-3761702Y12162096D01*
X-3761702Y12162096D02*
X-3723607Y12238286D01*
X-3723607Y12238286D02*
X-3723607Y12352572D01*
X-3723607Y12352572D02*
X-3685512Y12428762D01*
X-3685512Y12428762D02*
X-3609321Y12466858D01*
X-3609321Y12466858D02*
X-3571226Y12466858D01*
X-3571226Y12466858D02*
X-3495036Y12428762D01*
X-3495036Y12428762D02*
X-3456940Y12352572D01*
X-3456940Y12352572D02*
X-3456940Y12238286D01*
X-3456940Y12238286D02*
X-3495036Y12162096D01*
X-3685512Y11781143D02*
X-3685512Y11171619D01*
X-3456940Y10904953D02*
X-3456940Y10600191D01*
X-3190274Y10790667D02*
X-3875988Y10790667D01*
X-3875988Y10790667D02*
X-3952178Y10752572D01*
X-3952178Y10752572D02*
X-3990274Y10676382D01*
X-3990274Y10676382D02*
X-3990274Y10600191D01*
X-3990274Y10333524D02*
X-3456940Y10333524D01*
X-3609321Y10333524D02*
X-3533131Y10295429D01*
X-3533131Y10295429D02*
X-3495036Y10257334D01*
X-3495036Y10257334D02*
X-3456940Y10181143D01*
X-3456940Y10181143D02*
X-3456940Y10104953D01*
X-3990274Y9724001D02*
X-3952178Y9800191D01*
X-3952178Y9800191D02*
X-3914083Y9838286D01*
X-3914083Y9838286D02*
X-3837893Y9876382D01*
X-3837893Y9876382D02*
X-3609321Y9876382D01*
X-3609321Y9876382D02*
X-3533131Y9838286D01*
X-3533131Y9838286D02*
X-3495036Y9800191D01*
X-3495036Y9800191D02*
X-3456940Y9724001D01*
X-3456940Y9724001D02*
X-3456940Y9609715D01*
X-3456940Y9609715D02*
X-3495036Y9533524D01*
X-3495036Y9533524D02*
X-3533131Y9495429D01*
X-3533131Y9495429D02*
X-3609321Y9457334D01*
X-3609321Y9457334D02*
X-3837893Y9457334D01*
X-3837893Y9457334D02*
X-3914083Y9495429D01*
X-3914083Y9495429D02*
X-3952178Y9533524D01*
X-3952178Y9533524D02*
X-3990274Y9609715D01*
X-3990274Y9609715D02*
X-3990274Y9724001D01*
X-3456940Y8771619D02*
X-3990274Y8771619D01*
X-3456940Y9114476D02*
X-3875988Y9114476D01*
X-3875988Y9114476D02*
X-3952178Y9076381D01*
X-3952178Y9076381D02*
X-3990274Y9000191D01*
X-3990274Y9000191D02*
X-3990274Y8885905D01*
X-3990274Y8885905D02*
X-3952178Y8809714D01*
X-3952178Y8809714D02*
X-3914083Y8771619D01*
X-3456940Y8047809D02*
X-4104559Y8047809D01*
X-4104559Y8047809D02*
X-4180750Y8085904D01*
X-4180750Y8085904D02*
X-4218845Y8124000D01*
X-4218845Y8124000D02*
X-4256940Y8200190D01*
X-4256940Y8200190D02*
X-4256940Y8314476D01*
X-4256940Y8314476D02*
X-4218845Y8390666D01*
X-3952178Y8047809D02*
X-3990274Y8124000D01*
X-3990274Y8124000D02*
X-3990274Y8276381D01*
X-3990274Y8276381D02*
X-3952178Y8352571D01*
X-3952178Y8352571D02*
X-3914083Y8390666D01*
X-3914083Y8390666D02*
X-3837893Y8428762D01*
X-3837893Y8428762D02*
X-3609321Y8428762D01*
X-3609321Y8428762D02*
X-3533131Y8390666D01*
X-3533131Y8390666D02*
X-3495036Y8352571D01*
X-3495036Y8352571D02*
X-3456940Y8276381D01*
X-3456940Y8276381D02*
X-3456940Y8124000D01*
X-3456940Y8124000D02*
X-3495036Y8047809D01*
X-3990274Y7666856D02*
X-3190274Y7666856D01*
X-3990274Y7323999D02*
X-3571226Y7323999D01*
X-3571226Y7323999D02*
X-3495036Y7362094D01*
X-3495036Y7362094D02*
X-3456940Y7438285D01*
X-3456940Y7438285D02*
X-3456940Y7552571D01*
X-3456940Y7552571D02*
X-3495036Y7628761D01*
X-3495036Y7628761D02*
X-3533131Y7666856D01*
X-4295036Y7019237D02*
X-4256940Y6981142D01*
X-4256940Y6981142D02*
X-4142655Y6904951D01*
X-4142655Y6904951D02*
X-4066464Y6866856D01*
X-4066464Y6866856D02*
X-3952178Y6828761D01*
X-3952178Y6828761D02*
X-3761702Y6790665D01*
X-3761702Y6790665D02*
X-3609321Y6790665D01*
X-3609321Y6790665D02*
X-3418845Y6828761D01*
X-3418845Y6828761D02*
X-3304559Y6866856D01*
X-3304559Y6866856D02*
X-3228369Y6904951D01*
X-3228369Y6904951D02*
X-3114083Y6981142D01*
X-3114083Y6981142D02*
X-3075988Y7019237D01*
D12*
X13130877Y6352760D02*
X13130877Y6267046D01*
X13130877Y6267046D02*
X13088020Y6181332D01*
X13088020Y6181332D02*
X13045163Y6138474D01*
X13045163Y6138474D02*
X12959449Y6095617D01*
X12959449Y6095617D02*
X12788020Y6052760D01*
X12788020Y6052760D02*
X12573735Y6052760D01*
X12573735Y6052760D02*
X12402306Y6095617D01*
X12402306Y6095617D02*
X12316592Y6138474D01*
X12316592Y6138474D02*
X12273735Y6181332D01*
X12273735Y6181332D02*
X12230877Y6267046D01*
X12230877Y6267046D02*
X12230877Y6352760D01*
X12230877Y6352760D02*
X12273735Y6438474D01*
X12273735Y6438474D02*
X12316592Y6481332D01*
X12316592Y6481332D02*
X12402306Y6524189D01*
X12402306Y6524189D02*
X12573735Y6567046D01*
X12573735Y6567046D02*
X12788020Y6567046D01*
X12788020Y6567046D02*
X12959449Y6524189D01*
X12959449Y6524189D02*
X13045163Y6481332D01*
X13045163Y6481332D02*
X13088020Y6438474D01*
X13088020Y6438474D02*
X13130877Y6352760D01*
X12230877Y5752760D02*
X12830877Y5281331D01*
X12830877Y5752760D02*
X12230877Y5281331D01*
X13130877Y5024189D02*
X13130877Y4424189D01*
X13130877Y4424189D02*
X12230877Y4809903D01*
X12745163Y3952760D02*
X12788020Y4038475D01*
X12788020Y4038475D02*
X12830877Y4081332D01*
X12830877Y4081332D02*
X12916592Y4124189D01*
X12916592Y4124189D02*
X12959449Y4124189D01*
X12959449Y4124189D02*
X13045163Y4081332D01*
X13045163Y4081332D02*
X13088020Y4038475D01*
X13088020Y4038475D02*
X13130877Y3952760D01*
X13130877Y3952760D02*
X13130877Y3781332D01*
X13130877Y3781332D02*
X13088020Y3695617D01*
X13088020Y3695617D02*
X13045163Y3652760D01*
X13045163Y3652760D02*
X12959449Y3609903D01*
X12959449Y3609903D02*
X12916592Y3609903D01*
X12916592Y3609903D02*
X12830877Y3652760D01*
X12830877Y3652760D02*
X12788020Y3695617D01*
X12788020Y3695617D02*
X12745163Y3781332D01*
X12745163Y3781332D02*
X12745163Y3952760D01*
X12745163Y3952760D02*
X12702306Y4038475D01*
X12702306Y4038475D02*
X12659449Y4081332D01*
X12659449Y4081332D02*
X12573735Y4124189D01*
X12573735Y4124189D02*
X12402306Y4124189D01*
X12402306Y4124189D02*
X12316592Y4081332D01*
X12316592Y4081332D02*
X12273735Y4038475D01*
X12273735Y4038475D02*
X12230877Y3952760D01*
X12230877Y3952760D02*
X12230877Y3781332D01*
X12230877Y3781332D02*
X12273735Y3695617D01*
X12273735Y3695617D02*
X12316592Y3652760D01*
X12316592Y3652760D02*
X12402306Y3609903D01*
X12402306Y3609903D02*
X12573735Y3609903D01*
X12573735Y3609903D02*
X12659449Y3652760D01*
X12659449Y3652760D02*
X12702306Y3695617D01*
X12702306Y3695617D02*
X12745163Y3781332D01*
X11681927Y6352760D02*
X11681927Y6267046D01*
X11681927Y6267046D02*
X11639070Y6181332D01*
X11639070Y6181332D02*
X11596213Y6138474D01*
X11596213Y6138474D02*
X11510499Y6095617D01*
X11510499Y6095617D02*
X11339070Y6052760D01*
X11339070Y6052760D02*
X11124785Y6052760D01*
X11124785Y6052760D02*
X10953356Y6095617D01*
X10953356Y6095617D02*
X10867642Y6138474D01*
X10867642Y6138474D02*
X10824785Y6181332D01*
X10824785Y6181332D02*
X10781927Y6267046D01*
X10781927Y6267046D02*
X10781927Y6352760D01*
X10781927Y6352760D02*
X10824785Y6438474D01*
X10824785Y6438474D02*
X10867642Y6481332D01*
X10867642Y6481332D02*
X10953356Y6524189D01*
X10953356Y6524189D02*
X11124785Y6567046D01*
X11124785Y6567046D02*
X11339070Y6567046D01*
X11339070Y6567046D02*
X11510499Y6524189D01*
X11510499Y6524189D02*
X11596213Y6481332D01*
X11596213Y6481332D02*
X11639070Y6438474D01*
X11639070Y6438474D02*
X11681927Y6352760D01*
X10781927Y5752760D02*
X11381927Y5281331D01*
X11381927Y5752760D02*
X10781927Y5281331D01*
X11681927Y5024189D02*
X11681927Y4424189D01*
X11681927Y4424189D02*
X10781927Y4809903D01*
X11381927Y4209903D02*
X11381927Y3867046D01*
X10781927Y4081332D02*
X11553356Y4081332D01*
X11553356Y4081332D02*
X11639070Y4038475D01*
X11639070Y4038475D02*
X11681927Y3952760D01*
X11681927Y3952760D02*
X11681927Y3867046D01*
D11*
X7561180Y7400191D02*
X7561180Y7209715D01*
X7561180Y7209715D02*
X7513561Y7114477D01*
X7513561Y7114477D02*
X7418323Y7019239D01*
X7418323Y7019239D02*
X7227847Y6971620D01*
X7227847Y6971620D02*
X6894514Y6971620D01*
X6894514Y6971620D02*
X6704038Y7019239D01*
X6704038Y7019239D02*
X6608800Y7114477D01*
X6608800Y7114477D02*
X6561180Y7209715D01*
X6561180Y7209715D02*
X6561180Y7400191D01*
X6561180Y7400191D02*
X6608800Y7495429D01*
X6608800Y7495429D02*
X6704038Y7590667D01*
X6704038Y7590667D02*
X6894514Y7638286D01*
X6894514Y7638286D02*
X7227847Y7638286D01*
X7227847Y7638286D02*
X7418323Y7590667D01*
X7418323Y7590667D02*
X7513561Y7495429D01*
X7513561Y7495429D02*
X7561180Y7400191D01*
X7561180Y6543048D02*
X6751657Y6543048D01*
X6751657Y6543048D02*
X6656419Y6495429D01*
X6656419Y6495429D02*
X6608800Y6447810D01*
X6608800Y6447810D02*
X6561180Y6352572D01*
X6561180Y6352572D02*
X6561180Y6162096D01*
X6561180Y6162096D02*
X6608800Y6066858D01*
X6608800Y6066858D02*
X6656419Y6019239D01*
X6656419Y6019239D02*
X6751657Y5971620D01*
X6751657Y5971620D02*
X7561180Y5971620D01*
X7561180Y5638286D02*
X7561180Y5066858D01*
X6561180Y5352572D02*
X7561180Y5352572D01*
X7465942Y4781143D02*
X7513561Y4733524D01*
X7513561Y4733524D02*
X7561180Y4638286D01*
X7561180Y4638286D02*
X7561180Y4400191D01*
X7561180Y4400191D02*
X7513561Y4304953D01*
X7513561Y4304953D02*
X7465942Y4257334D01*
X7465942Y4257334D02*
X7370704Y4209715D01*
X7370704Y4209715D02*
X7275466Y4209715D01*
X7275466Y4209715D02*
X7132609Y4257334D01*
X7132609Y4257334D02*
X6561180Y4828762D01*
X6561180Y4828762D02*
X6561180Y4209715D01*
D13*
X1324995Y17021619D02*
X1324995Y16278762D01*
X24995Y16650190D02*
X1324995Y16650190D01*
X705947Y15412095D02*
X705947Y15845429D01*
X24995Y15845429D02*
X1324995Y15845429D01*
X1324995Y15845429D02*
X1324995Y15226381D01*
X24995Y14731143D02*
X1324995Y14731143D01*
X1201185Y14173999D02*
X1263090Y14112095D01*
X1263090Y14112095D02*
X1324995Y13988285D01*
X1324995Y13988285D02*
X1324995Y13678761D01*
X1324995Y13678761D02*
X1263090Y13554952D01*
X1263090Y13554952D02*
X1201185Y13493047D01*
X1201185Y13493047D02*
X1077376Y13431142D01*
X1077376Y13431142D02*
X953566Y13431142D01*
X953566Y13431142D02*
X767852Y13493047D01*
X767852Y13493047D02*
X24995Y14235904D01*
X24995Y14235904D02*
X24995Y13431142D01*
X148804Y12131143D02*
X86900Y12193047D01*
X86900Y12193047D02*
X24995Y12378762D01*
X24995Y12378762D02*
X24995Y12502571D01*
X24995Y12502571D02*
X86900Y12688285D01*
X86900Y12688285D02*
X210709Y12812095D01*
X210709Y12812095D02*
X334519Y12874000D01*
X334519Y12874000D02*
X582138Y12935904D01*
X582138Y12935904D02*
X767852Y12935904D01*
X767852Y12935904D02*
X1015471Y12874000D01*
X1015471Y12874000D02*
X1139280Y12812095D01*
X1139280Y12812095D02*
X1263090Y12688285D01*
X1263090Y12688285D02*
X1324995Y12502571D01*
X1324995Y12502571D02*
X1324995Y12378762D01*
X1324995Y12378762D02*
X1263090Y12193047D01*
X1263090Y12193047D02*
X1201185Y12131143D01*
X396423Y11635904D02*
X396423Y11016857D01*
X24995Y11759714D02*
X1324995Y11326381D01*
X1324995Y11326381D02*
X24995Y10893047D01*
X24995Y10459714D02*
X1324995Y10459714D01*
X1324995Y10459714D02*
X1324995Y10150190D01*
X1324995Y10150190D02*
X1263090Y9964476D01*
X1263090Y9964476D02*
X1139280Y9840666D01*
X1139280Y9840666D02*
X1015471Y9778761D01*
X1015471Y9778761D02*
X767852Y9716857D01*
X767852Y9716857D02*
X582138Y9716857D01*
X582138Y9716857D02*
X334519Y9778761D01*
X334519Y9778761D02*
X210709Y9840666D01*
X210709Y9840666D02*
X86900Y9964476D01*
X86900Y9964476D02*
X24995Y10150190D01*
X24995Y10150190D02*
X24995Y10459714D01*
X1324995Y9345428D02*
X1324995Y8602571D01*
X24995Y8973999D02*
X1324995Y8973999D01*
X1324995Y7921619D02*
X1324995Y7797809D01*
X1324995Y7797809D02*
X1263090Y7674000D01*
X1263090Y7674000D02*
X1201185Y7612095D01*
X1201185Y7612095D02*
X1077376Y7550190D01*
X1077376Y7550190D02*
X829757Y7488285D01*
X829757Y7488285D02*
X520233Y7488285D01*
X520233Y7488285D02*
X272614Y7550190D01*
X272614Y7550190D02*
X148804Y7612095D01*
X148804Y7612095D02*
X86900Y7674000D01*
X86900Y7674000D02*
X24995Y7797809D01*
X24995Y7797809D02*
X24995Y7921619D01*
X24995Y7921619D02*
X86900Y8045428D01*
X86900Y8045428D02*
X148804Y8107333D01*
X148804Y8107333D02*
X272614Y8169238D01*
X272614Y8169238D02*
X520233Y8231142D01*
X520233Y8231142D02*
X829757Y8231142D01*
X829757Y8231142D02*
X1077376Y8169238D01*
X1077376Y8169238D02*
X1201185Y8107333D01*
X1201185Y8107333D02*
X1263090Y8045428D01*
X1263090Y8045428D02*
X1324995Y7921619D01*
X24995Y6250190D02*
X24995Y6993047D01*
X24995Y6621619D02*
X1324995Y6621619D01*
X1324995Y6621619D02*
X1139280Y6745428D01*
X1139280Y6745428D02*
X1015471Y6869238D01*
X1015471Y6869238D02*
X953566Y6993047D01*
X705947Y5259714D02*
X644042Y5074000D01*
X644042Y5074000D02*
X582138Y5012095D01*
X582138Y5012095D02*
X458328Y4950191D01*
X458328Y4950191D02*
X272614Y4950191D01*
X272614Y4950191D02*
X148804Y5012095D01*
X148804Y5012095D02*
X86900Y5074000D01*
X86900Y5074000D02*
X24995Y5197810D01*
X24995Y5197810D02*
X24995Y5693048D01*
X24995Y5693048D02*
X1324995Y5693048D01*
X1324995Y5693048D02*
X1324995Y5259714D01*
X1324995Y5259714D02*
X1263090Y5135905D01*
X1263090Y5135905D02*
X1201185Y5074000D01*
X1201185Y5074000D02*
X1077376Y5012095D01*
X1077376Y5012095D02*
X953566Y5012095D01*
X953566Y5012095D02*
X829757Y5074000D01*
X829757Y5074000D02*
X767852Y5135905D01*
X767852Y5135905D02*
X705947Y5259714D01*
X705947Y5259714D02*
X705947Y5693048D01*
D12*
X13130877Y16252760D02*
X13130877Y16167046D01*
X13130877Y16167046D02*
X13088020Y16081332D01*
X13088020Y16081332D02*
X13045163Y16038474D01*
X13045163Y16038474D02*
X12959449Y15995617D01*
X12959449Y15995617D02*
X12788020Y15952760D01*
X12788020Y15952760D02*
X12573735Y15952760D01*
X12573735Y15952760D02*
X12402306Y15995617D01*
X12402306Y15995617D02*
X12316592Y16038474D01*
X12316592Y16038474D02*
X12273735Y16081332D01*
X12273735Y16081332D02*
X12230877Y16167046D01*
X12230877Y16167046D02*
X12230877Y16252760D01*
X12230877Y16252760D02*
X12273735Y16338474D01*
X12273735Y16338474D02*
X12316592Y16381332D01*
X12316592Y16381332D02*
X12402306Y16424189D01*
X12402306Y16424189D02*
X12573735Y16467046D01*
X12573735Y16467046D02*
X12788020Y16467046D01*
X12788020Y16467046D02*
X12959449Y16424189D01*
X12959449Y16424189D02*
X13045163Y16381332D01*
X13045163Y16381332D02*
X13088020Y16338474D01*
X13088020Y16338474D02*
X13130877Y16252760D01*
X12230877Y15652760D02*
X12830877Y15181331D01*
X12830877Y15652760D02*
X12230877Y15181331D01*
X13130877Y14667046D02*
X13130877Y14581332D01*
X13130877Y14581332D02*
X13088020Y14495618D01*
X13088020Y14495618D02*
X13045163Y14452760D01*
X13045163Y14452760D02*
X12959449Y14409903D01*
X12959449Y14409903D02*
X12788020Y14367046D01*
X12788020Y14367046D02*
X12573735Y14367046D01*
X12573735Y14367046D02*
X12402306Y14409903D01*
X12402306Y14409903D02*
X12316592Y14452760D01*
X12316592Y14452760D02*
X12273735Y14495618D01*
X12273735Y14495618D02*
X12230877Y14581332D01*
X12230877Y14581332D02*
X12230877Y14667046D01*
X12230877Y14667046D02*
X12273735Y14752760D01*
X12273735Y14752760D02*
X12316592Y14795618D01*
X12316592Y14795618D02*
X12402306Y14838475D01*
X12402306Y14838475D02*
X12573735Y14881332D01*
X12573735Y14881332D02*
X12788020Y14881332D01*
X12788020Y14881332D02*
X12959449Y14838475D01*
X12959449Y14838475D02*
X13045163Y14795618D01*
X13045163Y14795618D02*
X13088020Y14752760D01*
X13088020Y14752760D02*
X13130877Y14667046D01*
X12745163Y13852760D02*
X12788020Y13938475D01*
X12788020Y13938475D02*
X12830877Y13981332D01*
X12830877Y13981332D02*
X12916592Y14024189D01*
X12916592Y14024189D02*
X12959449Y14024189D01*
X12959449Y14024189D02*
X13045163Y13981332D01*
X13045163Y13981332D02*
X13088020Y13938475D01*
X13088020Y13938475D02*
X13130877Y13852760D01*
X13130877Y13852760D02*
X13130877Y13681332D01*
X13130877Y13681332D02*
X13088020Y13595617D01*
X13088020Y13595617D02*
X13045163Y13552760D01*
X13045163Y13552760D02*
X12959449Y13509903D01*
X12959449Y13509903D02*
X12916592Y13509903D01*
X12916592Y13509903D02*
X12830877Y13552760D01*
X12830877Y13552760D02*
X12788020Y13595617D01*
X12788020Y13595617D02*
X12745163Y13681332D01*
X12745163Y13681332D02*
X12745163Y13852760D01*
X12745163Y13852760D02*
X12702306Y13938475D01*
X12702306Y13938475D02*
X12659449Y13981332D01*
X12659449Y13981332D02*
X12573735Y14024189D01*
X12573735Y14024189D02*
X12402306Y14024189D01*
X12402306Y14024189D02*
X12316592Y13981332D01*
X12316592Y13981332D02*
X12273735Y13938475D01*
X12273735Y13938475D02*
X12230877Y13852760D01*
X12230877Y13852760D02*
X12230877Y13681332D01*
X12230877Y13681332D02*
X12273735Y13595617D01*
X12273735Y13595617D02*
X12316592Y13552760D01*
X12316592Y13552760D02*
X12402306Y13509903D01*
X12402306Y13509903D02*
X12573735Y13509903D01*
X12573735Y13509903D02*
X12659449Y13552760D01*
X12659449Y13552760D02*
X12702306Y13595617D01*
X12702306Y13595617D02*
X12745163Y13681332D01*
X11681927Y16252760D02*
X11681927Y16167046D01*
X11681927Y16167046D02*
X11639070Y16081332D01*
X11639070Y16081332D02*
X11596213Y16038474D01*
X11596213Y16038474D02*
X11510499Y15995617D01*
X11510499Y15995617D02*
X11339070Y15952760D01*
X11339070Y15952760D02*
X11124785Y15952760D01*
X11124785Y15952760D02*
X10953356Y15995617D01*
X10953356Y15995617D02*
X10867642Y16038474D01*
X10867642Y16038474D02*
X10824785Y16081332D01*
X10824785Y16081332D02*
X10781927Y16167046D01*
X10781927Y16167046D02*
X10781927Y16252760D01*
X10781927Y16252760D02*
X10824785Y16338474D01*
X10824785Y16338474D02*
X10867642Y16381332D01*
X10867642Y16381332D02*
X10953356Y16424189D01*
X10953356Y16424189D02*
X11124785Y16467046D01*
X11124785Y16467046D02*
X11339070Y16467046D01*
X11339070Y16467046D02*
X11510499Y16424189D01*
X11510499Y16424189D02*
X11596213Y16381332D01*
X11596213Y16381332D02*
X11639070Y16338474D01*
X11639070Y16338474D02*
X11681927Y16252760D01*
X10781927Y15652760D02*
X11381927Y15181331D01*
X11381927Y15652760D02*
X10781927Y15181331D01*
X11681927Y14667046D02*
X11681927Y14581332D01*
X11681927Y14581332D02*
X11639070Y14495618D01*
X11639070Y14495618D02*
X11596213Y14452760D01*
X11596213Y14452760D02*
X11510499Y14409903D01*
X11510499Y14409903D02*
X11339070Y14367046D01*
X11339070Y14367046D02*
X11124785Y14367046D01*
X11124785Y14367046D02*
X10953356Y14409903D01*
X10953356Y14409903D02*
X10867642Y14452760D01*
X10867642Y14452760D02*
X10824785Y14495618D01*
X10824785Y14495618D02*
X10781927Y14581332D01*
X10781927Y14581332D02*
X10781927Y14667046D01*
X10781927Y14667046D02*
X10824785Y14752760D01*
X10824785Y14752760D02*
X10867642Y14795618D01*
X10867642Y14795618D02*
X10953356Y14838475D01*
X10953356Y14838475D02*
X11124785Y14881332D01*
X11124785Y14881332D02*
X11339070Y14881332D01*
X11339070Y14881332D02*
X11510499Y14838475D01*
X11510499Y14838475D02*
X11596213Y14795618D01*
X11596213Y14795618D02*
X11639070Y14752760D01*
X11639070Y14752760D02*
X11681927Y14667046D01*
X11381927Y14109903D02*
X11381927Y13767046D01*
X10781927Y13981332D02*
X11553356Y13981332D01*
X11553356Y13981332D02*
X11639070Y13938475D01*
X11639070Y13938475D02*
X11681927Y13852760D01*
X11681927Y13852760D02*
X11681927Y13767046D01*
D10*
%TO.C,JP1*%
X8116000Y5224000D02*
X8116000Y6624000D01*
X8816000Y7324000D02*
X9416000Y7324000D01*
X9416000Y4524000D02*
X8816000Y4524000D01*
X10116000Y6624000D02*
X10116000Y5224000D01*
X8116000Y6624000D02*
G75*
G02*
X8816000Y7324000I699999J1D01*
G01*
X8816000Y4524000D02*
G75*
G02*
X8116000Y5224000I0J700000D01*
G01*
X9416000Y7324000D02*
G75*
G02*
X10116000Y6624000I1J-699999D01*
G01*
X10116000Y5224000D02*
G75*
G02*
X9416000Y4524000I-700000J0D01*
G01*
%TO.C,JP2*%
X8116000Y15224000D02*
X8116000Y16624000D01*
X8816000Y17324000D02*
X9416000Y17324000D01*
X9416000Y14524000D02*
X8816000Y14524000D01*
X10116000Y16624000D02*
X10116000Y15224000D01*
X8116000Y16624000D02*
G75*
G02*
X8816000Y17324000I700000J0D01*
G01*
X8816000Y14524000D02*
G75*
G02*
X8116000Y15224000I-1J699999D01*
G01*
X9416000Y17324000D02*
G75*
G02*
X10116000Y16624000I0J-700000D01*
G01*
X10116000Y15224000D02*
G75*
G02*
X9416000Y14524000I-699999J-1D01*
G01*
%TO.C,G1*%
X4287699Y14589489D02*
X4104069Y14589489D01*
X4104069Y14884609D01*
X3251500Y14884609D01*
X3251500Y15074797D01*
X4104069Y15074797D01*
X4104069Y15369917D01*
X4287699Y15369917D01*
X4287699Y14589489D01*
G36*
X4287699Y14589489D02*
G01*
X4104069Y14589489D01*
X4104069Y14884609D01*
X3251500Y14884609D01*
X3251500Y15074797D01*
X4104069Y15074797D01*
X4104069Y15369917D01*
X4287699Y15369917D01*
X4287699Y14589489D01*
G37*
X4287699Y14294369D02*
X3881090Y14294369D01*
X3881090Y13815619D01*
X4287699Y13815619D01*
X4287699Y13625430D01*
X3251500Y13625430D01*
X3251500Y13815619D01*
X3697459Y13815619D01*
X3697459Y14294369D01*
X3251500Y14294369D01*
X3251500Y14484557D01*
X4287699Y14484557D01*
X4287699Y14294369D01*
G36*
X4287699Y14294369D02*
G01*
X3881090Y14294369D01*
X3881090Y13815619D01*
X4287699Y13815619D01*
X4287699Y13625430D01*
X3251500Y13625430D01*
X3251500Y13815619D01*
X3697459Y13815619D01*
X3697459Y14294369D01*
X3251500Y14294369D01*
X3251500Y14484557D01*
X4287699Y14484557D01*
X4287699Y14294369D01*
G37*
X4287699Y9624914D02*
X4104069Y9624914D01*
X4104069Y10097106D01*
X3881090Y10097106D01*
X3881090Y9736403D01*
X3697459Y9736403D01*
X3697459Y10097106D01*
X3435130Y10097106D01*
X3435130Y9611797D01*
X3251500Y9611797D01*
X3251500Y10293852D01*
X4287699Y10293852D01*
X4287699Y9624914D01*
G36*
X4287699Y9624914D02*
G01*
X4104069Y9624914D01*
X4104069Y10097106D01*
X3881090Y10097106D01*
X3881090Y9736403D01*
X3697459Y9736403D01*
X3697459Y10097106D01*
X3435130Y10097106D01*
X3435130Y9611797D01*
X3251500Y9611797D01*
X3251500Y10293852D01*
X4287699Y10293852D01*
X4287699Y9624914D01*
G37*
X4287699Y12184021D02*
X3954870Y11963642D01*
X3622040Y11743263D01*
X3954870Y11743242D01*
X4287699Y11743220D01*
X4287699Y11553031D01*
X3251500Y11553031D01*
X3251500Y11708302D01*
X3607284Y11945454D01*
X3963067Y12182606D01*
X3607284Y12182614D01*
X3251500Y12182621D01*
X3251500Y12372809D01*
X4287699Y12372809D01*
X4287699Y12184021D01*
G36*
X4287699Y12184021D02*
G01*
X3954870Y11963642D01*
X3622040Y11743263D01*
X3954870Y11743242D01*
X4287699Y11743220D01*
X4287699Y11553031D01*
X3251500Y11553031D01*
X3251500Y11708302D01*
X3607284Y11945454D01*
X3963067Y12182606D01*
X3607284Y12182614D01*
X3251500Y12182621D01*
X3251500Y12372809D01*
X4287699Y12372809D01*
X4287699Y12184021D01*
G37*
X1984123Y8816487D02*
X1993334Y8814835D01*
X2014434Y8811102D01*
X2046393Y8805469D01*
X2088179Y8798118D01*
X2138761Y8789229D01*
X2197110Y8778984D01*
X2262193Y8767564D01*
X2332980Y8755149D01*
X2408441Y8741921D01*
X2487544Y8728060D01*
X2502209Y8725492D01*
X3002259Y8637901D01*
X3002273Y8544446D01*
X3001943Y8504735D01*
X3000867Y8476883D01*
X2998942Y8459651D01*
X2996062Y8451797D01*
X2994406Y8450992D01*
X2986845Y8452102D01*
X2967366Y8455317D01*
X2936969Y8460464D01*
X2896653Y8467371D01*
X2847419Y8475863D01*
X2790265Y8485769D01*
X2726192Y8496915D01*
X2656199Y8509128D01*
X2581284Y8522236D01*
X2502449Y8536065D01*
X2482742Y8539528D01*
X2403144Y8553502D01*
X2327256Y8566798D01*
X2256072Y8579242D01*
X2190589Y8590662D01*
X2131803Y8600885D01*
X2080709Y8609738D01*
X2038303Y8617048D01*
X2005580Y8622643D01*
X1983538Y8626349D01*
X1973171Y8627995D01*
X1972523Y8628064D01*
X1969950Y8634382D01*
X1967959Y8652395D01*
X1966643Y8680691D01*
X1966098Y8717858D01*
X1966088Y8723978D01*
X1966088Y8819892D01*
X1984123Y8816487D01*
G36*
X1984123Y8816487D02*
G01*
X1993334Y8814835D01*
X2014434Y8811102D01*
X2046393Y8805469D01*
X2088179Y8798118D01*
X2138761Y8789229D01*
X2197110Y8778984D01*
X2262193Y8767564D01*
X2332980Y8755149D01*
X2408441Y8741921D01*
X2487544Y8728060D01*
X2502209Y8725492D01*
X3002259Y8637901D01*
X3002273Y8544446D01*
X3001943Y8504735D01*
X3000867Y8476883D01*
X2998942Y8459651D01*
X2996062Y8451797D01*
X2994406Y8450992D01*
X2986845Y8452102D01*
X2967366Y8455317D01*
X2936969Y8460464D01*
X2896653Y8467371D01*
X2847419Y8475863D01*
X2790265Y8485769D01*
X2726192Y8496915D01*
X2656199Y8509128D01*
X2581284Y8522236D01*
X2502449Y8536065D01*
X2482742Y8539528D01*
X2403144Y8553502D01*
X2327256Y8566798D01*
X2256072Y8579242D01*
X2190589Y8590662D01*
X2131803Y8600885D01*
X2080709Y8609738D01*
X2038303Y8617048D01*
X2005580Y8622643D01*
X1983538Y8626349D01*
X1973171Y8627995D01*
X1972523Y8628064D01*
X1969950Y8634382D01*
X1967959Y8652395D01*
X1966643Y8680691D01*
X1966098Y8717858D01*
X1966088Y8723978D01*
X1966088Y8819892D01*
X1984123Y8816487D01*
G37*
X4553455Y7623543D02*
X4573025Y7620349D01*
X4603099Y7615282D01*
X4642476Y7608555D01*
X4689951Y7600379D01*
X4744322Y7590966D01*
X4804387Y7580526D01*
X4868941Y7569271D01*
X4936781Y7557413D01*
X5006706Y7545162D01*
X5077511Y7532730D01*
X5147994Y7520328D01*
X5216952Y7508169D01*
X5283181Y7496462D01*
X5345479Y7485419D01*
X5402643Y7475252D01*
X5453469Y7466172D01*
X5496755Y7458391D01*
X5531297Y7452119D01*
X5555893Y7447568D01*
X5569339Y7444949D01*
X5571472Y7444444D01*
X5574982Y7439192D01*
X5577430Y7425522D01*
X5578932Y7402070D01*
X5579606Y7367472D01*
X5579669Y7348672D01*
X5579669Y7255906D01*
X5561634Y7258613D01*
X5552433Y7260154D01*
X5531339Y7263782D01*
X5499381Y7269320D01*
X5457585Y7276586D01*
X5406978Y7285403D01*
X5348587Y7295592D01*
X5283439Y7306972D01*
X5212562Y7319366D01*
X5136982Y7332593D01*
X5057727Y7346475D01*
X5040279Y7349533D01*
X4536959Y7437746D01*
X4536935Y7531201D01*
X4537185Y7569533D01*
X4538056Y7596400D01*
X4539701Y7613445D01*
X4542274Y7622311D01*
X4545593Y7624655D01*
X4553455Y7623543D01*
G36*
X4553455Y7623543D02*
G01*
X4573025Y7620349D01*
X4603099Y7615282D01*
X4642476Y7608555D01*
X4689951Y7600379D01*
X4744322Y7590966D01*
X4804387Y7580526D01*
X4868941Y7569271D01*
X4936781Y7557413D01*
X5006706Y7545162D01*
X5077511Y7532730D01*
X5147994Y7520328D01*
X5216952Y7508169D01*
X5283181Y7496462D01*
X5345479Y7485419D01*
X5402643Y7475252D01*
X5453469Y7466172D01*
X5496755Y7458391D01*
X5531297Y7452119D01*
X5555893Y7447568D01*
X5569339Y7444949D01*
X5571472Y7444444D01*
X5574982Y7439192D01*
X5577430Y7425522D01*
X5578932Y7402070D01*
X5579606Y7367472D01*
X5579669Y7348672D01*
X5579669Y7255906D01*
X5561634Y7258613D01*
X5552433Y7260154D01*
X5531339Y7263782D01*
X5499381Y7269320D01*
X5457585Y7276586D01*
X5406978Y7285403D01*
X5348587Y7295592D01*
X5283439Y7306972D01*
X5212562Y7319366D01*
X5136982Y7332593D01*
X5057727Y7346475D01*
X5040279Y7349533D01*
X4536959Y7437746D01*
X4536935Y7531201D01*
X4537185Y7569533D01*
X4538056Y7596400D01*
X4539701Y7613445D01*
X4542274Y7622311D01*
X4545593Y7624655D01*
X4553455Y7623543D01*
G37*
X4551668Y8370159D02*
X4560413Y8368471D01*
X4581025Y8364717D01*
X4612449Y8359083D01*
X4653633Y8351756D01*
X4703520Y8342921D01*
X4761057Y8332766D01*
X4825190Y8321477D01*
X4894863Y8309240D01*
X4969023Y8296241D01*
X5038616Y8284066D01*
X5116530Y8270435D01*
X5191370Y8257319D01*
X5262024Y8244913D01*
X5327380Y8233416D01*
X5386325Y8223022D01*
X5437746Y8213928D01*
X5480532Y8206331D01*
X5513569Y8200428D01*
X5535746Y8196413D01*
X5545239Y8194630D01*
X5579669Y8187733D01*
X5579669Y7998224D01*
X5564913Y8001659D01*
X5556207Y8003318D01*
X5535615Y8007047D01*
X5504171Y8012663D01*
X5462911Y8019984D01*
X5412870Y8028828D01*
X5355083Y8039011D01*
X5290585Y8050351D01*
X5220411Y8062666D01*
X5145596Y8075772D01*
X5067175Y8089488D01*
X5061570Y8090467D01*
X4982836Y8104231D01*
X4907561Y8117403D01*
X4836788Y8129800D01*
X4771562Y8141238D01*
X4712927Y8151533D01*
X4661926Y8160503D01*
X4619605Y8167963D01*
X4587007Y8173730D01*
X4565177Y8177621D01*
X4555158Y8179452D01*
X4554947Y8179494D01*
X4536912Y8183147D01*
X4536912Y8373715D01*
X4551668Y8370159D01*
G36*
X4551668Y8370159D02*
G01*
X4560413Y8368471D01*
X4581025Y8364717D01*
X4612449Y8359083D01*
X4653633Y8351756D01*
X4703520Y8342921D01*
X4761057Y8332766D01*
X4825190Y8321477D01*
X4894863Y8309240D01*
X4969023Y8296241D01*
X5038616Y8284066D01*
X5116530Y8270435D01*
X5191370Y8257319D01*
X5262024Y8244913D01*
X5327380Y8233416D01*
X5386325Y8223022D01*
X5437746Y8213928D01*
X5480532Y8206331D01*
X5513569Y8200428D01*
X5535746Y8196413D01*
X5545239Y8194630D01*
X5579669Y8187733D01*
X5579669Y7998224D01*
X5564913Y8001659D01*
X5556207Y8003318D01*
X5535615Y8007047D01*
X5504171Y8012663D01*
X5462911Y8019984D01*
X5412870Y8028828D01*
X5355083Y8039011D01*
X5290585Y8050351D01*
X5220411Y8062666D01*
X5145596Y8075772D01*
X5067175Y8089488D01*
X5061570Y8090467D01*
X4982836Y8104231D01*
X4907561Y8117403D01*
X4836788Y8129800D01*
X4771562Y8141238D01*
X4712927Y8151533D01*
X4661926Y8160503D01*
X4619605Y8167963D01*
X4587007Y8173730D01*
X4565177Y8177621D01*
X4555158Y8179452D01*
X4554947Y8179494D01*
X4536912Y8183147D01*
X4536912Y8373715D01*
X4551668Y8370159D01*
G37*
X1978087Y7321493D02*
X1997100Y7318223D01*
X2027061Y7313018D01*
X2066988Y7306051D01*
X2115895Y7297494D01*
X2172798Y7287519D01*
X2236714Y7276298D01*
X2306658Y7264005D01*
X2381647Y7250811D01*
X2460697Y7236890D01*
X2487467Y7232172D01*
X2999009Y7142010D01*
X3000828Y7048863D01*
X3001419Y7012081D01*
X3001374Y6986434D01*
X3000492Y6969948D01*
X2998570Y6960650D01*
X2995405Y6956566D01*
X2991257Y6955717D01*
X2983130Y6956830D01*
X2963096Y6960053D01*
X2932165Y6965213D01*
X2891345Y6972137D01*
X2841647Y6980649D01*
X2784078Y6990578D01*
X2719650Y7001748D01*
X2649370Y7013987D01*
X2574248Y7027121D01*
X2495293Y7040977D01*
X2476666Y7044253D01*
X2397197Y7058227D01*
X2321498Y7071522D01*
X2250558Y7083966D01*
X2185365Y7095386D01*
X2126910Y7105609D01*
X2076181Y7114462D01*
X2034169Y7121772D01*
X2001861Y7127367D01*
X1980247Y7131074D01*
X1970317Y7132719D01*
X1969778Y7132789D01*
X1968473Y7138962D01*
X1967371Y7155946D01*
X1966561Y7181435D01*
X1966133Y7213123D01*
X1966088Y7227883D01*
X1966407Y7261471D01*
X1967285Y7289808D01*
X1968603Y7310598D01*
X1970241Y7321545D01*
X1971007Y7322656D01*
X1978087Y7321493D01*
G36*
X1978087Y7321493D02*
G01*
X1997100Y7318223D01*
X2027061Y7313018D01*
X2066988Y7306051D01*
X2115895Y7297494D01*
X2172798Y7287519D01*
X2236714Y7276298D01*
X2306658Y7264005D01*
X2381647Y7250811D01*
X2460697Y7236890D01*
X2487467Y7232172D01*
X2999009Y7142010D01*
X3000828Y7048863D01*
X3001419Y7012081D01*
X3001374Y6986434D01*
X3000492Y6969948D01*
X2998570Y6960650D01*
X2995405Y6956566D01*
X2991257Y6955717D01*
X2983130Y6956830D01*
X2963096Y6960053D01*
X2932165Y6965213D01*
X2891345Y6972137D01*
X2841647Y6980649D01*
X2784078Y6990578D01*
X2719650Y7001748D01*
X2649370Y7013987D01*
X2574248Y7027121D01*
X2495293Y7040977D01*
X2476666Y7044253D01*
X2397197Y7058227D01*
X2321498Y7071522D01*
X2250558Y7083966D01*
X2185365Y7095386D01*
X2126910Y7105609D01*
X2076181Y7114462D01*
X2034169Y7121772D01*
X2001861Y7127367D01*
X1980247Y7131074D01*
X1970317Y7132719D01*
X1969778Y7132789D01*
X1968473Y7138962D01*
X1967371Y7155946D01*
X1966561Y7181435D01*
X1966133Y7213123D01*
X1966088Y7227883D01*
X1966407Y7261471D01*
X1967285Y7289808D01*
X1968603Y7310598D01*
X1970241Y7321545D01*
X1971007Y7322656D01*
X1978087Y7321493D01*
G37*
X1977565Y8073257D02*
X1985734Y8071720D01*
X2005798Y8068111D01*
X2036732Y8062609D01*
X2077509Y8055396D01*
X2127103Y8046652D01*
X2184488Y8036557D01*
X2248639Y8025294D01*
X2318529Y8013041D01*
X2393132Y7999980D01*
X2471422Y7986292D01*
X2477630Y7985207D01*
X2556364Y7971445D01*
X2631639Y7958274D01*
X2702412Y7945877D01*
X2767638Y7934440D01*
X2826274Y7924144D01*
X2877274Y7915173D01*
X2919595Y7907712D01*
X2952193Y7901942D01*
X2974023Y7898049D01*
X2984042Y7896215D01*
X2984253Y7896173D01*
X3002288Y7892500D01*
X3002288Y7701932D01*
X2987532Y7705489D01*
X2978833Y7707166D01*
X2958245Y7710916D01*
X2926798Y7716554D01*
X2885524Y7723900D01*
X2835453Y7732771D01*
X2777619Y7742983D01*
X2713051Y7754356D01*
X2642781Y7766706D01*
X2567841Y7779852D01*
X2489261Y7793610D01*
X2480909Y7795071D01*
X2402108Y7808871D01*
X2326913Y7822073D01*
X2256346Y7834497D01*
X2191430Y7845961D01*
X2133187Y7856283D01*
X2082640Y7865281D01*
X2040811Y7872774D01*
X2008722Y7878581D01*
X1987395Y7882519D01*
X1977854Y7884407D01*
X1977565Y7884482D01*
X1973028Y7887054D01*
X1969861Y7892995D01*
X1967823Y7904338D01*
X1966675Y7923116D01*
X1966178Y7951361D01*
X1966088Y7981907D01*
X1966208Y8018796D01*
X1966726Y8044476D01*
X1967884Y8060855D01*
X1969919Y8069840D01*
X1973072Y8073337D01*
X1977565Y8073257D01*
G36*
X1977565Y8073257D02*
G01*
X1985734Y8071720D01*
X2005798Y8068111D01*
X2036732Y8062609D01*
X2077509Y8055396D01*
X2127103Y8046652D01*
X2184488Y8036557D01*
X2248639Y8025294D01*
X2318529Y8013041D01*
X2393132Y7999980D01*
X2471422Y7986292D01*
X2477630Y7985207D01*
X2556364Y7971445D01*
X2631639Y7958274D01*
X2702412Y7945877D01*
X2767638Y7934440D01*
X2826274Y7924144D01*
X2877274Y7915173D01*
X2919595Y7907712D01*
X2952193Y7901942D01*
X2974023Y7898049D01*
X2984042Y7896215D01*
X2984253Y7896173D01*
X3002288Y7892500D01*
X3002288Y7701932D01*
X2987532Y7705489D01*
X2978833Y7707166D01*
X2958245Y7710916D01*
X2926798Y7716554D01*
X2885524Y7723900D01*
X2835453Y7732771D01*
X2777619Y7742983D01*
X2713051Y7754356D01*
X2642781Y7766706D01*
X2567841Y7779852D01*
X2489261Y7793610D01*
X2480909Y7795071D01*
X2402108Y7808871D01*
X2326913Y7822073D01*
X2256346Y7834497D01*
X2191430Y7845961D01*
X2133187Y7856283D01*
X2082640Y7865281D01*
X2040811Y7872774D01*
X2008722Y7878581D01*
X1987395Y7882519D01*
X1977854Y7884407D01*
X1977565Y7884482D01*
X1973028Y7887054D01*
X1969861Y7892995D01*
X1967823Y7904338D01*
X1966675Y7923116D01*
X1966178Y7951361D01*
X1966088Y7981907D01*
X1966208Y8018796D01*
X1966726Y8044476D01*
X1967884Y8060855D01*
X1969919Y8069840D01*
X1973072Y8073337D01*
X1977565Y8073257D01*
G37*
X3264223Y7852280D02*
X3286600Y7848520D01*
X3319087Y7842925D01*
X3360501Y7835706D01*
X3409657Y7827076D01*
X3465371Y7817245D01*
X3526460Y7806426D01*
X3591739Y7794831D01*
X3660025Y7782671D01*
X3730133Y7770159D01*
X3800880Y7757506D01*
X3871081Y7744924D01*
X3939553Y7732625D01*
X4005111Y7720821D01*
X4066572Y7709724D01*
X4122752Y7699545D01*
X4172467Y7690496D01*
X4214532Y7682790D01*
X4247765Y7676637D01*
X4270980Y7672251D01*
X4282994Y7669842D01*
X4284430Y7669460D01*
X4285622Y7661927D01*
X4286386Y7643760D01*
X4286674Y7617436D01*
X4286438Y7585433D01*
X4286245Y7574440D01*
X4284420Y7483060D01*
X3884369Y7553242D01*
X3812933Y7565769D01*
X3744793Y7577707D01*
X3681140Y7588849D01*
X3623165Y7598987D01*
X3572058Y7607912D01*
X3529010Y7615417D01*
X3495212Y7621294D01*
X3471855Y7625334D01*
X3460129Y7627331D01*
X3459724Y7627397D01*
X3435130Y7631369D01*
X3435130Y7454219D01*
X3435067Y7401137D01*
X3434818Y7359746D01*
X3434298Y7328620D01*
X3433421Y7306333D01*
X3432101Y7291460D01*
X3430251Y7282576D01*
X3427785Y7278255D01*
X3424618Y7277072D01*
X3424427Y7277070D01*
X3414103Y7278167D01*
X3393758Y7281158D01*
X3366276Y7285595D01*
X3334541Y7291028D01*
X3332611Y7291367D01*
X3251500Y7305665D01*
X3251500Y7579929D01*
X3251538Y7638464D01*
X3251646Y7692718D01*
X3251816Y7741335D01*
X3252041Y7782960D01*
X3252311Y7816235D01*
X3252619Y7839804D01*
X3252957Y7852310D01*
X3253140Y7853992D01*
X3264223Y7852280D01*
G36*
X3264223Y7852280D02*
G01*
X3286600Y7848520D01*
X3319087Y7842925D01*
X3360501Y7835706D01*
X3409657Y7827076D01*
X3465371Y7817245D01*
X3526460Y7806426D01*
X3591739Y7794831D01*
X3660025Y7782671D01*
X3730133Y7770159D01*
X3800880Y7757506D01*
X3871081Y7744924D01*
X3939553Y7732625D01*
X4005111Y7720821D01*
X4066572Y7709724D01*
X4122752Y7699545D01*
X4172467Y7690496D01*
X4214532Y7682790D01*
X4247765Y7676637D01*
X4270980Y7672251D01*
X4282994Y7669842D01*
X4284430Y7669460D01*
X4285622Y7661927D01*
X4286386Y7643760D01*
X4286674Y7617436D01*
X4286438Y7585433D01*
X4286245Y7574440D01*
X4284420Y7483060D01*
X3884369Y7553242D01*
X3812933Y7565769D01*
X3744793Y7577707D01*
X3681140Y7588849D01*
X3623165Y7598987D01*
X3572058Y7607912D01*
X3529010Y7615417D01*
X3495212Y7621294D01*
X3471855Y7625334D01*
X3460129Y7627331D01*
X3459724Y7627397D01*
X3435130Y7631369D01*
X3435130Y7454219D01*
X3435067Y7401137D01*
X3434818Y7359746D01*
X3434298Y7328620D01*
X3433421Y7306333D01*
X3432101Y7291460D01*
X3430251Y7282576D01*
X3427785Y7278255D01*
X3424618Y7277072D01*
X3424427Y7277070D01*
X3414103Y7278167D01*
X3393758Y7281158D01*
X3366276Y7285595D01*
X3334541Y7291028D01*
X3332611Y7291367D01*
X3251500Y7305665D01*
X3251500Y7579929D01*
X3251538Y7638464D01*
X3251646Y7692718D01*
X3251816Y7741335D01*
X3252041Y7782960D01*
X3252311Y7816235D01*
X3252619Y7839804D01*
X3252957Y7852310D01*
X3253140Y7853992D01*
X3264223Y7852280D01*
G37*
X4548348Y6873111D02*
X4548389Y6873102D01*
X4556557Y6871564D01*
X4576621Y6867952D01*
X4607554Y6862447D01*
X4648330Y6855229D01*
X4697923Y6846479D01*
X4755308Y6836378D01*
X4819457Y6825106D01*
X4889346Y6812845D01*
X4963948Y6799775D01*
X5042237Y6786078D01*
X5048453Y6784991D01*
X5127286Y6771207D01*
X5202735Y6758012D01*
X5273748Y6745591D01*
X5339271Y6734127D01*
X5398250Y6723806D01*
X5449634Y6714812D01*
X5492368Y6707328D01*
X5525400Y6701540D01*
X5547675Y6697631D01*
X5558142Y6695786D01*
X5558355Y6695748D01*
X5579669Y6691928D01*
X5579669Y6597564D01*
X5579491Y6564079D01*
X5579000Y6535825D01*
X5578264Y6515114D01*
X5577349Y6504262D01*
X5576941Y6503199D01*
X5569961Y6504306D01*
X5551258Y6507487D01*
X5522025Y6512533D01*
X5483453Y6519233D01*
X5436737Y6527378D01*
X5383067Y6536758D01*
X5323638Y6547163D01*
X5259641Y6558383D01*
X5192270Y6570208D01*
X5122717Y6582429D01*
X5052175Y6594836D01*
X4981837Y6607219D01*
X4912895Y6619368D01*
X4846541Y6631073D01*
X4783970Y6642125D01*
X4726372Y6652314D01*
X4674942Y6661429D01*
X4630871Y6669261D01*
X4595353Y6675600D01*
X4569580Y6680237D01*
X4554744Y6682961D01*
X4551668Y6683571D01*
X4545900Y6685414D01*
X4541873Y6689119D01*
X4539273Y6696758D01*
X4537790Y6710401D01*
X4537110Y6732122D01*
X4536920Y6763991D01*
X4536912Y6781435D01*
X4537031Y6818396D01*
X4537547Y6844145D01*
X4538698Y6860587D01*
X4540723Y6869626D01*
X4543860Y6873166D01*
X4548348Y6873111D01*
G36*
X4548348Y6873111D02*
G01*
X4548389Y6873102D01*
X4556557Y6871564D01*
X4576621Y6867952D01*
X4607554Y6862447D01*
X4648330Y6855229D01*
X4697923Y6846479D01*
X4755308Y6836378D01*
X4819457Y6825106D01*
X4889346Y6812845D01*
X4963948Y6799775D01*
X5042237Y6786078D01*
X5048453Y6784991D01*
X5127286Y6771207D01*
X5202735Y6758012D01*
X5273748Y6745591D01*
X5339271Y6734127D01*
X5398250Y6723806D01*
X5449634Y6714812D01*
X5492368Y6707328D01*
X5525400Y6701540D01*
X5547675Y6697631D01*
X5558142Y6695786D01*
X5558355Y6695748D01*
X5579669Y6691928D01*
X5579669Y6597564D01*
X5579491Y6564079D01*
X5579000Y6535825D01*
X5578264Y6515114D01*
X5577349Y6504262D01*
X5576941Y6503199D01*
X5569961Y6504306D01*
X5551258Y6507487D01*
X5522025Y6512533D01*
X5483453Y6519233D01*
X5436737Y6527378D01*
X5383067Y6536758D01*
X5323638Y6547163D01*
X5259641Y6558383D01*
X5192270Y6570208D01*
X5122717Y6582429D01*
X5052175Y6594836D01*
X4981837Y6607219D01*
X4912895Y6619368D01*
X4846541Y6631073D01*
X4783970Y6642125D01*
X4726372Y6652314D01*
X4674942Y6661429D01*
X4630871Y6669261D01*
X4595353Y6675600D01*
X4569580Y6680237D01*
X4554744Y6682961D01*
X4551668Y6683571D01*
X4545900Y6685414D01*
X4541873Y6689119D01*
X4539273Y6696758D01*
X4537790Y6710401D01*
X4537110Y6732122D01*
X4536920Y6763991D01*
X4536912Y6781435D01*
X4537031Y6818396D01*
X4537547Y6844145D01*
X4538698Y6860587D01*
X4540723Y6869626D01*
X4543860Y6873166D01*
X4548348Y6873111D01*
G37*
X4118087Y11343168D02*
X4288663Y11343168D01*
X4285966Y11092316D01*
X4285195Y11023921D01*
X4284336Y10967049D01*
X4283166Y10920107D01*
X4281460Y10881504D01*
X4278995Y10849646D01*
X4275544Y10822942D01*
X4270885Y10799798D01*
X4264793Y10778623D01*
X4257043Y10757823D01*
X4247411Y10735807D01*
X4235672Y10710981D01*
X4230818Y10700905D01*
X4214455Y10669024D01*
X4198329Y10643218D01*
X4179210Y10619024D01*
X4153870Y10591976D01*
X4147166Y10585225D01*
X4118879Y10558077D01*
X4094420Y10537857D01*
X4069320Y10521334D01*
X4039111Y10505276D01*
X4031486Y10501558D01*
X3992543Y10483481D01*
X3958874Y10469962D01*
X3927330Y10460362D01*
X3894760Y10454040D01*
X3858012Y10450354D01*
X3813936Y10448665D01*
X3769600Y10448321D01*
X3716840Y10448849D01*
X3674049Y10450859D01*
X3638106Y10454993D01*
X3605892Y10461891D01*
X3574285Y10472194D01*
X3540165Y10486544D01*
X3507271Y10502197D01*
X3443241Y10540814D01*
X3387009Y10589510D01*
X3339573Y10647149D01*
X3301928Y10712595D01*
X3283847Y10756865D01*
X3275588Y10781710D01*
X3268845Y10805491D01*
X3263470Y10829880D01*
X3259311Y10856548D01*
X3256220Y10887165D01*
X3254047Y10923402D01*
X3252641Y10966931D01*
X3251852Y11019421D01*
X3251532Y11082545D01*
X3251500Y11117486D01*
X3251500Y11152980D01*
X3420923Y11152980D01*
X3423108Y11007059D01*
X3425293Y10861139D01*
X3446111Y10817194D01*
X3476606Y10766828D01*
X3516059Y10725706D01*
X3564605Y10693757D01*
X3622379Y10670915D01*
X3689515Y10657109D01*
X3766149Y10652272D01*
X3769600Y10652264D01*
X3846638Y10656724D01*
X3914173Y10670149D01*
X3972340Y10692608D01*
X4021274Y10724170D01*
X4061108Y10764903D01*
X4091979Y10814877D01*
X4093088Y10817194D01*
X4113907Y10861139D01*
X4115997Y11007059D01*
X4118087Y11152980D01*
X3420923Y11152980D01*
X3251500Y11152980D01*
X3251500Y11343168D01*
X4118087Y11343168D01*
G36*
X4118087Y11343168D02*
G01*
X4288663Y11343168D01*
X4285966Y11092316D01*
X4285195Y11023921D01*
X4284336Y10967049D01*
X4283166Y10920107D01*
X4281460Y10881504D01*
X4278995Y10849646D01*
X4275544Y10822942D01*
X4270885Y10799798D01*
X4264793Y10778623D01*
X4257043Y10757823D01*
X4247411Y10735807D01*
X4235672Y10710981D01*
X4230818Y10700905D01*
X4214455Y10669024D01*
X4198329Y10643218D01*
X4179210Y10619024D01*
X4153870Y10591976D01*
X4147166Y10585225D01*
X4118879Y10558077D01*
X4094420Y10537857D01*
X4069320Y10521334D01*
X4039111Y10505276D01*
X4031486Y10501558D01*
X3992543Y10483481D01*
X3958874Y10469962D01*
X3927330Y10460362D01*
X3894760Y10454040D01*
X3858012Y10450354D01*
X3813936Y10448665D01*
X3769600Y10448321D01*
X3716840Y10448849D01*
X3674049Y10450859D01*
X3638106Y10454993D01*
X3605892Y10461891D01*
X3574285Y10472194D01*
X3540165Y10486544D01*
X3507271Y10502197D01*
X3443241Y10540814D01*
X3387009Y10589510D01*
X3339573Y10647149D01*
X3301928Y10712595D01*
X3283847Y10756865D01*
X3275588Y10781710D01*
X3268845Y10805491D01*
X3263470Y10829880D01*
X3259311Y10856548D01*
X3256220Y10887165D01*
X3254047Y10923402D01*
X3252641Y10966931D01*
X3251852Y11019421D01*
X3251532Y11082545D01*
X3251500Y11117486D01*
X3251500Y11152980D01*
X3420923Y11152980D01*
X3423108Y11007059D01*
X3425293Y10861139D01*
X3446111Y10817194D01*
X3476606Y10766828D01*
X3516059Y10725706D01*
X3564605Y10693757D01*
X3622379Y10670915D01*
X3689515Y10657109D01*
X3766149Y10652272D01*
X3769600Y10652264D01*
X3846638Y10656724D01*
X3914173Y10670149D01*
X3972340Y10692608D01*
X4021274Y10724170D01*
X4061108Y10764903D01*
X4091979Y10814877D01*
X4093088Y10817194D01*
X4113907Y10861139D01*
X4115997Y11007059D01*
X4118087Y11152980D01*
X3420923Y11152980D01*
X3251500Y11152980D01*
X3251500Y11343168D01*
X4118087Y11343168D01*
G37*
X4131600Y9460958D02*
X4287699Y9460958D01*
X4287699Y9235748D01*
X4287641Y9174221D01*
X4287415Y9124185D01*
X4286944Y9084015D01*
X4286150Y9052089D01*
X4284956Y9026780D01*
X4283283Y9006464D01*
X4281056Y8989518D01*
X4278195Y8974315D01*
X4274624Y8959232D01*
X4274479Y8958663D01*
X4252896Y8894363D01*
X4223541Y8840617D01*
X4186288Y8797326D01*
X4141011Y8764393D01*
X4087582Y8741721D01*
X4025877Y8729210D01*
X3974514Y8726437D01*
X3908488Y8731194D01*
X3850740Y8745756D01*
X3800372Y8770558D01*
X3756483Y8806036D01*
X3720413Y8849391D01*
X3705167Y8870466D01*
X3692489Y8886711D01*
X3684369Y8895628D01*
X3682819Y8896584D01*
X3676242Y8893687D01*
X3659683Y8885384D01*
X3634702Y8872502D01*
X3602859Y8855870D01*
X3565714Y8836315D01*
X3524825Y8814664D01*
X3481752Y8791744D01*
X3438055Y8768384D01*
X3395293Y8745411D01*
X3355025Y8723652D01*
X3318812Y8703935D01*
X3292489Y8689458D01*
X3251500Y8666771D01*
X3251639Y8773663D01*
X3251777Y8880555D01*
X3443467Y8979989D01*
X3635156Y9079422D01*
X3638786Y9270770D01*
X3794510Y9270770D01*
X3796811Y9160919D01*
X3797748Y9120307D01*
X3798852Y9090265D01*
X3800498Y9068249D01*
X3803061Y9051717D01*
X3806917Y9038124D01*
X3812442Y9024926D01*
X3818786Y9012005D01*
X3842831Y8974382D01*
X3871962Y8948116D01*
X3907743Y8931928D01*
X3920743Y8928691D01*
X3969847Y8923682D01*
X4014631Y8929497D01*
X4053679Y8945549D01*
X4085571Y8971248D01*
X4108888Y9006006D01*
X4109319Y9006922D01*
X4115755Y9021461D01*
X4120460Y9034963D01*
X4123764Y9049925D01*
X4125997Y9068845D01*
X4127489Y9094220D01*
X4128570Y9128548D01*
X4129225Y9157640D01*
X4131600Y9270770D01*
X3794510Y9270770D01*
X3638786Y9270770D01*
X3251500Y9270770D01*
X3251500Y9460958D01*
X4131600Y9460958D01*
G36*
X4131600Y9460958D02*
G01*
X4287699Y9460958D01*
X4287699Y9235748D01*
X4287641Y9174221D01*
X4287415Y9124185D01*
X4286944Y9084015D01*
X4286150Y9052089D01*
X4284956Y9026780D01*
X4283283Y9006464D01*
X4281056Y8989518D01*
X4278195Y8974315D01*
X4274624Y8959232D01*
X4274479Y8958663D01*
X4252896Y8894363D01*
X4223541Y8840617D01*
X4186288Y8797326D01*
X4141011Y8764393D01*
X4087582Y8741721D01*
X4025877Y8729210D01*
X3974514Y8726437D01*
X3908488Y8731194D01*
X3850740Y8745756D01*
X3800372Y8770558D01*
X3756483Y8806036D01*
X3720413Y8849391D01*
X3705167Y8870466D01*
X3692489Y8886711D01*
X3684369Y8895628D01*
X3682819Y8896584D01*
X3676242Y8893687D01*
X3659683Y8885384D01*
X3634702Y8872502D01*
X3602859Y8855870D01*
X3565714Y8836315D01*
X3524825Y8814664D01*
X3481752Y8791744D01*
X3438055Y8768384D01*
X3395293Y8745411D01*
X3355025Y8723652D01*
X3318812Y8703935D01*
X3292489Y8689458D01*
X3251500Y8666771D01*
X3251639Y8773663D01*
X3251777Y8880555D01*
X3443467Y8979989D01*
X3635156Y9079422D01*
X3638786Y9270770D01*
X3794510Y9270770D01*
X3796811Y9160919D01*
X3797748Y9120307D01*
X3798852Y9090265D01*
X3800498Y9068249D01*
X3803061Y9051717D01*
X3806917Y9038124D01*
X3812442Y9024926D01*
X3818786Y9012005D01*
X3842831Y8974382D01*
X3871962Y8948116D01*
X3907743Y8931928D01*
X3920743Y8928691D01*
X3969847Y8923682D01*
X4014631Y8929497D01*
X4053679Y8945549D01*
X4085571Y8971248D01*
X4108888Y9006006D01*
X4109319Y9006922D01*
X4115755Y9021461D01*
X4120460Y9034963D01*
X4123764Y9049925D01*
X4125997Y9068845D01*
X4127489Y9094220D01*
X4128570Y9128548D01*
X4129225Y9157640D01*
X4131600Y9270770D01*
X3794510Y9270770D01*
X3638786Y9270770D01*
X3251500Y9270770D01*
X3251500Y9460958D01*
X4131600Y9460958D01*
G37*
X4287699Y13239242D02*
X3945032Y13237032D01*
X3869099Y13236527D01*
X3805098Y13236039D01*
X3751843Y13235517D01*
X3708149Y13234910D01*
X3672832Y13234166D01*
X3644706Y13233234D01*
X3622586Y13232062D01*
X3605289Y13230600D01*
X3591628Y13228795D01*
X3580418Y13226597D01*
X3570475Y13223954D01*
X3560614Y13220815D01*
X3559101Y13220309D01*
X3509390Y13197823D01*
X3469932Y13167162D01*
X3440735Y13128336D01*
X3421803Y13081357D01*
X3413144Y13026236D01*
X3414764Y12962985D01*
X3415239Y12958470D01*
X3425883Y12906422D01*
X3445701Y12862948D01*
X3475116Y12827670D01*
X3514547Y12800206D01*
X3564418Y12780178D01*
X3625149Y12767205D01*
X3627979Y12766804D01*
X3646960Y12765131D01*
X3677848Y12763640D01*
X3719438Y12762354D01*
X3770521Y12761299D01*
X3829890Y12760497D01*
X3896338Y12759973D01*
X3968658Y12759751D01*
X3983217Y12759745D01*
X4287699Y12759745D01*
X4287699Y12569556D01*
X3966821Y12569556D01*
X3884504Y12569643D01*
X3814042Y12569956D01*
X3754174Y12570579D01*
X3703639Y12571591D01*
X3661177Y12573074D01*
X3625528Y12575110D01*
X3595429Y12577780D01*
X3569621Y12581165D01*
X3546843Y12585346D01*
X3525834Y12590405D01*
X3505333Y12596423D01*
X3494217Y12600038D01*
X3426989Y12628403D01*
X3369618Y12665400D01*
X3321974Y12711159D01*
X3283929Y12765807D01*
X3255354Y12829473D01*
X3251262Y12841722D01*
X3242894Y12877629D01*
X3237019Y12922538D01*
X3233734Y12972558D01*
X3233135Y13023796D01*
X3235319Y13072359D01*
X3240384Y13114355D01*
X3244040Y13131726D01*
X3267196Y13199857D01*
X3299935Y13259217D01*
X3342453Y13310002D01*
X3394944Y13352407D01*
X3457604Y13386631D01*
X3520494Y13409887D01*
X3531451Y13413116D01*
X3542080Y13415849D01*
X3553550Y13418138D01*
X3567029Y13420031D01*
X3583683Y13421576D01*
X3604682Y13422824D01*
X3631193Y13423824D01*
X3664385Y13424625D01*
X3705424Y13425276D01*
X3755479Y13425826D01*
X3815718Y13426325D01*
X3887309Y13426821D01*
X3928637Y13427090D01*
X4287699Y13429401D01*
X4287699Y13239242D01*
G36*
X4287699Y13239242D02*
G01*
X3945032Y13237032D01*
X3869099Y13236527D01*
X3805098Y13236039D01*
X3751843Y13235517D01*
X3708149Y13234910D01*
X3672832Y13234166D01*
X3644706Y13233234D01*
X3622586Y13232062D01*
X3605289Y13230600D01*
X3591628Y13228795D01*
X3580418Y13226597D01*
X3570475Y13223954D01*
X3560614Y13220815D01*
X3559101Y13220309D01*
X3509390Y13197823D01*
X3469932Y13167162D01*
X3440735Y13128336D01*
X3421803Y13081357D01*
X3413144Y13026236D01*
X3414764Y12962985D01*
X3415239Y12958470D01*
X3425883Y12906422D01*
X3445701Y12862948D01*
X3475116Y12827670D01*
X3514547Y12800206D01*
X3564418Y12780178D01*
X3625149Y12767205D01*
X3627979Y12766804D01*
X3646960Y12765131D01*
X3677848Y12763640D01*
X3719438Y12762354D01*
X3770521Y12761299D01*
X3829890Y12760497D01*
X3896338Y12759973D01*
X3968658Y12759751D01*
X3983217Y12759745D01*
X4287699Y12759745D01*
X4287699Y12569556D01*
X3966821Y12569556D01*
X3884504Y12569643D01*
X3814042Y12569956D01*
X3754174Y12570579D01*
X3703639Y12571591D01*
X3661177Y12573074D01*
X3625528Y12575110D01*
X3595429Y12577780D01*
X3569621Y12581165D01*
X3546843Y12585346D01*
X3525834Y12590405D01*
X3505333Y12596423D01*
X3494217Y12600038D01*
X3426989Y12628403D01*
X3369618Y12665400D01*
X3321974Y12711159D01*
X3283929Y12765807D01*
X3255354Y12829473D01*
X3251262Y12841722D01*
X3242894Y12877629D01*
X3237019Y12922538D01*
X3233734Y12972558D01*
X3233135Y13023796D01*
X3235319Y13072359D01*
X3240384Y13114355D01*
X3244040Y13131726D01*
X3267196Y13199857D01*
X3299935Y13259217D01*
X3342453Y13310002D01*
X3394944Y13352407D01*
X3457604Y13386631D01*
X3520494Y13409887D01*
X3531451Y13413116D01*
X3542080Y13415849D01*
X3553550Y13418138D01*
X3567029Y13420031D01*
X3583683Y13421576D01*
X3604682Y13422824D01*
X3631193Y13423824D01*
X3664385Y13424625D01*
X3705424Y13425276D01*
X3755479Y13425826D01*
X3815718Y13426325D01*
X3887309Y13426821D01*
X3928637Y13427090D01*
X4287699Y13429401D01*
X4287699Y13239242D01*
G37*
X3266256Y8594046D02*
X3274928Y8592500D01*
X3295501Y8588870D01*
X3326957Y8583334D01*
X3368278Y8576073D01*
X3418445Y8567264D01*
X3476439Y8557086D01*
X3541242Y8545718D01*
X3611836Y8533339D01*
X3687202Y8520127D01*
X3766322Y8506262D01*
X3784337Y8503106D01*
X4287663Y8414921D01*
X4287681Y8108324D01*
X4287583Y8046312D01*
X4287295Y7988494D01*
X4286837Y7936155D01*
X4286230Y7890581D01*
X4285495Y7853055D01*
X4284652Y7824863D01*
X4283721Y7807290D01*
X4282781Y7801601D01*
X4274823Y7802597D01*
X4256482Y7805413D01*
X4230300Y7809644D01*
X4198820Y7814886D01*
X4191053Y7816199D01*
X4104245Y7830923D01*
X4102517Y8043876D01*
X4100790Y8256829D01*
X4002417Y8274894D01*
X3967311Y8281228D01*
X3936168Y8286634D01*
X3911553Y8290685D01*
X3896033Y8292950D01*
X3892566Y8293277D01*
X3889024Y8292561D01*
X3886293Y8289196D01*
X3884269Y8281690D01*
X3882846Y8268550D01*
X3881922Y8248281D01*
X3881390Y8219392D01*
X3881148Y8180387D01*
X3881090Y8129775D01*
X3881090Y8129197D01*
X3881037Y8078539D01*
X3880810Y8039531D01*
X3880304Y8010709D01*
X3879415Y7990605D01*
X3878038Y7977755D01*
X3876068Y7970693D01*
X3873402Y7967953D01*
X3869935Y7968069D01*
X3869613Y7968160D01*
X3859744Y7970344D01*
X3840474Y7974105D01*
X3814913Y7978882D01*
X3786173Y7984118D01*
X3757365Y7989250D01*
X3731601Y7993722D01*
X3711990Y7996972D01*
X3701646Y7998442D01*
X3701046Y7998474D01*
X3700070Y8004741D01*
X3699194Y8022377D01*
X3698456Y8049635D01*
X3697895Y8084767D01*
X3697547Y8126026D01*
X3697449Y8164069D01*
X3697439Y8329664D01*
X3551528Y8354891D01*
X3503431Y8363215D01*
X3454210Y8371747D01*
X3407220Y8379904D01*
X3365818Y8387105D01*
X3333359Y8392767D01*
X3328559Y8393606D01*
X3251500Y8407095D01*
X3251500Y8501948D01*
X3251552Y8538912D01*
X3251915Y8564692D01*
X3252898Y8581222D01*
X3254812Y8590436D01*
X3257965Y8594268D01*
X3262668Y8594649D01*
X3266256Y8594046D01*
G36*
X3266256Y8594046D02*
G01*
X3274928Y8592500D01*
X3295501Y8588870D01*
X3326957Y8583334D01*
X3368278Y8576073D01*
X3418445Y8567264D01*
X3476439Y8557086D01*
X3541242Y8545718D01*
X3611836Y8533339D01*
X3687202Y8520127D01*
X3766322Y8506262D01*
X3784337Y8503106D01*
X4287663Y8414921D01*
X4287681Y8108324D01*
X4287583Y8046312D01*
X4287295Y7988494D01*
X4286837Y7936155D01*
X4286230Y7890581D01*
X4285495Y7853055D01*
X4284652Y7824863D01*
X4283721Y7807290D01*
X4282781Y7801601D01*
X4274823Y7802597D01*
X4256482Y7805413D01*
X4230300Y7809644D01*
X4198820Y7814886D01*
X4191053Y7816199D01*
X4104245Y7830923D01*
X4102517Y8043876D01*
X4100790Y8256829D01*
X4002417Y8274894D01*
X3967311Y8281228D01*
X3936168Y8286634D01*
X3911553Y8290685D01*
X3896033Y8292950D01*
X3892566Y8293277D01*
X3889024Y8292561D01*
X3886293Y8289196D01*
X3884269Y8281690D01*
X3882846Y8268550D01*
X3881922Y8248281D01*
X3881390Y8219392D01*
X3881148Y8180387D01*
X3881090Y8129775D01*
X3881090Y8129197D01*
X3881037Y8078539D01*
X3880810Y8039531D01*
X3880304Y8010709D01*
X3879415Y7990605D01*
X3878038Y7977755D01*
X3876068Y7970693D01*
X3873402Y7967953D01*
X3869935Y7968069D01*
X3869613Y7968160D01*
X3859744Y7970344D01*
X3840474Y7974105D01*
X3814913Y7978882D01*
X3786173Y7984118D01*
X3757365Y7989250D01*
X3731601Y7993722D01*
X3711990Y7996972D01*
X3701646Y7998442D01*
X3701046Y7998474D01*
X3700070Y8004741D01*
X3699194Y8022377D01*
X3698456Y8049635D01*
X3697895Y8084767D01*
X3697547Y8126026D01*
X3697449Y8164069D01*
X3697439Y8329664D01*
X3551528Y8354891D01*
X3503431Y8363215D01*
X3454210Y8371747D01*
X3407220Y8379904D01*
X3365818Y8387105D01*
X3333359Y8392767D01*
X3328559Y8393606D01*
X3251500Y8407095D01*
X3251500Y8501948D01*
X3251552Y8538912D01*
X3251915Y8564692D01*
X3252898Y8581222D01*
X3254812Y8590436D01*
X3257965Y8594268D01*
X3262668Y8594649D01*
X3266256Y8594046D01*
G37*
X4283911Y7253248D02*
X4285826Y7245178D01*
X4286762Y7230090D01*
X4286910Y7206136D01*
X4286456Y7171465D01*
X4286235Y7158943D01*
X4284420Y7058870D01*
X4082755Y6976943D01*
X4034592Y6957249D01*
X3990549Y6938993D01*
X3952042Y6922781D01*
X3920488Y6909220D01*
X3897300Y6898916D01*
X3883895Y6892474D01*
X3881090Y6890600D01*
X3886181Y6885845D01*
X3900694Y6874184D01*
X3923490Y6856485D01*
X3953427Y6833619D01*
X3989366Y6806456D01*
X4030167Y6775865D01*
X4074689Y6742716D01*
X4084177Y6735680D01*
X4287264Y6585177D01*
X4287482Y6484777D01*
X4287302Y6444460D01*
X4286498Y6416017D01*
X4284973Y6398218D01*
X4282631Y6389832D01*
X4280035Y6389114D01*
X4273523Y6393932D01*
X4257633Y6406031D01*
X4233351Y6424652D01*
X4201660Y6449037D01*
X4163547Y6478425D01*
X4119996Y6512059D01*
X4071992Y6549178D01*
X4020520Y6589024D01*
X3995858Y6608131D01*
X3943177Y6648938D01*
X3893558Y6687340D01*
X3847980Y6722581D01*
X3807420Y6753906D01*
X3772857Y6780562D01*
X3745268Y6801794D01*
X3725631Y6816848D01*
X3714923Y6824969D01*
X3713257Y6826174D01*
X3706063Y6827907D01*
X3687753Y6831604D01*
X3660126Y6836938D01*
X3624982Y6843581D01*
X3584120Y6851203D01*
X3539339Y6859477D01*
X3492437Y6868074D01*
X3445214Y6876667D01*
X3399469Y6884926D01*
X3357000Y6892524D01*
X3319608Y6899133D01*
X3289090Y6904424D01*
X3267246Y6908068D01*
X3255875Y6909738D01*
X3254893Y6909809D01*
X3253694Y6915983D01*
X3252681Y6932969D01*
X3251936Y6958462D01*
X3251542Y6990159D01*
X3251500Y7005028D01*
X3251500Y7100247D01*
X3266256Y7096817D01*
X3278295Y7094402D01*
X3300790Y7090247D01*
X3331869Y7084674D01*
X3369664Y7078004D01*
X3412305Y7070558D01*
X3457920Y7062656D01*
X3504640Y7054621D01*
X3550594Y7046772D01*
X3593914Y7039432D01*
X3632728Y7032921D01*
X3665166Y7027560D01*
X3689359Y7023671D01*
X3703436Y7021575D01*
X3706094Y7021299D01*
X3714004Y7023777D01*
X3732730Y7030870D01*
X3761017Y7042067D01*
X3797606Y7056858D01*
X3841241Y7074731D01*
X3890666Y7095175D01*
X3944624Y7117679D01*
X3990344Y7136879D01*
X4047130Y7160763D01*
X4100454Y7183123D01*
X4149048Y7203433D01*
X4191642Y7221165D01*
X4226968Y7235792D01*
X4253757Y7246787D01*
X4270740Y7253623D01*
X4276398Y7255738D01*
X4280831Y7256151D01*
X4283911Y7253248D01*
G36*
X4283911Y7253248D02*
G01*
X4285826Y7245178D01*
X4286762Y7230090D01*
X4286910Y7206136D01*
X4286456Y7171465D01*
X4286235Y7158943D01*
X4284420Y7058870D01*
X4082755Y6976943D01*
X4034592Y6957249D01*
X3990549Y6938993D01*
X3952042Y6922781D01*
X3920488Y6909220D01*
X3897300Y6898916D01*
X3883895Y6892474D01*
X3881090Y6890600D01*
X3886181Y6885845D01*
X3900694Y6874184D01*
X3923490Y6856485D01*
X3953427Y6833619D01*
X3989366Y6806456D01*
X4030167Y6775865D01*
X4074689Y6742716D01*
X4084177Y6735680D01*
X4287264Y6585177D01*
X4287482Y6484777D01*
X4287302Y6444460D01*
X4286498Y6416017D01*
X4284973Y6398218D01*
X4282631Y6389832D01*
X4280035Y6389114D01*
X4273523Y6393932D01*
X4257633Y6406031D01*
X4233351Y6424652D01*
X4201660Y6449037D01*
X4163547Y6478425D01*
X4119996Y6512059D01*
X4071992Y6549178D01*
X4020520Y6589024D01*
X3995858Y6608131D01*
X3943177Y6648938D01*
X3893558Y6687340D01*
X3847980Y6722581D01*
X3807420Y6753906D01*
X3772857Y6780562D01*
X3745268Y6801794D01*
X3725631Y6816848D01*
X3714923Y6824969D01*
X3713257Y6826174D01*
X3706063Y6827907D01*
X3687753Y6831604D01*
X3660126Y6836938D01*
X3624982Y6843581D01*
X3584120Y6851203D01*
X3539339Y6859477D01*
X3492437Y6868074D01*
X3445214Y6876667D01*
X3399469Y6884926D01*
X3357000Y6892524D01*
X3319608Y6899133D01*
X3289090Y6904424D01*
X3267246Y6908068D01*
X3255875Y6909738D01*
X3254893Y6909809D01*
X3253694Y6915983D01*
X3252681Y6932969D01*
X3251936Y6958462D01*
X3251542Y6990159D01*
X3251500Y7005028D01*
X3251500Y7100247D01*
X3266256Y7096817D01*
X3278295Y7094402D01*
X3300790Y7090247D01*
X3331869Y7084674D01*
X3369664Y7078004D01*
X3412305Y7070558D01*
X3457920Y7062656D01*
X3504640Y7054621D01*
X3550594Y7046772D01*
X3593914Y7039432D01*
X3632728Y7032921D01*
X3665166Y7027560D01*
X3689359Y7023671D01*
X3703436Y7021575D01*
X3706094Y7021299D01*
X3714004Y7023777D01*
X3732730Y7030870D01*
X3761017Y7042067D01*
X3797606Y7056858D01*
X3841241Y7074731D01*
X3890666Y7095175D01*
X3944624Y7117679D01*
X3990344Y7136879D01*
X4047130Y7160763D01*
X4100454Y7183123D01*
X4149048Y7203433D01*
X4191642Y7221165D01*
X4226968Y7235792D01*
X4253757Y7246787D01*
X4270740Y7253623D01*
X4276398Y7255738D01*
X4280831Y7256151D01*
X4283911Y7253248D01*
G37*
%TO.C,J6*%
X14760000Y20165000D02*
X14760000Y18365000D01*
X14760000Y13495000D02*
X13770000Y13495000D01*
X14760000Y11695000D02*
X14760000Y13495000D01*
X16210000Y20165000D02*
X14760000Y20165000D01*
X16210000Y11695000D02*
X14760000Y11695000D01*
X19030000Y12965000D02*
X19030000Y18895000D01*
%TO.C,J4*%
X14760000Y10165000D02*
X14760000Y8365000D01*
X14760000Y3495000D02*
X13770000Y3495000D01*
X14760000Y1695000D02*
X14760000Y3495000D01*
X16210000Y10165000D02*
X14760000Y10165000D01*
X16210000Y1695000D02*
X14760000Y1695000D01*
X19030000Y2965000D02*
X19030000Y8895000D01*
%TD*%
M02*
