%TF.GenerationSoftware,KiCad,Pcbnew,9.0.1+1*%
%TF.CreationDate,2025-09-26T18:57:13+00:00*%
%TF.ProjectId,TFI2CADC01,54464932-4341-4444-9330-312e6b696361,rev?*%
%TF.SameCoordinates,PX7f50c60PY6dac2c0*%
%TF.FileFunction,Copper,L1,Top*%
%TF.FilePolarity,Positive*%
%FSLAX46Y46*%
G04 Gerber Fmt 4.6, Leading zero omitted, Abs format (unit mm)*
G04 Created by KiCad (PCBNEW 9.0.1+1) date 2025-09-26 18:57:13*
%MOMM*%
%LPD*%
G01*
G04 APERTURE LIST*
G04 Aperture macros list*
%AMRoundRect*
0 Rectangle with rounded corners*
0 $1 Rounding radius*
0 $2 $3 $4 $5 $6 $7 $8 $9 X,Y pos of 4 corners*
0 Add a 4 corners polygon primitive as box body*
4,1,4,$2,$3,$4,$5,$6,$7,$8,$9,$2,$3,0*
0 Add four circle primitives for the rounded corners*
1,1,$1+$1,$2,$3*
1,1,$1+$1,$4,$5*
1,1,$1+$1,$6,$7*
1,1,$1+$1,$8,$9*
0 Add four rect primitives between the rounded corners*
20,1,$1+$1,$2,$3,$4,$5,0*
20,1,$1+$1,$4,$5,$6,$7,0*
20,1,$1+$1,$6,$7,$8,$9,0*
20,1,$1+$1,$8,$9,$2,$3,0*%
%AMFreePoly0*
4,1,23,0.500000,-0.750000,0.000000,-0.750000,0.000000,-0.745722,-0.065263,-0.745722,-0.191342,-0.711940,-0.304381,-0.646677,-0.396677,-0.554381,-0.461940,-0.441342,-0.495722,-0.315263,-0.495722,-0.250000,-0.500000,-0.250000,-0.500000,0.250000,-0.495722,0.250000,-0.495722,0.315263,-0.461940,0.441342,-0.396677,0.554381,-0.304381,0.646677,-0.191342,0.711940,-0.065263,0.745722,0.000000,0.745722,
0.000000,0.750000,0.500000,0.750000,0.500000,-0.750000,0.500000,-0.750000,$1*%
%AMFreePoly1*
4,1,23,0.000000,0.745722,0.065263,0.745722,0.191342,0.711940,0.304381,0.646677,0.396677,0.554381,0.461940,0.441342,0.495722,0.315263,0.495722,0.250000,0.500000,0.250000,0.500000,-0.250000,0.495722,-0.250000,0.495722,-0.315263,0.461940,-0.441342,0.396677,-0.554381,0.304381,-0.646677,0.191342,-0.711940,0.065263,-0.745722,0.000000,-0.745722,0.000000,-0.750000,-0.500000,-0.750000,
-0.500000,0.750000,0.000000,0.750000,0.000000,0.745722,0.000000,0.745722,$1*%
G04 Aperture macros list end*
%ADD10C,0.170000*%
%TA.AperFunction,NonConductor*%
%ADD11C,0.170000*%
%TD*%
%ADD12C,0.150000*%
%TA.AperFunction,NonConductor*%
%ADD13C,0.150000*%
%TD*%
%TA.AperFunction,SMDPad,CuDef*%
%ADD14FreePoly0,270.000000*%
%TD*%
%TA.AperFunction,SMDPad,CuDef*%
%ADD15FreePoly1,270.000000*%
%TD*%
%TA.AperFunction,SMDPad,CuDef*%
%ADD16FreePoly0,90.000000*%
%TD*%
%TA.AperFunction,SMDPad,CuDef*%
%ADD17FreePoly1,90.000000*%
%TD*%
%TA.AperFunction,SMDPad,CuDef*%
%ADD18RoundRect,0.150000X0.700000X-0.150000X0.700000X0.150000X-0.700000X0.150000X-0.700000X-0.150000X0*%
%TD*%
%TA.AperFunction,SMDPad,CuDef*%
%ADD19RoundRect,0.250000X1.100000X-0.250000X1.100000X0.250000X-1.100000X0.250000X-1.100000X-0.250000X0*%
%TD*%
%TA.AperFunction,ViaPad*%
%ADD20C,0.800000*%
%TD*%
%TA.AperFunction,Conductor*%
%ADD21C,0.500000*%
%TD*%
%TA.AperFunction,Conductor*%
%ADD22C,0.200000*%
%TD*%
%TA.AperFunction,Conductor*%
%ADD23C,0.250000*%
%TD*%
G04 APERTURE END LIST*
D10*
D11*
X13535714Y20904860D02*
X13503333Y20871527D01*
X13503333Y20871527D02*
X13438571Y20838194D01*
X13438571Y20838194D02*
X13276666Y20838194D01*
X13276666Y20838194D02*
X13211904Y20871527D01*
X13211904Y20871527D02*
X13179523Y20904860D01*
X13179523Y20904860D02*
X13147142Y20971527D01*
X13147142Y20971527D02*
X13147142Y21038194D01*
X13147142Y21038194D02*
X13179523Y21138194D01*
X13179523Y21138194D02*
X13568095Y21538194D01*
X13568095Y21538194D02*
X13147142Y21538194D01*
X12726190Y20838194D02*
X12661428Y20838194D01*
X12661428Y20838194D02*
X12596666Y20871527D01*
X12596666Y20871527D02*
X12564285Y20904860D01*
X12564285Y20904860D02*
X12531904Y20971527D01*
X12531904Y20971527D02*
X12499523Y21104860D01*
X12499523Y21104860D02*
X12499523Y21271527D01*
X12499523Y21271527D02*
X12531904Y21404860D01*
X12531904Y21404860D02*
X12564285Y21471527D01*
X12564285Y21471527D02*
X12596666Y21504860D01*
X12596666Y21504860D02*
X12661428Y21538194D01*
X12661428Y21538194D02*
X12726190Y21538194D01*
X12726190Y21538194D02*
X12790952Y21504860D01*
X12790952Y21504860D02*
X12823333Y21471527D01*
X12823333Y21471527D02*
X12855714Y21404860D01*
X12855714Y21404860D02*
X12888095Y21271527D01*
X12888095Y21271527D02*
X12888095Y21104860D01*
X12888095Y21104860D02*
X12855714Y20971527D01*
X12855714Y20971527D02*
X12823333Y20904860D01*
X12823333Y20904860D02*
X12790952Y20871527D01*
X12790952Y20871527D02*
X12726190Y20838194D01*
X12240476Y20904860D02*
X12208095Y20871527D01*
X12208095Y20871527D02*
X12143333Y20838194D01*
X12143333Y20838194D02*
X11981428Y20838194D01*
X11981428Y20838194D02*
X11916666Y20871527D01*
X11916666Y20871527D02*
X11884285Y20904860D01*
X11884285Y20904860D02*
X11851904Y20971527D01*
X11851904Y20971527D02*
X11851904Y21038194D01*
X11851904Y21038194D02*
X11884285Y21138194D01*
X11884285Y21138194D02*
X12272857Y21538194D01*
X12272857Y21538194D02*
X11851904Y21538194D01*
X11625238Y20838194D02*
X11204285Y20838194D01*
X11204285Y20838194D02*
X11430952Y21104860D01*
X11430952Y21104860D02*
X11333809Y21104860D01*
X11333809Y21104860D02*
X11269047Y21138194D01*
X11269047Y21138194D02*
X11236666Y21171527D01*
X11236666Y21171527D02*
X11204285Y21238194D01*
X11204285Y21238194D02*
X11204285Y21404860D01*
X11204285Y21404860D02*
X11236666Y21471527D01*
X11236666Y21471527D02*
X11269047Y21504860D01*
X11269047Y21504860D02*
X11333809Y21538194D01*
X11333809Y21538194D02*
X11528095Y21538194D01*
X11528095Y21538194D02*
X11592857Y21504860D01*
X11592857Y21504860D02*
X11625238Y21471527D01*
D10*
D11*
X5591903Y21071527D02*
X5332855Y21071527D01*
X5494760Y20838194D02*
X5494760Y21438194D01*
X5494760Y21438194D02*
X5462379Y21504860D01*
X5462379Y21504860D02*
X5397617Y21538194D01*
X5397617Y21538194D02*
X5332855Y21538194D01*
X5106189Y21538194D02*
X5106189Y20838194D01*
X4814760Y21538194D02*
X4814760Y21171527D01*
X4814760Y21171527D02*
X4847141Y21104860D01*
X4847141Y21104860D02*
X4911903Y21071527D01*
X4911903Y21071527D02*
X5009046Y21071527D01*
X5009046Y21071527D02*
X5073808Y21104860D01*
X5073808Y21104860D02*
X5106189Y21138194D01*
X4199522Y21071527D02*
X4199522Y21538194D01*
X4490951Y21071527D02*
X4490951Y21438194D01*
X4490951Y21438194D02*
X4458570Y21504860D01*
X4458570Y21504860D02*
X4393808Y21538194D01*
X4393808Y21538194D02*
X4296665Y21538194D01*
X4296665Y21538194D02*
X4231903Y21504860D01*
X4231903Y21504860D02*
X4199522Y21471527D01*
X3875713Y21071527D02*
X3875713Y21538194D01*
X3875713Y21138194D02*
X3843332Y21104860D01*
X3843332Y21104860D02*
X3778570Y21071527D01*
X3778570Y21071527D02*
X3681427Y21071527D01*
X3681427Y21071527D02*
X3616665Y21104860D01*
X3616665Y21104860D02*
X3584284Y21171527D01*
X3584284Y21171527D02*
X3584284Y21538194D01*
X2969046Y21538194D02*
X2969046Y20838194D01*
X2969046Y21504860D02*
X3033808Y21538194D01*
X3033808Y21538194D02*
X3163332Y21538194D01*
X3163332Y21538194D02*
X3228094Y21504860D01*
X3228094Y21504860D02*
X3260475Y21471527D01*
X3260475Y21471527D02*
X3292856Y21404860D01*
X3292856Y21404860D02*
X3292856Y21204860D01*
X3292856Y21204860D02*
X3260475Y21138194D01*
X3260475Y21138194D02*
X3228094Y21104860D01*
X3228094Y21104860D02*
X3163332Y21071527D01*
X3163332Y21071527D02*
X3033808Y21071527D01*
X3033808Y21071527D02*
X2969046Y21104860D01*
X2386189Y21504860D02*
X2450951Y21538194D01*
X2450951Y21538194D02*
X2580475Y21538194D01*
X2580475Y21538194D02*
X2645237Y21504860D01*
X2645237Y21504860D02*
X2677618Y21438194D01*
X2677618Y21438194D02*
X2677618Y21171527D01*
X2677618Y21171527D02*
X2645237Y21104860D01*
X2645237Y21104860D02*
X2580475Y21071527D01*
X2580475Y21071527D02*
X2450951Y21071527D01*
X2450951Y21071527D02*
X2386189Y21104860D01*
X2386189Y21104860D02*
X2353808Y21171527D01*
X2353808Y21171527D02*
X2353808Y21238194D01*
X2353808Y21238194D02*
X2677618Y21304860D01*
X2062380Y21538194D02*
X2062380Y21071527D01*
X2062380Y21204860D02*
X2029999Y21138194D01*
X2029999Y21138194D02*
X1997618Y21104860D01*
X1997618Y21104860D02*
X1932856Y21071527D01*
X1932856Y21071527D02*
X1868094Y21071527D01*
X1738571Y21071527D02*
X1479523Y21071527D01*
X1641428Y21538194D02*
X1641428Y20938194D01*
X1641428Y20938194D02*
X1609047Y20871527D01*
X1609047Y20871527D02*
X1544285Y20838194D01*
X1544285Y20838194D02*
X1479523Y20838194D01*
X1155714Y21538194D02*
X1220476Y21504860D01*
X1220476Y21504860D02*
X1252857Y21438194D01*
X1252857Y21438194D02*
X1252857Y20838194D01*
X961429Y21071527D02*
X799524Y21538194D01*
X637619Y21071527D02*
X799524Y21538194D01*
X799524Y21538194D02*
X864286Y21704860D01*
X864286Y21704860D02*
X896667Y21738194D01*
X896667Y21738194D02*
X961429Y21771527D01*
X378572Y21471527D02*
X346191Y21504860D01*
X346191Y21504860D02*
X378572Y21538194D01*
X378572Y21538194D02*
X410953Y21504860D01*
X410953Y21504860D02*
X378572Y21471527D01*
X378572Y21471527D02*
X378572Y21538194D01*
X-236667Y21504860D02*
X-171905Y21538194D01*
X-171905Y21538194D02*
X-42381Y21538194D01*
X-42381Y21538194D02*
X22381Y21504860D01*
X22381Y21504860D02*
X54762Y21471527D01*
X54762Y21471527D02*
X87143Y21404860D01*
X87143Y21404860D02*
X87143Y21204860D01*
X87143Y21204860D02*
X54762Y21138194D01*
X54762Y21138194D02*
X22381Y21104860D01*
X22381Y21104860D02*
X-42381Y21071527D01*
X-42381Y21071527D02*
X-171905Y21071527D01*
X-171905Y21071527D02*
X-236667Y21104860D01*
X-463333Y21071527D02*
X-819524Y21071527D01*
X-819524Y21071527D02*
X-463333Y21538194D01*
X-463333Y21538194D02*
X-819524Y21538194D01*
D12*
D13*
X-544287Y725429D02*
X-201429Y725429D01*
X-372858Y125429D02*
X-372858Y725429D01*
X198571Y439715D02*
X-1429Y439715D01*
X-1429Y125429D02*
X-1429Y725429D01*
X-1429Y725429D02*
X284285Y725429D01*
X512857Y125429D02*
X512857Y725429D01*
X769999Y668286D02*
X798571Y696858D01*
X798571Y696858D02*
X855714Y725429D01*
X855714Y725429D02*
X998571Y725429D01*
X998571Y725429D02*
X1055714Y696858D01*
X1055714Y696858D02*
X1084285Y668286D01*
X1084285Y668286D02*
X1112856Y611143D01*
X1112856Y611143D02*
X1112856Y554000D01*
X1112856Y554000D02*
X1084285Y468286D01*
X1084285Y468286D02*
X741428Y125429D01*
X741428Y125429D02*
X1112856Y125429D01*
X1712857Y182572D02*
X1684285Y154000D01*
X1684285Y154000D02*
X1598571Y125429D01*
X1598571Y125429D02*
X1541428Y125429D01*
X1541428Y125429D02*
X1455714Y154000D01*
X1455714Y154000D02*
X1398571Y211143D01*
X1398571Y211143D02*
X1370000Y268286D01*
X1370000Y268286D02*
X1341428Y382572D01*
X1341428Y382572D02*
X1341428Y468286D01*
X1341428Y468286D02*
X1370000Y582572D01*
X1370000Y582572D02*
X1398571Y639715D01*
X1398571Y639715D02*
X1455714Y696858D01*
X1455714Y696858D02*
X1541428Y725429D01*
X1541428Y725429D02*
X1598571Y725429D01*
X1598571Y725429D02*
X1684285Y696858D01*
X1684285Y696858D02*
X1712857Y668286D01*
X1941428Y296858D02*
X2227143Y296858D01*
X1884285Y125429D02*
X2084285Y725429D01*
X2084285Y725429D02*
X2284285Y125429D01*
X2484286Y125429D02*
X2484286Y725429D01*
X2484286Y725429D02*
X2627143Y725429D01*
X2627143Y725429D02*
X2712857Y696858D01*
X2712857Y696858D02*
X2770000Y639715D01*
X2770000Y639715D02*
X2798571Y582572D01*
X2798571Y582572D02*
X2827143Y468286D01*
X2827143Y468286D02*
X2827143Y382572D01*
X2827143Y382572D02*
X2798571Y268286D01*
X2798571Y268286D02*
X2770000Y211143D01*
X2770000Y211143D02*
X2712857Y154000D01*
X2712857Y154000D02*
X2627143Y125429D01*
X2627143Y125429D02*
X2484286Y125429D01*
X2998571Y725429D02*
X3341429Y725429D01*
X3170000Y125429D02*
X3170000Y725429D01*
X3655714Y725429D02*
X3712857Y725429D01*
X3712857Y725429D02*
X3770000Y696858D01*
X3770000Y696858D02*
X3798572Y668286D01*
X3798572Y668286D02*
X3827143Y611143D01*
X3827143Y611143D02*
X3855714Y496858D01*
X3855714Y496858D02*
X3855714Y354000D01*
X3855714Y354000D02*
X3827143Y239715D01*
X3827143Y239715D02*
X3798572Y182572D01*
X3798572Y182572D02*
X3770000Y154000D01*
X3770000Y154000D02*
X3712857Y125429D01*
X3712857Y125429D02*
X3655714Y125429D01*
X3655714Y125429D02*
X3598572Y154000D01*
X3598572Y154000D02*
X3570000Y182572D01*
X3570000Y182572D02*
X3541429Y239715D01*
X3541429Y239715D02*
X3512857Y354000D01*
X3512857Y354000D02*
X3512857Y496858D01*
X3512857Y496858D02*
X3541429Y611143D01*
X3541429Y611143D02*
X3570000Y668286D01*
X3570000Y668286D02*
X3598572Y696858D01*
X3598572Y696858D02*
X3655714Y725429D01*
X4427143Y125429D02*
X4084286Y125429D01*
X4255715Y125429D02*
X4255715Y725429D01*
X4255715Y725429D02*
X4198572Y639715D01*
X4198572Y639715D02*
X4141429Y582572D01*
X4141429Y582572D02*
X4084286Y554000D01*
X4884287Y439715D02*
X4970001Y411143D01*
X4970001Y411143D02*
X4998572Y382572D01*
X4998572Y382572D02*
X5027144Y325429D01*
X5027144Y325429D02*
X5027144Y239715D01*
X5027144Y239715D02*
X4998572Y182572D01*
X4998572Y182572D02*
X4970001Y154000D01*
X4970001Y154000D02*
X4912858Y125429D01*
X4912858Y125429D02*
X4684287Y125429D01*
X4684287Y125429D02*
X4684287Y725429D01*
X4684287Y725429D02*
X4884287Y725429D01*
X4884287Y725429D02*
X4941430Y696858D01*
X4941430Y696858D02*
X4970001Y668286D01*
X4970001Y668286D02*
X4998572Y611143D01*
X4998572Y611143D02*
X4998572Y554000D01*
X4998572Y554000D02*
X4970001Y496858D01*
X4970001Y496858D02*
X4941430Y468286D01*
X4941430Y468286D02*
X4884287Y439715D01*
X4884287Y439715D02*
X4684287Y439715D01*
D14*
%TO.P,JP1,1,A*%
%TO.N,/XORL1*%
X9116000Y6574000D03*
D15*
%TO.P,JP1,2,B*%
%TO.N,+3V3*%
X9116000Y5274000D03*
%TD*%
D16*
%TO.P,JP2,1,A*%
%TO.N,/XORL2*%
X9116000Y15274000D03*
D17*
%TO.P,JP2,2,B*%
%TO.N,+3V3*%
X9116000Y16574000D03*
%TD*%
D18*
%TO.P,J6,1*%
%TO.N,+5V*%
X14620000Y14055000D03*
%TO.P,J6,2*%
%TO.N,/SCLout2*%
X14620000Y15305000D03*
%TO.P,J6,3*%
%TO.N,/SDAout2*%
X14620000Y16555000D03*
%TO.P,J6,4*%
%TO.N,GND*%
X14620000Y17805000D03*
D19*
%TO.P,J6,MP*%
X17820000Y12205000D03*
X17820000Y19655000D03*
%TD*%
D18*
%TO.P,J4,1*%
%TO.N,+5V*%
X14620000Y4055000D03*
%TO.P,J4,2*%
%TO.N,/SCLout1*%
X14620000Y5305000D03*
%TO.P,J4,3*%
%TO.N,/SDAout1*%
X14620000Y6555000D03*
%TO.P,J4,4*%
%TO.N,GND*%
X14620000Y7805000D03*
D19*
%TO.P,J4,MP*%
X17820000Y2205000D03*
X17820000Y9655000D03*
%TD*%
D20*
%TO.N,GND*%
X-3084000Y18224000D03*
X-3084000Y3724000D03*
X-4163200Y10910800D03*
X4371200Y10555200D03*
X-384000Y8924000D03*
X4870000Y13930000D03*
X-4184000Y3724000D03*
X17884000Y18581600D03*
X18747600Y18581600D03*
X15191600Y2274800D03*
X1069200Y17413200D03*
X-4184000Y18224000D03*
X1069200Y18581600D03*
X-3909200Y8218400D03*
X2288400Y11977600D03*
X2770000Y8330000D03*
X7317600Y6491200D03*
X18544400Y3646400D03*
X-2893200Y13704800D03*
X9349600Y8421600D03*
X17916000Y10924000D03*
X5438000Y3951200D03*
X18916000Y10924000D03*
X-4163200Y13704800D03*
X764400Y1563600D03*
X-2994800Y10910800D03*
%TO.N,+3V3*%
X9199777Y4125066D03*
X8145000Y18495000D03*
X11788000Y7507200D03*
X5336400Y14974800D03*
X9816000Y13724000D03*
%TO.N,+5V*%
X17216000Y17524000D03*
X16487000Y7805000D03*
X9044800Y1462000D03*
%TO.N,/SDAin*%
X5692000Y8230100D03*
X7724000Y8726400D03*
%TO.N,/SCLin*%
X1374000Y5830800D03*
X2412029Y9793200D03*
X1013018Y9764215D03*
%TO.N,/SCLout1*%
X6520000Y7624000D03*
X8536800Y7761200D03*
X12995774Y5737751D03*
%TO.N,/SDAout1*%
X16918800Y5855500D03*
%TO.N,/SCLout2*%
X13071378Y15367822D03*
X9883000Y10035500D03*
X5320500Y9851673D03*
%TO.N,/SDAout2*%
X16918800Y15889200D03*
%TO.N,/XORL1*%
X10938874Y14730370D03*
%TO.N,/XORL2*%
X6352274Y15984970D03*
%TD*%
D21*
%TO.N,+3V3*%
X5336400Y16245791D02*
X6164609Y17074000D01*
X11788000Y6296000D02*
X10766000Y5274000D01*
X9317700Y4242989D02*
X9317700Y5036900D01*
X6164609Y17074000D02*
X8266000Y17074000D01*
X8866000Y16574000D02*
X8366000Y17074000D01*
X10766000Y5274000D02*
X9616000Y5274000D01*
X11788000Y13908000D02*
X11788000Y15852000D01*
X8145000Y17195000D02*
X8266000Y17074000D01*
D22*
X9816000Y13824000D02*
X6487200Y13824000D01*
D21*
X11788000Y15852000D02*
X11066000Y16574000D01*
X8145000Y18495000D02*
X8145000Y17195000D01*
X11788000Y7507200D02*
X11788000Y6296000D01*
X9199777Y4125066D02*
X9317700Y4242989D01*
X9616000Y16574000D02*
X8866000Y16574000D01*
X11066000Y16574000D02*
X9616000Y16574000D01*
X11788000Y7507200D02*
X11788000Y13908000D01*
X5336400Y14974800D02*
X5336400Y16245791D01*
D22*
X6487200Y13824000D02*
X5336400Y14974800D01*
D21*
X8366000Y17074000D02*
X8266000Y17074000D01*
%TO.N,+5V*%
X14620000Y9679000D02*
X14620000Y14055000D01*
X16487000Y7812000D02*
X14620000Y9679000D01*
X17750918Y4055000D02*
X11637800Y4055000D01*
X16487000Y7805000D02*
X17884000Y6408000D01*
X16517800Y14055000D02*
X17594422Y14055000D01*
X11637800Y4055000D02*
X9044800Y1462000D01*
X17920711Y14381289D02*
X17920711Y16819289D01*
X16487000Y7805000D02*
X16487000Y7812000D01*
X14620000Y14055000D02*
X16517800Y14055000D01*
X17594422Y14055000D02*
X17920711Y14381289D01*
X17920711Y16819289D02*
X17216000Y17524000D01*
X17884000Y6408000D02*
X17884000Y4188082D01*
X17884000Y4188082D02*
X17750918Y4055000D01*
X15120000Y14055000D02*
X16517800Y14055000D01*
D23*
%TO.N,/SDAin*%
X5692000Y8230100D02*
X6188300Y8726400D01*
X6188300Y8726400D02*
X7724000Y8726400D01*
D22*
%TO.N,/SCLin*%
X1374000Y5830800D02*
X993000Y6211800D01*
X2383044Y9764215D02*
X1013018Y9764215D01*
X993000Y9744197D02*
X1013018Y9764215D01*
X2412029Y9793200D02*
X2383044Y9764215D01*
X993000Y6211800D02*
X993000Y9744197D01*
%TO.N,/SCLout1*%
X8536800Y7761200D02*
X6657200Y7761200D01*
X12995774Y5737751D02*
X13428525Y5305000D01*
X13428525Y5305000D02*
X15120000Y5305000D01*
X6657200Y7761200D02*
X6520000Y7624000D01*
%TO.N,/SDAout1*%
X16702600Y6555000D02*
X15120000Y6555000D01*
X16918800Y5855500D02*
X16918800Y6338800D01*
X16918800Y6338800D02*
X16702600Y6555000D01*
%TO.N,/SCLout2*%
X13071378Y15367822D02*
X13134200Y15305000D01*
X9699173Y9851673D02*
X9883000Y10035500D01*
X5320500Y9851673D02*
X9699173Y9851673D01*
X13134200Y15305000D02*
X15120000Y15305000D01*
%TO.N,/SDAout2*%
X16918800Y16346400D02*
X16918800Y15889200D01*
X15120000Y16555000D02*
X16710200Y16555000D01*
X16710200Y16555000D02*
X16918800Y16346400D01*
D23*
%TO.N,/XORL1*%
X11070000Y6730000D02*
X10914000Y6574000D01*
X11213480Y14455764D02*
X11213480Y8230000D01*
X11063489Y8080009D02*
X11063489Y6736511D01*
X11063489Y6736511D02*
X11070000Y6730000D01*
X10938874Y14730370D02*
X11213480Y14455764D01*
X10914000Y6574000D02*
X9616000Y6574000D01*
X11213480Y8230000D02*
X11063489Y8080009D01*
%TO.N,/XORL2*%
X6905244Y15432000D02*
X9458000Y15432000D01*
X6352274Y15984970D02*
X6905244Y15432000D01*
%TD*%
%TA.AperFunction,Conductor*%
%TO.N,GND*%
G36*
X10524057Y19492260D02*
G01*
X10542844Y19490003D01*
X10549278Y19481813D01*
X10558902Y19477826D01*
X10577832Y19445465D01*
X10610601Y19328510D01*
X10719634Y19077491D01*
X10719639Y19077481D01*
X10861826Y18843664D01*
X10861838Y18843647D01*
X11034540Y18631368D01*
X11034544Y18631364D01*
X11034546Y18631362D01*
X11234558Y18444563D01*
X11458143Y18286740D01*
X11701136Y18160831D01*
X11701140Y18160830D01*
X11701143Y18160828D01*
X11959000Y18069185D01*
X11959007Y18069184D01*
X11959010Y18069182D01*
X11959013Y18069182D01*
X11959018Y18069180D01*
X12226950Y18013503D01*
X12226958Y18013502D01*
X12226962Y18013501D01*
X12226964Y18013501D01*
X12226970Y18013500D01*
X12499993Y17994825D01*
X12500000Y17994825D01*
X12500007Y17994825D01*
X12773029Y18013500D01*
X12773033Y18013501D01*
X12773038Y18013501D01*
X12773044Y18013503D01*
X12773049Y18013503D01*
X13040981Y18069180D01*
X13040982Y18069181D01*
X13040990Y18069182D01*
X13040996Y18069185D01*
X13040999Y18069185D01*
X13154639Y18109573D01*
X13281103Y18154519D01*
X13337665Y18151620D01*
X13375611Y18109573D01*
X13379356Y18075970D01*
X13376838Y18055001D01*
X13376839Y18055000D01*
X14370000Y18055000D01*
X14870000Y18055000D01*
X15863161Y18055000D01*
X15863161Y18055001D01*
X15859385Y18086445D01*
X15803922Y18227093D01*
X15712564Y18347565D01*
X15592092Y18438923D01*
X15451443Y18494386D01*
X15363061Y18505000D01*
X14870000Y18505000D01*
X14870000Y18055000D01*
X14370000Y18055000D01*
X14370000Y18505000D01*
X14017804Y18505000D01*
X13965478Y18526674D01*
X13943804Y18579000D01*
X13964453Y18628853D01*
X13963917Y18629354D01*
X13963859Y18629401D01*
X13963862Y18629406D01*
X13963736Y18629523D01*
X13965440Y18631350D01*
X13965454Y18631362D01*
X14138168Y18843655D01*
X14280365Y19077489D01*
X14389398Y19328508D01*
X14422168Y19445466D01*
X14457156Y19490003D01*
X14493424Y19499500D01*
X15996000Y19499500D01*
X16048326Y19477826D01*
X16070000Y19425500D01*
X16070000Y19339359D01*
X16072900Y19302507D01*
X16118718Y19144801D01*
X16202317Y19003444D01*
X16318443Y18887318D01*
X16459800Y18803719D01*
X16617508Y18757901D01*
X16617505Y18757901D01*
X16654359Y18755000D01*
X17570000Y18755000D01*
X17570000Y19425500D01*
X17591674Y19477826D01*
X17644000Y19499500D01*
X17996000Y19499500D01*
X18048326Y19477826D01*
X18070000Y19425500D01*
X18070000Y18755000D01*
X18985641Y18755000D01*
X19022493Y18757901D01*
X19180199Y18803719D01*
X19321556Y18887318D01*
X19437682Y19003444D01*
X19521281Y19144801D01*
X19567099Y19302507D01*
X19570000Y19339359D01*
X19570000Y19425500D01*
X19591674Y19477826D01*
X19644000Y19499500D01*
X20506576Y19499500D01*
X20558902Y19477826D01*
X20577832Y19445465D01*
X20610601Y19328510D01*
X20719634Y19077491D01*
X20719639Y19077481D01*
X20861826Y18843664D01*
X20861838Y18843647D01*
X21034540Y18631368D01*
X21034544Y18631364D01*
X21034546Y18631362D01*
X21234558Y18444563D01*
X21458143Y18286740D01*
X21701136Y18160831D01*
X21701140Y18160830D01*
X21701143Y18160828D01*
X21959000Y18069185D01*
X21959007Y18069184D01*
X21959010Y18069182D01*
X21959013Y18069182D01*
X21959018Y18069180D01*
X22226950Y18013503D01*
X22226958Y18013502D01*
X22226962Y18013501D01*
X22226964Y18013501D01*
X22226970Y18013500D01*
X22499993Y17994825D01*
X22500000Y17994825D01*
X22500007Y17994825D01*
X22773029Y18013500D01*
X22773033Y18013501D01*
X22773038Y18013501D01*
X22773044Y18013503D01*
X22773049Y18013503D01*
X23040981Y18069180D01*
X23040982Y18069181D01*
X23040990Y18069182D01*
X23040996Y18069185D01*
X23040999Y18069185D01*
X23298856Y18160828D01*
X23298856Y18160829D01*
X23298864Y18160831D01*
X23541857Y18286740D01*
X23765442Y18444563D01*
X23965454Y18631362D01*
X24138168Y18843655D01*
X24280365Y19077489D01*
X24389398Y19328508D01*
X24422168Y19445466D01*
X24457156Y19490003D01*
X24493424Y19499500D01*
X29425500Y19499500D01*
X29477826Y19477826D01*
X29499500Y19425500D01*
X29499500Y574500D01*
X29477826Y522174D01*
X29425500Y500500D01*
X24493424Y500500D01*
X24441098Y522174D01*
X24422168Y554535D01*
X24389398Y671491D01*
X24334614Y797618D01*
X24280365Y922511D01*
X24236140Y995236D01*
X24138173Y1156337D01*
X24138172Y1156339D01*
X24138168Y1156345D01*
X24138161Y1156354D01*
X23965459Y1368633D01*
X23932810Y1399125D01*
X23765442Y1555437D01*
X23765440Y1555439D01*
X23541863Y1713256D01*
X23541856Y1713261D01*
X23428874Y1771803D01*
X23298864Y1839169D01*
X23298860Y1839171D01*
X23298856Y1839173D01*
X23040999Y1930816D01*
X23040981Y1930821D01*
X22773049Y1986498D01*
X22773029Y1986501D01*
X22500007Y2005175D01*
X22499993Y2005175D01*
X22226970Y1986501D01*
X22226950Y1986498D01*
X21959018Y1930821D01*
X21959000Y1930816D01*
X21701143Y1839173D01*
X21701138Y1839170D01*
X21458143Y1713261D01*
X21458136Y1713256D01*
X21234559Y1555439D01*
X21034540Y1368633D01*
X20861838Y1156354D01*
X20861826Y1156337D01*
X20719639Y922520D01*
X20719634Y922510D01*
X20610601Y671491D01*
X20577832Y554535D01*
X20542844Y509997D01*
X20506576Y500500D01*
X14493424Y500500D01*
X14441098Y522174D01*
X14422168Y554535D01*
X14389398Y671491D01*
X14334614Y797618D01*
X14280365Y922511D01*
X14236140Y995236D01*
X14138173Y1156337D01*
X14138172Y1156339D01*
X14138168Y1156345D01*
X14138161Y1156354D01*
X13965459Y1368633D01*
X13932810Y1399125D01*
X13765442Y1555437D01*
X13765440Y1555439D01*
X13541863Y1713256D01*
X13541856Y1713261D01*
X13428874Y1771803D01*
X13298864Y1839169D01*
X13298860Y1839171D01*
X13298856Y1839173D01*
X13157646Y1889359D01*
X16070000Y1889359D01*
X16072900Y1852507D01*
X16118718Y1694801D01*
X16202317Y1553444D01*
X16318443Y1437318D01*
X16459800Y1353719D01*
X16617508Y1307901D01*
X16617505Y1307901D01*
X16654359Y1305000D01*
X17570000Y1305000D01*
X18070000Y1305000D01*
X18985641Y1305000D01*
X19022493Y1307901D01*
X19180199Y1353719D01*
X19321556Y1437318D01*
X19437682Y1553444D01*
X19521281Y1694801D01*
X19567099Y1852507D01*
X19570000Y1889359D01*
X19570000Y1955000D01*
X18070000Y1955000D01*
X18070000Y1305000D01*
X17570000Y1305000D01*
X17570000Y1955000D01*
X16070000Y1955000D01*
X16070000Y1889359D01*
X13157646Y1889359D01*
X13082896Y1915925D01*
X13040999Y1930816D01*
X13040981Y1930821D01*
X12773049Y1986498D01*
X12773029Y1986501D01*
X12500007Y2005175D01*
X12499993Y2005175D01*
X12226970Y1986501D01*
X12226950Y1986498D01*
X11959018Y1930821D01*
X11959000Y1930816D01*
X11701143Y1839173D01*
X11701138Y1839170D01*
X11458143Y1713261D01*
X11458136Y1713256D01*
X11234559Y1555439D01*
X11034540Y1368633D01*
X10861838Y1156354D01*
X10861826Y1156337D01*
X10719639Y922520D01*
X10719634Y922510D01*
X10610601Y671491D01*
X10577832Y554535D01*
X10542844Y509997D01*
X10506576Y500500D01*
X5402500Y500500D01*
X5350174Y522174D01*
X5328500Y574500D01*
X5328500Y1027304D01*
X4258247Y1027304D01*
X4205921Y1048978D01*
X4195020Y1062855D01*
X4138173Y1156337D01*
X4138172Y1156339D01*
X4138168Y1156345D01*
X4138161Y1156354D01*
X3965459Y1368633D01*
X3965454Y1368638D01*
X3800051Y1523114D01*
X8424300Y1523114D01*
X8424300Y1400886D01*
X8430715Y1368638D01*
X8448144Y1281013D01*
X8448147Y1281003D01*
X8494918Y1168086D01*
X8539540Y1101304D01*
X8562826Y1066455D01*
X8649255Y980026D01*
X8750883Y912120D01*
X8750884Y912120D01*
X8750885Y912119D01*
X8863802Y865348D01*
X8863807Y865346D01*
X8983686Y841500D01*
X8983688Y841500D01*
X9105912Y841500D01*
X9105914Y841500D01*
X9225793Y865346D01*
X9338717Y912120D01*
X9440345Y980026D01*
X9526774Y1066455D01*
X9594680Y1168083D01*
X9641454Y1281007D01*
X9664950Y1399128D01*
X9685199Y1437013D01*
X10768829Y2520642D01*
X16070000Y2520642D01*
X16070000Y2455000D01*
X17570000Y2455000D01*
X18070000Y2455000D01*
X19570000Y2455000D01*
X19570000Y2520642D01*
X19567099Y2557494D01*
X19521281Y2715200D01*
X19437682Y2856557D01*
X19321556Y2972683D01*
X19180199Y3056282D01*
X19022491Y3102100D01*
X19022494Y3102100D01*
X18985641Y3105000D01*
X18070000Y3105000D01*
X18070000Y2455000D01*
X17570000Y2455000D01*
X17570000Y3105000D01*
X16654359Y3105000D01*
X16617506Y3102100D01*
X16459800Y3056282D01*
X16318443Y2972683D01*
X16202317Y2856557D01*
X16118718Y2715200D01*
X16072900Y2557494D01*
X16070000Y2520642D01*
X10768829Y2520642D01*
X11811013Y3562826D01*
X11863339Y3584500D01*
X13714887Y3584500D01*
X13747387Y3576981D01*
X13812818Y3544994D01*
X13812819Y3544994D01*
X13812821Y3544993D01*
X13884839Y3534500D01*
X15355160Y3534501D01*
X15427179Y3544993D01*
X15492612Y3576981D01*
X15525112Y3584500D01*
X17812863Y3584500D01*
X17812863Y3584501D01*
X17932524Y3616564D01*
X17998346Y3654566D01*
X18039812Y3678506D01*
X18127412Y3766106D01*
X18127412Y3766107D01*
X18137818Y3776513D01*
X18137819Y3776516D01*
X18260494Y3899188D01*
X18322436Y4006476D01*
X18354499Y4126137D01*
X18354500Y4126137D01*
X18354500Y6469945D01*
X18354499Y6469946D01*
X18322437Y6589604D01*
X18260493Y6696895D01*
X17127401Y7829987D01*
X17107149Y7867875D01*
X17083654Y7985993D01*
X17055022Y8055117D01*
X17036881Y8098915D01*
X17032164Y8105974D01*
X16968974Y8200545D01*
X16882545Y8286974D01*
X16876199Y8291214D01*
X16780914Y8354882D01*
X16667997Y8401653D01*
X16667987Y8401656D01*
X16558612Y8423412D01*
X16520723Y8443664D01*
X15625028Y9339359D01*
X16070000Y9339359D01*
X16072900Y9302507D01*
X16118718Y9144801D01*
X16202317Y9003444D01*
X16318443Y8887318D01*
X16459800Y8803719D01*
X16617508Y8757901D01*
X16617505Y8757901D01*
X16654359Y8755000D01*
X17570000Y8755000D01*
X18070000Y8755000D01*
X18985641Y8755000D01*
X19022493Y8757901D01*
X19180199Y8803719D01*
X19321556Y8887318D01*
X19437682Y9003444D01*
X19521281Y9144801D01*
X19567099Y9302507D01*
X19570000Y9339359D01*
X19570000Y9405000D01*
X18070000Y9405000D01*
X18070000Y8755000D01*
X17570000Y8755000D01*
X17570000Y9405000D01*
X16070000Y9405000D01*
X16070000Y9339359D01*
X15625028Y9339359D01*
X15112174Y9852213D01*
X15090500Y9904539D01*
X15090500Y9970642D01*
X16070000Y9970642D01*
X16070000Y9905000D01*
X17570000Y9905000D01*
X18070000Y9905000D01*
X19570000Y9905000D01*
X19570000Y9970642D01*
X19567099Y10007494D01*
X19521281Y10165200D01*
X19437682Y10306557D01*
X19321556Y10422683D01*
X19180199Y10506282D01*
X19022491Y10552100D01*
X19022494Y10552100D01*
X18985641Y10555000D01*
X18070000Y10555000D01*
X18070000Y9905000D01*
X17570000Y9905000D01*
X17570000Y10555000D01*
X16654359Y10555000D01*
X16617506Y10552100D01*
X16459800Y10506282D01*
X16318443Y10422683D01*
X16202317Y10306557D01*
X16118718Y10165200D01*
X16072900Y10007494D01*
X16070000Y9970642D01*
X15090500Y9970642D01*
X15090500Y11889359D01*
X16070000Y11889359D01*
X16072900Y11852507D01*
X16118718Y11694801D01*
X16202317Y11553444D01*
X16318443Y11437318D01*
X16459800Y11353719D01*
X16617508Y11307901D01*
X16617505Y11307901D01*
X16654359Y11305000D01*
X17570000Y11305000D01*
X18070000Y11305000D01*
X18985641Y11305000D01*
X19022493Y11307901D01*
X19180199Y11353719D01*
X19321556Y11437318D01*
X19437682Y11553444D01*
X19521281Y11694801D01*
X19567099Y11852507D01*
X19570000Y11889359D01*
X19570000Y11955000D01*
X18070000Y11955000D01*
X18070000Y11305000D01*
X17570000Y11305000D01*
X17570000Y11955000D01*
X16070000Y11955000D01*
X16070000Y11889359D01*
X15090500Y11889359D01*
X15090500Y12520642D01*
X16070000Y12520642D01*
X16070000Y12455000D01*
X17570000Y12455000D01*
X18070000Y12455000D01*
X19570000Y12455000D01*
X19570000Y12520642D01*
X19567099Y12557494D01*
X19521281Y12715200D01*
X19437682Y12856557D01*
X19321556Y12972683D01*
X19180199Y13056282D01*
X19022491Y13102100D01*
X19022494Y13102100D01*
X18985641Y13105000D01*
X18070000Y13105000D01*
X18070000Y12455000D01*
X17570000Y12455000D01*
X17570000Y13105000D01*
X16654359Y13105000D01*
X16617506Y13102100D01*
X16459800Y13056282D01*
X16318443Y12972683D01*
X16202317Y12856557D01*
X16118718Y12715200D01*
X16072900Y12557494D01*
X16070000Y12520642D01*
X15090500Y12520642D01*
X15090500Y13460501D01*
X15112174Y13512827D01*
X15164500Y13534501D01*
X15355153Y13534501D01*
X15355160Y13534501D01*
X15427179Y13544993D01*
X15492612Y13576981D01*
X15525112Y13584500D01*
X17656367Y13584500D01*
X17656367Y13584501D01*
X17776028Y13616564D01*
X17794466Y13627209D01*
X17883316Y13678506D01*
X17970916Y13766106D01*
X17970917Y13766108D01*
X18297205Y14092395D01*
X18359147Y14199683D01*
X18360834Y14205977D01*
X18369993Y14240161D01*
X18391210Y14319344D01*
X18391211Y14319344D01*
X18391211Y16881234D01*
X18391210Y16881235D01*
X18359148Y17000893D01*
X18353486Y17010700D01*
X18297205Y17108183D01*
X18209605Y17195783D01*
X18207026Y17198362D01*
X18207015Y17198372D01*
X17856401Y17548986D01*
X17836150Y17586873D01*
X17812654Y17704993D01*
X17765880Y17817917D01*
X17697974Y17919545D01*
X17611545Y18005974D01*
X17600280Y18013501D01*
X17509914Y18073882D01*
X17396997Y18120653D01*
X17396987Y18120656D01*
X17316711Y18136624D01*
X17277114Y18144500D01*
X17154886Y18144500D01*
X17120901Y18137740D01*
X17035012Y18120656D01*
X17035002Y18120653D01*
X16922085Y18073882D01*
X16820458Y18005977D01*
X16734023Y17919542D01*
X16666118Y17817915D01*
X16619347Y17704998D01*
X16619344Y17704988D01*
X16595500Y17585113D01*
X16595500Y17462888D01*
X16619344Y17343013D01*
X16619347Y17343003D01*
X16666118Y17230086D01*
X16706672Y17169392D01*
X16734026Y17128455D01*
X16820455Y17042026D01*
X16922083Y16974120D01*
X17035007Y16927346D01*
X17153126Y16903850D01*
X17163311Y16897045D01*
X17175463Y16895488D01*
X17191014Y16883599D01*
X17428537Y16646076D01*
X17450211Y16593750D01*
X17450211Y16413959D01*
X17428537Y16361633D01*
X17376211Y16339959D01*
X17323886Y16361633D01*
X17314345Y16371174D01*
X17314341Y16371177D01*
X17314339Y16371179D01*
X17251777Y16412982D01*
X17221412Y16455357D01*
X17217460Y16470105D01*
X17217459Y16470109D01*
X17180175Y16534686D01*
X17175266Y16543189D01*
X17175265Y16543190D01*
X17175264Y16543192D01*
X17115592Y16602864D01*
X17115591Y16602865D01*
X17113013Y16605443D01*
X17113002Y16605453D01*
X16970884Y16747571D01*
X16970882Y16747574D01*
X16966664Y16751792D01*
X16906992Y16811464D01*
X16906989Y16811466D01*
X16906988Y16811467D01*
X16833913Y16853657D01*
X16833909Y16853659D01*
X16799450Y16862892D01*
X16752395Y16875500D01*
X16752394Y16875500D01*
X15695244Y16875500D01*
X15642918Y16897174D01*
X15628764Y16916998D01*
X15625700Y16923266D01*
X15538266Y17010700D01*
X15531537Y17013990D01*
X15494048Y17056443D01*
X15497558Y17112971D01*
X15536893Y17149311D01*
X15592091Y17171078D01*
X15712564Y17262436D01*
X15803922Y17382908D01*
X15859385Y17523556D01*
X15863161Y17555000D01*
X13376838Y17555000D01*
X13380614Y17523556D01*
X13436077Y17382908D01*
X13527435Y17262436D01*
X13647908Y17171078D01*
X13703106Y17149311D01*
X13743833Y17109952D01*
X13744801Y17053324D01*
X13708463Y17013991D01*
X13701738Y17010704D01*
X13701734Y17010701D01*
X13614300Y16923267D01*
X13559993Y16812180D01*
X13549500Y16740166D01*
X13549500Y16369847D01*
X13549501Y16369835D01*
X13559993Y16297820D01*
X13614299Y16186735D01*
X13614300Y16186734D01*
X13701734Y16099300D01*
X13812821Y16044993D01*
X13884839Y16034500D01*
X15355160Y16034501D01*
X15427179Y16044993D01*
X15538266Y16099300D01*
X15625700Y16186734D01*
X15628763Y16193001D01*
X15671214Y16230490D01*
X15695244Y16234500D01*
X16279455Y16234500D01*
X16331781Y16212826D01*
X16353455Y16160500D01*
X16347822Y16132182D01*
X16322147Y16070198D01*
X16322144Y16070188D01*
X16305860Y15988322D01*
X16298300Y15950314D01*
X16298300Y15828086D01*
X16298815Y15825499D01*
X16322144Y15708213D01*
X16322147Y15708203D01*
X16368918Y15595286D01*
X16430584Y15502996D01*
X16436826Y15493655D01*
X16523255Y15407226D01*
X16624883Y15339320D01*
X16624884Y15339320D01*
X16624885Y15339319D01*
X16737802Y15292548D01*
X16737807Y15292546D01*
X16857686Y15268700D01*
X16857688Y15268700D01*
X16979912Y15268700D01*
X16979914Y15268700D01*
X17099793Y15292546D01*
X17212717Y15339320D01*
X17314345Y15407226D01*
X17323886Y15416768D01*
X17376211Y15438441D01*
X17428537Y15416767D01*
X17450211Y15364441D01*
X17450211Y14606828D01*
X17428540Y14554506D01*
X17421213Y14547178D01*
X17368889Y14525500D01*
X15525113Y14525500D01*
X15492613Y14533019D01*
X15427181Y14565007D01*
X15379167Y14572003D01*
X15355161Y14575500D01*
X15355160Y14575500D01*
X13884840Y14575500D01*
X13812819Y14565007D01*
X13701734Y14510701D01*
X13614300Y14423267D01*
X13559993Y14312180D01*
X13549500Y14240166D01*
X13549500Y13869847D01*
X13549501Y13869835D01*
X13559993Y13797820D01*
X13614299Y13686735D01*
X13614300Y13686734D01*
X13701734Y13599300D01*
X13812821Y13544993D01*
X13884839Y13534500D01*
X14075500Y13534501D01*
X14127826Y13512827D01*
X14149500Y13460501D01*
X14149500Y9617055D01*
X14181562Y9497397D01*
X14243506Y9390106D01*
X14335321Y9298291D01*
X14335327Y9298286D01*
X15002287Y8631326D01*
X15023961Y8579000D01*
X15002287Y8526674D01*
X14949961Y8505000D01*
X14870000Y8505000D01*
X14870000Y7879000D01*
X14848326Y7826674D01*
X14796000Y7805000D01*
X14620000Y7805000D01*
X14620000Y7629000D01*
X14598326Y7576674D01*
X14546000Y7555000D01*
X13376838Y7555000D01*
X13380614Y7523556D01*
X13436077Y7382908D01*
X13527435Y7262436D01*
X13647908Y7171078D01*
X13703106Y7149311D01*
X13743833Y7109952D01*
X13744801Y7053324D01*
X13708463Y7013991D01*
X13701738Y7010704D01*
X13701734Y7010701D01*
X13614300Y6923267D01*
X13559993Y6812180D01*
X13549500Y6740166D01*
X13549500Y6369847D01*
X13549501Y6369835D01*
X13559993Y6297821D01*
X13614300Y6186734D01*
X13701734Y6099300D01*
X13812821Y6044993D01*
X13884839Y6034500D01*
X15355160Y6034501D01*
X15427179Y6044993D01*
X15538266Y6099300D01*
X15625700Y6186734D01*
X15628763Y6193001D01*
X15671214Y6230490D01*
X15695244Y6234500D01*
X16293414Y6234500D01*
X16345740Y6212826D01*
X16367414Y6160500D01*
X16361781Y6132182D01*
X16322147Y6036498D01*
X16322144Y6036488D01*
X16298300Y5916613D01*
X16298300Y5794388D01*
X16322144Y5674513D01*
X16322147Y5674503D01*
X16368918Y5561586D01*
X16416647Y5490154D01*
X16436826Y5459955D01*
X16523255Y5373526D01*
X16624883Y5305620D01*
X16737807Y5258846D01*
X16857686Y5235000D01*
X16857688Y5235000D01*
X16979912Y5235000D01*
X16979914Y5235000D01*
X17099793Y5258846D01*
X17212717Y5305620D01*
X17298388Y5362865D01*
X17353937Y5373913D01*
X17401029Y5342447D01*
X17413500Y5301335D01*
X17413500Y4599500D01*
X17391826Y4547174D01*
X17339500Y4525500D01*
X15525113Y4525500D01*
X15492613Y4533019D01*
X15427181Y4565007D01*
X15379167Y4572003D01*
X15355161Y4575500D01*
X15355160Y4575500D01*
X13884840Y4575500D01*
X13812819Y4565007D01*
X13747388Y4533019D01*
X13714888Y4525500D01*
X11704289Y4525500D01*
X11704273Y4525501D01*
X11699743Y4525501D01*
X11575858Y4525501D01*
X11575856Y4525501D01*
X11456196Y4493438D01*
X11348905Y4431494D01*
X9019814Y2102402D01*
X8981925Y2082150D01*
X8863812Y2058656D01*
X8863802Y2058653D01*
X8750885Y2011882D01*
X8649258Y1943977D01*
X8562823Y1857542D01*
X8494918Y1755915D01*
X8448147Y1642998D01*
X8448144Y1642988D01*
X8430333Y1553444D01*
X8424300Y1523114D01*
X3800051Y1523114D01*
X3765442Y1555437D01*
X3765440Y1555439D01*
X3541863Y1713256D01*
X3541856Y1713261D01*
X3428874Y1771803D01*
X3298864Y1839169D01*
X3298860Y1839171D01*
X3298856Y1839173D01*
X3040999Y1930816D01*
X3040981Y1930821D01*
X2773049Y1986498D01*
X2773029Y1986501D01*
X2500007Y2005175D01*
X2499993Y2005175D01*
X2226970Y1986501D01*
X2226950Y1986498D01*
X1959018Y1930821D01*
X1959000Y1930816D01*
X1701143Y1839173D01*
X1701138Y1839170D01*
X1458143Y1713261D01*
X1458136Y1713256D01*
X1234559Y1555439D01*
X1034540Y1368633D01*
X861838Y1156354D01*
X861826Y1156337D01*
X804980Y1062855D01*
X759274Y1029408D01*
X741753Y1027304D01*
X574500Y1027304D01*
X522174Y1048978D01*
X500500Y1101304D01*
X500500Y9221956D01*
X508760Y9241898D01*
X512971Y9263068D01*
X519273Y9267280D01*
X522174Y9274282D01*
X542116Y9282543D01*
X560063Y9294534D01*
X567497Y9293056D01*
X574500Y9295956D01*
X615612Y9283485D01*
X617471Y9282243D01*
X617473Y9282241D01*
X639613Y9267448D01*
X671078Y9220357D01*
X672500Y9205920D01*
X672500Y6169605D01*
X690568Y6102174D01*
X694341Y6088091D01*
X694343Y6088087D01*
X736533Y6015012D01*
X736534Y6015011D01*
X736536Y6015008D01*
X743139Y6008405D01*
X764813Y5956080D01*
X763391Y5941645D01*
X753500Y5891915D01*
X753500Y5891914D01*
X753500Y5769686D01*
X758510Y5744500D01*
X777344Y5649813D01*
X777347Y5649803D01*
X824118Y5536886D01*
X886293Y5443834D01*
X892026Y5435255D01*
X978455Y5348826D01*
X1080083Y5280920D01*
X1080084Y5280920D01*
X1080085Y5280919D01*
X1140784Y5255777D01*
X1193007Y5234146D01*
X1312886Y5210300D01*
X1312888Y5210300D01*
X1435112Y5210300D01*
X1435114Y5210300D01*
X1554993Y5234146D01*
X1667917Y5280920D01*
X1769545Y5348826D01*
X1855974Y5435255D01*
X1923880Y5536883D01*
X1970654Y5649807D01*
X1994500Y5769686D01*
X1994500Y5891914D01*
X1970654Y6011793D01*
X1969321Y6015012D01*
X1923881Y6124715D01*
X1918149Y6133293D01*
X1855974Y6226345D01*
X1769545Y6312774D01*
X1667917Y6380680D01*
X1667916Y6380681D01*
X1667914Y6380682D01*
X1554997Y6427453D01*
X1554987Y6427456D01*
X1474711Y6443424D01*
X1435114Y6451300D01*
X1435112Y6451300D01*
X1387500Y6451300D01*
X1335174Y6472974D01*
X1313500Y6525300D01*
X1313500Y9179169D01*
X1335174Y9231495D01*
X1346381Y9240693D01*
X1408563Y9282241D01*
X1494992Y9368670D01*
X1495680Y9369699D01*
X1523162Y9410828D01*
X1570254Y9442293D01*
X1584690Y9443715D01*
X1859725Y9443715D01*
X1912051Y9422041D01*
X1921253Y9410829D01*
X1930055Y9397655D01*
X2016484Y9311226D01*
X2118112Y9243320D01*
X2118113Y9243320D01*
X2118114Y9243319D01*
X2202473Y9208377D01*
X2231036Y9196546D01*
X2350915Y9172700D01*
X2350917Y9172700D01*
X2473141Y9172700D01*
X2473143Y9172700D01*
X2593022Y9196546D01*
X2705946Y9243320D01*
X2807574Y9311226D01*
X2894003Y9397655D01*
X2961909Y9499283D01*
X3008683Y9612207D01*
X3032529Y9732086D01*
X3032529Y9854314D01*
X3020898Y9912786D01*
X4700000Y9912786D01*
X4700000Y9790561D01*
X4723844Y9670686D01*
X4723847Y9670676D01*
X4770618Y9557759D01*
X4818820Y9485619D01*
X4838526Y9456128D01*
X4924955Y9369699D01*
X5026583Y9301793D01*
X5026584Y9301793D01*
X5026585Y9301792D01*
X5093001Y9274282D01*
X5139507Y9255019D01*
X5259386Y9231173D01*
X5259388Y9231173D01*
X5381612Y9231173D01*
X5381614Y9231173D01*
X5501493Y9255019D01*
X5614417Y9301793D01*
X5716045Y9369699D01*
X5802474Y9456128D01*
X5802882Y9456740D01*
X5830644Y9498286D01*
X5877736Y9529751D01*
X5892172Y9531173D01*
X9498460Y9531173D01*
X9539572Y9518702D01*
X9589083Y9485620D01*
X9702007Y9438846D01*
X9821886Y9415000D01*
X9821888Y9415000D01*
X9944112Y9415000D01*
X9944114Y9415000D01*
X10063993Y9438846D01*
X10176917Y9485620D01*
X10278545Y9553526D01*
X10364974Y9639955D01*
X10432880Y9741583D01*
X10479654Y9854507D01*
X10503500Y9974386D01*
X10503500Y10096614D01*
X10479654Y10216493D01*
X10467354Y10246189D01*
X10432881Y10329415D01*
X10430053Y10333647D01*
X10364974Y10431045D01*
X10278545Y10517474D01*
X10176917Y10585380D01*
X10176916Y10585381D01*
X10176914Y10585382D01*
X10063997Y10632153D01*
X10063987Y10632156D01*
X9983711Y10648124D01*
X9944114Y10656000D01*
X9821886Y10656000D01*
X9787901Y10649240D01*
X9702012Y10632156D01*
X9702002Y10632153D01*
X9589085Y10585382D01*
X9487458Y10517477D01*
X9401023Y10431042D01*
X9333118Y10329415D01*
X9286910Y10217855D01*
X9246862Y10177806D01*
X9218543Y10172173D01*
X5892172Y10172173D01*
X5839846Y10193847D01*
X5830644Y10205060D01*
X5802478Y10247213D01*
X5802476Y10247215D01*
X5802474Y10247218D01*
X5716045Y10333647D01*
X5614417Y10401553D01*
X5614416Y10401554D01*
X5614414Y10401555D01*
X5501497Y10448326D01*
X5501487Y10448329D01*
X5421211Y10464297D01*
X5381614Y10472173D01*
X5259386Y10472173D01*
X5225401Y10465413D01*
X5139512Y10448329D01*
X5139502Y10448326D01*
X5026585Y10401555D01*
X4924958Y10333650D01*
X4838523Y10247215D01*
X4770618Y10145588D01*
X4723847Y10032671D01*
X4723844Y10032661D01*
X4700000Y9912786D01*
X3020898Y9912786D01*
X3008683Y9974193D01*
X3008602Y9974388D01*
X2961910Y10087115D01*
X2913373Y10159755D01*
X2894003Y10188745D01*
X2807574Y10275174D01*
X2760606Y10306557D01*
X2705943Y10343082D01*
X2593026Y10389853D01*
X2593016Y10389856D01*
X2512740Y10405824D01*
X2473143Y10413700D01*
X2350915Y10413700D01*
X2316930Y10406940D01*
X2231041Y10389856D01*
X2231031Y10389853D01*
X2118114Y10343082D01*
X2016487Y10275177D01*
X2016484Y10275174D01*
X1930055Y10188745D01*
X1901219Y10145588D01*
X1882519Y10117602D01*
X1835426Y10086137D01*
X1820990Y10084715D01*
X1584690Y10084715D01*
X1532364Y10106389D01*
X1523162Y10117602D01*
X1494996Y10159755D01*
X1494994Y10159757D01*
X1494992Y10159760D01*
X1408563Y10246189D01*
X1407030Y10247213D01*
X1306932Y10314097D01*
X1194015Y10360868D01*
X1194005Y10360871D01*
X1113729Y10376839D01*
X1074132Y10384715D01*
X951904Y10384715D01*
X917919Y10377955D01*
X832030Y10360871D01*
X832020Y10360868D01*
X719103Y10314097D01*
X615612Y10244946D01*
X560063Y10233897D01*
X512971Y10265363D01*
X500500Y10306475D01*
X500500Y15035914D01*
X4715900Y15035914D01*
X4715900Y14913686D01*
X4721438Y14885847D01*
X4739744Y14793813D01*
X4739747Y14793803D01*
X4786518Y14680886D01*
X4786519Y14680884D01*
X4786520Y14680883D01*
X4854426Y14579255D01*
X4940855Y14492826D01*
X5042483Y14424920D01*
X5042484Y14424920D01*
X5042485Y14424919D01*
X5046476Y14423266D01*
X5155407Y14378146D01*
X5275286Y14354300D01*
X5275288Y14354300D01*
X5397511Y14354300D01*
X5397514Y14354300D01*
X5447242Y14364193D01*
X5502788Y14353145D01*
X5514004Y14343941D01*
X6228147Y13629798D01*
X6228152Y13629792D01*
X6230735Y13627209D01*
X6230736Y13627208D01*
X6290408Y13567536D01*
X6290410Y13567535D01*
X6290411Y13567534D01*
X6332893Y13543007D01*
X6363491Y13525341D01*
X6445005Y13503500D01*
X6445006Y13503500D01*
X6529394Y13503500D01*
X9186265Y13503500D01*
X9238591Y13481826D01*
X9254630Y13457823D01*
X9266120Y13430083D01*
X9334026Y13328455D01*
X9420455Y13242026D01*
X9522083Y13174120D01*
X9635007Y13127346D01*
X9754886Y13103500D01*
X9754888Y13103500D01*
X9877112Y13103500D01*
X9877114Y13103500D01*
X9996993Y13127346D01*
X10109917Y13174120D01*
X10211545Y13242026D01*
X10297974Y13328455D01*
X10365880Y13430083D01*
X10412654Y13543007D01*
X10436500Y13662886D01*
X10436500Y13785114D01*
X10412654Y13904993D01*
X10365880Y14017917D01*
X10297974Y14119545D01*
X10211545Y14205974D01*
X10160373Y14240166D01*
X10109914Y14273882D01*
X9996997Y14320653D01*
X9996987Y14320656D01*
X9916711Y14336624D01*
X9877114Y14344500D01*
X9754886Y14344500D01*
X9720901Y14337740D01*
X9635012Y14320656D01*
X9635002Y14320653D01*
X9522085Y14273882D01*
X9420458Y14205977D01*
X9380654Y14166173D01*
X9328329Y14144500D01*
X6650607Y14144500D01*
X6598281Y14166174D01*
X5967259Y14797196D01*
X5945585Y14849522D01*
X5947005Y14863946D01*
X5956900Y14913686D01*
X5956900Y15035914D01*
X5933054Y15155793D01*
X5886280Y15268717D01*
X5822300Y15364470D01*
X5819371Y15368853D01*
X5806900Y15409965D01*
X5806900Y15474174D01*
X5828574Y15526500D01*
X5880900Y15548174D01*
X5933224Y15526501D01*
X5956729Y15502996D01*
X6058357Y15435090D01*
X6058358Y15435090D01*
X6058359Y15435089D01*
X6125630Y15407225D01*
X6171281Y15388316D01*
X6291160Y15364470D01*
X6291162Y15364470D01*
X6413386Y15364470D01*
X6413388Y15364470D01*
X6433625Y15368496D01*
X6489174Y15357447D01*
X6500389Y15348244D01*
X6628775Y15219858D01*
X6693102Y15155531D01*
X6771886Y15110046D01*
X6859755Y15086501D01*
X6859756Y15086500D01*
X6859758Y15086500D01*
X6950730Y15086500D01*
X8108366Y15086500D01*
X8160692Y15064826D01*
X8179844Y15031656D01*
X8182260Y15022639D01*
X8182261Y15022636D01*
X8204784Y14968260D01*
X8204785Y14968258D01*
X8270608Y14854249D01*
X8270610Y14854247D01*
X8270612Y14854243D01*
X8306448Y14807540D01*
X8399540Y14714448D01*
X8446243Y14678612D01*
X8446247Y14678610D01*
X8446248Y14678609D01*
X8462448Y14669256D01*
X8560257Y14612786D01*
X8614642Y14590259D01*
X8741809Y14556184D01*
X8741812Y14556184D01*
X8741815Y14556183D01*
X8767714Y14552774D01*
X8800174Y14548500D01*
X8800176Y14548500D01*
X9431824Y14548500D01*
X9431826Y14548500D01*
X9476791Y14554420D01*
X9490184Y14556183D01*
X9490184Y14556184D01*
X9490191Y14556184D01*
X9617358Y14590259D01*
X9671743Y14612786D01*
X9785757Y14678612D01*
X9832460Y14714448D01*
X9925552Y14807540D01*
X9961388Y14854243D01*
X10027214Y14968257D01*
X10049741Y15022642D01*
X10083816Y15149809D01*
X10084605Y15155798D01*
X10088690Y15186829D01*
X10091500Y15208174D01*
X10091500Y15774000D01*
X10080463Y15843683D01*
X10056158Y15885781D01*
X10048766Y15941934D01*
X10050419Y15947284D01*
X10054007Y15957511D01*
X10072005Y15982281D01*
X10086298Y16049527D01*
X10087869Y16054003D01*
X10103833Y16071836D01*
X10117390Y16091561D01*
X10122973Y16093216D01*
X10125646Y16096200D01*
X10134748Y16096704D01*
X10157694Y16103500D01*
X10840461Y16103500D01*
X10892787Y16081826D01*
X11295826Y15678787D01*
X11317500Y15626461D01*
X11317500Y15355912D01*
X11295826Y15303586D01*
X11243500Y15281912D01*
X11215182Y15287544D01*
X11199240Y15294148D01*
X11119867Y15327024D01*
X11119862Y15327025D01*
X11119861Y15327026D01*
X11039585Y15342994D01*
X10999988Y15350870D01*
X10877760Y15350870D01*
X10843775Y15344110D01*
X10757886Y15327026D01*
X10757876Y15327023D01*
X10644959Y15280252D01*
X10543332Y15212347D01*
X10456897Y15125912D01*
X10388992Y15024285D01*
X10342221Y14911368D01*
X10342218Y14911358D01*
X10318374Y14791483D01*
X10318374Y14669258D01*
X10342218Y14549383D01*
X10342221Y14549373D01*
X10388992Y14436456D01*
X10388993Y14436454D01*
X10388994Y14436453D01*
X10456900Y14334825D01*
X10543329Y14248396D01*
X10644957Y14180490D01*
X10644958Y14180490D01*
X10644959Y14180489D01*
X10731846Y14144500D01*
X10757881Y14133716D01*
X10808416Y14123664D01*
X10855508Y14092199D01*
X10867980Y14051086D01*
X10867980Y8403763D01*
X10846306Y8351437D01*
X10787019Y8292151D01*
X10741534Y8213367D01*
X10717989Y8125498D01*
X10717989Y6993500D01*
X10696315Y6941174D01*
X10643989Y6919500D01*
X10046984Y6919500D01*
X9994658Y6941174D01*
X9982898Y6956501D01*
X9961394Y6993748D01*
X9961393Y6993750D01*
X9961388Y6993757D01*
X9925552Y7040460D01*
X9832460Y7133552D01*
X9785757Y7169388D01*
X9785753Y7169390D01*
X9785751Y7169392D01*
X9671742Y7235215D01*
X9671740Y7235216D01*
X9617364Y7257739D01*
X9617351Y7257743D01*
X9490193Y7291816D01*
X9490184Y7291818D01*
X9443276Y7297993D01*
X9431826Y7299500D01*
X9431824Y7299500D01*
X9113015Y7299500D01*
X9060689Y7321174D01*
X9039015Y7373500D01*
X9051486Y7414612D01*
X9086680Y7467283D01*
X9133454Y7580207D01*
X9157300Y7700086D01*
X9157300Y7822314D01*
X9133454Y7942193D01*
X9089171Y8049103D01*
X9086681Y8055115D01*
X9068917Y8081700D01*
X9018774Y8156745D01*
X8932345Y8243174D01*
X8930474Y8244424D01*
X8830714Y8311082D01*
X8717797Y8357853D01*
X8717787Y8357856D01*
X8637511Y8373824D01*
X8597914Y8381700D01*
X8475686Y8381700D01*
X8432507Y8373111D01*
X8368619Y8360403D01*
X8313070Y8371452D01*
X8281604Y8418544D01*
X8285814Y8461297D01*
X8320654Y8545407D01*
X8344500Y8665286D01*
X8344500Y8787514D01*
X8320654Y8907393D01*
X8273880Y9020317D01*
X8205974Y9121945D01*
X8119545Y9208374D01*
X8104058Y9218722D01*
X8017914Y9276282D01*
X7904997Y9323053D01*
X7904987Y9323056D01*
X7823024Y9339359D01*
X7785114Y9346900D01*
X7662886Y9346900D01*
X7628901Y9340140D01*
X7543012Y9323056D01*
X7543002Y9323053D01*
X7430085Y9276282D01*
X7328458Y9208377D01*
X7328457Y9208376D01*
X7242028Y9121948D01*
X7242026Y9121945D01*
X7230560Y9104787D01*
X7183469Y9073322D01*
X7169033Y9071900D01*
X6142812Y9071900D01*
X6054942Y9048355D01*
X5976158Y9002870D01*
X5840114Y8866827D01*
X5787787Y8845153D01*
X5773355Y8846574D01*
X5753114Y8850600D01*
X5630886Y8850600D01*
X5603503Y8845153D01*
X5511012Y8826756D01*
X5511002Y8826753D01*
X5398085Y8779982D01*
X5296458Y8712077D01*
X5210023Y8625642D01*
X5142118Y8524015D01*
X5095347Y8411098D01*
X5095344Y8411088D01*
X5082798Y8348013D01*
X5071687Y8292151D01*
X5071500Y8291213D01*
X5071500Y8168988D01*
X5095344Y8049113D01*
X5095347Y8049103D01*
X5142118Y7936186D01*
X5199780Y7849888D01*
X5210026Y7834555D01*
X5296455Y7748126D01*
X5398083Y7680220D01*
X5398084Y7680220D01*
X5398085Y7680219D01*
X5511002Y7633448D01*
X5511007Y7633446D01*
X5630886Y7609600D01*
X5630888Y7609600D01*
X5753112Y7609600D01*
X5753114Y7609600D01*
X5812413Y7621396D01*
X5867961Y7610347D01*
X5899427Y7563255D01*
X5923344Y7443013D01*
X5923347Y7443003D01*
X5970118Y7330086D01*
X6033509Y7235214D01*
X6038026Y7228455D01*
X6124455Y7142026D01*
X6226083Y7074120D01*
X6226084Y7074120D01*
X6226085Y7074119D01*
X6339002Y7027348D01*
X6339007Y7027346D01*
X6458886Y7003500D01*
X6458888Y7003500D01*
X6581112Y7003500D01*
X6581114Y7003500D01*
X6700993Y7027346D01*
X6813917Y7074120D01*
X6915545Y7142026D01*
X7001974Y7228455D01*
X7069880Y7330083D01*
X7096776Y7395019D01*
X7136823Y7435067D01*
X7165143Y7440700D01*
X7965128Y7440700D01*
X8017454Y7419026D01*
X8026656Y7407813D01*
X8054821Y7365661D01*
X8054823Y7365659D01*
X8054826Y7365655D01*
X8141255Y7279226D01*
X8242883Y7211320D01*
X8242884Y7211320D01*
X8242885Y7211319D01*
X8306327Y7185041D01*
X8346376Y7144993D01*
X8346376Y7088356D01*
X8330336Y7064349D01*
X8306449Y7040462D01*
X8270608Y6993752D01*
X8204785Y6879743D01*
X8204784Y6879741D01*
X8182261Y6825365D01*
X8182257Y6825352D01*
X8148184Y6698194D01*
X8148182Y6698185D01*
X8140500Y6639825D01*
X8140500Y6074000D01*
X8151537Y6004315D01*
X8175841Y5962219D01*
X8183233Y5906067D01*
X8171624Y5881726D01*
X8159995Y5865720D01*
X8159994Y5865718D01*
X8140500Y5774000D01*
X8140500Y5208176D01*
X8148182Y5149816D01*
X8148184Y5149807D01*
X8182257Y5022649D01*
X8182261Y5022636D01*
X8204784Y4968260D01*
X8204785Y4968258D01*
X8270608Y4854249D01*
X8270610Y4854247D01*
X8270612Y4854243D01*
X8306448Y4807540D01*
X8399540Y4714448D01*
X8446243Y4678612D01*
X8560257Y4612786D01*
X8614642Y4590259D01*
X8641862Y4582966D01*
X8686793Y4548488D01*
X8694186Y4492335D01*
X8684236Y4470377D01*
X8649897Y4418986D01*
X8649896Y4418983D01*
X8603124Y4306064D01*
X8603121Y4306054D01*
X8579277Y4186179D01*
X8579277Y4063954D01*
X8603121Y3944079D01*
X8603124Y3944069D01*
X8649895Y3831152D01*
X8693357Y3766106D01*
X8717803Y3729521D01*
X8804232Y3643092D01*
X8905860Y3575186D01*
X8905861Y3575186D01*
X8905862Y3575185D01*
X9004086Y3534500D01*
X9018784Y3528412D01*
X9138663Y3504566D01*
X9138665Y3504566D01*
X9260889Y3504566D01*
X9260891Y3504566D01*
X9380770Y3528412D01*
X9493694Y3575186D01*
X9595322Y3643092D01*
X9681751Y3729521D01*
X9749657Y3831149D01*
X9796431Y3944073D01*
X9820277Y4063952D01*
X9820277Y4186180D01*
X9796431Y4306059D01*
X9793831Y4312336D01*
X9788200Y4340649D01*
X9788200Y4643994D01*
X9788587Y4644929D01*
X9788224Y4645873D01*
X9792272Y4653827D01*
X9809874Y4696320D01*
X9811220Y4697632D01*
X9814050Y4700323D01*
X9832460Y4714448D01*
X9900497Y4782486D01*
X9901184Y4783138D01*
X9926801Y4792995D01*
X9952164Y4803500D01*
X10827945Y4803500D01*
X10827945Y4803501D01*
X10947606Y4835564D01*
X10979959Y4854243D01*
X11054894Y4897506D01*
X11142494Y4985106D01*
X11142495Y4985109D01*
X11956253Y5798865D01*
X12375274Y5798865D01*
X12375274Y5676637D01*
X12375945Y5673266D01*
X12399118Y5556764D01*
X12399121Y5556754D01*
X12445892Y5443837D01*
X12509376Y5348826D01*
X12513800Y5342206D01*
X12600229Y5255777D01*
X12701857Y5187871D01*
X12814781Y5141097D01*
X12934660Y5117251D01*
X12934662Y5117251D01*
X13056887Y5117251D01*
X13056888Y5117251D01*
X13106615Y5127143D01*
X13162164Y5116094D01*
X13173377Y5106891D01*
X13231732Y5048537D01*
X13231733Y5048536D01*
X13304816Y5006341D01*
X13386330Y4984500D01*
X13544756Y4984500D01*
X13597082Y4962826D01*
X13611235Y4943003D01*
X13614300Y4936734D01*
X13701734Y4849300D01*
X13812821Y4794993D01*
X13884839Y4784500D01*
X15355160Y4784501D01*
X15427179Y4794993D01*
X15538266Y4849300D01*
X15625700Y4936734D01*
X15680007Y5047821D01*
X15690500Y5119839D01*
X15690499Y5490160D01*
X15680007Y5562179D01*
X15625700Y5673266D01*
X15538266Y5760700D01*
X15427179Y5815007D01*
X15355161Y5825500D01*
X15355160Y5825500D01*
X13884840Y5825500D01*
X13812819Y5815007D01*
X13717096Y5768211D01*
X13660568Y5764702D01*
X13618115Y5802192D01*
X13612020Y5820250D01*
X13592428Y5918744D01*
X13566875Y5980436D01*
X13545655Y6031666D01*
X13545654Y6031668D01*
X13477748Y6133296D01*
X13391319Y6219725D01*
X13378186Y6228500D01*
X13289688Y6287633D01*
X13176771Y6334404D01*
X13176761Y6334407D01*
X13096485Y6350375D01*
X13056888Y6358251D01*
X12934660Y6358251D01*
X12900675Y6351491D01*
X12814786Y6334407D01*
X12814776Y6334404D01*
X12701859Y6287633D01*
X12600232Y6219728D01*
X12513797Y6133293D01*
X12445892Y6031666D01*
X12399121Y5918749D01*
X12399118Y5918739D01*
X12388572Y5865719D01*
X12375274Y5798865D01*
X11956253Y5798865D01*
X12164494Y6007106D01*
X12226436Y6114394D01*
X12258499Y6234055D01*
X12258500Y6234055D01*
X12258500Y7072036D01*
X12270970Y7113147D01*
X12337880Y7213283D01*
X12384654Y7326207D01*
X12408500Y7446086D01*
X12408500Y7568314D01*
X12384654Y7688193D01*
X12337880Y7801117D01*
X12270971Y7901253D01*
X12258500Y7942365D01*
X12258500Y8055001D01*
X13376838Y8055001D01*
X13376839Y8055000D01*
X14370000Y8055000D01*
X14370000Y8505000D01*
X13876939Y8505000D01*
X13788556Y8494386D01*
X13647907Y8438923D01*
X13527435Y8347565D01*
X13436077Y8227093D01*
X13380614Y8086445D01*
X13376838Y8055001D01*
X12258500Y8055001D01*
X12258500Y15428936D01*
X12450878Y15428936D01*
X12450878Y15306708D01*
X12456141Y15280252D01*
X12474722Y15186835D01*
X12474725Y15186825D01*
X12521496Y15073908D01*
X12546883Y15035913D01*
X12589404Y14972277D01*
X12675833Y14885848D01*
X12777461Y14817942D01*
X12777462Y14817942D01*
X12777463Y14817941D01*
X12858196Y14784501D01*
X12890385Y14771168D01*
X13010264Y14747322D01*
X13010266Y14747322D01*
X13132490Y14747322D01*
X13132492Y14747322D01*
X13252371Y14771168D01*
X13365295Y14817942D01*
X13466923Y14885848D01*
X13513729Y14932655D01*
X13566054Y14954328D01*
X13618380Y14932654D01*
X13701734Y14849300D01*
X13812821Y14794993D01*
X13884839Y14784500D01*
X15355160Y14784501D01*
X15427179Y14794993D01*
X15538266Y14849300D01*
X15625700Y14936734D01*
X15680007Y15047821D01*
X15690500Y15119839D01*
X15690499Y15490160D01*
X15680007Y15562179D01*
X15625700Y15673266D01*
X15538266Y15760700D01*
X15427179Y15815007D01*
X15355161Y15825500D01*
X15355160Y15825500D01*
X13884840Y15825500D01*
X13812819Y15815007D01*
X13701734Y15760701D01*
X13677612Y15736579D01*
X13625286Y15714906D01*
X13572960Y15736581D01*
X13563759Y15747793D01*
X13553354Y15763364D01*
X13553351Y15763368D01*
X13517545Y15799174D01*
X13466923Y15849796D01*
X13444432Y15864824D01*
X13365292Y15917704D01*
X13252375Y15964475D01*
X13252365Y15964478D01*
X13162861Y15982281D01*
X13132492Y15988322D01*
X13010264Y15988322D01*
X12979895Y15982281D01*
X12890390Y15964478D01*
X12890380Y15964475D01*
X12777463Y15917704D01*
X12675836Y15849799D01*
X12589401Y15763364D01*
X12521496Y15661737D01*
X12474725Y15548820D01*
X12474722Y15548810D01*
X12454816Y15448735D01*
X12450878Y15428936D01*
X12258500Y15428936D01*
X12258500Y15913945D01*
X12258499Y15913946D01*
X12226437Y16033604D01*
X12214660Y16054003D01*
X12164494Y16140894D01*
X12076894Y16228494D01*
X12076893Y16228495D01*
X11446713Y16858674D01*
X11446712Y16858676D01*
X11354894Y16950494D01*
X11247603Y17012438D01*
X11127945Y17044500D01*
X11127943Y17044500D01*
X9952164Y17044500D01*
X9899838Y17066174D01*
X9832461Y17133551D01*
X9811922Y17149311D01*
X9785757Y17169388D01*
X9785753Y17169390D01*
X9785751Y17169392D01*
X9671742Y17235215D01*
X9671740Y17235216D01*
X9617364Y17257739D01*
X9617351Y17257743D01*
X9490193Y17291816D01*
X9490184Y17291818D01*
X9443276Y17297993D01*
X9431826Y17299500D01*
X9431824Y17299500D01*
X8836539Y17299500D01*
X8784213Y17321174D01*
X8746714Y17358673D01*
X8746712Y17358676D01*
X8654892Y17450496D01*
X8652493Y17451881D01*
X8651643Y17452989D01*
X8651047Y17453446D01*
X8651169Y17453606D01*
X8618019Y17496818D01*
X8615500Y17515963D01*
X8615500Y18059836D01*
X8627970Y18100947D01*
X8694880Y18201083D01*
X8741654Y18314007D01*
X8765500Y18433886D01*
X8765500Y18556114D01*
X8741654Y18675993D01*
X8694880Y18788917D01*
X8626974Y18890545D01*
X8540545Y18976974D01*
X8438917Y19044880D01*
X8438916Y19044881D01*
X8438914Y19044882D01*
X8325997Y19091653D01*
X8325987Y19091656D01*
X8245711Y19107624D01*
X8206114Y19115500D01*
X8083886Y19115500D01*
X8049901Y19108740D01*
X7964012Y19091656D01*
X7964002Y19091653D01*
X7851085Y19044882D01*
X7749458Y18976977D01*
X7663023Y18890542D01*
X7595118Y18788915D01*
X7548347Y18675998D01*
X7548344Y18675988D01*
X7524500Y18556113D01*
X7524500Y18433888D01*
X7548344Y18314013D01*
X7548347Y18314003D01*
X7595118Y18201086D01*
X7595119Y18201084D01*
X7595120Y18201083D01*
X7662029Y18100947D01*
X7674500Y18059836D01*
X7674500Y17618500D01*
X7652826Y17566174D01*
X7600500Y17544500D01*
X6102664Y17544500D01*
X5983005Y17512438D01*
X5983000Y17512436D01*
X5875714Y17450494D01*
X4959906Y16534686D01*
X4897962Y16427395D01*
X4865900Y16307737D01*
X4865900Y15409965D01*
X4853429Y15368853D01*
X4786518Y15268715D01*
X4739747Y15155798D01*
X4739744Y15155788D01*
X4723457Y15073905D01*
X4715900Y15035914D01*
X500500Y15035914D01*
X500500Y19225881D01*
X522174Y19278207D01*
X574500Y19299881D01*
X626826Y19278207D01*
X642372Y19255366D01*
X706222Y19108368D01*
X719634Y19077491D01*
X719639Y19077481D01*
X861826Y18843664D01*
X861838Y18843647D01*
X1034540Y18631368D01*
X1034544Y18631364D01*
X1034546Y18631362D01*
X1234558Y18444563D01*
X1458143Y18286740D01*
X1701136Y18160831D01*
X1701140Y18160830D01*
X1701143Y18160828D01*
X1959000Y18069185D01*
X1959007Y18069184D01*
X1959010Y18069182D01*
X1959013Y18069182D01*
X1959018Y18069180D01*
X2226950Y18013503D01*
X2226958Y18013502D01*
X2226962Y18013501D01*
X2226964Y18013501D01*
X2226970Y18013500D01*
X2499993Y17994825D01*
X2500000Y17994825D01*
X2500007Y17994825D01*
X2773029Y18013500D01*
X2773033Y18013501D01*
X2773038Y18013501D01*
X2773044Y18013503D01*
X2773049Y18013503D01*
X3040981Y18069180D01*
X3040982Y18069181D01*
X3040990Y18069182D01*
X3040996Y18069185D01*
X3040999Y18069185D01*
X3298856Y18160828D01*
X3298856Y18160829D01*
X3298864Y18160831D01*
X3541857Y18286740D01*
X3765442Y18444563D01*
X3965454Y18631362D01*
X4138168Y18843655D01*
X4280365Y19077489D01*
X4389398Y19328508D01*
X4422168Y19445466D01*
X4457156Y19490003D01*
X4493424Y19499500D01*
X10506576Y19499500D01*
X10524057Y19492260D01*
G37*
%TD.AperFunction*%
%TD*%
M02*
