%TF.GenerationSoftware,KiCad,Pcbnew,9.0.1+1*%
%TF.CreationDate,2025-10-02T16:49:50+00:00*%
%TF.ProjectId,TFI2CADC01,54464932-4341-4444-9330-312e6b696361,rev?*%
%TF.SameCoordinates,PX7cee6c0PY700e860*%
%TF.FileFunction,Profile,NP*%
%FSLAX46Y46*%
G04 Gerber Fmt 4.6, Leading zero omitted, Abs format (unit mm)*
G04 Created by KiCad (PCBNEW 9.0.1+1) date 2025-10-02 16:49:50*
%MOMM*%
%LPD*%
G01*
G04 APERTURE LIST*
%TA.AperFunction,Profile*%
%ADD10C,0.150000*%
%TD*%
%TA.AperFunction,Profile*%
%ADD11C,0.050000*%
%TD*%
G04 APERTURE END LIST*
D10*
X11000000Y0D02*
X4000000Y0D01*
X1000000Y0D02*
X0Y0D01*
X1000000Y0D02*
G75*
G02*
X4000000Y0I1500000J0D01*
G01*
X31000000Y0D02*
G75*
G02*
X34000000Y0I1500000J0D01*
G01*
X14000000Y25000000D02*
X21000000Y25000000D01*
X24000000Y25000000D02*
G75*
G02*
X21000000Y25000000I-1500000J0D01*
G01*
X24000000Y25000000D02*
X31000000Y25000000D01*
X21000000Y0D02*
X14000000Y0D01*
X34000000Y25000000D02*
G75*
G02*
X31000000Y25000000I-1500000J0D01*
G01*
X11000000Y0D02*
G75*
G02*
X14000000Y0I1500000J0D01*
G01*
X4000000Y25000000D02*
G75*
G02*
X1000000Y25000000I-1500000J0D01*
G01*
X35000000Y0D02*
X34000000Y0D01*
X4000000Y25000000D02*
X11000000Y25000000D01*
X0Y25000000D02*
X1000000Y25000000D01*
X0Y0D02*
X0Y25000000D01*
X31000000Y0D02*
X24000000Y0D01*
X14000000Y25000000D02*
G75*
G02*
X11000000Y25000000I-1500000J0D01*
G01*
X21000000Y0D02*
G75*
G02*
X24000000Y0I1500000J0D01*
G01*
X34000000Y25000000D02*
X35000000Y25000000D01*
X35000000Y25000000D02*
X35000000Y0D01*
D11*
%TO.C,D3*%
X8400000Y-20800000D02*
X8400000Y-22200000D01*
X8700000Y-22500000D02*
X10300000Y-22500000D01*
X10300000Y-20500000D02*
X8700000Y-20500000D01*
X10600000Y-22200000D02*
X10600000Y-20800000D01*
X8400000Y-20800000D02*
G75*
G02*
X8700000Y-20500000I300000J0D01*
G01*
X8700000Y-22500000D02*
G75*
G02*
X8400000Y-22200000I0J300000D01*
G01*
X10300000Y-20500000D02*
G75*
G02*
X10600000Y-20800000I0J-300000D01*
G01*
X10600000Y-22200000D02*
G75*
G02*
X10300000Y-22500000I-300000J0D01*
G01*
%TO.C,D1*%
X-51400000Y-22300000D02*
X-51400000Y-23700000D01*
X-51100000Y-24000000D02*
X-49500000Y-24000000D01*
X-49500000Y-22000000D02*
X-51100000Y-22000000D01*
X-49200000Y-23700000D02*
X-49200000Y-22300000D01*
X-51400000Y-22300000D02*
G75*
G02*
X-51100000Y-22000000I300000J0D01*
G01*
X-51100000Y-24000000D02*
G75*
G02*
X-51400000Y-23700000I0J300000D01*
G01*
X-49500000Y-22000000D02*
G75*
G02*
X-49200000Y-22300000I0J-300000D01*
G01*
X-49200000Y-23700000D02*
G75*
G02*
X-49500000Y-24000000I-300000J0D01*
G01*
%TD*%
M02*
