%TF.GenerationSoftware,KiCad,Pcbnew,9.0.1+1*%
%TF.CreationDate,2025-10-12T19:03:11+00:00*%
%TF.ProjectId,TFI2CADC01,54464932-4341-4444-9330-312e6b696361,rev?*%
%TF.SameCoordinates,PX81b3200PY6b49d20*%
%TF.FileFunction,Copper,L2,Bot*%
%TF.FilePolarity,Positive*%
%FSLAX46Y46*%
G04 Gerber Fmt 4.6, Leading zero omitted, Abs format (unit mm)*
G04 Created by KiCad (PCBNEW 9.0.1+1) date 2025-10-12 19:03:11*
%MOMM*%
%LPD*%
G01*
G04 APERTURE LIST*
G04 Aperture macros list*
%AMRoundRect*
0 Rectangle with rounded corners*
0 $1 Rounding radius*
0 $2 $3 $4 $5 $6 $7 $8 $9 X,Y pos of 4 corners*
0 Add a 4 corners polygon primitive as box body*
4,1,4,$2,$3,$4,$5,$6,$7,$8,$9,$2,$3,0*
0 Add four circle primitives for the rounded corners*
1,1,$1+$1,$2,$3*
1,1,$1+$1,$4,$5*
1,1,$1+$1,$6,$7*
1,1,$1+$1,$8,$9*
0 Add four rect primitives between the rounded corners*
20,1,$1+$1,$2,$3,$4,$5,0*
20,1,$1+$1,$4,$5,$6,$7,0*
20,1,$1+$1,$6,$7,$8,$9,0*
20,1,$1+$1,$8,$9,$2,$3,0*%
G04 Aperture macros list end*
%TA.AperFunction,EtchedComponent*%
%ADD10C,0.000000*%
%TD*%
%TA.AperFunction,SMDPad,CuDef*%
%ADD11R,2.510000X1.000000*%
%TD*%
%TA.AperFunction,SMDPad,CuDef*%
%ADD12R,1.500000X1.000000*%
%TD*%
%TA.AperFunction,SMDPad,CuDef*%
%ADD13RoundRect,0.250000X-1.450000X-0.650000X1.450000X-0.650000X1.450000X0.650000X-1.450000X0.650000X0*%
%TD*%
%TA.AperFunction,SMDPad,CuDef*%
%ADD14R,0.889000X1.397000*%
%TD*%
%TA.AperFunction,SMDPad,CuDef*%
%ADD15RoundRect,0.150000X0.700000X-0.150000X0.700000X0.150000X-0.700000X0.150000X-0.700000X-0.150000X0*%
%TD*%
%TA.AperFunction,SMDPad,CuDef*%
%ADD16RoundRect,0.250000X1.100000X-0.250000X1.100000X0.250000X-1.100000X0.250000X-1.100000X-0.250000X0*%
%TD*%
%TA.AperFunction,ViaPad*%
%ADD17C,0.600000*%
%TD*%
%TA.AperFunction,ViaPad*%
%ADD18C,0.800000*%
%TD*%
%TA.AperFunction,Conductor*%
%ADD19C,0.400000*%
%TD*%
%TA.AperFunction,Conductor*%
%ADD20C,0.500000*%
%TD*%
%TA.AperFunction,Conductor*%
%ADD21C,0.300000*%
%TD*%
G04 APERTURE END LIST*
D10*
%TA.AperFunction,EtchedComponent*%
%TO.C,JP1*%
G36*
X14100000Y7260000D02*
G01*
X13500000Y7260000D01*
X13500000Y7760000D01*
X14100000Y7760000D01*
X14100000Y7260000D01*
G37*
%TD.AperFunction*%
%TD*%
D11*
%TO.P,J1,2*%
%TO.N,GND*%
X23400000Y11350000D03*
%TO.P,J1,4*%
%TO.N,/AIN2*%
X23400000Y8810000D03*
%TO.P,J1,6*%
%TO.N,/AIN3*%
X23400000Y6270000D03*
%TO.P,J1,8*%
%TO.N,GND*%
X23400000Y3730000D03*
%TD*%
D12*
%TO.P,JP2,1,A*%
%TO.N,/ADDR*%
X11200000Y6860000D03*
%TO.P,JP2,2,B*%
%TO.N,/SCL*%
X11200000Y8160000D03*
%TD*%
D13*
%TO.P,T1,1,1*%
%TO.N,/ALERT{slash}RDY*%
X19380000Y3310000D03*
%TD*%
D14*
%TO.P,D3,1,K*%
%TO.N,/ALERT{slash}RDY*%
X8802500Y2900000D03*
%TO.P,D3,2,A*%
%TO.N,Net-(D3-A)*%
X6897500Y2900000D03*
%TD*%
D15*
%TO.P,J3,1*%
%TO.N,+5V*%
X4825000Y5625000D03*
%TO.P,J3,2*%
%TO.N,/SCL*%
X4825000Y6875000D03*
%TO.P,J3,3*%
%TO.N,/SDA*%
X4825000Y8125000D03*
%TO.P,J3,4*%
%TO.N,GND*%
X4825000Y9375000D03*
D16*
%TO.P,J3,MP*%
X1625000Y3775000D03*
X1625000Y11225000D03*
%TD*%
D12*
%TO.P,JP1,1,A*%
%TO.N,GND*%
X13800000Y8160000D03*
%TO.P,JP1,2,C*%
%TO.N,/ADDR*%
X13800000Y6860000D03*
%TO.P,JP1,3,B*%
%TO.N,+3V3*%
X13800000Y5560000D03*
%TD*%
D14*
%TO.P,D1,1,K*%
%TO.N,GND*%
X8800000Y12100000D03*
%TO.P,D1,2,A*%
%TO.N,Net-(D1-A)*%
X6895000Y12100000D03*
%TD*%
D17*
%TO.N,GND*%
X23880000Y10090000D03*
D18*
X1550000Y5150000D03*
X4450000Y13300000D03*
X8050000Y7700000D03*
X15700000Y1100000D03*
X18600000Y13900000D03*
X4400000Y1950000D03*
X11557000Y10236200D03*
X1400000Y9800000D03*
D17*
X21050000Y12710000D03*
D18*
X15650000Y3850000D03*
D17*
X22500000Y5060000D03*
D18*
X16200000Y13900000D03*
X12600000Y12450000D03*
D17*
X21070000Y10090000D03*
X10050000Y5900000D03*
D18*
X14800000Y12450000D03*
D17*
X22520000Y2500000D03*
D18*
%TO.N,+3V3*%
X13790000Y3920000D03*
%TO.N,+5V*%
X3125000Y9375000D03*
%TO.N,Net-(D1-A)*%
X5700000Y12100000D03*
%TO.N,Net-(D3-A)*%
X5600000Y2900000D03*
D17*
%TO.N,/AIN3*%
X18059400Y8051800D03*
%TO.N,/AIN2*%
X16860000Y8810000D03*
D18*
%TO.N,/ALERT{slash}RDY*%
X19390000Y1660000D03*
X10770000Y2590000D03*
%TO.N,/SDA*%
X3175000Y6875000D03*
X16592400Y11207600D03*
%TO.N,/SCL*%
X6640000Y6900000D03*
X19600000Y9610000D03*
D17*
%TO.N,/ADDR*%
X20630000Y5050000D03*
%TD*%
D19*
%TO.N,GND*%
X1620000Y11220000D02*
X1625000Y11225000D01*
X1620000Y3780000D02*
X1625000Y3775000D01*
%TO.N,+3V3*%
X13790000Y3920000D02*
X13790000Y5550000D01*
X13790000Y5550000D02*
X13800000Y5560000D01*
D20*
%TO.N,+5V*%
X2975000Y5625000D02*
X4825000Y5625000D01*
X3075000Y9425000D02*
X2075000Y8425000D01*
X3125000Y9375000D02*
X3075000Y9425000D01*
X2075000Y8425000D02*
X2075000Y6525000D01*
X2075000Y6525000D02*
X2975000Y5625000D01*
D19*
%TO.N,Net-(D1-A)*%
X5700000Y12100000D02*
X6895000Y12100000D01*
%TO.N,Net-(D3-A)*%
X5600000Y2900000D02*
X6897500Y2900000D01*
D21*
%TO.N,/AIN3*%
X22736800Y6270000D02*
X20955000Y8051800D01*
X23400000Y6270000D02*
X22736800Y6270000D01*
X20955000Y8051800D02*
X18059400Y8051800D01*
%TO.N,/AIN2*%
X16860000Y8810000D02*
X23400000Y8810000D01*
D19*
%TO.N,/ALERT{slash}RDY*%
X10460000Y2900000D02*
X10770000Y2590000D01*
X19380000Y1670000D02*
X19390000Y1660000D01*
X8802500Y2900000D02*
X10460000Y2900000D01*
X19380000Y3310000D02*
X19380000Y1670000D01*
%TO.N,/SDA*%
X3505000Y8125000D02*
X4825000Y8125000D01*
X3175000Y6875000D02*
X3175000Y7795000D01*
X10401800Y11226800D02*
X16573200Y11226800D01*
X7300000Y8125000D02*
X10401800Y11226800D01*
X3175000Y7795000D02*
X3505000Y8125000D01*
X4825000Y8125000D02*
X7300000Y8125000D01*
X16573200Y11226800D02*
X16592400Y11207600D01*
%TO.N,/SCL*%
X6325000Y6875000D02*
X4825000Y6875000D01*
X11165000Y8125000D02*
X11200000Y8160000D01*
X6640000Y6900000D02*
X8957400Y6900000D01*
X8957400Y6900000D02*
X10217400Y8160000D01*
X12650000Y9610000D02*
X19600000Y9610000D01*
X11200000Y8160000D02*
X12650000Y9610000D01*
X10217400Y8160000D02*
X11200000Y8160000D01*
D21*
%TO.N,/ADDR*%
X13800000Y6860000D02*
X14750000Y6860000D01*
X14750000Y6860000D02*
X16560000Y5050000D01*
X16560000Y5050000D02*
X20630000Y5050000D01*
D19*
X11200000Y6860000D02*
X13800000Y6860000D01*
%TD*%
%TA.AperFunction,Conductor*%
%TO.N,GND*%
G36*
X10535699Y14479815D02*
G01*
X10581454Y14427011D01*
X10588062Y14408955D01*
X10610603Y14328504D01*
X10719634Y14077491D01*
X10719633Y14077491D01*
X10861829Y13843659D01*
X11034542Y13631366D01*
X11234560Y13444561D01*
X11458135Y13286745D01*
X11458141Y13286741D01*
X11458143Y13286740D01*
X11701136Y13160831D01*
X11701139Y13160830D01*
X11959004Y13069184D01*
X11959020Y13069179D01*
X12149255Y13029649D01*
X12226960Y13013502D01*
X12226961Y13013501D01*
X12244441Y13012306D01*
X12500000Y12994825D01*
X12773038Y13013501D01*
X12893620Y13038559D01*
X13040979Y13069179D01*
X13040985Y13069182D01*
X13040990Y13069182D01*
X13298864Y13160831D01*
X13541857Y13286740D01*
X13765442Y13444563D01*
X13965454Y13631362D01*
X14138168Y13843655D01*
X14280365Y14077489D01*
X14286226Y14090981D01*
X14389396Y14328504D01*
X14389398Y14328508D01*
X14411938Y14408956D01*
X14448980Y14468197D01*
X14512170Y14498009D01*
X14531340Y14499500D01*
X20468660Y14499500D01*
X20535699Y14479815D01*
X20581454Y14427011D01*
X20588062Y14408955D01*
X20610603Y14328504D01*
X20719634Y14077491D01*
X20719633Y14077491D01*
X20861829Y13843659D01*
X21034542Y13631366D01*
X21234560Y13444561D01*
X21458135Y13286745D01*
X21458141Y13286741D01*
X21458143Y13286740D01*
X21701136Y13160831D01*
X21701139Y13160830D01*
X21959004Y13069184D01*
X21959020Y13069179D01*
X22149255Y13029649D01*
X22226960Y13013502D01*
X22226961Y13013501D01*
X22244441Y13012306D01*
X22500000Y12994825D01*
X22773038Y13013501D01*
X22893620Y13038559D01*
X23040979Y13069179D01*
X23040985Y13069182D01*
X23040990Y13069182D01*
X23298864Y13160831D01*
X23541857Y13286740D01*
X23765442Y13444563D01*
X23965454Y13631362D01*
X24138168Y13843655D01*
X24269552Y14059709D01*
X24321203Y14106760D01*
X24390093Y14118418D01*
X24454350Y14090981D01*
X24493573Y14033159D01*
X24499500Y13995280D01*
X24499500Y9734500D01*
X24479815Y9667461D01*
X24427011Y9621706D01*
X24375500Y9610500D01*
X22100143Y9610500D01*
X22100117Y9610498D01*
X22075012Y9607587D01*
X22075008Y9607585D01*
X21972235Y9562207D01*
X21892794Y9482766D01*
X21847415Y9379994D01*
X21847415Y9379992D01*
X21846280Y9370208D01*
X21818999Y9305884D01*
X21761273Y9266520D01*
X21723106Y9260500D01*
X20395798Y9260500D01*
X20328759Y9280185D01*
X20283004Y9332989D01*
X20273060Y9402147D01*
X20274181Y9408692D01*
X20300500Y9541005D01*
X20300500Y9678996D01*
X20273581Y9814323D01*
X20273580Y9814324D01*
X20273580Y9814328D01*
X20270590Y9821546D01*
X20220778Y9941805D01*
X20220771Y9941818D01*
X20144114Y10056542D01*
X20144111Y10056546D01*
X20046545Y10154112D01*
X20046541Y10154115D01*
X19931817Y10230772D01*
X19931804Y10230779D01*
X19804332Y10283579D01*
X19804322Y10283582D01*
X19668995Y10310500D01*
X19668993Y10310500D01*
X19531007Y10310500D01*
X19531005Y10310500D01*
X19395677Y10283582D01*
X19395667Y10283579D01*
X19268195Y10230779D01*
X19268182Y10230772D01*
X19153458Y10154115D01*
X19153454Y10154112D01*
X19146162Y10146819D01*
X19084839Y10113334D01*
X19058481Y10110500D01*
X12584108Y10110500D01*
X12456812Y10076392D01*
X12342686Y10010500D01*
X12342683Y10010498D01*
X11329003Y8996819D01*
X11267680Y8963334D01*
X11241322Y8960500D01*
X10405143Y8960500D01*
X10405117Y8960498D01*
X10380012Y8957587D01*
X10380008Y8957585D01*
X10277235Y8912207D01*
X10197794Y8832766D01*
X10152414Y8729990D01*
X10150804Y8724072D01*
X10114209Y8664552D01*
X10063250Y8636853D01*
X10024216Y8626393D01*
X10024214Y8626393D01*
X9910086Y8560500D01*
X9910083Y8560498D01*
X8786405Y7436819D01*
X8725082Y7403334D01*
X8698724Y7400500D01*
X7471786Y7400500D01*
X7404747Y7420185D01*
X7358992Y7472989D01*
X7349048Y7542147D01*
X7378073Y7605703D01*
X7436851Y7643477D01*
X7439671Y7644270D01*
X7493186Y7658608D01*
X7607314Y7724500D01*
X10572795Y10689981D01*
X10634118Y10723466D01*
X10660476Y10726300D01*
X16031681Y10726300D01*
X16098720Y10706615D01*
X16119362Y10689981D01*
X16145854Y10663489D01*
X16145858Y10663486D01*
X16260582Y10586829D01*
X16260595Y10586822D01*
X16388067Y10534022D01*
X16388072Y10534020D01*
X16388076Y10534020D01*
X16388077Y10534019D01*
X16523404Y10507100D01*
X16523407Y10507100D01*
X16661395Y10507100D01*
X16752441Y10525211D01*
X16796728Y10534020D01*
X16924211Y10586825D01*
X17038942Y10663486D01*
X17136514Y10761058D01*
X17213175Y10875789D01*
X17265980Y11003272D01*
X17274789Y11047559D01*
X17292900Y11138605D01*
X17292900Y11276596D01*
X17265981Y11411923D01*
X17265980Y11411924D01*
X17265980Y11411928D01*
X17259977Y11426421D01*
X17213178Y11539405D01*
X17213171Y11539418D01*
X17136514Y11654142D01*
X17136511Y11654146D01*
X17038945Y11751712D01*
X17038941Y11751715D01*
X16924217Y11828372D01*
X16924204Y11828379D01*
X16796732Y11881179D01*
X16796722Y11881182D01*
X16661395Y11908100D01*
X16661393Y11908100D01*
X16523407Y11908100D01*
X16523405Y11908100D01*
X16388077Y11881182D01*
X16388067Y11881179D01*
X16260595Y11828379D01*
X16260582Y11828372D01*
X16140793Y11748330D01*
X16139220Y11750685D01*
X16086037Y11728127D01*
X16071741Y11727300D01*
X10335908Y11727300D01*
X10208612Y11693192D01*
X10094486Y11627300D01*
X10094483Y11627298D01*
X7129005Y8661819D01*
X7067682Y8628334D01*
X7041324Y8625500D01*
X5849540Y8625500D01*
X5782501Y8645185D01*
X5775907Y8649730D01*
X5737886Y8677791D01*
X5737880Y8677794D01*
X5609700Y8722647D01*
X5579270Y8725500D01*
X5579266Y8725500D01*
X4070734Y8725500D01*
X4070730Y8725500D01*
X4040300Y8722647D01*
X4040298Y8722647D01*
X3912119Y8677794D01*
X3912113Y8677791D01*
X3874093Y8649730D01*
X3853680Y8642275D01*
X3835395Y8630523D01*
X3812490Y8627230D01*
X3808464Y8625759D01*
X3800460Y8625500D01*
X3665519Y8625500D01*
X3598480Y8645185D01*
X3552725Y8697989D01*
X3542781Y8767147D01*
X3571806Y8830703D01*
X3577838Y8837181D01*
X3669111Y8928455D01*
X3669114Y8928458D01*
X3745775Y9043189D01*
X3798580Y9170672D01*
X3816448Y9260500D01*
X3825500Y9306005D01*
X3825500Y9443996D01*
X3798581Y9579323D01*
X3798580Y9579324D01*
X3798580Y9579328D01*
X3781027Y9621706D01*
X3745778Y9706805D01*
X3745771Y9706818D01*
X3669114Y9821542D01*
X3669111Y9821546D01*
X3571545Y9919112D01*
X3571541Y9919115D01*
X3456817Y9995772D01*
X3456804Y9995779D01*
X3329332Y10048579D01*
X3329322Y10048582D01*
X3193995Y10075500D01*
X3193993Y10075500D01*
X3056007Y10075500D01*
X3056005Y10075500D01*
X2920677Y10048582D01*
X2920667Y10048579D01*
X2793195Y9995779D01*
X2793182Y9995772D01*
X2678458Y9919115D01*
X2678454Y9919112D01*
X2580888Y9821546D01*
X2580882Y9821538D01*
X2504226Y9706814D01*
X2504225Y9706813D01*
X2461293Y9603167D01*
X2434413Y9562940D01*
X1634491Y8763017D01*
X1634489Y8763014D01*
X1575305Y8660502D01*
X1575304Y8660503D01*
X1562017Y8637487D01*
X1562016Y8637485D01*
X1524500Y8497475D01*
X1524500Y6597474D01*
X1524500Y6452526D01*
X1562016Y6312515D01*
X1634490Y6186985D01*
X2636985Y5184490D01*
X2732999Y5129057D01*
X2762515Y5112016D01*
X2902525Y5074500D01*
X3884496Y5074500D01*
X3925451Y5067541D01*
X4040298Y5027355D01*
X4040300Y5027354D01*
X4070730Y5024500D01*
X4070734Y5024500D01*
X5579270Y5024500D01*
X5609699Y5027354D01*
X5609701Y5027354D01*
X5673790Y5049781D01*
X5737882Y5072207D01*
X5847150Y5152850D01*
X5927793Y5262118D01*
X5956970Y5345501D01*
X5972646Y5390299D01*
X5972646Y5390301D01*
X5975500Y5420731D01*
X5975500Y5829270D01*
X5972646Y5859700D01*
X5972646Y5859702D01*
X5927793Y5987881D01*
X5927792Y5987883D01*
X5847150Y6097150D01*
X5802363Y6130204D01*
X5775228Y6150231D01*
X5758708Y6171989D01*
X5739551Y6191460D01*
X5737889Y6199410D01*
X5732977Y6205879D01*
X5730842Y6233118D01*
X5725254Y6259852D01*
X5728153Y6267438D01*
X5727519Y6275535D01*
X5740448Y6299600D01*
X5750202Y6325116D01*
X5758591Y6333371D01*
X5760587Y6337084D01*
X5775349Y6349860D01*
X5776039Y6350369D01*
X5841699Y6374252D01*
X5849540Y6374500D01*
X6127985Y6374500D01*
X6195024Y6354815D01*
X6196876Y6353602D01*
X6308182Y6279229D01*
X6308195Y6279222D01*
X6435667Y6226422D01*
X6435672Y6226420D01*
X6435676Y6226420D01*
X6435677Y6226419D01*
X6571004Y6199500D01*
X6571007Y6199500D01*
X6708995Y6199500D01*
X6800041Y6217611D01*
X6844328Y6226420D01*
X6971811Y6279225D01*
X7086542Y6355886D01*
X7090156Y6359500D01*
X7093838Y6363181D01*
X7155161Y6396666D01*
X7181519Y6399500D01*
X9023290Y6399500D01*
X9023292Y6399500D01*
X9150586Y6433608D01*
X9264714Y6499500D01*
X9937821Y7172609D01*
X9999142Y7206092D01*
X10068833Y7201108D01*
X10124767Y7159237D01*
X10149184Y7093772D01*
X10149500Y7084926D01*
X10149500Y6315144D01*
X10149502Y6315118D01*
X10152413Y6290013D01*
X10152415Y6290009D01*
X10197793Y6187236D01*
X10197794Y6187235D01*
X10277235Y6107794D01*
X10380009Y6062415D01*
X10405135Y6059500D01*
X11994864Y6059501D01*
X11994879Y6059503D01*
X11994882Y6059503D01*
X12019987Y6062414D01*
X12019988Y6062415D01*
X12019991Y6062415D01*
X12122765Y6107794D01*
X12202206Y6187235D01*
X12231785Y6254225D01*
X12245633Y6285587D01*
X12290719Y6338963D01*
X12357505Y6359490D01*
X12359067Y6359500D01*
X12640934Y6359500D01*
X12658775Y6354261D01*
X12677369Y6354026D01*
X12691604Y6344622D01*
X12707973Y6339815D01*
X12720148Y6325765D01*
X12735665Y6315513D01*
X12752829Y6288048D01*
X12753728Y6287011D01*
X12754338Y6285653D01*
X12757175Y6279229D01*
X12765628Y6260084D01*
X12774697Y6190805D01*
X12765628Y6159917D01*
X12752415Y6129992D01*
X12749500Y6104869D01*
X12749500Y5015144D01*
X12749502Y5015118D01*
X12752413Y4990013D01*
X12752415Y4990009D01*
X12797793Y4887236D01*
X12797794Y4887235D01*
X12877235Y4807794D01*
X12980009Y4762415D01*
X13005135Y4759500D01*
X13165500Y4759501D01*
X13174185Y4756951D01*
X13183147Y4758239D01*
X13207184Y4747262D01*
X13232539Y4739817D01*
X13238467Y4732975D01*
X13246703Y4729214D01*
X13260989Y4706983D01*
X13278294Y4687013D01*
X13280581Y4676498D01*
X13284477Y4670436D01*
X13289500Y4635501D01*
X13289500Y4461519D01*
X13269815Y4394480D01*
X13253181Y4373838D01*
X13245888Y4366546D01*
X13245885Y4366542D01*
X13169228Y4251818D01*
X13169221Y4251805D01*
X13116421Y4124333D01*
X13116418Y4124323D01*
X13089500Y3988996D01*
X13089500Y3988993D01*
X13089500Y3851007D01*
X13089500Y3851005D01*
X13089499Y3851005D01*
X13116418Y3715678D01*
X13116421Y3715668D01*
X13169221Y3588196D01*
X13169228Y3588183D01*
X13245885Y3473459D01*
X13245888Y3473455D01*
X13343454Y3375889D01*
X13343458Y3375886D01*
X13458182Y3299229D01*
X13458195Y3299222D01*
X13544246Y3263579D01*
X13585672Y3246420D01*
X13585676Y3246420D01*
X13585677Y3246419D01*
X13721004Y3219500D01*
X13721007Y3219500D01*
X13858995Y3219500D01*
X13950041Y3237611D01*
X13994328Y3246420D01*
X14121811Y3299225D01*
X14236542Y3375886D01*
X14334114Y3473458D01*
X14410775Y3588189D01*
X14463580Y3715672D01*
X14474638Y3771266D01*
X14490500Y3851005D01*
X14490500Y3988996D01*
X14463581Y4124323D01*
X14463580Y4124324D01*
X14463580Y4124328D01*
X14463578Y4124333D01*
X14410778Y4251805D01*
X14410771Y4251818D01*
X14334114Y4366542D01*
X14334111Y4366546D01*
X14326819Y4373838D01*
X14312115Y4400766D01*
X14295523Y4426584D01*
X14294631Y4432785D01*
X14293334Y4435161D01*
X14290500Y4461519D01*
X14290500Y4635501D01*
X14310185Y4702540D01*
X14362989Y4748295D01*
X14414500Y4759501D01*
X14594856Y4759501D01*
X14594864Y4759501D01*
X14594879Y4759503D01*
X14594882Y4759503D01*
X14619987Y4762414D01*
X14619988Y4762415D01*
X14619991Y4762415D01*
X14722765Y4807794D01*
X14802206Y4887235D01*
X14847585Y4990009D01*
X14850500Y5015135D01*
X14850499Y5823037D01*
X14870183Y5890075D01*
X14922987Y5935830D01*
X14992146Y5945774D01*
X15055702Y5916749D01*
X15062180Y5910717D01*
X16283387Y4689510D01*
X16283389Y4689509D01*
X16283393Y4689506D01*
X16316424Y4670436D01*
X16386114Y4630201D01*
X16500691Y4599500D01*
X17493503Y4599500D01*
X17560542Y4579815D01*
X17606297Y4527011D01*
X17616241Y4457853D01*
X17587216Y4394297D01*
X17568428Y4376696D01*
X17537077Y4352923D01*
X17445639Y4232344D01*
X17390122Y4091562D01*
X17384188Y4042147D01*
X17379500Y4003102D01*
X17379500Y2616898D01*
X17385126Y2570046D01*
X17390122Y2528439D01*
X17390122Y2528437D01*
X17390123Y2528436D01*
X17407722Y2483808D01*
X17445639Y2387657D01*
X17537077Y2267078D01*
X17657656Y2175640D01*
X17657657Y2175640D01*
X17657658Y2175639D01*
X17798436Y2120123D01*
X17886898Y2109500D01*
X18632394Y2109500D01*
X18699433Y2089815D01*
X18745188Y2037011D01*
X18755132Y1967853D01*
X18746955Y1938048D01*
X18716421Y1864333D01*
X18716418Y1864323D01*
X18689500Y1728996D01*
X18689500Y1728993D01*
X18689500Y1591007D01*
X18689500Y1591005D01*
X18689499Y1591005D01*
X18716418Y1455678D01*
X18716421Y1455668D01*
X18769221Y1328196D01*
X18769228Y1328183D01*
X18845885Y1213459D01*
X18845888Y1213455D01*
X18943454Y1115889D01*
X18943458Y1115886D01*
X19058182Y1039229D01*
X19058195Y1039222D01*
X19141489Y1004721D01*
X19185672Y986420D01*
X19185676Y986420D01*
X19185677Y986419D01*
X19321004Y959500D01*
X19321007Y959500D01*
X19458995Y959500D01*
X19550041Y977611D01*
X19594328Y986420D01*
X19721811Y1039225D01*
X19836542Y1115886D01*
X19934114Y1213458D01*
X20010775Y1328189D01*
X20063580Y1455672D01*
X20090500Y1591007D01*
X20090500Y1728993D01*
X20090500Y1728996D01*
X20063581Y1864323D01*
X20063580Y1864324D01*
X20063580Y1864328D01*
X20063578Y1864333D01*
X20033045Y1938048D01*
X20025576Y2007517D01*
X20056852Y2069996D01*
X20116941Y2105648D01*
X20147606Y2109500D01*
X20873097Y2109500D01*
X20873102Y2109500D01*
X20961564Y2120123D01*
X21102342Y2175639D01*
X21222922Y2267078D01*
X21314361Y2387658D01*
X21369877Y2528436D01*
X21380500Y2616898D01*
X21380500Y4003102D01*
X21369877Y4091564D01*
X21314361Y4232342D01*
X21314360Y4232343D01*
X21314360Y4232344D01*
X21222922Y4352923D01*
X21102337Y4444365D01*
X21098448Y4446552D01*
X21095593Y4449480D01*
X21095584Y4449486D01*
X21095585Y4449488D01*
X21049664Y4496570D01*
X21035666Y4565024D01*
X21060899Y4630178D01*
X21071542Y4642307D01*
X21110520Y4681284D01*
X21189577Y4818216D01*
X21230500Y4970943D01*
X21230500Y5129057D01*
X21189577Y5281784D01*
X21189573Y5281791D01*
X21110524Y5418710D01*
X21110518Y5418718D01*
X20998717Y5530519D01*
X20998709Y5530525D01*
X20861790Y5609574D01*
X20861786Y5609576D01*
X20861784Y5609577D01*
X20709057Y5650500D01*
X20550943Y5650500D01*
X20398216Y5609577D01*
X20398209Y5609574D01*
X20261290Y5530525D01*
X20255557Y5526125D01*
X20190388Y5500930D01*
X20180069Y5500500D01*
X16797965Y5500500D01*
X16730926Y5520185D01*
X16710284Y5536819D01*
X15026616Y7220487D01*
X15026610Y7220492D01*
X15021188Y7223622D01*
X14972974Y7274191D01*
X14959754Y7342799D01*
X14983927Y7405321D01*
X14993354Y7417914D01*
X15043596Y7552621D01*
X15043598Y7552628D01*
X15049999Y7612156D01*
X15050000Y7612173D01*
X15050000Y7910000D01*
X12550000Y7910000D01*
X12550000Y7612156D01*
X12556401Y7552628D01*
X12556403Y7552618D01*
X12565648Y7527832D01*
X12567836Y7497226D01*
X12572204Y7466853D01*
X12570306Y7462698D01*
X12570632Y7458141D01*
X12555928Y7431214D01*
X12543179Y7403297D01*
X12539334Y7400827D01*
X12537146Y7396818D01*
X12510219Y7382116D01*
X12484401Y7365523D01*
X12478198Y7364632D01*
X12475823Y7363334D01*
X12449466Y7360500D01*
X12359066Y7360500D01*
X12292027Y7380185D01*
X12246272Y7432989D01*
X12245663Y7434342D01*
X12234371Y7459916D01*
X12225301Y7529194D01*
X12234374Y7560088D01*
X12247584Y7590005D01*
X12247584Y7590006D01*
X12247584Y7590007D01*
X12247585Y7590009D01*
X12250500Y7615135D01*
X12250499Y8451326D01*
X12259145Y8480772D01*
X12265667Y8510752D01*
X12269419Y8515766D01*
X12270183Y8518364D01*
X12286813Y8539001D01*
X12338321Y8590509D01*
X12399642Y8623992D01*
X12469334Y8619008D01*
X12525267Y8577136D01*
X12549684Y8511672D01*
X12550000Y8502826D01*
X12550000Y8410000D01*
X15050000Y8410000D01*
X15050000Y8707828D01*
X15049999Y8707845D01*
X15043598Y8767373D01*
X15043596Y8767380D01*
X14993354Y8902087D01*
X14993353Y8902089D01*
X14986540Y8911190D01*
X14962124Y8976655D01*
X14976976Y9044928D01*
X15026382Y9094333D01*
X15085808Y9109500D01*
X16156968Y9109500D01*
X16224007Y9089815D01*
X16269762Y9037011D01*
X16279706Y8967853D01*
X16276745Y8953419D01*
X16259500Y8889057D01*
X16259500Y8730943D01*
X16288158Y8623992D01*
X16300423Y8578217D01*
X16300426Y8578210D01*
X16379475Y8441291D01*
X16379479Y8441286D01*
X16379480Y8441284D01*
X16491284Y8329480D01*
X16491286Y8329479D01*
X16491290Y8329476D01*
X16564843Y8287011D01*
X16628216Y8250423D01*
X16780943Y8209500D01*
X16780945Y8209500D01*
X16939055Y8209500D01*
X16939057Y8209500D01*
X17091784Y8250423D01*
X17228716Y8329480D01*
X17228721Y8329486D01*
X17234443Y8333875D01*
X17255765Y8342119D01*
X17274996Y8354477D01*
X17295272Y8357393D01*
X17299612Y8359070D01*
X17309931Y8359500D01*
X17358565Y8359500D01*
X17425604Y8339815D01*
X17471359Y8287011D01*
X17481303Y8217853D01*
X17478341Y8203413D01*
X17458900Y8130857D01*
X17458900Y7972743D01*
X17488871Y7860892D01*
X17499823Y7820017D01*
X17499826Y7820010D01*
X17578875Y7683091D01*
X17578879Y7683086D01*
X17578880Y7683084D01*
X17690684Y7571280D01*
X17690686Y7571279D01*
X17690690Y7571276D01*
X17771710Y7524500D01*
X17827616Y7492223D01*
X17980343Y7451300D01*
X17980345Y7451300D01*
X18138455Y7451300D01*
X18138457Y7451300D01*
X18291184Y7492223D01*
X18428116Y7571280D01*
X18428121Y7571286D01*
X18433843Y7575675D01*
X18499012Y7600870D01*
X18509331Y7601300D01*
X20717035Y7601300D01*
X20784074Y7581615D01*
X20804716Y7564981D01*
X21808181Y6561516D01*
X21841666Y6500193D01*
X21844500Y6473835D01*
X21844500Y5725144D01*
X21844502Y5725118D01*
X21847413Y5700013D01*
X21847415Y5700009D01*
X21892793Y5597236D01*
X21892794Y5597235D01*
X21972235Y5517794D01*
X22075009Y5472415D01*
X22100135Y5469500D01*
X24375500Y5469501D01*
X24442539Y5449816D01*
X24488294Y5397013D01*
X24499500Y5345501D01*
X24499500Y1004721D01*
X24479815Y937682D01*
X24427011Y891927D01*
X24357853Y881983D01*
X24294297Y911008D01*
X24269552Y940293D01*
X24138170Y1156342D01*
X23965457Y1368635D01*
X23765439Y1555440D01*
X23541864Y1713256D01*
X23541858Y1713260D01*
X23298860Y1839171D01*
X23040995Y1930817D01*
X23040979Y1930822D01*
X22773040Y1986499D01*
X22773038Y1986500D01*
X22500000Y2005175D01*
X22226961Y1986500D01*
X22226959Y1986499D01*
X21959020Y1930822D01*
X21959004Y1930817D01*
X21701139Y1839171D01*
X21458141Y1713260D01*
X21458135Y1713256D01*
X21234560Y1555440D01*
X21034542Y1368635D01*
X20861829Y1156342D01*
X20719633Y922510D01*
X20610603Y671497D01*
X20588062Y591045D01*
X20551020Y531803D01*
X20487830Y501991D01*
X20468660Y500500D01*
X14531340Y500500D01*
X14464301Y520185D01*
X14418546Y572989D01*
X14411938Y591045D01*
X14389398Y671492D01*
X14280365Y922510D01*
X14280366Y922510D01*
X14138170Y1156342D01*
X13965457Y1368635D01*
X13765439Y1555440D01*
X13541864Y1713256D01*
X13541858Y1713260D01*
X13298860Y1839171D01*
X13040995Y1930817D01*
X13040979Y1930822D01*
X12773040Y1986499D01*
X12773038Y1986500D01*
X12500000Y2005175D01*
X12226961Y1986500D01*
X12226959Y1986499D01*
X11959020Y1930822D01*
X11959004Y1930817D01*
X11701139Y1839171D01*
X11458141Y1713260D01*
X11458135Y1713256D01*
X11234560Y1555440D01*
X11034542Y1368635D01*
X10861829Y1156342D01*
X10719633Y922510D01*
X10610603Y671497D01*
X10588062Y591045D01*
X10551020Y531803D01*
X10487830Y501991D01*
X10468660Y500500D01*
X4531340Y500500D01*
X4464301Y520185D01*
X4418546Y572989D01*
X4411938Y591045D01*
X4389398Y671492D01*
X4280365Y922510D01*
X4280366Y922510D01*
X4138170Y1156342D01*
X3965457Y1368635D01*
X3765439Y1555440D01*
X3541864Y1713256D01*
X3541858Y1713260D01*
X3298860Y1839171D01*
X3040995Y1930817D01*
X3040979Y1930822D01*
X2773040Y1986499D01*
X2773038Y1986500D01*
X2500000Y2005175D01*
X2226961Y1986500D01*
X2226959Y1986499D01*
X1959020Y1930822D01*
X1959004Y1930817D01*
X1701139Y1839171D01*
X1458141Y1713260D01*
X1458135Y1713256D01*
X1234560Y1555440D01*
X1034542Y1368635D01*
X861829Y1156342D01*
X730448Y940293D01*
X678797Y893241D01*
X609906Y881583D01*
X545650Y909020D01*
X506427Y966842D01*
X500500Y1004721D01*
X500500Y2831005D01*
X4899499Y2831005D01*
X4926418Y2695678D01*
X4926421Y2695668D01*
X4979221Y2568196D01*
X4979228Y2568183D01*
X5055885Y2453459D01*
X5055888Y2453455D01*
X5153454Y2355889D01*
X5153458Y2355886D01*
X5268182Y2279229D01*
X5268195Y2279222D01*
X5343049Y2248217D01*
X5395672Y2226420D01*
X5395676Y2226420D01*
X5395677Y2226419D01*
X5531004Y2199500D01*
X5531007Y2199500D01*
X5668995Y2199500D01*
X5760041Y2217611D01*
X5804328Y2226420D01*
X5931811Y2279225D01*
X5959609Y2297800D01*
X6026285Y2318678D01*
X6093666Y2300195D01*
X6140357Y2248217D01*
X6152501Y2194698D01*
X6152501Y2156644D01*
X6152502Y2156618D01*
X6155413Y2131513D01*
X6155415Y2131509D01*
X6200793Y2028736D01*
X6200794Y2028735D01*
X6280235Y1949294D01*
X6383009Y1903915D01*
X6408135Y1901000D01*
X7386864Y1901001D01*
X7386879Y1901003D01*
X7386882Y1901003D01*
X7411987Y1903914D01*
X7411988Y1903915D01*
X7411991Y1903915D01*
X7514765Y1949294D01*
X7594206Y2028735D01*
X7639585Y2131509D01*
X7642500Y2156635D01*
X7642499Y3643364D01*
X7642499Y3643365D01*
X7642499Y3643369D01*
X8057500Y3643369D01*
X8057500Y2156644D01*
X8057502Y2156618D01*
X8060413Y2131513D01*
X8060415Y2131509D01*
X8105793Y2028736D01*
X8105794Y2028735D01*
X8185235Y1949294D01*
X8288009Y1903915D01*
X8313135Y1901000D01*
X9291864Y1901001D01*
X9291879Y1901003D01*
X9291882Y1901003D01*
X9316987Y1903914D01*
X9316988Y1903915D01*
X9316991Y1903915D01*
X9419765Y1949294D01*
X9499206Y2028735D01*
X9544585Y2131509D01*
X9547500Y2156635D01*
X9547500Y2275500D01*
X9567185Y2342539D01*
X9619989Y2388294D01*
X9671500Y2399500D01*
X10007838Y2399500D01*
X10074877Y2379815D01*
X10120632Y2327011D01*
X10122399Y2322952D01*
X10149221Y2258196D01*
X10149228Y2258183D01*
X10225885Y2143459D01*
X10225888Y2143455D01*
X10323454Y2045889D01*
X10323458Y2045886D01*
X10438182Y1969229D01*
X10438195Y1969222D01*
X10513457Y1938048D01*
X10565672Y1916420D01*
X10565676Y1916420D01*
X10565677Y1916419D01*
X10701004Y1889500D01*
X10701007Y1889500D01*
X10838995Y1889500D01*
X10930041Y1907611D01*
X10974328Y1916420D01*
X11101811Y1969225D01*
X11216542Y2045886D01*
X11314114Y2143458D01*
X11390775Y2258189D01*
X11443580Y2385672D01*
X11470500Y2521007D01*
X11470500Y2658993D01*
X11470500Y2658996D01*
X11443581Y2794323D01*
X11443580Y2794324D01*
X11443580Y2794328D01*
X11428387Y2831007D01*
X11390778Y2921805D01*
X11390771Y2921818D01*
X11314114Y3036542D01*
X11314111Y3036546D01*
X11216545Y3134112D01*
X11216541Y3134115D01*
X11101817Y3210772D01*
X11101804Y3210779D01*
X10974332Y3263579D01*
X10974322Y3263582D01*
X10838995Y3290500D01*
X10838993Y3290500D01*
X10817860Y3290500D01*
X10755860Y3307113D01*
X10687567Y3346542D01*
X10653187Y3366392D01*
X10589539Y3383446D01*
X10525892Y3400500D01*
X10525891Y3400500D01*
X9671499Y3400500D01*
X9604460Y3420185D01*
X9558705Y3472989D01*
X9547499Y3524500D01*
X9547499Y3643357D01*
X9547499Y3643364D01*
X9547497Y3643383D01*
X9544586Y3668488D01*
X9544585Y3668490D01*
X9544585Y3668491D01*
X9499206Y3771265D01*
X9419765Y3850706D01*
X9419083Y3851007D01*
X9316992Y3896085D01*
X9291865Y3899000D01*
X8313143Y3899000D01*
X8313117Y3898998D01*
X8288012Y3896087D01*
X8288008Y3896085D01*
X8185235Y3850707D01*
X8105794Y3771266D01*
X8060415Y3668494D01*
X8060415Y3668492D01*
X8057500Y3643369D01*
X7642499Y3643369D01*
X7642499Y3643370D01*
X7639586Y3668488D01*
X7639585Y3668490D01*
X7639585Y3668491D01*
X7594206Y3771265D01*
X7514765Y3850706D01*
X7514083Y3851007D01*
X7411992Y3896085D01*
X7386865Y3899000D01*
X6408143Y3899000D01*
X6408117Y3898998D01*
X6383012Y3896087D01*
X6383008Y3896085D01*
X6280235Y3850707D01*
X6200794Y3771266D01*
X6155415Y3668494D01*
X6155415Y3668492D01*
X6152500Y3643369D01*
X6152500Y3605304D01*
X6132815Y3538265D01*
X6080011Y3492510D01*
X6010853Y3482566D01*
X5959610Y3502201D01*
X5931815Y3520773D01*
X5931804Y3520779D01*
X5804332Y3573579D01*
X5804322Y3573582D01*
X5668995Y3600500D01*
X5668993Y3600500D01*
X5531007Y3600500D01*
X5531005Y3600500D01*
X5395677Y3573582D01*
X5395667Y3573579D01*
X5268195Y3520779D01*
X5268182Y3520772D01*
X5153458Y3444115D01*
X5153454Y3444112D01*
X5055888Y3346546D01*
X5055885Y3346542D01*
X4979228Y3231818D01*
X4979221Y3231805D01*
X4926421Y3104333D01*
X4926418Y3104323D01*
X4899500Y2968996D01*
X4899500Y2968993D01*
X4899500Y2831007D01*
X4899500Y2831005D01*
X4899499Y2831005D01*
X500500Y2831005D01*
X500500Y12031005D01*
X4999499Y12031005D01*
X5026418Y11895678D01*
X5026421Y11895668D01*
X5079221Y11768196D01*
X5079228Y11768183D01*
X5155885Y11653459D01*
X5155888Y11653455D01*
X5253454Y11555889D01*
X5253458Y11555886D01*
X5368182Y11479229D01*
X5368195Y11479222D01*
X5478164Y11433672D01*
X5495672Y11426420D01*
X5495676Y11426420D01*
X5495677Y11426419D01*
X5631004Y11399500D01*
X5631007Y11399500D01*
X5768995Y11399500D01*
X5860041Y11417611D01*
X5904328Y11426420D01*
X5979309Y11457479D01*
X6048776Y11464947D01*
X6111255Y11433672D01*
X6146908Y11373584D01*
X6149934Y11357204D01*
X6152914Y11331512D01*
X6152915Y11331509D01*
X6198293Y11228736D01*
X6198294Y11228735D01*
X6277735Y11149294D01*
X6380509Y11103915D01*
X6405635Y11101000D01*
X7384364Y11101001D01*
X7384379Y11101003D01*
X7384382Y11101003D01*
X7409487Y11103914D01*
X7409488Y11103915D01*
X7409491Y11103915D01*
X7512265Y11149294D01*
X7591706Y11228735D01*
X7637085Y11331509D01*
X7640000Y11356635D01*
X7639999Y12843364D01*
X7637086Y12868486D01*
X7637086Y12868488D01*
X7637085Y12868490D01*
X7637085Y12868491D01*
X7591706Y12971265D01*
X7512265Y13050706D01*
X7512263Y13050707D01*
X7409492Y13096085D01*
X7384365Y13099000D01*
X6405643Y13099000D01*
X6405617Y13098998D01*
X6380512Y13096087D01*
X6380508Y13096085D01*
X6277735Y13050707D01*
X6198294Y12971266D01*
X6152915Y12868494D01*
X6152913Y12868486D01*
X6149932Y12842792D01*
X6122651Y12778468D01*
X6064925Y12739105D01*
X5995082Y12737199D01*
X5979308Y12742523D01*
X5934282Y12761173D01*
X5904328Y12773580D01*
X5904326Y12773581D01*
X5904322Y12773582D01*
X5768995Y12800500D01*
X5768993Y12800500D01*
X5631007Y12800500D01*
X5631005Y12800500D01*
X5495677Y12773582D01*
X5495667Y12773579D01*
X5368195Y12720779D01*
X5368182Y12720772D01*
X5253458Y12644115D01*
X5253454Y12644112D01*
X5155888Y12546546D01*
X5155885Y12546542D01*
X5079228Y12431818D01*
X5079221Y12431805D01*
X5026421Y12304333D01*
X5026418Y12304323D01*
X4999500Y12168996D01*
X4999500Y12168993D01*
X4999500Y12031007D01*
X4999500Y12031005D01*
X4999499Y12031005D01*
X500500Y12031005D01*
X500500Y13995280D01*
X520185Y14062319D01*
X572989Y14108074D01*
X642147Y14118018D01*
X705703Y14088993D01*
X730448Y14059708D01*
X861829Y13843659D01*
X1034542Y13631366D01*
X1234560Y13444561D01*
X1458135Y13286745D01*
X1458141Y13286741D01*
X1458143Y13286740D01*
X1701136Y13160831D01*
X1701139Y13160830D01*
X1959004Y13069184D01*
X1959020Y13069179D01*
X2149255Y13029649D01*
X2226960Y13013502D01*
X2226961Y13013501D01*
X2244441Y13012306D01*
X2500000Y12994825D01*
X2773038Y13013501D01*
X2893620Y13038559D01*
X3040979Y13069179D01*
X3040985Y13069182D01*
X3040990Y13069182D01*
X3298864Y13160831D01*
X3541857Y13286740D01*
X3765442Y13444563D01*
X3965454Y13631362D01*
X4138168Y13843655D01*
X4280365Y14077489D01*
X4286226Y14090981D01*
X4389396Y14328504D01*
X4389398Y14328508D01*
X4411938Y14408956D01*
X4448980Y14468197D01*
X4512170Y14498009D01*
X4531340Y14499500D01*
X10468660Y14499500D01*
X10535699Y14479815D01*
G37*
%TD.AperFunction*%
%TD*%
M02*
