%TF.GenerationSoftware,KiCad,Pcbnew,9.0.1+1*%
%TF.CreationDate,2025-10-02T15:41:18+00:00*%
%TF.ProjectId,TFI2CADC01,54464932-4341-4444-9330-312e6b696361,rev?*%
%TF.SameCoordinates,PX7cee6c0PY700e860*%
%TF.FileFunction,Profile,NP*%
%FSLAX46Y46*%
G04 Gerber Fmt 4.6, Leading zero omitted, Abs format (unit mm)*
G04 Created by KiCad (PCBNEW 9.0.1+1) date 2025-10-02 15:41:18*
%MOMM*%
%LPD*%
G01*
G04 APERTURE LIST*
%TA.AperFunction,Profile*%
%ADD10C,0.150000*%
%TD*%
%TA.AperFunction,Profile*%
%ADD11C,0.050000*%
%TD*%
G04 APERTURE END LIST*
D10*
X11000000Y0D02*
X4000000Y0D01*
X1000000Y0D02*
X0Y0D01*
X1000000Y0D02*
G75*
G02*
X4000000Y0I1500000J0D01*
G01*
X31000000Y0D02*
G75*
G02*
X34000000Y0I1500000J0D01*
G01*
X14000000Y25000000D02*
X21000000Y25000000D01*
X24000000Y25000000D02*
G75*
G02*
X21000000Y25000000I-1500000J0D01*
G01*
X24000000Y25000000D02*
X31000000Y25000000D01*
X21000000Y0D02*
X14000000Y0D01*
X34000000Y25000000D02*
G75*
G02*
X31000000Y25000000I-1500000J0D01*
G01*
X11000000Y0D02*
G75*
G02*
X14000000Y0I1500000J0D01*
G01*
X4000000Y25000000D02*
G75*
G02*
X1000000Y25000000I-1500000J0D01*
G01*
X35000000Y0D02*
X34000000Y0D01*
X4000000Y25000000D02*
X11000000Y25000000D01*
X0Y25000000D02*
X1000000Y25000000D01*
X0Y0D02*
X0Y25000000D01*
X31000000Y0D02*
X24000000Y0D01*
X14000000Y25000000D02*
G75*
G02*
X11000000Y25000000I-1500000J0D01*
G01*
X21000000Y0D02*
G75*
G02*
X24000000Y0I1500000J0D01*
G01*
X34000000Y25000000D02*
X35000000Y25000000D01*
X35000000Y25000000D02*
X35000000Y0D01*
D11*
%TO.C,D3*%
X9150000Y-31800000D02*
X9150000Y-33200000D01*
X9450000Y-33500000D02*
X11050000Y-33500000D01*
X11050000Y-31500000D02*
X9450000Y-31500000D01*
X11350000Y-33200000D02*
X11350000Y-31800000D01*
X9150000Y-31800000D02*
G75*
G02*
X9450000Y-31500000I300000J0D01*
G01*
X9450000Y-33500000D02*
G75*
G02*
X9150000Y-33200000I0J300000D01*
G01*
X11050000Y-31500000D02*
G75*
G02*
X11350000Y-31800000I0J-300000D01*
G01*
X11350000Y-33200000D02*
G75*
G02*
X11050000Y-33500000I-300000J0D01*
G01*
%TO.C,D1*%
X-56100000Y-21550000D02*
X-56100000Y-22950000D01*
X-55800000Y-23250000D02*
X-54200000Y-23250000D01*
X-54200000Y-21250000D02*
X-55800000Y-21250000D01*
X-53900000Y-22950000D02*
X-53900000Y-21550000D01*
X-56100000Y-21550000D02*
G75*
G02*
X-55800000Y-21250000I300000J0D01*
G01*
X-55800000Y-23250000D02*
G75*
G02*
X-56100000Y-22950000I0J300000D01*
G01*
X-54200000Y-21250000D02*
G75*
G02*
X-53900000Y-21550000I0J-300000D01*
G01*
X-53900000Y-22950000D02*
G75*
G02*
X-54200000Y-23250000I-300000J0D01*
G01*
%TD*%
M02*
