%TF.GenerationSoftware,KiCad,Pcbnew,9.0.1+1*%
%TF.CreationDate,2025-10-12T21:57:06+00:00*%
%TF.ProjectId,TFI2CADC01,54464932-4341-4444-9330-312e6b696361,rev?*%
%TF.SameCoordinates,PX81b3200PY6b49d20*%
%TF.FileFunction,Copper,L1,Top*%
%TF.FilePolarity,Positive*%
%FSLAX46Y46*%
G04 Gerber Fmt 4.6, Leading zero omitted, Abs format (unit mm)*
G04 Created by KiCad (PCBNEW 9.0.1+1) date 2025-10-12 21:57:07*
%MOMM*%
%LPD*%
G01*
G04 APERTURE LIST*
G04 Aperture macros list*
%AMRoundRect*
0 Rectangle with rounded corners*
0 $1 Rounding radius*
0 $2 $3 $4 $5 $6 $7 $8 $9 X,Y pos of 4 corners*
0 Add a 4 corners polygon primitive as box body*
4,1,4,$2,$3,$4,$5,$6,$7,$8,$9,$2,$3,0*
0 Add four circle primitives for the rounded corners*
1,1,$1+$1,$2,$3*
1,1,$1+$1,$4,$5*
1,1,$1+$1,$6,$7*
1,1,$1+$1,$8,$9*
0 Add four rect primitives between the rounded corners*
20,1,$1+$1,$2,$3,$4,$5,0*
20,1,$1+$1,$4,$5,$6,$7,0*
20,1,$1+$1,$6,$7,$8,$9,0*
20,1,$1+$1,$8,$9,$2,$3,0*%
G04 Aperture macros list end*
%TA.AperFunction,SMDPad,CuDef*%
%ADD10RoundRect,0.150000X-0.150000X0.512500X-0.150000X-0.512500X0.150000X-0.512500X0.150000X0.512500X0*%
%TD*%
%TA.AperFunction,SMDPad,CuDef*%
%ADD11RoundRect,0.218750X0.256250X-0.218750X0.256250X0.218750X-0.256250X0.218750X-0.256250X-0.218750X0*%
%TD*%
%TA.AperFunction,SMDPad,CuDef*%
%ADD12RoundRect,0.218750X-0.256250X0.218750X-0.256250X-0.218750X0.256250X-0.218750X0.256250X0.218750X0*%
%TD*%
%TA.AperFunction,SMDPad,CuDef*%
%ADD13R,1.397000X0.889000*%
%TD*%
%TA.AperFunction,SMDPad,CuDef*%
%ADD14RoundRect,0.150000X-0.200000X0.150000X-0.200000X-0.150000X0.200000X-0.150000X0.200000X0.150000X0*%
%TD*%
%TA.AperFunction,SMDPad,CuDef*%
%ADD15RoundRect,0.218750X-0.218750X-0.256250X0.218750X-0.256250X0.218750X0.256250X-0.218750X0.256250X0*%
%TD*%
%TA.AperFunction,SMDPad,CuDef*%
%ADD16R,0.889000X1.397000*%
%TD*%
%TA.AperFunction,SMDPad,CuDef*%
%ADD17RoundRect,0.150000X-0.700000X0.150000X-0.700000X-0.150000X0.700000X-0.150000X0.700000X0.150000X0*%
%TD*%
%TA.AperFunction,SMDPad,CuDef*%
%ADD18RoundRect,0.250000X-1.100000X0.250000X-1.100000X-0.250000X1.100000X-0.250000X1.100000X0.250000X0*%
%TD*%
%TA.AperFunction,SMDPad,CuDef*%
%ADD19RoundRect,0.200000X0.275000X-0.200000X0.275000X0.200000X-0.275000X0.200000X-0.275000X-0.200000X0*%
%TD*%
%TA.AperFunction,SMDPad,CuDef*%
%ADD20R,2.510000X1.000000*%
%TD*%
%TA.AperFunction,SMDPad,CuDef*%
%ADD21R,1.100000X0.300000*%
%TD*%
%TA.AperFunction,ViaPad*%
%ADD22C,0.600000*%
%TD*%
%TA.AperFunction,ViaPad*%
%ADD23C,0.800000*%
%TD*%
%TA.AperFunction,Conductor*%
%ADD24C,0.250000*%
%TD*%
%TA.AperFunction,Conductor*%
%ADD25C,0.200000*%
%TD*%
%TA.AperFunction,Conductor*%
%ADD26C,0.400000*%
%TD*%
%TA.AperFunction,Conductor*%
%ADD27C,0.300000*%
%TD*%
%TA.AperFunction,Conductor*%
%ADD28C,0.500000*%
%TD*%
%TA.AperFunction,Conductor*%
%ADD29C,0.500126*%
%TD*%
G04 APERTURE END LIST*
D10*
%TO.P,U1,1,VIN*%
%TO.N,+5V*%
X11000000Y7050000D03*
%TO.P,U1,2,GND*%
%TO.N,GND*%
X10050000Y7050000D03*
%TO.P,U1,3,EN*%
%TO.N,+5V*%
X9100000Y7050000D03*
%TO.P,U1,4,NC*%
%TO.N,unconnected-(U1-NC-Pad4)*%
X9100000Y4775000D03*
%TO.P,U1,5,VOUT*%
%TO.N,+3V3*%
X11000000Y4775000D03*
%TD*%
D11*
%TO.P,C2,1*%
%TO.N,+5V*%
X13033000Y9167500D03*
%TO.P,C2,2*%
%TO.N,GND*%
X13033000Y10742500D03*
%TD*%
D12*
%TO.P,R3,1*%
%TO.N,+3V3*%
X17860000Y12325000D03*
%TO.P,R3,2*%
%TO.N,/SDA*%
X17860000Y10750000D03*
%TD*%
D13*
%TO.P,C1,1*%
%TO.N,+5V*%
X11033000Y9172500D03*
%TO.P,C1,2*%
%TO.N,GND*%
X11033000Y11077500D03*
%TD*%
D14*
%TO.P,D2,1,K*%
%TO.N,+5V*%
X9063000Y9176500D03*
%TO.P,D2,2,A*%
%TO.N,GND*%
X9063000Y10576500D03*
%TD*%
D12*
%TO.P,C3,1*%
%TO.N,+3V3*%
X12870000Y6785000D03*
%TO.P,C3,2*%
%TO.N,GND*%
X12870000Y5210000D03*
%TD*%
%TO.P,C4,1*%
%TO.N,+3V3*%
X14545000Y6785000D03*
%TO.P,C4,2*%
%TO.N,GND*%
X14545000Y5210000D03*
%TD*%
D15*
%TO.P,R4,1*%
%TO.N,Net-(D3-A)*%
X10591699Y3073400D03*
%TO.P,R4,2*%
%TO.N,+3V3*%
X12166701Y3073400D03*
%TD*%
D16*
%TO.P,D3,1,K*%
%TO.N,/ALERT{slash}RDY*%
X5905500Y3098800D03*
%TO.P,D3,2,A*%
%TO.N,Net-(D3-A)*%
X7810500Y3098800D03*
%TD*%
D17*
%TO.P,J2,1*%
%TO.N,+5V*%
X4825000Y9375000D03*
%TO.P,J2,2*%
%TO.N,/SCL*%
X4825000Y8125000D03*
%TO.P,J2,3*%
%TO.N,/SDA*%
X4825000Y6875000D03*
%TO.P,J2,4*%
%TO.N,GND*%
X4825000Y5625000D03*
D18*
%TO.P,J2,MP*%
X1625000Y11225000D03*
X1625000Y3775000D03*
%TD*%
D12*
%TO.P,R2,1*%
%TO.N,+3V3*%
X19590000Y12315000D03*
%TO.P,R2,2*%
%TO.N,/SCL*%
X19590000Y10740000D03*
%TD*%
D19*
%TO.P,R1,1*%
%TO.N,+5V*%
X7175000Y9180000D03*
%TO.P,R1,2*%
%TO.N,Net-(D1-A)*%
X7175000Y10830000D03*
%TD*%
D20*
%TO.P,J1,1*%
%TO.N,GND*%
X23400000Y11350000D03*
%TO.P,J1,3*%
%TO.N,/AIN1*%
X23400000Y8810000D03*
%TO.P,J1,5*%
%TO.N,/AIN0*%
X23400000Y6270000D03*
%TO.P,J1,7*%
%TO.N,GND*%
X23400000Y3730000D03*
%TD*%
D21*
%TO.P,U2,1,ADDR*%
%TO.N,/ADDR*%
X20645000Y5785000D03*
%TO.P,U2,2,ALERT/RDY*%
%TO.N,/ALERT{slash}RDY*%
X20645000Y6285000D03*
%TO.P,U2,3,GND*%
%TO.N,GND*%
X20645000Y6785000D03*
%TO.P,U2,4,AIN0*%
%TO.N,/AIN0*%
X20645000Y7285000D03*
%TO.P,U2,5,AIN1*%
%TO.N,/AIN1*%
X20645000Y7785000D03*
%TO.P,U2,6,AIN2*%
%TO.N,/AIN2*%
X16345000Y7785000D03*
%TO.P,U2,7,AIN3*%
%TO.N,/AIN3*%
X16345000Y7285000D03*
%TO.P,U2,8,VDD*%
%TO.N,+3V3*%
X16345000Y6785000D03*
%TO.P,U2,9,SDA*%
%TO.N,/SDA*%
X16345000Y6285000D03*
%TO.P,U2,10,SCL*%
%TO.N,/SCL*%
X16345000Y5785000D03*
%TD*%
D22*
%TO.N,GND*%
X23880000Y10090000D03*
D23*
X1550000Y5150000D03*
X4450000Y13300000D03*
X8050000Y7700000D03*
X15700000Y1100000D03*
X18600000Y13900000D03*
X4400000Y1950000D03*
X11557000Y10236200D03*
X1400000Y9800000D03*
D22*
X21050000Y12710000D03*
D23*
X15650000Y3850000D03*
D22*
X22500000Y5060000D03*
D23*
X16200000Y13900000D03*
X12600000Y12450000D03*
D22*
X21070000Y10090000D03*
X10050000Y5900000D03*
D23*
X14800000Y12450000D03*
D22*
X22520000Y2500000D03*
D23*
%TO.N,+3V3*%
X13790000Y3920000D03*
%TO.N,+5V*%
X3125000Y9375000D03*
%TO.N,Net-(D1-A)*%
X5700000Y12100000D03*
D22*
%TO.N,/AIN3*%
X18059400Y8051800D03*
%TO.N,/AIN2*%
X16860000Y8810000D03*
D23*
%TO.N,/ALERT{slash}RDY*%
X19380000Y3310000D03*
%TO.N,/SDA*%
X3175000Y6875000D03*
X16592400Y11207600D03*
%TO.N,/SCL*%
X6640000Y6900000D03*
X19600000Y9610000D03*
D22*
%TO.N,/ADDR*%
X20630000Y5050000D03*
%TD*%
D24*
%TO.N,GND*%
X20645000Y6785000D02*
X21321448Y6785000D01*
X21321448Y6785000D02*
X21700000Y6406448D01*
X22203000Y5060000D02*
X22500000Y5060000D01*
X21700000Y5563000D02*
X22203000Y5060000D01*
X21700000Y6406448D02*
X21700000Y5563000D01*
D25*
X22660000Y3730000D02*
X23400000Y3730000D01*
D26*
%TO.N,+3V3*%
X11000000Y4915000D02*
X12870000Y6785000D01*
D27*
X12943400Y3073400D02*
X12166701Y3073400D01*
D26*
X11000000Y4775000D02*
X11000000Y4915000D01*
D27*
X16345000Y6785000D02*
X14545000Y6785000D01*
X11000000Y4417800D02*
X11000000Y4775000D01*
D26*
X14545000Y6785000D02*
X14545000Y10291571D01*
X16578429Y12325000D02*
X17860000Y12325000D01*
X12870000Y6785000D02*
X14545000Y6785000D01*
D27*
X13790000Y3920000D02*
X12943400Y3073400D01*
X12166701Y3251099D02*
X11000000Y4417800D01*
D26*
X14545000Y10291571D02*
X16578429Y12325000D01*
X19580000Y12325000D02*
X19590000Y12315000D01*
D27*
X12166701Y3073400D02*
X12166701Y3251099D01*
D26*
X17860000Y12325000D02*
X19580000Y12325000D01*
D28*
%TO.N,+5V*%
X9063000Y9176500D02*
X9059500Y9180000D01*
D29*
X9982200Y9172500D02*
X9067000Y9172500D01*
D28*
X4825000Y9375000D02*
X6980000Y9375000D01*
D24*
X11033000Y9172500D02*
X11033000Y9183000D01*
X11033000Y9183000D02*
X11125000Y9275000D01*
D29*
X11033000Y9172500D02*
X9982200Y9172500D01*
D28*
X3475000Y9375000D02*
X3125000Y9375000D01*
X9982200Y8163500D02*
X9982200Y9172500D01*
X4825000Y9375000D02*
X3475000Y9375000D01*
X7175000Y9180000D02*
X9059500Y9180000D01*
X10548999Y8163500D02*
X9982200Y8163500D01*
X9100000Y7720000D02*
X9100000Y7050000D01*
X11000000Y7050000D02*
X11000000Y7712499D01*
X9982200Y8163500D02*
X9543500Y8163500D01*
X11038000Y9167500D02*
X11033000Y9172500D01*
X11000000Y7050000D02*
X11000000Y7134500D01*
D24*
X9067000Y9172500D02*
X9063000Y9176500D01*
D28*
X9543500Y8163500D02*
X9100000Y7720000D01*
X13033000Y9167500D02*
X11038000Y9167500D01*
X6980000Y9375000D02*
X7175000Y9180000D01*
X11000000Y7712499D02*
X10548999Y8163500D01*
D26*
%TO.N,Net-(D1-A)*%
X5700000Y12050000D02*
X5700000Y12100000D01*
X7175000Y10830000D02*
X6920000Y10830000D01*
X5700000Y12100000D02*
X5700000Y12200000D01*
X6220000Y10830000D02*
X5700000Y11350000D01*
X5700000Y11350000D02*
X5700000Y12050000D01*
X7175000Y10830000D02*
X6220000Y10830000D01*
D27*
%TO.N,Net-(D3-A)*%
X10591699Y3073400D02*
X8975900Y3073400D01*
X8950500Y3098800D02*
X7810500Y3098800D01*
X8975900Y3073400D02*
X8950500Y3098800D01*
%TO.N,/AIN3*%
X17292600Y7285000D02*
X18059400Y8051800D01*
X16345000Y7285000D02*
X17292600Y7285000D01*
%TO.N,/AIN1*%
X20645000Y7785000D02*
X21399400Y7785000D01*
X22424400Y8810000D02*
X23400000Y8810000D01*
X21399400Y7785000D02*
X22424400Y8810000D01*
%TO.N,/AIN0*%
X20645000Y7285000D02*
X21493200Y7285000D01*
X22508200Y6270000D02*
X23400000Y6270000D01*
X21493200Y7285000D02*
X22508200Y6270000D01*
D25*
X23357500Y6227500D02*
X23400000Y6270000D01*
D24*
%TO.N,/AIN2*%
X16345000Y7785000D02*
X16345000Y8295000D01*
X16345000Y8295000D02*
X16860000Y8810000D01*
D27*
%TO.N,/ALERT{slash}RDY*%
X7010400Y1727200D02*
X10566400Y1727200D01*
X6351400Y2652900D02*
X6351400Y2386200D01*
X19380000Y5872000D02*
X19380000Y3310000D01*
X20645000Y6285000D02*
X19793000Y6285000D01*
X11049000Y2209800D02*
X18279800Y2209800D01*
X10566400Y1727200D02*
X11049000Y2209800D01*
X18279800Y2209800D02*
X19380000Y3310000D01*
X6351400Y2386200D02*
X7010400Y1727200D01*
X5905500Y3098800D02*
X6351400Y2652900D01*
X19793000Y6285000D02*
X19380000Y5872000D01*
D26*
%TO.N,/SDA*%
X16592400Y11207600D02*
X17402400Y11207600D01*
D27*
X17765000Y6285000D02*
X16345000Y6285000D01*
X17860000Y9840000D02*
X18850000Y8850000D01*
D26*
X3175000Y6875000D02*
X4825000Y6875000D01*
X17855000Y10570000D02*
X17860000Y10575000D01*
D27*
X17860000Y10575000D02*
X17860000Y9840000D01*
X18850000Y8850000D02*
X18850000Y7370000D01*
D26*
X17402400Y11207600D02*
X17860000Y10750000D01*
D27*
X18850000Y7370000D02*
X17765000Y6285000D01*
D26*
%TO.N,/SCL*%
X6630000Y7750000D02*
X6255000Y8125000D01*
D27*
X19600000Y7300000D02*
X18085000Y5785000D01*
X18085000Y5785000D02*
X16345000Y5785000D01*
D26*
X6640000Y6900000D02*
X6630000Y6910000D01*
D27*
X19600000Y9560000D02*
X19600000Y7300000D01*
D26*
X6630000Y6910000D02*
X6630000Y7750000D01*
X19600000Y9560000D02*
X19600000Y10575000D01*
X6255000Y8125000D02*
X4825000Y8125000D01*
D27*
%TO.N,/ADDR*%
X20630000Y5770000D02*
X20645000Y5785000D01*
X20630000Y5050000D02*
X20630000Y5770000D01*
D25*
X20640000Y5790000D02*
X20645000Y5785000D01*
%TD*%
%TA.AperFunction,Conductor*%
%TO.N,GND*%
G36*
X10535699Y14479815D02*
G01*
X10581454Y14427011D01*
X10588062Y14408955D01*
X10610603Y14328504D01*
X10719634Y14077491D01*
X10719633Y14077491D01*
X10861829Y13843659D01*
X11034542Y13631366D01*
X11234560Y13444561D01*
X11458135Y13286745D01*
X11458141Y13286741D01*
X11458143Y13286740D01*
X11701136Y13160831D01*
X11701139Y13160830D01*
X11959004Y13069184D01*
X11959020Y13069179D01*
X12149255Y13029649D01*
X12226960Y13013502D01*
X12226961Y13013501D01*
X12244441Y13012306D01*
X12500000Y12994825D01*
X12773038Y13013501D01*
X12893620Y13038559D01*
X13040979Y13069179D01*
X13040985Y13069182D01*
X13040990Y13069182D01*
X13298864Y13160831D01*
X13541857Y13286740D01*
X13765442Y13444563D01*
X13965454Y13631362D01*
X14138168Y13843655D01*
X14280365Y14077489D01*
X14286226Y14090981D01*
X14389396Y14328504D01*
X14389398Y14328508D01*
X14411938Y14408956D01*
X14448980Y14468197D01*
X14512170Y14498009D01*
X14531340Y14499500D01*
X20468660Y14499500D01*
X20535699Y14479815D01*
X20581454Y14427011D01*
X20588062Y14408955D01*
X20610603Y14328504D01*
X20719634Y14077491D01*
X20719633Y14077491D01*
X20861829Y13843659D01*
X21034542Y13631366D01*
X21234560Y13444561D01*
X21458135Y13286745D01*
X21458141Y13286741D01*
X21458143Y13286740D01*
X21701136Y13160831D01*
X21701139Y13160830D01*
X21959004Y13069184D01*
X21959020Y13069179D01*
X22149255Y13029649D01*
X22226960Y13013502D01*
X22226961Y13013501D01*
X22244441Y13012306D01*
X22500000Y12994825D01*
X22773038Y13013501D01*
X22893620Y13038559D01*
X23040979Y13069179D01*
X23040985Y13069182D01*
X23040990Y13069182D01*
X23298864Y13160831D01*
X23541857Y13286740D01*
X23765442Y13444563D01*
X23965454Y13631362D01*
X24138168Y13843655D01*
X24269552Y14059709D01*
X24321203Y14106760D01*
X24390093Y14118418D01*
X24454350Y14090981D01*
X24493573Y14033159D01*
X24499500Y13995280D01*
X24499500Y9734500D01*
X24479815Y9667461D01*
X24427011Y9621706D01*
X24375500Y9610500D01*
X22100143Y9610500D01*
X22100117Y9610498D01*
X22075012Y9607587D01*
X22075008Y9607585D01*
X21972235Y9562207D01*
X21892794Y9482766D01*
X21847415Y9379994D01*
X21847415Y9379992D01*
X21844500Y9354869D01*
X21844500Y8918566D01*
X21824815Y8851527D01*
X21808181Y8830885D01*
X21249116Y8271819D01*
X21187793Y8238334D01*
X21161435Y8235500D01*
X20174500Y8235500D01*
X20107461Y8255185D01*
X20061706Y8307989D01*
X20050500Y8359500D01*
X20050500Y9018482D01*
X20070185Y9085521D01*
X20086814Y9106159D01*
X20144114Y9163458D01*
X20220775Y9278189D01*
X20273580Y9405672D01*
X20294401Y9510346D01*
X20300500Y9541005D01*
X20300500Y9678996D01*
X20273581Y9814323D01*
X20273580Y9814324D01*
X20273580Y9814328D01*
X20269658Y9823796D01*
X20220778Y9941805D01*
X20220771Y9941818D01*
X20191746Y9985257D01*
X20170868Y10051935D01*
X20189353Y10119315D01*
X20211658Y10143853D01*
X20210872Y10144639D01*
X20216858Y10150627D01*
X20216867Y10150633D01*
X20303115Y10264368D01*
X20355479Y10397154D01*
X20365500Y10480598D01*
X20365500Y10999402D01*
X20355479Y11082846D01*
X20303115Y11215632D01*
X20295531Y11225633D01*
X20216867Y11329368D01*
X20103134Y11415614D01*
X20096378Y11419412D01*
X20047589Y11469425D01*
X20033583Y11537876D01*
X20058808Y11603034D01*
X20096378Y11635588D01*
X20103126Y11639383D01*
X20103132Y11639385D01*
X20216867Y11725633D01*
X20303115Y11839368D01*
X20355479Y11972154D01*
X20365500Y12055598D01*
X20365500Y12574402D01*
X20355479Y12657846D01*
X20303115Y12790632D01*
X20270948Y12833051D01*
X20216867Y12904368D01*
X20103134Y12990614D01*
X20103132Y12990615D01*
X19970346Y13042979D01*
X19970345Y13042980D01*
X19970343Y13042980D01*
X19886902Y13053000D01*
X19293098Y13053000D01*
X19209656Y13042980D01*
X19209655Y13042980D01*
X19076865Y12990614D01*
X18963131Y12904367D01*
X18940539Y12874574D01*
X18937183Y12872095D01*
X18935449Y12868297D01*
X18909318Y12851505D01*
X18884346Y12833051D01*
X18879180Y12832136D01*
X18876671Y12830523D01*
X18841736Y12825500D01*
X18615847Y12825500D01*
X18548808Y12845185D01*
X18517043Y12874574D01*
X18486865Y12914369D01*
X18373134Y13000614D01*
X18373132Y13000615D01*
X18240346Y13052979D01*
X18240345Y13052980D01*
X18240343Y13052980D01*
X18156902Y13063000D01*
X17563098Y13063000D01*
X17479656Y13052980D01*
X17479655Y13052980D01*
X17346865Y13000614D01*
X17233134Y12914369D01*
X17202957Y12874574D01*
X17146764Y12833051D01*
X17104153Y12825500D01*
X16512537Y12825500D01*
X16385241Y12791392D01*
X16271115Y12725500D01*
X16271112Y12725498D01*
X14144502Y10598888D01*
X14144500Y10598885D01*
X14078608Y10484759D01*
X14044500Y10357463D01*
X14044500Y9533603D01*
X14024815Y9466564D01*
X13972011Y9420809D01*
X13902853Y9410865D01*
X13839297Y9439890D01*
X13801523Y9498668D01*
X13800280Y9503218D01*
X13798479Y9510339D01*
X13798479Y9510346D01*
X13746115Y9643132D01*
X13746010Y9643271D01*
X13659867Y9756868D01*
X13546134Y9843114D01*
X13546132Y9843115D01*
X13413346Y9895479D01*
X13413345Y9895480D01*
X13413343Y9895480D01*
X13329902Y9905500D01*
X12736098Y9905500D01*
X12652656Y9895480D01*
X12652655Y9895480D01*
X12519865Y9843114D01*
X12406130Y9756866D01*
X12403584Y9754319D01*
X12400684Y9752736D01*
X12399374Y9751742D01*
X12399224Y9751939D01*
X12376656Y9739616D01*
X12350838Y9723023D01*
X12344637Y9722132D01*
X12342261Y9720834D01*
X12315903Y9718000D01*
X12096191Y9718000D01*
X12029152Y9737685D01*
X11991478Y9781163D01*
X11990199Y9780286D01*
X11983705Y9789766D01*
X11904265Y9869206D01*
X11801492Y9914585D01*
X11776365Y9917500D01*
X10289643Y9917500D01*
X10289617Y9917498D01*
X10264512Y9914587D01*
X10264508Y9914585D01*
X10161735Y9869207D01*
X10082296Y9789768D01*
X10075800Y9780284D01*
X10072999Y9782203D01*
X10040395Y9743602D01*
X9973609Y9723073D01*
X9972044Y9723063D01*
X9514754Y9723063D01*
X9473799Y9730022D01*
X9347700Y9774147D01*
X9317270Y9777000D01*
X9317266Y9777000D01*
X8808734Y9777000D01*
X8808730Y9777000D01*
X8778303Y9774147D01*
X8730790Y9757522D01*
X8673450Y9737458D01*
X8632498Y9730500D01*
X7858231Y9730500D01*
X7791192Y9750185D01*
X7783920Y9755233D01*
X7692331Y9823796D01*
X7692328Y9823798D01*
X7557482Y9874092D01*
X7557483Y9874092D01*
X7497883Y9880499D01*
X7497881Y9880500D01*
X7497873Y9880500D01*
X7497865Y9880500D01*
X7235217Y9880500D01*
X7227042Y9882126D01*
X7221969Y9881210D01*
X7187770Y9889936D01*
X7185353Y9890937D01*
X7130948Y9934775D01*
X7108879Y10001068D01*
X7126155Y10068769D01*
X7177289Y10116382D01*
X7232798Y10129501D01*
X7497872Y10129501D01*
X7557483Y10135909D01*
X7692331Y10186204D01*
X7807546Y10272454D01*
X7893796Y10387669D01*
X7944091Y10522517D01*
X7950500Y10582127D01*
X7950499Y11077872D01*
X7944091Y11137483D01*
X7936881Y11156813D01*
X7893797Y11272329D01*
X7893793Y11272336D01*
X7807547Y11387545D01*
X7807544Y11387548D01*
X7692335Y11473794D01*
X7692328Y11473798D01*
X7557486Y11524090D01*
X7557485Y11524091D01*
X7557483Y11524091D01*
X7497873Y11530500D01*
X7497863Y11530500D01*
X6852129Y11530500D01*
X6852123Y11530499D01*
X6792516Y11524092D01*
X6657671Y11473798D01*
X6657664Y11473794D01*
X6535355Y11382232D01*
X6534765Y11383020D01*
X6530670Y11377549D01*
X6505901Y11368311D01*
X6482692Y11355644D01*
X6473675Y11356291D01*
X6465206Y11353132D01*
X6439375Y11358752D01*
X6413002Y11360643D01*
X6403960Y11366456D01*
X6396933Y11367984D01*
X6368679Y11389135D01*
X6260093Y11497721D01*
X6226608Y11559044D01*
X6231592Y11628736D01*
X6244672Y11654293D01*
X6320771Y11768183D01*
X6320771Y11768184D01*
X6320775Y11768189D01*
X6373580Y11895672D01*
X6400500Y12031007D01*
X6400500Y12168993D01*
X6400500Y12168996D01*
X6373581Y12304323D01*
X6373580Y12304324D01*
X6373580Y12304328D01*
X6373578Y12304333D01*
X6320778Y12431805D01*
X6320771Y12431818D01*
X6244114Y12546542D01*
X6244111Y12546546D01*
X6146545Y12644112D01*
X6146541Y12644115D01*
X6031817Y12720772D01*
X6031804Y12720779D01*
X5904332Y12773579D01*
X5904322Y12773582D01*
X5768995Y12800500D01*
X5768993Y12800500D01*
X5631007Y12800500D01*
X5631005Y12800500D01*
X5495677Y12773582D01*
X5495667Y12773579D01*
X5368195Y12720779D01*
X5368182Y12720772D01*
X5253458Y12644115D01*
X5253454Y12644112D01*
X5155888Y12546546D01*
X5155885Y12546542D01*
X5079228Y12431818D01*
X5079221Y12431805D01*
X5026421Y12304333D01*
X5026418Y12304323D01*
X4999500Y12168996D01*
X4999500Y12168993D01*
X4999500Y12031007D01*
X4999500Y12031005D01*
X4999499Y12031005D01*
X5026418Y11895678D01*
X5026421Y11895668D01*
X5079221Y11768196D01*
X5079228Y11768183D01*
X5155885Y11653459D01*
X5163177Y11646167D01*
X5196665Y11584845D01*
X5199500Y11558482D01*
X5199500Y11284109D01*
X5233608Y11156813D01*
X5250245Y11127998D01*
X5299500Y11042686D01*
X5819500Y10522686D01*
X5912686Y10429500D01*
X6026814Y10363608D01*
X6154108Y10329500D01*
X6437680Y10329500D01*
X6504719Y10309815D01*
X6536948Y10279809D01*
X6542454Y10272454D01*
X6553258Y10264366D01*
X6657664Y10186207D01*
X6657671Y10186203D01*
X6712690Y10165682D01*
X6768624Y10123811D01*
X6793041Y10058346D01*
X6778189Y9990073D01*
X6728784Y9940668D01*
X6669357Y9925500D01*
X5765504Y9925500D01*
X5724549Y9932459D01*
X5609701Y9972646D01*
X5609699Y9972647D01*
X5579270Y9975500D01*
X5579266Y9975500D01*
X4070734Y9975500D01*
X4070730Y9975500D01*
X4040300Y9972647D01*
X4040298Y9972646D01*
X3925451Y9932459D01*
X3884496Y9925500D01*
X3599600Y9925500D01*
X3532561Y9945185D01*
X3530709Y9946398D01*
X3456816Y9995772D01*
X3456804Y9995779D01*
X3329332Y10048579D01*
X3329322Y10048582D01*
X3193995Y10075500D01*
X3193993Y10075500D01*
X3056007Y10075500D01*
X3056005Y10075500D01*
X2920677Y10048582D01*
X2920667Y10048579D01*
X2793195Y9995779D01*
X2793182Y9995772D01*
X2678458Y9919115D01*
X2678454Y9919112D01*
X2580888Y9821546D01*
X2580885Y9821542D01*
X2504228Y9706818D01*
X2504221Y9706805D01*
X2451421Y9579333D01*
X2451418Y9579323D01*
X2424500Y9443996D01*
X2424500Y9443993D01*
X2424500Y9306007D01*
X2424500Y9306005D01*
X2424499Y9306005D01*
X2451418Y9170678D01*
X2451421Y9170668D01*
X2504221Y9043196D01*
X2504228Y9043183D01*
X2580885Y8928459D01*
X2580888Y8928455D01*
X2678454Y8830889D01*
X2678458Y8830886D01*
X2793182Y8754229D01*
X2793195Y8754222D01*
X2920667Y8701422D01*
X2920672Y8701420D01*
X2920676Y8701420D01*
X2920677Y8701419D01*
X3056004Y8674500D01*
X3056007Y8674500D01*
X3193995Y8674500D01*
X3285041Y8692611D01*
X3329328Y8701420D01*
X3456811Y8754225D01*
X3530709Y8803602D01*
X3548755Y8809253D01*
X3564665Y8819477D01*
X3595624Y8823929D01*
X3597386Y8824480D01*
X3599600Y8824500D01*
X3734067Y8824500D01*
X3801106Y8804815D01*
X3846861Y8752011D01*
X3856805Y8682853D01*
X3827780Y8619297D01*
X3807702Y8600731D01*
X3802850Y8597151D01*
X3722207Y8487883D01*
X3722206Y8487881D01*
X3677353Y8359702D01*
X3677353Y8359700D01*
X3674500Y8329270D01*
X3674500Y7920731D01*
X3677353Y7890301D01*
X3677353Y7890299D01*
X3721723Y7763500D01*
X3722207Y7762118D01*
X3802850Y7652850D01*
X3856845Y7613000D01*
X3874771Y7599770D01*
X3891230Y7578092D01*
X3910351Y7558722D01*
X3912047Y7550675D01*
X3917022Y7544122D01*
X3919148Y7516983D01*
X3924761Y7490355D01*
X3921837Y7482669D01*
X3922480Y7474466D01*
X3909598Y7450490D01*
X3899922Y7425049D01*
X3891422Y7416660D01*
X3889412Y7412917D01*
X3874804Y7400255D01*
X3874127Y7399755D01*
X3808506Y7375761D01*
X3800460Y7375500D01*
X3716519Y7375500D01*
X3649480Y7395185D01*
X3628838Y7411819D01*
X3621545Y7419112D01*
X3621541Y7419115D01*
X3506817Y7495772D01*
X3506804Y7495779D01*
X3379332Y7548579D01*
X3379322Y7548582D01*
X3243995Y7575500D01*
X3243993Y7575500D01*
X3106007Y7575500D01*
X3106005Y7575500D01*
X2970677Y7548582D01*
X2970667Y7548579D01*
X2843195Y7495779D01*
X2843182Y7495772D01*
X2728458Y7419115D01*
X2728454Y7419112D01*
X2630888Y7321546D01*
X2630885Y7321542D01*
X2554228Y7206818D01*
X2554221Y7206805D01*
X2501421Y7079333D01*
X2501418Y7079323D01*
X2474500Y6943996D01*
X2474500Y6943993D01*
X2474500Y6806007D01*
X2474500Y6806005D01*
X2474499Y6806005D01*
X2501418Y6670678D01*
X2501421Y6670668D01*
X2554221Y6543196D01*
X2554228Y6543183D01*
X2630885Y6428459D01*
X2630888Y6428455D01*
X2728454Y6330889D01*
X2728458Y6330886D01*
X2843182Y6254229D01*
X2843195Y6254222D01*
X2937551Y6215139D01*
X2970672Y6201420D01*
X2970676Y6201420D01*
X2970677Y6201419D01*
X3106004Y6174500D01*
X3106007Y6174500D01*
X3243995Y6174500D01*
X3350235Y6195633D01*
X3379328Y6201420D01*
X3506811Y6254225D01*
X3621542Y6330886D01*
X3625156Y6334500D01*
X3628838Y6338181D01*
X3655765Y6352885D01*
X3681584Y6369477D01*
X3687784Y6370369D01*
X3690161Y6371666D01*
X3716519Y6374500D01*
X3800460Y6374500D01*
X3867499Y6354815D01*
X3874093Y6350270D01*
X3912113Y6322210D01*
X3912115Y6322209D01*
X3912118Y6322207D01*
X3948810Y6309368D01*
X4040299Y6277354D01*
X4070730Y6274500D01*
X4070734Y6274500D01*
X5579270Y6274500D01*
X5609699Y6277354D01*
X5609701Y6277354D01*
X5694951Y6307185D01*
X5737882Y6322207D01*
X5847150Y6402850D01*
X5890632Y6461767D01*
X5946277Y6504017D01*
X6015933Y6509476D01*
X6077483Y6476410D01*
X6093504Y6457023D01*
X6095887Y6453456D01*
X6193454Y6355889D01*
X6193458Y6355886D01*
X6308182Y6279229D01*
X6308195Y6279222D01*
X6435667Y6226422D01*
X6435672Y6226420D01*
X6435676Y6226420D01*
X6435677Y6226419D01*
X6571004Y6199500D01*
X6571007Y6199500D01*
X6708995Y6199500D01*
X6800041Y6217611D01*
X6844328Y6226420D01*
X6971811Y6279225D01*
X7086542Y6355886D01*
X7184114Y6453458D01*
X7260775Y6568189D01*
X7313580Y6695672D01*
X7340500Y6831007D01*
X7340500Y6968993D01*
X7340500Y6968996D01*
X7313581Y7104323D01*
X7313580Y7104324D01*
X7313580Y7104328D01*
X7303998Y7127461D01*
X7260778Y7231805D01*
X7260771Y7231818D01*
X7184114Y7346542D01*
X7184111Y7346546D01*
X7166819Y7363838D01*
X7133334Y7425161D01*
X7130500Y7451519D01*
X7130500Y7815892D01*
X7130019Y7817686D01*
X7130014Y7817705D01*
X7111848Y7885501D01*
X7096392Y7943186D01*
X7030500Y8057314D01*
X6819994Y8267820D01*
X6786509Y8329143D01*
X6791493Y8398835D01*
X6833365Y8454768D01*
X6898829Y8479185D01*
X6907649Y8479501D01*
X7497872Y8479501D01*
X7557483Y8485909D01*
X7692331Y8536204D01*
X7767115Y8592187D01*
X7783920Y8604767D01*
X7849385Y8629184D01*
X7858231Y8629500D01*
X8612495Y8629500D01*
X8653450Y8622541D01*
X8778299Y8578854D01*
X8808730Y8576000D01*
X8808734Y8576000D01*
X8878113Y8576000D01*
X8945152Y8556315D01*
X8990907Y8503511D01*
X9000851Y8434353D01*
X8971826Y8370797D01*
X8965794Y8364319D01*
X8659491Y8058017D01*
X8659489Y8058014D01*
X8628877Y8004991D01*
X8599735Y7954515D01*
X8587016Y7932485D01*
X8549500Y7792475D01*
X8549500Y7783891D01*
X8544351Y7767431D01*
X8543782Y7766580D01*
X8543049Y7763500D01*
X8502353Y7647198D01*
X8499500Y7616770D01*
X8499500Y6483231D01*
X8502353Y6452801D01*
X8502353Y6452799D01*
X8546391Y6326949D01*
X8547207Y6324618D01*
X8627850Y6215350D01*
X8737118Y6134707D01*
X8779845Y6119756D01*
X8865299Y6089854D01*
X8895730Y6087000D01*
X8895734Y6087000D01*
X9304270Y6087000D01*
X9334699Y6089854D01*
X9334701Y6089854D01*
X9398790Y6112281D01*
X9462882Y6134707D01*
X9572150Y6215350D01*
X9652793Y6324618D01*
X9679699Y6401510D01*
X9697646Y6452799D01*
X9697646Y6452801D01*
X9700500Y6483231D01*
X9700500Y7489000D01*
X9720185Y7556039D01*
X9772989Y7601794D01*
X9824500Y7613000D01*
X9909725Y7613000D01*
X10269612Y7613000D01*
X10299052Y7604356D01*
X10329039Y7597832D01*
X10334054Y7594078D01*
X10336651Y7593315D01*
X10357293Y7576681D01*
X10363181Y7570793D01*
X10396666Y7509470D01*
X10399500Y7483112D01*
X10399500Y6483231D01*
X10402353Y6452801D01*
X10402353Y6452799D01*
X10446391Y6326949D01*
X10447207Y6324618D01*
X10527850Y6215350D01*
X10637118Y6134707D01*
X10679845Y6119756D01*
X10765299Y6089854D01*
X10795730Y6087000D01*
X11164824Y6087000D01*
X11186069Y6080762D01*
X11208158Y6079182D01*
X11218941Y6071110D01*
X11231863Y6067315D01*
X11246362Y6050582D01*
X11264091Y6037310D01*
X11268798Y6024690D01*
X11277618Y6014511D01*
X11280769Y5992594D01*
X11288508Y5971846D01*
X11285645Y5958686D01*
X11287562Y5945353D01*
X11278362Y5925210D01*
X11273656Y5903573D01*
X11260387Y5885848D01*
X11258537Y5881797D01*
X11252505Y5875319D01*
X11151505Y5774319D01*
X11090182Y5740834D01*
X11063824Y5738000D01*
X10795730Y5738000D01*
X10765300Y5735147D01*
X10765298Y5735147D01*
X10637119Y5690294D01*
X10637117Y5690293D01*
X10527850Y5609650D01*
X10447207Y5500383D01*
X10447206Y5500381D01*
X10402353Y5372202D01*
X10402353Y5372200D01*
X10399500Y5341770D01*
X10399500Y4208231D01*
X10402353Y4177801D01*
X10402353Y4177799D01*
X10447206Y4049621D01*
X10447208Y4049616D01*
X10449485Y4046531D01*
X10450930Y4042573D01*
X10451551Y4041399D01*
X10451390Y4041315D01*
X10473455Y3980902D01*
X10458137Y3912732D01*
X10408396Y3863665D01*
X10349713Y3848900D01*
X10332297Y3848900D01*
X10248855Y3838880D01*
X10248854Y3838880D01*
X10116064Y3786514D01*
X10002331Y3700268D01*
X9910959Y3579774D01*
X9909789Y3580661D01*
X9866402Y3538338D01*
X9808332Y3523900D01*
X9120928Y3523900D01*
X9088835Y3528125D01*
X9050719Y3538338D01*
X9009809Y3549300D01*
X9009808Y3549300D01*
X8679499Y3549300D01*
X8612460Y3568985D01*
X8566705Y3621789D01*
X8555499Y3673300D01*
X8555499Y3749907D01*
X8575184Y3816946D01*
X8627988Y3862701D01*
X8697146Y3872645D01*
X8728259Y3862524D01*
X8728348Y3862776D01*
X8737117Y3859708D01*
X8737118Y3859707D01*
X8745989Y3856603D01*
X8865299Y3814854D01*
X8895730Y3812000D01*
X8895734Y3812000D01*
X9304270Y3812000D01*
X9334699Y3814854D01*
X9334701Y3814854D01*
X9403359Y3838879D01*
X9462882Y3859707D01*
X9572150Y3940350D01*
X9652793Y4049618D01*
X9668633Y4094887D01*
X9697646Y4177799D01*
X9697646Y4177801D01*
X9700500Y4208231D01*
X9700500Y5341770D01*
X9697646Y5372200D01*
X9697646Y5372202D01*
X9652793Y5500381D01*
X9652792Y5500383D01*
X9639942Y5517794D01*
X9572150Y5609650D01*
X9462882Y5690293D01*
X9462880Y5690294D01*
X9334700Y5735147D01*
X9304270Y5738000D01*
X9304266Y5738000D01*
X8895734Y5738000D01*
X8895730Y5738000D01*
X8865300Y5735147D01*
X8865298Y5735147D01*
X8737119Y5690294D01*
X8737117Y5690293D01*
X8627850Y5609650D01*
X8547207Y5500383D01*
X8547206Y5500381D01*
X8502353Y5372202D01*
X8502353Y5372200D01*
X8499500Y5341770D01*
X8499500Y4208133D01*
X8479815Y4141094D01*
X8427011Y4095339D01*
X8357853Y4085395D01*
X8325415Y4094698D01*
X8324991Y4094885D01*
X8299865Y4097800D01*
X7321143Y4097800D01*
X7321117Y4097798D01*
X7296012Y4094887D01*
X7296008Y4094885D01*
X7193235Y4049507D01*
X7113794Y3970066D01*
X7068415Y3867294D01*
X7068415Y3867292D01*
X7065500Y3842169D01*
X7065500Y2608566D01*
X7059261Y2587321D01*
X7057682Y2565232D01*
X7049609Y2554449D01*
X7045815Y2541527D01*
X7029081Y2527028D01*
X7015810Y2509299D01*
X7003189Y2504592D01*
X6993011Y2495772D01*
X6971093Y2492621D01*
X6950346Y2484882D01*
X6937185Y2487745D01*
X6923853Y2485828D01*
X6903709Y2495028D01*
X6882073Y2499734D01*
X6864347Y2513003D01*
X6860297Y2514853D01*
X6853819Y2520885D01*
X6838219Y2536485D01*
X6804734Y2597808D01*
X6801900Y2624166D01*
X6801900Y2712207D01*
X6801900Y2712209D01*
X6772432Y2822186D01*
X6771199Y2826787D01*
X6711890Y2929514D01*
X6686818Y2954586D01*
X6653333Y3015909D01*
X6650499Y3042267D01*
X6650499Y3842157D01*
X6650499Y3842164D01*
X6650497Y3842183D01*
X6647586Y3867288D01*
X6647585Y3867290D01*
X6647585Y3867291D01*
X6602206Y3970065D01*
X6522765Y4049506D01*
X6522505Y4049621D01*
X6419992Y4094885D01*
X6394865Y4097800D01*
X5416143Y4097800D01*
X5416117Y4097798D01*
X5391012Y4094887D01*
X5391008Y4094885D01*
X5288235Y4049507D01*
X5208794Y3970066D01*
X5163415Y3867294D01*
X5163415Y3867292D01*
X5160500Y3842169D01*
X5160500Y2355444D01*
X5160502Y2355418D01*
X5163413Y2330313D01*
X5163415Y2330309D01*
X5208793Y2227536D01*
X5208794Y2227535D01*
X5288235Y2148094D01*
X5391009Y2102715D01*
X5416135Y2099800D01*
X5949334Y2099801D01*
X6016373Y2080117D01*
X6037014Y2063483D01*
X6733786Y1366710D01*
X6836513Y1307401D01*
X6860721Y1300916D01*
X6860724Y1300914D01*
X6860725Y1300914D01*
X6880300Y1295669D01*
X6951091Y1276700D01*
X6951093Y1276700D01*
X10625708Y1276700D01*
X10625709Y1276700D01*
X10696498Y1295669D01*
X10766346Y1294008D01*
X10824209Y1254847D01*
X10851715Y1190619D01*
X10840130Y1121716D01*
X10834540Y1111467D01*
X10719633Y922510D01*
X10610603Y671497D01*
X10588062Y591045D01*
X10551020Y531803D01*
X10487830Y501991D01*
X10468660Y500500D01*
X4531340Y500500D01*
X4464301Y520185D01*
X4418546Y572989D01*
X4411938Y591045D01*
X4389398Y671492D01*
X4280365Y922510D01*
X4280366Y922510D01*
X4138170Y1156342D01*
X3965457Y1368635D01*
X3765439Y1555440D01*
X3541864Y1713256D01*
X3541858Y1713260D01*
X3298860Y1839171D01*
X3040995Y1930817D01*
X3040979Y1930822D01*
X2773040Y1986499D01*
X2773038Y1986500D01*
X2500000Y2005175D01*
X2226961Y1986500D01*
X2226959Y1986499D01*
X1959020Y1930822D01*
X1959004Y1930817D01*
X1701139Y1839171D01*
X1458141Y1713260D01*
X1458135Y1713256D01*
X1234560Y1555440D01*
X1034542Y1368635D01*
X861829Y1156342D01*
X730448Y940293D01*
X678797Y893241D01*
X609906Y881583D01*
X545650Y909020D01*
X506427Y966842D01*
X500500Y1004721D01*
X500500Y13995280D01*
X520185Y14062319D01*
X572989Y14108074D01*
X642147Y14118018D01*
X705703Y14088993D01*
X730448Y14059708D01*
X861829Y13843659D01*
X1034542Y13631366D01*
X1234560Y13444561D01*
X1458135Y13286745D01*
X1458141Y13286741D01*
X1458143Y13286740D01*
X1701136Y13160831D01*
X1701139Y13160830D01*
X1959004Y13069184D01*
X1959020Y13069179D01*
X2149255Y13029649D01*
X2226960Y13013502D01*
X2226961Y13013501D01*
X2244441Y13012306D01*
X2500000Y12994825D01*
X2773038Y13013501D01*
X2893620Y13038559D01*
X3040979Y13069179D01*
X3040985Y13069182D01*
X3040990Y13069182D01*
X3298864Y13160831D01*
X3541857Y13286740D01*
X3765442Y13444563D01*
X3965454Y13631362D01*
X4138168Y13843655D01*
X4280365Y14077489D01*
X4286226Y14090981D01*
X4389396Y14328504D01*
X4389398Y14328508D01*
X4411938Y14408956D01*
X4448980Y14468197D01*
X4512170Y14498009D01*
X4531340Y14499500D01*
X10468660Y14499500D01*
X10535699Y14479815D01*
G37*
%TD.AperFunction*%
%TA.AperFunction,Conductor*%
G36*
X21700701Y6439948D02*
G01*
X21707180Y6433916D01*
X21808181Y6332915D01*
X21820073Y6311136D01*
X21835477Y6291671D01*
X21836528Y6281001D01*
X21841666Y6271592D01*
X21844500Y6245234D01*
X21844500Y5725144D01*
X21844502Y5725118D01*
X21847413Y5700013D01*
X21847415Y5700009D01*
X21892793Y5597236D01*
X21892794Y5597235D01*
X21972235Y5517794D01*
X22075009Y5472415D01*
X22100135Y5469500D01*
X24375500Y5469501D01*
X24442539Y5449816D01*
X24488294Y5397013D01*
X24499500Y5345501D01*
X24499500Y1004721D01*
X24479815Y937682D01*
X24427011Y891927D01*
X24357853Y881983D01*
X24294297Y911008D01*
X24269552Y940293D01*
X24138170Y1156342D01*
X23965457Y1368635D01*
X23765439Y1555440D01*
X23541864Y1713256D01*
X23541858Y1713260D01*
X23298860Y1839171D01*
X23040995Y1930817D01*
X23040979Y1930822D01*
X22773040Y1986499D01*
X22773038Y1986500D01*
X22500000Y2005175D01*
X22226961Y1986500D01*
X22226959Y1986499D01*
X21959020Y1930822D01*
X21959004Y1930817D01*
X21701139Y1839171D01*
X21458141Y1713260D01*
X21458135Y1713256D01*
X21234560Y1555440D01*
X21034542Y1368635D01*
X20861829Y1156342D01*
X20719633Y922510D01*
X20610603Y671497D01*
X20588062Y591045D01*
X20551020Y531803D01*
X20487830Y501991D01*
X20468660Y500500D01*
X14531340Y500500D01*
X14464301Y520185D01*
X14418546Y572989D01*
X14411938Y591045D01*
X14389398Y671492D01*
X14280365Y922510D01*
X14280366Y922510D01*
X14138170Y1156342D01*
X14110284Y1190619D01*
X13965454Y1368638D01*
X13857509Y1469452D01*
X13776964Y1544677D01*
X13741405Y1604821D01*
X13744008Y1674642D01*
X13783945Y1731973D01*
X13848538Y1758610D01*
X13861601Y1759300D01*
X18339107Y1759300D01*
X18339109Y1759300D01*
X18422939Y1781763D01*
X18440655Y1786509D01*
X18440656Y1786510D01*
X18453687Y1790001D01*
X18556414Y1849311D01*
X19280285Y2573181D01*
X19341608Y2606666D01*
X19367966Y2609500D01*
X19448995Y2609500D01*
X19540041Y2627611D01*
X19584328Y2636420D01*
X19711811Y2689225D01*
X19826542Y2765886D01*
X19924114Y2863458D01*
X20000775Y2978189D01*
X20053580Y3105672D01*
X20074389Y3210285D01*
X20080500Y3241005D01*
X20080500Y3378996D01*
X20053581Y3514323D01*
X20053580Y3514324D01*
X20053580Y3514328D01*
X20039094Y3549300D01*
X20000778Y3641805D01*
X20000771Y3641818D01*
X19924114Y3756542D01*
X19924111Y3756546D01*
X19866819Y3813838D01*
X19833334Y3875161D01*
X19830500Y3901519D01*
X19830500Y4774052D01*
X19850185Y4841091D01*
X19902989Y4886846D01*
X19972147Y4896790D01*
X20035703Y4867765D01*
X20066357Y4825253D01*
X20066359Y4825254D01*
X20066368Y4825237D01*
X20069062Y4821502D01*
X20070424Y4818212D01*
X20149475Y4681291D01*
X20149479Y4681286D01*
X20149480Y4681284D01*
X20261284Y4569480D01*
X20261286Y4569479D01*
X20261290Y4569476D01*
X20398209Y4490427D01*
X20398216Y4490423D01*
X20550943Y4449500D01*
X20550945Y4449500D01*
X20709055Y4449500D01*
X20709057Y4449500D01*
X20861784Y4490423D01*
X20998716Y4569480D01*
X21110520Y4681284D01*
X21189577Y4818216D01*
X21230500Y4970943D01*
X21230500Y5129057D01*
X21211721Y5199141D01*
X21213384Y5268987D01*
X21252546Y5326849D01*
X21281402Y5344662D01*
X21367765Y5382794D01*
X21447206Y5462235D01*
X21492585Y5565009D01*
X21495500Y5590135D01*
X21495499Y5979864D01*
X21494023Y5992594D01*
X21491511Y6014258D01*
X21493519Y6014491D01*
X21493833Y6030329D01*
X21491097Y6058097D01*
X21492477Y6064084D01*
X21492584Y6065007D01*
X21492585Y6065009D01*
X21495500Y6090135D01*
X21495499Y6346237D01*
X21515183Y6413274D01*
X21567987Y6459029D01*
X21637146Y6468973D01*
X21700701Y6439948D01*
G37*
%TD.AperFunction*%
%TA.AperFunction,Conductor*%
G36*
X15376941Y6332609D02*
G01*
X15383544Y6333812D01*
X15410042Y6322890D01*
X15437540Y6314815D01*
X15441934Y6309744D01*
X15448141Y6307185D01*
X15464529Y6283668D01*
X15483295Y6262011D01*
X15484962Y6254347D01*
X15488088Y6249861D01*
X15494414Y6215139D01*
X15494500Y6212829D01*
X15494501Y6090136D01*
X15497415Y6065009D01*
X15500276Y6058528D01*
X15500984Y6039639D01*
X15498082Y6014303D01*
X15498490Y6014255D01*
X15494500Y5979869D01*
X15494500Y5590144D01*
X15494502Y5590118D01*
X15497413Y5565013D01*
X15497415Y5565009D01*
X15542793Y5462236D01*
X15542794Y5462235D01*
X15622235Y5382794D01*
X15725009Y5337415D01*
X15750135Y5334500D01*
X16271248Y5334501D01*
X16271258Y5334500D01*
X16285691Y5334500D01*
X18144308Y5334500D01*
X18144309Y5334500D01*
X18234673Y5358714D01*
X18258887Y5365201D01*
X18361614Y5424511D01*
X18717819Y5780718D01*
X18779142Y5814202D01*
X18848833Y5809218D01*
X18904767Y5767347D01*
X18929184Y5701882D01*
X18929500Y5693036D01*
X18929500Y3901519D01*
X18909815Y3834480D01*
X18893181Y3813838D01*
X18835888Y3756546D01*
X18835885Y3756542D01*
X18759228Y3641818D01*
X18759221Y3641805D01*
X18706421Y3514333D01*
X18706418Y3514323D01*
X18679500Y3378996D01*
X18679500Y3297966D01*
X18659815Y3230927D01*
X18643181Y3210285D01*
X18129516Y2696619D01*
X18068193Y2663134D01*
X18041835Y2660300D01*
X13466765Y2660300D01*
X13399726Y2679985D01*
X13353971Y2732789D01*
X13344027Y2801947D01*
X13373052Y2865503D01*
X13379084Y2871981D01*
X13690284Y3183181D01*
X13751607Y3216666D01*
X13777965Y3219500D01*
X13858995Y3219500D01*
X13967115Y3241007D01*
X13994328Y3246420D01*
X14092924Y3287260D01*
X14121804Y3299222D01*
X14121804Y3299223D01*
X14121811Y3299225D01*
X14236542Y3375886D01*
X14334114Y3473458D01*
X14410775Y3588189D01*
X14415481Y3599549D01*
X14456840Y3699401D01*
X14463580Y3715672D01*
X14472389Y3759959D01*
X14490500Y3851005D01*
X14490500Y3988996D01*
X14463581Y4124323D01*
X14463580Y4124324D01*
X14463580Y4124328D01*
X14428867Y4208133D01*
X14410778Y4251805D01*
X14410771Y4251818D01*
X14334114Y4366542D01*
X14334111Y4366546D01*
X14236545Y4464112D01*
X14236541Y4464115D01*
X14121817Y4540772D01*
X14121804Y4540779D01*
X13994332Y4593579D01*
X13994322Y4593582D01*
X13858995Y4620500D01*
X13858993Y4620500D01*
X13721007Y4620500D01*
X13721005Y4620500D01*
X13585677Y4593582D01*
X13585667Y4593579D01*
X13458195Y4540779D01*
X13458182Y4540772D01*
X13343458Y4464115D01*
X13343454Y4464112D01*
X13245888Y4366546D01*
X13245885Y4366542D01*
X13169228Y4251818D01*
X13169221Y4251805D01*
X13116421Y4124333D01*
X13116418Y4124323D01*
X13089500Y3988996D01*
X13089500Y3907966D01*
X13080855Y3878526D01*
X13074332Y3848539D01*
X13070577Y3843524D01*
X13069815Y3840927D01*
X13053181Y3820285D01*
X12932297Y3699401D01*
X12870974Y3665916D01*
X12801282Y3670900D01*
X12763067Y3695460D01*
X12762827Y3695142D01*
X12758742Y3698240D01*
X12756935Y3699401D01*
X12756070Y3700266D01*
X12642335Y3786514D01*
X12642333Y3786515D01*
X12509547Y3838879D01*
X12509546Y3838880D01*
X12509544Y3838880D01*
X12426103Y3848900D01*
X12257365Y3848900D01*
X12190326Y3868585D01*
X12169684Y3885219D01*
X11636819Y4418084D01*
X11603334Y4479407D01*
X11600500Y4505765D01*
X11600500Y4756324D01*
X11620185Y4823363D01*
X11636819Y4844005D01*
X12803495Y6010681D01*
X12864818Y6044166D01*
X12891176Y6047000D01*
X13166902Y6047000D01*
X13250346Y6057021D01*
X13383132Y6109385D01*
X13496867Y6195633D01*
X13527043Y6235426D01*
X13530400Y6237907D01*
X13532134Y6241703D01*
X13558256Y6258491D01*
X13583236Y6276949D01*
X13588403Y6277865D01*
X13590912Y6279477D01*
X13625847Y6284500D01*
X13789153Y6284500D01*
X13856192Y6264815D01*
X13887957Y6235426D01*
X13913745Y6201419D01*
X13918134Y6195632D01*
X13998474Y6134708D01*
X14031868Y6109385D01*
X14164654Y6057021D01*
X14248098Y6047000D01*
X14841902Y6047000D01*
X14925346Y6057021D01*
X15058132Y6109385D01*
X15171867Y6195633D01*
X15202043Y6235426D01*
X15239959Y6285425D01*
X15296152Y6326949D01*
X15338763Y6334500D01*
X15370501Y6334500D01*
X15376941Y6332609D01*
G37*
%TD.AperFunction*%
%TD*%
M02*
