%TF.GenerationSoftware,KiCad,Pcbnew,9.0.1+1*%
%TF.CreationDate,2025-10-15T17:07:22+00:00*%
%TF.ProjectId,TFI2CADC01,54464932-4341-4444-9330-312e6b696361,rev?*%
%TF.SameCoordinates,PX81b3200PY6b49d20*%
%TF.FileFunction,Legend,Top*%
%TF.FilePolarity,Positive*%
%FSLAX46Y46*%
G04 Gerber Fmt 4.6, Leading zero omitted, Abs format (unit mm)*
G04 Created by KiCad (PCBNEW 9.0.1+1) date 2025-10-15 17:07:22*
%MOMM*%
%LPD*%
G01*
G04 APERTURE LIST*
%ADD10C,0.150000*%
%ADD11C,0.125000*%
%ADD12C,0.120000*%
G04 APERTURE END LIST*
D10*
X4823809Y1230896D02*
X5299999Y1230896D01*
X4728571Y945181D02*
X5061904Y1945181D01*
X5061904Y1945181D02*
X5395237Y945181D01*
X6204761Y945181D02*
X5728571Y945181D01*
X5728571Y945181D02*
X5728571Y1945181D01*
X6538095Y1468991D02*
X6871428Y1468991D01*
X7014285Y945181D02*
X6538095Y945181D01*
X6538095Y945181D02*
X6538095Y1945181D01*
X6538095Y1945181D02*
X7014285Y1945181D01*
X8014285Y945181D02*
X7680952Y1421372D01*
X7442857Y945181D02*
X7442857Y1945181D01*
X7442857Y1945181D02*
X7823809Y1945181D01*
X7823809Y1945181D02*
X7919047Y1897562D01*
X7919047Y1897562D02*
X7966666Y1849943D01*
X7966666Y1849943D02*
X8014285Y1754705D01*
X8014285Y1754705D02*
X8014285Y1611848D01*
X8014285Y1611848D02*
X7966666Y1516610D01*
X7966666Y1516610D02*
X7919047Y1468991D01*
X7919047Y1468991D02*
X7823809Y1421372D01*
X7823809Y1421372D02*
X7442857Y1421372D01*
X8300000Y1945181D02*
X8871428Y1945181D01*
X8585714Y945181D02*
X8585714Y1945181D01*
D11*
X5680953Y4218048D02*
X5919048Y4218048D01*
X5633334Y4075191D02*
X5800000Y4575191D01*
X5800000Y4575191D02*
X5966667Y4075191D01*
X7619047Y4075191D02*
X7619047Y4575191D01*
X7904761Y4075191D02*
X7690476Y4360905D01*
X7904761Y4575191D02*
X7619047Y4289477D01*
D10*
X5466667Y13245181D02*
X5466667Y14245181D01*
X5466667Y14245181D02*
X5847619Y14245181D01*
X5847619Y14245181D02*
X5942857Y14197562D01*
X5942857Y14197562D02*
X5990476Y14149943D01*
X5990476Y14149943D02*
X6038095Y14054705D01*
X6038095Y14054705D02*
X6038095Y13911848D01*
X6038095Y13911848D02*
X5990476Y13816610D01*
X5990476Y13816610D02*
X5942857Y13768991D01*
X5942857Y13768991D02*
X5847619Y13721372D01*
X5847619Y13721372D02*
X5466667Y13721372D01*
X6371429Y14245181D02*
X6609524Y13245181D01*
X6609524Y13245181D02*
X6800000Y13959467D01*
X6800000Y13959467D02*
X6990476Y13245181D01*
X6990476Y13245181D02*
X7228572Y14245181D01*
X8180952Y13245181D02*
X7847619Y13721372D01*
X7609524Y13245181D02*
X7609524Y14245181D01*
X7609524Y14245181D02*
X7990476Y14245181D01*
X7990476Y14245181D02*
X8085714Y14197562D01*
X8085714Y14197562D02*
X8133333Y14149943D01*
X8133333Y14149943D02*
X8180952Y14054705D01*
X8180952Y14054705D02*
X8180952Y13911848D01*
X8180952Y13911848D02*
X8133333Y13816610D01*
X8133333Y13816610D02*
X8085714Y13768991D01*
X8085714Y13768991D02*
X7990476Y13721372D01*
X7990476Y13721372D02*
X7609524Y13721372D01*
D11*
X8530953Y12018048D02*
X8769048Y12018048D01*
X8483334Y11875191D02*
X8650000Y12375191D01*
X8650000Y12375191D02*
X8816667Y11875191D01*
X4769047Y11875191D02*
X4769047Y12375191D01*
X5054761Y11875191D02*
X4840476Y12160905D01*
X5054761Y12375191D02*
X4769047Y12089477D01*
D12*
%TO.C,U1*%
X8490000Y5912500D02*
X8490000Y6712500D01*
X8490000Y5912500D02*
X8490000Y5112500D01*
X11610000Y5912500D02*
X11610000Y6712500D01*
X11610000Y5912500D02*
X11610000Y5112500D01*
X11890000Y6972500D02*
X11560000Y7212500D01*
X11890000Y7452500D01*
X11890000Y6972500D01*
G36*
X11890000Y6972500D02*
G01*
X11560000Y7212500D01*
X11890000Y7452500D01*
X11890000Y6972500D01*
G37*
%TO.C,C2*%
X12523000Y9792221D02*
X12523000Y10117779D01*
X13543000Y9792221D02*
X13543000Y10117779D01*
%TO.C,R3*%
X17350000Y11700279D02*
X17350000Y11374721D01*
X18370000Y11700279D02*
X18370000Y11374721D01*
D10*
%TO.C,C1*%
X10271000Y11649000D02*
X11795000Y11649000D01*
D12*
X10271000Y9744000D02*
X10271000Y10506000D01*
X11795000Y9744000D02*
X11795000Y10506000D01*
D10*
X11795000Y8601000D02*
X10271000Y8601000D01*
D12*
%TO.C,D2*%
X8463000Y10576500D02*
X8463000Y8616500D01*
X8463000Y8616500D02*
X9663000Y8616500D01*
X9663000Y10576500D02*
X9663000Y8616500D01*
%TO.C,C3*%
X12360000Y6160279D02*
X12360000Y5834721D01*
X13380000Y6160279D02*
X13380000Y5834721D01*
%TO.C,C4*%
X14035000Y6160279D02*
X14035000Y5834721D01*
X15055000Y6160279D02*
X15055000Y5834721D01*
%TO.C,R4*%
X9887220Y3583400D02*
X10212780Y3583400D01*
X9887220Y2563400D02*
X10212780Y2563400D01*
D10*
%TO.C,D3*%
X5276000Y3812000D02*
X6292000Y3812000D01*
X5276000Y2288000D02*
X5276000Y3812000D01*
X6292000Y2288000D02*
X5276000Y2288000D01*
X6393600Y3550000D02*
X6393600Y2550000D01*
X6406300Y3549999D02*
X7003200Y3050000D01*
X7003200Y3050000D02*
X6393600Y2550000D01*
X7104800Y3550000D02*
X7104800Y2550000D01*
X7308000Y3812000D02*
X8324000Y3812000D01*
X8324000Y3812000D02*
X8324000Y2288000D01*
X8324000Y2288000D02*
X7308000Y2288000D01*
X5276000Y2288000D02*
G75*
G02*
X5022000Y2288000I-127000J0D01*
G01*
X5022000Y2288000D02*
G75*
G02*
X5276000Y2288000I127000J0D01*
G01*
D12*
%TO.C,J2*%
X415000Y10465000D02*
X415000Y4535000D01*
X3235000Y11735000D02*
X4685000Y11735000D01*
X3235000Y3265000D02*
X4685000Y3265000D01*
X4685000Y11735000D02*
X4685000Y9935000D01*
X4685000Y9935000D02*
X5675000Y9935000D01*
X4685000Y3265000D02*
X4685000Y5065000D01*
%TO.C,R2*%
X19080000Y11690279D02*
X19080000Y11364721D01*
X20100000Y11690279D02*
X20100000Y11364721D01*
%TO.C,R1*%
X6777500Y9412742D02*
X6777500Y9887258D01*
X7822500Y9412742D02*
X7822500Y9887258D01*
D10*
%TO.C,D1*%
X5276000Y12862000D02*
X6292000Y12862000D01*
X5276000Y11338000D02*
X5276000Y12862000D01*
X6292000Y11338000D02*
X5276000Y11338000D01*
X6495200Y11600000D02*
X6495200Y12600000D01*
X6596800Y12100000D02*
X7206400Y12600000D01*
X7193700Y11600000D02*
X6596800Y12100000D01*
X7206400Y11600000D02*
X7206400Y12600000D01*
X7308000Y12862000D02*
X8324000Y12862000D01*
X8324000Y12862000D02*
X8324000Y11338000D01*
X8324000Y11338000D02*
X7308000Y11338000D01*
X8578000Y12862000D02*
G75*
G02*
X8324000Y12862000I-127000J0D01*
G01*
X8324000Y12862000D02*
G75*
G02*
X8578000Y12862000I127000J0D01*
G01*
%TO.C,U2*%
X16870000Y8410000D02*
X16870000Y8185000D01*
X16870000Y5160000D02*
X16870000Y5385000D01*
X20120000Y8410000D02*
X16870000Y8410000D01*
X20120000Y8410000D02*
X20120000Y8185000D01*
X20120000Y5160000D02*
X16870000Y5160000D01*
X20120000Y5160000D02*
X20120000Y5385000D01*
D12*
X20835000Y5055000D02*
X20355000Y5055000D01*
X20595000Y5385000D01*
X20835000Y5055000D01*
G36*
X20835000Y5055000D02*
G01*
X20355000Y5055000D01*
X20595000Y5385000D01*
X20835000Y5055000D01*
G37*
%TD*%
M02*
