%TF.GenerationSoftware,KiCad,Pcbnew,9.0.1+1*%
%TF.CreationDate,2025-10-12T19:03:11+00:00*%
%TF.ProjectId,TFI2CADC01,54464932-4341-4444-9330-312e6b696361,rev?*%
%TF.SameCoordinates,PX81b3200PY6b49d20*%
%TF.FileFunction,Paste,Top*%
%TF.FilePolarity,Positive*%
%FSLAX46Y46*%
G04 Gerber Fmt 4.6, Leading zero omitted, Abs format (unit mm)*
G04 Created by KiCad (PCBNEW 9.0.1+1) date 2025-10-12 19:03:11*
%MOMM*%
%LPD*%
G01*
G04 APERTURE LIST*
G04 Aperture macros list*
%AMRoundRect*
0 Rectangle with rounded corners*
0 $1 Rounding radius*
0 $2 $3 $4 $5 $6 $7 $8 $9 X,Y pos of 4 corners*
0 Add a 4 corners polygon primitive as box body*
4,1,4,$2,$3,$4,$5,$6,$7,$8,$9,$2,$3,0*
0 Add four circle primitives for the rounded corners*
1,1,$1+$1,$2,$3*
1,1,$1+$1,$4,$5*
1,1,$1+$1,$6,$7*
1,1,$1+$1,$8,$9*
0 Add four rect primitives between the rounded corners*
20,1,$1+$1,$2,$3,$4,$5,0*
20,1,$1+$1,$4,$5,$6,$7,0*
20,1,$1+$1,$6,$7,$8,$9,0*
20,1,$1+$1,$8,$9,$2,$3,0*%
G04 Aperture macros list end*
%ADD10RoundRect,0.150000X-0.150000X0.512500X-0.150000X-0.512500X0.150000X-0.512500X0.150000X0.512500X0*%
%ADD11RoundRect,0.218750X0.256250X-0.218750X0.256250X0.218750X-0.256250X0.218750X-0.256250X-0.218750X0*%
%ADD12RoundRect,0.218750X-0.256250X0.218750X-0.256250X-0.218750X0.256250X-0.218750X0.256250X0.218750X0*%
%ADD13R,1.397000X0.889000*%
%ADD14RoundRect,0.150000X-0.200000X0.150000X-0.200000X-0.150000X0.200000X-0.150000X0.200000X0.150000X0*%
%ADD15RoundRect,0.150000X-0.700000X0.150000X-0.700000X-0.150000X0.700000X-0.150000X0.700000X0.150000X0*%
%ADD16RoundRect,0.250000X-1.100000X0.250000X-1.100000X-0.250000X1.100000X-0.250000X1.100000X0.250000X0*%
%ADD17RoundRect,0.200000X0.275000X-0.200000X0.275000X0.200000X-0.275000X0.200000X-0.275000X-0.200000X0*%
%ADD18R,2.510000X1.000000*%
%ADD19R,1.100000X0.300000*%
G04 APERTURE END LIST*
D10*
%TO.C,U1*%
X11000000Y7050000D03*
X10050000Y7050000D03*
X9100000Y7050000D03*
X9100000Y4775000D03*
X11000000Y4775000D03*
%TD*%
D11*
%TO.C,C2*%
X13033000Y9167500D03*
X13033000Y10742500D03*
%TD*%
D12*
%TO.C,R3*%
X17860000Y12325000D03*
X17860000Y10750000D03*
%TD*%
D13*
%TO.C,C1*%
X11033000Y9172500D03*
X11033000Y11077500D03*
%TD*%
D14*
%TO.C,D2*%
X9063000Y9176500D03*
X9063000Y10576500D03*
%TD*%
D12*
%TO.C,C3*%
X12870000Y6785000D03*
X12870000Y5210000D03*
%TD*%
%TO.C,C4*%
X14545000Y6785000D03*
X14545000Y5210000D03*
%TD*%
D11*
%TO.C,R4*%
X7025000Y3950000D03*
X7025000Y5525000D03*
%TD*%
D15*
%TO.C,J2*%
X4825000Y9375000D03*
X4825000Y8125000D03*
X4825000Y6875000D03*
X4825000Y5625000D03*
D16*
X1625000Y11225000D03*
X1625000Y3775000D03*
%TD*%
D12*
%TO.C,R2*%
X19590000Y12315000D03*
X19590000Y10740000D03*
%TD*%
D17*
%TO.C,R1*%
X7175000Y9180000D03*
X7175000Y10830000D03*
%TD*%
D18*
%TO.C,J1*%
X23400000Y11350000D03*
X23400000Y8810000D03*
X23400000Y6270000D03*
X23400000Y3730000D03*
%TD*%
D19*
%TO.C,U2*%
X20645000Y5785000D03*
X20645000Y6285000D03*
X20645000Y6785000D03*
X20645000Y7285000D03*
X20645000Y7785000D03*
X16345000Y7785000D03*
X16345000Y7285000D03*
X16345000Y6785000D03*
X16345000Y6285000D03*
X16345000Y5785000D03*
%TD*%
M02*
