M48
; DRILL file {KiCad 9.0.7+1} date 2026-02-15T01:03:55+0000
; FORMAT={3:3/ absolute / metric / suppress leading zeros}
; #@! TF.CreationDate,2026-02-15T01:03:55+00:00
; #@! TF.GenerationSoftware,Kicad,Pcbnew,9.0.7+1
; #@! TF.FileFunction,Plated,1,2,PTH
FMAT,2
METRIC,TZ
; #@! TA.AperFunction,Plated,PTH,ViaDrill
T1C0.300
; #@! TA.AperFunction,Plated,PTH,ViaDrill
T2C0.400
%
G90
G05
T1
X10050Y5900
X16860Y8810
X18059Y8052
X20630Y5050
X21050Y12710
X21070Y10090
X22657Y5029
X23880Y10090
X23901Y2184
T2
X1400Y9800
X1550Y5150
X3125Y9375
X3175Y6875
X4400Y1950
X4450Y13300
X6640Y6900
X8026Y7849
X11100Y12217
X12600Y12450
X13790Y3920
X14800Y12450
X15650Y3850
X16200Y13900
X16592Y11208
X18600Y13900
X19380Y3310
X19600Y9610
M30
