%TF.GenerationSoftware,KiCad,Pcbnew,9.0.1+1*%
%TF.CreationDate,2025-10-11T18:06:46+00:00*%
%TF.ProjectId,TFI2CADC01,54464932-4341-4444-9330-312e6b696361,rev?*%
%TF.SameCoordinates,PX81b3200PY6b49d20*%
%TF.FileFunction,Profile,NP*%
%FSLAX46Y46*%
G04 Gerber Fmt 4.6, Leading zero omitted, Abs format (unit mm)*
G04 Created by KiCad (PCBNEW 9.0.1+1) date 2025-10-11 18:06:46*
%MOMM*%
%LPD*%
G01*
G04 APERTURE LIST*
%TA.AperFunction,Profile*%
%ADD10C,0.150000*%
%TD*%
%TA.AperFunction,Profile*%
%ADD11C,0.050000*%
%TD*%
G04 APERTURE END LIST*
D10*
X24000000Y15000000D02*
X25000000Y15000000D01*
X24000000Y15000000D02*
G75*
G02*
X21000000Y15000000I-1500000J0D01*
G01*
X21000000Y0D02*
X14000000Y0D01*
X4000000Y15000000D02*
G75*
G02*
X1000000Y15000000I-1500000J0D01*
G01*
X1000000Y0D02*
X0Y0D01*
X25000000Y0D02*
X24000000Y0D01*
X11000000Y0D02*
X4000000Y0D01*
X1000000Y0D02*
G75*
G02*
X4000000Y0I1500000J0D01*
G01*
X0Y15000000D02*
X1000000Y15000000D01*
X14000000Y15000000D02*
X21000000Y15000000D01*
X11000000Y0D02*
G75*
G02*
X14000000Y0I1500000J0D01*
G01*
X21000000Y0D02*
G75*
G02*
X24000000Y0I1500000J0D01*
G01*
X0Y0D02*
X0Y15000000D01*
X4000000Y15000000D02*
X11000000Y15000000D01*
X25000000Y15000000D02*
X25000000Y0D01*
X14000000Y15000000D02*
G75*
G02*
X11000000Y15000000I-1500000J0D01*
G01*
D11*
%TO.C,D3*%
X7125000Y2475000D02*
X7125000Y1075000D01*
X7425000Y775000D02*
X9025000Y775000D01*
X9025000Y2775000D02*
X7425000Y2775000D01*
X9325000Y1075000D02*
X9325000Y2475000D01*
X7125000Y2475000D02*
G75*
G02*
X7425000Y2775000I300000J0D01*
G01*
X7425000Y775000D02*
G75*
G02*
X7125000Y1075000I0J300000D01*
G01*
X9025000Y2775000D02*
G75*
G02*
X9325000Y2475000I0J-300000D01*
G01*
X9325000Y1075000D02*
G75*
G02*
X9025000Y775000I-300000J0D01*
G01*
%TO.C,D1*%
X7125000Y13975000D02*
X7125000Y12575000D01*
X7425000Y12275000D02*
X9025000Y12275000D01*
X9025000Y14275000D02*
X7425000Y14275000D01*
X9325000Y12575000D02*
X9325000Y13975000D01*
X7125000Y13975000D02*
G75*
G02*
X7425000Y14275000I300000J0D01*
G01*
X7425000Y12275000D02*
G75*
G02*
X7125000Y12575000I0J300000D01*
G01*
X9025000Y14275000D02*
G75*
G02*
X9325000Y13975000I0J-300000D01*
G01*
X9325000Y12575000D02*
G75*
G02*
X9025000Y12275000I-300000J0D01*
G01*
%TD*%
M02*
